<?xml version="1.0" encoding="UTF-8"?>
<svg xmlns="http://www.w3.org/2000/svg" width="264" height="220" viewBox="0 0 264 220">
  <rect width="100%" height="100%" fill="#2d1b4e" />
  <polygon points="11,6.6 15.4,11 11,15.4 6.6,11" fill="#f7c59f" fill-opacity="0.15" stroke-opacity="0.15" />
  <polygon points="33,6.6 37.4,11 33,15.4 28.6,11" fill="#f7c59f" fill-opacity="0.15" stroke-opacity="0.15" />
  <polygon points="55,6.6 59.4,11 55,15.4 50.6,11" fill="#f7c59f" fill-opacity="0.15" stroke-opacity="0.15" />
  <polygon points="77,6.6 81.4,11 77,15.4 72.6,11" fill="#f7c59f" fill-opacity="0.15" stroke-opacity="0.15" />
  <polygon points="99,6.6 103.4,11 99,15.4 94.6,11" fill="#f7c59f" fill-opacity="0.15" stroke-opacity="0.15" />
  <polygon points="121,6.6 125.4,11 121,15.4 116.6,11" fill="#f7c59f" fill-opacity="0.15" stroke-opacity="0.15" />
  <polygon points="143,6.6 147.4,11 143,15.4 138.6,11" fill="#f7c59f" fill-opacity="0.15" stroke-opacity="0.15" />
  <polygon points="165,6.6 169.4,11 165,15.4 160.6,11" fill="#f7c59f" fill-opacity="0.15" stroke-opacity="0.15" />
  <polygon points="187,6.6 191.4,11 187,15.4 182.6,11" fill="#f7c59f" fill-opacity="0.15" stroke-opacity="0.15" />
  <polygon points="209,6.6 213.4,11 209,15.4 204.6,11" fill="#f7c59f" fill-opacity="0.15" stroke-opacity="0.15" />
  <polygon points="231,6.6 235.4,11 231,15.4 226.6,11" fill="#f7c59f" fill-opacity="0.15" stroke-opacity="0.15" />
  <polygon points="253,6.6 257.4,11 253,15.4 248.6,11" fill="#f7c59f" fill-opacity="0.15" stroke-opacity="0.15" />
  <polygon points="11,28.6 15.4,33 11,37.4 6.6,33" fill="#f7c59f" fill-opacity="0.15" stroke-opacity="0.15" />
  <polygon points="33,28.6 37.4,33 33,37.4 28.6,33" fill="#f7c59f" fill-opacity="0.15" stroke-opacity="0.15" />
  <polygon points="55,28.6 59.4,33 55,37.4 50.6,33" fill="#f7c59f" fill-opacity="0.15" stroke-opacity="0.15" />
  <polygon points="77,28.6 81.4,33 77,37.4 72.6,33" fill="#f7c59f" fill-opacity="0.15" stroke-opacity="0.15" />
  <polygon points="99,28.6 103.4,33 99,37.4 94.6,33" fill="#f7c59f" fill-opacity="0.15" stroke-opacity="0.15" />
  <polygon points="121,28.6 125.4,33 121,37.4 116.6,33" fill="#f7c59f" fill-opacity="0.15" stroke-opacity="0.15" />
  <polygon points="143,28.6 147.4,33 143,37.4 138.6,33" fill="#f7c59f" fill-opacity="0.15" stroke-opacity="0.15" />
  <polygon points="165,28.6 169.4,33 165,37.4 160.6,33" fill="#f7c59f" fill-opacity="0.15" stroke-opacity="0.15" />
  <polygon points="187,28.6 191.4,33 187,37.4 182.6,33" fill="#f7c59f" fill-opacity="0.15" stroke-opacity="0.15" />
  <polygon points="209,28.6 213.4,33 209,37.4 204.6,33" fill="#f7c59f" fill-opacity="0.15" stroke-opacity="0.15" />
  <polygon points="231,28.6 235.4,33 231,37.4 226.6,33" fill="#f7c59f" fill-opacity="0.15" stroke-opacity="0.15" />
  <polygon points="253,28.6 257.4,33 253,37.4 248.6,33" fill="#f7c59f" fill-opacity="0.15" stroke-opacity="0.15" />
  <polygon points="11,50.6 15.4,55 11,59.4 6.6,55" fill="#f7c59f" fill-opacity="0.15" stroke-opacity="0.15" />
  <polygon points="33,50.6 37.4,55 33,59.4 28.6,55" fill="#f7c59f" fill-opacity="0.15" stroke-opacity="0.15" />
  <polygon points="55,50.6 59.4,55 55,59.4 50.6,55" fill="#f7c59f" fill-opacity="0.15" stroke-opacity="0.15" />
  <polygon points="77,50.6 81.4,55 77,59.4 72.6,55" fill="#f7c59f" fill-opacity="0.15" stroke-opacity="0.15" />
  <polygon points="99,50.6 103.4,55 99,59.4 94.6,55" fill="#f7c59f" fill-opacity="0.15" stroke-opacity="0.15" />
  <polygon points="121,50.6 125.4,55 121,59.4 116.6,55" fill="#f7c59f" fill-opacity="0.15" stroke-opacity="0.15" />
  <polygon points="143,50.6 147.4,55 143,59.4 138.6,55" fill="#f7c59f" fill-opacity="0.15" stroke-opacity="0.15" />
  <polygon points="165,50.6 169.4,55 165,59.4 160.6,55" fill="#f7c59f" fill-opacity="0.15" stroke-opacity="0.15" />
  <polygon points="187,50.6 191.4,55 187,59.4 182.6,55" fill="#f7c59f" fill-opacity="0.15" stroke-opacity="0.15" />
  <polygon points="209,50.6 213.4,55 209,59.4 204.6,55" fill="#f7c59f" fill-opacity="0.15" stroke-opacity="0.15" />
  <polygon points="231,50.6 235.4,55 231,59.4 226.6,55" fill="#f7c59f" fill-opacity="0.15" stroke-opacity="0.15" />
  <polygon points="253,50.6 257.4,55 253,59.4 248.6,55" fill="#f7c59f" fill-opacity="0.15" stroke-opacity="0.15" />
  <polygon points="11,72.6 15.4,77 11,81.4 6.6,77" fill="#f7c59f" fill-opacity="0.15" stroke-opacity="0.15" />
  <polygon points="33,72.6 37.4,77 33,81.4 28.6,77" fill="#f7c59f" fill-opacity="0.15" stroke-opacity="0.15" />
  <polygon points="55,72.6 59.4,77 55,81.4 50.6,77" fill="#f7c59f" fill-opacity="0.15" stroke-opacity="0.15" />
  <polygon points="77,72.6 81.4,77 77,81.4 72.6,77" fill="#f7c59f" fill-opacity="0.15" stroke-opacity="0.15" />
  <polygon points="99,72.6 103.4,77 99,81.4 94.6,77" fill="#f7c59f" fill-opacity="0.15" stroke-opacity="0.15" />
  <polygon points="121,72.6 125.4,77 121,81.4 116.6,77" fill="#f7c59f" fill-opacity="0.15" stroke-opacity="0.15" />
  <polygon points="143,72.6 147.4,77 143,81.4 138.6,77" fill="#f7c59f" fill-opacity="0.15" stroke-opacity="0.15" />
  <polygon points="165,72.6 169.4,77 165,81.4 160.6,77" fill="#f7c59f" fill-opacity="0.15" stroke-opacity="0.15" />
  <polygon points="187,72.6 191.4,77 187,81.4 182.6,77" fill="#f7c59f" fill-opacity="0.15" stroke-opacity="0.15" />
  <polygon points="209,72.6 213.4,77 209,81.4 204.6,77" fill="#f7c59f" fill-opacity="0.15" stroke-opacity="0.15" />
  <polygon points="231,72.6 235.4,77 231,81.4 226.6,77" fill="#f7c59f" fill-opacity="0.15" stroke-opacity="0.15" />
  <polygon points="253,72.6 257.4,77 253,81.4 248.6,77" fill="#f7c59f" fill-opacity="0.15" stroke-opacity="0.15" />
  <polygon points="11,94.6 15.4,99 11,103.4 6.6,99" fill="#f7c59f" fill-opacity="0.15" stroke-opacity="0.15" />
  <polygon points="33,94.6 37.4,99 33,103.4 28.6,99" fill="#f7c59f" fill-opacity="0.15" stroke-opacity="0.15" />
  <polygon points="55,94.6 59.4,99 55,103.4 50.6,99" fill="#f7c59f" fill-opacity="0.15" stroke-opacity="0.15" />
  <polygon points="77,94.6 81.4,99 77,103.4 72.6,99" fill="#f7c59f" fill-opacity="0.15" stroke-opacity="0.15" />
  <polygon points="99,94.6 103.4,99 99,103.4 94.6,99" fill="#f7c59f" fill-opacity="0.15" stroke-opacity="0.15" />
  <polygon points="121,94.6 125.4,99 121,103.4 116.6,99" fill="#f7c59f" fill-opacity="0.15" stroke-opacity="0.15" />
  <polygon points="143,94.6 147.4,99 143,103.4 138.6,99" fill="#f7c59f" fill-opacity="0.15" stroke-opacity="0.15" />
  <polygon points="165,94.6 169.4,99 165,103.4 160.6,99" fill="#f7c59f" fill-opacity="0.15" stroke-opacity="0.15" />
  <polygon points="187,94.6 191.4,99 187,103.4 182.6,99" fill="#f7c59f" fill-opacity="0.15" stroke-opacity="0.15" />
  <polygon points="209,94.6 213.4,99 209,103.4 204.6,99" fill="#f7c59f" fill-opacity="0.15" stroke-opacity="0.15" />
  <polygon points="231,94.6 235.4,99 231,103.4 226.6,99" fill="#f7c59f" fill-opacity="0.15" stroke-opacity="0.15" />
  <polygon points="253,94.6 257.4,99 253,103.4 248.6,99" fill="#f7c59f" fill-opacity="0.15" stroke-opacity="0.15" />
  <polygon points="11,116.6 15.4,121 11,125.4 6.6,121" fill="#f7c59f" fill-opacity="0.15" stroke-opacity="0.15" />
  <polygon points="33,116.6 37.4,121 33,125.4 28.6,121" fill="#f7c59f" fill-opacity="0.15" stroke-opacity="0.15" />
  <polygon points="55,116.6 59.4,121 55,125.4 50.6,121" fill="#f7c59f" fill-opacity="0.15" stroke-opacity="0.15" />
  <polygon points="77,116.6 81.4,121 77,125.4 72.6,121" fill="#f7c59f" fill-opacity="0.15" stroke-opacity="0.15" />
  <polygon points="99,116.6 103.4,121 99,125.4 94.6,121" fill="#f7c59f" fill-opacity="0.15" stroke-opacity="0.15" />
  <polygon points="121,116.6 125.4,121 121,125.4 116.6,121" fill="#f7c59f" fill-opacity="0.15" stroke-opacity="0.15" />
  <polygon points="143,116.6 147.4,121 143,125.4 138.6,121" fill="#f7c59f" fill-opacity="0.15" stroke-opacity="0.15" />
  <polygon points="165,116.6 169.4,121 165,125.4 160.6,121" fill="#f7c59f" fill-opacity="0.15" stroke-opacity="0.15" />
  <polygon points="187,116.6 191.4,121 187,125.4 182.6,121" fill="#f7c59f" fill-opacity="0.15" stroke-opacity="0.15" />
  <polygon points="209,116.6 213.4,121 209,125.4 204.6,121" fill="#f7c59f" fill-opacity="0.15" stroke-opacity="0.15" />
  <polygon points="231,116.6 235.4,121 231,125.4 226.6,121" fill="#f7c59f" fill-opacity="0.15" stroke-opacity="0.15" />
  <polygon points="253,116.6 257.4,121 253,125.4 248.6,121" fill="#f7c59f" fill-opacity="0.15" stroke-opacity="0.15" />
  <polygon points="11,138.6 15.4,143 11,147.4 6.6,143" fill="#f7c59f" fill-opacity="0.15" stroke-opacity="0.15" />
  <polygon points="33,138.6 37.4,143 33,147.4 28.6,143" fill="#f7c59f" fill-opacity="0.15" stroke-opacity="0.15" />
  <polygon points="55,138.6 59.4,143 55,147.4 50.6,143" fill="#f7c59f" fill-opacity="0.15" stroke-opacity="0.15" />
  <polygon points="77,138.6 81.4,143 77,147.4 72.6,143" fill="#f7c59f" fill-opacity="0.15" stroke-opacity="0.15" />
  <polygon points="99,138.6 103.4,143 99,147.4 94.6,143" fill="#f7c59f" fill-opacity="0.15" stroke-opacity="0.15" />
  <polygon points="121,138.6 125.4,143 121,147.4 116.6,143" fill="#f7c59f" fill-opacity="0.15" stroke-opacity="0.15" />
  <polygon points="143,138.6 147.4,143 143,147.4 138.6,143" fill="#f7c59f" fill-opacity="0.15" stroke-opacity="0.15" />
  <polygon points="165,138.6 169.4,143 165,147.4 160.6,143" fill="#f7c59f" fill-opacity="0.15" stroke-opacity="0.15" />
  <polygon points="187,138.6 191.4,143 187,147.4 182.6,143" fill="#f7c59f" fill-opacity="0.15" stroke-opacity="0.15" />
  <polygon points="209,138.6 213.4,143 209,147.4 204.6,143" fill="#f7c59f" fill-opacity="0.15" stroke-opacity="0.15" />
  <polygon points="231,138.6 235.4,143 231,147.4 226.6,143" fill="#f7c59f" fill-opacity="0.15" stroke-opacity="0.15" />
  <polygon points="253,138.6 257.4,143 253,147.4 248.6,143" fill="#f7c59f" fill-opacity="0.15" stroke-opacity="0.15" />
  <polygon points="11,160.6 15.4,165 11,169.4 6.6,165" fill="#f7c59f" fill-opacity="0.15" stroke-opacity="0.15" />
  <polygon points="33,160.6 37.4,165 33,169.4 28.6,165" fill="#f7c59f" fill-opacity="0.15" stroke-opacity="0.15" />
  <polygon points="55,160.6 59.4,165 55,169.4 50.6,165" fill="#f7c59f" fill-opacity="0.15" stroke-opacity="0.15" />
  <polygon points="77,160.6 81.4,165 77,169.4 72.6,165" fill="#f7c59f" fill-opacity="0.15" stroke-opacity="0.15" />
  <polygon points="99,160.6 103.4,165 99,169.4 94.6,165" fill="#f7c59f" fill-opacity="0.15" stroke-opacity="0.15" />
  <polygon points="121,160.6 125.4,165 121,169.4 116.6,165" fill="#f7c59f" fill-opacity="0.15" stroke-opacity="0.15" />
  <polygon points="143,160.6 147.4,165 143,169.4 138.6,165" fill="#f7c59f" fill-opacity="0.15" stroke-opacity="0.15" />
  <polygon points="165,160.6 169.4,165 165,169.4 160.6,165" fill="#f7c59f" fill-opacity="0.15" stroke-opacity="0.15" />
  <polygon points="187,160.6 191.4,165 187,169.4 182.6,165" fill="#f7c59f" fill-opacity="0.15" stroke-opacity="0.15" />
  <polygon points="209,160.6 213.4,165 209,169.4 204.6,165" fill="#f7c59f" fill-opacity="0.15" stroke-opacity="0.15" />
  <polygon points="231,160.6 235.4,165 231,169.4 226.6,165" fill="#f7c59f" fill-opacity="0.15" stroke-opacity="0.15" />
  <polygon points="253,160.6 257.4,165 253,169.4 248.6,165" fill="#f7c59f" fill-opacity="0.15" stroke-opacity="0.15" />
  <polygon points="11,182.6 15.4,187 11,191.4 6.6,187" fill="#f7c59f" fill-opacity="0.15" stroke-opacity="0.15" />
  <polygon points="33,182.6 37.4,187 33,191.4 28.6,187" fill="#f7c59f" fill-opacity="0.15" stroke-opacity="0.15" />
  <polygon points="55,182.6 59.4,187 55,191.4 50.6,187" fill="#f7c59f" fill-opacity="0.15" stroke-opacity="0.15" />
  <polygon points="77,182.6 81.4,187 77,191.4 72.6,187" fill="#f7c59f" fill-opacity="0.15" stroke-opacity="0.15" />
  <polygon points="99,182.6 103.4,187 99,191.4 94.6,187" fill="#f7c59f" fill-opacity="0.15" stroke-opacity="0.15" />
  <polygon points="121,182.6 125.4,187 121,191.4 116.6,187" fill="#f7c59f" fill-opacity="0.15" stroke-opacity="0.15" />
  <polygon points="143,182.6 147.4,187 143,191.4 138.6,187" fill="#f7c59f" fill-opacity="0.15" stroke-opacity="0.15" />
  <polygon points="165,182.6 169.4,187 165,191.4 160.6,187" fill="#f7c59f" fill-opacity="0.15" stroke-opacity="0.15" />
  <polygon points="187,182.6 191.4,187 187,191.4 182.6,187" fill="#f7c59f" fill-opacity="0.15" stroke-opacity="0.15" />
  <polygon points="209,182.6 213.4,187 209,191.4 204.6,187" fill="#f7c59f" fill-opacity="0.15" stroke-opacity="0.15" />
  <polygon points="231,182.6 235.4,187 231,191.4 226.6,187" fill="#f7c59f" fill-opacity="0.15" stroke-opacity="0.15" />
  <polygon points="253,182.6 257.4,187 253,191.4 248.6,187" fill="#f7c59f" fill-opacity="0.15" stroke-opacity="0.15" />
  <polygon points="11,204.6 15.4,209 11,213.4 6.6,209" fill="#f7c59f" fill-opacity="0.15" stroke-opacity="0.15" />
  <polygon points="33,204.6 37.4,209 33,213.4 28.6,209" fill="#f7c59f" fill-opacity="0.15" stroke-opacity="0.15" />
  <polygon points="55,204.6 59.4,209 55,213.4 50.6,209" fill="#f7c59f" fill-opacity="0.15" stroke-opacity="0.15" />
  <polygon points="77,204.6 81.4,209 77,213.4 72.6,209" fill="#f7c59f" fill-opacity="0.15" stroke-opacity="0.15" />
  <polygon points="99,204.6 103.4,209 99,213.4 94.6,209" fill="#f7c59f" fill-opacity="0.15" stroke-opacity="0.15" />
  <polygon points="121,204.6 125.4,209 121,213.4 116.6,209" fill="#f7c59f" fill-opacity="0.15" stroke-opacity="0.15" />
  <polygon points="143,204.6 147.4,209 143,213.4 138.6,209" fill="#f7c59f" fill-opacity="0.15" stroke-opacity="0.15" />
  <polygon points="165,204.6 169.4,209 165,213.4 160.6,209" fill="#f7c59f" fill-opacity="0.15" stroke-opacity="0.15" />
  <polygon points="187,204.6 191.4,209 187,213.4 182.6,209" fill="#f7c59f" fill-opacity="0.15" stroke-opacity="0.15" />
  <polygon points="209,204.6 213.4,209 209,213.4 204.6,209" fill="#f7c59f" fill-opacity="0.15" stroke-opacity="0.15" />
  <polygon points="231,204.6 235.4,209 231,213.4 226.6,209" fill="#f7c59f" fill-opacity="0.15" stroke-opacity="0.15" />
  <polygon points="253,204.6 257.4,209 253,213.4 248.6,209" fill="#f7c59f" fill-opacity="0.15" stroke-opacity="0.15" />
  <rect x="66" y="44" width="132" height="132" fill="#ff6b35" fill-opacity="0.15" stroke-opacity="0.15" />
  <rect x="66.75" y="44.75" width="130.5" height="130.5" fill="none" stroke="#efa00b" stroke-width="1.5" fill-opacity="0.6" stroke-opacity="0.6" />
  <text x="132" y="110" font-size="13.2" font-family="sans-serif" font-style="normal" font-weight="bold" fill="#efa00b" text-anchor="middle" dominant-baseline="middle">FEATURED</text>
  <rect x="0" y="0" width="264" height="22" fill="#ff6b35" fill-opacity="0.2" stroke-opacity="0.2" />
  <text x="132" y="11" font-size="12.1" font-family="sans-serif" font-style="normal" font-weight="normal" fill="#efa00b" text-anchor="middle" dominant-baseline="middle">COMPOSITION</text>
</svg>