<?xml version="1.0" encoding="UTF-8"?>
<svg xmlns="http://www.w3.org/2000/svg" width="264" height="220" viewBox="0 0 264 220">
  <rect width="100%" height="100%" fill="#2d1b4e" />
  <polygon points="11.0,6.6 15.399999999999999,11.0 11.0,15.399999999999999 6.6,11.0" fill="#f7c59f" fill-opacity="0.15" stroke-opacity="0.15" />
  <polygon points="33.0,6.6 37.4,11.0 33.0,15.399999999999999 28.6,11.0" fill="#f7c59f" fill-opacity="0.15" stroke-opacity="0.15" />
  <polygon points="55.0,6.6 59.4,11.0 55.0,15.399999999999999 50.6,11.0" fill="#f7c59f" fill-opacity="0.15" stroke-opacity="0.15" />
  <polygon points="77.0,6.6 81.4,11.0 77.0,15.399999999999999 72.6,11.0" fill="#f7c59f" fill-opacity="0.15" stroke-opacity="0.15" />
  <polygon points="99.0,6.6 103.4,11.0 99.0,15.399999999999999 94.6,11.0" fill="#f7c59f" fill-opacity="0.15" stroke-opacity="0.15" />
  <polygon points="121.0,6.6 125.4,11.0 121.0,15.399999999999999 116.6,11.0" fill="#f7c59f" fill-opacity="0.15" stroke-opacity="0.15" />
  <polygon points="143.0,6.6 147.4,11.0 143.0,15.399999999999999 138.6,11.0" fill="#f7c59f" fill-opacity="0.15" stroke-opacity="0.15" />
  <polygon points="165.0,6.6 169.4,11.0 165.0,15.399999999999999 160.6,11.0" fill="#f7c59f" fill-opacity="0.15" stroke-opacity="0.15" />
  <polygon points="187.0,6.6 191.4,11.0 187.0,15.399999999999999 182.6,11.0" fill="#f7c59f" fill-opacity="0.15" stroke-opacity="0.15" />
  <polygon points="209.0,6.6 213.4,11.0 209.0,15.399999999999999 204.6,11.0" fill="#f7c59f" fill-opacity="0.15" stroke-opacity="0.15" />
  <polygon points="231.0,6.6 235.4,11.0 231.0,15.399999999999999 226.6,11.0" fill="#f7c59f" fill-opacity="0.15" stroke-opacity="0.15" />
  <polygon points="253.0,6.6 257.4,11.0 253.0,15.399999999999999 248.6,11.0" fill="#f7c59f" fill-opacity="0.15" stroke-opacity="0.15" />
  <polygon points="11.0,28.6 15.399999999999999,33.0 11.0,37.4 6.6,33.0" fill="#f7c59f" fill-opacity="0.15" stroke-opacity="0.15" />
  <polygon points="33.0,28.6 37.4,33.0 33.0,37.4 28.6,33.0" fill="#f7c59f" fill-opacity="0.15" stroke-opacity="0.15" />
  <polygon points="55.0,28.6 59.4,33.0 55.0,37.4 50.6,33.0" fill="#f7c59f" fill-opacity="0.15" stroke-opacity="0.15" />
  <polygon points="77.0,28.6 81.4,33.0 77.0,37.4 72.6,33.0" fill="#f7c59f" fill-opacity="0.15" stroke-opacity="0.15" />
  <polygon points="99.0,28.6 103.4,33.0 99.0,37.4 94.6,33.0" fill="#f7c59f" fill-opacity="0.15" stroke-opacity="0.15" />
  <polygon points="121.0,28.6 125.4,33.0 121.0,37.4 116.6,33.0" fill="#f7c59f" fill-opacity="0.15" stroke-opacity="0.15" />
  <polygon points="143.0,28.6 147.4,33.0 143.0,37.4 138.6,33.0" fill="#f7c59f" fill-opacity="0.15" stroke-opacity="0.15" />
  <polygon points="165.0,28.6 169.4,33.0 165.0,37.4 160.6,33.0" fill="#f7c59f" fill-opacity="0.15" stroke-opacity="0.15" />
  <polygon points="187.0,28.6 191.4,33.0 187.0,37.4 182.6,33.0" fill="#f7c59f" fill-opacity="0.15" stroke-opacity="0.15" />
  <polygon points="209.0,28.6 213.4,33.0 209.0,37.4 204.6,33.0" fill="#f7c59f" fill-opacity="0.15" stroke-opacity="0.15" />
  <polygon points="231.0,28.6 235.4,33.0 231.0,37.4 226.6,33.0" fill="#f7c59f" fill-opacity="0.15" stroke-opacity="0.15" />
  <polygon points="253.0,28.6 257.4,33.0 253.0,37.4 248.6,33.0" fill="#f7c59f" fill-opacity="0.15" stroke-opacity="0.15" />
  <polygon points="11.0,50.6 15.399999999999999,55.0 11.0,59.4 6.6,55.0" fill="#f7c59f" fill-opacity="0.15" stroke-opacity="0.15" />
  <polygon points="33.0,50.6 37.4,55.0 33.0,59.4 28.6,55.0" fill="#f7c59f" fill-opacity="0.15" stroke-opacity="0.15" />
  <polygon points="55.0,50.6 59.4,55.0 55.0,59.4 50.6,55.0" fill="#f7c59f" fill-opacity="0.15" stroke-opacity="0.15" />
  <polygon points="77.0,50.6 81.4,55.0 77.0,59.4 72.6,55.0" fill="#f7c59f" fill-opacity="0.15" stroke-opacity="0.15" />
  <polygon points="99.0,50.6 103.4,55.0 99.0,59.4 94.6,55.0" fill="#f7c59f" fill-opacity="0.15" stroke-opacity="0.15" />
  <polygon points="121.0,50.6 125.4,55.0 121.0,59.4 116.6,55.0" fill="#f7c59f" fill-opacity="0.15" stroke-opacity="0.15" />
  <polygon points="143.0,50.6 147.4,55.0 143.0,59.4 138.6,55.0" fill="#f7c59f" fill-opacity="0.15" stroke-opacity="0.15" />
  <polygon points="165.0,50.6 169.4,55.0 165.0,59.4 160.6,55.0" fill="#f7c59f" fill-opacity="0.15" stroke-opacity="0.15" />
  <polygon points="187.0,50.6 191.4,55.0 187.0,59.4 182.6,55.0" fill="#f7c59f" fill-opacity="0.15" stroke-opacity="0.15" />
  <polygon points="209.0,50.6 213.4,55.0 209.0,59.4 204.6,55.0" fill="#f7c59f" fill-opacity="0.15" stroke-opacity="0.15" />
  <polygon points="231.0,50.6 235.4,55.0 231.0,59.4 226.6,55.0" fill="#f7c59f" fill-opacity="0.15" stroke-opacity="0.15" />
  <polygon points="253.0,50.6 257.4,55.0 253.0,59.4 248.6,55.0" fill="#f7c59f" fill-opacity="0.15" stroke-opacity="0.15" />
  <polygon points="11.0,72.6 15.399999999999999,77.0 11.0,81.4 6.6,77.0" fill="#f7c59f" fill-opacity="0.15" stroke-opacity="0.15" />
  <polygon points="33.0,72.6 37.4,77.0 33.0,81.4 28.6,77.0" fill="#f7c59f" fill-opacity="0.15" stroke-opacity="0.15" />
  <polygon points="55.0,72.6 59.4,77.0 55.0,81.4 50.6,77.0" fill="#f7c59f" fill-opacity="0.15" stroke-opacity="0.15" />
  <polygon points="77.0,72.6 81.4,77.0 77.0,81.4 72.6,77.0" fill="#f7c59f" fill-opacity="0.15" stroke-opacity="0.15" />
  <polygon points="99.0,72.6 103.4,77.0 99.0,81.4 94.6,77.0" fill="#f7c59f" fill-opacity="0.15" stroke-opacity="0.15" />
  <polygon points="121.0,72.6 125.4,77.0 121.0,81.4 116.6,77.0" fill="#f7c59f" fill-opacity="0.15" stroke-opacity="0.15" />
  <polygon points="143.0,72.6 147.4,77.0 143.0,81.4 138.6,77.0" fill="#f7c59f" fill-opacity="0.15" stroke-opacity="0.15" />
  <polygon points="165.0,72.6 169.4,77.0 165.0,81.4 160.6,77.0" fill="#f7c59f" fill-opacity="0.15" stroke-opacity="0.15" />
  <polygon points="187.0,72.6 191.4,77.0 187.0,81.4 182.6,77.0" fill="#f7c59f" fill-opacity="0.15" stroke-opacity="0.15" />
  <polygon points="209.0,72.6 213.4,77.0 209.0,81.4 204.6,77.0" fill="#f7c59f" fill-opacity="0.15" stroke-opacity="0.15" />
  <polygon points="231.0,72.6 235.4,77.0 231.0,81.4 226.6,77.0" fill="#f7c59f" fill-opacity="0.15" stroke-opacity="0.15" />
  <polygon points="253.0,72.6 257.4,77.0 253.0,81.4 248.6,77.0" fill="#f7c59f" fill-opacity="0.15" stroke-opacity="0.15" />
  <polygon points="11.0,94.6 15.399999999999999,99.0 11.0,103.4 6.6,99.0" fill="#f7c59f" fill-opacity="0.15" stroke-opacity="0.15" />
  <polygon points="33.0,94.6 37.4,99.0 33.0,103.4 28.6,99.0" fill="#f7c59f" fill-opacity="0.15" stroke-opacity="0.15" />
  <polygon points="55.0,94.6 59.4,99.0 55.0,103.4 50.6,99.0" fill="#f7c59f" fill-opacity="0.15" stroke-opacity="0.15" />
  <polygon points="77.0,94.6 81.4,99.0 77.0,103.4 72.6,99.0" fill="#f7c59f" fill-opacity="0.15" stroke-opacity="0.15" />
  <polygon points="99.0,94.6 103.4,99.0 99.0,103.4 94.6,99.0" fill="#f7c59f" fill-opacity="0.15" stroke-opacity="0.15" />
  <polygon points="121.0,94.6 125.4,99.0 121.0,103.4 116.6,99.0" fill="#f7c59f" fill-opacity="0.15" stroke-opacity="0.15" />
  <polygon points="143.0,94.6 147.4,99.0 143.0,103.4 138.6,99.0" fill="#f7c59f" fill-opacity="0.15" stroke-opacity="0.15" />
  <polygon points="165.0,94.6 169.4,99.0 165.0,103.4 160.6,99.0" fill="#f7c59f" fill-opacity="0.15" stroke-opacity="0.15" />
  <polygon points="187.0,94.6 191.4,99.0 187.0,103.4 182.6,99.0" fill="#f7c59f" fill-opacity="0.15" stroke-opacity="0.15" />
  <polygon points="209.0,94.6 213.4,99.0 209.0,103.4 204.6,99.0" fill="#f7c59f" fill-opacity="0.15" stroke-opacity="0.15" />
  <polygon points="231.0,94.6 235.4,99.0 231.0,103.4 226.6,99.0" fill="#f7c59f" fill-opacity="0.15" stroke-opacity="0.15" />
  <polygon points="253.0,94.6 257.4,99.0 253.0,103.4 248.6,99.0" fill="#f7c59f" fill-opacity="0.15" stroke-opacity="0.15" />
  <polygon points="11.0,116.6 15.399999999999999,121.0 11.0,125.4 6.6,121.0" fill="#f7c59f" fill-opacity="0.15" stroke-opacity="0.15" />
  <polygon points="33.0,116.6 37.4,121.0 33.0,125.4 28.6,121.0" fill="#f7c59f" fill-opacity="0.15" stroke-opacity="0.15" />
  <polygon points="55.0,116.6 59.4,121.0 55.0,125.4 50.6,121.0" fill="#f7c59f" fill-opacity="0.15" stroke-opacity="0.15" />
  <polygon points="77.0,116.6 81.4,121.0 77.0,125.4 72.6,121.0" fill="#f7c59f" fill-opacity="0.15" stroke-opacity="0.15" />
  <polygon points="99.0,116.6 103.4,121.0 99.0,125.4 94.6,121.0" fill="#f7c59f" fill-opacity="0.15" stroke-opacity="0.15" />
  <polygon points="121.0,116.6 125.4,121.0 121.0,125.4 116.6,121.0" fill="#f7c59f" fill-opacity="0.15" stroke-opacity="0.15" />
  <polygon points="143.0,116.6 147.4,121.0 143.0,125.4 138.6,121.0" fill="#f7c59f" fill-opacity="0.15" stroke-opacity="0.15" />
  <polygon points="165.0,116.6 169.4,121.0 165.0,125.4 160.6,121.0" fill="#f7c59f" fill-opacity="0.15" stroke-opacity="0.15" />
  <polygon points="187.0,116.6 191.4,121.0 187.0,125.4 182.6,121.0" fill="#f7c59f" fill-opacity="0.15" stroke-opacity="0.15" />
  <polygon points="209.0,116.6 213.4,121.0 209.0,125.4 204.6,121.0" fill="#f7c59f" fill-opacity="0.15" stroke-opacity="0.15" />
  <polygon points="231.0,116.6 235.4,121.0 231.0,125.4 226.6,121.0" fill="#f7c59f" fill-opacity="0.15" stroke-opacity="0.15" />
  <polygon points="253.0,116.6 257.4,121.0 253.0,125.4 248.6,121.0" fill="#f7c59f" fill-opacity="0.15" stroke-opacity="0.15" />
  <polygon points="11.0,138.6 15.399999999999999,143.0 11.0,147.4 6.6,143.0" fill="#f7c59f" fill-opacity="0.15" stroke-opacity="0.15" />
  <polygon points="33.0,138.6 37.4,143.0 33.0,147.4 28.6,143.0" fill="#f7c59f" fill-opacity="0.15" stroke-opacity="0.15" />
  <polygon points="55.0,138.6 59.4,143.0 55.0,147.4 50.6,143.0" fill="#f7c59f" fill-opacity="0.15" stroke-opacity="0.15" />
  <polygon points="77.0,138.6 81.4,143.0 77.0,147.4 72.6,143.0" fill="#f7c59f" fill-opacity="0.15" stroke-opacity="0.15" />
  <polygon points="99.0,138.6 103.4,143.0 99.0,147.4 94.6,143.0" fill="#f7c59f" fill-opacity="0.15" stroke-opacity="0.15" />
  <polygon points="121.0,138.6 125.4,143.0 121.0,147.4 116.6,143.0" fill="#f7c59f" fill-opacity="0.15" stroke-opacity="0.15" />
  <polygon points="143.0,138.6 147.4,143.0 143.0,147.4 138.6,143.0" fill="#f7c59f" fill-opacity="0.15" stroke-opacity="0.15" />
  <polygon points="165.0,138.6 169.4,143.0 165.0,147.4 160.6,143.0" fill="#f7c59f" fill-opacity="0.15" stroke-opacity="0.15" />
  <polygon points="187.0,138.6 191.4,143.0 187.0,147.4 182.6,143.0" fill="#f7c59f" fill-opacity="0.15" stroke-opacity="0.15" />
  <polygon points="209.0,138.6 213.4,143.0 209.0,147.4 204.6,143.0" fill="#f7c59f" fill-opacity="0.15" stroke-opacity="0.15" />
  <polygon points="231.0,138.6 235.4,143.0 231.0,147.4 226.6,143.0" fill="#f7c59f" fill-opacity="0.15" stroke-opacity="0.15" />
  <polygon points="253.0,138.6 257.4,143.0 253.0,147.4 248.6,143.0" fill="#f7c59f" fill-opacity="0.15" stroke-opacity="0.15" />
  <polygon points="11.0,160.6 15.399999999999999,165.0 11.0,169.4 6.6,165.0" fill="#f7c59f" fill-opacity="0.15" stroke-opacity="0.15" />
  <polygon points="33.0,160.6 37.4,165.0 33.0,169.4 28.6,165.0" fill="#f7c59f" fill-opacity="0.15" stroke-opacity="0.15" />
  <polygon points="55.0,160.6 59.4,165.0 55.0,169.4 50.6,165.0" fill="#f7c59f" fill-opacity="0.15" stroke-opacity="0.15" />
  <polygon points="77.0,160.6 81.4,165.0 77.0,169.4 72.6,165.0" fill="#f7c59f" fill-opacity="0.15" stroke-opacity="0.15" />
  <polygon points="99.0,160.6 103.4,165.0 99.0,169.4 94.6,165.0" fill="#f7c59f" fill-opacity="0.15" stroke-opacity="0.15" />
  <polygon points="121.0,160.6 125.4,165.0 121.0,169.4 116.6,165.0" fill="#f7c59f" fill-opacity="0.15" stroke-opacity="0.15" />
  <polygon points="143.0,160.6 147.4,165.0 143.0,169.4 138.6,165.0" fill="#f7c59f" fill-opacity="0.15" stroke-opacity="0.15" />
  <polygon points="165.0,160.6 169.4,165.0 165.0,169.4 160.6,165.0" fill="#f7c59f" fill-opacity="0.15" stroke-opacity="0.15" />
  <polygon points="187.0,160.6 191.4,165.0 187.0,169.4 182.6,165.0" fill="#f7c59f" fill-opacity="0.15" stroke-opacity="0.15" />
  <polygon points="209.0,160.6 213.4,165.0 209.0,169.4 204.6,165.0" fill="#f7c59f" fill-opacity="0.15" stroke-opacity="0.15" />
  <polygon points="231.0,160.6 235.4,165.0 231.0,169.4 226.6,165.0" fill="#f7c59f" fill-opacity="0.15" stroke-opacity="0.15" />
  <polygon points="253.0,160.6 257.4,165.0 253.0,169.4 248.6,165.0" fill="#f7c59f" fill-opacity="0.15" stroke-opacity="0.15" />
  <polygon points="11.0,182.6 15.399999999999999,187.0 11.0,191.4 6.6,187.0" fill="#f7c59f" fill-opacity="0.15" stroke-opacity="0.15" />
  <polygon points="33.0,182.6 37.4,187.0 33.0,191.4 28.6,187.0" fill="#f7c59f" fill-opacity="0.15" stroke-opacity="0.15" />
  <polygon points="55.0,182.6 59.4,187.0 55.0,191.4 50.6,187.0" fill="#f7c59f" fill-opacity="0.15" stroke-opacity="0.15" />
  <polygon points="77.0,182.6 81.4,187.0 77.0,191.4 72.6,187.0" fill="#f7c59f" fill-opacity="0.15" stroke-opacity="0.15" />
  <polygon points="99.0,182.6 103.4,187.0 99.0,191.4 94.6,187.0" fill="#f7c59f" fill-opacity="0.15" stroke-opacity="0.15" />
  <polygon points="121.0,182.6 125.4,187.0 121.0,191.4 116.6,187.0" fill="#f7c59f" fill-opacity="0.15" stroke-opacity="0.15" />
  <polygon points="143.0,182.6 147.4,187.0 143.0,191.4 138.6,187.0" fill="#f7c59f" fill-opacity="0.15" stroke-opacity="0.15" />
  <polygon points="165.0,182.6 169.4,187.0 165.0,191.4 160.6,187.0" fill="#f7c59f" fill-opacity="0.15" stroke-opacity="0.15" />
  <polygon points="187.0,182.6 191.4,187.0 187.0,191.4 182.6,187.0" fill="#f7c59f" fill-opacity="0.15" stroke-opacity="0.15" />
  <polygon points="209.0,182.6 213.4,187.0 209.0,191.4 204.6,187.0" fill="#f7c59f" fill-opacity="0.15" stroke-opacity="0.15" />
  <polygon points="231.0,182.6 235.4,187.0 231.0,191.4 226.6,187.0" fill="#f7c59f" fill-opacity="0.15" stroke-opacity="0.15" />
  <polygon points="253.0,182.6 257.4,187.0 253.0,191.4 248.6,187.0" fill="#f7c59f" fill-opacity="0.15" stroke-opacity="0.15" />
  <polygon points="11.0,204.6 15.399999999999999,209.0 11.0,213.4 6.6,209.0" fill="#f7c59f" fill-opacity="0.15" stroke-opacity="0.15" />
  <polygon points="33.0,204.6 37.4,209.0 33.0,213.4 28.6,209.0" fill="#f7c59f" fill-opacity="0.15" stroke-opacity="0.15" />
  <polygon points="55.0,204.6 59.4,209.0 55.0,213.4 50.6,209.0" fill="#f7c59f" fill-opacity="0.15" stroke-opacity="0.15" />
  <polygon points="77.0,204.6 81.4,209.0 77.0,213.4 72.6,209.0" fill="#f7c59f" fill-opacity="0.15" stroke-opacity="0.15" />
  <polygon points="99.0,204.6 103.4,209.0 99.0,213.4 94.6,209.0" fill="#f7c59f" fill-opacity="0.15" stroke-opacity="0.15" />
  <polygon points="121.0,204.6 125.4,209.0 121.0,213.4 116.6,209.0" fill="#f7c59f" fill-opacity="0.15" stroke-opacity="0.15" />
  <polygon points="143.0,204.6 147.4,209.0 143.0,213.4 138.6,209.0" fill="#f7c59f" fill-opacity="0.15" stroke-opacity="0.15" />
  <polygon points="165.0,204.6 169.4,209.0 165.0,213.4 160.6,209.0" fill="#f7c59f" fill-opacity="0.15" stroke-opacity="0.15" />
  <polygon points="187.0,204.6 191.4,209.0 187.0,213.4 182.6,209.0" fill="#f7c59f" fill-opacity="0.15" stroke-opacity="0.15" />
  <polygon points="209.0,204.6 213.4,209.0 209.0,213.4 204.6,209.0" fill="#f7c59f" fill-opacity="0.15" stroke-opacity="0.15" />
  <polygon points="231.0,204.6 235.4,209.0 231.0,213.4 226.6,209.0" fill="#f7c59f" fill-opacity="0.15" stroke-opacity="0.15" />
  <polygon points="253.0,204.6 257.4,209.0 253.0,213.4 248.6,209.0" fill="#f7c59f" fill-opacity="0.15" stroke-opacity="0.15" />
  <rect x="66" y="44" width="132.0" height="132.0" fill="#ff6b35" fill-opacity="0.15" stroke-opacity="0.15" />
  <rect x="66.75" y="44.75" width="130.5" height="130.5" fill="none" stroke="#efa00b" stroke-width="1.5" fill-opacity="0.6" stroke-opacity="0.6" />
  <text x="132.0" y="110.0" font-size="13.200000000000001" font-family="sans-serif" font-style="normal" font-weight="bold" fill="#efa00b" text-anchor="middle" dominant-baseline="middle">FEATURED</text>
  <rect x="0" y="0" width="264.0" height="22.0" fill="#ff6b35" fill-opacity="0.2" stroke-opacity="0.2" />
  <text x="132.0" y="11.0" font-size="12.100000000000001" font-family="sans-serif" font-style="normal" font-weight="normal" fill="#efa00b" text-anchor="middle" dominant-baseline="middle">COMPOSITION</text>
</svg>