<?xml version="1.0" encoding="UTF-8"?>
<svg xmlns="http://www.w3.org/2000/svg" width="304" height="228" viewBox="0 0 304 228">
  <rect width="100%" height="100%" fill="#0a1628" />
  <g transform="translate(19.0, 19.0) scale(1.2160000000000002)">
  <circle cx="0" cy="0" r="8.0" fill="#00d9ff" opacity="0.6" />
  <line x1="-12" y1="0" x2="12" y2="0" stroke="#0077b6" stroke-width="1.0" stroke-linecap="round" opacity="0.5" />
  <line x1="0" y1="-12" x2="0" y2="12" stroke="#0077b6" stroke-width="1.0" stroke-linecap="round" opacity="0.5" />
  <ellipse cx="0" cy="0" rx="10.0" ry="10.0" fill="none" stroke="#0077b6" stroke-width="0.5" fill-opacity="0.3" stroke-opacity="0.3" />
</g>
  <g transform="translate(57.0, 19.0) rotate(6.428571428571428) scale(1.2160000000000002)">
  <circle cx="0" cy="0" r="8.0" fill="#00d9ff" opacity="0.6" />
  <line x1="-12" y1="0" x2="12" y2="0" stroke="#0077b6" stroke-width="1.0" stroke-linecap="round" opacity="0.5" />
  <line x1="0" y1="-12" x2="0" y2="12" stroke="#0077b6" stroke-width="1.0" stroke-linecap="round" opacity="0.5" />
  <ellipse cx="0" cy="0" rx="10.0" ry="10.0" fill="none" stroke="#0077b6" stroke-width="0.5" fill-opacity="0.3" stroke-opacity="0.3" />
</g>
  <g transform="translate(95.0, 19.0) rotate(12.857142857142856) scale(1.2160000000000002)">
  <circle cx="0" cy="0" r="8.0" fill="#00d9ff" opacity="0.6" />
  <line x1="-12" y1="0" x2="12" y2="0" stroke="#0077b6" stroke-width="1.0" stroke-linecap="round" opacity="0.5" />
  <line x1="0" y1="-12" x2="0" y2="12" stroke="#0077b6" stroke-width="1.0" stroke-linecap="round" opacity="0.5" />
  <ellipse cx="0" cy="0" rx="10.0" ry="10.0" fill="none" stroke="#0077b6" stroke-width="0.5" fill-opacity="0.3" stroke-opacity="0.3" />
</g>
  <g transform="translate(133.0, 19.0) rotate(19.285714285714285) scale(1.2160000000000002)">
  <circle cx="0" cy="0" r="8.0" fill="#00d9ff" opacity="0.6" />
  <line x1="-12" y1="0" x2="12" y2="0" stroke="#0077b6" stroke-width="1.0" stroke-linecap="round" opacity="0.5" />
  <line x1="0" y1="-12" x2="0" y2="12" stroke="#0077b6" stroke-width="1.0" stroke-linecap="round" opacity="0.5" />
  <ellipse cx="0" cy="0" rx="10.0" ry="10.0" fill="none" stroke="#0077b6" stroke-width="0.5" fill-opacity="0.3" stroke-opacity="0.3" />
</g>
  <g transform="translate(171.0, 19.0) rotate(25.71428571428571) scale(1.2160000000000002)">
  <circle cx="0" cy="0" r="8.0" fill="#00d9ff" opacity="0.6" />
  <line x1="-12" y1="0" x2="12" y2="0" stroke="#0077b6" stroke-width="1.0" stroke-linecap="round" opacity="0.5" />
  <line x1="0" y1="-12" x2="0" y2="12" stroke="#0077b6" stroke-width="1.0" stroke-linecap="round" opacity="0.5" />
  <ellipse cx="0" cy="0" rx="10.0" ry="10.0" fill="none" stroke="#0077b6" stroke-width="0.5" fill-opacity="0.3" stroke-opacity="0.3" />
</g>
  <g transform="translate(209.0, 19.0) rotate(32.142857142857146) scale(1.2160000000000002)">
  <circle cx="0" cy="0" r="8.0" fill="#00d9ff" opacity="0.6" />
  <line x1="-12" y1="0" x2="12" y2="0" stroke="#0077b6" stroke-width="1.0" stroke-linecap="round" opacity="0.5" />
  <line x1="0" y1="-12" x2="0" y2="12" stroke="#0077b6" stroke-width="1.0" stroke-linecap="round" opacity="0.5" />
  <ellipse cx="0" cy="0" rx="10.0" ry="10.0" fill="none" stroke="#0077b6" stroke-width="0.5" fill-opacity="0.3" stroke-opacity="0.3" />
</g>
  <g transform="translate(247.0, 19.0) rotate(38.57142857142857) scale(1.2160000000000002)">
  <circle cx="0" cy="0" r="8.0" fill="#00d9ff" opacity="0.6" />
  <line x1="-12" y1="0" x2="12" y2="0" stroke="#0077b6" stroke-width="1.0" stroke-linecap="round" opacity="0.5" />
  <line x1="0" y1="-12" x2="0" y2="12" stroke="#0077b6" stroke-width="1.0" stroke-linecap="round" opacity="0.5" />
  <ellipse cx="0" cy="0" rx="10.0" ry="10.0" fill="none" stroke="#0077b6" stroke-width="0.5" fill-opacity="0.3" stroke-opacity="0.3" />
</g>
  <g transform="translate(285.0, 19.0) rotate(45.0) scale(1.2160000000000002)">
  <circle cx="0" cy="0" r="8.0" fill="#00d9ff" opacity="0.6" />
  <line x1="-12" y1="0" x2="12" y2="0" stroke="#0077b6" stroke-width="1.0" stroke-linecap="round" opacity="0.5" />
  <line x1="0" y1="-12" x2="0" y2="12" stroke="#0077b6" stroke-width="1.0" stroke-linecap="round" opacity="0.5" />
  <ellipse cx="0" cy="0" rx="10.0" ry="10.0" fill="none" stroke="#0077b6" stroke-width="0.5" fill-opacity="0.3" stroke-opacity="0.3" />
</g>
  <g transform="translate(19.0, 57.0) scale(1.2160000000000002)">
  <circle cx="0" cy="0" r="8.0" fill="#00d9ff" opacity="0.6" />
  <line x1="-12" y1="0" x2="12" y2="0" stroke="#0077b6" stroke-width="1.0" stroke-linecap="round" opacity="0.5" />
  <line x1="0" y1="-12" x2="0" y2="12" stroke="#0077b6" stroke-width="1.0" stroke-linecap="round" opacity="0.5" />
  <ellipse cx="0" cy="0" rx="10.0" ry="10.0" fill="none" stroke="#0077b6" stroke-width="0.5" fill-opacity="0.3" stroke-opacity="0.3" />
</g>
  <g transform="translate(57.0, 57.0) rotate(6.428571428571428) scale(1.2160000000000002)">
  <circle cx="0" cy="0" r="8.0" fill="#00d9ff" opacity="0.6" />
  <line x1="-12" y1="0" x2="12" y2="0" stroke="#0077b6" stroke-width="1.0" stroke-linecap="round" opacity="0.5" />
  <line x1="0" y1="-12" x2="0" y2="12" stroke="#0077b6" stroke-width="1.0" stroke-linecap="round" opacity="0.5" />
  <ellipse cx="0" cy="0" rx="10.0" ry="10.0" fill="none" stroke="#0077b6" stroke-width="0.5" fill-opacity="0.3" stroke-opacity="0.3" />
</g>
  <g transform="translate(95.0, 57.0) rotate(12.857142857142856) scale(1.2160000000000002)">
  <circle cx="0" cy="0" r="8.0" fill="#00d9ff" opacity="0.6" />
  <line x1="-12" y1="0" x2="12" y2="0" stroke="#0077b6" stroke-width="1.0" stroke-linecap="round" opacity="0.5" />
  <line x1="0" y1="-12" x2="0" y2="12" stroke="#0077b6" stroke-width="1.0" stroke-linecap="round" opacity="0.5" />
  <ellipse cx="0" cy="0" rx="10.0" ry="10.0" fill="none" stroke="#0077b6" stroke-width="0.5" fill-opacity="0.3" stroke-opacity="0.3" />
</g>
  <g transform="translate(133.0, 57.0) rotate(19.285714285714285) scale(1.2160000000000002)">
  <circle cx="0" cy="0" r="8.0" fill="#00d9ff" opacity="0.6" />
  <line x1="-12" y1="0" x2="12" y2="0" stroke="#0077b6" stroke-width="1.0" stroke-linecap="round" opacity="0.5" />
  <line x1="0" y1="-12" x2="0" y2="12" stroke="#0077b6" stroke-width="1.0" stroke-linecap="round" opacity="0.5" />
  <ellipse cx="0" cy="0" rx="10.0" ry="10.0" fill="none" stroke="#0077b6" stroke-width="0.5" fill-opacity="0.3" stroke-opacity="0.3" />
</g>
  <g transform="translate(171.0, 57.0) rotate(25.71428571428571) scale(1.2160000000000002)">
  <circle cx="0" cy="0" r="8.0" fill="#00d9ff" opacity="0.6" />
  <line x1="-12" y1="0" x2="12" y2="0" stroke="#0077b6" stroke-width="1.0" stroke-linecap="round" opacity="0.5" />
  <line x1="0" y1="-12" x2="0" y2="12" stroke="#0077b6" stroke-width="1.0" stroke-linecap="round" opacity="0.5" />
  <ellipse cx="0" cy="0" rx="10.0" ry="10.0" fill="none" stroke="#0077b6" stroke-width="0.5" fill-opacity="0.3" stroke-opacity="0.3" />
</g>
  <g transform="translate(209.0, 57.0) rotate(32.142857142857146) scale(1.2160000000000002)">
  <circle cx="0" cy="0" r="8.0" fill="#00d9ff" opacity="0.6" />
  <line x1="-12" y1="0" x2="12" y2="0" stroke="#0077b6" stroke-width="1.0" stroke-linecap="round" opacity="0.5" />
  <line x1="0" y1="-12" x2="0" y2="12" stroke="#0077b6" stroke-width="1.0" stroke-linecap="round" opacity="0.5" />
  <ellipse cx="0" cy="0" rx="10.0" ry="10.0" fill="none" stroke="#0077b6" stroke-width="0.5" fill-opacity="0.3" stroke-opacity="0.3" />
</g>
  <g transform="translate(247.0, 57.0) rotate(38.57142857142857) scale(1.2160000000000002)">
  <circle cx="0" cy="0" r="8.0" fill="#00d9ff" opacity="0.6" />
  <line x1="-12" y1="0" x2="12" y2="0" stroke="#0077b6" stroke-width="1.0" stroke-linecap="round" opacity="0.5" />
  <line x1="0" y1="-12" x2="0" y2="12" stroke="#0077b6" stroke-width="1.0" stroke-linecap="round" opacity="0.5" />
  <ellipse cx="0" cy="0" rx="10.0" ry="10.0" fill="none" stroke="#0077b6" stroke-width="0.5" fill-opacity="0.3" stroke-opacity="0.3" />
</g>
  <g transform="translate(285.0, 57.0) rotate(45.0) scale(1.2160000000000002)">
  <circle cx="0" cy="0" r="8.0" fill="#00d9ff" opacity="0.6" />
  <line x1="-12" y1="0" x2="12" y2="0" stroke="#0077b6" stroke-width="1.0" stroke-linecap="round" opacity="0.5" />
  <line x1="0" y1="-12" x2="0" y2="12" stroke="#0077b6" stroke-width="1.0" stroke-linecap="round" opacity="0.5" />
  <ellipse cx="0" cy="0" rx="10.0" ry="10.0" fill="none" stroke="#0077b6" stroke-width="0.5" fill-opacity="0.3" stroke-opacity="0.3" />
</g>
  <g transform="translate(19.0, 95.0) scale(1.2160000000000002)">
  <circle cx="0" cy="0" r="8.0" fill="#00d9ff" opacity="0.6" />
  <line x1="-12" y1="0" x2="12" y2="0" stroke="#0077b6" stroke-width="1.0" stroke-linecap="round" opacity="0.5" />
  <line x1="0" y1="-12" x2="0" y2="12" stroke="#0077b6" stroke-width="1.0" stroke-linecap="round" opacity="0.5" />
  <ellipse cx="0" cy="0" rx="10.0" ry="10.0" fill="none" stroke="#0077b6" stroke-width="0.5" fill-opacity="0.3" stroke-opacity="0.3" />
</g>
  <g transform="translate(57.0, 95.0) rotate(6.428571428571428) scale(1.2160000000000002)">
  <circle cx="0" cy="0" r="8.0" fill="#00d9ff" opacity="0.6" />
  <line x1="-12" y1="0" x2="12" y2="0" stroke="#0077b6" stroke-width="1.0" stroke-linecap="round" opacity="0.5" />
  <line x1="0" y1="-12" x2="0" y2="12" stroke="#0077b6" stroke-width="1.0" stroke-linecap="round" opacity="0.5" />
  <ellipse cx="0" cy="0" rx="10.0" ry="10.0" fill="none" stroke="#0077b6" stroke-width="0.5" fill-opacity="0.3" stroke-opacity="0.3" />
</g>
  <g transform="translate(95.0, 95.0) rotate(12.857142857142856) scale(1.2160000000000002)">
  <circle cx="0" cy="0" r="8.0" fill="#00d9ff" opacity="0.6" />
  <line x1="-12" y1="0" x2="12" y2="0" stroke="#0077b6" stroke-width="1.0" stroke-linecap="round" opacity="0.5" />
  <line x1="0" y1="-12" x2="0" y2="12" stroke="#0077b6" stroke-width="1.0" stroke-linecap="round" opacity="0.5" />
  <ellipse cx="0" cy="0" rx="10.0" ry="10.0" fill="none" stroke="#0077b6" stroke-width="0.5" fill-opacity="0.3" stroke-opacity="0.3" />
</g>
  <g transform="translate(133.0, 95.0) rotate(19.285714285714285) scale(1.2160000000000002)">
  <circle cx="0" cy="0" r="8.0" fill="#00d9ff" opacity="0.6" />
  <line x1="-12" y1="0" x2="12" y2="0" stroke="#0077b6" stroke-width="1.0" stroke-linecap="round" opacity="0.5" />
  <line x1="0" y1="-12" x2="0" y2="12" stroke="#0077b6" stroke-width="1.0" stroke-linecap="round" opacity="0.5" />
  <ellipse cx="0" cy="0" rx="10.0" ry="10.0" fill="none" stroke="#0077b6" stroke-width="0.5" fill-opacity="0.3" stroke-opacity="0.3" />
</g>
  <g transform="translate(171.0, 95.0) rotate(25.71428571428571) scale(1.2160000000000002)">
  <circle cx="0" cy="0" r="8.0" fill="#00d9ff" opacity="0.6" />
  <line x1="-12" y1="0" x2="12" y2="0" stroke="#0077b6" stroke-width="1.0" stroke-linecap="round" opacity="0.5" />
  <line x1="0" y1="-12" x2="0" y2="12" stroke="#0077b6" stroke-width="1.0" stroke-linecap="round" opacity="0.5" />
  <ellipse cx="0" cy="0" rx="10.0" ry="10.0" fill="none" stroke="#0077b6" stroke-width="0.5" fill-opacity="0.3" stroke-opacity="0.3" />
</g>
  <g transform="translate(209.0, 95.0) rotate(32.142857142857146) scale(1.2160000000000002)">
  <circle cx="0" cy="0" r="8.0" fill="#00d9ff" opacity="0.6" />
  <line x1="-12" y1="0" x2="12" y2="0" stroke="#0077b6" stroke-width="1.0" stroke-linecap="round" opacity="0.5" />
  <line x1="0" y1="-12" x2="0" y2="12" stroke="#0077b6" stroke-width="1.0" stroke-linecap="round" opacity="0.5" />
  <ellipse cx="0" cy="0" rx="10.0" ry="10.0" fill="none" stroke="#0077b6" stroke-width="0.5" fill-opacity="0.3" stroke-opacity="0.3" />
</g>
  <g transform="translate(247.0, 95.0) rotate(38.57142857142857) scale(1.2160000000000002)">
  <circle cx="0" cy="0" r="8.0" fill="#00d9ff" opacity="0.6" />
  <line x1="-12" y1="0" x2="12" y2="0" stroke="#0077b6" stroke-width="1.0" stroke-linecap="round" opacity="0.5" />
  <line x1="0" y1="-12" x2="0" y2="12" stroke="#0077b6" stroke-width="1.0" stroke-linecap="round" opacity="0.5" />
  <ellipse cx="0" cy="0" rx="10.0" ry="10.0" fill="none" stroke="#0077b6" stroke-width="0.5" fill-opacity="0.3" stroke-opacity="0.3" />
</g>
  <g transform="translate(285.0, 95.0) rotate(45.0) scale(1.2160000000000002)">
  <circle cx="0" cy="0" r="8.0" fill="#00d9ff" opacity="0.6" />
  <line x1="-12" y1="0" x2="12" y2="0" stroke="#0077b6" stroke-width="1.0" stroke-linecap="round" opacity="0.5" />
  <line x1="0" y1="-12" x2="0" y2="12" stroke="#0077b6" stroke-width="1.0" stroke-linecap="round" opacity="0.5" />
  <ellipse cx="0" cy="0" rx="10.0" ry="10.0" fill="none" stroke="#0077b6" stroke-width="0.5" fill-opacity="0.3" stroke-opacity="0.3" />
</g>
  <g transform="translate(19.0, 133.0) scale(1.2160000000000002)">
  <circle cx="0" cy="0" r="8.0" fill="#00d9ff" opacity="0.6" />
  <line x1="-12" y1="0" x2="12" y2="0" stroke="#0077b6" stroke-width="1.0" stroke-linecap="round" opacity="0.5" />
  <line x1="0" y1="-12" x2="0" y2="12" stroke="#0077b6" stroke-width="1.0" stroke-linecap="round" opacity="0.5" />
  <ellipse cx="0" cy="0" rx="10.0" ry="10.0" fill="none" stroke="#0077b6" stroke-width="0.5" fill-opacity="0.3" stroke-opacity="0.3" />
</g>
  <g transform="translate(57.0, 133.0) rotate(6.428571428571428) scale(1.2160000000000002)">
  <circle cx="0" cy="0" r="8.0" fill="#00d9ff" opacity="0.6" />
  <line x1="-12" y1="0" x2="12" y2="0" stroke="#0077b6" stroke-width="1.0" stroke-linecap="round" opacity="0.5" />
  <line x1="0" y1="-12" x2="0" y2="12" stroke="#0077b6" stroke-width="1.0" stroke-linecap="round" opacity="0.5" />
  <ellipse cx="0" cy="0" rx="10.0" ry="10.0" fill="none" stroke="#0077b6" stroke-width="0.5" fill-opacity="0.3" stroke-opacity="0.3" />
</g>
  <g transform="translate(95.0, 133.0) rotate(12.857142857142856) scale(1.2160000000000002)">
  <circle cx="0" cy="0" r="8.0" fill="#00d9ff" opacity="0.6" />
  <line x1="-12" y1="0" x2="12" y2="0" stroke="#0077b6" stroke-width="1.0" stroke-linecap="round" opacity="0.5" />
  <line x1="0" y1="-12" x2="0" y2="12" stroke="#0077b6" stroke-width="1.0" stroke-linecap="round" opacity="0.5" />
  <ellipse cx="0" cy="0" rx="10.0" ry="10.0" fill="none" stroke="#0077b6" stroke-width="0.5" fill-opacity="0.3" stroke-opacity="0.3" />
</g>
  <g transform="translate(133.0, 133.0) rotate(19.285714285714285) scale(1.2160000000000002)">
  <circle cx="0" cy="0" r="8.0" fill="#00d9ff" opacity="0.6" />
  <line x1="-12" y1="0" x2="12" y2="0" stroke="#0077b6" stroke-width="1.0" stroke-linecap="round" opacity="0.5" />
  <line x1="0" y1="-12" x2="0" y2="12" stroke="#0077b6" stroke-width="1.0" stroke-linecap="round" opacity="0.5" />
  <ellipse cx="0" cy="0" rx="10.0" ry="10.0" fill="none" stroke="#0077b6" stroke-width="0.5" fill-opacity="0.3" stroke-opacity="0.3" />
</g>
  <g transform="translate(171.0, 133.0) rotate(25.71428571428571) scale(1.2160000000000002)">
  <circle cx="0" cy="0" r="8.0" fill="#00d9ff" opacity="0.6" />
  <line x1="-12" y1="0" x2="12" y2="0" stroke="#0077b6" stroke-width="1.0" stroke-linecap="round" opacity="0.5" />
  <line x1="0" y1="-12" x2="0" y2="12" stroke="#0077b6" stroke-width="1.0" stroke-linecap="round" opacity="0.5" />
  <ellipse cx="0" cy="0" rx="10.0" ry="10.0" fill="none" stroke="#0077b6" stroke-width="0.5" fill-opacity="0.3" stroke-opacity="0.3" />
</g>
  <g transform="translate(209.0, 133.0) rotate(32.142857142857146) scale(1.2160000000000002)">
  <circle cx="0" cy="0" r="8.0" fill="#00d9ff" opacity="0.6" />
  <line x1="-12" y1="0" x2="12" y2="0" stroke="#0077b6" stroke-width="1.0" stroke-linecap="round" opacity="0.5" />
  <line x1="0" y1="-12" x2="0" y2="12" stroke="#0077b6" stroke-width="1.0" stroke-linecap="round" opacity="0.5" />
  <ellipse cx="0" cy="0" rx="10.0" ry="10.0" fill="none" stroke="#0077b6" stroke-width="0.5" fill-opacity="0.3" stroke-opacity="0.3" />
</g>
  <g transform="translate(247.0, 133.0) rotate(38.57142857142857) scale(1.2160000000000002)">
  <circle cx="0" cy="0" r="8.0" fill="#00d9ff" opacity="0.6" />
  <line x1="-12" y1="0" x2="12" y2="0" stroke="#0077b6" stroke-width="1.0" stroke-linecap="round" opacity="0.5" />
  <line x1="0" y1="-12" x2="0" y2="12" stroke="#0077b6" stroke-width="1.0" stroke-linecap="round" opacity="0.5" />
  <ellipse cx="0" cy="0" rx="10.0" ry="10.0" fill="none" stroke="#0077b6" stroke-width="0.5" fill-opacity="0.3" stroke-opacity="0.3" />
</g>
  <g transform="translate(285.0, 133.0) rotate(45.0) scale(1.2160000000000002)">
  <circle cx="0" cy="0" r="8.0" fill="#00d9ff" opacity="0.6" />
  <line x1="-12" y1="0" x2="12" y2="0" stroke="#0077b6" stroke-width="1.0" stroke-linecap="round" opacity="0.5" />
  <line x1="0" y1="-12" x2="0" y2="12" stroke="#0077b6" stroke-width="1.0" stroke-linecap="round" opacity="0.5" />
  <ellipse cx="0" cy="0" rx="10.0" ry="10.0" fill="none" stroke="#0077b6" stroke-width="0.5" fill-opacity="0.3" stroke-opacity="0.3" />
</g>
  <g transform="translate(19.0, 171.0) scale(1.2160000000000002)">
  <circle cx="0" cy="0" r="8.0" fill="#00d9ff" opacity="0.6" />
  <line x1="-12" y1="0" x2="12" y2="0" stroke="#0077b6" stroke-width="1.0" stroke-linecap="round" opacity="0.5" />
  <line x1="0" y1="-12" x2="0" y2="12" stroke="#0077b6" stroke-width="1.0" stroke-linecap="round" opacity="0.5" />
  <ellipse cx="0" cy="0" rx="10.0" ry="10.0" fill="none" stroke="#0077b6" stroke-width="0.5" fill-opacity="0.3" stroke-opacity="0.3" />
</g>
  <g transform="translate(57.0, 171.0) rotate(6.428571428571428) scale(1.2160000000000002)">
  <circle cx="0" cy="0" r="8.0" fill="#00d9ff" opacity="0.6" />
  <line x1="-12" y1="0" x2="12" y2="0" stroke="#0077b6" stroke-width="1.0" stroke-linecap="round" opacity="0.5" />
  <line x1="0" y1="-12" x2="0" y2="12" stroke="#0077b6" stroke-width="1.0" stroke-linecap="round" opacity="0.5" />
  <ellipse cx="0" cy="0" rx="10.0" ry="10.0" fill="none" stroke="#0077b6" stroke-width="0.5" fill-opacity="0.3" stroke-opacity="0.3" />
</g>
  <g transform="translate(95.0, 171.0) rotate(12.857142857142856) scale(1.2160000000000002)">
  <circle cx="0" cy="0" r="8.0" fill="#00d9ff" opacity="0.6" />
  <line x1="-12" y1="0" x2="12" y2="0" stroke="#0077b6" stroke-width="1.0" stroke-linecap="round" opacity="0.5" />
  <line x1="0" y1="-12" x2="0" y2="12" stroke="#0077b6" stroke-width="1.0" stroke-linecap="round" opacity="0.5" />
  <ellipse cx="0" cy="0" rx="10.0" ry="10.0" fill="none" stroke="#0077b6" stroke-width="0.5" fill-opacity="0.3" stroke-opacity="0.3" />
</g>
  <g transform="translate(133.0, 171.0) rotate(19.285714285714285) scale(1.2160000000000002)">
  <circle cx="0" cy="0" r="8.0" fill="#00d9ff" opacity="0.6" />
  <line x1="-12" y1="0" x2="12" y2="0" stroke="#0077b6" stroke-width="1.0" stroke-linecap="round" opacity="0.5" />
  <line x1="0" y1="-12" x2="0" y2="12" stroke="#0077b6" stroke-width="1.0" stroke-linecap="round" opacity="0.5" />
  <ellipse cx="0" cy="0" rx="10.0" ry="10.0" fill="none" stroke="#0077b6" stroke-width="0.5" fill-opacity="0.3" stroke-opacity="0.3" />
</g>
  <g transform="translate(171.0, 171.0) rotate(25.71428571428571) scale(1.2160000000000002)">
  <circle cx="0" cy="0" r="8.0" fill="#00d9ff" opacity="0.6" />
  <line x1="-12" y1="0" x2="12" y2="0" stroke="#0077b6" stroke-width="1.0" stroke-linecap="round" opacity="0.5" />
  <line x1="0" y1="-12" x2="0" y2="12" stroke="#0077b6" stroke-width="1.0" stroke-linecap="round" opacity="0.5" />
  <ellipse cx="0" cy="0" rx="10.0" ry="10.0" fill="none" stroke="#0077b6" stroke-width="0.5" fill-opacity="0.3" stroke-opacity="0.3" />
</g>
  <g transform="translate(209.0, 171.0) rotate(32.142857142857146) scale(1.2160000000000002)">
  <circle cx="0" cy="0" r="8.0" fill="#00d9ff" opacity="0.6" />
  <line x1="-12" y1="0" x2="12" y2="0" stroke="#0077b6" stroke-width="1.0" stroke-linecap="round" opacity="0.5" />
  <line x1="0" y1="-12" x2="0" y2="12" stroke="#0077b6" stroke-width="1.0" stroke-linecap="round" opacity="0.5" />
  <ellipse cx="0" cy="0" rx="10.0" ry="10.0" fill="none" stroke="#0077b6" stroke-width="0.5" fill-opacity="0.3" stroke-opacity="0.3" />
</g>
  <g transform="translate(247.0, 171.0) rotate(38.57142857142857) scale(1.2160000000000002)">
  <circle cx="0" cy="0" r="8.0" fill="#00d9ff" opacity="0.6" />
  <line x1="-12" y1="0" x2="12" y2="0" stroke="#0077b6" stroke-width="1.0" stroke-linecap="round" opacity="0.5" />
  <line x1="0" y1="-12" x2="0" y2="12" stroke="#0077b6" stroke-width="1.0" stroke-linecap="round" opacity="0.5" />
  <ellipse cx="0" cy="0" rx="10.0" ry="10.0" fill="none" stroke="#0077b6" stroke-width="0.5" fill-opacity="0.3" stroke-opacity="0.3" />
</g>
  <g transform="translate(285.0, 171.0) rotate(45.0) scale(1.2160000000000002)">
  <circle cx="0" cy="0" r="8.0" fill="#00d9ff" opacity="0.6" />
  <line x1="-12" y1="0" x2="12" y2="0" stroke="#0077b6" stroke-width="1.0" stroke-linecap="round" opacity="0.5" />
  <line x1="0" y1="-12" x2="0" y2="12" stroke="#0077b6" stroke-width="1.0" stroke-linecap="round" opacity="0.5" />
  <ellipse cx="0" cy="0" rx="10.0" ry="10.0" fill="none" stroke="#0077b6" stroke-width="0.5" fill-opacity="0.3" stroke-opacity="0.3" />
</g>
  <g transform="translate(19.0, 209.0) scale(1.2160000000000002)">
  <circle cx="0" cy="0" r="8.0" fill="#00d9ff" opacity="0.6" />
  <line x1="-12" y1="0" x2="12" y2="0" stroke="#0077b6" stroke-width="1.0" stroke-linecap="round" opacity="0.5" />
  <line x1="0" y1="-12" x2="0" y2="12" stroke="#0077b6" stroke-width="1.0" stroke-linecap="round" opacity="0.5" />
  <ellipse cx="0" cy="0" rx="10.0" ry="10.0" fill="none" stroke="#0077b6" stroke-width="0.5" fill-opacity="0.3" stroke-opacity="0.3" />
</g>
  <g transform="translate(57.0, 209.0) rotate(6.428571428571428) scale(1.2160000000000002)">
  <circle cx="0" cy="0" r="8.0" fill="#00d9ff" opacity="0.6" />
  <line x1="-12" y1="0" x2="12" y2="0" stroke="#0077b6" stroke-width="1.0" stroke-linecap="round" opacity="0.5" />
  <line x1="0" y1="-12" x2="0" y2="12" stroke="#0077b6" stroke-width="1.0" stroke-linecap="round" opacity="0.5" />
  <ellipse cx="0" cy="0" rx="10.0" ry="10.0" fill="none" stroke="#0077b6" stroke-width="0.5" fill-opacity="0.3" stroke-opacity="0.3" />
</g>
  <g transform="translate(95.0, 209.0) rotate(12.857142857142856) scale(1.2160000000000002)">
  <circle cx="0" cy="0" r="8.0" fill="#00d9ff" opacity="0.6" />
  <line x1="-12" y1="0" x2="12" y2="0" stroke="#0077b6" stroke-width="1.0" stroke-linecap="round" opacity="0.5" />
  <line x1="0" y1="-12" x2="0" y2="12" stroke="#0077b6" stroke-width="1.0" stroke-linecap="round" opacity="0.5" />
  <ellipse cx="0" cy="0" rx="10.0" ry="10.0" fill="none" stroke="#0077b6" stroke-width="0.5" fill-opacity="0.3" stroke-opacity="0.3" />
</g>
  <g transform="translate(133.0, 209.0) rotate(19.285714285714285) scale(1.2160000000000002)">
  <circle cx="0" cy="0" r="8.0" fill="#00d9ff" opacity="0.6" />
  <line x1="-12" y1="0" x2="12" y2="0" stroke="#0077b6" stroke-width="1.0" stroke-linecap="round" opacity="0.5" />
  <line x1="0" y1="-12" x2="0" y2="12" stroke="#0077b6" stroke-width="1.0" stroke-linecap="round" opacity="0.5" />
  <ellipse cx="0" cy="0" rx="10.0" ry="10.0" fill="none" stroke="#0077b6" stroke-width="0.5" fill-opacity="0.3" stroke-opacity="0.3" />
</g>
  <g transform="translate(171.0, 209.0) rotate(25.71428571428571) scale(1.2160000000000002)">
  <circle cx="0" cy="0" r="8.0" fill="#00d9ff" opacity="0.6" />
  <line x1="-12" y1="0" x2="12" y2="0" stroke="#0077b6" stroke-width="1.0" stroke-linecap="round" opacity="0.5" />
  <line x1="0" y1="-12" x2="0" y2="12" stroke="#0077b6" stroke-width="1.0" stroke-linecap="round" opacity="0.5" />
  <ellipse cx="0" cy="0" rx="10.0" ry="10.0" fill="none" stroke="#0077b6" stroke-width="0.5" fill-opacity="0.3" stroke-opacity="0.3" />
</g>
  <g transform="translate(209.0, 209.0) rotate(32.142857142857146) scale(1.2160000000000002)">
  <circle cx="0" cy="0" r="8.0" fill="#00d9ff" opacity="0.6" />
  <line x1="-12" y1="0" x2="12" y2="0" stroke="#0077b6" stroke-width="1.0" stroke-linecap="round" opacity="0.5" />
  <line x1="0" y1="-12" x2="0" y2="12" stroke="#0077b6" stroke-width="1.0" stroke-linecap="round" opacity="0.5" />
  <ellipse cx="0" cy="0" rx="10.0" ry="10.0" fill="none" stroke="#0077b6" stroke-width="0.5" fill-opacity="0.3" stroke-opacity="0.3" />
</g>
  <g transform="translate(247.0, 209.0) rotate(38.57142857142857) scale(1.2160000000000002)">
  <circle cx="0" cy="0" r="8.0" fill="#00d9ff" opacity="0.6" />
  <line x1="-12" y1="0" x2="12" y2="0" stroke="#0077b6" stroke-width="1.0" stroke-linecap="round" opacity="0.5" />
  <line x1="0" y1="-12" x2="0" y2="12" stroke="#0077b6" stroke-width="1.0" stroke-linecap="round" opacity="0.5" />
  <ellipse cx="0" cy="0" rx="10.0" ry="10.0" fill="none" stroke="#0077b6" stroke-width="0.5" fill-opacity="0.3" stroke-opacity="0.3" />
</g>
  <g transform="translate(285.0, 209.0) rotate(45.0) scale(1.2160000000000002)">
  <circle cx="0" cy="0" r="8.0" fill="#00d9ff" opacity="0.6" />
  <line x1="-12" y1="0" x2="12" y2="0" stroke="#0077b6" stroke-width="1.0" stroke-linecap="round" opacity="0.5" />
  <line x1="0" y1="-12" x2="0" y2="12" stroke="#0077b6" stroke-width="1.0" stroke-linecap="round" opacity="0.5" />
  <ellipse cx="0" cy="0" rx="10.0" ry="10.0" fill="none" stroke="#0077b6" stroke-width="0.5" fill-opacity="0.3" stroke-opacity="0.3" />
</g>
</svg>