<?xml version="1.0" encoding="UTF-8"?>
<svg xmlns="http://www.w3.org/2000/svg" width="304" height="228" viewBox="0 0 304 228">
  <rect width="100%" height="100%" fill="#0a1628" />
  <g transform="translate(19, 19) scale(1.216)">
  <circle cx="0" cy="0" r="8" fill="#00d9ff" opacity="0.6" />
  <line x1="-12" y1="0" x2="12" y2="0" stroke="#0077b6" stroke-width="1" stroke-linecap="round" opacity="0.5" />
  <line x1="0" y1="-12" x2="0" y2="12" stroke="#0077b6" stroke-width="1" stroke-linecap="round" opacity="0.5" />
  <ellipse cx="0" cy="0" rx="10" ry="10" fill="none" stroke="#0077b6" stroke-width="0.5" fill-opacity="0.3" stroke-opacity="0.3" />
</g>
  <g transform="translate(57, 19) rotate(6.42857) scale(1.216)">
  <circle cx="0" cy="0" r="8" fill="#00d9ff" opacity="0.6" />
  <line x1="-12" y1="0" x2="12" y2="0" stroke="#0077b6" stroke-width="1" stroke-linecap="round" opacity="0.5" />
  <line x1="0" y1="-12" x2="0" y2="12" stroke="#0077b6" stroke-width="1" stroke-linecap="round" opacity="0.5" />
  <ellipse cx="0" cy="0" rx="10" ry="10" fill="none" stroke="#0077b6" stroke-width="0.5" fill-opacity="0.3" stroke-opacity="0.3" />
</g>
  <g transform="translate(95, 19) rotate(12.8571) scale(1.216)">
  <circle cx="0" cy="0" r="8" fill="#00d9ff" opacity="0.6" />
  <line x1="-12" y1="0" x2="12" y2="0" stroke="#0077b6" stroke-width="1" stroke-linecap="round" opacity="0.5" />
  <line x1="0" y1="-12" x2="0" y2="12" stroke="#0077b6" stroke-width="1" stroke-linecap="round" opacity="0.5" />
  <ellipse cx="0" cy="0" rx="10" ry="10" fill="none" stroke="#0077b6" stroke-width="0.5" fill-opacity="0.3" stroke-opacity="0.3" />
</g>
  <g transform="translate(133, 19) rotate(19.2857) scale(1.216)">
  <circle cx="0" cy="0" r="8" fill="#00d9ff" opacity="0.6" />
  <line x1="-12" y1="0" x2="12" y2="0" stroke="#0077b6" stroke-width="1" stroke-linecap="round" opacity="0.5" />
  <line x1="0" y1="-12" x2="0" y2="12" stroke="#0077b6" stroke-width="1" stroke-linecap="round" opacity="0.5" />
  <ellipse cx="0" cy="0" rx="10" ry="10" fill="none" stroke="#0077b6" stroke-width="0.5" fill-opacity="0.3" stroke-opacity="0.3" />
</g>
  <g transform="translate(171, 19) rotate(25.7143) scale(1.216)">
  <circle cx="0" cy="0" r="8" fill="#00d9ff" opacity="0.6" />
  <line x1="-12" y1="0" x2="12" y2="0" stroke="#0077b6" stroke-width="1" stroke-linecap="round" opacity="0.5" />
  <line x1="0" y1="-12" x2="0" y2="12" stroke="#0077b6" stroke-width="1" stroke-linecap="round" opacity="0.5" />
  <ellipse cx="0" cy="0" rx="10" ry="10" fill="none" stroke="#0077b6" stroke-width="0.5" fill-opacity="0.3" stroke-opacity="0.3" />
</g>
  <g transform="translate(209, 19) rotate(32.1429) scale(1.216)">
  <circle cx="0" cy="0" r="8" fill="#00d9ff" opacity="0.6" />
  <line x1="-12" y1="0" x2="12" y2="0" stroke="#0077b6" stroke-width="1" stroke-linecap="round" opacity="0.5" />
  <line x1="0" y1="-12" x2="0" y2="12" stroke="#0077b6" stroke-width="1" stroke-linecap="round" opacity="0.5" />
  <ellipse cx="0" cy="0" rx="10" ry="10" fill="none" stroke="#0077b6" stroke-width="0.5" fill-opacity="0.3" stroke-opacity="0.3" />
</g>
  <g transform="translate(247, 19) rotate(38.5714) scale(1.216)">
  <circle cx="0" cy="0" r="8" fill="#00d9ff" opacity="0.6" />
  <line x1="-12" y1="0" x2="12" y2="0" stroke="#0077b6" stroke-width="1" stroke-linecap="round" opacity="0.5" />
  <line x1="0" y1="-12" x2="0" y2="12" stroke="#0077b6" stroke-width="1" stroke-linecap="round" opacity="0.5" />
  <ellipse cx="0" cy="0" rx="10" ry="10" fill="none" stroke="#0077b6" stroke-width="0.5" fill-opacity="0.3" stroke-opacity="0.3" />
</g>
  <g transform="translate(285, 19) rotate(45) scale(1.216)">
  <circle cx="0" cy="0" r="8" fill="#00d9ff" opacity="0.6" />
  <line x1="-12" y1="0" x2="12" y2="0" stroke="#0077b6" stroke-width="1" stroke-linecap="round" opacity="0.5" />
  <line x1="0" y1="-12" x2="0" y2="12" stroke="#0077b6" stroke-width="1" stroke-linecap="round" opacity="0.5" />
  <ellipse cx="0" cy="0" rx="10" ry="10" fill="none" stroke="#0077b6" stroke-width="0.5" fill-opacity="0.3" stroke-opacity="0.3" />
</g>
  <g transform="translate(19, 57) scale(1.216)">
  <circle cx="0" cy="0" r="8" fill="#00d9ff" opacity="0.6" />
  <line x1="-12" y1="0" x2="12" y2="0" stroke="#0077b6" stroke-width="1" stroke-linecap="round" opacity="0.5" />
  <line x1="0" y1="-12" x2="0" y2="12" stroke="#0077b6" stroke-width="1" stroke-linecap="round" opacity="0.5" />
  <ellipse cx="0" cy="0" rx="10" ry="10" fill="none" stroke="#0077b6" stroke-width="0.5" fill-opacity="0.3" stroke-opacity="0.3" />
</g>
  <g transform="translate(57, 57) rotate(6.42857) scale(1.216)">
  <circle cx="0" cy="0" r="8" fill="#00d9ff" opacity="0.6" />
  <line x1="-12" y1="0" x2="12" y2="0" stroke="#0077b6" stroke-width="1" stroke-linecap="round" opacity="0.5" />
  <line x1="0" y1="-12" x2="0" y2="12" stroke="#0077b6" stroke-width="1" stroke-linecap="round" opacity="0.5" />
  <ellipse cx="0" cy="0" rx="10" ry="10" fill="none" stroke="#0077b6" stroke-width="0.5" fill-opacity="0.3" stroke-opacity="0.3" />
</g>
  <g transform="translate(95, 57) rotate(12.8571) scale(1.216)">
  <circle cx="0" cy="0" r="8" fill="#00d9ff" opacity="0.6" />
  <line x1="-12" y1="0" x2="12" y2="0" stroke="#0077b6" stroke-width="1" stroke-linecap="round" opacity="0.5" />
  <line x1="0" y1="-12" x2="0" y2="12" stroke="#0077b6" stroke-width="1" stroke-linecap="round" opacity="0.5" />
  <ellipse cx="0" cy="0" rx="10" ry="10" fill="none" stroke="#0077b6" stroke-width="0.5" fill-opacity="0.3" stroke-opacity="0.3" />
</g>
  <g transform="translate(133, 57) rotate(19.2857) scale(1.216)">
  <circle cx="0" cy="0" r="8" fill="#00d9ff" opacity="0.6" />
  <line x1="-12" y1="0" x2="12" y2="0" stroke="#0077b6" stroke-width="1" stroke-linecap="round" opacity="0.5" />
  <line x1="0" y1="-12" x2="0" y2="12" stroke="#0077b6" stroke-width="1" stroke-linecap="round" opacity="0.5" />
  <ellipse cx="0" cy="0" rx="10" ry="10" fill="none" stroke="#0077b6" stroke-width="0.5" fill-opacity="0.3" stroke-opacity="0.3" />
</g>
  <g transform="translate(171, 57) rotate(25.7143) scale(1.216)">
  <circle cx="0" cy="0" r="8" fill="#00d9ff" opacity="0.6" />
  <line x1="-12" y1="0" x2="12" y2="0" stroke="#0077b6" stroke-width="1" stroke-linecap="round" opacity="0.5" />
  <line x1="0" y1="-12" x2="0" y2="12" stroke="#0077b6" stroke-width="1" stroke-linecap="round" opacity="0.5" />
  <ellipse cx="0" cy="0" rx="10" ry="10" fill="none" stroke="#0077b6" stroke-width="0.5" fill-opacity="0.3" stroke-opacity="0.3" />
</g>
  <g transform="translate(209, 57) rotate(32.1429) scale(1.216)">
  <circle cx="0" cy="0" r="8" fill="#00d9ff" opacity="0.6" />
  <line x1="-12" y1="0" x2="12" y2="0" stroke="#0077b6" stroke-width="1" stroke-linecap="round" opacity="0.5" />
  <line x1="0" y1="-12" x2="0" y2="12" stroke="#0077b6" stroke-width="1" stroke-linecap="round" opacity="0.5" />
  <ellipse cx="0" cy="0" rx="10" ry="10" fill="none" stroke="#0077b6" stroke-width="0.5" fill-opacity="0.3" stroke-opacity="0.3" />
</g>
  <g transform="translate(247, 57) rotate(38.5714) scale(1.216)">
  <circle cx="0" cy="0" r="8" fill="#00d9ff" opacity="0.6" />
  <line x1="-12" y1="0" x2="12" y2="0" stroke="#0077b6" stroke-width="1" stroke-linecap="round" opacity="0.5" />
  <line x1="0" y1="-12" x2="0" y2="12" stroke="#0077b6" stroke-width="1" stroke-linecap="round" opacity="0.5" />
  <ellipse cx="0" cy="0" rx="10" ry="10" fill="none" stroke="#0077b6" stroke-width="0.5" fill-opacity="0.3" stroke-opacity="0.3" />
</g>
  <g transform="translate(285, 57) rotate(45) scale(1.216)">
  <circle cx="0" cy="0" r="8" fill="#00d9ff" opacity="0.6" />
  <line x1="-12" y1="0" x2="12" y2="0" stroke="#0077b6" stroke-width="1" stroke-linecap="round" opacity="0.5" />
  <line x1="0" y1="-12" x2="0" y2="12" stroke="#0077b6" stroke-width="1" stroke-linecap="round" opacity="0.5" />
  <ellipse cx="0" cy="0" rx="10" ry="10" fill="none" stroke="#0077b6" stroke-width="0.5" fill-opacity="0.3" stroke-opacity="0.3" />
</g>
  <g transform="translate(19, 95) scale(1.216)">
  <circle cx="0" cy="0" r="8" fill="#00d9ff" opacity="0.6" />
  <line x1="-12" y1="0" x2="12" y2="0" stroke="#0077b6" stroke-width="1" stroke-linecap="round" opacity="0.5" />
  <line x1="0" y1="-12" x2="0" y2="12" stroke="#0077b6" stroke-width="1" stroke-linecap="round" opacity="0.5" />
  <ellipse cx="0" cy="0" rx="10" ry="10" fill="none" stroke="#0077b6" stroke-width="0.5" fill-opacity="0.3" stroke-opacity="0.3" />
</g>
  <g transform="translate(57, 95) rotate(6.42857) scale(1.216)">
  <circle cx="0" cy="0" r="8" fill="#00d9ff" opacity="0.6" />
  <line x1="-12" y1="0" x2="12" y2="0" stroke="#0077b6" stroke-width="1" stroke-linecap="round" opacity="0.5" />
  <line x1="0" y1="-12" x2="0" y2="12" stroke="#0077b6" stroke-width="1" stroke-linecap="round" opacity="0.5" />
  <ellipse cx="0" cy="0" rx="10" ry="10" fill="none" stroke="#0077b6" stroke-width="0.5" fill-opacity="0.3" stroke-opacity="0.3" />
</g>
  <g transform="translate(95, 95) rotate(12.8571) scale(1.216)">
  <circle cx="0" cy="0" r="8" fill="#00d9ff" opacity="0.6" />
  <line x1="-12" y1="0" x2="12" y2="0" stroke="#0077b6" stroke-width="1" stroke-linecap="round" opacity="0.5" />
  <line x1="0" y1="-12" x2="0" y2="12" stroke="#0077b6" stroke-width="1" stroke-linecap="round" opacity="0.5" />
  <ellipse cx="0" cy="0" rx="10" ry="10" fill="none" stroke="#0077b6" stroke-width="0.5" fill-opacity="0.3" stroke-opacity="0.3" />
</g>
  <g transform="translate(133, 95) rotate(19.2857) scale(1.216)">
  <circle cx="0" cy="0" r="8" fill="#00d9ff" opacity="0.6" />
  <line x1="-12" y1="0" x2="12" y2="0" stroke="#0077b6" stroke-width="1" stroke-linecap="round" opacity="0.5" />
  <line x1="0" y1="-12" x2="0" y2="12" stroke="#0077b6" stroke-width="1" stroke-linecap="round" opacity="0.5" />
  <ellipse cx="0" cy="0" rx="10" ry="10" fill="none" stroke="#0077b6" stroke-width="0.5" fill-opacity="0.3" stroke-opacity="0.3" />
</g>
  <g transform="translate(171, 95) rotate(25.7143) scale(1.216)">
  <circle cx="0" cy="0" r="8" fill="#00d9ff" opacity="0.6" />
  <line x1="-12" y1="0" x2="12" y2="0" stroke="#0077b6" stroke-width="1" stroke-linecap="round" opacity="0.5" />
  <line x1="0" y1="-12" x2="0" y2="12" stroke="#0077b6" stroke-width="1" stroke-linecap="round" opacity="0.5" />
  <ellipse cx="0" cy="0" rx="10" ry="10" fill="none" stroke="#0077b6" stroke-width="0.5" fill-opacity="0.3" stroke-opacity="0.3" />
</g>
  <g transform="translate(209, 95) rotate(32.1429) scale(1.216)">
  <circle cx="0" cy="0" r="8" fill="#00d9ff" opacity="0.6" />
  <line x1="-12" y1="0" x2="12" y2="0" stroke="#0077b6" stroke-width="1" stroke-linecap="round" opacity="0.5" />
  <line x1="0" y1="-12" x2="0" y2="12" stroke="#0077b6" stroke-width="1" stroke-linecap="round" opacity="0.5" />
  <ellipse cx="0" cy="0" rx="10" ry="10" fill="none" stroke="#0077b6" stroke-width="0.5" fill-opacity="0.3" stroke-opacity="0.3" />
</g>
  <g transform="translate(247, 95) rotate(38.5714) scale(1.216)">
  <circle cx="0" cy="0" r="8" fill="#00d9ff" opacity="0.6" />
  <line x1="-12" y1="0" x2="12" y2="0" stroke="#0077b6" stroke-width="1" stroke-linecap="round" opacity="0.5" />
  <line x1="0" y1="-12" x2="0" y2="12" stroke="#0077b6" stroke-width="1" stroke-linecap="round" opacity="0.5" />
  <ellipse cx="0" cy="0" rx="10" ry="10" fill="none" stroke="#0077b6" stroke-width="0.5" fill-opacity="0.3" stroke-opacity="0.3" />
</g>
  <g transform="translate(285, 95) rotate(45) scale(1.216)">
  <circle cx="0" cy="0" r="8" fill="#00d9ff" opacity="0.6" />
  <line x1="-12" y1="0" x2="12" y2="0" stroke="#0077b6" stroke-width="1" stroke-linecap="round" opacity="0.5" />
  <line x1="0" y1="-12" x2="0" y2="12" stroke="#0077b6" stroke-width="1" stroke-linecap="round" opacity="0.5" />
  <ellipse cx="0" cy="0" rx="10" ry="10" fill="none" stroke="#0077b6" stroke-width="0.5" fill-opacity="0.3" stroke-opacity="0.3" />
</g>
  <g transform="translate(19, 133) scale(1.216)">
  <circle cx="0" cy="0" r="8" fill="#00d9ff" opacity="0.6" />
  <line x1="-12" y1="0" x2="12" y2="0" stroke="#0077b6" stroke-width="1" stroke-linecap="round" opacity="0.5" />
  <line x1="0" y1="-12" x2="0" y2="12" stroke="#0077b6" stroke-width="1" stroke-linecap="round" opacity="0.5" />
  <ellipse cx="0" cy="0" rx="10" ry="10" fill="none" stroke="#0077b6" stroke-width="0.5" fill-opacity="0.3" stroke-opacity="0.3" />
</g>
  <g transform="translate(57, 133) rotate(6.42857) scale(1.216)">
  <circle cx="0" cy="0" r="8" fill="#00d9ff" opacity="0.6" />
  <line x1="-12" y1="0" x2="12" y2="0" stroke="#0077b6" stroke-width="1" stroke-linecap="round" opacity="0.5" />
  <line x1="0" y1="-12" x2="0" y2="12" stroke="#0077b6" stroke-width="1" stroke-linecap="round" opacity="0.5" />
  <ellipse cx="0" cy="0" rx="10" ry="10" fill="none" stroke="#0077b6" stroke-width="0.5" fill-opacity="0.3" stroke-opacity="0.3" />
</g>
  <g transform="translate(95, 133) rotate(12.8571) scale(1.216)">
  <circle cx="0" cy="0" r="8" fill="#00d9ff" opacity="0.6" />
  <line x1="-12" y1="0" x2="12" y2="0" stroke="#0077b6" stroke-width="1" stroke-linecap="round" opacity="0.5" />
  <line x1="0" y1="-12" x2="0" y2="12" stroke="#0077b6" stroke-width="1" stroke-linecap="round" opacity="0.5" />
  <ellipse cx="0" cy="0" rx="10" ry="10" fill="none" stroke="#0077b6" stroke-width="0.5" fill-opacity="0.3" stroke-opacity="0.3" />
</g>
  <g transform="translate(133, 133) rotate(19.2857) scale(1.216)">
  <circle cx="0" cy="0" r="8" fill="#00d9ff" opacity="0.6" />
  <line x1="-12" y1="0" x2="12" y2="0" stroke="#0077b6" stroke-width="1" stroke-linecap="round" opacity="0.5" />
  <line x1="0" y1="-12" x2="0" y2="12" stroke="#0077b6" stroke-width="1" stroke-linecap="round" opacity="0.5" />
  <ellipse cx="0" cy="0" rx="10" ry="10" fill="none" stroke="#0077b6" stroke-width="0.5" fill-opacity="0.3" stroke-opacity="0.3" />
</g>
  <g transform="translate(171, 133) rotate(25.7143) scale(1.216)">
  <circle cx="0" cy="0" r="8" fill="#00d9ff" opacity="0.6" />
  <line x1="-12" y1="0" x2="12" y2="0" stroke="#0077b6" stroke-width="1" stroke-linecap="round" opacity="0.5" />
  <line x1="0" y1="-12" x2="0" y2="12" stroke="#0077b6" stroke-width="1" stroke-linecap="round" opacity="0.5" />
  <ellipse cx="0" cy="0" rx="10" ry="10" fill="none" stroke="#0077b6" stroke-width="0.5" fill-opacity="0.3" stroke-opacity="0.3" />
</g>
  <g transform="translate(209, 133) rotate(32.1429) scale(1.216)">
  <circle cx="0" cy="0" r="8" fill="#00d9ff" opacity="0.6" />
  <line x1="-12" y1="0" x2="12" y2="0" stroke="#0077b6" stroke-width="1" stroke-linecap="round" opacity="0.5" />
  <line x1="0" y1="-12" x2="0" y2="12" stroke="#0077b6" stroke-width="1" stroke-linecap="round" opacity="0.5" />
  <ellipse cx="0" cy="0" rx="10" ry="10" fill="none" stroke="#0077b6" stroke-width="0.5" fill-opacity="0.3" stroke-opacity="0.3" />
</g>
  <g transform="translate(247, 133) rotate(38.5714) scale(1.216)">
  <circle cx="0" cy="0" r="8" fill="#00d9ff" opacity="0.6" />
  <line x1="-12" y1="0" x2="12" y2="0" stroke="#0077b6" stroke-width="1" stroke-linecap="round" opacity="0.5" />
  <line x1="0" y1="-12" x2="0" y2="12" stroke="#0077b6" stroke-width="1" stroke-linecap="round" opacity="0.5" />
  <ellipse cx="0" cy="0" rx="10" ry="10" fill="none" stroke="#0077b6" stroke-width="0.5" fill-opacity="0.3" stroke-opacity="0.3" />
</g>
  <g transform="translate(285, 133) rotate(45) scale(1.216)">
  <circle cx="0" cy="0" r="8" fill="#00d9ff" opacity="0.6" />
  <line x1="-12" y1="0" x2="12" y2="0" stroke="#0077b6" stroke-width="1" stroke-linecap="round" opacity="0.5" />
  <line x1="0" y1="-12" x2="0" y2="12" stroke="#0077b6" stroke-width="1" stroke-linecap="round" opacity="0.5" />
  <ellipse cx="0" cy="0" rx="10" ry="10" fill="none" stroke="#0077b6" stroke-width="0.5" fill-opacity="0.3" stroke-opacity="0.3" />
</g>
  <g transform="translate(19, 171) scale(1.216)">
  <circle cx="0" cy="0" r="8" fill="#00d9ff" opacity="0.6" />
  <line x1="-12" y1="0" x2="12" y2="0" stroke="#0077b6" stroke-width="1" stroke-linecap="round" opacity="0.5" />
  <line x1="0" y1="-12" x2="0" y2="12" stroke="#0077b6" stroke-width="1" stroke-linecap="round" opacity="0.5" />
  <ellipse cx="0" cy="0" rx="10" ry="10" fill="none" stroke="#0077b6" stroke-width="0.5" fill-opacity="0.3" stroke-opacity="0.3" />
</g>
  <g transform="translate(57, 171) rotate(6.42857) scale(1.216)">
  <circle cx="0" cy="0" r="8" fill="#00d9ff" opacity="0.6" />
  <line x1="-12" y1="0" x2="12" y2="0" stroke="#0077b6" stroke-width="1" stroke-linecap="round" opacity="0.5" />
  <line x1="0" y1="-12" x2="0" y2="12" stroke="#0077b6" stroke-width="1" stroke-linecap="round" opacity="0.5" />
  <ellipse cx="0" cy="0" rx="10" ry="10" fill="none" stroke="#0077b6" stroke-width="0.5" fill-opacity="0.3" stroke-opacity="0.3" />
</g>
  <g transform="translate(95, 171) rotate(12.8571) scale(1.216)">
  <circle cx="0" cy="0" r="8" fill="#00d9ff" opacity="0.6" />
  <line x1="-12" y1="0" x2="12" y2="0" stroke="#0077b6" stroke-width="1" stroke-linecap="round" opacity="0.5" />
  <line x1="0" y1="-12" x2="0" y2="12" stroke="#0077b6" stroke-width="1" stroke-linecap="round" opacity="0.5" />
  <ellipse cx="0" cy="0" rx="10" ry="10" fill="none" stroke="#0077b6" stroke-width="0.5" fill-opacity="0.3" stroke-opacity="0.3" />
</g>
  <g transform="translate(133, 171) rotate(19.2857) scale(1.216)">
  <circle cx="0" cy="0" r="8" fill="#00d9ff" opacity="0.6" />
  <line x1="-12" y1="0" x2="12" y2="0" stroke="#0077b6" stroke-width="1" stroke-linecap="round" opacity="0.5" />
  <line x1="0" y1="-12" x2="0" y2="12" stroke="#0077b6" stroke-width="1" stroke-linecap="round" opacity="0.5" />
  <ellipse cx="0" cy="0" rx="10" ry="10" fill="none" stroke="#0077b6" stroke-width="0.5" fill-opacity="0.3" stroke-opacity="0.3" />
</g>
  <g transform="translate(171, 171) rotate(25.7143) scale(1.216)">
  <circle cx="0" cy="0" r="8" fill="#00d9ff" opacity="0.6" />
  <line x1="-12" y1="0" x2="12" y2="0" stroke="#0077b6" stroke-width="1" stroke-linecap="round" opacity="0.5" />
  <line x1="0" y1="-12" x2="0" y2="12" stroke="#0077b6" stroke-width="1" stroke-linecap="round" opacity="0.5" />
  <ellipse cx="0" cy="0" rx="10" ry="10" fill="none" stroke="#0077b6" stroke-width="0.5" fill-opacity="0.3" stroke-opacity="0.3" />
</g>
  <g transform="translate(209, 171) rotate(32.1429) scale(1.216)">
  <circle cx="0" cy="0" r="8" fill="#00d9ff" opacity="0.6" />
  <line x1="-12" y1="0" x2="12" y2="0" stroke="#0077b6" stroke-width="1" stroke-linecap="round" opacity="0.5" />
  <line x1="0" y1="-12" x2="0" y2="12" stroke="#0077b6" stroke-width="1" stroke-linecap="round" opacity="0.5" />
  <ellipse cx="0" cy="0" rx="10" ry="10" fill="none" stroke="#0077b6" stroke-width="0.5" fill-opacity="0.3" stroke-opacity="0.3" />
</g>
  <g transform="translate(247, 171) rotate(38.5714) scale(1.216)">
  <circle cx="0" cy="0" r="8" fill="#00d9ff" opacity="0.6" />
  <line x1="-12" y1="0" x2="12" y2="0" stroke="#0077b6" stroke-width="1" stroke-linecap="round" opacity="0.5" />
  <line x1="0" y1="-12" x2="0" y2="12" stroke="#0077b6" stroke-width="1" stroke-linecap="round" opacity="0.5" />
  <ellipse cx="0" cy="0" rx="10" ry="10" fill="none" stroke="#0077b6" stroke-width="0.5" fill-opacity="0.3" stroke-opacity="0.3" />
</g>
  <g transform="translate(285, 171) rotate(45) scale(1.216)">
  <circle cx="0" cy="0" r="8" fill="#00d9ff" opacity="0.6" />
  <line x1="-12" y1="0" x2="12" y2="0" stroke="#0077b6" stroke-width="1" stroke-linecap="round" opacity="0.5" />
  <line x1="0" y1="-12" x2="0" y2="12" stroke="#0077b6" stroke-width="1" stroke-linecap="round" opacity="0.5" />
  <ellipse cx="0" cy="0" rx="10" ry="10" fill="none" stroke="#0077b6" stroke-width="0.5" fill-opacity="0.3" stroke-opacity="0.3" />
</g>
  <g transform="translate(19, 209) scale(1.216)">
  <circle cx="0" cy="0" r="8" fill="#00d9ff" opacity="0.6" />
  <line x1="-12" y1="0" x2="12" y2="0" stroke="#0077b6" stroke-width="1" stroke-linecap="round" opacity="0.5" />
  <line x1="0" y1="-12" x2="0" y2="12" stroke="#0077b6" stroke-width="1" stroke-linecap="round" opacity="0.5" />
  <ellipse cx="0" cy="0" rx="10" ry="10" fill="none" stroke="#0077b6" stroke-width="0.5" fill-opacity="0.3" stroke-opacity="0.3" />
</g>
  <g transform="translate(57, 209) rotate(6.42857) scale(1.216)">
  <circle cx="0" cy="0" r="8" fill="#00d9ff" opacity="0.6" />
  <line x1="-12" y1="0" x2="12" y2="0" stroke="#0077b6" stroke-width="1" stroke-linecap="round" opacity="0.5" />
  <line x1="0" y1="-12" x2="0" y2="12" stroke="#0077b6" stroke-width="1" stroke-linecap="round" opacity="0.5" />
  <ellipse cx="0" cy="0" rx="10" ry="10" fill="none" stroke="#0077b6" stroke-width="0.5" fill-opacity="0.3" stroke-opacity="0.3" />
</g>
  <g transform="translate(95, 209) rotate(12.8571) scale(1.216)">
  <circle cx="0" cy="0" r="8" fill="#00d9ff" opacity="0.6" />
  <line x1="-12" y1="0" x2="12" y2="0" stroke="#0077b6" stroke-width="1" stroke-linecap="round" opacity="0.5" />
  <line x1="0" y1="-12" x2="0" y2="12" stroke="#0077b6" stroke-width="1" stroke-linecap="round" opacity="0.5" />
  <ellipse cx="0" cy="0" rx="10" ry="10" fill="none" stroke="#0077b6" stroke-width="0.5" fill-opacity="0.3" stroke-opacity="0.3" />
</g>
  <g transform="translate(133, 209) rotate(19.2857) scale(1.216)">
  <circle cx="0" cy="0" r="8" fill="#00d9ff" opacity="0.6" />
  <line x1="-12" y1="0" x2="12" y2="0" stroke="#0077b6" stroke-width="1" stroke-linecap="round" opacity="0.5" />
  <line x1="0" y1="-12" x2="0" y2="12" stroke="#0077b6" stroke-width="1" stroke-linecap="round" opacity="0.5" />
  <ellipse cx="0" cy="0" rx="10" ry="10" fill="none" stroke="#0077b6" stroke-width="0.5" fill-opacity="0.3" stroke-opacity="0.3" />
</g>
  <g transform="translate(171, 209) rotate(25.7143) scale(1.216)">
  <circle cx="0" cy="0" r="8" fill="#00d9ff" opacity="0.6" />
  <line x1="-12" y1="0" x2="12" y2="0" stroke="#0077b6" stroke-width="1" stroke-linecap="round" opacity="0.5" />
  <line x1="0" y1="-12" x2="0" y2="12" stroke="#0077b6" stroke-width="1" stroke-linecap="round" opacity="0.5" />
  <ellipse cx="0" cy="0" rx="10" ry="10" fill="none" stroke="#0077b6" stroke-width="0.5" fill-opacity="0.3" stroke-opacity="0.3" />
</g>
  <g transform="translate(209, 209) rotate(32.1429) scale(1.216)">
  <circle cx="0" cy="0" r="8" fill="#00d9ff" opacity="0.6" />
  <line x1="-12" y1="0" x2="12" y2="0" stroke="#0077b6" stroke-width="1" stroke-linecap="round" opacity="0.5" />
  <line x1="0" y1="-12" x2="0" y2="12" stroke="#0077b6" stroke-width="1" stroke-linecap="round" opacity="0.5" />
  <ellipse cx="0" cy="0" rx="10" ry="10" fill="none" stroke="#0077b6" stroke-width="0.5" fill-opacity="0.3" stroke-opacity="0.3" />
</g>
  <g transform="translate(247, 209) rotate(38.5714) scale(1.216)">
  <circle cx="0" cy="0" r="8" fill="#00d9ff" opacity="0.6" />
  <line x1="-12" y1="0" x2="12" y2="0" stroke="#0077b6" stroke-width="1" stroke-linecap="round" opacity="0.5" />
  <line x1="0" y1="-12" x2="0" y2="12" stroke="#0077b6" stroke-width="1" stroke-linecap="round" opacity="0.5" />
  <ellipse cx="0" cy="0" rx="10" ry="10" fill="none" stroke="#0077b6" stroke-width="0.5" fill-opacity="0.3" stroke-opacity="0.3" />
</g>
  <g transform="translate(285, 209) rotate(45) scale(1.216)">
  <circle cx="0" cy="0" r="8" fill="#00d9ff" opacity="0.6" />
  <line x1="-12" y1="0" x2="12" y2="0" stroke="#0077b6" stroke-width="1" stroke-linecap="round" opacity="0.5" />
  <line x1="0" y1="-12" x2="0" y2="12" stroke="#0077b6" stroke-width="1" stroke-linecap="round" opacity="0.5" />
  <ellipse cx="0" cy="0" rx="10" ry="10" fill="none" stroke="#0077b6" stroke-width="0.5" fill-opacity="0.3" stroke-opacity="0.3" />
</g>
</svg>