<?xml version="1.0" encoding="UTF-8"?>
<svg xmlns="http://www.w3.org/2000/svg" width="400" height="400" viewBox="0 0 400 400">
  <rect width="100%" height="100%" fill="#0a0a1a" />
  <path d="M 352 200 C 351.996 219.897 345.776 239.786 334.052 258.168 C 322.328 276.55 305.126 293.411 284.447 307.48 C 263.767 321.549 239.65 332.816 214.899 340.43 C 190.147 348.044 164.81 352 141.832 352 C 118.854 352 98.2804 348.044 82.5024 340.43 C 66.7245 332.816 55.7727 321.549 50.9206 307.48 C 46.0686 293.411 47.3254 276.55 54.5451 258.168 C 61.7647 239.786 74.9334 219.897 92.5198 200 C 110.106 180.103 132.077 160.214 155.877 141.832 C 179.677 123.45 205.261 106.589 229.654 92.5198 C 254.047 78.4506 277.202 67.1845 296.428 59.5703 C 315.653 51.9562 330.912 48 340.43 48 C 349.947 48 353.706 51.9562 351.268 59.5703 C 348.83 67.1845 340.201 78.4506 326.383 92.5198 C 312.566 106.589 293.587 123.45 271.652 141.832 C 249.718 160.214 224.871 180.103 200 200 C 175.129 219.897 150.282 239.786 128.348 258.168 C 106.413 276.55 87.4342 293.411 73.6166 307.48 C 59.7991 321.549 51.1697 332.816 48.7319 340.43 C 46.2941 348.044 50.0526 352 59.5703 352 C 69.088 352 84.3467 348.044 103.572 340.43 C 122.798 332.816 145.953 321.549 170.346 307.48 C 194.739 293.411 220.323 276.55 244.123 258.168 C 267.923 239.786 289.894 219.897 307.48 200 C 325.067 180.103 338.235 160.214 345.455 141.832 C 352.675 123.45 353.931 106.589 349.079 92.5198 C 344.227 78.4506 333.276 67.1845 317.498 59.5703 C 301.72 51.9562 281.146 48 258.168 48 C 235.19 48 209.853 51.9562 185.101 59.5703 C 160.35 67.1845 136.233 78.4506 115.553 92.5198 C 94.8739 106.589 77.672 123.45 65.948 141.832 C 54.2239 160.214 48 180.103 48 200 C 48 219.897 54.2239 239.786 65.948 258.168 C 77.672 276.55 94.8739 293.411 115.553 307.48 C 136.233 321.549 160.35 332.816 185.101 340.43 C 209.853 348.044 235.19 352 258.168 352 C 281.146 352 301.72 348.044 317.498 340.43 C 333.276 332.816 344.227 321.549 349.079 307.48 C 353.931 293.411 352.675 276.55 345.455 258.168 C 338.235 239.786 325.067 219.897 307.48 200 C 289.894 180.103 267.923 160.214 244.123 141.832 C 220.323 123.45 194.739 106.589 170.346 92.5198 C 145.953 78.4506 122.798 67.1845 103.572 59.5703 C 84.3467 51.9562 69.088 48 59.5703 48 C 50.0526 48 46.2941 51.9562 48.7319 59.5703 C 51.1697 67.1845 59.7991 78.4506 73.6166 92.5198 C 87.4342 106.589 106.413 123.45 128.348 141.832 C 150.282 160.214 175.129 180.103 200 200 C 224.871 219.897 249.718 239.786 271.652 258.168 C 293.587 276.55 312.566 293.411 326.383 307.48 C 340.201 321.549 348.83 332.816 351.268 340.43 C 353.706 348.044 349.947 352 340.43 352 C 330.912 352 315.653 348.044 296.428 340.43 C 277.202 332.816 254.047 321.549 229.654 307.48 C 205.261 293.411 179.677 276.55 155.877 258.168 C 132.077 239.786 110.106 219.897 92.5198 200 C 74.9334 180.103 61.7647 160.214 54.5451 141.832 C 47.3254 123.45 46.0686 106.589 50.9206 92.5198 C 55.7727 78.4506 66.7245 67.1845 82.5024 59.5703 C 98.2804 51.9562 118.854 48 141.832 48 C 164.81 48 190.147 51.9562 214.899 59.5703 C 239.65 67.1845 263.767 78.4506 284.447 92.5198 C 305.126 106.589 322.328 123.45 334.052 141.832 C 345.776 160.214 351.996 180.103 352 200" fill="none" stroke="mediumpurple" stroke-width="2" stroke-linecap="round" stroke-linejoin="round" fill-opacity="0.7" stroke-opacity="0.7" pathLength="1" stroke-dasharray="1" stroke-dashoffset="1">
  <animate attributeName="stroke-dashoffset" from="1" to="0" dur="6.0s" fill="freeze" />
</path>
  <circle cx="352" cy="200" r="6" fill="coral">
  <animateMotion dur="6.0s" fill="freeze" repeatCount="indefinite" path="M 0 0 C -0.004 19.897 -6.224 39.786 -17.948 58.168 C -29.672 76.55 -46.874 93.411 -67.553 107.48 C -88.233 121.549 -112.35 132.816 -137.101 140.43 C -161.853 148.044 -187.19 152 -210.168 152 C -233.146 152 -253.72 148.044 -269.498 140.43 C -285.275 132.816 -296.227 121.549 -301.079 107.48 C -305.931 93.411 -304.675 76.55 -297.455 58.168 C -290.235 39.786 -277.067 19.897 -259.48 0 C -241.894 -19.897 -219.923 -39.786 -196.123 -58.168 C -172.323 -76.55 -146.739 -93.411 -122.346 -107.48 C -97.953 -121.549 -74.798 -132.815 -55.572 -140.43 C -36.347 -148.044 -21.088 -152 -11.57 -152 C -2.053 -152 1.706 -148.044 -0.732 -140.43 C -3.17 -132.815 -11.799 -121.549 -25.617 -107.48 C -39.434 -93.411 -58.413 -76.55 -80.348 -58.168 C -102.282 -39.786 -127.129 -19.897 -152 0 C -176.871 19.897 -201.718 39.786 -223.652 58.168 C -245.587 76.55 -264.566 93.411 -278.383 107.48 C -292.201 121.549 -300.83 132.816 -303.268 140.43 C -305.706 148.044 -301.947 152 -292.43 152 C -282.912 152 -267.653 148.044 -248.428 140.43 C -229.202 132.816 -206.047 121.549 -181.654 107.48 C -157.261 93.411 -131.677 76.55 -107.877 58.168 C -84.077 39.786 -62.106 19.897 -44.52 0 C -26.933 -19.897 -13.765 -39.786 -6.545 -58.168 C 0.675 -76.55 1.931 -93.411 -2.921 -107.48 C -7.773 -121.549 -18.724 -132.815 -34.502 -140.43 C -50.28 -148.044 -70.854 -152 -93.832 -152 C -116.81 -152 -142.147 -148.044 -166.899 -140.43 C -191.65 -132.815 -215.767 -121.549 -236.447 -107.48 C -257.126 -93.411 -274.328 -76.55 -286.052 -58.168 C -297.776 -39.786 -304 -19.897 -304 0 C -304 19.897 -297.776 39.786 -286.052 58.168 C -274.328 76.55 -257.126 93.411 -236.447 107.48 C -215.767 121.549 -191.65 132.816 -166.899 140.43 C -142.147 148.044 -116.81 152 -93.832 152 C -70.854 152 -50.28 148.044 -34.502 140.43 C -18.724 132.816 -7.773 121.549 -2.921 107.48 C 1.931 93.411 0.675 76.55 -6.545 58.168 C -13.765 39.786 -26.933 19.897 -44.52 0 C -62.106 -19.897 -84.077 -39.786 -107.877 -58.168 C -131.677 -76.55 -157.261 -93.411 -181.654 -107.48 C -206.047 -121.549 -229.202 -132.815 -248.428 -140.43 C -267.653 -148.044 -282.912 -152 -292.43 -152 C -301.947 -152 -305.706 -148.044 -303.268 -140.43 C -300.83 -132.815 -292.201 -121.549 -278.383 -107.48 C -264.566 -93.411 -245.587 -76.55 -223.652 -58.168 C -201.718 -39.786 -176.871 -19.897 -152 0 C -127.129 19.897 -102.282 39.786 -80.348 58.168 C -58.413 76.55 -39.434 93.411 -25.617 107.48 C -11.799 121.549 -3.17 132.816 -0.732 140.43 C 1.706 148.044 -2.053 152 -11.57 152 C -21.088 152 -36.347 148.044 -55.572 140.43 C -74.798 132.816 -97.953 121.549 -122.346 107.48 C -146.739 93.411 -172.323 76.55 -196.123 58.168 C -219.923 39.786 -241.894 19.897 -259.48 0 C -277.067 -19.897 -290.235 -39.786 -297.455 -58.168 C -304.675 -76.55 -305.931 -93.411 -301.079 -107.48 C -296.227 -121.549 -285.275 -132.815 -269.498 -140.43 C -253.72 -148.044 -233.146 -152 -210.168 -152 C -187.19 -152 -161.853 -148.044 -137.101 -140.43 C -112.35 -132.815 -88.233 -121.549 -67.553 -107.48 C -46.874 -93.411 -29.672 -76.55 -17.948 -58.168 C -6.224 -39.786 -0.004 -19.897 0 0" />
</circle>
  <circle cx="352" cy="200" r="3.2" fill="white">
  <animateMotion dur="6.0s" fill="freeze" repeatCount="indefinite" path="M 0 0 C -0.004 19.897 -6.224 39.786 -17.948 58.168 C -29.672 76.55 -46.874 93.411 -67.553 107.48 C -88.233 121.549 -112.35 132.816 -137.101 140.43 C -161.853 148.044 -187.19 152 -210.168 152 C -233.146 152 -253.72 148.044 -269.498 140.43 C -285.275 132.816 -296.227 121.549 -301.079 107.48 C -305.931 93.411 -304.675 76.55 -297.455 58.168 C -290.235 39.786 -277.067 19.897 -259.48 0 C -241.894 -19.897 -219.923 -39.786 -196.123 -58.168 C -172.323 -76.55 -146.739 -93.411 -122.346 -107.48 C -97.953 -121.549 -74.798 -132.815 -55.572 -140.43 C -36.347 -148.044 -21.088 -152 -11.57 -152 C -2.053 -152 1.706 -148.044 -0.732 -140.43 C -3.17 -132.815 -11.799 -121.549 -25.617 -107.48 C -39.434 -93.411 -58.413 -76.55 -80.348 -58.168 C -102.282 -39.786 -127.129 -19.897 -152 0 C -176.871 19.897 -201.718 39.786 -223.652 58.168 C -245.587 76.55 -264.566 93.411 -278.383 107.48 C -292.201 121.549 -300.83 132.816 -303.268 140.43 C -305.706 148.044 -301.947 152 -292.43 152 C -282.912 152 -267.653 148.044 -248.428 140.43 C -229.202 132.816 -206.047 121.549 -181.654 107.48 C -157.261 93.411 -131.677 76.55 -107.877 58.168 C -84.077 39.786 -62.106 19.897 -44.52 0 C -26.933 -19.897 -13.765 -39.786 -6.545 -58.168 C 0.675 -76.55 1.931 -93.411 -2.921 -107.48 C -7.773 -121.549 -18.724 -132.815 -34.502 -140.43 C -50.28 -148.044 -70.854 -152 -93.832 -152 C -116.81 -152 -142.147 -148.044 -166.899 -140.43 C -191.65 -132.815 -215.767 -121.549 -236.447 -107.48 C -257.126 -93.411 -274.328 -76.55 -286.052 -58.168 C -297.776 -39.786 -304 -19.897 -304 0 C -304 19.897 -297.776 39.786 -286.052 58.168 C -274.328 76.55 -257.126 93.411 -236.447 107.48 C -215.767 121.549 -191.65 132.816 -166.899 140.43 C -142.147 148.044 -116.81 152 -93.832 152 C -70.854 152 -50.28 148.044 -34.502 140.43 C -18.724 132.816 -7.773 121.549 -2.921 107.48 C 1.931 93.411 0.675 76.55 -6.545 58.168 C -13.765 39.786 -26.933 19.897 -44.52 0 C -62.106 -19.897 -84.077 -39.786 -107.877 -58.168 C -131.677 -76.55 -157.261 -93.411 -181.654 -107.48 C -206.047 -121.549 -229.202 -132.815 -248.428 -140.43 C -267.653 -148.044 -282.912 -152 -292.43 -152 C -301.947 -152 -305.706 -148.044 -303.268 -140.43 C -300.83 -132.815 -292.201 -121.549 -278.383 -107.48 C -264.566 -93.411 -245.587 -76.55 -223.652 -58.168 C -201.718 -39.786 -176.871 -19.897 -152 0 C -127.129 19.897 -102.282 39.786 -80.348 58.168 C -58.413 76.55 -39.434 93.411 -25.617 107.48 C -11.799 121.549 -3.17 132.816 -0.732 140.43 C 1.706 148.044 -2.053 152 -11.57 152 C -21.088 152 -36.347 148.044 -55.572 140.43 C -74.798 132.816 -97.953 121.549 -122.346 107.48 C -146.739 93.411 -172.323 76.55 -196.123 58.168 C -219.923 39.786 -241.894 19.897 -259.48 0 C -277.067 -19.897 -290.235 -39.786 -297.455 -58.168 C -304.675 -76.55 -305.931 -93.411 -301.079 -107.48 C -296.227 -121.549 -285.275 -132.815 -269.498 -140.43 C -253.72 -148.044 -233.146 -152 -210.168 -152 C -187.19 -152 -161.853 -148.044 -137.101 -140.43 C -112.35 -132.815 -88.233 -121.549 -67.553 -107.48 C -46.874 -93.411 -29.672 -76.55 -17.948 -58.168 C -6.224 -39.786 -0.004 -19.897 0 0" />
  <animate attributeName="r" values="3.2;8;3.2" keyTimes="0;0.5;1" dur="0.8s" calcMode="spline" keySplines="0.42 0.0 0.58 1.0;0.42 0.0 0.58 1.0" fill="freeze" repeatCount="indefinite" />
</circle>
</svg>