<?xml version="1.0" encoding="UTF-8"?>
<svg xmlns="http://www.w3.org/2000/svg" width="360" height="360" viewBox="0 0 360 360">
  <rect width="100%" height="100%" fill="#0d0d0d" />
  <path d="M 10 180 C 12.3611 181.954 14.7222 183.907 17.0833 185.801 C 19.4444 187.696 21.8056 189.53 24.1667 191.25 C 26.5278 192.97 28.8889 194.575 31.25 196.017 C 33.6111 197.46 35.9722 198.74 38.3333 199.821 C 40.6944 200.902 43.0556 201.783 45.4167 202.444 C 47.7778 203.104 50.1389 203.542 52.5 203.75 C 54.8611 203.958 57.2222 203.937 59.5833 203.694 C 61.9444 203.45 64.3056 202.985 66.6667 202.321 C 69.0278 201.656 71.3889 200.793 73.75 199.767 C 76.1111 198.741 78.4722 197.553 80.8333 196.25 C 83.1944 194.947 85.5556 193.529 87.9167 192.051 C 90.2778 190.574 92.6389 189.037 95 187.5 C 97.3611 185.963 99.7222 184.426 102.083 182.949 C 104.444 181.471 106.806 180.053 109.167 178.75 C 111.528 177.447 113.889 176.259 116.25 175.233 C 118.611 174.207 120.972 173.344 123.333 172.679 C 125.694 172.015 128.056 171.55 130.417 171.306 C 132.778 171.063 135.139 171.042 137.5 171.25 C 139.861 171.458 142.222 171.896 144.583 172.556 C 146.944 173.217 149.306 174.098 151.667 175.179 C 154.028 176.26 156.389 177.54 158.75 178.983 C 161.111 180.425 163.472 182.03 165.833 183.75 C 168.194 185.47 170.556 187.304 172.917 189.199 C 175.278 191.093 177.639 193.046 180 195 C 182.361 196.954 184.722 198.907 187.083 200.801 C 189.444 202.696 191.806 204.53 194.167 206.25 C 196.528 207.97 198.889 209.575 201.25 211.017 C 203.611 212.46 205.972 213.74 208.333 214.821 C 210.694 215.902 213.056 216.783 215.417 217.444 C 217.778 218.104 220.139 218.542 222.5 218.75 C 224.861 218.958 227.222 218.937 229.583 218.694 C 231.944 218.45 234.306 217.985 236.667 217.321 C 239.028 216.656 241.389 215.793 243.75 214.767 C 246.111 213.741 248.472 212.553 250.833 211.25 C 253.194 209.947 255.556 208.529 257.917 207.051 C 260.278 205.574 262.639 204.037 265 202.5 C 267.361 200.963 269.722 199.426 272.083 197.949 C 274.444 196.471 276.806 195.053 279.167 193.75 C 281.528 192.447 283.889 191.259 286.25 190.233 C 288.611 189.207 290.972 188.344 293.333 187.679 C 295.694 187.015 298.056 186.55 300.417 186.306 C 302.778 186.063 305.139 186.042 307.5 186.25 C 309.861 186.458 312.222 186.896 314.583 187.556 C 316.944 188.217 319.306 189.098 321.667 190.179 C 324.028 191.26 326.389 192.54 328.75 193.983 C 331.111 195.425 333.472 197.03 335.833 198.75 C 338.194 200.47 340.556 202.304 342.917 204.199 C 345.278 206.093 347.639 208.046 350 210" fill="none" stroke="#ff00ff" stroke-width="1.5" stroke-linecap="round" stroke-linejoin="round" fill-opacity="0.8" stroke-opacity="0.8" />
  <path d="M 10 188.866 C 12.3611 192.494 14.7222 196.121 17.0833 199.564 C 19.4444 203.007 21.8056 206.264 24.1667 209.171 C 26.5278 212.078 28.8889 214.633 31.25 216.71 C 33.6111 218.787 35.9722 220.384 38.3333 221.425 C 40.6944 222.466 43.0556 222.95 45.4167 222.859 C 47.7778 222.768 50.1389 222.102 52.5 220.904 C 54.8611 219.706 57.2222 217.975 59.5833 215.811 C 61.9444 213.647 64.3056 211.05 66.6667 208.165 C 69.0278 205.279 71.3889 202.106 73.75 198.82 C 76.1111 195.534 78.4722 192.136 80.8333 188.813 C 83.1944 185.489 85.5556 182.242 87.9167 179.249 C 90.2778 176.255 92.6389 173.518 95 171.187 C 97.3611 168.856 99.7222 166.933 102.083 165.527 C 104.444 164.12 106.806 163.231 109.167 162.913 C 111.528 162.595 113.889 162.848 116.25 163.666 C 118.611 164.485 120.972 165.868 123.333 167.751 C 125.694 169.634 128.056 172.015 130.417 174.777 C 132.778 177.539 135.139 180.68 137.5 184.043 C 139.861 187.405 142.222 190.987 144.583 194.608 C 146.944 198.229 149.306 201.886 151.667 205.396 C 154.028 208.905 156.389 212.264 158.75 215.304 C 161.111 218.344 163.472 221.063 165.833 223.325 C 168.194 225.588 170.556 227.393 172.917 228.652 C 175.278 229.912 177.639 230.625 180 230.763 C 182.361 230.9 184.722 230.462 187.083 229.477 C 189.444 228.492 191.806 226.962 194.167 224.975 C 196.528 222.987 198.889 220.543 201.25 217.778 C 203.611 215.013 205.972 211.929 208.333 208.695 C 210.694 205.46 213.056 202.078 215.417 198.732 C 217.778 195.386 220.139 192.079 222.5 188.991 C 224.861 185.904 227.222 183.037 229.583 180.55 C 231.944 178.064 234.306 175.957 236.667 174.349 C 239.028 172.741 241.389 171.633 243.75 171.089 C 246.111 170.546 248.472 170.567 250.833 171.16 C 253.194 171.754 255.556 172.918 257.917 174.599 C 260.278 176.281 262.639 178.478 265 181.084 C 267.361 183.69 269.722 186.702 272.083 189.971 C 274.444 193.239 276.806 196.761 279.167 200.359 C 281.528 203.958 283.889 207.63 286.25 211.192 C 288.611 214.753 290.972 218.201 293.333 221.361 C 295.694 224.521 298.056 227.393 300.417 229.832 C 302.778 232.271 305.139 234.277 307.5 235.75 C 309.861 237.223 312.222 238.164 314.583 238.53 C 316.944 238.895 319.306 238.686 321.667 237.92 C 324.028 237.154 326.389 235.832 328.75 234.03 C 331.111 232.228 333.472 229.948 335.833 227.316 C 338.194 224.684 340.556 221.702 342.917 218.534 C 345.278 215.366 347.639 212.013 350 208.66" fill="none" stroke="#00ffff" stroke-width="1.5" stroke-linecap="round" stroke-linejoin="round" fill-opacity="0.72" stroke-opacity="0.72" />
  <path d="M 10 196.939 C 12.3611 202.753 14.7222 208.565 17.0833 213.94 C 19.4444 219.316 21.8056 224.251 24.1667 228.378 C 26.5278 232.505 28.8889 235.82 31.25 238.079 C 33.6111 240.337 35.9722 241.537 38.3333 241.591 C 40.6944 241.645 43.0556 240.554 45.4167 238.405 C 47.7778 236.255 50.1389 233.048 52.5 229.03 C 54.8611 225.011 57.2222 220.185 59.5833 214.918 C 61.9444 209.651 64.3056 203.948 66.6667 198.243 C 69.0278 192.537 71.3889 186.834 73.75 181.568 C 76.1111 176.301 78.4722 171.474 80.8333 167.456 C 83.1944 163.438 85.5556 160.231 87.9167 158.081 C 90.2778 155.931 92.6389 154.84 95 154.894 C 97.3611 154.949 99.7222 156.148 102.083 158.407 C 104.444 160.665 106.806 163.981 109.167 168.108 C 111.528 172.235 113.889 177.17 116.25 182.545 C 118.611 187.921 120.972 193.732 123.333 199.546 C 125.694 205.36 128.056 211.172 130.417 216.547 C 132.778 221.923 135.139 226.858 137.5 230.985 C 139.861 235.112 142.222 238.427 144.583 240.686 C 146.944 242.944 149.306 244.144 151.667 244.198 C 154.028 244.252 156.389 243.161 158.75 241.012 C 161.111 238.862 163.472 235.655 165.833 231.637 C 168.194 227.618 170.556 222.792 172.917 217.525 C 175.278 212.258 177.639 206.555 180 200.85 C 182.361 195.144 184.722 189.441 187.083 184.175 C 189.444 178.908 191.806 174.081 194.167 170.063 C 196.528 166.045 198.889 162.838 201.25 160.688 C 203.611 158.538 205.972 157.447 208.333 157.501 C 210.694 157.556 213.056 158.755 215.417 161.014 C 217.778 163.272 220.139 166.588 222.5 170.715 C 224.861 174.842 227.222 179.777 229.583 185.152 C 231.944 190.528 234.306 196.339 236.667 202.153 C 239.028 207.967 241.389 213.779 243.75 219.154 C 246.111 224.53 248.472 229.465 250.833 233.592 C 253.194 237.719 255.556 241.034 257.917 243.293 C 260.278 245.551 262.639 246.751 265 246.805 C 267.361 246.859 269.722 245.768 272.083 243.619 C 274.444 241.469 276.806 238.262 279.167 234.243 C 281.528 230.225 283.889 225.399 286.25 220.132 C 288.611 214.865 290.972 209.162 293.333 203.457 C 295.694 197.751 298.056 192.048 300.417 186.781 C 302.778 181.515 305.139 176.688 307.5 172.67 C 309.861 168.651 312.222 165.444 314.583 163.295 C 316.944 161.145 319.306 160.054 321.667 160.108 C 324.028 160.163 326.389 161.362 328.75 163.621 C 331.111 165.879 333.472 169.195 335.833 173.322 C 338.194 177.448 340.556 182.384 342.917 187.759 C 345.278 193.135 347.639 198.946 350 204.76" fill="none" stroke="#ff00ff" stroke-width="1.5" stroke-linecap="round" stroke-linejoin="round" fill-opacity="0.64" stroke-opacity="0.64" />
  <path d="M 10 203.5 C 12.3611 212.018 14.7222 220.53 17.0833 228.167 C 19.4444 235.803 21.8056 242.553 24.1667 247.725 C 26.5278 252.898 28.8889 256.486 31.25 258.121 C 33.6111 259.755 35.9722 259.435 38.3333 257.187 C 40.6944 254.94 43.0556 250.77 45.4167 245.097 C 47.7778 239.425 50.1389 232.258 52.5 224.324 C 54.8611 216.389 57.2222 207.697 59.5833 199.13 C 61.9444 190.562 64.3056 182.131 66.6667 174.691 C 69.0278 167.251 71.3889 160.813 73.75 156.028 C 76.1111 151.243 78.4722 148.118 80.8333 146.968 C 83.1944 145.818 85.5556 146.645 87.9167 149.36 C 90.2778 152.075 92.6389 156.675 95 162.689 C 97.3611 168.703 99.7222 176.121 102.083 184.185 C 104.444 192.25 106.806 200.949 109.167 209.394 C 111.528 217.84 113.889 226.019 116.25 233.096 C 118.611 240.173 120.972 246.138 123.333 250.38 C 125.694 254.622 128.056 257.136 130.417 257.662 C 132.778 258.187 135.139 256.724 137.5 253.418 C 139.861 250.111 142.222 244.966 144.583 238.503 C 146.944 232.039 149.306 224.267 151.667 215.972 C 154.028 207.678 156.389 198.874 158.75 190.452 C 161.111 182.031 163.472 174.004 165.833 167.186 C 168.194 160.367 170.556 154.766 172.917 150.95 C 175.278 147.134 177.639 145.108 180 145.074 C 182.361 145.04 184.722 146.999 187.083 150.748 C 189.444 154.497 191.806 160.03 194.167 166.781 C 196.528 173.532 198.889 181.492 201.25 189.846 C 203.611 198.2 205.972 206.937 208.333 215.164 C 210.694 223.391 213.056 231.096 215.417 237.492 C 217.778 243.888 220.139 248.966 222.5 252.205 C 224.861 255.444 227.222 256.84 229.583 256.247 C 231.944 255.654 234.306 253.073 236.667 248.763 C 239.028 244.453 241.389 238.421 243.75 231.276 C 246.111 224.132 248.472 215.885 250.833 207.373 C 253.194 198.86 255.556 190.094 257.917 181.962 C 260.278 173.83 262.639 166.344 265 160.263 C 267.361 154.182 269.722 149.515 272.083 146.732 C 274.444 143.949 276.806 143.056 279.167 144.138 C 281.528 145.221 283.889 148.278 286.25 152.996 C 288.611 157.713 290.972 164.084 293.333 171.457 C 295.694 178.83 298.056 187.193 300.417 195.693 C 302.778 204.193 305.139 212.818 307.5 220.685 C 309.861 228.552 312.222 235.652 314.583 241.257 C 316.944 246.862 319.306 250.965 321.667 253.144 C 324.028 255.324 326.389 255.578 328.75 253.875 C 331.111 252.173 333.472 248.518 335.833 243.278 C 338.194 238.038 340.556 231.221 342.917 223.518 C 345.278 215.814 347.639 207.234 350 198.648" fill="none" stroke="#00ffff" stroke-width="1.5" stroke-linecap="round" stroke-linejoin="round" fill-opacity="0.56" stroke-opacity="0.56" />
  <path d="M 10 207.961 C 12.3611 219.711 14.7222 231.446 17.0833 241.605 C 19.4444 251.765 21.8056 260.323 24.1667 266.139 C 26.5278 271.954 28.8889 275.012 31.25 274.893 C 33.6111 274.774 35.9722 271.479 38.3333 265.427 C 40.6944 259.374 43.0556 250.578 45.4167 240.181 C 47.7778 229.784 50.1389 217.812 52.5 205.825 C 54.8611 193.838 57.2222 181.866 59.5833 171.469 C 61.9444 161.072 64.3056 152.276 66.6667 146.223 C 69.0278 140.17 71.3889 136.875 73.75 136.757 C 76.1111 136.638 78.4722 139.696 80.8333 145.511 C 83.1944 151.326 85.5556 159.885 87.9167 170.045 C 90.2778 180.204 92.6389 191.939 95 203.689 C 97.3611 215.438 99.7222 227.173 102.083 237.333 C 104.444 247.492 106.806 256.051 109.167 261.866 C 111.528 267.682 113.889 270.739 116.25 270.62 C 118.611 270.502 120.972 267.207 123.333 261.154 C 125.694 255.101 128.056 246.305 130.417 235.908 C 132.778 225.511 135.139 213.539 137.5 201.552 C 139.861 189.565 142.222 177.593 144.583 167.196 C 146.944 156.799 149.306 148.003 151.667 141.95 C 154.028 135.898 156.389 132.603 158.75 132.484 C 161.111 132.365 163.472 135.423 165.833 141.238 C 168.194 147.054 170.556 155.612 172.917 165.772 C 175.278 175.932 177.639 187.666 180 199.416 C 182.361 211.166 184.722 222.9 187.083 233.06 C 189.444 243.219 191.806 251.778 194.167 257.594 C 196.528 263.409 198.889 266.466 201.25 266.348 C 203.611 266.229 205.972 262.934 208.333 256.881 C 210.694 250.829 213.056 242.033 215.417 231.636 C 217.778 221.239 220.139 209.267 222.5 197.28 C 224.861 185.293 227.222 173.32 229.583 162.924 C 231.944 152.527 234.306 143.731 236.667 137.678 C 239.028 131.625 241.389 128.33 243.75 128.211 C 246.111 128.093 248.472 131.15 250.833 136.966 C 253.194 142.781 255.556 151.34 257.917 161.499 C 260.278 171.659 262.639 183.394 265 195.143 C 267.361 206.893 269.722 218.628 272.083 228.787 C 274.444 238.947 276.806 247.506 279.167 253.321 C 281.528 259.136 283.889 262.194 286.25 262.075 C 288.611 261.957 290.972 258.662 293.333 252.609 C 295.694 246.556 298.056 237.76 300.417 227.363 C 302.778 216.966 305.139 204.994 307.5 193.007 C 309.861 181.02 312.222 169.048 314.583 158.651 C 316.944 148.254 319.306 139.458 321.667 133.405 C 324.028 127.352 326.389 124.058 328.75 123.939 C 331.111 123.82 333.472 126.878 335.833 132.693 C 338.194 138.509 340.556 147.067 342.917 157.227 C 345.278 167.386 347.639 179.121 350 190.871" fill="none" stroke="#ff00ff" stroke-width="1.5" stroke-linecap="round" stroke-linejoin="round" fill-opacity="0.48" stroke-opacity="0.48" />
  <path d="M 10 209.925 C 12.3611 225.44 14.7222 240.924 17.0833 253.791 C 19.4444 266.659 21.8056 276.859 24.1667 282.677 C 26.4572 288.321 28.8889 289.908 31.25 286.65 C 33.6111 283.392 35.9722 275.477 38.3333 264.176 C 40.6944 252.876 43.0556 238.235 45.4167 222.636 C 47.7778 207.037 50.1389 190.54 52.5 175.835 C 54.8611 161.129 57.2222 148.273 59.5833 139.353 C 61.9444 130.433 64.3056 125.484 66.6667 125.291 C 69.0278 125.098 71.3889 129.66 73.75 138.194 C 76.1111 146.728 78.4722 159.199 80.8333 173.518 C 83.1944 187.837 85.5556 203.948 87.9167 219.161 C 90.2778 234.374 92.6389 248.629 95 259.543 C 97.3611 270.457 99.7222 277.986 102.083 280.858 C 104.444 283.729 106.833 281.857 109.167 275.726 C 111.528 269.522 113.889 258.936 116.25 245.682 C 118.611 232.428 120.972 216.558 123.333 200.657 C 125.694 184.756 128.056 168.886 130.417 155.632 C 132.778 142.379 135.139 131.793 137.5 125.588 C 139.833 119.457 142.222 117.585 144.583 120.457 C 146.944 123.328 149.306 130.858 151.667 141.772 C 154.028 152.686 156.389 166.941 158.75 182.154 C 161.111 197.367 163.472 213.477 165.833 227.797 C 168.194 242.116 170.556 254.586 172.917 263.12 C 175.278 271.654 177.639 276.217 180 276.023 C 182.361 275.83 184.722 270.882 187.083 261.962 C 189.444 253.042 191.806 240.185 194.167 225.48 C 196.528 210.774 198.889 194.278 201.25 178.679 C 203.611 163.079 205.972 148.438 208.333 137.138 C 210.694 125.838 213.056 117.922 215.417 114.665 C 217.778 111.407 220.209 112.994 222.5 118.638 C 224.861 124.456 227.222 134.656 229.583 147.523 C 231.944 160.391 234.306 175.875 236.667 191.39 C 239.028 206.905 241.389 222.388 243.75 235.256 C 246.111 248.124 248.472 258.324 250.833 264.142 C 253.124 269.786 255.556 271.372 257.917 268.115 C 260.278 264.857 262.639 256.942 265 245.641 C 267.361 234.341 269.722 219.7 272.083 204.101 C 274.444 188.502 276.806 172.005 279.167 157.3 C 281.528 142.594 283.889 129.738 286.25 120.818 C 288.611 111.898 290.972 106.949 293.333 106.756 C 295.694 106.563 298.056 111.125 300.417 119.659 C 302.778 128.193 305.139 140.664 307.5 154.983 C 309.861 169.302 312.222 185.412 314.583 200.625 C 316.944 215.839 319.306 230.093 321.667 241.008 C 324.028 251.922 326.389 259.451 328.75 262.323 C 331.111 265.194 333.5 263.322 335.833 257.191 C 338.194 250.987 340.556 240.401 342.917 227.147 C 345.278 213.893 347.639 198.023 350 182.122" fill="none" stroke="#00ffff" stroke-width="1.5" stroke-linecap="round" stroke-linejoin="round" fill-opacity="0.4" stroke-opacity="0.4" />
  <path d="M 10 209.215 C 12.3611 229.036 14.7222 248.797 17.0833 264.471 C 19.4444 280.144 21.8056 291.635 24.1667 296.579 C 26.5278 301.524 29.4404 298.039 31.25 291.96 C 33.6111 284.029 35.9722 269.845 38.3333 252.213 C 40.6944 234.58 43.0556 213.604 45.4167 193.454 C 47.7778 173.304 50.1389 154.1 52.5 139.658 C 54.8611 125.215 57.2222 115.618 59.5833 112.748 C 61.9444 109.878 64.3964 114.127 66.6667 123.536 C 69.0278 133.321 71.3889 148.959 73.75 167.253 C 76.1111 185.546 78.4722 206.383 80.8333 225.52 C 83.1944 244.657 85.5556 261.978 87.9167 273.947 C 90.2778 285.915 92.6389 292.458 95 292.208 C 97.3611 291.957 99.7222 284.914 102.083 272.445 C 104.444 259.977 106.806 242.155 109.167 222.518 C 111.528 202.88 113.889 181.542 116.25 162.749 C 118.611 143.955 120.972 127.816 123.333 117.531 C 125.694 107.245 128.056 102.872 130.417 105.241 C 132.778 107.611 135.139 116.707 137.5 130.65 C 139.861 144.592 142.222 163.295 144.583 182.945 C 146.944 202.594 149.306 223.07 151.667 240.202 C 154.028 257.334 156.389 271.018 158.75 278.449 C 160.508 283.98 163.524 286.891 165.833 281.566 C 168.194 276.121 170.556 264.13 172.917 247.956 C 175.278 231.783 177.639 211.521 180 191.2 C 182.361 170.878 184.722 150.617 187.083 134.443 C 189.444 118.269 191.806 106.278 194.167 100.833 C 196.476 95.508 199.492 98.419 201.25 103.951 C 203.611 111.382 205.972 125.065 208.333 142.197 C 210.694 159.329 213.056 179.805 215.417 199.455 C 217.778 219.104 220.139 237.807 222.5 251.75 C 224.861 265.692 227.222 274.788 229.583 277.158 C 231.944 279.528 234.306 275.155 236.667 264.869 C 239.028 254.583 241.389 238.444 243.75 219.651 C 246.111 200.857 248.472 179.519 250.833 159.882 C 253.194 140.244 255.556 122.423 257.917 109.954 C 260.278 97.4851 262.639 90.442 265 90.1918 C 267.361 89.9416 269.722 96.4842 272.083 108.453 C 274.444 120.421 276.806 137.742 279.167 156.879 C 281.528 176.016 283.889 196.853 286.25 215.147 C 288.611 233.44 290.972 249.078 293.333 258.864 C 295.604 268.273 298.056 272.522 300.417 269.651 C 302.778 266.781 305.139 257.184 307.5 242.742 C 309.861 228.299 312.222 209.095 314.583 188.946 C 316.944 168.796 319.306 147.819 321.667 130.187 C 324.028 112.554 326.389 98.3702 328.75 90.439 C 330.56 84.3604 333.472 80.8755 335.833 85.8201 C 338.194 90.7647 340.556 102.255 342.917 117.929 C 345.278 133.602 347.639 153.363 350 173.184" fill="none" stroke="#ff00ff" stroke-width="1.5" stroke-linecap="round" stroke-linejoin="round" fill-opacity="0.32" stroke-opacity="0.32" />
  <path d="M 10 205.896 C 12.3611 230.569 14.7222 255.134 17.0833 273.613 C 19.4444 292.093 21.8056 304.324 24.1667 307.296 C 26.5278 310.269 28.9206 303.765 31.25 289.804 C 33.6111 275.653 35.9722 253.786 38.3333 229.393 C 40.6944 205.001 43.0556 178.292 45.4167 155.623 C 47.7778 132.954 50.1389 114.519 52.5 104.683 C 53.8645 98.9984 57.8772 95.8391 59.5833 101.43 C 61.9444 109.168 64.3056 125.727 66.6667 147.056 C 69.0278 168.385 71.3889 194.297 73.75 218.49 C 76.1111 242.684 78.4722 264.946 80.8333 279.855 C 83.1944 294.763 85.5556 302.186 87.9167 300.268 C 90.2778 298.351 92.6389 287.108 95 269.175 C 97.3611 251.242 99.7222 226.773 102.083 201.583 C 104.444 176.393 106.806 150.7 109.167 130.615 C 111.528 110.529 113.889 96.2232 116.25 91.0691 C 118.611 85.915 121.458 92.4659 123.333 102.149 C 125.694 114.343 128.056 134.582 130.417 157.931 C 132.778 181.28 135.139 207.531 137.5 230.305 C 139.861 253.078 142.222 272.172 144.583 282.925 C 146.111 289.883 149.313 295.975 151.667 289.252 C 154.028 282.507 156.389 266.757 158.75 245.72 C 161.111 224.683 163.472 198.54 165.833 173.511 C 168.194 148.481 170.556 124.78 172.917 108.039 C 175.278 91.298 177.639 81.6605 180 81.3754 C 182.361 81.0904 184.722 90.158 187.083 106.329 C 189.444 122.5 191.806 145.631 194.167 170.091 C 196.528 194.55 198.889 220.123 201.25 240.59 C 203.611 261.057 205.972 276.237 208.333 282.412 C 210.694 288.586 213.777 282.24 215.417 274.375 C 217.778 263.051 220.139 243.388 222.5 220.044 C 224.861 196.701 227.222 169.879 229.583 145.961 C 231.944 122.042 234.306 101.233 236.667 88.4685 C 238.661 77.6861 241.389 71.0944 243.75 75.6785 C 246.111 80.2626 248.472 93.9982 250.833 113.514 C 253.194 133.03 255.556 158.152 257.917 182.772 C 260.278 207.392 262.639 231.291 265 248.654 C 267.361 266.017 269.722 276.69 272.083 278.037 C 274.444 279.385 276.806 271.392 279.167 255.914 C 281.528 240.435 283.889 217.603 286.25 192.839 C 288.611 168.076 290.972 141.594 293.333 119.695 C 295.694 97.7954 298.056 80.6667 300.417 72.3591 C 301.903 67.1293 306.157 68.6327 307.5 73.9014 C 309.861 83.1674 312.222 101.032 314.583 123.132 C 316.944 145.231 319.306 171.369 321.667 195.192 C 324.028 219.015 326.389 240.312 328.75 253.893 C 330.972 266.675 333.472 273.218 335.833 269.675 C 338.194 266.132 340.556 253.331 342.917 234.282 C 345.278 215.232 347.639 190.098 350 164.855" fill="none" stroke="#00ffff" stroke-width="1.5" stroke-linecap="round" stroke-linejoin="round" fill-opacity="0.24" stroke-opacity="0.24" />
</svg>