<?xml version="1.0" encoding="UTF-8"?>
<svg xmlns="http://www.w3.org/2000/svg" width="288" height="240" viewBox="0 0 288 240">
  <rect width="100%" height="100%" fill="#2d1b4e" />
  <path d="M 24 24 C 24.14 24 24.2799 24.0371 24.4057 24.1087 C 24.5314 24.1803 24.6429 24.2865 24.7275 24.42 C 24.8121 24.5535 24.8697 24.7142 24.891 24.891 C 24.9122 25.0677 24.897 25.2604 24.84 25.4549 C 24.783 25.6495 24.6843 25.8458 24.5435 26.0284 C 24.4027 26.2111 24.2199 26.38 24 26.52 C 23.7801 26.66 23.5231 26.771 23.2391 26.8398 C 22.955 26.9086 22.6439 26.9352 22.32 26.9098 C 21.9961 26.8845 21.6594 26.8071 21.3271 26.6729 C 20.9949 26.5386 20.6672 26.3474 20.3627 26.1 C 20.0582 25.8526 19.777 25.5489 19.5374 25.1957 C 19.2978 24.8425 19.1 24.4398 18.96 24 C 18.82 23.5602 18.738 23.0833 18.726 22.5868 C 18.7141 22.0904 18.7725 21.5744 18.9078 21.06 C 19.0431 20.5456 19.2555 20.033 19.5452 19.5452 C 19.835 19.0575 20.2021 18.5948 20.64 18.1803 C 21.0779 17.7659 21.5864 17.3998 22.152 17.1033 C 22.7176 16.8068 23.3403 16.58 24 16.44 C 24.6597 16.3 25.3565 16.2469 26.0654 16.2919 C 26.7743 16.3369 27.4952 16.4801 28.2 16.7254 C 28.9048 16.9707 29.5934 17.3181 30.2367 17.7633 C 30.8799 18.2086 31.4777 18.7517 32.0021 19.38 C 32.5265 20.0083 32.9774 20.7218 33.3308 21.4998 C 33.6843 22.2778 33.94 23.1204 34.08 24 C 34.22 24.8796 34.2441 25.7963 34.1422 26.7176 C 34.0403 27.6389 33.8122 28.5647 33.457 29.46 C 33.1018 30.3553 32.6194 31.2198 32.0186 32.0186 C 31.4178 32.8173 30.6988 33.5501 29.88 34.1845 C 29.0612 34.8188 28.1429 35.3546 27.1524 35.765 C 26.162 36.1753 25.0996 36.46 24 36.6 C 22.9004 36.74 21.7639 36.7352 20.6302 36.5764 C 19.4964 36.4175 18.3657 36.1046 17.28 35.6394 C 16.1943 35.1742 15.1537 34.5568 14.1995 33.8005 C 13.2453 33.0442 12.3775 32.1492 11.6332 31.14 C 10.8888 30.1308 10.2681 29.0075 9.80089 27.8046 C 9.33364 26.6018 9.02 25.3195 8.88 24 C 8.74 22.6805 8.77375 21.3241 8.98951 19.978 C 9.20527 18.6318 9.60309 17.2962 10.1782 16.02 C 10.7534 14.7438 11.5058 13.5273 12.4176 12.4176 C 13.3294 11.3078 14.4003 10.3051 15.6 9.45077 C 16.7997 8.59649 18.1278 7.89092 19.5431 7.36676 C 20.9584 6.84259 22.4606 6.5 24 6.36 C 25.5394 6.22 27.1157 6.2827 28.6743 6.55538 C 30.2328 6.82806 31.7734 7.31075 33.24 7.99585 C 34.7066 8.68095 36.0991 9.56842 37.3643 10.6357 C 38.6296 11.7029 39.7674 12.9499 40.7316 14.34 C 41.6958 15.7301 42.4863 17.2632 43.0674 18.8909 C 43.6485 20.5186 44.0199 22.2407 44.16 24" fill="none" stroke="#ff6b35" stroke-width="0.8" stroke-linecap="round" stroke-linejoin="round" fill-opacity="0.4" stroke-opacity="0.4" />
  <path d="M 72 24 C 72.14 24 72.2798 24.0486 72.3959 24.1402 C 72.512 24.2318 72.604 24.3665 72.6528 24.5286 C 72.7016 24.6908 72.7071 24.8803 72.6583 25.0743 C 72.6096 25.2684 72.5066 25.4667 72.3493 25.6433 C 72.192 25.8199 71.9804 25.9743 71.7259 26.082 C 71.4714 26.1897 71.1742 26.2504 70.8559 26.2453 C 70.5377 26.2403 70.1985 26.1693 69.8674 26.0238 C 69.5363 25.8782 69.2134 25.6579 68.9305 25.3666 C 68.6476 25.0754 68.4049 24.7131 68.2317 24.2966 C 68.0584 23.8801 67.955 23.4094 67.9431 22.913 C 67.9312 22.4165 68.011 21.8944 68.1925 21.3832 C 68.374 20.872 68.6573 20.3719 69.0376 19.9226 C 69.4178 19.4732 69.8951 19.075 70.4493 18.7648 C 71.0034 18.4547 71.6343 18.233 72.3077 18.1281 C 72.9812 18.0232 73.697 18.0354 74.4109 18.1796 C 75.1248 18.3237 75.8363 18.6 76.4966 19.0061 C 77.1568 19.4121 77.7652 19.948 78.2748 20.5931 C 78.7843 21.2381 79.1945 21.9922 79.4669 22.8174 C 79.7394 23.6426 79.8737 24.5386 79.8464 25.4542 C 79.8191 26.3699 79.6298 27.3047 79.2746 28.2 C 78.9194 29.0953 78.3981 29.9505 77.7281 30.7068 C 77.0582 31.4631 76.2398 32.1199 75.3113 32.6263 C 74.3829 33.1326 73.3447 33.4881 72.2529 33.6567 C 71.161 33.8253 70.0159 33.8069 68.8851 33.5866 C 67.7543 33.3664 66.6383 32.9443 65.608 32.3302 C 64.5777 31.7161 63.6338 30.9102 62.8417 29.9475 C 62.0496 28.9847 61.4098 27.8655 60.9733 26.6473 C 60.5369 25.429 60.3042 24.1122 60.3044 22.7707 C 60.3046 21.4293 60.538 20.0638 61.0065 18.7564 C 61.475 17.4489 62.1787 16.2002 63.0905 15.0905 C 64.0022 13.9807 65.1218 13.0106 66.3947 12.2483 C 67.6677 11.4861 69.0934 10.9322 70.5951 10.6336 C 72.0969 10.335 73.6739 10.292 75.2356 10.523 C 76.7972 10.7539 78.3425 11.2589 79.7774 12.0238 C 81.2124 12.7887 82.536 13.8134 83.6623 15.0512 C 84.7886 16.289 85.7168 17.7396 86.38 19.3277 C 87.0432 20.9158 87.4409 22.6408 87.5347 24.4068 C 87.6285 26.1728 87.4181 27.979 86.8999 29.7196 C 86.3818 31.4601 85.5558 33.134 84.4554 34.638 C 83.3551 36.1419 81.9806 37.475 80.4 38.5492 C 78.8194 39.6234 77.0334 40.438 75.1381 40.9316 C 73.2428 41.4253 71.239 41.5976 69.2405 41.4228 C 67.242 41.248 65.2499 40.726 63.3825 39.8714 C 61.5152 39.0168 59.7735 37.8299 58.2667 36.3655 C 56.7598 34.9012 55.4885 33.1601 54.5387 31.2327 C 53.5888 29.3054 52.961 27.1926 52.7065 25.0111 C 52.452 22.8297 52.5711 20.5805 53.0729 18.3935 C 53.5747 16.2066 54.4593 14.0829 55.6902 12.1502" fill="none" stroke="#ff6b35" stroke-width="0.8" stroke-linecap="round" stroke-linejoin="round" fill-opacity="0.46" stroke-opacity="0.46" />
  <path d="M 120 24 C 120.14 24 120.28 24.0603 120.384 24.1708 C 120.488 24.2813 120.556 24.4417 120.562 24.6242 C 120.569 24.8068 120.513 25.0108 120.389 25.1983 C 120.265 25.3858 120.072 25.5561 119.824 25.6708 C 119.576 25.7855 119.274 25.844 118.95 25.8187 C 118.626 25.7933 118.281 25.6836 117.961 25.4812 C 117.641 25.2788 117.347 24.9837 117.124 24.6113 C 116.902 24.2388 116.753 23.7894 116.713 23.3014 C 116.674 22.8134 116.745 22.2875 116.942 21.7782 C 117.139 21.2689 117.462 20.7772 117.9 20.3627 C 118.338 19.9482 118.89 19.612 119.517 19.4053 C 120.144 19.1986 120.845 19.1224 121.557 19.2067 C 122.27 19.291 122.993 19.5364 123.653 19.9424 C 124.314 20.3485 124.91 20.9153 125.372 21.6084 C 125.833 22.3015 126.16 23.1204 126.3 24 C 126.44 24.8796 126.393 25.8192 126.139 26.7333 C 125.885 27.6474 125.425 28.5349 124.778 29.3061 C 124.13 30.0772 123.297 30.7306 122.336 31.19 C 121.376 31.6493 120.289 31.9135 119.166 31.9363 C 118.043 31.9591 116.886 31.7398 115.8 31.2746 C 114.714 30.8094 113.702 30.0983 112.864 29.1843 C 112.027 28.2702 111.367 27.154 110.962 25.9211 C 110.557 24.6883 110.408 23.34 110.551 21.9916 C 110.695 20.6431 111.131 19.2961 111.845 18.0751 C 112.559 16.8542 113.55 15.761 114.75 14.9067 C 115.95 14.0525 117.357 13.4384 118.859 13.1398 C 120.36 12.8412 121.955 12.8589 123.504 13.215 C 125.053 13.5712 126.555 14.2659 127.869 15.2606 C 129.183 16.2553 130.307 17.5493 131.127 19.0459 C 131.947 20.5426 132.46 22.2407 132.6 24 C 132.74 25.7593 132.506 27.578 131.894 29.2957 C 131.283 31.0134 130.294 32.6282 128.993 33.9879 C 127.692 35.3476 126.08 36.4505 124.283 37.1816 C 122.486 37.9128 120.505 38.271 118.507 38.2018 C 116.51 38.1326 114.498 37.6356 112.65 36.7306 C 110.802 35.8256 109.122 34.513 107.768 32.8873 C 106.413 31.2616 105.388 29.3242 104.8 27.2309 C 104.212 25.1377 104.062 22.8906 104.389 20.6817 C 104.715 18.4729 105.517 16.3047 106.748 14.3721 C 107.979 12.4395 109.639 10.7449 111.6 9.45077 C 113.561 8.15667 115.823 7.26489 118.2 6.87433 C 120.577 6.48378 123.065 6.5954 125.451 7.22336 C 127.837 7.85133 130.117 8.99553 132.084 10.5788 C 134.052 12.1621 135.705 14.1832 136.882 16.4835 C 138.06 18.7838 138.76 21.3611 138.9 24 C 139.04 26.6389 138.619 29.3368 137.65 31.8582 C 136.68 34.3795 135.163 36.7214 133.209 38.6697 C 131.254 40.618 128.864 42.17 126.23 43.1733" fill="none" stroke="#ff6b35" stroke-width="0.8" stroke-linecap="round" stroke-linejoin="round" fill-opacity="0.52" stroke-opacity="0.52" />
  <path d="M 168 24 C 168.14 24 168.279 24.0724 168.369 24.2004 C 168.459 24.3284 168.498 24.5112 168.457 24.7045 C 168.417 24.8978 168.296 25.1002 168.099 25.2561 C 167.902 25.4121 167.628 25.5202 167.317 25.5348 C 167.005 25.5494 166.657 25.4694 166.334 25.2784 C 166.011 25.0874 165.715 24.785 165.511 24.3942 C 165.307 24.0034 165.198 23.5249 165.229 23.0186 C 165.259 22.5124 165.431 21.9799 165.752 21.503 C 166.072 21.0262 166.541 20.6069 167.118 20.3244 C 167.694 20.042 168.378 19.8981 169.087 19.9431 C 169.796 19.9881 170.528 20.223 171.18 20.6488 C 171.832 21.0745 172.402 21.6911 172.793 22.4426 C 173.185 23.1941 173.396 24.0794 173.369 24.995 C 173.341 25.9107 173.074 26.8546 172.57 27.7004 C 172.065 28.5462 171.322 29.2914 170.411 29.8204 C 169.499 30.3495 168.42 30.6604 167.298 30.6832 C 166.175 30.706 165.011 30.4394 163.956 29.8843 C 162.901 29.3291 161.958 28.4855 161.264 27.4322 C 160.57 26.3789 160.128 25.1175 160.023 23.7911 C 159.917 22.4648 160.15 21.0762 160.725 19.8 C 161.301 18.5238 162.218 17.3632 163.392 16.4797 C 164.565 15.5962 165.994 14.9927 167.516 14.7727 C 169.039 14.5527 170.653 14.7178 172.159 15.281 C 173.665 15.8442 175.059 16.8053 176.155 18.0751 C 177.251 19.345 178.044 20.9217 178.41 22.6295 C 178.776 24.3373 178.713 26.1729 178.195 27.9134 C 177.677 29.6539 176.704 31.2954 175.365 32.623 C 174.026 33.9506 172.323 34.9607 170.445 35.503 C 168.567 36.0454 166.517 36.1178 164.541 35.6784 C 162.565 35.2391 160.667 34.2878 159.09 32.9095 C 157.514 31.5313 156.264 29.728 155.516 27.6979 C 154.769 25.6677 154.527 23.4145 154.854 21.2057 C 155.18 18.9968 156.075 16.837 157.461 14.9987 C 158.847 13.1603 160.722 11.6477 162.883 10.6685 C 165.043 9.68926 167.484 9.24642 169.919 9.42576 C 172.354 9.6051 174.777 10.4074 176.887 11.7677 C 178.998 13.128 180.791 15.0445 182.026 17.3099 C 183.262 19.5752 183.937 22.1853 183.938 24.8353 C 183.939 27.4853 183.266 30.1697 181.966 32.5585 C 180.667 34.9474 178.742 37.0352 176.4 38.5492 C 174.058 40.0632 171.301 40.9994 168.451 41.2141 C 165.6 41.4288 162.661 40.9205 159.992 39.7174 C 157.322 38.5143 154.928 36.6178 153.116 34.2293 C 151.305 31.8408 150.081 28.9644 149.621 25.9317 C 149.162 22.899 149.469 19.7161 150.539 16.7673 C 151.609 13.8185 153.44 11.1103 155.842 8.98554 C 158.243 6.86079 161.21 5.32466 164.403 4.59055 C 167.595 3.85643 171.007 3.9273 174.23 4.8267" fill="none" stroke="#ff6b35" stroke-width="0.8" stroke-linecap="round" stroke-linejoin="round" fill-opacity="0.58" stroke-opacity="0.58" />
  <path d="M 216 24 C 216.14 24 216.279 24.0849 216.352 24.2287 C 216.426 24.3726 216.432 24.5739 216.342 24.7674 C 216.251 24.9609 216.064 25.1441 215.803 25.2445 C 215.542 25.3449 215.209 25.3603 214.876 25.2485 C 214.542 25.1367 214.211 24.8967 213.972 24.5435 C 213.732 24.1903 213.587 23.7247 213.603 23.2213 C 213.62 22.7179 213.799 22.1792 214.15 21.7152 C 214.5 21.2512 215.022 20.8651 215.649 20.6584 C 216.276 20.4517 217.006 20.4273 217.716 20.632 C 218.426 20.8367 219.113 21.2717 219.637 21.9 C 220.162 22.5283 220.52 23.3487 220.614 24.2418 C 220.707 25.1349 220.533 26.0973 220.077 26.9624 C 219.622 27.8275 218.885 28.591 217.957 29.0973 C 217.028 29.6037 215.911 29.8493 214.777 29.7515 C 213.644 29.6537 212.499 29.211 211.545 28.4548 C 210.591 27.6985 209.832 26.63 209.427 25.3972 C 209.022 24.1643 208.974 22.7712 209.334 21.4413 C 209.695 20.1113 210.464 18.8502 211.556 17.8838 C 212.648 16.9174 214.06 16.2509 215.582 16.0309 C 217.105 15.8109 218.733 16.0403 220.2 16.7254 C 221.667 17.4105 222.965 18.5506 223.859 19.9958 C 224.752 21.441 225.236 23.187 225.189 24.9658 C 225.143 26.7447 224.566 28.5498 223.507 30.0792 C 222.449 31.6086 220.912 32.8555 219.115 33.5866 C 217.318 34.3178 215.266 34.5287 213.282 34.1422 C 211.299 33.7557 209.392 32.7712 207.885 31.3069 C 206.378 29.8426 205.278 27.9024 204.8 25.774 C 204.321 23.6455 204.466 21.3363 205.257 19.2168 C 206.047 17.0973 207.481 15.176 209.366 13.785 C 211.251 12.394 213.581 11.54 216 11.4 C 218.419 11.26 220.919 11.8365 223.091 13.0805 C 225.264 14.3245 227.101 16.2332 228.278 18.5335 C 229.455 20.8337 229.967 23.5181 229.689 26.1682 C 229.411 28.8183 228.343 31.4241 226.612 33.5552 C 224.882 35.6862 222.494 37.3334 219.805 38.1991 C 217.115 39.0648 214.132 39.1439 211.328 38.38 C 208.524 37.6161 205.91 36.0101 203.923 33.7796 C 201.937 31.5492 200.587 28.701 200.127 25.6683 C 199.668 22.6356 200.102 19.4292 201.405 16.5636 C 202.708 13.6981 204.877 11.1847 207.6 9.45077 C 210.323 7.71685 213.592 6.77038 216.901 6.8036 C 220.21 6.83681 223.546 7.85159 226.369 9.72894 C 229.191 11.6063 231.487 14.3411 232.86 17.5279 C 234.234 20.7147 234.677 24.3427 234.076 27.8422 C 233.475 31.3417 231.831 34.6996 229.364 37.3643 C 226.898 40.0291 223.616 41.9897 220.017 42.8978 C 216.418 43.8059 212.514 43.6563 208.926 42.4289 C 205.338 41.2014 202.079 38.8984 199.69 35.8498" fill="none" stroke="#ff6b35" stroke-width="0.8" stroke-linecap="round" stroke-linejoin="round" fill-opacity="0.64" stroke-opacity="0.64" />
  <path d="M 264 24 C 264.14 24 264.278 24.0978 264.333 24.2557 C 264.388 24.4136 264.358 24.6287 264.217 24.8114 C 264.077 24.994 263.825 25.1399 263.518 25.1641 C 263.21 25.1882 262.85 25.0874 262.545 24.84 C 262.241 24.5926 261.997 24.1984 261.918 23.7259 C 261.839 23.2534 261.928 22.7058 262.218 22.2181 C 262.508 21.7303 262.999 21.3077 263.616 21.0852 C 264.234 20.8626 264.975 20.8449 265.68 21.0902 C 266.385 21.3354 267.047 21.8451 267.492 22.5535 C 267.937 23.2618 268.159 24.1657 268.057 25.087 C 267.955 26.0084 267.527 26.9406 266.812 27.6653 C 266.098 28.3899 265.1 28.9 264 29.04 C 262.9 29.18 261.706 28.9458 260.676 28.3317 C 259.646 27.7176 258.788 26.7247 258.32 25.5219 C 257.853 24.319 257.783 22.9125 258.18 21.5891 C 258.576 20.2657 259.44 19.0346 260.64 18.1803 C 261.84 17.326 263.369 16.8566 264.932 16.9211 C 266.495 16.9856 268.08 17.587 269.346 18.6543 C 270.611 19.7215 271.546 21.2506 271.912 22.9584 C 272.278 24.6662 272.07 26.5429 271.275 28.2 C 270.48 29.8571 269.099 31.2829 267.375 32.1486 C 265.651 33.0143 263.592 33.3117 261.609 32.9252 C 259.625 32.5386 257.73 31.4674 256.336 29.8806 C 254.942 28.2939 254.06 26.1991 253.92 24 C 253.78 21.8009 254.386 19.5106 255.67 17.608 C 256.953 15.7054 258.909 14.2039 261.174 13.4521 C 263.439 12.7003 266 12.7058 268.34 13.5232 C 270.679 14.3406 272.78 15.9681 274.184 18.12 C 275.589 20.2719 276.284 22.937 276.076 25.5898 C 275.868 28.2426 274.754 30.8668 272.91 32.9095 C 271.065 34.9523 268.497 36.399 265.699 36.9086 C 262.902 37.4182 259.889 36.9842 257.28 35.6394 C 254.671 34.2945 252.482 32.044 251.195 29.304 C 249.909 26.564 249.535 23.3496 250.207 20.3041 C 250.878 17.2586 252.592 14.4011 255.051 12.3377 C 257.51 10.2743 260.701 9.02 264 8.88 C 267.299 8.74 270.685 9.71847 273.46 11.6713 C 276.235 13.6241 278.38 16.5422 279.416 19.8692 C 280.453 23.1963 280.371 26.9132 279.133 30.2684 C 277.895 33.6235 275.504 36.5954 272.4 38.5492 C 269.296 40.5031 265.495 41.4242 261.752 41.0727 C 258.009 40.7211 254.347 39.0956 251.527 36.4734 C 248.706 33.8511 246.748 30.2454 246.095 26.3573 C 245.441 22.4692 246.101 18.3216 247.996 14.76 C 249.89 11.1984 253.011 8.24595 256.767 6.53868 C 260.523 4.8314 264.893 4.38263 269 5.33831 C 273.108 6.294 276.928 8.65162 279.661 11.983 C 282.394 15.3145 284.019 19.6018 284.16 24" fill="none" stroke="#ff6b35" stroke-width="0.8" stroke-linecap="round" stroke-linejoin="round" fill-opacity="0.7" stroke-opacity="0.7" />
  <path d="M 24 72 C 24.14 72 24.2799 72.0371 24.4057 72.1087 C 24.5314 72.1803 24.6429 72.2865 24.7275 72.42 C 24.8121 72.5535 24.8697 72.7142 24.891 72.891 C 24.9122 73.0677 24.897 73.2604 24.84 73.4549 C 24.783 73.6495 24.6843 73.8458 24.5435 74.0284 C 24.4027 74.2111 24.2199 74.38 24 74.52 C 23.7801 74.66 23.5231 74.771 23.2391 74.8398 C 22.955 74.9086 22.6439 74.9352 22.32 74.9098 C 21.9961 74.8845 21.6594 74.8071 21.3271 74.6729 C 20.9949 74.5386 20.6672 74.3474 20.3627 74.1 C 20.0582 73.8526 19.777 73.5489 19.5374 73.1957 C 19.2978 72.8425 19.1 72.4398 18.96 72 C 18.82 71.5602 18.738 71.0833 18.726 70.5868 C 18.7141 70.0904 18.7725 69.5744 18.9078 69.06 C 19.0431 68.5456 19.2555 68.033 19.5452 67.5452 C 19.835 67.0575 20.2021 66.5948 20.64 66.1803 C 21.0779 65.7659 21.5864 65.3998 22.152 65.1033 C 22.7176 64.8068 23.3403 64.58 24 64.44 C 24.6597 64.3 25.3565 64.2469 26.0654 64.2919 C 26.7743 64.3369 27.4952 64.4801 28.2 64.7254 C 28.9048 64.9707 29.5934 65.3181 30.2367 65.7633 C 30.8799 66.2086 31.4777 66.7517 32.0021 67.38 C 32.5265 68.0083 32.9774 68.7218 33.3308 69.4998 C 33.6843 70.2778 33.94 71.1204 34.08 72 C 34.22 72.8796 34.2441 73.7963 34.1422 74.7176 C 34.0403 75.6389 33.8122 76.5647 33.457 77.46 C 33.1018 78.3553 32.6194 79.2198 32.0186 80.0186 C 31.4178 80.8173 30.6988 81.5501 29.88 82.1845 C 29.0612 82.8188 28.1429 83.3546 27.1524 83.765 C 26.162 84.1753 25.0996 84.46 24 84.6 C 22.9004 84.74 21.7639 84.7352 20.6302 84.5764 C 19.4964 84.4175 18.3657 84.1046 17.28 83.6394 C 16.1943 83.1742 15.1537 82.5568 14.1995 81.8005 C 13.2453 81.0442 12.3775 80.1492 11.6332 79.14 C 10.8888 78.1308 10.2681 77.0075 9.80089 75.8046 C 9.33364 74.6018 9.02 73.3195 8.88 72 C 8.74 70.6805 8.77375 69.3241 8.98951 67.978 C 9.20527 66.6318 9.60309 65.2962 10.1782 64.02 C 10.7534 62.7438 11.5058 61.5273 12.4176 60.4176 C 13.3294 59.3078 14.4003 58.3051 15.6 57.4508 C 16.7997 56.5965 18.1278 55.8909 19.5431 55.3668 C 20.9584 54.8426 22.4606 54.5 24 54.36 C 25.5394 54.22 27.1157 54.2827 28.6743 54.5554 C 30.2328 54.8281 31.7734 55.3108 33.24 55.9959 C 34.7066 56.6809 36.0991 57.5684 37.3643 58.6357 C 38.6296 59.7029 39.7674 60.9499 40.7316 62.34 C 41.6958 63.7301 42.4863 65.2632 43.0674 66.8909 C 43.6485 68.5186 44.0199 70.2407 44.16 72" fill="none" stroke="#ff6b35" stroke-width="1.175" stroke-linecap="round" stroke-linejoin="round" fill-opacity="0.475" stroke-opacity="0.475" />
  <path d="M 72 72 C 72.14 72 72.2798 72.0486 72.3959 72.1402 C 72.512 72.2318 72.604 72.3665 72.6528 72.5286 C 72.7016 72.6908 72.7071 72.8803 72.6583 73.0743 C 72.6096 73.2684 72.5066 73.4667 72.3493 73.6433 C 72.192 73.8199 71.9804 73.9743 71.7259 74.082 C 71.4714 74.1897 71.1742 74.2504 70.8559 74.2453 C 70.5377 74.2403 70.1985 74.1693 69.8674 74.0238 C 69.5363 73.8782 69.2134 73.6579 68.9305 73.3666 C 68.6476 73.0754 68.4049 72.7131 68.2317 72.2966 C 68.0584 71.8801 67.955 71.4094 67.9431 70.913 C 67.9312 70.4165 68.011 69.8944 68.1925 69.3832 C 68.374 68.872 68.6573 68.3719 69.0376 67.9226 C 69.4178 67.4732 69.8951 67.075 70.4493 66.7648 C 71.0034 66.4547 71.6343 66.233 72.3077 66.1281 C 72.9812 66.0232 73.697 66.0354 74.4109 66.1796 C 75.1248 66.3237 75.8363 66.6 76.4966 67.0061 C 77.1568 67.4121 77.7652 67.948 78.2748 68.5931 C 78.7843 69.2381 79.1945 69.9922 79.4669 70.8174 C 79.7394 71.6426 79.8737 72.5386 79.8464 73.4542 C 79.8191 74.3699 79.6298 75.3047 79.2746 76.2 C 78.9194 77.0953 78.3981 77.9505 77.7281 78.7068 C 77.0582 79.4631 76.2398 80.1199 75.3113 80.6263 C 74.3829 81.1326 73.3447 81.4881 72.2529 81.6567 C 71.161 81.8253 70.0159 81.8069 68.8851 81.5866 C 67.7543 81.3664 66.6383 80.9443 65.608 80.3302 C 64.5777 79.7161 63.6338 78.9102 62.8417 77.9475 C 62.0496 76.9847 61.4098 75.8655 60.9733 74.6473 C 60.5369 73.429 60.3042 72.1122 60.3044 70.7707 C 60.3046 69.4293 60.538 68.0638 61.0065 66.7564 C 61.475 65.4489 62.1787 64.2002 63.0905 63.0905 C 64.0022 61.9807 65.1218 61.0106 66.3947 60.2483 C 67.6677 59.4861 69.0934 58.9322 70.5951 58.6336 C 72.0969 58.335 73.6739 58.292 75.2356 58.523 C 76.7972 58.7539 78.3425 59.2589 79.7774 60.0238 C 81.2124 60.7887 82.536 61.8134 83.6623 63.0512 C 84.7886 64.289 85.7168 65.7396 86.38 67.3277 C 87.0432 68.9158 87.4409 70.6408 87.5347 72.4068 C 87.6285 74.1728 87.4181 75.979 86.8999 77.7196 C 86.3818 79.4601 85.5558 81.134 84.4554 82.638 C 83.3551 84.1419 81.9806 85.475 80.4 86.5492 C 78.8194 87.6234 77.0334 88.438 75.1381 88.9316 C 73.2428 89.4253 71.239 89.5976 69.2405 89.4228 C 67.242 89.248 65.2499 88.726 63.3825 87.8714 C 61.5152 87.0168 59.7735 85.8299 58.2667 84.3655 C 56.7598 82.9012 55.4885 81.1601 54.5387 79.2327 C 53.5888 77.3054 52.961 75.1926 52.7065 73.0111 C 52.452 70.8297 52.5711 68.5805 53.0729 66.3935 C 53.5747 64.2066 54.4593 62.0829 55.6902 60.1502" fill="none" stroke="#ff6b35" stroke-width="1.175" stroke-linecap="round" stroke-linejoin="round" fill-opacity="0.535" stroke-opacity="0.535" />
  <path d="M 120 72 C 120.14 72 120.28 72.0603 120.384 72.1708 C 120.488 72.2813 120.556 72.4417 120.562 72.6242 C 120.569 72.8068 120.513 73.0108 120.389 73.1983 C 120.265 73.3858 120.072 73.5561 119.824 73.6708 C 119.576 73.7855 119.274 73.844 118.95 73.8187 C 118.626 73.7933 118.281 73.6836 117.961 73.4812 C 117.641 73.2788 117.347 72.9837 117.124 72.6113 C 116.902 72.2388 116.753 71.7894 116.713 71.3014 C 116.674 70.8134 116.745 70.2875 116.942 69.7782 C 117.139 69.2689 117.462 68.7772 117.9 68.3627 C 118.338 67.9482 118.89 67.612 119.517 67.4053 C 120.144 67.1986 120.845 67.1224 121.557 67.2067 C 122.27 67.291 122.993 67.5364 123.653 67.9424 C 124.314 68.3485 124.91 68.9153 125.372 69.6084 C 125.833 70.3015 126.16 71.1204 126.3 72 C 126.44 72.8796 126.393 73.8192 126.139 74.7333 C 125.885 75.6474 125.425 76.5349 124.778 77.3061 C 124.13 78.0772 123.297 78.7306 122.336 79.19 C 121.376 79.6493 120.289 79.9135 119.166 79.9363 C 118.043 79.9591 116.886 79.7398 115.8 79.2746 C 114.714 78.8094 113.702 78.0983 112.864 77.1843 C 112.027 76.2702 111.367 75.154 110.962 73.9211 C 110.557 72.6883 110.408 71.34 110.551 69.9916 C 110.695 68.6431 111.131 67.2961 111.845 66.0751 C 112.559 64.8542 113.55 63.761 114.75 62.9067 C 115.95 62.0525 117.357 61.4384 118.859 61.1398 C 120.36 60.8412 121.955 60.8589 123.504 61.215 C 125.053 61.5712 126.555 62.2659 127.869 63.2606 C 129.183 64.2553 130.307 65.5493 131.127 67.0459 C 131.947 68.5426 132.46 70.2407 132.6 72 C 132.74 73.7593 132.506 75.578 131.894 77.2957 C 131.283 79.0134 130.294 80.6282 128.993 81.9879 C 127.692 83.3476 126.08 84.4505 124.283 85.1816 C 122.486 85.9128 120.505 86.271 118.507 86.2018 C 116.51 86.1326 114.498 85.6356 112.65 84.7306 C 110.802 83.8256 109.122 82.513 107.768 80.8873 C 106.413 79.2616 105.388 77.3242 104.8 75.2309 C 104.212 73.1377 104.062 70.8906 104.389 68.6817 C 104.715 66.4729 105.517 64.3047 106.748 62.3721 C 107.979 60.4395 109.639 58.7449 111.6 57.4508 C 113.561 56.1567 115.823 55.2649 118.2 54.8743 C 120.577 54.4838 123.065 54.5954 125.451 55.2234 C 127.837 55.8513 130.117 56.9955 132.084 58.5788 C 134.052 60.1621 135.705 62.1832 136.882 64.4835 C 138.06 66.7838 138.76 69.3611 138.9 72 C 139.04 74.6389 138.619 77.3368 137.65 79.8582 C 136.68 82.3795 135.163 84.7214 133.209 86.6697 C 131.254 88.618 128.864 90.17 126.23 91.1733" fill="none" stroke="#ff6b35" stroke-width="1.175" stroke-linecap="round" stroke-linejoin="round" fill-opacity="0.595" stroke-opacity="0.595" />
  <path d="M 168 72 C 168.14 72 168.279 72.0724 168.369 72.2004 C 168.459 72.3284 168.498 72.5112 168.457 72.7045 C 168.417 72.8978 168.296 73.1002 168.099 73.2561 C 167.902 73.4121 167.628 73.5202 167.317 73.5348 C 167.005 73.5494 166.657 73.4694 166.334 73.2784 C 166.011 73.0874 165.715 72.785 165.511 72.3942 C 165.307 72.0034 165.198 71.5249 165.229 71.0186 C 165.259 70.5124 165.431 69.9799 165.752 69.503 C 166.072 69.0262 166.541 68.6069 167.118 68.3244 C 167.694 68.042 168.378 67.8981 169.087 67.9431 C 169.796 67.9881 170.528 68.223 171.18 68.6488 C 171.832 69.0745 172.402 69.6911 172.793 70.4426 C 173.185 71.1941 173.396 72.0794 173.369 72.995 C 173.341 73.9107 173.074 74.8546 172.57 75.7004 C 172.065 76.5462 171.322 77.2914 170.411 77.8204 C 169.499 78.3495 168.42 78.6604 167.298 78.6832 C 166.175 78.706 165.011 78.4394 163.956 77.8843 C 162.901 77.3291 161.958 76.4855 161.264 75.4322 C 160.57 74.3789 160.128 73.1175 160.023 71.7911 C 159.917 70.4648 160.15 69.0762 160.725 67.8 C 161.301 66.5238 162.218 65.3632 163.392 64.4797 C 164.565 63.5962 165.994 62.9927 167.516 62.7727 C 169.039 62.5527 170.653 62.7178 172.159 63.281 C 173.665 63.8442 175.059 64.8053 176.155 66.0751 C 177.251 67.345 178.044 68.9217 178.41 70.6295 C 178.776 72.3373 178.713 74.1729 178.195 75.9134 C 177.677 77.6539 176.704 79.2954 175.365 80.623 C 174.026 81.9506 172.323 82.9607 170.445 83.503 C 168.567 84.0454 166.517 84.1178 164.541 83.6784 C 162.565 83.2391 160.667 82.2878 159.09 80.9095 C 157.514 79.5313 156.264 77.728 155.516 75.6979 C 154.769 73.6677 154.527 71.4145 154.854 69.2057 C 155.18 66.9968 156.075 64.837 157.461 62.9987 C 158.847 61.1603 160.722 59.6477 162.883 58.6685 C 165.043 57.6893 167.484 57.2464 169.919 57.4258 C 172.354 57.6051 174.777 58.4074 176.887 59.7677 C 178.998 61.128 180.791 63.0445 182.026 65.3099 C 183.262 67.5752 183.937 70.1853 183.938 72.8353 C 183.939 75.4853 183.266 78.1697 181.966 80.5585 C 180.667 82.9474 178.742 85.0352 176.4 86.5492 C 174.058 88.0632 171.301 88.9994 168.451 89.2141 C 165.6 89.4288 162.661 88.9205 159.992 87.7174 C 157.322 86.5143 154.928 84.6178 153.116 82.2293 C 151.305 79.8408 150.081 76.9644 149.621 73.9317 C 149.162 70.899 149.469 67.7161 150.539 64.7673 C 151.609 61.8185 153.44 59.1103 155.842 56.9855 C 158.243 54.8608 161.21 53.3247 164.403 52.5905 C 167.595 51.8564 171.007 51.9273 174.23 52.8267" fill="none" stroke="#ff6b35" stroke-width="1.175" stroke-linecap="round" stroke-linejoin="round" fill-opacity="0.655" stroke-opacity="0.655" />
  <path d="M 216 72 C 216.14 72 216.279 72.0849 216.352 72.2287 C 216.426 72.3726 216.432 72.5739 216.342 72.7674 C 216.251 72.9609 216.064 73.1441 215.803 73.2445 C 215.542 73.3449 215.209 73.3603 214.876 73.2485 C 214.542 73.1367 214.211 72.8967 213.972 72.5435 C 213.732 72.1903 213.587 71.7247 213.603 71.2213 C 213.62 70.7179 213.799 70.1792 214.15 69.7152 C 214.5 69.2512 215.022 68.8651 215.649 68.6584 C 216.276 68.4517 217.006 68.4273 217.716 68.632 C 218.426 68.8367 219.113 69.2717 219.637 69.9 C 220.162 70.5283 220.52 71.3487 220.614 72.2418 C 220.707 73.1349 220.533 74.0973 220.077 74.9624 C 219.622 75.8275 218.885 76.591 217.957 77.0973 C 217.028 77.6037 215.911 77.8493 214.777 77.7515 C 213.644 77.6537 212.499 77.211 211.545 76.4548 C 210.591 75.6985 209.832 74.63 209.427 73.3972 C 209.022 72.1643 208.974 70.7712 209.334 69.4413 C 209.695 68.1113 210.464 66.8502 211.556 65.8838 C 212.648 64.9174 214.06 64.2509 215.582 64.0309 C 217.105 63.8109 218.733 64.0403 220.2 64.7254 C 221.667 65.4105 222.965 66.5506 223.859 67.9958 C 224.752 69.441 225.236 71.187 225.189 72.9658 C 225.143 74.7447 224.566 76.5498 223.507 78.0792 C 222.449 79.6086 220.912 80.8555 219.115 81.5866 C 217.318 82.3178 215.266 82.5287 213.282 82.1422 C 211.299 81.7557 209.392 80.7712 207.885 79.3069 C 206.378 77.8426 205.278 75.9024 204.8 73.774 C 204.321 71.6455 204.466 69.3363 205.257 67.2168 C 206.047 65.0973 207.481 63.176 209.366 61.785 C 211.251 60.394 213.581 59.54 216 59.4 C 218.419 59.26 220.919 59.8365 223.091 61.0805 C 225.264 62.3245 227.101 64.2332 228.278 66.5335 C 229.455 68.8337 229.967 71.5181 229.689 74.1682 C 229.411 76.8183 228.343 79.4241 226.612 81.5552 C 224.882 83.6862 222.494 85.3334 219.805 86.1991 C 217.115 87.0648 214.132 87.1439 211.328 86.38 C 208.524 85.6161 205.91 84.0101 203.923 81.7796 C 201.937 79.5492 200.587 76.701 200.127 73.6683 C 199.668 70.6356 200.102 67.4292 201.405 64.5636 C 202.708 61.6981 204.877 59.1847 207.6 57.4508 C 210.323 55.7168 213.592 54.7704 216.901 54.8036 C 220.21 54.8368 223.546 55.8516 226.369 57.7289 C 229.191 59.6063 231.487 62.3411 232.86 65.5279 C 234.234 68.7147 234.677 72.3427 234.076 75.8422 C 233.475 79.3417 231.831 82.6996 229.364 85.3643 C 226.898 88.0291 223.616 89.9897 220.017 90.8978 C 216.418 91.8059 212.514 91.6563 208.926 90.4289 C 205.338 89.2014 202.079 86.8984 199.69 83.8498" fill="none" stroke="#ff6b35" stroke-width="1.175" stroke-linecap="round" stroke-linejoin="round" fill-opacity="0.715" stroke-opacity="0.715" />
  <path d="M 264 72 C 264.14 72 264.278 72.0978 264.333 72.2557 C 264.388 72.4136 264.358 72.6287 264.217 72.8114 C 264.077 72.994 263.825 73.1399 263.518 73.1641 C 263.21 73.1882 262.85 73.0874 262.545 72.84 C 262.241 72.5926 261.997 72.1984 261.918 71.7259 C 261.839 71.2534 261.928 70.7058 262.218 70.2181 C 262.508 69.7303 262.999 69.3077 263.616 69.0852 C 264.234 68.8626 264.975 68.8449 265.68 69.0902 C 266.385 69.3354 267.047 69.8451 267.492 70.5535 C 267.937 71.2618 268.159 72.1657 268.057 73.087 C 267.955 74.0084 267.527 74.9406 266.812 75.6653 C 266.098 76.3899 265.1 76.9 264 77.04 C 262.9 77.18 261.706 76.9458 260.676 76.3317 C 259.646 75.7176 258.788 74.7247 258.32 73.5219 C 257.853 72.319 257.783 70.9125 258.18 69.5891 C 258.576 68.2657 259.44 67.0346 260.64 66.1803 C 261.84 65.326 263.369 64.8566 264.932 64.9211 C 266.495 64.9856 268.08 65.587 269.346 66.6543 C 270.611 67.7215 271.546 69.2506 271.912 70.9584 C 272.278 72.6662 272.07 74.5429 271.275 76.2 C 270.48 77.8571 269.099 79.2829 267.375 80.1486 C 265.651 81.0143 263.592 81.3117 261.609 80.9252 C 259.625 80.5386 257.73 79.4674 256.336 77.8806 C 254.942 76.2939 254.06 74.1991 253.92 72 C 253.78 69.8009 254.386 67.5106 255.67 65.608 C 256.953 63.7054 258.909 62.2039 261.174 61.4521 C 263.439 60.7003 266 60.7058 268.34 61.5232 C 270.679 62.3406 272.78 63.9681 274.184 66.12 C 275.589 68.2719 276.284 70.937 276.076 73.5898 C 275.868 76.2426 274.754 78.8668 272.91 80.9095 C 271.065 82.9523 268.497 84.399 265.699 84.9086 C 262.902 85.4182 259.889 84.9842 257.28 83.6394 C 254.671 82.2945 252.482 80.044 251.195 77.304 C 249.909 74.564 249.535 71.3496 250.207 68.3041 C 250.878 65.2586 252.592 62.4011 255.051 60.3377 C 257.51 58.2743 260.701 57.02 264 56.88 C 267.299 56.74 270.685 57.7185 273.46 59.6713 C 276.235 61.6241 278.38 64.5422 279.416 67.8692 C 280.453 71.1963 280.371 74.9132 279.133 78.2684 C 277.895 81.6235 275.504 84.5954 272.4 86.5492 C 269.296 88.5031 265.495 89.4242 261.752 89.0727 C 258.009 88.7211 254.347 87.0956 251.527 84.4734 C 248.706 81.8511 246.748 78.2454 246.095 74.3573 C 245.441 70.4692 246.101 66.3216 247.996 62.76 C 249.89 59.1984 253.011 56.246 256.767 54.5387 C 260.523 52.8314 264.893 52.3826 269 53.3383 C 273.108 54.294 276.928 56.6516 279.661 59.983 C 282.394 63.3145 284.019 67.6018 284.16 72" fill="none" stroke="#ff6b35" stroke-width="1.175" stroke-linecap="round" stroke-linejoin="round" fill-opacity="0.775" stroke-opacity="0.775" />
  <path d="M 24 120 C 24.14 120 24.2799 120.037 24.4057 120.109 C 24.5314 120.18 24.6429 120.287 24.7275 120.42 C 24.8121 120.553 24.8697 120.714 24.891 120.891 C 24.9122 121.068 24.897 121.26 24.84 121.455 C 24.783 121.649 24.6843 121.846 24.5435 122.028 C 24.4027 122.211 24.2199 122.38 24 122.52 C 23.7801 122.66 23.5231 122.771 23.2391 122.84 C 22.955 122.909 22.6439 122.935 22.32 122.91 C 21.9961 122.884 21.6594 122.807 21.3271 122.673 C 20.9949 122.539 20.6672 122.347 20.3627 122.1 C 20.0582 121.853 19.777 121.549 19.5374 121.196 C 19.2978 120.843 19.1 120.44 18.96 120 C 18.82 119.56 18.738 119.083 18.726 118.587 C 18.7141 118.09 18.7725 117.574 18.9078 117.06 C 19.0431 116.546 19.2555 116.033 19.5452 115.545 C 19.835 115.057 20.2021 114.595 20.64 114.18 C 21.0779 113.766 21.5864 113.4 22.152 113.103 C 22.7176 112.807 23.3403 112.58 24 112.44 C 24.6597 112.3 25.3565 112.247 26.0654 112.292 C 26.7743 112.337 27.4952 112.48 28.2 112.725 C 28.9048 112.971 29.5934 113.318 30.2367 113.763 C 30.8799 114.209 31.4777 114.752 32.0021 115.38 C 32.5265 116.008 32.9774 116.722 33.3308 117.5 C 33.6843 118.278 33.94 119.12 34.08 120 C 34.22 120.88 34.2441 121.796 34.1422 122.718 C 34.0403 123.639 33.8122 124.565 33.457 125.46 C 33.1018 126.355 32.6194 127.22 32.0186 128.019 C 31.4178 128.817 30.6988 129.55 29.88 130.184 C 29.0612 130.819 28.1429 131.355 27.1524 131.765 C 26.162 132.175 25.0996 132.46 24 132.6 C 22.9004 132.74 21.7639 132.735 20.6302 132.576 C 19.4964 132.418 18.3657 132.105 17.28 131.639 C 16.1943 131.174 15.1537 130.557 14.1995 129.8 C 13.2453 129.044 12.3775 128.149 11.6332 127.14 C 10.8888 126.131 10.2681 125.008 9.80089 123.805 C 9.33364 122.602 9.02 121.319 8.88 120 C 8.74 118.681 8.77375 117.324 8.98951 115.978 C 9.20527 114.632 9.60309 113.296 10.1782 112.02 C 10.7534 110.744 11.5058 109.527 12.4176 108.418 C 13.3294 107.308 14.4003 106.305 15.6 105.451 C 16.7997 104.596 18.1278 103.891 19.5431 103.367 C 20.9584 102.843 22.4606 102.5 24 102.36 C 25.5394 102.22 27.1157 102.283 28.6743 102.555 C 30.2328 102.828 31.7734 103.311 33.24 103.996 C 34.7066 104.681 36.0991 105.568 37.3643 106.636 C 38.6296 107.703 39.7674 108.95 40.7316 110.34 C 41.6958 111.73 42.4863 113.263 43.0674 114.891 C 43.6485 116.519 44.0199 118.241 44.16 120" fill="none" stroke="#ff6b35" stroke-width="1.55" stroke-linecap="round" stroke-linejoin="round" fill-opacity="0.55" stroke-opacity="0.55" />
  <path d="M 72 120 C 72.14 120 72.2798 120.049 72.3959 120.14 C 72.512 120.232 72.604 120.366 72.6528 120.529 C 72.7016 120.691 72.7071 120.88 72.6583 121.074 C 72.6096 121.268 72.5066 121.467 72.3493 121.643 C 72.192 121.82 71.9804 121.974 71.7259 122.082 C 71.4714 122.19 71.1742 122.25 70.8559 122.245 C 70.5377 122.24 70.1985 122.169 69.8674 122.024 C 69.5363 121.878 69.2134 121.658 68.9305 121.367 C 68.6476 121.075 68.4049 120.713 68.2317 120.297 C 68.0584 119.88 67.955 119.409 67.9431 118.913 C 67.9312 118.416 68.011 117.894 68.1925 117.383 C 68.374 116.872 68.6573 116.372 69.0376 115.923 C 69.4178 115.473 69.8951 115.075 70.4493 114.765 C 71.0034 114.455 71.6343 114.233 72.3077 114.128 C 72.9812 114.023 73.697 114.035 74.4109 114.18 C 75.1248 114.324 75.8363 114.6 76.4966 115.006 C 77.1568 115.412 77.7652 115.948 78.2748 116.593 C 78.7843 117.238 79.1945 117.992 79.4669 118.817 C 79.7394 119.643 79.8737 120.539 79.8464 121.454 C 79.8191 122.37 79.6298 123.305 79.2746 124.2 C 78.9194 125.095 78.3981 125.95 77.7281 126.707 C 77.0582 127.463 76.2398 128.12 75.3113 128.626 C 74.3829 129.133 73.3447 129.488 72.2529 129.657 C 71.161 129.825 70.0159 129.807 68.8851 129.587 C 67.7543 129.366 66.6383 128.944 65.608 128.33 C 64.5777 127.716 63.6338 126.91 62.8417 125.947 C 62.0496 124.985 61.4098 123.866 60.9733 122.647 C 60.5369 121.429 60.3042 120.112 60.3044 118.771 C 60.3046 117.429 60.538 116.064 61.0065 114.756 C 61.475 113.449 62.1787 112.2 63.0905 111.09 C 64.0022 109.981 65.1218 109.011 66.3947 108.248 C 67.6677 107.486 69.0934 106.932 70.5951 106.634 C 72.0969 106.335 73.6739 106.292 75.2356 106.523 C 76.7972 106.754 78.3425 107.259 79.7774 108.024 C 81.2124 108.789 82.536 109.813 83.6623 111.051 C 84.7886 112.289 85.7168 113.74 86.38 115.328 C 87.0432 116.916 87.4409 118.641 87.5347 120.407 C 87.6285 122.173 87.4181 123.979 86.8999 125.72 C 86.3818 127.46 85.5558 129.134 84.4554 130.638 C 83.3551 132.142 81.9806 133.475 80.4 134.549 C 78.8194 135.623 77.0334 136.438 75.1381 136.932 C 73.2428 137.425 71.239 137.598 69.2405 137.423 C 67.242 137.248 65.2499 136.726 63.3825 135.871 C 61.5152 135.017 59.7735 133.83 58.2667 132.366 C 56.7598 130.901 55.4885 129.16 54.5387 127.233 C 53.5888 125.305 52.961 123.193 52.7065 121.011 C 52.452 118.83 52.5711 116.581 53.0729 114.394 C 53.5747 112.207 54.4593 110.083 55.6902 108.15" fill="none" stroke="#ff6b35" stroke-width="1.55" stroke-linecap="round" stroke-linejoin="round" fill-opacity="0.61" stroke-opacity="0.61" />
  <path d="M 120 120 C 120.14 120 120.28 120.06 120.384 120.171 C 120.488 120.281 120.556 120.442 120.562 120.624 C 120.569 120.807 120.513 121.011 120.389 121.198 C 120.265 121.386 120.072 121.556 119.824 121.671 C 119.576 121.786 119.274 121.844 118.95 121.819 C 118.626 121.793 118.281 121.684 117.961 121.481 C 117.641 121.279 117.347 120.984 117.124 120.611 C 116.902 120.239 116.753 119.789 116.713 119.301 C 116.674 118.813 116.745 118.287 116.942 117.778 C 117.139 117.269 117.462 116.777 117.9 116.363 C 118.338 115.948 118.89 115.612 119.517 115.405 C 120.144 115.199 120.845 115.122 121.557 115.207 C 122.27 115.291 122.993 115.536 123.653 115.942 C 124.314 116.349 124.91 116.915 125.372 117.608 C 125.833 118.301 126.16 119.12 126.3 120 C 126.44 120.88 126.393 121.819 126.139 122.733 C 125.885 123.647 125.425 124.535 124.778 125.306 C 124.13 126.077 123.297 126.731 122.336 127.19 C 121.376 127.649 120.289 127.914 119.166 127.936 C 118.043 127.959 116.886 127.74 115.8 127.275 C 114.714 126.809 113.702 126.098 112.864 125.184 C 112.027 124.27 111.367 123.154 110.962 121.921 C 110.557 120.688 110.408 119.34 110.551 117.992 C 110.695 116.643 111.131 115.296 111.845 114.075 C 112.559 112.854 113.55 111.761 114.75 110.907 C 115.95 110.052 117.357 109.438 118.859 109.14 C 120.36 108.841 121.955 108.859 123.504 109.215 C 125.053 109.571 126.555 110.266 127.869 111.261 C 129.183 112.255 130.307 113.549 131.127 115.046 C 131.947 116.543 132.46 118.241 132.6 120 C 132.74 121.759 132.506 123.578 131.894 125.296 C 131.283 127.013 130.294 128.628 128.993 129.988 C 127.692 131.348 126.08 132.45 124.283 133.182 C 122.486 133.913 120.505 134.271 118.507 134.202 C 116.51 134.133 114.498 133.636 112.65 132.731 C 110.802 131.826 109.122 130.513 107.768 128.887 C 106.413 127.262 105.388 125.324 104.8 123.231 C 104.212 121.138 104.062 118.891 104.389 116.682 C 104.715 114.473 105.517 112.305 106.748 110.372 C 107.979 108.44 109.639 106.745 111.6 105.451 C 113.561 104.157 115.823 103.265 118.2 102.874 C 120.577 102.484 123.065 102.595 125.451 103.223 C 127.837 103.851 130.117 104.996 132.084 106.579 C 134.052 108.162 135.705 110.183 136.882 112.484 C 138.06 114.784 138.76 117.361 138.9 120 C 139.04 122.639 138.619 125.337 137.65 127.858 C 136.68 130.379 135.163 132.721 133.209 134.67 C 131.254 136.618 128.864 138.17 126.23 139.173" fill="none" stroke="#ff6b35" stroke-width="1.55" stroke-linecap="round" stroke-linejoin="round" fill-opacity="0.67" stroke-opacity="0.67" />
  <path d="M 168 120 C 168.14 120 168.279 120.072 168.369 120.2 C 168.459 120.328 168.498 120.511 168.457 120.704 C 168.417 120.898 168.296 121.1 168.099 121.256 C 167.902 121.412 167.628 121.52 167.317 121.535 C 167.005 121.549 166.657 121.469 166.334 121.278 C 166.011 121.087 165.715 120.785 165.511 120.394 C 165.307 120.003 165.198 119.525 165.229 119.019 C 165.259 118.512 165.431 117.98 165.752 117.503 C 166.072 117.026 166.541 116.607 167.118 116.324 C 167.694 116.042 168.378 115.898 169.087 115.943 C 169.796 115.988 170.528 116.223 171.18 116.649 C 171.832 117.075 172.402 117.691 172.793 118.443 C 173.185 119.194 173.396 120.079 173.369 120.995 C 173.341 121.911 173.074 122.855 172.57 123.7 C 172.065 124.546 171.322 125.291 170.411 125.82 C 169.499 126.35 168.42 126.66 167.298 126.683 C 166.175 126.706 165.011 126.439 163.956 125.884 C 162.901 125.329 161.958 124.485 161.264 123.432 C 160.57 122.379 160.128 121.117 160.023 119.791 C 159.917 118.465 160.15 117.076 160.725 115.8 C 161.301 114.524 162.218 113.363 163.392 112.48 C 164.565 111.596 165.994 110.993 167.516 110.773 C 169.039 110.553 170.653 110.718 172.159 111.281 C 173.665 111.844 175.059 112.805 176.155 114.075 C 177.251 115.345 178.044 116.922 178.41 118.629 C 178.776 120.337 178.713 122.173 178.195 123.913 C 177.677 125.654 176.704 127.295 175.365 128.623 C 174.026 129.951 172.323 130.961 170.445 131.503 C 168.567 132.045 166.517 132.118 164.541 131.678 C 162.565 131.239 160.667 130.288 159.09 128.91 C 157.514 127.531 156.264 125.728 155.516 123.698 C 154.769 121.668 154.527 119.415 154.854 117.206 C 155.18 114.997 156.075 112.837 157.461 110.999 C 158.847 109.16 160.722 107.648 162.883 106.668 C 165.043 105.689 167.484 105.246 169.919 105.426 C 172.354 105.605 174.777 106.407 176.887 107.768 C 178.998 109.128 180.791 111.045 182.026 113.31 C 183.262 115.575 183.937 118.185 183.938 120.835 C 183.939 123.485 183.266 126.17 181.966 128.559 C 180.667 130.947 178.742 133.035 176.4 134.549 C 174.058 136.063 171.301 136.999 168.451 137.214 C 165.6 137.429 162.661 136.92 159.992 135.717 C 157.322 134.514 154.928 132.618 153.116 130.229 C 151.305 127.841 150.081 124.964 149.621 121.932 C 149.162 118.899 149.469 115.716 150.539 112.767 C 151.609 109.819 153.44 107.11 155.842 104.986 C 158.243 102.861 161.21 101.325 164.403 100.591 C 167.595 99.8564 171.007 99.9273 174.23 100.827" fill="none" stroke="#ff6b35" stroke-width="1.55" stroke-linecap="round" stroke-linejoin="round" fill-opacity="0.73" stroke-opacity="0.73" />
  <path d="M 216 120 C 216.14 120 216.279 120.085 216.352 120.229 C 216.426 120.373 216.432 120.574 216.342 120.767 C 216.251 120.961 216.064 121.144 215.803 121.244 C 215.542 121.345 215.209 121.36 214.876 121.248 C 214.542 121.137 214.211 120.897 213.972 120.544 C 213.732 120.19 213.587 119.725 213.603 119.221 C 213.62 118.718 213.799 118.179 214.15 117.715 C 214.5 117.251 215.022 116.865 215.649 116.658 C 216.276 116.452 217.006 116.427 217.716 116.632 C 218.426 116.837 219.113 117.272 219.637 117.9 C 220.162 118.528 220.52 119.349 220.614 120.242 C 220.707 121.135 220.533 122.097 220.077 122.962 C 219.622 123.828 218.885 124.591 217.957 125.097 C 217.028 125.604 215.911 125.849 214.777 125.752 C 213.644 125.654 212.499 125.211 211.545 124.455 C 210.591 123.699 209.832 122.63 209.427 121.397 C 209.022 120.164 208.974 118.771 209.334 117.441 C 209.695 116.111 210.464 114.85 211.556 113.884 C 212.648 112.917 214.06 112.251 215.582 112.031 C 217.105 111.811 218.733 112.04 220.2 112.725 C 221.667 113.41 222.965 114.551 223.859 115.996 C 224.752 117.441 225.236 119.187 225.189 120.966 C 225.143 122.745 224.566 124.55 223.507 126.079 C 222.449 127.609 220.912 128.855 219.115 129.587 C 217.318 130.318 215.266 130.529 213.282 130.142 C 211.299 129.756 209.392 128.771 207.885 127.307 C 206.378 125.843 205.278 123.902 204.8 121.774 C 204.321 119.646 204.466 117.336 205.257 115.217 C 206.047 113.097 207.481 111.176 209.366 109.785 C 211.251 108.394 213.581 107.54 216 107.4 C 218.419 107.26 220.919 107.837 223.091 109.081 C 225.264 110.325 227.101 112.233 228.278 114.533 C 229.455 116.834 229.967 119.518 229.689 122.168 C 229.411 124.818 228.343 127.424 226.612 129.555 C 224.882 131.686 222.494 133.333 219.805 134.199 C 217.115 135.065 214.132 135.144 211.328 134.38 C 208.524 133.616 205.91 132.01 203.923 129.78 C 201.937 127.549 200.587 124.701 200.127 121.668 C 199.668 118.636 200.102 115.429 201.405 112.564 C 202.708 109.698 204.877 107.185 207.6 105.451 C 210.323 103.717 213.592 102.77 216.901 102.804 C 220.21 102.837 223.546 103.852 226.369 105.729 C 229.191 107.606 231.487 110.341 232.86 113.528 C 234.234 116.715 234.677 120.343 234.076 123.842 C 233.475 127.342 231.831 130.7 229.364 133.364 C 226.898 136.029 223.616 137.99 220.017 138.898 C 216.418 139.806 212.514 139.656 208.926 138.429 C 205.338 137.201 202.079 134.898 199.69 131.85" fill="none" stroke="#ff6b35" stroke-width="1.55" stroke-linecap="round" stroke-linejoin="round" fill-opacity="0.79" stroke-opacity="0.79" />
  <path d="M 264 120 C 264.14 120 264.278 120.098 264.333 120.256 C 264.388 120.414 264.358 120.629 264.217 120.811 C 264.077 120.994 263.825 121.14 263.518 121.164 C 263.21 121.188 262.85 121.087 262.545 120.84 C 262.241 120.593 261.997 120.198 261.918 119.726 C 261.839 119.253 261.928 118.706 262.218 118.218 C 262.508 117.73 262.999 117.308 263.616 117.085 C 264.234 116.863 264.975 116.845 265.68 117.09 C 266.385 117.335 267.047 117.845 267.492 118.553 C 267.937 119.262 268.159 120.166 268.057 121.087 C 267.955 122.008 267.527 122.941 266.812 123.665 C 266.098 124.39 265.1 124.9 264 125.04 C 262.9 125.18 261.706 124.946 260.676 124.332 C 259.646 123.718 258.788 122.725 258.32 121.522 C 257.853 120.319 257.783 118.912 258.18 117.589 C 258.576 116.266 259.44 115.035 260.64 114.18 C 261.84 113.326 263.369 112.857 264.932 112.921 C 266.495 112.986 268.08 113.587 269.346 114.654 C 270.611 115.722 271.546 117.251 271.912 118.958 C 272.278 120.666 272.07 122.543 271.275 124.2 C 270.48 125.857 269.099 127.283 267.375 128.149 C 265.651 129.014 263.592 129.312 261.609 128.925 C 259.625 128.539 257.73 127.467 256.336 125.881 C 254.942 124.294 254.06 122.199 253.92 120 C 253.78 117.801 254.386 115.511 255.67 113.608 C 256.953 111.705 258.909 110.204 261.174 109.452 C 263.439 108.7 266 108.706 268.34 109.523 C 270.679 110.341 272.78 111.968 274.184 114.12 C 275.589 116.272 276.284 118.937 276.076 121.59 C 275.868 124.243 274.754 126.867 272.91 128.91 C 271.065 130.952 268.497 132.399 265.699 132.909 C 262.902 133.418 259.889 132.984 257.28 131.639 C 254.671 130.295 252.482 128.044 251.195 125.304 C 249.909 122.564 249.535 119.35 250.207 116.304 C 250.878 113.259 252.592 110.401 255.051 108.338 C 257.51 106.274 260.701 105.02 264 104.88 C 267.299 104.74 270.685 105.718 273.46 107.671 C 276.235 109.624 278.38 112.542 279.416 115.869 C 280.453 119.196 280.371 122.913 279.133 126.268 C 277.895 129.623 275.504 132.595 272.4 134.549 C 269.296 136.503 265.495 137.424 261.752 137.073 C 258.009 136.721 254.347 135.096 251.527 132.473 C 248.706 129.851 246.748 126.245 246.095 122.357 C 245.441 118.469 246.101 114.322 247.996 110.76 C 249.89 107.198 253.011 104.246 256.767 102.539 C 260.523 100.831 264.893 100.383 269 101.338 C 273.108 102.294 276.928 104.652 279.661 107.983 C 282.394 111.314 284.019 115.602 284.16 120" fill="none" stroke="#ff6b35" stroke-width="1.55" stroke-linecap="round" stroke-linejoin="round" fill-opacity="0.85" stroke-opacity="0.85" />
  <path d="M 24 168 C 24.14 168 24.2799 168.037 24.4057 168.109 C 24.5314 168.18 24.6429 168.287 24.7275 168.42 C 24.8121 168.553 24.8697 168.714 24.891 168.891 C 24.9122 169.068 24.897 169.26 24.84 169.455 C 24.783 169.649 24.6843 169.846 24.5435 170.028 C 24.4027 170.211 24.2199 170.38 24 170.52 C 23.7801 170.66 23.5231 170.771 23.2391 170.84 C 22.955 170.909 22.6439 170.935 22.32 170.91 C 21.9961 170.884 21.6594 170.807 21.3271 170.673 C 20.9949 170.539 20.6672 170.347 20.3627 170.1 C 20.0582 169.853 19.777 169.549 19.5374 169.196 C 19.2978 168.843 19.1 168.44 18.96 168 C 18.82 167.56 18.738 167.083 18.726 166.587 C 18.7141 166.09 18.7725 165.574 18.9078 165.06 C 19.0431 164.546 19.2555 164.033 19.5452 163.545 C 19.835 163.057 20.2021 162.595 20.64 162.18 C 21.0779 161.766 21.5864 161.4 22.152 161.103 C 22.7176 160.807 23.3403 160.58 24 160.44 C 24.6597 160.3 25.3565 160.247 26.0654 160.292 C 26.7743 160.337 27.4952 160.48 28.2 160.725 C 28.9048 160.971 29.5934 161.318 30.2367 161.763 C 30.8799 162.209 31.4777 162.752 32.0021 163.38 C 32.5265 164.008 32.9774 164.722 33.3308 165.5 C 33.6843 166.278 33.94 167.12 34.08 168 C 34.22 168.88 34.2441 169.796 34.1422 170.718 C 34.0403 171.639 33.8122 172.565 33.457 173.46 C 33.1018 174.355 32.6194 175.22 32.0186 176.019 C 31.4178 176.817 30.6988 177.55 29.88 178.184 C 29.0612 178.819 28.1429 179.355 27.1524 179.765 C 26.162 180.175 25.0996 180.46 24 180.6 C 22.9004 180.74 21.7639 180.735 20.6302 180.576 C 19.4964 180.418 18.3657 180.105 17.28 179.639 C 16.1943 179.174 15.1537 178.557 14.1995 177.8 C 13.2453 177.044 12.3775 176.149 11.6332 175.14 C 10.8888 174.131 10.2681 173.008 9.80089 171.805 C 9.33364 170.602 9.02 169.319 8.88 168 C 8.74 166.681 8.77375 165.324 8.98951 163.978 C 9.20527 162.632 9.60309 161.296 10.1782 160.02 C 10.7534 158.744 11.5058 157.527 12.4176 156.418 C 13.3294 155.308 14.4003 154.305 15.6 153.451 C 16.7997 152.596 18.1278 151.891 19.5431 151.367 C 20.9584 150.843 22.4606 150.5 24 150.36 C 25.5394 150.22 27.1157 150.283 28.6743 150.555 C 30.2328 150.828 31.7734 151.311 33.24 151.996 C 34.7066 152.681 36.0991 153.568 37.3643 154.636 C 38.6296 155.703 39.7674 156.95 40.7316 158.34 C 41.6958 159.73 42.4863 161.263 43.0674 162.891 C 43.6485 164.519 44.0199 166.241 44.16 168" fill="none" stroke="#ff6b35" stroke-width="1.925" stroke-linecap="round" stroke-linejoin="round" fill-opacity="0.625" stroke-opacity="0.625" />
  <path d="M 72 168 C 72.14 168 72.2798 168.049 72.3959 168.14 C 72.512 168.232 72.604 168.366 72.6528 168.529 C 72.7016 168.691 72.7071 168.88 72.6583 169.074 C 72.6096 169.268 72.5066 169.467 72.3493 169.643 C 72.192 169.82 71.9804 169.974 71.7259 170.082 C 71.4714 170.19 71.1742 170.25 70.8559 170.245 C 70.5377 170.24 70.1985 170.169 69.8674 170.024 C 69.5363 169.878 69.2134 169.658 68.9305 169.367 C 68.6476 169.075 68.4049 168.713 68.2317 168.297 C 68.0584 167.88 67.955 167.409 67.9431 166.913 C 67.9312 166.416 68.011 165.894 68.1925 165.383 C 68.374 164.872 68.6573 164.372 69.0376 163.923 C 69.4178 163.473 69.8951 163.075 70.4493 162.765 C 71.0034 162.455 71.6343 162.233 72.3077 162.128 C 72.9812 162.023 73.697 162.035 74.4109 162.18 C 75.1248 162.324 75.8363 162.6 76.4966 163.006 C 77.1568 163.412 77.7652 163.948 78.2748 164.593 C 78.7843 165.238 79.1945 165.992 79.4669 166.817 C 79.7394 167.643 79.8737 168.539 79.8464 169.454 C 79.8191 170.37 79.6298 171.305 79.2746 172.2 C 78.9194 173.095 78.3981 173.95 77.7281 174.707 C 77.0582 175.463 76.2398 176.12 75.3113 176.626 C 74.3829 177.133 73.3447 177.488 72.2529 177.657 C 71.161 177.825 70.0159 177.807 68.8851 177.587 C 67.7543 177.366 66.6383 176.944 65.608 176.33 C 64.5777 175.716 63.6338 174.91 62.8417 173.947 C 62.0496 172.985 61.4098 171.866 60.9733 170.647 C 60.5369 169.429 60.3042 168.112 60.3044 166.771 C 60.3046 165.429 60.538 164.064 61.0065 162.756 C 61.475 161.449 62.1787 160.2 63.0905 159.09 C 64.0022 157.981 65.1218 157.011 66.3947 156.248 C 67.6677 155.486 69.0934 154.932 70.5951 154.634 C 72.0969 154.335 73.6739 154.292 75.2356 154.523 C 76.7972 154.754 78.3425 155.259 79.7774 156.024 C 81.2124 156.789 82.536 157.813 83.6623 159.051 C 84.7886 160.289 85.7168 161.74 86.38 163.328 C 87.0432 164.916 87.4409 166.641 87.5347 168.407 C 87.6285 170.173 87.4181 171.979 86.8999 173.72 C 86.3818 175.46 85.5558 177.134 84.4554 178.638 C 83.3551 180.142 81.9806 181.475 80.4 182.549 C 78.8194 183.623 77.0334 184.438 75.1381 184.932 C 73.2428 185.425 71.239 185.598 69.2405 185.423 C 67.242 185.248 65.2499 184.726 63.3825 183.871 C 61.5152 183.017 59.7735 181.83 58.2667 180.366 C 56.7598 178.901 55.4885 177.16 54.5387 175.233 C 53.5888 173.305 52.961 171.193 52.7065 169.011 C 52.452 166.83 52.5711 164.581 53.0729 162.394 C 53.5747 160.207 54.4593 158.083 55.6902 156.15" fill="none" stroke="#ff6b35" stroke-width="1.925" stroke-linecap="round" stroke-linejoin="round" fill-opacity="0.685" stroke-opacity="0.685" />
  <path d="M 120 168 C 120.14 168 120.28 168.06 120.384 168.171 C 120.488 168.281 120.556 168.442 120.562 168.624 C 120.569 168.807 120.513 169.011 120.389 169.198 C 120.265 169.386 120.072 169.556 119.824 169.671 C 119.576 169.786 119.274 169.844 118.95 169.819 C 118.626 169.793 118.281 169.684 117.961 169.481 C 117.641 169.279 117.347 168.984 117.124 168.611 C 116.902 168.239 116.753 167.789 116.713 167.301 C 116.674 166.813 116.745 166.287 116.942 165.778 C 117.139 165.269 117.462 164.777 117.9 164.363 C 118.338 163.948 118.89 163.612 119.517 163.405 C 120.144 163.199 120.845 163.122 121.557 163.207 C 122.27 163.291 122.993 163.536 123.653 163.942 C 124.314 164.349 124.91 164.915 125.372 165.608 C 125.833 166.301 126.16 167.12 126.3 168 C 126.44 168.88 126.393 169.819 126.139 170.733 C 125.885 171.647 125.425 172.535 124.778 173.306 C 124.13 174.077 123.297 174.731 122.336 175.19 C 121.376 175.649 120.289 175.914 119.166 175.936 C 118.043 175.959 116.886 175.74 115.8 175.275 C 114.714 174.809 113.702 174.098 112.864 173.184 C 112.027 172.27 111.367 171.154 110.962 169.921 C 110.557 168.688 110.408 167.34 110.551 165.992 C 110.695 164.643 111.131 163.296 111.845 162.075 C 112.559 160.854 113.55 159.761 114.75 158.907 C 115.95 158.052 117.357 157.438 118.859 157.14 C 120.36 156.841 121.955 156.859 123.504 157.215 C 125.053 157.571 126.555 158.266 127.869 159.261 C 129.183 160.255 130.307 161.549 131.127 163.046 C 131.947 164.543 132.46 166.241 132.6 168 C 132.74 169.759 132.506 171.578 131.894 173.296 C 131.283 175.013 130.294 176.628 128.993 177.988 C 127.692 179.348 126.08 180.45 124.283 181.182 C 122.486 181.913 120.505 182.271 118.507 182.202 C 116.51 182.133 114.498 181.636 112.65 180.731 C 110.802 179.826 109.122 178.513 107.768 176.887 C 106.413 175.262 105.388 173.324 104.8 171.231 C 104.212 169.138 104.062 166.891 104.389 164.682 C 104.715 162.473 105.517 160.305 106.748 158.372 C 107.979 156.44 109.639 154.745 111.6 153.451 C 113.561 152.157 115.823 151.265 118.2 150.874 C 120.577 150.484 123.065 150.595 125.451 151.223 C 127.837 151.851 130.117 152.996 132.084 154.579 C 134.052 156.162 135.705 158.183 136.882 160.484 C 138.06 162.784 138.76 165.361 138.9 168 C 139.04 170.639 138.619 173.337 137.65 175.858 C 136.68 178.379 135.163 180.721 133.209 182.67 C 131.254 184.618 128.864 186.17 126.23 187.173" fill="none" stroke="#ff6b35" stroke-width="1.925" stroke-linecap="round" stroke-linejoin="round" fill-opacity="0.745" stroke-opacity="0.745" />
  <path d="M 168 168 C 168.14 168 168.279 168.072 168.369 168.2 C 168.459 168.328 168.498 168.511 168.457 168.704 C 168.417 168.898 168.296 169.1 168.099 169.256 C 167.902 169.412 167.628 169.52 167.317 169.535 C 167.005 169.549 166.657 169.469 166.334 169.278 C 166.011 169.087 165.715 168.785 165.511 168.394 C 165.307 168.003 165.198 167.525 165.229 167.019 C 165.259 166.512 165.431 165.98 165.752 165.503 C 166.072 165.026 166.541 164.607 167.118 164.324 C 167.694 164.042 168.378 163.898 169.087 163.943 C 169.796 163.988 170.528 164.223 171.18 164.649 C 171.832 165.075 172.402 165.691 172.793 166.443 C 173.185 167.194 173.396 168.079 173.369 168.995 C 173.341 169.911 173.074 170.855 172.57 171.7 C 172.065 172.546 171.322 173.291 170.411 173.82 C 169.499 174.35 168.42 174.66 167.298 174.683 C 166.175 174.706 165.011 174.439 163.956 173.884 C 162.901 173.329 161.958 172.485 161.264 171.432 C 160.57 170.379 160.128 169.117 160.023 167.791 C 159.917 166.465 160.15 165.076 160.725 163.8 C 161.301 162.524 162.218 161.363 163.392 160.48 C 164.565 159.596 165.994 158.993 167.516 158.773 C 169.039 158.553 170.653 158.718 172.159 159.281 C 173.665 159.844 175.059 160.805 176.155 162.075 C 177.251 163.345 178.044 164.922 178.41 166.629 C 178.776 168.337 178.713 170.173 178.195 171.913 C 177.677 173.654 176.704 175.295 175.365 176.623 C 174.026 177.951 172.323 178.961 170.445 179.503 C 168.567 180.045 166.517 180.118 164.541 179.678 C 162.565 179.239 160.667 178.288 159.09 176.91 C 157.514 175.531 156.264 173.728 155.516 171.698 C 154.769 169.668 154.527 167.415 154.854 165.206 C 155.18 162.997 156.075 160.837 157.461 158.999 C 158.847 157.16 160.722 155.648 162.883 154.668 C 165.043 153.689 167.484 153.246 169.919 153.426 C 172.354 153.605 174.777 154.407 176.887 155.768 C 178.998 157.128 180.791 159.045 182.026 161.31 C 183.262 163.575 183.937 166.185 183.938 168.835 C 183.939 171.485 183.266 174.17 181.966 176.559 C 180.667 178.947 178.742 181.035 176.4 182.549 C 174.058 184.063 171.301 184.999 168.451 185.214 C 165.6 185.429 162.661 184.92 159.992 183.717 C 157.322 182.514 154.928 180.618 153.116 178.229 C 151.305 175.841 150.081 172.964 149.621 169.932 C 149.162 166.899 149.469 163.716 150.539 160.767 C 151.609 157.819 153.44 155.11 155.842 152.986 C 158.243 150.861 161.21 149.325 164.403 148.591 C 167.595 147.856 171.007 147.927 174.23 148.827" fill="none" stroke="#ff6b35" stroke-width="1.925" stroke-linecap="round" stroke-linejoin="round" fill-opacity="0.805" stroke-opacity="0.805" />
  <path d="M 216 168 C 216.14 168 216.279 168.085 216.352 168.229 C 216.426 168.373 216.432 168.574 216.342 168.767 C 216.251 168.961 216.064 169.144 215.803 169.244 C 215.542 169.345 215.209 169.36 214.876 169.248 C 214.542 169.137 214.211 168.897 213.972 168.544 C 213.732 168.19 213.587 167.725 213.603 167.221 C 213.62 166.718 213.799 166.179 214.15 165.715 C 214.5 165.251 215.022 164.865 215.649 164.658 C 216.276 164.452 217.006 164.427 217.716 164.632 C 218.426 164.837 219.113 165.272 219.637 165.9 C 220.162 166.528 220.52 167.349 220.614 168.242 C 220.707 169.135 220.533 170.097 220.077 170.962 C 219.622 171.828 218.885 172.591 217.957 173.097 C 217.028 173.604 215.911 173.849 214.777 173.752 C 213.644 173.654 212.499 173.211 211.545 172.455 C 210.591 171.699 209.832 170.63 209.427 169.397 C 209.022 168.164 208.974 166.771 209.334 165.441 C 209.695 164.111 210.464 162.85 211.556 161.884 C 212.648 160.917 214.06 160.251 215.582 160.031 C 217.105 159.811 218.733 160.04 220.2 160.725 C 221.667 161.41 222.965 162.551 223.859 163.996 C 224.752 165.441 225.236 167.187 225.189 168.966 C 225.143 170.745 224.566 172.55 223.507 174.079 C 222.449 175.609 220.912 176.855 219.115 177.587 C 217.318 178.318 215.266 178.529 213.282 178.142 C 211.299 177.756 209.392 176.771 207.885 175.307 C 206.378 173.843 205.278 171.902 204.8 169.774 C 204.321 167.646 204.466 165.336 205.257 163.217 C 206.047 161.097 207.481 159.176 209.366 157.785 C 211.251 156.394 213.581 155.54 216 155.4 C 218.419 155.26 220.919 155.837 223.091 157.081 C 225.264 158.325 227.101 160.233 228.278 162.533 C 229.455 164.834 229.967 167.518 229.689 170.168 C 229.411 172.818 228.343 175.424 226.612 177.555 C 224.882 179.686 222.494 181.333 219.805 182.199 C 217.115 183.065 214.132 183.144 211.328 182.38 C 208.524 181.616 205.91 180.01 203.923 177.78 C 201.937 175.549 200.587 172.701 200.127 169.668 C 199.668 166.636 200.102 163.429 201.405 160.564 C 202.708 157.698 204.877 155.185 207.6 153.451 C 210.323 151.717 213.592 150.77 216.901 150.804 C 220.21 150.837 223.546 151.852 226.369 153.729 C 229.191 155.606 231.487 158.341 232.86 161.528 C 234.234 164.715 234.677 168.343 234.076 171.842 C 233.475 175.342 231.831 178.7 229.364 181.364 C 226.898 184.029 223.616 185.99 220.017 186.898 C 216.418 187.806 212.514 187.656 208.926 186.429 C 205.338 185.201 202.079 182.898 199.69 179.85" fill="none" stroke="#ff6b35" stroke-width="1.925" stroke-linecap="round" stroke-linejoin="round" fill-opacity="0.865" stroke-opacity="0.865" />
  <path d="M 264 168 C 264.14 168 264.278 168.098 264.333 168.256 C 264.388 168.414 264.358 168.629 264.217 168.811 C 264.077 168.994 263.825 169.14 263.518 169.164 C 263.21 169.188 262.85 169.087 262.545 168.84 C 262.241 168.593 261.997 168.198 261.918 167.726 C 261.839 167.253 261.928 166.706 262.218 166.218 C 262.508 165.73 262.999 165.308 263.616 165.085 C 264.234 164.863 264.975 164.845 265.68 165.09 C 266.385 165.335 267.047 165.845 267.492 166.553 C 267.937 167.262 268.159 168.166 268.057 169.087 C 267.955 170.008 267.527 170.941 266.812 171.665 C 266.098 172.39 265.1 172.9 264 173.04 C 262.9 173.18 261.706 172.946 260.676 172.332 C 259.646 171.718 258.788 170.725 258.32 169.522 C 257.853 168.319 257.783 166.912 258.18 165.589 C 258.576 164.266 259.44 163.035 260.64 162.18 C 261.84 161.326 263.369 160.857 264.932 160.921 C 266.495 160.986 268.08 161.587 269.346 162.654 C 270.611 163.722 271.546 165.251 271.912 166.958 C 272.278 168.666 272.07 170.543 271.275 172.2 C 270.48 173.857 269.099 175.283 267.375 176.149 C 265.651 177.014 263.592 177.312 261.609 176.925 C 259.625 176.539 257.73 175.467 256.336 173.881 C 254.942 172.294 254.06 170.199 253.92 168 C 253.78 165.801 254.386 163.511 255.67 161.608 C 256.953 159.705 258.909 158.204 261.174 157.452 C 263.439 156.7 266 156.706 268.34 157.523 C 270.679 158.341 272.78 159.968 274.184 162.12 C 275.589 164.272 276.284 166.937 276.076 169.59 C 275.868 172.243 274.754 174.867 272.91 176.91 C 271.065 178.952 268.497 180.399 265.699 180.909 C 262.902 181.418 259.889 180.984 257.28 179.639 C 254.671 178.295 252.482 176.044 251.195 173.304 C 249.909 170.564 249.535 167.35 250.207 164.304 C 250.878 161.259 252.592 158.401 255.051 156.338 C 257.51 154.274 260.701 153.02 264 152.88 C 267.299 152.74 270.685 153.718 273.46 155.671 C 276.235 157.624 278.38 160.542 279.416 163.869 C 280.453 167.196 280.371 170.913 279.133 174.268 C 277.895 177.623 275.504 180.595 272.4 182.549 C 269.296 184.503 265.495 185.424 261.752 185.073 C 258.009 184.721 254.347 183.096 251.527 180.473 C 248.706 177.851 246.748 174.245 246.095 170.357 C 245.441 166.469 246.101 162.322 247.996 158.76 C 249.89 155.198 253.011 152.246 256.767 150.539 C 260.523 148.831 264.893 148.383 269 149.338 C 273.108 150.294 276.928 152.652 279.661 155.983 C 282.394 159.314 284.019 163.602 284.16 168" fill="none" stroke="#ff6b35" stroke-width="1.925" stroke-linecap="round" stroke-linejoin="round" fill-opacity="0.925" stroke-opacity="0.925" />
  <path d="M 24 216 C 24.14 216 24.2799 216.037 24.4057 216.109 C 24.5314 216.18 24.6429 216.287 24.7275 216.42 C 24.8121 216.553 24.8697 216.714 24.891 216.891 C 24.9122 217.068 24.897 217.26 24.84 217.455 C 24.783 217.649 24.6843 217.846 24.5435 218.028 C 24.4027 218.211 24.2199 218.38 24 218.52 C 23.7801 218.66 23.5231 218.771 23.2391 218.84 C 22.955 218.909 22.6439 218.935 22.32 218.91 C 21.9961 218.884 21.6594 218.807 21.3271 218.673 C 20.9949 218.539 20.6672 218.347 20.3627 218.1 C 20.0582 217.853 19.777 217.549 19.5374 217.196 C 19.2978 216.843 19.1 216.44 18.96 216 C 18.82 215.56 18.738 215.083 18.726 214.587 C 18.7141 214.09 18.7725 213.574 18.9078 213.06 C 19.0431 212.546 19.2555 212.033 19.5452 211.545 C 19.835 211.057 20.2021 210.595 20.64 210.18 C 21.0779 209.766 21.5864 209.4 22.152 209.103 C 22.7176 208.807 23.3403 208.58 24 208.44 C 24.6597 208.3 25.3565 208.247 26.0654 208.292 C 26.7743 208.337 27.4952 208.48 28.2 208.725 C 28.9048 208.971 29.5934 209.318 30.2367 209.763 C 30.8799 210.209 31.4777 210.752 32.0021 211.38 C 32.5265 212.008 32.9774 212.722 33.3308 213.5 C 33.6843 214.278 33.94 215.12 34.08 216 C 34.22 216.88 34.2441 217.796 34.1422 218.718 C 34.0403 219.639 33.8122 220.565 33.457 221.46 C 33.1018 222.355 32.6194 223.22 32.0186 224.019 C 31.4178 224.817 30.6988 225.55 29.88 226.184 C 29.0612 226.819 28.1429 227.355 27.1524 227.765 C 26.162 228.175 25.0996 228.46 24 228.6 C 22.9004 228.74 21.7639 228.735 20.6302 228.576 C 19.4964 228.418 18.3657 228.105 17.28 227.639 C 16.1943 227.174 15.1537 226.557 14.1995 225.8 C 13.2453 225.044 12.3775 224.149 11.6332 223.14 C 10.8888 222.131 10.2681 221.008 9.80089 219.805 C 9.33364 218.602 9.02 217.319 8.88 216 C 8.74 214.681 8.77375 213.324 8.98951 211.978 C 9.20527 210.632 9.60309 209.296 10.1782 208.02 C 10.7534 206.744 11.5058 205.527 12.4176 204.418 C 13.3294 203.308 14.4003 202.305 15.6 201.451 C 16.7997 200.596 18.1278 199.891 19.5431 199.367 C 20.9584 198.843 22.4606 198.5 24 198.36 C 25.5394 198.22 27.1157 198.283 28.6743 198.555 C 30.2328 198.828 31.7734 199.311 33.24 199.996 C 34.7066 200.681 36.0991 201.568 37.3643 202.636 C 38.6296 203.703 39.7674 204.95 40.7316 206.34 C 41.6958 207.73 42.4863 209.263 43.0674 210.891 C 43.6485 212.519 44.0199 214.241 44.16 216" fill="none" stroke="#ff6b35" stroke-width="2.3" stroke-linecap="round" stroke-linejoin="round" fill-opacity="0.7" stroke-opacity="0.7" />
  <path d="M 72 216 C 72.14 216 72.2798 216.049 72.3959 216.14 C 72.512 216.232 72.604 216.366 72.6528 216.529 C 72.7016 216.691 72.7071 216.88 72.6583 217.074 C 72.6096 217.268 72.5066 217.467 72.3493 217.643 C 72.192 217.82 71.9804 217.974 71.7259 218.082 C 71.4714 218.19 71.1742 218.25 70.8559 218.245 C 70.5377 218.24 70.1985 218.169 69.8674 218.024 C 69.5363 217.878 69.2134 217.658 68.9305 217.367 C 68.6476 217.075 68.4049 216.713 68.2317 216.297 C 68.0584 215.88 67.955 215.409 67.9431 214.913 C 67.9312 214.416 68.011 213.894 68.1925 213.383 C 68.374 212.872 68.6573 212.372 69.0376 211.923 C 69.4178 211.473 69.8951 211.075 70.4493 210.765 C 71.0034 210.455 71.6343 210.233 72.3077 210.128 C 72.9812 210.023 73.697 210.035 74.4109 210.18 C 75.1248 210.324 75.8363 210.6 76.4966 211.006 C 77.1568 211.412 77.7652 211.948 78.2748 212.593 C 78.7843 213.238 79.1945 213.992 79.4669 214.817 C 79.7394 215.643 79.8737 216.539 79.8464 217.454 C 79.8191 218.37 79.6298 219.305 79.2746 220.2 C 78.9194 221.095 78.3981 221.95 77.7281 222.707 C 77.0582 223.463 76.2398 224.12 75.3113 224.626 C 74.3829 225.133 73.3447 225.488 72.2529 225.657 C 71.161 225.825 70.0159 225.807 68.8851 225.587 C 67.7543 225.366 66.6383 224.944 65.608 224.33 C 64.5777 223.716 63.6338 222.91 62.8417 221.947 C 62.0496 220.985 61.4098 219.866 60.9733 218.647 C 60.5369 217.429 60.3042 216.112 60.3044 214.771 C 60.3046 213.429 60.538 212.064 61.0065 210.756 C 61.475 209.449 62.1787 208.2 63.0905 207.09 C 64.0022 205.981 65.1218 205.011 66.3947 204.248 C 67.6677 203.486 69.0934 202.932 70.5951 202.634 C 72.0969 202.335 73.6739 202.292 75.2356 202.523 C 76.7972 202.754 78.3425 203.259 79.7774 204.024 C 81.2124 204.789 82.536 205.813 83.6623 207.051 C 84.7886 208.289 85.7168 209.74 86.38 211.328 C 87.0432 212.916 87.4409 214.641 87.5347 216.407 C 87.6285 218.173 87.4181 219.979 86.8999 221.72 C 86.3818 223.46 85.5558 225.134 84.4554 226.638 C 83.3551 228.142 81.9806 229.475 80.4 230.549 C 78.8194 231.623 77.0334 232.438 75.1381 232.932 C 73.2428 233.425 71.239 233.598 69.2405 233.423 C 67.242 233.248 65.2499 232.726 63.3825 231.871 C 61.5152 231.017 59.7735 229.83 58.2667 228.366 C 56.7598 226.901 55.4885 225.16 54.5387 223.233 C 53.5888 221.305 52.961 219.193 52.7065 217.011 C 52.452 214.83 52.5711 212.581 53.0729 210.394 C 53.5747 208.207 54.4593 206.083 55.6902 204.15" fill="none" stroke="#ff6b35" stroke-width="2.3" stroke-linecap="round" stroke-linejoin="round" fill-opacity="0.76" stroke-opacity="0.76" />
  <path d="M 120 216 C 120.14 216 120.28 216.06 120.384 216.171 C 120.488 216.281 120.556 216.442 120.562 216.624 C 120.569 216.807 120.513 217.011 120.389 217.198 C 120.265 217.386 120.072 217.556 119.824 217.671 C 119.576 217.786 119.274 217.844 118.95 217.819 C 118.626 217.793 118.281 217.684 117.961 217.481 C 117.641 217.279 117.347 216.984 117.124 216.611 C 116.902 216.239 116.753 215.789 116.713 215.301 C 116.674 214.813 116.745 214.287 116.942 213.778 C 117.139 213.269 117.462 212.777 117.9 212.363 C 118.338 211.948 118.89 211.612 119.517 211.405 C 120.144 211.199 120.845 211.122 121.557 211.207 C 122.27 211.291 122.993 211.536 123.653 211.942 C 124.314 212.349 124.91 212.915 125.372 213.608 C 125.833 214.301 126.16 215.12 126.3 216 C 126.44 216.88 126.393 217.819 126.139 218.733 C 125.885 219.647 125.425 220.535 124.778 221.306 C 124.13 222.077 123.297 222.731 122.336 223.19 C 121.376 223.649 120.289 223.914 119.166 223.936 C 118.043 223.959 116.886 223.74 115.8 223.275 C 114.714 222.809 113.702 222.098 112.864 221.184 C 112.027 220.27 111.367 219.154 110.962 217.921 C 110.557 216.688 110.408 215.34 110.551 213.992 C 110.695 212.643 111.131 211.296 111.845 210.075 C 112.559 208.854 113.55 207.761 114.75 206.907 C 115.95 206.052 117.357 205.438 118.859 205.14 C 120.36 204.841 121.955 204.859 123.504 205.215 C 125.053 205.571 126.555 206.266 127.869 207.261 C 129.183 208.255 130.307 209.549 131.127 211.046 C 131.947 212.543 132.46 214.241 132.6 216 C 132.74 217.759 132.506 219.578 131.894 221.296 C 131.283 223.013 130.294 224.628 128.993 225.988 C 127.692 227.348 126.08 228.45 124.283 229.182 C 122.486 229.913 120.505 230.271 118.507 230.202 C 116.51 230.133 114.498 229.636 112.65 228.731 C 110.802 227.826 109.122 226.513 107.768 224.887 C 106.413 223.262 105.388 221.324 104.8 219.231 C 104.212 217.138 104.062 214.891 104.389 212.682 C 104.715 210.473 105.517 208.305 106.748 206.372 C 107.979 204.44 109.639 202.745 111.6 201.451 C 113.561 200.157 115.823 199.265 118.2 198.874 C 120.577 198.484 123.065 198.595 125.451 199.223 C 127.837 199.851 130.117 200.996 132.084 202.579 C 134.052 204.162 135.705 206.183 136.882 208.484 C 138.06 210.784 138.76 213.361 138.9 216 C 139.04 218.639 138.619 221.337 137.65 223.858 C 136.68 226.379 135.163 228.721 133.209 230.67 C 131.254 232.618 128.864 234.17 126.23 235.173" fill="none" stroke="#ff6b35" stroke-width="2.3" stroke-linecap="round" stroke-linejoin="round" fill-opacity="0.82" stroke-opacity="0.82" />
  <path d="M 168 216 C 168.14 216 168.279 216.072 168.369 216.2 C 168.459 216.328 168.498 216.511 168.457 216.704 C 168.417 216.898 168.296 217.1 168.099 217.256 C 167.902 217.412 167.628 217.52 167.317 217.535 C 167.005 217.549 166.657 217.469 166.334 217.278 C 166.011 217.087 165.715 216.785 165.511 216.394 C 165.307 216.003 165.198 215.525 165.229 215.019 C 165.259 214.512 165.431 213.98 165.752 213.503 C 166.072 213.026 166.541 212.607 167.118 212.324 C 167.694 212.042 168.378 211.898 169.087 211.943 C 169.796 211.988 170.528 212.223 171.18 212.649 C 171.832 213.075 172.402 213.691 172.793 214.443 C 173.185 215.194 173.396 216.079 173.369 216.995 C 173.341 217.911 173.074 218.855 172.57 219.7 C 172.065 220.546 171.322 221.291 170.411 221.82 C 169.499 222.35 168.42 222.66 167.298 222.683 C 166.175 222.706 165.011 222.439 163.956 221.884 C 162.901 221.329 161.958 220.485 161.264 219.432 C 160.57 218.379 160.128 217.117 160.023 215.791 C 159.917 214.465 160.15 213.076 160.725 211.8 C 161.301 210.524 162.218 209.363 163.392 208.48 C 164.565 207.596 165.994 206.993 167.516 206.773 C 169.039 206.553 170.653 206.718 172.159 207.281 C 173.665 207.844 175.059 208.805 176.155 210.075 C 177.251 211.345 178.044 212.922 178.41 214.629 C 178.776 216.337 178.713 218.173 178.195 219.913 C 177.677 221.654 176.704 223.295 175.365 224.623 C 174.026 225.951 172.323 226.961 170.445 227.503 C 168.567 228.045 166.517 228.118 164.541 227.678 C 162.565 227.239 160.667 226.288 159.09 224.91 C 157.514 223.531 156.264 221.728 155.516 219.698 C 154.769 217.668 154.527 215.415 154.854 213.206 C 155.18 210.997 156.075 208.837 157.461 206.999 C 158.847 205.16 160.722 203.648 162.883 202.668 C 165.043 201.689 167.484 201.246 169.919 201.426 C 172.354 201.605 174.777 202.407 176.887 203.768 C 178.998 205.128 180.791 207.045 182.026 209.31 C 183.262 211.575 183.937 214.185 183.938 216.835 C 183.939 219.485 183.266 222.17 181.966 224.559 C 180.667 226.947 178.742 229.035 176.4 230.549 C 174.058 232.063 171.301 232.999 168.451 233.214 C 165.6 233.429 162.661 232.92 159.992 231.717 C 157.322 230.514 154.928 228.618 153.116 226.229 C 151.305 223.841 150.081 220.964 149.621 217.932 C 149.162 214.899 149.469 211.716 150.539 208.767 C 151.609 205.819 153.44 203.11 155.842 200.986 C 158.243 198.861 161.21 197.325 164.403 196.591 C 167.595 195.856 171.007 195.927 174.23 196.827" fill="none" stroke="#ff6b35" stroke-width="2.3" stroke-linecap="round" stroke-linejoin="round" fill-opacity="0.88" stroke-opacity="0.88" />
  <path d="M 216 216 C 216.14 216 216.279 216.085 216.352 216.229 C 216.426 216.373 216.432 216.574 216.342 216.767 C 216.251 216.961 216.064 217.144 215.803 217.244 C 215.542 217.345 215.209 217.36 214.876 217.248 C 214.542 217.137 214.211 216.897 213.972 216.544 C 213.732 216.19 213.587 215.725 213.603 215.221 C 213.62 214.718 213.799 214.179 214.15 213.715 C 214.5 213.251 215.022 212.865 215.649 212.658 C 216.276 212.452 217.006 212.427 217.716 212.632 C 218.426 212.837 219.113 213.272 219.637 213.9 C 220.162 214.528 220.52 215.349 220.614 216.242 C 220.707 217.135 220.533 218.097 220.077 218.962 C 219.622 219.828 218.885 220.591 217.957 221.097 C 217.028 221.604 215.911 221.849 214.777 221.752 C 213.644 221.654 212.499 221.211 211.545 220.455 C 210.591 219.699 209.832 218.63 209.427 217.397 C 209.022 216.164 208.974 214.771 209.334 213.441 C 209.695 212.111 210.464 210.85 211.556 209.884 C 212.648 208.917 214.06 208.251 215.582 208.031 C 217.105 207.811 218.733 208.04 220.2 208.725 C 221.667 209.41 222.965 210.551 223.859 211.996 C 224.752 213.441 225.236 215.187 225.189 216.966 C 225.143 218.745 224.566 220.55 223.507 222.079 C 222.449 223.609 220.912 224.855 219.115 225.587 C 217.318 226.318 215.266 226.529 213.282 226.142 C 211.299 225.756 209.392 224.771 207.885 223.307 C 206.378 221.843 205.278 219.902 204.8 217.774 C 204.321 215.646 204.466 213.336 205.257 211.217 C 206.047 209.097 207.481 207.176 209.366 205.785 C 211.251 204.394 213.581 203.54 216 203.4 C 218.419 203.26 220.919 203.837 223.091 205.081 C 225.264 206.325 227.101 208.233 228.278 210.533 C 229.455 212.834 229.967 215.518 229.689 218.168 C 229.411 220.818 228.343 223.424 226.612 225.555 C 224.882 227.686 222.494 229.333 219.805 230.199 C 217.115 231.065 214.132 231.144 211.328 230.38 C 208.524 229.616 205.91 228.01 203.923 225.78 C 201.937 223.549 200.587 220.701 200.127 217.668 C 199.668 214.636 200.102 211.429 201.405 208.564 C 202.708 205.698 204.877 203.185 207.6 201.451 C 210.323 199.717 213.592 198.77 216.901 198.804 C 220.21 198.837 223.546 199.852 226.369 201.729 C 229.191 203.606 231.487 206.341 232.86 209.528 C 234.234 212.715 234.677 216.343 234.076 219.842 C 233.475 223.342 231.831 226.7 229.364 229.364 C 226.898 232.029 223.616 233.99 220.017 234.898 C 216.418 235.806 212.514 235.656 208.926 234.429 C 205.338 233.201 202.079 230.898 199.69 227.85" fill="none" stroke="#ff6b35" stroke-width="2.3" stroke-linecap="round" stroke-linejoin="round" fill-opacity="0.94" stroke-opacity="0.94" />
  <path d="M 264 216 C 264.14 216 264.278 216.098 264.333 216.256 C 264.388 216.414 264.358 216.629 264.217 216.811 C 264.077 216.994 263.825 217.14 263.518 217.164 C 263.21 217.188 262.85 217.087 262.545 216.84 C 262.241 216.593 261.997 216.198 261.918 215.726 C 261.839 215.253 261.928 214.706 262.218 214.218 C 262.508 213.73 262.999 213.308 263.616 213.085 C 264.234 212.863 264.975 212.845 265.68 213.09 C 266.385 213.335 267.047 213.845 267.492 214.553 C 267.937 215.262 268.159 216.166 268.057 217.087 C 267.955 218.008 267.527 218.941 266.812 219.665 C 266.098 220.39 265.1 220.9 264 221.04 C 262.9 221.18 261.706 220.946 260.676 220.332 C 259.646 219.718 258.788 218.725 258.32 217.522 C 257.853 216.319 257.783 214.912 258.18 213.589 C 258.576 212.266 259.44 211.035 260.64 210.18 C 261.84 209.326 263.369 208.857 264.932 208.921 C 266.495 208.986 268.08 209.587 269.346 210.654 C 270.611 211.722 271.546 213.251 271.912 214.958 C 272.278 216.666 272.07 218.543 271.275 220.2 C 270.48 221.857 269.099 223.283 267.375 224.149 C 265.651 225.014 263.592 225.312 261.609 224.925 C 259.625 224.539 257.73 223.467 256.336 221.881 C 254.942 220.294 254.06 218.199 253.92 216 C 253.78 213.801 254.386 211.511 255.67 209.608 C 256.953 207.705 258.909 206.204 261.174 205.452 C 263.439 204.7 266 204.706 268.34 205.523 C 270.679 206.341 272.78 207.968 274.184 210.12 C 275.589 212.272 276.284 214.937 276.076 217.59 C 275.868 220.243 274.754 222.867 272.91 224.91 C 271.065 226.952 268.497 228.399 265.699 228.909 C 262.902 229.418 259.889 228.984 257.28 227.639 C 254.671 226.295 252.482 224.044 251.195 221.304 C 249.909 218.564 249.535 215.35 250.207 212.304 C 250.878 209.259 252.592 206.401 255.051 204.338 C 257.51 202.274 260.701 201.02 264 200.88 C 267.299 200.74 270.685 201.718 273.46 203.671 C 276.235 205.624 278.38 208.542 279.416 211.869 C 280.453 215.196 280.371 218.913 279.133 222.268 C 277.895 225.623 275.504 228.595 272.4 230.549 C 269.296 232.503 265.495 233.424 261.752 233.073 C 258.009 232.721 254.347 231.096 251.527 228.473 C 248.706 225.851 246.748 222.245 246.095 218.357 C 245.441 214.469 246.101 210.322 247.996 206.76 C 249.89 203.198 253.011 200.246 256.767 198.539 C 260.523 196.831 264.893 196.383 269 197.338 C 273.108 198.294 276.928 200.652 279.661 203.983 C 282.394 207.314 284.019 211.602 284.16 216" fill="none" stroke="#ff6b35" stroke-width="2.3" stroke-linecap="round" stroke-linejoin="round" />
</svg>