<?xml version="1.0" encoding="UTF-8"?>
<svg xmlns="http://www.w3.org/2000/svg" width="360" height="360" viewBox="0 0 360 360">
  <rect width="100%" height="100%" fill="#0d0d0d" />
  <path d="M 10.0 180.0 C 12.361111111110542 181.9536625807485 14.72222222222146 183.90718897327025 17.083333333333332 185.80138090205043 C 19.444444444445203 187.6955728308306 21.80555555555561 189.53016720043908 24.166666666666664 191.25 C 26.527777777777718 192.96983279956092 28.88888888888813 194.5746681441552 31.25 196.01713562373095 C 33.611111111111875 197.4596031033067 35.97222222222187 198.73951011864398 38.33333333333333 199.82050807568876 C 40.694444444444784 200.90150603273355 43.05555555555768 201.78345874323645 45.41666666666667 202.44351652578138 C 47.77777777777566 203.1035743083263 50.13888888888771 203.5416666666598 52.5 203.75 C 54.86111111111229 203.9583333333402 57.22222222222269 203.9369076416453 59.583333333333336 203.69351652578138 C 61.94444444444398 203.45012540991746 64.30555555555847 202.98483936604214 66.66666666666666 202.3205080756888 C 69.02777777777484 201.65617678533545 71.38888888889181 200.7929364366251 73.75 199.76713562373095 C 76.11111111110819 198.7413348108368 78.47222222222022 197.55316613287962 80.83333333333334 196.25 C 83.19444444444646 194.94683386712038 85.55555555555354 193.52890616414854 87.91666666666666 192.05138090205043 C 90.27777777777978 190.5738556399523 92.63888888889181 189.0369959140566 95.0 187.5 C 97.36111111110819 185.9630040859434 99.72222222222514 184.42614436004772 102.08333333333333 182.9486190979496 C 104.44444444444152 181.4710938358515 106.80555555555848 180.05316613287962 109.16666666666667 178.75 C 111.52777777777486 177.44683386712038 113.88888888889181 176.2586651891632 116.25 175.23286437626905 C 118.61111111110819 174.2070635633749 120.97222222222514 173.34382321467444 123.33333333333333 172.67949192431124 C 125.69444444444152 172.01516063394803 128.0555555555585 171.54987459008254 130.41666666666669 171.30648347421862 C 132.77777777777487 171.0630923583547 135.1388888888918 171.04166666665995 137.5 171.25 C 139.8611111111082 171.45833333334005 142.22222222221527 171.89642569167464 144.58333333333331 172.55648347421862 C 146.94444444445136 173.2165412567626 149.30555555554864 174.09849396726793 151.66666666666669 175.17949192431124 C 154.02777777778473 176.26048988135454 156.3888888888918 177.54039689668494 158.75 178.98286437626905 C 161.1111111111082 180.42533185585316 163.47222222221527 182.03016720044027 165.83333333333331 183.75 C 168.19444444445136 185.46983279955973 170.55555555554864 187.3044271691615 172.91666666666669 189.19861909794957 C 175.27777777778473 191.09281102673765 177.63888888889514 193.0463374192579 180.0 195.0 C 182.36111111110486 196.9536625807421 184.72222222222192 198.90718897326173 187.08333333333334 200.80138090205043 C 189.44444444444477 202.69557283083913 191.80555555555523 204.53016720045048 194.16666666666666 206.25 C 196.52777777777808 207.96983279954952 198.88888888889844 209.5746681441487 201.25 211.01713562373095 C 203.61111111110156 212.4596031033132 205.97222222222192 213.73951011865924 208.33333333333334 214.8205080756888 C 210.69444444444477 215.90150603271834 213.05555555555523 216.78345874324359 215.41666666666666 217.44351652578138 C 217.77777777777808 218.10357430831917 220.13888888889844 218.5416666666588 222.5 218.75 C 224.86111111110156 218.9583333333412 227.22222222222192 218.93690764165652 229.58333333333334 218.69351652578138 C 231.94444444444477 218.45012540990624 234.30555555555523 217.9848393660557 236.66666666666666 217.3205080756888 C 239.02777777777808 216.6561767853219 241.38888888889844 215.79293643662098 243.75 214.76713562373098 C 246.11111111110156 213.74133481084098 248.47222222222192 212.55316613288687 250.83333333333334 211.25 C 253.19444444444477 209.94683386711313 255.55555555556506 208.5289061641666 257.91666666666663 207.05138090205043 C 260.27777777776816 205.57385563993424 262.6388888889182 204.03699591406513 265.0 202.5 C 267.3611111110818 200.96300408593487 269.72222222223184 199.42614436005593 272.08333333333337 197.9486190979496 C 274.4444444444349 196.47109383584328 276.8055555555651 195.0531661328869 279.16666666666663 193.75000000000003 C 281.52777777776816 192.44683386711316 283.88888888887874 191.25866518915905 286.25 190.23286437626905 C 288.61111111112126 189.20706356337905 290.97222222223184 188.34382321467814 293.33333333333337 187.67949192431124 C 295.6944444444349 187.01516063394433 298.0555555555651 186.54987459009376 300.41666666666663 186.30648347421862 C 302.77777777776816 186.06309235834348 305.13888888887874 186.0416666666588 307.5 186.25 C 309.86111111112126 186.4583333333412 312.22222222223184 186.8964256916907 314.58333333333337 187.55648347421862 C 316.9444444444349 188.21654125674655 319.3055555555651 189.09849396728166 321.66666666666663 190.1794919243112 C 324.02777777776816 191.26048988134076 326.38888888887874 192.54039689669665 328.75 193.98286437626902 C 331.11111111112126 195.4253318558414 333.47222222223184 197.03016720045048 335.83333333333337 198.75 C 338.1944444444349 200.46983279954952 340.5555555555651 202.30442716917074 342.91666666666663 204.19861909794957 C 345.27777777776816 206.0928110267284 347.63888888887874 208.0463374192426 350.0 210.0" fill="none" stroke="#ff00ff" stroke-width="1.5" stroke-linecap="round" stroke-linejoin="round" fill-opacity="0.8" stroke-opacity="0.8" />
  <path d="M 10.0 188.8656061998402 C 12.361111111110542 192.49372641498417 14.72222222222146 196.12118284495065 17.083333333333332 199.5640542660815 C 19.444444444445203 203.00692568721237 21.80555555555561 206.26395498310828 24.166666666666664 209.17074228119958 C 26.527777777777718 212.07752957929088 28.88888888888813 214.6330216471499 31.25 216.70978932314213 C 33.611111111111875 218.78655699913438 35.97222222222187 220.38386272468534 38.33333333333333 221.42477334725106 C 40.694444444444784 222.46568396981678 43.05555555555768 222.9498558889548 45.41666666666667 222.85901762617632 C 47.77777777777566 222.76817936339785 50.13888888888771 222.1024177459609 52.5 220.90406229944236 C 54.86111111111229 219.7057068529238 57.22222222222269 217.9752656165209 59.583333333333336 215.81117627494862 C 61.94444444444398 213.64708693337636 64.30555555555847 211.0502248145924 66.66666666666666 208.16468761216152 C 69.02777777777484 205.27915040973062 71.38888888889181 202.10608783324875 73.75 198.8199630932178 C 76.11111111110819 195.53383835318687 78.47222222222022 192.1359535110357 80.83333333333334 188.8126198142002 C 83.19444444444646 185.48928611736468 85.55555555555354 182.24181977861267 87.91666666666666 179.24860505477398 C 90.27777777777978 176.25539033093528 92.63888888889181 173.5176178836613 95.0 171.18681132035266 C 97.36111111110819 168.85600475704402 99.72222222222514 166.93310281169065 102.08333333333333 165.52668576581635 C 104.44444444444152 164.12026871994206 106.80555555555848 163.23092374292708 109.16666666666667 162.9127631074406 C 111.52777777777486 162.59460247195415 113.88888888889181 162.84779946074377 116.25 163.6662548750393 C 118.61111111110819 164.48471028933483 120.97222222222514 165.86816513306135 123.33333333333333 167.7509561033808 C 125.69444444444152 169.63374707370022 128.0555555555585 172.01521038550047 130.41666666666669 174.77708811782082 C 132.77777777777487 177.53896585014118 135.1388888888918 180.68025988279618 137.5 184.0426695418803 C 139.8611111111082 187.4050792009644 142.22222222221527 190.98737797136602 144.58333333333331 194.60802441873875 C 146.94444444445136 198.2286708661115 149.30555555554864 201.8863402625133 151.66666666666669 205.39551917392419 C 154.02777777778473 208.90469808533507 156.3888888888918 212.26410417724225 158.75 215.30394236381096 C 161.1111111111082 218.34378055037968 163.47222222221527 221.0629469971975 165.83333333333331 223.32538697304338 C 168.19444444445136 225.58782694888924 170.55555555554864 227.3927322801305 172.91666666666669 228.6522294041074 C 175.27777777778473 229.9117265280843 177.63888888889514 230.62538871129544 180.0 230.76285043680417 C 182.36111111110486 230.9003121623129 184.72222222222192 230.46157343015338 187.08333333333334 229.47699975718774 C 189.44444444444477 228.4924260842221 191.80555555555523 226.9624442040344 194.16666666666666 224.9749276792041 C 196.52777777777808 222.98741115437377 198.88888888889844 220.54316815858968 201.25 217.77825342305195 C 203.61111111110156 215.01333868751422 205.97222222222192 211.9288560466379 208.33333333333334 208.6946005862455 C 210.69444444444477 205.46034512585314 213.05555555555523 202.0775991804756 215.41666666666666 198.7318761841405 C 217.77777777777808 195.3861531878054 220.13888888889844 192.07877786840737 222.5 188.99129166036232 C 224.86111111110156 185.90380545231727 227.22222222222192 183.03743487069073 229.58333333333334 180.55048058938314 C 231.94444444444477 178.06352630807555 234.30555555555523 175.95698644733514 236.66666666666666 174.34911892802353 C 239.02777777777808 172.74125140871192 241.38888888889844 171.63272001604415 243.75 171.08918805276232 C 246.11111111110156 170.5456560894805 248.47222222222192 170.56738255173747 250.83333333333334 171.16046663824395 C 253.19444444444477 171.75355072475043 255.55555555556506 172.9178191528095 257.91666666666663 174.59915964969997 C 260.27777777776816 176.28050014659044 262.6388888889182 178.47832554296693 265.0 181.08405555731662 C 267.3611111110818 183.6897855716663 269.72222222223184 186.70248146994476 272.08333333333337 189.97061964481833 C 274.4444444444349 193.2387578196919 276.8055555555651 196.76114760945262 279.16666666666663 200.35940475732482 C 281.52777777776816 203.95766190519703 283.88888888887874 207.6304701983356 286.25 211.19151838942275 C 288.61111111112126 214.75256658050992 290.97222222223184 218.20055260797187 293.33333333333337 221.36101326144689 C 295.6944444444349 224.5214739149219 298.0555555555651 227.3932594847216 300.41666666666663 229.83227227731427 C 302.77777777776816 232.27128506990695 305.13888888887874 234.2766497573556 307.5 235.74992865488835 C 309.86111111112126 237.2232075524211 312.22222222223184 238.16389262089567 314.58333333333337 238.52965433470266 C 316.9444444444349 238.89541604850965 319.3055555555651 238.68616758041938 321.66666666666663 237.9201804088577 C 324.02777777776816 237.15419323729603 326.38888888887874 235.83181096280262 328.75 234.02996673782914 C 331.11111111112126 232.22812251285566 333.47222222223184 229.94755389603432 335.83333333333337 227.31569004896687 C 338.1944444444349 224.68382620189942 340.5555555555651 221.7017203570475 342.91666666666663 218.5337723869292 C 345.27777777776816 215.3658244168109 347.63888888887874 212.01329143787098 350.0 208.6600946737682" fill="none" stroke="#00ffff" stroke-width="1.5" stroke-linecap="round" stroke-linejoin="round" fill-opacity="0.7200000000000001" stroke-opacity="0.7200000000000001" />
  <path d="M 10.0 196.93927420185105 C 12.361111111110542 202.7531717704793 14.72222222222146 208.56480328745465 17.083333333333332 213.94027843936163 C 19.444444444445203 219.31575359126862 21.80555555555561 224.25088526060713 24.166666666666664 228.37783900095243 C 26.527777777777718 232.50479274129773 28.88888888888813 235.8203638716861 31.25 238.0787732726876 C 33.611111111111875 240.3371826736891 35.97222222222187 241.53669598449105 38.33333333333333 241.59100705563765 C 40.694444444444784 241.64531812678425 43.05555555555768 240.55442695829004 45.41666666666667 238.4046396995809 C 47.77777777777566 236.2548524408718 50.13888888888771 233.04790345278136 52.5 229.02957185473903 C 54.86111111111229 225.0112402566967 57.22222222222269 220.18473072964008 59.583333333333336 214.9178777200416 C 61.94444444444398 209.6510247104431 64.30555555555847 203.9480153357438 66.66666666666666 198.24273990942427 C 69.02777777777484 192.53746448310474 71.38888888889181 186.83445510839562 73.75 181.567602098807 C 76.11111111110819 176.30074908921836 78.47222222222022 171.47423956215889 80.83333333333334 167.45590796410949 C 83.19444444444646 163.43757636606009 85.55555555555354 160.23062737797375 87.91666666666666 158.0808401192676 C 90.27777777777978 155.93105286056146 92.63888888889181 154.8401616920545 95.0 154.89447276321087 C 97.36111111110819 154.94878383436725 99.72222222222514 156.14829714515187 102.08333333333333 158.4067065461609 C 104.44444444444152 160.66511594716994 106.80555555555848 163.98068707755365 109.16666666666667 168.10764081789608 C 111.52777777777486 172.2345945582385 113.88888888889181 177.1697262276052 116.25 182.54520137948685 C 118.61111111110819 187.9206765313685 120.97222222222514 193.73230804837502 123.33333333333333 199.54620561699747 C 125.69444444444152 205.36010318561992 128.0555555555585 211.1717347026067 130.41666666666669 216.54720985450808 C 132.77777777777487 221.92268500640947 135.1388888888918 226.85781667576632 137.5 230.98477041609888 C 139.8611111111082 235.11172415643145 142.22222222221527 238.42729528682503 144.58333333333331 240.68570468783406 C 146.94444444445136 242.9441140888431 149.30555555554864 244.14362739963758 151.66666666666669 244.1979384707841 C 154.02777777778473 244.2522495419306 156.3888888888918 243.1613583734335 158.75 241.01157111472736 C 161.1111111111082 238.86178385602122 163.47222222221527 235.65483486795463 165.83333333333331 231.6365032698855 C 168.19444444445136 227.61817167181638 170.55555555554864 222.79166214477667 172.91666666666669 217.52480913518804 C 175.27777777778473 212.2579561255994 177.63888888889514 206.5549467508765 180.0 200.84967132457072 C 182.36111111110486 195.14439589826495 184.72222222222192 189.4413865235515 187.08333333333334 184.17453351395338 C 189.44444444444477 178.90768050435526 191.80555555555523 174.08117097729797 194.16666666666666 170.06283937925588 C 196.52777777777808 166.04450778121378 198.88888888889844 162.83755879311235 201.25 160.68777153441403 C 203.61111111110156 158.5379842757157 205.97222222222192 157.44709310721046 208.33333333333334 157.5014041783573 C 210.69444444444477 157.55571524950412 213.05555555555523 158.7552285603055 215.41666666666666 161.01363796130732 C 217.77777777777808 163.27204736230914 220.13888888889844 166.5876184927166 222.5 170.71457223304245 C 224.86111111110156 174.8415259733683 227.22222222222192 179.77665764274153 229.58333333333334 185.15213279463327 C 231.94444444444477 190.52760794652502 234.30555555555523 196.33923946351877 236.66666666666666 202.1531370321439 C 239.02777777777808 207.967034600769 241.38888888889844 213.77866611778248 243.75 219.1541412696545 C 246.11111111110156 224.52961642152653 248.47222222222192 229.46474809091947 250.83333333333334 233.59170183124533 C 253.19444444444477 237.7186555715712 255.55555555556506 241.0342267019885 257.91666666666663 243.29263610298045 C 260.27777777776816 245.5510455039724 262.6388888889182 246.75055881477383 265.0 246.80486988593051 C 267.3611111110818 246.8591809570872 269.72222222223184 245.76828978858197 272.08333333333337 243.61850252987378 C 274.4444444444349 241.4687152711656 276.8055555555651 238.26176628305433 279.16666666666663 234.24343468503196 C 281.52777777776816 230.2251030870096 283.88888888887874 225.39859355991285 286.25 220.13174055033446 C 288.61111111112126 214.86488754075606 290.97222222223184 209.1618781660486 293.33333333333337 203.45660273971714 C 295.6944444444349 197.75132731338567 298.0555555555651 192.04831793864867 300.41666666666663 186.78146492909988 C 302.77777777776816 181.5146119195511 305.13888888887874 176.6881023924543 307.5 172.66977079440235 C 309.86111111112126 168.6514391963504 312.22222222223184 165.4444902082687 314.58333333333337 163.2947029495605 C 316.9444444444349 161.14491569085232 319.3055555555651 160.0540245223569 321.66666666666663 160.10833559350374 C 324.02777777776816 160.16264666465057 326.38888888887874 161.36215997545196 328.75 163.62056937645377 C 331.11111111112126 165.8789787774556 333.47222222223184 169.19454990785317 335.83333333333337 173.3215036481889 C 338.1944444444349 177.44845738852462 340.5555555555651 182.38358905791762 342.91666666666663 187.75906420977975 C 345.27777777776816 193.13453936164188 347.63888888887874 198.94617087865532 350.0 204.7600684472903" fill="none" stroke="#ff00ff" stroke-width="1.5" stroke-linecap="round" stroke-linejoin="round" fill-opacity="0.64" stroke-opacity="0.64" />
  <path d="M 10.0 203.4998072888245 C 12.361111111110542 212.0182295252166 14.72222222222146 220.53043461155656 17.083333333333332 228.16690085274055 C 19.444444444445203 235.80336709392455 21.80555555555561 242.55294250513646 24.166666666666664 247.72544816843765 C 26.527777777777718 252.89795383173885 28.88888888888813 256.48582022484686 31.25 258.12056372636135 C 33.611111111111875 259.75530722787585 35.97222222222187 259.4345020261308 38.33333333333333 257.1873612076203 C 40.694444444444784 254.94022038910984 43.05555555555768 250.76996218744273 45.41666666666667 245.0974710659072 C 47.77777777777566 239.42497994437167 50.13888888888771 232.25845440665069 52.5 224.32364097118148 C 54.86111111111229 216.38882753571227 57.22222222222269 207.69721399780354 59.583333333333336 199.1297204335004 C 61.94444444444398 190.56222686919727 64.30555555555847 182.13126095576365 66.66666666666666 174.69122258204044 C 69.02777777777484 167.25118420831723 71.38888888889181 160.81284179411207 73.75 156.02785120474988 C 76.11111111110819 151.24286061538768 78.47222222222022 148.11812997788084 80.83333333333334 146.96816416841102 C 83.19444444444646 145.8181983589412 85.55555555555354 146.64462037932825 87.91666666666666 149.35991606527045 C 90.27777777777978 152.07521175121266 92.63888888889181 156.67538422790523 95.0 162.6889504822017 C 97.36111111110819 168.70251673649818 99.72222222222514 176.12068439048699 102.08333333333333 184.1852470833233 C 104.44444444444152 192.24980977615962 106.80555555555848 200.94899309442735 109.16666666666667 209.39425081627525 C 111.52777777777486 217.83950853812314 113.88888888889181 226.01851274064202 116.25 233.09564401270202 C 118.61111111110819 240.17277528476203 120.97222222222514 246.13769488371446 123.33333333333333 250.38006048718486 C 125.69444444444152 254.62242609065527 128.0555555555585 257.13602054859683 130.41666666666669 257.6616644882701 C 132.77777777777487 258.1873084279434 135.1388888888918 256.7241886071854 137.5 253.41774551919235 C 139.8611111111082 250.11130243119928 142.22222222221527 244.9662944765825 144.58333333333331 238.50278425581618 C 146.94444444445136 232.03927403504986 149.30555555554864 224.26661014988167 151.66666666666669 215.97221204760544 C 154.02777777778473 207.6778139453292 156.3888888888918 198.8736922375258 158.75 190.45221440061314 C 161.1111111111082 182.0307365637005 163.47222222221527 174.00409797613642 165.83333333333331 167.18555932068 C 168.19444444445136 160.36702066522358 170.55555555554864 154.76644673540304 172.91666666666669 150.9502527309897 C 175.27777777778473 147.13405872657634 177.63888888889514 145.1077441979151 180.0 145.07405316847223 C 182.36111111110486 145.04036213902936 184.72222222222192 146.99929460877473 187.08333333333334 150.74810655429368 C 189.44444444444477 154.49691849981264 191.80555555555523 160.03011037072886 194.16666666666666 166.78126696728782 C 196.52777777777808 173.53242356384678 198.88888888889844 181.49168009253052 201.25 189.84577587052502 C 203.61111111110156 198.19987164851952 205.97222222222192 206.93661129747395 208.33333333333334 215.16362734082142 C 210.69444444444477 223.3906433841689 213.05555555555523 231.09592521047892 215.41666666666666 237.49205337233596 C 217.77777777777808 243.888181534193 220.13888888889844 248.96580742990062 222.5 252.2048684590162 C 224.86111111110156 255.4439294881318 227.22222222222192 256.8396672499601 229.58333333333334 256.24664125139793 C 231.94444444444477 255.65361525283578 234.30555555555523 253.07263873599666 236.66666666666666 248.76289107361677 C 239.02777777777808 244.45314341123688 241.38888888889844 238.4208417534429 243.75 231.2763284224379 C 246.11111111110156 224.1318150914329 248.47222222222192 215.88542883004638 250.83333333333334 207.372789049315 C 253.19444444444477 198.86014926858363 255.55555555556506 190.09358389138498 257.91666666666663 181.96163913966728 C 260.27777777776816 173.8296943879496 262.6388888889182 166.34414467509484 265.0 160.26319636184942 C 267.3611111110818 154.182248048604 269.72222222223184 149.51469351304564 272.08333333333337 146.73201576822214 C 274.4444444444349 143.94933802339864 276.8055555555651 143.0555339440863 279.16666666666663 144.13811769466668 C 281.52777777776816 145.22070144524704 283.88888888887874 148.27805002384616 286.25 152.99565855430947 C 288.61111111112126 157.71326708477278 290.97222222223184 164.0842274400946 293.33333333333337 171.45688375490406 C 295.6944444444349 178.82954006971352 298.0555555555651 187.19312392430183 300.41666666666663 195.69323542966788 C 302.77777777776816 204.19334693503393 305.13888888887874 212.81757841400156 307.5 220.68500979065294 C 309.86111111112126 228.55244116730432 312.22222222223184 235.65158464602936 314.58333333333337 241.25669370868283 C 316.9444444444349 246.8618027713363 319.3055555555651 250.96467891407576 321.66666666666663 253.14443767369977 C 324.02777777776816 255.32419643332378 326.38888888887874 255.5776195761527 328.75 253.8754940157449 C 331.11111111112126 252.17336845533708 333.47222222223184 248.51812000328803 335.83333333333337 243.2782322811251 C 338.1944444444349 238.03834455896217 340.5555555555651 231.22138708881678 342.91666666666663 223.5175387887321 C 345.27777777776816 215.81369048864744 347.63888888887874 207.23410334339735 350.0 198.64829904812" fill="none" stroke="#00ffff" stroke-width="1.5" stroke-linecap="round" stroke-linejoin="round" fill-opacity="0.56" stroke-opacity="0.56" />
  <path d="M 10.0 207.9611725790168 C 12.361111111110542 219.7107277569011 14.72222222222146 231.4456090684341 17.083333333333332 241.60512174683518 C 19.444444444445203 251.76463442523627 21.80555555555561 260.3233625884012 24.166666666666664 266.13879837199545 C 26.527777777777718 271.9542341555897 28.88888888888813 275.0117036932038 31.25 274.893020082472 C 33.611111111111875 274.7743364717402 35.97222222222187 271.4794997126744 38.33333333333333 265.42669670763223 C 40.694444444444784 259.37389370259007 43.05555555555768 250.57779831795736 45.41666666666667 240.1809184181088 C 47.77777777777566 229.78403851826025 50.13888888888771 217.8117899852813 52.5 205.82486758592722 C 54.86111111111229 193.83794518657314 57.22222222222269 181.86569665359946 59.583333333333336 171.4688167537456 C 61.94444444444398 161.07193685389177 64.30555555555847 152.27584146924613 66.66666666666666 146.2230384642222 C 69.02777777777484 140.1702354591983 71.38888888889181 136.8753987001141 73.75 136.75671508938242 C 76.11111111110819 136.63803147865076 78.47222222222022 139.6955010162787 80.83333333333334 145.51093679985902 C 83.19444444444646 151.32637258343934 85.55555555555354 159.88510074663856 87.91666666666666 170.0446134250192 C 90.27777777777978 180.20412610339986 92.63888888889181 191.93900741496503 95.0 203.6885625928376 C 97.36111111110819 215.43811777071016 99.72222222222514 227.17299908226548 102.08333333333333 237.332511760656 C 104.44444444444152 247.4920244390465 106.80555555555848 256.05075260222605 109.16666666666667 261.86618838581626 C 111.52777777777486 267.68162416940646 113.88888888889181 270.73909370702455 116.25 270.62041009629286 C 118.61111111110819 270.50172648556116 120.97222222222514 267.20688972650663 123.33333333333333 261.1540867214531 C 125.69444444444152 255.10128371639956 128.0555555555585 246.30518833180324 130.41666666666669 235.90830843192964 C 132.77777777777487 225.51142853205604 135.1388888888918 213.53917999912346 137.5 201.5522575997481 C 139.8611111111082 189.56533520037272 142.22222222221527 177.59308666745 144.58333333333331 167.19620676756654 C 146.94444444445136 156.79932686768308 149.30555555554864 148.00323148309656 151.66666666666669 141.95042847804302 C 154.02777777778473 135.8976254729895 156.3888888888918 132.6027887139251 158.75 132.4841051032033 C 161.1111111111082 132.3654214924815 163.47222222221527 135.42289103008963 165.83333333333331 141.2383268136798 C 168.19444444445136 147.05376259726998 170.55555555554864 155.61249076041997 172.91666666666669 165.7720034388401 C 175.27777777778473 175.93151611726023 177.63888888889514 187.66639742876316 180.0 199.41595260665846 C 182.36111111110486 211.16550778455377 184.72222222222192 222.90038909606952 187.08333333333334 233.05990177447694 C 189.44444444444477 243.21941445288437 191.80555555555523 251.7781426160738 194.16666666666666 257.59357839963707 C 196.52777777777808 263.4090141832003 198.88888888889844 266.46648372082626 201.25 266.34780011011367 C 203.61111111110156 266.2291164994011 205.97222222222192 262.93427974032153 208.33333333333334 256.8814767352739 C 210.69444444444477 250.82867373022626 213.05555555555523 242.0325783455931 215.41666666666666 231.63569844575062 C 217.77777777777808 221.23881854590815 220.13888888889844 209.26657001291218 222.5 197.27964761356895 C 224.86111111110156 185.29272521422573 227.22222222222192 173.32047668124963 229.58333333333334 162.9235967813874 C 231.94444444444477 152.52671688152518 234.30555555555523 143.73062149690176 236.66666666666666 137.67781849186397 C 239.02777777777808 131.6250154868262 241.38888888889844 128.33017872775645 243.75 128.21149511702413 C 246.11111111110156 128.0928115062918 248.47222222222192 131.15028104391774 250.83333333333334 136.96571682750073 C 253.19444444444477 142.7811526110837 255.55555555556506 151.33988077427324 257.91666666666663 161.49939345266094 C 260.27777777776816 171.65890613104864 262.6388888889182 183.393787442581 265.0 195.1433426204793 C 267.3611111110818 206.89289779837762 269.72222222223184 218.6277791099001 272.08333333333337 228.78729178829767 C 274.4444444444349 238.94680446669523 276.8055555555651 247.50553262986506 279.16666666666663 253.3209684134579 C 281.52777777776816 259.13640419705075 283.88888888887874 262.1938737346669 286.25 262.0751901239346 C 288.61111111112126 261.95650651320227 290.97222222223184 258.66166975412267 293.33333333333337 252.60886674909477 C 295.6944444444349 246.55606374406688 298.0555555555651 237.75996835944346 300.41666666666663 227.36308845957137 C 302.77777777776816 216.96620855969928 305.13888888887874 204.9939600267528 307.5 193.00703762738982 C 309.86111111112126 181.02011522802684 312.22222222223184 169.04786669506063 314.58333333333337 158.65098679520827 C 316.9444444444349 148.2541068953559 319.3055555555651 139.4580115107226 321.66666666666663 133.4052085056848 C 324.02777777776816 127.35240550064702 326.38888888887874 124.05756874156745 328.75 123.938885130845 C 331.11111111112126 123.82020152012254 333.47222222223184 126.87767105773857 335.83333333333337 132.69310684132157 C 338.1944444444349 138.50854262490455 340.5555555555651 147.06727078807435 342.91666666666663 157.22678346648178 C 345.27777777776816 167.3862961448892 347.63888888887874 179.12117745640182 350.0 190.87073263430014" fill="none" stroke="#ff00ff" stroke-width="1.5" stroke-linecap="round" stroke-linejoin="round" fill-opacity="0.48000000000000004" stroke-opacity="0.48000000000000004" />
  <path d="M 10.0 209.92484959812163 C 12.361111111110542 225.43973811825236 14.72222222222146 240.92362520818762 17.083333333333332 253.7912446241046 C 19.444444444445203 266.65886404002157 21.80555555555561 276.85866228763047 24.166666666666664 282.6767649678541 C 26.457175493572382 288.32089390451614 28.88888888888813 289.9075472934804 31.25 286.6500011836244 C 33.611111111111875 283.3924550737684 35.97222222222187 275.47677936663786 38.33333333333333 264.17649763070455 C 40.694444444444784 252.87621589477124 43.05555555555768 238.23517077306266 45.41666666666667 222.63595728148582 C 47.77777777777566 207.03674378990897 50.13888888888771 190.54017342127918 52.5 175.83483331540313 C 54.86111111111229 161.12949320952708 57.22222222222269 148.272666540114 59.583333333333336 139.35271530482146 C 61.94444444444398 130.43276406952893 64.30555555555847 125.48413521196952 66.66666666666666 125.29106067343986 C 69.02777777777484 125.0979861349102 71.38888888889181 129.66046591540788 73.75 138.194268073651 C 76.11111111110819 146.7280702318941 78.47222222222022 159.1987478242557 80.83333333333334 173.5179388530622 C 83.19444444444646 187.8371298818687 85.55555555555354 203.9475511734391 87.91666666666666 219.16061558797446 C 90.27777777777978 234.37368000250981 92.63888888889181 248.628576047125 95.0 259.5427087060228 C 97.36111111110819 270.45684136492054 99.72222222222514 277.98636799497893 102.08333333333333 280.8577650277722 C 104.44444444444152 283.72916206056544 106.83336507265088 281.85725874012496 109.16666666666667 275.72608158083153 C 111.52777777777486 269.5218298235328 113.88888888889181 258.93588249889416 116.25 245.68211400591153 C 118.61111111110819 232.4283455129289 120.97222222222514 216.5583093459623 123.33333333333333 200.65727174875815 C 125.69444444444152 184.756234151554 128.0555555555585 168.88619798459726 130.41666666666669 155.63242949160477 C 132.77777777777487 142.37866099861228 135.1388888888918 131.79271367396865 137.5 125.58846191668476 C 139.83330159402067 119.4572847573932 142.22222222221527 117.58538143694089 144.58333333333331 120.45677846974401 C 146.94444444445136 123.32817550254713 149.30555555554864 130.85770213264493 151.66666666666669 141.77183479149335 C 154.02777777778473 152.68596745034176 156.3888888888918 166.94086349500643 158.75 182.15392790954178 C 161.1111111111082 197.36699232407713 163.47222222221527 213.4774136156277 165.83333333333331 227.79660464445396 C 168.19444444445136 242.11579567328022 170.55555555554864 254.5864732656122 172.91666666666669 263.12027542386517 C 175.27777777778473 271.65407758211813 177.63888888889514 276.2165573625967 180.0 276.0234828240764 C 182.36111111110486 275.8304082855561 184.72222222222192 270.8817794279776 187.08333333333334 261.9618281926948 C 189.44444444444477 253.04187695741194 191.80555555555523 240.18505028803102 194.16666666666666 225.47971018211317 C 196.52777777777808 210.7743700761953 198.88888888889844 194.27779970755392 201.25 178.67858621603054 C 203.61111111110156 163.07937272450715 205.97222222222192 148.4383276027525 208.33333333333334 137.13804586681164 C 210.69444444444477 125.83776413087077 213.05555555555523 117.92208842375756 215.41666666666666 114.66454231389184 C 217.77777777777808 111.40699620402613 220.2094911731034 112.99364959299638 222.5 118.63777852966209 C 224.86111111110156 124.45588120988936 227.22222222222192 134.6556794574957 229.58333333333334 147.52329887341148 C 231.94444444444477 160.39091828932726 234.30555555555523 175.87480537926228 236.66666666666666 191.38969389939453 C 239.02777777777808 206.90458241952678 241.38888888889844 222.38846950954073 243.75 235.25608892537758 C 246.11111111110156 248.12370834121444 248.47222222222192 258.32350658885537 250.83333333333334 264.14160926912706 C 253.12384216022312 269.78573820579555 255.55555555556506 271.37239159476803 257.91666666666663 268.1148454848974 C 260.27777777776816 264.85729937502674 262.6388888889182 256.94162366784946 265.0 245.64134193197765 C 267.3611111110818 234.34106019610584 269.72222222223184 219.70001507434134 272.08333333333337 204.10080158275875 C 274.4444444444349 188.50158809117616 276.8055555555651 172.00501772255464 279.16666666666663 157.29967761667626 C 281.52777777776816 142.59433751079789 283.88888888887874 129.73751084139212 286.25 120.81755960609448 C 288.61111111112126 111.89760837079683 290.97222222223184 106.94897951324359 293.33333333333337 106.75590497471285 C 295.6944444444349 106.56283043618211 298.0555555555651 111.1253102166927 300.41666666666663 119.65911237492395 C 302.77777777776816 128.1929145331552 305.13888888887874 140.66359212560718 307.5 154.98278315433527 C 309.86111111112126 169.30197418306335 312.22222222223184 185.4123954746275 314.58333333333337 200.6254598892473 C 316.9444444444349 215.83852430386713 319.3055555555651 230.09342034833742 321.66666666666663 241.00755300729577 C 324.02777777776816 251.92168566625412 326.38888888887874 259.4512122962162 328.75 262.3226093290451 C 331.11111111112126 265.194006361874 333.5000317393216 263.32210304139943 335.83333333333337 257.19092588210447 C 338.1944444444349 250.9866741248108 340.5555555555651 240.40072680024088 342.91666666666663 227.14695830718466 C 345.27777777776816 213.89318981412845 347.63888888887874 198.02315364721503 350.0 182.12211605003117" fill="none" stroke="#00ffff" stroke-width="1.5" stroke-linecap="round" stroke-linejoin="round" fill-opacity="0.4" stroke-opacity="0.4" />
  <path d="M 10.0 209.21542892634585 C 12.361111111110542 229.0364963012763 14.72222222222146 248.7974211636878 17.083333333333332 264.4708243166661 C 19.444444444445203 280.1442274696444 21.80555555555561 291.63468038677314 24.166666666666664 296.579292787976 C 26.527777777777718 301.52390518917883 29.44041659131774 298.03891789013886 31.25 291.9603776819381 C 33.611111111111875 284.02921034471416 35.97222222222187 269.8452669265678 38.33333333333333 252.21280461241767 C 40.694444444444784 234.58034229826757 43.05555555555768 213.6035309755847 45.41666666666667 193.45373884969084 C 47.77777777777566 173.30394672379697 50.13888888888771 154.10042976478567 52.5 139.65766858629115 C 54.86111111111229 125.21490740779663 57.22222222222269 115.6179563667935 59.583333333333336 112.74790913058094 C 61.94444444444398 109.87786189436837 64.3963501573781 114.1267093203303 66.66666666666666 123.53584315032104 C 69.02777777777484 133.32126749137768 71.38888888889181 148.95941674601227 73.75 167.25264844241906 C 76.11111111110819 185.54588013882585 78.47222222222022 206.3830654040707 80.83333333333334 225.52022029095727 C 83.19444444444646 244.65737517784385 85.55555555555354 261.9783132739742 87.91666666666666 273.9467193698369 C 90.27777777777978 285.9151254656996 92.63888888889181 292.4577746773783 95.0 292.2075559845612 C 97.36111111110819 291.9573372917441 99.72222222222514 284.91425069435013 102.08333333333333 272.44540721287296 C 104.44444444444152 259.9765637313958 106.80555555555848 242.15518824955967 109.16666666666667 222.51759597702906 C 111.52777777777486 202.88000370449845 113.88888888889181 181.54238105356782 116.25 162.74871197152683 C 118.61111111110819 143.95504288948584 120.97222222222514 127.81645624915559 123.33333333333333 117.53059452246477 C 125.69444444444152 107.24473279577394 128.0555555555585 102.87173849521167 130.41666666666669 105.24134834576044 C 132.77777777777487 107.61095819630921 135.1388888888918 116.70747185161669 137.5 130.64979564450647 C 139.8611111111082 144.59211943739624 142.22222222221527 163.29519901075966 144.58333333333331 182.94455375094202 C 146.94444444445136 202.59390849112438 149.30555555554864 223.07028242820357 151.66666666666669 240.2023073567049 C 154.02777777778473 257.33433228520624 156.3888888888918 271.0178383176994 158.75 278.44856826926116 C 160.50771211371637 283.9803215138109 163.5241935686681 286.89136787015303 165.83333333333331 281.56617121833506 C 168.19444444445136 276.12112143144225 170.55555555554864 264.13023112872617 172.91666666666669 247.9563905900609 C 175.27777777778473 231.78255005139562 177.63888888889514 211.52118780333842 180.0 191.19968304277668 C 182.36111111110486 170.87817828221495 184.72222222222192 150.61681603424736 187.08333333333334 134.4429754954923 C 189.44444444444477 118.26913495673726 191.80555555555523 106.27824465412165 194.16666666666666 100.83319486721832 C 196.47580643132267 95.50799821539637 199.49228788629063 98.41904457174016 201.25 103.95079781629208 C 203.61111111110156 111.38152776786548 205.97222222222192 125.065033800252 208.33333333333334 142.19705872884842 C 210.69444444444477 159.32908365744484 213.05555555555523 179.8054575943687 215.41666666666666 199.45481233461078 C 217.77777777777808 219.10416707485285 220.13888888889844 237.80724664821767 222.5 251.74957044104667 C 224.86111111110156 265.6918942338757 227.22222222222192 274.78840788924083 229.58333333333334 277.15801773979285 C 231.94444444444477 279.5276275903449 234.30555555555523 275.1546332897972 236.66666666666666 264.8687715630887 C 239.02777777777808 254.58290983638028 241.38888888889844 238.4443231961717 243.75 219.65065411402637 C 246.11111111110156 200.85698503188104 248.47222222222192 179.5193623810552 250.83333333333334 159.88177010852414 C 253.19444444444477 140.24417783599307 255.55555555556506 122.4228023541727 257.91666666666663 109.9539588726806 C 260.27777777776816 97.4851153911885 262.6388888889182 90.44202879382038 265.0 90.19181010099203 C 267.3611111110818 89.94159140816367 269.72222222223184 96.48424061987113 272.08333333333337 108.4526467157164 C 274.4444444444349 120.42105281156167 276.8055555555651 137.74199090771154 279.16666666666663 156.8791457945958 C 281.52777777776816 176.01630068148003 283.88888888887874 196.85348594665518 286.25 215.14671764313394 C 288.61111111112126 233.4399493396127 290.97222222223184 249.07809859418052 293.33333333333337 258.86352293523225 C 295.60364984261696 268.27265676522416 298.0555555555651 272.52150419118107 300.41666666666663 269.65145695497233 C 302.77777777776816 266.7814097187636 305.13888888887874 257.1844586777578 307.5 242.74169749926222 C 309.86111111112126 228.29893632076664 312.22222222223184 209.09541936176103 314.58333333333337 188.94562723586225 C 316.9444444444349 168.79583510996346 319.3055555555651 147.81902378737902 321.66666666666663 130.18656147313575 C 324.02777777776816 112.55409915889248 326.38888888887874 98.37015574083053 328.75 90.43898840361523 C 330.5595834086907 84.36044819541691 333.47222222223184 80.87546089632079 335.83333333333337 85.82007329757727 C 338.1944444444349 90.76468569883374 340.5555555555651 102.25513861579857 342.91666666666663 117.92854176888704 C 345.27777777776816 133.6019449219755 347.63888888887874 153.36286978424585 350.0 173.1839371592073" fill="none" stroke="#ff00ff" stroke-width="1.5" stroke-linecap="round" stroke-linejoin="round" fill-opacity="0.32000000000000006" stroke-opacity="0.32000000000000006" />
  <path d="M 10.0 205.89628099946623 C 12.361111111110542 230.56947724969686 14.72222222222146 255.1336485043974 17.083333333333332 273.61321110034294 C 19.444444444445203 292.0927736962885 21.80555555555561 304.32378897014297 24.166666666666664 307.29647724328163 C 26.527777777777718 310.2691655164203 28.92057395728239 303.7651647271962 31.25 289.8040166703396 C 33.611111111111875 275.6529677868709 35.97222222222187 253.7861120669562 38.33333333333333 229.3933230120066 C 40.694444444444784 205.00053395705697 43.05555555555768 178.29243168493238 45.41666666666667 155.62308386903777 C 47.77777777777566 132.95373605314316 50.13888888888771 114.51870578678538 52.5 104.68260160110968 C 53.86447710948364 98.99835449190518 57.877178878861756 95.83910640858574 59.583333333333336 101.43030484526203 C 61.94444444444398 109.16784626108276 64.30555555555847 125.7265732061571 66.66666666666666 147.05600364322254 C 69.02777777777484 168.38543408028798 71.38888888889181 194.2967311777321 73.75 218.49036246336945 C 76.11111111110819 242.6839937490068 78.47222222222022 264.9460990010346 80.83333333333334 279.85468169445016 C 83.19444444444646 294.7632643878657 85.55555555555354 302.18558409848816 87.91666666666666 300.26822765144595 C 90.27777777777978 298.35087120440375 92.63888888889181 287.10809975148936 95.0 269.17497020850175 C 97.36111111110819 251.24184066551413 99.72222222222514 226.7725376599677 102.08333333333333 201.58275573550523 C 104.44444444444152 176.39297381104276 106.80555555555848 150.70029609676325 109.16666666666667 130.6146070091329 C 111.52777777777486 110.52891792150253 113.88888888889181 96.22320814906445 116.25 91.06909179457338 C 118.61111111110819 85.91497544008232 121.45841028359668 92.46593778487858 123.33333333333333 102.14908429339724 C 125.69444444444152 114.34317664026081 128.0555555555585 134.5823198320057 130.41666666666669 157.93098722591958 C 132.77777777777487 181.27965461983345 135.1388888888918 207.5313681095005 137.5 230.30473391388733 C 139.8611111111082 253.07809971827416 142.22222222221527 272.1716659132672 144.58333333333331 282.92538739778695 C 146.11087759382588 289.88261421157944 149.3131746885169 295.97478005090477 151.66666666666669 289.2518735429202 C 154.02777777778473 282.50720247440466 156.3888888888918 266.7568600987341 158.75 245.71985717336528 C 161.1111111111082 224.68285424799646 163.47222222221527 198.54049271446925 165.83333333333331 173.51079427891096 C 168.19444444445136 148.48109584335268 170.55555555554864 124.78024504875223 172.91666666666669 108.03914362245189 C 175.27777777778473 91.29804219615154 177.63888888889514 81.66046048724445 180.0 81.37544893073525 C 182.36111111110486 81.09043737422604 184.72222222222192 90.15799597010668 187.08333333333334 106.32907428339114 C 189.44444444444477 122.50015259667559 191.80555555555523 145.6309802781708 194.16666666666666 170.0906556007888 C 196.52777777777808 194.55033092340682 198.88888888889844 220.12266934393412 201.25 240.5896491561826 C 203.61111111110156 261.0566289684311 205.97222222222192 276.2369482311633 208.33333333333334 282.4115961866765 C 210.69444444444477 288.5862441421897 213.77667635287136 282.24033402499 215.41666666666666 274.37504070248264 C 217.77777777777808 263.0512961049029 220.13888888889844 243.3877067967491 222.5 220.04431787952177 C 224.86111111110156 196.70092896229446 227.22222222222192 169.87919235943838 229.58333333333334 145.9605018524933 C 231.94444444444477 122.04181134554824 234.30555555555523 101.23264504081692 236.66666666666666 88.46852958091007 C 238.66120998816146 77.68607164170632 241.38888888889844 71.09437450156497 243.75 75.67846774302517 C 246.11111111110156 80.26256098448536 248.47222222222192 93.9982476438462 250.83333333333334 113.51391361852365 C 253.19444444444477 133.0295795932011 255.55555555556506 158.1522341943114 257.91666666666663 182.77199300583447 C 260.27777777776816 207.39175181735754 262.6388888889182 231.29103170984172 265.0 248.6541381397707 C 267.3611111110818 266.0172445696997 269.72222222223184 276.689992909641 272.08333333333337 278.0373262436541 C 274.4444444444349 279.3846595776672 276.8055555555651 271.3923167539778 279.16666666666663 255.91371094759768 C 281.52777777776816 240.43510514121755 283.88888888887874 217.60297677610924 286.25 192.83932237745577 C 288.61111111112126 168.0756679788023 290.97222222223184 141.59434776834303 293.33333333333337 119.69489421824775 C 295.6944444444349 97.79544066815247 298.0555555555651 80.66669061003637 300.41666666666663 72.35912608122669 C 301.9030504046856 67.12928799351164 306.1574942729732 68.63274633736222 307.5 73.90135349801317 C 309.86111111112126 83.16743457067716 312.22222222223184 101.03244172399054 314.58333333333337 123.13176642688057 C 316.9444444444349 145.23109112977062 319.3055555555651 171.369170288964 321.66666666666663 195.19193623078792 C 324.02777777776816 219.01470217261183 326.38888888887874 240.31153477975477 328.75 253.8925605500601 C 330.9722942502645 266.6751167541648 333.47222222223184 273.2176631701145 335.83333333333337 269.6749517839414 C 338.1944444444349 266.1322403977683 340.5555555555651 253.3312020109124 342.91666666666663 234.28161630194245 C 345.27777777776816 215.2320305929725 347.63888888887874 190.09783622477556 350.0 164.85461686200478" fill="none" stroke="#00ffff" stroke-width="1.5" stroke-linecap="round" stroke-linejoin="round" fill-opacity="0.24" stroke-opacity="0.24" />
</svg>