<?xml version="1.0" encoding="UTF-8"?>
<svg xmlns="http://www.w3.org/2000/svg" width="324" height="252" viewBox="0 0 324 252">
  <rect width="100%" height="100%" fill="#0a1628" />
  <path d="M 0 9 Q 9 9 18 9" fill="none" stroke="#00d9ff" stroke-width="0.5" stroke-linecap="round" opacity="0.3" />
  <path d="M 18 9 Q 27 11.2758 36 9" fill="none" stroke="#00d9ff" stroke-width="0.5" stroke-linecap="round" opacity="0.335294" />
  <path d="M 36 9 Q 45 13.2443 54 9" fill="none" stroke="#00d9ff" stroke-width="0.5" stroke-linecap="round" opacity="0.370588" />
  <path d="M 54 9 Q 63 14.6395 72 9" fill="none" stroke="#00d9ff" stroke-width="0.5" stroke-linecap="round" opacity="0.405882" />
  <path d="M 72 9 Q 81 15.2731 90 9" fill="none" stroke="#00d9ff" stroke-width="0.5" stroke-linecap="round" opacity="0.441176" />
  <path d="M 90 9 Q 99 15.0595 108 9" fill="none" stroke="#00d9ff" stroke-width="0.5" stroke-linecap="round" opacity="0.476471" />
  <path d="M 108 9 Q 117 14.0275 126 9" fill="none" stroke="#00d9ff" stroke-width="0.5" stroke-linecap="round" opacity="0.511765" />
  <path d="M 126 9 Q 135 12.3165 144 9" fill="none" stroke="#00d9ff" stroke-width="0.5" stroke-linecap="round" opacity="0.547059" />
  <path d="M 144 9 Q 153 10.1576 162 9" fill="none" stroke="#00d9ff" stroke-width="0.5" stroke-linecap="round" opacity="0.582353" />
  <path d="M 162 9 Q 171 7.84238 180 9" fill="none" stroke="#00d9ff" stroke-width="0.5" stroke-linecap="round" opacity="0.617647" />
  <path d="M 180 9 Q 189 5.68348 198 9" fill="none" stroke="#00d9ff" stroke-width="0.5" stroke-linecap="round" opacity="0.652941" />
  <path d="M 198 9 Q 207 3.97249 216 9" fill="none" stroke="#00d9ff" stroke-width="0.5" stroke-linecap="round" opacity="0.688235" />
  <path d="M 216 9 Q 225 2.9405 234 9" fill="none" stroke="#00d9ff" stroke-width="0.5" stroke-linecap="round" opacity="0.723529" />
  <path d="M 234 9 Q 243 2.72687 252 9" fill="none" stroke="#00d9ff" stroke-width="0.5" stroke-linecap="round" opacity="0.758824" />
  <path d="M 252 9 Q 261 3.36047 270 9" fill="none" stroke="#00d9ff" stroke-width="0.5" stroke-linecap="round" opacity="0.794118" />
  <path d="M 270 9 Q 279 4.75572 288 9" fill="none" stroke="#00d9ff" stroke-width="0.5" stroke-linecap="round" opacity="0.829412" />
  <path d="M 288 9 Q 297 6.72418 306 9" fill="none" stroke="#00d9ff" stroke-width="0.5" stroke-linecap="round" opacity="0.864706" />
  <path d="M 306 9 Q 315 9 324 9" fill="none" stroke="#00d9ff" stroke-width="0.5" stroke-linecap="round" opacity="0.9" />
  <path d="M 0 27 Q 9 28.5077 18 27" fill="none" stroke="#00d9ff" stroke-width="0.653846" stroke-linecap="round" opacity="0.3" />
  <path d="M 18 27 Q 27 30.6156 36 27" fill="none" stroke="#00d9ff" stroke-width="0.653846" stroke-linecap="round" opacity="0.335294" />
  <path d="M 36 27 Q 45 32.2351 54 27" fill="none" stroke="#00d9ff" stroke-width="0.653846" stroke-linecap="round" opacity="0.370588" />
  <path d="M 54 27 Q 63 33.1477 72 27" fill="none" stroke="#00d9ff" stroke-width="0.653846" stroke-linecap="round" opacity="0.405882" />
  <path d="M 72 27 Q 81 33.23 90 27" fill="none" stroke="#00d9ff" stroke-width="0.653846" stroke-linecap="round" opacity="0.441176" />
  <path d="M 90 27 Q 99 32.4708 108 27" fill="none" stroke="#00d9ff" stroke-width="0.653846" stroke-linecap="round" opacity="0.476471" />
  <path d="M 108 27 Q 117 30.9728 126 27" fill="none" stroke="#00d9ff" stroke-width="0.653846" stroke-linecap="round" opacity="0.511765" />
  <path d="M 126 27 Q 135 28.9383 144 27" fill="none" stroke="#00d9ff" stroke-width="0.653846" stroke-linecap="round" opacity="0.547059" />
  <path d="M 144 27 Q 153 26.642 162 27" fill="none" stroke="#00d9ff" stroke-width="0.653846" stroke-linecap="round" opacity="0.582353" />
  <path d="M 162 27 Q 171 24.394 180 27" fill="none" stroke="#00d9ff" stroke-width="0.653846" stroke-linecap="round" opacity="0.617647" />
  <path d="M 180 27 Q 189 22.498 198 27" fill="none" stroke="#00d9ff" stroke-width="0.653846" stroke-linecap="round" opacity="0.652941" />
  <path d="M 198 27 Q 207 21.21 216 27" fill="none" stroke="#00d9ff" stroke-width="0.653846" stroke-linecap="round" opacity="0.688235" />
  <path d="M 216 27 Q 225 20.704 234 27" fill="none" stroke="#00d9ff" stroke-width="0.653846" stroke-linecap="round" opacity="0.723529" />
  <path d="M 234 27 Q 243 21.0483 252 27" fill="none" stroke="#00d9ff" stroke-width="0.653846" stroke-linecap="round" opacity="0.758824" />
  <path d="M 252 27 Q 261 22.1964 270 27" fill="none" stroke="#00d9ff" stroke-width="0.653846" stroke-linecap="round" opacity="0.794118" />
  <path d="M 270 27 Q 279 23.9932 288 27" fill="none" stroke="#00d9ff" stroke-width="0.653846" stroke-linecap="round" opacity="0.829412" />
  <path d="M 288 27 Q 297 26.1962 306 27" fill="none" stroke="#00d9ff" stroke-width="0.653846" stroke-linecap="round" opacity="0.864706" />
  <path d="M 306 27 Q 315 28.5077 324 27" fill="none" stroke="#00d9ff" stroke-width="0.653846" stroke-linecap="round" opacity="0.9" />
  <path d="M 0 45 Q 9 47.9278 18 45" fill="none" stroke="#00d9ff" stroke-width="0.807692" stroke-linecap="round" opacity="0.3" />
  <path d="M 18 45 Q 27 49.7452 36 45" fill="none" stroke="#00d9ff" stroke-width="0.807692" stroke-linecap="round" opacity="0.335294" />
  <path d="M 36 45 Q 45 50.9218 54 45" fill="none" stroke="#00d9ff" stroke-width="0.807692" stroke-linecap="round" opacity="0.370588" />
  <path d="M 54 45 Q 63 51.2986 72 45" fill="none" stroke="#00d9ff" stroke-width="0.807692" stroke-linecap="round" opacity="0.405882" />
  <path d="M 72 45 Q 81 50.8247 90 45" fill="none" stroke="#00d9ff" stroke-width="0.807692" stroke-linecap="round" opacity="0.441176" />
  <path d="M 90 45 Q 99 49.5642 108 45" fill="none" stroke="#00d9ff" stroke-width="0.807692" stroke-linecap="round" opacity="0.476471" />
  <path d="M 108 45 Q 117 47.6873 126 45" fill="none" stroke="#00d9ff" stroke-width="0.807692" stroke-linecap="round" opacity="0.511765" />
  <path d="M 126 45 Q 135 45.4474 144 45" fill="none" stroke="#00d9ff" stroke-width="0.807692" stroke-linecap="round" opacity="0.547059" />
  <path d="M 144 45 Q 153 43.1471 162 45" fill="none" stroke="#00d9ff" stroke-width="0.807692" stroke-linecap="round" opacity="0.582353" />
  <path d="M 162 45 Q 171 41.0971 180 45" fill="none" stroke="#00d9ff" stroke-width="0.807692" stroke-linecap="round" opacity="0.617647" />
  <path d="M 180 45 Q 189 39.5741 198 45" fill="none" stroke="#00d9ff" stroke-width="0.807692" stroke-linecap="round" opacity="0.652941" />
  <path d="M 198 45 Q 207 38.784 216 45" fill="none" stroke="#00d9ff" stroke-width="0.807692" stroke-linecap="round" opacity="0.688235" />
  <path d="M 216 45 Q 225 38.8334 234 45" fill="none" stroke="#00d9ff" stroke-width="0.807692" stroke-linecap="round" opacity="0.723529" />
  <path d="M 234 45 Q 243 39.7156 252 45" fill="none" stroke="#00d9ff" stroke-width="0.807692" stroke-linecap="round" opacity="0.758824" />
  <path d="M 252 45 Q 261 41.3115 270 45" fill="none" stroke="#00d9ff" stroke-width="0.807692" stroke-linecap="round" opacity="0.794118" />
  <path d="M 270 45 Q 279 43.4055 288 45" fill="none" stroke="#00d9ff" stroke-width="0.807692" stroke-linecap="round" opacity="0.829412" />
  <path d="M 288 45 Q 297 45.7149 306 45" fill="none" stroke="#00d9ff" stroke-width="0.807692" stroke-linecap="round" opacity="0.864706" />
  <path d="M 306 45 Q 315 47.9278 324 45" fill="none" stroke="#00d9ff" stroke-width="0.807692" stroke-linecap="round" opacity="0.9" />
  <path d="M 0 63 Q 9 67.1777 18 63" fill="none" stroke="#00d9ff" stroke-width="0.961538" stroke-linecap="round" opacity="0.3" />
  <path d="M 18 63 Q 27 68.599 36 63" fill="none" stroke="#00d9ff" stroke-width="0.961538" stroke-linecap="round" opacity="0.335294" />
  <path d="M 36 63 Q 45 69.2642 54 63" fill="none" stroke="#00d9ff" stroke-width="0.961538" stroke-linecap="round" opacity="0.370588" />
  <path d="M 54 63 Q 63 69.0834 72 63" fill="none" stroke="#00d9ff" stroke-width="0.961538" stroke-linecap="round" opacity="0.405882" />
  <path d="M 72 63 Q 81 68.081 90 63" fill="none" stroke="#00d9ff" stroke-width="0.961538" stroke-linecap="round" opacity="0.441176" />
  <path d="M 90 63 Q 99 66.3923 108 63" fill="none" stroke="#00d9ff" stroke-width="0.961538" stroke-linecap="round" opacity="0.476471" />
  <path d="M 108 63 Q 117 64.2455 126 63" fill="none" stroke="#00d9ff" stroke-width="0.961538" stroke-linecap="round" opacity="0.511765" />
  <path d="M 126 63 Q 135 61.9305 144 63" fill="none" stroke="#00d9ff" stroke-width="0.961538" stroke-linecap="round" opacity="0.547059" />
  <path d="M 144 63 Q 153 59.76 162 63" fill="none" stroke="#00d9ff" stroke-width="0.961538" stroke-linecap="round" opacity="0.582353" />
  <path d="M 162 63 Q 171 58.027 180 63" fill="none" stroke="#00d9ff" stroke-width="0.961538" stroke-linecap="round" opacity="0.617647" />
  <path d="M 180 63 Q 189 56.9656 198 63" fill="none" stroke="#00d9ff" stroke-width="0.961538" stroke-linecap="round" opacity="0.652941" />
  <path d="M 198 63 Q 207 56.7192 216 63" fill="none" stroke="#00d9ff" stroke-width="0.961538" stroke-linecap="round" opacity="0.688235" />
  <path d="M 216 63 Q 225 57.3211 234 63" fill="none" stroke="#00d9ff" stroke-width="0.961538" stroke-linecap="round" opacity="0.723529" />
  <path d="M 234 63 Q 243 58.69 252 63" fill="none" stroke="#00d9ff" stroke-width="0.961538" stroke-linecap="round" opacity="0.758824" />
  <path d="M 252 63 Q 261 60.6409 270 63" fill="none" stroke="#00d9ff" stroke-width="0.961538" stroke-linecap="round" opacity="0.794118" />
  <path d="M 270 63 Q 279 62.9104 288 63" fill="none" stroke="#00d9ff" stroke-width="0.961538" stroke-linecap="round" opacity="0.829412" />
  <path d="M 288 63 Q 297 65.1921 306 63" fill="none" stroke="#00d9ff" stroke-width="0.961538" stroke-linecap="round" opacity="0.864706" />
  <path d="M 306 63 Q 315 67.1777 324 63" fill="none" stroke="#00d9ff" stroke-width="0.961538" stroke-linecap="round" opacity="0.9" />
  <path d="M 0 81 Q 9 86.1848 18 81" fill="none" stroke="#00d9ff" stroke-width="1.11538" stroke-linecap="round" opacity="0.3" />
  <path d="M 18 81 Q 27 87.1275 36 81" fill="none" stroke="#00d9ff" stroke-width="1.11538" stroke-linecap="round" opacity="0.335294" />
  <path d="M 36 81 Q 45 87.2426 54 81" fill="none" stroke="#00d9ff" stroke-width="1.11538" stroke-linecap="round" opacity="0.370588" />
  <path d="M 54 81 Q 63 86.5147 72 81" fill="none" stroke="#00d9ff" stroke-width="1.11538" stroke-linecap="round" opacity="0.405882" />
  <path d="M 72 81 Q 81 85.0419 90 81" fill="none" stroke="#00d9ff" stroke-width="1.11538" stroke-linecap="round" opacity="0.441176" />
  <path d="M 90 81 Q 99 83.0233 108 81" fill="none" stroke="#00d9ff" stroke-width="1.11538" stroke-linecap="round" opacity="0.476471" />
  <path d="M 108 81 Q 117 80.7314 126 81" fill="none" stroke="#00d9ff" stroke-width="1.11538" stroke-linecap="round" opacity="0.511765" />
  <path d="M 126 81 Q 135 78.4758 144 81" fill="none" stroke="#00d9ff" stroke-width="1.11538" stroke-linecap="round" opacity="0.547059" />
  <path d="M 144 81 Q 153 76.5611 162 81" fill="none" stroke="#00d9ff" stroke-width="1.11538" stroke-linecap="round" opacity="0.582353" />
  <path d="M 162 81 Q 171 75.2459 180 81" fill="none" stroke="#00d9ff" stroke-width="1.11538" stroke-linecap="round" opacity="0.617647" />
  <path d="M 180 81 Q 189 74.7078 198 81" fill="none" stroke="#00d9ff" stroke-width="1.11538" stroke-linecap="round" opacity="0.652941" />
  <path d="M 198 81 Q 207 75.0195 216 81" fill="none" stroke="#00d9ff" stroke-width="1.11538" stroke-linecap="round" opacity="0.688235" />
  <path d="M 216 81 Q 225 76.1389 234 81" fill="none" stroke="#00d9ff" stroke-width="1.11538" stroke-linecap="round" opacity="0.723529" />
  <path d="M 234 81 Q 243 77.9149 252 81" fill="none" stroke="#00d9ff" stroke-width="1.11538" stroke-linecap="round" opacity="0.758824" />
  <path d="M 252 81 Q 261 80.1074 270 81" fill="none" stroke="#00d9ff" stroke-width="1.11538" stroke-linecap="round" opacity="0.794118" />
  <path d="M 270 81 Q 279 82.4206 288 81" fill="none" stroke="#00d9ff" stroke-width="1.11538" stroke-linecap="round" opacity="0.829412" />
  <path d="M 288 81 Q 297 84.5419 306 81" fill="none" stroke="#00d9ff" stroke-width="1.11538" stroke-linecap="round" opacity="0.864706" />
  <path d="M 306 81 Q 315 86.1848 324 81" fill="none" stroke="#00d9ff" stroke-width="1.11538" stroke-linecap="round" opacity="0.9" />
  <path d="M 0 99 Q 9 104.891 18 99" fill="none" stroke="#00d9ff" stroke-width="1.26923" stroke-linecap="round" opacity="0.3" />
  <path d="M 18 99 Q 27 105.3 36 99" fill="none" stroke="#00d9ff" stroke-width="1.26923" stroke-linecap="round" opacity="0.335294" />
  <path d="M 36 99 Q 45 104.858 54 99" fill="none" stroke="#00d9ff" stroke-width="1.26923" stroke-linecap="round" opacity="0.370588" />
  <path d="M 54 99 Q 63 103.625 72 99" fill="none" stroke="#00d9ff" stroke-width="1.26923" stroke-linecap="round" opacity="0.405882" />
  <path d="M 72 99 Q 81 101.768 90 99" fill="none" stroke="#00d9ff" stroke-width="1.26923" stroke-linecap="round" opacity="0.441176" />
  <path d="M 90 99 Q 99 99.5367 108 99" fill="none" stroke="#00d9ff" stroke-width="1.26923" stroke-linecap="round" opacity="0.476471" />
  <path d="M 108 99 Q 117 97.2329 126 99" fill="none" stroke="#00d9ff" stroke-width="1.26923" stroke-linecap="round" opacity="0.511765" />
  <path d="M 126 99 Q 135 95.1678 144 99" fill="none" stroke="#00d9ff" stroke-width="1.26923" stroke-linecap="round" opacity="0.547059" />
  <path d="M 144 99 Q 153 93.6202 162 99" fill="none" stroke="#00d9ff" stroke-width="1.26923" stroke-linecap="round" opacity="0.582353" />
  <path d="M 162 99 Q 171 92.7992 180 99" fill="none" stroke="#00d9ff" stroke-width="1.26923" stroke-linecap="round" opacity="0.617647" />
  <path d="M 180 99 Q 189 92.8157 198 99" fill="none" stroke="#00d9ff" stroke-width="1.26923" stroke-linecap="round" opacity="0.652941" />
  <path d="M 198 99 Q 207 93.6673 216 99" fill="none" stroke="#00d9ff" stroke-width="1.26923" stroke-linecap="round" opacity="0.688235" />
  <path d="M 216 99 Q 225 95.2392 234 99" fill="none" stroke="#00d9ff" stroke-width="1.26923" stroke-linecap="round" opacity="0.723529" />
  <path d="M 234 99 Q 243 97.319 252 99" fill="none" stroke="#00d9ff" stroke-width="1.26923" stroke-linecap="round" opacity="0.758824" />
  <path d="M 252 99 Q 261 99.6259 270 99" fill="none" stroke="#00d9ff" stroke-width="1.26923" stroke-linecap="round" opacity="0.794118" />
  <path d="M 270 99 Q 279 101.848 288 99" fill="none" stroke="#00d9ff" stroke-width="1.26923" stroke-linecap="round" opacity="0.829412" />
  <path d="M 288 99 Q 297 103.686 306 99" fill="none" stroke="#00d9ff" stroke-width="1.26923" stroke-linecap="round" opacity="0.864706" />
  <path d="M 306 99 Q 315 104.891 324 99" fill="none" stroke="#00d9ff" stroke-width="1.26923" stroke-linecap="round" opacity="0.9" />
  <path d="M 0 117 Q 9 123.254 18 117" fill="none" stroke="#00d9ff" stroke-width="1.42308" stroke-linecap="round" opacity="0.3" />
  <path d="M 18 117 Q 27 123.106 36 117" fill="none" stroke="#00d9ff" stroke-width="1.42308" stroke-linecap="round" opacity="0.335294" />
  <path d="M 36 117 Q 45 122.133 54 117" fill="none" stroke="#00d9ff" stroke-width="1.42308" stroke-linecap="round" opacity="0.370588" />
  <path d="M 54 117 Q 63 120.467 72 117" fill="none" stroke="#00d9ff" stroke-width="1.42308" stroke-linecap="round" opacity="0.405882" />
  <path d="M 72 117 Q 81 118.333 90 117" fill="none" stroke="#00d9ff" stroke-width="1.42308" stroke-linecap="round" opacity="0.441176" />
  <path d="M 90 117 Q 99 116.019 108 117" fill="none" stroke="#00d9ff" stroke-width="1.42308" stroke-linecap="round" opacity="0.476471" />
  <path d="M 108 117 Q 117 113.837 126 117" fill="none" stroke="#00d9ff" stroke-width="1.42308" stroke-linecap="round" opacity="0.511765" />
  <path d="M 126 117 Q 135 112.082 144 117" fill="none" stroke="#00d9ff" stroke-width="1.42308" stroke-linecap="round" opacity="0.547059" />
  <path d="M 144 117 Q 153 110.992 162 117" fill="none" stroke="#00d9ff" stroke-width="1.42308" stroke-linecap="round" opacity="0.582353" />
  <path d="M 162 117 Q 171 110.713 180 117" fill="none" stroke="#00d9ff" stroke-width="1.42308" stroke-linecap="round" opacity="0.617647" />
  <path d="M 180 117 Q 189 111.283 198 117" fill="none" stroke="#00d9ff" stroke-width="1.42308" stroke-linecap="round" opacity="0.652941" />
  <path d="M 198 117 Q 207 112.625 216 117" fill="none" stroke="#00d9ff" stroke-width="1.42308" stroke-linecap="round" opacity="0.688235" />
  <path d="M 216 117 Q 225 114.558 234 117" fill="none" stroke="#00d9ff" stroke-width="1.42308" stroke-linecap="round" opacity="0.723529" />
  <path d="M 234 117 Q 243 116.821 252 117" fill="none" stroke="#00d9ff" stroke-width="1.42308" stroke-linecap="round" opacity="0.758824" />
  <path d="M 252 117 Q 261 119.108 270 117" fill="none" stroke="#00d9ff" stroke-width="1.42308" stroke-linecap="round" opacity="0.794118" />
  <path d="M 270 117 Q 279 121.11 288 117" fill="none" stroke="#00d9ff" stroke-width="1.42308" stroke-linecap="round" opacity="0.829412" />
  <path d="M 288 117 Q 297 122.557 306 117" fill="none" stroke="#00d9ff" stroke-width="1.42308" stroke-linecap="round" opacity="0.864706" />
  <path d="M 306 117 Q 315 123.254 324 117" fill="none" stroke="#00d9ff" stroke-width="1.42308" stroke-linecap="round" opacity="0.9" />
  <path d="M 0 135 Q 9 141.254 18 135" fill="none" stroke="#00d9ff" stroke-width="1.57692" stroke-linecap="round" opacity="0.3" />
  <path d="M 18 135 Q 27 140.557 36 135" fill="none" stroke="#00d9ff" stroke-width="1.57692" stroke-linecap="round" opacity="0.335294" />
  <path d="M 36 135 Q 45 139.11 54 135" fill="none" stroke="#00d9ff" stroke-width="1.57692" stroke-linecap="round" opacity="0.370588" />
  <path d="M 54 135 Q 63 137.108 72 135" fill="none" stroke="#00d9ff" stroke-width="1.57692" stroke-linecap="round" opacity="0.405882" />
  <path d="M 72 135 Q 81 134.821 90 135" fill="none" stroke="#00d9ff" stroke-width="1.57692" stroke-linecap="round" opacity="0.441176" />
  <path d="M 90 135 Q 99 132.558 108 135" fill="none" stroke="#00d9ff" stroke-width="1.57692" stroke-linecap="round" opacity="0.476471" />
  <path d="M 108 135 Q 117 130.625 126 135" fill="none" stroke="#00d9ff" stroke-width="1.57692" stroke-linecap="round" opacity="0.511765" />
  <path d="M 126 135 Q 135 129.283 144 135" fill="none" stroke="#00d9ff" stroke-width="1.57692" stroke-linecap="round" opacity="0.547059" />
  <path d="M 144 135 Q 153 128.713 162 135" fill="none" stroke="#00d9ff" stroke-width="1.57692" stroke-linecap="round" opacity="0.582353" />
  <path d="M 162 135 Q 171 128.992 180 135" fill="none" stroke="#00d9ff" stroke-width="1.57692" stroke-linecap="round" opacity="0.617647" />
  <path d="M 180 135 Q 189 130.082 198 135" fill="none" stroke="#00d9ff" stroke-width="1.57692" stroke-linecap="round" opacity="0.652941" />
  <path d="M 198 135 Q 207 131.837 216 135" fill="none" stroke="#00d9ff" stroke-width="1.57692" stroke-linecap="round" opacity="0.688235" />
  <path d="M 216 135 Q 225 134.019 234 135" fill="none" stroke="#00d9ff" stroke-width="1.57692" stroke-linecap="round" opacity="0.723529" />
  <path d="M 234 135 Q 243 136.333 252 135" fill="none" stroke="#00d9ff" stroke-width="1.57692" stroke-linecap="round" opacity="0.758824" />
  <path d="M 252 135 Q 261 138.467 270 135" fill="none" stroke="#00d9ff" stroke-width="1.57692" stroke-linecap="round" opacity="0.794118" />
  <path d="M 270 135 Q 279 140.133 288 135" fill="none" stroke="#00d9ff" stroke-width="1.57692" stroke-linecap="round" opacity="0.829412" />
  <path d="M 288 135 Q 297 141.106 306 135" fill="none" stroke="#00d9ff" stroke-width="1.57692" stroke-linecap="round" opacity="0.864706" />
  <path d="M 306 135 Q 315 141.254 324 135" fill="none" stroke="#00d9ff" stroke-width="1.57692" stroke-linecap="round" opacity="0.9" />
  <path d="M 0 153 Q 9 158.891 18 153" fill="none" stroke="#00d9ff" stroke-width="1.73077" stroke-linecap="round" opacity="0.3" />
  <path d="M 18 153 Q 27 157.686 36 153" fill="none" stroke="#00d9ff" stroke-width="1.73077" stroke-linecap="round" opacity="0.335294" />
  <path d="M 36 153 Q 45 155.848 54 153" fill="none" stroke="#00d9ff" stroke-width="1.73077" stroke-linecap="round" opacity="0.370588" />
  <path d="M 54 153 Q 63 153.626 72 153" fill="none" stroke="#00d9ff" stroke-width="1.73077" stroke-linecap="round" opacity="0.405882" />
  <path d="M 72 153 Q 81 151.319 90 153" fill="none" stroke="#00d9ff" stroke-width="1.73077" stroke-linecap="round" opacity="0.441176" />
  <path d="M 90 153 Q 99 149.239 108 153" fill="none" stroke="#00d9ff" stroke-width="1.73077" stroke-linecap="round" opacity="0.476471" />
  <path d="M 108 153 Q 117 147.667 126 153" fill="none" stroke="#00d9ff" stroke-width="1.73077" stroke-linecap="round" opacity="0.511765" />
  <path d="M 126 153 Q 135 146.816 144 153" fill="none" stroke="#00d9ff" stroke-width="1.73077" stroke-linecap="round" opacity="0.547059" />
  <path d="M 144 153 Q 153 146.799 162 153" fill="none" stroke="#00d9ff" stroke-width="1.73077" stroke-linecap="round" opacity="0.582353" />
  <path d="M 162 153 Q 171 147.62 180 153" fill="none" stroke="#00d9ff" stroke-width="1.73077" stroke-linecap="round" opacity="0.617647" />
  <path d="M 180 153 Q 189 149.168 198 153" fill="none" stroke="#00d9ff" stroke-width="1.73077" stroke-linecap="round" opacity="0.652941" />
  <path d="M 198 153 Q 207 151.233 216 153" fill="none" stroke="#00d9ff" stroke-width="1.73077" stroke-linecap="round" opacity="0.688235" />
  <path d="M 216 153 Q 225 153.537 234 153" fill="none" stroke="#00d9ff" stroke-width="1.73077" stroke-linecap="round" opacity="0.723529" />
  <path d="M 234 153 Q 243 155.768 252 153" fill="none" stroke="#00d9ff" stroke-width="1.73077" stroke-linecap="round" opacity="0.758824" />
  <path d="M 252 153 Q 261 157.625 270 153" fill="none" stroke="#00d9ff" stroke-width="1.73077" stroke-linecap="round" opacity="0.794118" />
  <path d="M 270 153 Q 279 158.858 288 153" fill="none" stroke="#00d9ff" stroke-width="1.73077" stroke-linecap="round" opacity="0.829412" />
  <path d="M 288 153 Q 297 159.3 306 153" fill="none" stroke="#00d9ff" stroke-width="1.73077" stroke-linecap="round" opacity="0.864706" />
  <path d="M 306 153 Q 315 158.891 324 153" fill="none" stroke="#00d9ff" stroke-width="1.73077" stroke-linecap="round" opacity="0.9" />
  <path d="M 0 171 Q 9 176.185 18 171" fill="none" stroke="#00d9ff" stroke-width="1.88462" stroke-linecap="round" opacity="0.3" />
  <path d="M 18 171 Q 27 174.542 36 171" fill="none" stroke="#00d9ff" stroke-width="1.88462" stroke-linecap="round" opacity="0.335294" />
  <path d="M 36 171 Q 45 172.421 54 171" fill="none" stroke="#00d9ff" stroke-width="1.88462" stroke-linecap="round" opacity="0.370588" />
  <path d="M 54 171 Q 63 170.107 72 171" fill="none" stroke="#00d9ff" stroke-width="1.88462" stroke-linecap="round" opacity="0.405882" />
  <path d="M 72 171 Q 81 167.915 90 171" fill="none" stroke="#00d9ff" stroke-width="1.88462" stroke-linecap="round" opacity="0.441176" />
  <path d="M 90 171 Q 99 166.139 108 171" fill="none" stroke="#00d9ff" stroke-width="1.88462" stroke-linecap="round" opacity="0.476471" />
  <path d="M 108 171 Q 117 165.02 126 171" fill="none" stroke="#00d9ff" stroke-width="1.88462" stroke-linecap="round" opacity="0.511765" />
  <path d="M 126 171 Q 135 164.708 144 171" fill="none" stroke="#00d9ff" stroke-width="1.88462" stroke-linecap="round" opacity="0.547059" />
  <path d="M 144 171 Q 153 165.246 162 171" fill="none" stroke="#00d9ff" stroke-width="1.88462" stroke-linecap="round" opacity="0.582353" />
  <path d="M 162 171 Q 171 166.561 180 171" fill="none" stroke="#00d9ff" stroke-width="1.88462" stroke-linecap="round" opacity="0.617647" />
  <path d="M 180 171 Q 189 168.476 198 171" fill="none" stroke="#00d9ff" stroke-width="1.88462" stroke-linecap="round" opacity="0.652941" />
  <path d="M 198 171 Q 207 170.731 216 171" fill="none" stroke="#00d9ff" stroke-width="1.88462" stroke-linecap="round" opacity="0.688235" />
  <path d="M 216 171 Q 225 173.023 234 171" fill="none" stroke="#00d9ff" stroke-width="1.88462" stroke-linecap="round" opacity="0.723529" />
  <path d="M 234 171 Q 243 175.042 252 171" fill="none" stroke="#00d9ff" stroke-width="1.88462" stroke-linecap="round" opacity="0.758824" />
  <path d="M 252 171 Q 261 176.515 270 171" fill="none" stroke="#00d9ff" stroke-width="1.88462" stroke-linecap="round" opacity="0.794118" />
  <path d="M 270 171 Q 279 177.243 288 171" fill="none" stroke="#00d9ff" stroke-width="1.88462" stroke-linecap="round" opacity="0.829412" />
  <path d="M 288 171 Q 297 177.127 306 171" fill="none" stroke="#00d9ff" stroke-width="1.88462" stroke-linecap="round" opacity="0.864706" />
  <path d="M 306 171 Q 315 176.185 324 171" fill="none" stroke="#00d9ff" stroke-width="1.88462" stroke-linecap="round" opacity="0.9" />
  <path d="M 0 189 Q 9 193.178 18 189" fill="none" stroke="#00d9ff" stroke-width="2.03846" stroke-linecap="round" opacity="0.3" />
  <path d="M 18 189 Q 27 191.192 36 189" fill="none" stroke="#00d9ff" stroke-width="2.03846" stroke-linecap="round" opacity="0.335294" />
  <path d="M 36 189 Q 45 188.91 54 189" fill="none" stroke="#00d9ff" stroke-width="2.03846" stroke-linecap="round" opacity="0.370588" />
  <path d="M 54 189 Q 63 186.641 72 189" fill="none" stroke="#00d9ff" stroke-width="2.03846" stroke-linecap="round" opacity="0.405882" />
  <path d="M 72 189 Q 81 184.69 90 189" fill="none" stroke="#00d9ff" stroke-width="2.03846" stroke-linecap="round" opacity="0.441176" />
  <path d="M 90 189 Q 99 183.321 108 189" fill="none" stroke="#00d9ff" stroke-width="2.03846" stroke-linecap="round" opacity="0.476471" />
  <path d="M 108 189 Q 117 182.719 126 189" fill="none" stroke="#00d9ff" stroke-width="2.03846" stroke-linecap="round" opacity="0.511765" />
  <path d="M 126 189 Q 135 182.966 144 189" fill="none" stroke="#00d9ff" stroke-width="2.03846" stroke-linecap="round" opacity="0.547059" />
  <path d="M 144 189 Q 153 184.027 162 189" fill="none" stroke="#00d9ff" stroke-width="2.03846" stroke-linecap="round" opacity="0.582353" />
  <path d="M 162 189 Q 171 185.76 180 189" fill="none" stroke="#00d9ff" stroke-width="2.03846" stroke-linecap="round" opacity="0.617647" />
  <path d="M 180 189 Q 189 187.931 198 189" fill="none" stroke="#00d9ff" stroke-width="2.03846" stroke-linecap="round" opacity="0.652941" />
  <path d="M 198 189 Q 207 190.246 216 189" fill="none" stroke="#00d9ff" stroke-width="2.03846" stroke-linecap="round" opacity="0.688235" />
  <path d="M 216 189 Q 225 192.392 234 189" fill="none" stroke="#00d9ff" stroke-width="2.03846" stroke-linecap="round" opacity="0.723529" />
  <path d="M 234 189 Q 243 194.081 252 189" fill="none" stroke="#00d9ff" stroke-width="2.03846" stroke-linecap="round" opacity="0.758824" />
  <path d="M 252 189 Q 261 195.083 270 189" fill="none" stroke="#00d9ff" stroke-width="2.03846" stroke-linecap="round" opacity="0.794118" />
  <path d="M 270 189 Q 279 195.264 288 189" fill="none" stroke="#00d9ff" stroke-width="2.03846" stroke-linecap="round" opacity="0.829412" />
  <path d="M 288 189 Q 297 194.599 306 189" fill="none" stroke="#00d9ff" stroke-width="2.03846" stroke-linecap="round" opacity="0.864706" />
  <path d="M 306 189 Q 315 193.178 324 189" fill="none" stroke="#00d9ff" stroke-width="2.03846" stroke-linecap="round" opacity="0.9" />
  <path d="M 0 207 Q 9 209.928 18 207" fill="none" stroke="#00d9ff" stroke-width="2.19231" stroke-linecap="round" opacity="0.3" />
  <path d="M 18 207 Q 27 207.715 36 207" fill="none" stroke="#00d9ff" stroke-width="2.19231" stroke-linecap="round" opacity="0.335294" />
  <path d="M 36 207 Q 45 205.406 54 207" fill="none" stroke="#00d9ff" stroke-width="2.19231" stroke-linecap="round" opacity="0.370588" />
  <path d="M 54 207 Q 63 203.311 72 207" fill="none" stroke="#00d9ff" stroke-width="2.19231" stroke-linecap="round" opacity="0.405882" />
  <path d="M 72 207 Q 81 201.716 90 207" fill="none" stroke="#00d9ff" stroke-width="2.19231" stroke-linecap="round" opacity="0.441176" />
  <path d="M 90 207 Q 99 200.833 108 207" fill="none" stroke="#00d9ff" stroke-width="2.19231" stroke-linecap="round" opacity="0.476471" />
  <path d="M 108 207 Q 117 200.784 126 207" fill="none" stroke="#00d9ff" stroke-width="2.19231" stroke-linecap="round" opacity="0.511765" />
  <path d="M 126 207 Q 135 201.574 144 207" fill="none" stroke="#00d9ff" stroke-width="2.19231" stroke-linecap="round" opacity="0.547059" />
  <path d="M 144 207 Q 153 203.097 162 207" fill="none" stroke="#00d9ff" stroke-width="2.19231" stroke-linecap="round" opacity="0.582353" />
  <path d="M 162 207 Q 171 205.147 180 207" fill="none" stroke="#00d9ff" stroke-width="2.19231" stroke-linecap="round" opacity="0.617647" />
  <path d="M 180 207 Q 189 207.447 198 207" fill="none" stroke="#00d9ff" stroke-width="2.19231" stroke-linecap="round" opacity="0.652941" />
  <path d="M 198 207 Q 207 209.687 216 207" fill="none" stroke="#00d9ff" stroke-width="2.19231" stroke-linecap="round" opacity="0.688235" />
  <path d="M 216 207 Q 225 211.564 234 207" fill="none" stroke="#00d9ff" stroke-width="2.19231" stroke-linecap="round" opacity="0.723529" />
  <path d="M 234 207 Q 243 212.825 252 207" fill="none" stroke="#00d9ff" stroke-width="2.19231" stroke-linecap="round" opacity="0.758824" />
  <path d="M 252 207 Q 261 213.299 270 207" fill="none" stroke="#00d9ff" stroke-width="2.19231" stroke-linecap="round" opacity="0.794118" />
  <path d="M 270 207 Q 279 212.922 288 207" fill="none" stroke="#00d9ff" stroke-width="2.19231" stroke-linecap="round" opacity="0.829412" />
  <path d="M 288 207 Q 297 211.745 306 207" fill="none" stroke="#00d9ff" stroke-width="2.19231" stroke-linecap="round" opacity="0.864706" />
  <path d="M 306 207 Q 315 209.928 324 207" fill="none" stroke="#00d9ff" stroke-width="2.19231" stroke-linecap="round" opacity="0.9" />
  <path d="M 0 225 Q 9 226.508 18 225" fill="none" stroke="#00d9ff" stroke-width="2.34615" stroke-linecap="round" opacity="0.3" />
  <path d="M 18 225 Q 27 224.196 36 225" fill="none" stroke="#00d9ff" stroke-width="2.34615" stroke-linecap="round" opacity="0.335294" />
  <path d="M 36 225 Q 45 221.993 54 225" fill="none" stroke="#00d9ff" stroke-width="2.34615" stroke-linecap="round" opacity="0.370588" />
  <path d="M 54 225 Q 63 220.196 72 225" fill="none" stroke="#00d9ff" stroke-width="2.34615" stroke-linecap="round" opacity="0.405882" />
  <path d="M 72 225 Q 81 219.048 90 225" fill="none" stroke="#00d9ff" stroke-width="2.34615" stroke-linecap="round" opacity="0.441176" />
  <path d="M 90 225 Q 99 218.704 108 225" fill="none" stroke="#00d9ff" stroke-width="2.34615" stroke-linecap="round" opacity="0.476471" />
  <path d="M 108 225 Q 117 219.21 126 225" fill="none" stroke="#00d9ff" stroke-width="2.34615" stroke-linecap="round" opacity="0.511765" />
  <path d="M 126 225 Q 135 220.498 144 225" fill="none" stroke="#00d9ff" stroke-width="2.34615" stroke-linecap="round" opacity="0.547059" />
  <path d="M 144 225 Q 153 222.394 162 225" fill="none" stroke="#00d9ff" stroke-width="2.34615" stroke-linecap="round" opacity="0.582353" />
  <path d="M 162 225 Q 171 224.642 180 225" fill="none" stroke="#00d9ff" stroke-width="2.34615" stroke-linecap="round" opacity="0.617647" />
  <path d="M 180 225 Q 189 226.938 198 225" fill="none" stroke="#00d9ff" stroke-width="2.34615" stroke-linecap="round" opacity="0.652941" />
  <path d="M 198 225 Q 207 228.973 216 225" fill="none" stroke="#00d9ff" stroke-width="2.34615" stroke-linecap="round" opacity="0.688235" />
  <path d="M 216 225 Q 225 230.471 234 225" fill="none" stroke="#00d9ff" stroke-width="2.34615" stroke-linecap="round" opacity="0.723529" />
  <path d="M 234 225 Q 243 231.23 252 225" fill="none" stroke="#00d9ff" stroke-width="2.34615" stroke-linecap="round" opacity="0.758824" />
  <path d="M 252 225 Q 261 231.148 270 225" fill="none" stroke="#00d9ff" stroke-width="2.34615" stroke-linecap="round" opacity="0.794118" />
  <path d="M 270 225 Q 279 230.235 288 225" fill="none" stroke="#00d9ff" stroke-width="2.34615" stroke-linecap="round" opacity="0.829412" />
  <path d="M 288 225 Q 297 228.616 306 225" fill="none" stroke="#00d9ff" stroke-width="2.34615" stroke-linecap="round" opacity="0.864706" />
  <path d="M 306 225 Q 315 226.508 324 225" fill="none" stroke="#00d9ff" stroke-width="2.34615" stroke-linecap="round" opacity="0.9" />
  <path d="M 0 243 Q 9 243 18 243" fill="none" stroke="#00d9ff" stroke-width="2.5" stroke-linecap="round" opacity="0.3" />
  <path d="M 18 243 Q 27 240.724 36 243" fill="none" stroke="#00d9ff" stroke-width="2.5" stroke-linecap="round" opacity="0.335294" />
  <path d="M 36 243 Q 45 238.756 54 243" fill="none" stroke="#00d9ff" stroke-width="2.5" stroke-linecap="round" opacity="0.370588" />
  <path d="M 54 243 Q 63 237.36 72 243" fill="none" stroke="#00d9ff" stroke-width="2.5" stroke-linecap="round" opacity="0.405882" />
  <path d="M 72 243 Q 81 236.727 90 243" fill="none" stroke="#00d9ff" stroke-width="2.5" stroke-linecap="round" opacity="0.441176" />
  <path d="M 90 243 Q 99 236.94 108 243" fill="none" stroke="#00d9ff" stroke-width="2.5" stroke-linecap="round" opacity="0.476471" />
  <path d="M 108 243 Q 117 237.972 126 243" fill="none" stroke="#00d9ff" stroke-width="2.5" stroke-linecap="round" opacity="0.511765" />
  <path d="M 126 243 Q 135 239.683 144 243" fill="none" stroke="#00d9ff" stroke-width="2.5" stroke-linecap="round" opacity="0.547059" />
  <path d="M 144 243 Q 153 241.842 162 243" fill="none" stroke="#00d9ff" stroke-width="2.5" stroke-linecap="round" opacity="0.582353" />
  <path d="M 162 243 Q 171 244.158 180 243" fill="none" stroke="#00d9ff" stroke-width="2.5" stroke-linecap="round" opacity="0.617647" />
  <path d="M 180 243 Q 189 246.317 198 243" fill="none" stroke="#00d9ff" stroke-width="2.5" stroke-linecap="round" opacity="0.652941" />
  <path d="M 198 243 Q 207 248.028 216 243" fill="none" stroke="#00d9ff" stroke-width="2.5" stroke-linecap="round" opacity="0.688235" />
  <path d="M 216 243 Q 225 249.06 234 243" fill="none" stroke="#00d9ff" stroke-width="2.5" stroke-linecap="round" opacity="0.723529" />
  <path d="M 234 243 Q 243 249.273 252 243" fill="none" stroke="#00d9ff" stroke-width="2.5" stroke-linecap="round" opacity="0.758824" />
  <path d="M 252 243 Q 261 248.64 270 243" fill="none" stroke="#00d9ff" stroke-width="2.5" stroke-linecap="round" opacity="0.794118" />
  <path d="M 270 243 Q 279 247.244 288 243" fill="none" stroke="#00d9ff" stroke-width="2.5" stroke-linecap="round" opacity="0.829412" />
  <path d="M 288 243 Q 297 245.276 306 243" fill="none" stroke="#00d9ff" stroke-width="2.5" stroke-linecap="round" opacity="0.864706" />
  <path d="M 306 243 Q 315 243 324 243" fill="none" stroke="#00d9ff" stroke-width="2.5" stroke-linecap="round" opacity="0.9" />
</svg>