<?xml version="1.0" encoding="UTF-8"?>
<svg xmlns="http://www.w3.org/2000/svg" width="360" height="360" viewBox="0 0 360 360">
  <rect width="100%" height="100%" fill="#0d0d0d" />
  <path d="M 18 180 C 19.6875 180.942 21.375 181.885 23.0625 182.809 C 24.75 183.734 26.4375 184.64 28.125 185.511 C 29.8125 186.381 31.5 187.217 33.1875 188 C 34.875 188.784 36.5625 189.516 38.25 190.182 C 39.9375 190.849 41.625 191.45 43.3125 191.973 C 45 192.497 46.6875 192.943 48.375 193.304 C 50.0625 193.665 51.75 193.939 53.4375 194.123 C 55.125 194.307 56.8125 194.4 58.5 194.4 C 60.1875 194.4 61.875 194.307 63.5625 194.123 C 65.25 193.939 66.9375 193.665 68.625 193.304 C 70.3125 192.943 72 192.497 73.6875 191.973 C 75.375 191.45 77.0625 190.849 78.75 190.182 C 80.4375 189.516 82.125 188.784 83.8125 188 C 85.5 187.217 87.1875 186.381 88.875 185.511 C 90.5625 184.64 92.25 183.734 93.9375 182.809 C 95.625 181.885 97.3125 180.942 99 180 C 100.688 179.058 102.375 178.115 104.062 177.191 C 105.75 176.266 107.437 175.36 109.125 174.489 C 110.813 173.619 112.5 172.783 114.187 172 C 115.875 171.216 117.562 170.484 119.25 169.818 C 120.938 169.151 122.625 168.55 124.312 168.027 C 126 167.503 127.687 167.057 129.375 166.696 C 131.063 166.335 132.75 166.061 134.438 165.877 C 136.125 165.693 137.813 165.6 139.5 165.6 C 141.187 165.6 142.875 165.693 144.562 165.877 C 146.25 166.061 147.937 166.335 149.625 166.696 C 151.313 167.057 153 167.503 154.687 168.027 C 156.375 168.55 158.062 169.151 159.75 169.818 C 161.438 170.484 163.125 171.216 164.812 172 C 166.5 172.783 168.188 173.619 169.875 174.489 C 171.562 175.36 173.25 176.266 174.938 177.191 C 176.625 178.115 178.313 179.058 180 180 C 181.687 180.942 183.375 181.885 185.062 182.809 C 186.75 183.734 188.438 184.64 190.125 185.511 C 191.812 186.381 193.5 187.217 195.187 188 C 196.875 188.784 198.562 189.516 200.25 190.182 C 201.938 190.849 203.625 191.45 205.312 191.973 C 207 192.497 208.688 192.943 210.375 193.304 C 212.062 193.665 213.75 193.939 215.437 194.123 C 217.125 194.307 218.812 194.4 220.5 194.4 C 222.188 194.4 223.875 194.307 225.562 194.123 C 227.25 193.939 228.938 193.665 230.625 193.304 C 232.312 192.943 234 192.497 235.688 191.973 C 237.375 191.45 239.062 190.849 240.75 190.182 C 242.438 189.516 244.125 188.784 245.812 188 C 247.5 187.217 249.187 186.381 250.875 185.511 C 252.563 184.64 254.25 183.734 255.938 182.809 C 257.625 181.885 259.313 180.942 261 180 C 262.687 179.058 264.375 178.115 266.062 177.191 C 267.75 176.266 269.437 175.36 271.125 174.489 C 272.813 173.619 274.5 172.783 276.188 172 C 277.875 171.216 279.563 170.484 281.25 169.818 C 282.937 169.151 284.625 168.55 286.312 168.027 C 288 167.503 289.688 167.057 291.375 166.696 C 293.062 166.335 294.75 166.061 296.438 165.877 C 298.125 165.693 299.812 165.6 301.5 165.6 C 303.188 165.6 304.875 165.693 306.562 165.877 C 308.25 166.061 309.938 166.335 311.625 166.696 C 313.312 167.057 315 167.503 316.688 168.027 C 318.375 168.55 320.062 169.151 321.75 169.818 C 323.438 170.484 325.125 171.216 326.812 172 C 328.5 172.783 330.188 173.619 331.875 174.489 C 333.562 175.36 335.25 176.266 336.938 177.191 C 338.625 178.115 340.312 179.058 342 180" fill="none" stroke="#ff00ff" stroke-width="1.5" stroke-linecap="round" stroke-linejoin="round" fill-opacity="0.8" stroke-opacity="0.8" />
  <path d="M 18 180 C 19.6875 181.914 21.375 183.829 23.0625 185.686 C 24.75 187.543 26.4375 189.342 28.125 191.031 C 29.8125 192.719 31.5 194.296 33.1875 195.714 C 34.875 197.133 36.5625 198.393 38.25 199.456 C 39.9375 200.52 41.625 201.387 43.3125 202.032 C 45 202.677 46.6875 203.1 48.375 203.287 C 50.0625 203.475 51.75 203.428 53.4375 203.147 C 55.125 202.866 56.8125 202.351 58.5 201.619 C 60.1875 200.886 61.875 199.935 63.5625 198.795 C 65.25 197.655 66.9375 196.325 68.625 194.845 C 70.3125 193.365 72 191.735 73.6875 190.005 C 75.375 188.274 77.0625 186.443 78.75 184.565 C 80.4375 182.687 82.125 180.764 83.8125 178.852 C 85.5 176.94 87.1875 175.039 88.875 173.207 C 90.5625 171.375 92.25 169.612 93.9375 167.97 C 95.625 166.328 97.3125 164.807 99 163.454 C 100.688 162.1 102.375 160.913 104.062 159.929 C 105.75 158.945 107.437 158.163 109.125 157.608 C 110.813 157.052 112.5 156.722 114.187 156.628 C 115.875 156.534 117.562 156.676 119.25 157.05 C 120.938 157.423 122.625 158.028 124.312 158.847 C 126 159.665 127.687 160.697 129.375 161.912 C 131.063 163.126 132.75 164.523 134.438 166.061 C 136.125 167.598 137.813 169.277 139.5 171.045 C 141.187 172.814 142.875 174.673 144.562 176.567 C 146.25 178.46 147.937 180.388 149.625 182.294 C 151.313 184.199 153 186.081 154.687 187.883 C 156.375 189.686 158.062 191.409 159.75 193 C 161.438 194.592 163.125 196.053 164.812 197.338 C 166.5 198.624 168.188 199.735 169.875 200.637 C 171.562 201.539 173.25 202.234 174.938 202.699 C 176.625 203.164 178.313 203.4 180 203.4 C 181.687 203.4 183.375 203.164 185.062 202.699 C 186.75 202.234 188.438 201.539 190.125 200.637 C 191.812 199.735 193.5 198.624 195.187 197.338 C 196.875 196.053 198.562 194.592 200.25 193 C 201.938 191.409 203.625 189.686 205.312 187.883 C 207 186.081 208.688 184.199 210.375 182.294 C 212.062 180.388 213.75 178.46 215.437 176.567 C 217.125 174.673 218.812 172.814 220.5 171.045 C 222.188 169.277 223.875 167.598 225.562 166.061 C 227.25 164.523 228.938 163.126 230.625 161.912 C 232.312 160.697 234 159.665 235.688 158.847 C 237.375 158.028 239.062 157.423 240.75 157.05 C 242.438 156.676 244.125 156.534 245.812 156.628 C 247.5 156.722 249.187 157.052 250.875 157.608 C 252.563 158.163 254.25 158.945 255.938 159.929 C 257.625 160.913 259.313 162.1 261 163.454 C 262.687 164.807 264.375 166.328 266.062 167.97 C 267.75 169.612 269.437 171.375 271.125 173.207 C 272.813 175.039 274.5 176.94 276.188 178.852 C 277.875 180.764 279.563 182.687 281.25 184.565 C 282.937 186.443 284.625 188.274 286.312 190.005 C 288 191.735 289.688 193.365 291.375 194.845 C 293.062 196.325 294.75 197.655 296.438 198.795 C 298.125 199.935 299.812 200.886 301.5 201.619 C 303.188 202.351 304.875 202.866 306.562 203.147 C 308.25 203.428 309.938 203.475 311.625 203.287 C 313.312 203.1 315 202.677 316.688 202.032 C 318.375 201.387 320.062 200.52 321.75 199.456 C 323.438 198.393 325.125 197.133 326.812 195.714 C 328.5 194.296 330.188 192.719 331.875 191.031 C 333.562 189.342 335.25 187.543 336.938 185.686 C 338.625 183.829 340.312 181.914 342 180" fill="none" stroke="#00ffff" stroke-width="1.5" stroke-linecap="round" stroke-linejoin="round" fill-opacity="0.72" stroke-opacity="0.72" />
  <path d="M 18 180 C 19.6875 183.181 21.375 186.361 23.0625 189.405 C 24.75 192.449 26.4375 195.356 28.125 198 C 29.8125 200.645 31.5 203.028 33.1875 205.046 C 34.875 207.063 36.5625 208.716 38.25 209.934 C 39.9375 211.151 41.625 211.932 43.3125 212.244 C 45 212.556 46.6875 212.398 48.375 211.777 C 50.0625 211.157 51.75 210.074 53.4375 208.574 C 55.125 207.075 56.8125 205.159 58.5 202.91 C 60.1875 200.661 61.875 198.079 63.5625 195.273 C 65.25 192.468 66.9375 189.441 68.625 186.321 C 70.3125 183.201 72 179.99 73.6875 176.824 C 75.375 173.659 77.0625 170.54 78.75 167.601 C 80.4375 164.662 82.125 161.904 83.8125 159.446 C 85.5 156.987 87.1875 154.828 88.875 153.06 C 90.5625 151.293 92.25 149.918 93.9375 148.995 C 95.625 148.072 97.3125 147.6 99 147.6 C 100.688 147.6 102.375 148.072 104.062 148.995 C 105.75 149.918 107.437 151.293 109.125 153.06 C 110.813 154.828 112.5 156.987 114.187 159.446 C 115.875 161.904 117.562 164.662 119.25 167.601 C 120.938 170.54 122.625 173.659 124.312 176.824 C 126 179.99 127.687 183.201 129.375 186.321 C 131.063 189.441 132.75 192.468 134.438 195.273 C 136.125 198.079 137.813 200.661 139.5 202.91 C 141.187 205.159 142.875 207.075 144.562 208.574 C 146.25 210.074 147.937 211.157 149.625 211.777 C 151.313 212.398 153 212.556 154.687 212.244 C 156.375 211.932 158.062 211.151 159.75 209.934 C 161.438 208.716 163.125 207.063 164.812 205.046 C 166.5 203.028 168.188 200.645 169.875 198 C 171.562 195.356 173.25 192.449 174.938 189.405 C 176.625 186.361 178.313 183.181 180 180 C 181.687 176.819 183.375 173.639 185.062 170.595 C 186.75 167.551 188.438 164.644 190.125 162 C 191.812 159.355 193.5 156.972 195.187 154.954 C 196.875 152.937 198.562 151.284 200.25 150.066 C 201.938 148.849 203.625 148.068 205.312 147.756 C 207 147.444 208.688 147.602 210.375 148.223 C 212.062 148.843 213.75 149.926 215.437 151.426 C 217.125 152.925 218.812 154.841 220.5 157.09 C 222.188 159.339 223.875 161.921 225.562 164.727 C 227.25 167.532 228.938 170.559 230.625 173.679 C 232.312 176.799 234 180.01 235.688 183.176 C 237.375 186.341 239.062 189.46 240.75 192.399 C 242.438 195.338 244.125 198.096 245.812 200.554 C 247.5 203.013 249.187 205.172 250.875 206.94 C 252.563 208.707 254.25 210.082 255.938 211.005 C 257.625 211.928 259.313 212.4 261 212.4 C 262.687 212.4 264.375 211.928 266.062 211.005 C 267.75 210.082 269.437 208.707 271.125 206.94 C 272.813 205.172 274.5 203.013 276.188 200.554 C 277.875 198.096 279.563 195.338 281.25 192.399 C 282.937 189.46 284.625 186.341 286.312 183.176 C 288 180.01 289.688 176.799 291.375 173.679 C 293.062 170.559 294.75 167.532 296.438 164.727 C 298.125 161.921 299.812 159.339 301.5 157.09 C 303.188 154.841 304.875 152.925 306.562 151.426 C 308.25 149.926 309.938 148.843 311.625 148.223 C 313.312 147.602 315 147.444 316.688 147.756 C 318.375 148.068 320.062 148.849 321.75 150.066 C 323.438 151.284 325.125 152.937 326.812 154.954 C 328.5 156.972 330.188 159.355 331.875 162 C 333.562 164.644 335.25 167.551 336.938 170.595 C 338.625 173.639 340.312 176.819 342 180" fill="none" stroke="#ff00ff" stroke-width="1.5" stroke-linecap="round" stroke-linejoin="round" fill-opacity="0.64" stroke-opacity="0.64" />
  <path d="M 18 180 C 19.6875 184.742 21.375 189.483 23.0625 193.947 C 24.75 198.412 26.4375 202.598 28.125 206.264 C 29.8125 209.929 31.5 213.072 33.1875 215.51 C 34.875 217.948 36.5625 219.679 38.25 220.605 C 39.9375 221.53 41.625 221.648 43.3125 220.952 C 45 220.256 46.6875 218.747 48.375 216.512 C 50.0625 214.276 51.75 211.316 53.4375 207.803 C 55.125 204.289 56.8125 200.224 58.5 195.843 C 60.1875 191.462 61.875 186.768 63.5625 182.031 C 65.25 177.295 66.9375 172.52 68.625 167.982 C 70.3125 163.445 72 159.147 73.6875 155.338 C 75.375 151.529 77.0625 148.212 78.75 145.577 C 80.4375 142.943 82.125 140.993 83.8125 139.841 C 85.5 138.689 87.1875 138.335 88.875 138.799 C 90.5625 139.264 92.25 140.547 93.9375 142.575 C 95.625 144.602 97.3125 147.373 99 150.726 C 100.688 154.079 102.375 158.013 104.062 162.299 C 105.75 166.586 107.437 171.223 109.125 175.942 C 110.813 180.661 112.5 185.46 114.187 190.059 C 115.875 194.659 117.562 199.058 119.25 203.001 C 120.938 206.943 122.625 210.428 124.312 213.253 C 126 216.078 127.687 218.241 129.375 219.617 C 131.063 220.994 132.75 221.583 134.438 221.35 C 136.125 221.117 137.813 220.063 139.5 218.249 C 141.187 216.434 142.875 213.86 144.562 210.675 C 146.25 207.491 147.937 203.698 149.625 199.516 C 151.313 195.334 153 190.765 154.687 186.075 C 156.375 181.384 158.062 176.574 159.75 171.923 C 161.438 167.273 163.125 162.783 164.812 158.716 C 166.5 154.649 168.188 151.006 169.875 147.997 C 171.562 144.989 173.25 142.618 174.938 141.02 C 176.625 139.423 178.313 138.6 180 138.6 C 181.687 138.6 183.375 139.423 185.062 141.02 C 186.75 142.618 188.438 144.989 190.125 147.997 C 191.812 151.006 193.5 154.649 195.187 158.716 C 196.875 162.783 198.562 167.273 200.25 171.923 C 201.938 176.574 203.625 181.384 205.312 186.075 C 207 190.765 208.688 195.334 210.375 199.516 C 212.062 203.698 213.75 207.491 215.437 210.675 C 217.125 213.86 218.812 216.434 220.5 218.249 C 222.188 220.063 223.875 221.117 225.562 221.35 C 227.25 221.583 228.938 220.994 230.625 219.617 C 232.312 218.241 234 216.078 235.688 213.253 C 237.375 210.428 239.062 206.943 240.75 203.001 C 242.438 199.058 244.125 194.659 245.812 190.059 C 247.5 185.46 249.187 180.661 250.875 175.942 C 252.563 171.223 254.25 166.586 255.938 162.299 C 257.625 158.013 259.313 154.079 261 150.726 C 262.687 147.373 264.375 144.602 266.062 142.575 C 267.75 140.547 269.437 139.264 271.125 138.799 C 272.813 138.335 274.5 138.689 276.188 139.841 C 277.875 140.993 279.563 142.943 281.25 145.577 C 282.937 148.212 284.625 151.529 286.312 155.338 C 288 159.147 289.688 163.445 291.375 167.982 C 293.062 172.52 294.75 177.295 296.438 182.031 C 298.125 186.768 299.812 191.462 301.5 195.843 C 303.188 200.224 304.875 204.289 306.562 207.803 C 308.25 211.316 309.938 214.276 311.625 216.512 C 313.312 218.747 315 220.256 316.688 220.952 C 318.375 221.648 320.062 221.53 321.75 220.605 C 323.438 219.679 325.125 217.948 326.812 215.51 C 328.5 213.072 330.188 209.929 331.875 206.264 C 333.562 202.598 335.25 198.412 336.938 193.947 C 338.625 189.483 340.312 184.742 342 180" fill="none" stroke="#00ffff" stroke-width="1.5" stroke-linecap="round" stroke-linejoin="round" fill-opacity="0.56" stroke-opacity="0.56" />
  <path d="M 18 180 C 19.6875 186.597 21.375 193.192 23.0625 199.287 C 24.75 205.382 26.4375 210.973 28.125 215.638 C 29.8125 220.303 31.5 224.039 33.1875 226.564 C 34.875 229.088 36.5625 230.4 38.25 230.4 C 39.9375 230.4 41.625 229.088 43.3125 226.564 C 45 224.039 46.6875 220.303 48.375 215.638 C 50.0625 210.973 51.75 205.382 53.4375 199.287 C 55.125 193.192 56.8125 186.597 58.5 180 C 60.1875 173.403 61.875 166.808 63.5625 160.713 C 65.25 154.618 66.9375 149.027 68.625 144.362 C 70.3125 139.697 72 135.961 73.6875 133.436 C 75.375 130.912 77.0625 129.6 78.75 129.6 C 80.4375 129.6 82.125 130.912 83.8125 133.436 C 85.5 135.961 87.1875 139.697 88.875 144.362 C 90.5625 149.027 92.25 154.618 93.9375 160.713 C 95.625 166.808 97.3125 173.403 99 180 C 100.688 186.597 102.375 193.192 104.062 199.287 C 105.75 205.382 107.437 210.973 109.125 215.638 C 110.813 220.303 112.5 224.039 114.187 226.564 C 115.875 229.088 117.562 230.4 119.25 230.4 C 120.938 230.4 122.625 229.088 124.312 226.564 C 126 224.039 127.687 220.303 129.375 215.638 C 131.063 210.973 132.75 205.382 134.438 199.287 C 136.125 193.192 137.813 186.597 139.5 180 C 141.187 173.403 142.875 166.808 144.562 160.713 C 146.25 154.618 147.937 149.027 149.625 144.362 C 151.313 139.697 153 135.961 154.687 133.436 C 156.375 130.912 158.062 129.6 159.75 129.6 C 161.438 129.6 163.125 130.912 164.812 133.436 C 166.5 135.961 168.188 139.697 169.875 144.362 C 171.562 149.027 173.25 154.618 174.938 160.713 C 176.625 166.808 178.313 173.403 180 180 C 181.687 186.597 183.375 193.192 185.062 199.287 C 186.75 205.382 188.438 210.973 190.125 215.638 C 191.812 220.303 193.5 224.039 195.187 226.564 C 196.875 229.088 198.562 230.4 200.25 230.4 C 201.938 230.4 203.625 229.088 205.312 226.564 C 207 224.039 208.688 220.303 210.375 215.638 C 212.062 210.973 213.75 205.382 215.437 199.287 C 217.125 193.192 218.812 186.597 220.5 180 C 222.188 173.403 223.875 166.808 225.562 160.713 C 227.25 154.618 228.938 149.027 230.625 144.362 C 232.312 139.697 234 135.961 235.688 133.436 C 237.375 130.912 239.062 129.6 240.75 129.6 C 242.438 129.6 244.125 130.912 245.812 133.436 C 247.5 135.961 249.187 139.697 250.875 144.362 C 252.563 149.027 254.25 154.618 255.938 160.713 C 257.625 166.808 259.313 173.403 261 180 C 262.687 186.597 264.375 193.192 266.062 199.287 C 267.75 205.382 269.437 210.973 271.125 215.638 C 272.813 220.303 274.5 224.039 276.188 226.564 C 277.875 229.088 279.563 230.4 281.25 230.4 C 282.937 230.4 284.625 229.088 286.312 226.564 C 288 224.039 289.688 220.303 291.375 215.638 C 293.062 210.973 294.75 205.382 296.438 199.287 C 298.125 193.192 299.812 186.597 301.5 180 C 303.188 173.403 304.875 166.808 306.562 160.713 C 308.25 154.618 309.938 149.027 311.625 144.362 C 313.312 139.697 315 135.961 316.688 133.436 C 318.375 130.912 320.062 129.6 321.75 129.6 C 323.438 129.6 325.125 130.912 326.812 133.436 C 328.5 135.961 330.188 139.697 331.875 144.362 C 333.562 149.027 335.25 154.618 336.938 160.713 C 338.625 166.808 340.312 173.403 342 180" fill="none" stroke="#ff00ff" stroke-width="1.5" stroke-linecap="round" stroke-linejoin="round" fill-opacity="0.48" stroke-opacity="0.48" />
  <path d="M 18 180 C 19.6875 188.747 21.375 197.489 23.0625 205.397 C 24.75 213.304 26.4375 220.368 28.125 225.917 C 29.8125 231.466 31.5 235.494 33.1875 237.62 C 34.875 239.745 36.5625 239.965 38.25 238.259 C 39.9375 236.552 41.625 232.921 43.3125 227.711 C 45 222.5 46.6875 215.715 48.375 208.001 C 50.0625 200.286 51.75 191.651 53.4375 182.915 C 55.125 174.178 56.8125 165.35 58.5 157.269 C 60.1875 149.187 61.875 141.862 63.5625 135.988 C 65.25 130.113 66.9375 125.697 68.625 123.158 C 70.3125 120.619 72 119.959 73.6875 121.243 C 75.375 122.526 77.0625 125.751 78.75 130.611 C 80.4375 135.47 82.125 141.959 83.8125 149.462 C 85.5 156.965 87.1875 165.473 88.875 174.178 C 90.5625 182.883 92.25 191.775 93.9375 200.011 C 95.625 208.247 97.3125 215.817 99 222.002 C 100.688 228.187 102.375 232.981 104.062 235.928 C 105.75 238.875 107.437 239.971 109.125 239.114 C 110.813 238.257 112.5 235.446 114.187 230.949 C 115.875 226.452 117.562 220.274 119.25 213.001 C 120.938 205.728 122.625 197.368 124.312 188.716 C 126 180.063 127.687 171.128 129.375 162.757 C 131.063 154.386 132.75 146.591 134.438 140.109 C 136.125 133.628 137.813 128.469 139.5 125.122 C 141.187 121.774 142.875 120.242 144.562 120.672 C 146.25 121.101 147.937 123.49 149.625 127.614 C 151.313 131.737 153 137.59 154.687 144.615 C 156.375 151.641 158.062 159.832 159.75 168.412 C 161.438 176.991 163.125 185.948 164.812 194.433 C 166.5 202.918 168.188 210.921 169.875 217.683 C 171.562 224.445 173.25 229.957 174.938 233.697 C 176.625 237.437 178.313 239.4 180 239.4 C 181.687 239.4 183.375 237.437 185.062 233.697 C 186.75 229.957 188.438 224.445 190.125 217.683 C 191.812 210.921 193.5 202.918 195.187 194.433 C 196.875 185.948 198.562 176.991 200.25 168.412 C 201.938 159.832 203.625 151.641 205.312 144.615 C 207 137.59 208.688 131.737 210.375 127.614 C 212.062 123.49 213.75 121.101 215.437 120.672 C 217.125 120.242 218.812 121.774 220.5 125.122 C 222.188 128.469 223.875 133.628 225.562 140.109 C 227.25 146.591 228.938 154.386 230.625 162.757 C 232.312 171.128 234 180.063 235.688 188.716 C 237.375 197.368 239.062 205.728 240.75 213.001 C 242.438 220.274 244.125 226.452 245.812 230.949 C 247.5 235.446 249.187 238.257 250.875 239.114 C 252.563 239.971 254.25 238.875 255.938 235.928 C 257.625 232.981 259.313 228.187 261 222.002 C 262.687 215.817 264.375 208.247 266.062 200.011 C 267.75 191.775 269.437 182.883 271.125 174.178 C 272.813 165.473 274.5 156.965 276.188 149.462 C 277.875 141.959 279.563 135.47 281.25 130.611 C 282.937 125.751 284.625 122.526 286.312 121.243 C 288 119.959 289.688 120.619 291.375 123.158 C 293.062 125.697 294.75 130.113 296.438 135.988 C 298.125 141.862 299.812 149.187 301.5 157.269 C 303.188 165.35 304.875 174.178 306.562 182.915 C 308.25 191.651 309.938 200.286 311.625 208.001 C 313.312 215.715 315 222.5 316.688 227.711 C 318.375 232.921 320.062 236.552 321.75 238.259 C 323.438 239.965 325.125 239.745 326.812 237.62 C 328.5 235.494 330.188 231.466 331.875 225.917 C 333.562 220.368 335.25 213.304 336.938 205.397 C 338.625 197.489 340.312 188.747 342 180" fill="none" stroke="#00ffff" stroke-width="1.5" stroke-linecap="round" stroke-linejoin="round" fill-opacity="0.4" stroke-opacity="0.4" />
  <path d="M 18 180 C 19.6875 191.192 21.375 202.373 23.0625 212.244 C 24.75 222.114 26.4375 230.655 28.125 236.873 C 29.8125 243.09 31.5 246.974 33.1875 248.071 C 34.875 249.168 36.5625 247.476 38.25 243.193 C 39.9375 238.91 41.625 232.044 43.3125 223.393 C 45 214.741 46.6875 204.321 48.375 193.344 C 50.0625 182.367 51.75 170.855 53.4375 160.145 C 55.125 149.435 56.8125 139.548 58.5 131.634 C 60.1875 123.72 61.875 117.794 63.5625 114.545 C 65.25 111.296 66.9375 110.731 68.625 112.914 C 70.3125 115.098 72 120.026 73.6875 127.126 C 75.375 134.226 77.0625 143.484 78.75 153.824 C 80.4375 164.164 82.125 175.566 83.8125 186.704 C 85.5 197.842 87.1875 208.695 88.875 218.001 C 90.5625 227.307 92.25 235.048 93.9375 240.323 C 95.625 245.599 97.3125 248.4 99 248.4 C 100.688 248.4 102.375 245.599 104.062 240.323 C 105.75 235.048 107.437 227.307 109.125 218.001 C 110.813 208.695 112.5 197.842 114.187 186.704 C 115.875 175.566 117.562 164.164 119.25 153.824 C 120.938 143.484 122.625 134.226 124.312 127.126 C 126 120.026 127.687 115.098 129.375 112.914 C 131.063 110.731 132.75 111.296 134.438 114.545 C 136.125 117.794 137.813 123.72 139.5 131.634 C 141.187 139.548 142.875 149.435 144.562 160.145 C 146.25 170.855 147.937 182.367 149.625 193.344 C 151.313 204.321 153 214.741 154.687 223.393 C 156.375 232.044 158.062 238.91 159.75 243.193 C 161.438 247.476 163.125 249.168 164.812 248.071 C 166.5 246.974 168.188 243.09 169.875 236.873 C 171.562 230.655 173.25 222.114 174.938 212.244 C 176.625 202.373 178.313 191.192 180 180 C 181.687 168.808 183.375 157.627 185.062 147.756 C 186.75 137.886 188.438 129.345 190.125 123.127 C 191.812 116.91 193.5 113.026 195.187 111.929 C 196.875 110.832 198.562 112.524 200.25 116.807 C 201.938 121.09 203.625 127.956 205.312 136.607 C 207 145.259 208.688 155.679 210.375 166.656 C 212.062 177.633 213.75 189.145 215.437 199.855 C 217.125 210.565 218.812 220.452 220.5 228.366 C 222.188 236.28 223.875 242.206 225.562 245.455 C 227.25 248.704 228.938 249.269 230.625 247.086 C 232.312 244.902 234 239.974 235.688 232.874 C 237.375 225.774 239.062 216.516 240.75 206.176 C 242.438 195.836 244.125 184.434 245.812 173.296 C 247.5 162.158 249.187 151.305 250.875 141.999 C 252.563 132.693 254.25 124.952 255.938 119.677 C 257.625 114.401 259.313 111.6 261 111.6 C 262.687 111.6 264.375 114.401 266.062 119.677 C 267.75 124.952 269.437 132.693 271.125 141.999 C 272.813 151.305 274.5 162.158 276.188 173.296 C 277.875 184.434 279.563 195.836 281.25 206.176 C 282.937 216.516 284.625 225.774 286.312 232.874 C 288 239.974 289.688 244.902 291.375 247.086 C 293.062 249.269 294.75 248.704 296.438 245.455 C 298.125 242.206 299.812 236.28 301.5 228.366 C 303.188 220.452 304.875 210.565 306.562 199.855 C 308.25 189.145 309.938 177.633 311.625 166.656 C 313.312 155.679 315 145.259 316.688 136.607 C 318.375 127.956 320.062 121.09 321.75 116.807 C 323.438 112.524 325.125 110.832 326.812 111.929 C 328.5 113.026 330.188 116.91 331.875 123.127 C 333.562 129.345 335.25 137.886 336.938 147.756 C 338.625 157.627 340.312 168.808 342 180" fill="none" stroke="#ff00ff" stroke-width="1.5" stroke-linecap="round" stroke-linejoin="round" fill-opacity="0.32" stroke-opacity="0.32" />
  <path d="M 18 180 C 19.6875 193.931 21.375 207.843 23.0625 219.792 C 24.75 231.741 26.4375 241.694 28.125 248.261 C 29.8125 254.828 31.5 257.99 33.1875 257.307 C 34.875 256.623 36.5625 252.095 38.25 244.356 C 39.9375 236.616 41.625 225.686 43.3125 213.093 C 45 200.499 46.6875 186.277 48.375 172.413 C 50.0625 158.55 51.75 145.082 53.4375 133.893 C 55.125 122.703 56.8125 113.823 58.5 108.492 C 60.1191 103.377 61.875 101.394 63.5625 103.438 C 65.25 105.482 66.9375 111.331 68.625 120.169 C 70.3125 129.007 72 140.808 73.6875 153.925 C 75.375 167.041 77.0625 181.437 78.75 195.1 C 80.4375 208.763 82.125 221.656 83.8125 231.979 C 85.5 242.301 87.1875 250.023 88.875 254.067 C 90.3662 257.641 92.25 258.465 93.9375 255.08 C 95.625 251.695 97.3125 244.581 99 234.73 C 100.688 224.879 102.375 212.32 104.062 198.807 C 105.75 185.293 107.437 170.863 109.125 157.532 C 110.813 144.201 112.5 132.006 114.187 122.65 C 115.875 113.295 117.562 106.805 119.25 104.087 C 120.938 101.369 122.814 102.958 124.312 107.124 C 126 111.818 127.687 120.129 129.375 130.898 C 131.063 141.667 132.75 154.863 134.438 168.643 C 136.125 182.423 137.813 196.749 139.5 209.62 C 141.187 222.49 142.875 233.87 144.562 242.168 C 146.25 250.467 147.937 255.662 149.625 257.027 C 151.313 258.393 153 255.925 154.687 249.969 C 156.375 244.013 158.062 234.584 159.75 223.001 C 161.438 211.418 163.125 197.712 164.812 183.798 C 166.5 169.884 168.188 155.8 169.875 143.514 C 171.562 131.228 173.25 120.774 174.938 113.612 C 176.625 106.45 178.313 102.6 180 102.6 C 181.687 102.6 183.375 106.45 185.062 113.612 C 186.75 120.774 188.438 131.228 190.125 143.514 C 191.812 155.8 193.5 169.884 195.187 183.798 C 196.875 197.712 198.562 211.418 200.25 223.001 C 201.938 234.584 203.625 244.013 205.312 249.969 C 207 255.925 208.688 258.393 210.375 257.027 C 212.062 255.662 213.75 250.467 215.437 242.168 C 217.125 233.87 218.812 222.49 220.5 209.62 C 222.188 196.749 223.875 182.423 225.562 168.643 C 227.25 154.863 228.938 141.667 230.625 130.898 C 232.312 120.129 234 111.818 235.688 107.124 C 237.186 102.958 239.062 101.369 240.75 104.087 C 242.438 106.805 244.125 113.295 245.812 122.65 C 247.5 132.006 249.187 144.201 250.875 157.532 C 252.563 170.863 254.25 185.293 255.938 198.807 C 257.625 212.32 259.313 224.879 261 234.73 C 262.687 244.581 264.375 251.695 266.062 255.08 C 267.75 258.465 269.634 257.641 271.125 254.067 C 272.813 250.023 274.5 242.301 276.188 231.979 C 277.875 221.656 279.563 208.763 281.25 195.1 C 282.937 181.437 284.625 167.041 286.312 153.925 C 288 140.808 289.688 129.007 291.375 120.169 C 293.062 111.331 294.75 105.482 296.438 103.438 C 298.125 101.394 299.881 103.377 301.5 108.492 C 303.188 113.823 304.875 122.703 306.562 133.893 C 308.25 145.082 309.938 158.55 311.625 172.413 C 313.312 186.277 315 200.499 316.688 213.093 C 318.375 225.686 320.062 236.616 321.75 244.356 C 323.438 252.095 325.125 256.623 326.812 257.307 C 328.5 257.99 330.188 254.828 331.875 248.261 C 333.562 241.694 335.25 231.741 336.938 219.792 C 338.625 207.843 340.312 193.931 342 180" fill="none" stroke="#00ffff" stroke-width="1.5" stroke-linecap="round" stroke-linejoin="round" fill-opacity="0.24" stroke-opacity="0.24" />
</svg>