<?xml version="1.0" encoding="UTF-8"?>
<svg xmlns="http://www.w3.org/2000/svg" width="320" height="240" viewBox="0 0 320 240">
  <rect width="100%" height="100%" fill="#fafafa" />
  <line x1="2" y1="2" x2="18" y2="18" stroke="#2c3e50" stroke-width="0.5" stroke-linecap="round" opacity="0.3" />
  <line x1="18" y1="2" x2="2" y2="18" stroke="#7f8c8d" stroke-width="1.3" stroke-linecap="round" opacity="0.5" />
  <line x1="22" y1="2" x2="38" y2="18" stroke="#2c3e50" stroke-width="0.55" stroke-linecap="round" opacity="0.313333" />
  <line x1="38" y1="2" x2="22" y2="18" stroke="#7f8c8d" stroke-width="1.26667" stroke-linecap="round" opacity="0.49" />
  <line x1="42" y1="2" x2="58" y2="18" stroke="#2c3e50" stroke-width="0.6" stroke-linecap="round" opacity="0.326667" />
  <line x1="58" y1="2" x2="42" y2="18" stroke="#7f8c8d" stroke-width="1.23333" stroke-linecap="round" opacity="0.48" />
  <line x1="62" y1="2" x2="78" y2="18" stroke="#2c3e50" stroke-width="0.65" stroke-linecap="round" opacity="0.34" />
  <line x1="78" y1="2" x2="62" y2="18" stroke="#7f8c8d" stroke-width="1.2" stroke-linecap="round" opacity="0.47" />
  <line x1="82" y1="2" x2="98" y2="18" stroke="#2c3e50" stroke-width="0.7" stroke-linecap="round" opacity="0.353333" />
  <line x1="98" y1="2" x2="82" y2="18" stroke="#7f8c8d" stroke-width="1.16667" stroke-linecap="round" opacity="0.46" />
  <line x1="102" y1="2" x2="118" y2="18" stroke="#2c3e50" stroke-width="0.75" stroke-linecap="round" opacity="0.366667" />
  <line x1="118" y1="2" x2="102" y2="18" stroke="#7f8c8d" stroke-width="1.13333" stroke-linecap="round" opacity="0.45" />
  <line x1="122" y1="2" x2="138" y2="18" stroke="#2c3e50" stroke-width="0.8" stroke-linecap="round" opacity="0.38" />
  <line x1="138" y1="2" x2="122" y2="18" stroke="#7f8c8d" stroke-width="1.1" stroke-linecap="round" opacity="0.44" />
  <line x1="142" y1="2" x2="158" y2="18" stroke="#2c3e50" stroke-width="0.85" stroke-linecap="round" opacity="0.393333" />
  <line x1="158" y1="2" x2="142" y2="18" stroke="#7f8c8d" stroke-width="1.06667" stroke-linecap="round" opacity="0.43" />
  <line x1="162" y1="2" x2="178" y2="18" stroke="#2c3e50" stroke-width="0.9" stroke-linecap="round" opacity="0.406667" />
  <line x1="178" y1="2" x2="162" y2="18" stroke="#7f8c8d" stroke-width="1.03333" stroke-linecap="round" opacity="0.42" />
  <line x1="182" y1="2" x2="198" y2="18" stroke="#2c3e50" stroke-width="0.95" stroke-linecap="round" opacity="0.42" />
  <line x1="198" y1="2" x2="182" y2="18" stroke="#7f8c8d" stroke-width="1" stroke-linecap="round" opacity="0.41" />
  <line x1="202" y1="2" x2="218" y2="18" stroke="#2c3e50" stroke-width="1" stroke-linecap="round" opacity="0.433333" />
  <line x1="218" y1="2" x2="202" y2="18" stroke="#7f8c8d" stroke-width="0.966667" stroke-linecap="round" opacity="0.4" />
  <line x1="222" y1="2" x2="238" y2="18" stroke="#2c3e50" stroke-width="1.05" stroke-linecap="round" opacity="0.446667" />
  <line x1="238" y1="2" x2="222" y2="18" stroke="#7f8c8d" stroke-width="0.933333" stroke-linecap="round" opacity="0.39" />
  <line x1="242" y1="2" x2="258" y2="18" stroke="#2c3e50" stroke-width="1.1" stroke-linecap="round" opacity="0.46" />
  <line x1="258" y1="2" x2="242" y2="18" stroke="#7f8c8d" stroke-width="0.9" stroke-linecap="round" opacity="0.38" />
  <line x1="262" y1="2" x2="278" y2="18" stroke="#2c3e50" stroke-width="1.15" stroke-linecap="round" opacity="0.473333" />
  <line x1="278" y1="2" x2="262" y2="18" stroke="#7f8c8d" stroke-width="0.866667" stroke-linecap="round" opacity="0.37" />
  <line x1="282" y1="2" x2="298" y2="18" stroke="#2c3e50" stroke-width="1.2" stroke-linecap="round" opacity="0.486667" />
  <line x1="298" y1="2" x2="282" y2="18" stroke="#7f8c8d" stroke-width="0.833333" stroke-linecap="round" opacity="0.36" />
  <line x1="302" y1="2" x2="318" y2="18" stroke="#2c3e50" stroke-width="1.25" stroke-linecap="round" opacity="0.5" />
  <line x1="318" y1="2" x2="302" y2="18" stroke="#7f8c8d" stroke-width="0.8" stroke-linecap="round" opacity="0.35" />
  <line x1="2" y1="22" x2="18" y2="38" stroke="#2c3e50" stroke-width="0.568182" stroke-linecap="round" opacity="0.318182" />
  <line x1="18" y1="22" x2="2" y2="38" stroke="#7f8c8d" stroke-width="1.25455" stroke-linecap="round" opacity="0.486364" />
  <line x1="22" y1="22" x2="38" y2="38" stroke="#2c3e50" stroke-width="0.618182" stroke-linecap="round" opacity="0.331515" />
  <line x1="38" y1="22" x2="22" y2="38" stroke="#7f8c8d" stroke-width="1.22121" stroke-linecap="round" opacity="0.476364" />
  <line x1="42" y1="22" x2="58" y2="38" stroke="#2c3e50" stroke-width="0.668182" stroke-linecap="round" opacity="0.344848" />
  <line x1="58" y1="22" x2="42" y2="38" stroke="#7f8c8d" stroke-width="1.18788" stroke-linecap="round" opacity="0.466364" />
  <line x1="62" y1="22" x2="78" y2="38" stroke="#2c3e50" stroke-width="0.718182" stroke-linecap="round" opacity="0.358182" />
  <line x1="78" y1="22" x2="62" y2="38" stroke="#7f8c8d" stroke-width="1.15455" stroke-linecap="round" opacity="0.456364" />
  <line x1="82" y1="22" x2="98" y2="38" stroke="#2c3e50" stroke-width="0.768182" stroke-linecap="round" opacity="0.371515" />
  <line x1="98" y1="22" x2="82" y2="38" stroke="#7f8c8d" stroke-width="1.12121" stroke-linecap="round" opacity="0.446364" />
  <line x1="102" y1="22" x2="118" y2="38" stroke="#2c3e50" stroke-width="0.818182" stroke-linecap="round" opacity="0.384848" />
  <line x1="118" y1="22" x2="102" y2="38" stroke="#7f8c8d" stroke-width="1.08788" stroke-linecap="round" opacity="0.436364" />
  <line x1="122" y1="22" x2="138" y2="38" stroke="#2c3e50" stroke-width="0.868182" stroke-linecap="round" opacity="0.398182" />
  <line x1="138" y1="22" x2="122" y2="38" stroke="#7f8c8d" stroke-width="1.05455" stroke-linecap="round" opacity="0.426364" />
  <line x1="142" y1="22" x2="158" y2="38" stroke="#2c3e50" stroke-width="0.918182" stroke-linecap="round" opacity="0.411515" />
  <line x1="158" y1="22" x2="142" y2="38" stroke="#7f8c8d" stroke-width="1.02121" stroke-linecap="round" opacity="0.416364" />
  <line x1="162" y1="22" x2="178" y2="38" stroke="#2c3e50" stroke-width="0.968182" stroke-linecap="round" opacity="0.424848" />
  <line x1="178" y1="22" x2="162" y2="38" stroke="#7f8c8d" stroke-width="0.987879" stroke-linecap="round" opacity="0.406364" />
  <line x1="182" y1="22" x2="198" y2="38" stroke="#2c3e50" stroke-width="1.01818" stroke-linecap="round" opacity="0.438182" />
  <line x1="198" y1="22" x2="182" y2="38" stroke="#7f8c8d" stroke-width="0.954545" stroke-linecap="round" opacity="0.396364" />
  <line x1="202" y1="22" x2="218" y2="38" stroke="#2c3e50" stroke-width="1.06818" stroke-linecap="round" opacity="0.451515" />
  <line x1="218" y1="22" x2="202" y2="38" stroke="#7f8c8d" stroke-width="0.921212" stroke-linecap="round" opacity="0.386364" />
  <line x1="222" y1="22" x2="238" y2="38" stroke="#2c3e50" stroke-width="1.11818" stroke-linecap="round" opacity="0.464848" />
  <line x1="238" y1="22" x2="222" y2="38" stroke="#7f8c8d" stroke-width="0.887879" stroke-linecap="round" opacity="0.376364" />
  <line x1="242" y1="22" x2="258" y2="38" stroke="#2c3e50" stroke-width="1.16818" stroke-linecap="round" opacity="0.478182" />
  <line x1="258" y1="22" x2="242" y2="38" stroke="#7f8c8d" stroke-width="0.854545" stroke-linecap="round" opacity="0.366364" />
  <line x1="262" y1="22" x2="278" y2="38" stroke="#2c3e50" stroke-width="1.21818" stroke-linecap="round" opacity="0.491515" />
  <line x1="278" y1="22" x2="262" y2="38" stroke="#7f8c8d" stroke-width="0.821212" stroke-linecap="round" opacity="0.356364" />
  <line x1="282" y1="22" x2="298" y2="38" stroke="#2c3e50" stroke-width="1.26818" stroke-linecap="round" opacity="0.504848" />
  <line x1="298" y1="22" x2="282" y2="38" stroke="#7f8c8d" stroke-width="0.787879" stroke-linecap="round" opacity="0.346364" />
  <line x1="302" y1="22" x2="318" y2="38" stroke="#2c3e50" stroke-width="1.31818" stroke-linecap="round" opacity="0.518182" />
  <line x1="318" y1="22" x2="302" y2="38" stroke="#7f8c8d" stroke-width="0.754545" stroke-linecap="round" opacity="0.336364" />
  <line x1="2" y1="42" x2="18" y2="58" stroke="#2c3e50" stroke-width="0.636364" stroke-linecap="round" opacity="0.336364" />
  <line x1="18" y1="42" x2="2" y2="58" stroke="#7f8c8d" stroke-width="1.20909" stroke-linecap="round" opacity="0.472727" />
  <line x1="22" y1="42" x2="38" y2="58" stroke="#2c3e50" stroke-width="0.686364" stroke-linecap="round" opacity="0.349697" />
  <line x1="38" y1="42" x2="22" y2="58" stroke="#7f8c8d" stroke-width="1.17576" stroke-linecap="round" opacity="0.462727" />
  <line x1="42" y1="42" x2="58" y2="58" stroke="#2c3e50" stroke-width="0.736364" stroke-linecap="round" opacity="0.36303" />
  <line x1="58" y1="42" x2="42" y2="58" stroke="#7f8c8d" stroke-width="1.14242" stroke-linecap="round" opacity="0.452727" />
  <line x1="62" y1="42" x2="78" y2="58" stroke="#2c3e50" stroke-width="0.786364" stroke-linecap="round" opacity="0.376364" />
  <line x1="78" y1="42" x2="62" y2="58" stroke="#7f8c8d" stroke-width="1.10909" stroke-linecap="round" opacity="0.442727" />
  <line x1="82" y1="42" x2="98" y2="58" stroke="#2c3e50" stroke-width="0.836364" stroke-linecap="round" opacity="0.389697" />
  <line x1="98" y1="42" x2="82" y2="58" stroke="#7f8c8d" stroke-width="1.07576" stroke-linecap="round" opacity="0.432727" />
  <line x1="102" y1="42" x2="118" y2="58" stroke="#2c3e50" stroke-width="0.886364" stroke-linecap="round" opacity="0.40303" />
  <line x1="118" y1="42" x2="102" y2="58" stroke="#7f8c8d" stroke-width="1.04242" stroke-linecap="round" opacity="0.422727" />
  <line x1="122" y1="42" x2="138" y2="58" stroke="#2c3e50" stroke-width="0.936364" stroke-linecap="round" opacity="0.416364" />
  <line x1="138" y1="42" x2="122" y2="58" stroke="#7f8c8d" stroke-width="1.00909" stroke-linecap="round" opacity="0.412727" />
  <line x1="142" y1="42" x2="158" y2="58" stroke="#2c3e50" stroke-width="0.986364" stroke-linecap="round" opacity="0.429697" />
  <line x1="158" y1="42" x2="142" y2="58" stroke="#7f8c8d" stroke-width="0.975758" stroke-linecap="round" opacity="0.402727" />
  <line x1="162" y1="42" x2="178" y2="58" stroke="#2c3e50" stroke-width="1.03636" stroke-linecap="round" opacity="0.44303" />
  <line x1="178" y1="42" x2="162" y2="58" stroke="#7f8c8d" stroke-width="0.942424" stroke-linecap="round" opacity="0.392727" />
  <line x1="182" y1="42" x2="198" y2="58" stroke="#2c3e50" stroke-width="1.08636" stroke-linecap="round" opacity="0.456364" />
  <line x1="198" y1="42" x2="182" y2="58" stroke="#7f8c8d" stroke-width="0.909091" stroke-linecap="round" opacity="0.382727" />
  <line x1="202" y1="42" x2="218" y2="58" stroke="#2c3e50" stroke-width="1.13636" stroke-linecap="round" opacity="0.469697" />
  <line x1="218" y1="42" x2="202" y2="58" stroke="#7f8c8d" stroke-width="0.875758" stroke-linecap="round" opacity="0.372727" />
  <line x1="222" y1="42" x2="238" y2="58" stroke="#2c3e50" stroke-width="1.18636" stroke-linecap="round" opacity="0.48303" />
  <line x1="238" y1="42" x2="222" y2="58" stroke="#7f8c8d" stroke-width="0.842424" stroke-linecap="round" opacity="0.362727" />
  <line x1="242" y1="42" x2="258" y2="58" stroke="#2c3e50" stroke-width="1.23636" stroke-linecap="round" opacity="0.496364" />
  <line x1="258" y1="42" x2="242" y2="58" stroke="#7f8c8d" stroke-width="0.809091" stroke-linecap="round" opacity="0.352727" />
  <line x1="262" y1="42" x2="278" y2="58" stroke="#2c3e50" stroke-width="1.28636" stroke-linecap="round" opacity="0.509697" />
  <line x1="278" y1="42" x2="262" y2="58" stroke="#7f8c8d" stroke-width="0.775758" stroke-linecap="round" opacity="0.342727" />
  <line x1="282" y1="42" x2="298" y2="58" stroke="#2c3e50" stroke-width="1.33636" stroke-linecap="round" opacity="0.52303" />
  <line x1="298" y1="42" x2="282" y2="58" stroke="#7f8c8d" stroke-width="0.742424" stroke-linecap="round" opacity="0.332727" />
  <line x1="302" y1="42" x2="318" y2="58" stroke="#2c3e50" stroke-width="1.38636" stroke-linecap="round" opacity="0.536364" />
  <line x1="318" y1="42" x2="302" y2="58" stroke="#7f8c8d" stroke-width="0.709091" stroke-linecap="round" opacity="0.322727" />
  <line x1="2" y1="62" x2="18" y2="78" stroke="#2c3e50" stroke-width="0.704545" stroke-linecap="round" opacity="0.354545" />
  <line x1="18" y1="62" x2="2" y2="78" stroke="#7f8c8d" stroke-width="1.16364" stroke-linecap="round" opacity="0.459091" />
  <line x1="22" y1="62" x2="38" y2="78" stroke="#2c3e50" stroke-width="0.754545" stroke-linecap="round" opacity="0.367879" />
  <line x1="38" y1="62" x2="22" y2="78" stroke="#7f8c8d" stroke-width="1.1303" stroke-linecap="round" opacity="0.449091" />
  <line x1="42" y1="62" x2="58" y2="78" stroke="#2c3e50" stroke-width="0.804545" stroke-linecap="round" opacity="0.381212" />
  <line x1="58" y1="62" x2="42" y2="78" stroke="#7f8c8d" stroke-width="1.09697" stroke-linecap="round" opacity="0.439091" />
  <line x1="62" y1="62" x2="78" y2="78" stroke="#2c3e50" stroke-width="0.854545" stroke-linecap="round" opacity="0.394545" />
  <line x1="78" y1="62" x2="62" y2="78" stroke="#7f8c8d" stroke-width="1.06364" stroke-linecap="round" opacity="0.429091" />
  <line x1="82" y1="62" x2="98" y2="78" stroke="#2c3e50" stroke-width="0.904545" stroke-linecap="round" opacity="0.407879" />
  <line x1="98" y1="62" x2="82" y2="78" stroke="#7f8c8d" stroke-width="1.0303" stroke-linecap="round" opacity="0.419091" />
  <line x1="102" y1="62" x2="118" y2="78" stroke="#2c3e50" stroke-width="0.954545" stroke-linecap="round" opacity="0.421212" />
  <line x1="118" y1="62" x2="102" y2="78" stroke="#7f8c8d" stroke-width="0.99697" stroke-linecap="round" opacity="0.409091" />
  <line x1="122" y1="62" x2="138" y2="78" stroke="#2c3e50" stroke-width="1.00455" stroke-linecap="round" opacity="0.434545" />
  <line x1="138" y1="62" x2="122" y2="78" stroke="#7f8c8d" stroke-width="0.963636" stroke-linecap="round" opacity="0.399091" />
  <line x1="142" y1="62" x2="158" y2="78" stroke="#2c3e50" stroke-width="1.05455" stroke-linecap="round" opacity="0.447879" />
  <line x1="158" y1="62" x2="142" y2="78" stroke="#7f8c8d" stroke-width="0.930303" stroke-linecap="round" opacity="0.389091" />
  <line x1="162" y1="62" x2="178" y2="78" stroke="#2c3e50" stroke-width="1.10455" stroke-linecap="round" opacity="0.461212" />
  <line x1="178" y1="62" x2="162" y2="78" stroke="#7f8c8d" stroke-width="0.89697" stroke-linecap="round" opacity="0.379091" />
  <line x1="182" y1="62" x2="198" y2="78" stroke="#2c3e50" stroke-width="1.15455" stroke-linecap="round" opacity="0.474545" />
  <line x1="198" y1="62" x2="182" y2="78" stroke="#7f8c8d" stroke-width="0.863636" stroke-linecap="round" opacity="0.369091" />
  <line x1="202" y1="62" x2="218" y2="78" stroke="#2c3e50" stroke-width="1.20455" stroke-linecap="round" opacity="0.487879" />
  <line x1="218" y1="62" x2="202" y2="78" stroke="#7f8c8d" stroke-width="0.830303" stroke-linecap="round" opacity="0.359091" />
  <line x1="222" y1="62" x2="238" y2="78" stroke="#2c3e50" stroke-width="1.25455" stroke-linecap="round" opacity="0.501212" />
  <line x1="238" y1="62" x2="222" y2="78" stroke="#7f8c8d" stroke-width="0.79697" stroke-linecap="round" opacity="0.349091" />
  <line x1="242" y1="62" x2="258" y2="78" stroke="#2c3e50" stroke-width="1.30455" stroke-linecap="round" opacity="0.514545" />
  <line x1="258" y1="62" x2="242" y2="78" stroke="#7f8c8d" stroke-width="0.763636" stroke-linecap="round" opacity="0.339091" />
  <line x1="262" y1="62" x2="278" y2="78" stroke="#2c3e50" stroke-width="1.35455" stroke-linecap="round" opacity="0.527879" />
  <line x1="278" y1="62" x2="262" y2="78" stroke="#7f8c8d" stroke-width="0.730303" stroke-linecap="round" opacity="0.329091" />
  <line x1="282" y1="62" x2="298" y2="78" stroke="#2c3e50" stroke-width="1.40455" stroke-linecap="round" opacity="0.541212" />
  <line x1="298" y1="62" x2="282" y2="78" stroke="#7f8c8d" stroke-width="0.69697" stroke-linecap="round" opacity="0.319091" />
  <line x1="302" y1="62" x2="318" y2="78" stroke="#2c3e50" stroke-width="1.45455" stroke-linecap="round" opacity="0.554545" />
  <line x1="318" y1="62" x2="302" y2="78" stroke="#7f8c8d" stroke-width="0.663636" stroke-linecap="round" opacity="0.309091" />
  <line x1="2" y1="82" x2="18" y2="98" stroke="#2c3e50" stroke-width="0.772727" stroke-linecap="round" opacity="0.372727" />
  <line x1="18" y1="82" x2="2" y2="98" stroke="#7f8c8d" stroke-width="1.11818" stroke-linecap="round" opacity="0.445455" />
  <line x1="22" y1="82" x2="38" y2="98" stroke="#2c3e50" stroke-width="0.822727" stroke-linecap="round" opacity="0.386061" />
  <line x1="38" y1="82" x2="22" y2="98" stroke="#7f8c8d" stroke-width="1.08485" stroke-linecap="round" opacity="0.435455" />
  <line x1="42" y1="82" x2="58" y2="98" stroke="#2c3e50" stroke-width="0.872727" stroke-linecap="round" opacity="0.399394" />
  <line x1="58" y1="82" x2="42" y2="98" stroke="#7f8c8d" stroke-width="1.05152" stroke-linecap="round" opacity="0.425455" />
  <line x1="62" y1="82" x2="78" y2="98" stroke="#2c3e50" stroke-width="0.922727" stroke-linecap="round" opacity="0.412727" />
  <line x1="78" y1="82" x2="62" y2="98" stroke="#7f8c8d" stroke-width="1.01818" stroke-linecap="round" opacity="0.415455" />
  <line x1="82" y1="82" x2="98" y2="98" stroke="#2c3e50" stroke-width="0.972727" stroke-linecap="round" opacity="0.426061" />
  <line x1="98" y1="82" x2="82" y2="98" stroke="#7f8c8d" stroke-width="0.984848" stroke-linecap="round" opacity="0.405455" />
  <line x1="102" y1="82" x2="118" y2="98" stroke="#2c3e50" stroke-width="1.02273" stroke-linecap="round" opacity="0.439394" />
  <line x1="118" y1="82" x2="102" y2="98" stroke="#7f8c8d" stroke-width="0.951515" stroke-linecap="round" opacity="0.395455" />
  <line x1="122" y1="82" x2="138" y2="98" stroke="#2c3e50" stroke-width="1.07273" stroke-linecap="round" opacity="0.452727" />
  <line x1="138" y1="82" x2="122" y2="98" stroke="#7f8c8d" stroke-width="0.918182" stroke-linecap="round" opacity="0.385455" />
  <line x1="142" y1="82" x2="158" y2="98" stroke="#2c3e50" stroke-width="1.12273" stroke-linecap="round" opacity="0.466061" />
  <line x1="158" y1="82" x2="142" y2="98" stroke="#7f8c8d" stroke-width="0.884848" stroke-linecap="round" opacity="0.375455" />
  <line x1="162" y1="82" x2="178" y2="98" stroke="#2c3e50" stroke-width="1.17273" stroke-linecap="round" opacity="0.479394" />
  <line x1="178" y1="82" x2="162" y2="98" stroke="#7f8c8d" stroke-width="0.851515" stroke-linecap="round" opacity="0.365455" />
  <line x1="182" y1="82" x2="198" y2="98" stroke="#2c3e50" stroke-width="1.22273" stroke-linecap="round" opacity="0.492727" />
  <line x1="198" y1="82" x2="182" y2="98" stroke="#7f8c8d" stroke-width="0.818182" stroke-linecap="round" opacity="0.355455" />
  <line x1="202" y1="82" x2="218" y2="98" stroke="#2c3e50" stroke-width="1.27273" stroke-linecap="round" opacity="0.506061" />
  <line x1="218" y1="82" x2="202" y2="98" stroke="#7f8c8d" stroke-width="0.784848" stroke-linecap="round" opacity="0.345455" />
  <line x1="222" y1="82" x2="238" y2="98" stroke="#2c3e50" stroke-width="1.32273" stroke-linecap="round" opacity="0.519394" />
  <line x1="238" y1="82" x2="222" y2="98" stroke="#7f8c8d" stroke-width="0.751515" stroke-linecap="round" opacity="0.335455" />
  <line x1="242" y1="82" x2="258" y2="98" stroke="#2c3e50" stroke-width="1.37273" stroke-linecap="round" opacity="0.532727" />
  <line x1="258" y1="82" x2="242" y2="98" stroke="#7f8c8d" stroke-width="0.718182" stroke-linecap="round" opacity="0.325455" />
  <line x1="262" y1="82" x2="278" y2="98" stroke="#2c3e50" stroke-width="1.42273" stroke-linecap="round" opacity="0.546061" />
  <line x1="278" y1="82" x2="262" y2="98" stroke="#7f8c8d" stroke-width="0.684848" stroke-linecap="round" opacity="0.315455" />
  <line x1="282" y1="82" x2="298" y2="98" stroke="#2c3e50" stroke-width="1.47273" stroke-linecap="round" opacity="0.559394" />
  <line x1="298" y1="82" x2="282" y2="98" stroke="#7f8c8d" stroke-width="0.651515" stroke-linecap="round" opacity="0.305455" />
  <line x1="302" y1="82" x2="318" y2="98" stroke="#2c3e50" stroke-width="1.52273" stroke-linecap="round" opacity="0.572727" />
  <line x1="318" y1="82" x2="302" y2="98" stroke="#7f8c8d" stroke-width="0.618182" stroke-linecap="round" opacity="0.295455" />
  <line x1="2" y1="102" x2="18" y2="118" stroke="#2c3e50" stroke-width="0.840909" stroke-linecap="round" opacity="0.390909" />
  <line x1="18" y1="102" x2="2" y2="118" stroke="#7f8c8d" stroke-width="1.07273" stroke-linecap="round" opacity="0.431818" />
  <line x1="22" y1="102" x2="38" y2="118" stroke="#2c3e50" stroke-width="0.890909" stroke-linecap="round" opacity="0.404242" />
  <line x1="38" y1="102" x2="22" y2="118" stroke="#7f8c8d" stroke-width="1.03939" stroke-linecap="round" opacity="0.421818" />
  <line x1="42" y1="102" x2="58" y2="118" stroke="#2c3e50" stroke-width="0.940909" stroke-linecap="round" opacity="0.417576" />
  <line x1="58" y1="102" x2="42" y2="118" stroke="#7f8c8d" stroke-width="1.00606" stroke-linecap="round" opacity="0.411818" />
  <line x1="62" y1="102" x2="78" y2="118" stroke="#2c3e50" stroke-width="0.990909" stroke-linecap="round" opacity="0.430909" />
  <line x1="78" y1="102" x2="62" y2="118" stroke="#7f8c8d" stroke-width="0.972727" stroke-linecap="round" opacity="0.401818" />
  <line x1="82" y1="102" x2="98" y2="118" stroke="#2c3e50" stroke-width="1.04091" stroke-linecap="round" opacity="0.444242" />
  <line x1="98" y1="102" x2="82" y2="118" stroke="#7f8c8d" stroke-width="0.939394" stroke-linecap="round" opacity="0.391818" />
  <line x1="102" y1="102" x2="118" y2="118" stroke="#2c3e50" stroke-width="1.09091" stroke-linecap="round" opacity="0.457576" />
  <line x1="118" y1="102" x2="102" y2="118" stroke="#7f8c8d" stroke-width="0.906061" stroke-linecap="round" opacity="0.381818" />
  <line x1="122" y1="102" x2="138" y2="118" stroke="#2c3e50" stroke-width="1.14091" stroke-linecap="round" opacity="0.470909" />
  <line x1="138" y1="102" x2="122" y2="118" stroke="#7f8c8d" stroke-width="0.872727" stroke-linecap="round" opacity="0.371818" />
  <line x1="142" y1="102" x2="158" y2="118" stroke="#2c3e50" stroke-width="1.19091" stroke-linecap="round" opacity="0.484242" />
  <line x1="158" y1="102" x2="142" y2="118" stroke="#7f8c8d" stroke-width="0.839394" stroke-linecap="round" opacity="0.361818" />
  <line x1="162" y1="102" x2="178" y2="118" stroke="#2c3e50" stroke-width="1.24091" stroke-linecap="round" opacity="0.497576" />
  <line x1="178" y1="102" x2="162" y2="118" stroke="#7f8c8d" stroke-width="0.806061" stroke-linecap="round" opacity="0.351818" />
  <line x1="182" y1="102" x2="198" y2="118" stroke="#2c3e50" stroke-width="1.29091" stroke-linecap="round" opacity="0.510909" />
  <line x1="198" y1="102" x2="182" y2="118" stroke="#7f8c8d" stroke-width="0.772727" stroke-linecap="round" opacity="0.341818" />
  <line x1="202" y1="102" x2="218" y2="118" stroke="#2c3e50" stroke-width="1.34091" stroke-linecap="round" opacity="0.524242" />
  <line x1="218" y1="102" x2="202" y2="118" stroke="#7f8c8d" stroke-width="0.739394" stroke-linecap="round" opacity="0.331818" />
  <line x1="222" y1="102" x2="238" y2="118" stroke="#2c3e50" stroke-width="1.39091" stroke-linecap="round" opacity="0.537576" />
  <line x1="238" y1="102" x2="222" y2="118" stroke="#7f8c8d" stroke-width="0.706061" stroke-linecap="round" opacity="0.321818" />
  <line x1="242" y1="102" x2="258" y2="118" stroke="#2c3e50" stroke-width="1.44091" stroke-linecap="round" opacity="0.550909" />
  <line x1="258" y1="102" x2="242" y2="118" stroke="#7f8c8d" stroke-width="0.672727" stroke-linecap="round" opacity="0.311818" />
  <line x1="262" y1="102" x2="278" y2="118" stroke="#2c3e50" stroke-width="1.49091" stroke-linecap="round" opacity="0.564242" />
  <line x1="278" y1="102" x2="262" y2="118" stroke="#7f8c8d" stroke-width="0.639394" stroke-linecap="round" opacity="0.301818" />
  <line x1="282" y1="102" x2="298" y2="118" stroke="#2c3e50" stroke-width="1.54091" stroke-linecap="round" opacity="0.577576" />
  <line x1="298" y1="102" x2="282" y2="118" stroke="#7f8c8d" stroke-width="0.606061" stroke-linecap="round" opacity="0.291818" />
  <line x1="302" y1="102" x2="318" y2="118" stroke="#2c3e50" stroke-width="1.59091" stroke-linecap="round" opacity="0.590909" />
  <line x1="318" y1="102" x2="302" y2="118" stroke="#7f8c8d" stroke-width="0.572727" stroke-linecap="round" opacity="0.281818" />
  <line x1="2" y1="122" x2="18" y2="138" stroke="#2c3e50" stroke-width="0.909091" stroke-linecap="round" opacity="0.409091" />
  <line x1="18" y1="122" x2="2" y2="138" stroke="#7f8c8d" stroke-width="1.02727" stroke-linecap="round" opacity="0.418182" />
  <line x1="22" y1="122" x2="38" y2="138" stroke="#2c3e50" stroke-width="0.959091" stroke-linecap="round" opacity="0.422424" />
  <line x1="38" y1="122" x2="22" y2="138" stroke="#7f8c8d" stroke-width="0.993939" stroke-linecap="round" opacity="0.408182" />
  <line x1="42" y1="122" x2="58" y2="138" stroke="#2c3e50" stroke-width="1.00909" stroke-linecap="round" opacity="0.435758" />
  <line x1="58" y1="122" x2="42" y2="138" stroke="#7f8c8d" stroke-width="0.960606" stroke-linecap="round" opacity="0.398182" />
  <line x1="62" y1="122" x2="78" y2="138" stroke="#2c3e50" stroke-width="1.05909" stroke-linecap="round" opacity="0.449091" />
  <line x1="78" y1="122" x2="62" y2="138" stroke="#7f8c8d" stroke-width="0.927273" stroke-linecap="round" opacity="0.388182" />
  <line x1="82" y1="122" x2="98" y2="138" stroke="#2c3e50" stroke-width="1.10909" stroke-linecap="round" opacity="0.462424" />
  <line x1="98" y1="122" x2="82" y2="138" stroke="#7f8c8d" stroke-width="0.893939" stroke-linecap="round" opacity="0.378182" />
  <line x1="102" y1="122" x2="118" y2="138" stroke="#2c3e50" stroke-width="1.15909" stroke-linecap="round" opacity="0.475758" />
  <line x1="118" y1="122" x2="102" y2="138" stroke="#7f8c8d" stroke-width="0.860606" stroke-linecap="round" opacity="0.368182" />
  <line x1="122" y1="122" x2="138" y2="138" stroke="#2c3e50" stroke-width="1.20909" stroke-linecap="round" opacity="0.489091" />
  <line x1="138" y1="122" x2="122" y2="138" stroke="#7f8c8d" stroke-width="0.827273" stroke-linecap="round" opacity="0.358182" />
  <line x1="142" y1="122" x2="158" y2="138" stroke="#2c3e50" stroke-width="1.25909" stroke-linecap="round" opacity="0.502424" />
  <line x1="158" y1="122" x2="142" y2="138" stroke="#7f8c8d" stroke-width="0.793939" stroke-linecap="round" opacity="0.348182" />
  <line x1="162" y1="122" x2="178" y2="138" stroke="#2c3e50" stroke-width="1.30909" stroke-linecap="round" opacity="0.515758" />
  <line x1="178" y1="122" x2="162" y2="138" stroke="#7f8c8d" stroke-width="0.760606" stroke-linecap="round" opacity="0.338182" />
  <line x1="182" y1="122" x2="198" y2="138" stroke="#2c3e50" stroke-width="1.35909" stroke-linecap="round" opacity="0.529091" />
  <line x1="198" y1="122" x2="182" y2="138" stroke="#7f8c8d" stroke-width="0.727273" stroke-linecap="round" opacity="0.328182" />
  <line x1="202" y1="122" x2="218" y2="138" stroke="#2c3e50" stroke-width="1.40909" stroke-linecap="round" opacity="0.542424" />
  <line x1="218" y1="122" x2="202" y2="138" stroke="#7f8c8d" stroke-width="0.693939" stroke-linecap="round" opacity="0.318182" />
  <line x1="222" y1="122" x2="238" y2="138" stroke="#2c3e50" stroke-width="1.45909" stroke-linecap="round" opacity="0.555758" />
  <line x1="238" y1="122" x2="222" y2="138" stroke="#7f8c8d" stroke-width="0.660606" stroke-linecap="round" opacity="0.308182" />
  <line x1="242" y1="122" x2="258" y2="138" stroke="#2c3e50" stroke-width="1.50909" stroke-linecap="round" opacity="0.569091" />
  <line x1="258" y1="122" x2="242" y2="138" stroke="#7f8c8d" stroke-width="0.627273" stroke-linecap="round" opacity="0.298182" />
  <line x1="262" y1="122" x2="278" y2="138" stroke="#2c3e50" stroke-width="1.55909" stroke-linecap="round" opacity="0.582424" />
  <line x1="278" y1="122" x2="262" y2="138" stroke="#7f8c8d" stroke-width="0.593939" stroke-linecap="round" opacity="0.288182" />
  <line x1="282" y1="122" x2="298" y2="138" stroke="#2c3e50" stroke-width="1.60909" stroke-linecap="round" opacity="0.595758" />
  <line x1="298" y1="122" x2="282" y2="138" stroke="#7f8c8d" stroke-width="0.560606" stroke-linecap="round" opacity="0.278182" />
  <line x1="302" y1="122" x2="318" y2="138" stroke="#2c3e50" stroke-width="1.65909" stroke-linecap="round" opacity="0.609091" />
  <line x1="318" y1="122" x2="302" y2="138" stroke="#7f8c8d" stroke-width="0.527273" stroke-linecap="round" opacity="0.268182" />
  <line x1="2" y1="142" x2="18" y2="158" stroke="#2c3e50" stroke-width="0.977273" stroke-linecap="round" opacity="0.427273" />
  <line x1="18" y1="142" x2="2" y2="158" stroke="#7f8c8d" stroke-width="0.981818" stroke-linecap="round" opacity="0.404545" />
  <line x1="22" y1="142" x2="38" y2="158" stroke="#2c3e50" stroke-width="1.02727" stroke-linecap="round" opacity="0.440606" />
  <line x1="38" y1="142" x2="22" y2="158" stroke="#7f8c8d" stroke-width="0.948485" stroke-linecap="round" opacity="0.394545" />
  <line x1="42" y1="142" x2="58" y2="158" stroke="#2c3e50" stroke-width="1.07727" stroke-linecap="round" opacity="0.453939" />
  <line x1="58" y1="142" x2="42" y2="158" stroke="#7f8c8d" stroke-width="0.915152" stroke-linecap="round" opacity="0.384545" />
  <line x1="62" y1="142" x2="78" y2="158" stroke="#2c3e50" stroke-width="1.12727" stroke-linecap="round" opacity="0.467273" />
  <line x1="78" y1="142" x2="62" y2="158" stroke="#7f8c8d" stroke-width="0.881818" stroke-linecap="round" opacity="0.374545" />
  <line x1="82" y1="142" x2="98" y2="158" stroke="#2c3e50" stroke-width="1.17727" stroke-linecap="round" opacity="0.480606" />
  <line x1="98" y1="142" x2="82" y2="158" stroke="#7f8c8d" stroke-width="0.848485" stroke-linecap="round" opacity="0.364545" />
  <line x1="102" y1="142" x2="118" y2="158" stroke="#2c3e50" stroke-width="1.22727" stroke-linecap="round" opacity="0.493939" />
  <line x1="118" y1="142" x2="102" y2="158" stroke="#7f8c8d" stroke-width="0.815152" stroke-linecap="round" opacity="0.354545" />
  <line x1="122" y1="142" x2="138" y2="158" stroke="#2c3e50" stroke-width="1.27727" stroke-linecap="round" opacity="0.507273" />
  <line x1="138" y1="142" x2="122" y2="158" stroke="#7f8c8d" stroke-width="0.781818" stroke-linecap="round" opacity="0.344545" />
  <line x1="142" y1="142" x2="158" y2="158" stroke="#2c3e50" stroke-width="1.32727" stroke-linecap="round" opacity="0.520606" />
  <line x1="158" y1="142" x2="142" y2="158" stroke="#7f8c8d" stroke-width="0.748485" stroke-linecap="round" opacity="0.334545" />
  <line x1="162" y1="142" x2="178" y2="158" stroke="#2c3e50" stroke-width="1.37727" stroke-linecap="round" opacity="0.533939" />
  <line x1="178" y1="142" x2="162" y2="158" stroke="#7f8c8d" stroke-width="0.715152" stroke-linecap="round" opacity="0.324545" />
  <line x1="182" y1="142" x2="198" y2="158" stroke="#2c3e50" stroke-width="1.42727" stroke-linecap="round" opacity="0.547273" />
  <line x1="198" y1="142" x2="182" y2="158" stroke="#7f8c8d" stroke-width="0.681818" stroke-linecap="round" opacity="0.314545" />
  <line x1="202" y1="142" x2="218" y2="158" stroke="#2c3e50" stroke-width="1.47727" stroke-linecap="round" opacity="0.560606" />
  <line x1="218" y1="142" x2="202" y2="158" stroke="#7f8c8d" stroke-width="0.648485" stroke-linecap="round" opacity="0.304545" />
  <line x1="222" y1="142" x2="238" y2="158" stroke="#2c3e50" stroke-width="1.52727" stroke-linecap="round" opacity="0.573939" />
  <line x1="238" y1="142" x2="222" y2="158" stroke="#7f8c8d" stroke-width="0.615152" stroke-linecap="round" opacity="0.294545" />
  <line x1="242" y1="142" x2="258" y2="158" stroke="#2c3e50" stroke-width="1.57727" stroke-linecap="round" opacity="0.587273" />
  <line x1="258" y1="142" x2="242" y2="158" stroke="#7f8c8d" stroke-width="0.581818" stroke-linecap="round" opacity="0.284545" />
  <line x1="262" y1="142" x2="278" y2="158" stroke="#2c3e50" stroke-width="1.62727" stroke-linecap="round" opacity="0.600606" />
  <line x1="278" y1="142" x2="262" y2="158" stroke="#7f8c8d" stroke-width="0.548485" stroke-linecap="round" opacity="0.274545" />
  <line x1="282" y1="142" x2="298" y2="158" stroke="#2c3e50" stroke-width="1.67727" stroke-linecap="round" opacity="0.613939" />
  <line x1="298" y1="142" x2="282" y2="158" stroke="#7f8c8d" stroke-width="0.515152" stroke-linecap="round" opacity="0.264545" />
  <line x1="302" y1="142" x2="318" y2="158" stroke="#2c3e50" stroke-width="1.72727" stroke-linecap="round" opacity="0.627273" />
  <line x1="318" y1="142" x2="302" y2="158" stroke="#7f8c8d" stroke-width="0.481818" stroke-linecap="round" opacity="0.254545" />
  <line x1="2" y1="162" x2="18" y2="178" stroke="#2c3e50" stroke-width="1.04545" stroke-linecap="round" opacity="0.445455" />
  <line x1="18" y1="162" x2="2" y2="178" stroke="#7f8c8d" stroke-width="0.936364" stroke-linecap="round" opacity="0.390909" />
  <line x1="22" y1="162" x2="38" y2="178" stroke="#2c3e50" stroke-width="1.09545" stroke-linecap="round" opacity="0.458788" />
  <line x1="38" y1="162" x2="22" y2="178" stroke="#7f8c8d" stroke-width="0.90303" stroke-linecap="round" opacity="0.380909" />
  <line x1="42" y1="162" x2="58" y2="178" stroke="#2c3e50" stroke-width="1.14545" stroke-linecap="round" opacity="0.472121" />
  <line x1="58" y1="162" x2="42" y2="178" stroke="#7f8c8d" stroke-width="0.869697" stroke-linecap="round" opacity="0.370909" />
  <line x1="62" y1="162" x2="78" y2="178" stroke="#2c3e50" stroke-width="1.19545" stroke-linecap="round" opacity="0.485455" />
  <line x1="78" y1="162" x2="62" y2="178" stroke="#7f8c8d" stroke-width="0.836364" stroke-linecap="round" opacity="0.360909" />
  <line x1="82" y1="162" x2="98" y2="178" stroke="#2c3e50" stroke-width="1.24545" stroke-linecap="round" opacity="0.498788" />
  <line x1="98" y1="162" x2="82" y2="178" stroke="#7f8c8d" stroke-width="0.80303" stroke-linecap="round" opacity="0.350909" />
  <line x1="102" y1="162" x2="118" y2="178" stroke="#2c3e50" stroke-width="1.29545" stroke-linecap="round" opacity="0.512121" />
  <line x1="118" y1="162" x2="102" y2="178" stroke="#7f8c8d" stroke-width="0.769697" stroke-linecap="round" opacity="0.340909" />
  <line x1="122" y1="162" x2="138" y2="178" stroke="#2c3e50" stroke-width="1.34545" stroke-linecap="round" opacity="0.525455" />
  <line x1="138" y1="162" x2="122" y2="178" stroke="#7f8c8d" stroke-width="0.736364" stroke-linecap="round" opacity="0.330909" />
  <line x1="142" y1="162" x2="158" y2="178" stroke="#2c3e50" stroke-width="1.39545" stroke-linecap="round" opacity="0.538788" />
  <line x1="158" y1="162" x2="142" y2="178" stroke="#7f8c8d" stroke-width="0.70303" stroke-linecap="round" opacity="0.320909" />
  <line x1="162" y1="162" x2="178" y2="178" stroke="#2c3e50" stroke-width="1.44545" stroke-linecap="round" opacity="0.552121" />
  <line x1="178" y1="162" x2="162" y2="178" stroke="#7f8c8d" stroke-width="0.669697" stroke-linecap="round" opacity="0.310909" />
  <line x1="182" y1="162" x2="198" y2="178" stroke="#2c3e50" stroke-width="1.49545" stroke-linecap="round" opacity="0.565455" />
  <line x1="198" y1="162" x2="182" y2="178" stroke="#7f8c8d" stroke-width="0.636364" stroke-linecap="round" opacity="0.300909" />
  <line x1="202" y1="162" x2="218" y2="178" stroke="#2c3e50" stroke-width="1.54545" stroke-linecap="round" opacity="0.578788" />
  <line x1="218" y1="162" x2="202" y2="178" stroke="#7f8c8d" stroke-width="0.60303" stroke-linecap="round" opacity="0.290909" />
  <line x1="222" y1="162" x2="238" y2="178" stroke="#2c3e50" stroke-width="1.59545" stroke-linecap="round" opacity="0.592121" />
  <line x1="238" y1="162" x2="222" y2="178" stroke="#7f8c8d" stroke-width="0.569697" stroke-linecap="round" opacity="0.280909" />
  <line x1="242" y1="162" x2="258" y2="178" stroke="#2c3e50" stroke-width="1.64545" stroke-linecap="round" opacity="0.605455" />
  <line x1="258" y1="162" x2="242" y2="178" stroke="#7f8c8d" stroke-width="0.536364" stroke-linecap="round" opacity="0.270909" />
  <line x1="262" y1="162" x2="278" y2="178" stroke="#2c3e50" stroke-width="1.69545" stroke-linecap="round" opacity="0.618788" />
  <line x1="278" y1="162" x2="262" y2="178" stroke="#7f8c8d" stroke-width="0.50303" stroke-linecap="round" opacity="0.260909" />
  <line x1="282" y1="162" x2="298" y2="178" stroke="#2c3e50" stroke-width="1.74545" stroke-linecap="round" opacity="0.632121" />
  <line x1="298" y1="162" x2="282" y2="178" stroke="#7f8c8d" stroke-width="0.469697" stroke-linecap="round" opacity="0.250909" />
  <line x1="302" y1="162" x2="318" y2="178" stroke="#2c3e50" stroke-width="1.79545" stroke-linecap="round" opacity="0.645455" />
  <line x1="318" y1="162" x2="302" y2="178" stroke="#7f8c8d" stroke-width="0.436364" stroke-linecap="round" opacity="0.240909" />
  <line x1="2" y1="182" x2="18" y2="198" stroke="#2c3e50" stroke-width="1.11364" stroke-linecap="round" opacity="0.463636" />
  <line x1="18" y1="182" x2="2" y2="198" stroke="#7f8c8d" stroke-width="0.890909" stroke-linecap="round" opacity="0.377273" />
  <line x1="22" y1="182" x2="38" y2="198" stroke="#2c3e50" stroke-width="1.16364" stroke-linecap="round" opacity="0.47697" />
  <line x1="38" y1="182" x2="22" y2="198" stroke="#7f8c8d" stroke-width="0.857576" stroke-linecap="round" opacity="0.367273" />
  <line x1="42" y1="182" x2="58" y2="198" stroke="#2c3e50" stroke-width="1.21364" stroke-linecap="round" opacity="0.490303" />
  <line x1="58" y1="182" x2="42" y2="198" stroke="#7f8c8d" stroke-width="0.824242" stroke-linecap="round" opacity="0.357273" />
  <line x1="62" y1="182" x2="78" y2="198" stroke="#2c3e50" stroke-width="1.26364" stroke-linecap="round" opacity="0.503636" />
  <line x1="78" y1="182" x2="62" y2="198" stroke="#7f8c8d" stroke-width="0.790909" stroke-linecap="round" opacity="0.347273" />
  <line x1="82" y1="182" x2="98" y2="198" stroke="#2c3e50" stroke-width="1.31364" stroke-linecap="round" opacity="0.51697" />
  <line x1="98" y1="182" x2="82" y2="198" stroke="#7f8c8d" stroke-width="0.757576" stroke-linecap="round" opacity="0.337273" />
  <line x1="102" y1="182" x2="118" y2="198" stroke="#2c3e50" stroke-width="1.36364" stroke-linecap="round" opacity="0.530303" />
  <line x1="118" y1="182" x2="102" y2="198" stroke="#7f8c8d" stroke-width="0.724242" stroke-linecap="round" opacity="0.327273" />
  <line x1="122" y1="182" x2="138" y2="198" stroke="#2c3e50" stroke-width="1.41364" stroke-linecap="round" opacity="0.543636" />
  <line x1="138" y1="182" x2="122" y2="198" stroke="#7f8c8d" stroke-width="0.690909" stroke-linecap="round" opacity="0.317273" />
  <line x1="142" y1="182" x2="158" y2="198" stroke="#2c3e50" stroke-width="1.46364" stroke-linecap="round" opacity="0.55697" />
  <line x1="158" y1="182" x2="142" y2="198" stroke="#7f8c8d" stroke-width="0.657576" stroke-linecap="round" opacity="0.307273" />
  <line x1="162" y1="182" x2="178" y2="198" stroke="#2c3e50" stroke-width="1.51364" stroke-linecap="round" opacity="0.570303" />
  <line x1="178" y1="182" x2="162" y2="198" stroke="#7f8c8d" stroke-width="0.624242" stroke-linecap="round" opacity="0.297273" />
  <line x1="182" y1="182" x2="198" y2="198" stroke="#2c3e50" stroke-width="1.56364" stroke-linecap="round" opacity="0.583636" />
  <line x1="198" y1="182" x2="182" y2="198" stroke="#7f8c8d" stroke-width="0.590909" stroke-linecap="round" opacity="0.287273" />
  <line x1="202" y1="182" x2="218" y2="198" stroke="#2c3e50" stroke-width="1.61364" stroke-linecap="round" opacity="0.59697" />
  <line x1="218" y1="182" x2="202" y2="198" stroke="#7f8c8d" stroke-width="0.557576" stroke-linecap="round" opacity="0.277273" />
  <line x1="222" y1="182" x2="238" y2="198" stroke="#2c3e50" stroke-width="1.66364" stroke-linecap="round" opacity="0.610303" />
  <line x1="238" y1="182" x2="222" y2="198" stroke="#7f8c8d" stroke-width="0.524242" stroke-linecap="round" opacity="0.267273" />
  <line x1="242" y1="182" x2="258" y2="198" stroke="#2c3e50" stroke-width="1.71364" stroke-linecap="round" opacity="0.623636" />
  <line x1="258" y1="182" x2="242" y2="198" stroke="#7f8c8d" stroke-width="0.490909" stroke-linecap="round" opacity="0.257273" />
  <line x1="262" y1="182" x2="278" y2="198" stroke="#2c3e50" stroke-width="1.76364" stroke-linecap="round" opacity="0.63697" />
  <line x1="278" y1="182" x2="262" y2="198" stroke="#7f8c8d" stroke-width="0.457576" stroke-linecap="round" opacity="0.247273" />
  <line x1="282" y1="182" x2="298" y2="198" stroke="#2c3e50" stroke-width="1.81364" stroke-linecap="round" opacity="0.650303" />
  <line x1="298" y1="182" x2="282" y2="198" stroke="#7f8c8d" stroke-width="0.424242" stroke-linecap="round" opacity="0.237273" />
  <line x1="302" y1="182" x2="318" y2="198" stroke="#2c3e50" stroke-width="1.86364" stroke-linecap="round" opacity="0.663636" />
  <line x1="318" y1="182" x2="302" y2="198" stroke="#7f8c8d" stroke-width="0.390909" stroke-linecap="round" opacity="0.227273" />
  <line x1="2" y1="202" x2="18" y2="218" stroke="#2c3e50" stroke-width="1.18182" stroke-linecap="round" opacity="0.481818" />
  <line x1="18" y1="202" x2="2" y2="218" stroke="#7f8c8d" stroke-width="0.845455" stroke-linecap="round" opacity="0.363636" />
  <line x1="22" y1="202" x2="38" y2="218" stroke="#2c3e50" stroke-width="1.23182" stroke-linecap="round" opacity="0.495152" />
  <line x1="38" y1="202" x2="22" y2="218" stroke="#7f8c8d" stroke-width="0.812121" stroke-linecap="round" opacity="0.353636" />
  <line x1="42" y1="202" x2="58" y2="218" stroke="#2c3e50" stroke-width="1.28182" stroke-linecap="round" opacity="0.508485" />
  <line x1="58" y1="202" x2="42" y2="218" stroke="#7f8c8d" stroke-width="0.778788" stroke-linecap="round" opacity="0.343636" />
  <line x1="62" y1="202" x2="78" y2="218" stroke="#2c3e50" stroke-width="1.33182" stroke-linecap="round" opacity="0.521818" />
  <line x1="78" y1="202" x2="62" y2="218" stroke="#7f8c8d" stroke-width="0.745455" stroke-linecap="round" opacity="0.333636" />
  <line x1="82" y1="202" x2="98" y2="218" stroke="#2c3e50" stroke-width="1.38182" stroke-linecap="round" opacity="0.535152" />
  <line x1="98" y1="202" x2="82" y2="218" stroke="#7f8c8d" stroke-width="0.712121" stroke-linecap="round" opacity="0.323636" />
  <line x1="102" y1="202" x2="118" y2="218" stroke="#2c3e50" stroke-width="1.43182" stroke-linecap="round" opacity="0.548485" />
  <line x1="118" y1="202" x2="102" y2="218" stroke="#7f8c8d" stroke-width="0.678788" stroke-linecap="round" opacity="0.313636" />
  <line x1="122" y1="202" x2="138" y2="218" stroke="#2c3e50" stroke-width="1.48182" stroke-linecap="round" opacity="0.561818" />
  <line x1="138" y1="202" x2="122" y2="218" stroke="#7f8c8d" stroke-width="0.645455" stroke-linecap="round" opacity="0.303636" />
  <line x1="142" y1="202" x2="158" y2="218" stroke="#2c3e50" stroke-width="1.53182" stroke-linecap="round" opacity="0.575152" />
  <line x1="158" y1="202" x2="142" y2="218" stroke="#7f8c8d" stroke-width="0.612121" stroke-linecap="round" opacity="0.293636" />
  <line x1="162" y1="202" x2="178" y2="218" stroke="#2c3e50" stroke-width="1.58182" stroke-linecap="round" opacity="0.588485" />
  <line x1="178" y1="202" x2="162" y2="218" stroke="#7f8c8d" stroke-width="0.578788" stroke-linecap="round" opacity="0.283636" />
  <line x1="182" y1="202" x2="198" y2="218" stroke="#2c3e50" stroke-width="1.63182" stroke-linecap="round" opacity="0.601818" />
  <line x1="198" y1="202" x2="182" y2="218" stroke="#7f8c8d" stroke-width="0.545455" stroke-linecap="round" opacity="0.273636" />
  <line x1="202" y1="202" x2="218" y2="218" stroke="#2c3e50" stroke-width="1.68182" stroke-linecap="round" opacity="0.615152" />
  <line x1="218" y1="202" x2="202" y2="218" stroke="#7f8c8d" stroke-width="0.512121" stroke-linecap="round" opacity="0.263636" />
  <line x1="222" y1="202" x2="238" y2="218" stroke="#2c3e50" stroke-width="1.73182" stroke-linecap="round" opacity="0.628485" />
  <line x1="238" y1="202" x2="222" y2="218" stroke="#7f8c8d" stroke-width="0.478788" stroke-linecap="round" opacity="0.253636" />
  <line x1="242" y1="202" x2="258" y2="218" stroke="#2c3e50" stroke-width="1.78182" stroke-linecap="round" opacity="0.641818" />
  <line x1="258" y1="202" x2="242" y2="218" stroke="#7f8c8d" stroke-width="0.445455" stroke-linecap="round" opacity="0.243636" />
  <line x1="262" y1="202" x2="278" y2="218" stroke="#2c3e50" stroke-width="1.83182" stroke-linecap="round" opacity="0.655152" />
  <line x1="278" y1="202" x2="262" y2="218" stroke="#7f8c8d" stroke-width="0.412121" stroke-linecap="round" opacity="0.233636" />
  <line x1="282" y1="202" x2="298" y2="218" stroke="#2c3e50" stroke-width="1.88182" stroke-linecap="round" opacity="0.668485" />
  <line x1="298" y1="202" x2="282" y2="218" stroke="#7f8c8d" stroke-width="0.378788" stroke-linecap="round" opacity="0.223636" />
  <line x1="302" y1="202" x2="318" y2="218" stroke="#2c3e50" stroke-width="1.93182" stroke-linecap="round" opacity="0.681818" />
  <line x1="318" y1="202" x2="302" y2="218" stroke="#7f8c8d" stroke-width="0.345455" stroke-linecap="round" opacity="0.213636" />
  <line x1="2" y1="222" x2="18" y2="238" stroke="#2c3e50" stroke-width="1.25" stroke-linecap="round" opacity="0.5" />
  <line x1="18" y1="222" x2="2" y2="238" stroke="#7f8c8d" stroke-width="0.8" stroke-linecap="round" opacity="0.35" />
  <line x1="22" y1="222" x2="38" y2="238" stroke="#2c3e50" stroke-width="1.3" stroke-linecap="round" opacity="0.513333" />
  <line x1="38" y1="222" x2="22" y2="238" stroke="#7f8c8d" stroke-width="0.766667" stroke-linecap="round" opacity="0.34" />
  <line x1="42" y1="222" x2="58" y2="238" stroke="#2c3e50" stroke-width="1.35" stroke-linecap="round" opacity="0.526667" />
  <line x1="58" y1="222" x2="42" y2="238" stroke="#7f8c8d" stroke-width="0.733333" stroke-linecap="round" opacity="0.33" />
  <line x1="62" y1="222" x2="78" y2="238" stroke="#2c3e50" stroke-width="1.4" stroke-linecap="round" opacity="0.54" />
  <line x1="78" y1="222" x2="62" y2="238" stroke="#7f8c8d" stroke-width="0.7" stroke-linecap="round" opacity="0.32" />
  <line x1="82" y1="222" x2="98" y2="238" stroke="#2c3e50" stroke-width="1.45" stroke-linecap="round" opacity="0.553333" />
  <line x1="98" y1="222" x2="82" y2="238" stroke="#7f8c8d" stroke-width="0.666667" stroke-linecap="round" opacity="0.31" />
  <line x1="102" y1="222" x2="118" y2="238" stroke="#2c3e50" stroke-width="1.5" stroke-linecap="round" opacity="0.566667" />
  <line x1="118" y1="222" x2="102" y2="238" stroke="#7f8c8d" stroke-width="0.633333" stroke-linecap="round" opacity="0.3" />
  <line x1="122" y1="222" x2="138" y2="238" stroke="#2c3e50" stroke-width="1.55" stroke-linecap="round" opacity="0.58" />
  <line x1="138" y1="222" x2="122" y2="238" stroke="#7f8c8d" stroke-width="0.6" stroke-linecap="round" opacity="0.29" />
  <line x1="142" y1="222" x2="158" y2="238" stroke="#2c3e50" stroke-width="1.6" stroke-linecap="round" opacity="0.593333" />
  <line x1="158" y1="222" x2="142" y2="238" stroke="#7f8c8d" stroke-width="0.566667" stroke-linecap="round" opacity="0.28" />
  <line x1="162" y1="222" x2="178" y2="238" stroke="#2c3e50" stroke-width="1.65" stroke-linecap="round" opacity="0.606667" />
  <line x1="178" y1="222" x2="162" y2="238" stroke="#7f8c8d" stroke-width="0.533333" stroke-linecap="round" opacity="0.27" />
  <line x1="182" y1="222" x2="198" y2="238" stroke="#2c3e50" stroke-width="1.7" stroke-linecap="round" opacity="0.62" />
  <line x1="198" y1="222" x2="182" y2="238" stroke="#7f8c8d" stroke-width="0.5" stroke-linecap="round" opacity="0.26" />
  <line x1="202" y1="222" x2="218" y2="238" stroke="#2c3e50" stroke-width="1.75" stroke-linecap="round" opacity="0.633333" />
  <line x1="218" y1="222" x2="202" y2="238" stroke="#7f8c8d" stroke-width="0.466667" stroke-linecap="round" opacity="0.25" />
  <line x1="222" y1="222" x2="238" y2="238" stroke="#2c3e50" stroke-width="1.8" stroke-linecap="round" opacity="0.646667" />
  <line x1="238" y1="222" x2="222" y2="238" stroke="#7f8c8d" stroke-width="0.433333" stroke-linecap="round" opacity="0.24" />
  <line x1="242" y1="222" x2="258" y2="238" stroke="#2c3e50" stroke-width="1.85" stroke-linecap="round" opacity="0.66" />
  <line x1="258" y1="222" x2="242" y2="238" stroke="#7f8c8d" stroke-width="0.4" stroke-linecap="round" opacity="0.23" />
  <line x1="262" y1="222" x2="278" y2="238" stroke="#2c3e50" stroke-width="1.9" stroke-linecap="round" opacity="0.673333" />
  <line x1="278" y1="222" x2="262" y2="238" stroke="#7f8c8d" stroke-width="0.366667" stroke-linecap="round" opacity="0.22" />
  <line x1="282" y1="222" x2="298" y2="238" stroke="#2c3e50" stroke-width="1.95" stroke-linecap="round" opacity="0.686667" />
  <line x1="298" y1="222" x2="282" y2="238" stroke="#7f8c8d" stroke-width="0.333333" stroke-linecap="round" opacity="0.21" />
  <line x1="302" y1="222" x2="318" y2="238" stroke="#2c3e50" stroke-width="2" stroke-linecap="round" opacity="0.7" />
  <line x1="318" y1="222" x2="302" y2="238" stroke="#7f8c8d" stroke-width="0.3" stroke-linecap="round" opacity="0.2" />
</svg>