<?xml version="1.0" encoding="UTF-8"?>
<svg xmlns="http://www.w3.org/2000/svg" width="324" height="252" viewBox="0 0 324 252">
  <rect width="100%" height="100%" fill="#0a1628" />
  <path d="M 0.0 9.0 Q 9.0 9.0 18.0 9.0" fill="none" stroke="#00d9ff" stroke-width="0.5" stroke-linecap="round" opacity="0.3" />
  <path d="M 18.0 9.0 Q 27.0 11.275822496979064 36.0 9.0" fill="none" stroke="#00d9ff" stroke-width="0.5" stroke-linecap="round" opacity="0.3352941176470588" />
  <path d="M 36.0 9.0 Q 45.0 13.24428255497331 54.0 9.0" fill="none" stroke="#00d9ff" stroke-width="0.5" stroke-linecap="round" opacity="0.37058823529411766" />
  <path d="M 54.0 9.0 Q 63.0 14.639528735536892 72.0 9.0" fill="none" stroke="#00d9ff" stroke-width="0.5" stroke-linecap="round" opacity="0.40588235294117647" />
  <path d="M 72.0 9.0 Q 81.0 15.273125310658717 90.0 9.0" fill="none" stroke="#00d9ff" stroke-width="0.5" stroke-linecap="round" opacity="0.4411764705882353" />
  <path d="M 90.0 9.0 Q 99.0 15.05950155198876 108.0 9.0" fill="none" stroke="#00d9ff" stroke-width="0.5" stroke-linecap="round" opacity="0.4764705882352941" />
  <path d="M 108.0 9.0 Q 117.0 14.02750853186551 126.0 9.0" fill="none" stroke="#00d9ff" stroke-width="0.5" stroke-linecap="round" opacity="0.5117647058823529" />
  <path d="M 126.0 9.0 Q 135.0 12.316522626127343 144.0 9.0" fill="none" stroke="#00d9ff" stroke-width="0.5" stroke-linecap="round" opacity="0.5470588235294117" />
  <path d="M 144.0 9.0 Q 153.0 10.157621962244393 162.0 9.0" fill="none" stroke="#00d9ff" stroke-width="0.5" stroke-linecap="round" opacity="0.5823529411764705" />
  <path d="M 162.0 9.0 Q 171.0 7.8423780377556085 180.0 9.0" fill="none" stroke="#00d9ff" stroke-width="0.5" stroke-linecap="round" opacity="0.6176470588235294" />
  <path d="M 180.0 9.0 Q 189.0 5.683477373872659 198.0 9.0" fill="none" stroke="#00d9ff" stroke-width="0.5" stroke-linecap="round" opacity="0.6529411764705882" />
  <path d="M 198.0 9.0 Q 207.0 3.9724914681344927 216.0 9.0" fill="none" stroke="#00d9ff" stroke-width="0.5" stroke-linecap="round" opacity="0.6882352941176471" />
  <path d="M 216.0 9.0 Q 225.0 2.9404984480112404 234.0 9.0" fill="none" stroke="#00d9ff" stroke-width="0.5" stroke-linecap="round" opacity="0.7235294117647059" />
  <path d="M 234.0 9.0 Q 243.0 2.726874689341283 252.0 9.0" fill="none" stroke="#00d9ff" stroke-width="0.5" stroke-linecap="round" opacity="0.7588235294117647" />
  <path d="M 252.0 9.0 Q 261.0 3.360471264463106 270.0 9.0" fill="none" stroke="#00d9ff" stroke-width="0.5" stroke-linecap="round" opacity="0.7941176470588235" />
  <path d="M 270.0 9.0 Q 279.0 4.755717445026686 288.0 9.0" fill="none" stroke="#00d9ff" stroke-width="0.5" stroke-linecap="round" opacity="0.8294117647058823" />
  <path d="M 288.0 9.0 Q 297.0 6.724177503020936 306.0 9.0" fill="none" stroke="#00d9ff" stroke-width="0.5" stroke-linecap="round" opacity="0.8647058823529412" />
  <path d="M 306.0 9.0 Q 315.0 8.999999999999998 324.0 9.0" fill="none" stroke="#00d9ff" stroke-width="0.5" stroke-linecap="round" opacity="0.8999999999999999" />
  <path d="M 0.0 27.0 Q 9.0 28.507688685011615 18.0 27.0" fill="none" stroke="#00d9ff" stroke-width="0.6538461538461539" stroke-linecap="round" opacity="0.3" />
  <path d="M 18.0 27.0 Q 27.0 30.61556906071645 36.0 27.0" fill="none" stroke="#00d9ff" stroke-width="0.6538461538461539" stroke-linecap="round" opacity="0.3352941176470588" />
  <path d="M 36.0 27.0 Q 45.0 32.235146800211744 54.0 27.0" fill="none" stroke="#00d9ff" stroke-width="0.6538461538461539" stroke-linecap="round" opacity="0.37058823529411766" />
  <path d="M 54.0 27.0 Q 63.0 33.1476889553886 72.0 27.0" fill="none" stroke="#00d9ff" stroke-width="0.6538461538461539" stroke-linecap="round" opacity="0.40588235294117647" />
  <path d="M 72.0 27.0 Q 81.0 33.22995165161974 90.0 27.0" fill="none" stroke="#00d9ff" stroke-width="0.6538461538461539" stroke-linecap="round" opacity="0.4411764705882353" />
  <path d="M 90.0 27.0 Q 99.0 32.47082485594582 108.0 27.0" fill="none" stroke="#00d9ff" stroke-width="0.6538461538461539" stroke-linecap="round" opacity="0.4764705882352941" />
  <path d="M 108.0 27.0 Q 117.0 30.972832848589388 126.0 27.0" fill="none" stroke="#00d9ff" stroke-width="0.6538461538461539" stroke-linecap="round" opacity="0.5117647058823529" />
  <path d="M 126.0 27.0 Q 135.0 28.938287750804186 144.0 27.0" fill="none" stroke="#00d9ff" stroke-width="0.6538461538461539" stroke-linecap="round" opacity="0.5470588235294117" />
  <path d="M 144.0 27.0 Q 153.0 26.64196615184967 162.0 27.0" fill="none" stroke="#00d9ff" stroke-width="0.6538461538461539" stroke-linecap="round" opacity="0.5823529411764705" />
  <path d="M 162.0 27.0 Q 171.0 24.393999008021904 180.0 27.0" fill="none" stroke="#00d9ff" stroke-width="0.6538461538461539" stroke-linecap="round" opacity="0.6176470588235294" />
  <path d="M 180.0 27.0 Q 189.0 22.497986738510775 198.0 27.0" fill="none" stroke="#00d9ff" stroke-width="0.6538461538461539" stroke-linecap="round" opacity="0.6529411764705882" />
  <path d="M 198.0 27.0 Q 207.0 21.209996306480427 216.0 27.0" fill="none" stroke="#00d9ff" stroke-width="0.6538461538461539" stroke-linecap="round" opacity="0.6882352941176471" />
  <path d="M 216.0 27.0 Q 225.0 20.703977956777926 234.0 27.0" fill="none" stroke="#00d9ff" stroke-width="0.6538461538461539" stroke-linecap="round" opacity="0.7235294117647059" />
  <path d="M 234.0 27.0 Q 243.0 21.04827227147506 252.0 27.0" fill="none" stroke="#00d9ff" stroke-width="0.6538461538461539" stroke-linecap="round" opacity="0.7588235294117647" />
  <path d="M 252.0 27.0 Q 261.0 22.196380395571328 270.0 27.0" fill="none" stroke="#00d9ff" stroke-width="0.6538461538461539" stroke-linecap="round" opacity="0.7941176470588235" />
  <path d="M 270.0 27.0 Q 279.0 23.993243965020795 288.0 27.0" fill="none" stroke="#00d9ff" stroke-width="0.6538461538461539" stroke-linecap="round" opacity="0.8294117647058823" />
  <path d="M 288.0 27.0 Q 297.0 26.19618659800455 306.0 27.0" fill="none" stroke="#00d9ff" stroke-width="0.6538461538461539" stroke-linecap="round" opacity="0.8647058823529412" />
  <path d="M 306.0 27.0 Q 315.0 28.507688685011612 324.0 27.0" fill="none" stroke="#00d9ff" stroke-width="0.6538461538461539" stroke-linecap="round" opacity="0.8999999999999999" />
  <path d="M 0.0 45.0 Q 9.0 47.92775598387574 18.0 45.0" fill="none" stroke="#00d9ff" stroke-width="0.8076923076923077" stroke-linecap="round" opacity="0.3" />
  <path d="M 18.0 45.0 Q 27.0 49.7451918927038 36.0 45.0" fill="none" stroke="#00d9ff" stroke-width="0.8076923076923077" stroke-linecap="round" opacity="0.3352941176470588" />
  <path d="M 36.0 45.0 Q 45.0 50.92176334240624 54.0 45.0" fill="none" stroke="#00d9ff" stroke-width="0.8076923076923077" stroke-linecap="round" opacity="0.37058823529411766" />
  <path d="M 54.0 45.0 Q 63.0 51.298567839093266 72.0 45.0" fill="none" stroke="#00d9ff" stroke-width="0.8076923076923077" stroke-linecap="round" opacity="0.40588235294117647" />
  <path d="M 72.0 45.0 Q 81.0 50.824715847541505 90.0 45.0" fill="none" stroke="#00d9ff" stroke-width="0.8076923076923077" stroke-linecap="round" opacity="0.4411764705882353" />
  <path d="M 90.0 45.0 Q 99.0 49.564203704914554 108.0 45.0" fill="none" stroke="#00d9ff" stroke-width="0.8076923076923077" stroke-linecap="round" opacity="0.4764705882352941" />
  <path d="M 108.0 45.0 Q 117.0 47.68727056081309 126.0 45.0" fill="none" stroke="#00d9ff" stroke-width="0.8076923076923077" stroke-linecap="round" opacity="0.5117647058823529" />
  <path d="M 126.0 45.0 Q 135.0 45.447406636793595 144.0 45.0" fill="none" stroke="#00d9ff" stroke-width="0.8076923076923077" stroke-linecap="round" opacity="0.5470588235294117" />
  <path d="M 144.0 45.0 Q 153.0 43.14711796730936 162.0 45.0" fill="none" stroke="#00d9ff" stroke-width="0.8076923076923077" stroke-linecap="round" opacity="0.5823529411764705" />
  <path d="M 162.0 45.0 Q 171.0 41.097071283513785 180.0 45.0" fill="none" stroke="#00d9ff" stroke-width="0.8076923076923077" stroke-linecap="round" opacity="0.6176470588235294" />
  <path d="M 180.0 45.0 Q 189.0 39.57413674975427 198.0 45.0" fill="none" stroke="#00d9ff" stroke-width="0.8076923076923077" stroke-linecap="round" opacity="0.6529411764705882" />
  <path d="M 198.0 45.0 Q 207.0 38.783995113686615 216.0 45.0" fill="none" stroke="#00d9ff" stroke-width="0.8076923076923077" stroke-linecap="round" opacity="0.6882352941176471" />
  <path d="M 216.0 45.0 Q 225.0 38.833359381587705 234.0 45.0" fill="none" stroke="#00d9ff" stroke-width="0.8076923076923077" stroke-linecap="round" opacity="0.7235294117647059" />
  <path d="M 234.0 45.0 Q 243.0 39.71556263554066 252.0 45.0" fill="none" stroke="#00d9ff" stroke-width="0.8076923076923077" stroke-linecap="round" opacity="0.7588235294117647" />
  <path d="M 252.0 45.0 Q 261.0 41.31145843764212 270.0 45.0" fill="none" stroke="#00d9ff" stroke-width="0.8076923076923077" stroke-linecap="round" opacity="0.7941176470588235" />
  <path d="M 270.0 45.0 Q 279.0 43.405512216654394 288.0 45.0" fill="none" stroke="#00d9ff" stroke-width="0.8076923076923077" stroke-linecap="round" opacity="0.8294117647058823" />
  <path d="M 288.0 45.0 Q 297.0 45.71491040616931 306.0 45.0" fill="none" stroke="#00d9ff" stroke-width="0.8076923076923077" stroke-linecap="round" opacity="0.8647058823529412" />
  <path d="M 306.0 45.0 Q 315.0 47.92775598387574 324.0 45.0" fill="none" stroke="#00d9ff" stroke-width="0.8076923076923077" stroke-linecap="round" opacity="0.8999999999999999" />
  <path d="M 0.0 63.0 Q 9.0 67.17767274691701 18.0 63.0" fill="none" stroke="#00d9ff" stroke-width="0.9615384615384616" stroke-linecap="round" opacity="0.3" />
  <path d="M 18.0 63.0 Q 27.0 68.59904141995794 36.0 63.0" fill="none" stroke="#00d9ff" stroke-width="0.9615384615384616" stroke-linecap="round" opacity="0.3352941176470588" />
  <path d="M 36.0 63.0 Q 45.0 69.26422852387402 54.0 63.0" fill="none" stroke="#00d9ff" stroke-width="0.9615384615384616" stroke-linecap="round" opacity="0.37058823529411766" />
  <path d="M 54.0 63.0 Q 63.0 69.08339685435239 72.0 63.0" fill="none" stroke="#00d9ff" stroke-width="0.9615384615384616" stroke-linecap="round" opacity="0.40588235294117647" />
  <path d="M 72.0 63.0 Q 81.0 68.08096873038481 90.0 63.0" fill="none" stroke="#00d9ff" stroke-width="0.9615384615384616" stroke-linecap="round" opacity="0.4411764705882353" />
  <path d="M 90.0 63.0 Q 99.0 66.39232762475909 108.0 63.0" fill="none" stroke="#00d9ff" stroke-width="0.9615384615384616" stroke-linecap="round" opacity="0.4764705882352941" />
  <path d="M 108.0 63.0 Q 117.0 64.24553387587338 126.0 63.0" fill="none" stroke="#00d9ff" stroke-width="0.9615384615384616" stroke-linecap="round" opacity="0.5117647058823529" />
  <path d="M 126.0 63.0 Q 135.0 61.93052387530951 144.0 63.0" fill="none" stroke="#00d9ff" stroke-width="0.9615384615384616" stroke-linecap="round" opacity="0.5470588235294117" />
  <path d="M 144.0 63.0 Q 153.0 59.75995255155688 162.0 63.0" fill="none" stroke="#00d9ff" stroke-width="0.9615384615384616" stroke-linecap="round" opacity="0.5823529411764705" />
  <path d="M 162.0 63.0 Q 171.0 58.02696758943918 180.0 63.0" fill="none" stroke="#00d9ff" stroke-width="0.9615384615384616" stroke-linecap="round" opacity="0.6176470588235294" />
  <path d="M 180.0 63.0 Q 189.0 56.96561821089159 198.0 63.0" fill="none" stroke="#00d9ff" stroke-width="0.9615384615384616" stroke-linecap="round" opacity="0.6529411764705882" />
  <path d="M 198.0 63.0 Q 207.0 56.71924553062689 216.0 63.0" fill="none" stroke="#00d9ff" stroke-width="0.9615384615384616" stroke-linecap="round" opacity="0.6882352941176471" />
  <path d="M 216.0 63.0 Q 225.0 57.32112354431298 234.0 63.0" fill="none" stroke="#00d9ff" stroke-width="0.9615384615384616" stroke-linecap="round" opacity="0.7235294117647059" />
  <path d="M 234.0 63.0 Q 243.0 58.68996529108035 252.0 63.0" fill="none" stroke="#00d9ff" stroke-width="0.9615384615384616" stroke-linecap="round" opacity="0.7588235294117647" />
  <path d="M 252.0 63.0 Q 261.0 60.6409011080141 270.0 63.0" fill="none" stroke="#00d9ff" stroke-width="0.9615384615384616" stroke-linecap="round" opacity="0.7941176470588235" />
  <path d="M 270.0 63.0 Q 279.0 62.91044630252877 288.0 63.0" fill="none" stroke="#00d9ff" stroke-width="0.9615384615384616" stroke-linecap="round" opacity="0.8294117647058823" />
  <path d="M 288.0 63.0 Q 297.0 65.1920862201211 306.0 63.0" fill="none" stroke="#00d9ff" stroke-width="0.9615384615384616" stroke-linecap="round" opacity="0.8647058823529412" />
  <path d="M 306.0 63.0 Q 315.0 67.17767274691701 324.0 63.0" fill="none" stroke="#00d9ff" stroke-width="0.9615384615384616" stroke-linecap="round" opacity="0.8999999999999999" />
  <path d="M 0.0 81.0 Q 9.0 86.18479835513003 18.0 81.0" fill="none" stroke="#00d9ff" stroke-width="1.1153846153846154" stroke-linecap="round" opacity="0.3" />
  <path d="M 18.0 81.0 Q 27.0 87.12749501157163 36.0 81.0" fill="none" stroke="#00d9ff" stroke-width="1.1153846153846154" stroke-linecap="round" opacity="0.3352941176470588" />
  <path d="M 36.0 81.0 Q 45.0 87.24263951307847 54.0 81.0" fill="none" stroke="#00d9ff" stroke-width="1.1153846153846154" stroke-linecap="round" opacity="0.37058823529411766" />
  <path d="M 54.0 81.0 Q 63.0 86.5146809566844 72.0 81.0" fill="none" stroke="#00d9ff" stroke-width="1.1153846153846154" stroke-linecap="round" opacity="0.40588235294117647" />
  <path d="M 72.0 81.0 Q 81.0 85.04193417918802 90.0 81.0" fill="none" stroke="#00d9ff" stroke-width="1.1153846153846154" stroke-linecap="round" opacity="0.4411764705882353" />
  <path d="M 90.0 81.0 Q 99.0 83.02330179366184 108.0 81.0" fill="none" stroke="#00d9ff" stroke-width="1.1153846153846154" stroke-linecap="round" opacity="0.4764705882352941" />
  <path d="M 108.0 81.0 Q 117.0 80.73141128939935 126.0 81.0" fill="none" stroke="#00d9ff" stroke-width="1.1153846153846154" stroke-linecap="round" opacity="0.5117647058823529" />
  <path d="M 126.0 81.0 Q 135.0 78.4757951788049 144.0 81.0" fill="none" stroke="#00d9ff" stroke-width="1.1153846153846154" stroke-linecap="round" opacity="0.5470588235294117" />
  <path d="M 144.0 81.0 Q 153.0 76.56108691641462 162.0 81.0" fill="none" stroke="#00d9ff" stroke-width="1.1153846153846154" stroke-linecap="round" opacity="0.5823529411764705" />
  <path d="M 162.0 81.0 Q 171.0 75.24587846282905 180.0 81.0" fill="none" stroke="#00d9ff" stroke-width="1.1153846153846154" stroke-linecap="round" opacity="0.6176470588235294" />
  <path d="M 180.0 81.0 Q 189.0 74.70779600752655 198.0 81.0" fill="none" stroke="#00d9ff" stroke-width="1.1153846153846154" stroke-linecap="round" opacity="0.6529411764705882" />
  <path d="M 198.0 81.0 Q 207.0 75.01951056771354 216.0 81.0" fill="none" stroke="#00d9ff" stroke-width="1.1153846153846154" stroke-linecap="round" opacity="0.6882352941176471" />
  <path d="M 216.0 81.0 Q 225.0 76.13892336476675 234.0 81.0" fill="none" stroke="#00d9ff" stroke-width="1.1153846153846154" stroke-linecap="round" opacity="0.7235294117647059" />
  <path d="M 234.0 81.0 Q 243.0 77.91485149756373 252.0 81.0" fill="none" stroke="#00d9ff" stroke-width="1.1153846153846154" stroke-linecap="round" opacity="0.7588235294117647" />
  <path d="M 252.0 81.0 Q 261.0 80.10744603101271 270.0 81.0" fill="none" stroke="#00d9ff" stroke-width="1.1153846153846154" stroke-linecap="round" opacity="0.7941176470588235" />
  <path d="M 270.0 81.0 Q 279.0 82.42058492378573 288.0 81.0" fill="none" stroke="#00d9ff" stroke-width="1.1153846153846154" stroke-linecap="round" opacity="0.8294117647058823" />
  <path d="M 288.0 81.0 Q 297.0 84.54186595086867 306.0 81.0" fill="none" stroke="#00d9ff" stroke-width="1.1153846153846154" stroke-linecap="round" opacity="0.8647058823529412" />
  <path d="M 306.0 81.0 Q 315.0 86.18479835513003 324.0 81.0" fill="none" stroke="#00d9ff" stroke-width="1.1153846153846154" stroke-linecap="round" opacity="0.8999999999999999" />
  <path d="M 0.0 99.0 Q 9.0 104.8906023289181 18.0 99.0" fill="none" stroke="#00d9ff" stroke-width="1.2692307692307692" stroke-linecap="round" opacity="0.3" />
  <path d="M 18.0 99.0 Q 27.0 105.29984086565088 36.0 99.0" fill="none" stroke="#00d9ff" stroke-width="1.2692307692307692" stroke-linecap="round" opacity="0.3352941176470588" />
  <path d="M 36.0 99.0 Q 45.0 104.85825098485418 54.0 99.0" fill="none" stroke="#00d9ff" stroke-width="1.2692307692307692" stroke-linecap="round" opacity="0.37058823529411766" />
  <path d="M 54.0 99.0 Q 63.0 103.6254718468636 72.0 99.0" fill="none" stroke="#00d9ff" stroke-width="1.2692307692307692" stroke-linecap="round" opacity="0.40588235294117647" />
  <path d="M 72.0 99.0 Q 81.0 101.76799710532978 90.0 99.0" fill="none" stroke="#00d9ff" stroke-width="1.2692307692307692" stroke-linecap="round" opacity="0.4411764705882353" />
  <path d="M 90.0 99.0 Q 99.0 99.53668901671973 108.0 99.0" fill="none" stroke="#00d9ff" stroke-width="1.2692307692307692" stroke-linecap="round" opacity="0.4764705882352941" />
  <path d="M 108.0 99.0 Q 117.0 97.23289810250519 126.0 99.0" fill="none" stroke="#00d9ff" stroke-width="1.2692307692307692" stroke-linecap="round" opacity="0.5117647058823529" />
  <path d="M 126.0 99.0 Q 135.0 95.16776409139695 144.0 99.0" fill="none" stroke="#00d9ff" stroke-width="1.2692307692307692" stroke-linecap="round" opacity="0.5470588235294117" />
  <path d="M 144.0 99.0 Q 153.0 93.62019477489778 162.0 99.0" fill="none" stroke="#00d9ff" stroke-width="1.2692307692307692" stroke-linecap="round" opacity="0.5823529411764705" />
  <path d="M 162.0 99.0 Q 171.0 92.79919796457852 180.0 99.0" fill="none" stroke="#00d9ff" stroke-width="1.2692307692307692" stroke-linecap="round" opacity="0.6176470588235294" />
  <path d="M 180.0 99.0 Q 189.0 92.81565382897315 198.0 99.0" fill="none" stroke="#00d9ff" stroke-width="1.2692307692307692" stroke-linecap="round" opacity="0.6529411764705882" />
  <path d="M 198.0 99.0 Q 207.0 93.66733991241009 216.0 99.0" fill="none" stroke="#00d9ff" stroke-width="1.2692307692307692" stroke-linecap="round" opacity="0.6882352941176471" />
  <path d="M 216.0 99.0 Q 225.0 95.23923128996564 234.0 99.0" fill="none" stroke="#00d9ff" stroke-width="1.2692307692307692" stroke-linecap="round" opacity="0.7235294117647059" />
  <path d="M 234.0 99.0 Q 243.0 97.31903532095018 252.0 99.0" fill="none" stroke="#00d9ff" stroke-width="1.2692307692307692" stroke-linecap="round" opacity="0.7588235294117647" />
  <path d="M 252.0 99.0 Q 261.0 99.6258629463872 270.0 99.0" fill="none" stroke="#00d9ff" stroke-width="1.2692307692307692" stroke-linecap="round" opacity="0.7941176470588235" />
  <path d="M 270.0 99.0 Q 279.0 101.84816431288834 288.0 99.0" fill="none" stroke="#00d9ff" stroke-width="1.2692307692307692" stroke-linecap="round" opacity="0.8294117647058823" />
  <path d="M 288.0 99.0 Q 297.0 103.68580530671063 306.0 99.0" fill="none" stroke="#00d9ff" stroke-width="1.2692307692307692" stroke-linecap="round" opacity="0.8647058823529412" />
  <path d="M 306.0 99.0 Q 315.0 104.8906023289181 324.0 99.0" fill="none" stroke="#00d9ff" stroke-width="1.2692307692307692" stroke-linecap="round" opacity="0.8999999999999999" />
  <path d="M 0.0 117.0 Q 9.0 123.25406590681774 18.0 117.0" fill="none" stroke="#00d9ff" stroke-width="1.4230769230769231" stroke-linecap="round" opacity="0.3" />
  <path d="M 18.0 117.0 Q 27.0 123.10606286760834 36.0 117.0" fill="none" stroke="#00d9ff" stroke-width="1.4230769230769231" stroke-linecap="round" opacity="0.3352941176470588" />
  <path d="M 36.0 117.0 Q 45.0 122.13340220326609 54.0 117.0" fill="none" stroke="#00d9ff" stroke-width="1.4230769230769231" stroke-linecap="round" opacity="0.37058823529411766" />
  <path d="M 54.0 117.0 Q 63.0 120.46744712620917 72.0 117.0" fill="none" stroke="#00d9ff" stroke-width="1.4230769230769231" stroke-linecap="round" opacity="0.40588235294117647" />
  <path d="M 72.0 117.0 Q 81.0 118.33319410096989 90.0 117.0" fill="none" stroke="#00d9ff" stroke-width="1.4230769230769231" stroke-linecap="round" opacity="0.4411764705882353" />
  <path d="M 90.0 117.0 Q 99.0 116.01888582491108 108.0 117.0" fill="none" stroke="#00d9ff" stroke-width="1.4230769230769231" stroke-linecap="round" opacity="0.4764705882352941" />
  <path d="M 108.0 117.0 Q 117.0 113.83708245473937 126.0 117.0" fill="none" stroke="#00d9ff" stroke-width="1.4230769230769231" stroke-linecap="round" opacity="0.5117647058823529" />
  <path d="M 126.0 117.0 Q 135.0 112.08244862538625 144.0 117.0" fill="none" stroke="#00d9ff" stroke-width="1.4230769230769231" stroke-linecap="round" opacity="0.5470588235294117" />
  <path d="M 144.0 117.0 Q 153.0 110.99195735826754 162.0 117.0" fill="none" stroke="#00d9ff" stroke-width="1.4230769230769231" stroke-linecap="round" opacity="0.5823529411764705" />
  <path d="M 162.0 117.0 Q 171.0 110.71288554162837 180.0 117.0" fill="none" stroke="#00d9ff" stroke-width="1.4230769230769231" stroke-linecap="round" opacity="0.6176470588235294" />
  <path d="M 180.0 117.0 Q 189.0 111.28292337069614 198.0 117.0" fill="none" stroke="#00d9ff" stroke-width="1.4230769230769231" stroke-linecap="round" opacity="0.6529411764705882" />
  <path d="M 198.0 117.0 Q 207.0 112.6250840779666 216.0 117.0" fill="none" stroke="#00d9ff" stroke-width="1.4230769230769231" stroke-linecap="round" opacity="0.6882352941176471" />
  <path d="M 216.0 117.0 Q 225.0 114.55810142275368 234.0 117.0" fill="none" stroke="#00d9ff" stroke-width="1.4230769230769231" stroke-linecap="round" opacity="0.7235294117647059" />
  <path d="M 234.0 117.0 Q 243.0 116.82091070142499 252.0 117.0" fill="none" stroke="#00d9ff" stroke-width="1.4230769230769231" stroke-linecap="round" opacity="0.7588235294117647" />
  <path d="M 252.0 117.0 Q 261.0 119.10790698223693 270.0 117.0" fill="none" stroke="#00d9ff" stroke-width="1.4230769230769231" stroke-linecap="round" opacity="0.7941176470588235" />
  <path d="M 270.0 117.0 Q 279.0 121.11021874478195 288.0 117.0" fill="none" stroke="#00d9ff" stroke-width="1.4230769230769231" stroke-linecap="round" opacity="0.8294117647058823" />
  <path d="M 288.0 117.0 Q 297.0 122.55742269033587 306.0 117.0" fill="none" stroke="#00d9ff" stroke-width="1.4230769230769231" stroke-linecap="round" opacity="0.8647058823529412" />
  <path d="M 306.0 117.0 Q 315.0 123.25406590681774 324.0 117.0" fill="none" stroke="#00d9ff" stroke-width="1.4230769230769231" stroke-linecap="round" opacity="0.8999999999999999" />
  <path d="M 0.0 135.0 Q 9.0 141.25406590681774 18.0 135.0" fill="none" stroke="#00d9ff" stroke-width="1.5769230769230769" stroke-linecap="round" opacity="0.3" />
  <path d="M 18.0 135.0 Q 27.0 140.55742269033587 36.0 135.0" fill="none" stroke="#00d9ff" stroke-width="1.5769230769230769" stroke-linecap="round" opacity="0.3352941176470588" />
  <path d="M 36.0 135.0 Q 45.0 139.11021874478195 54.0 135.0" fill="none" stroke="#00d9ff" stroke-width="1.5769230769230769" stroke-linecap="round" opacity="0.37058823529411766" />
  <path d="M 54.0 135.0 Q 63.0 137.10790698223693 72.0 135.0" fill="none" stroke="#00d9ff" stroke-width="1.5769230769230769" stroke-linecap="round" opacity="0.40588235294117647" />
  <path d="M 72.0 135.0 Q 81.0 134.820910701425 90.0 135.0" fill="none" stroke="#00d9ff" stroke-width="1.5769230769230769" stroke-linecap="round" opacity="0.4411764705882353" />
  <path d="M 90.0 135.0 Q 99.0 132.55810142275368 108.0 135.0" fill="none" stroke="#00d9ff" stroke-width="1.5769230769230769" stroke-linecap="round" opacity="0.4764705882352941" />
  <path d="M 108.0 135.0 Q 117.0 130.62508407796662 126.0 135.0" fill="none" stroke="#00d9ff" stroke-width="1.5769230769230769" stroke-linecap="round" opacity="0.5117647058823529" />
  <path d="M 126.0 135.0 Q 135.0 129.28292337069612 144.0 135.0" fill="none" stroke="#00d9ff" stroke-width="1.5769230769230769" stroke-linecap="round" opacity="0.5470588235294117" />
  <path d="M 144.0 135.0 Q 153.0 128.71288554162837 162.0 135.0" fill="none" stroke="#00d9ff" stroke-width="1.5769230769230769" stroke-linecap="round" opacity="0.5823529411764705" />
  <path d="M 162.0 135.0 Q 171.0 128.99195735826754 180.0 135.0" fill="none" stroke="#00d9ff" stroke-width="1.5769230769230769" stroke-linecap="round" opacity="0.6176470588235294" />
  <path d="M 180.0 135.0 Q 189.0 130.08244862538623 198.0 135.0" fill="none" stroke="#00d9ff" stroke-width="1.5769230769230769" stroke-linecap="round" opacity="0.6529411764705882" />
  <path d="M 198.0 135.0 Q 207.0 131.83708245473937 216.0 135.0" fill="none" stroke="#00d9ff" stroke-width="1.5769230769230769" stroke-linecap="round" opacity="0.6882352941176471" />
  <path d="M 216.0 135.0 Q 225.0 134.01888582491108 234.0 135.0" fill="none" stroke="#00d9ff" stroke-width="1.5769230769230769" stroke-linecap="round" opacity="0.7235294117647059" />
  <path d="M 234.0 135.0 Q 243.0 136.33319410096988 252.0 135.0" fill="none" stroke="#00d9ff" stroke-width="1.5769230769230769" stroke-linecap="round" opacity="0.7588235294117647" />
  <path d="M 252.0 135.0 Q 261.0 138.46744712620915 270.0 135.0" fill="none" stroke="#00d9ff" stroke-width="1.5769230769230769" stroke-linecap="round" opacity="0.7941176470588235" />
  <path d="M 270.0 135.0 Q 279.0 140.1334022032661 288.0 135.0" fill="none" stroke="#00d9ff" stroke-width="1.5769230769230769" stroke-linecap="round" opacity="0.8294117647058823" />
  <path d="M 288.0 135.0 Q 297.0 141.10606286760836 306.0 135.0" fill="none" stroke="#00d9ff" stroke-width="1.5769230769230769" stroke-linecap="round" opacity="0.8647058823529412" />
  <path d="M 306.0 135.0 Q 315.0 141.25406590681774 324.0 135.0" fill="none" stroke="#00d9ff" stroke-width="1.5769230769230769" stroke-linecap="round" opacity="0.8999999999999999" />
  <path d="M 0.0 153.0 Q 9.0 158.8906023289181 18.0 153.0" fill="none" stroke="#00d9ff" stroke-width="1.7307692307692308" stroke-linecap="round" opacity="0.3" />
  <path d="M 18.0 153.0 Q 27.0 157.68580530671065 36.0 153.0" fill="none" stroke="#00d9ff" stroke-width="1.7307692307692308" stroke-linecap="round" opacity="0.3352941176470588" />
  <path d="M 36.0 153.0 Q 45.0 155.84816431288834 54.0 153.0" fill="none" stroke="#00d9ff" stroke-width="1.7307692307692308" stroke-linecap="round" opacity="0.37058823529411766" />
  <path d="M 54.0 153.0 Q 63.0 153.6258629463872 72.0 153.0" fill="none" stroke="#00d9ff" stroke-width="1.7307692307692308" stroke-linecap="round" opacity="0.40588235294117647" />
  <path d="M 72.0 153.0 Q 81.0 151.31903532095018 90.0 153.0" fill="none" stroke="#00d9ff" stroke-width="1.7307692307692308" stroke-linecap="round" opacity="0.4411764705882353" />
  <path d="M 90.0 153.0 Q 99.0 149.23923128996566 108.0 153.0" fill="none" stroke="#00d9ff" stroke-width="1.7307692307692308" stroke-linecap="round" opacity="0.4764705882352941" />
  <path d="M 108.0 153.0 Q 117.0 147.66733991241009 126.0 153.0" fill="none" stroke="#00d9ff" stroke-width="1.7307692307692308" stroke-linecap="round" opacity="0.5117647058823529" />
  <path d="M 126.0 153.0 Q 135.0 146.81565382897315 144.0 153.0" fill="none" stroke="#00d9ff" stroke-width="1.7307692307692308" stroke-linecap="round" opacity="0.5470588235294117" />
  <path d="M 144.0 153.0 Q 153.0 146.79919796457852 162.0 153.0" fill="none" stroke="#00d9ff" stroke-width="1.7307692307692308" stroke-linecap="round" opacity="0.5823529411764705" />
  <path d="M 162.0 153.0 Q 171.0 147.62019477489778 180.0 153.0" fill="none" stroke="#00d9ff" stroke-width="1.7307692307692308" stroke-linecap="round" opacity="0.6176470588235294" />
  <path d="M 180.0 153.0 Q 189.0 149.16776409139695 198.0 153.0" fill="none" stroke="#00d9ff" stroke-width="1.7307692307692308" stroke-linecap="round" opacity="0.6529411764705882" />
  <path d="M 198.0 153.0 Q 207.0 151.23289810250517 216.0 153.0" fill="none" stroke="#00d9ff" stroke-width="1.7307692307692308" stroke-linecap="round" opacity="0.6882352941176471" />
  <path d="M 216.0 153.0 Q 225.0 153.53668901671975 234.0 153.0" fill="none" stroke="#00d9ff" stroke-width="1.7307692307692308" stroke-linecap="round" opacity="0.7235294117647059" />
  <path d="M 234.0 153.0 Q 243.0 155.76799710532978 252.0 153.0" fill="none" stroke="#00d9ff" stroke-width="1.7307692307692308" stroke-linecap="round" opacity="0.7588235294117647" />
  <path d="M 252.0 153.0 Q 261.0 157.6254718468636 270.0 153.0" fill="none" stroke="#00d9ff" stroke-width="1.7307692307692308" stroke-linecap="round" opacity="0.7941176470588235" />
  <path d="M 270.0 153.0 Q 279.0 158.85825098485418 288.0 153.0" fill="none" stroke="#00d9ff" stroke-width="1.7307692307692308" stroke-linecap="round" opacity="0.8294117647058823" />
  <path d="M 288.0 153.0 Q 297.0 159.29984086565088 306.0 153.0" fill="none" stroke="#00d9ff" stroke-width="1.7307692307692308" stroke-linecap="round" opacity="0.8647058823529412" />
  <path d="M 306.0 153.0 Q 315.0 158.8906023289181 324.0 153.0" fill="none" stroke="#00d9ff" stroke-width="1.7307692307692308" stroke-linecap="round" opacity="0.8999999999999999" />
  <path d="M 0.0 171.0 Q 9.0 176.18479835513003 18.0 171.0" fill="none" stroke="#00d9ff" stroke-width="1.8846153846153846" stroke-linecap="round" opacity="0.3" />
  <path d="M 18.0 171.0 Q 27.0 174.54186595086867 36.0 171.0" fill="none" stroke="#00d9ff" stroke-width="1.8846153846153846" stroke-linecap="round" opacity="0.3352941176470588" />
  <path d="M 36.0 171.0 Q 45.0 172.42058492378573 54.0 171.0" fill="none" stroke="#00d9ff" stroke-width="1.8846153846153846" stroke-linecap="round" opacity="0.37058823529411766" />
  <path d="M 54.0 171.0 Q 63.0 170.10744603101273 72.0 171.0" fill="none" stroke="#00d9ff" stroke-width="1.8846153846153846" stroke-linecap="round" opacity="0.40588235294117647" />
  <path d="M 72.0 171.0 Q 81.0 167.91485149756372 90.0 171.0" fill="none" stroke="#00d9ff" stroke-width="1.8846153846153846" stroke-linecap="round" opacity="0.4411764705882353" />
  <path d="M 90.0 171.0 Q 99.0 166.13892336476675 108.0 171.0" fill="none" stroke="#00d9ff" stroke-width="1.8846153846153846" stroke-linecap="round" opacity="0.4764705882352941" />
  <path d="M 108.0 171.0 Q 117.0 165.01951056771355 126.0 171.0" fill="none" stroke="#00d9ff" stroke-width="1.8846153846153846" stroke-linecap="round" opacity="0.5117647058823529" />
  <path d="M 126.0 171.0 Q 135.0 164.70779600752655 144.0 171.0" fill="none" stroke="#00d9ff" stroke-width="1.8846153846153846" stroke-linecap="round" opacity="0.5470588235294117" />
  <path d="M 144.0 171.0 Q 153.0 165.24587846282904 162.0 171.0" fill="none" stroke="#00d9ff" stroke-width="1.8846153846153846" stroke-linecap="round" opacity="0.5823529411764705" />
  <path d="M 162.0 171.0 Q 171.0 166.5610869164146 180.0 171.0" fill="none" stroke="#00d9ff" stroke-width="1.8846153846153846" stroke-linecap="round" opacity="0.6176470588235294" />
  <path d="M 180.0 171.0 Q 189.0 168.4757951788049 198.0 171.0" fill="none" stroke="#00d9ff" stroke-width="1.8846153846153846" stroke-linecap="round" opacity="0.6529411764705882" />
  <path d="M 198.0 171.0 Q 207.0 170.73141128939935 216.0 171.0" fill="none" stroke="#00d9ff" stroke-width="1.8846153846153846" stroke-linecap="round" opacity="0.6882352941176471" />
  <path d="M 216.0 171.0 Q 225.0 173.02330179366183 234.0 171.0" fill="none" stroke="#00d9ff" stroke-width="1.8846153846153846" stroke-linecap="round" opacity="0.7235294117647059" />
  <path d="M 234.0 171.0 Q 243.0 175.04193417918802 252.0 171.0" fill="none" stroke="#00d9ff" stroke-width="1.8846153846153846" stroke-linecap="round" opacity="0.7588235294117647" />
  <path d="M 252.0 171.0 Q 261.0 176.5146809566844 270.0 171.0" fill="none" stroke="#00d9ff" stroke-width="1.8846153846153846" stroke-linecap="round" opacity="0.7941176470588235" />
  <path d="M 270.0 171.0 Q 279.0 177.24263951307847 288.0 171.0" fill="none" stroke="#00d9ff" stroke-width="1.8846153846153846" stroke-linecap="round" opacity="0.8294117647058823" />
  <path d="M 288.0 171.0 Q 297.0 177.12749501157163 306.0 171.0" fill="none" stroke="#00d9ff" stroke-width="1.8846153846153846" stroke-linecap="round" opacity="0.8647058823529412" />
  <path d="M 306.0 171.0 Q 315.0 176.18479835513003 324.0 171.0" fill="none" stroke="#00d9ff" stroke-width="1.8846153846153846" stroke-linecap="round" opacity="0.8999999999999999" />
  <path d="M 0.0 189.0 Q 9.0 193.177672746917 18.0 189.0" fill="none" stroke="#00d9ff" stroke-width="2.0384615384615383" stroke-linecap="round" opacity="0.3" />
  <path d="M 18.0 189.0 Q 27.0 191.1920862201211 36.0 189.0" fill="none" stroke="#00d9ff" stroke-width="2.0384615384615383" stroke-linecap="round" opacity="0.3352941176470588" />
  <path d="M 36.0 189.0 Q 45.0 188.91044630252878 54.0 189.0" fill="none" stroke="#00d9ff" stroke-width="2.0384615384615383" stroke-linecap="round" opacity="0.37058823529411766" />
  <path d="M 54.0 189.0 Q 63.0 186.6409011080141 72.0 189.0" fill="none" stroke="#00d9ff" stroke-width="2.0384615384615383" stroke-linecap="round" opacity="0.40588235294117647" />
  <path d="M 72.0 189.0 Q 81.0 184.68996529108034 90.0 189.0" fill="none" stroke="#00d9ff" stroke-width="2.0384615384615383" stroke-linecap="round" opacity="0.4411764705882353" />
  <path d="M 90.0 189.0 Q 99.0 183.321123544313 108.0 189.0" fill="none" stroke="#00d9ff" stroke-width="2.0384615384615383" stroke-linecap="round" opacity="0.4764705882352941" />
  <path d="M 108.0 189.0 Q 117.0 182.7192455306269 126.0 189.0" fill="none" stroke="#00d9ff" stroke-width="2.0384615384615383" stroke-linecap="round" opacity="0.5117647058823529" />
  <path d="M 126.0 189.0 Q 135.0 182.9656182108916 144.0 189.0" fill="none" stroke="#00d9ff" stroke-width="2.0384615384615383" stroke-linecap="round" opacity="0.5470588235294117" />
  <path d="M 144.0 189.0 Q 153.0 184.02696758943918 162.0 189.0" fill="none" stroke="#00d9ff" stroke-width="2.0384615384615383" stroke-linecap="round" opacity="0.5823529411764705" />
  <path d="M 162.0 189.0 Q 171.0 185.75995255155686 180.0 189.0" fill="none" stroke="#00d9ff" stroke-width="2.0384615384615383" stroke-linecap="round" opacity="0.6176470588235294" />
  <path d="M 180.0 189.0 Q 189.0 187.93052387530952 198.0 189.0" fill="none" stroke="#00d9ff" stroke-width="2.0384615384615383" stroke-linecap="round" opacity="0.6529411764705882" />
  <path d="M 198.0 189.0 Q 207.0 190.24553387587338 216.0 189.0" fill="none" stroke="#00d9ff" stroke-width="2.0384615384615383" stroke-linecap="round" opacity="0.6882352941176471" />
  <path d="M 216.0 189.0 Q 225.0 192.3923276247591 234.0 189.0" fill="none" stroke="#00d9ff" stroke-width="2.0384615384615383" stroke-linecap="round" opacity="0.7235294117647059" />
  <path d="M 234.0 189.0 Q 243.0 194.0809687303848 252.0 189.0" fill="none" stroke="#00d9ff" stroke-width="2.0384615384615383" stroke-linecap="round" opacity="0.7588235294117647" />
  <path d="M 252.0 189.0 Q 261.0 195.08339685435237 270.0 189.0" fill="none" stroke="#00d9ff" stroke-width="2.0384615384615383" stroke-linecap="round" opacity="0.7941176470588235" />
  <path d="M 270.0 189.0 Q 279.0 195.264228523874 288.0 189.0" fill="none" stroke="#00d9ff" stroke-width="2.0384615384615383" stroke-linecap="round" opacity="0.8294117647058823" />
  <path d="M 288.0 189.0 Q 297.0 194.59904141995796 306.0 189.0" fill="none" stroke="#00d9ff" stroke-width="2.0384615384615383" stroke-linecap="round" opacity="0.8647058823529412" />
  <path d="M 306.0 189.0 Q 315.0 193.177672746917 324.0 189.0" fill="none" stroke="#00d9ff" stroke-width="2.0384615384615383" stroke-linecap="round" opacity="0.8999999999999999" />
  <path d="M 0.0 207.0 Q 9.0 209.92775598387576 18.0 207.0" fill="none" stroke="#00d9ff" stroke-width="2.1923076923076925" stroke-linecap="round" opacity="0.3" />
  <path d="M 18.0 207.0 Q 27.0 207.7149104061693 36.0 207.0" fill="none" stroke="#00d9ff" stroke-width="2.1923076923076925" stroke-linecap="round" opacity="0.3352941176470588" />
  <path d="M 36.0 207.0 Q 45.0 205.4055122166544 54.0 207.0" fill="none" stroke="#00d9ff" stroke-width="2.1923076923076925" stroke-linecap="round" opacity="0.37058823529411766" />
  <path d="M 54.0 207.0 Q 63.0 203.31145843764213 72.0 207.0" fill="none" stroke="#00d9ff" stroke-width="2.1923076923076925" stroke-linecap="round" opacity="0.40588235294117647" />
  <path d="M 72.0 207.0 Q 81.0 201.71556263554066 90.0 207.0" fill="none" stroke="#00d9ff" stroke-width="2.1923076923076925" stroke-linecap="round" opacity="0.4411764705882353" />
  <path d="M 90.0 207.0 Q 99.0 200.8333593815877 108.0 207.0" fill="none" stroke="#00d9ff" stroke-width="2.1923076923076925" stroke-linecap="round" opacity="0.4764705882352941" />
  <path d="M 108.0 207.0 Q 117.0 200.78399511368661 126.0 207.0" fill="none" stroke="#00d9ff" stroke-width="2.1923076923076925" stroke-linecap="round" opacity="0.5117647058823529" />
  <path d="M 126.0 207.0 Q 135.0 201.57413674975427 144.0 207.0" fill="none" stroke="#00d9ff" stroke-width="2.1923076923076925" stroke-linecap="round" opacity="0.5470588235294117" />
  <path d="M 144.0 207.0 Q 153.0 203.09707128351377 162.0 207.0" fill="none" stroke="#00d9ff" stroke-width="2.1923076923076925" stroke-linecap="round" opacity="0.5823529411764705" />
  <path d="M 162.0 207.0 Q 171.0 205.14711796730936 180.0 207.0" fill="none" stroke="#00d9ff" stroke-width="2.1923076923076925" stroke-linecap="round" opacity="0.6176470588235294" />
  <path d="M 180.0 207.0 Q 189.0 207.4474066367936 198.0 207.0" fill="none" stroke="#00d9ff" stroke-width="2.1923076923076925" stroke-linecap="round" opacity="0.6529411764705882" />
  <path d="M 198.0 207.0 Q 207.0 209.6872705608131 216.0 207.0" fill="none" stroke="#00d9ff" stroke-width="2.1923076923076925" stroke-linecap="round" opacity="0.6882352941176471" />
  <path d="M 216.0 207.0 Q 225.0 211.56420370491455 234.0 207.0" fill="none" stroke="#00d9ff" stroke-width="2.1923076923076925" stroke-linecap="round" opacity="0.7235294117647059" />
  <path d="M 234.0 207.0 Q 243.0 212.8247158475415 252.0 207.0" fill="none" stroke="#00d9ff" stroke-width="2.1923076923076925" stroke-linecap="round" opacity="0.7588235294117647" />
  <path d="M 252.0 207.0 Q 261.0 213.29856783909327 270.0 207.0" fill="none" stroke="#00d9ff" stroke-width="2.1923076923076925" stroke-linecap="round" opacity="0.7941176470588235" />
  <path d="M 270.0 207.0 Q 279.0 212.92176334240625 288.0 207.0" fill="none" stroke="#00d9ff" stroke-width="2.1923076923076925" stroke-linecap="round" opacity="0.8294117647058823" />
  <path d="M 288.0 207.0 Q 297.0 211.74519189270382 306.0 207.0" fill="none" stroke="#00d9ff" stroke-width="2.1923076923076925" stroke-linecap="round" opacity="0.8647058823529412" />
  <path d="M 306.0 207.0 Q 315.0 209.92775598387576 324.0 207.0" fill="none" stroke="#00d9ff" stroke-width="2.1923076923076925" stroke-linecap="round" opacity="0.8999999999999999" />
  <path d="M 0.0 225.0 Q 9.0 226.5076886850116 18.0 225.0" fill="none" stroke="#00d9ff" stroke-width="2.3461538461538463" stroke-linecap="round" opacity="0.3" />
  <path d="M 18.0 225.0 Q 27.0 224.19618659800454 36.0 225.0" fill="none" stroke="#00d9ff" stroke-width="2.3461538461538463" stroke-linecap="round" opacity="0.3352941176470588" />
  <path d="M 36.0 225.0 Q 45.0 221.9932439650208 54.0 225.0" fill="none" stroke="#00d9ff" stroke-width="2.3461538461538463" stroke-linecap="round" opacity="0.37058823529411766" />
  <path d="M 54.0 225.0 Q 63.0 220.19638039557134 72.0 225.0" fill="none" stroke="#00d9ff" stroke-width="2.3461538461538463" stroke-linecap="round" opacity="0.40588235294117647" />
  <path d="M 72.0 225.0 Q 81.0 219.04827227147507 90.0 225.0" fill="none" stroke="#00d9ff" stroke-width="2.3461538461538463" stroke-linecap="round" opacity="0.4411764705882353" />
  <path d="M 90.0 225.0 Q 99.0 218.70397795677792 108.0 225.0" fill="none" stroke="#00d9ff" stroke-width="2.3461538461538463" stroke-linecap="round" opacity="0.4764705882352941" />
  <path d="M 108.0 225.0 Q 117.0 219.20999630648043 126.0 225.0" fill="none" stroke="#00d9ff" stroke-width="2.3461538461538463" stroke-linecap="round" opacity="0.5117647058823529" />
  <path d="M 126.0 225.0 Q 135.0 220.49798673851078 144.0 225.0" fill="none" stroke="#00d9ff" stroke-width="2.3461538461538463" stroke-linecap="round" opacity="0.5470588235294117" />
  <path d="M 144.0 225.0 Q 153.0 222.3939990080219 162.0 225.0" fill="none" stroke="#00d9ff" stroke-width="2.3461538461538463" stroke-linecap="round" opacity="0.5823529411764705" />
  <path d="M 162.0 225.0 Q 171.0 224.6419661518497 180.0 225.0" fill="none" stroke="#00d9ff" stroke-width="2.3461538461538463" stroke-linecap="round" opacity="0.6176470588235294" />
  <path d="M 180.0 225.0 Q 189.0 226.9382877508042 198.0 225.0" fill="none" stroke="#00d9ff" stroke-width="2.3461538461538463" stroke-linecap="round" opacity="0.6529411764705882" />
  <path d="M 198.0 225.0 Q 207.0 228.97283284858938 216.0 225.0" fill="none" stroke="#00d9ff" stroke-width="2.3461538461538463" stroke-linecap="round" opacity="0.6882352941176471" />
  <path d="M 216.0 225.0 Q 225.0 230.47082485594584 234.0 225.0" fill="none" stroke="#00d9ff" stroke-width="2.3461538461538463" stroke-linecap="round" opacity="0.7235294117647059" />
  <path d="M 234.0 225.0 Q 243.0 231.22995165161976 252.0 225.0" fill="none" stroke="#00d9ff" stroke-width="2.3461538461538463" stroke-linecap="round" opacity="0.7588235294117647" />
  <path d="M 252.0 225.0 Q 261.0 231.14768895538862 270.0 225.0" fill="none" stroke="#00d9ff" stroke-width="2.3461538461538463" stroke-linecap="round" opacity="0.7941176470588235" />
  <path d="M 270.0 225.0 Q 279.0 230.23514680021174 288.0 225.0" fill="none" stroke="#00d9ff" stroke-width="2.3461538461538463" stroke-linecap="round" opacity="0.8294117647058823" />
  <path d="M 288.0 225.0 Q 297.0 228.61556906071644 306.0 225.0" fill="none" stroke="#00d9ff" stroke-width="2.3461538461538463" stroke-linecap="round" opacity="0.8647058823529412" />
  <path d="M 306.0 225.0 Q 315.0 226.5076886850116 324.0 225.0" fill="none" stroke="#00d9ff" stroke-width="2.3461538461538463" stroke-linecap="round" opacity="0.8999999999999999" />
  <path d="M 0.0 243.0 Q 9.0 243.0 18.0 243.0" fill="none" stroke="#00d9ff" stroke-width="2.5" stroke-linecap="round" opacity="0.3" />
  <path d="M 18.0 243.0 Q 27.0 240.72417750302094 36.0 243.0" fill="none" stroke="#00d9ff" stroke-width="2.5" stroke-linecap="round" opacity="0.3352941176470588" />
  <path d="M 36.0 243.0 Q 45.0 238.75571744502668 54.0 243.0" fill="none" stroke="#00d9ff" stroke-width="2.5" stroke-linecap="round" opacity="0.37058823529411766" />
  <path d="M 54.0 243.0 Q 63.0 237.36047126446311 72.0 243.0" fill="none" stroke="#00d9ff" stroke-width="2.5" stroke-linecap="round" opacity="0.40588235294117647" />
  <path d="M 72.0 243.0 Q 81.0 236.7268746893413 90.0 243.0" fill="none" stroke="#00d9ff" stroke-width="2.5" stroke-linecap="round" opacity="0.4411764705882353" />
  <path d="M 90.0 243.0 Q 99.0 236.94049844801123 108.0 243.0" fill="none" stroke="#00d9ff" stroke-width="2.5" stroke-linecap="round" opacity="0.4764705882352941" />
  <path d="M 108.0 243.0 Q 117.0 237.97249146813448 126.0 243.0" fill="none" stroke="#00d9ff" stroke-width="2.5" stroke-linecap="round" opacity="0.5117647058823529" />
  <path d="M 126.0 243.0 Q 135.0 239.68347737387265 144.0 243.0" fill="none" stroke="#00d9ff" stroke-width="2.5" stroke-linecap="round" opacity="0.5470588235294117" />
  <path d="M 144.0 243.0 Q 153.0 241.84237803775562 162.0 243.0" fill="none" stroke="#00d9ff" stroke-width="2.5" stroke-linecap="round" opacity="0.5823529411764705" />
  <path d="M 162.0 243.0 Q 171.0 244.15762196224438 180.0 243.0" fill="none" stroke="#00d9ff" stroke-width="2.5" stroke-linecap="round" opacity="0.6176470588235294" />
  <path d="M 180.0 243.0 Q 189.0 246.31652262612735 198.0 243.0" fill="none" stroke="#00d9ff" stroke-width="2.5" stroke-linecap="round" opacity="0.6529411764705882" />
  <path d="M 198.0 243.0 Q 207.0 248.02750853186552 216.0 243.0" fill="none" stroke="#00d9ff" stroke-width="2.5" stroke-linecap="round" opacity="0.6882352941176471" />
  <path d="M 216.0 243.0 Q 225.0 249.05950155198877 234.0 243.0" fill="none" stroke="#00d9ff" stroke-width="2.5" stroke-linecap="round" opacity="0.7235294117647059" />
  <path d="M 234.0 243.0 Q 243.0 249.2731253106587 252.0 243.0" fill="none" stroke="#00d9ff" stroke-width="2.5" stroke-linecap="round" opacity="0.7588235294117647" />
  <path d="M 252.0 243.0 Q 261.0 248.63952873553689 270.0 243.0" fill="none" stroke="#00d9ff" stroke-width="2.5" stroke-linecap="round" opacity="0.7941176470588235" />
  <path d="M 270.0 243.0 Q 279.0 247.24428255497332 288.0 243.0" fill="none" stroke="#00d9ff" stroke-width="2.5" stroke-linecap="round" opacity="0.8294117647058823" />
  <path d="M 288.0 243.0 Q 297.0 245.27582249697906 306.0 243.0" fill="none" stroke="#00d9ff" stroke-width="2.5" stroke-linecap="round" opacity="0.8647058823529412" />
  <path d="M 306.0 243.0 Q 315.0 243.0 324.0 243.0" fill="none" stroke="#00d9ff" stroke-width="2.5" stroke-linecap="round" opacity="0.8999999999999999" />
</svg>