<?xml version="1.0" encoding="UTF-8"?>
<svg xmlns="http://www.w3.org/2000/svg" width="330" height="264" viewBox="0 0 330 264">
  <rect width="100%" height="100%" fill="#1a1a2e" />
  <line x1="11" y1="11" x2="11" y2="33" stroke="#ffe66d" stroke-width="3" stroke-linecap="round" opacity="0.8" />
  <line x1="33" y1="11" x2="33" y2="33" stroke="#ffe66d" stroke-width="3" stroke-linecap="round" opacity="0.8" />
  <line x1="33" y1="11" x2="55" y2="11" stroke="#ffe66d" stroke-width="3" stroke-linecap="round" opacity="0.8" />
  <line x1="55" y1="11" x2="55" y2="33" stroke="#ffe66d" stroke-width="3" stroke-linecap="round" opacity="0.8" />
  <line x1="77" y1="11" x2="77" y2="33" stroke="#ffe66d" stroke-width="3" stroke-linecap="round" opacity="0.8" />
  <line x1="77" y1="11" x2="99" y2="11" stroke="#ffe66d" stroke-width="3" stroke-linecap="round" opacity="0.8" />
  <line x1="99" y1="11" x2="99" y2="33" stroke="#ffe66d" stroke-width="3" stroke-linecap="round" opacity="0.8" />
  <line x1="121" y1="11" x2="121" y2="33" stroke="#ffe66d" stroke-width="3" stroke-linecap="round" opacity="0.8" />
  <line x1="121" y1="11" x2="143" y2="11" stroke="#ffe66d" stroke-width="3" stroke-linecap="round" opacity="0.8" />
  <line x1="143" y1="11" x2="165" y2="11" stroke="#ffe66d" stroke-width="3" stroke-linecap="round" opacity="0.8" />
  <line x1="165" y1="11" x2="187" y2="11" stroke="#ffe66d" stroke-width="3" stroke-linecap="round" opacity="0.8" />
  <line x1="187" y1="11" x2="209" y2="11" stroke="#ffe66d" stroke-width="3" stroke-linecap="round" opacity="0.8" />
  <line x1="209" y1="11" x2="231" y2="11" stroke="#ffe66d" stroke-width="3" stroke-linecap="round" opacity="0.8" />
  <line x1="231" y1="11" x2="231" y2="33" stroke="#ffe66d" stroke-width="3" stroke-linecap="round" opacity="0.8" />
  <line x1="253" y1="11" x2="253" y2="33" stroke="#ffe66d" stroke-width="3" stroke-linecap="round" opacity="0.8" />
  <line x1="275" y1="11" x2="297" y2="11" stroke="#ffe66d" stroke-width="3" stroke-linecap="round" opacity="0.8" />
  <line x1="275" y1="11" x2="275" y2="33" stroke="#ffe66d" stroke-width="3" stroke-linecap="round" opacity="0.8" />
  <line x1="297" y1="11" x2="297" y2="33" stroke="#ffe66d" stroke-width="3" stroke-linecap="round" opacity="0.8" />
  <line x1="297" y1="11" x2="319" y2="11" stroke="#ffe66d" stroke-width="3" stroke-linecap="round" opacity="0.8" />
  <line x1="11" y1="33" x2="11" y2="55" stroke="#ffe66d" stroke-width="3" stroke-linecap="round" opacity="0.8" />
  <line x1="33" y1="33" x2="33" y2="55" stroke="#ffe66d" stroke-width="3" stroke-linecap="round" opacity="0.8" />
  <line x1="55" y1="33" x2="55" y2="55" stroke="#ffe66d" stroke-width="3" stroke-linecap="round" opacity="0.8" />
  <line x1="77" y1="33" x2="77" y2="55" stroke="#ffe66d" stroke-width="3" stroke-linecap="round" opacity="0.8" />
  <line x1="99" y1="33" x2="99" y2="55" stroke="#ffe66d" stroke-width="3" stroke-linecap="round" opacity="0.8" />
  <line x1="121" y1="33" x2="143" y2="33" stroke="#ffe66d" stroke-width="3" stroke-linecap="round" opacity="0.8" />
  <line x1="143" y1="33" x2="143" y2="55" stroke="#ffe66d" stroke-width="3" stroke-linecap="round" opacity="0.8" />
  <line x1="165" y1="33" x2="187" y2="33" stroke="#ffe66d" stroke-width="3" stroke-linecap="round" opacity="0.8" />
  <line x1="165" y1="33" x2="165" y2="55" stroke="#ffe66d" stroke-width="3" stroke-linecap="round" opacity="0.8" />
  <line x1="187" y1="33" x2="209" y2="33" stroke="#ffe66d" stroke-width="3" stroke-linecap="round" opacity="0.8" />
  <line x1="209" y1="33" x2="209" y2="55" stroke="#ffe66d" stroke-width="3" stroke-linecap="round" opacity="0.8" />
  <line x1="231" y1="33" x2="231" y2="55" stroke="#ffe66d" stroke-width="3" stroke-linecap="round" opacity="0.8" />
  <line x1="253" y1="33" x2="253" y2="55" stroke="#ffe66d" stroke-width="3" stroke-linecap="round" opacity="0.8" />
  <line x1="275" y1="33" x2="275" y2="55" stroke="#ffe66d" stroke-width="3" stroke-linecap="round" opacity="0.8" />
  <line x1="297" y1="33" x2="319" y2="33" stroke="#ffe66d" stroke-width="3" stroke-linecap="round" opacity="0.8" />
  <line x1="319" y1="33" x2="319" y2="55" stroke="#ffe66d" stroke-width="3" stroke-linecap="round" opacity="0.8" />
  <line x1="11" y1="55" x2="33" y2="55" stroke="#ffe66d" stroke-width="3" stroke-linecap="round" opacity="0.8" />
  <line x1="55" y1="55" x2="77" y2="55" stroke="#ffe66d" stroke-width="3" stroke-linecap="round" opacity="0.8" />
  <line x1="99" y1="55" x2="99" y2="77" stroke="#ffe66d" stroke-width="3" stroke-linecap="round" opacity="0.8" />
  <line x1="121" y1="55" x2="121" y2="77" stroke="#ffe66d" stroke-width="3" stroke-linecap="round" opacity="0.8" />
  <line x1="121" y1="55" x2="143" y2="55" stroke="#ffe66d" stroke-width="3" stroke-linecap="round" opacity="0.8" />
  <line x1="165" y1="55" x2="187" y2="55" stroke="#ffe66d" stroke-width="3" stroke-linecap="round" opacity="0.8" />
  <line x1="187" y1="55" x2="187" y2="77" stroke="#ffe66d" stroke-width="3" stroke-linecap="round" opacity="0.8" />
  <line x1="209" y1="55" x2="231" y2="55" stroke="#ffe66d" stroke-width="3" stroke-linecap="round" opacity="0.8" />
  <line x1="253" y1="55" x2="253" y2="77" stroke="#ffe66d" stroke-width="3" stroke-linecap="round" opacity="0.8" />
  <line x1="275" y1="55" x2="275" y2="77" stroke="#ffe66d" stroke-width="3" stroke-linecap="round" opacity="0.8" />
  <line x1="275" y1="55" x2="297" y2="55" stroke="#ffe66d" stroke-width="3" stroke-linecap="round" opacity="0.8" />
  <line x1="319" y1="55" x2="319" y2="77" stroke="#ffe66d" stroke-width="3" stroke-linecap="round" opacity="0.8" />
  <line x1="11" y1="77" x2="33" y2="77" stroke="#ffe66d" stroke-width="3" stroke-linecap="round" opacity="0.8" />
  <line x1="11" y1="77" x2="11" y2="99" stroke="#ffe66d" stroke-width="3" stroke-linecap="round" opacity="0.8" />
  <line x1="33" y1="77" x2="55" y2="77" stroke="#ffe66d" stroke-width="3" stroke-linecap="round" opacity="0.8" />
  <line x1="55" y1="77" x2="77" y2="77" stroke="#ffe66d" stroke-width="3" stroke-linecap="round" opacity="0.8" />
  <line x1="77" y1="77" x2="77" y2="99" stroke="#ffe66d" stroke-width="3" stroke-linecap="round" opacity="0.8" />
  <line x1="99" y1="77" x2="121" y2="77" stroke="#ffe66d" stroke-width="3" stroke-linecap="round" opacity="0.8" />
  <line x1="143" y1="77" x2="165" y2="77" stroke="#ffe66d" stroke-width="3" stroke-linecap="round" opacity="0.8" />
  <line x1="165" y1="77" x2="165" y2="99" stroke="#ffe66d" stroke-width="3" stroke-linecap="round" opacity="0.8" />
  <line x1="187" y1="77" x2="209" y2="77" stroke="#ffe66d" stroke-width="3" stroke-linecap="round" opacity="0.8" />
  <line x1="209" y1="77" x2="231" y2="77" stroke="#ffe66d" stroke-width="3" stroke-linecap="round" opacity="0.8" />
  <line x1="231" y1="77" x2="231" y2="99" stroke="#ffe66d" stroke-width="3" stroke-linecap="round" opacity="0.8" />
  <line x1="253" y1="77" x2="275" y2="77" stroke="#ffe66d" stroke-width="3" stroke-linecap="round" opacity="0.8" />
  <line x1="297" y1="77" x2="297" y2="99" stroke="#ffe66d" stroke-width="3" stroke-linecap="round" opacity="0.8" />
  <line x1="297" y1="77" x2="319" y2="77" stroke="#ffe66d" stroke-width="3" stroke-linecap="round" opacity="0.8" />
  <line x1="319" y1="77" x2="319" y2="99" stroke="#ffe66d" stroke-width="3" stroke-linecap="round" opacity="0.8" />
  <line x1="11" y1="99" x2="33" y2="99" stroke="#ffe66d" stroke-width="3" stroke-linecap="round" opacity="0.8" />
  <line x1="33" y1="99" x2="55" y2="99" stroke="#ffe66d" stroke-width="3" stroke-linecap="round" opacity="0.8" />
  <line x1="33" y1="99" x2="33" y2="121" stroke="#ffe66d" stroke-width="3" stroke-linecap="round" opacity="0.8" />
  <line x1="77" y1="99" x2="99" y2="99" stroke="#ffe66d" stroke-width="3" stroke-linecap="round" opacity="0.8" />
  <line x1="99" y1="99" x2="99" y2="121" stroke="#ffe66d" stroke-width="3" stroke-linecap="round" opacity="0.8" />
  <line x1="99" y1="99" x2="121" y2="99" stroke="#ffe66d" stroke-width="3" stroke-linecap="round" opacity="0.8" />
  <line x1="121" y1="99" x2="143" y2="99" stroke="#ffe66d" stroke-width="3" stroke-linecap="round" opacity="0.8" />
  <line x1="143" y1="99" x2="165" y2="99" stroke="#ffe66d" stroke-width="3" stroke-linecap="round" opacity="0.8" />
  <line x1="165" y1="99" x2="165" y2="121" stroke="#ffe66d" stroke-width="3" stroke-linecap="round" opacity="0.8" />
  <line x1="187" y1="99" x2="187" y2="121" stroke="#ffe66d" stroke-width="3" stroke-linecap="round" opacity="0.8" />
  <line x1="187" y1="99" x2="209" y2="99" stroke="#ffe66d" stroke-width="3" stroke-linecap="round" opacity="0.8" />
  <line x1="209" y1="99" x2="209" y2="121" stroke="#ffe66d" stroke-width="3" stroke-linecap="round" opacity="0.8" />
  <line x1="231" y1="99" x2="253" y2="99" stroke="#ffe66d" stroke-width="3" stroke-linecap="round" opacity="0.8" />
  <line x1="253" y1="99" x2="253" y2="121" stroke="#ffe66d" stroke-width="3" stroke-linecap="round" opacity="0.8" />
  <line x1="275" y1="99" x2="275" y2="121" stroke="#ffe66d" stroke-width="3" stroke-linecap="round" opacity="0.8" />
  <line x1="275" y1="99" x2="297" y2="99" stroke="#ffe66d" stroke-width="3" stroke-linecap="round" opacity="0.8" />
  <line x1="319" y1="99" x2="319" y2="121" stroke="#ffe66d" stroke-width="3" stroke-linecap="round" opacity="0.8" />
  <line x1="11" y1="121" x2="33" y2="121" stroke="#ffe66d" stroke-width="3" stroke-linecap="round" opacity="0.8" />
  <line x1="11" y1="121" x2="11" y2="143" stroke="#ffe66d" stroke-width="3" stroke-linecap="round" opacity="0.8" />
  <line x1="55" y1="121" x2="55" y2="143" stroke="#ffe66d" stroke-width="3" stroke-linecap="round" opacity="0.8" />
  <line x1="55" y1="121" x2="77" y2="121" stroke="#ffe66d" stroke-width="3" stroke-linecap="round" opacity="0.8" />
  <line x1="77" y1="121" x2="99" y2="121" stroke="#ffe66d" stroke-width="3" stroke-linecap="round" opacity="0.8" />
  <line x1="121" y1="121" x2="143" y2="121" stroke="#ffe66d" stroke-width="3" stroke-linecap="round" opacity="0.8" />
  <line x1="121" y1="121" x2="121" y2="143" stroke="#ffe66d" stroke-width="3" stroke-linecap="round" opacity="0.8" />
  <line x1="143" y1="121" x2="143" y2="143" stroke="#ffe66d" stroke-width="3" stroke-linecap="round" opacity="0.8" />
  <line x1="165" y1="121" x2="165" y2="143" stroke="#ffe66d" stroke-width="3" stroke-linecap="round" opacity="0.8" />
  <line x1="187" y1="121" x2="187" y2="143" stroke="#ffe66d" stroke-width="3" stroke-linecap="round" opacity="0.8" />
  <line x1="209" y1="121" x2="231" y2="121" stroke="#ffe66d" stroke-width="3" stroke-linecap="round" opacity="0.8" />
  <line x1="253" y1="121" x2="275" y2="121" stroke="#ffe66d" stroke-width="3" stroke-linecap="round" opacity="0.8" />
  <line x1="297" y1="121" x2="297" y2="143" stroke="#ffe66d" stroke-width="3" stroke-linecap="round" opacity="0.8" />
  <line x1="319" y1="121" x2="319" y2="143" stroke="#ffe66d" stroke-width="3" stroke-linecap="round" opacity="0.8" />
  <line x1="11" y1="143" x2="33" y2="143" stroke="#ffe66d" stroke-width="3" stroke-linecap="round" opacity="0.8" />
  <line x1="33" y1="143" x2="33" y2="165" stroke="#ffe66d" stroke-width="3" stroke-linecap="round" opacity="0.8" />
  <line x1="55" y1="143" x2="55" y2="165" stroke="#ffe66d" stroke-width="3" stroke-linecap="round" opacity="0.8" />
  <line x1="77" y1="143" x2="99" y2="143" stroke="#ffe66d" stroke-width="3" stroke-linecap="round" opacity="0.8" />
  <line x1="77" y1="143" x2="77" y2="165" stroke="#ffe66d" stroke-width="3" stroke-linecap="round" opacity="0.8" />
  <line x1="99" y1="143" x2="99" y2="165" stroke="#ffe66d" stroke-width="3" stroke-linecap="round" opacity="0.8" />
  <line x1="121" y1="143" x2="121" y2="165" stroke="#ffe66d" stroke-width="3" stroke-linecap="round" opacity="0.8" />
  <line x1="143" y1="143" x2="165" y2="143" stroke="#ffe66d" stroke-width="3" stroke-linecap="round" opacity="0.8" />
  <line x1="187" y1="143" x2="187" y2="165" stroke="#ffe66d" stroke-width="3" stroke-linecap="round" opacity="0.8" />
  <line x1="209" y1="143" x2="231" y2="143" stroke="#ffe66d" stroke-width="3" stroke-linecap="round" opacity="0.8" />
  <line x1="209" y1="143" x2="209" y2="165" stroke="#ffe66d" stroke-width="3" stroke-linecap="round" opacity="0.8" />
  <line x1="231" y1="143" x2="253" y2="143" stroke="#ffe66d" stroke-width="3" stroke-linecap="round" opacity="0.8" />
  <line x1="253" y1="143" x2="275" y2="143" stroke="#ffe66d" stroke-width="3" stroke-linecap="round" opacity="0.8" />
  <line x1="275" y1="143" x2="297" y2="143" stroke="#ffe66d" stroke-width="3" stroke-linecap="round" opacity="0.8" />
  <line x1="297" y1="143" x2="297" y2="165" stroke="#ffe66d" stroke-width="3" stroke-linecap="round" opacity="0.8" />
  <line x1="319" y1="143" x2="319" y2="165" stroke="#ffe66d" stroke-width="3" stroke-linecap="round" opacity="0.8" />
  <line x1="11" y1="165" x2="11" y2="187" stroke="#ffe66d" stroke-width="3" stroke-linecap="round" opacity="0.8" />
  <line x1="33" y1="165" x2="33" y2="187" stroke="#ffe66d" stroke-width="3" stroke-linecap="round" opacity="0.8" />
  <line x1="55" y1="165" x2="77" y2="165" stroke="#ffe66d" stroke-width="3" stroke-linecap="round" opacity="0.8" />
  <line x1="99" y1="165" x2="99" y2="187" stroke="#ffe66d" stroke-width="3" stroke-linecap="round" opacity="0.8" />
  <line x1="121" y1="165" x2="143" y2="165" stroke="#ffe66d" stroke-width="3" stroke-linecap="round" opacity="0.8" />
  <line x1="143" y1="165" x2="165" y2="165" stroke="#ffe66d" stroke-width="3" stroke-linecap="round" opacity="0.8" />
  <line x1="165" y1="165" x2="165" y2="187" stroke="#ffe66d" stroke-width="3" stroke-linecap="round" opacity="0.8" />
  <line x1="165" y1="165" x2="187" y2="165" stroke="#ffe66d" stroke-width="3" stroke-linecap="round" opacity="0.8" />
  <line x1="209" y1="165" x2="209" y2="187" stroke="#ffe66d" stroke-width="3" stroke-linecap="round" opacity="0.8" />
  <line x1="231" y1="165" x2="231" y2="187" stroke="#ffe66d" stroke-width="3" stroke-linecap="round" opacity="0.8" />
  <line x1="231" y1="165" x2="253" y2="165" stroke="#ffe66d" stroke-width="3" stroke-linecap="round" opacity="0.8" />
  <line x1="253" y1="165" x2="275" y2="165" stroke="#ffe66d" stroke-width="3" stroke-linecap="round" opacity="0.8" />
  <line x1="297" y1="165" x2="297" y2="187" stroke="#ffe66d" stroke-width="3" stroke-linecap="round" opacity="0.8" />
  <line x1="319" y1="165" x2="319" y2="187" stroke="#ffe66d" stroke-width="3" stroke-linecap="round" opacity="0.8" />
  <line x1="11" y1="187" x2="11" y2="209" stroke="#ffe66d" stroke-width="3" stroke-linecap="round" opacity="0.8" />
  <line x1="33" y1="187" x2="55" y2="187" stroke="#ffe66d" stroke-width="3" stroke-linecap="round" opacity="0.8" />
  <line x1="33" y1="187" x2="33" y2="209" stroke="#ffe66d" stroke-width="3" stroke-linecap="round" opacity="0.8" />
  <line x1="55" y1="187" x2="77" y2="187" stroke="#ffe66d" stroke-width="3" stroke-linecap="round" opacity="0.8" />
  <line x1="99" y1="187" x2="99" y2="209" stroke="#ffe66d" stroke-width="3" stroke-linecap="round" opacity="0.8" />
  <line x1="121" y1="187" x2="143" y2="187" stroke="#ffe66d" stroke-width="3" stroke-linecap="round" opacity="0.8" />
  <line x1="121" y1="187" x2="121" y2="209" stroke="#ffe66d" stroke-width="3" stroke-linecap="round" opacity="0.8" />
  <line x1="143" y1="187" x2="165" y2="187" stroke="#ffe66d" stroke-width="3" stroke-linecap="round" opacity="0.8" />
  <line x1="187" y1="187" x2="209" y2="187" stroke="#ffe66d" stroke-width="3" stroke-linecap="round" opacity="0.8" />
  <line x1="187" y1="187" x2="187" y2="209" stroke="#ffe66d" stroke-width="3" stroke-linecap="round" opacity="0.8" />
  <line x1="231" y1="187" x2="253" y2="187" stroke="#ffe66d" stroke-width="3" stroke-linecap="round" opacity="0.8" />
  <line x1="253" y1="187" x2="275" y2="187" stroke="#ffe66d" stroke-width="3" stroke-linecap="round" opacity="0.8" />
  <line x1="275" y1="187" x2="275" y2="209" stroke="#ffe66d" stroke-width="3" stroke-linecap="round" opacity="0.8" />
  <line x1="297" y1="187" x2="297" y2="209" stroke="#ffe66d" stroke-width="3" stroke-linecap="round" opacity="0.8" />
  <line x1="319" y1="187" x2="319" y2="209" stroke="#ffe66d" stroke-width="3" stroke-linecap="round" opacity="0.8" />
  <line x1="11" y1="209" x2="11" y2="231" stroke="#ffe66d" stroke-width="3" stroke-linecap="round" opacity="0.8" />
  <line x1="33" y1="209" x2="33" y2="231" stroke="#ffe66d" stroke-width="3" stroke-linecap="round" opacity="0.8" />
  <line x1="55" y1="209" x2="55" y2="231" stroke="#ffe66d" stroke-width="3" stroke-linecap="round" opacity="0.8" />
  <line x1="55" y1="209" x2="77" y2="209" stroke="#ffe66d" stroke-width="3" stroke-linecap="round" opacity="0.8" />
  <line x1="77" y1="209" x2="99" y2="209" stroke="#ffe66d" stroke-width="3" stroke-linecap="round" opacity="0.8" />
  <line x1="143" y1="209" x2="165" y2="209" stroke="#ffe66d" stroke-width="3" stroke-linecap="round" opacity="0.8" />
  <line x1="143" y1="209" x2="143" y2="231" stroke="#ffe66d" stroke-width="3" stroke-linecap="round" opacity="0.8" />
  <line x1="165" y1="209" x2="165" y2="231" stroke="#ffe66d" stroke-width="3" stroke-linecap="round" opacity="0.8" />
  <line x1="187" y1="209" x2="187" y2="231" stroke="#ffe66d" stroke-width="3" stroke-linecap="round" opacity="0.8" />
  <line x1="209" y1="209" x2="231" y2="209" stroke="#ffe66d" stroke-width="3" stroke-linecap="round" opacity="0.8" />
  <line x1="231" y1="209" x2="231" y2="231" stroke="#ffe66d" stroke-width="3" stroke-linecap="round" opacity="0.8" />
  <line x1="231" y1="209" x2="253" y2="209" stroke="#ffe66d" stroke-width="3" stroke-linecap="round" opacity="0.8" />
  <line x1="253" y1="209" x2="253" y2="231" stroke="#ffe66d" stroke-width="3" stroke-linecap="round" opacity="0.8" />
  <line x1="275" y1="209" x2="275" y2="231" stroke="#ffe66d" stroke-width="3" stroke-linecap="round" opacity="0.8" />
  <line x1="297" y1="209" x2="319" y2="209" stroke="#ffe66d" stroke-width="3" stroke-linecap="round" opacity="0.8" />
  <line x1="11" y1="231" x2="33" y2="231" stroke="#ffe66d" stroke-width="3" stroke-linecap="round" opacity="0.8" />
  <line x1="11" y1="231" x2="11" y2="253" stroke="#ffe66d" stroke-width="3" stroke-linecap="round" opacity="0.8" />
  <line x1="55" y1="231" x2="77" y2="231" stroke="#ffe66d" stroke-width="3" stroke-linecap="round" opacity="0.8" />
  <line x1="77" y1="231" x2="99" y2="231" stroke="#ffe66d" stroke-width="3" stroke-linecap="round" opacity="0.8" />
  <line x1="99" y1="231" x2="121" y2="231" stroke="#ffe66d" stroke-width="3" stroke-linecap="round" opacity="0.8" />
  <line x1="121" y1="231" x2="143" y2="231" stroke="#ffe66d" stroke-width="3" stroke-linecap="round" opacity="0.8" />
  <line x1="165" y1="231" x2="165" y2="253" stroke="#ffe66d" stroke-width="3" stroke-linecap="round" opacity="0.8" />
  <line x1="187" y1="231" x2="209" y2="231" stroke="#ffe66d" stroke-width="3" stroke-linecap="round" opacity="0.8" />
  <line x1="209" y1="231" x2="209" y2="253" stroke="#ffe66d" stroke-width="3" stroke-linecap="round" opacity="0.8" />
  <line x1="231" y1="231" x2="231" y2="253" stroke="#ffe66d" stroke-width="3" stroke-linecap="round" opacity="0.8" />
  <line x1="253" y1="231" x2="253" y2="253" stroke="#ffe66d" stroke-width="3" stroke-linecap="round" opacity="0.8" />
  <line x1="275" y1="231" x2="275" y2="253" stroke="#ffe66d" stroke-width="3" stroke-linecap="round" opacity="0.8" />
  <line x1="275" y1="231" x2="297" y2="231" stroke="#ffe66d" stroke-width="3" stroke-linecap="round" opacity="0.8" />
  <line x1="297" y1="231" x2="297" y2="253" stroke="#ffe66d" stroke-width="3" stroke-linecap="round" opacity="0.8" />
  <line x1="319" y1="231" x2="319" y2="253" stroke="#ffe66d" stroke-width="3" stroke-linecap="round" opacity="0.8" />
  <line x1="11" y1="253" x2="33" y2="253" stroke="#ffe66d" stroke-width="3" stroke-linecap="round" opacity="0.8" />
  <line x1="33" y1="253" x2="55" y2="253" stroke="#ffe66d" stroke-width="3" stroke-linecap="round" opacity="0.8" />
  <line x1="55" y1="253" x2="77" y2="253" stroke="#ffe66d" stroke-width="3" stroke-linecap="round" opacity="0.8" />
  <line x1="77" y1="253" x2="99" y2="253" stroke="#ffe66d" stroke-width="3" stroke-linecap="round" opacity="0.8" />
  <line x1="99" y1="253" x2="121" y2="253" stroke="#ffe66d" stroke-width="3" stroke-linecap="round" opacity="0.8" />
  <line x1="121" y1="253" x2="143" y2="253" stroke="#ffe66d" stroke-width="3" stroke-linecap="round" opacity="0.8" />
  <line x1="165" y1="253" x2="187" y2="253" stroke="#ffe66d" stroke-width="3" stroke-linecap="round" opacity="0.8" />
  <line x1="187" y1="253" x2="209" y2="253" stroke="#ffe66d" stroke-width="3" stroke-linecap="round" opacity="0.8" />
  <line x1="209" y1="253" x2="231" y2="253" stroke="#ffe66d" stroke-width="3" stroke-linecap="round" opacity="0.8" />
  <line x1="253" y1="253" x2="275" y2="253" stroke="#ffe66d" stroke-width="3" stroke-linecap="round" opacity="0.8" />
  <line x1="297" y1="253" x2="319" y2="253" stroke="#ffe66d" stroke-width="3" stroke-linecap="round" opacity="0.8" />
  <rect x="0.5" y="0.5" width="21" height="21" fill="none" stroke="#3d3d5c" stroke-width="1" fill-opacity="0.6" stroke-opacity="0.6" />
  <rect x="22.5" y="0.5" width="21" height="21" fill="none" stroke="#3d3d5c" stroke-width="1" fill-opacity="0.6" stroke-opacity="0.6" />
  <rect x="44.5" y="0.5" width="21" height="21" fill="none" stroke="#3d3d5c" stroke-width="1" fill-opacity="0.6" stroke-opacity="0.6" />
  <rect x="66.5" y="0.5" width="21" height="21" fill="none" stroke="#3d3d5c" stroke-width="1" fill-opacity="0.6" stroke-opacity="0.6" />
  <rect x="88.5" y="0.5" width="21" height="21" fill="none" stroke="#3d3d5c" stroke-width="1" fill-opacity="0.6" stroke-opacity="0.6" />
  <rect x="110.5" y="0.5" width="21" height="21" fill="none" stroke="#3d3d5c" stroke-width="1" fill-opacity="0.6" stroke-opacity="0.6" />
  <rect x="132.5" y="0.5" width="21" height="21" fill="none" stroke="#3d3d5c" stroke-width="1" fill-opacity="0.6" stroke-opacity="0.6" />
  <rect x="154.5" y="0.5" width="21" height="21" fill="none" stroke="#3d3d5c" stroke-width="1" fill-opacity="0.6" stroke-opacity="0.6" />
  <rect x="176.5" y="0.5" width="21" height="21" fill="none" stroke="#3d3d5c" stroke-width="1" fill-opacity="0.6" stroke-opacity="0.6" />
  <rect x="198.5" y="0.5" width="21" height="21" fill="none" stroke="#3d3d5c" stroke-width="1" fill-opacity="0.6" stroke-opacity="0.6" />
  <rect x="220.5" y="0.5" width="21" height="21" fill="none" stroke="#3d3d5c" stroke-width="1" fill-opacity="0.6" stroke-opacity="0.6" />
  <rect x="242.5" y="0.5" width="21" height="21" fill="none" stroke="#3d3d5c" stroke-width="1" fill-opacity="0.6" stroke-opacity="0.6" />
  <rect x="264.5" y="0.5" width="21" height="21" fill="none" stroke="#3d3d5c" stroke-width="1" fill-opacity="0.6" stroke-opacity="0.6" />
  <rect x="286.5" y="0.5" width="21" height="21" fill="none" stroke="#3d3d5c" stroke-width="1" fill-opacity="0.6" stroke-opacity="0.6" />
  <rect x="308.5" y="0.5" width="21" height="21" fill="none" stroke="#3d3d5c" stroke-width="1" fill-opacity="0.6" stroke-opacity="0.6" />
  <rect x="0.5" y="22.5" width="21" height="21" fill="none" stroke="#3d3d5c" stroke-width="1" fill-opacity="0.6" stroke-opacity="0.6" />
  <rect x="22.5" y="22.5" width="21" height="21" fill="none" stroke="#3d3d5c" stroke-width="1" fill-opacity="0.6" stroke-opacity="0.6" />
  <rect x="44.5" y="22.5" width="21" height="21" fill="none" stroke="#3d3d5c" stroke-width="1" fill-opacity="0.6" stroke-opacity="0.6" />
  <rect x="66.5" y="22.5" width="21" height="21" fill="none" stroke="#3d3d5c" stroke-width="1" fill-opacity="0.6" stroke-opacity="0.6" />
  <rect x="88.5" y="22.5" width="21" height="21" fill="none" stroke="#3d3d5c" stroke-width="1" fill-opacity="0.6" stroke-opacity="0.6" />
  <rect x="110.5" y="22.5" width="21" height="21" fill="none" stroke="#3d3d5c" stroke-width="1" fill-opacity="0.6" stroke-opacity="0.6" />
  <rect x="132.5" y="22.5" width="21" height="21" fill="none" stroke="#3d3d5c" stroke-width="1" fill-opacity="0.6" stroke-opacity="0.6" />
  <rect x="154.5" y="22.5" width="21" height="21" fill="none" stroke="#3d3d5c" stroke-width="1" fill-opacity="0.6" stroke-opacity="0.6" />
  <rect x="176.5" y="22.5" width="21" height="21" fill="none" stroke="#3d3d5c" stroke-width="1" fill-opacity="0.6" stroke-opacity="0.6" />
  <rect x="198.5" y="22.5" width="21" height="21" fill="none" stroke="#3d3d5c" stroke-width="1" fill-opacity="0.6" stroke-opacity="0.6" />
  <rect x="220.5" y="22.5" width="21" height="21" fill="none" stroke="#3d3d5c" stroke-width="1" fill-opacity="0.6" stroke-opacity="0.6" />
  <rect x="242.5" y="22.5" width="21" height="21" fill="none" stroke="#3d3d5c" stroke-width="1" fill-opacity="0.6" stroke-opacity="0.6" />
  <rect x="264.5" y="22.5" width="21" height="21" fill="none" stroke="#3d3d5c" stroke-width="1" fill-opacity="0.6" stroke-opacity="0.6" />
  <rect x="286.5" y="22.5" width="21" height="21" fill="none" stroke="#3d3d5c" stroke-width="1" fill-opacity="0.6" stroke-opacity="0.6" />
  <rect x="308.5" y="22.5" width="21" height="21" fill="none" stroke="#3d3d5c" stroke-width="1" fill-opacity="0.6" stroke-opacity="0.6" />
  <rect x="0.5" y="44.5" width="21" height="21" fill="none" stroke="#3d3d5c" stroke-width="1" fill-opacity="0.6" stroke-opacity="0.6" />
  <rect x="22.5" y="44.5" width="21" height="21" fill="none" stroke="#3d3d5c" stroke-width="1" fill-opacity="0.6" stroke-opacity="0.6" />
  <rect x="44.5" y="44.5" width="21" height="21" fill="none" stroke="#3d3d5c" stroke-width="1" fill-opacity="0.6" stroke-opacity="0.6" />
  <rect x="66.5" y="44.5" width="21" height="21" fill="none" stroke="#3d3d5c" stroke-width="1" fill-opacity="0.6" stroke-opacity="0.6" />
  <rect x="88.5" y="44.5" width="21" height="21" fill="none" stroke="#3d3d5c" stroke-width="1" fill-opacity="0.6" stroke-opacity="0.6" />
  <rect x="110.5" y="44.5" width="21" height="21" fill="none" stroke="#3d3d5c" stroke-width="1" fill-opacity="0.6" stroke-opacity="0.6" />
  <rect x="132.5" y="44.5" width="21" height="21" fill="none" stroke="#3d3d5c" stroke-width="1" fill-opacity="0.6" stroke-opacity="0.6" />
  <rect x="154.5" y="44.5" width="21" height="21" fill="none" stroke="#3d3d5c" stroke-width="1" fill-opacity="0.6" stroke-opacity="0.6" />
  <rect x="176.5" y="44.5" width="21" height="21" fill="none" stroke="#3d3d5c" stroke-width="1" fill-opacity="0.6" stroke-opacity="0.6" />
  <rect x="198.5" y="44.5" width="21" height="21" fill="none" stroke="#3d3d5c" stroke-width="1" fill-opacity="0.6" stroke-opacity="0.6" />
  <rect x="220.5" y="44.5" width="21" height="21" fill="none" stroke="#3d3d5c" stroke-width="1" fill-opacity="0.6" stroke-opacity="0.6" />
  <rect x="242.5" y="44.5" width="21" height="21" fill="none" stroke="#3d3d5c" stroke-width="1" fill-opacity="0.6" stroke-opacity="0.6" />
  <rect x="264.5" y="44.5" width="21" height="21" fill="none" stroke="#3d3d5c" stroke-width="1" fill-opacity="0.6" stroke-opacity="0.6" />
  <rect x="286.5" y="44.5" width="21" height="21" fill="none" stroke="#3d3d5c" stroke-width="1" fill-opacity="0.6" stroke-opacity="0.6" />
  <rect x="308.5" y="44.5" width="21" height="21" fill="none" stroke="#3d3d5c" stroke-width="1" fill-opacity="0.6" stroke-opacity="0.6" />
  <rect x="0.5" y="66.5" width="21" height="21" fill="none" stroke="#3d3d5c" stroke-width="1" fill-opacity="0.6" stroke-opacity="0.6" />
  <rect x="22.5" y="66.5" width="21" height="21" fill="none" stroke="#3d3d5c" stroke-width="1" fill-opacity="0.6" stroke-opacity="0.6" />
  <rect x="44.5" y="66.5" width="21" height="21" fill="none" stroke="#3d3d5c" stroke-width="1" fill-opacity="0.6" stroke-opacity="0.6" />
  <rect x="66.5" y="66.5" width="21" height="21" fill="none" stroke="#3d3d5c" stroke-width="1" fill-opacity="0.6" stroke-opacity="0.6" />
  <rect x="88.5" y="66.5" width="21" height="21" fill="none" stroke="#3d3d5c" stroke-width="1" fill-opacity="0.6" stroke-opacity="0.6" />
  <rect x="110.5" y="66.5" width="21" height="21" fill="none" stroke="#3d3d5c" stroke-width="1" fill-opacity="0.6" stroke-opacity="0.6" />
  <rect x="132.5" y="66.5" width="21" height="21" fill="none" stroke="#3d3d5c" stroke-width="1" fill-opacity="0.6" stroke-opacity="0.6" />
  <rect x="154.5" y="66.5" width="21" height="21" fill="none" stroke="#3d3d5c" stroke-width="1" fill-opacity="0.6" stroke-opacity="0.6" />
  <rect x="176.5" y="66.5" width="21" height="21" fill="none" stroke="#3d3d5c" stroke-width="1" fill-opacity="0.6" stroke-opacity="0.6" />
  <rect x="198.5" y="66.5" width="21" height="21" fill="none" stroke="#3d3d5c" stroke-width="1" fill-opacity="0.6" stroke-opacity="0.6" />
  <rect x="220.5" y="66.5" width="21" height="21" fill="none" stroke="#3d3d5c" stroke-width="1" fill-opacity="0.6" stroke-opacity="0.6" />
  <rect x="242.5" y="66.5" width="21" height="21" fill="none" stroke="#3d3d5c" stroke-width="1" fill-opacity="0.6" stroke-opacity="0.6" />
  <rect x="264.5" y="66.5" width="21" height="21" fill="none" stroke="#3d3d5c" stroke-width="1" fill-opacity="0.6" stroke-opacity="0.6" />
  <rect x="286.5" y="66.5" width="21" height="21" fill="none" stroke="#3d3d5c" stroke-width="1" fill-opacity="0.6" stroke-opacity="0.6" />
  <rect x="308.5" y="66.5" width="21" height="21" fill="none" stroke="#3d3d5c" stroke-width="1" fill-opacity="0.6" stroke-opacity="0.6" />
  <rect x="0.5" y="88.5" width="21" height="21" fill="none" stroke="#3d3d5c" stroke-width="1" fill-opacity="0.6" stroke-opacity="0.6" />
  <rect x="22.5" y="88.5" width="21" height="21" fill="none" stroke="#3d3d5c" stroke-width="1" fill-opacity="0.6" stroke-opacity="0.6" />
  <rect x="44.5" y="88.5" width="21" height="21" fill="none" stroke="#3d3d5c" stroke-width="1" fill-opacity="0.6" stroke-opacity="0.6" />
  <rect x="66.5" y="88.5" width="21" height="21" fill="none" stroke="#3d3d5c" stroke-width="1" fill-opacity="0.6" stroke-opacity="0.6" />
  <rect x="88.5" y="88.5" width="21" height="21" fill="none" stroke="#3d3d5c" stroke-width="1" fill-opacity="0.6" stroke-opacity="0.6" />
  <rect x="110.5" y="88.5" width="21" height="21" fill="none" stroke="#3d3d5c" stroke-width="1" fill-opacity="0.6" stroke-opacity="0.6" />
  <rect x="132.5" y="88.5" width="21" height="21" fill="none" stroke="#3d3d5c" stroke-width="1" fill-opacity="0.6" stroke-opacity="0.6" />
  <rect x="154.5" y="88.5" width="21" height="21" fill="none" stroke="#3d3d5c" stroke-width="1" fill-opacity="0.6" stroke-opacity="0.6" />
  <rect x="176.5" y="88.5" width="21" height="21" fill="none" stroke="#3d3d5c" stroke-width="1" fill-opacity="0.6" stroke-opacity="0.6" />
  <rect x="198.5" y="88.5" width="21" height="21" fill="none" stroke="#3d3d5c" stroke-width="1" fill-opacity="0.6" stroke-opacity="0.6" />
  <rect x="220.5" y="88.5" width="21" height="21" fill="none" stroke="#3d3d5c" stroke-width="1" fill-opacity="0.6" stroke-opacity="0.6" />
  <rect x="242.5" y="88.5" width="21" height="21" fill="none" stroke="#3d3d5c" stroke-width="1" fill-opacity="0.6" stroke-opacity="0.6" />
  <rect x="264.5" y="88.5" width="21" height="21" fill="none" stroke="#3d3d5c" stroke-width="1" fill-opacity="0.6" stroke-opacity="0.6" />
  <rect x="286.5" y="88.5" width="21" height="21" fill="none" stroke="#3d3d5c" stroke-width="1" fill-opacity="0.6" stroke-opacity="0.6" />
  <rect x="308.5" y="88.5" width="21" height="21" fill="none" stroke="#3d3d5c" stroke-width="1" fill-opacity="0.6" stroke-opacity="0.6" />
  <rect x="0.5" y="110.5" width="21" height="21" fill="none" stroke="#3d3d5c" stroke-width="1" fill-opacity="0.6" stroke-opacity="0.6" />
  <rect x="22.5" y="110.5" width="21" height="21" fill="none" stroke="#3d3d5c" stroke-width="1" fill-opacity="0.6" stroke-opacity="0.6" />
  <rect x="44.5" y="110.5" width="21" height="21" fill="none" stroke="#3d3d5c" stroke-width="1" fill-opacity="0.6" stroke-opacity="0.6" />
  <rect x="66.5" y="110.5" width="21" height="21" fill="none" stroke="#3d3d5c" stroke-width="1" fill-opacity="0.6" stroke-opacity="0.6" />
  <rect x="88.5" y="110.5" width="21" height="21" fill="none" stroke="#3d3d5c" stroke-width="1" fill-opacity="0.6" stroke-opacity="0.6" />
  <rect x="110.5" y="110.5" width="21" height="21" fill="none" stroke="#3d3d5c" stroke-width="1" fill-opacity="0.6" stroke-opacity="0.6" />
  <rect x="132.5" y="110.5" width="21" height="21" fill="none" stroke="#3d3d5c" stroke-width="1" fill-opacity="0.6" stroke-opacity="0.6" />
  <rect x="154.5" y="110.5" width="21" height="21" fill="none" stroke="#3d3d5c" stroke-width="1" fill-opacity="0.6" stroke-opacity="0.6" />
  <rect x="176.5" y="110.5" width="21" height="21" fill="none" stroke="#3d3d5c" stroke-width="1" fill-opacity="0.6" stroke-opacity="0.6" />
  <rect x="198.5" y="110.5" width="21" height="21" fill="none" stroke="#3d3d5c" stroke-width="1" fill-opacity="0.6" stroke-opacity="0.6" />
  <rect x="220.5" y="110.5" width="21" height="21" fill="none" stroke="#3d3d5c" stroke-width="1" fill-opacity="0.6" stroke-opacity="0.6" />
  <rect x="242.5" y="110.5" width="21" height="21" fill="none" stroke="#3d3d5c" stroke-width="1" fill-opacity="0.6" stroke-opacity="0.6" />
  <rect x="264.5" y="110.5" width="21" height="21" fill="none" stroke="#3d3d5c" stroke-width="1" fill-opacity="0.6" stroke-opacity="0.6" />
  <rect x="286.5" y="110.5" width="21" height="21" fill="none" stroke="#3d3d5c" stroke-width="1" fill-opacity="0.6" stroke-opacity="0.6" />
  <rect x="308.5" y="110.5" width="21" height="21" fill="none" stroke="#3d3d5c" stroke-width="1" fill-opacity="0.6" stroke-opacity="0.6" />
  <rect x="0.5" y="132.5" width="21" height="21" fill="none" stroke="#3d3d5c" stroke-width="1" fill-opacity="0.6" stroke-opacity="0.6" />
  <rect x="22.5" y="132.5" width="21" height="21" fill="none" stroke="#3d3d5c" stroke-width="1" fill-opacity="0.6" stroke-opacity="0.6" />
  <rect x="44.5" y="132.5" width="21" height="21" fill="none" stroke="#3d3d5c" stroke-width="1" fill-opacity="0.6" stroke-opacity="0.6" />
  <rect x="66.5" y="132.5" width="21" height="21" fill="none" stroke="#3d3d5c" stroke-width="1" fill-opacity="0.6" stroke-opacity="0.6" />
  <rect x="88.5" y="132.5" width="21" height="21" fill="none" stroke="#3d3d5c" stroke-width="1" fill-opacity="0.6" stroke-opacity="0.6" />
  <rect x="110.5" y="132.5" width="21" height="21" fill="none" stroke="#3d3d5c" stroke-width="1" fill-opacity="0.6" stroke-opacity="0.6" />
  <rect x="132.5" y="132.5" width="21" height="21" fill="none" stroke="#3d3d5c" stroke-width="1" fill-opacity="0.6" stroke-opacity="0.6" />
  <rect x="154.5" y="132.5" width="21" height="21" fill="none" stroke="#3d3d5c" stroke-width="1" fill-opacity="0.6" stroke-opacity="0.6" />
  <rect x="176.5" y="132.5" width="21" height="21" fill="none" stroke="#3d3d5c" stroke-width="1" fill-opacity="0.6" stroke-opacity="0.6" />
  <rect x="198.5" y="132.5" width="21" height="21" fill="none" stroke="#3d3d5c" stroke-width="1" fill-opacity="0.6" stroke-opacity="0.6" />
  <rect x="220.5" y="132.5" width="21" height="21" fill="none" stroke="#3d3d5c" stroke-width="1" fill-opacity="0.6" stroke-opacity="0.6" />
  <rect x="242.5" y="132.5" width="21" height="21" fill="none" stroke="#3d3d5c" stroke-width="1" fill-opacity="0.6" stroke-opacity="0.6" />
  <rect x="264.5" y="132.5" width="21" height="21" fill="none" stroke="#3d3d5c" stroke-width="1" fill-opacity="0.6" stroke-opacity="0.6" />
  <rect x="286.5" y="132.5" width="21" height="21" fill="none" stroke="#3d3d5c" stroke-width="1" fill-opacity="0.6" stroke-opacity="0.6" />
  <rect x="308.5" y="132.5" width="21" height="21" fill="none" stroke="#3d3d5c" stroke-width="1" fill-opacity="0.6" stroke-opacity="0.6" />
  <rect x="0.5" y="154.5" width="21" height="21" fill="none" stroke="#3d3d5c" stroke-width="1" fill-opacity="0.6" stroke-opacity="0.6" />
  <rect x="22.5" y="154.5" width="21" height="21" fill="none" stroke="#3d3d5c" stroke-width="1" fill-opacity="0.6" stroke-opacity="0.6" />
  <rect x="44.5" y="154.5" width="21" height="21" fill="none" stroke="#3d3d5c" stroke-width="1" fill-opacity="0.6" stroke-opacity="0.6" />
  <rect x="66.5" y="154.5" width="21" height="21" fill="none" stroke="#3d3d5c" stroke-width="1" fill-opacity="0.6" stroke-opacity="0.6" />
  <rect x="88.5" y="154.5" width="21" height="21" fill="none" stroke="#3d3d5c" stroke-width="1" fill-opacity="0.6" stroke-opacity="0.6" />
  <rect x="110.5" y="154.5" width="21" height="21" fill="none" stroke="#3d3d5c" stroke-width="1" fill-opacity="0.6" stroke-opacity="0.6" />
  <rect x="132.5" y="154.5" width="21" height="21" fill="none" stroke="#3d3d5c" stroke-width="1" fill-opacity="0.6" stroke-opacity="0.6" />
  <rect x="154.5" y="154.5" width="21" height="21" fill="none" stroke="#3d3d5c" stroke-width="1" fill-opacity="0.6" stroke-opacity="0.6" />
  <rect x="176.5" y="154.5" width="21" height="21" fill="none" stroke="#3d3d5c" stroke-width="1" fill-opacity="0.6" stroke-opacity="0.6" />
  <rect x="198.5" y="154.5" width="21" height="21" fill="none" stroke="#3d3d5c" stroke-width="1" fill-opacity="0.6" stroke-opacity="0.6" />
  <rect x="220.5" y="154.5" width="21" height="21" fill="none" stroke="#3d3d5c" stroke-width="1" fill-opacity="0.6" stroke-opacity="0.6" />
  <rect x="242.5" y="154.5" width="21" height="21" fill="none" stroke="#3d3d5c" stroke-width="1" fill-opacity="0.6" stroke-opacity="0.6" />
  <rect x="264.5" y="154.5" width="21" height="21" fill="none" stroke="#3d3d5c" stroke-width="1" fill-opacity="0.6" stroke-opacity="0.6" />
  <rect x="286.5" y="154.5" width="21" height="21" fill="none" stroke="#3d3d5c" stroke-width="1" fill-opacity="0.6" stroke-opacity="0.6" />
  <rect x="308.5" y="154.5" width="21" height="21" fill="none" stroke="#3d3d5c" stroke-width="1" fill-opacity="0.6" stroke-opacity="0.6" />
  <rect x="0.5" y="176.5" width="21" height="21" fill="none" stroke="#3d3d5c" stroke-width="1" fill-opacity="0.6" stroke-opacity="0.6" />
  <rect x="22.5" y="176.5" width="21" height="21" fill="none" stroke="#3d3d5c" stroke-width="1" fill-opacity="0.6" stroke-opacity="0.6" />
  <rect x="44.5" y="176.5" width="21" height="21" fill="none" stroke="#3d3d5c" stroke-width="1" fill-opacity="0.6" stroke-opacity="0.6" />
  <rect x="66.5" y="176.5" width="21" height="21" fill="none" stroke="#3d3d5c" stroke-width="1" fill-opacity="0.6" stroke-opacity="0.6" />
  <rect x="88.5" y="176.5" width="21" height="21" fill="none" stroke="#3d3d5c" stroke-width="1" fill-opacity="0.6" stroke-opacity="0.6" />
  <rect x="110.5" y="176.5" width="21" height="21" fill="none" stroke="#3d3d5c" stroke-width="1" fill-opacity="0.6" stroke-opacity="0.6" />
  <rect x="132.5" y="176.5" width="21" height="21" fill="none" stroke="#3d3d5c" stroke-width="1" fill-opacity="0.6" stroke-opacity="0.6" />
  <rect x="154.5" y="176.5" width="21" height="21" fill="none" stroke="#3d3d5c" stroke-width="1" fill-opacity="0.6" stroke-opacity="0.6" />
  <rect x="176.5" y="176.5" width="21" height="21" fill="none" stroke="#3d3d5c" stroke-width="1" fill-opacity="0.6" stroke-opacity="0.6" />
  <rect x="198.5" y="176.5" width="21" height="21" fill="none" stroke="#3d3d5c" stroke-width="1" fill-opacity="0.6" stroke-opacity="0.6" />
  <rect x="220.5" y="176.5" width="21" height="21" fill="none" stroke="#3d3d5c" stroke-width="1" fill-opacity="0.6" stroke-opacity="0.6" />
  <rect x="242.5" y="176.5" width="21" height="21" fill="none" stroke="#3d3d5c" stroke-width="1" fill-opacity="0.6" stroke-opacity="0.6" />
  <rect x="264.5" y="176.5" width="21" height="21" fill="none" stroke="#3d3d5c" stroke-width="1" fill-opacity="0.6" stroke-opacity="0.6" />
  <rect x="286.5" y="176.5" width="21" height="21" fill="none" stroke="#3d3d5c" stroke-width="1" fill-opacity="0.6" stroke-opacity="0.6" />
  <rect x="308.5" y="176.5" width="21" height="21" fill="none" stroke="#3d3d5c" stroke-width="1" fill-opacity="0.6" stroke-opacity="0.6" />
  <rect x="0.5" y="198.5" width="21" height="21" fill="none" stroke="#3d3d5c" stroke-width="1" fill-opacity="0.6" stroke-opacity="0.6" />
  <rect x="22.5" y="198.5" width="21" height="21" fill="none" stroke="#3d3d5c" stroke-width="1" fill-opacity="0.6" stroke-opacity="0.6" />
  <rect x="44.5" y="198.5" width="21" height="21" fill="none" stroke="#3d3d5c" stroke-width="1" fill-opacity="0.6" stroke-opacity="0.6" />
  <rect x="66.5" y="198.5" width="21" height="21" fill="none" stroke="#3d3d5c" stroke-width="1" fill-opacity="0.6" stroke-opacity="0.6" />
  <rect x="88.5" y="198.5" width="21" height="21" fill="none" stroke="#3d3d5c" stroke-width="1" fill-opacity="0.6" stroke-opacity="0.6" />
  <rect x="110.5" y="198.5" width="21" height="21" fill="none" stroke="#3d3d5c" stroke-width="1" fill-opacity="0.6" stroke-opacity="0.6" />
  <rect x="132.5" y="198.5" width="21" height="21" fill="none" stroke="#3d3d5c" stroke-width="1" fill-opacity="0.6" stroke-opacity="0.6" />
  <rect x="154.5" y="198.5" width="21" height="21" fill="none" stroke="#3d3d5c" stroke-width="1" fill-opacity="0.6" stroke-opacity="0.6" />
  <rect x="176.5" y="198.5" width="21" height="21" fill="none" stroke="#3d3d5c" stroke-width="1" fill-opacity="0.6" stroke-opacity="0.6" />
  <rect x="198.5" y="198.5" width="21" height="21" fill="none" stroke="#3d3d5c" stroke-width="1" fill-opacity="0.6" stroke-opacity="0.6" />
  <rect x="220.5" y="198.5" width="21" height="21" fill="none" stroke="#3d3d5c" stroke-width="1" fill-opacity="0.6" stroke-opacity="0.6" />
  <rect x="242.5" y="198.5" width="21" height="21" fill="none" stroke="#3d3d5c" stroke-width="1" fill-opacity="0.6" stroke-opacity="0.6" />
  <rect x="264.5" y="198.5" width="21" height="21" fill="none" stroke="#3d3d5c" stroke-width="1" fill-opacity="0.6" stroke-opacity="0.6" />
  <rect x="286.5" y="198.5" width="21" height="21" fill="none" stroke="#3d3d5c" stroke-width="1" fill-opacity="0.6" stroke-opacity="0.6" />
  <rect x="308.5" y="198.5" width="21" height="21" fill="none" stroke="#3d3d5c" stroke-width="1" fill-opacity="0.6" stroke-opacity="0.6" />
  <rect x="0.5" y="220.5" width="21" height="21" fill="none" stroke="#3d3d5c" stroke-width="1" fill-opacity="0.6" stroke-opacity="0.6" />
  <rect x="22.5" y="220.5" width="21" height="21" fill="none" stroke="#3d3d5c" stroke-width="1" fill-opacity="0.6" stroke-opacity="0.6" />
  <rect x="44.5" y="220.5" width="21" height="21" fill="none" stroke="#3d3d5c" stroke-width="1" fill-opacity="0.6" stroke-opacity="0.6" />
  <rect x="66.5" y="220.5" width="21" height="21" fill="none" stroke="#3d3d5c" stroke-width="1" fill-opacity="0.6" stroke-opacity="0.6" />
  <rect x="88.5" y="220.5" width="21" height="21" fill="none" stroke="#3d3d5c" stroke-width="1" fill-opacity="0.6" stroke-opacity="0.6" />
  <rect x="110.5" y="220.5" width="21" height="21" fill="none" stroke="#3d3d5c" stroke-width="1" fill-opacity="0.6" stroke-opacity="0.6" />
  <rect x="132.5" y="220.5" width="21" height="21" fill="none" stroke="#3d3d5c" stroke-width="1" fill-opacity="0.6" stroke-opacity="0.6" />
  <rect x="154.5" y="220.5" width="21" height="21" fill="none" stroke="#3d3d5c" stroke-width="1" fill-opacity="0.6" stroke-opacity="0.6" />
  <rect x="176.5" y="220.5" width="21" height="21" fill="none" stroke="#3d3d5c" stroke-width="1" fill-opacity="0.6" stroke-opacity="0.6" />
  <rect x="198.5" y="220.5" width="21" height="21" fill="none" stroke="#3d3d5c" stroke-width="1" fill-opacity="0.6" stroke-opacity="0.6" />
  <rect x="220.5" y="220.5" width="21" height="21" fill="none" stroke="#3d3d5c" stroke-width="1" fill-opacity="0.6" stroke-opacity="0.6" />
  <rect x="242.5" y="220.5" width="21" height="21" fill="none" stroke="#3d3d5c" stroke-width="1" fill-opacity="0.6" stroke-opacity="0.6" />
  <rect x="264.5" y="220.5" width="21" height="21" fill="none" stroke="#3d3d5c" stroke-width="1" fill-opacity="0.6" stroke-opacity="0.6" />
  <rect x="286.5" y="220.5" width="21" height="21" fill="none" stroke="#3d3d5c" stroke-width="1" fill-opacity="0.6" stroke-opacity="0.6" />
  <rect x="308.5" y="220.5" width="21" height="21" fill="none" stroke="#3d3d5c" stroke-width="1" fill-opacity="0.6" stroke-opacity="0.6" />
  <rect x="0.5" y="242.5" width="21" height="21" fill="none" stroke="#3d3d5c" stroke-width="1" fill-opacity="0.6" stroke-opacity="0.6" />
  <rect x="22.5" y="242.5" width="21" height="21" fill="none" stroke="#3d3d5c" stroke-width="1" fill-opacity="0.6" stroke-opacity="0.6" />
  <rect x="44.5" y="242.5" width="21" height="21" fill="none" stroke="#3d3d5c" stroke-width="1" fill-opacity="0.6" stroke-opacity="0.6" />
  <rect x="66.5" y="242.5" width="21" height="21" fill="none" stroke="#3d3d5c" stroke-width="1" fill-opacity="0.6" stroke-opacity="0.6" />
  <rect x="88.5" y="242.5" width="21" height="21" fill="none" stroke="#3d3d5c" stroke-width="1" fill-opacity="0.6" stroke-opacity="0.6" />
  <rect x="110.5" y="242.5" width="21" height="21" fill="none" stroke="#3d3d5c" stroke-width="1" fill-opacity="0.6" stroke-opacity="0.6" />
  <rect x="132.5" y="242.5" width="21" height="21" fill="none" stroke="#3d3d5c" stroke-width="1" fill-opacity="0.6" stroke-opacity="0.6" />
  <rect x="154.5" y="242.5" width="21" height="21" fill="none" stroke="#3d3d5c" stroke-width="1" fill-opacity="0.6" stroke-opacity="0.6" />
  <rect x="176.5" y="242.5" width="21" height="21" fill="none" stroke="#3d3d5c" stroke-width="1" fill-opacity="0.6" stroke-opacity="0.6" />
  <rect x="198.5" y="242.5" width="21" height="21" fill="none" stroke="#3d3d5c" stroke-width="1" fill-opacity="0.6" stroke-opacity="0.6" />
  <rect x="220.5" y="242.5" width="21" height="21" fill="none" stroke="#3d3d5c" stroke-width="1" fill-opacity="0.6" stroke-opacity="0.6" />
  <rect x="242.5" y="242.5" width="21" height="21" fill="none" stroke="#3d3d5c" stroke-width="1" fill-opacity="0.6" stroke-opacity="0.6" />
  <rect x="264.5" y="242.5" width="21" height="21" fill="none" stroke="#3d3d5c" stroke-width="1" fill-opacity="0.6" stroke-opacity="0.6" />
  <rect x="286.5" y="242.5" width="21" height="21" fill="none" stroke="#3d3d5c" stroke-width="1" fill-opacity="0.6" stroke-opacity="0.6" />
  <rect x="308.5" y="242.5" width="21" height="21" fill="none" stroke="#3d3d5c" stroke-width="1" fill-opacity="0.6" stroke-opacity="0.6" />
  <circle cx="11" cy="11" r="5.5" fill="#ff6b6b" />
  <circle cx="319" cy="253" r="5.5" fill="#4ecdc4" />
</svg>