<?xml version="1.0" encoding="UTF-8"?>
<svg xmlns="http://www.w3.org/2000/svg" width="288" height="288" viewBox="0 0 288 288">
  <rect width="100%" height="100%" fill="#1a2e1a" />
  <polygon points="12.0,3.6000000000000005 13.1879393923934,10.8120606076066 20.4,12.0 13.1879393923934,13.1879393923934 12.0,20.4 10.8120606076066,13.1879393923934 3.6000000000000005,12.0 10.8120606076066,10.8120606076066" fill="#4ade80" fill-opacity="0.4" stroke-opacity="0.4" />
  <polygon points="36.0,3.6000000000000005 37.1879393923934,10.8120606076066 44.4,12.0 37.1879393923934,13.1879393923934 36.0,20.4 34.8120606076066,13.1879393923934 27.6,12.0 34.8120606076066,10.8120606076066" fill="#4ade80" fill-opacity="0.4272727272727273" stroke-opacity="0.4272727272727273" />
  <polygon points="60.0,3.6000000000000005 61.1879393923934,10.8120606076066 68.4,12.0 61.1879393923934,13.1879393923934 60.0,20.4 58.8120606076066,13.1879393923934 51.6,12.0 58.8120606076066,10.8120606076066" fill="#4ade80" fill-opacity="0.4545454545454546" stroke-opacity="0.4545454545454546" />
  <polygon points="84.0,3.6000000000000005 84.98747922385135,10.64085144945009 91.9888747368793,9.404257247250442 85.59777494737585,12.519148550549911 88.93739611925677,18.795742752749558 84.0,13.68 79.06260388074323,18.795742752749558 82.40222505262415,12.519148550549911 76.0111252631207,9.404257247250444 83.01252077614865,10.64085144945009" fill="#4ade80" fill-opacity="0.4818181818181818" stroke-opacity="0.4818181818181818" />
  <polygon points="108.0,3.6000000000000005 108.98747922385135,10.64085144945009 115.9888747368793,9.404257247250442 109.59777494737585,12.519148550549911 112.93739611925677,18.795742752749558 108.0,13.68 103.06260388074323,18.795742752749558 106.40222505262415,12.519148550549911 100.0111252631207,9.404257247250444 107.01252077614865,10.64085144945009" fill="#4ade80" fill-opacity="0.5090909090909091" stroke-opacity="0.5090909090909091" />
  <polygon points="132.0,3.6000000000000005 132.98747922385135,10.64085144945009 139.9888747368793,9.404257247250442 133.59777494737585,12.519148550549911 136.9373961192568,18.795742752749558 132.0,13.68 127.06260388074323,18.795742752749558 130.40222505262415,12.519148550549911 124.0111252631207,9.404257247250444 131.01252077614865,10.64085144945009" fill="#4ade80" fill-opacity="0.5363636363636364" stroke-opacity="0.5363636363636364" />
  <polygon points="156.0,3.6000000000000005 156.84,10.545077321642143 163.27461339178927,7.800000000000001 157.68,12.0 163.27461339178927,16.2 156.84,13.454922678357857 156.0,20.4 155.16,13.454922678357857 148.72538660821073,16.200000000000003 154.32,12.0 148.72538660821073,7.799999999999999 155.16,10.545077321642143" fill="#4ade80" fill-opacity="0.5636363636363636" stroke-opacity="0.5636363636363636" />
  <polygon points="180.0,3.6000000000000005 180.84,10.545077321642143 187.27461339178927,7.800000000000001 181.68,12.0 187.27461339178927,16.2 180.84,13.454922678357857 180.0,20.4 179.16,13.454922678357857 172.72538660821073,16.200000000000003 178.32,12.0 172.72538660821073,7.799999999999999 179.16,10.545077321642143" fill="#4ade80" fill-opacity="0.5909090909090909" stroke-opacity="0.5909090909090909" />
  <polygon points="204.0,3.6000000000000005 204.84,10.545077321642143 211.27461339178927,7.800000000000001 205.68,12.0 211.27461339178927,16.2 204.84,13.454922678357857 204.0,20.4 203.16,13.454922678357857 196.72538660821073,16.200000000000003 202.32,12.0 196.72538660821073,7.799999999999999 203.16,10.545077321642143" fill="#4ade80" fill-opacity="0.6181818181818182" stroke-opacity="0.6181818181818182" />
  <polygon points="228.0,3.6000000000000005 228.7289246817175,10.486372301923936 234.56738445273146,6.762685664386639 229.63787889246547,11.626164830953392 236.18939446232733,13.86917584523304 229.3134768905463,13.047462867122674 231.64462340858748,19.56813849038032 228.0,13.68 224.35537659141252,19.56813849038032 226.6865231094537,13.047462867122674 219.81060553767267,13.869175845233041 226.36212110753453,11.626164830953392 221.43261554726854,6.76268566438664 227.2710753182825,10.486372301923936" fill="#4ade80" fill-opacity="0.6454545454545455" stroke-opacity="0.6454545454545455" />
  <polygon points="252.0,3.6000000000000005 252.7289246817175,10.486372301923936 258.56738445273146,6.762685664386639 253.63787889246547,11.626164830953392 260.1893944623273,13.86917584523304 253.3134768905463,13.047462867122674 255.64462340858748,19.56813849038032 252.0,13.68 248.35537659141252,19.56813849038032 250.6865231094537,13.047462867122674 243.81060553767267,13.869175845233041 250.36212110753453,11.626164830953392 245.43261554726854,6.76268566438664 251.2710753182825,10.486372301923936" fill="#4ade80" fill-opacity="0.6727272727272727" stroke-opacity="0.6727272727272727" />
  <polygon points="276.0,3.6000000000000005 276.64290816637333,10.447882385381039 281.939696961967,6.060303038033002 277.55211761461896,11.357091833626649 284.4,12.0 277.55211761461896,12.64290816637335 281.939696961967,17.939696961966998 276.64290816637333,13.552117614618961 276.0,20.4 275.35709183362667,13.552117614618961 270.060303038033,17.939696961966998 274.44788238538104,12.642908166373353 267.6,12.0 274.44788238538104,11.357091833626649 270.060303038033,6.060303038033002 275.35709183362667,10.447882385381039" fill="#4ade80" fill-opacity="0.7" stroke-opacity="0.7" />
  <polygon points="12.0,27.6 13.403928372828563,34.59607162717144 20.4,36.0 13.403928372828563,37.40392837282856 12.0,44.4 10.596071627171437,37.40392837282856 3.6000000000000005,36.0 10.596071627171437,34.59607162717144" fill="#4ade80" fill-opacity="0.4272727272727273" stroke-opacity="0.4272727272727273" />
  <polygon points="36.0,27.6 37.40392837282856,34.59607162717144 44.4,36.0 37.40392837282856,37.40392837282856 36.0,44.4 34.59607162717144,37.40392837282856 27.6,36.0 34.59607162717144,34.59607162717144" fill="#4ade80" fill-opacity="0.4545454545454546" stroke-opacity="0.4545454545454546" />
  <polygon points="60.0,27.6 61.40392837282856,34.59607162717144 68.4,36.0 61.40392837282856,37.40392837282856 60.0,44.4 58.59607162717144,37.40392837282856 51.6,36.0 58.59607162717144,34.59607162717144" fill="#4ade80" fill-opacity="0.4818181818181818" stroke-opacity="0.4818181818181818" />
  <polygon points="84.0,27.6 85.16702090091523,34.39373353116829 91.9888747368793,33.40425724725044 85.88827948326238,36.61353919610444 88.93739611925677,42.79574275274956 84.0,37.985454545454544 79.06260388074323,42.79574275274956 82.11172051673762,36.61353919610444 76.0111252631207,33.40425724725044 82.83297909908477,34.39373353116829" fill="#4ade80" fill-opacity="0.5090909090909091" stroke-opacity="0.5090909090909091" />
  <polygon points="108.0,27.6 109.16702090091523,34.39373353116829 115.9888747368793,33.40425724725044 109.88827948326238,36.61353919610444 112.93739611925677,42.79574275274956 108.0,37.985454545454544 103.06260388074323,42.79574275274956 106.11172051673762,36.61353919610444 100.0111252631207,33.40425724725044 106.83297909908477,34.39373353116829" fill="#4ade80" fill-opacity="0.5363636363636364" stroke-opacity="0.5363636363636364" />
  <polygon points="132.0,27.6 133.16702090091525,34.39373353116829 139.9888747368793,33.40425724725044 133.88827948326238,36.61353919610444 136.9373961192568,42.79574275274956 132.0,37.985454545454544 127.06260388074323,42.79574275274956 130.11172051673762,36.61353919610444 124.0111252631207,33.40425724725044 130.83297909908475,34.39373353116829" fill="#4ade80" fill-opacity="0.5636363636363636" stroke-opacity="0.5636363636363636" />
  <polygon points="156.0,27.6 156.99272727272728,34.28054592557708 163.27461339178927,31.8 157.98545454545456,36.0 163.27461339178927,40.2 156.99272727272728,37.71945407442292 156.0,44.4 155.00727272727272,37.71945407442292 148.72538660821073,40.2 154.01454545454544,36.0 148.72538660821073,31.799999999999997 155.00727272727272,34.28054592557708" fill="#4ade80" fill-opacity="0.5909090909090909" stroke-opacity="0.5909090909090909" />
  <polygon points="180.0,27.6 180.99272727272728,34.28054592557708 187.27461339178927,31.8 181.98545454545456,36.0 187.27461339178927,40.2 180.99272727272728,37.71945407442292 180.0,44.4 179.00727272727272,37.71945407442292 172.72538660821073,40.2 178.01454545454544,36.0 172.72538660821073,31.799999999999997 179.00727272727272,34.28054592557708" fill="#4ade80" fill-opacity="0.6181818181818182" stroke-opacity="0.6181818181818182" />
  <polygon points="204.0,27.6 204.99272727272728,34.28054592557708 211.27461339178927,31.8 205.98545454545456,36.0 211.27461339178927,40.2 204.99272727272728,37.71945407442292 204.0,44.4 203.00727272727272,37.71945407442292 196.72538660821073,40.2 202.01454545454544,36.0 196.72538660821073,31.799999999999997 203.00727272727272,34.28054592557708" fill="#4ade80" fill-opacity="0.6454545454545455" stroke-opacity="0.6454545454545455" />
  <polygon points="228.0,27.6 228.86145644202978,34.211167265910106 234.56738445273146,30.762685664386638 229.93567505473192,35.55819480021765 236.18939446232733,37.86917584523304 229.5522908706456,37.23791066114498 231.64462340858748,43.56813849038032 228.0,37.985454545454544 224.35537659141252,43.56813849038032 226.4477091293544,37.23791066114498 219.81060553767267,37.869175845233045 226.06432494526808,35.55819480021765 221.43261554726854,30.76268566438664 227.13854355797022,34.211167265910106" fill="#4ade80" fill-opacity="0.6727272727272728" stroke-opacity="0.6727272727272728" />
  <polygon points="252.0,27.6 252.86145644202978,34.211167265910106 258.56738445273146,30.762685664386638 253.93567505473192,35.55819480021765 260.1893944623273,37.86917584523304 253.5522908706456,37.23791066114498 255.64462340858748,43.56813849038032 252.0,37.985454545454544 248.35537659141252,43.56813849038032 250.4477091293544,37.23791066114498 243.81060553767267,37.869175845233045 250.06432494526808,35.55819480021765 245.43261554726854,30.76268566438664 251.13854355797022,34.211167265910106" fill="#4ade80" fill-opacity="0.7" stroke-opacity="0.7" />
  <polygon points="276.0,27.6 276.7598005602594,34.165679182723046 281.939696961967,30.060303038033002 277.83432081727693,35.240199439740586 284.4,36.0 277.83432081727693,36.759800560259414 281.939696961967,41.939696961967 276.7598005602594,37.834320817276954 276.0,44.4 275.2401994397406,37.834320817276954 270.060303038033,41.939696961967 274.16567918272307,36.759800560259414 267.6,36.0 274.16567918272307,35.240199439740586 270.060303038033,30.060303038033002 275.2401994397406,34.165679182723046" fill="#4ade80" fill-opacity="0.7272727272727273" stroke-opacity="0.7272727272727273" />
  <polygon points="12.0,51.6 13.619917353263727,58.38008264673627 20.4,60.0 13.619917353263727,61.61991735326373 12.0,68.4 10.380082646736273,61.61991735326373 3.6000000000000005,60.0 10.380082646736273,58.38008264673627" fill="#4ade80" fill-opacity="0.4545454545454546" stroke-opacity="0.4545454545454546" />
  <polygon points="36.0,51.6 37.61991735326373,58.38008264673627 44.4,60.0 37.61991735326373,61.61991735326373 36.0,68.4 34.38008264673627,61.61991735326373 27.6,60.0 34.38008264673627,58.38008264673627" fill="#4ade80" fill-opacity="0.4818181818181818" stroke-opacity="0.4818181818181818" />
  <polygon points="60.0,51.6 61.61991735326373,58.38008264673627 68.4,60.0 61.61991735326373,61.61991735326373 60.0,68.4 58.38008264673627,61.61991735326373 51.6,60.0 58.38008264673627,58.38008264673627" fill="#4ade80" fill-opacity="0.5090909090909091" stroke-opacity="0.5090909090909091" />
  <polygon points="84.0,51.6 85.34656257797911,58.146615612886485 91.9888747368793,57.40425724725044 86.17878401914889,60.70792984165897 88.93739611925677,66.79574275274956 84.0,62.29090909090909 79.06260388074323,66.79574275274956 81.82121598085111,60.707929841658974 76.0111252631207,57.40425724725044 82.65343742202089,58.146615612886485" fill="#4ade80" fill-opacity="0.5363636363636364" stroke-opacity="0.5363636363636364" />
  <polygon points="108.0,51.6 109.34656257797911,58.146615612886485 115.9888747368793,57.40425724725044 110.17878401914889,60.70792984165897 112.93739611925677,66.79574275274956 108.0,62.29090909090909 103.06260388074323,66.79574275274956 105.82121598085111,60.707929841658974 100.0111252631207,57.40425724725044 106.65343742202089,58.146615612886485" fill="#4ade80" fill-opacity="0.5636363636363636" stroke-opacity="0.5636363636363636" />
  <polygon points="132.0,51.6 133.3465625779791,58.146615612886485 139.9888747368793,57.40425724725044 134.1787840191489,60.70792984165897 136.9373961192568,66.79574275274956 132.0,62.29090909090909 127.06260388074323,66.79574275274956 129.8212159808511,60.707929841658974 124.0111252631207,57.40425724725044 130.6534374220209,58.146615612886485" fill="#4ade80" fill-opacity="0.5909090909090909" stroke-opacity="0.5909090909090909" />
  <polygon points="156.0,51.6 157.14545454545456,58.01601452951201 163.27461339178927,55.8 158.29090909090908,60.0 163.27461339178927,64.2 157.14545454545456,61.98398547048799 156.0,68.4 154.85454545454544,61.98398547048799 148.72538660821073,64.2 153.70909090909092,60.0 148.72538660821073,55.8 154.85454545454544,58.01601452951201" fill="#4ade80" fill-opacity="0.6181818181818182" stroke-opacity="0.6181818181818182" />
  <polygon points="180.0,51.6 181.14545454545456,58.01601452951201 187.27461339178927,55.8 182.29090909090908,60.0 187.27461339178927,64.2 181.14545454545456,61.98398547048799 180.0,68.4 178.85454545454544,61.98398547048799 172.72538660821073,64.2 177.70909090909092,60.0 172.72538660821073,55.8 178.85454545454544,58.01601452951201" fill="#4ade80" fill-opacity="0.6454545454545455" stroke-opacity="0.6454545454545455" />
  <polygon points="204.0,51.6 205.14545454545456,58.01601452951201 211.27461339178927,55.8 206.29090909090908,60.0 211.27461339178927,64.2 205.14545454545456,61.98398547048799 204.0,68.4 202.85454545454544,61.98398547048799 196.72538660821073,64.2 201.70909090909092,60.0 196.72538660821073,55.8 202.85454545454544,58.01601452951201" fill="#4ade80" fill-opacity="0.6727272727272728" stroke-opacity="0.6727272727272728" />
  <polygon points="228.0,51.6 228.99398820234205,57.935962229896276 234.56738445273146,54.76268566438664 230.23347121699837,59.4902247694819 236.18939446232733,61.86917584523304 229.79110485074494,61.42835845516728 231.64462340858748,67.56813849038032 228.0,62.29090909090909 224.35537659141252,67.56813849038032 226.20889514925506,61.428358455167285 219.81060553767267,61.869175845233045 225.76652878300163,59.4902247694819 221.43261554726854,54.76268566438664 227.00601179765795,57.935962229896276" fill="#4ade80" fill-opacity="0.7" stroke-opacity="0.7" />
  <polygon points="252.0,51.6 252.99398820234205,57.935962229896276 258.56738445273146,54.76268566438664 254.23347121699837,59.4902247694819 260.1893944623273,61.86917584523304 253.79110485074494,61.42835845516728 255.64462340858748,67.56813849038032 252.0,62.29090909090909 248.35537659141252,67.56813849038032 250.20889514925506,61.428358455167285 243.81060553767267,61.869175845233045 249.76652878300163,59.4902247694819 245.43261554726854,54.76268566438664 251.00601179765795,57.935962229896276" fill="#4ade80" fill-opacity="0.7272727272727273" stroke-opacity="0.7272727272727273" />
  <polygon points="276.0,51.6 276.8766929541455,57.88347598006506 281.939696961967,54.060303038033 278.11652401993496,59.12330704585452 284.4,60.0 278.11652401993496,60.876692954145476 281.939696961967,65.939696961967 276.8766929541455,62.11652401993494 276.0,68.4 275.1233070458545,62.11652401993494 270.060303038033,65.939696961967 273.88347598006504,60.87669295414548 267.6,60.0 273.88347598006504,59.12330704585452 270.060303038033,54.060303038033 275.1233070458545,57.88347598006506" fill="#4ade80" fill-opacity="0.7545454545454546" stroke-opacity="0.7545454545454546" />
  <polygon points="12.0,75.6 13.83590633369889,82.16409366630111 20.4,84.0 13.83590633369889,85.83590633369889 12.0,92.4 10.16409366630111,85.83590633369889 3.6000000000000005,84.0 10.16409366630111,82.16409366630111" fill="#4ade80" fill-opacity="0.4818181818181818" stroke-opacity="0.4818181818181818" />
  <polygon points="36.0,75.6 37.83590633369889,82.16409366630111 44.4,84.0 37.83590633369889,85.83590633369889 36.0,92.4 34.16409366630111,85.83590633369889 27.6,84.0 34.16409366630111,82.16409366630111" fill="#4ade80" fill-opacity="0.5090909090909091" stroke-opacity="0.5090909090909091" />
  <polygon points="60.0,75.6 61.83590633369889,82.16409366630111 68.4,84.0 61.83590633369889,85.83590633369889 60.0,92.4 58.16409366630111,85.83590633369889 51.6,84.0 58.16409366630111,82.16409366630111" fill="#4ade80" fill-opacity="0.5363636363636364" stroke-opacity="0.5363636363636364" />
  <polygon points="84.0,75.6 85.52610425504301,81.89949769460469 91.9888747368793,81.40425724725044 86.46928855503542,84.8023204872135 88.93739611925677,90.79574275274956 84.0,86.59636363636363 79.06260388074323,90.79574275274956 81.53071144496458,84.8023204872135 76.0111252631207,81.40425724725044 82.47389574495699,81.89949769460469" fill="#4ade80" fill-opacity="0.5636363636363636" stroke-opacity="0.5636363636363636" />
  <polygon points="108.0,75.6 109.52610425504301,81.89949769460469 115.9888747368793,81.40425724725044 110.46928855503542,84.8023204872135 112.93739611925677,90.79574275274956 108.0,86.59636363636363 103.06260388074323,90.79574275274956 105.53071144496458,84.8023204872135 100.0111252631207,81.40425724725044 106.47389574495699,81.89949769460469" fill="#4ade80" fill-opacity="0.5909090909090909" stroke-opacity="0.5909090909090909" />
  <polygon points="132.0,75.6 133.526104255043,81.89949769460469 139.9888747368793,81.40425724725044 134.4692885550354,84.8023204872135 136.9373961192568,90.79574275274956 132.0,86.59636363636363 127.06260388074323,90.79574275274956 129.5307114449646,84.8023204872135 124.0111252631207,81.40425724725044 130.473895744957,81.89949769460469" fill="#4ade80" fill-opacity="0.6181818181818182" stroke-opacity="0.6181818181818182" />
  <polygon points="156.0,75.6 157.29818181818183,81.75148313344695 163.27461339178927,79.8 158.59636363636363,84.0 163.27461339178927,88.2 157.29818181818183,86.24851686655305 156.0,92.4 154.70181818181817,86.24851686655305 148.72538660821073,88.2 153.40363636363637,84.0 148.72538660821073,79.8 154.70181818181817,81.75148313344695" fill="#4ade80" fill-opacity="0.6454545454545455" stroke-opacity="0.6454545454545455" />
  <polygon points="180.0,75.6 181.29818181818183,81.75148313344695 187.27461339178927,79.8 182.59636363636363,84.0 187.27461339178927,88.2 181.29818181818183,86.24851686655305 180.0,92.4 178.70181818181817,86.24851686655305 172.72538660821073,88.2 177.40363636363637,84.0 172.72538660821073,79.8 178.70181818181817,81.75148313344695" fill="#4ade80" fill-opacity="0.6727272727272727" stroke-opacity="0.6727272727272727" />
  <polygon points="204.0,75.6 205.29818181818183,81.75148313344695 211.27461339178927,79.8 206.59636363636363,84.0 211.27461339178927,88.2 205.29818181818183,86.24851686655305 204.0,92.4 202.70181818181817,86.24851686655305 196.72538660821073,88.2 201.40363636363637,84.0 196.72538660821073,79.8 202.70181818181817,81.75148313344695" fill="#4ade80" fill-opacity="0.7" stroke-opacity="0.7" />
  <polygon points="228.0,75.6 229.12651996265433,81.66075719388245 234.56738445273146,78.76268566438664 230.53126737926482,83.42225473874615 236.18939446232733,85.86917584523304 230.02991883084425,85.61880624918959 231.64462340858748,91.56813849038032 228.0,86.59636363636363 224.35537659141252,91.56813849038032 225.97008116915572,85.61880624918959 219.81060553767267,85.86917584523304 225.46873262073518,83.42225473874615 221.43261554726854,78.76268566438664 226.8734800373457,81.66075719388245" fill="#4ade80" fill-opacity="0.7272727272727273" stroke-opacity="0.7272727272727273" />
  <polygon points="252.0,75.6 253.12651996265433,81.66075719388245 258.56738445273146,78.76268566438664 254.53126737926482,83.42225473874615 260.1893944623273,85.86917584523304 254.02991883084425,85.61880624918959 255.64462340858748,91.56813849038032 252.0,86.59636363636363 248.35537659141252,91.56813849038032 249.97008116915572,85.61880624918959 243.81060553767267,85.86917584523304 249.46873262073518,83.42225473874615 245.43261554726854,78.76268566438664 250.8734800373457,81.66075719388245" fill="#4ade80" fill-opacity="0.7545454545454545" stroke-opacity="0.7545454545454545" />
  <polygon points="276.0,75.6 276.99358534803156,81.60127277740706 281.939696961967,78.060303038033 278.3987272225929,83.00641465196846 284.4,84.0 278.3987272225929,84.99358534803154 281.939696961967,89.939696961967 276.99358534803156,86.39872722259294 276.0,92.4 275.00641465196844,86.39872722259294 270.060303038033,89.939696961967 273.6012727774071,84.99358534803154 267.6,84.0 273.6012727774071,83.00641465196846 270.060303038033,78.060303038033 275.00641465196844,81.60127277740706" fill="#4ade80" fill-opacity="0.7818181818181817" stroke-opacity="0.7818181818181817" />
  <polygon points="12.0,99.6 14.051895314134054,105.94810468586594 20.4,108.0 14.051895314134054,110.05189531413406 12.0,116.4 9.948104685865946,110.05189531413406 3.6000000000000005,108.0 9.948104685865946,105.94810468586594" fill="#4ade80" fill-opacity="0.5090909090909091" stroke-opacity="0.5090909090909091" />
  <polygon points="36.0,99.6 38.05189531413406,105.94810468586594 44.4,108.0 38.05189531413406,110.05189531413406 36.0,116.4 33.94810468586594,110.05189531413406 27.6,108.0 33.94810468586594,105.94810468586594" fill="#4ade80" fill-opacity="0.5363636363636364" stroke-opacity="0.5363636363636364" />
  <polygon points="60.0,99.6 62.05189531413406,105.94810468586594 68.4,108.0 62.05189531413406,110.05189531413406 60.0,116.4 57.94810468586594,110.05189531413406 51.6,108.0 57.94810468586594,105.94810468586594" fill="#4ade80" fill-opacity="0.5636363636363636" stroke-opacity="0.5636363636363636" />
  <polygon points="84.0,99.6 85.70564593210689,105.65237977632287 91.9888747368793,105.40425724725044 86.75979309092193,108.89671113276803 88.93739611925677,114.79574275274956 84.0,110.90181818181819 79.06260388074323,114.79574275274956 81.24020690907807,108.89671113276803 76.0111252631207,105.40425724725044 82.29435406789311,105.65237977632287" fill="#4ade80" fill-opacity="0.5909090909090909" stroke-opacity="0.5909090909090909" />
  <polygon points="108.0,99.6 109.70564593210689,105.65237977632287 115.9888747368793,105.40425724725044 110.75979309092193,108.89671113276803 112.93739611925677,114.79574275274956 108.0,110.90181818181819 103.06260388074323,114.79574275274956 105.24020690907807,108.89671113276803 100.0111252631207,105.40425724725044 106.29435406789311,105.65237977632287" fill="#4ade80" fill-opacity="0.6181818181818182" stroke-opacity="0.6181818181818182" />
  <polygon points="132.0,99.6 133.70564593210688,105.65237977632287 139.9888747368793,105.40425724725044 134.75979309092193,108.89671113276803 136.9373961192568,114.79574275274956 132.0,110.90181818181819 127.06260388074323,114.79574275274956 129.24020690907807,108.89671113276803 124.0111252631207,105.40425724725044 130.29435406789312,105.65237977632287" fill="#4ade80" fill-opacity="0.6454545454545455" stroke-opacity="0.6454545454545455" />
  <polygon points="156.0,99.6 157.45090909090908,105.48695173738189 163.27461339178927,103.8 158.9018181818182,108.0 163.27461339178927,112.2 157.45090909090908,110.51304826261811 156.0,116.4 154.54909090909092,110.51304826261811 148.72538660821073,112.2 153.0981818181818,108.0 148.72538660821073,103.8 154.54909090909092,105.48695173738189" fill="#4ade80" fill-opacity="0.6727272727272727" stroke-opacity="0.6727272727272727" />
  <polygon points="180.0,99.6 181.45090909090908,105.48695173738189 187.27461339178927,103.8 182.9018181818182,108.0 187.27461339178927,112.2 181.45090909090908,110.51304826261811 180.0,116.4 178.54909090909092,110.51304826261811 172.72538660821073,112.2 177.0981818181818,108.0 172.72538660821073,103.8 178.54909090909092,105.48695173738189" fill="#4ade80" fill-opacity="0.7" stroke-opacity="0.7" />
  <polygon points="204.0,99.6 205.45090909090908,105.48695173738189 211.27461339178927,103.8 206.9018181818182,108.0 211.27461339178927,112.2 205.45090909090908,110.51304826261811 204.0,116.4 202.54909090909092,110.51304826261811 196.72538660821073,112.2 201.0981818181818,108.0 196.72538660821073,103.8 202.54909090909092,105.48695173738189" fill="#4ade80" fill-opacity="0.7272727272727273" stroke-opacity="0.7272727272727273" />
  <polygon points="228.0,99.6 229.25905172296657,105.38555215786862 234.56738445273146,102.76268566438664 230.82906354153124,107.3542847080104 236.18939446232733,109.86917584523304 230.2687328109436,109.8092540432119 231.64462340858748,115.56813849038032 228.0,110.90181818181819 224.35537659141252,115.56813849038032 225.7312671890564,109.8092540432119 219.81060553767267,109.86917584523304 225.17093645846876,107.35428470801041 221.43261554726854,102.76268566438664 226.74094827703343,105.38555215786862" fill="#4ade80" fill-opacity="0.7545454545454546" stroke-opacity="0.7545454545454546" />
  <polygon points="252.0,99.6 253.25905172296657,105.38555215786862 258.56738445273146,102.76268566438664 254.82906354153124,107.3542847080104 260.1893944623273,109.86917584523304 254.2687328109436,109.8092540432119 255.64462340858748,115.56813849038032 252.0,110.90181818181819 248.35537659141252,115.56813849038032 249.7312671890564,109.8092540432119 243.81060553767267,109.86917584523304 249.17093645846876,107.35428470801041 245.43261554726854,102.76268566438664 250.74094827703343,105.38555215786862" fill="#4ade80" fill-opacity="0.7818181818181817" stroke-opacity="0.7818181818181817" />
  <polygon points="276.0,99.6 277.11047774191763,105.31906957474907 281.939696961967,102.060303038033 278.68093042525095,106.8895222580824 284.4,108.0 278.68093042525095,109.1104777419176 281.939696961967,113.939696961967 277.11047774191763,110.68093042525093 276.0,116.4 274.88952225808237,110.68093042525093 270.060303038033,113.939696961967 273.31906957474905,109.1104777419176 267.6,108.0 273.31906957474905,106.8895222580824 270.060303038033,102.060303038033 274.88952225808237,105.31906957474907" fill="#4ade80" fill-opacity="0.8090909090909091" stroke-opacity="0.8090909090909091" />
  <polygon points="12.0,123.6 14.267884294569217,129.73211570543077 20.4,132.0 14.267884294569217,134.26788429456923 12.0,140.4 9.732115705430783,134.26788429456923 3.6000000000000005,132.0 9.73211570543078,129.73211570543077" fill="#4ade80" fill-opacity="0.5363636363636364" stroke-opacity="0.5363636363636364" />
  <polygon points="36.0,123.6 38.267884294569214,129.73211570543077 44.4,132.0 38.267884294569214,134.26788429456923 36.0,140.4 33.732115705430786,134.26788429456923 27.6,132.0 33.73211570543078,129.73211570543077" fill="#4ade80" fill-opacity="0.5636363636363636" stroke-opacity="0.5636363636363636" />
  <polygon points="60.0,123.6 62.267884294569214,129.73211570543077 68.4,132.0 62.267884294569214,134.26788429456923 60.0,140.4 57.732115705430786,134.26788429456923 51.6,132.0 57.73211570543078,129.73211570543077" fill="#4ade80" fill-opacity="0.5909090909090909" stroke-opacity="0.5909090909090909" />
  <polygon points="84.0,123.6 85.88518760917077,129.4052618580411 91.9888747368793,129.40425724725043 87.05029762680846,132.99110177832256 88.93739611925677,138.79574275274956 84.0,135.20727272727274 79.06260388074323,138.79574275274956 80.94970237319154,132.99110177832256 76.0111252631207,129.40425724725046 82.11481239082923,129.4052618580411" fill="#4ade80" fill-opacity="0.6181818181818182" stroke-opacity="0.6181818181818182" />
  <polygon points="108.0,123.6 109.88518760917077,129.4052618580411 115.9888747368793,129.40425724725043 111.05029762680846,132.99110177832256 112.93739611925677,138.79574275274956 108.0,135.20727272727274 103.06260388074323,138.79574275274956 104.94970237319154,132.99110177832256 100.0111252631207,129.40425724725046 106.11481239082923,129.4052618580411" fill="#4ade80" fill-opacity="0.6454545454545455" stroke-opacity="0.6454545454545455" />
  <polygon points="132.0,123.6 133.88518760917077,129.4052618580411 139.9888747368793,129.40425724725043 135.05029762680846,132.99110177832256 136.9373961192568,138.79574275274956 132.0,135.20727272727274 127.06260388074323,138.79574275274956 128.94970237319154,132.99110177832256 124.0111252631207,129.40425724725046 130.11481239082923,129.4052618580411" fill="#4ade80" fill-opacity="0.6727272727272727" stroke-opacity="0.6727272727272727" />
  <polygon points="156.0,123.6 157.60363636363635,129.22242034131682 163.27461339178927,127.8 159.20727272727274,132.0 163.27461339178927,136.2 157.60363636363635,134.77757965868318 156.0,140.4 154.39636363636365,134.77757965868318 148.72538660821073,136.2 152.79272727272726,132.0 148.72538660821073,127.8 154.39636363636365,129.22242034131682" fill="#4ade80" fill-opacity="0.7" stroke-opacity="0.7" />
  <polygon points="180.0,123.6 181.60363636363635,129.22242034131682 187.27461339178927,127.8 183.20727272727274,132.0 187.27461339178927,136.2 181.60363636363635,134.77757965868318 180.0,140.4 178.39636363636365,134.77757965868318 172.72538660821073,136.2 176.79272727272726,132.0 172.72538660821073,127.8 178.39636363636365,129.22242034131682" fill="#4ade80" fill-opacity="0.7272727272727273" stroke-opacity="0.7272727272727273" />
  <polygon points="204.0,123.6 205.60363636363635,129.22242034131682 211.27461339178927,127.8 207.20727272727274,132.0 211.27461339178927,136.2 205.60363636363635,134.77757965868318 204.0,140.4 202.39636363636365,134.77757965868318 196.72538660821073,136.2 200.79272727272726,132.0 196.72538660821073,127.8 202.39636363636365,129.22242034131682" fill="#4ade80" fill-opacity="0.7545454545454546" stroke-opacity="0.7545454545454546" />
  <polygon points="228.0,123.6 229.39158348327885,129.11034712185477 234.56738445273146,126.76268566438664 231.1268597037977,131.28631467727465 236.18939446232733,133.86917584523303 230.50754679104293,133.9997018372342 231.64462340858748,139.5681384903803 228.0,135.20727272727274 224.35537659141252,139.5681384903803 225.49245320895707,133.9997018372342 219.81060553767267,133.86917584523303 224.87314029620228,131.28631467727467 221.43261554726854,126.76268566438664 226.60841651672115,129.11034712185477" fill="#4ade80" fill-opacity="0.7818181818181817" stroke-opacity="0.7818181818181817" />
  <polygon points="252.0,123.6 253.39158348327885,129.11034712185477 258.56738445273146,126.76268566438664 255.1268597037977,131.28631467727465 260.1893944623273,133.86917584523303 254.50754679104293,133.9997018372342 255.64462340858748,139.5681384903803 252.0,135.20727272727274 248.35537659141252,139.5681384903803 249.49245320895707,133.9997018372342 243.81060553767267,133.86917584523303 248.87314029620228,131.28631467727467 245.43261554726854,126.76268566438664 250.60841651672115,129.11034712185477" fill="#4ade80" fill-opacity="0.8090909090909091" stroke-opacity="0.8090909090909091" />
  <polygon points="276.0,123.6 277.22737013580365,129.03686637209108 281.939696961967,126.060303038033 278.9631336279089,130.77262986419632 284.4,132.0 278.9631336279089,133.22737013580368 281.939696961967,137.939696961967 277.22737013580365,134.96313362790892 276.0,140.4 274.77262986419635,134.96313362790892 270.060303038033,137.939696961967 273.0368663720911,133.22737013580368 267.6,132.0 273.0368663720911,130.77262986419632 270.060303038033,126.060303038033 274.77262986419635,129.03686637209108" fill="#4ade80" fill-opacity="0.8363636363636364" stroke-opacity="0.8363636363636364" />
  <polygon points="12.0,147.6 14.483873275004381,153.51612672499562 20.4,156.0 14.483873275004381,158.48387327500438 12.0,164.4 9.516126724995619,158.48387327500438 3.6000000000000005,156.0 9.516126724995617,153.51612672499562" fill="#4ade80" fill-opacity="0.5636363636363636" stroke-opacity="0.5636363636363636" />
  <polygon points="36.0,147.6 38.483873275004385,153.51612672499562 44.4,156.0 38.483873275004385,158.48387327500438 36.0,164.4 33.516126724995615,158.48387327500438 27.6,156.0 33.516126724995615,153.51612672499562" fill="#4ade80" fill-opacity="0.5909090909090909" stroke-opacity="0.5909090909090909" />
  <polygon points="60.0,147.6 62.483873275004385,153.51612672499562 68.4,156.0 62.483873275004385,158.48387327500438 60.0,164.4 57.516126724995615,158.48387327500438 51.6,156.0 57.516126724995615,153.51612672499562" fill="#4ade80" fill-opacity="0.6181818181818182" stroke-opacity="0.6181818181818182" />
  <polygon points="84.0,147.6 86.06472928623465,153.15814393975927 91.9888747368793,153.40425724725043 87.34080216269497,157.0854924238771 88.93739611925677,162.79574275274956 84.0,159.51272727272726 79.06260388074323,162.79574275274956 80.65919783730503,157.0854924238771 76.0111252631207,153.40425724725046 81.93527071376535,153.15814393975927" fill="#4ade80" fill-opacity="0.6454545454545455" stroke-opacity="0.6454545454545455" />
  <polygon points="108.0,147.6 110.06472928623465,153.15814393975927 115.9888747368793,153.40425724725043 111.34080216269497,157.0854924238771 112.93739611925677,162.79574275274956 108.0,159.51272727272726 103.06260388074323,162.79574275274956 104.65919783730503,157.0854924238771 100.0111252631207,153.40425724725046 105.93527071376535,153.15814393975927" fill="#4ade80" fill-opacity="0.6727272727272727" stroke-opacity="0.6727272727272727" />
  <polygon points="132.0,147.6 134.06472928623464,153.15814393975927 139.9888747368793,153.40425724725043 135.34080216269498,157.0854924238771 136.9373961192568,162.79574275274956 132.0,159.51272727272726 127.06260388074323,162.79574275274956 128.65919783730502,157.0854924238771 124.0111252631207,153.40425724725046 129.93527071376536,153.15814393975927" fill="#4ade80" fill-opacity="0.7" stroke-opacity="0.7" />
  <polygon points="156.0,147.6 157.75636363636363,152.95788894525174 163.27461339178927,151.8 159.51272727272726,156.0 163.27461339178927,160.2 157.75636363636363,159.04211105474826 156.0,164.4 154.24363636363637,159.04211105474826 148.72538660821073,160.2 152.48727272727274,156.0 148.72538660821073,151.8 154.24363636363637,152.95788894525174" fill="#4ade80" fill-opacity="0.7272727272727273" stroke-opacity="0.7272727272727273" />
  <polygon points="180.0,147.6 181.75636363636363,152.95788894525174 187.27461339178927,151.8 183.51272727272726,156.0 187.27461339178927,160.2 181.75636363636363,159.04211105474826 180.0,164.4 178.24363636363637,159.04211105474826 172.72538660821073,160.2 176.48727272727274,156.0 172.72538660821073,151.8 178.24363636363637,152.95788894525174" fill="#4ade80" fill-opacity="0.7545454545454545" stroke-opacity="0.7545454545454545" />
  <polygon points="204.0,147.6 205.75636363636363,152.95788894525174 211.27461339178927,151.8 207.51272727272726,156.0 211.27461339178927,160.2 205.75636363636363,159.04211105474826 204.0,164.4 202.24363636363637,159.04211105474826 196.72538660821073,160.2 200.48727272727274,156.0 196.72538660821073,151.8 202.24363636363637,152.95788894525174" fill="#4ade80" fill-opacity="0.7818181818181817" stroke-opacity="0.7818181818181817" />
  <polygon points="228.0,147.6 229.52411524359113,152.83514208584097 234.56738445273146,150.76268566438665 231.42465586606414,155.21834464653892 236.18939446232733,157.86917584523303 230.74636077114224,158.1901496312565 231.64462340858748,163.5681384903803 228.0,159.51272727272726 224.35537659141252,163.5681384903803 225.25363922885776,158.1901496312565 219.81060553767267,157.86917584523303 224.57534413393586,155.21834464653892 221.43261554726854,150.76268566438665 226.47588475640887,152.83514208584094" fill="#4ade80" fill-opacity="0.8090909090909091" stroke-opacity="0.8090909090909091" />
  <polygon points="252.0,147.6 253.52411524359113,152.83514208584097 258.56738445273146,150.76268566438665 255.42465586606414,155.21834464653892 260.1893944623273,157.86917584523303 254.74636077114224,158.1901496312565 255.64462340858748,163.5681384903803 252.0,159.51272727272726 248.35537659141252,163.5681384903803 249.25363922885776,158.1901496312565 243.81060553767267,157.86917584523303 248.57534413393586,155.21834464653892 245.43261554726854,150.76268566438665 250.47588475640887,152.83514208584094" fill="#4ade80" fill-opacity="0.8363636363636364" stroke-opacity="0.8363636363636364" />
  <polygon points="276.0,147.6 277.34426252968973,152.7546631694331 281.939696961967,150.060303038033 279.24533683056694,154.65573747031027 284.4,156.0 279.24533683056694,157.34426252968973 281.939696961967,161.939696961967 277.34426252968973,159.2453368305669 276.0,164.4 274.65573747031027,159.2453368305669 270.060303038033,161.939696961967 272.75466316943306,157.34426252968973 267.6,156.0 272.75466316943306,154.65573747031027 270.060303038033,150.060303038033 274.65573747031027,152.7546631694331" fill="#4ade80" fill-opacity="0.8636363636363636" stroke-opacity="0.8636363636363636" />
  <polygon points="12.0,171.6 14.699862255439545,177.30013774456046 20.4,180.0 14.699862255439545,182.69986225543954 12.0,188.4 9.300137744560455,182.69986225543954 3.6000000000000005,180.0 9.300137744560454,177.30013774456046" fill="#4ade80" fill-opacity="0.5909090909090909" stroke-opacity="0.5909090909090909" />
  <polygon points="36.0,171.6 38.69986225543954,177.30013774456046 44.4,180.0 38.69986225543954,182.69986225543954 36.0,188.4 33.30013774456046,182.69986225543954 27.6,180.0 33.30013774456045,177.30013774456046" fill="#4ade80" fill-opacity="0.6181818181818182" stroke-opacity="0.6181818181818182" />
  <polygon points="60.0,171.6 62.69986225543954,177.30013774456046 68.4,180.0 62.69986225543954,182.69986225543954 60.0,188.4 57.30013774456046,182.69986225543954 51.6,180.0 57.30013774456045,177.30013774456046" fill="#4ade80" fill-opacity="0.6454545454545455" stroke-opacity="0.6454545454545455" />
  <polygon points="84.0,171.6 86.24427096329853,176.91102602147748 91.9888747368793,177.40425724725043 87.6313066985815,181.1798830694316 88.93739611925677,186.79574275274956 84.0,183.8181818181818 79.06260388074323,186.79574275274956 80.3686933014185,181.1798830694316 76.0111252631207,177.40425724725046 81.75572903670147,176.91102602147748" fill="#4ade80" fill-opacity="0.6727272727272727" stroke-opacity="0.6727272727272727" />
  <polygon points="108.0,171.6 110.24427096329853,176.91102602147748 115.9888747368793,177.40425724725043 111.6313066985815,181.1798830694316 112.93739611925677,186.79574275274956 108.0,183.8181818181818 103.06260388074323,186.79574275274956 104.3686933014185,181.1798830694316 100.0111252631207,177.40425724725046 105.75572903670147,176.91102602147748" fill="#4ade80" fill-opacity="0.7" stroke-opacity="0.7" />
  <polygon points="132.0,171.6 134.24427096329853,176.91102602147748 139.9888747368793,177.40425724725043 135.63130669858148,181.1798830694316 136.9373961192568,186.79574275274956 132.0,183.8181818181818 127.06260388074323,186.79574275274956 128.36869330141852,181.1798830694316 124.0111252631207,177.40425724725046 129.75572903670147,176.91102602147748" fill="#4ade80" fill-opacity="0.7272727272727273" stroke-opacity="0.7272727272727273" />
  <polygon points="156.0,171.6 157.9090909090909,176.6933575491867 163.27461339178927,175.8 159.8181818181818,180.0 163.27461339178927,184.2 157.9090909090909,183.3066424508133 156.0,188.4 154.0909090909091,183.3066424508133 148.72538660821073,184.2 152.1818181818182,180.0 148.72538660821073,175.8 154.0909090909091,176.6933575491867" fill="#4ade80" fill-opacity="0.7545454545454545" stroke-opacity="0.7545454545454545" />
  <polygon points="180.0,171.6 181.9090909090909,176.6933575491867 187.27461339178927,175.8 183.8181818181818,180.0 187.27461339178927,184.2 181.9090909090909,183.3066424508133 180.0,188.4 178.0909090909091,183.3066424508133 172.72538660821073,184.2 176.1818181818182,180.0 172.72538660821073,175.8 178.0909090909091,176.6933575491867" fill="#4ade80" fill-opacity="0.7818181818181817" stroke-opacity="0.7818181818181817" />
  <polygon points="204.0,171.6 205.9090909090909,176.6933575491867 211.27461339178927,175.8 207.8181818181818,180.0 211.27461339178927,184.2 205.9090909090909,183.3066424508133 204.0,188.4 202.0909090909091,183.3066424508133 196.72538660821073,184.2 200.1818181818182,180.0 196.72538660821073,175.8 202.0909090909091,176.6933575491867" fill="#4ade80" fill-opacity="0.8090909090909091" stroke-opacity="0.8090909090909091" />
  <polygon points="228.0,171.6 229.6566470039034,176.5599370498271 234.56738445273146,174.76268566438665 231.7224520283306,179.15037461580317 236.18939446232733,181.86917584523303 230.98517475124157,182.3805974252788 231.64462340858748,187.5681384903803 228.0,183.8181818181818 224.35537659141252,187.5681384903803 225.01482524875843,182.3805974252788 219.81060553767267,181.86917584523303 224.2775479716694,179.15037461580317 221.43261554726854,174.76268566438665 226.3433529960966,176.5599370498271" fill="#4ade80" fill-opacity="0.8363636363636364" stroke-opacity="0.8363636363636364" />
  <polygon points="252.0,171.6 253.6566470039034,176.5599370498271 258.56738445273146,174.76268566438665 255.7224520283306,179.15037461580317 260.1893944623273,181.86917584523303 254.98517475124157,182.3805974252788 255.64462340858748,187.5681384903803 252.0,183.8181818181818 248.35537659141252,187.5681384903803 249.01482524875843,182.3805974252788 243.81060553767267,181.86917584523303 248.2775479716694,179.15037461580317 245.43261554726854,174.76268566438665 250.3433529960966,176.5599370498271" fill="#4ade80" fill-opacity="0.8636363636363636" stroke-opacity="0.8636363636363636" />
  <polygon points="276.0,171.6 277.4611549235758,176.4724599667751 281.939696961967,174.060303038033 279.5275400332249,178.5388450764242 284.4,180.0 279.5275400332249,181.4611549235758 281.939696961967,185.939696961967 277.4611549235758,183.5275400332249 276.0,188.4 274.5388450764242,183.5275400332249 270.060303038033,185.939696961967 272.4724599667751,181.4611549235758 267.6,180.0 272.4724599667751,178.5388450764242 270.060303038033,174.060303038033 274.5388450764242,176.4724599667751" fill="#4ade80" fill-opacity="0.8909090909090909" stroke-opacity="0.8909090909090909" />
  <polygon points="12.0,195.6 14.915851235874708,201.0841487641253 20.4,204.0 14.915851235874708,206.9158512358747 12.0,212.4 9.084148764125292,206.9158512358747 3.6000000000000005,204.0 9.08414876412529,201.0841487641253" fill="#4ade80" fill-opacity="0.6181818181818182" stroke-opacity="0.6181818181818182" />
  <polygon points="36.0,195.6 38.91585123587471,201.0841487641253 44.4,204.0 38.91585123587471,206.9158512358747 36.0,212.4 33.08414876412529,206.9158512358747 27.6,204.0 33.08414876412529,201.0841487641253" fill="#4ade80" fill-opacity="0.6454545454545455" stroke-opacity="0.6454545454545455" />
  <polygon points="60.0,195.6 62.91585123587471,201.0841487641253 68.4,204.0 62.91585123587471,206.9158512358747 60.0,212.4 57.08414876412529,206.9158512358747 51.6,204.0 57.08414876412529,201.0841487641253" fill="#4ade80" fill-opacity="0.6727272727272728" stroke-opacity="0.6727272727272728" />
  <polygon points="84.0,195.6 86.42381264036241,200.66390810319567 91.9888747368793,201.40425724725043 87.92181123446801,205.27427371498615 88.93739611925677,210.79574275274956 84.0,208.12363636363636 79.06260388074323,210.79574275274956 80.07818876553199,205.27427371498615 76.0111252631207,201.40425724725046 81.57618735963759,200.66390810319567" fill="#4ade80" fill-opacity="0.7" stroke-opacity="0.7" />
  <polygon points="108.0,195.6 110.42381264036241,200.66390810319567 115.9888747368793,201.40425724725043 111.92181123446801,205.27427371498615 112.93739611925677,210.79574275274956 108.0,208.12363636363636 103.06260388074323,210.79574275274956 104.07818876553199,205.27427371498615 100.0111252631207,201.40425724725046 105.57618735963759,200.66390810319567" fill="#4ade80" fill-opacity="0.7272727272727273" stroke-opacity="0.7272727272727273" />
  <polygon points="132.0,195.6 134.42381264036243,200.66390810319567 139.9888747368793,201.40425724725043 135.921811234468,205.27427371498615 136.9373961192568,210.79574275274956 132.0,208.12363636363636 127.06260388074323,210.79574275274956 128.078188765532,205.27427371498615 124.0111252631207,201.40425724725046 129.57618735963757,200.66390810319567" fill="#4ade80" fill-opacity="0.7545454545454546" stroke-opacity="0.7545454545454546" />
  <polygon points="156.0,195.6 158.06181818181818,200.42882615312163 163.27461339178927,199.8 160.12363636363636,204.0 163.27461339178927,208.2 158.06181818181818,207.57117384687837 156.0,212.4 153.93818181818182,207.57117384687837 148.72538660821073,208.2 151.87636363636364,204.0 148.72538660821073,199.8 153.93818181818182,200.42882615312163" fill="#4ade80" fill-opacity="0.7818181818181817" stroke-opacity="0.7818181818181817" />
  <polygon points="180.0,195.6 182.06181818181818,200.42882615312163 187.27461339178927,199.8 184.12363636363636,204.0 187.27461339178927,208.2 182.06181818181818,207.57117384687837 180.0,212.4 177.93818181818182,207.57117384687837 172.72538660821073,208.2 175.87636363636364,204.0 172.72538660821073,199.8 177.93818181818182,200.42882615312163" fill="#4ade80" fill-opacity="0.8090909090909091" stroke-opacity="0.8090909090909091" />
  <polygon points="204.0,195.6 206.06181818181818,200.42882615312163 211.27461339178927,199.8 208.12363636363636,204.0 211.27461339178927,208.2 206.06181818181818,207.57117384687837 204.0,212.4 201.93818181818182,207.57117384687837 196.72538660821073,208.2 199.87636363636364,204.0 196.72538660821073,199.8 201.93818181818182,200.42882615312163" fill="#4ade80" fill-opacity="0.8363636363636364" stroke-opacity="0.8363636363636364" />
  <polygon points="228.0,195.6 229.78917876421568,200.2847320138133 234.56738445273146,198.76268566438665 232.02024819059704,203.08240458506742 236.18939446232733,205.86917584523303 231.22398873134088,206.5710452193011 231.64462340858748,211.5681384903803 228.0,208.12363636363636 224.35537659141252,211.5681384903803 224.77601126865912,206.5710452193011 219.81060553767267,205.86917584523303 223.97975180940296,203.08240458506742 221.43261554726854,198.76268566438665 226.21082123578432,200.28473201381328" fill="#4ade80" fill-opacity="0.8636363636363636" stroke-opacity="0.8636363636363636" />
  <polygon points="252.0,195.6 253.78917876421568,200.2847320138133 258.56738445273146,198.76268566438665 256.02024819059704,203.08240458506742 260.1893944623273,205.86917584523303 255.22398873134088,206.5710452193011 255.64462340858748,211.5681384903803 252.0,208.12363636363636 248.35537659141252,211.5681384903803 248.77601126865912,206.5710452193011 243.81060553767267,205.86917584523303 247.97975180940296,203.08240458506742 245.43261554726854,198.76268566438665 250.21082123578432,200.28473201381328" fill="#4ade80" fill-opacity="0.8909090909090909" stroke-opacity="0.8909090909090909" />
  <polygon points="276.0,195.6 277.5780473174619,200.1902567641171 281.939696961967,198.060303038033 279.80974323588293,202.42195268253815 284.4,204.0 279.80974323588293,205.57804731746185 281.939696961967,209.939696961967 277.5780473174619,207.8097432358829 276.0,212.4 274.4219526825381,207.8097432358829 270.060303038033,209.939696961967 272.19025676411707,205.57804731746185 267.6,204.0 272.19025676411707,202.42195268253815 270.060303038033,198.060303038033 274.4219526825381,200.1902567641171" fill="#4ade80" fill-opacity="0.9181818181818182" stroke-opacity="0.9181818181818182" />
  <polygon points="12.0,219.6 15.131840216309872,224.86815978369012 20.4,228.0 15.131840216309872,231.13184021630988 12.0,236.4 8.868159783690128,231.13184021630988 3.6000000000000005,228.0 8.868159783690126,224.86815978369012" fill="#4ade80" fill-opacity="0.6454545454545455" stroke-opacity="0.6454545454545455" />
  <polygon points="36.0,219.6 39.13184021630987,224.86815978369012 44.4,228.0 39.13184021630987,231.13184021630988 36.0,236.4 32.86815978369013,231.13184021630988 27.6,228.0 32.868159783690125,224.86815978369012" fill="#4ade80" fill-opacity="0.6727272727272728" stroke-opacity="0.6727272727272728" />
  <polygon points="60.0,219.6 63.13184021630987,224.86815978369012 68.4,228.0 63.13184021630987,231.13184021630988 60.0,236.4 56.86815978369013,231.13184021630988 51.6,228.0 56.868159783690125,224.86815978369012" fill="#4ade80" fill-opacity="0.7" stroke-opacity="0.7" />
  <polygon points="84.0,219.6 86.6033543174263,224.41679018491388 91.9888747368793,225.40425724725043 88.21231577035454,229.36866436054066 88.93739611925677,234.79574275274956 84.0,232.42909090909092 79.06260388074323,234.79574275274956 79.78768422964546,229.36866436054066 76.0111252631207,225.40425724725046 81.3966456825737,224.41679018491388" fill="#4ade80" fill-opacity="0.7272727272727273" stroke-opacity="0.7272727272727273" />
  <polygon points="108.0,219.6 110.6033543174263,224.41679018491388 115.9888747368793,225.40425724725043 112.21231577035454,229.36866436054066 112.93739611925677,234.79574275274956 108.0,232.42909090909092 103.06260388074323,234.79574275274956 103.78768422964546,229.36866436054066 100.0111252631207,225.40425724725046 105.3966456825737,224.41679018491388" fill="#4ade80" fill-opacity="0.7545454545454546" stroke-opacity="0.7545454545454546" />
  <polygon points="132.0,219.6 134.6033543174263,224.41679018491388 139.9888747368793,225.40425724725043 136.21231577035454,229.36866436054066 136.9373961192568,234.79574275274956 132.0,232.42909090909092 127.06260388074323,234.79574275274956 127.78768422964546,229.36866436054066 124.0111252631207,225.40425724725046 129.3966456825737,224.41679018491388" fill="#4ade80" fill-opacity="0.7818181818181817" stroke-opacity="0.7818181818181817" />
  <polygon points="156.0,219.6 158.21454545454546,224.16429475705655 163.27461339178927,223.8 160.42909090909092,228.0 163.27461339178927,232.2 158.21454545454546,231.83570524294345 156.0,236.4 153.78545454545454,231.83570524294345 148.72538660821073,232.2 151.57090909090908,228.0 148.72538660821073,223.8 153.78545454545454,224.16429475705655" fill="#4ade80" fill-opacity="0.8090909090909091" stroke-opacity="0.8090909090909091" />
  <polygon points="180.0,219.6 182.21454545454546,224.16429475705655 187.27461339178927,223.8 184.42909090909092,228.0 187.27461339178927,232.2 182.21454545454546,231.83570524294345 180.0,236.4 177.78545454545454,231.83570524294345 172.72538660821073,232.2 175.57090909090908,228.0 172.72538660821073,223.8 177.78545454545454,224.16429475705655" fill="#4ade80" fill-opacity="0.8363636363636364" stroke-opacity="0.8363636363636364" />
  <polygon points="204.0,219.6 206.21454545454546,224.16429475705655 211.27461339178927,223.8 208.42909090909092,228.0 211.27461339178927,232.2 206.21454545454546,231.83570524294345 204.0,236.4 201.78545454545454,231.83570524294345 196.72538660821073,232.2 199.57090909090908,228.0 196.72538660821073,223.8 201.78545454545454,224.16429475705655" fill="#4ade80" fill-opacity="0.8636363636363636" stroke-opacity="0.8636363636363636" />
  <polygon points="228.0,219.6 229.92171052452795,224.00952697779945 234.56738445273146,222.76268566438665 232.3180443528635,227.01443455433167 236.18939446232733,229.86917584523303 231.46280271144022,230.76149301332342 231.64462340858748,235.5681384903803 228.0,232.42909090909092 224.35537659141252,235.5681384903803 224.53719728855978,230.76149301332342 219.81060553767267,229.86917584523303 223.6819556471365,227.01443455433167 221.43261554726854,222.76268566438665 226.07828947547205,224.00952697779945" fill="#4ade80" fill-opacity="0.8909090909090909" stroke-opacity="0.8909090909090909" />
  <polygon points="252.0,219.6 253.92171052452795,224.00952697779945 258.56738445273146,222.76268566438665 256.31804435286347,227.01443455433167 260.1893944623273,229.86917584523303 255.46280271144022,230.76149301332342 255.64462340858748,235.5681384903803 252.0,232.42909090909092 248.35537659141252,235.5681384903803 248.53719728855978,230.76149301332342 243.81060553767267,229.86917584523303 247.6819556471365,227.01443455433167 245.43261554726854,222.76268566438665 250.07828947547205,224.00952697779945" fill="#4ade80" fill-opacity="0.9181818181818182" stroke-opacity="0.9181818181818182" />
  <polygon points="276.0,219.6 277.6949397113479,223.9080535614591 281.939696961967,222.060303038033 280.0919464385409,226.30506028865207 284.4,228.0 280.0919464385409,229.69493971134793 281.939696961967,233.939696961967 277.6949397113479,232.0919464385409 276.0,236.4 274.3050602886521,232.0919464385409 270.060303038033,233.939696961967 271.9080535614591,229.69493971134793 267.6,228.0 271.9080535614591,226.30506028865207 270.060303038033,222.060303038033 274.30506028865204,223.9080535614591" fill="#4ade80" fill-opacity="0.9454545454545455" stroke-opacity="0.9454545454545455" />
  <polygon points="12.0,243.6 15.347829196745035,248.65217080325496 20.4,252.0 15.347829196745035,255.34782919674504 12.0,260.4 8.652170803254965,255.34782919674504 3.6000000000000005,252.0 8.652170803254961,248.65217080325496" fill="#4ade80" fill-opacity="0.6727272727272727" stroke-opacity="0.6727272727272727" />
  <polygon points="36.0,243.6 39.34782919674504,248.65217080325496 44.4,252.0 39.34782919674504,255.34782919674504 36.0,260.4 32.65217080325496,255.34782919674504 27.6,252.0 32.65217080325496,248.65217080325496" fill="#4ade80" fill-opacity="0.7" stroke-opacity="0.7" />
  <polygon points="60.0,243.6 63.34782919674504,248.65217080325496 68.4,252.0 63.34782919674504,255.34782919674504 60.0,260.4 56.65217080325496,255.34782919674504 51.6,252.0 56.65217080325496,248.65217080325496" fill="#4ade80" fill-opacity="0.7272727272727273" stroke-opacity="0.7272727272727273" />
  <polygon points="84.0,243.6 86.78289599449019,248.16967226663206 91.9888747368793,249.40425724725043 88.50282030624106,253.4630550060952 88.93739611925677,258.79574275274956 84.0,256.73454545454547 79.06260388074323,258.79574275274956 79.49717969375895,253.4630550060952 76.0111252631207,249.40425724725046 81.21710400550981,248.16967226663206" fill="#4ade80" fill-opacity="0.7545454545454545" stroke-opacity="0.7545454545454545" />
  <polygon points="108.0,243.6 110.78289599449019,248.16967226663206 115.9888747368793,249.40425724725043 112.50282030624106,253.4630550060952 112.93739611925677,258.79574275274956 108.0,256.73454545454547 103.06260388074323,258.79574275274956 103.49717969375895,253.4630550060952 100.0111252631207,249.40425724725046 105.21710400550981,248.16967226663206" fill="#4ade80" fill-opacity="0.7818181818181817" stroke-opacity="0.7818181818181817" />
  <polygon points="132.0,243.6 134.7828959944902,248.16967226663206 139.9888747368793,249.40425724725043 136.50282030624106,253.4630550060952 136.9373961192568,258.79574275274956 132.0,256.73454545454547 127.06260388074323,258.79574275274956 127.49717969375895,253.4630550060952 124.0111252631207,249.40425724725046 129.2171040055098,248.16967226663206" fill="#4ade80" fill-opacity="0.8090909090909091" stroke-opacity="0.8090909090909091" />
  <polygon points="156.0,243.6 158.36727272727273,247.8997633609915 163.27461339178927,247.8 160.73454545454547,252.0 163.27461339178927,256.2 158.36727272727273,256.10023663900853 156.0,260.4 153.63272727272727,256.10023663900853 148.72538660821073,256.2 151.26545454545453,252.0 148.72538660821073,247.8 153.63272727272727,247.8997633609915" fill="#4ade80" fill-opacity="0.8363636363636364" stroke-opacity="0.8363636363636364" />
  <polygon points="180.0,243.6 182.36727272727273,247.8997633609915 187.27461339178927,247.8 184.73454545454547,252.0 187.27461339178927,256.2 182.36727272727273,256.10023663900853 180.0,260.4 177.63272727272727,256.10023663900853 172.72538660821073,256.2 175.26545454545453,252.0 172.72538660821073,247.8 177.63272727272727,247.8997633609915" fill="#4ade80" fill-opacity="0.8636363636363636" stroke-opacity="0.8636363636363636" />
  <polygon points="204.0,243.6 206.36727272727273,247.8997633609915 211.27461339178927,247.8 208.73454545454547,252.0 211.27461339178927,256.2 206.36727272727273,256.10023663900853 204.0,260.4 201.63272727272727,256.10023663900853 196.72538660821073,256.2 199.26545454545453,252.0 196.72538660821073,247.8 201.63272727272727,247.8997633609915" fill="#4ade80" fill-opacity="0.8909090909090909" stroke-opacity="0.8909090909090909" />
  <polygon points="228.0,243.6 230.05424228484023,247.73432194178562 234.56738445273146,246.76268566438665 232.61584051512995,250.94646452359592 236.18939446232733,253.86917584523303 231.70161669153956,254.95194080734572 231.64462340858748,259.5681384903803 228.0,256.73454545454547 224.35537659141252,259.5681384903803 224.29838330846044,254.95194080734572 219.81060553767267,253.86917584523303 223.38415948487005,250.94646452359592 221.43261554726854,246.76268566438665 225.94575771515977,247.73432194178562" fill="#4ade80" fill-opacity="0.9181818181818182" stroke-opacity="0.9181818181818182" />
  <polygon points="252.0,243.6 254.05424228484023,247.73432194178562 258.56738445273146,246.76268566438665 256.61584051512995,250.94646452359592 260.1893944623273,253.86917584523303 255.70161669153956,254.95194080734572 255.64462340858748,259.5681384903803 252.0,256.73454545454547 248.35537659141252,259.5681384903803 248.29838330846044,254.95194080734572 243.81060553767267,253.86917584523303 247.38415948487005,250.94646452359592 245.43261554726854,246.76268566438665 249.94575771515977,247.73432194178562" fill="#4ade80" fill-opacity="0.9454545454545454" stroke-opacity="0.9454545454545454" />
  <polygon points="276.0,243.6 277.811832105234,247.6258503588011 281.939696961967,246.060303038033 280.37414964119887,250.18816789476602 284.4,252.0 280.37414964119887,253.81183210523398 281.939696961967,257.939696961967 277.811832105234,256.37414964119887 276.0,260.4 274.188167894766,256.37414964119887 270.060303038033,257.939696961967 271.62585035880113,253.81183210523398 267.6,252.0 271.62585035880113,250.18816789476602 270.060303038033,246.060303038033 274.188167894766,247.6258503588011" fill="#4ade80" fill-opacity="0.9727272727272728" stroke-opacity="0.9727272727272728" />
  <polygon points="12.0,267.6 15.563818177180199,272.4361818228198 20.4,276.0 15.563818177180199,279.5638181771802 12.0,284.4 8.436181822819801,279.5638181771802 3.6000000000000005,276.0 8.436181822819798,272.4361818228198" fill="#4ade80" fill-opacity="0.7" stroke-opacity="0.7" />
  <polygon points="36.0,267.6 39.563818177180195,272.4361818228198 44.4,276.0 39.563818177180195,279.5638181771802 36.0,284.4 32.436181822819805,279.5638181771802 27.6,276.0 32.4361818228198,272.4361818228198" fill="#4ade80" fill-opacity="0.7272727272727273" stroke-opacity="0.7272727272727273" />
  <polygon points="60.0,267.6 63.563818177180195,272.4361818228198 68.4,276.0 63.563818177180195,279.5638181771802 60.0,284.4 56.436181822819805,279.5638181771802 51.6,276.0 56.4361818228198,272.4361818228198" fill="#4ade80" fill-opacity="0.7545454545454546" stroke-opacity="0.7545454545454546" />
  <polygon points="84.0,267.6 86.96243767155406,271.9225543483503 91.9888747368793,273.4042572472504 88.79332484212757,277.55744565164974 88.93739611925677,282.79574275274956 84.0,281.04 79.06260388074323,282.79574275274956 79.20667515787243,277.55744565164974 76.0111252631207,273.4042572472504 81.03756232844593,271.9225543483503" fill="#4ade80" fill-opacity="0.7818181818181817" stroke-opacity="0.7818181818181817" />
  <polygon points="108.0,267.6 110.96243767155406,271.9225543483503 115.9888747368793,273.4042572472504 112.79332484212757,277.55744565164974 112.93739611925677,282.79574275274956 108.0,281.04 103.06260388074323,282.79574275274956 103.20667515787243,277.55744565164974 100.0111252631207,273.4042572472504 105.03756232844593,271.9225543483503" fill="#4ade80" fill-opacity="0.8090909090909091" stroke-opacity="0.8090909090909091" />
  <polygon points="132.0,267.6 134.96243767155406,271.9225543483503 139.9888747368793,273.4042572472504 136.79332484212756,277.55744565164974 136.9373961192568,282.79574275274956 132.0,281.04 127.06260388074323,282.79574275274956 127.20667515787243,277.55744565164974 124.0111252631207,273.4042572472504 129.03756232844594,271.9225543483503" fill="#4ade80" fill-opacity="0.8363636363636364" stroke-opacity="0.8363636363636364" />
  <polygon points="156.0,267.6 158.52,271.63523196492645 163.27461339178927,271.8 161.04,276.0 163.27461339178927,280.2 158.52,280.36476803507355 156.0,284.4 153.48,280.36476803507355 148.72538660821073,280.2 150.96,276.0 148.72538660821073,271.8 153.48,271.63523196492645" fill="#4ade80" fill-opacity="0.8636363636363636" stroke-opacity="0.8636363636363636" />
  <polygon points="180.0,267.6 182.52,271.63523196492645 187.27461339178927,271.8 185.04,276.0 187.27461339178927,280.2 182.52,280.36476803507355 180.0,284.4 177.48,280.36476803507355 172.72538660821073,280.2 174.96,276.0 172.72538660821073,271.8 177.48,271.63523196492645" fill="#4ade80" fill-opacity="0.8909090909090909" stroke-opacity="0.8909090909090909" />
  <polygon points="204.0,267.6 206.52,271.63523196492645 211.27461339178927,271.8 209.04,276.0 211.27461339178927,280.2 206.52,280.36476803507355 204.0,284.4 201.48,280.36476803507355 196.72538660821073,280.2 198.96,276.0 196.72538660821073,271.8 201.48,271.63523196492645" fill="#4ade80" fill-opacity="0.9181818181818182" stroke-opacity="0.9181818181818182" />
  <polygon points="228.0,267.6 230.1867740451525,271.4591169057718 234.56738445273146,270.76268566438665 232.9136366773964,274.87849449286017 236.18939446232733,277.86917584523303 231.94043067163886,279.142388601368 231.64462340858748,283.5681384903803 228.0,281.04 224.35537659141252,283.5681384903803 224.05956932836114,279.142388601368 219.81060553767267,277.86917584523303 223.0863633226036,274.87849449286017 221.43261554726854,270.76268566438665 225.8132259548475,271.4591169057718" fill="#4ade80" fill-opacity="0.9454545454545455" stroke-opacity="0.9454545454545455" />
  <polygon points="252.0,267.6 254.1867740451525,271.4591169057718 258.56738445273146,270.76268566438665 256.91363667739637,274.87849449286017 260.1893944623273,277.86917584523303 255.94043067163886,279.142388601368 255.64462340858748,283.5681384903803 252.0,281.04 248.35537659141252,283.5681384903803 248.05956932836114,279.142388601368 243.81060553767267,277.86917584523303 247.0863633226036,274.87849449286017 245.43261554726854,270.76268566438665 249.8132259548475,271.4591169057718" fill="#4ade80" fill-opacity="0.9727272727272728" stroke-opacity="0.9727272727272728" />
  <polygon points="276.0,267.6 277.92872449912005,271.3436471561431 281.939696961967,270.060303038033 280.6563528438569,274.07127550087995 284.4,276.0 280.6563528438569,277.92872449912005 281.939696961967,281.939696961967 277.92872449912005,280.6563528438569 276.0,284.4 274.07127550087995,280.6563528438569 270.060303038033,281.939696961967 271.3436471561431,277.92872449912005 267.6,276.0 271.3436471561431,274.07127550087995 270.060303038033,270.060303038033 274.07127550087995,271.3436471561431" fill="#4ade80" />
</svg>