<?xml version="1.0" encoding="UTF-8"?>
<svg xmlns="http://www.w3.org/2000/svg" width="280" height="280" viewBox="0 0 280 280">
  <rect width="100%" height="100%" fill="#1a1a2e" />
  <polygon points="10,2.5 17.5,10 10,17.5 2.5,10" fill="#ff6b6b" fill-opacity="0.7" stroke-opacity="0.7" />
  <polygon points="35.1962,13 30,16 24.8038,13 24.8038,7 30,4 35.1962,7" fill="#ffe66d" fill-opacity="0.5" stroke-opacity="0.5" />
  <polygon points="50,2.5 57.5,10 50,17.5 42.5,10" fill="#ff6b6b" fill-opacity="0.7" stroke-opacity="0.7" />
  <polygon points="75.1962,13 70,16 64.8038,13 64.8038,7 70,4 75.1962,7" fill="#ffe66d" fill-opacity="0.5" stroke-opacity="0.5" />
  <polygon points="90,2.5 97.5,10 90,17.5 82.5,10" fill="#ff6b6b" fill-opacity="0.7" stroke-opacity="0.7" />
  <polygon points="115.196,13 110,16 104.804,13 104.804,7 110,4 115.196,7" fill="#ffe66d" fill-opacity="0.5" stroke-opacity="0.5" />
  <polygon points="130,2.5 137.5,10 130,17.5 122.5,10" fill="#ff6b6b" fill-opacity="0.7" stroke-opacity="0.7" />
  <polygon points="155.196,13 150,16 144.804,13 144.804,7 150,4 155.196,7" fill="#ffe66d" fill-opacity="0.5" stroke-opacity="0.5" />
  <polygon points="170,2.5 177.5,10 170,17.5 162.5,10" fill="#ff6b6b" fill-opacity="0.7" stroke-opacity="0.7" />
  <polygon points="195.196,13 190,16 184.804,13 184.804,7 190,4 195.196,7" fill="#ffe66d" fill-opacity="0.5" stroke-opacity="0.5" />
  <polygon points="210,2.5 217.5,10 210,17.5 202.5,10" fill="#ff6b6b" fill-opacity="0.7" stroke-opacity="0.7" />
  <polygon points="235.196,13 230,16 224.804,13 224.804,7 230,4 235.196,7" fill="#ffe66d" fill-opacity="0.5" stroke-opacity="0.5" />
  <polygon points="250,2.5 257.5,10 250,17.5 242.5,10" fill="#ff6b6b" fill-opacity="0.7" stroke-opacity="0.7" />
  <polygon points="275.196,13 270,16 264.804,13 264.804,7 270,4 275.196,7" fill="#ffe66d" fill-opacity="0.5" stroke-opacity="0.5" />
  <polygon points="15.1962,33 10,36 4.80385,33 4.80385,27 10,24 15.1962,27" fill="#ffe66d" fill-opacity="0.5" stroke-opacity="0.5" />
  <polygon points="30,22.5 37.5,30 30,37.5 22.5,30" fill="#ff6b6b" fill-opacity="0.7" stroke-opacity="0.7" />
  <polygon points="55.1962,33 50,36 44.8038,33 44.8038,27 50,24 55.1962,27" fill="#ffe66d" fill-opacity="0.5" stroke-opacity="0.5" />
  <polygon points="70,22.5 77.5,30 70,37.5 62.5,30" fill="#ff6b6b" fill-opacity="0.7" stroke-opacity="0.7" />
  <polygon points="95.1962,33 90,36 84.8038,33 84.8038,27 90,24 95.1962,27" fill="#ffe66d" fill-opacity="0.5" stroke-opacity="0.5" />
  <polygon points="110,22.5 117.5,30 110,37.5 102.5,30" fill="#ff6b6b" fill-opacity="0.7" stroke-opacity="0.7" />
  <polygon points="135.196,33 130,36 124.804,33 124.804,27 130,24 135.196,27" fill="#ffe66d" fill-opacity="0.5" stroke-opacity="0.5" />
  <polygon points="150,22.5 157.5,30 150,37.5 142.5,30" fill="#ff6b6b" fill-opacity="0.7" stroke-opacity="0.7" />
  <polygon points="175.196,33 170,36 164.804,33 164.804,27 170,24 175.196,27" fill="#ffe66d" fill-opacity="0.5" stroke-opacity="0.5" />
  <polygon points="190,22.5 197.5,30 190,37.5 182.5,30" fill="#ff6b6b" fill-opacity="0.7" stroke-opacity="0.7" />
  <polygon points="215.196,33 210,36 204.804,33 204.804,27 210,24 215.196,27" fill="#ffe66d" fill-opacity="0.5" stroke-opacity="0.5" />
  <polygon points="230,22.5 237.5,30 230,37.5 222.5,30" fill="#ff6b6b" fill-opacity="0.7" stroke-opacity="0.7" />
  <polygon points="255.196,33 250,36 244.804,33 244.804,27 250,24 255.196,27" fill="#ffe66d" fill-opacity="0.5" stroke-opacity="0.5" />
  <polygon points="270,22.5 277.5,30 270,37.5 262.5,30" fill="#ff6b6b" fill-opacity="0.7" stroke-opacity="0.7" />
  <polygon points="10,42.5 17.5,50 10,57.5 2.5,50" fill="#ff6b6b" fill-opacity="0.7" stroke-opacity="0.7" />
  <polygon points="35.1962,53 30,56 24.8038,53 24.8038,47 30,44 35.1962,47" fill="#ffe66d" fill-opacity="0.5" stroke-opacity="0.5" />
  <polygon points="50,42.5 57.5,50 50,57.5 42.5,50" fill="#ff6b6b" fill-opacity="0.7" stroke-opacity="0.7" />
  <polygon points="75.1962,53 70,56 64.8038,53 64.8038,47 70,44 75.1962,47" fill="#ffe66d" fill-opacity="0.5" stroke-opacity="0.5" />
  <polygon points="90,42.5 97.5,50 90,57.5 82.5,50" fill="#ff6b6b" fill-opacity="0.7" stroke-opacity="0.7" />
  <polygon points="115.196,53 110,56 104.804,53 104.804,47 110,44 115.196,47" fill="#ffe66d" fill-opacity="0.5" stroke-opacity="0.5" />
  <polygon points="130,42.5 137.5,50 130,57.5 122.5,50" fill="#ff6b6b" fill-opacity="0.7" stroke-opacity="0.7" />
  <polygon points="155.196,53 150,56 144.804,53 144.804,47 150,44 155.196,47" fill="#ffe66d" fill-opacity="0.5" stroke-opacity="0.5" />
  <polygon points="170,42.5 177.5,50 170,57.5 162.5,50" fill="#ff6b6b" fill-opacity="0.7" stroke-opacity="0.7" />
  <polygon points="195.196,53 190,56 184.804,53 184.804,47 190,44 195.196,47" fill="#ffe66d" fill-opacity="0.5" stroke-opacity="0.5" />
  <polygon points="210,42.5 217.5,50 210,57.5 202.5,50" fill="#ff6b6b" fill-opacity="0.7" stroke-opacity="0.7" />
  <polygon points="235.196,53 230,56 224.804,53 224.804,47 230,44 235.196,47" fill="#ffe66d" fill-opacity="0.5" stroke-opacity="0.5" />
  <polygon points="250,42.5 257.5,50 250,57.5 242.5,50" fill="#ff6b6b" fill-opacity="0.7" stroke-opacity="0.7" />
  <polygon points="275.196,53 270,56 264.804,53 264.804,47 270,44 275.196,47" fill="#ffe66d" fill-opacity="0.5" stroke-opacity="0.5" />
  <polygon points="15.1962,73 10,76 4.80385,73 4.80385,67 10,64 15.1962,67" fill="#ffe66d" fill-opacity="0.5" stroke-opacity="0.5" />
  <polygon points="30,62.5 37.5,70 30,77.5 22.5,70" fill="#ff6b6b" fill-opacity="0.7" stroke-opacity="0.7" />
  <polygon points="55.1962,73 50,76 44.8038,73 44.8038,67 50,64 55.1962,67" fill="#ffe66d" fill-opacity="0.5" stroke-opacity="0.5" />
  <polygon points="70,62.5 77.5,70 70,77.5 62.5,70" fill="#ff6b6b" fill-opacity="0.7" stroke-opacity="0.7" />
  <polygon points="95.1962,73 90,76 84.8038,73 84.8038,67 90,64 95.1962,67" fill="#ffe66d" fill-opacity="0.5" stroke-opacity="0.5" />
  <polygon points="110,62.5 117.5,70 110,77.5 102.5,70" fill="#ff6b6b" fill-opacity="0.7" stroke-opacity="0.7" />
  <polygon points="135.196,73 130,76 124.804,73 124.804,67 130,64 135.196,67" fill="#ffe66d" fill-opacity="0.5" stroke-opacity="0.5" />
  <polygon points="150,62.5 157.5,70 150,77.5 142.5,70" fill="#ff6b6b" fill-opacity="0.7" stroke-opacity="0.7" />
  <polygon points="175.196,73 170,76 164.804,73 164.804,67 170,64 175.196,67" fill="#ffe66d" fill-opacity="0.5" stroke-opacity="0.5" />
  <polygon points="190,62.5 197.5,70 190,77.5 182.5,70" fill="#ff6b6b" fill-opacity="0.7" stroke-opacity="0.7" />
  <polygon points="215.196,73 210,76 204.804,73 204.804,67 210,64 215.196,67" fill="#ffe66d" fill-opacity="0.5" stroke-opacity="0.5" />
  <polygon points="230,62.5 237.5,70 230,77.5 222.5,70" fill="#ff6b6b" fill-opacity="0.7" stroke-opacity="0.7" />
  <polygon points="255.196,73 250,76 244.804,73 244.804,67 250,64 255.196,67" fill="#ffe66d" fill-opacity="0.5" stroke-opacity="0.5" />
  <polygon points="270,62.5 277.5,70 270,77.5 262.5,70" fill="#ff6b6b" fill-opacity="0.7" stroke-opacity="0.7" />
  <polygon points="10,82.5 17.5,90 10,97.5 2.5,90" fill="#ff6b6b" fill-opacity="0.7" stroke-opacity="0.7" />
  <polygon points="35.1962,93 30,96 24.8038,93 24.8038,87 30,84 35.1962,87" fill="#ffe66d" fill-opacity="0.5" stroke-opacity="0.5" />
  <polygon points="50,82.5 57.5,90 50,97.5 42.5,90" fill="#ff6b6b" fill-opacity="0.7" stroke-opacity="0.7" />
  <polygon points="75.1962,93 70,96 64.8038,93 64.8038,87 70,84 75.1962,87" fill="#ffe66d" fill-opacity="0.5" stroke-opacity="0.5" />
  <polygon points="90,82.5 97.5,90 90,97.5 82.5,90" fill="#ff6b6b" fill-opacity="0.7" stroke-opacity="0.7" />
  <polygon points="115.196,93 110,96 104.804,93 104.804,87 110,84 115.196,87" fill="#ffe66d" fill-opacity="0.5" stroke-opacity="0.5" />
  <polygon points="130,82.5 137.5,90 130,97.5 122.5,90" fill="#ff6b6b" fill-opacity="0.7" stroke-opacity="0.7" />
  <polygon points="155.196,93 150,96 144.804,93 144.804,87 150,84 155.196,87" fill="#ffe66d" fill-opacity="0.5" stroke-opacity="0.5" />
  <polygon points="170,82.5 177.5,90 170,97.5 162.5,90" fill="#ff6b6b" fill-opacity="0.7" stroke-opacity="0.7" />
  <polygon points="195.196,93 190,96 184.804,93 184.804,87 190,84 195.196,87" fill="#ffe66d" fill-opacity="0.5" stroke-opacity="0.5" />
  <polygon points="210,82.5 217.5,90 210,97.5 202.5,90" fill="#ff6b6b" fill-opacity="0.7" stroke-opacity="0.7" />
  <polygon points="235.196,93 230,96 224.804,93 224.804,87 230,84 235.196,87" fill="#ffe66d" fill-opacity="0.5" stroke-opacity="0.5" />
  <polygon points="250,82.5 257.5,90 250,97.5 242.5,90" fill="#ff6b6b" fill-opacity="0.7" stroke-opacity="0.7" />
  <polygon points="275.196,93 270,96 264.804,93 264.804,87 270,84 275.196,87" fill="#ffe66d" fill-opacity="0.5" stroke-opacity="0.5" />
  <polygon points="15.1962,113 10,116 4.80385,113 4.80385,107 10,104 15.1962,107" fill="#ffe66d" fill-opacity="0.5" stroke-opacity="0.5" />
  <polygon points="30,102.5 37.5,110 30,117.5 22.5,110" fill="#ff6b6b" fill-opacity="0.7" stroke-opacity="0.7" />
  <polygon points="55.1962,113 50,116 44.8038,113 44.8038,107 50,104 55.1962,107" fill="#ffe66d" fill-opacity="0.5" stroke-opacity="0.5" />
  <polygon points="70,102.5 77.5,110 70,117.5 62.5,110" fill="#ff6b6b" fill-opacity="0.7" stroke-opacity="0.7" />
  <polygon points="95.1962,113 90,116 84.8038,113 84.8038,107 90,104 95.1962,107" fill="#ffe66d" fill-opacity="0.5" stroke-opacity="0.5" />
  <polygon points="110,102.5 117.5,110 110,117.5 102.5,110" fill="#ff6b6b" fill-opacity="0.7" stroke-opacity="0.7" />
  <polygon points="135.196,113 130,116 124.804,113 124.804,107 130,104 135.196,107" fill="#ffe66d" fill-opacity="0.5" stroke-opacity="0.5" />
  <polygon points="150,102.5 157.5,110 150,117.5 142.5,110" fill="#ff6b6b" fill-opacity="0.7" stroke-opacity="0.7" />
  <polygon points="175.196,113 170,116 164.804,113 164.804,107 170,104 175.196,107" fill="#ffe66d" fill-opacity="0.5" stroke-opacity="0.5" />
  <polygon points="190,102.5 197.5,110 190,117.5 182.5,110" fill="#ff6b6b" fill-opacity="0.7" stroke-opacity="0.7" />
  <polygon points="215.196,113 210,116 204.804,113 204.804,107 210,104 215.196,107" fill="#ffe66d" fill-opacity="0.5" stroke-opacity="0.5" />
  <polygon points="230,102.5 237.5,110 230,117.5 222.5,110" fill="#ff6b6b" fill-opacity="0.7" stroke-opacity="0.7" />
  <polygon points="255.196,113 250,116 244.804,113 244.804,107 250,104 255.196,107" fill="#ffe66d" fill-opacity="0.5" stroke-opacity="0.5" />
  <polygon points="270,102.5 277.5,110 270,117.5 262.5,110" fill="#ff6b6b" fill-opacity="0.7" stroke-opacity="0.7" />
  <polygon points="10,122.5 17.5,130 10,137.5 2.5,130" fill="#ff6b6b" fill-opacity="0.7" stroke-opacity="0.7" />
  <polygon points="35.1962,133 30,136 24.8038,133 24.8038,127 30,124 35.1962,127" fill="#ffe66d" fill-opacity="0.5" stroke-opacity="0.5" />
  <polygon points="50,122.5 57.5,130 50,137.5 42.5,130" fill="#ff6b6b" fill-opacity="0.7" stroke-opacity="0.7" />
  <polygon points="75.1962,133 70,136 64.8038,133 64.8038,127 70,124 75.1962,127" fill="#ffe66d" fill-opacity="0.5" stroke-opacity="0.5" />
  <polygon points="90,122.5 97.5,130 90,137.5 82.5,130" fill="#ff6b6b" fill-opacity="0.7" stroke-opacity="0.7" />
  <polygon points="115.196,133 110,136 104.804,133 104.804,127 110,124 115.196,127" fill="#ffe66d" fill-opacity="0.5" stroke-opacity="0.5" />
  <polygon points="130,122.5 137.5,130 130,137.5 122.5,130" fill="#ff6b6b" fill-opacity="0.7" stroke-opacity="0.7" />
  <polygon points="155.196,133 150,136 144.804,133 144.804,127 150,124 155.196,127" fill="#ffe66d" fill-opacity="0.5" stroke-opacity="0.5" />
  <polygon points="170,122.5 177.5,130 170,137.5 162.5,130" fill="#ff6b6b" fill-opacity="0.7" stroke-opacity="0.7" />
  <polygon points="195.196,133 190,136 184.804,133 184.804,127 190,124 195.196,127" fill="#ffe66d" fill-opacity="0.5" stroke-opacity="0.5" />
  <polygon points="210,122.5 217.5,130 210,137.5 202.5,130" fill="#ff6b6b" fill-opacity="0.7" stroke-opacity="0.7" />
  <polygon points="235.196,133 230,136 224.804,133 224.804,127 230,124 235.196,127" fill="#ffe66d" fill-opacity="0.5" stroke-opacity="0.5" />
  <polygon points="250,122.5 257.5,130 250,137.5 242.5,130" fill="#ff6b6b" fill-opacity="0.7" stroke-opacity="0.7" />
  <polygon points="275.196,133 270,136 264.804,133 264.804,127 270,124 275.196,127" fill="#ffe66d" fill-opacity="0.5" stroke-opacity="0.5" />
  <polygon points="15.1962,153 10,156 4.80385,153 4.80385,147 10,144 15.1962,147" fill="#ffe66d" fill-opacity="0.5" stroke-opacity="0.5" />
  <polygon points="30,142.5 37.5,150 30,157.5 22.5,150" fill="#ff6b6b" fill-opacity="0.7" stroke-opacity="0.7" />
  <polygon points="55.1962,153 50,156 44.8038,153 44.8038,147 50,144 55.1962,147" fill="#ffe66d" fill-opacity="0.5" stroke-opacity="0.5" />
  <polygon points="70,142.5 77.5,150 70,157.5 62.5,150" fill="#ff6b6b" fill-opacity="0.7" stroke-opacity="0.7" />
  <polygon points="95.1962,153 90,156 84.8038,153 84.8038,147 90,144 95.1962,147" fill="#ffe66d" fill-opacity="0.5" stroke-opacity="0.5" />
  <polygon points="110,142.5 117.5,150 110,157.5 102.5,150" fill="#ff6b6b" fill-opacity="0.7" stroke-opacity="0.7" />
  <polygon points="135.196,153 130,156 124.804,153 124.804,147 130,144 135.196,147" fill="#ffe66d" fill-opacity="0.5" stroke-opacity="0.5" />
  <polygon points="150,142.5 157.5,150 150,157.5 142.5,150" fill="#ff6b6b" fill-opacity="0.7" stroke-opacity="0.7" />
  <polygon points="175.196,153 170,156 164.804,153 164.804,147 170,144 175.196,147" fill="#ffe66d" fill-opacity="0.5" stroke-opacity="0.5" />
  <polygon points="190,142.5 197.5,150 190,157.5 182.5,150" fill="#ff6b6b" fill-opacity="0.7" stroke-opacity="0.7" />
  <polygon points="215.196,153 210,156 204.804,153 204.804,147 210,144 215.196,147" fill="#ffe66d" fill-opacity="0.5" stroke-opacity="0.5" />
  <polygon points="230,142.5 237.5,150 230,157.5 222.5,150" fill="#ff6b6b" fill-opacity="0.7" stroke-opacity="0.7" />
  <polygon points="255.196,153 250,156 244.804,153 244.804,147 250,144 255.196,147" fill="#ffe66d" fill-opacity="0.5" stroke-opacity="0.5" />
  <polygon points="270,142.5 277.5,150 270,157.5 262.5,150" fill="#ff6b6b" fill-opacity="0.7" stroke-opacity="0.7" />
  <polygon points="10,162.5 17.5,170 10,177.5 2.5,170" fill="#ff6b6b" fill-opacity="0.7" stroke-opacity="0.7" />
  <polygon points="35.1962,173 30,176 24.8038,173 24.8038,167 30,164 35.1962,167" fill="#ffe66d" fill-opacity="0.5" stroke-opacity="0.5" />
  <polygon points="50,162.5 57.5,170 50,177.5 42.5,170" fill="#ff6b6b" fill-opacity="0.7" stroke-opacity="0.7" />
  <polygon points="75.1962,173 70,176 64.8038,173 64.8038,167 70,164 75.1962,167" fill="#ffe66d" fill-opacity="0.5" stroke-opacity="0.5" />
  <polygon points="90,162.5 97.5,170 90,177.5 82.5,170" fill="#ff6b6b" fill-opacity="0.7" stroke-opacity="0.7" />
  <polygon points="115.196,173 110,176 104.804,173 104.804,167 110,164 115.196,167" fill="#ffe66d" fill-opacity="0.5" stroke-opacity="0.5" />
  <polygon points="130,162.5 137.5,170 130,177.5 122.5,170" fill="#ff6b6b" fill-opacity="0.7" stroke-opacity="0.7" />
  <polygon points="155.196,173 150,176 144.804,173 144.804,167 150,164 155.196,167" fill="#ffe66d" fill-opacity="0.5" stroke-opacity="0.5" />
  <polygon points="170,162.5 177.5,170 170,177.5 162.5,170" fill="#ff6b6b" fill-opacity="0.7" stroke-opacity="0.7" />
  <polygon points="195.196,173 190,176 184.804,173 184.804,167 190,164 195.196,167" fill="#ffe66d" fill-opacity="0.5" stroke-opacity="0.5" />
  <polygon points="210,162.5 217.5,170 210,177.5 202.5,170" fill="#ff6b6b" fill-opacity="0.7" stroke-opacity="0.7" />
  <polygon points="235.196,173 230,176 224.804,173 224.804,167 230,164 235.196,167" fill="#ffe66d" fill-opacity="0.5" stroke-opacity="0.5" />
  <polygon points="250,162.5 257.5,170 250,177.5 242.5,170" fill="#ff6b6b" fill-opacity="0.7" stroke-opacity="0.7" />
  <polygon points="275.196,173 270,176 264.804,173 264.804,167 270,164 275.196,167" fill="#ffe66d" fill-opacity="0.5" stroke-opacity="0.5" />
  <polygon points="15.1962,193 10,196 4.80385,193 4.80385,187 10,184 15.1962,187" fill="#ffe66d" fill-opacity="0.5" stroke-opacity="0.5" />
  <polygon points="30,182.5 37.5,190 30,197.5 22.5,190" fill="#ff6b6b" fill-opacity="0.7" stroke-opacity="0.7" />
  <polygon points="55.1962,193 50,196 44.8038,193 44.8038,187 50,184 55.1962,187" fill="#ffe66d" fill-opacity="0.5" stroke-opacity="0.5" />
  <polygon points="70,182.5 77.5,190 70,197.5 62.5,190" fill="#ff6b6b" fill-opacity="0.7" stroke-opacity="0.7" />
  <polygon points="95.1962,193 90,196 84.8038,193 84.8038,187 90,184 95.1962,187" fill="#ffe66d" fill-opacity="0.5" stroke-opacity="0.5" />
  <polygon points="110,182.5 117.5,190 110,197.5 102.5,190" fill="#ff6b6b" fill-opacity="0.7" stroke-opacity="0.7" />
  <polygon points="135.196,193 130,196 124.804,193 124.804,187 130,184 135.196,187" fill="#ffe66d" fill-opacity="0.5" stroke-opacity="0.5" />
  <polygon points="150,182.5 157.5,190 150,197.5 142.5,190" fill="#ff6b6b" fill-opacity="0.7" stroke-opacity="0.7" />
  <polygon points="175.196,193 170,196 164.804,193 164.804,187 170,184 175.196,187" fill="#ffe66d" fill-opacity="0.5" stroke-opacity="0.5" />
  <polygon points="190,182.5 197.5,190 190,197.5 182.5,190" fill="#ff6b6b" fill-opacity="0.7" stroke-opacity="0.7" />
  <polygon points="215.196,193 210,196 204.804,193 204.804,187 210,184 215.196,187" fill="#ffe66d" fill-opacity="0.5" stroke-opacity="0.5" />
  <polygon points="230,182.5 237.5,190 230,197.5 222.5,190" fill="#ff6b6b" fill-opacity="0.7" stroke-opacity="0.7" />
  <polygon points="255.196,193 250,196 244.804,193 244.804,187 250,184 255.196,187" fill="#ffe66d" fill-opacity="0.5" stroke-opacity="0.5" />
  <polygon points="270,182.5 277.5,190 270,197.5 262.5,190" fill="#ff6b6b" fill-opacity="0.7" stroke-opacity="0.7" />
  <polygon points="10,202.5 17.5,210 10,217.5 2.5,210" fill="#ff6b6b" fill-opacity="0.7" stroke-opacity="0.7" />
  <polygon points="35.1962,213 30,216 24.8038,213 24.8038,207 30,204 35.1962,207" fill="#ffe66d" fill-opacity="0.5" stroke-opacity="0.5" />
  <polygon points="50,202.5 57.5,210 50,217.5 42.5,210" fill="#ff6b6b" fill-opacity="0.7" stroke-opacity="0.7" />
  <polygon points="75.1962,213 70,216 64.8038,213 64.8038,207 70,204 75.1962,207" fill="#ffe66d" fill-opacity="0.5" stroke-opacity="0.5" />
  <polygon points="90,202.5 97.5,210 90,217.5 82.5,210" fill="#ff6b6b" fill-opacity="0.7" stroke-opacity="0.7" />
  <polygon points="115.196,213 110,216 104.804,213 104.804,207 110,204 115.196,207" fill="#ffe66d" fill-opacity="0.5" stroke-opacity="0.5" />
  <polygon points="130,202.5 137.5,210 130,217.5 122.5,210" fill="#ff6b6b" fill-opacity="0.7" stroke-opacity="0.7" />
  <polygon points="155.196,213 150,216 144.804,213 144.804,207 150,204 155.196,207" fill="#ffe66d" fill-opacity="0.5" stroke-opacity="0.5" />
  <polygon points="170,202.5 177.5,210 170,217.5 162.5,210" fill="#ff6b6b" fill-opacity="0.7" stroke-opacity="0.7" />
  <polygon points="195.196,213 190,216 184.804,213 184.804,207 190,204 195.196,207" fill="#ffe66d" fill-opacity="0.5" stroke-opacity="0.5" />
  <polygon points="210,202.5 217.5,210 210,217.5 202.5,210" fill="#ff6b6b" fill-opacity="0.7" stroke-opacity="0.7" />
  <polygon points="235.196,213 230,216 224.804,213 224.804,207 230,204 235.196,207" fill="#ffe66d" fill-opacity="0.5" stroke-opacity="0.5" />
  <polygon points="250,202.5 257.5,210 250,217.5 242.5,210" fill="#ff6b6b" fill-opacity="0.7" stroke-opacity="0.7" />
  <polygon points="275.196,213 270,216 264.804,213 264.804,207 270,204 275.196,207" fill="#ffe66d" fill-opacity="0.5" stroke-opacity="0.5" />
  <polygon points="15.1962,233 10,236 4.80385,233 4.80385,227 10,224 15.1962,227" fill="#ffe66d" fill-opacity="0.5" stroke-opacity="0.5" />
  <polygon points="30,222.5 37.5,230 30,237.5 22.5,230" fill="#ff6b6b" fill-opacity="0.7" stroke-opacity="0.7" />
  <polygon points="55.1962,233 50,236 44.8038,233 44.8038,227 50,224 55.1962,227" fill="#ffe66d" fill-opacity="0.5" stroke-opacity="0.5" />
  <polygon points="70,222.5 77.5,230 70,237.5 62.5,230" fill="#ff6b6b" fill-opacity="0.7" stroke-opacity="0.7" />
  <polygon points="95.1962,233 90,236 84.8038,233 84.8038,227 90,224 95.1962,227" fill="#ffe66d" fill-opacity="0.5" stroke-opacity="0.5" />
  <polygon points="110,222.5 117.5,230 110,237.5 102.5,230" fill="#ff6b6b" fill-opacity="0.7" stroke-opacity="0.7" />
  <polygon points="135.196,233 130,236 124.804,233 124.804,227 130,224 135.196,227" fill="#ffe66d" fill-opacity="0.5" stroke-opacity="0.5" />
  <polygon points="150,222.5 157.5,230 150,237.5 142.5,230" fill="#ff6b6b" fill-opacity="0.7" stroke-opacity="0.7" />
  <polygon points="175.196,233 170,236 164.804,233 164.804,227 170,224 175.196,227" fill="#ffe66d" fill-opacity="0.5" stroke-opacity="0.5" />
  <polygon points="190,222.5 197.5,230 190,237.5 182.5,230" fill="#ff6b6b" fill-opacity="0.7" stroke-opacity="0.7" />
  <polygon points="215.196,233 210,236 204.804,233 204.804,227 210,224 215.196,227" fill="#ffe66d" fill-opacity="0.5" stroke-opacity="0.5" />
  <polygon points="230,222.5 237.5,230 230,237.5 222.5,230" fill="#ff6b6b" fill-opacity="0.7" stroke-opacity="0.7" />
  <polygon points="255.196,233 250,236 244.804,233 244.804,227 250,224 255.196,227" fill="#ffe66d" fill-opacity="0.5" stroke-opacity="0.5" />
  <polygon points="270,222.5 277.5,230 270,237.5 262.5,230" fill="#ff6b6b" fill-opacity="0.7" stroke-opacity="0.7" />
  <polygon points="10,242.5 17.5,250 10,257.5 2.5,250" fill="#ff6b6b" fill-opacity="0.7" stroke-opacity="0.7" />
  <polygon points="35.1962,253 30,256 24.8038,253 24.8038,247 30,244 35.1962,247" fill="#ffe66d" fill-opacity="0.5" stroke-opacity="0.5" />
  <polygon points="50,242.5 57.5,250 50,257.5 42.5,250" fill="#ff6b6b" fill-opacity="0.7" stroke-opacity="0.7" />
  <polygon points="75.1962,253 70,256 64.8038,253 64.8038,247 70,244 75.1962,247" fill="#ffe66d" fill-opacity="0.5" stroke-opacity="0.5" />
  <polygon points="90,242.5 97.5,250 90,257.5 82.5,250" fill="#ff6b6b" fill-opacity="0.7" stroke-opacity="0.7" />
  <polygon points="115.196,253 110,256 104.804,253 104.804,247 110,244 115.196,247" fill="#ffe66d" fill-opacity="0.5" stroke-opacity="0.5" />
  <polygon points="130,242.5 137.5,250 130,257.5 122.5,250" fill="#ff6b6b" fill-opacity="0.7" stroke-opacity="0.7" />
  <polygon points="155.196,253 150,256 144.804,253 144.804,247 150,244 155.196,247" fill="#ffe66d" fill-opacity="0.5" stroke-opacity="0.5" />
  <polygon points="170,242.5 177.5,250 170,257.5 162.5,250" fill="#ff6b6b" fill-opacity="0.7" stroke-opacity="0.7" />
  <polygon points="195.196,253 190,256 184.804,253 184.804,247 190,244 195.196,247" fill="#ffe66d" fill-opacity="0.5" stroke-opacity="0.5" />
  <polygon points="210,242.5 217.5,250 210,257.5 202.5,250" fill="#ff6b6b" fill-opacity="0.7" stroke-opacity="0.7" />
  <polygon points="235.196,253 230,256 224.804,253 224.804,247 230,244 235.196,247" fill="#ffe66d" fill-opacity="0.5" stroke-opacity="0.5" />
  <polygon points="250,242.5 257.5,250 250,257.5 242.5,250" fill="#ff6b6b" fill-opacity="0.7" stroke-opacity="0.7" />
  <polygon points="275.196,253 270,256 264.804,253 264.804,247 270,244 275.196,247" fill="#ffe66d" fill-opacity="0.5" stroke-opacity="0.5" />
  <polygon points="15.1962,273 10,276 4.80385,273 4.80385,267 10,264 15.1962,267" fill="#ffe66d" fill-opacity="0.5" stroke-opacity="0.5" />
  <polygon points="30,262.5 37.5,270 30,277.5 22.5,270" fill="#ff6b6b" fill-opacity="0.7" stroke-opacity="0.7" />
  <polygon points="55.1962,273 50,276 44.8038,273 44.8038,267 50,264 55.1962,267" fill="#ffe66d" fill-opacity="0.5" stroke-opacity="0.5" />
  <polygon points="70,262.5 77.5,270 70,277.5 62.5,270" fill="#ff6b6b" fill-opacity="0.7" stroke-opacity="0.7" />
  <polygon points="95.1962,273 90,276 84.8038,273 84.8038,267 90,264 95.1962,267" fill="#ffe66d" fill-opacity="0.5" stroke-opacity="0.5" />
  <polygon points="110,262.5 117.5,270 110,277.5 102.5,270" fill="#ff6b6b" fill-opacity="0.7" stroke-opacity="0.7" />
  <polygon points="135.196,273 130,276 124.804,273 124.804,267 130,264 135.196,267" fill="#ffe66d" fill-opacity="0.5" stroke-opacity="0.5" />
  <polygon points="150,262.5 157.5,270 150,277.5 142.5,270" fill="#ff6b6b" fill-opacity="0.7" stroke-opacity="0.7" />
  <polygon points="175.196,273 170,276 164.804,273 164.804,267 170,264 175.196,267" fill="#ffe66d" fill-opacity="0.5" stroke-opacity="0.5" />
  <polygon points="190,262.5 197.5,270 190,277.5 182.5,270" fill="#ff6b6b" fill-opacity="0.7" stroke-opacity="0.7" />
  <polygon points="215.196,273 210,276 204.804,273 204.804,267 210,264 215.196,267" fill="#ffe66d" fill-opacity="0.5" stroke-opacity="0.5" />
  <polygon points="230,262.5 237.5,270 230,277.5 222.5,270" fill="#ff6b6b" fill-opacity="0.7" stroke-opacity="0.7" />
  <polygon points="255.196,273 250,276 244.804,273 244.804,267 250,264 255.196,267" fill="#ffe66d" fill-opacity="0.5" stroke-opacity="0.5" />
  <polygon points="270,262.5 277.5,270 270,277.5 262.5,270" fill="#ff6b6b" fill-opacity="0.7" stroke-opacity="0.7" />
</svg>