<?xml version="1.0" encoding="UTF-8"?>
<svg xmlns="http://www.w3.org/2000/svg" width="320" height="240" viewBox="0 0 320 240">
  <rect width="100%" height="100%" fill="#2d1b4e" />
  <polygon points="8,5.6 10.4,8 8,10.4 5.6,8" fill="#efa00b" fill-opacity="0.4" stroke-opacity="0.4" />
  <polygon points="24,3.14315 28.8569,8 24,12.8569 19.1431,8" fill="#ff6b35" fill-opacity="0.768528" stroke-opacity="0.768528" transform="rotate(27.6396 24 8)" />
  <polygon points="40,1.7224 46.2776,8 40,14.2776 33.7224,8" fill="#ff6b35" fill-opacity="0.98164" stroke-opacity="0.98164" transform="rotate(43.623 40 8)" />
  <polygon points="56,1.93691 62.0631,8 56,14.0631 49.9369,8" fill="#ff6b35" fill-opacity="0.949464" stroke-opacity="0.949464" transform="rotate(41.2098 56 8)" />
  <polygon points="72,3.69621 76.3038,8 72,12.3038 67.6962,8" fill="#ff6b35" fill-opacity="0.685568" stroke-opacity="0.685568" transform="rotate(21.4176 72 8)" />
  <polygon points="88,4.94162 91.0584,8 88,11.0584 84.9416,8" fill="#efa00b" fill-opacity="0.498757" stroke-opacity="0.498757" transform="rotate(352.593 88 8)" />
  <polygon points="104,2.6571 109.343,8 104,13.3429 98.6571,8" fill="#efa00b" fill-opacity="0.841434" stroke-opacity="0.841434" transform="rotate(326.892 104 8)" />
  <polygon points="120,1.61366 126.386,8 120,14.3863 113.614,8" fill="#efa00b" fill-opacity="0.997951" stroke-opacity="0.997951" transform="rotate(315.154 120 8)" />
  <polygon points="136,2.25133 141.749,8 136,13.7487 130.251,8" fill="#efa00b" fill-opacity="0.9023" stroke-opacity="0.9023" transform="rotate(322.328 136 8)" />
  <polygon points="152,4.3012 155.699,8 152,11.6988 148.301,8" fill="#efa00b" fill-opacity="0.59482" stroke-opacity="0.59482" transform="rotate(345.389 152 8)" />
  <polygon points="168,4.3012 171.699,8 168,11.6988 164.301,8" fill="#ff6b35" fill-opacity="0.59482" stroke-opacity="0.59482" transform="rotate(14.6115 168 8)" />
  <polygon points="184,2.25133 189.749,8 184,13.7487 178.251,8" fill="#ff6b35" fill-opacity="0.9023" stroke-opacity="0.9023" transform="rotate(37.6725 184 8)" />
  <polygon points="200,1.61366 206.386,8 200,14.3863 193.614,8" fill="#ff6b35" fill-opacity="0.997951" stroke-opacity="0.997951" transform="rotate(44.8463 200 8)" />
  <polygon points="216,2.6571 221.343,8 216,13.3429 210.657,8" fill="#ff6b35" fill-opacity="0.841434" stroke-opacity="0.841434" transform="rotate(33.1076 216 8)" />
  <polygon points="232,4.94162 235.058,8 232,11.0584 228.942,8" fill="#ff6b35" fill-opacity="0.498757" stroke-opacity="0.498757" transform="rotate(7.40676 232 8)" />
  <polygon points="248,3.69621 252.304,8 248,12.3038 243.696,8" fill="#efa00b" fill-opacity="0.685568" stroke-opacity="0.685568" transform="rotate(338.582 248 8)" />
  <polygon points="264,1.93691 270.063,8 264,14.0631 257.937,8" fill="#efa00b" fill-opacity="0.949464" stroke-opacity="0.949464" transform="rotate(318.79 264 8)" />
  <polygon points="280,1.7224 286.278,8 280,14.2776 273.722,8" fill="#efa00b" fill-opacity="0.98164" stroke-opacity="0.98164" transform="rotate(316.377 280 8)" />
  <polygon points="296,3.14315 300.857,8 296,12.8569 291.143,8" fill="#efa00b" fill-opacity="0.768528" stroke-opacity="0.768528" transform="rotate(332.36 296 8)" />
  <polygon points="312,5.6 314.4,8 312,10.4 309.6,8" fill="#efa00b" fill-opacity="0.4" stroke-opacity="0.4" transform="rotate(360 312 8)" />
  <polygon points="8,19.8645 12.1355,24 8,28.1355 3.86447,24" fill="#ff6b35" fill-opacity="0.66033" stroke-opacity="0.66033" transform="rotate(19.5248 8 24)" />
  <polygon points="24,18.0169 29.9831,24 24,29.9831 18.0169,24" fill="#ff6b35" fill-opacity="0.937469" stroke-opacity="0.937469" transform="rotate(40.3102 24 24)" />
  <polygon points="40,17.6804 46.3196,24 40,30.3196 33.6804,24" fill="#ff6b35" fill-opacity="0.987947" stroke-opacity="0.987947" transform="rotate(44.096 40 24)" />
  <polygon points="56,18.9968 61.0032,24 56,29.0032 50.9968,24" fill="#ff6b35" fill-opacity="0.790476" stroke-opacity="0.790476" transform="rotate(29.2857 56 24)" />
  <polygon points="72,21.4111 74.5889,24 72,26.5889 69.4111,24" fill="#ff6b35" fill-opacity="0.428335" stroke-opacity="0.428335" transform="rotate(2.1251 72 24)" />
  <polygon points="88,19.295 92.705,24 88,28.705 83.295,24" fill="#efa00b" fill-opacity="0.745756" stroke-opacity="0.745756" transform="rotate(334.068 88 24)" />
  <polygon points="104,17.7731 110.227,24 104,30.2269 97.7731,24" fill="#efa00b" fill-opacity="0.974035" stroke-opacity="0.974035" transform="rotate(316.947 104 24)" />
  <polygon points="120,17.8651 126.135,24 120,30.1349 113.865,24" fill="#efa00b" fill-opacity="0.960233" stroke-opacity="0.960233" transform="rotate(317.983 120 24)" />
  <polygon points="136,19.5322 140.468,24 136,28.4678 131.532,24" fill="#efa00b" fill-opacity="0.710169" stroke-opacity="0.710169" transform="rotate(336.737 136 24)" />
  <polygon points="152,21.1287 154.871,24 152,26.8713 149.129,24" fill="#ff6b35" fill-opacity="0.470698" stroke-opacity="0.470698" transform="rotate(5.30238 152 24)" />
  <polygon points="168,18.7883 173.212,24 168,29.2117 162.788,24" fill="#ff6b35" fill-opacity="0.821751" stroke-opacity="0.821751" transform="rotate(31.6313 168 24)" />
  <polygon points="184,17.6337 190.366,24 184,30.3663 177.634,24" fill="#ff6b35" fill-opacity="0.994944" stroke-opacity="0.994944" transform="rotate(44.6208 184 24)" />
  <polygon points="200,18.1518 205.848,24 200,29.8482 194.152,24" fill="#ff6b35" fill-opacity="0.917237" stroke-opacity="0.917237" transform="rotate(38.7928 200 24)" />
  <polygon points="216,20.124 219.876,24 216,27.876 212.124,24" fill="#ff6b35" fill-opacity="0.621402" stroke-opacity="0.621402" transform="rotate(16.6051 216 24)" />
  <polygon points="232,20.4813 235.519,24 232,27.5187 228.481,24" fill="#efa00b" fill-opacity="0.567803" stroke-opacity="0.567803" transform="rotate(347.415 232 24)" />
  <polygon points="248,18.3584 253.642,24 248,29.6416 242.358,24" fill="#efa00b" fill-opacity="0.886242" stroke-opacity="0.886242" transform="rotate(323.532 248 24)" />
  <polygon points="264,17.6025 270.397,24 264,30.3975 257.603,24" fill="#efa00b" fill-opacity="0.999623" stroke-opacity="0.999623" transform="rotate(315.028 264 24)" />
  <polygon points="280,18.5325 285.468,24 280,29.4675 274.532,24" fill="#efa00b" fill-opacity="0.860132" stroke-opacity="0.860132" transform="rotate(325.49 280 24)" />
  <polygon points="296,20.756 299.244,24 296,27.244 292.756,24" fill="#efa00b" fill-opacity="0.526595" stroke-opacity="0.526595" transform="rotate(350.505 296 24)" />
  <polygon points="312,19.8645 316.136,24 312,28.1355 307.864,24" fill="#ff6b35" fill-opacity="0.66033" stroke-opacity="0.66033" transform="rotate(19.5248 312 24)" />
  <polygon points="8,34.4727 13.5273,40 8,45.5273 2.47267,40" fill="#ff6b35" fill-opacity="0.869099" stroke-opacity="0.869099" transform="rotate(35.1824 8 40)" />
  <polygon points="24,33.6003 30.3997,40 24,46.3997 17.6003,40" fill="#ff6b35" fill-opacity="0.999958" stroke-opacity="0.999958" transform="rotate(44.9969 24 40)" />
  <polygon points="40,34.4146 45.5854,40 40,45.5854 34.4146,40" fill="#ff6b35" fill-opacity="0.877804" stroke-opacity="0.877804" transform="rotate(35.8353 40 40)" />
  <polygon points="56,36.5723 59.4277,40 56,43.4277 52.5723,40" fill="#ff6b35" fill-opacity="0.55415" stroke-opacity="0.55415" transform="rotate(11.5613 56 40)" />
  <polygon points="72,36.0366 75.9634,40 72,43.9634 68.0366,40" fill="#efa00b" fill-opacity="0.634511" stroke-opacity="0.634511" transform="rotate(342.412 72 40)" />
  <polygon points="88,34.1048 93.8952,40 88,45.8952 82.1048,40" fill="#efa00b" fill-opacity="0.924275" stroke-opacity="0.924275" transform="rotate(320.679 88 40)" />
  <polygon points="104,33.6471 110.353,40 104,46.3529 97.6471,40" fill="#efa00b" fill-opacity="0.992942" stroke-opacity="0.992942" transform="rotate(315.529 104 40)" />
  <polygon points="120,34.8563 125.144,40 120,45.1437 114.856,40" fill="#efa00b" fill-opacity="0.811554" stroke-opacity="0.811554" transform="rotate(329.133 120 40)" />
  <polygon points="136,37.2226 138.777,40 136,42.7774 133.223,40" fill="#efa00b" fill-opacity="0.456606" stroke-opacity="0.456606" transform="rotate(355.755 136 40)" />
  <polygon points="152,35.4519 156.548,40 152,44.5481 147.452,40" fill="#ff6b35" fill-opacity="0.722214" stroke-opacity="0.722214" transform="rotate(24.166 152 40)" />
  <polygon points="168,33.8323 174.168,40 168,46.1677 161.832,40" fill="#ff6b35" fill-opacity="0.96515" stroke-opacity="0.96515" transform="rotate(42.3862 168 40)" />
  <polygon points="184,33.8017 190.198,40 184,46.1983 177.802,40" fill="#ff6b35" fill-opacity="0.969752" stroke-opacity="0.969752" transform="rotate(42.7314 184 40)" />
  <polygon points="200,35.3728 204.627,40 200,44.6272 195.373,40" fill="#ff6b35" fill-opacity="0.734078" stroke-opacity="0.734078" transform="rotate(25.0559 200 40)" />
  <polygon points="216,37.3168 218.683,40 216,42.6832 213.317,40" fill="#efa00b" fill-opacity="0.442482" stroke-opacity="0.442482" transform="rotate(356.814 216 40)" />
  <polygon points="232,34.9258 237.074,40 232,45.0742 226.926,40" fill="#efa00b" fill-opacity="0.801127" stroke-opacity="0.801127" transform="rotate(329.915 232 40)" />
  <polygon points="248,33.6626 254.337,40 248,46.3374 241.663,40" fill="#efa00b" fill-opacity="0.990609" stroke-opacity="0.990609" transform="rotate(315.704 248 40)" />
  <polygon points="264,34.0599 269.94,40 264,45.9401 258.06,40" fill="#efa00b" fill-opacity="0.93102" stroke-opacity="0.93102" transform="rotate(320.173 264 40)" />
  <polygon points="280,35.9501 284.05,40 280,44.0499 275.95,40" fill="#efa00b" fill-opacity="0.64749" stroke-opacity="0.64749" transform="rotate(341.438 280 40)" />
  <polygon points="296,36.6639 299.336,40 296,43.3361 292.664,40" fill="#ff6b35" fill-opacity="0.540412" stroke-opacity="0.540412" transform="rotate(10.5309 296 40)" />
  <polygon points="312,34.4727 317.527,40 312,45.5273 306.473,40" fill="#ff6b35" fill-opacity="0.869099" stroke-opacity="0.869099" transform="rotate(35.1824 312 40)" />
  <polygon points="8,49.7003 14.2997,56 8,62.2997 1.70029,56" fill="#ff6b35" fill-opacity="0.984957" stroke-opacity="0.984957" transform="rotate(43.8718 8 56)" />
  <polygon points="24,49.9759 30.0241,56 24,62.0241 17.9759,56" fill="#ff6b35" fill-opacity="0.943618" stroke-opacity="0.943618" transform="rotate(40.7714 24 56)" />
  <polygon points="40,51.7798 44.2202,56 40,60.2202 35.7798,56" fill="#ff6b35" fill-opacity="0.673026" stroke-opacity="0.673026" transform="rotate(20.4769 40 56)" />
  <polygon points="56,52.8486 59.1514,56 56,59.1514 52.8486,56" fill="#efa00b" fill-opacity="0.512707" stroke-opacity="0.512707" transform="rotate(351.547 56 56)" />
  <polygon points="72,50.5939 77.4061,56 72,61.4061 66.5939,56" fill="#efa00b" fill-opacity="0.850909" stroke-opacity="0.850909" transform="rotate(326.182 72 56)" />
  <polygon points="88,49.607 94.393,56 88,62.393 81.607,56" fill="#efa00b" fill-opacity="0.998954" stroke-opacity="0.998954" transform="rotate(315.078 88 56)" />
  <polygon points="104,50.3039 109.696,56 104,61.6961 98.3039,56" fill="#efa00b" fill-opacity="0.894409" stroke-opacity="0.894409" transform="rotate(322.919 104 56)" />
  <polygon points="120,52.3909 123.609,56 120,59.6091 116.391,56" fill="#efa00b" fill-opacity="0.581362" stroke-opacity="0.581362" transform="rotate(346.398 120 56)" />
  <polygon points="136,52.2122 139.788,56 136,59.7878 132.212,56" fill="#ff6b35" fill-opacity="0.608169" stroke-opacity="0.608169" transform="rotate(15.6127 136 56)" />
  <polygon points="152,50.2006 157.799,56 152,61.7994 146.201,56" fill="#ff6b35" fill-opacity="0.909911" stroke-opacity="0.909911" transform="rotate(38.2433 152 56)" />
  <polygon points="168,49.6226 174.377,56 168,62.3774 161.623,56" fill="#ff6b35" fill-opacity="0.996614" stroke-opacity="0.996614" transform="rotate(44.746 168 56)" />
  <polygon points="184,50.7219 189.278,56 184,61.2781 178.722,56" fill="#ff6b35" fill-opacity="0.831713" stroke-opacity="0.831713" transform="rotate(32.3785 184 56)" />
  <polygon points="200,53.035 202.965,56 200,58.965 197.035,56" fill="#ff6b35" fill-opacity="0.484751" stroke-opacity="0.484751" transform="rotate(6.35634 200 56)" />
  <polygon points="216,51.6137 220.386,56 216,60.3863 211.614,56" fill="#efa00b" fill-opacity="0.697952" stroke-opacity="0.697952" transform="rotate(337.654 216 56)" />
  <polygon points="232,49.9 238.1,56 232,62.1 225.9,56" fill="#efa00b" fill-opacity="0.955003" stroke-opacity="0.955003" transform="rotate(318.375 232 56)" />
  <polygon points="248,49.7467 254.253,56 248,62.2533 241.747,56" fill="#efa00b" fill-opacity="0.977999" stroke-opacity="0.977999" transform="rotate(316.65 248 56)" />
  <polygon points="264,51.2184 268.782,56 264,60.7816 259.218,56" fill="#efa00b" fill-opacity="0.757242" stroke-opacity="0.757242" transform="rotate(333.207 264 56)" />
  <polygon points="280,53.5055 282.494,56 280,58.4945 277.506,56" fill="#ff6b35" fill-opacity="0.414171" stroke-opacity="0.414171" transform="rotate(1.06285 280 56)" />
  <polygon points="296,51.0693 300.931,56 296,60.9307 291.069,56" fill="#ff6b35" fill-opacity="0.779608" stroke-opacity="0.779608" transform="rotate(28.4706 296 56)" />
  <polygon points="312,49.7003 318.3,56 312,62.2997 305.7,56" fill="#ff6b35" fill-opacity="0.984957" stroke-opacity="0.984957" transform="rotate(43.8718 312 56)" />
  <polygon points="8,65.7003 14.2997,72 8,78.2997 1.70029,72" fill="#ff6b35" fill-opacity="0.984957" stroke-opacity="0.984957" transform="rotate(43.8718 8 72)" />
  <polygon points="24,67.0693 28.9307,72 24,76.9307 19.0693,72" fill="#ff6b35" fill-opacity="0.779608" stroke-opacity="0.779608" transform="rotate(28.4706 24 72)" />
  <polygon points="40,69.5055 42.4945,72 40,74.4945 37.5055,72" fill="#ff6b35" fill-opacity="0.414171" stroke-opacity="0.414171" transform="rotate(1.06285 40 72)" />
  <polygon points="56,67.2184 60.7816,72 56,76.7816 51.2184,72" fill="#efa00b" fill-opacity="0.757242" stroke-opacity="0.757242" transform="rotate(333.207 56 72)" />
  <polygon points="72,65.7467 78.2533,72 72,78.2533 65.7467,72" fill="#efa00b" fill-opacity="0.977999" stroke-opacity="0.977999" transform="rotate(316.65 72 72)" />
  <polygon points="88,65.9 94.1,72 88,78.1 81.9,72" fill="#efa00b" fill-opacity="0.955003" stroke-opacity="0.955003" transform="rotate(318.375 88 72)" />
  <polygon points="104,67.6137 108.386,72 104,76.3863 99.6137,72" fill="#efa00b" fill-opacity="0.697952" stroke-opacity="0.697952" transform="rotate(337.654 104 72)" />
  <polygon points="120,69.035 122.965,72 120,74.965 117.035,72" fill="#ff6b35" fill-opacity="0.484751" stroke-opacity="0.484751" transform="rotate(6.35634 120 72)" />
  <polygon points="136,66.7219 141.278,72 136,77.2781 130.722,72" fill="#ff6b35" fill-opacity="0.831713" stroke-opacity="0.831713" transform="rotate(32.3785 136 72)" />
  <polygon points="152,65.6226 158.377,72 152,78.3774 145.623,72" fill="#ff6b35" fill-opacity="0.996614" stroke-opacity="0.996614" transform="rotate(44.746 152 72)" />
  <polygon points="168,66.2006 173.799,72 168,77.7994 162.201,72" fill="#ff6b35" fill-opacity="0.909911" stroke-opacity="0.909911" transform="rotate(38.2433 168 72)" />
  <polygon points="184,68.2122 187.788,72 184,75.7878 180.212,72" fill="#ff6b35" fill-opacity="0.608169" stroke-opacity="0.608169" transform="rotate(15.6127 184 72)" />
  <polygon points="200,68.3909 203.609,72 200,75.6091 196.391,72" fill="#efa00b" fill-opacity="0.581362" stroke-opacity="0.581362" transform="rotate(346.398 200 72)" />
  <polygon points="216,66.3039 221.696,72 216,77.6961 210.304,72" fill="#efa00b" fill-opacity="0.894409" stroke-opacity="0.894409" transform="rotate(322.919 216 72)" />
  <polygon points="232,65.607 238.393,72 232,78.393 225.607,72" fill="#efa00b" fill-opacity="0.998954" stroke-opacity="0.998954" transform="rotate(315.078 232 72)" />
  <polygon points="248,66.5939 253.406,72 248,77.4061 242.594,72" fill="#efa00b" fill-opacity="0.850909" stroke-opacity="0.850909" transform="rotate(326.182 248 72)" />
  <polygon points="264,68.8486 267.151,72 264,75.1514 260.849,72" fill="#efa00b" fill-opacity="0.512707" stroke-opacity="0.512707" transform="rotate(351.547 264 72)" />
  <polygon points="280,67.7798 284.22,72 280,76.2202 275.78,72" fill="#ff6b35" fill-opacity="0.673026" stroke-opacity="0.673026" transform="rotate(20.4769 280 72)" />
  <polygon points="296,65.9759 302.024,72 296,78.0241 289.976,72" fill="#ff6b35" fill-opacity="0.943618" stroke-opacity="0.943618" transform="rotate(40.7714 296 72)" />
  <polygon points="312,65.7003 318.3,72 312,78.2997 305.7,72" fill="#ff6b35" fill-opacity="0.984957" stroke-opacity="0.984957" transform="rotate(43.8718 312 72)" />
  <polygon points="8,82.4727 13.5273,88 8,93.5273 2.47267,88" fill="#ff6b35" fill-opacity="0.869099" stroke-opacity="0.869099" transform="rotate(35.1824 8 88)" />
  <polygon points="24,84.6639 27.3361,88 24,91.3361 20.6639,88" fill="#ff6b35" fill-opacity="0.540412" stroke-opacity="0.540412" transform="rotate(10.5309 24 88)" />
  <polygon points="40,83.9501 44.0499,88 40,92.0499 35.9501,88" fill="#efa00b" fill-opacity="0.64749" stroke-opacity="0.64749" transform="rotate(341.438 40 88)" />
  <polygon points="56,82.0599 61.9401,88 56,93.9401 50.0599,88" fill="#efa00b" fill-opacity="0.93102" stroke-opacity="0.93102" transform="rotate(320.173 56 88)" />
  <polygon points="72,81.6626 78.3374,88 72,94.3374 65.6626,88" fill="#efa00b" fill-opacity="0.990609" stroke-opacity="0.990609" transform="rotate(315.704 72 88)" />
  <polygon points="88,82.9258 93.0742,88 88,93.0742 82.9258,88" fill="#efa00b" fill-opacity="0.801127" stroke-opacity="0.801127" transform="rotate(329.915 88 88)" />
  <polygon points="104,85.3168 106.683,88 104,90.6832 101.317,88" fill="#efa00b" fill-opacity="0.442482" stroke-opacity="0.442482" transform="rotate(356.814 104 88)" />
  <polygon points="120,83.3728 124.627,88 120,92.6272 115.373,88" fill="#ff6b35" fill-opacity="0.734078" stroke-opacity="0.734078" transform="rotate(25.0559 120 88)" />
  <polygon points="136,81.8017 142.198,88 136,94.1983 129.802,88" fill="#ff6b35" fill-opacity="0.969752" stroke-opacity="0.969752" transform="rotate(42.7314 136 88)" />
  <polygon points="152,81.8323 158.168,88 152,94.1677 145.832,88" fill="#ff6b35" fill-opacity="0.96515" stroke-opacity="0.96515" transform="rotate(42.3862 152 88)" />
  <polygon points="168,83.4519 172.548,88 168,92.5481 163.452,88" fill="#ff6b35" fill-opacity="0.722214" stroke-opacity="0.722214" transform="rotate(24.166 168 88)" />
  <polygon points="184,85.2226 186.777,88 184,90.7774 181.223,88" fill="#efa00b" fill-opacity="0.456606" stroke-opacity="0.456606" transform="rotate(355.755 184 88)" />
  <polygon points="200,82.8563 205.144,88 200,93.1437 194.856,88" fill="#efa00b" fill-opacity="0.811554" stroke-opacity="0.811554" transform="rotate(329.133 200 88)" />
  <polygon points="216,81.6471 222.353,88 216,94.3529 209.647,88" fill="#efa00b" fill-opacity="0.992942" stroke-opacity="0.992942" transform="rotate(315.529 216 88)" />
  <polygon points="232,82.1048 237.895,88 232,93.8952 226.105,88" fill="#efa00b" fill-opacity="0.924275" stroke-opacity="0.924275" transform="rotate(320.679 232 88)" />
  <polygon points="248,84.0366 251.963,88 248,91.9634 244.037,88" fill="#efa00b" fill-opacity="0.634511" stroke-opacity="0.634511" transform="rotate(342.412 248 88)" />
  <polygon points="264,84.5723 267.428,88 264,91.4277 260.572,88" fill="#ff6b35" fill-opacity="0.55415" stroke-opacity="0.55415" transform="rotate(11.5613 264 88)" />
  <polygon points="280,82.4146 285.585,88 280,93.5854 274.415,88" fill="#ff6b35" fill-opacity="0.877804" stroke-opacity="0.877804" transform="rotate(35.8353 280 88)" />
  <polygon points="296,81.6003 302.4,88 296,94.3997 289.6,88" fill="#ff6b35" fill-opacity="0.999958" stroke-opacity="0.999958" transform="rotate(44.9969 296 88)" />
  <polygon points="312,82.4727 317.527,88 312,93.5273 306.473,88" fill="#ff6b35" fill-opacity="0.869099" stroke-opacity="0.869099" transform="rotate(35.1824 312 88)" />
  <polygon points="8,99.8645 12.1355,104 8,108.136 3.86447,104" fill="#ff6b35" fill-opacity="0.66033" stroke-opacity="0.66033" transform="rotate(19.5248 8 104)" />
  <polygon points="24,100.756 27.244,104 24,107.244 20.756,104" fill="#efa00b" fill-opacity="0.526595" stroke-opacity="0.526595" transform="rotate(350.505 24 104)" />
  <polygon points="40,98.5325 45.4675,104 40,109.468 34.5325,104" fill="#efa00b" fill-opacity="0.860132" stroke-opacity="0.860132" transform="rotate(325.49 40 104)" />
  <polygon points="56,97.6025 62.3975,104 56,110.397 49.6025,104" fill="#efa00b" fill-opacity="0.999623" stroke-opacity="0.999623" transform="rotate(315.028 56 104)" />
  <polygon points="72,98.3584 77.6416,104 72,109.642 66.3584,104" fill="#efa00b" fill-opacity="0.886242" stroke-opacity="0.886242" transform="rotate(323.532 72 104)" />
  <polygon points="88,100.481 91.5187,104 88,107.519 84.4813,104" fill="#efa00b" fill-opacity="0.567803" stroke-opacity="0.567803" transform="rotate(347.415 88 104)" />
  <polygon points="104,100.124 107.876,104 104,107.876 100.124,104" fill="#ff6b35" fill-opacity="0.621402" stroke-opacity="0.621402" transform="rotate(16.6051 104 104)" />
  <polygon points="120,98.1518 125.848,104 120,109.848 114.152,104" fill="#ff6b35" fill-opacity="0.917237" stroke-opacity="0.917237" transform="rotate(38.7928 120 104)" />
  <polygon points="136,97.6337 142.366,104 136,110.366 129.634,104" fill="#ff6b35" fill-opacity="0.994944" stroke-opacity="0.994944" transform="rotate(44.6208 136 104)" />
  <polygon points="152,98.7883 157.212,104 152,109.212 146.788,104" fill="#ff6b35" fill-opacity="0.821751" stroke-opacity="0.821751" transform="rotate(31.6313 152 104)" />
  <polygon points="168,101.129 170.871,104 168,106.871 165.129,104" fill="#ff6b35" fill-opacity="0.470698" stroke-opacity="0.470698" transform="rotate(5.30238 168 104)" />
  <polygon points="184,99.5322 188.468,104 184,108.468 179.532,104" fill="#efa00b" fill-opacity="0.710169" stroke-opacity="0.710169" transform="rotate(336.737 184 104)" />
  <polygon points="200,97.8651 206.135,104 200,110.135 193.865,104" fill="#efa00b" fill-opacity="0.960233" stroke-opacity="0.960233" transform="rotate(317.983 200 104)" />
  <polygon points="216,97.7731 222.227,104 216,110.227 209.773,104" fill="#efa00b" fill-opacity="0.974035" stroke-opacity="0.974035" transform="rotate(316.947 216 104)" />
  <polygon points="232,99.295 236.705,104 232,108.705 227.295,104" fill="#efa00b" fill-opacity="0.745756" stroke-opacity="0.745756" transform="rotate(334.068 232 104)" />
  <polygon points="248,101.411 250.589,104 248,106.589 245.411,104" fill="#ff6b35" fill-opacity="0.428335" stroke-opacity="0.428335" transform="rotate(2.1251 248 104)" />
  <polygon points="264,98.9968 269.003,104 264,109.003 258.997,104" fill="#ff6b35" fill-opacity="0.790476" stroke-opacity="0.790476" transform="rotate(29.2857 264 104)" />
  <polygon points="280,97.6804 286.32,104 280,110.32 273.68,104" fill="#ff6b35" fill-opacity="0.987947" stroke-opacity="0.987947" transform="rotate(44.096 280 104)" />
  <polygon points="296,98.0169 301.983,104 296,109.983 290.017,104" fill="#ff6b35" fill-opacity="0.937469" stroke-opacity="0.937469" transform="rotate(40.3102 296 104)" />
  <polygon points="312,99.8645 316.136,104 312,108.136 307.864,104" fill="#ff6b35" fill-opacity="0.66033" stroke-opacity="0.66033" transform="rotate(19.5248 312 104)" />
  <polygon points="8,117.6 10.4,120 8,122.4 5.6,120" fill="#ff6b35" fill-opacity="0.4" stroke-opacity="0.4" transform="rotate(0 8 120)" />
  <polygon points="24,115.143 28.8569,120 24,124.857 19.1431,120" fill="#efa00b" fill-opacity="0.768528" stroke-opacity="0.768528" transform="rotate(332.36 24 120)" />
  <polygon points="40,113.722 46.2776,120 40,126.278 33.7224,120" fill="#efa00b" fill-opacity="0.98164" stroke-opacity="0.98164" transform="rotate(316.377 40 120)" />
  <polygon points="56,113.937 62.0631,120 56,126.063 49.9369,120" fill="#efa00b" fill-opacity="0.949464" stroke-opacity="0.949464" transform="rotate(318.79 56 120)" />
  <polygon points="72,115.696 76.3038,120 72,124.304 67.6962,120" fill="#efa00b" fill-opacity="0.685568" stroke-opacity="0.685568" transform="rotate(338.582 72 120)" />
  <polygon points="88,116.942 91.0584,120 88,123.058 84.9416,120" fill="#ff6b35" fill-opacity="0.498757" stroke-opacity="0.498757" transform="rotate(7.40676 88 120)" />
  <polygon points="104,114.657 109.343,120 104,125.343 98.6571,120" fill="#ff6b35" fill-opacity="0.841434" stroke-opacity="0.841434" transform="rotate(33.1076 104 120)" />
  <polygon points="120,113.614 126.386,120 120,126.386 113.614,120" fill="#ff6b35" fill-opacity="0.997951" stroke-opacity="0.997951" transform="rotate(44.8463 120 120)" />
  <polygon points="136,114.251 141.749,120 136,125.749 130.251,120" fill="#ff6b35" fill-opacity="0.9023" stroke-opacity="0.9023" transform="rotate(37.6725 136 120)" />
  <polygon points="152,116.301 155.699,120 152,123.699 148.301,120" fill="#ff6b35" fill-opacity="0.59482" stroke-opacity="0.59482" transform="rotate(14.6115 152 120)" />
  <polygon points="168,116.301 171.699,120 168,123.699 164.301,120" fill="#efa00b" fill-opacity="0.59482" stroke-opacity="0.59482" transform="rotate(345.389 168 120)" />
  <polygon points="184,114.251 189.749,120 184,125.749 178.251,120" fill="#efa00b" fill-opacity="0.9023" stroke-opacity="0.9023" transform="rotate(322.328 184 120)" />
  <polygon points="200,113.614 206.386,120 200,126.386 193.614,120" fill="#efa00b" fill-opacity="0.997951" stroke-opacity="0.997951" transform="rotate(315.154 200 120)" />
  <polygon points="216,114.657 221.343,120 216,125.343 210.657,120" fill="#efa00b" fill-opacity="0.841434" stroke-opacity="0.841434" transform="rotate(326.892 216 120)" />
  <polygon points="232,116.942 235.058,120 232,123.058 228.942,120" fill="#efa00b" fill-opacity="0.498757" stroke-opacity="0.498757" transform="rotate(352.593 232 120)" />
  <polygon points="248,115.696 252.304,120 248,124.304 243.696,120" fill="#ff6b35" fill-opacity="0.685568" stroke-opacity="0.685568" transform="rotate(21.4176 248 120)" />
  <polygon points="264,113.937 270.063,120 264,126.063 257.937,120" fill="#ff6b35" fill-opacity="0.949464" stroke-opacity="0.949464" transform="rotate(41.2098 264 120)" />
  <polygon points="280,113.722 286.278,120 280,126.278 273.722,120" fill="#ff6b35" fill-opacity="0.98164" stroke-opacity="0.98164" transform="rotate(43.623 280 120)" />
  <polygon points="296,115.143 300.857,120 296,124.857 291.143,120" fill="#ff6b35" fill-opacity="0.768528" stroke-opacity="0.768528" transform="rotate(27.6396 296 120)" />
  <polygon points="312,117.6 314.4,120 312,122.4 309.6,120" fill="#ff6b35" fill-opacity="0.4" stroke-opacity="0.4" transform="rotate(0 312 120)" />
  <polygon points="8,131.864 12.1355,136 8,140.136 3.86447,136" fill="#efa00b" fill-opacity="0.66033" stroke-opacity="0.66033" transform="rotate(340.475 8 136)" />
  <polygon points="24,130.017 29.9831,136 24,141.983 18.0169,136" fill="#efa00b" fill-opacity="0.937469" stroke-opacity="0.937469" transform="rotate(319.69 24 136)" />
  <polygon points="40,129.68 46.3196,136 40,142.32 33.6804,136" fill="#efa00b" fill-opacity="0.987947" stroke-opacity="0.987947" transform="rotate(315.904 40 136)" />
  <polygon points="56,130.997 61.0032,136 56,141.003 50.9968,136" fill="#efa00b" fill-opacity="0.790476" stroke-opacity="0.790476" transform="rotate(330.714 56 136)" />
  <polygon points="72,133.411 74.5889,136 72,138.589 69.4111,136" fill="#efa00b" fill-opacity="0.428335" stroke-opacity="0.428335" transform="rotate(357.875 72 136)" />
  <polygon points="88,131.295 92.705,136 88,140.705 83.295,136" fill="#ff6b35" fill-opacity="0.745756" stroke-opacity="0.745756" transform="rotate(25.9317 88 136)" />
  <polygon points="104,129.773 110.227,136 104,142.227 97.7731,136" fill="#ff6b35" fill-opacity="0.974035" stroke-opacity="0.974035" transform="rotate(43.0527 104 136)" />
  <polygon points="120,129.865 126.135,136 120,142.135 113.865,136" fill="#ff6b35" fill-opacity="0.960233" stroke-opacity="0.960233" transform="rotate(42.0175 120 136)" />
  <polygon points="136,131.532 140.468,136 136,140.468 131.532,136" fill="#ff6b35" fill-opacity="0.710169" stroke-opacity="0.710169" transform="rotate(23.2627 136 136)" />
  <polygon points="152,133.129 154.871,136 152,138.871 149.129,136" fill="#efa00b" fill-opacity="0.470698" stroke-opacity="0.470698" transform="rotate(354.698 152 136)" />
  <polygon points="168,130.788 173.212,136 168,141.212 162.788,136" fill="#efa00b" fill-opacity="0.821751" stroke-opacity="0.821751" transform="rotate(328.369 168 136)" />
  <polygon points="184,129.634 190.366,136 184,142.366 177.634,136" fill="#efa00b" fill-opacity="0.994944" stroke-opacity="0.994944" transform="rotate(315.379 184 136)" />
  <polygon points="200,130.152 205.848,136 200,141.848 194.152,136" fill="#efa00b" fill-opacity="0.917237" stroke-opacity="0.917237" transform="rotate(321.207 200 136)" />
  <polygon points="216,132.124 219.876,136 216,139.876 212.124,136" fill="#efa00b" fill-opacity="0.621402" stroke-opacity="0.621402" transform="rotate(343.395 216 136)" />
  <polygon points="232,132.481 235.519,136 232,139.519 228.481,136" fill="#ff6b35" fill-opacity="0.567803" stroke-opacity="0.567803" transform="rotate(12.5852 232 136)" />
  <polygon points="248,130.358 253.642,136 248,141.642 242.358,136" fill="#ff6b35" fill-opacity="0.886242" stroke-opacity="0.886242" transform="rotate(36.4681 248 136)" />
  <polygon points="264,129.603 270.397,136 264,142.397 257.603,136" fill="#ff6b35" fill-opacity="0.999623" stroke-opacity="0.999623" transform="rotate(44.9718 264 136)" />
  <polygon points="280,130.532 285.468,136 280,141.468 274.532,136" fill="#ff6b35" fill-opacity="0.860132" stroke-opacity="0.860132" transform="rotate(34.5099 280 136)" />
  <polygon points="296,132.756 299.244,136 296,139.244 292.756,136" fill="#ff6b35" fill-opacity="0.526595" stroke-opacity="0.526595" transform="rotate(9.49461 296 136)" />
  <polygon points="312,131.864 316.136,136 312,140.136 307.864,136" fill="#efa00b" fill-opacity="0.66033" stroke-opacity="0.66033" transform="rotate(340.475 312 136)" />
  <polygon points="8,146.473 13.5273,152 8,157.527 2.47267,152" fill="#efa00b" fill-opacity="0.869099" stroke-opacity="0.869099" transform="rotate(324.818 8 152)" />
  <polygon points="24,145.6 30.3997,152 24,158.4 17.6003,152" fill="#efa00b" fill-opacity="0.999958" stroke-opacity="0.999958" transform="rotate(315.003 24 152)" />
  <polygon points="40,146.415 45.5854,152 40,157.585 34.4146,152" fill="#efa00b" fill-opacity="0.877804" stroke-opacity="0.877804" transform="rotate(324.165 40 152)" />
  <polygon points="56,148.572 59.4277,152 56,155.428 52.5723,152" fill="#efa00b" fill-opacity="0.55415" stroke-opacity="0.55415" transform="rotate(348.439 56 152)" />
  <polygon points="72,148.037 75.9634,152 72,155.963 68.0366,152" fill="#ff6b35" fill-opacity="0.634511" stroke-opacity="0.634511" transform="rotate(17.5883 72 152)" />
  <polygon points="88,146.105 93.8952,152 88,157.895 82.1048,152" fill="#ff6b35" fill-opacity="0.924275" stroke-opacity="0.924275" transform="rotate(39.3206 88 152)" />
  <polygon points="104,145.647 110.353,152 104,158.353 97.6471,152" fill="#ff6b35" fill-opacity="0.992942" stroke-opacity="0.992942" transform="rotate(44.4706 104 152)" />
  <polygon points="120,146.856 125.144,152 120,157.144 114.856,152" fill="#ff6b35" fill-opacity="0.811554" stroke-opacity="0.811554" transform="rotate(30.8666 120 152)" />
  <polygon points="136,149.223 138.777,152 136,154.777 133.223,152" fill="#ff6b35" fill-opacity="0.456606" stroke-opacity="0.456606" transform="rotate(4.24546 136 152)" />
  <polygon points="152,147.452 156.548,152 152,156.548 147.452,152" fill="#efa00b" fill-opacity="0.722214" stroke-opacity="0.722214" transform="rotate(335.834 152 152)" />
  <polygon points="168,145.832 174.168,152 168,158.168 161.832,152" fill="#efa00b" fill-opacity="0.96515" stroke-opacity="0.96515" transform="rotate(317.614 168 152)" />
  <polygon points="184,145.802 190.198,152 184,158.198 177.802,152" fill="#efa00b" fill-opacity="0.969752" stroke-opacity="0.969752" transform="rotate(317.269 184 152)" />
  <polygon points="200,147.373 204.627,152 200,156.627 195.373,152" fill="#efa00b" fill-opacity="0.734078" stroke-opacity="0.734078" transform="rotate(334.944 200 152)" />
  <polygon points="216,149.317 218.683,152 216,154.683 213.317,152" fill="#ff6b35" fill-opacity="0.442482" stroke-opacity="0.442482" transform="rotate(3.18617 216 152)" />
  <polygon points="232,146.926 237.074,152 232,157.074 226.926,152" fill="#ff6b35" fill-opacity="0.801127" stroke-opacity="0.801127" transform="rotate(30.0845 232 152)" />
  <polygon points="248,145.663 254.337,152 248,158.337 241.663,152" fill="#ff6b35" fill-opacity="0.990609" stroke-opacity="0.990609" transform="rotate(44.2957 248 152)" />
  <polygon points="264,146.06 269.94,152 264,157.94 258.06,152" fill="#ff6b35" fill-opacity="0.93102" stroke-opacity="0.93102" transform="rotate(39.8265 264 152)" />
  <polygon points="280,147.95 284.05,152 280,156.05 275.95,152" fill="#ff6b35" fill-opacity="0.64749" stroke-opacity="0.64749" transform="rotate(18.5617 280 152)" />
  <polygon points="296,148.664 299.336,152 296,155.336 292.664,152" fill="#efa00b" fill-opacity="0.540412" stroke-opacity="0.540412" transform="rotate(349.469 296 152)" />
  <polygon points="312,146.473 317.527,152 312,157.527 306.473,152" fill="#efa00b" fill-opacity="0.869099" stroke-opacity="0.869099" transform="rotate(324.818 312 152)" />
  <polygon points="8,161.7 14.2997,168 8,174.3 1.70029,168" fill="#efa00b" fill-opacity="0.984957" stroke-opacity="0.984957" transform="rotate(316.128 8 168)" />
  <polygon points="24,161.976 30.0241,168 24,174.024 17.9759,168" fill="#efa00b" fill-opacity="0.943618" stroke-opacity="0.943618" transform="rotate(319.229 24 168)" />
  <polygon points="40,163.78 44.2202,168 40,172.22 35.7798,168" fill="#efa00b" fill-opacity="0.673026" stroke-opacity="0.673026" transform="rotate(339.523 40 168)" />
  <polygon points="56,164.849 59.1514,168 56,171.151 52.8486,168" fill="#ff6b35" fill-opacity="0.512707" stroke-opacity="0.512707" transform="rotate(8.45304 56 168)" />
  <polygon points="72,162.594 77.4061,168 72,173.406 66.5939,168" fill="#ff6b35" fill-opacity="0.850909" stroke-opacity="0.850909" transform="rotate(33.8182 72 168)" />
  <polygon points="88,161.607 94.393,168 88,174.393 81.607,168" fill="#ff6b35" fill-opacity="0.998954" stroke-opacity="0.998954" transform="rotate(44.9216 88 168)" />
  <polygon points="104,162.304 109.696,168 104,173.696 98.3039,168" fill="#ff6b35" fill-opacity="0.894409" stroke-opacity="0.894409" transform="rotate(37.0807 104 168)" />
  <polygon points="120,164.391 123.609,168 120,171.609 116.391,168" fill="#ff6b35" fill-opacity="0.581362" stroke-opacity="0.581362" transform="rotate(13.6021 120 168)" />
  <polygon points="136,164.212 139.788,168 136,171.788 132.212,168" fill="#efa00b" fill-opacity="0.608169" stroke-opacity="0.608169" transform="rotate(344.387 136 168)" />
  <polygon points="152,162.201 157.799,168 152,173.799 146.201,168" fill="#efa00b" fill-opacity="0.909911" stroke-opacity="0.909911" transform="rotate(321.757 152 168)" />
  <polygon points="168,161.623 174.377,168 168,174.377 161.623,168" fill="#efa00b" fill-opacity="0.996614" stroke-opacity="0.996614" transform="rotate(315.254 168 168)" />
  <polygon points="184,162.722 189.278,168 184,173.278 178.722,168" fill="#efa00b" fill-opacity="0.831713" stroke-opacity="0.831713" transform="rotate(327.622 184 168)" />
  <polygon points="200,165.035 202.965,168 200,170.965 197.035,168" fill="#efa00b" fill-opacity="0.484751" stroke-opacity="0.484751" transform="rotate(353.644 200 168)" />
  <polygon points="216,163.614 220.386,168 216,172.386 211.614,168" fill="#ff6b35" fill-opacity="0.697952" stroke-opacity="0.697952" transform="rotate(22.3464 216 168)" />
  <polygon points="232,161.9 238.1,168 232,174.1 225.9,168" fill="#ff6b35" fill-opacity="0.955003" stroke-opacity="0.955003" transform="rotate(41.6252 232 168)" />
  <polygon points="248,161.747 254.253,168 248,174.253 241.747,168" fill="#ff6b35" fill-opacity="0.977999" stroke-opacity="0.977999" transform="rotate(43.3499 248 168)" />
  <polygon points="264,163.218 268.782,168 264,172.782 259.218,168" fill="#ff6b35" fill-opacity="0.757242" stroke-opacity="0.757242" transform="rotate(26.7931 264 168)" />
  <polygon points="280,165.506 282.494,168 280,170.494 277.506,168" fill="#efa00b" fill-opacity="0.414171" stroke-opacity="0.414171" transform="rotate(358.937 280 168)" />
  <polygon points="296,163.069 300.931,168 296,172.931 291.069,168" fill="#efa00b" fill-opacity="0.779608" stroke-opacity="0.779608" transform="rotate(331.529 296 168)" />
  <polygon points="312,161.7 318.3,168 312,174.3 305.7,168" fill="#efa00b" fill-opacity="0.984957" stroke-opacity="0.984957" transform="rotate(316.128 312 168)" />
  <polygon points="8,177.7 14.2997,184 8,190.3 1.70029,184" fill="#efa00b" fill-opacity="0.984957" stroke-opacity="0.984957" transform="rotate(316.128 8 184)" />
  <polygon points="24,179.069 28.9307,184 24,188.931 19.0693,184" fill="#efa00b" fill-opacity="0.779608" stroke-opacity="0.779608" transform="rotate(331.529 24 184)" />
  <polygon points="40,181.506 42.4945,184 40,186.494 37.5055,184" fill="#efa00b" fill-opacity="0.414171" stroke-opacity="0.414171" transform="rotate(358.937 40 184)" />
  <polygon points="56,179.218 60.7816,184 56,188.782 51.2184,184" fill="#ff6b35" fill-opacity="0.757242" stroke-opacity="0.757242" transform="rotate(26.7931 56 184)" />
  <polygon points="72,177.747 78.2533,184 72,190.253 65.7467,184" fill="#ff6b35" fill-opacity="0.977999" stroke-opacity="0.977999" transform="rotate(43.3499 72 184)" />
  <polygon points="88,177.9 94.1,184 88,190.1 81.9,184" fill="#ff6b35" fill-opacity="0.955003" stroke-opacity="0.955003" transform="rotate(41.6252 88 184)" />
  <polygon points="104,179.614 108.386,184 104,188.386 99.6137,184" fill="#ff6b35" fill-opacity="0.697952" stroke-opacity="0.697952" transform="rotate(22.3464 104 184)" />
  <polygon points="120,181.035 122.965,184 120,186.965 117.035,184" fill="#efa00b" fill-opacity="0.484751" stroke-opacity="0.484751" transform="rotate(353.644 120 184)" />
  <polygon points="136,178.722 141.278,184 136,189.278 130.722,184" fill="#efa00b" fill-opacity="0.831713" stroke-opacity="0.831713" transform="rotate(327.622 136 184)" />
  <polygon points="152,177.623 158.377,184 152,190.377 145.623,184" fill="#efa00b" fill-opacity="0.996614" stroke-opacity="0.996614" transform="rotate(315.254 152 184)" />
  <polygon points="168,178.201 173.799,184 168,189.799 162.201,184" fill="#efa00b" fill-opacity="0.909911" stroke-opacity="0.909911" transform="rotate(321.757 168 184)" />
  <polygon points="184,180.212 187.788,184 184,187.788 180.212,184" fill="#efa00b" fill-opacity="0.608169" stroke-opacity="0.608169" transform="rotate(344.387 184 184)" />
  <polygon points="200,180.391 203.609,184 200,187.609 196.391,184" fill="#ff6b35" fill-opacity="0.581362" stroke-opacity="0.581362" transform="rotate(13.6021 200 184)" />
  <polygon points="216,178.304 221.696,184 216,189.696 210.304,184" fill="#ff6b35" fill-opacity="0.894409" stroke-opacity="0.894409" transform="rotate(37.0807 216 184)" />
  <polygon points="232,177.607 238.393,184 232,190.393 225.607,184" fill="#ff6b35" fill-opacity="0.998954" stroke-opacity="0.998954" transform="rotate(44.9216 232 184)" />
  <polygon points="248,178.594 253.406,184 248,189.406 242.594,184" fill="#ff6b35" fill-opacity="0.850909" stroke-opacity="0.850909" transform="rotate(33.8182 248 184)" />
  <polygon points="264,180.849 267.151,184 264,187.151 260.849,184" fill="#ff6b35" fill-opacity="0.512707" stroke-opacity="0.512707" transform="rotate(8.45304 264 184)" />
  <polygon points="280,179.78 284.22,184 280,188.22 275.78,184" fill="#efa00b" fill-opacity="0.673026" stroke-opacity="0.673026" transform="rotate(339.523 280 184)" />
  <polygon points="296,177.976 302.024,184 296,190.024 289.976,184" fill="#efa00b" fill-opacity="0.943618" stroke-opacity="0.943618" transform="rotate(319.229 296 184)" />
  <polygon points="312,177.7 318.3,184 312,190.3 305.7,184" fill="#efa00b" fill-opacity="0.984957" stroke-opacity="0.984957" transform="rotate(316.128 312 184)" />
  <polygon points="8,194.473 13.5273,200 8,205.527 2.47267,200" fill="#efa00b" fill-opacity="0.869099" stroke-opacity="0.869099" transform="rotate(324.818 8 200)" />
  <polygon points="24,196.664 27.3361,200 24,203.336 20.6639,200" fill="#efa00b" fill-opacity="0.540412" stroke-opacity="0.540412" transform="rotate(349.469 24 200)" />
  <polygon points="40,195.95 44.0499,200 40,204.05 35.9501,200" fill="#ff6b35" fill-opacity="0.64749" stroke-opacity="0.64749" transform="rotate(18.5617 40 200)" />
  <polygon points="56,194.06 61.9401,200 56,205.94 50.0599,200" fill="#ff6b35" fill-opacity="0.93102" stroke-opacity="0.93102" transform="rotate(39.8265 56 200)" />
  <polygon points="72,193.663 78.3374,200 72,206.337 65.6626,200" fill="#ff6b35" fill-opacity="0.990609" stroke-opacity="0.990609" transform="rotate(44.2957 72 200)" />
  <polygon points="88,194.926 93.0742,200 88,205.074 82.9258,200" fill="#ff6b35" fill-opacity="0.801127" stroke-opacity="0.801127" transform="rotate(30.0845 88 200)" />
  <polygon points="104,197.317 106.683,200 104,202.683 101.317,200" fill="#ff6b35" fill-opacity="0.442482" stroke-opacity="0.442482" transform="rotate(3.18617 104 200)" />
  <polygon points="120,195.373 124.627,200 120,204.627 115.373,200" fill="#efa00b" fill-opacity="0.734078" stroke-opacity="0.734078" transform="rotate(334.944 120 200)" />
  <polygon points="136,193.802 142.198,200 136,206.198 129.802,200" fill="#efa00b" fill-opacity="0.969752" stroke-opacity="0.969752" transform="rotate(317.269 136 200)" />
  <polygon points="152,193.832 158.168,200 152,206.168 145.832,200" fill="#efa00b" fill-opacity="0.96515" stroke-opacity="0.96515" transform="rotate(317.614 152 200)" />
  <polygon points="168,195.452 172.548,200 168,204.548 163.452,200" fill="#efa00b" fill-opacity="0.722214" stroke-opacity="0.722214" transform="rotate(335.834 168 200)" />
  <polygon points="184,197.223 186.777,200 184,202.777 181.223,200" fill="#ff6b35" fill-opacity="0.456606" stroke-opacity="0.456606" transform="rotate(4.24546 184 200)" />
  <polygon points="200,194.856 205.144,200 200,205.144 194.856,200" fill="#ff6b35" fill-opacity="0.811554" stroke-opacity="0.811554" transform="rotate(30.8666 200 200)" />
  <polygon points="216,193.647 222.353,200 216,206.353 209.647,200" fill="#ff6b35" fill-opacity="0.992942" stroke-opacity="0.992942" transform="rotate(44.4706 216 200)" />
  <polygon points="232,194.105 237.895,200 232,205.895 226.105,200" fill="#ff6b35" fill-opacity="0.924275" stroke-opacity="0.924275" transform="rotate(39.3206 232 200)" />
  <polygon points="248,196.037 251.963,200 248,203.963 244.037,200" fill="#ff6b35" fill-opacity="0.634511" stroke-opacity="0.634511" transform="rotate(17.5883 248 200)" />
  <polygon points="264,196.572 267.428,200 264,203.428 260.572,200" fill="#efa00b" fill-opacity="0.55415" stroke-opacity="0.55415" transform="rotate(348.439 264 200)" />
  <polygon points="280,194.415 285.585,200 280,205.585 274.415,200" fill="#efa00b" fill-opacity="0.877804" stroke-opacity="0.877804" transform="rotate(324.165 280 200)" />
  <polygon points="296,193.6 302.4,200 296,206.4 289.6,200" fill="#efa00b" fill-opacity="0.999958" stroke-opacity="0.999958" transform="rotate(315.003 296 200)" />
  <polygon points="312,194.473 317.527,200 312,205.527 306.473,200" fill="#efa00b" fill-opacity="0.869099" stroke-opacity="0.869099" transform="rotate(324.818 312 200)" />
  <polygon points="8,211.864 12.1355,216 8,220.136 3.86447,216" fill="#efa00b" fill-opacity="0.66033" stroke-opacity="0.66033" transform="rotate(340.475 8 216)" />
  <polygon points="24,212.756 27.244,216 24,219.244 20.756,216" fill="#ff6b35" fill-opacity="0.526595" stroke-opacity="0.526595" transform="rotate(9.49461 24 216)" />
  <polygon points="40,210.532 45.4675,216 40,221.468 34.5325,216" fill="#ff6b35" fill-opacity="0.860132" stroke-opacity="0.860132" transform="rotate(34.5099 40 216)" />
  <polygon points="56,209.603 62.3975,216 56,222.397 49.6025,216" fill="#ff6b35" fill-opacity="0.999623" stroke-opacity="0.999623" transform="rotate(44.9718 56 216)" />
  <polygon points="72,210.358 77.6416,216 72,221.642 66.3584,216" fill="#ff6b35" fill-opacity="0.886242" stroke-opacity="0.886242" transform="rotate(36.4681 72 216)" />
  <polygon points="88,212.481 91.5187,216 88,219.519 84.4813,216" fill="#ff6b35" fill-opacity="0.567803" stroke-opacity="0.567803" transform="rotate(12.5852 88 216)" />
  <polygon points="104,212.124 107.876,216 104,219.876 100.124,216" fill="#efa00b" fill-opacity="0.621402" stroke-opacity="0.621402" transform="rotate(343.395 104 216)" />
  <polygon points="120,210.152 125.848,216 120,221.848 114.152,216" fill="#efa00b" fill-opacity="0.917237" stroke-opacity="0.917237" transform="rotate(321.207 120 216)" />
  <polygon points="136,209.634 142.366,216 136,222.366 129.634,216" fill="#efa00b" fill-opacity="0.994944" stroke-opacity="0.994944" transform="rotate(315.379 136 216)" />
  <polygon points="152,210.788 157.212,216 152,221.212 146.788,216" fill="#efa00b" fill-opacity="0.821751" stroke-opacity="0.821751" transform="rotate(328.369 152 216)" />
  <polygon points="168,213.129 170.871,216 168,218.871 165.129,216" fill="#efa00b" fill-opacity="0.470698" stroke-opacity="0.470698" transform="rotate(354.698 168 216)" />
  <polygon points="184,211.532 188.468,216 184,220.468 179.532,216" fill="#ff6b35" fill-opacity="0.710169" stroke-opacity="0.710169" transform="rotate(23.2627 184 216)" />
  <polygon points="200,209.865 206.135,216 200,222.135 193.865,216" fill="#ff6b35" fill-opacity="0.960233" stroke-opacity="0.960233" transform="rotate(42.0175 200 216)" />
  <polygon points="216,209.773 222.227,216 216,222.227 209.773,216" fill="#ff6b35" fill-opacity="0.974035" stroke-opacity="0.974035" transform="rotate(43.0527 216 216)" />
  <polygon points="232,211.295 236.705,216 232,220.705 227.295,216" fill="#ff6b35" fill-opacity="0.745756" stroke-opacity="0.745756" transform="rotate(25.9317 232 216)" />
  <polygon points="248,213.411 250.589,216 248,218.589 245.411,216" fill="#efa00b" fill-opacity="0.428335" stroke-opacity="0.428335" transform="rotate(357.875 248 216)" />
  <polygon points="264,210.997 269.003,216 264,221.003 258.997,216" fill="#efa00b" fill-opacity="0.790476" stroke-opacity="0.790476" transform="rotate(330.714 264 216)" />
  <polygon points="280,209.68 286.32,216 280,222.32 273.68,216" fill="#efa00b" fill-opacity="0.987947" stroke-opacity="0.987947" transform="rotate(315.904 280 216)" />
  <polygon points="296,210.017 301.983,216 296,221.983 290.017,216" fill="#efa00b" fill-opacity="0.937469" stroke-opacity="0.937469" transform="rotate(319.69 296 216)" />
  <polygon points="312,211.864 316.136,216 312,220.136 307.864,216" fill="#efa00b" fill-opacity="0.66033" stroke-opacity="0.66033" transform="rotate(340.475 312 216)" />
  <polygon points="8,229.6 10.4,232 8,234.4 5.6,232" fill="#efa00b" fill-opacity="0.4" stroke-opacity="0.4" transform="rotate(360 8 232)" />
  <polygon points="24,227.143 28.8569,232 24,236.857 19.1431,232" fill="#ff6b35" fill-opacity="0.768528" stroke-opacity="0.768528" transform="rotate(27.6396 24 232)" />
  <polygon points="40,225.722 46.2776,232 40,238.278 33.7224,232" fill="#ff6b35" fill-opacity="0.98164" stroke-opacity="0.98164" transform="rotate(43.623 40 232)" />
  <polygon points="56,225.937 62.0631,232 56,238.063 49.9369,232" fill="#ff6b35" fill-opacity="0.949464" stroke-opacity="0.949464" transform="rotate(41.2098 56 232)" />
  <polygon points="72,227.696 76.3038,232 72,236.304 67.6962,232" fill="#ff6b35" fill-opacity="0.685568" stroke-opacity="0.685568" transform="rotate(21.4176 72 232)" />
  <polygon points="88,228.942 91.0584,232 88,235.058 84.9416,232" fill="#efa00b" fill-opacity="0.498757" stroke-opacity="0.498757" transform="rotate(352.593 88 232)" />
  <polygon points="104,226.657 109.343,232 104,237.343 98.6571,232" fill="#efa00b" fill-opacity="0.841434" stroke-opacity="0.841434" transform="rotate(326.892 104 232)" />
  <polygon points="120,225.614 126.386,232 120,238.386 113.614,232" fill="#efa00b" fill-opacity="0.997951" stroke-opacity="0.997951" transform="rotate(315.154 120 232)" />
  <polygon points="136,226.251 141.749,232 136,237.749 130.251,232" fill="#efa00b" fill-opacity="0.9023" stroke-opacity="0.9023" transform="rotate(322.328 136 232)" />
  <polygon points="152,228.301 155.699,232 152,235.699 148.301,232" fill="#efa00b" fill-opacity="0.59482" stroke-opacity="0.59482" transform="rotate(345.389 152 232)" />
  <polygon points="168,228.301 171.699,232 168,235.699 164.301,232" fill="#ff6b35" fill-opacity="0.59482" stroke-opacity="0.59482" transform="rotate(14.6115 168 232)" />
  <polygon points="184,226.251 189.749,232 184,237.749 178.251,232" fill="#ff6b35" fill-opacity="0.9023" stroke-opacity="0.9023" transform="rotate(37.6725 184 232)" />
  <polygon points="200,225.614 206.386,232 200,238.386 193.614,232" fill="#ff6b35" fill-opacity="0.997951" stroke-opacity="0.997951" transform="rotate(44.8463 200 232)" />
  <polygon points="216,226.657 221.343,232 216,237.343 210.657,232" fill="#ff6b35" fill-opacity="0.841434" stroke-opacity="0.841434" transform="rotate(33.1076 216 232)" />
  <polygon points="232,228.942 235.058,232 232,235.058 228.942,232" fill="#ff6b35" fill-opacity="0.498757" stroke-opacity="0.498757" transform="rotate(7.40676 232 232)" />
  <polygon points="248,227.696 252.304,232 248,236.304 243.696,232" fill="#efa00b" fill-opacity="0.685568" stroke-opacity="0.685568" transform="rotate(338.582 248 232)" />
  <polygon points="264,225.937 270.063,232 264,238.063 257.937,232" fill="#efa00b" fill-opacity="0.949464" stroke-opacity="0.949464" transform="rotate(318.79 264 232)" />
  <polygon points="280,225.722 286.278,232 280,238.278 273.722,232" fill="#efa00b" fill-opacity="0.98164" stroke-opacity="0.98164" transform="rotate(316.377 280 232)" />
  <polygon points="296,227.143 300.857,232 296,236.857 291.143,232" fill="#efa00b" fill-opacity="0.768528" stroke-opacity="0.768528" transform="rotate(332.36 296 232)" />
  <polygon points="312,229.6 314.4,232 312,234.4 309.6,232" fill="#efa00b" fill-opacity="0.4" stroke-opacity="0.4" transform="rotate(360 312 232)" />
</svg>