<?xml version="1.0" encoding="UTF-8"?>
<svg xmlns="http://www.w3.org/2000/svg" width="320" height="240" viewBox="0 0 320 240">
  <rect width="100%" height="100%" fill="#2d1b4e" />
  <polygon points="8.0,5.6 10.4,8.0 8.0,10.4 5.6,8.0" fill="#efa00b" fill-opacity="0.4" stroke-opacity="0.4" />
  <polygon points="24.0,3.143149149241329 28.856850850758672,8.0 24.0,12.856850850758672 19.143149149241328,8.0" fill="#ff6b35" fill-opacity="0.7685276276138007" stroke-opacity="0.7685276276138007" transform="rotate(27.63957207103505 24.0 8.0)" />
  <polygon points="40.0,1.7223989362426781 46.277601063757324,8.0 40.0,14.277601063757322 33.722398936242676,8.0" fill="#ff6b35" fill-opacity="0.9816401595635982" stroke-opacity="0.9816401595635982" transform="rotate(43.62301196726987 40.0 8.0)" />
  <polygon points="56.0,1.93690669337977 62.06309330662023,8.0 56.0,14.06309330662023 49.93690669337977,8.0" fill="#ff6b35" fill-opacity="0.9494639959930345" stroke-opacity="0.9494639959930345" transform="rotate(41.209799699477585 56.0 8.0)" />
  <polygon points="72.0,3.696210427851705 76.30378957214829,8.0 72.0,12.303789572148295 67.69621042785171,8.0" fill="#ff6b35" fill-opacity="0.6855684358222442" stroke-opacity="0.6855684358222442" transform="rotate(21.417632686668316 72.0 8.0)" />
  <polygon points="88.0,4.941621638877065 91.05837836112293,8.0 88.0,11.058378361122935 84.94162163887707,8.0" fill="#efa00b" fill-opacity="0.4987567541684403" stroke-opacity="0.4987567541684403" transform="rotate(352.593243437367 88.0 8.0)" />
  <polygon points="104.0,2.6571043573074746 109.34289564269253,8.0 104.0,13.342895642692525 98.65710435730747,8.0" fill="#efa00b" fill-opacity="0.8414343464038787" stroke-opacity="0.8414343464038787" transform="rotate(326.8924240197091 104.0 8.0)" />
  <polygon points="120.0,1.6136620279733211 126.38633797202668,8.0 120.0,14.386337972026679 113.61366202797332,8.0" fill="#efa00b" fill-opacity="0.9979506958040019" stroke-opacity="0.9979506958040019" transform="rotate(315.15369781469985 120.0 8.0)" />
  <polygon points="136.0,2.2513340869498855 141.7486659130501,8.0 136.0,13.748665913050115 130.2513340869499,8.0" fill="#efa00b" fill-opacity="0.9022998869575173" stroke-opacity="0.9022998869575173" transform="rotate(322.3275084781862 136.0 8.0)" />
  <polygon points="152.0,4.301202123181265 155.69879787681873,8.0 152.0,11.698797876818734 148.30120212318127,8.0" fill="#efa00b" fill-opacity="0.5948196815228103" stroke-opacity="0.5948196815228103" transform="rotate(345.38852388578925 152.0 8.0)" />
  <polygon points="168.0,4.301202123181267 171.69879787681873,8.0 168.0,11.698797876818734 164.30120212318127,8.0" fill="#ff6b35" fill-opacity="0.59481968152281" stroke-opacity="0.59481968152281" transform="rotate(14.611476114210747 168.0 8.0)" />
  <polygon points="184.0,2.2513340869498855 189.7486659130501,8.0 184.0,13.748665913050115 178.2513340869499,8.0" fill="#ff6b35" fill-opacity="0.9022998869575172" stroke-opacity="0.9022998869575172" transform="rotate(37.67249152181378 184.0 8.0)" />
  <polygon points="200.0,1.6136620279733203 206.3863379720267,8.0 200.0,14.38633797202668 193.61366202797333,8.0" fill="#ff6b35" fill-opacity="0.997950695804002" stroke-opacity="0.997950695804002" transform="rotate(44.84630218530015 200.0 8.0)" />
  <polygon points="216.0,2.657104357307471 221.34289564269253,8.0 216.0,13.342895642692529 210.65710435730747,8.0" fill="#ff6b35" fill-opacity="0.8414343464038794" stroke-opacity="0.8414343464038794" transform="rotate(33.10757598029095 216.0 8.0)" />
  <polygon points="232.0,4.941621638877061 235.05837836112295,8.0 232.0,11.058378361122939 228.94162163887705,8.0" fill="#ff6b35" fill-opacity="0.49875675416844084" stroke-opacity="0.49875675416844084" transform="rotate(7.406756562633062 232.0 8.0)" />
  <polygon points="248.0,3.6962104278517085 252.3037895721483,8.0 248.0,12.303789572148291 243.6962104278517,8.0" fill="#efa00b" fill-opacity="0.6855684358222437" stroke-opacity="0.6855684358222437" transform="rotate(338.5823673133317 248.0 8.0)" />
  <polygon points="264.0,1.9369066933797718 270.0630933066202,8.0 264.0,14.063093306620228 257.9369066933798,8.0" fill="#efa00b" fill-opacity="0.9494639959930343" stroke-opacity="0.9494639959930343" transform="rotate(318.79020030052243 264.0 8.0)" />
  <polygon points="280.0,1.7223989362426781 286.27760106375734,8.0 280.0,14.277601063757322 273.72239893624266,8.0" fill="#efa00b" fill-opacity="0.9816401595635984" stroke-opacity="0.9816401595635984" transform="rotate(316.37698803273014 280.0 8.0)" />
  <polygon points="296.0,3.143149149241327 300.8568508507587,8.0 296.0,12.856850850758672 291.1431491492413,8.0" fill="#efa00b" fill-opacity="0.7685276276138009" stroke-opacity="0.7685276276138009" transform="rotate(332.36042792896495 296.0 8.0)" />
  <polygon points="312.0,5.599999999999998 314.4,8.0 312.0,10.400000000000002 309.6,8.0" fill="#efa00b" fill-opacity="0.4000000000000003" stroke-opacity="0.4000000000000003" transform="rotate(360.0 312.0 8.0)" />
  <polygon points="8.0,19.86446504352977 12.135534956470233,24.0 8.0,28.13553495647023 3.8644650435297674,24.0" fill="#ff6b35" fill-opacity="0.6603302434705349" stroke-opacity="0.6603302434705349" transform="rotate(19.524768260290116 8.0 24.0)" />
  <polygon points="24.0,18.0168729307627 29.9831270692373,24.0 24.0,29.9831270692373 18.0168729307627,24.0" fill="#ff6b35" fill-opacity="0.9374690603855953" stroke-opacity="0.9374690603855953" transform="rotate(40.31017952891965 24.0 24.0)" />
  <polygon points="40.0,17.680353515170367 46.31964648482963,24.0 40.0,30.319646484829633 33.68035351517037,24.0" fill="#ff6b35" fill-opacity="0.9879469727244446" stroke-opacity="0.9879469727244446" transform="rotate(44.09602295433335 40.0 24.0)" />
  <polygon points="56.0,18.996823421852824 61.003176578147176,24.0 56.0,29.003176578147176 50.996823421852824,24.0" fill="#ff6b35" fill-opacity="0.7904764867220764" stroke-opacity="0.7904764867220764" transform="rotate(29.28573650415572 56.0 24.0)" />
  <polygon points="72.0,21.411102302973987 74.58889769702601,24.0 72.0,26.588897697026013 69.41110230297399,24.0" fill="#ff6b35" fill-opacity="0.4283346545539021" stroke-opacity="0.4283346545539021" transform="rotate(2.1250990915426593 72.0 24.0)" />
  <polygon points="88.0,19.294957071562653 92.70504292843735,24.0 88.0,28.705042928437347 83.29495707156265,24.0" fill="#efa00b" fill-opacity="0.745756439265602" stroke-opacity="0.745756439265602" transform="rotate(334.06826705507984 88.0 24.0)" />
  <polygon points="104.0,17.773096801518783 110.22690319848121,24.0 104.0,30.226903198481217 97.77309680151878,24.0" fill="#efa00b" fill-opacity="0.9740354797721827" stroke-opacity="0.9740354797721827" transform="rotate(316.9473390170863 103.99999999999999 24.0)" />
  <polygon points="120.0,17.86511424951703 126.13488575048297,24.0 120.0,30.13488575048297 113.86511424951703,24.0" fill="#efa00b" fill-opacity="0.9602328625724452" stroke-opacity="0.9602328625724452" transform="rotate(317.9825353070666 120.0 24.0)" />
  <polygon points="136.0,19.532203911134296 140.4677960888657,24.0 136.0,28.467796088865704 131.5322039111343,24.0" fill="#efa00b" fill-opacity="0.7101694133298555" stroke-opacity="0.7101694133298555" transform="rotate(336.7372940002608 136.0 24.0)" />
  <polygon points="152.0,21.128677567307733 154.87132243269227,24.0 152.0,26.871322432692267 149.12867756730773,24.0" fill="#ff6b35" fill-opacity="0.47069836490383976" stroke-opacity="0.47069836490383976" transform="rotate(5.3023773677879795 152.0 24.0)" />
  <polygon points="168.0,18.788324661884854 173.21167533811516,24.0 168.0,29.211675338115146 162.78832466188484,24.0" fill="#ff6b35" fill-opacity="0.8217513007172719" stroke-opacity="0.8217513007172719" transform="rotate(31.631347553795397 168.0 24.0)" />
  <polygon points="184.0,17.633708615537337 190.36629138446267,24.0 184.0,30.366291384462663 177.63370861553733,24.0" fill="#ff6b35" fill-opacity="0.9949437076693993" stroke-opacity="0.9949437076693993" transform="rotate(44.620778075204946 184.0 24.0)" />
  <polygon points="200.0,18.15175293101636 205.84824706898365,24.0 200.0,29.84824706898364 194.15175293101635,24.0" fill="#ff6b35" fill-opacity="0.917237060347546" stroke-opacity="0.917237060347546" transform="rotate(38.79277952606596 200.0 24.0)" />
  <polygon points="216.0,20.123988487377922 219.87601151262209,24.0 216.0,27.876011512622078 212.12398848737791,24.0" fill="#ff6b35" fill-opacity="0.6214017268933121" stroke-opacity="0.6214017268933121" transform="rotate(16.6051295169984 216.0 24.0)" />
  <polygon points="232.0,20.48131388490742 235.51868611509258,24.0 232.0,27.51868611509258 228.48131388490742,24.0" fill="#efa00b" fill-opacity="0.5678029172638872" stroke-opacity="0.5678029172638872" transform="rotate(347.41478120520844 232.0 24.0)" />
  <polygon points="248.0,18.358387425940258 253.64161257405974,24.0 248.0,29.641612574059742 242.35838742594026,24.0" fill="#efa00b" fill-opacity="0.8862418861089616" stroke-opacity="0.8862418861089616" transform="rotate(323.5318585418279 248.0 24.0)" />
  <polygon points="264.0,17.60251051917406 270.3974894808259,24.0 264.0,30.39748948082594 257.6025105191741,24.0" fill="#efa00b" fill-opacity="0.9996234221238911" stroke-opacity="0.9996234221238911" transform="rotate(315.0282433407082 264.0 24.0)" />
  <polygon points="280.0,18.53245080364833 285.4675491963517,24.0 280.0,29.46754919635167 274.5324508036483,24.0" fill="#efa00b" fill-opacity="0.8601323794527507" stroke-opacity="0.8601323794527507" transform="rotate(325.4900715410437 280.0 24.0)" />
  <polygon points="296.0,20.75603481001103 299.24396518998896,24.0 296.0,27.24396518998897 292.75603481001104,24.0" fill="#efa00b" fill-opacity="0.5265947784983456" stroke-opacity="0.5265947784983456" transform="rotate(350.50539161262407 296.0 24.0)" />
  <polygon points="312.0,19.86446504352977 316.1355349564702,24.0 312.0,28.13553495647023 307.8644650435298,24.0" fill="#ff6b35" fill-opacity="0.6603302434705346" stroke-opacity="0.6603302434705346" transform="rotate(19.524768260290095 312.0 24.0)" />
  <polygon points="8.0,34.47267407012788 13.527325929872118,40.0 8.0,45.52732592987212 2.4726740701278818,40.0" fill="#ff6b35" fill-opacity="0.8690988894808178" stroke-opacity="0.8690988894808178" transform="rotate(35.182416711061336 8.0 40.0)" />
  <polygon points="24.0,33.60027897251618 30.39972102748382,40.0 24.0,46.39972102748382 17.60027897251618,40.0" fill="#ff6b35" fill-opacity="0.9999581541225729" stroke-opacity="0.9999581541225729" transform="rotate(44.996861559192965 24.0 40.0)" />
  <polygon points="40.0,34.414642151728025 45.585357848271975,40.0 40.0,45.585357848271975 34.414642151728025,40.0" fill="#ff6b35" fill-opacity="0.8778036772407964" stroke-opacity="0.8778036772407964" transform="rotate(35.835275793059736 40.0 40.0)" />
  <polygon points="56.0,36.572331197493526 59.427668802506474,40.0 56.0,43.427668802506474 52.572331197493526,40.0" fill="#ff6b35" fill-opacity="0.5541503203759717" stroke-opacity="0.5541503203759717" transform="rotate(11.561274028197872 56.0 40.0)" />
  <polygon points="72.0,36.03659231632951 75.9634076836705,40.0 72.0,43.96340768367049 68.0365923163295,40.0" fill="#efa00b" fill-opacity="0.6345111525505736" stroke-opacity="0.6345111525505736" transform="rotate(342.411663558707 72.0 40.0)" />
  <polygon points="88.0,34.104834525721586 93.89516547427841,40.0 88.0,45.895165474278414 82.10483452572159,40.0" fill="#efa00b" fill-opacity="0.9242748211417617" stroke-opacity="0.9242748211417617" transform="rotate(320.67938841436785 88.0 40.0)" />
  <polygon points="104.0,33.647054358076986 110.35294564192301,40.0 104.0,46.352945641923014 97.64705435807699,40.0" fill="#efa00b" fill-opacity="0.9929418462884523" stroke-opacity="0.9929418462884523" transform="rotate(315.52936152836605 104.0 40.0)" />
  <polygon points="120.0,34.85630639931165 125.14369360068835,40.0 120.0,45.14369360068835 114.85630639931165,40.0" fill="#efa00b" fill-opacity="0.811554040103253" stroke-opacity="0.811554040103253" transform="rotate(329.13344699225604 120.0 40.0)" />
  <polygon points="136.0,37.22262611057335 138.77737388942666,40.0 136.0,42.77737388942665 133.22262611057334,40.0" fill="#efa00b" fill-opacity="0.45660608341399767" stroke-opacity="0.45660608341399767" transform="rotate(355.7545437439502 136.0 40.0)" />
  <polygon points="152.0,35.451908445981736 156.54809155401827,40.0 152.0,44.548091554018264 147.45190844598173,40.0" fill="#ff6b35" fill-opacity="0.7222137331027395" stroke-opacity="0.7222137331027395" transform="rotate(24.16602998270546 152.0 40.0)" />
  <polygon points="168.0,33.83233398423722 174.1676660157628,40.0 168.0,46.16766601576278 161.8323339842372,40.0" fill="#ff6b35" fill-opacity="0.9651499023644164" stroke-opacity="0.9651499023644164" transform="rotate(42.38624267733123 168.0 40.0)" />
  <polygon points="184.0,33.80165579618922 190.19834420381076,40.0 184.0,46.19834420381078 177.80165579618924,40.0" fill="#ff6b35" fill-opacity="0.9697516305716161" stroke-opacity="0.9697516305716161" transform="rotate(42.73137229287121 184.0 40.0)" />
  <polygon points="200.0,35.372811456046634 204.62718854395337,40.0 200.0,44.627188543953366 195.37281145604663,40.0" fill="#ff6b35" fill-opacity="0.7340782815930056" stroke-opacity="0.7340782815930056" transform="rotate(25.055871119475416 200.0 40.0)" />
  <polygon points="216.0,37.31678520038358 218.68321479961642,40.0 216.0,42.68321479961642 213.31678520038358,40.0" fill="#efa00b" fill-opacity="0.44248221994246356" stroke-opacity="0.44248221994246356" transform="rotate(356.81383350431526 216.0 40.0)" />
  <polygon points="232.0,34.92581891357082 237.07418108642918,40.0 232.0,45.07418108642918 226.92581891357082,40.0" fill="#efa00b" fill-opacity="0.8011271629643762" stroke-opacity="0.8011271629643762" transform="rotate(329.9154627776718 232.0 40.0)" />
  <polygon points="248.0,33.66260555009058 254.33739444990943,40.0 248.0,46.33739444990942 241.66260555009057,40.0" fill="#efa00b" fill-opacity="0.9906091674864125" stroke-opacity="0.9906091674864125" transform="rotate(315.7043124385191 248.0 40.0)" />
  <polygon points="264.0,34.05986616263708 269.9401338373629,40.0 264.0,45.94013383736292 258.0598661626371,40.0" fill="#efa00b" fill-opacity="0.9310200756044387" stroke-opacity="0.9310200756044387" transform="rotate(320.1734943296671 264.0 40.0)" />
  <polygon points="280.0,35.950068410413444 284.04993158958655,40.0 280.0,44.04993158958656 275.95006841041345,40.0" fill="#efa00b" fill-opacity="0.6474897384379839" stroke-opacity="0.6474897384379839" transform="rotate(341.4382696171512 280.0 40.0)" />
  <polygon points="296.0,36.66392187278815 299.33607812721186,40.0 296.0,43.33607812721185 292.66392187278814,40.0" fill="#ff6b35" fill-opacity="0.5404117190817771" stroke-opacity="0.5404117190817771" transform="rotate(10.530878931133282 296.0 40.0)" />
  <polygon points="312.0,34.47267407012788 317.5273259298721,40.0 312.0,45.52732592987212 306.4726740701279,40.0" fill="#ff6b35" fill-opacity="0.8690988894808177" stroke-opacity="0.8690988894808177" transform="rotate(35.18241671106133 312.0 40.0)" />
  <polygon points="8.0,49.700288351272704 14.299711648727294,56.0 8.0,62.299711648727296 1.7002883512727056,56.0" fill="#ff6b35" fill-opacity="0.9849567473090942" stroke-opacity="0.9849567473090942" transform="rotate(43.871756048182064 8.0 56.0)" />
  <polygon points="24.0,49.97587881712211 30.02412118287789,56.0 24.0,62.02412118287789 17.97587881712211,56.0" fill="#ff6b35" fill-opacity="0.9436181774316839" stroke-opacity="0.9436181774316839" transform="rotate(40.771363307376284 24.0 56.0)" />
  <polygon points="40.0,51.77982997598625 44.22017002401375,56.0 40.0,60.22017002401375 35.77982997598625,56.0" fill="#ff6b35" fill-opacity="0.6730255036020619" stroke-opacity="0.6730255036020619" transform="rotate(20.47691277015464 40.0 56.0)" />
  <polygon points="56.0,52.848618616998614 59.15138138300138,56.0 56.0,59.15138138300138 52.848618616998614,56.0" fill="#efa00b" fill-opacity="0.5127072074502076" stroke-opacity="0.5127072074502076" transform="rotate(351.54695944123443 55.99999999999999 56.0)" />
  <polygon points="72.0,50.5939390013209 77.40606099867911,56.0 72.0,61.4060609986791 66.59393900132089,56.0" fill="#efa00b" fill-opacity="0.8509091498018657" stroke-opacity="0.8509091498018657" transform="rotate(326.18181376486007 72.0 56.0)" />
  <polygon points="88.0,49.60697236745286 94.39302763254713,56.0 88.0,62.39302763254714 81.60697236745287,56.0" fill="#efa00b" fill-opacity="0.9989541448820706" stroke-opacity="0.9989541448820706" transform="rotate(315.0784391338447 88.0 56.0)" />
  <polygon points="104.0,50.30394127871486 109.69605872128514,56.0 104.0,61.69605872128514 98.30394127871486,56.0" fill="#efa00b" fill-opacity="0.8944088081927714" stroke-opacity="0.8944088081927714" transform="rotate(322.9193393855422 104.0 56.0)" />
  <polygon points="120.0,52.39092071591637 123.60907928408363,56.0 120.0,59.60907928408363 116.39092071591637,56.0" fill="#efa00b" fill-opacity="0.5813618926125443" stroke-opacity="0.5813618926125443" transform="rotate(346.39785805405916 120.0 56.0)" />
  <polygon points="136.0,52.21220816299962 139.78779183700038,56.0 136.0,59.78779183700038 132.21220816299962,56.0" fill="#ff6b35" fill-opacity="0.6081687755500569" stroke-opacity="0.6081687755500569" transform="rotate(15.612658166254263 136.0 56.0)" />
  <polygon points="152.0,50.2005952015431 157.7994047984569,56.0 152.0,61.7994047984569 146.2005952015431,56.0" fill="#ff6b35" fill-opacity="0.909910719768535" stroke-opacity="0.909910719768535" transform="rotate(38.24330398264013 152.0 56.0)" />
  <polygon points="168.0,49.62257576840273 174.37742423159727,56.0 168.0,62.37742423159727 161.62257576840273,56.0" fill="#ff6b35" fill-opacity="0.99661363473959" stroke-opacity="0.99661363473959" transform="rotate(44.74602260546925 168.0 56.0)" />
  <polygon points="184.0,50.721911630040445 189.27808836995956,56.0 184.0,61.278088369959555 178.72191163004044,56.0" fill="#ff6b35" fill-opacity="0.8317132554939333" stroke-opacity="0.8317132554939333" transform="rotate(32.378494162044994 184.0 56.0)" />
  <polygon points="200.0,53.03499198688183 202.96500801311817,56.0 200.0,58.96500801311817 197.03499198688183,56.0" fill="#ff6b35" fill-opacity="0.4847512019677257" stroke-opacity="0.4847512019677257" transform="rotate(6.356340147579425 200.0 56.0)" />
  <polygon points="216.0,51.61365305261068 220.3863469473893,56.0 216.0,60.38634694738932 211.6136530526107,56.0" fill="#efa00b" fill-opacity="0.697952042108398" stroke-opacity="0.697952042108398" transform="rotate(337.6535968418701 216.0 56.0)" />
  <polygon points="232.0,49.899978303080275 238.10002169691973,56.0 232.0,62.100021696919725 225.89997830308027,56.0" fill="#efa00b" fill-opacity="0.9550032545379593" stroke-opacity="0.9550032545379593" transform="rotate(318.37475590965306 232.0 56.0)" />
  <polygon points="248.0,49.74667293401943 254.25332706598056,56.0 248.0,62.25332706598057 241.74667293401944,56.0" fill="#efa00b" fill-opacity="0.9779990598970851" stroke-opacity="0.9779990598970851" transform="rotate(316.6500705077186 248.0 56.0)" />
  <polygon points="264.0,51.2183887294821 268.7816112705179,56.0 264.0,60.7816112705179 259.2183887294821,56.0" fill="#efa00b" fill-opacity="0.7572416905776853" stroke-opacity="0.7572416905776853" transform="rotate(333.2068732066736 264.0 56.0)" />
  <polygon points="280.0,53.505524796420815 282.4944752035792,56.0 280.0,58.494475203579185 277.5055247964208,56.0" fill="#ff6b35" fill-opacity="0.41417128053687835" stroke-opacity="0.41417128053687835" transform="rotate(1.062846040265873 280.0 56.0)" />
  <polygon points="296.0,51.06928030892648 300.93071969107353,56.0 296.0,60.93071969107352 291.06928030892647,56.0" fill="#ff6b35" fill-opacity="0.7796079536610281" stroke-opacity="0.7796079536610281" transform="rotate(28.4705965245771 296.0 56.0)" />
  <polygon points="312.0,49.700288351272704 318.2997116487273,56.0 312.0,62.299711648727296 305.7002883512727,56.0" fill="#ff6b35" fill-opacity="0.9849567473090941" stroke-opacity="0.9849567473090941" transform="rotate(43.87175604818206 312.0 56.0)" />
  <polygon points="8.0,65.7002883512727 14.299711648727294,72.0 8.0,78.2997116487273 1.7002883512727056,72.0" fill="#ff6b35" fill-opacity="0.9849567473090942" stroke-opacity="0.9849567473090942" transform="rotate(43.871756048182064 8.0 72.0)" />
  <polygon points="24.0,67.06928030892648 28.93071969107352,72.0 24.0,76.93071969107352 19.06928030892648,72.0" fill="#ff6b35" fill-opacity="0.7796079536610283" stroke-opacity="0.7796079536610283" transform="rotate(28.47059652457712 24.0 72.0)" />
  <polygon points="40.0,69.50552479642081 42.49447520357919,72.0 40.0,74.49447520357919 37.50552479642081,72.0" fill="#ff6b35" fill-opacity="0.4141712805368787" stroke-opacity="0.4141712805368787" transform="rotate(1.0628460402659006 40.0 72.0)" />
  <polygon points="56.0,67.2183887294821 60.7816112705179,72.0 56.0,76.7816112705179 51.2183887294821,72.0" fill="#efa00b" fill-opacity="0.7572416905776849" stroke-opacity="0.7572416905776849" transform="rotate(333.20687320667366 56.0 72.0)" />
  <polygon points="72.0,65.74667293401943 78.25332706598057,72.0 72.0,78.25332706598057 65.74667293401943,72.0" fill="#efa00b" fill-opacity="0.977999059897085" stroke-opacity="0.977999059897085" transform="rotate(316.6500705077186 72.0 72.0)" />
  <polygon points="88.0,65.89997830308027 94.10002169691973,72.0 88.0,78.10002169691973 81.89997830308027,72.0" fill="#efa00b" fill-opacity="0.9550032545379595" stroke-opacity="0.9550032545379595" transform="rotate(318.37475590965306 88.0 72.0)" />
  <polygon points="104.0,67.61365305261067 108.38634694738933,72.0 104.0,76.38634694738933 99.61365305261067,72.0" fill="#efa00b" fill-opacity="0.6979520421083987" stroke-opacity="0.6979520421083987" transform="rotate(337.6535968418701 104.0 72.0)" />
  <polygon points="120.0,69.03499198688183 122.96500801311817,72.0 120.0,74.96500801311817 117.03499198688183,72.0" fill="#ff6b35" fill-opacity="0.4847512019677248" stroke-opacity="0.4847512019677248" transform="rotate(6.356340147579358 120.0 72.0)" />
  <polygon points="136.0,66.72191163004045 141.27808836995956,72.0 136.0,77.27808836995955 130.72191163004044,72.0" fill="#ff6b35" fill-opacity="0.8317132554939326" stroke-opacity="0.8317132554939326" transform="rotate(32.37849416204495 136.0 72.0)" />
  <polygon points="152.0,65.62257576840273 158.37742423159727,72.0 152.0,78.37742423159727 145.62257576840273,72.0" fill="#ff6b35" fill-opacity="0.99661363473959" stroke-opacity="0.99661363473959" transform="rotate(44.74602260546925 152.0 72.0)" />
  <polygon points="168.0,66.2005952015431 173.7994047984569,72.0 168.0,77.7994047984569 162.2005952015431,72.0" fill="#ff6b35" fill-opacity="0.909910719768535" stroke-opacity="0.909910719768535" transform="rotate(38.24330398264012 168.0 72.0)" />
  <polygon points="184.0,68.21220816299962 187.78779183700038,72.0 184.0,75.78779183700038 180.21220816299962,72.0" fill="#ff6b35" fill-opacity="0.6081687755500578" stroke-opacity="0.6081687755500578" transform="rotate(15.61265816625433 184.0 72.0)" />
  <polygon points="200.0,68.39092071591638 203.60907928408363,72.0 200.0,75.60907928408362 196.39092071591637,72.0" fill="#efa00b" fill-opacity="0.5813618926125435" stroke-opacity="0.5813618926125435" transform="rotate(346.39785805405927 200.0 72.0)" />
  <polygon points="216.0,66.30394127871486 221.69605872128514,72.0 216.0,77.69605872128514 210.30394127871486,72.0" fill="#efa00b" fill-opacity="0.8944088081927708" stroke-opacity="0.8944088081927708" transform="rotate(322.9193393855422 216.0 72.0)" />
  <polygon points="232.0,65.60697236745287 238.39302763254713,72.0 232.0,78.39302763254713 225.60697236745287,72.0" fill="#efa00b" fill-opacity="0.9989541448820706" stroke-opacity="0.9989541448820706" transform="rotate(315.0784391338447 232.0 72.0)" />
  <polygon points="248.0,66.59393900132089 253.4060609986791,72.0 248.0,77.40606099867911 242.5939390013209,72.0" fill="#efa00b" fill-opacity="0.850909149801866" stroke-opacity="0.850909149801866" transform="rotate(326.18181376486007 248.0 72.0)" />
  <polygon points="264.0,68.8486186169986 267.15138138300136,72.0 264.0,75.1513813830014 260.84861861699864,72.0" fill="#efa00b" fill-opacity="0.5127072074502081" stroke-opacity="0.5127072074502081" transform="rotate(351.5469594412344 264.0 72.0)" />
  <polygon points="280.0,67.77982997598626 284.2201700240137,72.0 280.0,76.22017002401374 275.7798299759863,72.0" fill="#ff6b35" fill-opacity="0.6730255036020616" stroke-opacity="0.6730255036020616" transform="rotate(20.47691277015462 280.0 72.0)" />
  <polygon points="296.0,65.97587881712211 302.0241211828779,72.0 296.0,78.02412118287789 289.9758788171221,72.0" fill="#ff6b35" fill-opacity="0.9436181774316836" stroke-opacity="0.9436181774316836" transform="rotate(40.77136330737628 296.0 72.0)" />
  <polygon points="312.0,65.7002883512727 318.2997116487273,72.0 312.0,78.2997116487273 305.7002883512727,72.0" fill="#ff6b35" fill-opacity="0.9849567473090942" stroke-opacity="0.9849567473090942" transform="rotate(43.87175604818207 312.0 72.0)" />
  <polygon points="8.0,82.47267407012788 13.52732592987212,88.0 8.0,93.52732592987212 2.47267407012788,88.0" fill="#ff6b35" fill-opacity="0.8690988894808179" stroke-opacity="0.8690988894808179" transform="rotate(35.18241671106134 8.0 88.0)" />
  <polygon points="24.0,84.66392187278815 27.33607812721185,88.0 24.0,91.33607812721185 20.66392187278815,88.0" fill="#ff6b35" fill-opacity="0.5404117190817774" stroke-opacity="0.5404117190817774" transform="rotate(10.530878931133309 24.0 88.0)" />
  <polygon points="40.0,83.95006841041344 44.049931589586556,88.0 40.0,92.04993158958655 35.950068410413444,88.0" fill="#efa00b" fill-opacity="0.6474897384379836" stroke-opacity="0.6474897384379836" transform="rotate(341.4382696171512 40.0 88.0)" />
  <polygon points="56.0,82.05986616263708 61.94013383736292,88.0 56.0,93.94013383736292 50.05986616263708,88.0" fill="#efa00b" fill-opacity="0.9310200756044386" stroke-opacity="0.9310200756044386" transform="rotate(320.1734943296671 56.0 88.0)" />
  <polygon points="72.0,81.66260555009059 78.33739444990943,88.0 72.0,94.33739444990943 65.66260555009059,88.0" fill="#efa00b" fill-opacity="0.9906091674864126" stroke-opacity="0.9906091674864126" transform="rotate(315.7043124385191 72.0 88.0)" />
  <polygon points="88.0,82.92581891357082 93.07418108642918,88.0 88.0,93.07418108642918 82.92581891357082,88.0" fill="#efa00b" fill-opacity="0.8011271629643766" stroke-opacity="0.8011271629643766" transform="rotate(329.9154627776718 88.0 88.0)" />
  <polygon points="104.0,85.31678520038358 106.68321479961642,88.0 104.0,90.68321479961642 101.31678520038358,88.0" fill="#efa00b" fill-opacity="0.4424822199424645" stroke-opacity="0.4424822199424645" transform="rotate(356.81383350431514 104.0 88.0)" />
  <polygon points="120.0,83.37281145604663 124.62718854395337,88.0 120.0,92.62718854395337 115.37281145604663,88.0" fill="#ff6b35" fill-opacity="0.7340782815930049" stroke-opacity="0.7340782815930049" transform="rotate(25.055871119475366 120.0 88.0)" />
  <polygon points="136.0,81.80165579618922 142.19834420381076,88.0 136.0,94.19834420381078 129.80165579618924,88.0" fill="#ff6b35" fill-opacity="0.9697516305716157" stroke-opacity="0.9697516305716157" transform="rotate(42.73137229287118 136.0 88.0)" />
  <polygon points="152.0,81.83233398423722 158.1676660157628,88.0 152.0,94.16766601576278 145.8323339842372,88.0" fill="#ff6b35" fill-opacity="0.9651499023644168" stroke-opacity="0.9651499023644168" transform="rotate(42.38624267733125 152.0 88.0)" />
  <polygon points="168.0,83.45190844598174 172.54809155401827,88.0 168.0,92.54809155401826 163.45190844598173,88.0" fill="#ff6b35" fill-opacity="0.7222137331027393" stroke-opacity="0.7222137331027393" transform="rotate(24.166029982705446 168.0 88.0)" />
  <polygon points="184.0,85.22262611057336 186.77737388942666,88.0 184.0,90.77737388942664 181.22262611057334,88.0" fill="#efa00b" fill-opacity="0.4566060834139967" stroke-opacity="0.4566060834139967" transform="rotate(355.75454374395025 184.0 88.0)" />
  <polygon points="200.0,82.85630639931165 205.14369360068835,88.0 200.0,93.14369360068835 194.85630639931165,88.0" fill="#efa00b" fill-opacity="0.8115540401032524" stroke-opacity="0.8115540401032524" transform="rotate(329.13344699225604 200.0 88.0)" />
  <polygon points="216.0,81.64705435807699 222.35294564192301,88.0 216.0,94.35294564192301 209.64705435807699,88.0" fill="#efa00b" fill-opacity="0.9929418462884521" stroke-opacity="0.9929418462884521" transform="rotate(315.5293615283661 216.0 88.0)" />
  <polygon points="232.0,82.10483452572159 237.8951654742784,88.0 232.0,93.89516547427841 226.1048345257216,88.0" fill="#efa00b" fill-opacity="0.924274821141762" stroke-opacity="0.924274821141762" transform="rotate(320.67938841436785 232.0 88.0)" />
  <polygon points="248.0,84.0365923163295 251.96340768367048,88.0 248.0,91.9634076836705 244.03659231632952,88.0" fill="#efa00b" fill-opacity="0.6345111525505742" stroke-opacity="0.6345111525505742" transform="rotate(342.41166355870695 248.0 88.0)" />
  <polygon points="264.0,84.57233119749353 267.42766880250645,88.0 264.0,91.42766880250647 260.57233119749355,88.0" fill="#ff6b35" fill-opacity="0.554150320375971" stroke-opacity="0.554150320375971" transform="rotate(11.561274028197827 264.0 88.0)" />
  <polygon points="280.0,82.41464215172803 285.585357848272,88.0 280.0,93.58535784827197 274.414642151728,88.0" fill="#ff6b35" fill-opacity="0.8778036772407962" stroke-opacity="0.8778036772407962" transform="rotate(35.83527579305972 280.0 88.0)" />
  <polygon points="296.0,81.60027897251618 302.3997210274838,88.0 296.0,94.39972102748382 289.6002789725162,88.0" fill="#ff6b35" fill-opacity="0.9999581541225729" stroke-opacity="0.9999581541225729" transform="rotate(44.996861559192965 296.0 88.0)" />
  <polygon points="312.0,82.47267407012788 317.5273259298721,88.0 312.0,93.52732592987212 306.4726740701279,88.0" fill="#ff6b35" fill-opacity="0.869098889480818" stroke-opacity="0.869098889480818" transform="rotate(35.18241671106136 312.0 88.0)" />
  <polygon points="8.0,99.86446504352976 12.135534956470233,104.0 8.0,108.13553495647024 3.8644650435297674,104.0" fill="#ff6b35" fill-opacity="0.6603302434705349" stroke-opacity="0.6603302434705349" transform="rotate(19.52476826029012 8.0 104.0)" />
  <polygon points="24.0,100.75603481001103 27.24396518998897,104.0 24.0,107.24396518998897 20.75603481001103,104.0" fill="#efa00b" fill-opacity="0.5265947784983452" stroke-opacity="0.5265947784983452" transform="rotate(350.5053916126241 24.0 104.0)" />
  <polygon points="40.0,98.53245080364833 45.46754919635167,104.0 40.0,109.46754919635167 34.53245080364833,104.0" fill="#efa00b" fill-opacity="0.8601323794527505" stroke-opacity="0.8601323794527505" transform="rotate(325.49007154104373 40.0 104.0)" />
  <polygon points="56.0,97.60251051917406 62.39748948082594,104.0 56.0,110.39748948082594 49.60251051917406,104.0" fill="#efa00b" fill-opacity="0.999623422123891" stroke-opacity="0.999623422123891" transform="rotate(315.0282433407082 56.0 104.0)" />
  <polygon points="72.0,98.35838742594025 77.64161257405975,104.0 72.0,109.64161257405975 66.35838742594025,104.0" fill="#efa00b" fill-opacity="0.8862418861089618" stroke-opacity="0.8862418861089618" transform="rotate(323.5318585418279 72.0 104.0)" />
  <polygon points="88.0,100.48131388490742 91.51868611509258,104.0 88.0,107.51868611509258 84.48131388490742,104.0" fill="#efa00b" fill-opacity="0.5678029172638875" stroke-opacity="0.5678029172638875" transform="rotate(347.41478120520844 88.0 104.0)" />
  <polygon points="104.0,100.12398848737793 107.87601151262207,104.0 104.0,107.87601151262207 100.12398848737793,104.0" fill="#ff6b35" fill-opacity="0.6214017268933112" stroke-opacity="0.6214017268933112" transform="rotate(16.60512951699834 104.0 104.0)" />
  <polygon points="120.0,98.15175293101636 125.84824706898364,104.0 120.0,109.84824706898364 114.15175293101636,104.0" fill="#ff6b35" fill-opacity="0.9172370603475455" stroke-opacity="0.9172370603475455" transform="rotate(38.792779526065914 120.0 104.0)" />
  <polygon points="136.0,97.63370861553734 142.36629138446267,104.0 136.0,110.36629138446267 129.63370861553733,104.0" fill="#ff6b35" fill-opacity="0.9949437076693993" stroke-opacity="0.9949437076693993" transform="rotate(44.620778075204946 136.0 104.0)" />
  <polygon points="152.0,98.78832466188484 157.21167533811516,104.0 152.0,109.21167533811516 146.78832466188484,104.0" fill="#ff6b35" fill-opacity="0.8217513007172725" stroke-opacity="0.8217513007172725" transform="rotate(31.63134755379544 152.0 104.0)" />
  <polygon points="168.0,101.12867756730773 170.87132243269227,104.0 168.0,106.87132243269227 165.12867756730773,104.0" fill="#ff6b35" fill-opacity="0.4706983649038396" stroke-opacity="0.4706983649038396" transform="rotate(5.302377367787967 168.0 104.0)" />
  <polygon points="184.0,99.5322039111343 188.4677960888657,104.0 184.0,108.4677960888657 179.5322039111343,104.0" fill="#efa00b" fill-opacity="0.7101694133298548" stroke-opacity="0.7101694133298548" transform="rotate(336.7372940002609 184.0 104.0)" />
  <polygon points="200.0,97.86511424951703 206.13488575048297,104.0 200.0,110.13488575048297 193.86511424951703,104.0" fill="#efa00b" fill-opacity="0.9602328625724449" stroke-opacity="0.9602328625724449" transform="rotate(317.98253530706666 200.0 104.0)" />
  <polygon points="216.0,97.77309680151878 222.2269031984812,104.0 216.0,110.22690319848122 209.7730968015188,104.0" fill="#efa00b" fill-opacity="0.974035479772183" stroke-opacity="0.974035479772183" transform="rotate(316.9473390170863 216.0 104.0)" />
  <polygon points="232.0,99.29495707156265 236.70504292843736,104.0 232.0,108.70504292843735 227.29495707156266,104.0" fill="#efa00b" fill-opacity="0.7457564392656024" stroke-opacity="0.7457564392656024" transform="rotate(334.0682670550798 232.0 104.0)" />
  <polygon points="248.0,101.41110230297399 250.588897697026,104.0 248.0,106.58889769702601 245.411102302974,104.0" fill="#ff6b35" fill-opacity="0.4283346545539015" stroke-opacity="0.4283346545539015" transform="rotate(2.125099091542612 248.0 104.0)" />
  <polygon points="264.0,98.99682342185282 269.0031765781472,104.0 264.0,109.00317657814718 258.9968234218528,104.0" fill="#ff6b35" fill-opacity="0.7904764867220759" stroke-opacity="0.7904764867220759" transform="rotate(29.28573650415569 264.0 104.0)" />
  <polygon points="280.0,97.68035351517037 286.3196464848296,104.0 280.0,110.31964648482963 273.6803535151704,104.0" fill="#ff6b35" fill-opacity="0.9879469727244445" stroke-opacity="0.9879469727244445" transform="rotate(44.09602295433334 280.0 104.0)" />
  <polygon points="296.0,98.0168729307627 301.9831270692373,104.0 296.0,109.9831270692373 290.0168729307627,104.0" fill="#ff6b35" fill-opacity="0.9374690603855955" stroke-opacity="0.9374690603855955" transform="rotate(40.31017952891967 296.0 104.0)" />
  <polygon points="312.0,99.86446504352976 316.1355349564702,104.0 312.0,108.13553495647024 307.8644650435298,104.0" fill="#ff6b35" fill-opacity="0.6603302434705351" stroke-opacity="0.6603302434705351" transform="rotate(19.52476826029014 312.0 104.0)" />
  <polygon points="8.0,117.6 10.4,120.0 8.0,122.4 5.6,120.0" fill="#ff6b35" fill-opacity="0.4000000000000001" stroke-opacity="0.4000000000000001" transform="rotate(5.5109105961630896e-15 8.0 120.0)" />
  <polygon points="24.0,115.14314914924132 28.856850850758672,120.0 24.0,124.85685085075868 19.143149149241328,120.0" fill="#efa00b" fill-opacity="0.7685276276138007" stroke-opacity="0.7685276276138007" transform="rotate(332.36042792896495 24.0 120.0)" />
  <polygon points="40.0,113.72239893624268 46.277601063757324,120.0 40.0,126.27760106375732 33.722398936242676,120.0" fill="#efa00b" fill-opacity="0.9816401595635982" stroke-opacity="0.9816401595635982" transform="rotate(316.37698803273014 40.0 120.0)" />
  <polygon points="56.0,113.93690669337977 62.06309330662023,120.0 56.0,126.06309330662023 49.93690669337977,120.0" fill="#efa00b" fill-opacity="0.9494639959930344" stroke-opacity="0.9494639959930344" transform="rotate(318.79020030052243 56.0 120.0)" />
  <polygon points="72.0,115.69621042785171 76.30378957214829,120.0 72.0,124.30378957214829 67.69621042785171,120.0" fill="#efa00b" fill-opacity="0.685568435822244" stroke-opacity="0.685568435822244" transform="rotate(338.5823673133317 72.0 120.0)" />
  <polygon points="88.0,116.94162163887707 91.05837836112293,120.0 88.0,123.05837836112293 84.94162163887707,120.0" fill="#ff6b35" fill-opacity="0.4987567541684405" stroke-opacity="0.4987567541684405" transform="rotate(7.406756562633035 88.0 120.0)" />
  <polygon points="104.0,114.65710435730747 109.34289564269253,120.0 104.0,125.34289564269253 98.65710435730747,120.0" fill="#ff6b35" fill-opacity="0.8414343464038787" stroke-opacity="0.8414343464038787" transform="rotate(33.1075759802909 104.0 120.0)" />
  <polygon points="120.0,113.61366202797332 126.38633797202668,120.0 120.0,126.38633797202668 113.61366202797332,120.0" fill="#ff6b35" fill-opacity="0.9979506958040019" stroke-opacity="0.9979506958040019" transform="rotate(44.84630218530015 120.0 120.0)" />
  <polygon points="136.0,114.25133408694988 141.7486659130501,120.0 136.0,125.74866591305012 130.2513340869499,120.0" fill="#ff6b35" fill-opacity="0.902299886957517" stroke-opacity="0.902299886957517" transform="rotate(37.672491521813775 136.0 120.0)" />
  <polygon points="152.0,116.30120212318126 155.69879787681873,120.0 152.0,123.69879787681874 148.30120212318127,120.0" fill="#ff6b35" fill-opacity="0.5948196815228108" stroke-opacity="0.5948196815228108" transform="rotate(14.611476114210813 152.0 120.0)" />
  <polygon points="168.0,116.30120212318127 171.69879787681873,120.0 168.0,123.69879787681873 164.30120212318127,120.0" fill="#efa00b" fill-opacity="0.5948196815228104" stroke-opacity="0.5948196815228104" transform="rotate(345.3885238857892 168.0 120.0)" />
  <polygon points="184.0,114.2513340869499 189.7486659130501,120.0 184.0,125.7486659130501 178.2513340869499,120.0" fill="#efa00b" fill-opacity="0.9022998869575167" stroke-opacity="0.9022998869575167" transform="rotate(322.32750847818625 184.0 120.0)" />
  <polygon points="200.0,113.61366202797332 206.3863379720267,120.0 200.0,126.38633797202668 193.61366202797333,120.0" fill="#efa00b" fill-opacity="0.997950695804002" stroke-opacity="0.997950695804002" transform="rotate(315.15369781469985 200.0 120.0)" />
  <polygon points="216.0,114.65710435730747 221.34289564269253,120.0 216.0,125.34289564269253 210.65710435730747,120.0" fill="#efa00b" fill-opacity="0.8414343464038794" stroke-opacity="0.8414343464038794" transform="rotate(326.89242401970904 216.0 120.0)" />
  <polygon points="232.0,116.94162163887707 235.05837836112295,120.0 232.0,123.05837836112293 228.94162163887705,120.0" fill="#efa00b" fill-opacity="0.4987567541684409" stroke-opacity="0.4987567541684409" transform="rotate(352.59324343736694 232.0 120.0)" />
  <polygon points="248.0,115.69621042785171 252.3037895721483,120.0 248.0,124.30378957214829 243.6962104278517,120.0" fill="#ff6b35" fill-opacity="0.6855684358222437" stroke-opacity="0.6855684358222437" transform="rotate(21.417632686668277 248.0 120.0)" />
  <polygon points="264.0,113.93690669337977 270.0630933066202,120.0 264.0,126.06309330662023 257.9369066933798,120.0" fill="#ff6b35" fill-opacity="0.9494639959930342" stroke-opacity="0.9494639959930342" transform="rotate(41.20979969947757 264.0 120.0)" />
  <polygon points="280.0,113.72239893624268 286.27760106375734,120.0 280.0,126.27760106375732 273.72239893624266,120.0" fill="#ff6b35" fill-opacity="0.9816401595635984" stroke-opacity="0.9816401595635984" transform="rotate(43.623011967269875 280.0 120.0)" />
  <polygon points="296.0,115.14314914924132 300.8568508507587,120.0 296.0,124.85685085075868 291.1431491492413,120.0" fill="#ff6b35" fill-opacity="0.7685276276138011" stroke-opacity="0.7685276276138011" transform="rotate(27.639572071035076 296.0 120.0)" />
  <polygon points="312.0,117.6 314.4,120.0 312.0,122.4 309.6,120.0" fill="#ff6b35" fill-opacity="0.4000000000000004" stroke-opacity="0.4000000000000004" transform="rotate(2.755455298081545e-14 312.0 120.0)" />
  <polygon points="8.0,131.86446504352978 12.13553495647023,136.0 8.0,140.13553495647022 3.8644650435297683,136.0" fill="#efa00b" fill-opacity="0.6603302434705348" stroke-opacity="0.6603302434705348" transform="rotate(340.4752317397099 8.0 136.0)" />
  <polygon points="24.0,130.0168729307627 29.9831270692373,136.0 24.0,141.9831270692373 18.0168729307627,136.0" fill="#efa00b" fill-opacity="0.9374690603855953" stroke-opacity="0.9374690603855953" transform="rotate(319.68982047108034 24.0 136.0)" />
  <polygon points="40.0,129.68035351517037 46.31964648482963,136.0 40.0,142.31964648482963 33.68035351517037,136.0" fill="#efa00b" fill-opacity="0.9879469727244446" stroke-opacity="0.9879469727244446" transform="rotate(315.90397704566664 40.0 136.0)" />
  <polygon points="56.0,130.99682342185284 61.003176578147176,136.0 56.0,141.00317657814716 50.996823421852824,136.0" fill="#efa00b" fill-opacity="0.7904764867220762" stroke-opacity="0.7904764867220762" transform="rotate(330.7142634958443 56.0 136.0)" />
  <polygon points="72.0,133.41110230297397 74.58889769702601,136.0 72.0,138.58889769702603 69.41110230297399,136.0" fill="#efa00b" fill-opacity="0.42833465455390196" stroke-opacity="0.42833465455390196" transform="rotate(357.87490090845733 72.0 136.0)" />
  <polygon points="88.0,131.29495707156266 92.70504292843735,136.0 88.0,140.70504292843734 83.29495707156265,136.0" fill="#ff6b35" fill-opacity="0.7457564392656022" stroke-opacity="0.7457564392656022" transform="rotate(25.93173294492016 88.0 136.0)" />
  <polygon points="104.0,129.7730968015188 110.22690319848121,136.0 104.0,142.2269031984812 97.77309680151878,136.0" fill="#ff6b35" fill-opacity="0.9740354797721827" stroke-opacity="0.9740354797721827" transform="rotate(43.05266098291371 103.99999999999999 136.0)" />
  <polygon points="120.0,129.86511424951703 126.13488575048297,136.0 120.0,142.13488575048297 113.86511424951703,136.0" fill="#ff6b35" fill-opacity="0.9602328625724454" stroke-opacity="0.9602328625724454" transform="rotate(42.0174646929334 120.0 136.0)" />
  <polygon points="136.0,131.5322039111343 140.4677960888657,136.0 136.0,140.4677960888657 131.5322039111343,136.0" fill="#ff6b35" fill-opacity="0.7101694133298551" stroke-opacity="0.7101694133298551" transform="rotate(23.262705999739133 136.0 136.0)" />
  <polygon points="152.0,133.12867756730773 154.87132243269227,136.0 152.0,138.87132243269227 149.12867756730773,136.0" fill="#efa00b" fill-opacity="0.47069836490383915" stroke-opacity="0.47069836490383915" transform="rotate(354.6976226322121 152.0 136.0)" />
  <polygon points="168.0,130.78832466188484 173.21167533811516,136.0 168.0,141.21167533811516 162.78832466188484,136.0" fill="#efa00b" fill-opacity="0.8217513007172723" stroke-opacity="0.8217513007172723" transform="rotate(328.3686524462046 168.0 136.0)" />
  <polygon points="184.0,129.63370861553733 190.36629138446267,136.0 184.0,142.36629138446267 177.63370861553733,136.0" fill="#efa00b" fill-opacity="0.9949437076693992" stroke-opacity="0.9949437076693992" transform="rotate(315.37922192479505 184.0 136.0)" />
  <polygon points="200.0,130.15175293101635 205.84824706898365,136.0 200.0,141.84824706898365 194.15175293101635,136.0" fill="#efa00b" fill-opacity="0.917237060347546" stroke-opacity="0.917237060347546" transform="rotate(321.20722047393406 200.0 136.0)" />
  <polygon points="216.0,132.12398848737791 219.87601151262209,136.0 216.0,139.87601151262209 212.12398848737791,136.0" fill="#efa00b" fill-opacity="0.6214017268933121" stroke-opacity="0.6214017268933121" transform="rotate(343.39487048300157 216.0 136.0)" />
  <polygon points="232.0,132.48131388490742 235.51868611509258,136.0 232.0,139.51868611509258 228.48131388490742,136.0" fill="#ff6b35" fill-opacity="0.5678029172638871" stroke-opacity="0.5678029172638871" transform="rotate(12.58521879479153 232.0 136.0)" />
  <polygon points="248.0,130.35838742594026 253.64161257405974,136.0 248.0,141.64161257405974 242.35838742594026,136.0" fill="#ff6b35" fill-opacity="0.8862418861089616" stroke-opacity="0.8862418861089616" transform="rotate(36.46814145817211 248.0 136.0)" />
  <polygon points="264.0,129.60251051917405 270.3974894808259,136.0 264.0,142.39748948082595 257.6025105191741,136.0" fill="#ff6b35" fill-opacity="0.9996234221238911" stroke-opacity="0.9996234221238911" transform="rotate(44.971756659291835 264.0 136.0)" />
  <polygon points="280.0,130.53245080364832 285.4675491963517,136.0 280.0,141.46754919635168 274.5324508036483,136.0" fill="#ff6b35" fill-opacity="0.8601323794527507" stroke-opacity="0.8601323794527507" transform="rotate(34.5099284589563 280.0 136.0)" />
  <polygon points="296.0,132.75603481001102 299.24396518998896,136.0 296.0,139.24396518998898 292.75603481001104,136.0" fill="#ff6b35" fill-opacity="0.5265947784983457" stroke-opacity="0.5265947784983457" transform="rotate(9.494608387375923 296.0 136.0)" />
  <polygon points="312.0,131.86446504352978 316.1355349564702,136.0 312.0,140.13553495647022 307.8644650435298,136.0" fill="#efa00b" fill-opacity="0.6603302434705345" stroke-opacity="0.6603302434705345" transform="rotate(340.4752317397099 312.0 136.0)" />
  <polygon points="8.0,146.47267407012788 13.527325929872118,152.0 8.0,157.52732592987212 2.4726740701278818,152.0" fill="#efa00b" fill-opacity="0.8690988894808178" stroke-opacity="0.8690988894808178" transform="rotate(324.81758328893864 8.0 152.0)" />
  <polygon points="24.0,145.60027897251618 30.39972102748382,152.0 24.0,158.39972102748382 17.60027897251618,152.0" fill="#efa00b" fill-opacity="0.9999581541225729" stroke-opacity="0.9999581541225729" transform="rotate(315.00313844080705 24.0 152.0)" />
  <polygon points="40.0,146.41464215172803 45.585357848271975,152.0 40.0,157.58535784827197 34.414642151728025,152.0" fill="#efa00b" fill-opacity="0.8778036772407966" stroke-opacity="0.8778036772407966" transform="rotate(324.16472420694026 40.0 152.0)" />
  <polygon points="56.0,148.57233119749353 59.427668802506474,152.0 56.0,155.42766880250647 52.572331197493526,152.0" fill="#efa00b" fill-opacity="0.5541503203759715" stroke-opacity="0.5541503203759715" transform="rotate(348.4387259718021 56.0 152.0)" />
  <polygon points="72.0,148.03659231632952 75.9634076836705,152.0 72.0,155.96340768367048 68.0365923163295,152.0" fill="#ff6b35" fill-opacity="0.6345111525505738" stroke-opacity="0.6345111525505738" transform="rotate(17.588336441293034 72.0 152.0)" />
  <polygon points="88.0,146.1048345257216 93.89516547427841,152.0 88.0,157.8951654742784 82.10483452572159,152.0" fill="#ff6b35" fill-opacity="0.9242748211417617" stroke-opacity="0.9242748211417617" transform="rotate(39.32061158563213 88.0 152.0)" />
  <polygon points="104.0,145.64705435807699 110.35294564192301,152.0 104.0,158.35294564192301 97.64705435807699,152.0" fill="#ff6b35" fill-opacity="0.9929418462884522" stroke-opacity="0.9929418462884522" transform="rotate(44.47063847163391 104.0 152.0)" />
  <polygon points="120.0,146.85630639931165 125.14369360068835,152.0 120.0,157.14369360068835 114.85630639931165,152.0" fill="#ff6b35" fill-opacity="0.8115540401032535" stroke-opacity="0.8115540401032535" transform="rotate(30.866553007744013 120.0 152.0)" />
  <polygon points="136.0,149.22262611057334 138.77737388942666,152.0 136.0,154.77737388942666 133.22262611057334,152.0" fill="#ff6b35" fill-opacity="0.45660608341399717" stroke-opacity="0.45660608341399717" transform="rotate(4.245456256049787 136.0 152.0)" />
  <polygon points="152.0,147.45190844598173 156.54809155401827,152.0 152.0,156.54809155401827 147.45190844598173,152.0" fill="#efa00b" fill-opacity="0.722213733102739" stroke-opacity="0.722213733102739" transform="rotate(335.8339700172946 152.0 152.0)" />
  <polygon points="168.0,145.8323339842372 174.1676660157628,152.0 168.0,158.1676660157628 161.8323339842372,152.0" fill="#efa00b" fill-opacity="0.9651499023644166" stroke-opacity="0.9651499023644166" transform="rotate(317.6137573226688 168.0 152.0)" />
  <polygon points="184.0,145.80165579618924 190.19834420381076,152.0 184.0,158.19834420381076 177.80165579618924,152.0" fill="#efa00b" fill-opacity="0.9697516305716161" stroke-opacity="0.9697516305716161" transform="rotate(317.2686277071288 184.0 152.0)" />
  <polygon points="200.0,147.37281145604663 204.62718854395337,152.0 200.0,156.62718854395337 195.37281145604663,152.0" fill="#efa00b" fill-opacity="0.7340782815930056" stroke-opacity="0.7340782815930056" transform="rotate(334.9441288805246 200.0 152.0)" />
  <polygon points="216.0,149.31678520038358 218.68321479961642,152.0 216.0,154.68321479961642 213.31678520038358,152.0" fill="#ff6b35" fill-opacity="0.4424822199424635" stroke-opacity="0.4424822199424635" transform="rotate(3.1861664956847613 216.0 152.0)" />
  <polygon points="232.0,146.92581891357082 237.07418108642918,152.0 232.0,157.07418108642918 226.92581891357082,152.0" fill="#ff6b35" fill-opacity="0.8011271629643762" stroke-opacity="0.8011271629643762" transform="rotate(30.084537222328215 232.0 152.0)" />
  <polygon points="248.0,145.66260555009057 254.33739444990943,152.0 248.0,158.33739444990943 241.66260555009057,152.0" fill="#ff6b35" fill-opacity="0.9906091674864125" stroke-opacity="0.9906091674864125" transform="rotate(44.29568756148094 248.0 152.0)" />
  <polygon points="264.0,146.05986616263706 269.9401338373629,152.0 264.0,157.94013383736294 258.0598661626371,152.0" fill="#ff6b35" fill-opacity="0.9310200756044388" stroke-opacity="0.9310200756044388" transform="rotate(39.82650567033291 264.0 152.0)" />
  <polygon points="280.0,147.95006841041345 284.04993158958655,152.0 280.0,156.04993158958655 275.95006841041345,152.0" fill="#ff6b35" fill-opacity="0.647489738437984" stroke-opacity="0.647489738437984" transform="rotate(18.561730382848797 280.0 152.0)" />
  <polygon points="296.0,148.66392187278817 299.33607812721186,152.0 296.0,155.33607812721183 292.66392187278814,152.0" fill="#efa00b" fill-opacity="0.540411719081777" stroke-opacity="0.540411719081777" transform="rotate(349.46912106886674 296.0 152.0)" />
  <polygon points="312.0,146.47267407012788 317.5273259298721,152.0 312.0,157.52732592987212 306.4726740701279,152.0" fill="#efa00b" fill-opacity="0.8690988894808177" stroke-opacity="0.8690988894808177" transform="rotate(324.8175832889387 312.0 152.0)" />
  <polygon points="8.0,161.70028835127272 14.299711648727294,168.0 8.0,174.29971164872728 1.7002883512727056,168.0" fill="#efa00b" fill-opacity="0.9849567473090941" stroke-opacity="0.9849567473090941" transform="rotate(316.1282439518179 8.0 168.0)" />
  <polygon points="24.0,161.9758788171221 30.02412118287789,168.0 24.0,174.02412118287788 17.97587881712211,168.0" fill="#efa00b" fill-opacity="0.9436181774316839" stroke-opacity="0.9436181774316839" transform="rotate(319.2286366926237 24.0 168.0)" />
  <polygon points="40.0,163.77982997598625 44.22017002401375,168.0 40.0,172.22017002401375 35.77982997598625,168.0" fill="#efa00b" fill-opacity="0.673025503602062" stroke-opacity="0.673025503602062" transform="rotate(339.5230872298454 40.0 168.0)" />
  <polygon points="56.0,164.8486186169986 59.151381383001386,168.0 56.0,171.1513813830014 52.848618616998614,168.0" fill="#ff6b35" fill-opacity="0.5127072074502077" stroke-opacity="0.5127072074502077" transform="rotate(8.45304055876558 56.0 168.0)" />
  <polygon points="72.0,162.5939390013209 77.40606099867911,168.0 72.0,173.4060609986791 66.59393900132089,168.0" fill="#ff6b35" fill-opacity="0.8509091498018658" stroke-opacity="0.8509091498018658" transform="rotate(33.81818623513993 72.0 168.0)" />
  <polygon points="88.0,161.60697236745287 94.39302763254713,168.0 88.0,174.39302763254713 81.60697236745287,168.0" fill="#ff6b35" fill-opacity="0.9989541448820706" stroke-opacity="0.9989541448820706" transform="rotate(44.92156086615529 88.0 168.0)" />
  <polygon points="104.0,162.30394127871486 109.69605872128514,168.0 104.0,173.69605872128514 98.30394127871486,168.0" fill="#ff6b35" fill-opacity="0.894408808192771" stroke-opacity="0.894408808192771" transform="rotate(37.08066061445783 104.0 168.0)" />
  <polygon points="120.0,164.39092071591637 123.60907928408363,168.0 120.0,171.60907928408363 116.39092071591637,168.0" fill="#ff6b35" fill-opacity="0.5813618926125449" stroke-opacity="0.5813618926125449" transform="rotate(13.602141945940867 120.0 168.0)" />
  <polygon points="136.0,164.21220816299962 139.78779183700038,168.0 136.0,171.78779183700038 132.21220816299962,168.0" fill="#efa00b" fill-opacity="0.6081687755500573" stroke-opacity="0.6081687755500573" transform="rotate(344.3873418337457 136.0 168.0)" />
  <polygon points="152.0,162.2005952015431 157.7994047984569,168.0 152.0,173.7994047984569 146.2005952015431,168.0" fill="#efa00b" fill-opacity="0.9099107197685348" stroke-opacity="0.9099107197685348" transform="rotate(321.7566960173599 152.0 168.0)" />
  <polygon points="168.0,161.62257576840273 174.37742423159727,168.0 168.0,174.37742423159727 161.62257576840273,168.0" fill="#efa00b" fill-opacity="0.99661363473959" stroke-opacity="0.99661363473959" transform="rotate(315.25397739453075 168.0 168.0)" />
  <polygon points="184.0,162.72191163004044 189.27808836995956,168.0 184.0,173.27808836995956 178.72191163004044,168.0" fill="#efa00b" fill-opacity="0.8317132554939333" stroke-opacity="0.8317132554939333" transform="rotate(327.621505837955 184.0 168.0)" />
  <polygon points="200.0,165.03499198688183 202.96500801311817,168.0 200.0,170.96500801311817 197.03499198688183,168.0" fill="#efa00b" fill-opacity="0.48475120196772575" stroke-opacity="0.48475120196772575" transform="rotate(353.64365985242057 200.0 168.0)" />
  <polygon points="216.0,163.6136530526107 220.3863469473893,168.0 216.0,172.3863469473893 211.6136530526107,168.0" fill="#ff6b35" fill-opacity="0.6979520421083979" stroke-opacity="0.6979520421083979" transform="rotate(22.346403158129842 216.0 168.0)" />
  <polygon points="232.0,161.89997830308027 238.10002169691973,168.0 232.0,174.10002169691973 225.89997830308027,168.0" fill="#ff6b35" fill-opacity="0.9550032545379593" stroke-opacity="0.9550032545379593" transform="rotate(41.625244090346946 232.0 168.0)" />
  <polygon points="248.0,161.74667293401944 254.25332706598056,168.0 248.0,174.25332706598056 241.74667293401944,168.0" fill="#ff6b35" fill-opacity="0.9779990598970851" stroke-opacity="0.9779990598970851" transform="rotate(43.34992949228138 248.0 168.0)" />
  <polygon points="264.0,163.2183887294821 268.7816112705179,168.0 264.0,172.7816112705179 259.2183887294821,168.0" fill="#ff6b35" fill-opacity="0.7572416905776854" stroke-opacity="0.7572416905776854" transform="rotate(26.793126793326405 264.0 168.0)" />
  <polygon points="280.0,165.50552479642081 282.4944752035792,168.0 280.0,170.49447520357919 277.5055247964208,168.0" fill="#efa00b" fill-opacity="0.41417128053687824" stroke-opacity="0.41417128053687824" transform="rotate(358.93715395973413 280.0 168.0)" />
  <polygon points="296.0,163.0692803089265 300.93071969107353,168.0 296.0,172.9307196910735 291.06928030892647,168.0" fill="#efa00b" fill-opacity="0.7796079536610271" stroke-opacity="0.7796079536610271" transform="rotate(331.52940347542295 296.0 168.0)" />
  <polygon points="312.0,161.70028835127272 318.2997116487273,168.0 312.0,174.29971164872728 305.7002883512727,168.0" fill="#efa00b" fill-opacity="0.9849567473090941" stroke-opacity="0.9849567473090941" transform="rotate(316.1282439518179 312.0 168.0)" />
  <polygon points="8.0,177.70028835127272 14.299711648727294,184.0 8.0,190.29971164872728 1.7002883512727056,184.0" fill="#efa00b" fill-opacity="0.9849567473090942" stroke-opacity="0.9849567473090942" transform="rotate(316.1282439518179 8.0 184.0)" />
  <polygon points="24.0,179.06928030892647 28.93071969107352,184.0 24.0,188.93071969107353 19.06928030892648,184.0" fill="#efa00b" fill-opacity="0.7796079536610283" stroke-opacity="0.7796079536610283" transform="rotate(331.5294034754229 24.0 184.0)" />
  <polygon points="40.0,181.50552479642081 42.49447520357919,184.0 40.0,186.49447520357919 37.50552479642081,184.0" fill="#efa00b" fill-opacity="0.4141712805368788" stroke-opacity="0.4141712805368788" transform="rotate(358.9371539597341 40.0 184.0)" />
  <polygon points="56.0,179.21838872948211 60.7816112705179,184.0 56.0,188.78161127051789 51.2183887294821,184.0" fill="#ff6b35" fill-opacity="0.7572416905776851" stroke-opacity="0.7572416905776851" transform="rotate(26.793126793326376 56.0 184.0)" />
  <polygon points="72.0,177.74667293401944 78.25332706598057,184.0 72.0,190.25332706598056 65.74667293401943,184.0" fill="#ff6b35" fill-opacity="0.977999059897085" stroke-opacity="0.977999059897085" transform="rotate(43.349929492281376 72.0 184.0)" />
  <polygon points="88.0,177.89997830308027 94.10002169691973,184.0 88.0,190.10002169691973 81.89997830308027,184.0" fill="#ff6b35" fill-opacity="0.9550032545379595" stroke-opacity="0.9550032545379595" transform="rotate(41.62524409034696 88.0 184.0)" />
  <polygon points="104.0,179.6136530526107 108.38634694738933,184.0 104.0,188.3863469473893 99.61365305261067,184.0" fill="#ff6b35" fill-opacity="0.6979520421083982" stroke-opacity="0.6979520421083982" transform="rotate(22.34640315812987 104.0 184.0)" />
  <polygon points="120.0,181.03499198688183 122.96500801311817,184.0 120.0,186.96500801311817 117.03499198688183,184.0" fill="#efa00b" fill-opacity="0.4847512019677242" stroke-opacity="0.4847512019677242" transform="rotate(353.6436598524207 120.0 184.0)" />
  <polygon points="136.0,178.72191163004044 141.27808836995956,184.0 136.0,189.27808836995956 130.72191163004044,184.0" fill="#efa00b" fill-opacity="0.8317132554939329" stroke-opacity="0.8317132554939329" transform="rotate(327.62150583795506 136.0 184.0)" />
  <polygon points="152.0,177.62257576840273 158.37742423159727,184.0 152.0,190.37742423159727 145.62257576840273,184.0" fill="#efa00b" fill-opacity="0.99661363473959" stroke-opacity="0.99661363473959" transform="rotate(315.25397739453075 152.0 184.0)" />
  <polygon points="168.0,178.2005952015431 173.7994047984569,184.0 168.0,189.7994047984569 162.2005952015431,184.0" fill="#efa00b" fill-opacity="0.909910719768535" stroke-opacity="0.909910719768535" transform="rotate(321.7566960173599 168.0 184.0)" />
  <polygon points="184.0,180.21220816299962 187.78779183700038,184.0 184.0,187.78779183700038 180.21220816299962,184.0" fill="#efa00b" fill-opacity="0.6081687755500578" stroke-opacity="0.6081687755500578" transform="rotate(344.38734183374567 184.0 184.0)" />
  <polygon points="200.0,180.39092071591637 203.60907928408363,184.0 200.0,187.60907928408363 196.39092071591637,184.0" fill="#ff6b35" fill-opacity="0.5813618926125433" stroke-opacity="0.5813618926125433" transform="rotate(13.602141945940753 200.0 184.0)" />
  <polygon points="216.0,178.30394127871486 221.69605872128514,184.0 216.0,189.69605872128514 210.30394127871486,184.0" fill="#ff6b35" fill-opacity="0.8944088081927708" stroke-opacity="0.8944088081927708" transform="rotate(37.08066061445781 216.0 184.0)" />
  <polygon points="232.0,177.60697236745287 238.39302763254713,184.0 232.0,190.39302763254713 225.60697236745287,184.0" fill="#ff6b35" fill-opacity="0.9989541448820706" stroke-opacity="0.9989541448820706" transform="rotate(44.92156086615529 232.0 184.0)" />
  <polygon points="248.0,178.5939390013209 253.4060609986791,184.0 248.0,189.4060609986791 242.5939390013209,184.0" fill="#ff6b35" fill-opacity="0.8509091498018662" stroke-opacity="0.8509091498018662" transform="rotate(33.81818623513997 248.0 184.0)" />
  <polygon points="264.0,180.8486186169986 267.15138138300136,184.0 264.0,187.1513813830014 260.84861861699864,184.0" fill="#ff6b35" fill-opacity="0.5127072074502083" stroke-opacity="0.5127072074502083" transform="rotate(8.453040558765617 264.0 184.0)" />
  <polygon points="280.0,179.77982997598625 284.2201700240137,184.0 280.0,188.22017002401375 275.7798299759863,184.0" fill="#efa00b" fill-opacity="0.6730255036020616" stroke-opacity="0.6730255036020616" transform="rotate(339.5230872298454 280.0 184.0)" />
  <polygon points="296.0,177.9758788171221 302.0241211828779,184.0 296.0,190.0241211828779 289.9758788171221,184.0" fill="#efa00b" fill-opacity="0.9436181774316841" stroke-opacity="0.9436181774316841" transform="rotate(319.2286366926237 296.0 184.0)" />
  <polygon points="312.0,177.70028835127272 318.2997116487273,184.0 312.0,190.29971164872728 305.7002883512727,184.0" fill="#efa00b" fill-opacity="0.9849567473090942" stroke-opacity="0.9849567473090942" transform="rotate(316.1282439518179 312.0 184.0)" />
  <polygon points="8.0,194.47267407012788 13.52732592987212,200.0 8.0,205.52732592987212 2.47267407012788,200.0" fill="#efa00b" fill-opacity="0.8690988894808179" stroke-opacity="0.8690988894808179" transform="rotate(324.81758328893864 8.0 200.0)" />
  <polygon points="24.0,196.66392187278814 27.33607812721185,200.0 24.0,203.33607812721186 20.66392187278815,200.0" fill="#efa00b" fill-opacity="0.5404117190817775" stroke-opacity="0.5404117190817775" transform="rotate(349.4691210688667 24.0 200.0)" />
  <polygon points="40.0,195.95006841041345 44.049931589586556,200.0 40.0,204.04993158958655 35.950068410413444,200.0" fill="#ff6b35" fill-opacity="0.6474897384379835" stroke-opacity="0.6474897384379835" transform="rotate(18.56173038284876 40.0 200.0)" />
  <polygon points="56.0,194.05986616263706 61.94013383736292,200.0 56.0,205.94013383736294 50.05986616263708,200.0" fill="#ff6b35" fill-opacity="0.9310200756044386" stroke-opacity="0.9310200756044386" transform="rotate(39.826505670332885 56.0 200.0)" />
  <polygon points="72.0,193.66260555009057 78.33739444990943,200.0 72.0,206.33739444990943 65.66260555009059,200.0" fill="#ff6b35" fill-opacity="0.9906091674864126" stroke-opacity="0.9906091674864126" transform="rotate(44.29568756148094 72.0 200.0)" />
  <polygon points="88.0,194.92581891357082 93.07418108642918,200.0 88.0,205.07418108642918 82.92581891357082,200.0" fill="#ff6b35" fill-opacity="0.8011271629643766" stroke-opacity="0.8011271629643766" transform="rotate(30.08453722232824 88.0 200.0)" />
  <polygon points="104.0,197.31678520038358 106.68321479961642,200.0 104.0,202.68321479961642 101.31678520038358,200.0" fill="#ff6b35" fill-opacity="0.442482219942464" stroke-opacity="0.442482219942464" transform="rotate(3.186166495684799 104.0 200.0)" />
  <polygon points="120.0,195.37281145604663 124.62718854395337,200.0 120.0,204.62718854395337 115.37281145604663,200.0" fill="#efa00b" fill-opacity="0.7340782815930044" stroke-opacity="0.7340782815930044" transform="rotate(334.94412888052466 120.0 200.0)" />
  <polygon points="136.0,193.80165579618924 142.19834420381076,200.0 136.0,206.19834420381076 129.80165579618924,200.0" fill="#efa00b" fill-opacity="0.969751630571616" stroke-opacity="0.969751630571616" transform="rotate(317.2686277071288 136.0 200.0)" />
  <polygon points="152.0,193.8323339842372 158.1676660157628,200.0 152.0,206.1676660157628 145.8323339842372,200.0" fill="#efa00b" fill-opacity="0.9651499023644168" stroke-opacity="0.9651499023644168" transform="rotate(317.61375732266873 152.0 200.0)" />
  <polygon points="168.0,195.45190844598173 172.54809155401827,200.0 168.0,204.54809155401827 163.45190844598173,200.0" fill="#efa00b" fill-opacity="0.7222137331027394" stroke-opacity="0.7222137331027394" transform="rotate(335.8339700172945 168.0 200.0)" />
  <polygon points="184.0,197.22262611057334 186.77737388942666,200.0 184.0,202.77737388942666 181.22262611057334,200.0" fill="#ff6b35" fill-opacity="0.45660608341399667" stroke-opacity="0.45660608341399667" transform="rotate(4.245456256049748 184.0 200.0)" />
  <polygon points="200.0,194.85630639931165 205.14369360068835,200.0 200.0,205.14369360068835 194.85630639931165,200.0" fill="#ff6b35" fill-opacity="0.8115540401032524" stroke-opacity="0.8115540401032524" transform="rotate(30.866553007743928 200.0 200.0)" />
  <polygon points="216.0,193.64705435807699 222.35294564192301,200.0 216.0,206.35294564192301 209.64705435807699,200.0" fill="#ff6b35" fill-opacity="0.9929418462884521" stroke-opacity="0.9929418462884521" transform="rotate(44.470638471633904 216.0 200.0)" />
  <polygon points="232.0,194.1048345257216 237.8951654742784,200.0 232.0,205.8951654742784 226.1048345257216,200.0" fill="#ff6b35" fill-opacity="0.924274821141762" stroke-opacity="0.924274821141762" transform="rotate(39.32061158563215 232.0 200.0)" />
  <polygon points="248.0,196.03659231632952 251.96340768367048,200.0 248.0,203.96340768367048 244.03659231632952,200.0" fill="#ff6b35" fill-opacity="0.6345111525505742" stroke-opacity="0.6345111525505742" transform="rotate(17.588336441293066 248.0 200.0)" />
  <polygon points="264.0,196.57233119749353 267.42766880250645,200.0 264.0,203.42766880250647 260.57233119749355,200.0" fill="#efa00b" fill-opacity="0.554150320375971" stroke-opacity="0.554150320375971" transform="rotate(348.43872597180217 264.0 200.0)" />
  <polygon points="280.0,194.41464215172803 285.585357848272,200.0 280.0,205.58535784827197 274.414642151728,200.0" fill="#efa00b" fill-opacity="0.8778036772407962" stroke-opacity="0.8778036772407962" transform="rotate(324.16472420694026 280.0 200.0)" />
  <polygon points="296.0,193.60027897251618 302.3997210274838,200.0 296.0,206.39972102748382 289.6002789725162,200.0" fill="#efa00b" fill-opacity="0.9999581541225729" stroke-opacity="0.9999581541225729" transform="rotate(315.00313844080705 296.0 200.0)" />
  <polygon points="312.0,194.47267407012788 317.5273259298721,200.0 312.0,205.52732592987212 306.4726740701279,200.0" fill="#efa00b" fill-opacity="0.8690988894808181" stroke-opacity="0.8690988894808181" transform="rotate(324.81758328893864 312.0 200.0)" />
  <polygon points="8.0,211.86446504352978 12.135534956470233,216.0 8.0,220.13553495647022 3.8644650435297674,216.0" fill="#efa00b" fill-opacity="0.6603302434705349" stroke-opacity="0.6603302434705349" transform="rotate(340.4752317397099 8.0 216.0)" />
  <polygon points="24.0,212.75603481001104 27.24396518998897,216.0 24.0,219.24396518998896 20.75603481001103,216.0" fill="#ff6b35" fill-opacity="0.5265947784983451" stroke-opacity="0.5265947784983451" transform="rotate(9.494608387375886 24.0 216.0)" />
  <polygon points="40.0,210.53245080364832 45.46754919635167,216.0 40.0,221.46754919635168 34.53245080364833,216.0" fill="#ff6b35" fill-opacity="0.8601323794527505" stroke-opacity="0.8601323794527505" transform="rotate(34.50992845895628 40.0 216.0)" />
  <polygon points="56.0,209.60251051917405 62.39748948082594,216.0 56.0,222.39748948082593 49.60251051917406,216.0" fill="#ff6b35" fill-opacity="0.999623422123891" stroke-opacity="0.999623422123891" transform="rotate(44.97175665929183 56.0 216.0)" />
  <polygon points="72.0,210.35838742594026 77.64161257405975,216.0 72.0,221.64161257405974 66.35838742594025,216.0" fill="#ff6b35" fill-opacity="0.8862418861089618" stroke-opacity="0.8862418861089618" transform="rotate(36.468141458172134 72.0 216.0)" />
  <polygon points="88.0,212.48131388490742 91.51868611509258,216.0 88.0,219.51868611509258 84.48131388490742,216.0" fill="#ff6b35" fill-opacity="0.5678029172638875" stroke-opacity="0.5678029172638875" transform="rotate(12.585218794791567 88.0 216.0)" />
  <polygon points="104.0,212.12398848737791 107.87601151262209,216.0 104.0,219.87601151262209 100.12398848737793,216.0" fill="#efa00b" fill-opacity="0.6214017268933116" stroke-opacity="0.6214017268933116" transform="rotate(343.3948704830016 104.0 216.0)" />
  <polygon points="120.0,210.15175293101638 125.84824706898364,216.0 120.0,221.84824706898362 114.15175293101636,216.0" fill="#efa00b" fill-opacity="0.9172370603475453" stroke-opacity="0.9172370603475453" transform="rotate(321.2072204739341 120.0 216.0)" />
  <polygon points="136.0,209.63370861553733 142.36629138446267,216.0 136.0,222.36629138446267 129.63370861553733,216.0" fill="#efa00b" fill-opacity="0.9949437076693993" stroke-opacity="0.9949437076693993" transform="rotate(315.37922192479505 136.0 216.0)" />
  <polygon points="152.0,210.78832466188484 157.21167533811516,216.0 152.0,221.21167533811516 146.78832466188484,216.0" fill="#efa00b" fill-opacity="0.8217513007172725" stroke-opacity="0.8217513007172725" transform="rotate(328.3686524462046 152.0 216.0)" />
  <polygon points="168.0,213.12867756730773 170.87132243269227,216.0 168.0,218.87132243269227 165.12867756730773,216.0" fill="#efa00b" fill-opacity="0.47069836490383965" stroke-opacity="0.47069836490383965" transform="rotate(354.697622632212 168.0 216.0)" />
  <polygon points="184.0,211.5322039111343 188.4677960888657,216.0 184.0,220.4677960888657 179.5322039111343,216.0" fill="#ff6b35" fill-opacity="0.7101694133298546" stroke-opacity="0.7101694133298546" transform="rotate(23.2627059997391 184.0 216.0)" />
  <polygon points="200.0,209.86511424951703 206.13488575048297,216.0 200.0,222.13488575048297 193.86511424951703,216.0" fill="#ff6b35" fill-opacity="0.9602328625724448" stroke-opacity="0.9602328625724448" transform="rotate(42.01746469293336 200.0 216.0)" />
  <polygon points="216.0,209.7730968015188 222.2269031984812,216.0 216.0,222.2269031984812 209.7730968015188,216.0" fill="#ff6b35" fill-opacity="0.974035479772183" stroke-opacity="0.974035479772183" transform="rotate(43.05266098291373 216.0 216.0)" />
  <polygon points="232.0,211.29495707156264 236.70504292843736,216.0 232.0,220.70504292843736 227.29495707156264,216.0" fill="#ff6b35" fill-opacity="0.7457564392656026" stroke-opacity="0.7457564392656026" transform="rotate(25.931732944920192 232.0 216.0)" />
  <polygon points="248.0,213.411102302974 250.588897697026,216.0 248.0,218.588897697026 245.411102302974,216.0" fill="#efa00b" fill-opacity="0.42833465455390146" stroke-opacity="0.42833465455390146" transform="rotate(357.8749009084574 248.0 216.0)" />
  <polygon points="264.0,210.99682342185284 269.0031765781472,216.0 264.0,221.00317657814716 258.9968234218528,216.0" fill="#efa00b" fill-opacity="0.7904764867220749" stroke-opacity="0.7904764867220749" transform="rotate(330.71426349584436 264.0 216.0)" />
  <polygon points="280.0,209.68035351517037 286.3196464848296,216.0 280.0,222.31964648482963 273.6803535151704,216.0" fill="#efa00b" fill-opacity="0.9879469727244445" stroke-opacity="0.9879469727244445" transform="rotate(315.90397704566664 280.0 216.0)" />
  <polygon points="296.0,210.0168729307627 301.9831270692373,216.0 296.0,221.9831270692373 290.0168729307627,216.0" fill="#efa00b" fill-opacity="0.9374690603855951" stroke-opacity="0.9374690603855951" transform="rotate(319.68982047108034 296.0 216.0)" />
  <polygon points="312.0,211.86446504352978 316.1355349564702,216.0 312.0,220.13553495647022 307.8644650435298,216.0" fill="#efa00b" fill-opacity="0.6603302434705353" stroke-opacity="0.6603302434705353" transform="rotate(340.47523173970984 312.0 216.0)" />
  <polygon points="8.0,229.6 10.4,232.0 8.0,234.4 5.6,232.0" fill="#efa00b" fill-opacity="0.4000000000000002" stroke-opacity="0.4000000000000002" transform="rotate(360.0 8.0 232.0)" />
  <polygon points="24.0,227.14314914924134 28.85685085075867,232.0 24.0,236.85685085075866 19.14314914924133,232.0" fill="#ff6b35" fill-opacity="0.7685276276138007" stroke-opacity="0.7685276276138007" transform="rotate(27.639572071035047 24.0 232.0)" />
  <polygon points="40.0,225.72239893624268 46.277601063757324,232.0 40.0,238.27760106375732 33.722398936242676,232.0" fill="#ff6b35" fill-opacity="0.9816401595635982" stroke-opacity="0.9816401595635982" transform="rotate(43.62301196726987 40.0 232.0)" />
  <polygon points="56.0,225.93690669337977 62.06309330662023,232.0 56.0,238.06309330662023 49.93690669337977,232.0" fill="#ff6b35" fill-opacity="0.9494639959930345" stroke-opacity="0.9494639959930345" transform="rotate(41.209799699477585 56.0 232.0)" />
  <polygon points="72.0,227.6962104278517 76.30378957214829,232.0 72.0,236.3037895721483 67.69621042785171,232.0" fill="#ff6b35" fill-opacity="0.6855684358222441" stroke-opacity="0.6855684358222441" transform="rotate(21.41763268666831 72.0 232.0)" />
  <polygon points="88.0,228.94162163887705 91.05837836112293,232.0 88.0,235.05837836112295 84.94162163887707,232.0" fill="#efa00b" fill-opacity="0.49875675416844045" stroke-opacity="0.49875675416844045" transform="rotate(352.593243437367 88.0 232.0)" />
  <polygon points="104.0,226.65710435730747 109.34289564269253,232.0 104.0,237.34289564269253 98.65710435730747,232.0" fill="#efa00b" fill-opacity="0.841434346403879" stroke-opacity="0.841434346403879" transform="rotate(326.8924240197091 104.0 232.0)" />
  <polygon points="120.0,225.61366202797333 126.38633797202668,232.0 120.0,238.38633797202667 113.61366202797332,232.0" fill="#efa00b" fill-opacity="0.9979506958040019" stroke-opacity="0.9979506958040019" transform="rotate(315.15369781469985 120.0 232.0)" />
  <polygon points="136.0,226.2513340869499 141.7486659130501,232.0 136.0,237.7486659130501 130.2513340869499,232.0" fill="#efa00b" fill-opacity="0.9022998869575171" stroke-opacity="0.9022998869575171" transform="rotate(322.32750847818625 136.0 232.0)" />
  <polygon points="152.0,228.30120212318127 155.69879787681873,232.0 152.0,235.69879787681873 148.30120212318127,232.0" fill="#efa00b" fill-opacity="0.594819681522811" stroke-opacity="0.594819681522811" transform="rotate(345.3885238857892 152.0 232.0)" />
  <polygon points="168.0,228.30120212318127 171.69879787681873,232.0 168.0,235.69879787681873 164.30120212318127,232.0" fill="#ff6b35" fill-opacity="0.5948196815228104" stroke-opacity="0.5948196815228104" transform="rotate(14.611476114210776 168.0 232.0)" />
  <polygon points="184.0,226.2513340869499 189.7486659130501,232.0 184.0,237.7486659130501 178.2513340869499,232.0" fill="#ff6b35" fill-opacity="0.9022998869575167" stroke-opacity="0.9022998869575167" transform="rotate(37.672491521813754 184.0 232.0)" />
  <polygon points="200.0,225.61366202797333 206.3863379720267,232.0 200.0,238.3863379720267 193.61366202797333,232.0" fill="#ff6b35" fill-opacity="0.997950695804002" stroke-opacity="0.997950695804002" transform="rotate(44.84630218530015 200.0 232.0)" />
  <polygon points="216.0,226.65710435730747 221.34289564269253,232.0 216.0,237.34289564269253 210.65710435730747,232.0" fill="#ff6b35" fill-opacity="0.8414343464038794" stroke-opacity="0.8414343464038794" transform="rotate(33.10757598029095 216.0 232.0)" />
  <polygon points="232.0,228.94162163887705 235.05837836112295,232.0 232.0,235.05837836112295 228.94162163887705,232.0" fill="#ff6b35" fill-opacity="0.498756754168441" stroke-opacity="0.498756754168441" transform="rotate(7.406756562633072 232.0 232.0)" />
  <polygon points="248.0,227.6962104278517 252.30378957214828,232.0 248.0,236.30378957214828 243.6962104278517,232.0" fill="#efa00b" fill-opacity="0.6855684358222436" stroke-opacity="0.6855684358222436" transform="rotate(338.5823673133317 248.0 232.0)" />
  <polygon points="264.0,225.93690669337977 270.0630933066202,232.0 264.0,238.06309330662023 257.9369066933798,232.0" fill="#efa00b" fill-opacity="0.9494639959930347" stroke-opacity="0.9494639959930347" transform="rotate(318.79020030052243 264.0 232.0)" />
  <polygon points="280.0,225.72239893624268 286.27760106375734,232.0 280.0,238.27760106375732 273.72239893624266,232.0" fill="#efa00b" fill-opacity="0.9816401595635984" stroke-opacity="0.9816401595635984" transform="rotate(316.37698803273014 280.0 232.0)" />
  <polygon points="296.0,227.1431491492413 300.8568508507587,232.0 296.0,236.8568508507587 291.1431491492413,232.0" fill="#efa00b" fill-opacity="0.768527627613802" stroke-opacity="0.768527627613802" transform="rotate(332.36042792896484 296.0 232.0)" />
  <polygon points="312.0,229.6 314.4,232.0 312.0,234.4 309.6,232.0" fill="#efa00b" fill-opacity="0.40000000000000047" stroke-opacity="0.40000000000000047" transform="rotate(359.99999999999994 312.0 232.0)" />
</svg>