<?xml version="1.0" encoding="UTF-8"?>
<svg xmlns="http://www.w3.org/2000/svg" width="288" height="288" viewBox="0 0 288 288">
  <rect width="100%" height="100%" fill="#0a1628" />
  <polygon points="15.23538290724796,12.6 9.0,16.2 2.764617092752043,12.600000000000003 2.7646170927520397,5.4 8.999999999999998,1.7999999999999996 15.23538290724796,5.400000000000003" fill="#00d9ff" stroke="#0077b6" stroke-width="0.5" fill-opacity="0.3" stroke-opacity="0.3" />
  <polygon points="33.23538290724796,12.6 27.0,16.2 20.764617092752044,12.600000000000003 20.76461709275204,5.4 27.0,1.7999999999999996 33.23538290724796,5.400000000000003" fill="#00d9ff" stroke="#0077b6" stroke-width="0.5" fill-opacity="0.32828854314002825" stroke-opacity="0.32828854314002825" />
  <polygon points="51.23538290724796,12.6 45.0,16.2 38.76461709275204,12.600000000000003 38.76461709275204,5.4 45.0,1.7999999999999996 51.23538290724796,5.400000000000003" fill="#00d9ff" stroke="#0077b6" stroke-width="0.5" fill-opacity="0.3565770862800566" stroke-opacity="0.3565770862800566" />
  <polygon points="69.23538290724795,12.6 63.0,16.2 56.76461709275204,12.600000000000003 56.76461709275204,5.4 63.0,1.7999999999999996 69.23538290724795,5.400000000000003" fill="#00d9ff" stroke="#0077b6" stroke-width="0.5" fill-opacity="0.38486562942008484" stroke-opacity="0.38486562942008484" />
  <polygon points="87.23538290724795,12.6 81.0,16.2 74.76461709275205,12.600000000000003 74.76461709275203,5.4 81.0,1.7999999999999996 87.23538290724795,5.400000000000003" fill="#00d9ff" stroke="#0077b6" stroke-width="0.5" fill-opacity="0.4131541725601131" stroke-opacity="0.4131541725601131" />
  <polygon points="105.23538290724795,12.6 99.0,16.2 92.76461709275205,12.600000000000003 92.76461709275203,5.4 99.0,1.7999999999999996 105.23538290724795,5.400000000000003" fill="#00d9ff" stroke="#0077b6" stroke-width="0.5" fill-opacity="0.44144271570014143" stroke-opacity="0.44144271570014143" />
  <polygon points="123.23538290724795,12.6 117.0,16.2 110.76461709275205,12.600000000000003 110.76461709275203,5.4 117.0,1.7999999999999996 123.23538290724795,5.400000000000003" fill="#00d9ff" stroke="#0077b6" stroke-width="0.5" fill-opacity="0.46973125884016975" stroke-opacity="0.46973125884016975" />
  <polygon points="141.23538290724795,12.6 135.0,16.2 128.76461709275205,12.600000000000003 128.76461709275205,5.4 135.0,1.7999999999999996 141.23538290724795,5.400000000000003" fill="#00d9ff" stroke="#0077b6" stroke-width="0.5" fill-opacity="0.498019801980198" stroke-opacity="0.498019801980198" />
  <polygon points="159.23538290724795,12.6 153.0,16.2 146.76461709275205,12.600000000000003 146.76461709275205,5.4 153.0,1.7999999999999996 159.23538290724795,5.400000000000003" fill="#00d9ff" stroke="#0077b6" stroke-width="0.5" fill-opacity="0.5263083451202263" stroke-opacity="0.5263083451202263" />
  <polygon points="177.23538290724795,12.6 171.0,16.2 164.76461709275205,12.600000000000003 164.76461709275205,5.4 171.0,1.7999999999999996 177.23538290724795,5.400000000000003" fill="#00d9ff" stroke="#0077b6" stroke-width="0.5" fill-opacity="0.5545968882602546" stroke-opacity="0.5545968882602546" />
  <polygon points="195.23538290724795,12.6 189.0,16.2 182.76461709275205,12.600000000000003 182.76461709275205,5.4 189.0,1.7999999999999996 195.23538290724795,5.400000000000003" fill="#00d9ff" stroke="#0077b6" stroke-width="0.5" fill-opacity="0.5828854314002829" stroke-opacity="0.5828854314002829" />
  <polygon points="213.23538290724795,12.6 207.0,16.2 200.76461709275205,12.600000000000003 200.76461709275205,5.4 207.0,1.7999999999999996 213.23538290724795,5.400000000000003" fill="#00d9ff" stroke="#0077b6" stroke-width="0.5" fill-opacity="0.6111739745403111" stroke-opacity="0.6111739745403111" />
  <polygon points="231.23538290724795,12.6 225.0,16.2 218.76461709275205,12.600000000000003 218.76461709275205,5.4 225.0,1.7999999999999996 231.23538290724795,5.400000000000003" fill="#00d9ff" stroke="#0077b6" stroke-width="0.5" fill-opacity="0.6394625176803395" stroke-opacity="0.6394625176803395" />
  <polygon points="249.23538290724795,12.6 243.0,16.2 236.76461709275205,12.600000000000003 236.76461709275205,5.4 243.0,1.7999999999999996 249.23538290724795,5.400000000000003" fill="#00d9ff" stroke="#0077b6" stroke-width="0.5" fill-opacity="0.6677510608203678" stroke-opacity="0.6677510608203678" />
  <polygon points="267.235382907248,12.6 261.0,16.2 254.76461709275205,12.600000000000003 254.76461709275205,5.4 261.0,1.7999999999999996 267.235382907248,5.400000000000003" fill="#00d9ff" stroke="#0077b6" stroke-width="0.5" fill-opacity="0.696039603960396" stroke-opacity="0.696039603960396" />
  <polygon points="285.235382907248,12.6 279.0,16.2 272.764617092752,12.600000000000003 272.764617092752,5.4 279.0,1.7999999999999996 285.235382907248,5.400000000000003" fill="#00d9ff" stroke="#0077b6" stroke-width="0.5" fill-opacity="0.7243281471004244" stroke-opacity="0.7243281471004244" />
  <polygon points="15.23538290724796,30.6 9.0,34.2 2.764617092752043,30.6 2.7646170927520397,23.4 8.999999999999998,19.8 15.23538290724796,23.400000000000002" fill="#00d9ff" stroke="#0077b6" stroke-width="0.5" fill-opacity="0.32828854314002825" stroke-opacity="0.32828854314002825" />
  <polygon points="33.23538290724796,30.6 27.0,34.2 20.764617092752044,30.6 20.76461709275204,23.4 27.0,19.8 33.23538290724796,23.400000000000002" fill="#00d9ff" stroke="#0077b6" stroke-width="0.5" fill-opacity="0.3400060413684044" stroke-opacity="0.3400060413684044" transform="rotate(0.5333333333333333 27.0 27.000000000000004)" />
  <polygon points="51.23538290724796,30.6 45.0,34.2 38.76461709275204,30.6 38.76461709275204,23.4 45.0,19.8 51.23538290724796,23.400000000000002" fill="#00d9ff" stroke="#0077b6" stroke-width="0.5" fill-opacity="0.36325510544553863" stroke-opacity="0.36325510544553863" transform="rotate(1.0666666666666667 45.0 27.000000000000004)" />
  <polygon points="69.23538290724795,30.6 63.0,34.2 56.76461709275204,30.6 56.76461709275204,23.4 63.0,19.8 69.23538290724795,23.400000000000002" fill="#00d9ff" stroke="#0077b6" stroke-width="0.5" fill-opacity="0.3894562280104209" stroke-opacity="0.3894562280104209" transform="rotate(1.6 63.0 27.000000000000004)" />
  <polygon points="87.23538290724795,30.6 81.0,34.2 74.76461709275205,30.6 74.76461709275203,23.4 81.0,19.8 87.23538290724795,23.400000000000002" fill="#00d9ff" stroke="#0077b6" stroke-width="0.5" fill-opacity="0.4166366513611785" stroke-opacity="0.4166366513611785" transform="rotate(2.1333333333333333 81.0 27.000000000000004)" />
  <polygon points="105.23538290724795,30.6 99.0,34.2 92.76461709275205,30.6 92.76461709275203,23.4 99.0,19.8 105.23538290724795,23.400000000000002" fill="#00d9ff" stroke="#0077b6" stroke-width="0.5" fill-opacity="0.44424383348211555" stroke-opacity="0.44424383348211555" transform="rotate(2.6666666666666665 99.0 27.000000000000004)" />
  <polygon points="123.23538290724795,30.6 117.0,34.2 110.76461709275205,30.6 110.76461709275203,23.4 117.0,19.8 123.23538290724795,23.400000000000002" fill="#00d9ff" stroke="#0077b6" stroke-width="0.5" fill-opacity="0.4720724902488888" stroke-opacity="0.4720724902488888" transform="rotate(3.2 117.0 27.000000000000004)" />
  <polygon points="141.23538290724795,30.6 135.0,34.2 128.76461709275205,30.6 128.76461709275205,23.4 135.0,19.8 141.23538290724795,23.400000000000002" fill="#00d9ff" stroke="#0077b6" stroke-width="0.5" fill-opacity="0.5000302068420219" stroke-opacity="0.5000302068420219" transform="rotate(3.7333333333333334 135.0 27.000000000000004)" />
  <polygon points="159.23538290724795,30.6 153.0,34.2 146.76461709275205,30.6 146.76461709275205,23.4 153.0,19.8 159.23538290724795,23.400000000000002" fill="#00d9ff" stroke="#0077b6" stroke-width="0.5" fill-opacity="0.5280695261187708" stroke-opacity="0.5280695261187708" transform="rotate(4.266666666666667 153.0 27.000000000000004)" />
  <polygon points="177.23538290724795,30.6 171.0,34.2 164.76461709275205,30.6 164.76461709275205,23.4 171.0,19.8 177.23538290724795,23.400000000000002" fill="#00d9ff" stroke="#0077b6" stroke-width="0.5" fill-opacity="0.5561636531297713" stroke-opacity="0.5561636531297713" transform="rotate(4.8 171.0 27.000000000000004)" />
  <polygon points="195.23538290724795,30.6 189.0,34.2 182.76461709275205,30.6 182.76461709275205,23.4 189.0,19.8 195.23538290724795,23.400000000000002" fill="#00d9ff" stroke="#0077b6" stroke-width="0.5" fill-opacity="0.5842963400599969" stroke-opacity="0.5842963400599969" transform="rotate(5.333333333333333 189.0 27.000000000000004)" />
  <polygon points="213.23538290724795,30.6 207.0,34.2 200.76461709275205,30.6 200.76461709275205,23.4 207.0,19.8 213.23538290724795,23.400000000000002" fill="#00d9ff" stroke="#0077b6" stroke-width="0.5" fill-opacity="0.6124571716318885" stroke-opacity="0.6124571716318885" transform="rotate(5.866666666666666 206.99999999999997 27.000000000000004)" />
  <polygon points="231.23538290724795,30.6 225.0,34.2 218.76461709275205,30.6 218.76461709275205,23.4 225.0,19.8 231.23538290724795,23.400000000000002" fill="#00d9ff" stroke="#0077b6" stroke-width="0.5" fill-opacity="0.6406391677168967" stroke-opacity="0.6406391677168967" transform="rotate(6.4 224.99999999999997 27.000000000000004)" />
  <polygon points="249.23538290724795,30.6 243.0,34.2 236.76461709275205,30.6 236.76461709275205,23.4 243.0,19.8 249.23538290724795,23.400000000000002" fill="#00d9ff" stroke="#0077b6" stroke-width="0.5" fill-opacity="0.6688374769563026" stroke-opacity="0.6688374769563026" transform="rotate(6.933333333333334 242.99999999999997 27.000000000000004)" />
  <polygon points="267.235382907248,30.6 261.0,34.2 254.76461709275205,30.6 254.76461709275205,23.4 261.0,19.8 267.235382907248,23.400000000000002" fill="#00d9ff" stroke="#0077b6" stroke-width="0.5" fill-opacity="0.6970486236949986" stroke-opacity="0.6970486236949986" transform="rotate(7.466666666666667 261.0 27.000000000000004)" />
  <polygon points="285.235382907248,30.6 279.0,34.2 272.764617092752,30.6 272.764617092752,23.4 279.0,19.8 285.235382907248,23.400000000000002" fill="#00d9ff" stroke="#0077b6" stroke-width="0.5" fill-opacity="0.7252700531364331" stroke-opacity="0.7252700531364331" transform="rotate(8.0 279.0 27.000000000000004)" />
  <polygon points="15.23538290724796,48.6 9.0,52.2 2.764617092752043,48.6 2.7646170927520397,41.4 8.999999999999998,37.8 15.23538290724796,41.400000000000006" fill="#00d9ff" stroke="#0077b6" stroke-width="0.5" fill-opacity="0.3565770862800566" stroke-opacity="0.3565770862800566" />
  <polygon points="33.23538290724796,48.6 27.0,52.2 20.764617092752044,48.6 20.76461709275204,41.4 27.0,37.8 33.23538290724796,41.400000000000006" fill="#00d9ff" stroke="#0077b6" stroke-width="0.5" fill-opacity="0.36325510544553863" stroke-opacity="0.36325510544553863" transform="rotate(1.0666666666666667 27.0 45.0)" />
  <polygon points="51.23538290724796,48.6 45.0,52.2 38.76461709275204,48.6 38.76461709275204,41.4 45.0,37.8 51.23538290724796,41.400000000000006" fill="#00d9ff" stroke="#0077b6" stroke-width="0.5" fill-opacity="0.38001208273680875" stroke-opacity="0.38001208273680875" transform="rotate(2.1333333333333333 45.0 45.0)" />
  <polygon points="69.23538290724795,48.6 63.0,52.2 56.76461709275204,48.6 56.76461709275204,41.4 63.0,37.8 69.23538290724795,41.400000000000006" fill="#00d9ff" stroke="#0077b6" stroke-width="0.5" fill-opacity="0.4019957927995471" stroke-opacity="0.4019957927995471" transform="rotate(3.2 63.0 45.0)" />
  <polygon points="87.23538290724795,48.6 81.0,52.2 74.76461709275205,48.6 74.76461709275203,41.4 81.0,37.8 87.23538290724795,41.400000000000006" fill="#00d9ff" stroke="#0077b6" stroke-width="0.5" fill-opacity="0.4265102108910772" stroke-opacity="0.4265102108910772" transform="rotate(4.266666666666667 81.0 45.0)" />
  <polygon points="105.23538290724795,48.6 99.0,52.2 92.76461709275205,48.6 92.76461709275203,41.4 99.0,37.8 105.23538290724795,41.400000000000006" fill="#00d9ff" stroke="#0077b6" stroke-width="0.5" fill-opacity="0.45233846696278657" stroke-opacity="0.45233846696278657" transform="rotate(5.333333333333333 99.0 45.0)" />
  <polygon points="123.23538290724795,48.6 117.0,52.2 110.76461709275205,48.6 110.76461709275203,41.4 117.0,37.8 123.23538290724795,41.400000000000006" fill="#00d9ff" stroke="#0077b6" stroke-width="0.5" fill-opacity="0.47891245602084187" stroke-opacity="0.47891245602084187" transform="rotate(6.4 117.0 45.0)" />
  <polygon points="141.23538290724795,48.6 135.0,52.2 128.76461709275205,48.6 128.76461709275205,41.4 135.0,37.8 141.23538290724795,41.400000000000006" fill="#00d9ff" stroke="#0077b6" stroke-width="0.5" fill-opacity="0.5059437026670586" stroke-opacity="0.5059437026670586" transform="rotate(7.466666666666667 135.0 45.0)" />
  <polygon points="159.23538290724795,48.6 153.0,52.2 146.76461709275205,48.6 146.76461709275205,41.4 153.0,37.8 159.23538290724795,41.400000000000006" fill="#00d9ff" stroke="#0077b6" stroke-width="0.5" fill-opacity="0.5332733027223571" stroke-opacity="0.5332733027223571" transform="rotate(8.533333333333333 153.0 45.0)" />
  <polygon points="177.23538290724795,48.6 171.0,52.2 164.76461709275205,48.6 164.76461709275205,41.4 171.0,37.8 177.23538290724795,41.400000000000006" fill="#00d9ff" stroke="#0077b6" stroke-width="0.5" fill-opacity="0.5608074811115384" stroke-opacity="0.5608074811115384" transform="rotate(9.6 171.0 45.0)" />
  <polygon points="195.23538290724795,48.6 189.0,52.2 182.76461709275205,48.6 182.76461709275205,41.4 189.0,37.8 195.23538290724795,41.400000000000006" fill="#00d9ff" stroke="#0077b6" stroke-width="0.5" fill-opacity="0.5884876669642312" stroke-opacity="0.5884876669642312" transform="rotate(10.666666666666666 189.0 45.0)" />
  <polygon points="213.23538290724795,48.6 207.0,52.2 200.76461709275205,48.6 200.76461709275205,41.4 207.0,37.8 213.23538290724795,41.400000000000006" fill="#00d9ff" stroke="#0077b6" stroke-width="0.5" fill-opacity="0.616275527227693" stroke-opacity="0.616275527227693" transform="rotate(11.733333333333333 206.99999999999997 45.0)" />
  <polygon points="231.23538290724795,48.6 225.0,52.2 218.76461709275205,48.6 218.76461709275205,41.4 225.0,37.8 231.23538290724795,41.400000000000006" fill="#00d9ff" stroke="#0077b6" stroke-width="0.5" fill-opacity="0.6441449804977777" stroke-opacity="0.6441449804977777" transform="rotate(12.8 224.99999999999997 45.0)" />
  <polygon points="249.23538290724795,48.6 243.0,52.2 236.76461709275205,48.6 236.76461709275205,41.4 243.0,37.8 249.23538290724795,41.400000000000006" fill="#00d9ff" stroke="#0077b6" stroke-width="0.5" fill-opacity="0.67207769272888" stroke-opacity="0.67207769272888" transform="rotate(13.866666666666667 242.99999999999997 45.0)" />
  <polygon points="267.235382907248,48.6 261.0,52.2 254.76461709275205,48.6 254.76461709275205,41.4 261.0,37.8 267.235382907248,41.400000000000006" fill="#00d9ff" stroke="#0077b6" stroke-width="0.5" fill-opacity="0.7000604136840438" stroke-opacity="0.7000604136840438" transform="rotate(14.933333333333334 261.0 45.0)" />
  <polygon points="285.235382907248,48.6 279.0,52.2 272.764617092752,48.6 272.764617092752,41.4 279.0,37.8 285.235382907248,41.400000000000006" fill="#00d9ff" stroke="#0077b6" stroke-width="0.5" fill-opacity="0.7280833366455886" stroke-opacity="0.7280833366455886" transform="rotate(16.0 279.0 45.0)" />
  <polygon points="15.23538290724796,66.6 9.0,70.2 2.764617092752043,66.60000000000001 2.7646170927520397,59.4 8.999999999999998,55.8 15.23538290724796,59.400000000000006" fill="#00d9ff" stroke="#0077b6" stroke-width="0.5" fill-opacity="0.38486562942008484" stroke-opacity="0.38486562942008484" />
  <polygon points="33.23538290724796,66.6 27.0,70.2 20.764617092752044,66.60000000000001 20.76461709275204,59.4 27.0,55.8 33.23538290724796,59.400000000000006" fill="#00d9ff" stroke="#0077b6" stroke-width="0.5" fill-opacity="0.3894562280104209" stroke-opacity="0.3894562280104209" transform="rotate(1.6 27.0 63.0)" />
  <polygon points="51.23538290724796,66.6 45.0,70.2 38.76461709275204,66.60000000000001 38.76461709275204,59.4 45.0,55.8 51.23538290724796,59.400000000000006" fill="#00d9ff" stroke="#0077b6" stroke-width="0.5" fill-opacity="0.4019957927995471" stroke-opacity="0.4019957927995471" transform="rotate(3.2 45.0 63.0)" />
  <polygon points="69.23538290724795,66.6 63.0,70.2 56.76461709275204,66.60000000000001 56.76461709275204,59.4 63.0,55.8 69.23538290724795,59.400000000000006" fill="#00d9ff" stroke="#0077b6" stroke-width="0.5" fill-opacity="0.42001812410521316" stroke-opacity="0.42001812410521316" transform="rotate(4.800000000000001 63.0 63.0)" />
  <polygon points="87.23538290724795,66.6 81.0,70.2 74.76461709275205,66.60000000000001 74.76461709275203,59.4 81.0,55.8 87.23538290724795,59.400000000000006" fill="#00d9ff" stroke="#0077b6" stroke-width="0.5" fill-opacity="0.44144271570014143" stroke-opacity="0.44144271570014143" transform="rotate(6.4 81.0 63.0)" />
  <polygon points="105.23538290724795,66.6 99.0,70.2 92.76461709275205,66.60000000000001 92.76461709275203,59.4 99.0,55.8 105.23538290724795,59.400000000000006" fill="#00d9ff" stroke="#0077b6" stroke-width="0.5" fill-opacity="0.464949134224761" stroke-opacity="0.464949134224761" transform="rotate(8.0 99.0 63.0)" />
  <polygon points="123.23538290724795,66.6 117.0,70.2 110.76461709275205,66.60000000000001 110.76461709275203,59.4 117.0,55.8 123.23538290724795,59.400000000000006" fill="#00d9ff" stroke="#0077b6" stroke-width="0.5" fill-opacity="0.4897653163366158" stroke-opacity="0.4897653163366158" transform="rotate(9.600000000000001 117.0 63.0)" />
  <polygon points="141.23538290724795,66.6 135.0,70.2 128.76461709275205,66.60000000000001 128.76461709275205,59.4 135.0,55.8 141.23538290724795,59.400000000000006" fill="#00d9ff" stroke="#0077b6" stroke-width="0.5" fill-opacity="0.5154391260498984" stroke-opacity="0.5154391260498984" transform="rotate(11.200000000000001 135.0 63.0)" />
  <polygon points="159.23538290724795,66.6 153.0,70.2 146.76461709275205,66.60000000000001 146.76461709275205,59.4 153.0,55.8 159.23538290724795,59.400000000000006" fill="#00d9ff" stroke="#0077b6" stroke-width="0.5" fill-opacity="0.5416974185379783" stroke-opacity="0.5416974185379783" transform="rotate(12.8 153.0 63.0)" />
  <polygon points="177.23538290724795,66.6 171.0,70.2 164.76461709275205,66.60000000000001 164.76461709275205,59.4 171.0,55.8 177.23538290724795,59.400000000000006" fill="#00d9ff" stroke="#0077b6" stroke-width="0.5" fill-opacity="0.5683686840312627" stroke-opacity="0.5683686840312627" transform="rotate(14.399999999999999 171.0 63.0)" />
  <polygon points="195.23538290724795,66.6 189.0,70.2 182.76461709275205,66.60000000000001 182.76461709275205,59.4 189.0,55.8 195.23538290724795,59.400000000000006" fill="#00d9ff" stroke="#0077b6" stroke-width="0.5" fill-opacity="0.5953410610724342" stroke-opacity="0.5953410610724342" transform="rotate(16.0 189.0 63.0)" />
  <polygon points="213.23538290724795,66.6 207.0,70.2 200.76461709275205,66.60000000000001 200.76461709275205,59.4 207.0,55.8 213.23538290724795,59.400000000000006" fill="#00d9ff" stroke="#0077b6" stroke-width="0.5" fill-opacity="0.6225390170011705" stroke-opacity="0.6225390170011705" transform="rotate(17.6 206.99999999999997 63.0)" />
  <polygon points="231.23538290724795,66.6 225.0,70.2 218.76461709275205,66.60000000000001 218.76461709275205,59.4 225.0,55.8 231.23538290724795,59.400000000000006" fill="#00d9ff" stroke="#0077b6" stroke-width="0.5" fill-opacity="0.6499099540835356" stroke-opacity="0.6499099540835356" transform="rotate(19.200000000000003 224.99999999999997 63.0)" />
  <polygon points="249.23538290724795,66.6 243.0,70.2 236.76461709275205,66.60000000000001 236.76461709275205,59.4 243.0,55.8 249.23538290724795,59.400000000000006" fill="#00d9ff" stroke="#0077b6" stroke-width="0.5" fill-opacity="0.6774162394378029" stroke-opacity="0.6774162394378029" transform="rotate(20.8 242.99999999999997 63.0)" />
  <polygon points="267.235382907248,66.6 261.0,70.2 254.76461709275205,66.60000000000001 254.76461709275205,59.4 261.0,55.8 267.235382907248,59.400000000000006" fill="#00d9ff" stroke="#0077b6" stroke-width="0.5" fill-opacity="0.7050302988196988" stroke-opacity="0.7050302988196988" transform="rotate(22.400000000000002 261.0 63.0)" />
  <polygon points="285.235382907248,66.6 279.0,70.2 272.764617092752,66.60000000000001 272.764617092752,59.4 279.0,55.8 285.235382907248,59.400000000000006" fill="#00d9ff" stroke="#0077b6" stroke-width="0.5" fill-opacity="0.7327315004463467" stroke-opacity="0.7327315004463467" transform="rotate(24.0 279.0 63.0)" />
  <polygon points="15.23538290724796,84.6 9.0,88.2 2.764617092752043,84.60000000000001 2.7646170927520397,77.4 8.999999999999998,73.8 15.23538290724796,77.4" fill="#00d9ff" stroke="#0077b6" stroke-width="0.5" fill-opacity="0.4131541725601131" stroke-opacity="0.4131541725601131" />
  <polygon points="33.23538290724796,84.6 27.0,88.2 20.764617092752044,84.60000000000001 20.76461709275204,77.4 27.0,73.8 33.23538290724796,77.4" fill="#00d9ff" stroke="#0077b6" stroke-width="0.5" fill-opacity="0.4166366513611785" stroke-opacity="0.4166366513611785" transform="rotate(2.1333333333333333 27.0 81.00000000000001)" />
  <polygon points="51.23538290724796,84.6 45.0,88.2 38.76461709275204,84.60000000000001 38.76461709275204,77.4 45.0,73.8 51.23538290724796,77.4" fill="#00d9ff" stroke="#0077b6" stroke-width="0.5" fill-opacity="0.4265102108910772" stroke-opacity="0.4265102108910772" transform="rotate(4.266666666666667 45.0 81.00000000000001)" />
  <polygon points="69.23538290724795,84.6 63.0,88.2 56.76461709275204,84.60000000000001 56.76461709275204,77.4 63.0,73.8 69.23538290724795,77.4" fill="#00d9ff" stroke="#0077b6" stroke-width="0.5" fill-opacity="0.44144271570014143" stroke-opacity="0.44144271570014143" transform="rotate(6.4 63.0 81.00000000000001)" />
  <polygon points="87.23538290724795,84.6 81.0,88.2 74.76461709275205,84.60000000000001 74.76461709275203,77.4 81.0,73.8 87.23538290724795,77.4" fill="#00d9ff" stroke="#0077b6" stroke-width="0.5" fill-opacity="0.4600241654736176" stroke-opacity="0.4600241654736176" transform="rotate(8.533333333333333 81.0 81.00000000000001)" />
  <polygon points="105.23538290724795,84.6 99.0,88.2 92.76461709275205,84.60000000000001 92.76461709275203,77.4 99.0,73.8 105.23538290724795,77.4" fill="#00d9ff" stroke="#0077b6" stroke-width="0.5" fill-opacity="0.48113505622157987" stroke-opacity="0.48113505622157987" transform="rotate(10.666666666666666 99.0 81.00000000000001)" />
  <polygon points="123.23538290724795,84.6 117.0,88.2 110.76461709275205,84.60000000000001 110.76461709275203,77.4 117.0,73.8 123.23538290724795,77.4" fill="#00d9ff" stroke="#0077b6" stroke-width="0.5" fill-opacity="0.5039915855990942" stroke-opacity="0.5039915855990942" transform="rotate(12.8 117.0 81.00000000000001)" />
  <polygon points="141.23538290724795,84.6 135.0,88.2 128.76461709275205,84.60000000000001 128.76461709275205,77.4 135.0,73.8 141.23538290724795,77.4" fill="#00d9ff" stroke="#0077b6" stroke-width="0.5" fill-opacity="0.5280695261187709" stroke-opacity="0.5280695261187709" transform="rotate(14.933333333333334 135.0 81.00000000000001)" />
  <polygon points="159.23538290724795,84.6 153.0,88.2 146.76461709275205,84.60000000000001 146.76461709275205,77.4 153.0,73.8 159.23538290724795,77.4" fill="#00d9ff" stroke="#0077b6" stroke-width="0.5" fill-opacity="0.5530204217821544" stroke-opacity="0.5530204217821544" transform="rotate(17.066666666666666 153.0 81.00000000000001)" />
  <polygon points="177.23538290724795,84.6 171.0,88.2 164.76461709275205,84.60000000000001 164.76461709275205,77.4 171.0,73.8 177.23538290724795,77.4" fill="#00d9ff" stroke="#0077b6" stroke-width="0.5" fill-opacity="0.5786098388061133" stroke-opacity="0.5786098388061133" transform="rotate(19.2 171.0 81.00000000000001)" />
  <polygon points="195.23538290724795,84.6 189.0,88.2 182.76461709275205,84.60000000000001 182.76461709275205,77.4 189.0,73.8 195.23538290724795,77.4" fill="#00d9ff" stroke="#0077b6" stroke-width="0.5" fill-opacity="0.6046769339255731" stroke-opacity="0.6046769339255731" transform="rotate(21.333333333333332 189.0 81.00000000000001)" />
  <polygon points="213.23538290724795,84.6 207.0,88.2 200.76461709275205,84.60000000000001 200.76461709275205,77.4 207.0,73.8 213.23538290724795,77.4" fill="#00d9ff" stroke="#0077b6" stroke-width="0.5" fill-opacity="0.6311089083654774" stroke-opacity="0.6311089083654774" transform="rotate(23.466666666666665 206.99999999999997 81.00000000000001)" />
  <polygon points="231.23538290724795,84.6 225.0,88.2 218.76461709275205,84.60000000000001 218.76461709275205,77.4 225.0,73.8 231.23538290724795,77.4" fill="#00d9ff" stroke="#0077b6" stroke-width="0.5" fill-opacity="0.6578249120416837" stroke-opacity="0.6578249120416837" transform="rotate(25.6 224.99999999999997 81.00000000000001)" />
  <polygon points="249.23538290724795,84.6 243.0,88.2 236.76461709275205,84.60000000000001 236.76461709275205,77.4 243.0,73.8 249.23538290724795,77.4" fill="#00d9ff" stroke="#0077b6" stroke-width="0.5" fill-opacity="0.6847657852541851" stroke-opacity="0.6847657852541851" transform="rotate(27.733333333333334 242.99999999999997 81.00000000000001)" />
  <polygon points="267.235382907248,84.6 261.0,88.2 254.76461709275205,84.60000000000001 254.76461709275205,77.4 261.0,73.8 267.235382907248,77.4" fill="#00d9ff" stroke="#0077b6" stroke-width="0.5" fill-opacity="0.7118874053341171" stroke-opacity="0.7118874053341171" transform="rotate(29.866666666666667 261.0 81.00000000000001)" />
  <polygon points="285.235382907248,84.6 279.0,88.2 272.764617092752,84.60000000000001 272.764617092752,77.4 279.0,73.8 285.235382907248,77.4" fill="#00d9ff" stroke="#0077b6" stroke-width="0.5" fill-opacity="0.7391562856084872" stroke-opacity="0.7391562856084872" transform="rotate(32.0 279.0 81.00000000000001)" />
  <polygon points="15.23538290724796,102.6 9.0,106.2 2.764617092752043,102.60000000000001 2.7646170927520397,95.4 8.999999999999998,91.8 15.23538290724796,95.4" fill="#00d9ff" stroke="#0077b6" stroke-width="0.5" fill-opacity="0.44144271570014143" stroke-opacity="0.44144271570014143" />
  <polygon points="33.23538290724796,102.6 27.0,106.2 20.764617092752044,102.60000000000001 20.76461709275204,95.4 27.0,91.8 33.23538290724796,95.4" fill="#00d9ff" stroke="#0077b6" stroke-width="0.5" fill-opacity="0.44424383348211555" stroke-opacity="0.44424383348211555" transform="rotate(2.6666666666666665 27.0 99.00000000000001)" />
  <polygon points="51.23538290724796,102.6 45.0,106.2 38.76461709275204,102.60000000000001 38.76461709275204,95.4 45.0,91.8 51.23538290724796,95.4" fill="#00d9ff" stroke="#0077b6" stroke-width="0.5" fill-opacity="0.45233846696278657" stroke-opacity="0.45233846696278657" transform="rotate(5.333333333333333 45.0 99.00000000000001)" />
  <polygon points="69.23538290724795,102.6 63.0,106.2 56.76461709275204,102.60000000000001 56.76461709275204,95.4 63.0,91.8 69.23538290724795,95.4" fill="#00d9ff" stroke="#0077b6" stroke-width="0.5" fill-opacity="0.464949134224761" stroke-opacity="0.464949134224761" transform="rotate(8.0 63.0 99.00000000000001)" />
  <polygon points="87.23538290724795,102.6 81.0,106.2 74.76461709275205,102.60000000000001 74.76461709275203,95.4 81.0,91.8 87.23538290724795,95.4" fill="#00d9ff" stroke="#0077b6" stroke-width="0.5" fill-opacity="0.48113505622157987" stroke-opacity="0.48113505622157987" transform="rotate(10.666666666666666 81.0 99.00000000000001)" />
  <polygon points="105.23538290724795,102.6 99.0,106.2 92.76461709275205,102.60000000000001 92.76461709275203,95.4 99.0,91.8 105.23538290724795,95.4" fill="#00d9ff" stroke="#0077b6" stroke-width="0.5" fill-opacity="0.5000302068420219" stroke-opacity="0.5000302068420219" transform="rotate(13.333333333333332 99.0 99.00000000000001)" />
  <polygon points="123.23538290724795,102.6 117.0,106.2 110.76461709275205,102.60000000000001 110.76461709275203,95.4 117.0,91.8 123.23538290724795,95.4" fill="#00d9ff" stroke="#0077b6" stroke-width="0.5" fill-opacity="0.5209405848912774" stroke-opacity="0.5209405848912774" transform="rotate(16.0 117.0 99.00000000000001)" />
  <polygon points="141.23538290724795,102.6 135.0,106.2 128.76461709275205,102.60000000000001 128.76461709275205,95.4 135.0,91.8 141.23538290724795,95.4" fill="#00d9ff" stroke="#0077b6" stroke-width="0.5" fill-opacity="0.5433472494212908" stroke-opacity="0.5433472494212908" transform="rotate(18.666666666666668 135.0 99.00000000000001)" />
  <polygon points="159.23538290724795,102.6 153.0,106.2 146.76461709275205,102.60000000000001 146.76461709275205,95.4 153.0,91.8 159.23538290724795,95.4" fill="#00d9ff" stroke="#0077b6" stroke-width="0.5" fill-opacity="0.5668735822363962" stroke-opacity="0.5668735822363962" transform="rotate(21.333333333333332 153.0 99.00000000000001)" />
  <polygon points="177.23538290724795,102.6 171.0,106.2 164.76461709275205,102.60000000000001 164.76461709275205,95.4 171.0,91.8 177.23538290724795,95.4" fill="#00d9ff" stroke="#0077b6" stroke-width="0.5" fill-opacity="0.5912483773970862" stroke-opacity="0.5912483773970862" transform="rotate(23.999999999999996 171.0 99.00000000000001)" />
  <polygon points="195.23538290724795,102.6 189.0,106.2 182.76461709275205,102.60000000000001 182.76461709275205,95.4 189.0,91.8 195.23538290724795,95.4" fill="#00d9ff" stroke="#0077b6" stroke-width="0.5" fill-opacity="0.6162755272276931" stroke-opacity="0.6162755272276931" transform="rotate(26.666666666666664 189.0 99.00000000000001)" />
  <polygon points="213.23538290724795,102.6 207.0,106.2 200.76461709275205,102.60000000000001 200.76461709275205,95.4 207.0,91.8 213.23538290724795,95.4" fill="#00d9ff" stroke="#0077b6" stroke-width="0.5" fill-opacity="0.6418117672869752" stroke-opacity="0.6418117672869752" transform="rotate(29.33333333333333 206.99999999999997 99.00000000000001)" />
  <polygon points="231.23538290724795,102.6 225.0,106.2 218.76461709275205,102.60000000000001 218.76461709275205,95.4 225.0,91.8 231.23538290724795,95.4" fill="#00d9ff" stroke="#0077b6" stroke-width="0.5" fill-opacity="0.6677510608203678" stroke-opacity="0.6677510608203678" transform="rotate(32.0 224.99999999999997 99.00000000000001)" />
  <polygon points="249.23538290724795,102.6 243.0,106.2 236.76461709275205,102.60000000000001 236.76461709275205,95.4 243.0,91.8 249.23538290724795,95.4" fill="#00d9ff" stroke="#0077b6" stroke-width="0.5" fill-opacity="0.6940138126501872" stroke-opacity="0.6940138126501872" transform="rotate(34.666666666666664 242.99999999999997 99.00000000000001)" />
  <polygon points="267.235382907248,102.6 261.0,106.2 254.76461709275205,102.60000000000001 254.76461709275205,95.4 261.0,91.8 267.235382907248,95.4" fill="#00d9ff" stroke="#0077b6" stroke-width="0.5" fill-opacity="0.7205394270811458" stroke-opacity="0.7205394270811458" transform="rotate(37.333333333333336 261.0 99.00000000000001)" />
  <polygon points="285.235382907248,102.6 279.0,106.2 272.764617092752,102.60000000000001 272.764617092752,95.4 279.0,91.8 285.235382907248,95.4" fill="#00d9ff" stroke="#0077b6" stroke-width="0.5" fill-opacity="0.7472811400521047" stroke-opacity="0.7472811400521047" transform="rotate(40.0 279.0 99.00000000000001)" />
  <polygon points="15.23538290724796,120.6 9.0,124.2 2.764617092752043,120.60000000000001 2.7646170927520397,113.4 8.999999999999998,109.8 15.23538290724796,113.4" fill="#00d9ff" stroke="#0077b6" stroke-width="0.5" fill-opacity="0.46973125884016975" stroke-opacity="0.46973125884016975" />
  <polygon points="33.23538290724796,120.6 27.0,124.2 20.764617092752044,120.60000000000001 20.76461709275204,113.4 27.0,109.8 33.23538290724796,113.4" fill="#00d9ff" stroke="#0077b6" stroke-width="0.5" fill-opacity="0.4720724902488888" stroke-opacity="0.4720724902488888" transform="rotate(3.2 27.0 117.0)" />
  <polygon points="51.23538290724796,120.6 45.0,124.2 38.76461709275204,120.60000000000001 38.76461709275204,113.4 45.0,109.8 51.23538290724796,113.4" fill="#00d9ff" stroke="#0077b6" stroke-width="0.5" fill-opacity="0.47891245602084187" stroke-opacity="0.47891245602084187" transform="rotate(6.4 45.0 117.0)" />
  <polygon points="69.23538290724795,120.6 63.0,124.2 56.76461709275204,120.60000000000001 56.76461709275204,113.4 63.0,109.8 69.23538290724795,113.4" fill="#00d9ff" stroke="#0077b6" stroke-width="0.5" fill-opacity="0.4897653163366158" stroke-opacity="0.4897653163366158" transform="rotate(9.600000000000001 63.0 117.0)" />
  <polygon points="87.23538290724795,120.6 81.0,124.2 74.76461709275205,120.60000000000001 74.76461709275203,113.4 81.0,109.8 87.23538290724795,113.4" fill="#00d9ff" stroke="#0077b6" stroke-width="0.5" fill-opacity="0.5039915855990942" stroke-opacity="0.5039915855990942" transform="rotate(12.8 81.0 117.0)" />
  <polygon points="105.23538290724795,120.6 99.0,124.2 92.76461709275205,120.60000000000001 92.76461709275203,113.4 99.0,109.8 105.23538290724795,113.4" fill="#00d9ff" stroke="#0077b6" stroke-width="0.5" fill-opacity="0.5209405848912774" stroke-opacity="0.5209405848912774" transform="rotate(16.0 99.0 117.0)" />
  <polygon points="123.23538290724795,120.6 117.0,124.2 110.76461709275205,120.60000000000001 110.76461709275203,113.4 117.0,109.8 123.23538290724795,113.4" fill="#00d9ff" stroke="#0077b6" stroke-width="0.5" fill-opacity="0.5400362482104264" stroke-opacity="0.5400362482104264" transform="rotate(19.200000000000003 117.0 117.0)" />
  <polygon points="141.23538290724795,120.6 135.0,124.2 128.76461709275205,120.60000000000001 128.76461709275205,113.4 135.0,109.8 141.23538290724795,113.4" fill="#00d9ff" stroke="#0077b6" stroke-width="0.5" fill-opacity="0.5608074811115384" stroke-opacity="0.5608074811115384" transform="rotate(22.400000000000002 135.0 117.0)" />
  <polygon points="159.23538290724795,120.6 153.0,124.2 146.76461709275205,120.60000000000001 146.76461709275205,113.4 153.0,109.8 159.23538290724795,113.4" fill="#00d9ff" stroke="#0077b6" stroke-width="0.5" fill-opacity="0.5828854314002829" stroke-opacity="0.5828854314002829" transform="rotate(25.6 153.0 117.0)" />
  <polygon points="177.23538290724795,120.6 171.0,124.2 164.76461709275205,120.60000000000001 164.76461709275205,113.4 171.0,109.8 177.23538290724795,113.4" fill="#00d9ff" stroke="#0077b6" stroke-width="0.5" fill-opacity="0.6059873783986413" stroke-opacity="0.6059873783986413" transform="rotate(28.799999999999997 171.0 117.0)" />
  <polygon points="195.23538290724795,120.6 189.0,124.2 182.76461709275205,120.60000000000001 182.76461709275205,113.4 189.0,109.8 195.23538290724795,113.4" fill="#00d9ff" stroke="#0077b6" stroke-width="0.5" fill-opacity="0.629898268449522" stroke-opacity="0.629898268449522" transform="rotate(32.0 189.0 117.0)" />
  <polygon points="213.23538290724795,120.6 207.0,124.2 200.76461709275205,120.60000000000001 200.76461709275205,113.4 207.0,109.8 213.23538290724795,113.4" fill="#00d9ff" stroke="#0077b6" stroke-width="0.5" fill-opacity="0.6544544295938237" stroke-opacity="0.6544544295938237" transform="rotate(35.2 206.99999999999997 117.0)" />
  <polygon points="231.23538290724795,120.6 225.0,124.2 218.76461709275205,120.60000000000001 218.76461709275205,113.4 225.0,109.8 231.23538290724795,113.4" fill="#00d9ff" stroke="#0077b6" stroke-width="0.5" fill-opacity="0.6795306326732317" stroke-opacity="0.6795306326732317" transform="rotate(38.400000000000006 224.99999999999997 117.0)" />
  <polygon points="249.23538290724795,120.6 243.0,124.2 236.76461709275205,120.60000000000001 236.76461709275205,113.4 243.0,109.8 249.23538290724795,113.4" fill="#00d9ff" stroke="#0077b6" stroke-width="0.5" fill-opacity="0.7050302988196988" stroke-opacity="0.7050302988196988" transform="rotate(41.6 242.99999999999997 117.0)" />
  <polygon points="267.235382907248,120.6 261.0,124.2 254.76461709275205,120.60000000000001 254.76461709275205,113.4 261.0,109.8 267.235382907248,113.4" fill="#00d9ff" stroke="#0077b6" stroke-width="0.5" fill-opacity="0.7308782520997967" stroke-opacity="0.7308782520997967" transform="rotate(44.800000000000004 261.0 117.0)" />
  <polygon points="285.235382907248,120.6 279.0,124.2 272.764617092752,120.60000000000001 272.764617092752,113.4 279.0,109.8 285.235382907248,113.4" fill="#00d9ff" stroke="#0077b6" stroke-width="0.5" fill-opacity="0.7570154008883596" stroke-opacity="0.7570154008883596" transform="rotate(48.0 279.0 117.0)" />
  <polygon points="15.23538290724796,138.6 9.0,142.2 2.764617092752043,138.6 2.7646170927520397,131.4 8.999999999999998,127.8 15.23538290724796,131.4" fill="#00d9ff" stroke="#0077b6" stroke-width="0.5" fill-opacity="0.498019801980198" stroke-opacity="0.498019801980198" />
  <polygon points="33.23538290724796,138.6 27.0,142.2 20.764617092752044,138.6 20.76461709275204,131.4 27.0,127.8 33.23538290724796,131.4" fill="#00d9ff" stroke="#0077b6" stroke-width="0.5" fill-opacity="0.5000302068420219" stroke-opacity="0.5000302068420219" transform="rotate(3.7333333333333334 27.0 134.99999999999997)" />
  <polygon points="51.23538290724796,138.6 45.0,142.2 38.76461709275204,138.6 38.76461709275204,131.4 45.0,127.8 51.23538290724796,131.4" fill="#00d9ff" stroke="#0077b6" stroke-width="0.5" fill-opacity="0.5059437026670586" stroke-opacity="0.5059437026670586" transform="rotate(7.466666666666667 45.0 134.99999999999997)" />
  <polygon points="69.23538290724795,138.6 63.0,142.2 56.76461709275204,138.6 56.76461709275204,131.4 63.0,127.8 69.23538290724795,131.4" fill="#00d9ff" stroke="#0077b6" stroke-width="0.5" fill-opacity="0.5154391260498984" stroke-opacity="0.5154391260498984" transform="rotate(11.200000000000001 63.0 134.99999999999997)" />
  <polygon points="87.23538290724795,138.6 81.0,142.2 74.76461709275205,138.6 74.76461709275203,131.4 81.0,127.8 87.23538290724795,131.4" fill="#00d9ff" stroke="#0077b6" stroke-width="0.5" fill-opacity="0.5280695261187709" stroke-opacity="0.5280695261187709" transform="rotate(14.933333333333334 81.0 134.99999999999997)" />
  <polygon points="105.23538290724795,138.6 99.0,142.2 92.76461709275205,138.6 92.76461709275203,131.4 99.0,127.8 105.23538290724795,131.4" fill="#00d9ff" stroke="#0077b6" stroke-width="0.5" fill-opacity="0.5433472494212908" stroke-opacity="0.5433472494212908" transform="rotate(18.666666666666668 99.0 134.99999999999997)" />
  <polygon points="123.23538290724795,138.6 117.0,142.2 110.76461709275205,138.6 110.76461709275203,131.4 117.0,127.8 123.23538290724795,131.4" fill="#00d9ff" stroke="#0077b6" stroke-width="0.5" fill-opacity="0.5608074811115384" stroke-opacity="0.5608074811115384" transform="rotate(22.400000000000002 117.0 134.99999999999997)" />
  <polygon points="141.23538290724795,138.6 135.0,142.2 128.76461709275205,138.6 128.76461709275205,131.4 135.0,127.8 141.23538290724795,131.4" fill="#00d9ff" stroke="#0077b6" stroke-width="0.5" fill-opacity="0.5800422895788306" stroke-opacity="0.5800422895788306" transform="rotate(26.133333333333336 135.0 134.99999999999997)" />
  <polygon points="159.23538290724795,138.6 153.0,142.2 146.76461709275205,138.6 146.76461709275205,131.4 153.0,127.8 159.23538290724795,131.4" fill="#00d9ff" stroke="#0077b6" stroke-width="0.5" fill-opacity="0.6007113384083351" stroke-opacity="0.6007113384083351" transform="rotate(29.866666666666667 153.0 134.99999999999997)" />
  <polygon points="177.23538290724795,138.6 171.0,142.2 164.76461709275205,138.6 164.76461709275205,131.4 171.0,127.8 177.23538290724795,131.4" fill="#00d9ff" stroke="#0077b6" stroke-width="0.5" fill-opacity="0.6225390170011705" stroke-opacity="0.6225390170011705" transform="rotate(33.599999999999994 171.0 134.99999999999997)" />
  <polygon points="195.23538290724795,138.6 189.0,142.2 182.76461709275205,138.6 182.76461709275205,131.4 189.0,127.8 195.23538290724795,131.4" fill="#00d9ff" stroke="#0077b6" stroke-width="0.5" fill-opacity="0.6453056751268375" stroke-opacity="0.6453056751268375" transform="rotate(37.333333333333336 189.0 134.99999999999997)" />
  <polygon points="213.23538290724795,138.6 207.0,142.2 200.76461709275205,138.6 200.76461709275205,131.4 207.0,127.8 213.23538290724795,131.4" fill="#00d9ff" stroke="#0077b6" stroke-width="0.5" fill-opacity="0.6688374769563026" stroke-opacity="0.6688374769563026" transform="rotate(41.06666666666666 206.99999999999997 134.99999999999997)" />
  <polygon points="231.23538290724795,138.6 225.0,142.2 218.76461709275205,138.6 218.76461709275205,131.4 225.0,127.8 231.23538290724795,131.4" fill="#00d9ff" stroke="#0077b6" stroke-width="0.5" fill-opacity="0.6929970011159776" stroke-opacity="0.6929970011159776" transform="rotate(44.800000000000004 224.99999999999997 134.99999999999997)" />
  <polygon points="249.23538290724795,138.6 243.0,142.2 236.76461709275205,138.6 236.76461709275205,131.4 243.0,127.8 249.23538290724795,131.4" fill="#00d9ff" stroke="#0077b6" stroke-width="0.5" fill-opacity="0.7176753340942971" stroke-opacity="0.7176753340942971" transform="rotate(48.53333333333333 242.99999999999997 134.99999999999997)" />
  <polygon points="267.235382907248,138.6 261.0,142.2 254.76461709275205,138.6 254.76461709275205,131.4 261.0,127.8 267.235382907248,131.4" fill="#00d9ff" stroke="#0077b6" stroke-width="0.5" fill-opacity="0.7427857381187702" stroke-opacity="0.7427857381187702" transform="rotate(52.26666666666667 261.0 134.99999999999997)" />
  <polygon points="285.235382907248,138.6 279.0,142.2 272.764617092752,138.6 272.764617092752,131.4 279.0,127.8 285.235382907248,131.4" fill="#00d9ff" stroke="#0077b6" stroke-width="0.5" fill-opacity="0.7682587088330085" stroke-opacity="0.7682587088330085" transform="rotate(56.0 279.0 134.99999999999997)" />
  <polygon points="15.23538290724796,156.6 9.0,160.2 2.764617092752043,156.6 2.7646170927520397,149.4 8.999999999999998,145.8 15.23538290724796,149.4" fill="#00d9ff" stroke="#0077b6" stroke-width="0.5" fill-opacity="0.5263083451202263" stroke-opacity="0.5263083451202263" />
  <polygon points="33.23538290724796,156.6 27.0,160.2 20.764617092752044,156.6 20.76461709275204,149.4 27.0,145.8 33.23538290724796,149.4" fill="#00d9ff" stroke="#0077b6" stroke-width="0.5" fill-opacity="0.5280695261187708" stroke-opacity="0.5280695261187708" transform="rotate(4.266666666666667 27.0 152.99999999999997)" />
  <polygon points="51.23538290724796,156.6 45.0,160.2 38.76461709275204,156.6 38.76461709275204,149.4 45.0,145.8 51.23538290724796,149.4" fill="#00d9ff" stroke="#0077b6" stroke-width="0.5" fill-opacity="0.5332733027223571" stroke-opacity="0.5332733027223571" transform="rotate(8.533333333333333 45.0 152.99999999999997)" />
  <polygon points="69.23538290724795,156.6 63.0,160.2 56.76461709275204,156.6 56.76461709275204,149.4 63.0,145.8 69.23538290724795,149.4" fill="#00d9ff" stroke="#0077b6" stroke-width="0.5" fill-opacity="0.5416974185379783" stroke-opacity="0.5416974185379783" transform="rotate(12.8 63.0 152.99999999999997)" />
  <polygon points="87.23538290724795,156.6 81.0,160.2 74.76461709275205,156.6 74.76461709275203,149.4 81.0,145.8 87.23538290724795,149.4" fill="#00d9ff" stroke="#0077b6" stroke-width="0.5" fill-opacity="0.5530204217821544" stroke-opacity="0.5530204217821544" transform="rotate(17.066666666666666 81.0 152.99999999999997)" />
  <polygon points="105.23538290724795,156.6 99.0,160.2 92.76461709275205,156.6 92.76461709275203,149.4 99.0,145.8 105.23538290724795,149.4" fill="#00d9ff" stroke="#0077b6" stroke-width="0.5" fill-opacity="0.5668735822363962" stroke-opacity="0.5668735822363962" transform="rotate(21.333333333333332 99.0 152.99999999999997)" />
  <polygon points="123.23538290724795,156.6 117.0,160.2 110.76461709275205,156.6 110.76461709275203,149.4 117.0,145.8 123.23538290724795,149.4" fill="#00d9ff" stroke="#0077b6" stroke-width="0.5" fill-opacity="0.5828854314002829" stroke-opacity="0.5828854314002829" transform="rotate(25.6 117.0 152.99999999999997)" />
  <polygon points="141.23538290724795,156.6 135.0,160.2 128.76461709275205,156.6 128.76461709275205,149.4 135.0,145.8 141.23538290724795,149.4" fill="#00d9ff" stroke="#0077b6" stroke-width="0.5" fill-opacity="0.6007113384083351" stroke-opacity="0.6007113384083351" transform="rotate(29.866666666666667 135.0 152.99999999999997)" />
  <polygon points="159.23538290724795,156.6 153.0,160.2 146.76461709275205,156.6 146.76461709275205,149.4 153.0,145.8 159.23538290724795,149.4" fill="#00d9ff" stroke="#0077b6" stroke-width="0.5" fill-opacity="0.6200483309472351" stroke-opacity="0.6200483309472351" transform="rotate(34.13333333333333 153.0 152.99999999999997)" />
  <polygon points="177.23538290724795,156.6 171.0,160.2 164.76461709275205,156.6 164.76461709275205,149.4 171.0,145.8 177.23538290724795,149.4" fill="#00d9ff" stroke="#0077b6" stroke-width="0.5" fill-opacity="0.6406391677168966" stroke-opacity="0.6406391677168966" transform="rotate(38.4 171.0 152.99999999999997)" />
  <polygon points="195.23538290724795,156.6 189.0,160.2 182.76461709275205,156.6 182.76461709275205,149.4 189.0,145.8 195.23538290724795,149.4" fill="#00d9ff" stroke="#0077b6" stroke-width="0.5" fill-opacity="0.6622701124431598" stroke-opacity="0.6622701124431598" transform="rotate(42.666666666666664 189.0 152.99999999999997)" />
  <polygon points="213.23538290724795,156.6 207.0,160.2 200.76461709275205,156.6 200.76461709275205,149.4 207.0,145.8 213.23538290724795,149.4" fill="#00d9ff" stroke="#0077b6" stroke-width="0.5" fill-opacity="0.6847657852541851" stroke-opacity="0.6847657852541851" transform="rotate(46.93333333333333 206.99999999999997 152.99999999999997)" />
  <polygon points="231.23538290724795,156.6 225.0,160.2 218.76461709275205,156.6 218.76461709275205,149.4 225.0,145.8 231.23538290724795,149.4" fill="#00d9ff" stroke="#0077b6" stroke-width="0.5" fill-opacity="0.7079831711981883" stroke-opacity="0.7079831711981883" transform="rotate(51.2 224.99999999999997 152.99999999999997)" />
  <polygon points="249.23538290724795,156.6 243.0,160.2 236.76461709275205,156.6 236.76461709275205,149.4 243.0,145.8 249.23538290724795,149.4" fill="#00d9ff" stroke="#0077b6" stroke-width="0.5" fill-opacity="0.7318058705084511" stroke-opacity="0.7318058705084511" transform="rotate(55.46666666666667 242.99999999999997 152.99999999999997)" />
  <polygon points="267.235382907248,156.6 261.0,160.2 254.76461709275205,156.6 254.76461709275205,149.4 261.0,145.8 267.235382907248,149.4" fill="#00d9ff" stroke="#0077b6" stroke-width="0.5" fill-opacity="0.7561390522375417" stroke-opacity="0.7561390522375417" transform="rotate(59.733333333333334 261.0 152.99999999999997)" />
  <polygon points="285.235382907248,156.6 279.0,160.2 272.764617092752,156.6 272.764617092752,149.4 279.0,145.8 285.235382907248,149.4" fill="#00d9ff" stroke="#0077b6" stroke-width="0.5" fill-opacity="0.7809052333804809" stroke-opacity="0.7809052333804809" transform="rotate(64.0 279.0 152.99999999999997)" />
  <polygon points="15.23538290724796,174.6 9.0,178.2 2.764617092752043,174.6 2.7646170927520397,167.4 8.999999999999998,163.8 15.23538290724796,167.4" fill="#00d9ff" stroke="#0077b6" stroke-width="0.5" fill-opacity="0.5545968882602546" stroke-opacity="0.5545968882602546" />
  <polygon points="33.23538290724796,174.6 27.0,178.2 20.764617092752044,174.6 20.76461709275204,167.4 27.0,163.8 33.23538290724796,167.4" fill="#00d9ff" stroke="#0077b6" stroke-width="0.5" fill-opacity="0.5561636531297713" stroke-opacity="0.5561636531297713" transform="rotate(4.8 27.0 171.0)" />
  <polygon points="51.23538290724796,174.6 45.0,178.2 38.76461709275204,174.6 38.76461709275204,167.4 45.0,163.8 51.23538290724796,167.4" fill="#00d9ff" stroke="#0077b6" stroke-width="0.5" fill-opacity="0.5608074811115384" stroke-opacity="0.5608074811115384" transform="rotate(9.6 45.0 171.0)" />
  <polygon points="69.23538290724795,174.6 63.0,178.2 56.76461709275204,174.6 56.76461709275204,167.4 63.0,163.8 69.23538290724795,167.4" fill="#00d9ff" stroke="#0077b6" stroke-width="0.5" fill-opacity="0.5683686840312627" stroke-opacity="0.5683686840312627" transform="rotate(14.399999999999999 63.0 171.0)" />
  <polygon points="87.23538290724795,174.6 81.0,178.2 74.76461709275205,174.6 74.76461709275203,167.4 81.0,163.8 87.23538290724795,167.4" fill="#00d9ff" stroke="#0077b6" stroke-width="0.5" fill-opacity="0.5786098388061133" stroke-opacity="0.5786098388061133" transform="rotate(19.2 81.0 171.0)" />
  <polygon points="105.23538290724795,174.6 99.0,178.2 92.76461709275205,174.6 92.76461709275203,167.4 99.0,163.8 105.23538290724795,167.4" fill="#00d9ff" stroke="#0077b6" stroke-width="0.5" fill-opacity="0.5912483773970862" stroke-opacity="0.5912483773970862" transform="rotate(23.999999999999996 99.0 171.0)" />
  <polygon points="123.23538290724795,174.6 117.0,178.2 110.76461709275205,174.6 110.76461709275203,167.4 117.0,163.8 123.23538290724795,167.4" fill="#00d9ff" stroke="#0077b6" stroke-width="0.5" fill-opacity="0.6059873783986413" stroke-opacity="0.6059873783986413" transform="rotate(28.799999999999997 117.0 171.0)" />
  <polygon points="141.23538290724795,174.6 135.0,178.2 128.76461709275205,174.6 128.76461709275205,167.4 135.0,163.8 141.23538290724795,167.4" fill="#00d9ff" stroke="#0077b6" stroke-width="0.5" fill-opacity="0.6225390170011705" stroke-opacity="0.6225390170011705" transform="rotate(33.599999999999994 135.0 171.0)" />
  <polygon points="159.23538290724795,174.6 153.0,178.2 146.76461709275205,174.6 146.76461709275205,167.4 153.0,163.8 159.23538290724795,167.4" fill="#00d9ff" stroke="#0077b6" stroke-width="0.5" fill-opacity="0.6406391677168966" stroke-opacity="0.6406391677168966" transform="rotate(38.4 153.0 171.0)" />
  <polygon points="177.23538290724795,174.6 171.0,178.2 164.76461709275205,174.6 164.76461709275205,167.4 171.0,163.8 177.23538290724795,167.4" fill="#00d9ff" stroke="#0077b6" stroke-width="0.5" fill-opacity="0.6600543723156395" stroke-opacity="0.6600543723156395" transform="rotate(43.199999999999996 171.0 171.0)" />
  <polygon points="195.23538290724795,174.6 189.0,178.2 182.76461709275205,174.6 182.76461709275205,167.4 189.0,163.8 195.23538290724795,167.4" fill="#00d9ff" stroke="#0077b6" stroke-width="0.5" fill-opacity="0.6805834242453666" stroke-opacity="0.6805834242453666" transform="rotate(47.99999999999999 189.0 171.0)" />
  <polygon points="213.23538290724795,174.6 207.0,178.2 200.76461709275205,174.6 200.76461709275205,167.4 207.0,163.8 213.23538290724795,167.4" fill="#00d9ff" stroke="#0077b6" stroke-width="0.5" fill-opacity="0.7020557398458811" stroke-opacity="0.7020557398458811" transform="rotate(52.8 206.99999999999997 171.0)" />
  <polygon points="231.23538290724795,174.6 225.0,178.2 218.76461709275205,174.6 218.76461709275205,167.4 225.0,163.8 231.23538290724795,167.4" fill="#00d9ff" stroke="#0077b6" stroke-width="0.5" fill-opacity="0.7243281471004244" stroke-opacity="0.7243281471004244" transform="rotate(57.599999999999994 224.99999999999997 171.0)" />
  <polygon points="249.23538290724795,174.6 243.0,178.2 236.76461709275205,174.6 236.76461709275205,167.4 243.0,163.8 249.23538290724795,167.4" fill="#00d9ff" stroke="#0077b6" stroke-width="0.5" fill-opacity="0.7472811400521047" stroke-opacity="0.7472811400521047" transform="rotate(62.400000000000006 242.99999999999997 171.0)" />
  <polygon points="267.235382907248,174.6 261.0,178.2 254.76461709275205,174.6 254.76461709275205,167.4 261.0,163.8 267.235382907248,167.4" fill="#00d9ff" stroke="#0077b6" stroke-width="0.5" fill-opacity="0.7708151902996673" stroke-opacity="0.7708151902996673" transform="rotate(67.19999999999999 261.0 171.0)" />
  <polygon points="285.235382907248,174.6 279.0,178.2 272.764617092752,174.6 272.764617092752,167.4 279.0,163.8 285.235382907248,167.4" fill="#00d9ff" stroke="#0077b6" stroke-width="0.5" fill-opacity="0.7948474026742829" stroke-opacity="0.7948474026742829" transform="rotate(72.0 279.0 171.0)" />
  <polygon points="15.23538290724796,192.6 9.0,196.2 2.764617092752043,192.6 2.7646170927520397,185.4 8.999999999999998,181.8 15.23538290724796,185.4" fill="#00d9ff" stroke="#0077b6" stroke-width="0.5" fill-opacity="0.5828854314002829" stroke-opacity="0.5828854314002829" />
  <polygon points="33.23538290724796,192.6 27.0,196.2 20.764617092752044,192.6 20.76461709275204,185.4 27.0,181.8 33.23538290724796,185.4" fill="#00d9ff" stroke="#0077b6" stroke-width="0.5" fill-opacity="0.5842963400599969" stroke-opacity="0.5842963400599969" transform="rotate(5.333333333333333 27.0 189.0)" />
  <polygon points="51.23538290724796,192.6 45.0,196.2 38.76461709275204,192.6 38.76461709275204,185.4 45.0,181.8 51.23538290724796,185.4" fill="#00d9ff" stroke="#0077b6" stroke-width="0.5" fill-opacity="0.5884876669642312" stroke-opacity="0.5884876669642312" transform="rotate(10.666666666666666 45.0 189.0)" />
  <polygon points="69.23538290724795,192.6 63.0,196.2 56.76461709275204,192.6 56.76461709275204,185.4 63.0,181.8 69.23538290724795,185.4" fill="#00d9ff" stroke="#0077b6" stroke-width="0.5" fill-opacity="0.5953410610724342" stroke-opacity="0.5953410610724342" transform="rotate(16.0 63.0 189.0)" />
  <polygon points="87.23538290724795,192.6 81.0,196.2 74.76461709275205,192.6 74.76461709275203,185.4 81.0,181.8 87.23538290724795,185.4" fill="#00d9ff" stroke="#0077b6" stroke-width="0.5" fill-opacity="0.6046769339255731" stroke-opacity="0.6046769339255731" transform="rotate(21.333333333333332 81.0 189.0)" />
  <polygon points="105.23538290724795,192.6 99.0,196.2 92.76461709275205,192.6 92.76461709275203,185.4 99.0,181.8 105.23538290724795,185.4" fill="#00d9ff" stroke="#0077b6" stroke-width="0.5" fill-opacity="0.6162755272276931" stroke-opacity="0.6162755272276931" transform="rotate(26.666666666666664 99.0 189.0)" />
  <polygon points="123.23538290724795,192.6 117.0,196.2 110.76461709275205,192.6 110.76461709275203,185.4 117.0,181.8 123.23538290724795,185.4" fill="#00d9ff" stroke="#0077b6" stroke-width="0.5" fill-opacity="0.629898268449522" stroke-opacity="0.629898268449522" transform="rotate(32.0 117.0 189.0)" />
  <polygon points="141.23538290724795,192.6 135.0,196.2 128.76461709275205,192.6 128.76461709275205,185.4 135.0,181.8 141.23538290724795,185.4" fill="#00d9ff" stroke="#0077b6" stroke-width="0.5" fill-opacity="0.6453056751268375" stroke-opacity="0.6453056751268375" transform="rotate(37.333333333333336 135.0 189.0)" />
  <polygon points="159.23538290724795,192.6 153.0,196.2 146.76461709275205,192.6 146.76461709275205,185.4 153.0,181.8 159.23538290724795,185.4" fill="#00d9ff" stroke="#0077b6" stroke-width="0.5" fill-opacity="0.6622701124431598" stroke-opacity="0.6622701124431598" transform="rotate(42.666666666666664 153.0 189.0)" />
  <polygon points="177.23538290724795,192.6 171.0,196.2 164.76461709275205,192.6 164.76461709275205,185.4 171.0,181.8 177.23538290724795,185.4" fill="#00d9ff" stroke="#0077b6" stroke-width="0.5" fill-opacity="0.6805834242453666" stroke-opacity="0.6805834242453666" transform="rotate(47.99999999999999 171.0 189.0)" />
  <polygon points="195.23538290724795,192.6 189.0,196.2 182.76461709275205,192.6 182.76461709275205,185.4 189.0,181.8 195.23538290724795,185.4" fill="#00d9ff" stroke="#0077b6" stroke-width="0.5" fill-opacity="0.7000604136840438" stroke-opacity="0.7000604136840438" transform="rotate(53.33333333333333 189.0 189.0)" />
  <polygon points="213.23538290724795,192.6 207.0,196.2 200.76461709275205,192.6 200.76461709275205,185.4 207.0,181.8 213.23538290724795,185.4" fill="#00d9ff" stroke="#0077b6" stroke-width="0.5" fill-opacity="0.7205394270811458" stroke-opacity="0.7205394270811458" transform="rotate(58.66666666666666 206.99999999999997 189.0)" />
  <polygon points="231.23538290724795,192.6 225.0,196.2 218.76461709275205,192.6 218.76461709275205,185.4 225.0,181.8 231.23538290724795,185.4" fill="#00d9ff" stroke="#0077b6" stroke-width="0.5" fill-opacity="0.7418811697825547" stroke-opacity="0.7418811697825547" transform="rotate(64.0 224.99999999999997 189.0)" />
  <polygon points="249.23538290724795,192.6 243.0,196.2 236.76461709275205,192.6 236.76461709275205,185.4 243.0,181.8 249.23538290724795,185.4" fill="#00d9ff" stroke="#0077b6" stroke-width="0.5" fill-opacity="0.7639666044372482" stroke-opacity="0.7639666044372482" transform="rotate(69.33333333333333 242.99999999999997 189.0)" />
  <polygon points="267.235382907248,192.6 261.0,196.2 254.76461709275205,192.6 254.76461709275205,185.4 261.0,181.8 267.235382907248,185.4" fill="#00d9ff" stroke="#0077b6" stroke-width="0.5" fill-opacity="0.7866944988425815" stroke-opacity="0.7866944988425815" transform="rotate(74.66666666666667 261.0 189.0)" />
  <polygon points="285.235382907248,192.6 279.0,196.2 272.764617092752,192.6 272.764617092752,185.4 279.0,181.8 285.235382907248,185.4" fill="#00d9ff" stroke="#0077b6" stroke-width="0.5" fill-opacity="0.8099789639977353" stroke-opacity="0.8099789639977353" transform="rotate(80.0 279.0 189.0)" />
  <polygon points="15.23538290724796,210.6 9.0,214.2 2.764617092752043,210.6 2.7646170927520397,203.4 8.999999999999998,199.8 15.23538290724796,203.4" fill="#00d9ff" stroke="#0077b6" stroke-width="0.5" fill-opacity="0.6111739745403111" stroke-opacity="0.6111739745403111" />
  <polygon points="33.23538290724796,210.6 27.0,214.2 20.764617092752044,210.6 20.76461709275204,203.4 27.0,199.8 33.23538290724796,203.4" fill="#00d9ff" stroke="#0077b6" stroke-width="0.5" fill-opacity="0.6124571716318885" stroke-opacity="0.6124571716318885" transform="rotate(5.866666666666666 27.0 207.0)" />
  <polygon points="51.23538290724796,210.6 45.0,214.2 38.76461709275204,210.6 38.76461709275204,203.4 45.0,199.8 51.23538290724796,203.4" fill="#00d9ff" stroke="#0077b6" stroke-width="0.5" fill-opacity="0.616275527227693" stroke-opacity="0.616275527227693" transform="rotate(11.733333333333333 45.0 207.0)" />
  <polygon points="69.23538290724795,210.6 63.0,214.2 56.76461709275204,210.6 56.76461709275204,203.4 63.0,199.8 69.23538290724795,203.4" fill="#00d9ff" stroke="#0077b6" stroke-width="0.5" fill-opacity="0.6225390170011705" stroke-opacity="0.6225390170011705" transform="rotate(17.6 63.0 207.0)" />
  <polygon points="87.23538290724795,210.6 81.0,214.2 74.76461709275205,210.6 74.76461709275203,203.4 81.0,199.8 87.23538290724795,203.4" fill="#00d9ff" stroke="#0077b6" stroke-width="0.5" fill-opacity="0.6311089083654774" stroke-opacity="0.6311089083654774" transform="rotate(23.466666666666665 81.0 207.0)" />
  <polygon points="105.23538290724795,210.6 99.0,214.2 92.76461709275205,210.6 92.76461709275203,203.4 99.0,199.8 105.23538290724795,203.4" fill="#00d9ff" stroke="#0077b6" stroke-width="0.5" fill-opacity="0.6418117672869752" stroke-opacity="0.6418117672869752" transform="rotate(29.33333333333333 99.0 207.0)" />
  <polygon points="123.23538290724795,210.6 117.0,214.2 110.76461709275205,210.6 110.76461709275203,203.4 117.0,199.8 123.23538290724795,203.4" fill="#00d9ff" stroke="#0077b6" stroke-width="0.5" fill-opacity="0.6544544295938237" stroke-opacity="0.6544544295938237" transform="rotate(35.2 117.0 207.0)" />
  <polygon points="141.23538290724795,210.6 135.0,214.2 128.76461709275205,210.6 128.76461709275205,203.4 135.0,199.8 141.23538290724795,203.4" fill="#00d9ff" stroke="#0077b6" stroke-width="0.5" fill-opacity="0.6688374769563026" stroke-opacity="0.6688374769563026" transform="rotate(41.06666666666666 135.0 207.0)" />
  <polygon points="159.23538290724795,210.6 153.0,214.2 146.76461709275205,210.6 146.76461709275205,203.4 153.0,199.8 159.23538290724795,203.4" fill="#00d9ff" stroke="#0077b6" stroke-width="0.5" fill-opacity="0.6847657852541851" stroke-opacity="0.6847657852541851" transform="rotate(46.93333333333333 153.0 207.0)" />
  <polygon points="177.23538290724795,210.6 171.0,214.2 164.76461709275205,210.6 164.76461709275205,203.4 171.0,199.8 177.23538290724795,203.4" fill="#00d9ff" stroke="#0077b6" stroke-width="0.5" fill-opacity="0.7020557398458811" stroke-opacity="0.7020557398458811" transform="rotate(52.8 171.0 207.0)" />
  <polygon points="195.23538290724795,210.6 189.0,214.2 182.76461709275205,210.6 182.76461709275205,203.4 189.0,199.8 195.23538290724795,203.4" fill="#00d9ff" stroke="#0077b6" stroke-width="0.5" fill-opacity="0.7205394270811458" stroke-opacity="0.7205394270811458" transform="rotate(58.66666666666666 189.0 207.0)" />
  <polygon points="213.23538290724795,210.6 207.0,214.2 200.76461709275205,210.6 200.76461709275205,203.4 207.0,199.8 213.23538290724795,203.4" fill="#00d9ff" stroke="#0077b6" stroke-width="0.5" fill-opacity="0.7400664550524482" stroke-opacity="0.7400664550524482" transform="rotate(64.53333333333332 206.99999999999997 207.0)" />
  <polygon points="231.23538290724795,210.6 225.0,214.2 218.76461709275205,210.6 218.76461709275205,203.4 225.0,199.8 231.23538290724795,203.4" fill="#00d9ff" stroke="#0077b6" stroke-width="0.5" fill-opacity="0.7605041187015475" stroke-opacity="0.7605041187015475" transform="rotate(70.4 224.99999999999997 207.0)" />
  <polygon points="249.23538290724795,210.6 243.0,214.2 236.76461709275205,210.6 236.76461709275205,203.4 243.0,199.8 249.23538290724795,203.4" fill="#00d9ff" stroke="#0077b6" stroke-width="0.5" fill-opacity="0.7817365308607185" stroke-opacity="0.7817365308607185" transform="rotate(76.26666666666667 242.99999999999997 207.0)" />
  <polygon points="267.235382907248,210.6 261.0,214.2 254.76461709275205,210.6 254.76461709275205,203.4 261.0,199.8 267.235382907248,203.4" fill="#00d9ff" stroke="#0077b6" stroke-width="0.5" fill-opacity="0.8036631913653425" stroke-opacity="0.8036631913653425" transform="rotate(82.13333333333333 261.0 207.0)" />
  <polygon points="285.235382907248,210.6 279.0,214.2 272.764617092752,210.6 272.764617092752,203.4 279.0,199.8 285.235382907248,203.4" fill="#00d9ff" stroke="#0077b6" stroke-width="0.5" fill-opacity="0.8261973193136711" stroke-opacity="0.8261973193136711" transform="rotate(88.0 279.0 207.0)" />
  <polygon points="15.23538290724796,228.6 9.0,232.2 2.764617092752043,228.6 2.7646170927520397,221.4 8.999999999999998,217.8 15.23538290724796,221.4" fill="#00d9ff" stroke="#0077b6" stroke-width="0.5" fill-opacity="0.6394625176803395" stroke-opacity="0.6394625176803395" />
  <polygon points="33.23538290724796,228.6 27.0,232.2 20.764617092752044,228.6 20.76461709275204,221.4 27.0,217.8 33.23538290724796,221.4" fill="#00d9ff" stroke="#0077b6" stroke-width="0.5" fill-opacity="0.6406391677168967" stroke-opacity="0.6406391677168967" transform="rotate(6.4 27.0 225.0)" />
  <polygon points="51.23538290724796,228.6 45.0,232.2 38.76461709275204,228.6 38.76461709275204,221.4 45.0,217.8 51.23538290724796,221.4" fill="#00d9ff" stroke="#0077b6" stroke-width="0.5" fill-opacity="0.6441449804977777" stroke-opacity="0.6441449804977777" transform="rotate(12.8 45.0 225.0)" />
  <polygon points="69.23538290724795,228.6 63.0,232.2 56.76461709275204,228.6 56.76461709275204,221.4 63.0,217.8 69.23538290724795,221.4" fill="#00d9ff" stroke="#0077b6" stroke-width="0.5" fill-opacity="0.6499099540835356" stroke-opacity="0.6499099540835356" transform="rotate(19.200000000000003 63.0 225.0)" />
  <polygon points="87.23538290724795,228.6 81.0,232.2 74.76461709275205,228.6 74.76461709275203,221.4 81.0,217.8 87.23538290724795,221.4" fill="#00d9ff" stroke="#0077b6" stroke-width="0.5" fill-opacity="0.6578249120416837" stroke-opacity="0.6578249120416837" transform="rotate(25.6 81.0 225.0)" />
  <polygon points="105.23538290724795,228.6 99.0,232.2 92.76461709275205,228.6 92.76461709275203,221.4 99.0,217.8 105.23538290724795,221.4" fill="#00d9ff" stroke="#0077b6" stroke-width="0.5" fill-opacity="0.6677510608203678" stroke-opacity="0.6677510608203678" transform="rotate(32.0 99.0 225.0)" />
  <polygon points="123.23538290724795,228.6 117.0,232.2 110.76461709275205,228.6 110.76461709275203,221.4 117.0,217.8 123.23538290724795,221.4" fill="#00d9ff" stroke="#0077b6" stroke-width="0.5" fill-opacity="0.6795306326732317" stroke-opacity="0.6795306326732317" transform="rotate(38.400000000000006 117.0 225.0)" />
  <polygon points="141.23538290724795,228.6 135.0,232.2 128.76461709275205,228.6 128.76461709275205,221.4 135.0,217.8 141.23538290724795,221.4" fill="#00d9ff" stroke="#0077b6" stroke-width="0.5" fill-opacity="0.6929970011159776" stroke-opacity="0.6929970011159776" transform="rotate(44.800000000000004 135.0 225.0)" />
  <polygon points="159.23538290724795,228.6 153.0,232.2 146.76461709275205,228.6 146.76461709275205,221.4 153.0,217.8 159.23538290724795,221.4" fill="#00d9ff" stroke="#0077b6" stroke-width="0.5" fill-opacity="0.7079831711981883" stroke-opacity="0.7079831711981883" transform="rotate(51.2 153.0 225.0)" />
  <polygon points="177.23538290724795,228.6 171.0,232.2 164.76461709275205,228.6 164.76461709275205,221.4 171.0,217.8 177.23538290724795,221.4" fill="#00d9ff" stroke="#0077b6" stroke-width="0.5" fill-opacity="0.7243281471004244" stroke-opacity="0.7243281471004244" transform="rotate(57.599999999999994 171.0 225.0)" />
  <polygon points="195.23538290724795,228.6 189.0,232.2 182.76461709275205,228.6 182.76461709275205,221.4 189.0,217.8 195.23538290724795,221.4" fill="#00d9ff" stroke="#0077b6" stroke-width="0.5" fill-opacity="0.7418811697825547" stroke-opacity="0.7418811697825547" transform="rotate(64.0 189.0 225.0)" />
  <polygon points="213.23538290724795,228.6 207.0,232.2 200.76461709275205,228.6 200.76461709275205,221.4 207.0,217.8 213.23538290724795,221.4" fill="#00d9ff" stroke="#0077b6" stroke-width="0.5" fill-opacity="0.7605041187015475" stroke-opacity="0.7605041187015475" transform="rotate(70.4 206.99999999999997 225.0)" />
  <polygon points="231.23538290724795,228.6 225.0,232.2 218.76461709275205,228.6 218.76461709275205,221.4 225.0,217.8 231.23538290724795,221.4" fill="#00d9ff" stroke="#0077b6" stroke-width="0.5" fill-opacity="0.7800724964208527" stroke-opacity="0.7800724964208527" transform="rotate(76.80000000000001 224.99999999999997 225.0)" />
  <polygon points="249.23538290724795,228.6 243.0,232.2 236.76461709275205,228.6 236.76461709275205,221.4 243.0,217.8 249.23538290724795,221.4" fill="#00d9ff" stroke="#0077b6" stroke-width="0.5" fill-opacity="0.8004754176224649" stroke-opacity="0.8004754176224649" transform="rotate(83.2 242.99999999999997 225.0)" />
  <polygon points="267.235382907248,228.6 261.0,232.2 254.76461709275205,228.6 254.76461709275205,221.4 261.0,217.8 267.235382907248,221.4" fill="#00d9ff" stroke="#0077b6" stroke-width="0.5" fill-opacity="0.8216149622230771" stroke-opacity="0.8216149622230771" transform="rotate(89.60000000000001 261.0 225.0)" />
  <polygon points="285.235382907248,228.6 279.0,232.2 272.764617092752,228.6 272.764617092752,221.4 279.0,217.8 285.235382907248,221.4" fill="#00d9ff" stroke="#0077b6" stroke-width="0.5" fill-opacity="0.8434051686647397" stroke-opacity="0.8434051686647397" transform="rotate(96.0 279.0 225.0)" />
  <polygon points="15.23538290724796,246.6 9.0,250.2 2.764617092752043,246.6 2.7646170927520397,239.4 8.999999999999998,235.8 15.23538290724796,239.4" fill="#00d9ff" stroke="#0077b6" stroke-width="0.5" fill-opacity="0.6677510608203678" stroke-opacity="0.6677510608203678" />
  <polygon points="33.23538290724796,246.6 27.0,250.2 20.764617092752044,246.6 20.76461709275204,239.4 27.0,235.8 33.23538290724796,239.4" fill="#00d9ff" stroke="#0077b6" stroke-width="0.5" fill-opacity="0.6688374769563026" stroke-opacity="0.6688374769563026" transform="rotate(6.933333333333334 27.0 243.0)" />
  <polygon points="51.23538290724796,246.6 45.0,250.2 38.76461709275204,246.6 38.76461709275204,239.4 45.0,235.8 51.23538290724796,239.4" fill="#00d9ff" stroke="#0077b6" stroke-width="0.5" fill-opacity="0.67207769272888" stroke-opacity="0.67207769272888" transform="rotate(13.866666666666667 45.0 243.0)" />
  <polygon points="69.23538290724795,246.6 63.0,250.2 56.76461709275204,246.6 56.76461709275204,239.4 63.0,235.8 69.23538290724795,239.4" fill="#00d9ff" stroke="#0077b6" stroke-width="0.5" fill-opacity="0.6774162394378029" stroke-opacity="0.6774162394378029" transform="rotate(20.8 63.0 243.0)" />
  <polygon points="87.23538290724795,246.6 81.0,250.2 74.76461709275205,246.6 74.76461709275203,239.4 81.0,235.8 87.23538290724795,239.4" fill="#00d9ff" stroke="#0077b6" stroke-width="0.5" fill-opacity="0.6847657852541851" stroke-opacity="0.6847657852541851" transform="rotate(27.733333333333334 81.0 243.0)" />
  <polygon points="105.23538290724795,246.6 99.0,250.2 92.76461709275205,246.6 92.76461709275203,239.4 99.0,235.8 105.23538290724795,239.4" fill="#00d9ff" stroke="#0077b6" stroke-width="0.5" fill-opacity="0.6940138126501872" stroke-opacity="0.6940138126501872" transform="rotate(34.666666666666664 99.0 243.0)" />
  <polygon points="123.23538290724795,246.6 117.0,250.2 110.76461709275205,246.6 110.76461709275203,239.4 117.0,235.8 123.23538290724795,239.4" fill="#00d9ff" stroke="#0077b6" stroke-width="0.5" fill-opacity="0.7050302988196988" stroke-opacity="0.7050302988196988" transform="rotate(41.6 117.0 243.0)" />
  <polygon points="141.23538290724795,246.6 135.0,250.2 128.76461709275205,246.6 128.76461709275205,239.4 135.0,235.8 141.23538290724795,239.4" fill="#00d9ff" stroke="#0077b6" stroke-width="0.5" fill-opacity="0.7176753340942971" stroke-opacity="0.7176753340942971" transform="rotate(48.53333333333333 135.0 243.0)" />
  <polygon points="159.23538290724795,246.6 153.0,250.2 146.76461709275205,246.6 146.76461709275205,239.4 153.0,235.8 159.23538290724795,239.4" fill="#00d9ff" stroke="#0077b6" stroke-width="0.5" fill-opacity="0.7318058705084511" stroke-opacity="0.7318058705084511" transform="rotate(55.46666666666667 153.0 243.0)" />
  <polygon points="177.23538290724795,246.6 171.0,250.2 164.76461709275205,246.6 164.76461709275205,239.4 171.0,235.8 177.23538290724795,239.4" fill="#00d9ff" stroke="#0077b6" stroke-width="0.5" fill-opacity="0.7472811400521047" stroke-opacity="0.7472811400521047" transform="rotate(62.400000000000006 171.0 243.0)" />
  <polygon points="195.23538290724795,246.6 189.0,250.2 182.76461709275205,246.6 182.76461709275205,239.4 189.0,235.8 195.23538290724795,239.4" fill="#00d9ff" stroke="#0077b6" stroke-width="0.5" fill-opacity="0.7639666044372482" stroke-opacity="0.7639666044372482" transform="rotate(69.33333333333333 189.0 243.0)" />
  <polygon points="213.23538290724795,246.6 207.0,250.2 200.76461709275205,246.6 200.76461709275205,239.4 207.0,235.8 213.23538290724795,239.4" fill="#00d9ff" stroke="#0077b6" stroke-width="0.5" fill-opacity="0.7817365308607185" stroke-opacity="0.7817365308607185" transform="rotate(76.26666666666667 206.99999999999997 243.0)" />
  <polygon points="231.23538290724795,246.6 225.0,250.2 218.76461709275205,246.6 218.76461709275205,239.4 225.0,235.8 231.23538290724795,239.4" fill="#00d9ff" stroke="#0077b6" stroke-width="0.5" fill-opacity="0.8004754176224649" stroke-opacity="0.8004754176224649" transform="rotate(83.2 224.99999999999997 243.0)" />
  <polygon points="249.23538290724795,246.6 243.0,250.2 236.76461709275205,246.6 236.76461709275205,239.4 243.0,235.8 249.23538290724795,239.4" fill="#00d9ff" stroke="#0077b6" stroke-width="0.5" fill-opacity="0.820078537789257" stroke-opacity="0.820078537789257" transform="rotate(90.13333333333334 242.99999999999997 243.0)" />
  <polygon points="267.235382907248,246.6 261.0,250.2 254.76461709275205,246.6 254.76461709275205,239.4 261.0,235.8 267.235382907248,239.4" fill="#00d9ff" stroke="#0077b6" stroke-width="0.5" fill-opacity="0.8404518578371372" stroke-opacity="0.8404518578371372" transform="rotate(97.06666666666666 261.0 243.0)" />
  <polygon points="285.235382907248,246.6 279.0,250.2 272.764617092752,246.6 272.764617092752,239.4 279.0,235.8 285.235382907248,239.4" fill="#00d9ff" stroke="#0077b6" stroke-width="0.5" fill-opacity="0.8615115485510385" stroke-opacity="0.8615115485510385" transform="rotate(104.0 279.0 243.0)" />
  <polygon points="15.23538290724796,264.6 9.0,268.2 2.764617092752043,264.6 2.7646170927520397,257.4 8.999999999999998,253.8 15.23538290724796,257.4" fill="#00d9ff" stroke="#0077b6" stroke-width="0.5" fill-opacity="0.696039603960396" stroke-opacity="0.696039603960396" />
  <polygon points="33.23538290724796,264.6 27.0,268.2 20.764617092752044,264.6 20.76461709275204,257.4 27.0,253.8 33.23538290724796,257.4" fill="#00d9ff" stroke="#0077b6" stroke-width="0.5" fill-opacity="0.6970486236949986" stroke-opacity="0.6970486236949986" transform="rotate(7.466666666666667 27.0 261.0)" />
  <polygon points="51.23538290724796,264.6 45.0,268.2 38.76461709275204,264.6 38.76461709275204,257.4 45.0,253.8 51.23538290724796,257.4" fill="#00d9ff" stroke="#0077b6" stroke-width="0.5" fill-opacity="0.7000604136840438" stroke-opacity="0.7000604136840438" transform="rotate(14.933333333333334 45.0 261.0)" />
  <polygon points="69.23538290724795,264.6 63.0,268.2 56.76461709275204,264.6 56.76461709275204,257.4 63.0,253.8 69.23538290724795,257.4" fill="#00d9ff" stroke="#0077b6" stroke-width="0.5" fill-opacity="0.7050302988196988" stroke-opacity="0.7050302988196988" transform="rotate(22.400000000000002 63.0 261.0)" />
  <polygon points="87.23538290724795,264.6 81.0,268.2 74.76461709275205,264.6 74.76461709275203,257.4 81.0,253.8 87.23538290724795,257.4" fill="#00d9ff" stroke="#0077b6" stroke-width="0.5" fill-opacity="0.7118874053341171" stroke-opacity="0.7118874053341171" transform="rotate(29.866666666666667 81.0 261.0)" />
  <polygon points="105.23538290724795,264.6 99.0,268.2 92.76461709275205,264.6 92.76461709275203,257.4 99.0,253.8 105.23538290724795,257.4" fill="#00d9ff" stroke="#0077b6" stroke-width="0.5" fill-opacity="0.7205394270811458" stroke-opacity="0.7205394270811458" transform="rotate(37.333333333333336 99.0 261.0)" />
  <polygon points="123.23538290724795,264.6 117.0,268.2 110.76461709275205,264.6 110.76461709275203,257.4 117.0,253.8 123.23538290724795,257.4" fill="#00d9ff" stroke="#0077b6" stroke-width="0.5" fill-opacity="0.7308782520997967" stroke-opacity="0.7308782520997967" transform="rotate(44.800000000000004 117.0 261.0)" />
  <polygon points="141.23538290724795,264.6 135.0,268.2 128.76461709275205,264.6 128.76461709275205,257.4 135.0,253.8 141.23538290724795,257.4" fill="#00d9ff" stroke="#0077b6" stroke-width="0.5" fill-opacity="0.7427857381187702" stroke-opacity="0.7427857381187702" transform="rotate(52.26666666666667 135.0 261.0)" />
  <polygon points="159.23538290724795,264.6 153.0,268.2 146.76461709275205,264.6 146.76461709275205,257.4 153.0,253.8 159.23538290724795,257.4" fill="#00d9ff" stroke="#0077b6" stroke-width="0.5" fill-opacity="0.7561390522375417" stroke-opacity="0.7561390522375417" transform="rotate(59.733333333333334 153.0 261.0)" />
  <polygon points="177.23538290724795,264.6 171.0,268.2 164.76461709275205,264.6 164.76461709275205,257.4 171.0,253.8 177.23538290724795,257.4" fill="#00d9ff" stroke="#0077b6" stroke-width="0.5" fill-opacity="0.7708151902996673" stroke-opacity="0.7708151902996673" transform="rotate(67.19999999999999 171.0 261.0)" />
  <polygon points="195.23538290724795,264.6 189.0,268.2 182.76461709275205,264.6 182.76461709275205,257.4 189.0,253.8 195.23538290724795,257.4" fill="#00d9ff" stroke="#0077b6" stroke-width="0.5" fill-opacity="0.7866944988425815" stroke-opacity="0.7866944988425815" transform="rotate(74.66666666666667 189.0 261.0)" />
  <polygon points="213.23538290724795,264.6 207.0,268.2 200.76461709275205,264.6 200.76461709275205,257.4 207.0,253.8 213.23538290724795,257.4" fill="#00d9ff" stroke="#0077b6" stroke-width="0.5" fill-opacity="0.8036631913653425" stroke-opacity="0.8036631913653425" transform="rotate(82.13333333333333 206.99999999999997 261.0)" />
  <polygon points="231.23538290724795,264.6 225.0,268.2 218.76461709275205,264.6 218.76461709275205,257.4 225.0,253.8 231.23538290724795,257.4" fill="#00d9ff" stroke="#0077b6" stroke-width="0.5" fill-opacity="0.8216149622230771" stroke-opacity="0.8216149622230771" transform="rotate(89.60000000000001 224.99999999999997 261.0)" />
  <polygon points="249.23538290724795,264.6 243.0,268.2 236.76461709275205,264.6 236.76461709275205,257.4 243.0,253.8 249.23538290724795,257.4" fill="#00d9ff" stroke="#0077b6" stroke-width="0.5" fill-opacity="0.8404518578371372" stroke-opacity="0.8404518578371372" transform="rotate(97.06666666666666 242.99999999999997 261.0)" />
  <polygon points="267.235382907248,264.6 261.0,268.2 254.76461709275205,264.6 254.76461709275205,257.4 261.0,253.8 267.235382907248,257.4" fill="#00d9ff" stroke="#0077b6" stroke-width="0.5" fill-opacity="0.8600845791576615" stroke-opacity="0.8600845791576615" transform="rotate(104.53333333333335 261.0 261.0)" />
  <polygon points="285.235382907248,264.6 279.0,268.2 272.764617092752,264.6 272.764617092752,257.4 279.0,253.8 285.235382907248,257.4" fill="#00d9ff" stroke="#0077b6" stroke-width="0.5" fill-opacity="0.8804323770490294" stroke-opacity="0.8804323770490294" transform="rotate(112.0 279.0 261.0)" />
  <polygon points="15.23538290724796,282.6 9.0,286.2 2.764617092752043,282.6 2.7646170927520397,275.4 8.999999999999998,271.8 15.23538290724796,275.4" fill="#00d9ff" stroke="#0077b6" stroke-width="0.5" fill-opacity="0.7243281471004244" stroke-opacity="0.7243281471004244" />
  <polygon points="33.23538290724796,282.6 27.0,286.2 20.764617092752044,282.6 20.76461709275204,275.4 27.0,271.8 33.23538290724796,275.4" fill="#00d9ff" stroke="#0077b6" stroke-width="0.5" fill-opacity="0.7252700531364331" stroke-opacity="0.7252700531364331" transform="rotate(8.0 27.0 279.0)" />
  <polygon points="51.23538290724796,282.6 45.0,286.2 38.76461709275204,282.6 38.76461709275204,275.4 45.0,271.8 51.23538290724796,275.4" fill="#00d9ff" stroke="#0077b6" stroke-width="0.5" fill-opacity="0.7280833366455886" stroke-opacity="0.7280833366455886" transform="rotate(16.0 45.0 279.0)" />
  <polygon points="69.23538290724795,282.6 63.0,286.2 56.76461709275204,282.6 56.76461709275204,275.4 63.0,271.8 69.23538290724795,275.4" fill="#00d9ff" stroke="#0077b6" stroke-width="0.5" fill-opacity="0.7327315004463467" stroke-opacity="0.7327315004463467" transform="rotate(24.0 63.0 279.0)" />
  <polygon points="87.23538290724795,282.6 81.0,286.2 74.76461709275205,282.6 74.76461709275203,275.4 81.0,271.8 87.23538290724795,275.4" fill="#00d9ff" stroke="#0077b6" stroke-width="0.5" fill-opacity="0.7391562856084872" stroke-opacity="0.7391562856084872" transform="rotate(32.0 81.0 279.0)" />
  <polygon points="105.23538290724795,282.6 99.0,286.2 92.76461709275205,282.6 92.76461709275203,275.4 99.0,271.8 105.23538290724795,275.4" fill="#00d9ff" stroke="#0077b6" stroke-width="0.5" fill-opacity="0.7472811400521047" stroke-opacity="0.7472811400521047" transform="rotate(40.0 99.0 279.0)" />
  <polygon points="123.23538290724795,282.6 117.0,286.2 110.76461709275205,282.6 110.76461709275203,275.4 117.0,271.8 123.23538290724795,275.4" fill="#00d9ff" stroke="#0077b6" stroke-width="0.5" fill-opacity="0.7570154008883596" stroke-opacity="0.7570154008883596" transform="rotate(48.0 117.0 279.0)" />
  <polygon points="141.23538290724795,282.6 135.0,286.2 128.76461709275205,282.6 128.76461709275205,275.4 135.0,271.8 141.23538290724795,275.4" fill="#00d9ff" stroke="#0077b6" stroke-width="0.5" fill-opacity="0.7682587088330085" stroke-opacity="0.7682587088330085" transform="rotate(56.0 135.0 279.0)" />
  <polygon points="159.23538290724795,282.6 153.0,286.2 146.76461709275205,282.6 146.76461709275205,275.4 153.0,271.8 159.23538290724795,275.4" fill="#00d9ff" stroke="#0077b6" stroke-width="0.5" fill-opacity="0.7809052333804809" stroke-opacity="0.7809052333804809" transform="rotate(64.0 153.0 279.0)" />
  <polygon points="177.23538290724795,282.6 171.0,286.2 164.76461709275205,282.6 164.76461709275205,275.4 171.0,271.8 177.23538290724795,275.4" fill="#00d9ff" stroke="#0077b6" stroke-width="0.5" fill-opacity="0.7948474026742829" stroke-opacity="0.7948474026742829" transform="rotate(72.0 171.0 279.0)" />
  <polygon points="195.23538290724795,282.6 189.0,286.2 182.76461709275205,282.6 182.76461709275205,275.4 189.0,271.8 195.23538290724795,275.4" fill="#00d9ff" stroke="#0077b6" stroke-width="0.5" fill-opacity="0.8099789639977353" stroke-opacity="0.8099789639977353" transform="rotate(80.0 189.0 279.0)" />
  <polygon points="213.23538290724795,282.6 207.0,286.2 200.76461709275205,282.6 200.76461709275205,275.4 207.0,271.8 213.23538290724795,275.4" fill="#00d9ff" stroke="#0077b6" stroke-width="0.5" fill-opacity="0.8261973193136711" stroke-opacity="0.8261973193136711" transform="rotate(88.0 206.99999999999997 279.0)" />
  <polygon points="231.23538290724795,282.6 225.0,286.2 218.76461709275205,282.6 218.76461709275205,275.4 225.0,271.8 231.23538290724795,275.4" fill="#00d9ff" stroke="#0077b6" stroke-width="0.5" fill-opacity="0.8434051686647397" stroke-opacity="0.8434051686647397" transform="rotate(96.0 224.99999999999997 279.0)" />
  <polygon points="249.23538290724795,282.6 243.0,286.2 236.76461709275205,282.6 236.76461709275205,275.4 243.0,271.8 249.23538290724795,275.4" fill="#00d9ff" stroke="#0077b6" stroke-width="0.5" fill-opacity="0.8615115485510385" stroke-opacity="0.8615115485510385" transform="rotate(104.0 242.99999999999997 279.0)" />
  <polygon points="267.235382907248,282.6 261.0,286.2 254.76461709275205,282.6 254.76461709275205,275.4 261.0,271.8 267.235382907248,275.4" fill="#00d9ff" stroke="#0077b6" stroke-width="0.5" fill-opacity="0.8804323770490294" stroke-opacity="0.8804323770490294" transform="rotate(112.0 261.0 279.0)" />
  <polygon points="285.235382907248,282.6 279.0,286.2 272.764617092752,282.6 272.764617092752,275.4 279.0,271.8 285.235382907248,275.4" fill="#00d9ff" stroke="#0077b6" stroke-width="0.5" fill-opacity="0.9000906205260659" stroke-opacity="0.9000906205260659" transform="rotate(120.0 279.0 279.0)" />
</svg>