<?xml version="1.0" encoding="UTF-8"?>
<svg xmlns="http://www.w3.org/2000/svg" width="280" height="280" viewBox="0 0 280 280">
  <rect width="100%" height="100%" fill="#1a1a2e" />
  <polygon points="10.0,2.5 17.5,10.0 10.0,17.5 2.5,10.0" fill="#ff6b6b" fill-opacity="0.7" stroke-opacity="0.7" />
  <polygon points="35.19615242270663,12.999999999999998 30.0,16.0 24.803847577293368,13.000000000000004 24.803847577293368,7.000000000000002 30.0,4.0 35.19615242270663,7.000000000000002" fill="#ffe66d" fill-opacity="0.5" stroke-opacity="0.5" />
  <polygon points="50.0,2.5 57.5,10.0 50.0,17.5 42.5,10.0" fill="#ff6b6b" fill-opacity="0.7" stroke-opacity="0.7" />
  <polygon points="75.19615242270663,12.999999999999998 70.0,16.0 64.80384757729337,13.000000000000004 64.80384757729337,7.000000000000002 70.0,4.0 75.19615242270663,7.000000000000002" fill="#ffe66d" fill-opacity="0.5" stroke-opacity="0.5" />
  <polygon points="90.0,2.5 97.5,10.0 90.0,17.5 82.5,10.0" fill="#ff6b6b" fill-opacity="0.7" stroke-opacity="0.7" />
  <polygon points="115.19615242270663,12.999999999999998 110.0,16.0 104.80384757729337,13.000000000000004 104.80384757729337,7.000000000000002 110.0,4.0 115.19615242270663,7.000000000000002" fill="#ffe66d" fill-opacity="0.5" stroke-opacity="0.5" />
  <polygon points="130.0,2.5 137.5,10.0 130.0,17.5 122.5,10.0" fill="#ff6b6b" fill-opacity="0.7" stroke-opacity="0.7" />
  <polygon points="155.19615242270663,12.999999999999998 150.0,16.0 144.80384757729337,13.000000000000004 144.80384757729337,7.000000000000002 150.0,4.0 155.19615242270663,7.000000000000002" fill="#ffe66d" fill-opacity="0.5" stroke-opacity="0.5" />
  <polygon points="170.0,2.5 177.5,10.0 170.0,17.5 162.5,10.0" fill="#ff6b6b" fill-opacity="0.7" stroke-opacity="0.7" />
  <polygon points="195.19615242270663,12.999999999999998 190.0,16.0 184.80384757729337,13.000000000000004 184.80384757729337,7.000000000000002 190.0,4.0 195.19615242270663,7.000000000000002" fill="#ffe66d" fill-opacity="0.5" stroke-opacity="0.5" />
  <polygon points="210.0,2.5 217.5,10.0 210.0,17.5 202.5,10.0" fill="#ff6b6b" fill-opacity="0.7" stroke-opacity="0.7" />
  <polygon points="235.19615242270663,12.999999999999998 230.0,16.0 224.80384757729337,13.000000000000004 224.80384757729337,7.000000000000002 230.0,4.0 235.19615242270663,7.000000000000002" fill="#ffe66d" fill-opacity="0.5" stroke-opacity="0.5" />
  <polygon points="250.0,2.5 257.5,10.0 250.0,17.5 242.5,10.0" fill="#ff6b6b" fill-opacity="0.7" stroke-opacity="0.7" />
  <polygon points="275.19615242270663,12.999999999999998 270.0,16.0 264.80384757729337,13.000000000000004 264.80384757729337,7.000000000000002 270.0,4.0 275.19615242270663,7.000000000000002" fill="#ffe66d" fill-opacity="0.5" stroke-opacity="0.5" />
  <polygon points="15.196152422706632,33.0 10.0,36.0 4.80384757729337,33.0 4.803847577293368,27.0 9.999999999999998,24.0 15.196152422706632,27.0" fill="#ffe66d" fill-opacity="0.5" stroke-opacity="0.5" />
  <polygon points="30.0,22.5 37.5,30.0 30.0,37.5 22.5,30.0" fill="#ff6b6b" fill-opacity="0.7" stroke-opacity="0.7" />
  <polygon points="55.19615242270663,33.0 50.0,36.0 44.80384757729337,33.0 44.80384757729337,27.0 50.0,24.0 55.19615242270663,27.0" fill="#ffe66d" fill-opacity="0.5" stroke-opacity="0.5" />
  <polygon points="70.0,22.5 77.5,30.0 70.0,37.5 62.5,30.0" fill="#ff6b6b" fill-opacity="0.7" stroke-opacity="0.7" />
  <polygon points="95.19615242270663,33.0 90.0,36.0 84.80384757729337,33.0 84.80384757729337,27.0 90.0,24.0 95.19615242270663,27.0" fill="#ffe66d" fill-opacity="0.5" stroke-opacity="0.5" />
  <polygon points="110.0,22.5 117.5,30.0 110.0,37.5 102.5,30.0" fill="#ff6b6b" fill-opacity="0.7" stroke-opacity="0.7" />
  <polygon points="135.19615242270663,33.0 130.0,36.0 124.80384757729337,33.0 124.80384757729337,27.0 130.0,24.0 135.19615242270663,27.0" fill="#ffe66d" fill-opacity="0.5" stroke-opacity="0.5" />
  <polygon points="150.0,22.5 157.5,30.0 150.0,37.5 142.5,30.0" fill="#ff6b6b" fill-opacity="0.7" stroke-opacity="0.7" />
  <polygon points="175.19615242270663,33.0 170.0,36.0 164.80384757729337,33.0 164.80384757729337,27.0 170.0,24.0 175.19615242270663,27.0" fill="#ffe66d" fill-opacity="0.5" stroke-opacity="0.5" />
  <polygon points="190.0,22.5 197.5,30.0 190.0,37.5 182.5,30.0" fill="#ff6b6b" fill-opacity="0.7" stroke-opacity="0.7" />
  <polygon points="215.19615242270663,33.0 210.0,36.0 204.80384757729337,33.0 204.80384757729337,27.0 210.0,24.0 215.19615242270663,27.0" fill="#ffe66d" fill-opacity="0.5" stroke-opacity="0.5" />
  <polygon points="230.0,22.5 237.5,30.0 230.0,37.5 222.5,30.0" fill="#ff6b6b" fill-opacity="0.7" stroke-opacity="0.7" />
  <polygon points="255.19615242270663,33.0 250.0,36.0 244.80384757729337,33.0 244.80384757729337,27.0 250.0,24.0 255.19615242270663,27.0" fill="#ffe66d" fill-opacity="0.5" stroke-opacity="0.5" />
  <polygon points="270.0,22.5 277.5,30.0 270.0,37.5 262.5,30.0" fill="#ff6b6b" fill-opacity="0.7" stroke-opacity="0.7" />
  <polygon points="10.0,42.5 17.5,50.0 10.0,57.5 2.5,50.0" fill="#ff6b6b" fill-opacity="0.7" stroke-opacity="0.7" />
  <polygon points="35.19615242270663,53.0 30.0,56.0 24.803847577293368,53.0 24.803847577293368,47.0 30.0,44.0 35.19615242270663,47.0" fill="#ffe66d" fill-opacity="0.5" stroke-opacity="0.5" />
  <polygon points="50.0,42.5 57.5,50.0 50.0,57.5 42.5,50.0" fill="#ff6b6b" fill-opacity="0.7" stroke-opacity="0.7" />
  <polygon points="75.19615242270663,53.0 70.0,56.0 64.80384757729337,53.0 64.80384757729337,47.0 70.0,44.0 75.19615242270663,47.0" fill="#ffe66d" fill-opacity="0.5" stroke-opacity="0.5" />
  <polygon points="90.0,42.5 97.5,50.0 90.0,57.5 82.5,50.0" fill="#ff6b6b" fill-opacity="0.7" stroke-opacity="0.7" />
  <polygon points="115.19615242270663,53.0 110.0,56.0 104.80384757729337,53.0 104.80384757729337,47.0 110.0,44.0 115.19615242270663,47.0" fill="#ffe66d" fill-opacity="0.5" stroke-opacity="0.5" />
  <polygon points="130.0,42.5 137.5,50.0 130.0,57.5 122.5,50.0" fill="#ff6b6b" fill-opacity="0.7" stroke-opacity="0.7" />
  <polygon points="155.19615242270663,53.0 150.0,56.0 144.80384757729337,53.0 144.80384757729337,47.0 150.0,44.0 155.19615242270663,47.0" fill="#ffe66d" fill-opacity="0.5" stroke-opacity="0.5" />
  <polygon points="170.0,42.5 177.5,50.0 170.0,57.5 162.5,50.0" fill="#ff6b6b" fill-opacity="0.7" stroke-opacity="0.7" />
  <polygon points="195.19615242270663,53.0 190.0,56.0 184.80384757729337,53.0 184.80384757729337,47.0 190.0,44.0 195.19615242270663,47.0" fill="#ffe66d" fill-opacity="0.5" stroke-opacity="0.5" />
  <polygon points="210.0,42.5 217.5,50.0 210.0,57.5 202.5,50.0" fill="#ff6b6b" fill-opacity="0.7" stroke-opacity="0.7" />
  <polygon points="235.19615242270663,53.0 230.0,56.0 224.80384757729337,53.0 224.80384757729337,47.0 230.0,44.0 235.19615242270663,47.0" fill="#ffe66d" fill-opacity="0.5" stroke-opacity="0.5" />
  <polygon points="250.0,42.5 257.5,50.0 250.0,57.5 242.5,50.0" fill="#ff6b6b" fill-opacity="0.7" stroke-opacity="0.7" />
  <polygon points="275.19615242270663,53.0 270.0,56.0 264.80384757729337,53.0 264.80384757729337,47.0 270.0,44.0 275.19615242270663,47.0" fill="#ffe66d" fill-opacity="0.5" stroke-opacity="0.5" />
  <polygon points="15.196152422706632,73.0 10.0,76.0 4.80384757729337,73.0 4.803847577293368,67.0 9.999999999999998,64.0 15.196152422706632,67.0" fill="#ffe66d" fill-opacity="0.5" stroke-opacity="0.5" />
  <polygon points="30.0,62.5 37.5,70.0 30.0,77.5 22.5,70.0" fill="#ff6b6b" fill-opacity="0.7" stroke-opacity="0.7" />
  <polygon points="55.19615242270663,73.0 50.0,76.0 44.80384757729337,73.0 44.80384757729337,67.0 50.0,64.0 55.19615242270663,67.0" fill="#ffe66d" fill-opacity="0.5" stroke-opacity="0.5" />
  <polygon points="70.0,62.5 77.5,70.0 70.0,77.5 62.5,70.0" fill="#ff6b6b" fill-opacity="0.7" stroke-opacity="0.7" />
  <polygon points="95.19615242270663,73.0 90.0,76.0 84.80384757729337,73.0 84.80384757729337,67.0 90.0,64.0 95.19615242270663,67.0" fill="#ffe66d" fill-opacity="0.5" stroke-opacity="0.5" />
  <polygon points="110.0,62.5 117.5,70.0 110.0,77.5 102.5,70.0" fill="#ff6b6b" fill-opacity="0.7" stroke-opacity="0.7" />
  <polygon points="135.19615242270663,73.0 130.0,76.0 124.80384757729337,73.0 124.80384757729337,67.0 130.0,64.0 135.19615242270663,67.0" fill="#ffe66d" fill-opacity="0.5" stroke-opacity="0.5" />
  <polygon points="150.0,62.5 157.5,70.0 150.0,77.5 142.5,70.0" fill="#ff6b6b" fill-opacity="0.7" stroke-opacity="0.7" />
  <polygon points="175.19615242270663,73.0 170.0,76.0 164.80384757729337,73.0 164.80384757729337,67.0 170.0,64.0 175.19615242270663,67.0" fill="#ffe66d" fill-opacity="0.5" stroke-opacity="0.5" />
  <polygon points="190.0,62.5 197.5,70.0 190.0,77.5 182.5,70.0" fill="#ff6b6b" fill-opacity="0.7" stroke-opacity="0.7" />
  <polygon points="215.19615242270663,73.0 210.0,76.0 204.80384757729337,73.0 204.80384757729337,67.0 210.0,64.0 215.19615242270663,67.0" fill="#ffe66d" fill-opacity="0.5" stroke-opacity="0.5" />
  <polygon points="230.0,62.5 237.5,70.0 230.0,77.5 222.5,70.0" fill="#ff6b6b" fill-opacity="0.7" stroke-opacity="0.7" />
  <polygon points="255.19615242270663,73.0 250.0,76.0 244.80384757729337,73.0 244.80384757729337,67.0 250.0,64.0 255.19615242270663,67.0" fill="#ffe66d" fill-opacity="0.5" stroke-opacity="0.5" />
  <polygon points="270.0,62.5 277.5,70.0 270.0,77.5 262.5,70.0" fill="#ff6b6b" fill-opacity="0.7" stroke-opacity="0.7" />
  <polygon points="10.0,82.5 17.5,90.0 10.0,97.5 2.5,90.0" fill="#ff6b6b" fill-opacity="0.7" stroke-opacity="0.7" />
  <polygon points="35.19615242270663,93.0 30.0,96.0 24.803847577293368,93.0 24.803847577293368,87.0 30.0,84.0 35.19615242270663,87.0" fill="#ffe66d" fill-opacity="0.5" stroke-opacity="0.5" />
  <polygon points="50.0,82.5 57.5,90.0 50.0,97.5 42.5,90.0" fill="#ff6b6b" fill-opacity="0.7" stroke-opacity="0.7" />
  <polygon points="75.19615242270663,93.0 70.0,96.0 64.80384757729337,93.0 64.80384757729337,87.0 70.0,84.0 75.19615242270663,87.0" fill="#ffe66d" fill-opacity="0.5" stroke-opacity="0.5" />
  <polygon points="90.0,82.5 97.5,90.0 90.0,97.5 82.5,90.0" fill="#ff6b6b" fill-opacity="0.7" stroke-opacity="0.7" />
  <polygon points="115.19615242270663,93.0 110.0,96.0 104.80384757729337,93.0 104.80384757729337,87.0 110.0,84.0 115.19615242270663,87.0" fill="#ffe66d" fill-opacity="0.5" stroke-opacity="0.5" />
  <polygon points="130.0,82.5 137.5,90.0 130.0,97.5 122.5,90.0" fill="#ff6b6b" fill-opacity="0.7" stroke-opacity="0.7" />
  <polygon points="155.19615242270663,93.0 150.0,96.0 144.80384757729337,93.0 144.80384757729337,87.0 150.0,84.0 155.19615242270663,87.0" fill="#ffe66d" fill-opacity="0.5" stroke-opacity="0.5" />
  <polygon points="170.0,82.5 177.5,90.0 170.0,97.5 162.5,90.0" fill="#ff6b6b" fill-opacity="0.7" stroke-opacity="0.7" />
  <polygon points="195.19615242270663,93.0 190.0,96.0 184.80384757729337,93.0 184.80384757729337,87.0 190.0,84.0 195.19615242270663,87.0" fill="#ffe66d" fill-opacity="0.5" stroke-opacity="0.5" />
  <polygon points="210.0,82.5 217.5,90.0 210.0,97.5 202.5,90.0" fill="#ff6b6b" fill-opacity="0.7" stroke-opacity="0.7" />
  <polygon points="235.19615242270663,93.0 230.0,96.0 224.80384757729337,93.0 224.80384757729337,87.0 230.0,84.0 235.19615242270663,87.0" fill="#ffe66d" fill-opacity="0.5" stroke-opacity="0.5" />
  <polygon points="250.0,82.5 257.5,90.0 250.0,97.5 242.5,90.0" fill="#ff6b6b" fill-opacity="0.7" stroke-opacity="0.7" />
  <polygon points="275.19615242270663,93.0 270.0,96.0 264.80384757729337,93.0 264.80384757729337,87.0 270.0,84.0 275.19615242270663,87.0" fill="#ffe66d" fill-opacity="0.5" stroke-opacity="0.5" />
  <polygon points="15.196152422706632,113.0 10.0,116.0 4.80384757729337,113.0 4.803847577293368,107.0 9.999999999999998,104.0 15.196152422706632,107.0" fill="#ffe66d" fill-opacity="0.5" stroke-opacity="0.5" />
  <polygon points="30.0,102.5 37.5,110.0 30.0,117.5 22.5,110.0" fill="#ff6b6b" fill-opacity="0.7" stroke-opacity="0.7" />
  <polygon points="55.19615242270663,113.0 50.0,116.0 44.80384757729337,113.0 44.80384757729337,107.0 50.0,104.0 55.19615242270663,107.0" fill="#ffe66d" fill-opacity="0.5" stroke-opacity="0.5" />
  <polygon points="70.0,102.5 77.5,110.0 70.0,117.5 62.5,110.0" fill="#ff6b6b" fill-opacity="0.7" stroke-opacity="0.7" />
  <polygon points="95.19615242270663,113.0 90.0,116.0 84.80384757729337,113.0 84.80384757729337,107.0 90.0,104.0 95.19615242270663,107.0" fill="#ffe66d" fill-opacity="0.5" stroke-opacity="0.5" />
  <polygon points="110.0,102.5 117.5,110.0 110.0,117.5 102.5,110.0" fill="#ff6b6b" fill-opacity="0.7" stroke-opacity="0.7" />
  <polygon points="135.19615242270663,113.0 130.0,116.0 124.80384757729337,113.0 124.80384757729337,107.0 130.0,104.0 135.19615242270663,107.0" fill="#ffe66d" fill-opacity="0.5" stroke-opacity="0.5" />
  <polygon points="150.0,102.5 157.5,110.0 150.0,117.5 142.5,110.0" fill="#ff6b6b" fill-opacity="0.7" stroke-opacity="0.7" />
  <polygon points="175.19615242270663,113.0 170.0,116.0 164.80384757729337,113.0 164.80384757729337,107.0 170.0,104.0 175.19615242270663,107.0" fill="#ffe66d" fill-opacity="0.5" stroke-opacity="0.5" />
  <polygon points="190.0,102.5 197.5,110.0 190.0,117.5 182.5,110.0" fill="#ff6b6b" fill-opacity="0.7" stroke-opacity="0.7" />
  <polygon points="215.19615242270663,113.0 210.0,116.0 204.80384757729337,113.0 204.80384757729337,107.0 210.0,104.0 215.19615242270663,107.0" fill="#ffe66d" fill-opacity="0.5" stroke-opacity="0.5" />
  <polygon points="230.0,102.5 237.5,110.0 230.0,117.5 222.5,110.0" fill="#ff6b6b" fill-opacity="0.7" stroke-opacity="0.7" />
  <polygon points="255.19615242270663,113.0 250.0,116.0 244.80384757729337,113.0 244.80384757729337,107.0 250.0,104.0 255.19615242270663,107.0" fill="#ffe66d" fill-opacity="0.5" stroke-opacity="0.5" />
  <polygon points="270.0,102.5 277.5,110.0 270.0,117.5 262.5,110.0" fill="#ff6b6b" fill-opacity="0.7" stroke-opacity="0.7" />
  <polygon points="10.0,122.5 17.5,130.0 10.0,137.5 2.5,130.0" fill="#ff6b6b" fill-opacity="0.7" stroke-opacity="0.7" />
  <polygon points="35.19615242270663,133.0 30.0,136.0 24.803847577293368,133.0 24.803847577293368,127.0 30.0,124.0 35.19615242270663,127.0" fill="#ffe66d" fill-opacity="0.5" stroke-opacity="0.5" />
  <polygon points="50.0,122.5 57.5,130.0 50.0,137.5 42.5,130.0" fill="#ff6b6b" fill-opacity="0.7" stroke-opacity="0.7" />
  <polygon points="75.19615242270663,133.0 70.0,136.0 64.80384757729337,133.0 64.80384757729337,127.0 70.0,124.0 75.19615242270663,127.0" fill="#ffe66d" fill-opacity="0.5" stroke-opacity="0.5" />
  <polygon points="90.0,122.5 97.5,130.0 90.0,137.5 82.5,130.0" fill="#ff6b6b" fill-opacity="0.7" stroke-opacity="0.7" />
  <polygon points="115.19615242270663,133.0 110.0,136.0 104.80384757729337,133.0 104.80384757729337,127.0 110.0,124.0 115.19615242270663,127.0" fill="#ffe66d" fill-opacity="0.5" stroke-opacity="0.5" />
  <polygon points="130.0,122.5 137.5,130.0 130.0,137.5 122.5,130.0" fill="#ff6b6b" fill-opacity="0.7" stroke-opacity="0.7" />
  <polygon points="155.19615242270663,133.0 150.0,136.0 144.80384757729337,133.0 144.80384757729337,127.0 150.0,124.0 155.19615242270663,127.0" fill="#ffe66d" fill-opacity="0.5" stroke-opacity="0.5" />
  <polygon points="170.0,122.5 177.5,130.0 170.0,137.5 162.5,130.0" fill="#ff6b6b" fill-opacity="0.7" stroke-opacity="0.7" />
  <polygon points="195.19615242270663,133.0 190.0,136.0 184.80384757729337,133.0 184.80384757729337,127.0 190.0,124.0 195.19615242270663,127.0" fill="#ffe66d" fill-opacity="0.5" stroke-opacity="0.5" />
  <polygon points="210.0,122.5 217.5,130.0 210.0,137.5 202.5,130.0" fill="#ff6b6b" fill-opacity="0.7" stroke-opacity="0.7" />
  <polygon points="235.19615242270663,133.0 230.0,136.0 224.80384757729337,133.0 224.80384757729337,127.0 230.0,124.0 235.19615242270663,127.0" fill="#ffe66d" fill-opacity="0.5" stroke-opacity="0.5" />
  <polygon points="250.0,122.5 257.5,130.0 250.0,137.5 242.5,130.0" fill="#ff6b6b" fill-opacity="0.7" stroke-opacity="0.7" />
  <polygon points="275.19615242270663,133.0 270.0,136.0 264.80384757729337,133.0 264.80384757729337,127.0 270.0,124.0 275.19615242270663,127.0" fill="#ffe66d" fill-opacity="0.5" stroke-opacity="0.5" />
  <polygon points="15.196152422706632,153.0 10.0,156.0 4.80384757729337,153.0 4.803847577293368,147.0 9.999999999999998,144.0 15.196152422706632,147.0" fill="#ffe66d" fill-opacity="0.5" stroke-opacity="0.5" />
  <polygon points="30.0,142.5 37.5,150.0 30.0,157.5 22.5,150.0" fill="#ff6b6b" fill-opacity="0.7" stroke-opacity="0.7" />
  <polygon points="55.19615242270663,153.0 50.0,156.0 44.80384757729337,153.0 44.80384757729337,147.0 50.0,144.0 55.19615242270663,147.0" fill="#ffe66d" fill-opacity="0.5" stroke-opacity="0.5" />
  <polygon points="70.0,142.5 77.5,150.0 70.0,157.5 62.5,150.0" fill="#ff6b6b" fill-opacity="0.7" stroke-opacity="0.7" />
  <polygon points="95.19615242270663,153.0 90.0,156.0 84.80384757729337,153.0 84.80384757729337,147.0 90.0,144.0 95.19615242270663,147.0" fill="#ffe66d" fill-opacity="0.5" stroke-opacity="0.5" />
  <polygon points="110.0,142.5 117.5,150.0 110.0,157.5 102.5,150.0" fill="#ff6b6b" fill-opacity="0.7" stroke-opacity="0.7" />
  <polygon points="135.19615242270663,153.0 130.0,156.0 124.80384757729337,153.0 124.80384757729337,147.0 130.0,144.0 135.19615242270663,147.0" fill="#ffe66d" fill-opacity="0.5" stroke-opacity="0.5" />
  <polygon points="150.0,142.5 157.5,150.0 150.0,157.5 142.5,150.0" fill="#ff6b6b" fill-opacity="0.7" stroke-opacity="0.7" />
  <polygon points="175.19615242270663,153.0 170.0,156.0 164.80384757729337,153.0 164.80384757729337,147.0 170.0,144.0 175.19615242270663,147.0" fill="#ffe66d" fill-opacity="0.5" stroke-opacity="0.5" />
  <polygon points="190.0,142.5 197.5,150.0 190.0,157.5 182.5,150.0" fill="#ff6b6b" fill-opacity="0.7" stroke-opacity="0.7" />
  <polygon points="215.19615242270663,153.0 210.0,156.0 204.80384757729337,153.0 204.80384757729337,147.0 210.0,144.0 215.19615242270663,147.0" fill="#ffe66d" fill-opacity="0.5" stroke-opacity="0.5" />
  <polygon points="230.0,142.5 237.5,150.0 230.0,157.5 222.5,150.0" fill="#ff6b6b" fill-opacity="0.7" stroke-opacity="0.7" />
  <polygon points="255.19615242270663,153.0 250.0,156.0 244.80384757729337,153.0 244.80384757729337,147.0 250.0,144.0 255.19615242270663,147.0" fill="#ffe66d" fill-opacity="0.5" stroke-opacity="0.5" />
  <polygon points="270.0,142.5 277.5,150.0 270.0,157.5 262.5,150.0" fill="#ff6b6b" fill-opacity="0.7" stroke-opacity="0.7" />
  <polygon points="10.0,162.5 17.5,170.0 10.0,177.5 2.5,170.0" fill="#ff6b6b" fill-opacity="0.7" stroke-opacity="0.7" />
  <polygon points="35.19615242270663,173.0 30.0,176.0 24.803847577293368,173.0 24.803847577293368,167.0 30.0,164.0 35.19615242270663,167.0" fill="#ffe66d" fill-opacity="0.5" stroke-opacity="0.5" />
  <polygon points="50.0,162.5 57.5,170.0 50.0,177.5 42.5,170.0" fill="#ff6b6b" fill-opacity="0.7" stroke-opacity="0.7" />
  <polygon points="75.19615242270663,173.0 70.0,176.0 64.80384757729337,173.0 64.80384757729337,167.0 70.0,164.0 75.19615242270663,167.0" fill="#ffe66d" fill-opacity="0.5" stroke-opacity="0.5" />
  <polygon points="90.0,162.5 97.5,170.0 90.0,177.5 82.5,170.0" fill="#ff6b6b" fill-opacity="0.7" stroke-opacity="0.7" />
  <polygon points="115.19615242270663,173.0 110.0,176.0 104.80384757729337,173.0 104.80384757729337,167.0 110.0,164.0 115.19615242270663,167.0" fill="#ffe66d" fill-opacity="0.5" stroke-opacity="0.5" />
  <polygon points="130.0,162.5 137.5,170.0 130.0,177.5 122.5,170.0" fill="#ff6b6b" fill-opacity="0.7" stroke-opacity="0.7" />
  <polygon points="155.19615242270663,173.0 150.0,176.0 144.80384757729337,173.0 144.80384757729337,167.0 150.0,164.0 155.19615242270663,167.0" fill="#ffe66d" fill-opacity="0.5" stroke-opacity="0.5" />
  <polygon points="170.0,162.5 177.5,170.0 170.0,177.5 162.5,170.0" fill="#ff6b6b" fill-opacity="0.7" stroke-opacity="0.7" />
  <polygon points="195.19615242270663,173.0 190.0,176.0 184.80384757729337,173.0 184.80384757729337,167.0 190.0,164.0 195.19615242270663,167.0" fill="#ffe66d" fill-opacity="0.5" stroke-opacity="0.5" />
  <polygon points="210.0,162.5 217.5,170.0 210.0,177.5 202.5,170.0" fill="#ff6b6b" fill-opacity="0.7" stroke-opacity="0.7" />
  <polygon points="235.19615242270663,173.0 230.0,176.0 224.80384757729337,173.0 224.80384757729337,167.0 230.0,164.0 235.19615242270663,167.0" fill="#ffe66d" fill-opacity="0.5" stroke-opacity="0.5" />
  <polygon points="250.0,162.5 257.5,170.0 250.0,177.5 242.5,170.0" fill="#ff6b6b" fill-opacity="0.7" stroke-opacity="0.7" />
  <polygon points="275.19615242270663,173.0 270.0,176.0 264.80384757729337,173.0 264.80384757729337,167.0 270.0,164.0 275.19615242270663,167.0" fill="#ffe66d" fill-opacity="0.5" stroke-opacity="0.5" />
  <polygon points="15.196152422706632,193.0 10.0,196.0 4.80384757729337,193.0 4.803847577293368,187.0 9.999999999999998,184.0 15.196152422706632,187.0" fill="#ffe66d" fill-opacity="0.5" stroke-opacity="0.5" />
  <polygon points="30.0,182.5 37.5,190.0 30.0,197.5 22.5,190.0" fill="#ff6b6b" fill-opacity="0.7" stroke-opacity="0.7" />
  <polygon points="55.19615242270663,193.0 50.0,196.0 44.80384757729337,193.0 44.80384757729337,187.0 50.0,184.0 55.19615242270663,187.0" fill="#ffe66d" fill-opacity="0.5" stroke-opacity="0.5" />
  <polygon points="70.0,182.5 77.5,190.0 70.0,197.5 62.5,190.0" fill="#ff6b6b" fill-opacity="0.7" stroke-opacity="0.7" />
  <polygon points="95.19615242270663,193.0 90.0,196.0 84.80384757729337,193.0 84.80384757729337,187.0 90.0,184.0 95.19615242270663,187.0" fill="#ffe66d" fill-opacity="0.5" stroke-opacity="0.5" />
  <polygon points="110.0,182.5 117.5,190.0 110.0,197.5 102.5,190.0" fill="#ff6b6b" fill-opacity="0.7" stroke-opacity="0.7" />
  <polygon points="135.19615242270663,193.0 130.0,196.0 124.80384757729337,193.0 124.80384757729337,187.0 130.0,184.0 135.19615242270663,187.0" fill="#ffe66d" fill-opacity="0.5" stroke-opacity="0.5" />
  <polygon points="150.0,182.5 157.5,190.0 150.0,197.5 142.5,190.0" fill="#ff6b6b" fill-opacity="0.7" stroke-opacity="0.7" />
  <polygon points="175.19615242270663,193.0 170.0,196.0 164.80384757729337,193.0 164.80384757729337,187.0 170.0,184.0 175.19615242270663,187.0" fill="#ffe66d" fill-opacity="0.5" stroke-opacity="0.5" />
  <polygon points="190.0,182.5 197.5,190.0 190.0,197.5 182.5,190.0" fill="#ff6b6b" fill-opacity="0.7" stroke-opacity="0.7" />
  <polygon points="215.19615242270663,193.0 210.0,196.0 204.80384757729337,193.0 204.80384757729337,187.0 210.0,184.0 215.19615242270663,187.0" fill="#ffe66d" fill-opacity="0.5" stroke-opacity="0.5" />
  <polygon points="230.0,182.5 237.5,190.0 230.0,197.5 222.5,190.0" fill="#ff6b6b" fill-opacity="0.7" stroke-opacity="0.7" />
  <polygon points="255.19615242270663,193.0 250.0,196.0 244.80384757729337,193.0 244.80384757729337,187.0 250.0,184.0 255.19615242270663,187.0" fill="#ffe66d" fill-opacity="0.5" stroke-opacity="0.5" />
  <polygon points="270.0,182.5 277.5,190.0 270.0,197.5 262.5,190.0" fill="#ff6b6b" fill-opacity="0.7" stroke-opacity="0.7" />
  <polygon points="10.0,202.5 17.5,210.0 10.0,217.5 2.5,210.0" fill="#ff6b6b" fill-opacity="0.7" stroke-opacity="0.7" />
  <polygon points="35.19615242270663,213.0 30.0,216.0 24.803847577293368,213.0 24.803847577293368,207.0 30.0,204.0 35.19615242270663,207.0" fill="#ffe66d" fill-opacity="0.5" stroke-opacity="0.5" />
  <polygon points="50.0,202.5 57.5,210.0 50.0,217.5 42.5,210.0" fill="#ff6b6b" fill-opacity="0.7" stroke-opacity="0.7" />
  <polygon points="75.19615242270663,213.0 70.0,216.0 64.80384757729337,213.0 64.80384757729337,207.0 70.0,204.0 75.19615242270663,207.0" fill="#ffe66d" fill-opacity="0.5" stroke-opacity="0.5" />
  <polygon points="90.0,202.5 97.5,210.0 90.0,217.5 82.5,210.0" fill="#ff6b6b" fill-opacity="0.7" stroke-opacity="0.7" />
  <polygon points="115.19615242270663,213.0 110.0,216.0 104.80384757729337,213.0 104.80384757729337,207.0 110.0,204.0 115.19615242270663,207.0" fill="#ffe66d" fill-opacity="0.5" stroke-opacity="0.5" />
  <polygon points="130.0,202.5 137.5,210.0 130.0,217.5 122.5,210.0" fill="#ff6b6b" fill-opacity="0.7" stroke-opacity="0.7" />
  <polygon points="155.19615242270663,213.0 150.0,216.0 144.80384757729337,213.0 144.80384757729337,207.0 150.0,204.0 155.19615242270663,207.0" fill="#ffe66d" fill-opacity="0.5" stroke-opacity="0.5" />
  <polygon points="170.0,202.5 177.5,210.0 170.0,217.5 162.5,210.0" fill="#ff6b6b" fill-opacity="0.7" stroke-opacity="0.7" />
  <polygon points="195.19615242270663,213.0 190.0,216.0 184.80384757729337,213.0 184.80384757729337,207.0 190.0,204.0 195.19615242270663,207.0" fill="#ffe66d" fill-opacity="0.5" stroke-opacity="0.5" />
  <polygon points="210.0,202.5 217.5,210.0 210.0,217.5 202.5,210.0" fill="#ff6b6b" fill-opacity="0.7" stroke-opacity="0.7" />
  <polygon points="235.19615242270663,213.0 230.0,216.0 224.80384757729337,213.0 224.80384757729337,207.0 230.0,204.0 235.19615242270663,207.0" fill="#ffe66d" fill-opacity="0.5" stroke-opacity="0.5" />
  <polygon points="250.0,202.5 257.5,210.0 250.0,217.5 242.5,210.0" fill="#ff6b6b" fill-opacity="0.7" stroke-opacity="0.7" />
  <polygon points="275.19615242270663,213.0 270.0,216.0 264.80384757729337,213.0 264.80384757729337,207.0 270.0,204.0 275.19615242270663,207.0" fill="#ffe66d" fill-opacity="0.5" stroke-opacity="0.5" />
  <polygon points="15.196152422706632,233.0 10.0,236.0 4.80384757729337,233.0 4.803847577293368,227.0 9.999999999999998,224.0 15.196152422706632,227.0" fill="#ffe66d" fill-opacity="0.5" stroke-opacity="0.5" />
  <polygon points="30.0,222.5 37.5,230.0 30.0,237.5 22.5,230.0" fill="#ff6b6b" fill-opacity="0.7" stroke-opacity="0.7" />
  <polygon points="55.19615242270663,233.0 50.0,236.0 44.80384757729337,233.0 44.80384757729337,227.0 50.0,224.0 55.19615242270663,227.0" fill="#ffe66d" fill-opacity="0.5" stroke-opacity="0.5" />
  <polygon points="70.0,222.5 77.5,230.0 70.0,237.5 62.5,230.0" fill="#ff6b6b" fill-opacity="0.7" stroke-opacity="0.7" />
  <polygon points="95.19615242270663,233.0 90.0,236.0 84.80384757729337,233.0 84.80384757729337,227.0 90.0,224.0 95.19615242270663,227.0" fill="#ffe66d" fill-opacity="0.5" stroke-opacity="0.5" />
  <polygon points="110.0,222.5 117.5,230.0 110.0,237.5 102.5,230.0" fill="#ff6b6b" fill-opacity="0.7" stroke-opacity="0.7" />
  <polygon points="135.19615242270663,233.0 130.0,236.0 124.80384757729337,233.0 124.80384757729337,227.0 130.0,224.0 135.19615242270663,227.0" fill="#ffe66d" fill-opacity="0.5" stroke-opacity="0.5" />
  <polygon points="150.0,222.5 157.5,230.0 150.0,237.5 142.5,230.0" fill="#ff6b6b" fill-opacity="0.7" stroke-opacity="0.7" />
  <polygon points="175.19615242270663,233.0 170.0,236.0 164.80384757729337,233.0 164.80384757729337,227.0 170.0,224.0 175.19615242270663,227.0" fill="#ffe66d" fill-opacity="0.5" stroke-opacity="0.5" />
  <polygon points="190.0,222.5 197.5,230.0 190.0,237.5 182.5,230.0" fill="#ff6b6b" fill-opacity="0.7" stroke-opacity="0.7" />
  <polygon points="215.19615242270663,233.0 210.0,236.0 204.80384757729337,233.0 204.80384757729337,227.0 210.0,224.0 215.19615242270663,227.0" fill="#ffe66d" fill-opacity="0.5" stroke-opacity="0.5" />
  <polygon points="230.0,222.5 237.5,230.0 230.0,237.5 222.5,230.0" fill="#ff6b6b" fill-opacity="0.7" stroke-opacity="0.7" />
  <polygon points="255.19615242270663,233.0 250.0,236.0 244.80384757729337,233.0 244.80384757729337,227.0 250.0,224.0 255.19615242270663,227.0" fill="#ffe66d" fill-opacity="0.5" stroke-opacity="0.5" />
  <polygon points="270.0,222.5 277.5,230.0 270.0,237.5 262.5,230.0" fill="#ff6b6b" fill-opacity="0.7" stroke-opacity="0.7" />
  <polygon points="10.0,242.5 17.5,250.0 10.0,257.5 2.5,250.0" fill="#ff6b6b" fill-opacity="0.7" stroke-opacity="0.7" />
  <polygon points="35.19615242270663,253.0 30.0,256.0 24.803847577293368,253.0 24.803847577293368,247.0 30.0,244.0 35.19615242270663,247.0" fill="#ffe66d" fill-opacity="0.5" stroke-opacity="0.5" />
  <polygon points="50.0,242.5 57.5,250.0 50.0,257.5 42.5,250.0" fill="#ff6b6b" fill-opacity="0.7" stroke-opacity="0.7" />
  <polygon points="75.19615242270663,253.0 70.0,256.0 64.80384757729337,253.0 64.80384757729337,247.0 70.0,244.0 75.19615242270663,247.0" fill="#ffe66d" fill-opacity="0.5" stroke-opacity="0.5" />
  <polygon points="90.0,242.5 97.5,250.0 90.0,257.5 82.5,250.0" fill="#ff6b6b" fill-opacity="0.7" stroke-opacity="0.7" />
  <polygon points="115.19615242270663,253.0 110.0,256.0 104.80384757729337,253.0 104.80384757729337,247.0 110.0,244.0 115.19615242270663,247.0" fill="#ffe66d" fill-opacity="0.5" stroke-opacity="0.5" />
  <polygon points="130.0,242.5 137.5,250.0 130.0,257.5 122.5,250.0" fill="#ff6b6b" fill-opacity="0.7" stroke-opacity="0.7" />
  <polygon points="155.19615242270663,253.0 150.0,256.0 144.80384757729337,253.0 144.80384757729337,247.0 150.0,244.0 155.19615242270663,247.0" fill="#ffe66d" fill-opacity="0.5" stroke-opacity="0.5" />
  <polygon points="170.0,242.5 177.5,250.0 170.0,257.5 162.5,250.0" fill="#ff6b6b" fill-opacity="0.7" stroke-opacity="0.7" />
  <polygon points="195.19615242270663,253.0 190.0,256.0 184.80384757729337,253.0 184.80384757729337,247.0 190.0,244.0 195.19615242270663,247.0" fill="#ffe66d" fill-opacity="0.5" stroke-opacity="0.5" />
  <polygon points="210.0,242.5 217.5,250.0 210.0,257.5 202.5,250.0" fill="#ff6b6b" fill-opacity="0.7" stroke-opacity="0.7" />
  <polygon points="235.19615242270663,253.0 230.0,256.0 224.80384757729337,253.0 224.80384757729337,247.0 230.0,244.0 235.19615242270663,247.0" fill="#ffe66d" fill-opacity="0.5" stroke-opacity="0.5" />
  <polygon points="250.0,242.5 257.5,250.0 250.0,257.5 242.5,250.0" fill="#ff6b6b" fill-opacity="0.7" stroke-opacity="0.7" />
  <polygon points="275.19615242270663,253.0 270.0,256.0 264.80384757729337,253.0 264.80384757729337,247.0 270.0,244.0 275.19615242270663,247.0" fill="#ffe66d" fill-opacity="0.5" stroke-opacity="0.5" />
  <polygon points="15.196152422706632,273.0 10.0,276.0 4.80384757729337,273.0 4.803847577293368,267.0 9.999999999999998,264.0 15.196152422706632,267.0" fill="#ffe66d" fill-opacity="0.5" stroke-opacity="0.5" />
  <polygon points="30.0,262.5 37.5,270.0 30.0,277.5 22.5,270.0" fill="#ff6b6b" fill-opacity="0.7" stroke-opacity="0.7" />
  <polygon points="55.19615242270663,273.0 50.0,276.0 44.80384757729337,273.0 44.80384757729337,267.0 50.0,264.0 55.19615242270663,267.0" fill="#ffe66d" fill-opacity="0.5" stroke-opacity="0.5" />
  <polygon points="70.0,262.5 77.5,270.0 70.0,277.5 62.5,270.0" fill="#ff6b6b" fill-opacity="0.7" stroke-opacity="0.7" />
  <polygon points="95.19615242270663,273.0 90.0,276.0 84.80384757729337,273.0 84.80384757729337,267.0 90.0,264.0 95.19615242270663,267.0" fill="#ffe66d" fill-opacity="0.5" stroke-opacity="0.5" />
  <polygon points="110.0,262.5 117.5,270.0 110.0,277.5 102.5,270.0" fill="#ff6b6b" fill-opacity="0.7" stroke-opacity="0.7" />
  <polygon points="135.19615242270663,273.0 130.0,276.0 124.80384757729337,273.0 124.80384757729337,267.0 130.0,264.0 135.19615242270663,267.0" fill="#ffe66d" fill-opacity="0.5" stroke-opacity="0.5" />
  <polygon points="150.0,262.5 157.5,270.0 150.0,277.5 142.5,270.0" fill="#ff6b6b" fill-opacity="0.7" stroke-opacity="0.7" />
  <polygon points="175.19615242270663,273.0 170.0,276.0 164.80384757729337,273.0 164.80384757729337,267.0 170.0,264.0 175.19615242270663,267.0" fill="#ffe66d" fill-opacity="0.5" stroke-opacity="0.5" />
  <polygon points="190.0,262.5 197.5,270.0 190.0,277.5 182.5,270.0" fill="#ff6b6b" fill-opacity="0.7" stroke-opacity="0.7" />
  <polygon points="215.19615242270663,273.0 210.0,276.0 204.80384757729337,273.0 204.80384757729337,267.0 210.0,264.0 215.19615242270663,267.0" fill="#ffe66d" fill-opacity="0.5" stroke-opacity="0.5" />
  <polygon points="230.0,262.5 237.5,270.0 230.0,277.5 222.5,270.0" fill="#ff6b6b" fill-opacity="0.7" stroke-opacity="0.7" />
  <polygon points="255.19615242270663,273.0 250.0,276.0 244.80384757729337,273.0 244.80384757729337,267.0 250.0,264.0 255.19615242270663,267.0" fill="#ffe66d" fill-opacity="0.5" stroke-opacity="0.5" />
  <polygon points="270.0,262.5 277.5,270.0 270.0,277.5 262.5,270.0" fill="#ff6b6b" fill-opacity="0.7" stroke-opacity="0.7" />
</svg>