<?xml version="1.0" encoding="UTF-8"?>
<svg xmlns="http://www.w3.org/2000/svg" width="320" height="240" viewBox="0 0 320 240">
  <rect width="100%" height="100%" fill="#2d1b4e" />
  <polygon points="8.0,5.6 10.4,8.0 8.0,10.4 5.6,8.0" fill="#efa00b" fill-opacity="0.4" stroke-opacity="0.4" />
  <polygon points="26.253131928209612,3.6973965206403623 28.30260347935964,10.253131928209612 21.746868071790388,12.30260347935964 19.69739652064036,5.746868071790388" fill="#ff6b35" fill-opacity="0.7685276276138007" stroke-opacity="0.7685276276138007" />
  <polygon points="44.330981887919855,3.455677057888906 44.544322942111094,12.330981887919856 35.669018112080145,12.544322942111094 35.455677057888906,3.6690181120801437" fill="#ff6b35" fill-opacity="0.9816401595635982" stroke-opacity="0.9816401595635982" />
  <polygon points="59.994475862726475,3.438721338607052 60.56127866139295,11.994475862726473 52.005524137273525,12.561278661392947 51.43872133860705,4.005524137273527" fill="#ff6b35" fill-opacity="0.9494639959930345" stroke-opacity="0.9494639959930345" />
  <polygon points="73.57158599418356,3.993415152000588 76.0065848479994,9.57158599418356 70.42841400581644,12.006584847999413 67.9934151520006,6.42841400581644" fill="#ff6b35" fill-opacity="0.6855684358222442" stroke-opacity="0.6855684358222442" />
  <polygon points="87.60573668399522,4.967140847741537 91.03285915225847,7.6057366839952145 88.39426331600478,11.032859152258464 84.96714084774153,8.394263316004785" fill="#efa00b" fill-opacity="0.4987567541684403" stroke-opacity="0.4987567541684403" />
  <polygon points="101.08164241552649,3.5245421622085704 108.47545783779142,5.081642415526494 106.91835758447351,12.47545783779143 99.52454216220858,10.918357584473506" fill="#efa00b" fill-opacity="0.8414343464038787" stroke-opacity="0.8414343464038787" />
  <polygon points="115.49630718993814,3.4720795318880766 124.52792046811193,3.4963071899381335 124.50369281006186,12.527920468111923 115.47207953188807,12.503692810061867" fill="#efa00b" fill-opacity="0.9979506958040019" stroke-opacity="0.9979506958040019" />
  <polygon points="132.486719540874,3.4498329486284156 140.55016705137157,4.486719540873988 139.513280459126,12.550167051371584 131.44983294862843,11.513280459126012" fill="#efa00b" fill-opacity="0.9022998869575173" stroke-opacity="0.9022998869575173" />
  <polygon points="151.06692948008825,4.420826193319133 155.57917380668087,7.066929480088259 152.93307051991175,11.579173806680867 148.42082619331913,8.933070519911741" fill="#efa00b" fill-opacity="0.5948196815228103" stroke-opacity="0.5948196815228103" />
  <polygon points="168.93307051991175,4.420826193319134 171.57917380668087,8.93307051991174 167.06692948008825,11.579173806680867 164.42082619331913,7.066929480088261" fill="#ff6b35" fill-opacity="0.59481968152281" stroke-opacity="0.59481968152281" />
  <polygon points="187.513280459126,3.4498329486284147 188.55016705137157,11.513280459126012 180.486719540874,12.550167051371584 179.44983294862843,4.486719540873988" fill="#ff6b35" fill-opacity="0.9022998869575172" stroke-opacity="0.9022998869575172" />
  <polygon points="204.50369281006186,3.4720795318880766 204.52792046811194,12.503692810061876 195.49630718993814,12.527920468111924 195.47207953188808,3.4963071899381433" fill="#ff6b35" fill-opacity="0.997950695804002" stroke-opacity="0.997950695804002" />
  <polygon points="218.9183575844735,3.5245421622085704 220.47545783779142,10.918357584473512 213.0816424155265,12.47545783779143 211.52454216220858,5.081642415526489" fill="#ff6b35" fill-opacity="0.8414343464038794" stroke-opacity="0.8414343464038794" />
  <polygon points="232.39426331600478,4.967140847741534 235.03285915225848,8.394263316004789 231.60573668399522,11.032859152258466 228.96714084774152,7.605736683995211" fill="#ff6b35" fill-opacity="0.49875675416844084" stroke-opacity="0.49875675416844084" />
  <polygon points="246.42841400581645,3.9934151520005905 252.00658484799942,6.428414005816438 249.57158599418355,12.00658484799941 243.99341515200058,9.571585994183563" fill="#efa00b" fill-opacity="0.6855684358222437" stroke-opacity="0.6855684358222437" />
  <polygon points="260.00552413727354,3.438721338607052 268.5612786613929,4.005524137273547 267.99447586272646,12.561278661392947 259.4387213386071,11.994475862726453" fill="#efa00b" fill-opacity="0.9494639959930343" stroke-opacity="0.9494639959930343" />
  <polygon points="275.66901811208015,3.4556770578889067 284.54432294211114,3.6690181120801286 284.33098188791985,12.544322942111094 275.45567705788886,12.330981887919872" fill="#efa00b" fill-opacity="0.9816401595635984" stroke-opacity="0.9816401595635984" />
  <polygon points="293.7468680717904,3.6973965206403614 300.3026034793597,5.746868071790377 298.2531319282096,12.302603479359638 291.6973965206403,10.253131928209623" fill="#efa00b" fill-opacity="0.7685276276138009" stroke-opacity="0.7685276276138009" />
  <polygon points="312.0,5.599999999999998 314.4,7.999999999999999 312.0,10.400000000000002 309.6,8.000000000000002" fill="#efa00b" fill-opacity="0.4000000000000003" stroke-opacity="0.4000000000000003" />
  <polygon points="9.382155004743872,20.102270286557996 11.897729713442008,25.382155004743872 6.617844995256127,27.897729713442004 4.102270286557992,22.617844995256128" fill="#ff6b35" fill-opacity="0.6603302434705349" stroke-opacity="0.6603302434705349" />
  <polygon points="27.870636093267887,19.437546081314128 28.562453918685872,27.870636093267887 20.129363906732113,28.562453918685872 19.437546081314128,20.129363906732113" fill="#ff6b35" fill-opacity="0.9374690603855953" stroke-opacity="0.9374690603855953" />
  <polygon points="44.39760783290066,19.461390406607954 44.538609593392046,28.397607832900658 35.60239216709934,28.538609593392046 35.461390406607954,19.602392167099342" fill="#ff6b35" fill-opacity="0.9879469727244446" stroke-opacity="0.9879469727244446" />
  <polygon points="58.4473805685868,19.636274043363375 60.36372595663663,26.4473805685868 53.5526194314132,28.363725956636625 51.63627404336337,21.5526194314132" fill="#ff6b35" fill-opacity="0.7904764867220764" stroke-opacity="0.7904764867220764" />
  <polygon points="72.09600013942625,21.41288282853352 74.58711717146649,24.096000139426252 71.90399986057375,26.58711717146648 69.41288282853351,23.903999860573748" fill="#ff6b35" fill-opacity="0.4283346545539021" stroke-opacity="0.4283346545539021" />
  <polygon points="85.94248502681992,19.768680927467408 92.2313190725326,21.942485026819924 90.05751497318008,28.231319072532592 83.7686809274674,26.057514973180076" fill="#efa00b" fill-opacity="0.745756439265602" stroke-opacity="0.745756439265602" />
  <polygon points="99.7490783458117,19.44983642786232 108.55016357213766,19.7490783458117 108.25092165418829,28.550163572137663 99.44983642786232,28.25092165418829" fill="#efa00b" fill-opacity="0.9740354797721827" stroke-opacity="0.9740354797721827" />
  <polygon points="115.89357067751851,19.442142894852534 124.55785710514746,19.893570677518518 124.10642932248149,28.557857105147466 115.44214289485254,28.106429322481482" fill="#efa00b" fill-opacity="0.9602328625724452" stroke-opacity="0.9602328625724452" />
  <polygon points="134.23545466089394,19.895419432155983 140.104580567844,22.23545466089393 137.76454533910606,28.104580567844017 131.895419432156,25.76454533910607" fill="#efa00b" fill-opacity="0.7101694133298555" stroke-opacity="0.7101694133298555" />
  <polygon points="152.26534436975214,21.14096434476191 154.85903565523807,24.265344369752135 151.73465563024786,26.85903565523809 149.14096434476193,23.734655630247865" fill="#ff6b35" fill-opacity="0.47069836490383976" stroke-opacity="0.47069836490383976" />
  <polygon points="170.7332726302982,19.56257050102422 172.4374294989758,26.733272630298195 165.2667273697018,28.43742949897578 163.5625705010242,21.266727369701805" fill="#ff6b35" fill-opacity="0.8217513007172719" stroke-opacity="0.8217513007172719" />
  <polygon points="188.47175449881703,19.46865608299335 188.53134391700667,28.471754498817035 179.52824550118297,28.53134391700665 179.46865608299333,19.528245501182965" fill="#ff6b35" fill-opacity="0.9949437076693993" stroke-opacity="0.9949437076693993" />
  <polygon points="203.66395950033464,19.441777258647477 204.55822274135252,27.66395950033464 196.33604049966536,28.558222741352523 195.44177725864748,20.33604049966536" fill="#ff6b35" fill-opacity="0.917237060347546" stroke-opacity="0.917237060347546" />
  <polygon points="217.10766394179547,20.285629819468042 219.71437018053197,25.107663941795472 214.89233605820453,27.714370180531958 212.28562981946803,22.892336058204528" fill="#ff6b35" fill-opacity="0.6214017268933121" stroke-opacity="0.6214017268933121" />
  <polygon points="231.2333083223966,20.565857334349808 235.4341426656502,23.233308322396603 232.7666916776034,27.434142665650192 228.5658573343498,24.766691677603397" fill="#efa00b" fill-opacity="0.5678029172638872" stroke-opacity="0.5678029172638872" />
  <polygon points="244.6467624580878,19.463085803842034 252.53691419615797,20.646762458087814 251.3532375419122,28.536914196157966 243.46308580384203,27.353237541912186" fill="#efa00b" fill-opacity="0.8862418861089616" stroke-opacity="0.8862418861089616" />
  <polygon points="259.47852226854656,19.474062441742134 268.52593755825785,19.478522268546566 268.52147773145344,28.525937558257866 259.47406244174215,28.521477731453434" fill="#efa00b" fill-opacity="0.9996234221238911" stroke-opacity="0.9996234221238911" />
  <polygon points="276.9023652705245,19.494586223522518 284.5054137764775,20.9023652705245 283.0976347294755,28.505413776477482 275.4945862235225,27.0976347294755" fill="#efa00b" fill-opacity="0.8601323794527507" stroke-opacity="0.8601323794527507" />
  <polygon points="295.46489238942814,20.80047347268877 299.1995265273112,23.464892389428154 296.53510761057186,27.19952652731123 292.8004734726888,24.535107610571846" fill="#efa00b" fill-opacity="0.5265947784983456" stroke-opacity="0.5265947784983456" />
  <polygon points="313.3821550047439,20.102270286557996 315.897729713442,25.38215500474387 310.6178449952561,27.897729713442004 308.102270286558,22.61784499525613" fill="#ff6b35" fill-opacity="0.6603302434705346" stroke-opacity="0.6603302434705346" />
  <polygon points="11.184743047337705,35.48239624828927 12.517603751710727,43.184743047337705 4.8152569526622955,44.51760375171073 3.482396248289273,36.815256952662295" fill="#ff6b35" fill-opacity="0.8690988894808178" stroke-opacity="0.8690988894808178" />
  <polygon points="28.525038251806038,35.47446599291192 28.525534007088083,44.52503825180604 19.474961748193962,44.52553400708808 19.474465992911917,35.47496174819396" fill="#ff6b35" fill-opacity="0.9999581541225729" stroke-opacity="0.9999581541225729" />
  <polygon points="43.2699863964388,35.4719307359142 44.5280692640858,43.2699863964388 36.7300136035612,44.5280692640858 35.4719307359142,36.7300136035612" fill="#ff6b35" fill-opacity="0.8778036772407964" stroke-opacity="0.8778036772407964" />
  <polygon points="56.686958932245375,36.64187539762378 59.35812460237622,40.686958932245375 55.313041067754625,43.35812460237622 52.64187539762378,39.313041067754625" fill="#ff6b35" fill-opacity="0.5541503203759717" stroke-opacity="0.5541503203759717" />
  <polygon points="70.8023539307638,36.221872903167316 75.77812709683269,38.80235393076381 73.1976460692362,43.778127096832684 68.22187290316731,41.19764606923619" fill="#efa00b" fill-opacity="0.6345111525505736" stroke-opacity="0.6345111525505736" />
  <polygon points="84.26447408541434,35.43942743610155 92.56057256389845,36.26447408541434 91.73552591458566,44.56057256389845 83.43942743610155,43.73552591458566" fill="#efa00b" fill-opacity="0.9242748211417617" stroke-opacity="0.9242748211417617" />
  <polygon points="99.5494841873953,35.46647738166179 108.53352261833821,35.5494841873953 108.4505158126047,44.53352261833821 99.46647738166179,44.4505158126047" fill="#efa00b" fill-opacity="0.9929418462884523" stroke-opacity="0.9929418462884523" />
  <polygon points="117.36107809519075,35.58483578583081 124.41516421416918,37.36107809519075 122.63892190480925,44.41516421416919 115.58483578583082,42.63892190480925" fill="#efa00b" fill-opacity="0.811554040103253" stroke-opacity="0.811554040103253" />
  <polygon points="135.79439266422665,37.23024706063066 138.76975293936934,39.79439266422665 136.20560733577335,42.76975293936934 133.23024706063066,40.20560733577335" fill="#efa00b" fill-opacity="0.45660608341399767" stroke-opacity="0.45660608341399767" />
  <polygon points="153.8619076177709,35.8504895702482 156.1495104297518,41.8619076177709 150.1380923822291,44.1495104297518 147.8504895702482,38.1380923822291" fill="#ff6b35" fill-opacity="0.7222137331027395" stroke-opacity="0.7222137331027395" />
  <polygon points="172.15777820572714,35.4444556336289 172.55554436637112,44.15777820572715 163.84222179427286,44.5555443663711 163.44445563362888,35.84222179427285" fill="#ff6b35" fill-opacity="0.9651499023644164" stroke-opacity="0.9651499023644164" />
  <polygon points="188.2059606569677,35.447048669164744 188.55295133083524,44.20596065696769 179.7940393430323,44.552951330835256 179.44704866916476,35.79403934303231" fill="#ff6b35" fill-opacity="0.9697516305716161" stroke-opacity="0.9697516305716161" />
  <polygon points="201.95962283048948,35.80825189407598 204.19174810592403,41.959622830489494 198.04037716951052,44.19174810592402 195.80825189407597,38.040377169510506" fill="#ff6b35" fill-opacity="0.7340782815930056" stroke-opacity="0.7340782815930056" />
  <polygon points="215.85086574180673,37.32093287991627 218.67906712008374,39.85086574180672 216.14913425819327,42.67906712008373 213.32093287991626,40.14913425819328" fill="#efa00b" fill-opacity="0.44248221994246356" stroke-opacity="0.44248221994246356" />
  <polygon points="229.45642853528915,35.60937841510062 236.39062158489938,37.45642853528916 234.54357146471085,44.39062158489938 227.60937841510062,42.54357146471084" fill="#efa00b" fill-opacity="0.8011271629643762" stroke-opacity="0.8011271629643762" />
  <polygon points="243.57420823856626,35.46403971598428 252.53596028401574,35.574208238566264 252.42579176143374,44.53596028401572 243.46403971598426,44.425791761433736" fill="#efa00b" fill-opacity="0.9906091674864125" stroke-opacity="0.9906091674864125" />
  <polygon points="260.1955518993759,35.43805253697043 268.5619474630296,36.19555189937595 267.8044481006241,44.56194746302957 259.4380525369704,43.80444810062405" fill="#efa00b" fill-opacity="0.9310200756044387" stroke-opacity="0.9310200756044387" />
  <polygon points="278.7108006892541,36.16074082439029 283.8392591756097,38.710800689254086 281.2891993107459,43.83925917560972 276.1607408243903,41.289199310745914" fill="#efa00b" fill-opacity="0.6474897384379839" stroke-opacity="0.6474897384379839" />
  <polygon points="296.6097196981712,36.7201129347913 299.2798870652087,40.60971969817122 295.3902803018288,43.2798870652087 292.7201129347913,39.39028030182878" fill="#ff6b35" fill-opacity="0.5404117190817771" stroke-opacity="0.5404117190817771" />
  <polygon points="315.1847430473377,35.48239624828927 316.51760375171074,43.184743047337705 308.8152569526623,44.51760375171073 307.48239624828926,36.815256952662295" fill="#ff6b35" fill-opacity="0.8690988894808177" stroke-opacity="0.8690988894808177" />
  <polygon points="12.365993414099504,51.458583000301545 12.541416999698455,60.365993414099506 3.6340065859004955,60.541416999698455 3.4585830003015436,51.634006585900494" fill="#ff6b35" fill-opacity="0.9849567473090942" stroke-opacity="0.9849567473090942" />
  <polygon points="27.934005186485766,51.43780324638435 28.562196753615655,59.93400518648576 20.065994813514234,60.56219675361565 19.437803246384345,52.06599481351424" fill="#ff6b35" fill-opacity="0.9436181774316839" stroke-opacity="0.9436181774316839" />
  <polygon points="41.476341752388784,52.04648889444613 43.95351110555387,57.476341752388784 38.523658247611216,59.95351110555387 36.04648889444613,54.523658247611216" fill="#ff6b35" fill-opacity="0.6730255036020619" stroke-opacity="0.6730255036020619" />
  <polygon points="55.53675082148478,52.88285309622201 59.11714690377798,55.53675082148478 56.46324917851522,59.11714690377798 52.882853096222014,56.46324917851522" fill="#efa00b" fill-opacity="0.5127072074502076" stroke-opacity="0.5127072074502076" />
  <polygon points="68.99120620457586,51.50860206416126 76.49139793583875,52.99120620457586 75.00879379542414,60.49139793583874 67.50860206416125,59.00879379542414" fill="#efa00b" fill-opacity="0.8509091498018657" stroke-opacity="0.8509091498018657" />
  <polygon points="83.48563977595177,51.47326231397903 92.52673768602097,51.485639775951775 92.51436022404823,60.52673768602097 83.47326231397903,60.514360224048225" fill="#efa00b" fill-opacity="0.9989541448820706" stroke-opacity="0.9989541448820706" />
  <polygon points="100.56562553084218,51.45575562255666 108.54424437744335,52.565625530842176 107.43437446915782,60.54424437744334 99.45575562255665,59.434374469157824" fill="#efa00b" fill-opacity="0.8944088081927714" stroke-opacity="0.8944088081927714" />
  <polygon points="119.15122233259991,52.49214741613556 123.50785258386445,55.15122233259991 120.84877766740009,59.50785258386444 116.49214741613555,56.84877766740009" fill="#efa00b" fill-opacity="0.5813618926125443" stroke-opacity="0.5813618926125443" />
  <polygon points="137.01941827427996,52.351965819443194 139.6480341805568,57.01941827427995 134.98058172572004,59.648034180556806 132.3519658194432,54.98058172572005" fill="#ff6b35" fill-opacity="0.6081687755500569" stroke-opacity="0.6081687755500569" />
  <polygon points="155.5898441376524,51.445209655348826 156.55479034465117,59.5898441376524 148.4101558623476,60.554790344651174 147.44520965534883,52.4101558623476" fill="#ff6b35" fill-opacity="0.909910719768535" stroke-opacity="0.909910719768535" />
  <polygon points="172.48948614470228,51.47053491168216 172.52946508831786,60.48948614470229 163.51051385529772,60.52946508831784 163.47053491168214,51.51051385529771" fill="#ff6b35" fill-opacity="0.99661363473959" stroke-opacity="0.99661363473959" />
  <polygon points="186.8264682622642,51.542501373694485 188.45749862630552,58.82646826226419 181.1735317377358,60.457498626305515 179.54250137369448,53.17353173773581" fill="#ff6b35" fill-opacity="0.8317132554939333" stroke-opacity="0.8317132554939333" />
  <polygon points="200.32826090163687,53.05321916350884 202.94678083649114,56.32826090163687 199.67173909836313,58.94678083649116 197.05321916350886,55.67173909836313" fill="#ff6b35" fill-opacity="0.4847512019677257" stroke-opacity="0.4847512019677257" />
  <polygon points="214.33228741860177,51.943058505632884 220.0569414943671,54.33228741860177 217.66771258139823,60.056941494367116 211.9430585056329,57.66771258139823" fill="#efa00b" fill-opacity="0.697952042108398" stroke-opacity="0.697952042108398" />
  <polygon points="227.94802629090384,51.440200249606896 236.5597997503931,51.948026290903854 236.05197370909616,60.559799750393104 227.4402002496069,60.051973709096146" fill="#efa00b" fill-opacity="0.9550032545379593" stroke-opacity="0.9550032545379593" />
  <polygon points="243.70738926295456,51.452737916687944 252.54726208331203,51.707389262954585 252.29261073704544,60.547262083312056 243.45273791668797,60.292610737045415" fill="#efa00b" fill-opacity="0.9779990598970851" stroke-opacity="0.9779990598970851" />
  <polygon points="261.84459087478604,51.73174299680911 268.26825700319085,53.84459087478602 266.15540912521396,60.26825700319089 259.73174299680915,58.15540912521398" fill="#efa00b" fill-opacity="0.7572416905776853" stroke-opacity="0.7572416905776853" />
  <polygon points="280.0462702674655,53.50595396922589 282.49404603077414,56.04627026746552 279.9537297325345,58.49404603077411 277.50595396922586,55.95372973253448" fill="#ff6b35" fill-opacity="0.41417128053687835" stroke-opacity="0.41417128053687835" />
  <polygon points="298.35051204094424,51.66559233374198 300.334407666258,58.350512040944245 293.64948795905576,60.33440766625802 291.665592333742,53.649487959055755" fill="#ff6b35" fill-opacity="0.7796079536610281" stroke-opacity="0.7796079536610281" />
  <polygon points="316.3659934140995,51.458583000301545 316.54141699969847,60.36599341409949 307.6340065859005,60.541416999698455 307.45858300030153,51.63400658590051" fill="#ff6b35" fill-opacity="0.9849567473090941" stroke-opacity="0.9849567473090941" />
  <polygon points="12.365993414099504,67.45858300030154 12.541416999698455,76.3659934140995 3.6340065859004955,76.54141699969846 3.4585830003015436,67.6340065859005" fill="#ff6b35" fill-opacity="0.9849567473090942" stroke-opacity="0.9849567473090942" />
  <polygon points="26.35051204094424,67.66559233374198 28.33440766625802,74.35051204094424 21.64948795905576,76.33440766625802 19.66559233374198,69.64948795905576" fill="#ff6b35" fill-opacity="0.7796079536610283" stroke-opacity="0.7796079536610283" />
  <polygon points="40.04627026746552,69.50595396922589 42.494046030774115,72.04627026746553 39.95372973253448,74.49404603077411 37.505953969225885,71.95372973253447" fill="#ff6b35" fill-opacity="0.4141712805368787" stroke-opacity="0.4141712805368787" />
  <polygon points="53.844590874786014,67.7317429968091 60.26825700319089,69.84459087478601 58.155409125213986,76.2682570031909 51.73174299680911,74.15540912521399" fill="#efa00b" fill-opacity="0.7572416905776849" stroke-opacity="0.7572416905776849" />
  <polygon points="67.70738926295458,67.45273791668795 76.54726208331205,67.70738926295458 76.29261073704542,76.54726208331205 67.45273791668795,76.29261073704542" fill="#efa00b" fill-opacity="0.977999059897085" stroke-opacity="0.977999059897085" />
  <polygon points="83.94802629090385,67.44020024960689 92.55979975039311,67.94802629090385 92.05197370909615,76.55979975039311 83.44020024960689,76.05197370909615" fill="#efa00b" fill-opacity="0.9550032545379595" stroke-opacity="0.9550032545379595" />
  <polygon points="102.33228741860177,67.94305850563288 108.05694149436712,70.33228741860177 105.66771258139823,76.05694149436712 99.94305850563288,73.66771258139823" fill="#efa00b" fill-opacity="0.6979520421083987" stroke-opacity="0.6979520421083987" />
  <polygon points="120.32826090163687,69.05321916350886 122.94678083649114,72.32826090163687 119.67173909836313,74.94678083649114 117.05321916350886,71.67173909836313" fill="#ff6b35" fill-opacity="0.4847512019677248" stroke-opacity="0.4847512019677248" />
  <polygon points="138.82646826226417,67.54250137369449 140.45749862630552,74.82646826226419 133.17353173773583,76.45749862630551 131.54250137369448,69.17353173773581" fill="#ff6b35" fill-opacity="0.8317132554939326" stroke-opacity="0.8317132554939326" />
  <polygon points="156.48948614470228,67.47053491168215 156.52946508831786,76.4894861447023 147.51051385529772,76.52946508831785 147.47053491168214,67.5105138552977" fill="#ff6b35" fill-opacity="0.99661363473959" stroke-opacity="0.99661363473959" />
  <polygon points="171.58984413765242,67.44520965534882 172.55479034465117,75.5898441376524 164.41015586234758,76.55479034465118 163.44520965534883,68.4101558623476" fill="#ff6b35" fill-opacity="0.909910719768535" stroke-opacity="0.909910719768535" />
  <polygon points="185.01941827427996,68.35196581944318 187.6480341805568,73.01941827427996 182.98058172572004,75.64803418055682 180.3519658194432,70.98058172572004" fill="#ff6b35" fill-opacity="0.6081687755500578" stroke-opacity="0.6081687755500578" />
  <polygon points="199.15122233259993,68.49214741613557 203.50785258386446,71.15122233259991 200.84877766740007,75.50785258386443 196.49214741613554,72.84877766740009" fill="#efa00b" fill-opacity="0.5813618926125435" stroke-opacity="0.5813618926125435" />
  <polygon points="212.56562553084217,67.45575562255665 220.54424437744333,68.56562553084218 219.43437446915783,76.54424437744335 211.45575562255667,75.43437446915782" fill="#efa00b" fill-opacity="0.8944088081927708" stroke-opacity="0.8944088081927708" />
  <polygon points="227.48563977595177,67.47326231397903 236.52673768602097,67.48563977595177 236.51436022404823,76.52673768602097 227.47326231397903,76.51436022404823" fill="#efa00b" fill-opacity="0.9989541448820706" stroke-opacity="0.9989541448820706" />
  <polygon points="244.99120620457586,67.50860206416125 252.49139793583873,68.99120620457586 251.00879379542414,76.49139793583875 243.50860206416127,75.00879379542414" fill="#efa00b" fill-opacity="0.850909149801866" stroke-opacity="0.850909149801866" />
  <polygon points="263.53675082148476,68.88285309622201 267.11714690377795,71.53675082148479 264.46324917851524,75.11714690377799 260.88285309622205,72.46324917851521" fill="#efa00b" fill-opacity="0.5127072074502081" stroke-opacity="0.5127072074502081" />
  <polygon points="281.4763417523888,68.04648889444613 283.95351110555384,73.47634175238878 278.5236582476112,75.95351110555387 276.04648889444616,70.52365824761122" fill="#ff6b35" fill-opacity="0.6730255036020616" stroke-opacity="0.6730255036020616" />
  <polygon points="299.93400518648576,67.43780324638435 300.56219675361564,75.93400518648575 292.06599481351424,76.56219675361565 291.43780324638436,68.06599481351425" fill="#ff6b35" fill-opacity="0.9436181774316836" stroke-opacity="0.9436181774316836" />
  <polygon points="316.3659934140995,67.45858300030154 316.54141699969847,76.36599341409949 307.6340065859005,76.54141699969846 307.45858300030153,67.63400658590051" fill="#ff6b35" fill-opacity="0.9849567473090942" stroke-opacity="0.9849567473090942" />
  <polygon points="11.184743047337705,83.48239624828928 12.517603751710727,91.1847430473377 4.815256952662295,92.51760375171072 3.4823962482892723,84.8152569526623" fill="#ff6b35" fill-opacity="0.8690988894808179" stroke-opacity="0.8690988894808179" />
  <polygon points="24.609719698171215,84.7201129347913 27.279887065208698,88.60971969817122 23.390280301828785,91.2798870652087 20.720112934791302,87.39028030182878" fill="#ff6b35" fill-opacity="0.5404117190817774" stroke-opacity="0.5404117190817774" />
  <polygon points="38.710800689254086,84.16074082439029 43.83925917560971,86.71080068925409 41.28919931074591,91.8392591756097 36.16074082439029,89.28919931074591" fill="#efa00b" fill-opacity="0.6474897384379836" stroke-opacity="0.6474897384379836" />
  <polygon points="52.19555189937594,83.43805253697043 60.56194746302957,84.19555189937594 59.80444810062406,92.56194746302957 51.43805253697043,91.80444810062406" fill="#efa00b" fill-opacity="0.9310200756044386" stroke-opacity="0.9310200756044386" />
  <polygon points="67.57420823856627,83.46403971598428 76.53596028401573,83.57420823856627 76.42579176143373,92.53596028401573 67.46403971598428,92.42579176143373" fill="#efa00b" fill-opacity="0.9906091674864126" stroke-opacity="0.9906091674864126" />
  <polygon points="85.45642853528916,83.60937841510062 92.39062158489938,85.45642853528916 90.54357146471084,92.39062158489938 83.60937841510062,90.54357146471084" fill="#efa00b" fill-opacity="0.8011271629643766" stroke-opacity="0.8011271629643766" />
  <polygon points="103.85086574180671,85.32093287991627 106.67906712008373,87.85086574180671 104.14913425819329,90.67906712008373 101.32093287991627,88.14913425819329" fill="#efa00b" fill-opacity="0.4424822199424645" stroke-opacity="0.4424822199424645" />
  <polygon points="121.9596228304895,83.80825189407598 124.19174810592402,89.9596228304895 118.0403771695105,92.19174810592402 115.80825189407598,86.0403771695105" fill="#ff6b35" fill-opacity="0.7340782815930049" stroke-opacity="0.7340782815930049" />
  <polygon points="140.2059606569677,83.44704866916474 140.55295133083524,92.20596065696769 131.7940393430323,92.55295133083526 131.44704866916476,83.79403934303231" fill="#ff6b35" fill-opacity="0.9697516305716157" stroke-opacity="0.9697516305716157" />
  <polygon points="156.15777820572714,83.4444556336289 156.55554436637112,92.15777820572715 147.84222179427286,92.5555443663711 147.44445563362888,83.84222179427285" fill="#ff6b35" fill-opacity="0.9651499023644168" stroke-opacity="0.9651499023644168" />
  <polygon points="169.8619076177709,83.85048957024821 172.1495104297518,89.8619076177709 166.1380923822291,92.14951042975179 163.8504895702482,86.1380923822291" fill="#ff6b35" fill-opacity="0.7222137331027393" stroke-opacity="0.7222137331027393" />
  <polygon points="183.79439266422665,85.23024706063067 186.76975293936934,87.79439266422665 184.20560733577335,90.76975293936933 181.23024706063066,88.20560733577335" fill="#efa00b" fill-opacity="0.4566060834139967" stroke-opacity="0.4566060834139967" />
  <polygon points="197.36107809519075,83.5848357858308 204.41516421416918,85.36107809519075 202.63892190480925,92.4151642141692 195.58483578583082,90.63892190480925" fill="#efa00b" fill-opacity="0.8115540401032524" stroke-opacity="0.8115540401032524" />
  <polygon points="211.5494841873953,83.46647738166179 220.53352261833822,83.5494841873953 220.4505158126047,92.53352261833821 211.46647738166178,92.4505158126047" fill="#efa00b" fill-opacity="0.9929418462884521" stroke-opacity="0.9929418462884521" />
  <polygon points="228.26447408541435,83.43942743610155 236.56057256389843,84.26447408541435 235.73552591458565,92.56057256389845 227.43942743610157,91.73552591458565" fill="#efa00b" fill-opacity="0.924274821141762" stroke-opacity="0.924274821141762" />
  <polygon points="246.80235393076381,84.22187290316731 251.7781270968327,86.8023539307638 249.19764606923619,91.77812709683269 244.2218729031673,89.1976460692362" fill="#efa00b" fill-opacity="0.6345111525505742" stroke-opacity="0.6345111525505742" />
  <polygon points="264.6869589322454,84.64187539762378 267.3581246023762,88.68695893224536 263.3130410677546,91.35812460237622 260.6418753976238,87.31304106775464" fill="#ff6b35" fill-opacity="0.554150320375971" stroke-opacity="0.554150320375971" />
  <polygon points="283.2699863964388,83.47193073591421 284.52806926408584,91.26998639643881 276.7300136035612,92.52806926408579 275.47193073591416,84.73001360356119" fill="#ff6b35" fill-opacity="0.8778036772407962" stroke-opacity="0.8778036772407962" />
  <polygon points="300.52503825180605,83.47446599291192 300.5255340070881,92.52503825180602 291.47496174819395,92.52553400708808 291.4744659929119,83.47496174819398" fill="#ff6b35" fill-opacity="0.9999581541225729" stroke-opacity="0.9999581541225729" />
  <polygon points="315.1847430473377,83.48239624828928 316.51760375171074,91.1847430473377 308.8152569526623,92.51760375171072 307.48239624828926,84.8152569526623" fill="#ff6b35" fill-opacity="0.869098889480818" stroke-opacity="0.869098889480818" />
  <polygon points="9.382155004743876,100.10227028655798 11.897729713442008,105.38215500474388 6.6178449952561245,107.89772971344202 4.102270286557992,102.61784499525612" fill="#ff6b35" fill-opacity="0.6603302434705349" stroke-opacity="0.6603302434705349" />
  <polygon points="23.464892389428154,100.80047347268876 27.19952652731123,103.46489238942816 24.535107610571846,107.19952652731124 20.80047347268877,104.53510761057184" fill="#efa00b" fill-opacity="0.5265947784983452" stroke-opacity="0.5265947784983452" />
  <polygon points="36.90236527052451,99.49458622352252 44.50541377647748,100.90236527052451 43.09763472947549,108.50541377647748 35.49458622352252,107.09763472947549" fill="#efa00b" fill-opacity="0.8601323794527505" stroke-opacity="0.8601323794527505" />
  <polygon points="51.478522268546556,99.47406244174213 60.525937558257866,99.47852226854656 60.521477731453444,108.52593755825787 51.474062441742134,108.52147773145344" fill="#efa00b" fill-opacity="0.999623422123891" stroke-opacity="0.999623422123891" />
  <polygon points="68.6467624580878,99.46308580384203 76.53691419615797,100.6467624580878 75.3532375419122,108.53691419615797 67.46308580384203,107.3532375419122" fill="#efa00b" fill-opacity="0.8862418861089618" stroke-opacity="0.8862418861089618" />
  <polygon points="87.2333083223966,100.56585733434981 91.43414266565019,103.2333083223966 88.7666916776034,107.43414266565019 84.56585733434981,104.7666916776034" fill="#efa00b" fill-opacity="0.5678029172638875" stroke-opacity="0.5678029172638875" />
  <polygon points="105.10766394179547,100.28562981946804 107.71437018053196,105.10766394179547 102.89233605820453,107.71437018053196 100.28562981946804,102.89233605820453" fill="#ff6b35" fill-opacity="0.6214017268933112" stroke-opacity="0.6214017268933112" />
  <polygon points="123.66395950033463,99.44177725864748 124.55822274135252,107.66395950033463 116.33604049966537,108.55822274135252 115.44177725864748,100.33604049966537" fill="#ff6b35" fill-opacity="0.9172370603475455" stroke-opacity="0.9172370603475455" />
  <polygon points="140.47175449881703,99.46865608299335 140.53134391700667,108.47175449881703 131.52824550118297,108.53134391700665 131.46865608299333,99.52824550118297" fill="#ff6b35" fill-opacity="0.9949437076693993" stroke-opacity="0.9949437076693993" />
  <polygon points="154.7332726302982,99.56257050102421 156.43742949897577,106.7332726302982 149.2667273697018,108.43742949897579 147.56257050102423,101.2667273697018" fill="#ff6b35" fill-opacity="0.8217513007172725" stroke-opacity="0.8217513007172725" />
  <polygon points="168.26534436975214,101.14096434476191 170.85903565523807,104.26534436975213 167.73465563024786,106.85903565523809 165.14096434476193,103.73465563024787" fill="#ff6b35" fill-opacity="0.4706983649038396" stroke-opacity="0.4706983649038396" />
  <polygon points="182.23545466089394,99.89541943215599 188.104580567844,102.23545466089394 185.76454533910606,108.10458056784401 179.895419432156,105.76454533910606" fill="#efa00b" fill-opacity="0.7101694133298548" stroke-opacity="0.7101694133298548" />
  <polygon points="195.8935706775185,99.44214289485254 204.55785710514746,99.89357067751853 204.1064293224815,108.55785710514746 195.44214289485254,108.10642932248147" fill="#efa00b" fill-opacity="0.9602328625724449" stroke-opacity="0.9602328625724449" />
  <polygon points="211.7490783458117,99.44983642786232 220.55016357213768,99.74907834581171 220.2509216541883,108.55016357213768 211.44983642786232,108.25092165418829" fill="#efa00b" fill-opacity="0.974035479772183" stroke-opacity="0.974035479772183" />
  <polygon points="229.94248502681992,99.7686809274674 236.2313190725326,101.94248502681991 234.05751497318008,108.2313190725326 227.76868092746741,106.05751497318008" fill="#efa00b" fill-opacity="0.7457564392656024" stroke-opacity="0.7457564392656024" />
  <polygon points="248.09600013942625,101.41288282853351 250.58711717146647,104.09600013942625 247.90399986057375,106.58711717146649 245.41288282853353,103.90399986057375" fill="#ff6b35" fill-opacity="0.4283346545539015" stroke-opacity="0.4283346545539015" />
  <polygon points="266.4473805685868,99.63627404336337 268.36372595663664,106.44738056858681 261.5526194314132,108.36372595663663 259.63627404336336,101.55261943141319" fill="#ff6b35" fill-opacity="0.7904764867220759" stroke-opacity="0.7904764867220759" />
  <polygon points="284.39760783290063,99.46139040660795 284.53860959339204,108.39760783290063 275.60239216709937,108.53860959339205 275.46139040660796,99.60239216709937" fill="#ff6b35" fill-opacity="0.9879469727244445" stroke-opacity="0.9879469727244445" />
  <polygon points="299.8706360932679,99.43754608131414 300.5624539186859,107.87063609326789 292.1293639067321,108.56245391868586 291.4375460813141,100.12936390673211" fill="#ff6b35" fill-opacity="0.9374690603855955" stroke-opacity="0.9374690603855955" />
  <polygon points="313.3821550047439,100.10227028655798 315.897729713442,105.38215500474386 310.6178449952561,107.89772971344202 308.102270286558,102.61784499525614" fill="#ff6b35" fill-opacity="0.6603302434705351" stroke-opacity="0.6603302434705351" />
  <polygon points="8.0,117.6 10.4,120.0 8.0,122.4 5.6,120.0" fill="#ff6b35" fill-opacity="0.4000000000000001" stroke-opacity="0.4000000000000001" />
  <polygon points="21.746868071790384,115.69739652064035 28.30260347935964,117.74686807179039 26.253131928209616,124.30260347935965 19.69739652064036,122.25313192820961" fill="#efa00b" fill-opacity="0.7685276276138007" stroke-opacity="0.7685276276138007" />
  <polygon points="35.66901811208015,115.4556770578889 44.544322942111094,115.66901811208014 44.33098188791985,124.5443229421111 35.455677057888906,124.33098188791986" fill="#efa00b" fill-opacity="0.9816401595635982" stroke-opacity="0.9816401595635982" />
  <polygon points="52.005524137273525,115.43872133860705 60.56127866139295,116.00552413727353 59.994475862726475,124.56127866139295 51.43872133860705,123.99447586272647" fill="#efa00b" fill-opacity="0.9494639959930344" stroke-opacity="0.9494639959930344" />
  <polygon points="70.42841400581644,115.9934151520006 76.0065848479994,118.42841400581644 73.57158599418356,124.0065848479994 67.9934151520006,121.57158599418356" fill="#efa00b" fill-opacity="0.685568435822244" stroke-opacity="0.685568435822244" />
  <polygon points="88.39426331600478,116.96714084774153 91.03285915225847,120.39426331600478 87.60573668399522,123.03285915225847 84.96714084774153,119.60573668399522" fill="#ff6b35" fill-opacity="0.4987567541684405" stroke-opacity="0.4987567541684405" />
  <polygon points="106.91835758447351,115.52454216220858 108.47545783779142,122.91835758447351 101.08164241552649,124.47545783779142 99.52454216220858,117.08164241552649" fill="#ff6b35" fill-opacity="0.8414343464038787" stroke-opacity="0.8414343464038787" />
  <polygon points="124.50369281006186,115.47207953188807 124.52792046811193,124.50369281006186 115.49630718993814,124.52792046811193 115.47207953188807,115.49630718993814" fill="#ff6b35" fill-opacity="0.9979506958040019" stroke-opacity="0.9979506958040019" />
  <polygon points="139.513280459126,115.44983294862841 140.55016705137157,123.51328045912601 132.486719540874,124.55016705137159 131.44983294862843,116.48671954087399" fill="#ff6b35" fill-opacity="0.902299886957517" stroke-opacity="0.902299886957517" />
  <polygon points="152.93307051991175,116.42082619331913 155.57917380668087,120.93307051991174 151.06692948008825,123.57917380668087 148.42082619331913,119.06692948008826" fill="#ff6b35" fill-opacity="0.5948196815228108" stroke-opacity="0.5948196815228108" />
  <polygon points="167.06692948008825,116.42082619331913 171.57917380668087,119.06692948008826 168.93307051991175,123.57917380668087 164.42082619331913,120.93307051991174" fill="#efa00b" fill-opacity="0.5948196815228104" stroke-opacity="0.5948196815228104" />
  <polygon points="180.486719540874,115.44983294862843 188.55016705137157,116.48671954087399 187.513280459126,124.55016705137157 179.44983294862843,123.51328045912601" fill="#efa00b" fill-opacity="0.9022998869575167" stroke-opacity="0.9022998869575167" />
  <polygon points="195.49630718993814,115.47207953188807 204.52792046811194,115.49630718993812 204.50369281006186,124.52792046811193 195.47207953188808,124.50369281006186" fill="#efa00b" fill-opacity="0.997950695804002" stroke-opacity="0.997950695804002" />
  <polygon points="213.0816424155265,115.52454216220858 220.47545783779142,117.08164241552649 218.9183575844735,124.47545783779142 211.52454216220858,122.91835758447351" fill="#efa00b" fill-opacity="0.8414343464038794" stroke-opacity="0.8414343464038794" />
  <polygon points="231.60573668399522,116.96714084774153 235.03285915225848,119.6057366839952 232.39426331600478,123.03285915225847 228.96714084774152,120.3942633160048" fill="#efa00b" fill-opacity="0.4987567541684409" stroke-opacity="0.4987567541684409" />
  <polygon points="249.57158599418355,115.9934151520006 252.00658484799942,121.57158599418356 246.42841400581645,124.0065848479994 243.99341515200058,118.42841400581644" fill="#ff6b35" fill-opacity="0.6855684358222437" stroke-opacity="0.6855684358222437" />
  <polygon points="267.99447586272646,115.43872133860705 268.5612786613929,123.99447586272645 260.00552413727354,124.56127866139295 259.4387213386071,116.00552413727355" fill="#ff6b35" fill-opacity="0.9494639959930342" stroke-opacity="0.9494639959930342" />
  <polygon points="284.33098188791985,115.4556770578889 284.54432294211114,124.33098188791988 275.66901811208015,124.5443229421111 275.45567705788886,115.66901811208012" fill="#ff6b35" fill-opacity="0.9816401595635984" stroke-opacity="0.9816401595635984" />
  <polygon points="298.2531319282096,115.69739652064035 300.3026034793597,122.25313192820963 293.7468680717904,124.30260347935965 291.6973965206403,117.74686807179037" fill="#ff6b35" fill-opacity="0.7685276276138011" stroke-opacity="0.7685276276138011" />
  <polygon points="312.0,117.6 314.4,120.0 312.0,122.4 309.6,120.0" fill="#ff6b35" fill-opacity="0.4000000000000004" stroke-opacity="0.4000000000000004" />
  <polygon points="6.61784499525613,132.102270286558 11.897729713442006,134.61784499525612 9.38215500474387,139.897729713442 4.102270286557993,137.38215500474388" fill="#efa00b" fill-opacity="0.6603302434705348" stroke-opacity="0.6603302434705348" />
  <polygon points="20.129363906732117,131.43754608131414 28.562453918685872,132.12936390673212 27.870636093267883,140.56245391868586 19.437546081314128,139.87063609326788" fill="#efa00b" fill-opacity="0.9374690603855953" stroke-opacity="0.9374690603855953" />
  <polygon points="35.60239216709934,131.46139040660796 44.538609593392046,131.60239216709934 44.39760783290066,140.53860959339204 35.461390406607954,140.39760783290066" fill="#efa00b" fill-opacity="0.9879469727244446" stroke-opacity="0.9879469727244446" />
  <polygon points="53.552619431413206,131.6362740433634 60.36372595663663,133.5526194314132 58.447380568586794,140.3637259566366 51.63627404336337,138.4473805685868" fill="#efa00b" fill-opacity="0.7904764867220762" stroke-opacity="0.7904764867220762" />
  <polygon points="71.90399986057375,133.4128828285335 74.58711717146649,135.90399986057375 72.09600013942625,138.5871171714665 69.41288282853351,136.09600013942625" fill="#efa00b" fill-opacity="0.42833465455390196" stroke-opacity="0.42833465455390196" />
  <polygon points="90.05751497318008,131.76868092746741 92.2313190725326,138.05751497318008 85.94248502681992,140.23131907253259 83.7686809274674,133.94248502681992" fill="#ff6b35" fill-opacity="0.7457564392656022" stroke-opacity="0.7457564392656022" />
  <polygon points="108.25092165418829,131.44983642786235 108.55016357213766,140.2509216541883 99.74907834581171,140.55016357213768 99.44983642786232,131.7490783458117" fill="#ff6b35" fill-opacity="0.9740354797721827" stroke-opacity="0.9740354797721827" />
  <polygon points="124.10642932248149,131.44214289485254 124.55785710514746,140.1064293224815 115.89357067751851,140.55785710514746 115.44214289485254,131.8935706775185" fill="#ff6b35" fill-opacity="0.9602328625724454" stroke-opacity="0.9602328625724454" />
  <polygon points="137.76454533910606,131.895419432156 140.104580567844,137.76454533910606 134.23545466089394,140.104580567844 131.895419432156,134.23545466089394" fill="#ff6b35" fill-opacity="0.7101694133298551" stroke-opacity="0.7101694133298551" />
  <polygon points="151.73465563024786,133.14096434476193 154.85903565523807,135.73465563024786 152.26534436975214,138.85903565523807 149.14096434476193,136.26534436975214" fill="#efa00b" fill-opacity="0.47069836490383915" stroke-opacity="0.47069836490383915" />
  <polygon points="165.2667273697018,131.56257050102423 172.43742949897577,133.2667273697018 170.7332726302982,140.43742949897577 163.56257050102423,138.7332726302982" fill="#efa00b" fill-opacity="0.8217513007172723" stroke-opacity="0.8217513007172723" />
  <polygon points="179.52824550118297,131.46865608299333 188.53134391700667,131.52824550118297 188.47175449881703,140.53134391700667 179.46865608299333,140.47175449881703" fill="#efa00b" fill-opacity="0.9949437076693992" stroke-opacity="0.9949437076693992" />
  <polygon points="196.33604049966536,131.44177725864748 204.55822274135252,132.33604049966536 203.66395950033464,140.55822274135252 195.44177725864748,139.66395950033464" fill="#efa00b" fill-opacity="0.917237060347546" stroke-opacity="0.917237060347546" />
  <polygon points="214.89233605820453,132.28562981946803 219.71437018053197,134.89233605820453 217.10766394179547,139.71437018053197 212.28562981946803,137.10766394179547" fill="#efa00b" fill-opacity="0.6214017268933121" stroke-opacity="0.6214017268933121" />
  <polygon points="232.7666916776034,132.5658573343498 235.4341426656502,136.7666916776034 231.2333083223966,139.4341426656502 228.5658573343498,135.2333083223966" fill="#ff6b35" fill-opacity="0.5678029172638871" stroke-opacity="0.5678029172638871" />
  <polygon points="251.3532375419122,131.46308580384203 252.53691419615797,139.3532375419122 244.6467624580878,140.53691419615797 243.46308580384203,132.6467624580878" fill="#ff6b35" fill-opacity="0.8862418861089616" stroke-opacity="0.8862418861089616" />
  <polygon points="268.52147773145344,131.47406244174212 268.52593755825785,140.52147773145344 259.47852226854656,140.52593755825788 259.47406244174215,131.47852226854656" fill="#ff6b35" fill-opacity="0.9996234221238911" stroke-opacity="0.9996234221238911" />
  <polygon points="283.0976347294755,131.4945862235225 284.5054137764775,139.0976347294755 276.9023652705245,140.5054137764775 275.4945862235225,132.9023652705245" fill="#ff6b35" fill-opacity="0.8601323794527507" stroke-opacity="0.8601323794527507" />
  <polygon points="296.53510761057186,132.80047347268876 299.1995265273112,136.53510761057186 295.46489238942814,139.19952652731124 292.8004734726888,135.46489238942814" fill="#ff6b35" fill-opacity="0.5265947784983457" stroke-opacity="0.5265947784983457" />
  <polygon points="310.6178449952561,132.102270286558 315.897729713442,134.61784499525612 313.3821550047439,139.897729713442 308.102270286558,137.38215500474388" fill="#efa00b" fill-opacity="0.6603302434705345" stroke-opacity="0.6603302434705345" />
  <polygon points="4.8152569526622955,147.48239624828926 12.517603751710727,148.8152569526623 11.184743047337705,156.51760375171074 3.482396248289273,155.1847430473377" fill="#efa00b" fill-opacity="0.8690988894808178" stroke-opacity="0.8690988894808178" />
  <polygon points="19.474961748193962,147.47446599291192 28.525534007088083,147.47496174819398 28.525038251806038,156.52553400708808 19.474465992911917,156.52503825180602" fill="#efa00b" fill-opacity="0.9999581541225729" stroke-opacity="0.9999581541225729" />
  <polygon points="36.7300136035612,147.4719307359142 44.5280692640858,148.7300136035612 43.2699863964388,156.5280692640858 35.4719307359142,155.2699863964388" fill="#efa00b" fill-opacity="0.8778036772407966" stroke-opacity="0.8778036772407966" />
  <polygon points="55.313041067754625,148.64187539762378 59.35812460237622,151.31304106775463 56.686958932245375,155.35812460237622 52.64187539762378,152.68695893224537" fill="#efa00b" fill-opacity="0.5541503203759715" stroke-opacity="0.5541503203759715" />
  <polygon points="73.19764606923619,148.2218729031673 75.77812709683269,153.19764606923619 70.80235393076381,155.7781270968327 68.22187290316731,150.80235393076381" fill="#ff6b35" fill-opacity="0.6345111525505738" stroke-opacity="0.6345111525505738" />
  <polygon points="91.73552591458565,147.43942743610157 92.56057256389845,155.73552591458565 84.26447408541435,156.56057256389843 83.43942743610155,148.26447408541435" fill="#ff6b35" fill-opacity="0.9242748211417617" stroke-opacity="0.9242748211417617" />
  <polygon points="108.4505158126047,147.46647738166178 108.53352261833821,156.4505158126047 99.5494841873953,156.53352261833822 99.46647738166179,147.5494841873953" fill="#ff6b35" fill-opacity="0.9929418462884522" stroke-opacity="0.9929418462884522" />
  <polygon points="122.63892190480925,147.58483578583082 124.41516421416918,154.63892190480925 117.36107809519075,156.41516421416918 115.58483578583082,149.36107809519075" fill="#ff6b35" fill-opacity="0.8115540401032535" stroke-opacity="0.8115540401032535" />
  <polygon points="136.20560733577335,149.23024706063066 138.76975293936934,152.20560733577335 135.79439266422665,154.76975293936934 133.23024706063066,151.79439266422665" fill="#ff6b35" fill-opacity="0.45660608341399717" stroke-opacity="0.45660608341399717" />
  <polygon points="150.1380923822291,147.8504895702482 156.1495104297518,150.1380923822291 153.8619076177709,156.1495104297518 147.8504895702482,153.8619076177709" fill="#efa00b" fill-opacity="0.722213733102739" stroke-opacity="0.722213733102739" />
  <polygon points="163.84222179427286,147.44445563362888 172.55554436637112,147.84222179427286 172.15777820572714,156.55554436637112 163.44445563362888,156.15777820572714" fill="#efa00b" fill-opacity="0.9651499023644166" stroke-opacity="0.9651499023644166" />
  <polygon points="179.79403934303232,147.44704866916476 188.55295133083524,147.79403934303232 188.20596065696768,156.55295133083524 179.44704866916476,156.20596065696768" fill="#efa00b" fill-opacity="0.9697516305716161" stroke-opacity="0.9697516305716161" />
  <polygon points="198.04037716951052,147.80825189407597 204.19174810592403,150.04037716951052 201.95962283048948,156.19174810592403 195.80825189407597,153.95962283048948" fill="#efa00b" fill-opacity="0.7340782815930056" stroke-opacity="0.7340782815930056" />
  <polygon points="216.14913425819327,149.32093287991626 218.67906712008374,152.14913425819327 215.85086574180673,154.67906712008374 213.32093287991626,151.85086574180673" fill="#ff6b35" fill-opacity="0.4424822199424635" stroke-opacity="0.4424822199424635" />
  <polygon points="234.54357146471085,147.60937841510062 236.39062158489938,154.54357146471085 229.45642853528915,156.39062158489938 227.60937841510062,149.45642853528915" fill="#ff6b35" fill-opacity="0.8011271629643762" stroke-opacity="0.8011271629643762" />
  <polygon points="252.42579176143374,147.46403971598426 252.53596028401574,156.42579176143374 243.57420823856626,156.53596028401574 243.46403971598426,147.57420823856626" fill="#ff6b35" fill-opacity="0.9906091674864125" stroke-opacity="0.9906091674864125" />
  <polygon points="267.8044481006241,147.43805253697042 268.5619474630296,155.80444810062406 260.1955518993759,156.56194746302958 259.4380525369704,148.19555189937594" fill="#ff6b35" fill-opacity="0.9310200756044388" stroke-opacity="0.9310200756044388" />
  <polygon points="281.2891993107459,148.1607408243903 283.8392591756097,153.28919931074591 278.7108006892541,155.8392591756097 276.1607408243903,150.71080068925409" fill="#ff6b35" fill-opacity="0.647489738437984" stroke-opacity="0.647489738437984" />
  <polygon points="295.3902803018288,148.7201129347913 299.2798870652087,151.3902803018288 296.6097196981712,155.2798870652087 292.7201129347913,152.6097196981712" fill="#efa00b" fill-opacity="0.540411719081777" stroke-opacity="0.540411719081777" />
  <polygon points="308.8152569526623,147.48239624828926 316.51760375171074,148.8152569526623 315.1847430473377,156.51760375171074 307.48239624828926,155.1847430473377" fill="#efa00b" fill-opacity="0.8690988894808177" stroke-opacity="0.8690988894808177" />
  <polygon points="3.6340065859005053,163.45858300030156 12.541416999698455,163.6340065859005 12.365993414099496,172.54141699969844 3.4585830003015436,172.3659934140995" fill="#efa00b" fill-opacity="0.9849567473090941" stroke-opacity="0.9849567473090941" />
  <polygon points="20.065994813514227,163.43780324638433 28.562196753615655,164.06599481351424 27.934005186485756,172.56219675361564 19.437803246384345,171.93400518648576" fill="#efa00b" fill-opacity="0.9436181774316839" stroke-opacity="0.9436181774316839" />
  <polygon points="38.523658247611216,164.04648889444613 43.95351110555387,166.52365824761122 41.476341752388784,171.95351110555387 36.04648889444613,169.47634175238878" fill="#efa00b" fill-opacity="0.673025503602062" stroke-opacity="0.673025503602062" />
  <polygon points="56.46324917851522,164.882853096222 59.117146903777986,168.4632491785152 55.53675082148478,171.117146903778 52.882853096222014,167.5367508214848" fill="#ff6b35" fill-opacity="0.5127072074502077" stroke-opacity="0.5127072074502077" />
  <polygon points="75.00879379542414,163.50860206416127 76.49139793583875,171.00879379542414 68.99120620457586,172.49139793583873 67.50860206416125,164.99120620457586" fill="#ff6b35" fill-opacity="0.8509091498018658" stroke-opacity="0.8509091498018658" />
  <polygon points="92.51436022404823,163.47326231397903 92.52673768602097,172.51436022404823 83.48563977595177,172.52673768602097 83.47326231397903,163.48563977595177" fill="#ff6b35" fill-opacity="0.9989541448820706" stroke-opacity="0.9989541448820706" />
  <polygon points="107.43437446915782,163.45575562255667 108.54424437744335,171.43437446915783 100.56562553084218,172.54424437744333 99.45575562255665,164.56562553084217" fill="#ff6b35" fill-opacity="0.894408808192771" stroke-opacity="0.894408808192771" />
  <polygon points="120.84877766740009,164.49214741613554 123.50785258386445,168.8487776674001 119.15122233259991,171.50785258386446 116.49214741613555,167.1512223325999" fill="#ff6b35" fill-opacity="0.5813618926125449" stroke-opacity="0.5813618926125449" />
  <polygon points="134.98058172572004,164.3519658194432 139.6480341805568,166.98058172572004 137.01941827427996,171.6480341805568 132.3519658194432,169.01941827427996" fill="#efa00b" fill-opacity="0.6081687755500573" stroke-opacity="0.6081687755500573" />
  <polygon points="148.4101558623476,163.44520965534883 156.55479034465117,164.4101558623476 155.5898441376524,172.55479034465117 147.44520965534883,171.5898441376524" fill="#efa00b" fill-opacity="0.9099107197685348" stroke-opacity="0.9099107197685348" />
  <polygon points="163.51051385529772,163.47053491168214 172.52946508831786,163.51051385529772 172.48948614470228,172.52946508831786 163.47053491168214,172.48948614470228" fill="#efa00b" fill-opacity="0.99661363473959" stroke-opacity="0.99661363473959" />
  <polygon points="181.1735317377358,163.54250137369448 188.45749862630552,165.1735317377358 186.8264682622642,172.45749862630552 179.54250137369448,170.8264682622642" fill="#efa00b" fill-opacity="0.8317132554939333" stroke-opacity="0.8317132554939333" />
  <polygon points="199.67173909836313,165.05321916350886 202.94678083649114,167.67173909836313 200.32826090163687,170.94678083649114 197.05321916350886,168.32826090163687" fill="#efa00b" fill-opacity="0.48475120196772575" stroke-opacity="0.48475120196772575" />
  <polygon points="217.66771258139823,163.9430585056329 220.0569414943671,169.66771258139823 214.33228741860177,172.0569414943671 211.9430585056329,166.33228741860177" fill="#ff6b35" fill-opacity="0.6979520421083979" stroke-opacity="0.6979520421083979" />
  <polygon points="236.05197370909613,163.4402002496069 236.5597997503931,172.05197370909613 227.94802629090387,172.5597997503931 227.4402002496069,163.94802629090387" fill="#ff6b35" fill-opacity="0.9550032545379593" stroke-opacity="0.9550032545379593" />
  <polygon points="252.2926107370454,163.45273791668797 252.54726208331203,172.2926107370454 243.7073892629546,172.54726208331203 243.45273791668797,163.7073892629546" fill="#ff6b35" fill-opacity="0.9779990598970851" stroke-opacity="0.9779990598970851" />
  <polygon points="266.155409125214,163.7317429968091 268.26825700319085,170.155409125214 261.844590874786,172.2682570031909 259.73174299680915,165.844590874786" fill="#ff6b35" fill-opacity="0.7572416905776854" stroke-opacity="0.7572416905776854" />
  <polygon points="279.9537297325345,165.50595396922589 282.49404603077414,167.95372973253447 280.0462702674655,170.49404603077411 277.50595396922586,168.04627026746553" fill="#efa00b" fill-opacity="0.41417128053687824" stroke-opacity="0.41417128053687824" />
  <polygon points="293.64948795905576,163.66559233374198 300.334407666258,165.64948795905576 298.35051204094424,172.33440766625802 291.665592333742,170.35051204094424" fill="#efa00b" fill-opacity="0.7796079536610271" stroke-opacity="0.7796079536610271" />
  <polygon points="307.6340065859005,163.45858300030156 316.54141699969847,163.6340065859005 316.3659934140995,172.54141699969844 307.45858300030153,172.3659934140995" fill="#efa00b" fill-opacity="0.9849567473090941" stroke-opacity="0.9849567473090941" />
  <polygon points="3.6340065859005053,179.45858300030156 12.541416999698455,179.6340065859005 12.365993414099496,188.54141699969844 3.4585830003015436,188.3659934140995" fill="#efa00b" fill-opacity="0.9849567473090942" stroke-opacity="0.9849567473090942" />
  <polygon points="21.649487959055755,179.66559233374196 28.33440766625802,181.64948795905576 26.350512040944245,188.33440766625804 19.66559233374198,186.35051204094424" fill="#efa00b" fill-opacity="0.7796079536610283" stroke-opacity="0.7796079536610283" />
  <polygon points="39.95372973253448,181.50595396922589 42.494046030774115,183.95372973253447 40.04627026746552,186.49404603077411 37.505953969225885,184.04627026746553" fill="#efa00b" fill-opacity="0.4141712805368788" stroke-opacity="0.4141712805368788" />
  <polygon points="58.15540912521398,179.73174299680912 60.26825700319089,186.155409125214 53.84459087478602,188.26825700319088 51.73174299680911,181.844590874786" fill="#ff6b35" fill-opacity="0.7572416905776851" stroke-opacity="0.7572416905776851" />
  <polygon points="76.29261073704542,179.45273791668797 76.54726208331205,188.29261073704544 67.70738926295458,188.54726208331203 67.45273791668795,179.70738926295456" fill="#ff6b35" fill-opacity="0.977999059897085" stroke-opacity="0.977999059897085" />
  <polygon points="92.05197370909615,179.4402002496069 92.55979975039311,188.05197370909616 83.94802629090385,188.5597997503931 83.44020024960689,179.94802629090384" fill="#ff6b35" fill-opacity="0.9550032545379595" stroke-opacity="0.9550032545379595" />
  <polygon points="105.66771258139823,179.9430585056329 108.05694149436712,185.66771258139823 102.33228741860177,188.0569414943671 99.94305850563288,182.33228741860177" fill="#ff6b35" fill-opacity="0.6979520421083982" stroke-opacity="0.6979520421083982" />
  <polygon points="119.67173909836315,181.05321916350886 122.94678083649114,183.67173909836313 120.32826090163685,186.94678083649114 117.05321916350886,184.32826090163687" fill="#efa00b" fill-opacity="0.4847512019677242" stroke-opacity="0.4847512019677242" />
  <polygon points="133.1735317377358,179.54250137369448 140.45749862630552,181.1735317377358 138.8264682622642,188.45749862630552 131.54250137369448,186.8264682622642" fill="#efa00b" fill-opacity="0.8317132554939329" stroke-opacity="0.8317132554939329" />
  <polygon points="147.51051385529772,179.47053491168214 156.52946508831786,179.51051385529772 156.48948614470228,188.52946508831786 147.47053491168214,188.48948614470228" fill="#efa00b" fill-opacity="0.99661363473959" stroke-opacity="0.99661363473959" />
  <polygon points="164.4101558623476,179.44520965534883 172.55479034465117,180.4101558623476 171.5898441376524,188.55479034465117 163.44520965534883,187.5898441376524" fill="#efa00b" fill-opacity="0.909910719768535" stroke-opacity="0.909910719768535" />
  <polygon points="182.98058172572004,180.3519658194432 187.6480341805568,182.98058172572004 185.01941827427996,187.6480341805568 180.3519658194432,185.01941827427996" fill="#efa00b" fill-opacity="0.6081687755500578" stroke-opacity="0.6081687755500578" />
  <polygon points="200.8487776674001,180.49214741613554 203.50785258386446,184.8487776674001 199.1512223325999,187.50785258386446 196.49214741613554,183.1512223325999" fill="#ff6b35" fill-opacity="0.5813618926125433" stroke-opacity="0.5813618926125433" />
  <polygon points="219.43437446915783,179.45575562255667 220.54424437744333,187.43437446915783 212.56562553084217,188.54424437744333 211.45575562255667,180.56562553084217" fill="#ff6b35" fill-opacity="0.8944088081927708" stroke-opacity="0.8944088081927708" />
  <polygon points="236.51436022404823,179.47326231397903 236.52673768602097,188.51436022404823 227.48563977595177,188.52673768602097 227.47326231397903,179.48563977595177" fill="#ff6b35" fill-opacity="0.9989541448820706" stroke-opacity="0.9989541448820706" />
  <polygon points="251.00879379542414,179.50860206416127 252.49139793583873,187.00879379542414 244.99120620457586,188.49139793583873 243.50860206416127,180.99120620457586" fill="#ff6b35" fill-opacity="0.8509091498018662" stroke-opacity="0.8509091498018662" />
  <polygon points="264.46324917851524,180.882853096222 267.11714690377795,184.4632491785152 263.53675082148476,187.117146903778 260.88285309622205,183.5367508214848" fill="#ff6b35" fill-opacity="0.5127072074502083" stroke-opacity="0.5127072074502083" />
  <polygon points="278.5236582476112,180.04648889444613 283.95351110555384,182.52365824761122 281.4763417523888,187.95351110555387 276.04648889444616,185.47634175238878" fill="#efa00b" fill-opacity="0.6730255036020616" stroke-opacity="0.6730255036020616" />
  <polygon points="292.06599481351424,179.43780324638433 300.56219675361564,180.06599481351424 299.93400518648576,188.56219675361567 291.43780324638436,187.93400518648576" fill="#efa00b" fill-opacity="0.9436181774316841" stroke-opacity="0.9436181774316841" />
  <polygon points="307.6340065859005,179.45858300030156 316.54141699969847,179.6340065859005 316.3659934140995,188.54141699969844 307.45858300030153,188.3659934140995" fill="#efa00b" fill-opacity="0.9849567473090942" stroke-opacity="0.9849567473090942" />
  <polygon points="4.815256952662295,195.48239624828926 12.517603751710727,196.81525695266228 11.184743047337705,204.51760375171074 3.4823962482892723,203.18474304733772" fill="#efa00b" fill-opacity="0.8690988894808179" stroke-opacity="0.8690988894808179" />
  <polygon points="23.39028030182878,196.7201129347913 27.279887065208698,199.3902803018288 24.60971969817122,203.2798870652087 20.720112934791302,200.6097196981712" fill="#efa00b" fill-opacity="0.5404117190817775" stroke-opacity="0.5404117190817775" />
  <polygon points="41.28919931074591,196.1607408243903 43.83925917560971,201.28919931074591 38.71080068925409,203.8392591756097 36.16074082439029,198.71080068925409" fill="#ff6b35" fill-opacity="0.6474897384379835" stroke-opacity="0.6474897384379835" />
  <polygon points="59.80444810062407,195.43805253697042 60.56194746302957,203.80444810062406 52.19555189937593,204.56194746302958 51.43805253697043,196.19555189937594" fill="#ff6b35" fill-opacity="0.9310200756044386" stroke-opacity="0.9310200756044386" />
  <polygon points="76.42579176143373,195.46403971598426 76.53596028401573,204.42579176143374 67.57420823856627,204.53596028401574 67.46403971598428,195.57420823856629" fill="#ff6b35" fill-opacity="0.9906091674864126" stroke-opacity="0.9906091674864126" />
  <polygon points="90.54357146471084,195.60937841510062 92.39062158489938,202.54357146471085 85.45642853528916,204.39062158489938 83.60937841510062,197.45642853528915" fill="#ff6b35" fill-opacity="0.8011271629643766" stroke-opacity="0.8011271629643766" />
  <polygon points="104.14913425819329,197.32093287991626 106.67906712008373,200.14913425819327 103.85086574180671,202.67906712008374 101.32093287991627,199.85086574180673" fill="#ff6b35" fill-opacity="0.442482219942464" stroke-opacity="0.442482219942464" />
  <polygon points="118.04037716951052,195.80825189407597 124.19174810592402,198.04037716951052 121.95962283048948,204.19174810592403 115.80825189407598,201.95962283048948" fill="#efa00b" fill-opacity="0.7340782815930044" stroke-opacity="0.7340782815930044" />
  <polygon points="131.79403934303232,195.44704866916476 140.55295133083524,195.79403934303232 140.20596065696768,204.55295133083524 131.44704866916476,204.20596065696768" fill="#efa00b" fill-opacity="0.969751630571616" stroke-opacity="0.969751630571616" />
  <polygon points="147.84222179427286,195.44445563362888 156.55554436637112,195.84222179427286 156.15777820572714,204.55554436637112 147.44445563362888,204.15777820572714" fill="#efa00b" fill-opacity="0.9651499023644168" stroke-opacity="0.9651499023644168" />
  <polygon points="166.1380923822291,195.8504895702482 172.1495104297518,198.1380923822291 169.8619076177709,204.1495104297518 163.8504895702482,201.8619076177709" fill="#efa00b" fill-opacity="0.7222137331027394" stroke-opacity="0.7222137331027394" />
  <polygon points="184.20560733577335,197.23024706063066 186.76975293936934,200.20560733577335 183.79439266422665,202.76975293936934 181.23024706063066,199.79439266422665" fill="#ff6b35" fill-opacity="0.45660608341399667" stroke-opacity="0.45660608341399667" />
  <polygon points="202.63892190480925,195.58483578583082 204.41516421416918,202.63892190480925 197.36107809519075,204.41516421416918 195.58483578583082,197.36107809519075" fill="#ff6b35" fill-opacity="0.8115540401032524" stroke-opacity="0.8115540401032524" />
  <polygon points="220.4505158126047,195.46647738166178 220.53352261833822,204.4505158126047 211.5494841873953,204.53352261833822 211.46647738166178,195.5494841873953" fill="#ff6b35" fill-opacity="0.9929418462884521" stroke-opacity="0.9929418462884521" />
  <polygon points="235.73552591458565,195.43942743610157 236.56057256389843,203.73552591458565 228.26447408541435,204.56057256389843 227.43942743610157,196.26447408541435" fill="#ff6b35" fill-opacity="0.924274821141762" stroke-opacity="0.924274821141762" />
  <polygon points="249.19764606923619,196.2218729031673 251.7781270968327,201.19764606923619 246.80235393076381,203.7781270968327 244.2218729031673,198.80235393076381" fill="#ff6b35" fill-opacity="0.6345111525505742" stroke-opacity="0.6345111525505742" />
  <polygon points="263.3130410677546,196.64187539762378 267.3581246023762,199.31304106775463 264.6869589322454,203.35812460237622 260.6418753976238,200.68695893224537" fill="#efa00b" fill-opacity="0.554150320375971" stroke-opacity="0.554150320375971" />
  <polygon points="276.7300136035612,195.4719307359142 284.52806926408584,196.7300136035612 283.2699863964388,204.5280692640858 275.47193073591416,203.2699863964388" fill="#efa00b" fill-opacity="0.8778036772407962" stroke-opacity="0.8778036772407962" />
  <polygon points="291.47496174819395,195.47446599291192 300.5255340070881,195.47496174819398 300.52503825180605,204.52553400708808 291.4744659929119,204.52503825180602" fill="#efa00b" fill-opacity="0.9999581541225729" stroke-opacity="0.9999581541225729" />
  <polygon points="308.8152569526623,195.48239624828926 316.51760375171074,196.81525695266228 315.1847430473377,204.51760375171074 307.48239624828926,203.18474304733772" fill="#efa00b" fill-opacity="0.8690988894808181" stroke-opacity="0.8690988894808181" />
  <polygon points="6.617844995256129,212.102270286558 11.897729713442008,214.61784499525612 9.38215500474387,219.897729713442 4.102270286557992,217.38215500474388" fill="#efa00b" fill-opacity="0.6603302434705349" stroke-opacity="0.6603302434705349" />
  <polygon points="24.535107610571842,212.8004734726888 27.19952652731123,216.53510761057186 23.464892389428158,219.1995265273112 20.80047347268877,215.46489238942814" fill="#ff6b35" fill-opacity="0.5265947784983451" stroke-opacity="0.5265947784983451" />
  <polygon points="43.0976347294755,211.4945862235225 44.50541377647748,219.0976347294755 36.9023652705245,220.5054137764775 35.49458622352252,212.9023652705245" fill="#ff6b35" fill-opacity="0.8601323794527505" stroke-opacity="0.8601323794527505" />
  <polygon points="60.52147773145346,211.47406244174212 60.525937558257866,220.52147773145344 51.47852226854656,220.52593755825785 51.474062441742134,211.47852226854656" fill="#ff6b35" fill-opacity="0.999623422123891" stroke-opacity="0.999623422123891" />
  <polygon points="75.3532375419122,211.46308580384203 76.53691419615797,219.3532375419122 68.6467624580878,220.53691419615797 67.46308580384203,212.6467624580878" fill="#ff6b35" fill-opacity="0.8862418861089618" stroke-opacity="0.8862418861089618" />
  <polygon points="88.7666916776034,212.5658573343498 91.43414266565019,216.7666916776034 87.2333083223966,219.4341426656502 84.56585733434981,215.2333083223966" fill="#ff6b35" fill-opacity="0.5678029172638875" stroke-opacity="0.5678029172638875" />
  <polygon points="102.89233605820453,212.28562981946803 107.71437018053197,214.89233605820453 105.10766394179547,219.71437018053197 100.28562981946804,217.10766394179547" fill="#efa00b" fill-opacity="0.6214017268933116" stroke-opacity="0.6214017268933116" />
  <polygon points="116.33604049966539,211.44177725864748 124.55822274135252,212.3360404996654 123.66395950033461,220.55822274135252 115.44177725864748,219.6639595003346" fill="#efa00b" fill-opacity="0.9172370603475453" stroke-opacity="0.9172370603475453" />
  <polygon points="131.52824550118297,211.46865608299333 140.53134391700667,211.52824550118297 140.47175449881703,220.53134391700667 131.46865608299333,220.47175449881703" fill="#efa00b" fill-opacity="0.9949437076693993" stroke-opacity="0.9949437076693993" />
  <polygon points="149.2667273697018,211.56257050102423 156.43742949897577,213.2667273697018 154.7332726302982,220.43742949897577 147.56257050102423,218.7332726302982" fill="#efa00b" fill-opacity="0.8217513007172725" stroke-opacity="0.8217513007172725" />
  <polygon points="167.73465563024786,213.14096434476193 170.85903565523807,215.73465563024786 168.26534436975214,218.85903565523807 165.14096434476193,216.26534436975214" fill="#efa00b" fill-opacity="0.47069836490383965" stroke-opacity="0.47069836490383965" />
  <polygon points="185.76454533910606,211.895419432156 188.104580567844,217.76454533910606 182.23545466089394,220.104580567844 179.895419432156,214.23545466089394" fill="#ff6b35" fill-opacity="0.7101694133298546" stroke-opacity="0.7101694133298546" />
  <polygon points="204.1064293224815,211.44214289485254 204.55785710514746,220.1064293224815 195.8935706775185,220.55785710514746 195.44214289485254,211.8935706775185" fill="#ff6b35" fill-opacity="0.9602328625724448" stroke-opacity="0.9602328625724448" />
  <polygon points="220.2509216541883,211.44983642786232 220.55016357213768,220.2509216541883 211.7490783458117,220.55016357213768 211.44983642786232,211.7490783458117" fill="#ff6b35" fill-opacity="0.974035479772183" stroke-opacity="0.974035479772183" />
  <polygon points="234.05751497318008,211.7686809274674 236.2313190725326,218.05751497318008 229.94248502681992,220.2313190725326 227.7686809274674,213.94248502681992" fill="#ff6b35" fill-opacity="0.7457564392656026" stroke-opacity="0.7457564392656026" />
  <polygon points="247.90399986057375,213.41288282853353 250.58711717146647,215.90399986057375 248.09600013942625,218.58711717146647 245.41288282853353,216.09600013942625" fill="#efa00b" fill-opacity="0.42833465455390146" stroke-opacity="0.42833465455390146" />
  <polygon points="261.55261943141323,211.6362740433634 268.36372595663664,213.5526194314132 266.44738056858677,220.3637259566366 259.63627404336336,218.4473805685868" fill="#efa00b" fill-opacity="0.7904764867220749" stroke-opacity="0.7904764867220749" />
  <polygon points="275.60239216709937,211.46139040660796 284.53860959339204,211.60239216709937 284.39760783290063,220.53860959339204 275.46139040660796,220.39760783290063" fill="#efa00b" fill-opacity="0.9879469727244445" stroke-opacity="0.9879469727244445" />
  <polygon points="292.1293639067321,211.43754608131414 300.5624539186859,212.12936390673212 299.8706360932679,220.56245391868586 291.4375460813141,219.87063609326788" fill="#efa00b" fill-opacity="0.9374690603855951" stroke-opacity="0.9374690603855951" />
  <polygon points="310.6178449952561,212.102270286558 315.897729713442,214.61784499525612 313.3821550047439,219.897729713442 308.102270286558,217.38215500474388" fill="#efa00b" fill-opacity="0.6603302434705353" stroke-opacity="0.6603302434705353" />
  <polygon points="7.999999999999999,229.6 10.4,232.0 8.0,234.4 5.6,232.0" fill="#efa00b" fill-opacity="0.4000000000000002" stroke-opacity="0.4000000000000002" />
  <polygon points="26.25313192820961,227.69739652064038 28.302603479359636,234.2531319282096 21.74686807179039,236.30260347935962 19.697396520640364,229.7468680717904" fill="#ff6b35" fill-opacity="0.7685276276138007" stroke-opacity="0.7685276276138007" />
  <polygon points="44.33098188791985,227.45567705788892 44.544322942111094,236.33098188791985 35.66901811208015,236.54432294211108 35.455677057888906,227.66901811208015" fill="#ff6b35" fill-opacity="0.9816401595635982" stroke-opacity="0.9816401595635982" />
  <polygon points="59.994475862726475,227.43872133860705 60.56127866139295,235.99447586272646 52.005524137273525,236.56127866139295 51.43872133860705,228.00552413727354" fill="#ff6b35" fill-opacity="0.9494639959930345" stroke-opacity="0.9494639959930345" />
  <polygon points="73.57158599418356,227.99341515200058 76.0065848479994,233.57158599418355 70.42841400581644,236.00658484799942 67.9934151520006,230.42841400581645" fill="#ff6b35" fill-opacity="0.6855684358222441" stroke-opacity="0.6855684358222441" />
  <polygon points="87.60573668399522,228.96714084774152 91.03285915225847,231.60573668399522 88.39426331600478,235.03285915225848 84.96714084774153,232.39426331600478" fill="#efa00b" fill-opacity="0.49875675416844045" stroke-opacity="0.49875675416844045" />
  <polygon points="101.08164241552649,227.52454216220858 108.47545783779142,229.0816424155265 106.91835758447351,236.47545783779142 99.52454216220858,234.9183575844735" fill="#efa00b" fill-opacity="0.841434346403879" stroke-opacity="0.841434346403879" />
  <polygon points="115.49630718993815,227.47207953188808 124.52792046811193,227.49630718993814 124.50369281006185,236.52792046811192 115.47207953188807,236.50369281006186" fill="#efa00b" fill-opacity="0.9979506958040019" stroke-opacity="0.9979506958040019" />
  <polygon points="132.486719540874,227.44983294862843 140.55016705137157,228.486719540874 139.513280459126,236.55016705137157 131.44983294862843,235.513280459126" fill="#efa00b" fill-opacity="0.9022998869575171" stroke-opacity="0.9022998869575171" />
  <polygon points="151.06692948008825,228.42082619331913 155.57917380668087,231.06692948008825 152.93307051991175,235.57917380668087 148.42082619331913,232.93307051991175" fill="#efa00b" fill-opacity="0.594819681522811" stroke-opacity="0.594819681522811" />
  <polygon points="168.93307051991175,228.42082619331913 171.57917380668087,232.93307051991175 167.06692948008825,235.57917380668087 164.42082619331913,231.06692948008825" fill="#ff6b35" fill-opacity="0.5948196815228104" stroke-opacity="0.5948196815228104" />
  <polygon points="187.513280459126,227.44983294862843 188.55016705137157,235.513280459126 180.486719540874,236.55016705137157 179.44983294862843,228.486719540874" fill="#ff6b35" fill-opacity="0.9022998869575167" stroke-opacity="0.9022998869575167" />
  <polygon points="204.50369281006186,227.47207953188808 204.52792046811194,236.50369281006186 195.49630718993814,236.52792046811194 195.47207953188808,227.49630718993814" fill="#ff6b35" fill-opacity="0.997950695804002" stroke-opacity="0.997950695804002" />
  <polygon points="218.9183575844735,227.52454216220858 220.47545783779142,234.9183575844735 213.0816424155265,236.47545783779142 211.52454216220858,229.0816424155265" fill="#ff6b35" fill-opacity="0.8414343464038794" stroke-opacity="0.8414343464038794" />
  <polygon points="232.39426331600478,228.96714084774152 235.03285915225848,232.39426331600478 231.60573668399522,235.03285915225848 228.96714084774152,231.60573668399522" fill="#ff6b35" fill-opacity="0.498756754168441" stroke-opacity="0.498756754168441" />
  <polygon points="246.42841400581645,227.99341515200058 252.0065848479994,230.42841400581645 249.57158599418355,236.0065848479994 243.99341515200058,233.57158599418355" fill="#efa00b" fill-opacity="0.6855684358222436" stroke-opacity="0.6855684358222436" />
  <polygon points="260.00552413727354,227.43872133860705 268.5612786613929,228.00552413727354 267.99447586272646,236.56127866139295 259.4387213386071,235.99447586272646" fill="#efa00b" fill-opacity="0.9494639959930347" stroke-opacity="0.9494639959930347" />
  <polygon points="275.66901811208015,227.45567705788892 284.54432294211114,227.66901811208012 284.33098188791985,236.54432294211108 275.45567705788886,236.33098188791988" fill="#efa00b" fill-opacity="0.9816401595635984" stroke-opacity="0.9816401595635984" />
  <polygon points="293.74686807179035,227.69739652064035 300.3026034793597,229.74686807179037 298.25313192820965,236.30260347935965 291.6973965206403,234.25313192820963" fill="#efa00b" fill-opacity="0.768527627613802" stroke-opacity="0.768527627613802" />
  <polygon points="312.0,229.6 314.4,232.0 312.0,234.4 309.6,232.0" fill="#efa00b" fill-opacity="0.40000000000000047" stroke-opacity="0.40000000000000047" />
</svg>