<?xml version="1.0" encoding="UTF-8"?>
<svg xmlns="http://www.w3.org/2000/svg" width="320" height="320" viewBox="0 0 320 320">
  <rect width="100%" height="100%" fill="#0d0d0d" />
  <polygon points="12.849742261192857,10.799999999999999 8.0,13.6 3.150257738807145,10.8 3.1502577388071433,5.200000000000001 7.999999999999999,2.4000000000000004 12.849742261192857,5.200000000000002" fill="#ff00ff" fill-opacity="0.4" stroke-opacity="0.4" />
  <circle cx="24.0" cy="8.0" r="2.5557923855295286" fill="#00ffff" opacity="0.5" />
  <circle cx="40.0" cy="8.0" r="2.702276755796027" fill="#00ffff" opacity="0.5" />
  <polygon points="60.84974226119286,10.799999999999999 56.0,13.6 51.15025773880714,10.8 51.15025773880714,5.200000000000001 56.0,2.4000000000000004 60.84974226119286,5.200000000000002" fill="#ff00ff" fill-opacity="0.46843308745919837" stroke-opacity="0.46843308745919837" />
  <polygon points="76.84974226119286,10.799999999999999 72.0,13.6 67.15025773880714,10.8 67.15025773880714,5.200000000000001 72.0,2.4000000000000004 76.84974226119286,5.200000000000002" fill="#ff00ff" fill-opacity="0.48768943743823395" stroke-opacity="0.48768943743823395" />
  <polygon points="92.84974226119286,10.799999999999999 88.0,13.6 83.15025773880714,10.8 83.15025773880714,5.200000000000001 88.0,2.4000000000000004 92.84974226119286,5.200000000000002" fill="#ff00ff" fill-opacity="0.5047152924789526" stroke-opacity="0.5047152924789526" />
  <polygon points="108.84974226119286,10.799999999999999 104.0,13.6 99.15025773880714,10.8 99.15025773880714,5.200000000000001 104.0,2.4000000000000004 108.84974226119286,5.200000000000002" fill="#ff00ff" fill-opacity="0.5192113447068046" stroke-opacity="0.5192113447068046" />
  <circle cx="120.0" cy="8.0" r="3.237628310362656" fill="#00ffff" opacity="0.5" />
  <circle cx="136.0" cy="8.0" r="3.292447183703047" fill="#00ffff" opacity="0.5" />
  <circle cx="152.0" cy="8.0" r="3.325972735431697" fill="#00ffff" opacity="0.5" />
  <circle cx="168.0" cy="8.0" r="3.337258300203048" fill="#00ffff" opacity="0.5" />
  <circle cx="184.0" cy="8.0" r="3.325972735431697" fill="#00ffff" opacity="0.5" />
  <circle cx="200.0" cy="8.0" r="3.292447183703047" fill="#00ffff" opacity="0.5" />
  <circle cx="216.0" cy="8.0" r="3.237628310362656" fill="#00ffff" opacity="0.5" />
  <polygon points="236.84974226119286,10.799999999999999 232.0,13.6 227.15025773880714,10.8 227.15025773880714,5.200000000000001 232.0,2.4000000000000004 236.84974226119286,5.200000000000002" fill="#ff00ff" fill-opacity="0.5192113447068046" stroke-opacity="0.5192113447068046" />
  <polygon points="252.84974226119286,10.799999999999999 248.0,13.6 243.15025773880714,10.8 243.15025773880714,5.200000000000001 248.0,2.4000000000000004 252.84974226119286,5.200000000000002" fill="#ff00ff" fill-opacity="0.5047152924789526" stroke-opacity="0.5047152924789526" />
  <polygon points="268.84974226119283,10.799999999999999 264.0,13.6 259.15025773880717,10.8 259.15025773880717,5.200000000000001 264.0,2.4000000000000004 268.84974226119283,5.200000000000002" fill="#ff00ff" fill-opacity="0.48768943743823395" stroke-opacity="0.48768943743823395" />
  <polygon points="284.84974226119283,10.799999999999999 280.0,13.6 275.15025773880717,10.8 275.15025773880717,5.200000000000001 280.0,2.4000000000000004 284.84974226119283,5.200000000000002" fill="#ff00ff" fill-opacity="0.46843308745919837" stroke-opacity="0.46843308745919837" />
  <circle cx="296.0" cy="8.0" r="2.702276755796027" fill="#00ffff" opacity="0.5" />
  <circle cx="312.0" cy="8.0" r="2.5557923855295286" fill="#00ffff" opacity="0.5" />
  <circle cx="8.0" cy="24.0" r="2.5557923855295286" fill="#00ffff" opacity="0.5" />
  <circle cx="24.0" cy="24.0" r="2.72" fill="#00ffff" opacity="0.5" />
  <polygon points="44.84974226119286,26.799999999999997 40.0,29.6 35.15025773880714,26.8 35.15025773880714,21.200000000000003 40.0,18.4 44.84974226119286,21.200000000000003" fill="#ff00ff" fill-opacity="0.47426534085184" stroke-opacity="0.47426534085184" />
  <polygon points="60.84974226119286,26.799999999999997 56.0,29.6 51.15025773880714,26.8 51.15025773880714,21.200000000000003 56.0,18.4 60.84974226119286,21.200000000000003" fill="#ff00ff" fill-opacity="0.49688711258507257" stroke-opacity="0.49688711258507257" />
  <polygon points="76.84974226119286,26.799999999999997 72.0,29.6 67.15025773880714,26.8 67.15025773880714,21.200000000000003 72.0,18.4 76.84974226119286,21.200000000000003" fill="#ff00ff" fill-opacity="0.5175735364805412" stroke-opacity="0.5175735364805412" />
  <circle cx="88.0" cy="24.0" r="3.270364835430234" fill="#00ffff" opacity="0.5" />
  <circle cx="104.0" cy="24.0" r="3.371457875650541" fill="#00ffff" opacity="0.5" />
  <circle cx="120.0" cy="24.0" r="3.453374741600202" fill="#00ffff" opacity="0.5" />
  <circle cx="136.0" cy="24.0" r="3.5138552303351522" fill="#00ffff" opacity="0.5" />
  <circle cx="152.0" cy="24.0" r="3.5510002440214885" fill="#00ffff" opacity="0.5" />
  <circle cx="168.0" cy="24.0" r="3.563532470182743" fill="#00ffff" opacity="0.5" />
  <circle cx="184.0" cy="24.0" r="3.5510002440214885" fill="#00ffff" opacity="0.5" />
  <circle cx="200.0" cy="24.0" r="3.5138552303351522" fill="#00ffff" opacity="0.5" />
  <circle cx="216.0" cy="24.0" r="3.453374741600202" fill="#00ffff" opacity="0.5" />
  <circle cx="232.0" cy="24.0" r="3.371457875650541" fill="#00ffff" opacity="0.5" />
  <circle cx="248.0" cy="24.0" r="3.270364835430234" fill="#00ffff" opacity="0.5" />
  <polygon points="268.84974226119283,26.799999999999997 264.0,29.6 259.15025773880717,26.8 259.15025773880717,21.200000000000003 264.0,18.4 268.84974226119283,21.200000000000003" fill="#ff00ff" fill-opacity="0.5175735364805412" stroke-opacity="0.5175735364805412" />
  <polygon points="284.84974226119283,26.799999999999997 280.0,29.6 275.15025773880717,26.8 275.15025773880717,21.200000000000003 280.0,18.4 284.84974226119283,21.200000000000003" fill="#ff00ff" fill-opacity="0.49688711258507257" stroke-opacity="0.49688711258507257" />
  <polygon points="300.84974226119283,26.799999999999997 296.0,29.6 291.15025773880717,26.8 291.15025773880717,21.200000000000003 296.0,18.4 300.84974226119283,21.200000000000003" fill="#ff00ff" fill-opacity="0.47426534085184" stroke-opacity="0.47426534085184" />
  <circle cx="312.0" cy="24.0" r="2.72" fill="#00ffff" opacity="0.5" />
  <circle cx="8.0" cy="40.0" r="2.702276755796027" fill="#00ffff" opacity="0.5" />
  <polygon points="28.84974226119286,42.8 24.0,45.6 19.150257738807145,42.8 19.15025773880714,37.2 24.0,34.4 28.84974226119286,37.2" fill="#ff00ff" fill-opacity="0.47426534085184" stroke-opacity="0.47426534085184" />
  <polygon points="44.84974226119286,42.8 40.0,45.6 35.15025773880714,42.8 35.15025773880714,37.2 40.0,34.4 44.84974226119286,37.2" fill="#ff00ff" fill-opacity="0.5" stroke-opacity="0.5" />
  <polygon points="60.84974226119286,42.8 56.0,45.6 51.15025773880714,42.8 51.15025773880714,37.2 56.0,34.4 60.84974226119286,37.2" fill="#ff00ff" fill-opacity="0.5241675905406773" stroke-opacity="0.5241675905406773" />
  <circle cx="72.0" cy="40.0" r="3.337258300203048" fill="#00ffff" opacity="0.5" />
  <circle cx="88.0" cy="40.0" r="3.465333749739787" fill="#00ffff" opacity="0.5" />
  <circle cx="104.0" cy="40.0" r="3.576142297492237" fill="#00ffff" opacity="0.5" />
  <polygon points="124.84974226119286,42.8 120.0,45.6 115.15025773880714,42.8 115.15025773880714,37.2 120.0,34.4 124.84974226119286,37.2" fill="#ff00ff" fill-opacity="0.5979238506601358" stroke-opacity="0.5979238506601358" />
  <polygon points="140.84974226119286,42.8 136.0,45.6 131.15025773880714,42.8 131.15025773880714,37.2 136.0,34.4 140.84974226119286,37.2" fill="#ff00ff" fill-opacity="0.608452405257735" stroke-opacity="0.608452405257735" />
  <polygon points="156.84974226119286,42.8 152.0,45.6 147.15025773880714,42.8 147.15025773880714,37.2 152.0,34.4 156.84974226119286,37.2" fill="#ff00ff" fill-opacity="0.6149561437252156" stroke-opacity="0.6149561437252156" />
  <polygon points="172.84974226119286,42.8 168.0,45.6 163.15025773880714,42.8 163.15025773880714,37.2 168.0,34.4 172.84974226119286,37.2" fill="#ff00ff" fill-opacity="0.617157287525381" stroke-opacity="0.617157287525381" />
  <polygon points="188.84974226119286,42.8 184.0,45.6 179.15025773880714,42.8 179.15025773880714,37.2 184.0,34.4 188.84974226119286,37.2" fill="#ff00ff" fill-opacity="0.6149561437252156" stroke-opacity="0.6149561437252156" />
  <polygon points="204.84974226119286,42.8 200.0,45.6 195.15025773880714,42.8 195.15025773880714,37.2 200.0,34.4 204.84974226119286,37.2" fill="#ff00ff" fill-opacity="0.608452405257735" stroke-opacity="0.608452405257735" />
  <polygon points="220.84974226119286,42.8 216.0,45.6 211.15025773880714,42.8 211.15025773880714,37.2 216.0,34.4 220.84974226119286,37.2" fill="#ff00ff" fill-opacity="0.5979238506601358" stroke-opacity="0.5979238506601358" />
  <circle cx="232.0" cy="40.0" r="3.576142297492237" fill="#00ffff" opacity="0.5" />
  <circle cx="248.0" cy="40.0" r="3.465333749739787" fill="#00ffff" opacity="0.5" />
  <circle cx="264.0" cy="40.0" r="3.337258300203048" fill="#00ffff" opacity="0.5" />
  <polygon points="284.84974226119283,42.8 280.0,45.6 275.15025773880717,42.8 275.15025773880717,37.2 280.0,34.4 284.84974226119283,37.2" fill="#ff00ff" fill-opacity="0.5241675905406773" stroke-opacity="0.5241675905406773" />
  <polygon points="300.84974226119283,42.8 296.0,45.6 291.15025773880717,42.8 291.15025773880717,37.2 296.0,34.4 300.84974226119283,37.2" fill="#ff00ff" fill-opacity="0.5" stroke-opacity="0.5" />
  <polygon points="316.84974226119283,42.8 312.0,45.6 307.15025773880717,42.8 307.15025773880717,37.2 312.0,34.4 316.84974226119283,37.2" fill="#ff00ff" fill-opacity="0.47426534085184" stroke-opacity="0.47426534085184" />
  <polygon points="12.849742261192857,58.8 8.0,61.6 3.150257738807145,58.8 3.1502577388071433,53.2 7.999999999999999,50.4 12.849742261192857,53.2" fill="#ff00ff" fill-opacity="0.46843308745919837" stroke-opacity="0.46843308745919837" />
  <polygon points="28.84974226119286,58.8 24.0,61.6 19.150257738807145,58.8 19.15025773880714,53.2 24.0,50.4 28.84974226119286,53.2" fill="#ff00ff" fill-opacity="0.49688711258507257" stroke-opacity="0.49688711258507257" />
  <polygon points="44.84974226119286,58.8 40.0,61.6 35.15025773880714,58.8 35.15025773880714,53.2 40.0,50.4 44.84974226119286,53.2" fill="#ff00ff" fill-opacity="0.5241675905406773" stroke-opacity="0.5241675905406773" />
  <circle cx="56.0" cy="56.0" r="3.3600000000000003" fill="#00ffff" opacity="0.5" />
  <circle cx="72.0" cy="56.0" r="3.5138552303351522" fill="#00ffff" opacity="0.5" />
  <polygon points="92.84974226119286,58.8 88.0,61.6 83.15025773880714,58.8 83.15025773880714,53.2 88.0,50.4 92.84974226119286,53.2" fill="#ff00ff" fill-opacity="0.5958618734850891" stroke-opacity="0.5958618734850891" />
  <polygon points="108.84974226119286,58.8 104.0,61.6 99.15025773880714,58.8 99.15025773880714,53.2 104.0,50.4 108.84974226119286,53.2" fill="#ff00ff" fill-opacity="0.6149561437252156" stroke-opacity="0.6149561437252156" />
  <polygon points="124.84974226119286,58.8 120.0,61.6 115.15025773880714,58.8 115.15025773880714,53.2 120.0,50.4 124.84974226119286,53.2" fill="#ff00ff" fill-opacity="0.6307417596432748" stroke-opacity="0.6307417596432748" />
  <polygon points="140.84974226119286,58.8 136.0,61.6 131.15025773880714,58.8 131.15025773880714,53.2 136.0,50.4 140.84974226119286,53.2" fill="#ff00ff" fill-opacity="0.642609246475325" stroke-opacity="0.642609246475325" />
  <polygon points="156.84974226119286,58.8 152.0,61.6 147.15025773880714,58.8 147.15025773880714,53.2 152.0,50.4 156.84974226119286,53.2" fill="#ff00ff" fill-opacity="0.65" stroke-opacity="0.65" />
  <circle cx="168.0" cy="56.0" r="4.0160808101421335" fill="#00ffff" opacity="0.5" />
  <polygon points="188.84974226119286,58.8 184.0,61.6 179.15025773880714,58.8 179.15025773880714,53.2 184.0,50.4 188.84974226119286,53.2" fill="#ff00ff" fill-opacity="0.65" stroke-opacity="0.65" />
  <polygon points="204.84974226119286,58.8 200.0,61.6 195.15025773880714,58.8 195.15025773880714,53.2 200.0,50.4 204.84974226119286,53.2" fill="#ff00ff" fill-opacity="0.642609246475325" stroke-opacity="0.642609246475325" />
  <polygon points="220.84974226119286,58.8 216.0,61.6 211.15025773880714,58.8 211.15025773880714,53.2 216.0,50.4 220.84974226119286,53.2" fill="#ff00ff" fill-opacity="0.6307417596432748" stroke-opacity="0.6307417596432748" />
  <polygon points="236.84974226119286,58.8 232.0,61.6 227.15025773880714,58.8 227.15025773880714,53.2 232.0,50.4 236.84974226119286,53.2" fill="#ff00ff" fill-opacity="0.6149561437252156" stroke-opacity="0.6149561437252156" />
  <polygon points="252.84974226119286,58.8 248.0,61.6 243.15025773880714,58.8 243.15025773880714,53.2 248.0,50.4 252.84974226119286,53.2" fill="#ff00ff" fill-opacity="0.5958618734850891" stroke-opacity="0.5958618734850891" />
  <circle cx="264.0" cy="56.0" r="3.5138552303351522" fill="#00ffff" opacity="0.5" />
  <circle cx="280.0" cy="56.0" r="3.3600000000000003" fill="#00ffff" opacity="0.5" />
  <polygon points="300.84974226119283,58.8 296.0,61.6 291.15025773880717,58.8 291.15025773880717,53.2 296.0,50.4 300.84974226119283,53.2" fill="#ff00ff" fill-opacity="0.5241675905406773" stroke-opacity="0.5241675905406773" />
  <polygon points="316.84974226119283,58.8 312.0,61.6 307.15025773880717,58.8 307.15025773880717,53.2 312.0,50.4 316.84974226119283,53.2" fill="#ff00ff" fill-opacity="0.49688711258507257" stroke-opacity="0.49688711258507257" />
  <polygon points="12.849742261192857,74.8 8.0,77.6 3.150257738807145,74.8 3.1502577388071433,69.2 7.999999999999999,66.4 12.849742261192857,69.2" fill="#ff00ff" fill-opacity="0.48768943743823395" stroke-opacity="0.48768943743823395" />
  <polygon points="28.84974226119286,74.8 24.0,77.6 19.150257738807145,74.8 19.15025773880714,69.2 24.0,66.4 28.84974226119286,69.2" fill="#ff00ff" fill-opacity="0.5175735364805412" stroke-opacity="0.5175735364805412" />
  <circle cx="40.0" cy="72.0" r="3.337258300203048" fill="#00ffff" opacity="0.5" />
  <circle cx="56.0" cy="72.0" r="3.5138552303351522" fill="#00ffff" opacity="0.5" />
  <polygon points="76.84974226119286,74.8 72.0,77.6 67.15025773880714,74.8 67.15025773880714,69.2 72.0,66.4 76.84974226119286,69.2" fill="#ff00ff" fill-opacity="0.6000000000000001" stroke-opacity="0.6000000000000001" />
  <polygon points="92.84974226119286,74.8 88.0,77.6 83.15025773880714,74.8 83.15025773880714,69.2 88.0,66.4 92.84974226119286,69.2" fill="#ff00ff" fill-opacity="0.6238659745703186" stroke-opacity="0.6238659745703186" />
  <polygon points="108.84974226119286,74.8 104.0,77.6 99.15025773880714,74.8 99.15025773880714,69.2 104.0,66.4 108.84974226119286,69.2" fill="#ff00ff" fill-opacity="0.6450490243203608" stroke-opacity="0.6450490243203608" />
  <circle cx="120.0" cy="72.0" r="4.082106723119178" fill="#00ffff" opacity="0.5" />
  <circle cx="136.0" cy="72.0" r="4.1689164944001345" fill="#00ffff" opacity="0.5" />
  <circle cx="152.0" cy="72.0" r="4.223627957273179" fill="#00ffff" opacity="0.5" />
  <circle cx="168.0" cy="72.0" r="4.242354980121829" fill="#00ffff" opacity="0.5" />
  <circle cx="184.0" cy="72.0" r="4.223627957273179" fill="#00ffff" opacity="0.5" />
  <circle cx="200.0" cy="72.0" r="4.1689164944001345" fill="#00ffff" opacity="0.5" />
  <circle cx="216.0" cy="72.0" r="4.082106723119178" fill="#00ffff" opacity="0.5" />
  <polygon points="236.84974226119286,74.8 232.0,77.6 227.15025773880714,74.8 227.15025773880714,69.2 232.0,66.4 236.84974226119286,69.2" fill="#ff00ff" fill-opacity="0.6450490243203608" stroke-opacity="0.6450490243203608" />
  <polygon points="252.84974226119286,74.8 248.0,77.6 243.15025773880714,74.8 243.15025773880714,69.2 248.0,66.4 252.84974226119286,69.2" fill="#ff00ff" fill-opacity="0.6238659745703186" stroke-opacity="0.6238659745703186" />
  <polygon points="268.84974226119283,74.8 264.0,77.6 259.15025773880717,74.8 259.15025773880717,69.2 264.0,66.4 268.84974226119283,69.2" fill="#ff00ff" fill-opacity="0.6000000000000001" stroke-opacity="0.6000000000000001" />
  <circle cx="280.0" cy="72.0" r="3.5138552303351522" fill="#00ffff" opacity="0.5" />
  <circle cx="296.0" cy="72.0" r="3.337258300203048" fill="#00ffff" opacity="0.5" />
  <polygon points="316.84974226119283,74.8 312.0,77.6 307.15025773880717,74.8 307.15025773880717,69.2 312.0,66.4 316.84974226119283,69.2" fill="#ff00ff" fill-opacity="0.5175735364805412" stroke-opacity="0.5175735364805412" />
  <polygon points="12.849742261192857,90.8 8.0,93.6 3.150257738807145,90.8 3.1502577388071433,85.2 7.999999999999999,82.4 12.849742261192857,85.2" fill="#ff00ff" fill-opacity="0.5047152924789526" stroke-opacity="0.5047152924789526" />
  <circle cx="24.0" cy="88.0" r="3.270364835430234" fill="#00ffff" opacity="0.5" />
  <circle cx="40.0" cy="88.0" r="3.465333749739787" fill="#00ffff" opacity="0.5" />
  <polygon points="60.84974226119286,90.8 56.0,93.6 51.15025773880714,90.8 51.15025773880714,85.2 56.0,82.4 60.84974226119286,85.2" fill="#ff00ff" fill-opacity="0.5958618734850891" stroke-opacity="0.5958618734850891" />
  <polygon points="76.84974226119286,90.8 72.0,93.6 67.15025773880714,90.8 67.15025773880714,85.2 72.0,82.4 76.84974226119286,85.2" fill="#ff00ff" fill-opacity="0.6238659745703186" stroke-opacity="0.6238659745703186" />
  <polygon points="92.84974226119286,90.8 88.0,93.6 83.15025773880714,90.8 83.15025773880714,85.2 88.0,82.4 92.84974226119286,85.2" fill="#ff00ff" fill-opacity="0.65" stroke-opacity="0.65" />
  <circle cx="104.0" cy="88.0" r="4.151138377898013" fill="#00ffff" opacity="0.5" />
  <circle cx="120.0" cy="88.0" r="4.280606199802349" fill="#00ffff" opacity="0.5" />
  <circle cx="136.0" cy="88.0" r="4.381476303061775" fill="#00ffff" opacity="0.5" />
  <polygon points="156.84974226119286,90.8 152.0,93.6 147.15025773880714,90.8 147.15025773880714,85.2 152.0,82.4 156.84974226119286,85.2" fill="#ff00ff" fill-opacity="0.7197224362268005" stroke-opacity="0.7197224362268005" />
  <polygon points="172.84974226119286,90.8 168.0,93.6 163.15025773880714,90.8 163.15025773880714,85.2 168.0,82.4 172.84974226119286,85.2" fill="#ff00ff" fill-opacity="0.7232233047033632" stroke-opacity="0.7232233047033632" />
  <polygon points="188.84974226119286,90.8 184.0,93.6 179.15025773880714,90.8 179.15025773880714,85.2 184.0,82.4 188.84974226119286,85.2" fill="#ff00ff" fill-opacity="0.7197224362268005" stroke-opacity="0.7197224362268005" />
  <circle cx="200.0" cy="88.0" r="4.381476303061775" fill="#00ffff" opacity="0.5" />
  <circle cx="216.0" cy="88.0" r="4.280606199802349" fill="#00ffff" opacity="0.5" />
  <circle cx="232.0" cy="88.0" r="4.151138377898013" fill="#00ffff" opacity="0.5" />
  <polygon points="252.84974226119286,90.8 248.0,93.6 243.15025773880714,90.8 243.15025773880714,85.2 248.0,82.4 252.84974226119286,85.2" fill="#ff00ff" fill-opacity="0.65" stroke-opacity="0.65" />
  <polygon points="268.84974226119283,90.8 264.0,93.6 259.15025773880717,90.8 259.15025773880717,85.2 264.0,82.4 268.84974226119283,85.2" fill="#ff00ff" fill-opacity="0.6238659745703186" stroke-opacity="0.6238659745703186" />
  <polygon points="284.84974226119283,90.8 280.0,93.6 275.15025773880717,90.8 275.15025773880717,85.2 280.0,82.4 284.84974226119283,85.2" fill="#ff00ff" fill-opacity="0.5958618734850891" stroke-opacity="0.5958618734850891" />
  <circle cx="296.0" cy="88.0" r="3.465333749739787" fill="#00ffff" opacity="0.5" />
  <circle cx="312.0" cy="88.0" r="3.270364835430234" fill="#00ffff" opacity="0.5" />
  <polygon points="12.849742261192857,106.8 8.0,109.6 3.150257738807145,106.8 3.1502577388071433,101.2 7.999999999999999,98.4 12.849742261192857,101.2" fill="#ff00ff" fill-opacity="0.5192113447068046" stroke-opacity="0.5192113447068046" />
  <circle cx="24.0" cy="104.0" r="3.371457875650541" fill="#00ffff" opacity="0.5" />
  <circle cx="40.0" cy="104.0" r="3.576142297492237" fill="#00ffff" opacity="0.5" />
  <polygon points="60.84974226119286,106.8 56.0,109.6 51.15025773880714,106.8 51.15025773880714,101.2 56.0,98.4 60.84974226119286,101.2" fill="#ff00ff" fill-opacity="0.6149561437252156" stroke-opacity="0.6149561437252156" />
  <polygon points="76.84974226119286,106.8 72.0,109.6 67.15025773880714,106.8 67.15025773880714,101.2 72.0,98.4 76.84974226119286,101.2" fill="#ff00ff" fill-opacity="0.6450490243203608" stroke-opacity="0.6450490243203608" />
  <circle cx="88.0" cy="104.0" r="4.151138377898013" fill="#00ffff" opacity="0.5" />
  <circle cx="104.0" cy="104.0" r="4.32" fill="#00ffff" opacity="0.5" />
  <polygon points="124.84974226119286,106.8 120.0,109.6 115.15025773880714,106.8 115.15025773880714,101.2 120.0,98.4 124.84974226119286,101.2" fill="#ff00ff" fill-opacity="0.7232233047033632" stroke-opacity="0.7232233047033632" />
  <polygon points="140.84974226119286,106.8 136.0,109.6 131.15025773880714,106.8 131.15025773880714,101.2 136.0,98.4 140.84974226119286,101.2" fill="#ff00ff" fill-opacity="0.741886116991581" stroke-opacity="0.741886116991581" />
  <polygon points="156.84974226119286,106.8 152.0,109.6 147.15025773880714,106.8 147.15025773880714,101.2 152.0,98.4 156.84974226119286,101.2" fill="#ff00ff" fill-opacity="0.7542262026288675" stroke-opacity="0.7542262026288675" />
  <polygon points="172.84974226119286,106.8 168.0,109.6 163.15025773880714,106.8 163.15025773880714,101.2 168.0,98.4 172.84974226119286,101.2" fill="#ff00ff" fill-opacity="0.7585786437626905" stroke-opacity="0.7585786437626905" />
  <polygon points="188.84974226119286,106.8 184.0,109.6 179.15025773880714,106.8 179.15025773880714,101.2 184.0,98.4 188.84974226119286,101.2" fill="#ff00ff" fill-opacity="0.7542262026288675" stroke-opacity="0.7542262026288675" />
  <polygon points="204.84974226119286,106.8 200.0,109.6 195.15025773880714,106.8 195.15025773880714,101.2 200.0,98.4 204.84974226119286,101.2" fill="#ff00ff" fill-opacity="0.741886116991581" stroke-opacity="0.741886116991581" />
  <polygon points="220.84974226119286,106.8 216.0,109.6 211.15025773880714,106.8 211.15025773880714,101.2 216.0,98.4 220.84974226119286,101.2" fill="#ff00ff" fill-opacity="0.7232233047033632" stroke-opacity="0.7232233047033632" />
  <circle cx="232.0" cy="104.0" r="4.32" fill="#00ffff" opacity="0.5" />
  <circle cx="248.0" cy="104.0" r="4.151138377898013" fill="#00ffff" opacity="0.5" />
  <polygon points="268.84974226119283,106.8 264.0,109.6 259.15025773880717,106.8 259.15025773880717,101.2 264.0,98.4 268.84974226119283,101.2" fill="#ff00ff" fill-opacity="0.6450490243203608" stroke-opacity="0.6450490243203608" />
  <polygon points="284.84974226119283,106.8 280.0,109.6 275.15025773880717,106.8 275.15025773880717,101.2 280.0,98.4 284.84974226119283,101.2" fill="#ff00ff" fill-opacity="0.6149561437252156" stroke-opacity="0.6149561437252156" />
  <circle cx="296.0" cy="104.0" r="3.576142297492237" fill="#00ffff" opacity="0.5" />
  <circle cx="312.0" cy="104.0" r="3.371457875650541" fill="#00ffff" opacity="0.5" />
  <circle cx="8.0" cy="120.0" r="3.237628310362656" fill="#00ffff" opacity="0.5" />
  <circle cx="24.0" cy="120.0" r="3.453374741600202" fill="#00ffff" opacity="0.5" />
  <polygon points="44.84974226119286,122.8 40.0,125.6 35.15025773880714,122.8 35.15025773880714,117.2 40.0,114.4 44.84974226119286,117.2" fill="#ff00ff" fill-opacity="0.5979238506601358" stroke-opacity="0.5979238506601358" />
  <polygon points="60.84974226119286,122.8 56.0,125.6 51.15025773880714,122.8 51.15025773880714,117.2 56.0,114.4 60.84974226119286,117.2" fill="#ff00ff" fill-opacity="0.6307417596432748" stroke-opacity="0.6307417596432748" />
  <circle cx="72.0" cy="120.0" r="4.082106723119178" fill="#00ffff" opacity="0.5" />
  <circle cx="88.0" cy="120.0" r="4.280606199802349" fill="#00ffff" opacity="0.5" />
  <polygon points="108.84974226119286,122.8 104.0,125.6 99.15025773880714,122.8 99.15025773880714,117.2 104.0,114.4 108.84974226119286,117.2" fill="#ff00ff" fill-opacity="0.7232233047033632" stroke-opacity="0.7232233047033632" />
  <polygon points="124.84974226119286,122.8 120.0,125.6 115.15025773880714,122.8 115.15025773880714,117.2 120.0,114.4 124.84974226119286,117.2" fill="#ff00ff" fill-opacity="0.75" stroke-opacity="0.75" />
  <polygon points="140.84974226119286,122.8 136.0,125.6 131.15025773880714,122.8 131.15025773880714,117.2 136.0,114.4 140.84974226119286,117.2" fill="#ff00ff" fill-opacity="0.7725245121601805" stroke-opacity="0.7725245121601805" />
  <circle cx="152.0" cy="120.0" r="4.884458247200067" fill="#00ffff" opacity="0.5" />
  <circle cx="168.0" cy="120.0" r="4.921177490060915" fill="#00ffff" opacity="0.5" />
  <circle cx="184.0" cy="120.0" r="4.884458247200067" fill="#00ffff" opacity="0.5" />
  <polygon points="204.84974226119286,122.8 200.0,125.6 195.15025773880714,122.8 195.15025773880714,117.2 200.0,114.4 204.84974226119286,117.2" fill="#ff00ff" fill-opacity="0.7725245121601805" stroke-opacity="0.7725245121601805" />
  <polygon points="220.84974226119286,122.8 216.0,125.6 211.15025773880714,122.8 211.15025773880714,117.2 216.0,114.4 220.84974226119286,117.2" fill="#ff00ff" fill-opacity="0.75" stroke-opacity="0.75" />
  <polygon points="236.84974226119286,122.8 232.0,125.6 227.15025773880714,122.8 227.15025773880714,117.2 232.0,114.4 236.84974226119286,117.2" fill="#ff00ff" fill-opacity="0.7232233047033632" stroke-opacity="0.7232233047033632" />
  <circle cx="248.0" cy="120.0" r="4.280606199802349" fill="#00ffff" opacity="0.5" />
  <circle cx="264.0" cy="120.0" r="4.082106723119178" fill="#00ffff" opacity="0.5" />
  <polygon points="284.84974226119283,122.8 280.0,125.6 275.15025773880717,122.8 275.15025773880717,117.2 280.0,114.4 284.84974226119283,117.2" fill="#ff00ff" fill-opacity="0.6307417596432748" stroke-opacity="0.6307417596432748" />
  <polygon points="300.84974226119283,122.8 296.0,125.6 291.15025773880717,122.8 291.15025773880717,117.2 296.0,114.4 300.84974226119283,117.2" fill="#ff00ff" fill-opacity="0.5979238506601358" stroke-opacity="0.5979238506601358" />
  <circle cx="312.0" cy="120.0" r="3.453374741600202" fill="#00ffff" opacity="0.5" />
  <circle cx="8.0" cy="136.0" r="3.292447183703047" fill="#00ffff" opacity="0.5" />
  <circle cx="24.0" cy="136.0" r="3.5138552303351522" fill="#00ffff" opacity="0.5" />
  <polygon points="44.84974226119286,138.8 40.0,141.6 35.15025773880714,138.8 35.15025773880714,133.2 40.0,130.4 44.84974226119286,133.2" fill="#ff00ff" fill-opacity="0.608452405257735" stroke-opacity="0.608452405257735" />
  <polygon points="60.84974226119286,138.8 56.0,141.6 51.15025773880714,138.8 51.15025773880714,133.2 56.0,130.4 60.84974226119286,133.2" fill="#ff00ff" fill-opacity="0.642609246475325" stroke-opacity="0.642609246475325" />
  <circle cx="72.0" cy="136.0" r="4.1689164944001345" fill="#00ffff" opacity="0.5" />
  <circle cx="88.0" cy="136.0" r="4.381476303061775" fill="#00ffff" opacity="0.5" />
  <polygon points="108.84974226119286,138.8 104.0,141.6 99.15025773880714,138.8 99.15025773880714,133.2 104.0,130.4 108.84974226119286,133.2" fill="#ff00ff" fill-opacity="0.741886116991581" stroke-opacity="0.741886116991581" />
  <polygon points="124.84974226119286,138.8 120.0,141.6 115.15025773880714,138.8 115.15025773880714,133.2 120.0,130.4 124.84974226119286,133.2" fill="#ff00ff" fill-opacity="0.7725245121601805" stroke-opacity="0.7725245121601805" />
  <circle cx="136.0" cy="136.0" r="4.960000000000001" fill="#00ffff" opacity="0.5" />
  <circle cx="152.0" cy="136.0" r="5.094035574373059" fill="#00ffff" opacity="0.5" />
  <circle cx="168.0" cy="136.0" r="5.14745166004061" fill="#00ffff" opacity="0.5" />
  <circle cx="184.0" cy="136.0" r="5.094035574373059" fill="#00ffff" opacity="0.5" />
  <circle cx="200.0" cy="136.0" r="4.960000000000001" fill="#00ffff" opacity="0.5" />
  <polygon points="220.84974226119286,138.8 216.0,141.6 211.15025773880714,138.8 211.15025773880714,133.2 216.0,130.4 220.84974226119286,133.2" fill="#ff00ff" fill-opacity="0.7725245121601805" stroke-opacity="0.7725245121601805" />
  <polygon points="236.84974226119286,138.8 232.0,141.6 227.15025773880714,138.8 227.15025773880714,133.2 232.0,130.4 236.84974226119286,133.2" fill="#ff00ff" fill-opacity="0.741886116991581" stroke-opacity="0.741886116991581" />
  <circle cx="248.0" cy="136.0" r="4.381476303061775" fill="#00ffff" opacity="0.5" />
  <circle cx="264.0" cy="136.0" r="4.1689164944001345" fill="#00ffff" opacity="0.5" />
  <polygon points="284.84974226119283,138.8 280.0,141.6 275.15025773880717,138.8 275.15025773880717,133.2 280.0,130.4 284.84974226119283,133.2" fill="#ff00ff" fill-opacity="0.642609246475325" stroke-opacity="0.642609246475325" />
  <polygon points="300.84974226119283,138.8 296.0,141.6 291.15025773880717,138.8 291.15025773880717,133.2 296.0,130.4 300.84974226119283,133.2" fill="#ff00ff" fill-opacity="0.608452405257735" stroke-opacity="0.608452405257735" />
  <circle cx="312.0" cy="136.0" r="3.5138552303351522" fill="#00ffff" opacity="0.5" />
  <circle cx="8.0" cy="152.0" r="3.325972735431697" fill="#00ffff" opacity="0.5" />
  <circle cx="24.0" cy="152.0" r="3.5510002440214885" fill="#00ffff" opacity="0.5" />
  <polygon points="44.84974226119286,154.8 40.0,157.6 35.15025773880714,154.8 35.15025773880714,149.2 40.0,146.4 44.84974226119286,149.2" fill="#ff00ff" fill-opacity="0.6149561437252156" stroke-opacity="0.6149561437252156" />
  <polygon points="60.84974226119286,154.8 56.0,157.6 51.15025773880714,154.8 51.15025773880714,149.2 56.0,146.4 60.84974226119286,149.2" fill="#ff00ff" fill-opacity="0.65" stroke-opacity="0.65" />
  <circle cx="72.0" cy="152.0" r="4.223627957273179" fill="#00ffff" opacity="0.5" />
  <polygon points="92.84974226119286,154.8 88.0,157.6 83.15025773880714,154.8 83.15025773880714,149.2 88.0,146.4 92.84974226119286,149.2" fill="#ff00ff" fill-opacity="0.7197224362268005" stroke-opacity="0.7197224362268005" />
  <polygon points="108.84974226119286,154.8 104.0,157.6 99.15025773880714,154.8 99.15025773880714,149.2 104.0,146.4 108.84974226119286,149.2" fill="#ff00ff" fill-opacity="0.7542262026288675" stroke-opacity="0.7542262026288675" />
  <circle cx="120.0" cy="152.0" r="4.884458247200067" fill="#00ffff" opacity="0.5" />
  <circle cx="136.0" cy="152.0" r="5.094035574373059" fill="#00ffff" opacity="0.5" />
  <polygon points="156.84974226119286,154.8 152.0,157.6 147.15025773880714,154.8 147.15025773880714,149.2 152.0,146.4 156.84974226119286,149.2" fill="#ff00ff" fill-opacity="0.8500000000000001" stroke-opacity="0.8500000000000001" />
  <polygon points="172.84974226119286,154.8 168.0,157.6 163.15025773880714,154.8 163.15025773880714,149.2 168.0,146.4 172.84974226119286,149.2" fill="#ff00ff" fill-opacity="0.8646446609406726" stroke-opacity="0.8646446609406726" />
  <polygon points="188.84974226119286,154.8 184.0,157.6 179.15025773880714,154.8 179.15025773880714,149.2 184.0,146.4 188.84974226119286,149.2" fill="#ff00ff" fill-opacity="0.8500000000000001" stroke-opacity="0.8500000000000001" />
  <circle cx="200.0" cy="152.0" r="5.094035574373059" fill="#00ffff" opacity="0.5" />
  <circle cx="216.0" cy="152.0" r="4.884458247200067" fill="#00ffff" opacity="0.5" />
  <polygon points="236.84974226119286,154.8 232.0,157.6 227.15025773880714,154.8 227.15025773880714,149.2 232.0,146.4 236.84974226119286,149.2" fill="#ff00ff" fill-opacity="0.7542262026288675" stroke-opacity="0.7542262026288675" />
  <polygon points="252.84974226119286,154.8 248.0,157.6 243.15025773880714,154.8 243.15025773880714,149.2 248.0,146.4 252.84974226119286,149.2" fill="#ff00ff" fill-opacity="0.7197224362268005" stroke-opacity="0.7197224362268005" />
  <circle cx="264.0" cy="152.0" r="4.223627957273179" fill="#00ffff" opacity="0.5" />
  <polygon points="284.84974226119283,154.8 280.0,157.6 275.15025773880717,154.8 275.15025773880717,149.2 280.0,146.4 284.84974226119283,149.2" fill="#ff00ff" fill-opacity="0.65" stroke-opacity="0.65" />
  <polygon points="300.84974226119283,154.8 296.0,157.6 291.15025773880717,154.8 291.15025773880717,149.2 296.0,146.4 300.84974226119283,149.2" fill="#ff00ff" fill-opacity="0.6149561437252156" stroke-opacity="0.6149561437252156" />
  <circle cx="312.0" cy="152.0" r="3.5510002440214885" fill="#00ffff" opacity="0.5" />
  <circle cx="8.0" cy="168.0" r="3.337258300203048" fill="#00ffff" opacity="0.5" />
  <circle cx="24.0" cy="168.0" r="3.563532470182743" fill="#00ffff" opacity="0.5" />
  <polygon points="44.84974226119286,170.8 40.0,173.6 35.15025773880714,170.8 35.15025773880714,165.2 40.0,162.4 44.84974226119286,165.2" fill="#ff00ff" fill-opacity="0.617157287525381" stroke-opacity="0.617157287525381" />
  <circle cx="56.0" cy="168.0" r="4.0160808101421335" fill="#00ffff" opacity="0.5" />
  <circle cx="72.0" cy="168.0" r="4.242354980121829" fill="#00ffff" opacity="0.5" />
  <polygon points="92.84974226119286,170.8 88.0,173.6 83.15025773880714,170.8 83.15025773880714,165.2 88.0,162.4 92.84974226119286,165.2" fill="#ff00ff" fill-opacity="0.7232233047033632" stroke-opacity="0.7232233047033632" />
  <polygon points="108.84974226119286,170.8 104.0,173.6 99.15025773880714,170.8 99.15025773880714,165.2 104.0,162.4 108.84974226119286,165.2" fill="#ff00ff" fill-opacity="0.7585786437626905" stroke-opacity="0.7585786437626905" />
  <circle cx="120.0" cy="168.0" r="4.921177490060915" fill="#00ffff" opacity="0.5" />
  <circle cx="136.0" cy="168.0" r="5.14745166004061" fill="#00ffff" opacity="0.5" />
  <polygon points="156.84974226119286,170.8 152.0,173.6 147.15025773880714,170.8 147.15025773880714,165.2 152.0,162.4 156.84974226119286,165.2" fill="#ff00ff" fill-opacity="0.8646446609406726" stroke-opacity="0.8646446609406726" />
  <polygon points="172.84974226119286,170.8 168.0,173.6 163.15025773880714,170.8 163.15025773880714,165.2 168.0,162.4 172.84974226119286,165.2" fill="#ff00ff" fill-opacity="0.9" stroke-opacity="0.9" />
  <polygon points="188.84974226119286,170.8 184.0,173.6 179.15025773880714,170.8 179.15025773880714,165.2 184.0,162.4 188.84974226119286,165.2" fill="#ff00ff" fill-opacity="0.8646446609406726" stroke-opacity="0.8646446609406726" />
  <circle cx="200.0" cy="168.0" r="5.14745166004061" fill="#00ffff" opacity="0.5" />
  <circle cx="216.0" cy="168.0" r="4.921177490060915" fill="#00ffff" opacity="0.5" />
  <polygon points="236.84974226119286,170.8 232.0,173.6 227.15025773880714,170.8 227.15025773880714,165.2 232.0,162.4 236.84974226119286,165.2" fill="#ff00ff" fill-opacity="0.7585786437626905" stroke-opacity="0.7585786437626905" />
  <polygon points="252.84974226119286,170.8 248.0,173.6 243.15025773880714,170.8 243.15025773880714,165.2 248.0,162.4 252.84974226119286,165.2" fill="#ff00ff" fill-opacity="0.7232233047033632" stroke-opacity="0.7232233047033632" />
  <circle cx="264.0" cy="168.0" r="4.242354980121829" fill="#00ffff" opacity="0.5" />
  <circle cx="280.0" cy="168.0" r="4.0160808101421335" fill="#00ffff" opacity="0.5" />
  <polygon points="300.84974226119283,170.8 296.0,173.6 291.15025773880717,170.8 291.15025773880717,165.2 296.0,162.4 300.84974226119283,165.2" fill="#ff00ff" fill-opacity="0.617157287525381" stroke-opacity="0.617157287525381" />
  <circle cx="312.0" cy="168.0" r="3.563532470182743" fill="#00ffff" opacity="0.5" />
  <circle cx="8.0" cy="184.0" r="3.325972735431697" fill="#00ffff" opacity="0.5" />
  <circle cx="24.0" cy="184.0" r="3.5510002440214885" fill="#00ffff" opacity="0.5" />
  <polygon points="44.84974226119286,186.8 40.0,189.6 35.15025773880714,186.8 35.15025773880714,181.2 40.0,178.4 44.84974226119286,181.2" fill="#ff00ff" fill-opacity="0.6149561437252156" stroke-opacity="0.6149561437252156" />
  <polygon points="60.84974226119286,186.8 56.0,189.6 51.15025773880714,186.8 51.15025773880714,181.2 56.0,178.4 60.84974226119286,181.2" fill="#ff00ff" fill-opacity="0.65" stroke-opacity="0.65" />
  <circle cx="72.0" cy="184.0" r="4.223627957273179" fill="#00ffff" opacity="0.5" />
  <polygon points="92.84974226119286,186.8 88.0,189.6 83.15025773880714,186.8 83.15025773880714,181.2 88.0,178.4 92.84974226119286,181.2" fill="#ff00ff" fill-opacity="0.7197224362268005" stroke-opacity="0.7197224362268005" />
  <polygon points="108.84974226119286,186.8 104.0,189.6 99.15025773880714,186.8 99.15025773880714,181.2 104.0,178.4 108.84974226119286,181.2" fill="#ff00ff" fill-opacity="0.7542262026288675" stroke-opacity="0.7542262026288675" />
  <circle cx="120.0" cy="184.0" r="4.884458247200067" fill="#00ffff" opacity="0.5" />
  <circle cx="136.0" cy="184.0" r="5.094035574373059" fill="#00ffff" opacity="0.5" />
  <polygon points="156.84974226119286,186.8 152.0,189.6 147.15025773880714,186.8 147.15025773880714,181.2 152.0,178.4 156.84974226119286,181.2" fill="#ff00ff" fill-opacity="0.8500000000000001" stroke-opacity="0.8500000000000001" />
  <polygon points="172.84974226119286,186.8 168.0,189.6 163.15025773880714,186.8 163.15025773880714,181.2 168.0,178.4 172.84974226119286,181.2" fill="#ff00ff" fill-opacity="0.8646446609406726" stroke-opacity="0.8646446609406726" />
  <polygon points="188.84974226119286,186.8 184.0,189.6 179.15025773880714,186.8 179.15025773880714,181.2 184.0,178.4 188.84974226119286,181.2" fill="#ff00ff" fill-opacity="0.8500000000000001" stroke-opacity="0.8500000000000001" />
  <circle cx="200.0" cy="184.0" r="5.094035574373059" fill="#00ffff" opacity="0.5" />
  <circle cx="216.0" cy="184.0" r="4.884458247200067" fill="#00ffff" opacity="0.5" />
  <polygon points="236.84974226119286,186.8 232.0,189.6 227.15025773880714,186.8 227.15025773880714,181.2 232.0,178.4 236.84974226119286,181.2" fill="#ff00ff" fill-opacity="0.7542262026288675" stroke-opacity="0.7542262026288675" />
  <polygon points="252.84974226119286,186.8 248.0,189.6 243.15025773880714,186.8 243.15025773880714,181.2 248.0,178.4 252.84974226119286,181.2" fill="#ff00ff" fill-opacity="0.7197224362268005" stroke-opacity="0.7197224362268005" />
  <circle cx="264.0" cy="184.0" r="4.223627957273179" fill="#00ffff" opacity="0.5" />
  <polygon points="284.84974226119283,186.8 280.0,189.6 275.15025773880717,186.8 275.15025773880717,181.2 280.0,178.4 284.84974226119283,181.2" fill="#ff00ff" fill-opacity="0.65" stroke-opacity="0.65" />
  <polygon points="300.84974226119283,186.8 296.0,189.6 291.15025773880717,186.8 291.15025773880717,181.2 296.0,178.4 300.84974226119283,181.2" fill="#ff00ff" fill-opacity="0.6149561437252156" stroke-opacity="0.6149561437252156" />
  <circle cx="312.0" cy="184.0" r="3.5510002440214885" fill="#00ffff" opacity="0.5" />
  <circle cx="8.0" cy="200.0" r="3.292447183703047" fill="#00ffff" opacity="0.5" />
  <circle cx="24.0" cy="200.0" r="3.5138552303351522" fill="#00ffff" opacity="0.5" />
  <polygon points="44.84974226119286,202.8 40.0,205.6 35.15025773880714,202.8 35.15025773880714,197.2 40.0,194.4 44.84974226119286,197.2" fill="#ff00ff" fill-opacity="0.608452405257735" stroke-opacity="0.608452405257735" />
  <polygon points="60.84974226119286,202.8 56.0,205.6 51.15025773880714,202.8 51.15025773880714,197.2 56.0,194.4 60.84974226119286,197.2" fill="#ff00ff" fill-opacity="0.642609246475325" stroke-opacity="0.642609246475325" />
  <circle cx="72.0" cy="200.0" r="4.1689164944001345" fill="#00ffff" opacity="0.5" />
  <circle cx="88.0" cy="200.0" r="4.381476303061775" fill="#00ffff" opacity="0.5" />
  <polygon points="108.84974226119286,202.8 104.0,205.6 99.15025773880714,202.8 99.15025773880714,197.2 104.0,194.4 108.84974226119286,197.2" fill="#ff00ff" fill-opacity="0.741886116991581" stroke-opacity="0.741886116991581" />
  <polygon points="124.84974226119286,202.8 120.0,205.6 115.15025773880714,202.8 115.15025773880714,197.2 120.0,194.4 124.84974226119286,197.2" fill="#ff00ff" fill-opacity="0.7725245121601805" stroke-opacity="0.7725245121601805" />
  <circle cx="136.0" cy="200.0" r="4.960000000000001" fill="#00ffff" opacity="0.5" />
  <circle cx="152.0" cy="200.0" r="5.094035574373059" fill="#00ffff" opacity="0.5" />
  <circle cx="168.0" cy="200.0" r="5.14745166004061" fill="#00ffff" opacity="0.5" />
  <circle cx="184.0" cy="200.0" r="5.094035574373059" fill="#00ffff" opacity="0.5" />
  <circle cx="200.0" cy="200.0" r="4.960000000000001" fill="#00ffff" opacity="0.5" />
  <polygon points="220.84974226119286,202.8 216.0,205.6 211.15025773880714,202.8 211.15025773880714,197.2 216.0,194.4 220.84974226119286,197.2" fill="#ff00ff" fill-opacity="0.7725245121601805" stroke-opacity="0.7725245121601805" />
  <polygon points="236.84974226119286,202.8 232.0,205.6 227.15025773880714,202.8 227.15025773880714,197.2 232.0,194.4 236.84974226119286,197.2" fill="#ff00ff" fill-opacity="0.741886116991581" stroke-opacity="0.741886116991581" />
  <circle cx="248.0" cy="200.0" r="4.381476303061775" fill="#00ffff" opacity="0.5" />
  <circle cx="264.0" cy="200.0" r="4.1689164944001345" fill="#00ffff" opacity="0.5" />
  <polygon points="284.84974226119283,202.8 280.0,205.6 275.15025773880717,202.8 275.15025773880717,197.2 280.0,194.4 284.84974226119283,197.2" fill="#ff00ff" fill-opacity="0.642609246475325" stroke-opacity="0.642609246475325" />
  <polygon points="300.84974226119283,202.8 296.0,205.6 291.15025773880717,202.8 291.15025773880717,197.2 296.0,194.4 300.84974226119283,197.2" fill="#ff00ff" fill-opacity="0.608452405257735" stroke-opacity="0.608452405257735" />
  <circle cx="312.0" cy="200.0" r="3.5138552303351522" fill="#00ffff" opacity="0.5" />
  <circle cx="8.0" cy="216.0" r="3.237628310362656" fill="#00ffff" opacity="0.5" />
  <circle cx="24.0" cy="216.0" r="3.453374741600202" fill="#00ffff" opacity="0.5" />
  <polygon points="44.84974226119286,218.8 40.0,221.6 35.15025773880714,218.8 35.15025773880714,213.2 40.0,210.4 44.84974226119286,213.2" fill="#ff00ff" fill-opacity="0.5979238506601358" stroke-opacity="0.5979238506601358" />
  <polygon points="60.84974226119286,218.8 56.0,221.6 51.15025773880714,218.8 51.15025773880714,213.2 56.0,210.4 60.84974226119286,213.2" fill="#ff00ff" fill-opacity="0.6307417596432748" stroke-opacity="0.6307417596432748" />
  <circle cx="72.0" cy="216.0" r="4.082106723119178" fill="#00ffff" opacity="0.5" />
  <circle cx="88.0" cy="216.0" r="4.280606199802349" fill="#00ffff" opacity="0.5" />
  <polygon points="108.84974226119286,218.8 104.0,221.6 99.15025773880714,218.8 99.15025773880714,213.2 104.0,210.4 108.84974226119286,213.2" fill="#ff00ff" fill-opacity="0.7232233047033632" stroke-opacity="0.7232233047033632" />
  <polygon points="124.84974226119286,218.8 120.0,221.6 115.15025773880714,218.8 115.15025773880714,213.2 120.0,210.4 124.84974226119286,213.2" fill="#ff00ff" fill-opacity="0.75" stroke-opacity="0.75" />
  <polygon points="140.84974226119286,218.8 136.0,221.6 131.15025773880714,218.8 131.15025773880714,213.2 136.0,210.4 140.84974226119286,213.2" fill="#ff00ff" fill-opacity="0.7725245121601805" stroke-opacity="0.7725245121601805" />
  <circle cx="152.0" cy="216.0" r="4.884458247200067" fill="#00ffff" opacity="0.5" />
  <circle cx="168.0" cy="216.0" r="4.921177490060915" fill="#00ffff" opacity="0.5" />
  <circle cx="184.0" cy="216.0" r="4.884458247200067" fill="#00ffff" opacity="0.5" />
  <polygon points="204.84974226119286,218.8 200.0,221.6 195.15025773880714,218.8 195.15025773880714,213.2 200.0,210.4 204.84974226119286,213.2" fill="#ff00ff" fill-opacity="0.7725245121601805" stroke-opacity="0.7725245121601805" />
  <polygon points="220.84974226119286,218.8 216.0,221.6 211.15025773880714,218.8 211.15025773880714,213.2 216.0,210.4 220.84974226119286,213.2" fill="#ff00ff" fill-opacity="0.75" stroke-opacity="0.75" />
  <polygon points="236.84974226119286,218.8 232.0,221.6 227.15025773880714,218.8 227.15025773880714,213.2 232.0,210.4 236.84974226119286,213.2" fill="#ff00ff" fill-opacity="0.7232233047033632" stroke-opacity="0.7232233047033632" />
  <circle cx="248.0" cy="216.0" r="4.280606199802349" fill="#00ffff" opacity="0.5" />
  <circle cx="264.0" cy="216.0" r="4.082106723119178" fill="#00ffff" opacity="0.5" />
  <polygon points="284.84974226119283,218.8 280.0,221.6 275.15025773880717,218.8 275.15025773880717,213.2 280.0,210.4 284.84974226119283,213.2" fill="#ff00ff" fill-opacity="0.6307417596432748" stroke-opacity="0.6307417596432748" />
  <polygon points="300.84974226119283,218.8 296.0,221.6 291.15025773880717,218.8 291.15025773880717,213.2 296.0,210.4 300.84974226119283,213.2" fill="#ff00ff" fill-opacity="0.5979238506601358" stroke-opacity="0.5979238506601358" />
  <circle cx="312.0" cy="216.0" r="3.453374741600202" fill="#00ffff" opacity="0.5" />
  <polygon points="12.849742261192857,234.8 8.0,237.6 3.150257738807145,234.8 3.1502577388071433,229.2 7.999999999999999,226.4 12.849742261192857,229.2" fill="#ff00ff" fill-opacity="0.5192113447068046" stroke-opacity="0.5192113447068046" />
  <circle cx="24.0" cy="232.0" r="3.371457875650541" fill="#00ffff" opacity="0.5" />
  <circle cx="40.0" cy="232.0" r="3.576142297492237" fill="#00ffff" opacity="0.5" />
  <polygon points="60.84974226119286,234.8 56.0,237.6 51.15025773880714,234.8 51.15025773880714,229.2 56.0,226.4 60.84974226119286,229.2" fill="#ff00ff" fill-opacity="0.6149561437252156" stroke-opacity="0.6149561437252156" />
  <polygon points="76.84974226119286,234.8 72.0,237.6 67.15025773880714,234.8 67.15025773880714,229.2 72.0,226.4 76.84974226119286,229.2" fill="#ff00ff" fill-opacity="0.6450490243203608" stroke-opacity="0.6450490243203608" />
  <circle cx="88.0" cy="232.0" r="4.151138377898013" fill="#00ffff" opacity="0.5" />
  <circle cx="104.0" cy="232.0" r="4.32" fill="#00ffff" opacity="0.5" />
  <polygon points="124.84974226119286,234.8 120.0,237.6 115.15025773880714,234.8 115.15025773880714,229.2 120.0,226.4 124.84974226119286,229.2" fill="#ff00ff" fill-opacity="0.7232233047033632" stroke-opacity="0.7232233047033632" />
  <polygon points="140.84974226119286,234.8 136.0,237.6 131.15025773880714,234.8 131.15025773880714,229.2 136.0,226.4 140.84974226119286,229.2" fill="#ff00ff" fill-opacity="0.741886116991581" stroke-opacity="0.741886116991581" />
  <polygon points="156.84974226119286,234.8 152.0,237.6 147.15025773880714,234.8 147.15025773880714,229.2 152.0,226.4 156.84974226119286,229.2" fill="#ff00ff" fill-opacity="0.7542262026288675" stroke-opacity="0.7542262026288675" />
  <polygon points="172.84974226119286,234.8 168.0,237.6 163.15025773880714,234.8 163.15025773880714,229.2 168.0,226.4 172.84974226119286,229.2" fill="#ff00ff" fill-opacity="0.7585786437626905" stroke-opacity="0.7585786437626905" />
  <polygon points="188.84974226119286,234.8 184.0,237.6 179.15025773880714,234.8 179.15025773880714,229.2 184.0,226.4 188.84974226119286,229.2" fill="#ff00ff" fill-opacity="0.7542262026288675" stroke-opacity="0.7542262026288675" />
  <polygon points="204.84974226119286,234.8 200.0,237.6 195.15025773880714,234.8 195.15025773880714,229.2 200.0,226.4 204.84974226119286,229.2" fill="#ff00ff" fill-opacity="0.741886116991581" stroke-opacity="0.741886116991581" />
  <polygon points="220.84974226119286,234.8 216.0,237.6 211.15025773880714,234.8 211.15025773880714,229.2 216.0,226.4 220.84974226119286,229.2" fill="#ff00ff" fill-opacity="0.7232233047033632" stroke-opacity="0.7232233047033632" />
  <circle cx="232.0" cy="232.0" r="4.32" fill="#00ffff" opacity="0.5" />
  <circle cx="248.0" cy="232.0" r="4.151138377898013" fill="#00ffff" opacity="0.5" />
  <polygon points="268.84974226119283,234.8 264.0,237.6 259.15025773880717,234.8 259.15025773880717,229.2 264.0,226.4 268.84974226119283,229.2" fill="#ff00ff" fill-opacity="0.6450490243203608" stroke-opacity="0.6450490243203608" />
  <polygon points="284.84974226119283,234.8 280.0,237.6 275.15025773880717,234.8 275.15025773880717,229.2 280.0,226.4 284.84974226119283,229.2" fill="#ff00ff" fill-opacity="0.6149561437252156" stroke-opacity="0.6149561437252156" />
  <circle cx="296.0" cy="232.0" r="3.576142297492237" fill="#00ffff" opacity="0.5" />
  <circle cx="312.0" cy="232.0" r="3.371457875650541" fill="#00ffff" opacity="0.5" />
  <polygon points="12.849742261192857,250.8 8.0,253.6 3.150257738807145,250.8 3.1502577388071433,245.2 7.999999999999999,242.4 12.849742261192857,245.2" fill="#ff00ff" fill-opacity="0.5047152924789526" stroke-opacity="0.5047152924789526" />
  <circle cx="24.0" cy="248.0" r="3.270364835430234" fill="#00ffff" opacity="0.5" />
  <circle cx="40.0" cy="248.0" r="3.465333749739787" fill="#00ffff" opacity="0.5" />
  <polygon points="60.84974226119286,250.8 56.0,253.6 51.15025773880714,250.8 51.15025773880714,245.2 56.0,242.4 60.84974226119286,245.2" fill="#ff00ff" fill-opacity="0.5958618734850891" stroke-opacity="0.5958618734850891" />
  <polygon points="76.84974226119286,250.8 72.0,253.6 67.15025773880714,250.8 67.15025773880714,245.2 72.0,242.4 76.84974226119286,245.2" fill="#ff00ff" fill-opacity="0.6238659745703186" stroke-opacity="0.6238659745703186" />
  <polygon points="92.84974226119286,250.8 88.0,253.6 83.15025773880714,250.8 83.15025773880714,245.2 88.0,242.4 92.84974226119286,245.2" fill="#ff00ff" fill-opacity="0.65" stroke-opacity="0.65" />
  <circle cx="104.0" cy="248.0" r="4.151138377898013" fill="#00ffff" opacity="0.5" />
  <circle cx="120.0" cy="248.0" r="4.280606199802349" fill="#00ffff" opacity="0.5" />
  <circle cx="136.0" cy="248.0" r="4.381476303061775" fill="#00ffff" opacity="0.5" />
  <polygon points="156.84974226119286,250.8 152.0,253.6 147.15025773880714,250.8 147.15025773880714,245.2 152.0,242.4 156.84974226119286,245.2" fill="#ff00ff" fill-opacity="0.7197224362268005" stroke-opacity="0.7197224362268005" />
  <polygon points="172.84974226119286,250.8 168.0,253.6 163.15025773880714,250.8 163.15025773880714,245.2 168.0,242.4 172.84974226119286,245.2" fill="#ff00ff" fill-opacity="0.7232233047033632" stroke-opacity="0.7232233047033632" />
  <polygon points="188.84974226119286,250.8 184.0,253.6 179.15025773880714,250.8 179.15025773880714,245.2 184.0,242.4 188.84974226119286,245.2" fill="#ff00ff" fill-opacity="0.7197224362268005" stroke-opacity="0.7197224362268005" />
  <circle cx="200.0" cy="248.0" r="4.381476303061775" fill="#00ffff" opacity="0.5" />
  <circle cx="216.0" cy="248.0" r="4.280606199802349" fill="#00ffff" opacity="0.5" />
  <circle cx="232.0" cy="248.0" r="4.151138377898013" fill="#00ffff" opacity="0.5" />
  <polygon points="252.84974226119286,250.8 248.0,253.6 243.15025773880714,250.8 243.15025773880714,245.2 248.0,242.4 252.84974226119286,245.2" fill="#ff00ff" fill-opacity="0.65" stroke-opacity="0.65" />
  <polygon points="268.84974226119283,250.8 264.0,253.6 259.15025773880717,250.8 259.15025773880717,245.2 264.0,242.4 268.84974226119283,245.2" fill="#ff00ff" fill-opacity="0.6238659745703186" stroke-opacity="0.6238659745703186" />
  <polygon points="284.84974226119283,250.8 280.0,253.6 275.15025773880717,250.8 275.15025773880717,245.2 280.0,242.4 284.84974226119283,245.2" fill="#ff00ff" fill-opacity="0.5958618734850891" stroke-opacity="0.5958618734850891" />
  <circle cx="296.0" cy="248.0" r="3.465333749739787" fill="#00ffff" opacity="0.5" />
  <circle cx="312.0" cy="248.0" r="3.270364835430234" fill="#00ffff" opacity="0.5" />
  <polygon points="12.849742261192857,266.8 8.0,269.6 3.150257738807145,266.8 3.1502577388071433,261.2 7.999999999999999,258.4 12.849742261192857,261.2" fill="#ff00ff" fill-opacity="0.48768943743823395" stroke-opacity="0.48768943743823395" />
  <polygon points="28.84974226119286,266.8 24.0,269.6 19.150257738807145,266.8 19.15025773880714,261.2 24.0,258.4 28.84974226119286,261.2" fill="#ff00ff" fill-opacity="0.5175735364805412" stroke-opacity="0.5175735364805412" />
  <circle cx="40.0" cy="264.0" r="3.337258300203048" fill="#00ffff" opacity="0.5" />
  <circle cx="56.0" cy="264.0" r="3.5138552303351522" fill="#00ffff" opacity="0.5" />
  <polygon points="76.84974226119286,266.8 72.0,269.6 67.15025773880714,266.8 67.15025773880714,261.2 72.0,258.4 76.84974226119286,261.2" fill="#ff00ff" fill-opacity="0.6000000000000001" stroke-opacity="0.6000000000000001" />
  <polygon points="92.84974226119286,266.8 88.0,269.6 83.15025773880714,266.8 83.15025773880714,261.2 88.0,258.4 92.84974226119286,261.2" fill="#ff00ff" fill-opacity="0.6238659745703186" stroke-opacity="0.6238659745703186" />
  <polygon points="108.84974226119286,266.8 104.0,269.6 99.15025773880714,266.8 99.15025773880714,261.2 104.0,258.4 108.84974226119286,261.2" fill="#ff00ff" fill-opacity="0.6450490243203608" stroke-opacity="0.6450490243203608" />
  <circle cx="120.0" cy="264.0" r="4.082106723119178" fill="#00ffff" opacity="0.5" />
  <circle cx="136.0" cy="264.0" r="4.1689164944001345" fill="#00ffff" opacity="0.5" />
  <circle cx="152.0" cy="264.0" r="4.223627957273179" fill="#00ffff" opacity="0.5" />
  <circle cx="168.0" cy="264.0" r="4.242354980121829" fill="#00ffff" opacity="0.5" />
  <circle cx="184.0" cy="264.0" r="4.223627957273179" fill="#00ffff" opacity="0.5" />
  <circle cx="200.0" cy="264.0" r="4.1689164944001345" fill="#00ffff" opacity="0.5" />
  <circle cx="216.0" cy="264.0" r="4.082106723119178" fill="#00ffff" opacity="0.5" />
  <polygon points="236.84974226119286,266.8 232.0,269.6 227.15025773880714,266.8 227.15025773880714,261.2 232.0,258.4 236.84974226119286,261.2" fill="#ff00ff" fill-opacity="0.6450490243203608" stroke-opacity="0.6450490243203608" />
  <polygon points="252.84974226119286,266.8 248.0,269.6 243.15025773880714,266.8 243.15025773880714,261.2 248.0,258.4 252.84974226119286,261.2" fill="#ff00ff" fill-opacity="0.6238659745703186" stroke-opacity="0.6238659745703186" />
  <polygon points="268.84974226119283,266.8 264.0,269.6 259.15025773880717,266.8 259.15025773880717,261.2 264.0,258.4 268.84974226119283,261.2" fill="#ff00ff" fill-opacity="0.6000000000000001" stroke-opacity="0.6000000000000001" />
  <circle cx="280.0" cy="264.0" r="3.5138552303351522" fill="#00ffff" opacity="0.5" />
  <circle cx="296.0" cy="264.0" r="3.337258300203048" fill="#00ffff" opacity="0.5" />
  <polygon points="316.84974226119283,266.8 312.0,269.6 307.15025773880717,266.8 307.15025773880717,261.2 312.0,258.4 316.84974226119283,261.2" fill="#ff00ff" fill-opacity="0.5175735364805412" stroke-opacity="0.5175735364805412" />
  <polygon points="12.849742261192857,282.8 8.0,285.6 3.150257738807145,282.8 3.1502577388071433,277.2 7.999999999999999,274.4 12.849742261192857,277.2" fill="#ff00ff" fill-opacity="0.46843308745919837" stroke-opacity="0.46843308745919837" />
  <polygon points="28.84974226119286,282.8 24.0,285.6 19.150257738807145,282.8 19.15025773880714,277.2 24.0,274.4 28.84974226119286,277.2" fill="#ff00ff" fill-opacity="0.49688711258507257" stroke-opacity="0.49688711258507257" />
  <polygon points="44.84974226119286,282.8 40.0,285.6 35.15025773880714,282.8 35.15025773880714,277.2 40.0,274.4 44.84974226119286,277.2" fill="#ff00ff" fill-opacity="0.5241675905406773" stroke-opacity="0.5241675905406773" />
  <circle cx="56.0" cy="280.0" r="3.3600000000000003" fill="#00ffff" opacity="0.5" />
  <circle cx="72.0" cy="280.0" r="3.5138552303351522" fill="#00ffff" opacity="0.5" />
  <polygon points="92.84974226119286,282.8 88.0,285.6 83.15025773880714,282.8 83.15025773880714,277.2 88.0,274.4 92.84974226119286,277.2" fill="#ff00ff" fill-opacity="0.5958618734850891" stroke-opacity="0.5958618734850891" />
  <polygon points="108.84974226119286,282.8 104.0,285.6 99.15025773880714,282.8 99.15025773880714,277.2 104.0,274.4 108.84974226119286,277.2" fill="#ff00ff" fill-opacity="0.6149561437252156" stroke-opacity="0.6149561437252156" />
  <polygon points="124.84974226119286,282.8 120.0,285.6 115.15025773880714,282.8 115.15025773880714,277.2 120.0,274.4 124.84974226119286,277.2" fill="#ff00ff" fill-opacity="0.6307417596432748" stroke-opacity="0.6307417596432748" />
  <polygon points="140.84974226119286,282.8 136.0,285.6 131.15025773880714,282.8 131.15025773880714,277.2 136.0,274.4 140.84974226119286,277.2" fill="#ff00ff" fill-opacity="0.642609246475325" stroke-opacity="0.642609246475325" />
  <polygon points="156.84974226119286,282.8 152.0,285.6 147.15025773880714,282.8 147.15025773880714,277.2 152.0,274.4 156.84974226119286,277.2" fill="#ff00ff" fill-opacity="0.65" stroke-opacity="0.65" />
  <circle cx="168.0" cy="280.0" r="4.0160808101421335" fill="#00ffff" opacity="0.5" />
  <polygon points="188.84974226119286,282.8 184.0,285.6 179.15025773880714,282.8 179.15025773880714,277.2 184.0,274.4 188.84974226119286,277.2" fill="#ff00ff" fill-opacity="0.65" stroke-opacity="0.65" />
  <polygon points="204.84974226119286,282.8 200.0,285.6 195.15025773880714,282.8 195.15025773880714,277.2 200.0,274.4 204.84974226119286,277.2" fill="#ff00ff" fill-opacity="0.642609246475325" stroke-opacity="0.642609246475325" />
  <polygon points="220.84974226119286,282.8 216.0,285.6 211.15025773880714,282.8 211.15025773880714,277.2 216.0,274.4 220.84974226119286,277.2" fill="#ff00ff" fill-opacity="0.6307417596432748" stroke-opacity="0.6307417596432748" />
  <polygon points="236.84974226119286,282.8 232.0,285.6 227.15025773880714,282.8 227.15025773880714,277.2 232.0,274.4 236.84974226119286,277.2" fill="#ff00ff" fill-opacity="0.6149561437252156" stroke-opacity="0.6149561437252156" />
  <polygon points="252.84974226119286,282.8 248.0,285.6 243.15025773880714,282.8 243.15025773880714,277.2 248.0,274.4 252.84974226119286,277.2" fill="#ff00ff" fill-opacity="0.5958618734850891" stroke-opacity="0.5958618734850891" />
  <circle cx="264.0" cy="280.0" r="3.5138552303351522" fill="#00ffff" opacity="0.5" />
  <circle cx="280.0" cy="280.0" r="3.3600000000000003" fill="#00ffff" opacity="0.5" />
  <polygon points="300.84974226119283,282.8 296.0,285.6 291.15025773880717,282.8 291.15025773880717,277.2 296.0,274.4 300.84974226119283,277.2" fill="#ff00ff" fill-opacity="0.5241675905406773" stroke-opacity="0.5241675905406773" />
  <polygon points="316.84974226119283,282.8 312.0,285.6 307.15025773880717,282.8 307.15025773880717,277.2 312.0,274.4 316.84974226119283,277.2" fill="#ff00ff" fill-opacity="0.49688711258507257" stroke-opacity="0.49688711258507257" />
  <circle cx="8.0" cy="296.0" r="2.702276755796027" fill="#00ffff" opacity="0.5" />
  <polygon points="28.84974226119286,298.8 24.0,301.6 19.150257738807145,298.8 19.15025773880714,293.2 24.0,290.4 28.84974226119286,293.2" fill="#ff00ff" fill-opacity="0.47426534085184" stroke-opacity="0.47426534085184" />
  <polygon points="44.84974226119286,298.8 40.0,301.6 35.15025773880714,298.8 35.15025773880714,293.2 40.0,290.4 44.84974226119286,293.2" fill="#ff00ff" fill-opacity="0.5" stroke-opacity="0.5" />
  <polygon points="60.84974226119286,298.8 56.0,301.6 51.15025773880714,298.8 51.15025773880714,293.2 56.0,290.4 60.84974226119286,293.2" fill="#ff00ff" fill-opacity="0.5241675905406773" stroke-opacity="0.5241675905406773" />
  <circle cx="72.0" cy="296.0" r="3.337258300203048" fill="#00ffff" opacity="0.5" />
  <circle cx="88.0" cy="296.0" r="3.465333749739787" fill="#00ffff" opacity="0.5" />
  <circle cx="104.0" cy="296.0" r="3.576142297492237" fill="#00ffff" opacity="0.5" />
  <polygon points="124.84974226119286,298.8 120.0,301.6 115.15025773880714,298.8 115.15025773880714,293.2 120.0,290.4 124.84974226119286,293.2" fill="#ff00ff" fill-opacity="0.5979238506601358" stroke-opacity="0.5979238506601358" />
  <polygon points="140.84974226119286,298.8 136.0,301.6 131.15025773880714,298.8 131.15025773880714,293.2 136.0,290.4 140.84974226119286,293.2" fill="#ff00ff" fill-opacity="0.608452405257735" stroke-opacity="0.608452405257735" />
  <polygon points="156.84974226119286,298.8 152.0,301.6 147.15025773880714,298.8 147.15025773880714,293.2 152.0,290.4 156.84974226119286,293.2" fill="#ff00ff" fill-opacity="0.6149561437252156" stroke-opacity="0.6149561437252156" />
  <polygon points="172.84974226119286,298.8 168.0,301.6 163.15025773880714,298.8 163.15025773880714,293.2 168.0,290.4 172.84974226119286,293.2" fill="#ff00ff" fill-opacity="0.617157287525381" stroke-opacity="0.617157287525381" />
  <polygon points="188.84974226119286,298.8 184.0,301.6 179.15025773880714,298.8 179.15025773880714,293.2 184.0,290.4 188.84974226119286,293.2" fill="#ff00ff" fill-opacity="0.6149561437252156" stroke-opacity="0.6149561437252156" />
  <polygon points="204.84974226119286,298.8 200.0,301.6 195.15025773880714,298.8 195.15025773880714,293.2 200.0,290.4 204.84974226119286,293.2" fill="#ff00ff" fill-opacity="0.608452405257735" stroke-opacity="0.608452405257735" />
  <polygon points="220.84974226119286,298.8 216.0,301.6 211.15025773880714,298.8 211.15025773880714,293.2 216.0,290.4 220.84974226119286,293.2" fill="#ff00ff" fill-opacity="0.5979238506601358" stroke-opacity="0.5979238506601358" />
  <circle cx="232.0" cy="296.0" r="3.576142297492237" fill="#00ffff" opacity="0.5" />
  <circle cx="248.0" cy="296.0" r="3.465333749739787" fill="#00ffff" opacity="0.5" />
  <circle cx="264.0" cy="296.0" r="3.337258300203048" fill="#00ffff" opacity="0.5" />
  <polygon points="284.84974226119283,298.8 280.0,301.6 275.15025773880717,298.8 275.15025773880717,293.2 280.0,290.4 284.84974226119283,293.2" fill="#ff00ff" fill-opacity="0.5241675905406773" stroke-opacity="0.5241675905406773" />
  <polygon points="300.84974226119283,298.8 296.0,301.6 291.15025773880717,298.8 291.15025773880717,293.2 296.0,290.4 300.84974226119283,293.2" fill="#ff00ff" fill-opacity="0.5" stroke-opacity="0.5" />
  <polygon points="316.84974226119283,298.8 312.0,301.6 307.15025773880717,298.8 307.15025773880717,293.2 312.0,290.4 316.84974226119283,293.2" fill="#ff00ff" fill-opacity="0.47426534085184" stroke-opacity="0.47426534085184" />
  <circle cx="8.0" cy="312.0" r="2.5557923855295286" fill="#00ffff" opacity="0.5" />
  <circle cx="24.0" cy="312.0" r="2.72" fill="#00ffff" opacity="0.5" />
  <polygon points="44.84974226119286,314.8 40.0,317.6 35.15025773880714,314.8 35.15025773880714,309.2 40.0,306.4 44.84974226119286,309.2" fill="#ff00ff" fill-opacity="0.47426534085184" stroke-opacity="0.47426534085184" />
  <polygon points="60.84974226119286,314.8 56.0,317.6 51.15025773880714,314.8 51.15025773880714,309.2 56.0,306.4 60.84974226119286,309.2" fill="#ff00ff" fill-opacity="0.49688711258507257" stroke-opacity="0.49688711258507257" />
  <polygon points="76.84974226119286,314.8 72.0,317.6 67.15025773880714,314.8 67.15025773880714,309.2 72.0,306.4 76.84974226119286,309.2" fill="#ff00ff" fill-opacity="0.5175735364805412" stroke-opacity="0.5175735364805412" />
  <circle cx="88.0" cy="312.0" r="3.270364835430234" fill="#00ffff" opacity="0.5" />
  <circle cx="104.0" cy="312.0" r="3.371457875650541" fill="#00ffff" opacity="0.5" />
  <circle cx="120.0" cy="312.0" r="3.453374741600202" fill="#00ffff" opacity="0.5" />
  <circle cx="136.0" cy="312.0" r="3.5138552303351522" fill="#00ffff" opacity="0.5" />
  <circle cx="152.0" cy="312.0" r="3.5510002440214885" fill="#00ffff" opacity="0.5" />
  <circle cx="168.0" cy="312.0" r="3.563532470182743" fill="#00ffff" opacity="0.5" />
  <circle cx="184.0" cy="312.0" r="3.5510002440214885" fill="#00ffff" opacity="0.5" />
  <circle cx="200.0" cy="312.0" r="3.5138552303351522" fill="#00ffff" opacity="0.5" />
  <circle cx="216.0" cy="312.0" r="3.453374741600202" fill="#00ffff" opacity="0.5" />
  <circle cx="232.0" cy="312.0" r="3.371457875650541" fill="#00ffff" opacity="0.5" />
  <circle cx="248.0" cy="312.0" r="3.270364835430234" fill="#00ffff" opacity="0.5" />
  <polygon points="268.84974226119283,314.8 264.0,317.6 259.15025773880717,314.8 259.15025773880717,309.2 264.0,306.4 268.84974226119283,309.2" fill="#ff00ff" fill-opacity="0.5175735364805412" stroke-opacity="0.5175735364805412" />
  <polygon points="284.84974226119283,314.8 280.0,317.6 275.15025773880717,314.8 275.15025773880717,309.2 280.0,306.4 284.84974226119283,309.2" fill="#ff00ff" fill-opacity="0.49688711258507257" stroke-opacity="0.49688711258507257" />
  <polygon points="300.84974226119283,314.8 296.0,317.6 291.15025773880717,314.8 291.15025773880717,309.2 296.0,306.4 300.84974226119283,309.2" fill="#ff00ff" fill-opacity="0.47426534085184" stroke-opacity="0.47426534085184" />
  <circle cx="312.0" cy="312.0" r="2.72" fill="#00ffff" opacity="0.5" />
</svg>