<?xml version="1.0" encoding="UTF-8"?>
<svg xmlns="http://www.w3.org/2000/svg" width="288" height="288" viewBox="0 0 288 288">
  <rect width="100%" height="100%" fill="#1a2e1a" />
  <polygon points="12,3.6 13.1879,10.8121 20.4,12 13.1879,13.1879 12,20.4 10.8121,13.1879 3.6,12 10.8121,10.8121" fill="#4ade80" fill-opacity="0.4" stroke-opacity="0.4" />
  <polygon points="36,3.6 37.1879,10.8121 44.4,12 37.1879,13.1879 36,20.4 34.8121,13.1879 27.6,12 34.8121,10.8121" fill="#4ade80" fill-opacity="0.427273" stroke-opacity="0.427273" />
  <polygon points="60,3.6 61.1879,10.8121 68.4,12 61.1879,13.1879 60,20.4 58.8121,13.1879 51.6,12 58.8121,10.8121" fill="#4ade80" fill-opacity="0.454545" stroke-opacity="0.454545" />
  <polygon points="84,3.6 84.9875,10.6409 91.9889,9.40426 85.5978,12.5191 88.9374,18.7957 84,13.68 79.0626,18.7957 82.4022,12.5191 76.0111,9.40426 83.0125,10.6409" fill="#4ade80" fill-opacity="0.481818" stroke-opacity="0.481818" />
  <polygon points="108,3.6 108.987,10.6409 115.989,9.40426 109.598,12.5191 112.937,18.7957 108,13.68 103.063,18.7957 106.402,12.5191 100.011,9.40426 107.013,10.6409" fill="#4ade80" fill-opacity="0.509091" stroke-opacity="0.509091" />
  <polygon points="132,3.6 132.987,10.6409 139.989,9.40426 133.598,12.5191 136.937,18.7957 132,13.68 127.063,18.7957 130.402,12.5191 124.011,9.40426 131.013,10.6409" fill="#4ade80" fill-opacity="0.536364" stroke-opacity="0.536364" />
  <polygon points="156,3.6 156.84,10.5451 163.275,7.8 157.68,12 163.275,16.2 156.84,13.4549 156,20.4 155.16,13.4549 148.725,16.2 154.32,12 148.725,7.8 155.16,10.5451" fill="#4ade80" fill-opacity="0.563636" stroke-opacity="0.563636" />
  <polygon points="180,3.6 180.84,10.5451 187.275,7.8 181.68,12 187.275,16.2 180.84,13.4549 180,20.4 179.16,13.4549 172.725,16.2 178.32,12 172.725,7.8 179.16,10.5451" fill="#4ade80" fill-opacity="0.590909" stroke-opacity="0.590909" />
  <polygon points="204,3.6 204.84,10.5451 211.275,7.8 205.68,12 211.275,16.2 204.84,13.4549 204,20.4 203.16,13.4549 196.725,16.2 202.32,12 196.725,7.8 203.16,10.5451" fill="#4ade80" fill-opacity="0.618182" stroke-opacity="0.618182" />
  <polygon points="228,3.6 228.729,10.4864 234.567,6.76269 229.638,11.6262 236.189,13.8692 229.313,13.0475 231.645,19.5681 228,13.68 224.355,19.5681 226.687,13.0475 219.811,13.8692 226.362,11.6262 221.433,6.76269 227.271,10.4864" fill="#4ade80" fill-opacity="0.645455" stroke-opacity="0.645455" />
  <polygon points="252,3.6 252.729,10.4864 258.567,6.76269 253.638,11.6262 260.189,13.8692 253.313,13.0475 255.645,19.5681 252,13.68 248.355,19.5681 250.687,13.0475 243.811,13.8692 250.362,11.6262 245.433,6.76269 251.271,10.4864" fill="#4ade80" fill-opacity="0.672727" stroke-opacity="0.672727" />
  <polygon points="276,3.6 276.643,10.4479 281.94,6.0603 277.552,11.3571 284.4,12 277.552,12.6429 281.94,17.9397 276.643,13.5521 276,20.4 275.357,13.5521 270.06,17.9397 274.448,12.6429 267.6,12 274.448,11.3571 270.06,6.0603 275.357,10.4479" fill="#4ade80" fill-opacity="0.7" stroke-opacity="0.7" />
  <polygon points="12,27.6 13.4039,34.5961 20.4,36 13.4039,37.4039 12,44.4 10.5961,37.4039 3.6,36 10.5961,34.5961" fill="#4ade80" fill-opacity="0.427273" stroke-opacity="0.427273" />
  <polygon points="36,27.6 37.4039,34.5961 44.4,36 37.4039,37.4039 36,44.4 34.5961,37.4039 27.6,36 34.5961,34.5961" fill="#4ade80" fill-opacity="0.454545" stroke-opacity="0.454545" />
  <polygon points="60,27.6 61.4039,34.5961 68.4,36 61.4039,37.4039 60,44.4 58.5961,37.4039 51.6,36 58.5961,34.5961" fill="#4ade80" fill-opacity="0.481818" stroke-opacity="0.481818" />
  <polygon points="84,27.6 85.167,34.3937 91.9889,33.4043 85.8883,36.6135 88.9374,42.7957 84,37.9855 79.0626,42.7957 82.1117,36.6135 76.0111,33.4043 82.833,34.3937" fill="#4ade80" fill-opacity="0.509091" stroke-opacity="0.509091" />
  <polygon points="108,27.6 109.167,34.3937 115.989,33.4043 109.888,36.6135 112.937,42.7957 108,37.9855 103.063,42.7957 106.112,36.6135 100.011,33.4043 106.833,34.3937" fill="#4ade80" fill-opacity="0.536364" stroke-opacity="0.536364" />
  <polygon points="132,27.6 133.167,34.3937 139.989,33.4043 133.888,36.6135 136.937,42.7957 132,37.9855 127.063,42.7957 130.112,36.6135 124.011,33.4043 130.833,34.3937" fill="#4ade80" fill-opacity="0.563636" stroke-opacity="0.563636" />
  <polygon points="156,27.6 156.993,34.2805 163.275,31.8 157.985,36 163.275,40.2 156.993,37.7195 156,44.4 155.007,37.7195 148.725,40.2 154.015,36 148.725,31.8 155.007,34.2805" fill="#4ade80" fill-opacity="0.590909" stroke-opacity="0.590909" />
  <polygon points="180,27.6 180.993,34.2805 187.275,31.8 181.985,36 187.275,40.2 180.993,37.7195 180,44.4 179.007,37.7195 172.725,40.2 178.015,36 172.725,31.8 179.007,34.2805" fill="#4ade80" fill-opacity="0.618182" stroke-opacity="0.618182" />
  <polygon points="204,27.6 204.993,34.2805 211.275,31.8 205.985,36 211.275,40.2 204.993,37.7195 204,44.4 203.007,37.7195 196.725,40.2 202.015,36 196.725,31.8 203.007,34.2805" fill="#4ade80" fill-opacity="0.645455" stroke-opacity="0.645455" />
  <polygon points="228,27.6 228.861,34.2112 234.567,30.7627 229.936,35.5582 236.189,37.8692 229.552,37.2379 231.645,43.5681 228,37.9855 224.355,43.5681 226.448,37.2379 219.811,37.8692 226.064,35.5582 221.433,30.7627 227.139,34.2112" fill="#4ade80" fill-opacity="0.672727" stroke-opacity="0.672727" />
  <polygon points="252,27.6 252.861,34.2112 258.567,30.7627 253.936,35.5582 260.189,37.8692 253.552,37.2379 255.645,43.5681 252,37.9855 248.355,43.5681 250.448,37.2379 243.811,37.8692 250.064,35.5582 245.433,30.7627 251.139,34.2112" fill="#4ade80" fill-opacity="0.7" stroke-opacity="0.7" />
  <polygon points="276,27.6 276.76,34.1657 281.94,30.0603 277.834,35.2402 284.4,36 277.834,36.7598 281.94,41.9397 276.76,37.8343 276,44.4 275.24,37.8343 270.06,41.9397 274.166,36.7598 267.6,36 274.166,35.2402 270.06,30.0603 275.24,34.1657" fill="#4ade80" fill-opacity="0.727273" stroke-opacity="0.727273" />
  <polygon points="12,51.6 13.6199,58.3801 20.4,60 13.6199,61.6199 12,68.4 10.3801,61.6199 3.6,60 10.3801,58.3801" fill="#4ade80" fill-opacity="0.454545" stroke-opacity="0.454545" />
  <polygon points="36,51.6 37.6199,58.3801 44.4,60 37.6199,61.6199 36,68.4 34.3801,61.6199 27.6,60 34.3801,58.3801" fill="#4ade80" fill-opacity="0.481818" stroke-opacity="0.481818" />
  <polygon points="60,51.6 61.6199,58.3801 68.4,60 61.6199,61.6199 60,68.4 58.3801,61.6199 51.6,60 58.3801,58.3801" fill="#4ade80" fill-opacity="0.509091" stroke-opacity="0.509091" />
  <polygon points="84,51.6 85.3466,58.1466 91.9889,57.4043 86.1788,60.7079 88.9374,66.7957 84,62.2909 79.0626,66.7957 81.8212,60.7079 76.0111,57.4043 82.6534,58.1466" fill="#4ade80" fill-opacity="0.536364" stroke-opacity="0.536364" />
  <polygon points="108,51.6 109.347,58.1466 115.989,57.4043 110.179,60.7079 112.937,66.7957 108,62.2909 103.063,66.7957 105.821,60.7079 100.011,57.4043 106.653,58.1466" fill="#4ade80" fill-opacity="0.563636" stroke-opacity="0.563636" />
  <polygon points="132,51.6 133.347,58.1466 139.989,57.4043 134.179,60.7079 136.937,66.7957 132,62.2909 127.063,66.7957 129.821,60.7079 124.011,57.4043 130.653,58.1466" fill="#4ade80" fill-opacity="0.590909" stroke-opacity="0.590909" />
  <polygon points="156,51.6 157.145,58.016 163.275,55.8 158.291,60 163.275,64.2 157.145,61.984 156,68.4 154.855,61.984 148.725,64.2 153.709,60 148.725,55.8 154.855,58.016" fill="#4ade80" fill-opacity="0.618182" stroke-opacity="0.618182" />
  <polygon points="180,51.6 181.145,58.016 187.275,55.8 182.291,60 187.275,64.2 181.145,61.984 180,68.4 178.855,61.984 172.725,64.2 177.709,60 172.725,55.8 178.855,58.016" fill="#4ade80" fill-opacity="0.645455" stroke-opacity="0.645455" />
  <polygon points="204,51.6 205.145,58.016 211.275,55.8 206.291,60 211.275,64.2 205.145,61.984 204,68.4 202.855,61.984 196.725,64.2 201.709,60 196.725,55.8 202.855,58.016" fill="#4ade80" fill-opacity="0.672727" stroke-opacity="0.672727" />
  <polygon points="228,51.6 228.994,57.936 234.567,54.7627 230.233,59.4902 236.189,61.8692 229.791,61.4284 231.645,67.5681 228,62.2909 224.355,67.5681 226.209,61.4284 219.811,61.8692 225.767,59.4902 221.433,54.7627 227.006,57.936" fill="#4ade80" fill-opacity="0.7" stroke-opacity="0.7" />
  <polygon points="252,51.6 252.994,57.936 258.567,54.7627 254.233,59.4902 260.189,61.8692 253.791,61.4284 255.645,67.5681 252,62.2909 248.355,67.5681 250.209,61.4284 243.811,61.8692 249.767,59.4902 245.433,54.7627 251.006,57.936" fill="#4ade80" fill-opacity="0.727273" stroke-opacity="0.727273" />
  <polygon points="276,51.6 276.877,57.8835 281.94,54.0603 278.117,59.1233 284.4,60 278.117,60.8767 281.94,65.9397 276.877,62.1165 276,68.4 275.123,62.1165 270.06,65.9397 273.883,60.8767 267.6,60 273.883,59.1233 270.06,54.0603 275.123,57.8835" fill="#4ade80" fill-opacity="0.754545" stroke-opacity="0.754545" />
  <polygon points="12,75.6 13.8359,82.1641 20.4,84 13.8359,85.8359 12,92.4 10.1641,85.8359 3.6,84 10.1641,82.1641" fill="#4ade80" fill-opacity="0.481818" stroke-opacity="0.481818" />
  <polygon points="36,75.6 37.8359,82.1641 44.4,84 37.8359,85.8359 36,92.4 34.1641,85.8359 27.6,84 34.1641,82.1641" fill="#4ade80" fill-opacity="0.509091" stroke-opacity="0.509091" />
  <polygon points="60,75.6 61.8359,82.1641 68.4,84 61.8359,85.8359 60,92.4 58.1641,85.8359 51.6,84 58.1641,82.1641" fill="#4ade80" fill-opacity="0.536364" stroke-opacity="0.536364" />
  <polygon points="84,75.6 85.5261,81.8995 91.9889,81.4043 86.4693,84.8023 88.9374,90.7957 84,86.5964 79.0626,90.7957 81.5307,84.8023 76.0111,81.4043 82.4739,81.8995" fill="#4ade80" fill-opacity="0.563636" stroke-opacity="0.563636" />
  <polygon points="108,75.6 109.526,81.8995 115.989,81.4043 110.469,84.8023 112.937,90.7957 108,86.5964 103.063,90.7957 105.531,84.8023 100.011,81.4043 106.474,81.8995" fill="#4ade80" fill-opacity="0.590909" stroke-opacity="0.590909" />
  <polygon points="132,75.6 133.526,81.8995 139.989,81.4043 134.469,84.8023 136.937,90.7957 132,86.5964 127.063,90.7957 129.531,84.8023 124.011,81.4043 130.474,81.8995" fill="#4ade80" fill-opacity="0.618182" stroke-opacity="0.618182" />
  <polygon points="156,75.6 157.298,81.7515 163.275,79.8 158.596,84 163.275,88.2 157.298,86.2485 156,92.4 154.702,86.2485 148.725,88.2 153.404,84 148.725,79.8 154.702,81.7515" fill="#4ade80" fill-opacity="0.645455" stroke-opacity="0.645455" />
  <polygon points="180,75.6 181.298,81.7515 187.275,79.8 182.596,84 187.275,88.2 181.298,86.2485 180,92.4 178.702,86.2485 172.725,88.2 177.404,84 172.725,79.8 178.702,81.7515" fill="#4ade80" fill-opacity="0.672727" stroke-opacity="0.672727" />
  <polygon points="204,75.6 205.298,81.7515 211.275,79.8 206.596,84 211.275,88.2 205.298,86.2485 204,92.4 202.702,86.2485 196.725,88.2 201.404,84 196.725,79.8 202.702,81.7515" fill="#4ade80" fill-opacity="0.7" stroke-opacity="0.7" />
  <polygon points="228,75.6 229.127,81.6608 234.567,78.7627 230.531,83.4223 236.189,85.8692 230.03,85.6188 231.645,91.5681 228,86.5964 224.355,91.5681 225.97,85.6188 219.811,85.8692 225.469,83.4223 221.433,78.7627 226.873,81.6608" fill="#4ade80" fill-opacity="0.727273" stroke-opacity="0.727273" />
  <polygon points="252,75.6 253.127,81.6608 258.567,78.7627 254.531,83.4223 260.189,85.8692 254.03,85.6188 255.645,91.5681 252,86.5964 248.355,91.5681 249.97,85.6188 243.811,85.8692 249.469,83.4223 245.433,78.7627 250.873,81.6608" fill="#4ade80" fill-opacity="0.754545" stroke-opacity="0.754545" />
  <polygon points="276,75.6 276.994,81.6013 281.94,78.0603 278.399,83.0064 284.4,84 278.399,84.9936 281.94,89.9397 276.994,86.3987 276,92.4 275.006,86.3987 270.06,89.9397 273.601,84.9936 267.6,84 273.601,83.0064 270.06,78.0603 275.006,81.6013" fill="#4ade80" fill-opacity="0.781818" stroke-opacity="0.781818" />
  <polygon points="12,99.6 14.0519,105.948 20.4,108 14.0519,110.052 12,116.4 9.9481,110.052 3.6,108 9.9481,105.948" fill="#4ade80" fill-opacity="0.509091" stroke-opacity="0.509091" />
  <polygon points="36,99.6 38.0519,105.948 44.4,108 38.0519,110.052 36,116.4 33.9481,110.052 27.6,108 33.9481,105.948" fill="#4ade80" fill-opacity="0.536364" stroke-opacity="0.536364" />
  <polygon points="60,99.6 62.0519,105.948 68.4,108 62.0519,110.052 60,116.4 57.9481,110.052 51.6,108 57.9481,105.948" fill="#4ade80" fill-opacity="0.563636" stroke-opacity="0.563636" />
  <polygon points="84,99.6 85.7056,105.652 91.9889,105.404 86.7598,108.897 88.9374,114.796 84,110.902 79.0626,114.796 81.2402,108.897 76.0111,105.404 82.2944,105.652" fill="#4ade80" fill-opacity="0.590909" stroke-opacity="0.590909" />
  <polygon points="108,99.6 109.706,105.652 115.989,105.404 110.76,108.897 112.937,114.796 108,110.902 103.063,114.796 105.24,108.897 100.011,105.404 106.294,105.652" fill="#4ade80" fill-opacity="0.618182" stroke-opacity="0.618182" />
  <polygon points="132,99.6 133.706,105.652 139.989,105.404 134.76,108.897 136.937,114.796 132,110.902 127.063,114.796 129.24,108.897 124.011,105.404 130.294,105.652" fill="#4ade80" fill-opacity="0.645455" stroke-opacity="0.645455" />
  <polygon points="156,99.6 157.451,105.487 163.275,103.8 158.902,108 163.275,112.2 157.451,110.513 156,116.4 154.549,110.513 148.725,112.2 153.098,108 148.725,103.8 154.549,105.487" fill="#4ade80" fill-opacity="0.672727" stroke-opacity="0.672727" />
  <polygon points="180,99.6 181.451,105.487 187.275,103.8 182.902,108 187.275,112.2 181.451,110.513 180,116.4 178.549,110.513 172.725,112.2 177.098,108 172.725,103.8 178.549,105.487" fill="#4ade80" fill-opacity="0.7" stroke-opacity="0.7" />
  <polygon points="204,99.6 205.451,105.487 211.275,103.8 206.902,108 211.275,112.2 205.451,110.513 204,116.4 202.549,110.513 196.725,112.2 201.098,108 196.725,103.8 202.549,105.487" fill="#4ade80" fill-opacity="0.727273" stroke-opacity="0.727273" />
  <polygon points="228,99.6 229.259,105.386 234.567,102.763 230.829,107.354 236.189,109.869 230.269,109.809 231.645,115.568 228,110.902 224.355,115.568 225.731,109.809 219.811,109.869 225.171,107.354 221.433,102.763 226.741,105.386" fill="#4ade80" fill-opacity="0.754545" stroke-opacity="0.754545" />
  <polygon points="252,99.6 253.259,105.386 258.567,102.763 254.829,107.354 260.189,109.869 254.269,109.809 255.645,115.568 252,110.902 248.355,115.568 249.731,109.809 243.811,109.869 249.171,107.354 245.433,102.763 250.741,105.386" fill="#4ade80" fill-opacity="0.781818" stroke-opacity="0.781818" />
  <polygon points="276,99.6 277.11,105.319 281.94,102.06 278.681,106.89 284.4,108 278.681,109.11 281.94,113.94 277.11,110.681 276,116.4 274.89,110.681 270.06,113.94 273.319,109.11 267.6,108 273.319,106.89 270.06,102.06 274.89,105.319" fill="#4ade80" fill-opacity="0.809091" stroke-opacity="0.809091" />
  <polygon points="12,123.6 14.2679,129.732 20.4,132 14.2679,134.268 12,140.4 9.73212,134.268 3.6,132 9.73212,129.732" fill="#4ade80" fill-opacity="0.536364" stroke-opacity="0.536364" />
  <polygon points="36,123.6 38.2679,129.732 44.4,132 38.2679,134.268 36,140.4 33.7321,134.268 27.6,132 33.7321,129.732" fill="#4ade80" fill-opacity="0.563636" stroke-opacity="0.563636" />
  <polygon points="60,123.6 62.2679,129.732 68.4,132 62.2679,134.268 60,140.4 57.7321,134.268 51.6,132 57.7321,129.732" fill="#4ade80" fill-opacity="0.590909" stroke-opacity="0.590909" />
  <polygon points="84,123.6 85.8852,129.405 91.9889,129.404 87.0503,132.991 88.9374,138.796 84,135.207 79.0626,138.796 80.9497,132.991 76.0111,129.404 82.1148,129.405" fill="#4ade80" fill-opacity="0.618182" stroke-opacity="0.618182" />
  <polygon points="108,123.6 109.885,129.405 115.989,129.404 111.05,132.991 112.937,138.796 108,135.207 103.063,138.796 104.95,132.991 100.011,129.404 106.115,129.405" fill="#4ade80" fill-opacity="0.645455" stroke-opacity="0.645455" />
  <polygon points="132,123.6 133.885,129.405 139.989,129.404 135.05,132.991 136.937,138.796 132,135.207 127.063,138.796 128.95,132.991 124.011,129.404 130.115,129.405" fill="#4ade80" fill-opacity="0.672727" stroke-opacity="0.672727" />
  <polygon points="156,123.6 157.604,129.222 163.275,127.8 159.207,132 163.275,136.2 157.604,134.778 156,140.4 154.396,134.778 148.725,136.2 152.793,132 148.725,127.8 154.396,129.222" fill="#4ade80" fill-opacity="0.7" stroke-opacity="0.7" />
  <polygon points="180,123.6 181.604,129.222 187.275,127.8 183.207,132 187.275,136.2 181.604,134.778 180,140.4 178.396,134.778 172.725,136.2 176.793,132 172.725,127.8 178.396,129.222" fill="#4ade80" fill-opacity="0.727273" stroke-opacity="0.727273" />
  <polygon points="204,123.6 205.604,129.222 211.275,127.8 207.207,132 211.275,136.2 205.604,134.778 204,140.4 202.396,134.778 196.725,136.2 200.793,132 196.725,127.8 202.396,129.222" fill="#4ade80" fill-opacity="0.754545" stroke-opacity="0.754545" />
  <polygon points="228,123.6 229.392,129.11 234.567,126.763 231.127,131.286 236.189,133.869 230.508,134 231.645,139.568 228,135.207 224.355,139.568 225.492,134 219.811,133.869 224.873,131.286 221.433,126.763 226.608,129.11" fill="#4ade80" fill-opacity="0.781818" stroke-opacity="0.781818" />
  <polygon points="252,123.6 253.392,129.11 258.567,126.763 255.127,131.286 260.189,133.869 254.508,134 255.645,139.568 252,135.207 248.355,139.568 249.492,134 243.811,133.869 248.873,131.286 245.433,126.763 250.608,129.11" fill="#4ade80" fill-opacity="0.809091" stroke-opacity="0.809091" />
  <polygon points="276,123.6 277.227,129.037 281.94,126.06 278.963,130.773 284.4,132 278.963,133.227 281.94,137.94 277.227,134.963 276,140.4 274.773,134.963 270.06,137.94 273.037,133.227 267.6,132 273.037,130.773 270.06,126.06 274.773,129.037" fill="#4ade80" fill-opacity="0.836364" stroke-opacity="0.836364" />
  <polygon points="12,147.6 14.4839,153.516 20.4,156 14.4839,158.484 12,164.4 9.51613,158.484 3.6,156 9.51613,153.516" fill="#4ade80" fill-opacity="0.563636" stroke-opacity="0.563636" />
  <polygon points="36,147.6 38.4839,153.516 44.4,156 38.4839,158.484 36,164.4 33.5161,158.484 27.6,156 33.5161,153.516" fill="#4ade80" fill-opacity="0.590909" stroke-opacity="0.590909" />
  <polygon points="60,147.6 62.4839,153.516 68.4,156 62.4839,158.484 60,164.4 57.5161,158.484 51.6,156 57.5161,153.516" fill="#4ade80" fill-opacity="0.618182" stroke-opacity="0.618182" />
  <polygon points="84,147.6 86.0647,153.158 91.9889,153.404 87.3408,157.085 88.9374,162.796 84,159.513 79.0626,162.796 80.6592,157.085 76.0111,153.404 81.9353,153.158" fill="#4ade80" fill-opacity="0.645455" stroke-opacity="0.645455" />
  <polygon points="108,147.6 110.065,153.158 115.989,153.404 111.341,157.085 112.937,162.796 108,159.513 103.063,162.796 104.659,157.085 100.011,153.404 105.935,153.158" fill="#4ade80" fill-opacity="0.672727" stroke-opacity="0.672727" />
  <polygon points="132,147.6 134.065,153.158 139.989,153.404 135.341,157.085 136.937,162.796 132,159.513 127.063,162.796 128.659,157.085 124.011,153.404 129.935,153.158" fill="#4ade80" fill-opacity="0.7" stroke-opacity="0.7" />
  <polygon points="156,147.6 157.756,152.958 163.275,151.8 159.513,156 163.275,160.2 157.756,159.042 156,164.4 154.244,159.042 148.725,160.2 152.487,156 148.725,151.8 154.244,152.958" fill="#4ade80" fill-opacity="0.727273" stroke-opacity="0.727273" />
  <polygon points="180,147.6 181.756,152.958 187.275,151.8 183.513,156 187.275,160.2 181.756,159.042 180,164.4 178.244,159.042 172.725,160.2 176.487,156 172.725,151.8 178.244,152.958" fill="#4ade80" fill-opacity="0.754545" stroke-opacity="0.754545" />
  <polygon points="204,147.6 205.756,152.958 211.275,151.8 207.513,156 211.275,160.2 205.756,159.042 204,164.4 202.244,159.042 196.725,160.2 200.487,156 196.725,151.8 202.244,152.958" fill="#4ade80" fill-opacity="0.781818" stroke-opacity="0.781818" />
  <polygon points="228,147.6 229.524,152.835 234.567,150.763 231.425,155.218 236.189,157.869 230.746,158.19 231.645,163.568 228,159.513 224.355,163.568 225.254,158.19 219.811,157.869 224.575,155.218 221.433,150.763 226.476,152.835" fill="#4ade80" fill-opacity="0.809091" stroke-opacity="0.809091" />
  <polygon points="252,147.6 253.524,152.835 258.567,150.763 255.425,155.218 260.189,157.869 254.746,158.19 255.645,163.568 252,159.513 248.355,163.568 249.254,158.19 243.811,157.869 248.575,155.218 245.433,150.763 250.476,152.835" fill="#4ade80" fill-opacity="0.836364" stroke-opacity="0.836364" />
  <polygon points="276,147.6 277.344,152.755 281.94,150.06 279.245,154.656 284.4,156 279.245,157.344 281.94,161.94 277.344,159.245 276,164.4 274.656,159.245 270.06,161.94 272.755,157.344 267.6,156 272.755,154.656 270.06,150.06 274.656,152.755" fill="#4ade80" fill-opacity="0.863636" stroke-opacity="0.863636" />
  <polygon points="12,171.6 14.6999,177.3 20.4,180 14.6999,182.7 12,188.4 9.30014,182.7 3.6,180 9.30014,177.3" fill="#4ade80" fill-opacity="0.590909" stroke-opacity="0.590909" />
  <polygon points="36,171.6 38.6999,177.3 44.4,180 38.6999,182.7 36,188.4 33.3001,182.7 27.6,180 33.3001,177.3" fill="#4ade80" fill-opacity="0.618182" stroke-opacity="0.618182" />
  <polygon points="60,171.6 62.6999,177.3 68.4,180 62.6999,182.7 60,188.4 57.3001,182.7 51.6,180 57.3001,177.3" fill="#4ade80" fill-opacity="0.645455" stroke-opacity="0.645455" />
  <polygon points="84,171.6 86.2443,176.911 91.9889,177.404 87.6313,181.18 88.9374,186.796 84,183.818 79.0626,186.796 80.3687,181.18 76.0111,177.404 81.7557,176.911" fill="#4ade80" fill-opacity="0.672727" stroke-opacity="0.672727" />
  <polygon points="108,171.6 110.244,176.911 115.989,177.404 111.631,181.18 112.937,186.796 108,183.818 103.063,186.796 104.369,181.18 100.011,177.404 105.756,176.911" fill="#4ade80" fill-opacity="0.7" stroke-opacity="0.7" />
  <polygon points="132,171.6 134.244,176.911 139.989,177.404 135.631,181.18 136.937,186.796 132,183.818 127.063,186.796 128.369,181.18 124.011,177.404 129.756,176.911" fill="#4ade80" fill-opacity="0.727273" stroke-opacity="0.727273" />
  <polygon points="156,171.6 157.909,176.693 163.275,175.8 159.818,180 163.275,184.2 157.909,183.307 156,188.4 154.091,183.307 148.725,184.2 152.182,180 148.725,175.8 154.091,176.693" fill="#4ade80" fill-opacity="0.754545" stroke-opacity="0.754545" />
  <polygon points="180,171.6 181.909,176.693 187.275,175.8 183.818,180 187.275,184.2 181.909,183.307 180,188.4 178.091,183.307 172.725,184.2 176.182,180 172.725,175.8 178.091,176.693" fill="#4ade80" fill-opacity="0.781818" stroke-opacity="0.781818" />
  <polygon points="204,171.6 205.909,176.693 211.275,175.8 207.818,180 211.275,184.2 205.909,183.307 204,188.4 202.091,183.307 196.725,184.2 200.182,180 196.725,175.8 202.091,176.693" fill="#4ade80" fill-opacity="0.809091" stroke-opacity="0.809091" />
  <polygon points="228,171.6 229.657,176.56 234.567,174.763 231.722,179.15 236.189,181.869 230.985,182.381 231.645,187.568 228,183.818 224.355,187.568 225.015,182.381 219.811,181.869 224.278,179.15 221.433,174.763 226.343,176.56" fill="#4ade80" fill-opacity="0.836364" stroke-opacity="0.836364" />
  <polygon points="252,171.6 253.657,176.56 258.567,174.763 255.722,179.15 260.189,181.869 254.985,182.381 255.645,187.568 252,183.818 248.355,187.568 249.015,182.381 243.811,181.869 248.278,179.15 245.433,174.763 250.343,176.56" fill="#4ade80" fill-opacity="0.863636" stroke-opacity="0.863636" />
  <polygon points="276,171.6 277.461,176.472 281.94,174.06 279.528,178.539 284.4,180 279.528,181.461 281.94,185.94 277.461,183.528 276,188.4 274.539,183.528 270.06,185.94 272.472,181.461 267.6,180 272.472,178.539 270.06,174.06 274.539,176.472" fill="#4ade80" fill-opacity="0.890909" stroke-opacity="0.890909" />
  <polygon points="12,195.6 14.9159,201.084 20.4,204 14.9159,206.916 12,212.4 9.08415,206.916 3.6,204 9.08415,201.084" fill="#4ade80" fill-opacity="0.618182" stroke-opacity="0.618182" />
  <polygon points="36,195.6 38.9159,201.084 44.4,204 38.9159,206.916 36,212.4 33.0841,206.916 27.6,204 33.0841,201.084" fill="#4ade80" fill-opacity="0.645455" stroke-opacity="0.645455" />
  <polygon points="60,195.6 62.9159,201.084 68.4,204 62.9159,206.916 60,212.4 57.0841,206.916 51.6,204 57.0841,201.084" fill="#4ade80" fill-opacity="0.672727" stroke-opacity="0.672727" />
  <polygon points="84,195.6 86.4238,200.664 91.9889,201.404 87.9218,205.274 88.9374,210.796 84,208.124 79.0626,210.796 80.0782,205.274 76.0111,201.404 81.5762,200.664" fill="#4ade80" fill-opacity="0.7" stroke-opacity="0.7" />
  <polygon points="108,195.6 110.424,200.664 115.989,201.404 111.922,205.274 112.937,210.796 108,208.124 103.063,210.796 104.078,205.274 100.011,201.404 105.576,200.664" fill="#4ade80" fill-opacity="0.727273" stroke-opacity="0.727273" />
  <polygon points="132,195.6 134.424,200.664 139.989,201.404 135.922,205.274 136.937,210.796 132,208.124 127.063,210.796 128.078,205.274 124.011,201.404 129.576,200.664" fill="#4ade80" fill-opacity="0.754545" stroke-opacity="0.754545" />
  <polygon points="156,195.6 158.062,200.429 163.275,199.8 160.124,204 163.275,208.2 158.062,207.571 156,212.4 153.938,207.571 148.725,208.2 151.876,204 148.725,199.8 153.938,200.429" fill="#4ade80" fill-opacity="0.781818" stroke-opacity="0.781818" />
  <polygon points="180,195.6 182.062,200.429 187.275,199.8 184.124,204 187.275,208.2 182.062,207.571 180,212.4 177.938,207.571 172.725,208.2 175.876,204 172.725,199.8 177.938,200.429" fill="#4ade80" fill-opacity="0.809091" stroke-opacity="0.809091" />
  <polygon points="204,195.6 206.062,200.429 211.275,199.8 208.124,204 211.275,208.2 206.062,207.571 204,212.4 201.938,207.571 196.725,208.2 199.876,204 196.725,199.8 201.938,200.429" fill="#4ade80" fill-opacity="0.836364" stroke-opacity="0.836364" />
  <polygon points="228,195.6 229.789,200.285 234.567,198.763 232.02,203.082 236.189,205.869 231.224,206.571 231.645,211.568 228,208.124 224.355,211.568 224.776,206.571 219.811,205.869 223.98,203.082 221.433,198.763 226.211,200.285" fill="#4ade80" fill-opacity="0.863636" stroke-opacity="0.863636" />
  <polygon points="252,195.6 253.789,200.285 258.567,198.763 256.02,203.082 260.189,205.869 255.224,206.571 255.645,211.568 252,208.124 248.355,211.568 248.776,206.571 243.811,205.869 247.98,203.082 245.433,198.763 250.211,200.285" fill="#4ade80" fill-opacity="0.890909" stroke-opacity="0.890909" />
  <polygon points="276,195.6 277.578,200.19 281.94,198.06 279.81,202.422 284.4,204 279.81,205.578 281.94,209.94 277.578,207.81 276,212.4 274.422,207.81 270.06,209.94 272.19,205.578 267.6,204 272.19,202.422 270.06,198.06 274.422,200.19" fill="#4ade80" fill-opacity="0.918182" stroke-opacity="0.918182" />
  <polygon points="12,219.6 15.1318,224.868 20.4,228 15.1318,231.132 12,236.4 8.86816,231.132 3.6,228 8.86816,224.868" fill="#4ade80" fill-opacity="0.645455" stroke-opacity="0.645455" />
  <polygon points="36,219.6 39.1318,224.868 44.4,228 39.1318,231.132 36,236.4 32.8682,231.132 27.6,228 32.8682,224.868" fill="#4ade80" fill-opacity="0.672727" stroke-opacity="0.672727" />
  <polygon points="60,219.6 63.1318,224.868 68.4,228 63.1318,231.132 60,236.4 56.8682,231.132 51.6,228 56.8682,224.868" fill="#4ade80" fill-opacity="0.7" stroke-opacity="0.7" />
  <polygon points="84,219.6 86.6034,224.417 91.9889,225.404 88.2123,229.369 88.9374,234.796 84,232.429 79.0626,234.796 79.7877,229.369 76.0111,225.404 81.3966,224.417" fill="#4ade80" fill-opacity="0.727273" stroke-opacity="0.727273" />
  <polygon points="108,219.6 110.603,224.417 115.989,225.404 112.212,229.369 112.937,234.796 108,232.429 103.063,234.796 103.788,229.369 100.011,225.404 105.397,224.417" fill="#4ade80" fill-opacity="0.754545" stroke-opacity="0.754545" />
  <polygon points="132,219.6 134.603,224.417 139.989,225.404 136.212,229.369 136.937,234.796 132,232.429 127.063,234.796 127.788,229.369 124.011,225.404 129.397,224.417" fill="#4ade80" fill-opacity="0.781818" stroke-opacity="0.781818" />
  <polygon points="156,219.6 158.215,224.164 163.275,223.8 160.429,228 163.275,232.2 158.215,231.836 156,236.4 153.785,231.836 148.725,232.2 151.571,228 148.725,223.8 153.785,224.164" fill="#4ade80" fill-opacity="0.809091" stroke-opacity="0.809091" />
  <polygon points="180,219.6 182.215,224.164 187.275,223.8 184.429,228 187.275,232.2 182.215,231.836 180,236.4 177.785,231.836 172.725,232.2 175.571,228 172.725,223.8 177.785,224.164" fill="#4ade80" fill-opacity="0.836364" stroke-opacity="0.836364" />
  <polygon points="204,219.6 206.215,224.164 211.275,223.8 208.429,228 211.275,232.2 206.215,231.836 204,236.4 201.785,231.836 196.725,232.2 199.571,228 196.725,223.8 201.785,224.164" fill="#4ade80" fill-opacity="0.863636" stroke-opacity="0.863636" />
  <polygon points="228,219.6 229.922,224.01 234.567,222.763 232.318,227.014 236.189,229.869 231.463,230.761 231.645,235.568 228,232.429 224.355,235.568 224.537,230.761 219.811,229.869 223.682,227.014 221.433,222.763 226.078,224.01" fill="#4ade80" fill-opacity="0.890909" stroke-opacity="0.890909" />
  <polygon points="252,219.6 253.922,224.01 258.567,222.763 256.318,227.014 260.189,229.869 255.463,230.761 255.645,235.568 252,232.429 248.355,235.568 248.537,230.761 243.811,229.869 247.682,227.014 245.433,222.763 250.078,224.01" fill="#4ade80" fill-opacity="0.918182" stroke-opacity="0.918182" />
  <polygon points="276,219.6 277.695,223.908 281.94,222.06 280.092,226.305 284.4,228 280.092,229.695 281.94,233.94 277.695,232.092 276,236.4 274.305,232.092 270.06,233.94 271.908,229.695 267.6,228 271.908,226.305 270.06,222.06 274.305,223.908" fill="#4ade80" fill-opacity="0.945455" stroke-opacity="0.945455" />
  <polygon points="12,243.6 15.3478,248.652 20.4,252 15.3478,255.348 12,260.4 8.65217,255.348 3.6,252 8.65217,248.652" fill="#4ade80" fill-opacity="0.672727" stroke-opacity="0.672727" />
  <polygon points="36,243.6 39.3478,248.652 44.4,252 39.3478,255.348 36,260.4 32.6522,255.348 27.6,252 32.6522,248.652" fill="#4ade80" fill-opacity="0.7" stroke-opacity="0.7" />
  <polygon points="60,243.6 63.3478,248.652 68.4,252 63.3478,255.348 60,260.4 56.6522,255.348 51.6,252 56.6522,248.652" fill="#4ade80" fill-opacity="0.727273" stroke-opacity="0.727273" />
  <polygon points="84,243.6 86.7829,248.17 91.9889,249.404 88.5028,253.463 88.9374,258.796 84,256.735 79.0626,258.796 79.4972,253.463 76.0111,249.404 81.2171,248.17" fill="#4ade80" fill-opacity="0.754545" stroke-opacity="0.754545" />
  <polygon points="108,243.6 110.783,248.17 115.989,249.404 112.503,253.463 112.937,258.796 108,256.735 103.063,258.796 103.497,253.463 100.011,249.404 105.217,248.17" fill="#4ade80" fill-opacity="0.781818" stroke-opacity="0.781818" />
  <polygon points="132,243.6 134.783,248.17 139.989,249.404 136.503,253.463 136.937,258.796 132,256.735 127.063,258.796 127.497,253.463 124.011,249.404 129.217,248.17" fill="#4ade80" fill-opacity="0.809091" stroke-opacity="0.809091" />
  <polygon points="156,243.6 158.367,247.9 163.275,247.8 160.735,252 163.275,256.2 158.367,256.1 156,260.4 153.633,256.1 148.725,256.2 151.265,252 148.725,247.8 153.633,247.9" fill="#4ade80" fill-opacity="0.836364" stroke-opacity="0.836364" />
  <polygon points="180,243.6 182.367,247.9 187.275,247.8 184.735,252 187.275,256.2 182.367,256.1 180,260.4 177.633,256.1 172.725,256.2 175.265,252 172.725,247.8 177.633,247.9" fill="#4ade80" fill-opacity="0.863636" stroke-opacity="0.863636" />
  <polygon points="204,243.6 206.367,247.9 211.275,247.8 208.735,252 211.275,256.2 206.367,256.1 204,260.4 201.633,256.1 196.725,256.2 199.265,252 196.725,247.8 201.633,247.9" fill="#4ade80" fill-opacity="0.890909" stroke-opacity="0.890909" />
  <polygon points="228,243.6 230.054,247.734 234.567,246.763 232.616,250.946 236.189,253.869 231.702,254.952 231.645,259.568 228,256.735 224.355,259.568 224.298,254.952 219.811,253.869 223.384,250.946 221.433,246.763 225.946,247.734" fill="#4ade80" fill-opacity="0.918182" stroke-opacity="0.918182" />
  <polygon points="252,243.6 254.054,247.734 258.567,246.763 256.616,250.946 260.189,253.869 255.702,254.952 255.645,259.568 252,256.735 248.355,259.568 248.298,254.952 243.811,253.869 247.384,250.946 245.433,246.763 249.946,247.734" fill="#4ade80" fill-opacity="0.945455" stroke-opacity="0.945455" />
  <polygon points="276,243.6 277.812,247.626 281.94,246.06 280.374,250.188 284.4,252 280.374,253.812 281.94,257.94 277.812,256.374 276,260.4 274.188,256.374 270.06,257.94 271.626,253.812 267.6,252 271.626,250.188 270.06,246.06 274.188,247.626" fill="#4ade80" fill-opacity="0.972727" stroke-opacity="0.972727" />
  <polygon points="12,267.6 15.5638,272.436 20.4,276 15.5638,279.564 12,284.4 8.43618,279.564 3.6,276 8.43618,272.436" fill="#4ade80" fill-opacity="0.7" stroke-opacity="0.7" />
  <polygon points="36,267.6 39.5638,272.436 44.4,276 39.5638,279.564 36,284.4 32.4362,279.564 27.6,276 32.4362,272.436" fill="#4ade80" fill-opacity="0.727273" stroke-opacity="0.727273" />
  <polygon points="60,267.6 63.5638,272.436 68.4,276 63.5638,279.564 60,284.4 56.4362,279.564 51.6,276 56.4362,272.436" fill="#4ade80" fill-opacity="0.754545" stroke-opacity="0.754545" />
  <polygon points="84,267.6 86.9624,271.923 91.9889,273.404 88.7933,277.557 88.9374,282.796 84,281.04 79.0626,282.796 79.2067,277.557 76.0111,273.404 81.0376,271.923" fill="#4ade80" fill-opacity="0.781818" stroke-opacity="0.781818" />
  <polygon points="108,267.6 110.962,271.923 115.989,273.404 112.793,277.557 112.937,282.796 108,281.04 103.063,282.796 103.207,277.557 100.011,273.404 105.038,271.923" fill="#4ade80" fill-opacity="0.809091" stroke-opacity="0.809091" />
  <polygon points="132,267.6 134.962,271.923 139.989,273.404 136.793,277.557 136.937,282.796 132,281.04 127.063,282.796 127.207,277.557 124.011,273.404 129.038,271.923" fill="#4ade80" fill-opacity="0.836364" stroke-opacity="0.836364" />
  <polygon points="156,267.6 158.52,271.635 163.275,271.8 161.04,276 163.275,280.2 158.52,280.365 156,284.4 153.48,280.365 148.725,280.2 150.96,276 148.725,271.8 153.48,271.635" fill="#4ade80" fill-opacity="0.863636" stroke-opacity="0.863636" />
  <polygon points="180,267.6 182.52,271.635 187.275,271.8 185.04,276 187.275,280.2 182.52,280.365 180,284.4 177.48,280.365 172.725,280.2 174.96,276 172.725,271.8 177.48,271.635" fill="#4ade80" fill-opacity="0.890909" stroke-opacity="0.890909" />
  <polygon points="204,267.6 206.52,271.635 211.275,271.8 209.04,276 211.275,280.2 206.52,280.365 204,284.4 201.48,280.365 196.725,280.2 198.96,276 196.725,271.8 201.48,271.635" fill="#4ade80" fill-opacity="0.918182" stroke-opacity="0.918182" />
  <polygon points="228,267.6 230.187,271.459 234.567,270.763 232.914,274.878 236.189,277.869 231.94,279.142 231.645,283.568 228,281.04 224.355,283.568 224.06,279.142 219.811,277.869 223.086,274.878 221.433,270.763 225.813,271.459" fill="#4ade80" fill-opacity="0.945455" stroke-opacity="0.945455" />
  <polygon points="252,267.6 254.187,271.459 258.567,270.763 256.914,274.878 260.189,277.869 255.94,279.142 255.645,283.568 252,281.04 248.355,283.568 248.06,279.142 243.811,277.869 247.086,274.878 245.433,270.763 249.813,271.459" fill="#4ade80" fill-opacity="0.972727" stroke-opacity="0.972727" />
  <polygon points="276,267.6 277.929,271.344 281.94,270.06 280.656,274.071 284.4,276 280.656,277.929 281.94,281.94 277.929,280.656 276,284.4 274.071,280.656 270.06,281.94 271.344,277.929 267.6,276 271.344,274.071 270.06,270.06 274.071,271.344" fill="#4ade80" />
</svg>