<?xml version="1.0" encoding="UTF-8"?>
<svg xmlns="http://www.w3.org/2000/svg" width="288" height="288" viewBox="0 0 288 288">
  <rect width="100%" height="100%" fill="#0a1628" />
  <polygon points="15.23538290724796,12.6 9.0,16.2 2.764617092752043,12.600000000000003 2.7646170927520397,5.4 8.999999999999998,1.7999999999999996 15.23538290724796,5.400000000000003" fill="#00d9ff" stroke="#0077b6" stroke-width="0.5" fill-opacity="0.3" stroke-opacity="0.3" />
  <polygon points="33.23538290724796,12.6 27.0,16.2 20.764617092752044,12.600000000000003 20.76461709275204,5.4 27.0,1.7999999999999996 33.23538290724796,5.400000000000003" fill="#00d9ff" stroke="#0077b6" stroke-width="0.5" fill-opacity="0.32828854314002825" stroke-opacity="0.32828854314002825" />
  <polygon points="51.23538290724796,12.6 45.0,16.2 38.76461709275204,12.600000000000003 38.76461709275204,5.4 45.0,1.7999999999999996 51.23538290724796,5.400000000000003" fill="#00d9ff" stroke="#0077b6" stroke-width="0.5" fill-opacity="0.3565770862800566" stroke-opacity="0.3565770862800566" />
  <polygon points="69.23538290724795,12.6 63.0,16.2 56.76461709275204,12.600000000000003 56.76461709275204,5.4 63.0,1.7999999999999996 69.23538290724795,5.400000000000003" fill="#00d9ff" stroke="#0077b6" stroke-width="0.5" fill-opacity="0.38486562942008484" stroke-opacity="0.38486562942008484" />
  <polygon points="87.23538290724795,12.6 81.0,16.2 74.76461709275205,12.600000000000003 74.76461709275203,5.4 81.0,1.7999999999999996 87.23538290724795,5.400000000000003" fill="#00d9ff" stroke="#0077b6" stroke-width="0.5" fill-opacity="0.4131541725601131" stroke-opacity="0.4131541725601131" />
  <polygon points="105.23538290724795,12.6 99.0,16.2 92.76461709275205,12.600000000000003 92.76461709275203,5.4 99.0,1.7999999999999996 105.23538290724795,5.400000000000003" fill="#00d9ff" stroke="#0077b6" stroke-width="0.5" fill-opacity="0.44144271570014143" stroke-opacity="0.44144271570014143" />
  <polygon points="123.23538290724795,12.6 117.0,16.2 110.76461709275205,12.600000000000003 110.76461709275203,5.4 117.0,1.7999999999999996 123.23538290724795,5.400000000000003" fill="#00d9ff" stroke="#0077b6" stroke-width="0.5" fill-opacity="0.46973125884016975" stroke-opacity="0.46973125884016975" />
  <polygon points="141.23538290724795,12.6 135.0,16.2 128.76461709275205,12.600000000000003 128.76461709275205,5.4 135.0,1.7999999999999996 141.23538290724795,5.400000000000003" fill="#00d9ff" stroke="#0077b6" stroke-width="0.5" fill-opacity="0.498019801980198" stroke-opacity="0.498019801980198" />
  <polygon points="159.23538290724795,12.6 153.0,16.2 146.76461709275205,12.600000000000003 146.76461709275205,5.4 153.0,1.7999999999999996 159.23538290724795,5.400000000000003" fill="#00d9ff" stroke="#0077b6" stroke-width="0.5" fill-opacity="0.5263083451202263" stroke-opacity="0.5263083451202263" />
  <polygon points="177.23538290724795,12.6 171.0,16.2 164.76461709275205,12.600000000000003 164.76461709275205,5.4 171.0,1.7999999999999996 177.23538290724795,5.400000000000003" fill="#00d9ff" stroke="#0077b6" stroke-width="0.5" fill-opacity="0.5545968882602546" stroke-opacity="0.5545968882602546" />
  <polygon points="195.23538290724795,12.6 189.0,16.2 182.76461709275205,12.600000000000003 182.76461709275205,5.4 189.0,1.7999999999999996 195.23538290724795,5.400000000000003" fill="#00d9ff" stroke="#0077b6" stroke-width="0.5" fill-opacity="0.5828854314002829" stroke-opacity="0.5828854314002829" />
  <polygon points="213.23538290724795,12.6 207.0,16.2 200.76461709275205,12.600000000000003 200.76461709275205,5.4 207.0,1.7999999999999996 213.23538290724795,5.400000000000003" fill="#00d9ff" stroke="#0077b6" stroke-width="0.5" fill-opacity="0.6111739745403111" stroke-opacity="0.6111739745403111" />
  <polygon points="231.23538290724795,12.6 225.0,16.2 218.76461709275205,12.600000000000003 218.76461709275205,5.4 225.0,1.7999999999999996 231.23538290724795,5.400000000000003" fill="#00d9ff" stroke="#0077b6" stroke-width="0.5" fill-opacity="0.6394625176803395" stroke-opacity="0.6394625176803395" />
  <polygon points="249.23538290724795,12.6 243.0,16.2 236.76461709275205,12.600000000000003 236.76461709275205,5.4 243.0,1.7999999999999996 249.23538290724795,5.400000000000003" fill="#00d9ff" stroke="#0077b6" stroke-width="0.5" fill-opacity="0.6677510608203678" stroke-opacity="0.6677510608203678" />
  <polygon points="267.235382907248,12.6 261.0,16.2 254.76461709275205,12.600000000000003 254.76461709275205,5.4 261.0,1.7999999999999996 267.235382907248,5.400000000000003" fill="#00d9ff" stroke="#0077b6" stroke-width="0.5" fill-opacity="0.696039603960396" stroke-opacity="0.696039603960396" />
  <polygon points="285.235382907248,12.6 279.0,16.2 272.764617092752,12.600000000000003 272.764617092752,5.4 279.0,1.7999999999999996 285.235382907248,5.400000000000003" fill="#00d9ff" stroke="#0077b6" stroke-width="0.5" fill-opacity="0.7243281471004244" stroke-opacity="0.7243281471004244" />
  <polygon points="15.23538290724796,30.6 9.0,34.2 2.764617092752043,30.6 2.7646170927520397,23.4 8.999999999999998,19.8 15.23538290724796,23.400000000000002" fill="#00d9ff" stroke="#0077b6" stroke-width="0.5" fill-opacity="0.32828854314002825" stroke-opacity="0.32828854314002825" />
  <polygon points="33.20160293370661,30.657884778480803 26.93298032457252,34.19968807401443 20.73137739086591,30.54180329553363 20.798397066293386,23.342115221519197 27.06701967542748,19.80031192598557 33.2686226091341,23.458196704466374" fill="#00d9ff" stroke="#0077b6" stroke-width="0.5" fill-opacity="0.3400060413684044" stroke-opacity="0.3400060413684044" />
  <polygon points="51.16728561541326,30.715452615485315 44.86596645613901,34.19875232308489 38.69868084072575,30.483299707599574 38.83271438458674,23.284547384514685 45.13403354386099,19.801247676915114 51.30131915927425,23.51670029240043" fill="#00d9ff" stroke="#0077b6" stroke-width="0.5" fill-opacity="0.36325510544553863" stroke-opacity="0.36325510544553863" />
  <polygon points="69.13243392582994,30.77269852298457 62.7989642011903,34.197192828290554 56.66653027536036,30.424494305305984 56.86756607417006,23.22730147701543 63.2010357988097,19.80280717170945 69.33346972463963,23.57550569469402" fill="#00d9ff" stroke="#0077b6" stroke-width="0.5" fill-opacity="0.3894562280104209" stroke-opacity="0.3894562280104209" />
  <polygon points="87.09705088471988,30.829617540843536 80.73197936521095,34.19500972475558 74.63492848049107,30.36539218391204 74.90294911528011,23.170382459156464 81.26802063478905,19.80499027524443 87.36507151950893,23.634607816087964" fill="#00d9ff" stroke="#0077b6" stroke-width="0.5" fill-opacity="0.4166366513611785" stroke-opacity="0.4166366513611785" />
  <polygon points="105.06113955788585,30.886204737250893 98.66501775217623,34.19220320163738 92.60387819429037,30.305998464386487 92.93886044211413,23.113795262749104 99.33498224782377,19.807796798362624 105.39612180570963,23.694001535613516" fill="#00d9ff" stroke="#0077b6" stroke-width="0.5" fill-opacity="0.44424383348211555" stroke-opacity="0.44424383348211555" />
  <polygon points="123.02470305690451,30.942455209146363 116.59808516404922,34.188773502110266 110.57338210714471,30.246318292963903 110.97529694309547,23.057544790853637 117.40191483595078,19.811226497889738 123.4266178928553,23.7536817070361" fill="#00d9ff" stroke="#0077b6" stroke-width="0.5" fill-opacity="0.4720724902488888" stroke-opacity="0.4720724902488888" />
  <polygon points="140.98774453885684,30.99836408264553 134.53118740027813,34.18472092334435 128.54344286142128,30.186356840698817 129.01225546114316,23.00163591735447 135.46881259972187,19.815279076655656 141.45655713857872,23.813643159301186" fill="#00d9ff" stroke="#0077b6" stroke-width="0.5" fill-opacity="0.5000302068420219" stroke-opacity="0.5000302068420219" />
  <polygon points="158.95026720605458,31.05392651346216 152.4643302572938,34.180045816479804 146.51406305123922,30.126119303017646 147.04973279394542,22.94607348653784 153.5356697427062,19.819954183520203 159.48593694876078,23.873880696982358" fill="#00d9ff" stroke="#0077b6" stroke-width="0.5" fill-opacity="0.5280695261187708" stroke-opacity="0.5280695261187708" />
  <polygon points="176.91227430576265,31.10913768732791 170.39751952800734,34.174748586596436 164.48524522224466,30.065610899268524 165.08772569423735,22.89086231267209 171.60248047199266,19.82525141340357 177.51475477775534,23.93438910073148" fill="#00d9ff" stroke="#0077b6" stroke-width="0.5" fill-opacity="0.5561636531297713" stroke-opacity="0.5561636531297713" />
  <polygon points="194.87376912991803,31.163992820409504 188.3307610013084,34.16882969267859 182.45699187139033,30.00483687226909 183.12623087008197,22.836007179590496 189.6692389986916,19.831170307321408 195.54300812860967,23.995163127730912" fill="#00d9ff" stroke="#0077b6" stroke-width="0.5" fill-opacity="0.5842963400599969" stroke-opacity="0.5842963400599969" />
  <polygon points="212.83475501484426,31.218487159723207 206.2640604615634,34.162289647575406 200.4293054467191,29.9438024878522 201.16524498515574,22.781512840276797 207.7359395384366,19.837710352424608 213.5706945532809,24.05619751214781" fill="#00d9ff" stroke="#0077b6" stroke-width="0.5" fill-opacity="0.6124571716318885" stroke-opacity="0.6124571716318885" />
  <polygon points="230.79523534096256,31.272615983546654 224.19742368811447,34.1551290179563 218.40218834715188,29.882513034409648 219.20476465903744,22.727384016453353 225.80257631188553,19.84487098204371 231.59781165284812,24.11748696559036" fill="#00d9ff" stroke="#0077b6" stroke-width="0.5" fill-opacity="0.6406391677168967" stroke-opacity="0.6406391677168967" />
  <polygon points="248.75521353249883,31.32637460182798 242.1308564547786,34.14734842426197 236.37564292227978,29.820973822433995 237.24478646750117,22.673625398172028 243.8691435452214,19.85265157573804 249.62435707772022,24.179026177566016" fill="#00d9ff" stroke="#0077b6" stroke-width="0.5" fill-opacity="0.6688374769563026" stroke-opacity="0.6688374769563026" />
  <polygon points="266.714693057187,31.379758356592188 260.0643645293475,34.13894854065057 254.3496714721605,29.759190184058383 255.28530694281304,22.620241643407816 261.9356354706525,19.861051459349436 267.6503285278395,24.240809815941624" fill="#00d9ff" stroke="#0077b6" stroke-width="0.5" fill-opacity="0.6970486236949986" stroke-opacity="0.6970486236949986" />
  <polygon points="284.67367742596844,31.432762622344747 277.9979536730875,34.12993009493931 272.3242762471191,29.697167472594565 273.32632257403156,22.567237377655253 280.0020463269125,19.870069905060696 285.6757237528809,24.30283252740544" fill="#00d9ff" stroke="#0077b6" stroke-width="0.5" fill-opacity="0.7252700531364331" stroke-opacity="0.7252700531364331" />
  <polygon points="15.23538290724796,48.6 9.0,52.2 2.764617092752043,48.6 2.7646170927520397,41.4 8.999999999999998,37.8 15.23538290724796,41.400000000000006" fill="#00d9ff" stroke="#0077b6" stroke-width="0.5" fill-opacity="0.3565770862800566" stroke-opacity="0.3565770862800566" />
  <polygon points="33.16728561541326,48.71545261548532 26.865966456139013,52.19875232308489 20.698680840725753,48.48329970759958 20.832714384586737,41.28454738451468 27.134033543860987,37.80124767691511 33.30131915927425,41.51670029240043" fill="#00d9ff" stroke="#0077b6" stroke-width="0.5" fill-opacity="0.36325510544553863" stroke-opacity="0.36325510544553863" />
  <polygon points="51.097050884719884,48.829617540843536 44.73197936521095,52.19500972475558 38.63492848049106,48.36539218391204 38.902949115280116,41.170382459156464 45.26802063478905,37.80499027524442 51.36507151950894,41.634607816087964" fill="#00d9ff" stroke="#0077b6" stroke-width="0.5" fill-opacity="0.38001208273680875" stroke-opacity="0.38001208273680875" />
  <polygon points="69.02470305690451,48.94245520914636 62.59808516404922,52.188773502110266 56.573382107144695,48.246318292963906 56.97529694309547,41.05754479085363 63.40191483595078,37.811226497889734 69.42661789285529,41.7536817070361" fill="#00d9ff" stroke="#0077b6" stroke-width="0.5" fill-opacity="0.4019957927995471" stroke-opacity="0.4019957927995471" />
  <polygon points="86.95026720605458,49.05392651346216 80.46433025729378,52.180045816479804 74.5140630512392,48.126119303017646 75.04973279394541,40.94607348653784 81.53566974270622,37.819954183520196 87.4859369487608,41.87388069698236" fill="#00d9ff" stroke="#0077b6" stroke-width="0.5" fill-opacity="0.4265102108910772" stroke-opacity="0.4265102108910772" />
  <polygon points="104.87376912991803,49.163992820409504 98.33076100130837,52.16882969267859 92.45699187139034,48.00483687226909 93.12623087008195,40.836007179590496 99.66923899869163,37.83117030732141 105.54300812860966,41.99516312773092" fill="#00d9ff" stroke="#0077b6" stroke-width="0.5" fill-opacity="0.45233846696278657" stroke-opacity="0.45233846696278657" />
  <polygon points="122.79523534096258,49.27261598354665 116.19742368811445,52.1551290179563 110.40218834715188,47.88251303440965 111.20476465903741,40.72738401645335 117.80257631188555,37.8448709820437 123.59781165284812,42.11748696559036" fill="#00d9ff" stroke="#0077b6" stroke-width="0.5" fill-opacity="0.47891245602084187" stroke-opacity="0.47891245602084187" />
  <polygon points="140.71469305718696,49.379758356592184 134.06436452934747,52.13894854065057 128.3496714721605,47.75919018405838 129.28530694281304,40.620241643407816 135.93563547065253,37.86105145934943 141.6503285278395,42.240809815941624" fill="#00d9ff" stroke="#0077b6" stroke-width="0.5" fill-opacity="0.5059437026670586" stroke-opacity="0.5059437026670586" />
  <polygon points="158.6321701926879,49.48538280647236 151.93162964024094,52.12029386854141 146.29945944755306,47.63491106206905 147.3678298073121,40.51461719352764 154.06837035975906,37.87970613145859 159.70054055244694,42.365088937930956" fill="#00d9ff" stroke="#0077b6" stroke-width="0.5" fill-opacity="0.5332733027223571" stroke-opacity="0.5332733027223571" />
  <polygon points="176.54769534798567,49.589452726190565 169.79926502364407,52.09917146690764 164.25156967565837,47.50971874071707 165.45230465201433,40.410547273809435 172.20073497635593,37.90082853309236 177.7484303243416,42.49028125928294" fill="#00d9ff" stroke="#0077b6" stroke-width="0.5" fill-opacity="0.5608074811115384" stroke-opacity="0.5608074811115384" />
  <polygon points="194.46129780011185,49.69193204751448 187.66731655407804,52.07558865628618 182.2060187539662,47.3836566087717 183.53870219988815,40.30806795248552 190.33268344592196,37.92441134371382 195.7939812460338,42.616343391228305" fill="#00d9ff" stroke="#0077b6" stroke-width="0.5" fill-opacity="0.5884876669642312" stroke-opacity="0.5884876669642312" />
  <polygon points="212.37300749246253,49.79278525347646 205.5358299618372,52.049553609934925 200.16282246937467,47.256768356458466 201.62699250753747,40.20721474652355 208.4641700381628,37.95044639006509 213.83717753062533,42.74323164354155" fill="#00d9ff" stroke="#0077b6" stroke-width="0.5" fill-opacity="0.616275527227693" stroke-opacity="0.616275527227693" />
  <polygon points="230.2828550244207,49.891977390682925 223.40485081713985,52.021075351000064 218.12199579271913,47.12909796031715 219.7171449755793,40.10802260931709 226.59514918286015,37.97892464899995 231.87800420728087,42.870902039682875" fill="#00d9ff" stroke="#0077b6" stroke-width="0.5" fill-opacity="0.6441449804977777" stroke-opacity="0.6441449804977777" />
  <polygon points="248.19087164075114,49.989474081428384 241.27442451433456,51.9901637493889 236.08355287358344,47.000689667960515 237.80912835924886,40.01052591857163 244.72557548566544,38.009836250611116 249.91644712641656,42.99931033203951" fill="#00d9ff" stroke="#0077b6" stroke-width="0.5" fill-opacity="0.67207769272888" stroke-opacity="0.67207769272888" />
  <polygon points="266.09708922077175,50.085241535609974 259.14459625616786,51.95682951834912 254.04750703539614,46.87158798273915 255.9029107792283,39.91475846439003 262.85540374383214,38.04317048165088 267.9524929646039,43.128412017260864" fill="#00d9ff" stroke="#0077b6" stroke-width="0.5" fill-opacity="0.7000604136840438" stroke-opacity="0.7000604136840438" />
  <polygon points="284.0015402673048,50.179246562438294 277.0154110381176,51.9210842107559 272.0138707708128,46.741837648317606 273.9984597326952,39.820753437561706 280.9845889618824,38.0789157892441 285.9861292291872,43.2581623516824" fill="#00d9ff" stroke="#0077b6" stroke-width="0.5" fill-opacity="0.7280833366455886" stroke-opacity="0.7280833366455886" />
  <polygon points="15.23538290724796,66.6 9.0,70.2 2.764617092752043,66.60000000000001 2.7646170927520397,59.4 8.999999999999998,55.8 15.23538290724796,59.400000000000006" fill="#00d9ff" stroke="#0077b6" stroke-width="0.5" fill-opacity="0.38486562942008484" stroke-opacity="0.38486562942008484" />
  <polygon points="33.13243392582994,66.77269852298457 26.798964201190305,70.19719282829055 20.666530275360362,66.42449430530598 20.867566074170057,59.22730147701543 27.201035798809695,55.802807171709446 33.33346972463964,59.57550569469402" fill="#00d9ff" stroke="#0077b6" stroke-width="0.5" fill-opacity="0.3894562280104209" stroke-opacity="0.3894562280104209" />
  <polygon points="51.02470305690453,66.94245520914636 44.59808516404922,70.18877350211027 38.573382107144695,66.2463182929639 38.97529694309547,59.05754479085363 45.40191483595078,55.811226497889734 51.426617892855305,59.7536817070361" fill="#00d9ff" stroke="#0077b6" stroke-width="0.5" fill-opacity="0.4019957927995471" stroke-opacity="0.4019957927995471" />
  <polygon points="68.91227430576266,67.1091376873279 62.39751952800733,70.17474858659644 56.48524522224466,66.06561089926853 57.08772569423733,58.89086231267209 63.60248047199267,55.825251413403564 69.51475477775533,59.93438910073148" fill="#00d9ff" stroke="#0077b6" stroke-width="0.5" fill-opacity="0.42001812410521316" stroke-opacity="0.42001812410521316" />
  <polygon points="86.79523534096258,67.27261598354664 80.19742368811445,70.1551290179563 74.40218834715188,65.88251303440966 75.20476465903741,58.72738401645335 81.80257631188555,55.8448709820437 87.59781165284812,60.11748696559036" fill="#00d9ff" stroke="#0077b6" stroke-width="0.5" fill-opacity="0.44144271570014143" stroke-opacity="0.44144271570014143" />
  <polygon points="104.67367742596839,67.43276262234474 97.99795367308752,70.12993009493931 92.32427624711913,65.69716747259457 93.3263225740316,58.56723737765526 100.00204632691248,55.87006990506069 105.67572375288086,60.302832527405435" fill="#00d9ff" stroke="#0077b6" stroke-width="0.5" fill-opacity="0.464949134224761" stroke-opacity="0.464949134224761" />
  <polygon points="122.54769534798568,67.58945272619056 115.79926502364407,70.09917146690763 110.25156967565839,65.50971874071708 111.4523046520143,58.41054727380943 118.20073497635593,55.90082853309236 123.74843032434161,60.49028125928294" fill="#00d9ff" stroke="#0077b6" stroke-width="0.5" fill-opacity="0.4897653163366158" stroke-opacity="0.4897653163366158" />
  <polygon points="140.41738734404922,67.7425641128545 133.6015126712162,70.06287711851418 128.18412532716698,65.32031300565968 129.58261265595078,58.2574358871455 136.3984873287838,55.93712288148582 141.81587467283302,60.67968699434032" fill="#00d9ff" stroke="#0077b6" stroke-width="0.5" fill-opacity="0.5154391260498984" stroke-opacity="0.5154391260498984" />
  <polygon points="158.2828550244207,67.89197739068291 151.40485081713985,70.02107535100006 146.12199579271913,65.12909796031714 147.7171449755793,58.10802260931708 154.59514918286015,55.97892464899994 159.87800420728087,60.87090203968287" fill="#00d9ff" stroke="#0077b6" stroke-width="0.5" fill-opacity="0.5416974185379783" stroke-opacity="0.5416974185379783" />
  <polygon points="176.14420329335618,68.03757605169622 169.20943281241304,69.97379876012614 164.06522951905686,64.93622270842992 165.85579670664382,57.962423948303766 172.79056718758696,56.026201239873856 177.93477048094314,61.06377729157009" fill="#00d9ff" stroke="#0077b6" stroke-width="0.5" fill-opacity="0.5683686840312627" stroke-opacity="0.5683686840312627" />
  <polygon points="194.0015402673048,68.17924656243828 187.0154110381176,69.9210842107559 182.01387077081282,64.74183764831761 183.99845973269524,57.82075343756171 190.9845889618824,56.0789157892441 195.98612922918716,61.258162351682394" fill="#00d9ff" stroke="#0077b6" stroke-width="0.5" fill-opacity="0.5953410610724342" stroke-opacity="0.5953410610724342" />
  <polygon points="211.8549771906028,68.31687845250636 204.82293678659678,69.86297280810923 199.967959595994,64.54609435560288 202.1450228093972,57.68312154749364 209.1770632134032,56.13702719189079 214.032040404006,61.45390564439716" fill="#00d9ff" stroke="#0077b6" stroke-width="0.5" fill-opacity="0.6225390170011705" stroke-opacity="0.6225390170011705" />
  <polygon points="229.70462834872876,68.45036440069265 222.6321601434822,69.79950986570988 217.92753179475343,64.34914546501723 220.29537165127124,57.549635599307365 227.3678398565178,56.20049013429014 232.07246820524654,61.6508545349828" fill="#00d9ff" stroke="#0077b6" stroke-width="0.5" fill-opacity="0.6499099540835356" stroke-opacity="0.6499099540835356" />
  <polygon points="247.55061097918693,68.57960031867009 240.4432298706614,69.73074487005131 235.89261889147448,64.15114455138124 238.44938902081307,57.42039968132992 245.5567701293386,56.269255129948704 250.10738110852552,61.8488554486188" fill="#00d9ff" stroke="#0077b6" stroke-width="0.5" fill-opacity="0.6774162394378029" stroke-opacity="0.6774162394378029" />
  <polygon points="265.39304518008913,68.70448543215738 258.25629329027805,69.65673144200866 253.8632481101889,63.952246009851294 256.60695481991087,57.29551456784263 263.74370670972195,56.343268557991344 268.13675188981114,62.047753990148735" fill="#00d9ff" stroke="#0077b6" stroke-width="0.5" fill-opacity="0.7050302988196988" stroke-opacity="0.7050302988196988" />
  <polygon points="283.2320538165058,68.82492235949962 276.07149616985424,69.57752729502673 271.83944235334843,63.7526049355271 274.7679461834942,57.17507764050037 281.92850383014576,56.42247270497327 286.16055764665157,62.24739506447291" fill="#00d9ff" stroke="#0077b6" stroke-width="0.5" fill-opacity="0.7327315004463467" stroke-opacity="0.7327315004463467" />
  <polygon points="15.23538290724796,84.6 9.0,88.2 2.764617092752043,84.60000000000001 2.7646170927520397,77.4 8.999999999999998,73.8 15.23538290724796,77.4" fill="#00d9ff" stroke="#0077b6" stroke-width="0.5" fill-opacity="0.4131541725601131" stroke-opacity="0.4131541725601131" />
  <polygon points="33.097050884719884,84.82961754084353 26.73197936521095,88.19500972475558 20.63492848049107,84.36539218391205 20.902949115280116,77.17038245915647 27.26802063478905,73.80499027524442 33.36507151950894,77.63460781608796" fill="#00d9ff" stroke="#0077b6" stroke-width="0.5" fill-opacity="0.4166366513611785" stroke-opacity="0.4166366513611785" />
  <polygon points="50.95026720605458,85.05392651346214 44.46433025729379,88.1800458164798 38.514063051239205,84.12611930301765 39.04973279394542,76.94607348653786 45.53566974270622,73.8199541835202 51.485936948760795,77.87388069698237" fill="#00d9ff" stroke="#0077b6" stroke-width="0.5" fill-opacity="0.4265102108910772" stroke-opacity="0.4265102108910772" />
  <polygon points="68.79523534096258,85.27261598354664 62.197423688114455,88.1551290179563 56.40218834715188,83.88251303440966 57.204764659037416,76.72738401645336 63.802576311885545,73.8448709820437 69.59781165284812,78.11748696559036" fill="#00d9ff" stroke="#0077b6" stroke-width="0.5" fill-opacity="0.44144271570014143" stroke-opacity="0.44144271570014143" />
  <polygon points="86.63217019268791,85.48538280647236 79.93162964024096,88.12029386854141 74.29945944755305,83.63491106206905 75.36782980731209,76.51461719352764 82.06837035975904,73.87970613145859 87.70054055244695,78.36508893793096" fill="#00d9ff" stroke="#0077b6" stroke-width="0.5" fill-opacity="0.4600241654736176" stroke-opacity="0.4600241654736176" />
  <polygon points="104.46129780011185,85.69193204751447 97.66731655407806,88.07558865628619 92.2060187539662,83.3836566087717 93.53870219988814,76.30806795248553 100.33268344592194,73.92441134371381 105.7939812460338,78.61634339122831" fill="#00d9ff" stroke="#0077b6" stroke-width="0.5" fill-opacity="0.48113505622157987" stroke-opacity="0.48113505622157987" />
  <polygon points="122.28285502442071,85.89197739068291 115.40485081713983,88.02107535100006 110.12199579271913,83.12909796031715 111.71714497557929,76.10802260931709 118.59514918286017,73.97892464899994 123.87800420728087,78.87090203968287" fill="#00d9ff" stroke="#0077b6" stroke-width="0.5" fill-opacity="0.5039915855990942" stroke-opacity="0.5039915855990942" />
  <polygon points="140.09708922077172,86.08524153560995 133.14459625616783,87.95682951834912 128.04750703539614,82.87158798273916 129.9029107792283,75.91475846439005 136.85540374383217,74.04317048165088 141.95249296460386,79.12841201726086" fill="#00d9ff" stroke="#0077b6" stroke-width="0.5" fill-opacity="0.5280695261187709" stroke-opacity="0.5280695261187709" />
  <polygon points="157.90425789541243,86.2714565819406 150.88691363279898,87.88294021510787 145.98265573738655,82.61148363316728 148.09574210458757,75.7285434180594 155.11308636720105,74.11705978489213 160.01734426261345,79.38851636683273" fill="#00d9ff" stroke="#0077b6" stroke-width="0.5" fill-opacity="0.5530204217821544" stroke-opacity="0.5530204217821544" />
  <polygon points="175.70462834872876,86.45036440069264 168.6321601434822,87.79950986570987 163.92753179475343,82.34914546501723 166.29537165127124,75.54963559930736 173.3678398565178,74.20049013429013 178.07246820524657,79.65085453498278" fill="#00d9ff" stroke="#0077b6" stroke-width="0.5" fill-opacity="0.5786098388061133" stroke-opacity="0.5786098388061133" />
  <polygon points="193.49847730471652,86.62171699207194 186.3806889243373,87.70665412026823 181.8822116196208,82.08493712819629 184.50152269528348,75.37828300792806 191.6193110756627,74.29334587973177 196.1177883803792,79.91506287180373" fill="#00d9ff" stroke="#0077b6" stroke-width="0.5" fill-opacity="0.6046769339255731" stroke-opacity="0.6046769339255731" />
  <polygon points="211.28609052739,86.78527682924661 204.13284856164196,87.60450169426291 199.84675803425196,81.81922486501631 202.71390947261,75.21472317075342 209.86715143835806,74.39549830573712 214.15324196574804,80.18077513498373" fill="#00d9ff" stroke="#0077b6" stroke-width="0.5" fill-opacity="0.6311089083654774" stroke-opacity="0.6311089083654774" />
  <polygon points="229.06776242465955,86.94081718760373 221.88898260862572,87.49319419011684 217.82122018396618,81.55237700251311 220.93223757534045,75.0591828123963 228.11101739137428,74.50680580988319 232.17877981603382,80.44762299748692" fill="#00d9ff" stroke="#0077b6" stroke-width="0.5" fill-opacity="0.6578249120416837" stroke-opacity="0.6578249120416837" />
  <polygon points="246.8437956402269,87.08812245903225 239.64942910924094,87.37288590090849 235.80563346901405,81.28476344187625 239.1562043597731,74.91187754096778 246.35057089075906,74.62711409909154 250.19436653098595,80.71523655812379" fill="#00d9ff" stroke="#0077b6" stroke-width="0.5" fill-opacity="0.6847657852541851" stroke-opacity="0.6847657852541851" />
  <polygon points="264.6145006340642,87.22698845079623 257.4145201295703,87.24374359649266 253.80001949550606,81.01675514569645 257.3854993659358,74.77301154920379 264.58547987042977,74.75625640350734 268.19998050449396,80.98324485430358" fill="#00d9ff" stroke="#0077b6" stroke-width="0.5" fill-opacity="0.7118874053341171" stroke-opacity="0.7118874053341171" />
  <polygon points="282.38019525205846,87.35722266858428 275.18458129752094,87.10594629232627 271.8043860454625,80.748723623742 275.61980474794154,74.64277733141572 282.81541870247906,74.89405370767373 286.1956139545375,81.25127637625802" fill="#00d9ff" stroke="#0077b6" stroke-width="0.5" fill-opacity="0.7391562856084872" stroke-opacity="0.7391562856084872" />
  <polygon points="15.23538290724796,102.6 9.0,106.2 2.764617092752043,102.60000000000001 2.7646170927520397,95.4 8.999999999999998,91.8 15.23538290724796,95.4" fill="#00d9ff" stroke="#0077b6" stroke-width="0.5" fill-opacity="0.44144271570014143" stroke-opacity="0.44144271570014143" />
  <polygon points="33.06113955788586,102.88620473725089 26.665017752176226,106.19220320163738 20.603878194290374,102.30599846438649 20.938860442114144,95.11379526274911 27.334982247823778,91.80779679836262 33.39612180570963,95.69400153561352" fill="#00d9ff" stroke="#0077b6" stroke-width="0.5" fill-opacity="0.44424383348211555" stroke-opacity="0.44424383348211555" />
  <polygon points="50.873769129918045,103.1639928204095 44.330761001308375,106.1688296926786 38.456991871390336,102.0048368722691 39.12623087008196,94.8360071795905 45.669238998691625,91.8311703073214 51.543008128609664,95.99516312773092" fill="#00d9ff" stroke="#0077b6" stroke-width="0.5" fill-opacity="0.45233846696278657" stroke-opacity="0.45233846696278657" />
  <polygon points="68.67367742596839,103.43276262234474 61.99795367308753,106.12993009493931 56.32427624711913,101.69716747259457 57.3263225740316,94.56723737765526 64.00204632691248,91.87006990506069 69.67572375288087,96.30283252740544" fill="#00d9ff" stroke="#0077b6" stroke-width="0.5" fill-opacity="0.464949134224761" stroke-opacity="0.464949134224761" />
  <polygon points="86.46129780011185,103.69193204751447 79.66731655407806,106.07558865628619 74.2060187539662,101.3836566087717 75.53870219988814,94.30806795248553 82.33268344592194,91.92441134371381 87.7939812460338,96.61634339122831" fill="#00d9ff" stroke="#0077b6" stroke-width="0.5" fill-opacity="0.48113505622157987" stroke-opacity="0.48113505622157987" />
  <polygon points="104.23709021932595,103.94093979265487 97.33956573065443,106.00592306817474 92.10247551132849,101.06498327551986 93.76290978067405,94.05906020734513 100.66043426934557,91.99407693182526 105.89752448867152,96.93501672448015" fill="#00d9ff" stroke="#0077b6" stroke-width="0.5" fill-opacity="0.5000302068420219" stroke-opacity="0.5000302068420219" />
  <polygon points="122.00154026730478,104.17924656243828 115.0154110381176,105.9210842107559 110.01387077081283,100.74183764831761 111.99845973269521,93.82075343756172 118.9845889618824,92.0789157892441 123.98612922918717,97.2581623516824" fill="#00d9ff" stroke="#0077b6" stroke-width="0.5" fill-opacity="0.5209405848912774" stroke-opacity="0.5209405848912774" />
  <polygon points="139.75515809279287,104.40633623746679 132.6955545233498,105.82125582610317 127.94039643055696,100.4149195886364 130.24484190720716,93.59366376253321 137.3044454766502,92.17874417389683 142.05960356944306,97.58508041136363" fill="#00d9ff" stroke="#0077b6" stroke-width="0.5" fill-opacity="0.5433472494212908" stroke-opacity="0.5433472494212908" />
  <polygon points="157.49847730471652,104.62171699207194 150.3806889243373,105.70665412026823 145.8822116196208,100.08493712819629 148.50152269528348,93.37828300792806 155.6193110756627,92.29334587973177 160.1177883803792,97.91506287180373" fill="#00d9ff" stroke="#0077b6" stroke-width="0.5" fill-opacity="0.5668735822363962" stroke-opacity="0.5668735822363962" />
  <polygon points="175.2320538165058,104.82492235949961 168.07149616985424,105.57752729502673 163.83944235334843,99.75260493552712 166.7679461834942,93.17507764050039 173.92850383014576,92.42247270497327 178.16055764665157,98.2473950644729" fill="#00d9ff" stroke="#0077b6" stroke-width="0.5" fill-opacity="0.5912483773970862" stroke-opacity="0.5912483773970862" />
  <polygon points="192.9564646421098,105.01551224217313 185.76864590255667,105.43415501032857 181.81218126044686,99.41864276815544 185.0435353578902,92.98448775782687 192.23135409744333,92.56584498967143 196.18781873955314,98.58135723184458" fill="#00d9ff" stroke="#0077b6" stroke-width="0.5" fill-opacity="0.6162755272276931" stroke-opacity="0.6162755272276931" />
  <polygon points="210.67230664631288,105.19307386484664 203.47279402868577,105.27684777861671 199.80048738237292,99.08377391377009 203.32769335368715,92.80692613515339 210.52720597131423,92.72315222138333 214.19951261762708,98.91622608622995" fill="#00d9ff" stroke="#0077b6" stroke-width="0.5" fill-opacity="0.6418117672869752" stroke-opacity="0.6418117672869752" />
  <polygon points="228.38019525205843,105.35722266858428 221.18458129752094,105.10594629232628 217.8043860454625,98.74872362374202 221.6198047479416,92.64277733141574 228.8154187024791,92.89405370767375 232.1956139545375,99.25127637625802" fill="#00d9ff" stroke="#0077b6" stroke-width="0.5" fill-opacity="0.6677510608203678" stroke-opacity="0.6677510608203678" />
  <polygon points="246.0807631075799,105.50760314362935 238.90463191365947,104.9218206860208 235.82386880607956,98.41421754239146 239.9192368924201,92.49239685637068 247.09536808634053,93.07817931397925 250.17613119392044,99.5857824576086" fill="#00d9ff" stroke="#0077b6" stroke-width="0.5" fill-opacity="0.6940138126501872" stroke-opacity="0.6940138126501872" />
  <polygon points="263.77465871622564,105.6438895993592 256.63355218512856,104.7248697347629 253.85889346890292,98.08098013540373 258.22534128377436,92.35611040064083 265.3664478148715,93.2751302652371 268.1411065310971,99.91901986459631" fill="#00d9ff" stroke="#0077b6" stroke-width="0.5" fill-opacity="0.7205394270811458" stroke-opacity="0.7205394270811458" />
  <polygon points="281.46254503194484,105.76578686965856 274.37192921025695,104.51551999045665 271.9093841783121,97.7497331207981 276.53745496805516,92.23421313034146 283.6280707897431,93.48448000954336 286.09061582168795,100.25026687920192" fill="#00d9ff" stroke="#0077b6" stroke-width="0.5" fill-opacity="0.7472811400521047" stroke-opacity="0.7472811400521047" />
  <polygon points="15.23538290724796,120.6 9.0,124.2 2.764617092752043,120.60000000000001 2.7646170927520397,113.4 8.999999999999998,109.8 15.23538290724796,113.4" fill="#00d9ff" stroke="#0077b6" stroke-width="0.5" fill-opacity="0.46973125884016975" stroke-opacity="0.46973125884016975" />
  <polygon points="33.02470305690453,120.94245520914636 26.59808516404922,124.18877350211027 20.5733821071447,120.2463182929639 20.975296943095472,113.05754479085364 27.40191483595078,109.81122649788973 33.426617892855305,113.75368170703611" fill="#00d9ff" stroke="#0077b6" stroke-width="0.5" fill-opacity="0.4720724902488888" stroke-opacity="0.4720724902488888" />
  <polygon points="50.795235340962584,121.27261598354664 44.197423688114455,124.1551290179563 38.40218834715187,119.88251303440966 39.204764659037416,112.72738401645336 45.802576311885545,109.8448709820437 51.59781165284812,114.11748696559036" fill="#00d9ff" stroke="#0077b6" stroke-width="0.5" fill-opacity="0.47891245602084187" stroke-opacity="0.47891245602084187" />
  <polygon points="68.54769534798568,121.58945272619056 61.79926502364406,124.09917146690763 56.25156967565838,119.50971874071708 57.45230465201431,112.41054727380944 64.20073497635593,109.90082853309237 69.74843032434161,114.49028125928294" fill="#00d9ff" stroke="#0077b6" stroke-width="0.5" fill-opacity="0.4897653163366158" stroke-opacity="0.4897653163366158" />
  <polygon points="86.28285502442071,121.89197739068291 79.40485081713983,124.02107535100006 74.12199579271913,119.12909796031714 75.71714497557927,112.10802260931709 82.59514918286017,109.97892464899994 87.87800420728087,114.87090203968287" fill="#00d9ff" stroke="#0077b6" stroke-width="0.5" fill-opacity="0.5039915855990942" stroke-opacity="0.5039915855990942" />
  <polygon points="104.00154026730478,122.17924656243828 97.0154110381176,123.9210842107559 92.01387077081283,118.74183764831761 93.99845973269521,111.82075343756172 100.9845889618824,110.0789157892441 105.98612922918717,115.2581623516824" fill="#00d9ff" stroke="#0077b6" stroke-width="0.5" fill-opacity="0.5209405848912774" stroke-opacity="0.5209405848912774" />
  <polygon points="121.70462834872876,122.45036440069264 114.6321601434822,123.79950986570987 109.92753179475345,118.34914546501723 112.29537165127122,111.54963559930735 119.3678398565178,110.20049013429013 124.07246820524655,115.65085453498278" fill="#00d9ff" stroke="#0077b6" stroke-width="0.5" fill-opacity="0.5400362482104264" stroke-opacity="0.5400362482104264" />
  <polygon points="139.39304518008913,122.70448543215737 132.25629329027802,123.65673144200866 127.8632481101889,117.9522460098513 130.60695481991087,111.29551456784263 137.74370670972198,110.34326855799134 142.13675188981108,116.04775399014872" fill="#00d9ff" stroke="#0077b6" stroke-width="0.5" fill-opacity="0.5608074811115384" stroke-opacity="0.5608074811115384" />
  <polygon points="157.06776242465955,122.94081718760371 149.88898260862572,123.49319419011682 145.82122018396618,117.55237700251311 148.93223757534045,111.05918281239629 156.11101739137428,110.50680580988318 160.17877981603382,116.4476229974869" fill="#00d9ff" stroke="#0077b6" stroke-width="0.5" fill-opacity="0.5828854314002829" stroke-opacity="0.5828854314002829" />
  <polygon points="174.72979446748653,123.15862267315563 167.53137354646765,123.30940809631582 163.80157907898112,117.15078542316019 167.27020553251347,110.84137732684437 174.46862645353235,110.69059190368418 178.19842092101888,116.84921457683983" fill="#00d9ff" stroke="#0077b6" stroke-width="0.5" fill-opacity="0.6059873783986413" stroke-opacity="0.6059873783986413" />
  <polygon points="192.3801952520584,123.35722266858427 185.18458129752094,123.10594629232627 181.8043860454625,116.74872362374201 185.6198047479416,110.64277733141573 192.81541870247906,110.89405370767373 196.1956139545375,117.251276376258" fill="#00d9ff" stroke="#0077b6" stroke-width="0.5" fill-opacity="0.629898268449522" stroke-opacity="0.629898268449522" />
  <polygon points="210.02005499361246,123.53599784543695 202.84968732357748,122.88344326801294 199.82963232996502,116.34744542257602 203.9799450063875,110.46400215456308 211.15031267642252,111.11655673198709 214.17036767003498,117.65255457742404" fill="#00d9ff" stroke="#0077b6" stroke-width="0.5" fill-opacity="0.6544544295938237" stroke-opacity="0.6544544295938237" />
  <polygon points="227.65049677932967,123.69439069839542 220.52773598199616,122.64259289274607 217.8772392026665,115.94820219435067 222.3495032206703,110.30560930160462 229.47226401800384,111.35740710725396 232.1227607973335,118.05179780564939" fill="#00d9ff" stroke="#0077b6" stroke-width="0.5" fill-opacity="0.6795306326732317" stroke-opacity="0.6795306326732317" />
  <polygon points="245.27267306601914,123.83190728384038 238.21973126890384,122.38414625158946 235.9470582028847,115.55223896774908 240.72732693398086,110.16809271615965 247.78026873109613,111.61585374841059 250.05294179711527,118.44776103225097" fill="#00d9ff" stroke="#0077b6" stroke-width="0.5" fill-opacity="0.7050302988196988" stroke-opacity="0.7050302988196988" />
  <polygon points="262.88776208621425,123.94811876020066 255.92663368826211,122.10890930306296 254.0388716020479,115.16079054286232 259.11223791378575,110.05188123979937 266.07336631173786,111.89109069693704 267.9611283979521,118.83920945713771" fill="#00d9ff" stroke="#0077b6" stroke-width="0.5" fill-opacity="0.7308782520997967" stroke-opacity="0.7308782520997967" />
  <polygon points="280.4969641738879,124.0426627252834 273.6493572565628,121.81774036578378 272.15239308267485,114.77507764050037 277.5030358261121,109.9573372747166 284.3506427434372,112.18225963421622 285.8476069173251,119.22492235949964" fill="#00d9ff" stroke="#0077b6" stroke-width="0.5" fill-opacity="0.7570154008883596" stroke-opacity="0.7570154008883596" />
  <polygon points="15.23538290724796,138.6 9.0,142.2 2.764617092752043,138.6 2.7646170927520397,131.4 8.999999999999998,127.8 15.23538290724796,131.4" fill="#00d9ff" stroke="#0077b6" stroke-width="0.5" fill-opacity="0.498019801980198" stroke-opacity="0.498019801980198" />
  <polygon points="32.98774453885686,138.99836408264554 26.53118740027814,142.18472092334434 20.54344286142128,138.1863568406988 21.012255461143134,131.00163591735446 27.468812599721858,127.81527907665566 33.456557138578724,131.8136431593012" fill="#00d9ff" stroke="#0077b6" stroke-width="0.5" fill-opacity="0.5000302068420219" stroke-opacity="0.5000302068420219" />
  <polygon points="50.71469305718696,139.3797583565922 44.064364529347465,142.13894854065055 38.349671472160495,137.75919018405838 39.28530694281302,130.6202416434078 45.93563547065253,127.86105145934943 51.6503285278395,132.24080981594162" fill="#00d9ff" stroke="#0077b6" stroke-width="0.5" fill-opacity="0.5059437026670586" stroke-opacity="0.5059437026670586" />
  <polygon points="68.4173873440492,139.7425641128545 61.6015126712162,142.06287711851417 56.18412532716698,137.32031300565967 57.582612655950776,130.2574358871455 64.39848732878379,127.93712288148582 69.815874672833,132.67968699434033" fill="#00d9ff" stroke="#0077b6" stroke-width="0.5" fill-opacity="0.5154391260498984" stroke-opacity="0.5154391260498984" />
  <polygon points="86.09708922077171,140.08524153560995 79.14459625616783,141.9568295183491 74.04750703539612,136.87158798273916 75.90291077922826,129.91475846439005 82.85540374383216,128.0431704816509 87.95249296460386,133.12841201726084" fill="#00d9ff" stroke="#0077b6" stroke-width="0.5" fill-opacity="0.5280695261187709" stroke-opacity="0.5280695261187709" />
  <polygon points="103.75515809279284,140.40633623746677 96.6955545233498,141.82125582610317 91.94039643055694,136.41491958863637 94.24484190720713,129.5936637625332 101.30444547665019,128.17874417389683 106.05960356944303,133.58508041136363" fill="#00d9ff" stroke="#0077b6" stroke-width="0.5" fill-opacity="0.5433472494212908" stroke-opacity="0.5433472494212908" />
  <polygon points="121.39304518008912,140.70448543215736 114.25629329027802,141.65673144200863 109.86324811018889,135.95224600985128 112.60695481991085,129.29551456784262 119.74370670972196,128.34326855799134 124.13675188981108,134.04775399014872" fill="#00d9ff" stroke="#0077b6" stroke-width="0.5" fill-opacity="0.5608074811115384" stroke-opacity="0.5608074811115384" />
  <polygon points="139.01228735792475,140.97842371845934 131.82867686418916,141.46395463847563 127.8163895062644,135.48553092001632 130.98771264207525,129.02157628154066 138.17132313581084,128.53604536152434 142.18361049373559,134.51446907998368" fill="#00d9ff" stroke="#0077b6" stroke-width="0.5" fill-opacity="0.5800422895788306" stroke-opacity="0.5800422895788306" />
  <polygon points="156.61450063406417,141.2269884507962 149.41452012957026,141.24374359649266 145.80001949550606,135.01675514569644 149.3854993659358,128.77301154920377 156.58547987042974,128.75625640350734 160.1999805044939,134.98324485430356" fill="#00d9ff" stroke="#0077b6" stroke-width="0.5" fill-opacity="0.6007113384083351" stroke-opacity="0.6007113384083351" />
  <polygon points="174.20137329013147,141.44912467372376 167.01558084544791,140.9970329331127 163.81420755531644,134.54790825938895 167.7986267098685,128.55087532627624 174.98441915455206,129.00296706688727 178.18579244468353,135.45209174061105" fill="#00d9ff" stroke="#0077b6" stroke-width="0.5" fill-opacity="0.6225390170011705" stroke-opacity="0.6225390170011705" />
  <polygon points="191.77465871622562,141.64388959935917 184.63355218512854,140.72486973476288 181.85889346890292,134.0809801354037 186.22534128377436,128.35611040064083 193.36644781487144,129.2751302652371 196.14110653109705,135.91901986459627" fill="#00d9ff" stroke="#0077b6" stroke-width="0.5" fill-opacity="0.6453056751268375" stroke-opacity="0.6453056751268375" />
  <polygon points="209.3361679692035,141.81045660875006 202.27005555005258,140.4284091132128 199.93388758084905,133.61795250446275 204.66383203079644,128.18954339124994 211.7299444499474,129.57159088678722 214.0661124191509,136.38204749553728" fill="#00d9ff" stroke="#0077b6" stroke-width="0.5" fill-opacity="0.6688374769563026" stroke-opacity="0.6688374769563026" />
  <polygon points="226.8877620862142,141.94811876020066 219.9266336882621,140.10890930306294 218.03887160204786,133.16079054286232 223.11223791378575,128.05188123979937 230.07336631173786,129.89109069693706 231.96112839795208,136.8392094571377" fill="#00d9ff" stroke="#0077b6" stroke-width="0.5" fill-opacity="0.6929970011159776" stroke-opacity="0.6929970011159776" />
  <polygon points="244.43134418610742,142.0562917896652 237.6047441466881,139.76772632156081 236.17339996058064,132.71143453189563 241.56865581389252,127.94370821033483 248.39525585331185,130.2322736784392 249.8266000394193,137.2885654681044" fill="#00d9ff" stroke="#0077b6" stroke-width="0.5" fill-opacity="0.7176753340942971" stroke-opacity="0.7176753340942971" />
  <polygon points="261.9688513922395,142.13451659047448 255.30575308504731,139.40630821340855 254.3369016928078,132.2717916229341 260.0311486077605,127.86548340952552 266.69424691495266,130.59369178659142 267.6630983071922,137.7282083770659" fill="#00d9ff" stroke="#0077b6" stroke-width="0.5" fill-opacity="0.7427857381187702" stroke-opacity="0.7427857381187702" />
  <polygon points="279.5022466109577,142.18246116187075 273.0309294776037,139.02618890498937 272.52868286664597,131.84372774311862 278.49775338904226,127.81753883812924 284.9690705223963,130.9738110950106 285.471317133354,138.15627225688138" fill="#00d9ff" stroke="#0077b6" stroke-width="0.5" fill-opacity="0.7682587088330085" stroke-opacity="0.7682587088330085" />
  <polygon points="15.23538290724796,156.6 9.0,160.2 2.764617092752043,156.6 2.7646170927520397,149.4 8.999999999999998,145.8 15.23538290724796,149.4" fill="#00d9ff" stroke="#0077b6" stroke-width="0.5" fill-opacity="0.5263083451202263" stroke-opacity="0.5263083451202263" />
  <polygon points="32.950267206054576,157.05392651346216 26.464330257293785,160.18004581647978 20.514063051239205,156.12611930301765 21.049732793945417,148.94607348653784 27.53566974270621,145.81995418352022 33.485936948760795,149.87388069698235" fill="#00d9ff" stroke="#0077b6" stroke-width="0.5" fill-opacity="0.5280695261187708" stroke-opacity="0.5280695261187708" />
  <polygon points="50.63217019268791,157.48538280647236 43.93162964024095,160.12029386854138 38.29945944755304,155.63491106206905 39.367829807312084,148.51461719352764 46.068370359759044,145.87970613145862 51.70054055244695,150.36508893793095" fill="#00d9ff" stroke="#0077b6" stroke-width="0.5" fill-opacity="0.5332733027223571" stroke-opacity="0.5332733027223571" />
  <polygon points="68.2828550244207,157.8919773906829 61.40485081713983,160.02107535100004 56.12199579271912,155.12909796031713 57.71714497557928,148.1080226093171 64.59514918286015,145.97892464899996 69.87800420728087,150.87090203968287" fill="#00d9ff" stroke="#0077b6" stroke-width="0.5" fill-opacity="0.5416974185379783" stroke-opacity="0.5416974185379783" />
  <polygon points="85.90425789541241,158.27145658194058 78.88691363279897,159.88294021510785 73.98265573738654,154.61148363316727 76.09574210458756,147.7285434180594 83.11308636720102,146.11705978489215 88.01734426261345,151.38851636683273" fill="#00d9ff" stroke="#0077b6" stroke-width="0.5" fill-opacity="0.5530204217821544" stroke-opacity="0.5530204217821544" />
  <polygon points="103.4984773047165,158.62171699207192 96.3806889243373,159.7066541202682 91.88221161962079,154.08493712819626 94.50152269528347,147.37828300792805 101.61931107566268,146.2933458797318 106.11778838037918,151.9150628718037" fill="#00d9ff" stroke="#0077b6" stroke-width="0.5" fill-opacity="0.5668735822363962" stroke-opacity="0.5668735822363962" />
  <polygon points="121.06776242465953,158.94081718760373 113.88898260862572,159.4931941901168 109.82122018396618,153.55237700251308 112.93223757534042,147.05918281239627 120.11101739137426,146.5068058098832 124.17877981603381,152.44762299748692" fill="#00d9ff" stroke="#0077b6" stroke-width="0.5" fill-opacity="0.5828854314002829" stroke-opacity="0.5828854314002829" />
  <polygon points="138.61450063406417,159.2269884507962 131.41452012957026,159.24374359649266 127.80001949550606,153.01675514569644 131.3854993659358,146.77301154920377 138.5854798704297,146.75625640350734 142.1999805044939,152.98324485430356" fill="#00d9ff" stroke="#0077b6" stroke-width="0.5" fill-opacity="0.6007113384083351" stroke-opacity="0.6007113384083351" />
  <polygon points="156.14120428541716,159.47864458334277 148.95993135144326,158.9596850013192 145.8187270660261,152.4810404179764 149.8587957145828,146.52135541665723 157.04006864855668,147.0403149986808 160.18127293397387,153.51895958202357" fill="#00d9ff" stroke="#0077b6" stroke-width="0.5" fill-opacity="0.6200483309472351" stroke-opacity="0.6200483309472351" />
  <polygon points="173.65049677932967,159.6943906983954 166.52773598199616,158.64259289274602 163.8772392026665,151.94820219435064 168.3495032206703,146.3056093016046 175.4722640180038,147.35740710725395 178.12276079733348,154.05179780564936" fill="#00d9ff" stroke="#0077b6" stroke-width="0.5" fill-opacity="0.6406391677168966" stroke-opacity="0.6406391677168966" />
  <polygon points="191.14509802347706,159.87303095218365 184.1203296061507,158.29422485803076 181.97523158267364,151.42119390584708 186.8549019765229,146.12696904781632 193.87967039384924,147.70577514196924 196.02476841732633,154.5788060941529" fill="#00d9ff" stroke="#0077b6" stroke-width="0.5" fill-opacity="0.6622701124431598" stroke-opacity="0.6622701124431598" />
  <polygon points="208.6278093566163,160.01357517237196 201.7399704076822,157.91651184153372 200.11216105106587,150.90293666916176 205.37219064338365,145.98642482762807 212.26002959231775,148.0834881584663 213.88783894893407,155.09706333083824" fill="#00d9ff" stroke="#0077b6" stroke-width="0.5" fill-opacity="0.6847657852541851" stroke-opacity="0.6847657852541851" />
  <polygon points="226.10149802124505,160.11524434641518 219.38876665249336,157.51154744182412 218.28726863124828,150.39630309540894 223.8985019787549,145.88475565358485 230.61123334750658,148.4884525581759 231.71273136875163,155.60369690459106" fill="#00d9ff" stroke="#0077b6" stroke-width="0.5" fill-opacity="0.7079831711981883" stroke-opacity="0.7079831711981883" />
  <polygon points="243.5690812709674,160.1774749394919 237.06866500285753,157.08157630722167 236.4995837318901,149.9041013677298 242.43091872903256,145.82252506050813 248.9313349971424,148.91842369277836 249.50041626810983,156.09589863227023" fill="#00d9ff" stroke="#0077b6" stroke-width="0.5" fill-opacity="0.7318058705084511" stroke-opacity="0.7318058705084511" />
  <polygon points="261.03351020065674,160.1999220180813 254.78143972740304,156.6289816940953 254.74792952674628,149.429059676014 260.9664897993432,145.8000779819187 267.2185602725969,149.37101830590467 267.2520704732537,156.57094032398598" fill="#00d9ff" stroke="#0077b6" stroke-width="0.5" fill-opacity="0.7561390522375417" stroke-opacity="0.7561390522375417" />
  <polygon points="278.49775338904226,160.18246116187075 272.52868286664597,156.15627225688132 273.03092947760365,148.97381109501057 279.5022466109577,145.81753883812922 285.471317133354,149.84372774311862 284.9690705223963,157.0261889049894" fill="#00d9ff" stroke="#0077b6" stroke-width="0.5" fill-opacity="0.7809052333804809" stroke-opacity="0.7809052333804809" />
  <polygon points="15.23538290724796,174.6 9.0,178.2 2.764617092752043,174.6 2.7646170927520397,167.4 8.999999999999998,163.8 15.23538290724796,167.4" fill="#00d9ff" stroke="#0077b6" stroke-width="0.5" fill-opacity="0.5545968882602546" stroke-opacity="0.5545968882602546" />
  <polygon points="32.91227430576267,175.10913768732792 26.39751952800733,178.17474858659642 20.48524522224466,174.0656108992685 21.087725694237328,166.89086231267208 27.60248047199267,163.82525141340358 33.51475477775534,167.9343891007315" fill="#00d9ff" stroke="#0077b6" stroke-width="0.5" fill-opacity="0.5561636531297713" stroke-opacity="0.5561636531297713" />
  <polygon points="50.54769534798569,175.58945272619056 43.79926502364407,178.09917146690762 38.25156967565838,173.50971874071706 39.45230465201431,166.41054727380944 46.20073497635593,163.90082853309238 51.74843032434162,168.49028125928294" fill="#00d9ff" stroke="#0077b6" stroke-width="0.5" fill-opacity="0.5608074811115384" stroke-opacity="0.5608074811115384" />
  <polygon points="68.14420329335618,176.03757605169622 61.20943281241305,177.97379876012613 56.065229519056864,172.9362227084299 57.855796706643815,165.96242394830378 64.79056718758694,164.02620123987387 69.93477048094313,169.0637772915701" fill="#00d9ff" stroke="#0077b6" stroke-width="0.5" fill-opacity="0.5683686840312627" stroke-opacity="0.5683686840312627" />
  <polygon points="85.70462834872876,176.45036440069265 78.63216014348221,177.79950986570987 73.92753179475345,172.34914546501722 76.29537165127122,165.54963559930735 83.36783985651779,164.20049013429013 88.07246820524655,169.65085453498278" fill="#00d9ff" stroke="#0077b6" stroke-width="0.5" fill-opacity="0.5786098388061133" stroke-opacity="0.5786098388061133" />
  <polygon points="103.23205381650581,176.82492235949962 96.07149616985424,177.57752729502673 91.83944235334843,171.7526049355271 94.76794618349419,165.17507764050038 101.92850383014576,164.42247270497327 106.16055764665157,170.2473950644729" fill="#00d9ff" stroke="#0077b6" stroke-width="0.5" fill-opacity="0.5912483773970862" stroke-opacity="0.5912483773970862" />
  <polygon points="120.72979446748654,177.15862267315563 113.53137354646766,177.30940809631582 109.80157907898112,171.15078542316016 113.27020553251346,164.84137732684437 120.46862645353234,164.69059190368418 124.19842092101888,170.84921457683984" fill="#00d9ff" stroke="#0077b6" stroke-width="0.5" fill-opacity="0.6059873783986413" stroke-opacity="0.6059873783986413" />
  <polygon points="138.20137329013147,177.44912467372376 131.01558084544794,176.9970329331127 127.81420755531646,170.54790825938895 131.79862670986853,164.55087532627624 138.98441915455206,165.0029670668873 142.18579244468356,171.45209174061105" fill="#00d9ff" stroke="#0077b6" stroke-width="0.5" fill-opacity="0.6225390170011705" stroke-opacity="0.6225390170011705" />
  <polygon points="155.65049677932967,177.6943906983954 148.52773598199616,176.64259289274605 145.8772392026665,169.94820219435064 150.34950322067033,164.3056093016046 157.47226401800384,165.35740710725395 160.1227607973335,172.05179780564936" fill="#00d9ff" stroke="#0077b6" stroke-width="0.5" fill-opacity="0.6406391677168966" stroke-opacity="0.6406391677168966" />
  <polygon points="173.0810289380002,177.89270038223088 166.07126083731345,176.24857411743415 163.99023189931324,169.3558737352033 168.9189710619998,164.10729961776912 175.92873916268655,165.75142588256585 178.00976810068676,172.6441262647967" fill="#00d9ff" stroke="#0077b6" stroke-width="0.5" fill-opacity="0.6600543723156395" stroke-opacity="0.6600543723156395" />
  <polygon points="190.49696417388787,178.04266272528338 183.64935725656278,175.81774036578378 182.1523930826749,168.77507764050037 187.50303582611213,163.95733727471662 194.35064274343722,166.18225963421622 195.8476069173251,173.22492235949963" fill="#00d9ff" stroke="#0077b6" stroke-width="0.5" fill-opacity="0.6805834242453666" stroke-opacity="0.6805834242453666" />
  <polygon points="207.90239928166298,178.14322584946424 201.2649845902258,175.35311362700912 200.36258530856279,168.20988777754488 206.097600718337,163.85677415053578 212.73501540977418,166.64688637299093 213.6374146914372,173.79011222245515" fill="#00d9ff" stroke="#0077b6" stroke-width="0.5" fill-opacity="0.7020557398458811" stroke-opacity="0.7020557398458811" />
  <polygon points="225.30150470685024,178.1936843767118 218.92083893638548,174.85795292384879 218.61933422953524,167.66426854713703 224.69849529314973,163.80631562328824 231.0791610636145,167.14204707615124 231.38066577046473,174.33573145286303" fill="#00d9ff" stroke="#0077b6" stroke-width="0.5" fill-opacity="0.7243281471004244" stroke-opacity="0.7243281471004244" />
  <polygon points="242.69849529314976,178.1936843767118 236.61933422953524,174.33573145286303 236.92083893638548,167.14204707615124 243.3015047068502,163.80631562328824 249.38066577046473,167.66426854713703 249.0791610636145,174.8579529238488" fill="#00d9ff" stroke="#0077b6" stroke-width="0.5" fill-opacity="0.7472811400521047" stroke-opacity="0.7472811400521047" />
  <polygon points="260.09760071833705,178.14322584946427 254.3625853085628,173.79011222245515 255.2649845902258,166.6468863729909 261.902399281663,163.85677415053576 267.6374146914372,168.20988777754485 266.73501540977423,175.35311362700912" fill="#00d9ff" stroke="#0077b6" stroke-width="0.5" fill-opacity="0.7708151902996673" stroke-opacity="0.7708151902996673" />
  <polygon points="277.5030358261121,178.04266272528344 272.1523930826749,173.22492235949963 273.6493572565628,166.1822596342162 280.4969641738879,163.95733727471656 285.8476069173251,168.77507764050037 284.3506427434372,175.8177403657838" fill="#00d9ff" stroke="#0077b6" stroke-width="0.5" fill-opacity="0.7948474026742829" stroke-opacity="0.7948474026742829" />
  <polygon points="15.23538290724796,192.6 9.0,196.2 2.764617092752043,192.6 2.7646170927520397,185.4 8.999999999999998,181.8 15.23538290724796,185.4" fill="#00d9ff" stroke="#0077b6" stroke-width="0.5" fill-opacity="0.5828854314002829" stroke-opacity="0.5828854314002829" />
  <polygon points="32.87376912991804,193.1639928204095 26.330761001308378,196.16882969267857 20.45699187139034,192.0048368722691 21.126230870081958,184.8360071795905 27.669238998691622,181.83117030732143 33.543008128609664,185.9951631277309" fill="#00d9ff" stroke="#0077b6" stroke-width="0.5" fill-opacity="0.5842963400599969" stroke-opacity="0.5842963400599969" />
  <polygon points="50.46129780011186,193.69193204751448 43.667316554078056,196.07558865628616 38.2060187539662,191.3836566087717 39.53870219988814,184.30806795248552 46.332683445921944,181.92441134371384 51.7939812460338,186.6163433912283" fill="#00d9ff" stroke="#0077b6" stroke-width="0.5" fill-opacity="0.5884876669642312" stroke-opacity="0.5884876669642312" />
  <polygon points="68.00154026730478,194.1792465624383 61.01541103811761,195.92108421075588 56.01387077081282,190.7418376483176 57.99845973269522,183.8207534375617 64.9845889618824,182.07891578924412 69.98612922918717,187.2581623516824" fill="#00d9ff" stroke="#0077b6" stroke-width="0.5" fill-opacity="0.5953410610724342" stroke-opacity="0.5953410610724342" />
  <polygon points="85.49847730471652,194.62171699207195 78.3806889243373,195.7066541202682 73.8822116196208,190.0849371281963 76.50152269528348,183.37828300792805 83.6193110756627,182.2933458797318 88.1177883803792,187.9150628718037" fill="#00d9ff" stroke="#0077b6" stroke-width="0.5" fill-opacity="0.6046769339255731" stroke-opacity="0.6046769339255731" />
  <polygon points="102.95646464210981,195.01551224217314 95.76864590255668,195.43415501032857 91.81218126044688,189.41864276815542 95.04353535789019,182.98448775782686 102.23135409744332,182.56584498967143 106.18781873955312,188.58135723184458" fill="#00d9ff" stroke="#0077b6" stroke-width="0.5" fill-opacity="0.6162755272276931" stroke-opacity="0.6162755272276931" />
  <polygon points="120.38019525205841,195.35722266858426 113.18458129752094,195.10594629232625 109.80438604546252,188.748723623742 113.61980474794157,182.64277733141572 120.81541870247906,182.89405370767375 124.19561395453748,189.251276376258" fill="#00d9ff" stroke="#0077b6" stroke-width="0.5" fill-opacity="0.629898268449522" stroke-opacity="0.629898268449522" />
  <polygon points="137.77465871622562,195.64388959935917 130.63355218512856,194.7248697347629 127.85889346890292,188.0809801354037 132.22534128377438,182.35611040064083 139.36644781487144,183.2751302652371 142.14110653109708,189.9190198645963" fill="#00d9ff" stroke="#0077b6" stroke-width="0.5" fill-opacity="0.6453056751268375" stroke-opacity="0.6453056751268375" />
  <polygon points="155.14509802347706,195.87303095218365 148.12032960615073,194.29422485803076 145.97523158267367,187.4211939058471 150.85490197652294,182.12696904781635 157.87967039384927,183.70577514196924 160.02476841732633,190.5788060941529" fill="#00d9ff" stroke="#0077b6" stroke-width="0.5" fill-opacity="0.6622701124431598" stroke-opacity="0.6622701124431598" />
  <polygon points="172.49696417388787,196.04266272528338 165.64935725656278,193.81774036578378 164.1523930826749,186.77507764050037 169.50303582611213,181.95733727471662 176.35064274343722,184.18225963421622 177.8476069173251,191.22492235949963" fill="#00d9ff" stroke="#0077b6" stroke-width="0.5" fill-opacity="0.6805834242453666" stroke-opacity="0.6805834242453666" />
  <polygon points="189.83586898170165,196.15131617574198 183.2247130121637,193.29954186026006 182.38884403046202,186.14822568451808 188.16413101829835,181.84868382425802 194.7752869878363,184.70045813973994 195.61115596953798,191.85177431548192" fill="#00d9ff" stroke="#0077b6" stroke-width="0.5" fill-opacity="0.7000604136840438" stroke-opacity="0.7000604136840438" />
  <polygon points="207.1675364858932,196.19805053649213 200.8500736206202,192.74411612109037 200.682537134727,185.54606558459827 206.8324635141068,181.8019494635079 213.14992637937976,185.25588387890969 213.31746286527297,192.4539344154018" fill="#00d9ff" stroke="#0077b6" stroke-width="0.5" fill-opacity="0.7205394270811458" stroke-opacity="0.7205394270811458" />
  <polygon points="224.4977533890423,196.18246116187075 218.528682866646,192.15627225688138 219.03092947760368,184.97381109501066 225.50224661095768,181.8175388381293 231.47131713335398,185.84372774311868 230.96907052239627,193.0261889049894" fill="#00d9ff" stroke="#0077b6" stroke-width="0.5" fill-opacity="0.7418811697825547" stroke-opacity="0.7418811697825547" />
  <polygon points="241.8323189536399,196.10468303121058 236.26332348595537,191.54110006593987 237.43100453231546,184.43641703472932 244.16768104636006,181.89531696878947 249.7366765140446,186.45889993406018 248.56899546768452,193.56358296527074" fill="#00d9ff" stroke="#0077b6" stroke-width="0.5" fill-opacity="0.7639666044372482" stroke-opacity="0.7639666044372482" />
  <polygon points="259.17699478964545,195.96538958013264 254.05629307117246,190.90392596666786 255.879298281527,183.93853638653525 262.82300521035455,182.0346104198674 267.94370692882757,187.09607403333214 266.120701718473,194.06146361346478" fill="#00d9ff" stroke="#0077b6" stroke-width="0.5" fill-opacity="0.7866944988425815" stroke-opacity="0.7866944988425815" />
  <polygon points="276.5374549680552,195.76578686965857 271.9093841783121,190.2502668792019 274.3719292102569,183.48448000954335 281.4625450319448,182.23421313034143 286.0906158216879,187.7497331207981 283.6280707897431,194.51551999045665" fill="#00d9ff" stroke="#0077b6" stroke-width="0.5" fill-opacity="0.8099789639977353" stroke-opacity="0.8099789639977353" />
  <polygon points="15.23538290724796,210.6 9.0,214.2 2.764617092752043,210.6 2.7646170927520397,203.4 8.999999999999998,199.8 15.23538290724796,203.4" fill="#00d9ff" stroke="#0077b6" stroke-width="0.5" fill-opacity="0.6111739745403111" stroke-opacity="0.6111739745403111" />
  <polygon points="32.83475501484428,211.2184871597232 26.264060461563382,214.1622896475754 20.429305446719106,209.9438024878522 21.16524498515572,202.7815128402768 27.735939538436618,199.8377103524246 33.570694553280894,204.0561975121478" fill="#00d9ff" stroke="#0077b6" stroke-width="0.5" fill-opacity="0.6124571716318885" stroke-opacity="0.6124571716318885" />
  <polygon points="50.37300749246255,211.79278525347644 43.53582996183722,214.04955360993492 38.162822469374674,209.25676835645845 39.62699250753745,202.20721474652356 46.46417003816278,199.95044639006508 51.837177530625326,204.74323164354155" fill="#00d9ff" stroke="#0077b6" stroke-width="0.5" fill-opacity="0.616275527227693" stroke-opacity="0.616275527227693" />
  <polygon points="67.85497719060281,212.31687845250636 60.822936786596806,213.86297280810922 55.96795959599399,208.54609435560286 58.14502280939719,201.68312154749364 65.1770632134032,200.13702719189078 70.032040404006,205.45390564439714" fill="#00d9ff" stroke="#0077b6" stroke-width="0.5" fill-opacity="0.6225390170011705" stroke-opacity="0.6225390170011705" />
  <polygon points="85.28609052739,212.78527682924658 78.13284856164196,213.6045016942629 73.84675803425196,207.81922486501628 76.71390947260998,201.2147231707534 83.86715143835804,200.3954983057371 88.15324196574804,206.18077513498372" fill="#00d9ff" stroke="#0077b6" stroke-width="0.5" fill-opacity="0.6311089083654774" stroke-opacity="0.6311089083654774" />
  <polygon points="102.67230664631286,213.1930738648466 95.47279402868578,213.27684777861668 91.80048738237292,207.08377391377005 95.32769335368712,200.80692613515336 102.52720597131422,200.72315222138332 106.19951261762708,206.91622608622995" fill="#00d9ff" stroke="#0077b6" stroke-width="0.5" fill-opacity="0.6418117672869752" stroke-opacity="0.6418117672869752" />
  <polygon points="120.02005499361248,213.53599784543692 112.8496873235775,212.8834432680129 109.82963232996502,206.347445422576 113.97994500638751,200.46400215456305 121.1503126764225,201.1165567319871 124.17036767003498,207.652554577424" fill="#00d9ff" stroke="#0077b6" stroke-width="0.5" fill-opacity="0.6544544295938237" stroke-opacity="0.6544544295938237" />
  <polygon points="137.33616796920353,213.81045660875006 130.2700555500526,212.42840911321278 127.93388758084907,205.61795250446272 132.66383203079647,200.18954339124994 139.7299444499474,201.57159088678722 142.06611241915093,208.38204749553728" fill="#00d9ff" stroke="#0077b6" stroke-width="0.5" fill-opacity="0.6688374769563026" stroke-opacity="0.6688374769563026" />
  <polygon points="154.62780935661632,214.01357517237196 147.73997040768222,211.91651184153372 146.1121610510659,204.90293666916176 151.37219064338368,199.98642482762804 158.26002959231778,202.08348815846628 159.8878389489341,209.09706333083824" fill="#00d9ff" stroke="#0077b6" stroke-width="0.5" fill-opacity="0.6847657852541851" stroke-opacity="0.6847657852541851" />
  <polygon points="171.90239928166298,214.14322584946424 165.2649845902258,211.3531136270091 164.3625853085628,204.20988777754485 170.09760071833702,199.85677415053576 176.7350154097742,202.6468863729909 177.6374146914372,209.79011222245515" fill="#00d9ff" stroke="#0077b6" stroke-width="0.5" fill-opacity="0.7020557398458811" stroke-opacity="0.7020557398458811" />
  <polygon points="189.1675364858932,214.1980505364921 182.85007362062024,210.74411612109034 182.68253713472703,203.54606558459824 188.8324635141068,199.8019494635079 195.14992637937976,203.25588387890966 195.31746286527297,210.45393441540176" fill="#00d9ff" stroke="#0077b6" stroke-width="0.5" fill-opacity="0.7205394270811458" stroke-opacity="0.7205394270811458" />
  <polygon points="206.43091872903258,214.1774749394919 200.49958373189014,210.09589863227026 201.06866500285756,202.91842369277836 207.5690812709674,199.82252506050816 213.50041626810983,203.9041013677298 212.93133499714241,211.0815763072217" fill="#00d9ff" stroke="#0077b6" stroke-width="0.5" fill-opacity="0.7400664550524482" stroke-opacity="0.7400664550524482" />
  <polygon points="223.70026215419594,214.0817145898564 218.21718633993146,209.41525130220185 219.5169241857355,202.33353671234548 226.299737845804,199.91828541014365 231.7828136600685,204.5847486977982 230.48307581426448,211.66646328765458" fill="#00d9ff" stroke="#0077b6" stroke-width="0.5" fill-opacity="0.7605041187015475" stroke-opacity="0.7605041187015475" />
  <polygon points="240.98322046053292,213.91177258662256 236.00583958507045,208.70930397830014 238.02261912453753,201.79753139167758 245.01677953946705,200.0882274133775 249.99416041492952,205.29069602169992 247.97738087546244,212.20246860832248" fill="#00d9ff" stroke="#0077b6" stroke-width="0.5" fill-opacity="0.7817365308607185" stroke-opacity="0.7817365308607185" />
  <polygon points="258.2873047299799,213.6694290889109 253.86775734525423,207.98545152789214 256.58045261527434,201.31602243898126 263.7126952700201,200.33057091108913 268.13224265474577,206.01454847210786 265.41954738472566,212.68397756101876" fill="#00d9ff" stroke="#0077b6" stroke-width="0.5" fill-opacity="0.8036631913653425" stroke-opacity="0.8036631913653425" />
  <polygon points="275.6198047479416,213.35722266858428 271.80438604546254,207.251276376258 275.18458129752094,200.89405370767372 282.3801952520584,200.64277733141572 286.19561395453746,206.748723623742 282.81541870247906,213.10594629232628" fill="#00d9ff" stroke="#0077b6" stroke-width="0.5" fill-opacity="0.8261973193136711" stroke-opacity="0.8261973193136711" />
  <polygon points="15.23538290724796,228.6 9.0,232.2 2.764617092752043,228.6 2.7646170927520397,221.4 8.999999999999998,217.8 15.23538290724796,221.4" fill="#00d9ff" stroke="#0077b6" stroke-width="0.5" fill-opacity="0.6394625176803395" stroke-opacity="0.6394625176803395" />
  <polygon points="32.795235340962584,229.27261598354664 26.19742368811446,232.15512901795628 20.402188347151878,227.88251303440964 21.204764659037416,220.72738401645336 27.80257631188554,217.84487098204372 33.59781165284812,222.11748696559036" fill="#00d9ff" stroke="#0077b6" stroke-width="0.5" fill-opacity="0.6406391677168967" stroke-opacity="0.6406391677168967" />
  <polygon points="50.28285502442071,229.8919773906829 43.40485081713984,232.02107535100004 38.121995792719126,227.12909796031713 39.71714497557929,220.1080226093171 46.59514918286016,217.97892464899996 51.878004207280874,222.87090203968287" fill="#00d9ff" stroke="#0077b6" stroke-width="0.5" fill-opacity="0.6441449804977777" stroke-opacity="0.6441449804977777" />
  <polygon points="67.70462834872876,230.45036440069265 60.6321601434822,231.79950986570987 55.92753179475344,226.34914546501722 58.29537165127124,219.54963559930735 65.36783985651779,218.20049013429013 70.07246820524655,223.65085453498278" fill="#00d9ff" stroke="#0077b6" stroke-width="0.5" fill-opacity="0.6499099540835356" stroke-opacity="0.6499099540835356" />
  <polygon points="85.06776242465955,230.94081718760373 77.88898260862574,231.4931941901168 73.82122018396618,225.55237700251308 76.93223757534044,219.05918281239627 84.11101739137426,218.5068058098832 88.17877981603382,224.44762299748692" fill="#00d9ff" stroke="#0077b6" stroke-width="0.5" fill-opacity="0.6578249120416837" stroke-opacity="0.6578249120416837" />
  <polygon points="102.38019525205841,231.35722266858426 95.18458129752094,231.10594629232625 91.80438604546252,224.748723623742 95.61980474794157,218.64277733141572 102.81541870247906,218.89405370767375 106.19561395453748,225.251276376258" fill="#00d9ff" stroke="#0077b6" stroke-width="0.5" fill-opacity="0.6677510608203678" stroke-opacity="0.6677510608203678" />
  <polygon points="119.65049677932969,231.6943906983954 112.52773598199617,230.64259289274605 109.87723920266649,223.94820219435064 114.34950322067031,218.3056093016046 121.47226401800383,219.35740710725395 124.12276079733351,226.05179780564936" fill="#00d9ff" stroke="#0077b6" stroke-width="0.5" fill-opacity="0.6795306326732317" stroke-opacity="0.6795306326732317" />
  <polygon points="136.88776208621422,231.94811876020063 129.92663368826211,230.10890930306294 128.0388716020479,223.16079054286232 133.11223791378578,218.05188123979937 140.07336631173789,219.89109069693706 141.9611283979521,226.83920945713768" fill="#00d9ff" stroke="#0077b6" stroke-width="0.5" fill-opacity="0.6929970011159776" stroke-opacity="0.6929970011159776" />
  <polygon points="154.10149802124508,232.11524434641518 147.3887666524934,229.51154744182412 146.2872686312483,222.39630309540894 151.89850197875492,217.88475565358482 158.6112333475066,220.48845255817588 159.7127313687517,227.60369690459106" fill="#00d9ff" stroke="#0077b6" stroke-width="0.5" fill-opacity="0.7079831711981883" stroke-opacity="0.7079831711981883" />
  <polygon points="171.30150470685024,232.19368437671176 164.9208389363855,228.85795292384876 164.61933422953527,221.664268547137 170.69849529314976,217.80631562328824 177.0791610636145,221.14204707615124 177.38066577046473,228.335731452863" fill="#00d9ff" stroke="#0077b6" stroke-width="0.5" fill-opacity="0.7243281471004244" stroke-opacity="0.7243281471004244" />
  <polygon points="188.4977533890423,232.18246116187072 182.528682866646,228.15627225688135 183.0309294776037,220.97381109501063 189.5022466109577,217.81753883812928 195.471317133354,221.84372774311865 194.9690705223963,229.02618890498937" fill="#00d9ff" stroke="#0077b6" stroke-width="0.5" fill-opacity="0.7418811697825547" stroke-opacity="0.7418811697825547" />
  <polygon points="205.70026215419594,232.0817145898564 200.21718633993146,227.41525130220185 201.5169241857355,220.33353671234548 208.299737845804,217.91828541014365 213.7828136600685,222.5847486977982 212.48307581426448,229.66646328765458" fill="#00d9ff" stroke="#0077b6" stroke-width="0.5" fill-opacity="0.7605041187015475" stroke-opacity="0.7605041187015475" />
  <polygon points="222.9189710619998,231.8927003822309 217.99023189931324,226.64412626479674 220.07126083731342,219.75142588256585 227.08102893800017,218.10729961776914 232.00976810068673,223.35587373520332 229.92873916268653,230.24857411743417" fill="#00d9ff" stroke="#0077b6" stroke-width="0.5" fill-opacity="0.7800724964208527" stroke-opacity="0.7800724964208527" />
  <polygon points="240.16361825094512,231.6177744426377 235.85064834163293,225.85250857180682 238.68703009068776,219.23473412916914 245.83638174905482,218.38222555736235 250.14935165836704,224.14749142819323 247.3129699093122,230.76526587083092" fill="#00d9ff" stroke="#0077b6" stroke-width="0.5" fill-opacity="0.8004754176224649" stroke-opacity="0.8004754176224649" />
  <polygon points="257.44361856059356,231.2603634924376 253.80017545892116,225.05026507414533 257.35655689832765,218.78990158170774 264.55638143940644,218.73963650756244 268.19982454107884,224.94973492585467 264.64344310167235,231.2100984182923" fill="#00d9ff" stroke="#0077b6" stroke-width="0.5" fill-opacity="0.8216149622230771" stroke-opacity="0.8216149622230771" />
  <polygon points="274.7679461834942,230.82492235949965 271.83944235334843,224.2473950644729 276.07149616985424,218.42247270497325 283.2320538165058,219.17507764050035 286.16055764665157,225.7526049355271 281.92850383014576,231.57752729502675" fill="#00d9ff" stroke="#0077b6" stroke-width="0.5" fill-opacity="0.8434051686647397" stroke-opacity="0.8434051686647397" />
  <polygon points="15.23538290724796,246.6 9.0,250.2 2.764617092752043,246.6 2.7646170927520397,239.4 8.999999999999998,235.8 15.23538290724796,239.4" fill="#00d9ff" stroke="#0077b6" stroke-width="0.5" fill-opacity="0.6677510608203678" stroke-opacity="0.6677510608203678" />
  <polygon points="32.75521353249884,247.32637460182798 26.13085645477861,250.14734842426196 20.375642922279766,245.82097382243398 21.244786467501154,238.67362539817202 27.86914354522139,235.85265157573804 33.624357077720234,240.17902617756602" fill="#00d9ff" stroke="#0077b6" stroke-width="0.5" fill-opacity="0.6688374769563026" stroke-opacity="0.6688374769563026" />
  <polygon points="50.19087164075114,247.98947408142837 43.27442451433457,249.99016374938887 38.08355287358343,245.0006896679605 39.80912835924886,238.01052591857163 46.72557548566543,236.00983625061113 51.91644712641657,240.9993103320395" fill="#00d9ff" stroke="#0077b6" stroke-width="0.5" fill-opacity="0.67207769272888" stroke-opacity="0.67207769272888" />
  <polygon points="67.55061097918693,248.5796003186701 60.44322987066142,249.7307448700513 55.892618891474484,244.1511445513812 58.44938902081307,237.4203996813299 65.55677012933859,236.2692551299487 70.1073811085255,241.8488554486188" fill="#00d9ff" stroke="#0077b6" stroke-width="0.5" fill-opacity="0.6774162394378029" stroke-opacity="0.6774162394378029" />
  <polygon points="84.84379564022689,249.08812245903223 77.64942910924094,249.37288590090847 73.80563346901405,243.28476344187624 77.15620435977311,236.91187754096777 84.35057089075906,236.62711409909153 88.19436653098595,242.71523655812376" fill="#00d9ff" stroke="#0077b6" stroke-width="0.5" fill-opacity="0.6847657852541851" stroke-opacity="0.6847657852541851" />
  <polygon points="102.08076310757991,249.50760314362935 94.90463191365947,248.92182068602077 91.82386880607956,242.4142175423914 95.91923689242007,236.49239685637065 103.09536808634053,237.07817931397923 106.17613119392044,243.5857824576086" fill="#00d9ff" stroke="#0077b6" stroke-width="0.5" fill-opacity="0.6940138126501872" stroke-opacity="0.6940138126501872" />
  <polygon points="119.27267306601914,249.83190728384037 112.21973126890387,248.3841462515894 109.94705820288473,241.55223896774905 114.72732693398085,236.16809271615963 121.78026873109613,237.6158537484106 124.05294179711527,244.44776103225095" fill="#00d9ff" stroke="#0077b6" stroke-width="0.5" fill-opacity="0.7050302988196988" stroke-opacity="0.7050302988196988" />
  <polygon points="136.43134418610745,250.05629178966518 129.60474414668812,247.76772632156081 128.17339996058067,240.7114345318956 133.56865581389255,235.94370821033482 140.39525585331188,238.23227367843919 141.82660003941933,245.2885654681044" fill="#00d9ff" stroke="#0077b6" stroke-width="0.5" fill-opacity="0.7176753340942971" stroke-opacity="0.7176753340942971" />
  <polygon points="153.56908127096742,250.17747493949187 147.06866500285756,247.08157630722167 146.49958373189014,239.90410136772977 152.43091872903258,235.82252506050813 158.93133499714244,238.91842369277833 159.50041626810986,246.09589863227023" fill="#00d9ff" stroke="#0077b6" stroke-width="0.5" fill-opacity="0.7318058705084511" stroke-opacity="0.7318058705084511" />
  <polygon points="170.69849529314976,250.1936843767118 164.61933422953527,246.335731452863 164.9208389363855,239.14204707615121 171.30150470685024,235.8063156232882 177.38066577046473,239.664268547137 177.0791610636145,246.85795292384879" fill="#00d9ff" stroke="#0077b6" stroke-width="0.5" fill-opacity="0.7472811400521047" stroke-opacity="0.7472811400521047" />
  <polygon points="187.8323189536399,250.10468303121056 182.2633234859554,245.54110006593984 183.43100453231546,238.4364170347293 190.1676810463601,235.89531696878944 195.7366765140446,240.45889993406016 194.56899546768454,247.5635829652707" fill="#00d9ff" stroke="#0077b6" stroke-width="0.5" fill-opacity="0.7639666044372482" stroke-opacity="0.7639666044372482" />
  <polygon points="204.98322046053292,249.91177258662256 200.00583958507045,244.70930397830014 202.02261912453753,237.79753139167758 209.01677953946705,236.0882274133775 213.99416041492952,241.29069602169992 211.97738087546244,248.20246860832248" fill="#00d9ff" stroke="#0077b6" stroke-width="0.5" fill-opacity="0.7817365308607185" stroke-opacity="0.7817365308607185" />
  <polygon points="222.16361825094512,249.6177744426377 217.85064834163293,243.85250857180682 220.68703009068776,237.23473412916914 227.83638174905482,236.38222555736235 232.14935165836704,242.14749142819323 229.3129699093122,248.76526587083092" fill="#00d9ff" stroke="#0077b6" stroke-width="0.5" fill-opacity="0.8004754176224649" stroke-opacity="0.8004754176224649" />
  <polygon points="239.38549936593577,249.22698845079626 235.80001949550606,242.9832448543036 239.41452012957023,236.75625640350736 246.61450063406417,236.7730115492038 250.19998050449388,243.01675514569646 246.5854798704297,249.2437435964927" fill="#00d9ff" stroke="#0077b6" stroke-width="0.5" fill-opacity="0.820078537789257" stroke-opacity="0.820078537789257" />
  <polygon points="256.6602441347847,248.74513002727784 253.854693515725,242.11422618813992 258.1944493809403,236.3690961608621 265.3397558652153,237.2548699727222 268.145306484275,243.88577381186008 263.8055506190597,249.63090383913791" fill="#00d9ff" stroke="#0077b6" stroke-width="0.5" fill-opacity="0.8404518578371372" stroke-opacity="0.8404518578371372" />
  <polygon points="273.9984597326952,248.17924656243832 272.01387077081284,241.2581623516824 277.01541103811763,236.0789157892441 284.0015402673048,237.82075343756168 285.98612922918716,244.7418376483176 280.98458896188237,249.9210842107559" fill="#00d9ff" stroke="#0077b6" stroke-width="0.5" fill-opacity="0.8615115485510385" stroke-opacity="0.8615115485510385" />
  <polygon points="15.23538290724796,264.6 9.0,268.2 2.764617092752043,264.6 2.7646170927520397,257.4 8.999999999999998,253.8 15.23538290724796,257.4" fill="#00d9ff" stroke="#0077b6" stroke-width="0.5" fill-opacity="0.696039603960396" stroke-opacity="0.696039603960396" />
  <polygon points="32.71469305718696,265.3797583565922 26.064364529347472,268.1389485406506 20.3496714721605,263.7591901840584 21.285306942813033,256.6202416434078 27.935635470652528,253.86105145934945 33.650328527839505,258.2408098159416" fill="#00d9ff" stroke="#0077b6" stroke-width="0.5" fill-opacity="0.6970486236949986" stroke-opacity="0.6970486236949986" />
  <polygon points="50.09708922077171,266.08524153561 43.14459625616784,267.9568295183491 38.047507035396116,262.8715879827392 39.90291077922829,255.91475846439002 46.85540374383216,254.0431704816509 51.952492964603884,259.1284120172608" fill="#00d9ff" stroke="#0077b6" stroke-width="0.5" fill-opacity="0.7000604136840438" stroke-opacity="0.7000604136840438" />
  <polygon points="67.39304518008912,266.7044854321574 60.25629329027803,267.65673144200866 55.86324811018889,261.9522460098513 58.60695481991088,255.29551456784262 65.74370670972198,254.34326855799137 70.13675188981111,260.0477539901487" fill="#00d9ff" stroke="#0077b6" stroke-width="0.5" fill-opacity="0.7050302988196988" stroke-opacity="0.7050302988196988" />
  <polygon points="84.61450063406417,267.2269884507962 77.41452012957026,267.24374359649266 73.80001949550606,261.01675514569644 77.38549936593581,254.77301154920374 84.58547987042974,254.75625640350734 88.19998050449394,260.98324485430356" fill="#00d9ff" stroke="#0077b6" stroke-width="0.5" fill-opacity="0.7118874053341171" stroke-opacity="0.7118874053341171" />
  <polygon points="101.77465871622562,267.6438895993592 94.63355218512855,266.7248697347629 91.8588934689029,260.08098013540376 96.22534128377438,254.3561104006408 103.36644781487145,255.2751302652371 106.1411065310971,261.91901986459624" fill="#00d9ff" stroke="#0077b6" stroke-width="0.5" fill-opacity="0.7205394270811458" stroke-opacity="0.7205394270811458" />
  <polygon points="118.88776208621421,267.94811876020066 111.92663368826213,266.10890930306294 110.03887160204788,259.16079054286234 115.11223791378579,254.05188123979934 122.07336631173787,255.89109069693706 123.96112839795212,262.83920945713766" fill="#00d9ff" stroke="#0077b6" stroke-width="0.5" fill-opacity="0.7308782520997967" stroke-opacity="0.7308782520997967" />
  <polygon points="135.9688513922395,268.1345165904745 129.30575308504734,265.4063082134086 128.3369016928078,258.27179162293413 134.0311486077605,253.86548340952552 140.69424691495266,256.5936917865914 141.6630983071922,263.72820837706587" fill="#00d9ff" stroke="#0077b6" stroke-width="0.5" fill-opacity="0.7427857381187702" stroke-opacity="0.7427857381187702" />
  <polygon points="153.03351020065674,268.19992201808134 146.78143972740307,264.62898169409533 146.74792952674628,257.42905967601405 152.96648979934326,253.8000779819187 159.21856027259693,257.37101830590467 159.25207047325372,264.57094032398595" fill="#00d9ff" stroke="#0077b6" stroke-width="0.5" fill-opacity="0.7561390522375417" stroke-opacity="0.7561390522375417" />
  <polygon points="170.097600718337,268.1432258494642 164.3625853085628,263.79011222245515 165.26498459022577,256.64688637299093 171.902399281663,253.85677415053576 177.6374146914372,258.20988777754485 176.73501540977423,265.35311362700907" fill="#00d9ff" stroke="#0077b6" stroke-width="0.5" fill-opacity="0.7708151902996673" stroke-opacity="0.7708151902996673" />
  <polygon points="187.1769947896454,267.96538958013264 182.05629307117246,262.9039259666678 183.87929828152699,255.93853638653525 190.8230052103546,254.0346104198674 195.94370692882754,259.0960740333322 194.12070171847301,266.06146361346475" fill="#00d9ff" stroke="#0077b6" stroke-width="0.5" fill-opacity="0.7866944988425815" stroke-opacity="0.7866944988425815" />
  <polygon points="204.28730472997984,267.6694290889109 199.8677573452542,261.98545152789217 202.58045261527428,255.3160224389813 209.7126952700201,254.33057091108915 214.13224265474574,260.0145484721079 211.41954738472566,266.68397756101876" fill="#00d9ff" stroke="#0077b6" stroke-width="0.5" fill-opacity="0.8036631913653425" stroke-opacity="0.8036631913653425" />
  <polygon points="221.44361856059348,267.2603634924376 217.80017545892113,261.05026507414533 221.35655689832757,254.78990158170777 228.55638143940647,254.73963650756247 232.1998245410788,260.9497349258547 228.64344310167237,267.21009841829226" fill="#00d9ff" stroke="#0077b6" stroke-width="0.5" fill-opacity="0.8216149622230771" stroke-opacity="0.8216149622230771" />
  <polygon points="238.66024413478462,266.74513002727787 235.85469351572493,260.11422618814 240.19444938094023,254.36909616086214 247.3397558652153,255.25486997272222 250.14530648427498,261.8857738118601 245.80555061905972,267.63090383913794" fill="#00d9ff" stroke="#0077b6" stroke-width="0.5" fill-opacity="0.8404518578371372" stroke-opacity="0.8404518578371372" />
  <polygon points="255.95046649475125,266.132466403141 254.03038695818543,259.1932089087644 259.0799204634341,254.06074250562347 266.04953350524875,255.86753359685906 267.96961304181457,262.8067910912356 262.9200795365659,267.9392574943766" fill="#00d9ff" stroke="#0077b6" stroke-width="0.5" fill-opacity="0.8600845791576615" stroke-opacity="0.8600845791576615" />
  <polygon points="273.32632257403156,265.43276262234474 272.32427624711914,258.3028325274054 277.9979536730875,253.87006990506066 284.67367742596844,256.56723737765526 285.67572375288086,263.6971674725946 280.0020463269125,268.1299300949393" fill="#00d9ff" stroke="#0077b6" stroke-width="0.5" fill-opacity="0.8804323770490294" stroke-opacity="0.8804323770490294" />
  <polygon points="15.23538290724796,282.6 9.0,286.2 2.764617092752043,282.6 2.7646170927520397,275.4 8.999999999999998,271.8 15.23538290724796,275.4" fill="#00d9ff" stroke="#0077b6" stroke-width="0.5" fill-opacity="0.7243281471004244" stroke-opacity="0.7243281471004244" />
  <polygon points="32.6736774259684,283.43276262234474 25.99795367308753,286.1299300949393 20.32427624711913,281.6971674725946 21.326322574031604,274.56723737765526 28.00204632691247,271.8700699050607 33.67572375288088,276.3028325274054" fill="#00d9ff" stroke="#0077b6" stroke-width="0.5" fill-opacity="0.7252700531364331" stroke-opacity="0.7252700531364331" />
  <polygon points="50.001540267304776,284.1792465624383 43.01541103811761,285.9210842107559 38.013870770812815,280.74183764831764 39.998459732695224,273.8207534375617 46.98458896188239,272.0789157892441 51.986129229187185,277.25816235168236" fill="#00d9ff" stroke="#0077b6" stroke-width="0.5" fill-opacity="0.7280833366455886" stroke-opacity="0.7280833366455886" />
  <polygon points="67.2320538165058,284.8249223594996 60.07149616985424,285.5775272950267 55.83944235334842,279.75260493552713 58.7679461834942,273.1750776405004 65.92850383014576,272.4224727049733 70.16055764665157,278.24739506447287" fill="#00d9ff" stroke="#0077b6" stroke-width="0.5" fill-opacity="0.7327315004463467" stroke-opacity="0.7327315004463467" />
  <polygon points="84.3801952520584,285.3572226685843 77.18458129752094,285.1059462923263 73.80438604546251,278.748723623742 77.61980474794159,272.6427773314157 84.81541870247906,272.8940537076737 88.19561395453749,279.251276376258" fill="#00d9ff" stroke="#0077b6" stroke-width="0.5" fill-opacity="0.7391562856084872" stroke-opacity="0.7391562856084872" />
  <polygon points="101.4625450319448,285.76578686965854 94.37192921025692,284.51551999045665 91.9093841783121,277.7497331207981 96.53745496805519,272.23421313034146 103.62807078974308,273.48448000954335 106.0906158216879,280.2502668792019" fill="#00d9ff" stroke="#0077b6" stroke-width="0.5" fill-opacity="0.7472811400521047" stroke-opacity="0.7472811400521047" />
  <polygon points="118.49696417388785,286.04266272528344 111.64935725656277,283.8177403657838 110.15239308267488,276.7750776405004 115.50303582611214,271.95733727471656 122.35064274343723,274.1822596342162 123.84760691732512,281.2249223594996" fill="#00d9ff" stroke="#0077b6" stroke-width="0.5" fill-opacity="0.7570154008883596" stroke-opacity="0.7570154008883596" />
  <polygon points="135.50224661095768,286.1824611618707 129.0309294776037,283.0261889049894 128.528682866646,275.8437277431187 134.49775338904232,271.8175388381293 140.9690705223963,274.9738110950106 141.471317133354,282.1562722568813" fill="#00d9ff" stroke="#0077b6" stroke-width="0.5" fill-opacity="0.7682587088330085" stroke-opacity="0.7682587088330085" />
  <polygon points="152.4977533890423,286.1824611618707 146.528682866646,282.1562722568814 147.03092947760368,274.97381109501066 153.5022466109577,271.8175388381293 159.471317133354,275.8437277431186 158.96907052239632,283.02618890498934" fill="#00d9ff" stroke="#0077b6" stroke-width="0.5" fill-opacity="0.7809052333804809" stroke-opacity="0.7809052333804809" />
  <polygon points="169.5030358261121,286.0426627252834 164.1523930826749,281.2249223594996 165.64935725656275,274.1822596342162 172.4969641738879,271.9573372747166 177.8476069173251,276.7750776405004 176.35064274343725,283.8177403657838" fill="#00d9ff" stroke="#0077b6" stroke-width="0.5" fill-opacity="0.7948474026742829" stroke-opacity="0.7948474026742829" />
  <polygon points="186.53745496805516,285.76578686965854 181.9093841783121,280.2502668792019 184.3719292102569,273.48448000954335 191.46254503194484,272.23421313034146 196.0906158216879,277.7497331207981 193.6280707897431,284.51551999045665" fill="#00d9ff" stroke="#0077b6" stroke-width="0.5" fill-opacity="0.8099789639977353" stroke-opacity="0.8099789639977353" />
  <polygon points="203.61980474794154,285.3572226685843 199.8043860454625,279.25127637625803 203.18458129752088,272.8940537076738 210.3801952520584,272.64277733141574 214.19561395453746,278.748723623742 210.81541870247906,285.1059462923263" fill="#00d9ff" stroke="#0077b6" stroke-width="0.5" fill-opacity="0.8261973193136711" stroke-opacity="0.8261973193136711" />
  <polygon points="220.76794618349413,284.8249223594996 217.8394423533484,278.2473950644729 222.07149616985419,272.4224727049733 229.2320538165058,273.17507764050043 232.1605576466515,279.75260493552713 227.92850383014576,285.57752729502675" fill="#00d9ff" stroke="#0077b6" stroke-width="0.5" fill-opacity="0.8434051686647397" stroke-opacity="0.8434051686647397" />
  <polygon points="237.99845973269515,284.1792465624383 236.0138707708128,277.2581623516824 241.01541103811755,272.07891578924415 248.00154026730476,273.82075343756173 249.98612922918713,280.74183764831764 244.9845889618824,285.9210842107559" fill="#00d9ff" stroke="#0077b6" stroke-width="0.5" fill-opacity="0.8615115485510385" stroke-opacity="0.8615115485510385" />
  <polygon points="255.32632257403156,283.43276262234474 254.32427624711914,276.3028325274054 259.9979536730875,271.8700699050607 266.67367742596844,274.56723737765526 267.67572375288086,281.6971674725946 262.0020463269125,286.1299300949393" fill="#00d9ff" stroke="#0077b6" stroke-width="0.5" fill-opacity="0.8804323770490294" stroke-opacity="0.8804323770490294" />
  <polygon points="272.764617092752,282.6 272.7646170927521,275.40000000000003 279.0,271.79999999999995 285.235382907248,275.4 285.2353829072479,282.59999999999997 279.0,286.20000000000005" fill="#00d9ff" stroke="#0077b6" stroke-width="0.5" fill-opacity="0.9000906205260659" stroke-opacity="0.9000906205260659" />
</svg>