<?xml version="1.0" encoding="UTF-8"?>
<svg xmlns="http://www.w3.org/2000/svg" width="288" height="288" viewBox="0 0 288 288">
  <rect width="100%" height="100%" fill="#0a1628" />
  <polygon points="15.2354,12.6 9,16.2 2.76462,12.6 2.76462,5.4 9,1.8 15.2354,5.4" fill="#00d9ff" stroke="#0077b6" stroke-width="0.5" fill-opacity="0.3" stroke-opacity="0.3" />
  <polygon points="33.2354,12.6 27,16.2 20.7646,12.6 20.7646,5.4 27,1.8 33.2354,5.4" fill="#00d9ff" stroke="#0077b6" stroke-width="0.5" fill-opacity="0.328289" stroke-opacity="0.328289" />
  <polygon points="51.2354,12.6 45,16.2 38.7646,12.6 38.7646,5.4 45,1.8 51.2354,5.4" fill="#00d9ff" stroke="#0077b6" stroke-width="0.5" fill-opacity="0.356577" stroke-opacity="0.356577" />
  <polygon points="69.2354,12.6 63,16.2 56.7646,12.6 56.7646,5.4 63,1.8 69.2354,5.4" fill="#00d9ff" stroke="#0077b6" stroke-width="0.5" fill-opacity="0.384866" stroke-opacity="0.384866" />
  <polygon points="87.2354,12.6 81,16.2 74.7646,12.6 74.7646,5.4 81,1.8 87.2354,5.4" fill="#00d9ff" stroke="#0077b6" stroke-width="0.5" fill-opacity="0.413154" stroke-opacity="0.413154" />
  <polygon points="105.235,12.6 99,16.2 92.7646,12.6 92.7646,5.4 99,1.8 105.235,5.4" fill="#00d9ff" stroke="#0077b6" stroke-width="0.5" fill-opacity="0.441443" stroke-opacity="0.441443" />
  <polygon points="123.235,12.6 117,16.2 110.765,12.6 110.765,5.4 117,1.8 123.235,5.4" fill="#00d9ff" stroke="#0077b6" stroke-width="0.5" fill-opacity="0.469731" stroke-opacity="0.469731" />
  <polygon points="141.235,12.6 135,16.2 128.765,12.6 128.765,5.4 135,1.8 141.235,5.4" fill="#00d9ff" stroke="#0077b6" stroke-width="0.5" fill-opacity="0.49802" stroke-opacity="0.49802" />
  <polygon points="159.235,12.6 153,16.2 146.765,12.6 146.765,5.4 153,1.8 159.235,5.4" fill="#00d9ff" stroke="#0077b6" stroke-width="0.5" fill-opacity="0.526308" stroke-opacity="0.526308" />
  <polygon points="177.235,12.6 171,16.2 164.765,12.6 164.765,5.4 171,1.8 177.235,5.4" fill="#00d9ff" stroke="#0077b6" stroke-width="0.5" fill-opacity="0.554597" stroke-opacity="0.554597" />
  <polygon points="195.235,12.6 189,16.2 182.765,12.6 182.765,5.4 189,1.8 195.235,5.4" fill="#00d9ff" stroke="#0077b6" stroke-width="0.5" fill-opacity="0.582885" stroke-opacity="0.582885" />
  <polygon points="213.235,12.6 207,16.2 200.765,12.6 200.765,5.4 207,1.8 213.235,5.4" fill="#00d9ff" stroke="#0077b6" stroke-width="0.5" fill-opacity="0.611174" stroke-opacity="0.611174" />
  <polygon points="231.235,12.6 225,16.2 218.765,12.6 218.765,5.4 225,1.8 231.235,5.4" fill="#00d9ff" stroke="#0077b6" stroke-width="0.5" fill-opacity="0.639463" stroke-opacity="0.639463" />
  <polygon points="249.235,12.6 243,16.2 236.765,12.6 236.765,5.4 243,1.8 249.235,5.4" fill="#00d9ff" stroke="#0077b6" stroke-width="0.5" fill-opacity="0.667751" stroke-opacity="0.667751" />
  <polygon points="267.235,12.6 261,16.2 254.765,12.6 254.765,5.4 261,1.8 267.235,5.4" fill="#00d9ff" stroke="#0077b6" stroke-width="0.5" fill-opacity="0.69604" stroke-opacity="0.69604" />
  <polygon points="285.235,12.6 279,16.2 272.765,12.6 272.765,5.4 279,1.8 285.235,5.4" fill="#00d9ff" stroke="#0077b6" stroke-width="0.5" fill-opacity="0.724328" stroke-opacity="0.724328" />
  <polygon points="15.2354,30.6 9,34.2 2.76462,30.6 2.76462,23.4 9,19.8 15.2354,23.4" fill="#00d9ff" stroke="#0077b6" stroke-width="0.5" fill-opacity="0.328289" stroke-opacity="0.328289" />
  <polygon points="33.2354,30.6 27,34.2 20.7646,30.6 20.7646,23.4 27,19.8 33.2354,23.4" fill="#00d9ff" stroke="#0077b6" stroke-width="0.5" fill-opacity="0.340006" stroke-opacity="0.340006" transform="rotate(0.533333 27 27)" />
  <polygon points="51.2354,30.6 45,34.2 38.7646,30.6 38.7646,23.4 45,19.8 51.2354,23.4" fill="#00d9ff" stroke="#0077b6" stroke-width="0.5" fill-opacity="0.363255" stroke-opacity="0.363255" transform="rotate(1.06667 45 27)" />
  <polygon points="69.2354,30.6 63,34.2 56.7646,30.6 56.7646,23.4 63,19.8 69.2354,23.4" fill="#00d9ff" stroke="#0077b6" stroke-width="0.5" fill-opacity="0.389456" stroke-opacity="0.389456" transform="rotate(1.6 63 27)" />
  <polygon points="87.2354,30.6 81,34.2 74.7646,30.6 74.7646,23.4 81,19.8 87.2354,23.4" fill="#00d9ff" stroke="#0077b6" stroke-width="0.5" fill-opacity="0.416637" stroke-opacity="0.416637" transform="rotate(2.13333 81 27)" />
  <polygon points="105.235,30.6 99,34.2 92.7646,30.6 92.7646,23.4 99,19.8 105.235,23.4" fill="#00d9ff" stroke="#0077b6" stroke-width="0.5" fill-opacity="0.444244" stroke-opacity="0.444244" transform="rotate(2.66667 99 27)" />
  <polygon points="123.235,30.6 117,34.2 110.765,30.6 110.765,23.4 117,19.8 123.235,23.4" fill="#00d9ff" stroke="#0077b6" stroke-width="0.5" fill-opacity="0.472072" stroke-opacity="0.472072" transform="rotate(3.2 117 27)" />
  <polygon points="141.235,30.6 135,34.2 128.765,30.6 128.765,23.4 135,19.8 141.235,23.4" fill="#00d9ff" stroke="#0077b6" stroke-width="0.5" fill-opacity="0.50003" stroke-opacity="0.50003" transform="rotate(3.73333 135 27)" />
  <polygon points="159.235,30.6 153,34.2 146.765,30.6 146.765,23.4 153,19.8 159.235,23.4" fill="#00d9ff" stroke="#0077b6" stroke-width="0.5" fill-opacity="0.52807" stroke-opacity="0.52807" transform="rotate(4.26667 153 27)" />
  <polygon points="177.235,30.6 171,34.2 164.765,30.6 164.765,23.4 171,19.8 177.235,23.4" fill="#00d9ff" stroke="#0077b6" stroke-width="0.5" fill-opacity="0.556164" stroke-opacity="0.556164" transform="rotate(4.8 171 27)" />
  <polygon points="195.235,30.6 189,34.2 182.765,30.6 182.765,23.4 189,19.8 195.235,23.4" fill="#00d9ff" stroke="#0077b6" stroke-width="0.5" fill-opacity="0.584296" stroke-opacity="0.584296" transform="rotate(5.33333 189 27)" />
  <polygon points="213.235,30.6 207,34.2 200.765,30.6 200.765,23.4 207,19.8 213.235,23.4" fill="#00d9ff" stroke="#0077b6" stroke-width="0.5" fill-opacity="0.612457" stroke-opacity="0.612457" transform="rotate(5.86667 207 27)" />
  <polygon points="231.235,30.6 225,34.2 218.765,30.6 218.765,23.4 225,19.8 231.235,23.4" fill="#00d9ff" stroke="#0077b6" stroke-width="0.5" fill-opacity="0.640639" stroke-opacity="0.640639" transform="rotate(6.4 225 27)" />
  <polygon points="249.235,30.6 243,34.2 236.765,30.6 236.765,23.4 243,19.8 249.235,23.4" fill="#00d9ff" stroke="#0077b6" stroke-width="0.5" fill-opacity="0.668837" stroke-opacity="0.668837" transform="rotate(6.93333 243 27)" />
  <polygon points="267.235,30.6 261,34.2 254.765,30.6 254.765,23.4 261,19.8 267.235,23.4" fill="#00d9ff" stroke="#0077b6" stroke-width="0.5" fill-opacity="0.697049" stroke-opacity="0.697049" transform="rotate(7.46667 261 27)" />
  <polygon points="285.235,30.6 279,34.2 272.765,30.6 272.765,23.4 279,19.8 285.235,23.4" fill="#00d9ff" stroke="#0077b6" stroke-width="0.5" fill-opacity="0.72527" stroke-opacity="0.72527" transform="rotate(8 279 27)" />
  <polygon points="15.2354,48.6 9,52.2 2.76462,48.6 2.76462,41.4 9,37.8 15.2354,41.4" fill="#00d9ff" stroke="#0077b6" stroke-width="0.5" fill-opacity="0.356577" stroke-opacity="0.356577" />
  <polygon points="33.2354,48.6 27,52.2 20.7646,48.6 20.7646,41.4 27,37.8 33.2354,41.4" fill="#00d9ff" stroke="#0077b6" stroke-width="0.5" fill-opacity="0.363255" stroke-opacity="0.363255" transform="rotate(1.06667 27 45)" />
  <polygon points="51.2354,48.6 45,52.2 38.7646,48.6 38.7646,41.4 45,37.8 51.2354,41.4" fill="#00d9ff" stroke="#0077b6" stroke-width="0.5" fill-opacity="0.380012" stroke-opacity="0.380012" transform="rotate(2.13333 45 45)" />
  <polygon points="69.2354,48.6 63,52.2 56.7646,48.6 56.7646,41.4 63,37.8 69.2354,41.4" fill="#00d9ff" stroke="#0077b6" stroke-width="0.5" fill-opacity="0.401996" stroke-opacity="0.401996" transform="rotate(3.2 63 45)" />
  <polygon points="87.2354,48.6 81,52.2 74.7646,48.6 74.7646,41.4 81,37.8 87.2354,41.4" fill="#00d9ff" stroke="#0077b6" stroke-width="0.5" fill-opacity="0.42651" stroke-opacity="0.42651" transform="rotate(4.26667 81 45)" />
  <polygon points="105.235,48.6 99,52.2 92.7646,48.6 92.7646,41.4 99,37.8 105.235,41.4" fill="#00d9ff" stroke="#0077b6" stroke-width="0.5" fill-opacity="0.452338" stroke-opacity="0.452338" transform="rotate(5.33333 99 45)" />
  <polygon points="123.235,48.6 117,52.2 110.765,48.6 110.765,41.4 117,37.8 123.235,41.4" fill="#00d9ff" stroke="#0077b6" stroke-width="0.5" fill-opacity="0.478912" stroke-opacity="0.478912" transform="rotate(6.4 117 45)" />
  <polygon points="141.235,48.6 135,52.2 128.765,48.6 128.765,41.4 135,37.8 141.235,41.4" fill="#00d9ff" stroke="#0077b6" stroke-width="0.5" fill-opacity="0.505944" stroke-opacity="0.505944" transform="rotate(7.46667 135 45)" />
  <polygon points="159.235,48.6 153,52.2 146.765,48.6 146.765,41.4 153,37.8 159.235,41.4" fill="#00d9ff" stroke="#0077b6" stroke-width="0.5" fill-opacity="0.533273" stroke-opacity="0.533273" transform="rotate(8.53333 153 45)" />
  <polygon points="177.235,48.6 171,52.2 164.765,48.6 164.765,41.4 171,37.8 177.235,41.4" fill="#00d9ff" stroke="#0077b6" stroke-width="0.5" fill-opacity="0.560807" stroke-opacity="0.560807" transform="rotate(9.6 171 45)" />
  <polygon points="195.235,48.6 189,52.2 182.765,48.6 182.765,41.4 189,37.8 195.235,41.4" fill="#00d9ff" stroke="#0077b6" stroke-width="0.5" fill-opacity="0.588488" stroke-opacity="0.588488" transform="rotate(10.6667 189 45)" />
  <polygon points="213.235,48.6 207,52.2 200.765,48.6 200.765,41.4 207,37.8 213.235,41.4" fill="#00d9ff" stroke="#0077b6" stroke-width="0.5" fill-opacity="0.616276" stroke-opacity="0.616276" transform="rotate(11.7333 207 45)" />
  <polygon points="231.235,48.6 225,52.2 218.765,48.6 218.765,41.4 225,37.8 231.235,41.4" fill="#00d9ff" stroke="#0077b6" stroke-width="0.5" fill-opacity="0.644145" stroke-opacity="0.644145" transform="rotate(12.8 225 45)" />
  <polygon points="249.235,48.6 243,52.2 236.765,48.6 236.765,41.4 243,37.8 249.235,41.4" fill="#00d9ff" stroke="#0077b6" stroke-width="0.5" fill-opacity="0.672078" stroke-opacity="0.672078" transform="rotate(13.8667 243 45)" />
  <polygon points="267.235,48.6 261,52.2 254.765,48.6 254.765,41.4 261,37.8 267.235,41.4" fill="#00d9ff" stroke="#0077b6" stroke-width="0.5" fill-opacity="0.70006" stroke-opacity="0.70006" transform="rotate(14.9333 261 45)" />
  <polygon points="285.235,48.6 279,52.2 272.765,48.6 272.765,41.4 279,37.8 285.235,41.4" fill="#00d9ff" stroke="#0077b6" stroke-width="0.5" fill-opacity="0.728083" stroke-opacity="0.728083" transform="rotate(16 279 45)" />
  <polygon points="15.2354,66.6 9,70.2 2.76462,66.6 2.76462,59.4 9,55.8 15.2354,59.4" fill="#00d9ff" stroke="#0077b6" stroke-width="0.5" fill-opacity="0.384866" stroke-opacity="0.384866" />
  <polygon points="33.2354,66.6 27,70.2 20.7646,66.6 20.7646,59.4 27,55.8 33.2354,59.4" fill="#00d9ff" stroke="#0077b6" stroke-width="0.5" fill-opacity="0.389456" stroke-opacity="0.389456" transform="rotate(1.6 27 63)" />
  <polygon points="51.2354,66.6 45,70.2 38.7646,66.6 38.7646,59.4 45,55.8 51.2354,59.4" fill="#00d9ff" stroke="#0077b6" stroke-width="0.5" fill-opacity="0.401996" stroke-opacity="0.401996" transform="rotate(3.2 45 63)" />
  <polygon points="69.2354,66.6 63,70.2 56.7646,66.6 56.7646,59.4 63,55.8 69.2354,59.4" fill="#00d9ff" stroke="#0077b6" stroke-width="0.5" fill-opacity="0.420018" stroke-opacity="0.420018" transform="rotate(4.8 63 63)" />
  <polygon points="87.2354,66.6 81,70.2 74.7646,66.6 74.7646,59.4 81,55.8 87.2354,59.4" fill="#00d9ff" stroke="#0077b6" stroke-width="0.5" fill-opacity="0.441443" stroke-opacity="0.441443" transform="rotate(6.4 81 63)" />
  <polygon points="105.235,66.6 99,70.2 92.7646,66.6 92.7646,59.4 99,55.8 105.235,59.4" fill="#00d9ff" stroke="#0077b6" stroke-width="0.5" fill-opacity="0.464949" stroke-opacity="0.464949" transform="rotate(8 99 63)" />
  <polygon points="123.235,66.6 117,70.2 110.765,66.6 110.765,59.4 117,55.8 123.235,59.4" fill="#00d9ff" stroke="#0077b6" stroke-width="0.5" fill-opacity="0.489765" stroke-opacity="0.489765" transform="rotate(9.6 117 63)" />
  <polygon points="141.235,66.6 135,70.2 128.765,66.6 128.765,59.4 135,55.8 141.235,59.4" fill="#00d9ff" stroke="#0077b6" stroke-width="0.5" fill-opacity="0.515439" stroke-opacity="0.515439" transform="rotate(11.2 135 63)" />
  <polygon points="159.235,66.6 153,70.2 146.765,66.6 146.765,59.4 153,55.8 159.235,59.4" fill="#00d9ff" stroke="#0077b6" stroke-width="0.5" fill-opacity="0.541697" stroke-opacity="0.541697" transform="rotate(12.8 153 63)" />
  <polygon points="177.235,66.6 171,70.2 164.765,66.6 164.765,59.4 171,55.8 177.235,59.4" fill="#00d9ff" stroke="#0077b6" stroke-width="0.5" fill-opacity="0.568369" stroke-opacity="0.568369" transform="rotate(14.4 171 63)" />
  <polygon points="195.235,66.6 189,70.2 182.765,66.6 182.765,59.4 189,55.8 195.235,59.4" fill="#00d9ff" stroke="#0077b6" stroke-width="0.5" fill-opacity="0.595341" stroke-opacity="0.595341" transform="rotate(16 189 63)" />
  <polygon points="213.235,66.6 207,70.2 200.765,66.6 200.765,59.4 207,55.8 213.235,59.4" fill="#00d9ff" stroke="#0077b6" stroke-width="0.5" fill-opacity="0.622539" stroke-opacity="0.622539" transform="rotate(17.6 207 63)" />
  <polygon points="231.235,66.6 225,70.2 218.765,66.6 218.765,59.4 225,55.8 231.235,59.4" fill="#00d9ff" stroke="#0077b6" stroke-width="0.5" fill-opacity="0.64991" stroke-opacity="0.64991" transform="rotate(19.2 225 63)" />
  <polygon points="249.235,66.6 243,70.2 236.765,66.6 236.765,59.4 243,55.8 249.235,59.4" fill="#00d9ff" stroke="#0077b6" stroke-width="0.5" fill-opacity="0.677416" stroke-opacity="0.677416" transform="rotate(20.8 243 63)" />
  <polygon points="267.235,66.6 261,70.2 254.765,66.6 254.765,59.4 261,55.8 267.235,59.4" fill="#00d9ff" stroke="#0077b6" stroke-width="0.5" fill-opacity="0.70503" stroke-opacity="0.70503" transform="rotate(22.4 261 63)" />
  <polygon points="285.235,66.6 279,70.2 272.765,66.6 272.765,59.4 279,55.8 285.235,59.4" fill="#00d9ff" stroke="#0077b6" stroke-width="0.5" fill-opacity="0.732732" stroke-opacity="0.732732" transform="rotate(24 279 63)" />
  <polygon points="15.2354,84.6 9,88.2 2.76462,84.6 2.76462,77.4 9,73.8 15.2354,77.4" fill="#00d9ff" stroke="#0077b6" stroke-width="0.5" fill-opacity="0.413154" stroke-opacity="0.413154" />
  <polygon points="33.2354,84.6 27,88.2 20.7646,84.6 20.7646,77.4 27,73.8 33.2354,77.4" fill="#00d9ff" stroke="#0077b6" stroke-width="0.5" fill-opacity="0.416637" stroke-opacity="0.416637" transform="rotate(2.13333 27 81)" />
  <polygon points="51.2354,84.6 45,88.2 38.7646,84.6 38.7646,77.4 45,73.8 51.2354,77.4" fill="#00d9ff" stroke="#0077b6" stroke-width="0.5" fill-opacity="0.42651" stroke-opacity="0.42651" transform="rotate(4.26667 45 81)" />
  <polygon points="69.2354,84.6 63,88.2 56.7646,84.6 56.7646,77.4 63,73.8 69.2354,77.4" fill="#00d9ff" stroke="#0077b6" stroke-width="0.5" fill-opacity="0.441443" stroke-opacity="0.441443" transform="rotate(6.4 63 81)" />
  <polygon points="87.2354,84.6 81,88.2 74.7646,84.6 74.7646,77.4 81,73.8 87.2354,77.4" fill="#00d9ff" stroke="#0077b6" stroke-width="0.5" fill-opacity="0.460024" stroke-opacity="0.460024" transform="rotate(8.53333 81 81)" />
  <polygon points="105.235,84.6 99,88.2 92.7646,84.6 92.7646,77.4 99,73.8 105.235,77.4" fill="#00d9ff" stroke="#0077b6" stroke-width="0.5" fill-opacity="0.481135" stroke-opacity="0.481135" transform="rotate(10.6667 99 81)" />
  <polygon points="123.235,84.6 117,88.2 110.765,84.6 110.765,77.4 117,73.8 123.235,77.4" fill="#00d9ff" stroke="#0077b6" stroke-width="0.5" fill-opacity="0.503992" stroke-opacity="0.503992" transform="rotate(12.8 117 81)" />
  <polygon points="141.235,84.6 135,88.2 128.765,84.6 128.765,77.4 135,73.8 141.235,77.4" fill="#00d9ff" stroke="#0077b6" stroke-width="0.5" fill-opacity="0.52807" stroke-opacity="0.52807" transform="rotate(14.9333 135 81)" />
  <polygon points="159.235,84.6 153,88.2 146.765,84.6 146.765,77.4 153,73.8 159.235,77.4" fill="#00d9ff" stroke="#0077b6" stroke-width="0.5" fill-opacity="0.55302" stroke-opacity="0.55302" transform="rotate(17.0667 153 81)" />
  <polygon points="177.235,84.6 171,88.2 164.765,84.6 164.765,77.4 171,73.8 177.235,77.4" fill="#00d9ff" stroke="#0077b6" stroke-width="0.5" fill-opacity="0.57861" stroke-opacity="0.57861" transform="rotate(19.2 171 81)" />
  <polygon points="195.235,84.6 189,88.2 182.765,84.6 182.765,77.4 189,73.8 195.235,77.4" fill="#00d9ff" stroke="#0077b6" stroke-width="0.5" fill-opacity="0.604677" stroke-opacity="0.604677" transform="rotate(21.3333 189 81)" />
  <polygon points="213.235,84.6 207,88.2 200.765,84.6 200.765,77.4 207,73.8 213.235,77.4" fill="#00d9ff" stroke="#0077b6" stroke-width="0.5" fill-opacity="0.631109" stroke-opacity="0.631109" transform="rotate(23.4667 207 81)" />
  <polygon points="231.235,84.6 225,88.2 218.765,84.6 218.765,77.4 225,73.8 231.235,77.4" fill="#00d9ff" stroke="#0077b6" stroke-width="0.5" fill-opacity="0.657825" stroke-opacity="0.657825" transform="rotate(25.6 225 81)" />
  <polygon points="249.235,84.6 243,88.2 236.765,84.6 236.765,77.4 243,73.8 249.235,77.4" fill="#00d9ff" stroke="#0077b6" stroke-width="0.5" fill-opacity="0.684766" stroke-opacity="0.684766" transform="rotate(27.7333 243 81)" />
  <polygon points="267.235,84.6 261,88.2 254.765,84.6 254.765,77.4 261,73.8 267.235,77.4" fill="#00d9ff" stroke="#0077b6" stroke-width="0.5" fill-opacity="0.711887" stroke-opacity="0.711887" transform="rotate(29.8667 261 81)" />
  <polygon points="285.235,84.6 279,88.2 272.765,84.6 272.765,77.4 279,73.8 285.235,77.4" fill="#00d9ff" stroke="#0077b6" stroke-width="0.5" fill-opacity="0.739156" stroke-opacity="0.739156" transform="rotate(32 279 81)" />
  <polygon points="15.2354,102.6 9,106.2 2.76462,102.6 2.76462,95.4 9,91.8 15.2354,95.4" fill="#00d9ff" stroke="#0077b6" stroke-width="0.5" fill-opacity="0.441443" stroke-opacity="0.441443" />
  <polygon points="33.2354,102.6 27,106.2 20.7646,102.6 20.7646,95.4 27,91.8 33.2354,95.4" fill="#00d9ff" stroke="#0077b6" stroke-width="0.5" fill-opacity="0.444244" stroke-opacity="0.444244" transform="rotate(2.66667 27 99)" />
  <polygon points="51.2354,102.6 45,106.2 38.7646,102.6 38.7646,95.4 45,91.8 51.2354,95.4" fill="#00d9ff" stroke="#0077b6" stroke-width="0.5" fill-opacity="0.452338" stroke-opacity="0.452338" transform="rotate(5.33333 45 99)" />
  <polygon points="69.2354,102.6 63,106.2 56.7646,102.6 56.7646,95.4 63,91.8 69.2354,95.4" fill="#00d9ff" stroke="#0077b6" stroke-width="0.5" fill-opacity="0.464949" stroke-opacity="0.464949" transform="rotate(8 63 99)" />
  <polygon points="87.2354,102.6 81,106.2 74.7646,102.6 74.7646,95.4 81,91.8 87.2354,95.4" fill="#00d9ff" stroke="#0077b6" stroke-width="0.5" fill-opacity="0.481135" stroke-opacity="0.481135" transform="rotate(10.6667 81 99)" />
  <polygon points="105.235,102.6 99,106.2 92.7646,102.6 92.7646,95.4 99,91.8 105.235,95.4" fill="#00d9ff" stroke="#0077b6" stroke-width="0.5" fill-opacity="0.50003" stroke-opacity="0.50003" transform="rotate(13.3333 99 99)" />
  <polygon points="123.235,102.6 117,106.2 110.765,102.6 110.765,95.4 117,91.8 123.235,95.4" fill="#00d9ff" stroke="#0077b6" stroke-width="0.5" fill-opacity="0.520941" stroke-opacity="0.520941" transform="rotate(16 117 99)" />
  <polygon points="141.235,102.6 135,106.2 128.765,102.6 128.765,95.4 135,91.8 141.235,95.4" fill="#00d9ff" stroke="#0077b6" stroke-width="0.5" fill-opacity="0.543347" stroke-opacity="0.543347" transform="rotate(18.6667 135 99)" />
  <polygon points="159.235,102.6 153,106.2 146.765,102.6 146.765,95.4 153,91.8 159.235,95.4" fill="#00d9ff" stroke="#0077b6" stroke-width="0.5" fill-opacity="0.566874" stroke-opacity="0.566874" transform="rotate(21.3333 153 99)" />
  <polygon points="177.235,102.6 171,106.2 164.765,102.6 164.765,95.4 171,91.8 177.235,95.4" fill="#00d9ff" stroke="#0077b6" stroke-width="0.5" fill-opacity="0.591248" stroke-opacity="0.591248" transform="rotate(24 171 99)" />
  <polygon points="195.235,102.6 189,106.2 182.765,102.6 182.765,95.4 189,91.8 195.235,95.4" fill="#00d9ff" stroke="#0077b6" stroke-width="0.5" fill-opacity="0.616276" stroke-opacity="0.616276" transform="rotate(26.6667 189 99)" />
  <polygon points="213.235,102.6 207,106.2 200.765,102.6 200.765,95.4 207,91.8 213.235,95.4" fill="#00d9ff" stroke="#0077b6" stroke-width="0.5" fill-opacity="0.641812" stroke-opacity="0.641812" transform="rotate(29.3333 207 99)" />
  <polygon points="231.235,102.6 225,106.2 218.765,102.6 218.765,95.4 225,91.8 231.235,95.4" fill="#00d9ff" stroke="#0077b6" stroke-width="0.5" fill-opacity="0.667751" stroke-opacity="0.667751" transform="rotate(32 225 99)" />
  <polygon points="249.235,102.6 243,106.2 236.765,102.6 236.765,95.4 243,91.8 249.235,95.4" fill="#00d9ff" stroke="#0077b6" stroke-width="0.5" fill-opacity="0.694014" stroke-opacity="0.694014" transform="rotate(34.6667 243 99)" />
  <polygon points="267.235,102.6 261,106.2 254.765,102.6 254.765,95.4 261,91.8 267.235,95.4" fill="#00d9ff" stroke="#0077b6" stroke-width="0.5" fill-opacity="0.720539" stroke-opacity="0.720539" transform="rotate(37.3333 261 99)" />
  <polygon points="285.235,102.6 279,106.2 272.765,102.6 272.765,95.4 279,91.8 285.235,95.4" fill="#00d9ff" stroke="#0077b6" stroke-width="0.5" fill-opacity="0.747281" stroke-opacity="0.747281" transform="rotate(40 279 99)" />
  <polygon points="15.2354,120.6 9,124.2 2.76462,120.6 2.76462,113.4 9,109.8 15.2354,113.4" fill="#00d9ff" stroke="#0077b6" stroke-width="0.5" fill-opacity="0.469731" stroke-opacity="0.469731" />
  <polygon points="33.2354,120.6 27,124.2 20.7646,120.6 20.7646,113.4 27,109.8 33.2354,113.4" fill="#00d9ff" stroke="#0077b6" stroke-width="0.5" fill-opacity="0.472072" stroke-opacity="0.472072" transform="rotate(3.2 27 117)" />
  <polygon points="51.2354,120.6 45,124.2 38.7646,120.6 38.7646,113.4 45,109.8 51.2354,113.4" fill="#00d9ff" stroke="#0077b6" stroke-width="0.5" fill-opacity="0.478912" stroke-opacity="0.478912" transform="rotate(6.4 45 117)" />
  <polygon points="69.2354,120.6 63,124.2 56.7646,120.6 56.7646,113.4 63,109.8 69.2354,113.4" fill="#00d9ff" stroke="#0077b6" stroke-width="0.5" fill-opacity="0.489765" stroke-opacity="0.489765" transform="rotate(9.6 63 117)" />
  <polygon points="87.2354,120.6 81,124.2 74.7646,120.6 74.7646,113.4 81,109.8 87.2354,113.4" fill="#00d9ff" stroke="#0077b6" stroke-width="0.5" fill-opacity="0.503992" stroke-opacity="0.503992" transform="rotate(12.8 81 117)" />
  <polygon points="105.235,120.6 99,124.2 92.7646,120.6 92.7646,113.4 99,109.8 105.235,113.4" fill="#00d9ff" stroke="#0077b6" stroke-width="0.5" fill-opacity="0.520941" stroke-opacity="0.520941" transform="rotate(16 99 117)" />
  <polygon points="123.235,120.6 117,124.2 110.765,120.6 110.765,113.4 117,109.8 123.235,113.4" fill="#00d9ff" stroke="#0077b6" stroke-width="0.5" fill-opacity="0.540036" stroke-opacity="0.540036" transform="rotate(19.2 117 117)" />
  <polygon points="141.235,120.6 135,124.2 128.765,120.6 128.765,113.4 135,109.8 141.235,113.4" fill="#00d9ff" stroke="#0077b6" stroke-width="0.5" fill-opacity="0.560807" stroke-opacity="0.560807" transform="rotate(22.4 135 117)" />
  <polygon points="159.235,120.6 153,124.2 146.765,120.6 146.765,113.4 153,109.8 159.235,113.4" fill="#00d9ff" stroke="#0077b6" stroke-width="0.5" fill-opacity="0.582885" stroke-opacity="0.582885" transform="rotate(25.6 153 117)" />
  <polygon points="177.235,120.6 171,124.2 164.765,120.6 164.765,113.4 171,109.8 177.235,113.4" fill="#00d9ff" stroke="#0077b6" stroke-width="0.5" fill-opacity="0.605987" stroke-opacity="0.605987" transform="rotate(28.8 171 117)" />
  <polygon points="195.235,120.6 189,124.2 182.765,120.6 182.765,113.4 189,109.8 195.235,113.4" fill="#00d9ff" stroke="#0077b6" stroke-width="0.5" fill-opacity="0.629898" stroke-opacity="0.629898" transform="rotate(32 189 117)" />
  <polygon points="213.235,120.6 207,124.2 200.765,120.6 200.765,113.4 207,109.8 213.235,113.4" fill="#00d9ff" stroke="#0077b6" stroke-width="0.5" fill-opacity="0.654454" stroke-opacity="0.654454" transform="rotate(35.2 207 117)" />
  <polygon points="231.235,120.6 225,124.2 218.765,120.6 218.765,113.4 225,109.8 231.235,113.4" fill="#00d9ff" stroke="#0077b6" stroke-width="0.5" fill-opacity="0.679531" stroke-opacity="0.679531" transform="rotate(38.4 225 117)" />
  <polygon points="249.235,120.6 243,124.2 236.765,120.6 236.765,113.4 243,109.8 249.235,113.4" fill="#00d9ff" stroke="#0077b6" stroke-width="0.5" fill-opacity="0.70503" stroke-opacity="0.70503" transform="rotate(41.6 243 117)" />
  <polygon points="267.235,120.6 261,124.2 254.765,120.6 254.765,113.4 261,109.8 267.235,113.4" fill="#00d9ff" stroke="#0077b6" stroke-width="0.5" fill-opacity="0.730878" stroke-opacity="0.730878" transform="rotate(44.8 261 117)" />
  <polygon points="285.235,120.6 279,124.2 272.765,120.6 272.765,113.4 279,109.8 285.235,113.4" fill="#00d9ff" stroke="#0077b6" stroke-width="0.5" fill-opacity="0.757015" stroke-opacity="0.757015" transform="rotate(48 279 117)" />
  <polygon points="15.2354,138.6 9,142.2 2.76462,138.6 2.76462,131.4 9,127.8 15.2354,131.4" fill="#00d9ff" stroke="#0077b6" stroke-width="0.5" fill-opacity="0.49802" stroke-opacity="0.49802" />
  <polygon points="33.2354,138.6 27,142.2 20.7646,138.6 20.7646,131.4 27,127.8 33.2354,131.4" fill="#00d9ff" stroke="#0077b6" stroke-width="0.5" fill-opacity="0.50003" stroke-opacity="0.50003" transform="rotate(3.73333 27 135)" />
  <polygon points="51.2354,138.6 45,142.2 38.7646,138.6 38.7646,131.4 45,127.8 51.2354,131.4" fill="#00d9ff" stroke="#0077b6" stroke-width="0.5" fill-opacity="0.505944" stroke-opacity="0.505944" transform="rotate(7.46667 45 135)" />
  <polygon points="69.2354,138.6 63,142.2 56.7646,138.6 56.7646,131.4 63,127.8 69.2354,131.4" fill="#00d9ff" stroke="#0077b6" stroke-width="0.5" fill-opacity="0.515439" stroke-opacity="0.515439" transform="rotate(11.2 63 135)" />
  <polygon points="87.2354,138.6 81,142.2 74.7646,138.6 74.7646,131.4 81,127.8 87.2354,131.4" fill="#00d9ff" stroke="#0077b6" stroke-width="0.5" fill-opacity="0.52807" stroke-opacity="0.52807" transform="rotate(14.9333 81 135)" />
  <polygon points="105.235,138.6 99,142.2 92.7646,138.6 92.7646,131.4 99,127.8 105.235,131.4" fill="#00d9ff" stroke="#0077b6" stroke-width="0.5" fill-opacity="0.543347" stroke-opacity="0.543347" transform="rotate(18.6667 99 135)" />
  <polygon points="123.235,138.6 117,142.2 110.765,138.6 110.765,131.4 117,127.8 123.235,131.4" fill="#00d9ff" stroke="#0077b6" stroke-width="0.5" fill-opacity="0.560807" stroke-opacity="0.560807" transform="rotate(22.4 117 135)" />
  <polygon points="141.235,138.6 135,142.2 128.765,138.6 128.765,131.4 135,127.8 141.235,131.4" fill="#00d9ff" stroke="#0077b6" stroke-width="0.5" fill-opacity="0.580042" stroke-opacity="0.580042" transform="rotate(26.1333 135 135)" />
  <polygon points="159.235,138.6 153,142.2 146.765,138.6 146.765,131.4 153,127.8 159.235,131.4" fill="#00d9ff" stroke="#0077b6" stroke-width="0.5" fill-opacity="0.600711" stroke-opacity="0.600711" transform="rotate(29.8667 153 135)" />
  <polygon points="177.235,138.6 171,142.2 164.765,138.6 164.765,131.4 171,127.8 177.235,131.4" fill="#00d9ff" stroke="#0077b6" stroke-width="0.5" fill-opacity="0.622539" stroke-opacity="0.622539" transform="rotate(33.6 171 135)" />
  <polygon points="195.235,138.6 189,142.2 182.765,138.6 182.765,131.4 189,127.8 195.235,131.4" fill="#00d9ff" stroke="#0077b6" stroke-width="0.5" fill-opacity="0.645306" stroke-opacity="0.645306" transform="rotate(37.3333 189 135)" />
  <polygon points="213.235,138.6 207,142.2 200.765,138.6 200.765,131.4 207,127.8 213.235,131.4" fill="#00d9ff" stroke="#0077b6" stroke-width="0.5" fill-opacity="0.668837" stroke-opacity="0.668837" transform="rotate(41.0667 207 135)" />
  <polygon points="231.235,138.6 225,142.2 218.765,138.6 218.765,131.4 225,127.8 231.235,131.4" fill="#00d9ff" stroke="#0077b6" stroke-width="0.5" fill-opacity="0.692997" stroke-opacity="0.692997" transform="rotate(44.8 225 135)" />
  <polygon points="249.235,138.6 243,142.2 236.765,138.6 236.765,131.4 243,127.8 249.235,131.4" fill="#00d9ff" stroke="#0077b6" stroke-width="0.5" fill-opacity="0.717675" stroke-opacity="0.717675" transform="rotate(48.5333 243 135)" />
  <polygon points="267.235,138.6 261,142.2 254.765,138.6 254.765,131.4 261,127.8 267.235,131.4" fill="#00d9ff" stroke="#0077b6" stroke-width="0.5" fill-opacity="0.742786" stroke-opacity="0.742786" transform="rotate(52.2667 261 135)" />
  <polygon points="285.235,138.6 279,142.2 272.765,138.6 272.765,131.4 279,127.8 285.235,131.4" fill="#00d9ff" stroke="#0077b6" stroke-width="0.5" fill-opacity="0.768259" stroke-opacity="0.768259" transform="rotate(56 279 135)" />
  <polygon points="15.2354,156.6 9,160.2 2.76462,156.6 2.76462,149.4 9,145.8 15.2354,149.4" fill="#00d9ff" stroke="#0077b6" stroke-width="0.5" fill-opacity="0.526308" stroke-opacity="0.526308" />
  <polygon points="33.2354,156.6 27,160.2 20.7646,156.6 20.7646,149.4 27,145.8 33.2354,149.4" fill="#00d9ff" stroke="#0077b6" stroke-width="0.5" fill-opacity="0.52807" stroke-opacity="0.52807" transform="rotate(4.26667 27 153)" />
  <polygon points="51.2354,156.6 45,160.2 38.7646,156.6 38.7646,149.4 45,145.8 51.2354,149.4" fill="#00d9ff" stroke="#0077b6" stroke-width="0.5" fill-opacity="0.533273" stroke-opacity="0.533273" transform="rotate(8.53333 45 153)" />
  <polygon points="69.2354,156.6 63,160.2 56.7646,156.6 56.7646,149.4 63,145.8 69.2354,149.4" fill="#00d9ff" stroke="#0077b6" stroke-width="0.5" fill-opacity="0.541697" stroke-opacity="0.541697" transform="rotate(12.8 63 153)" />
  <polygon points="87.2354,156.6 81,160.2 74.7646,156.6 74.7646,149.4 81,145.8 87.2354,149.4" fill="#00d9ff" stroke="#0077b6" stroke-width="0.5" fill-opacity="0.55302" stroke-opacity="0.55302" transform="rotate(17.0667 81 153)" />
  <polygon points="105.235,156.6 99,160.2 92.7646,156.6 92.7646,149.4 99,145.8 105.235,149.4" fill="#00d9ff" stroke="#0077b6" stroke-width="0.5" fill-opacity="0.566874" stroke-opacity="0.566874" transform="rotate(21.3333 99 153)" />
  <polygon points="123.235,156.6 117,160.2 110.765,156.6 110.765,149.4 117,145.8 123.235,149.4" fill="#00d9ff" stroke="#0077b6" stroke-width="0.5" fill-opacity="0.582885" stroke-opacity="0.582885" transform="rotate(25.6 117 153)" />
  <polygon points="141.235,156.6 135,160.2 128.765,156.6 128.765,149.4 135,145.8 141.235,149.4" fill="#00d9ff" stroke="#0077b6" stroke-width="0.5" fill-opacity="0.600711" stroke-opacity="0.600711" transform="rotate(29.8667 135 153)" />
  <polygon points="159.235,156.6 153,160.2 146.765,156.6 146.765,149.4 153,145.8 159.235,149.4" fill="#00d9ff" stroke="#0077b6" stroke-width="0.5" fill-opacity="0.620048" stroke-opacity="0.620048" transform="rotate(34.1333 153 153)" />
  <polygon points="177.235,156.6 171,160.2 164.765,156.6 164.765,149.4 171,145.8 177.235,149.4" fill="#00d9ff" stroke="#0077b6" stroke-width="0.5" fill-opacity="0.640639" stroke-opacity="0.640639" transform="rotate(38.4 171 153)" />
  <polygon points="195.235,156.6 189,160.2 182.765,156.6 182.765,149.4 189,145.8 195.235,149.4" fill="#00d9ff" stroke="#0077b6" stroke-width="0.5" fill-opacity="0.66227" stroke-opacity="0.66227" transform="rotate(42.6667 189 153)" />
  <polygon points="213.235,156.6 207,160.2 200.765,156.6 200.765,149.4 207,145.8 213.235,149.4" fill="#00d9ff" stroke="#0077b6" stroke-width="0.5" fill-opacity="0.684766" stroke-opacity="0.684766" transform="rotate(46.9333 207 153)" />
  <polygon points="231.235,156.6 225,160.2 218.765,156.6 218.765,149.4 225,145.8 231.235,149.4" fill="#00d9ff" stroke="#0077b6" stroke-width="0.5" fill-opacity="0.707983" stroke-opacity="0.707983" transform="rotate(51.2 225 153)" />
  <polygon points="249.235,156.6 243,160.2 236.765,156.6 236.765,149.4 243,145.8 249.235,149.4" fill="#00d9ff" stroke="#0077b6" stroke-width="0.5" fill-opacity="0.731806" stroke-opacity="0.731806" transform="rotate(55.4667 243 153)" />
  <polygon points="267.235,156.6 261,160.2 254.765,156.6 254.765,149.4 261,145.8 267.235,149.4" fill="#00d9ff" stroke="#0077b6" stroke-width="0.5" fill-opacity="0.756139" stroke-opacity="0.756139" transform="rotate(59.7333 261 153)" />
  <polygon points="285.235,156.6 279,160.2 272.765,156.6 272.765,149.4 279,145.8 285.235,149.4" fill="#00d9ff" stroke="#0077b6" stroke-width="0.5" fill-opacity="0.780905" stroke-opacity="0.780905" transform="rotate(64 279 153)" />
  <polygon points="15.2354,174.6 9,178.2 2.76462,174.6 2.76462,167.4 9,163.8 15.2354,167.4" fill="#00d9ff" stroke="#0077b6" stroke-width="0.5" fill-opacity="0.554597" stroke-opacity="0.554597" />
  <polygon points="33.2354,174.6 27,178.2 20.7646,174.6 20.7646,167.4 27,163.8 33.2354,167.4" fill="#00d9ff" stroke="#0077b6" stroke-width="0.5" fill-opacity="0.556164" stroke-opacity="0.556164" transform="rotate(4.8 27 171)" />
  <polygon points="51.2354,174.6 45,178.2 38.7646,174.6 38.7646,167.4 45,163.8 51.2354,167.4" fill="#00d9ff" stroke="#0077b6" stroke-width="0.5" fill-opacity="0.560807" stroke-opacity="0.560807" transform="rotate(9.6 45 171)" />
  <polygon points="69.2354,174.6 63,178.2 56.7646,174.6 56.7646,167.4 63,163.8 69.2354,167.4" fill="#00d9ff" stroke="#0077b6" stroke-width="0.5" fill-opacity="0.568369" stroke-opacity="0.568369" transform="rotate(14.4 63 171)" />
  <polygon points="87.2354,174.6 81,178.2 74.7646,174.6 74.7646,167.4 81,163.8 87.2354,167.4" fill="#00d9ff" stroke="#0077b6" stroke-width="0.5" fill-opacity="0.57861" stroke-opacity="0.57861" transform="rotate(19.2 81 171)" />
  <polygon points="105.235,174.6 99,178.2 92.7646,174.6 92.7646,167.4 99,163.8 105.235,167.4" fill="#00d9ff" stroke="#0077b6" stroke-width="0.5" fill-opacity="0.591248" stroke-opacity="0.591248" transform="rotate(24 99 171)" />
  <polygon points="123.235,174.6 117,178.2 110.765,174.6 110.765,167.4 117,163.8 123.235,167.4" fill="#00d9ff" stroke="#0077b6" stroke-width="0.5" fill-opacity="0.605987" stroke-opacity="0.605987" transform="rotate(28.8 117 171)" />
  <polygon points="141.235,174.6 135,178.2 128.765,174.6 128.765,167.4 135,163.8 141.235,167.4" fill="#00d9ff" stroke="#0077b6" stroke-width="0.5" fill-opacity="0.622539" stroke-opacity="0.622539" transform="rotate(33.6 135 171)" />
  <polygon points="159.235,174.6 153,178.2 146.765,174.6 146.765,167.4 153,163.8 159.235,167.4" fill="#00d9ff" stroke="#0077b6" stroke-width="0.5" fill-opacity="0.640639" stroke-opacity="0.640639" transform="rotate(38.4 153 171)" />
  <polygon points="177.235,174.6 171,178.2 164.765,174.6 164.765,167.4 171,163.8 177.235,167.4" fill="#00d9ff" stroke="#0077b6" stroke-width="0.5" fill-opacity="0.660054" stroke-opacity="0.660054" transform="rotate(43.2 171 171)" />
  <polygon points="195.235,174.6 189,178.2 182.765,174.6 182.765,167.4 189,163.8 195.235,167.4" fill="#00d9ff" stroke="#0077b6" stroke-width="0.5" fill-opacity="0.680583" stroke-opacity="0.680583" transform="rotate(48 189 171)" />
  <polygon points="213.235,174.6 207,178.2 200.765,174.6 200.765,167.4 207,163.8 213.235,167.4" fill="#00d9ff" stroke="#0077b6" stroke-width="0.5" fill-opacity="0.702056" stroke-opacity="0.702056" transform="rotate(52.8 207 171)" />
  <polygon points="231.235,174.6 225,178.2 218.765,174.6 218.765,167.4 225,163.8 231.235,167.4" fill="#00d9ff" stroke="#0077b6" stroke-width="0.5" fill-opacity="0.724328" stroke-opacity="0.724328" transform="rotate(57.6 225 171)" />
  <polygon points="249.235,174.6 243,178.2 236.765,174.6 236.765,167.4 243,163.8 249.235,167.4" fill="#00d9ff" stroke="#0077b6" stroke-width="0.5" fill-opacity="0.747281" stroke-opacity="0.747281" transform="rotate(62.4 243 171)" />
  <polygon points="267.235,174.6 261,178.2 254.765,174.6 254.765,167.4 261,163.8 267.235,167.4" fill="#00d9ff" stroke="#0077b6" stroke-width="0.5" fill-opacity="0.770815" stroke-opacity="0.770815" transform="rotate(67.2 261 171)" />
  <polygon points="285.235,174.6 279,178.2 272.765,174.6 272.765,167.4 279,163.8 285.235,167.4" fill="#00d9ff" stroke="#0077b6" stroke-width="0.5" fill-opacity="0.794847" stroke-opacity="0.794847" transform="rotate(72 279 171)" />
  <polygon points="15.2354,192.6 9,196.2 2.76462,192.6 2.76462,185.4 9,181.8 15.2354,185.4" fill="#00d9ff" stroke="#0077b6" stroke-width="0.5" fill-opacity="0.582885" stroke-opacity="0.582885" />
  <polygon points="33.2354,192.6 27,196.2 20.7646,192.6 20.7646,185.4 27,181.8 33.2354,185.4" fill="#00d9ff" stroke="#0077b6" stroke-width="0.5" fill-opacity="0.584296" stroke-opacity="0.584296" transform="rotate(5.33333 27 189)" />
  <polygon points="51.2354,192.6 45,196.2 38.7646,192.6 38.7646,185.4 45,181.8 51.2354,185.4" fill="#00d9ff" stroke="#0077b6" stroke-width="0.5" fill-opacity="0.588488" stroke-opacity="0.588488" transform="rotate(10.6667 45 189)" />
  <polygon points="69.2354,192.6 63,196.2 56.7646,192.6 56.7646,185.4 63,181.8 69.2354,185.4" fill="#00d9ff" stroke="#0077b6" stroke-width="0.5" fill-opacity="0.595341" stroke-opacity="0.595341" transform="rotate(16 63 189)" />
  <polygon points="87.2354,192.6 81,196.2 74.7646,192.6 74.7646,185.4 81,181.8 87.2354,185.4" fill="#00d9ff" stroke="#0077b6" stroke-width="0.5" fill-opacity="0.604677" stroke-opacity="0.604677" transform="rotate(21.3333 81 189)" />
  <polygon points="105.235,192.6 99,196.2 92.7646,192.6 92.7646,185.4 99,181.8 105.235,185.4" fill="#00d9ff" stroke="#0077b6" stroke-width="0.5" fill-opacity="0.616276" stroke-opacity="0.616276" transform="rotate(26.6667 99 189)" />
  <polygon points="123.235,192.6 117,196.2 110.765,192.6 110.765,185.4 117,181.8 123.235,185.4" fill="#00d9ff" stroke="#0077b6" stroke-width="0.5" fill-opacity="0.629898" stroke-opacity="0.629898" transform="rotate(32 117 189)" />
  <polygon points="141.235,192.6 135,196.2 128.765,192.6 128.765,185.4 135,181.8 141.235,185.4" fill="#00d9ff" stroke="#0077b6" stroke-width="0.5" fill-opacity="0.645306" stroke-opacity="0.645306" transform="rotate(37.3333 135 189)" />
  <polygon points="159.235,192.6 153,196.2 146.765,192.6 146.765,185.4 153,181.8 159.235,185.4" fill="#00d9ff" stroke="#0077b6" stroke-width="0.5" fill-opacity="0.66227" stroke-opacity="0.66227" transform="rotate(42.6667 153 189)" />
  <polygon points="177.235,192.6 171,196.2 164.765,192.6 164.765,185.4 171,181.8 177.235,185.4" fill="#00d9ff" stroke="#0077b6" stroke-width="0.5" fill-opacity="0.680583" stroke-opacity="0.680583" transform="rotate(48 171 189)" />
  <polygon points="195.235,192.6 189,196.2 182.765,192.6 182.765,185.4 189,181.8 195.235,185.4" fill="#00d9ff" stroke="#0077b6" stroke-width="0.5" fill-opacity="0.70006" stroke-opacity="0.70006" transform="rotate(53.3333 189 189)" />
  <polygon points="213.235,192.6 207,196.2 200.765,192.6 200.765,185.4 207,181.8 213.235,185.4" fill="#00d9ff" stroke="#0077b6" stroke-width="0.5" fill-opacity="0.720539" stroke-opacity="0.720539" transform="rotate(58.6667 207 189)" />
  <polygon points="231.235,192.6 225,196.2 218.765,192.6 218.765,185.4 225,181.8 231.235,185.4" fill="#00d9ff" stroke="#0077b6" stroke-width="0.5" fill-opacity="0.741881" stroke-opacity="0.741881" transform="rotate(64 225 189)" />
  <polygon points="249.235,192.6 243,196.2 236.765,192.6 236.765,185.4 243,181.8 249.235,185.4" fill="#00d9ff" stroke="#0077b6" stroke-width="0.5" fill-opacity="0.763967" stroke-opacity="0.763967" transform="rotate(69.3333 243 189)" />
  <polygon points="267.235,192.6 261,196.2 254.765,192.6 254.765,185.4 261,181.8 267.235,185.4" fill="#00d9ff" stroke="#0077b6" stroke-width="0.5" fill-opacity="0.786694" stroke-opacity="0.786694" transform="rotate(74.6667 261 189)" />
  <polygon points="285.235,192.6 279,196.2 272.765,192.6 272.765,185.4 279,181.8 285.235,185.4" fill="#00d9ff" stroke="#0077b6" stroke-width="0.5" fill-opacity="0.809979" stroke-opacity="0.809979" transform="rotate(80 279 189)" />
  <polygon points="15.2354,210.6 9,214.2 2.76462,210.6 2.76462,203.4 9,199.8 15.2354,203.4" fill="#00d9ff" stroke="#0077b6" stroke-width="0.5" fill-opacity="0.611174" stroke-opacity="0.611174" />
  <polygon points="33.2354,210.6 27,214.2 20.7646,210.6 20.7646,203.4 27,199.8 33.2354,203.4" fill="#00d9ff" stroke="#0077b6" stroke-width="0.5" fill-opacity="0.612457" stroke-opacity="0.612457" transform="rotate(5.86667 27 207)" />
  <polygon points="51.2354,210.6 45,214.2 38.7646,210.6 38.7646,203.4 45,199.8 51.2354,203.4" fill="#00d9ff" stroke="#0077b6" stroke-width="0.5" fill-opacity="0.616276" stroke-opacity="0.616276" transform="rotate(11.7333 45 207)" />
  <polygon points="69.2354,210.6 63,214.2 56.7646,210.6 56.7646,203.4 63,199.8 69.2354,203.4" fill="#00d9ff" stroke="#0077b6" stroke-width="0.5" fill-opacity="0.622539" stroke-opacity="0.622539" transform="rotate(17.6 63 207)" />
  <polygon points="87.2354,210.6 81,214.2 74.7646,210.6 74.7646,203.4 81,199.8 87.2354,203.4" fill="#00d9ff" stroke="#0077b6" stroke-width="0.5" fill-opacity="0.631109" stroke-opacity="0.631109" transform="rotate(23.4667 81 207)" />
  <polygon points="105.235,210.6 99,214.2 92.7646,210.6 92.7646,203.4 99,199.8 105.235,203.4" fill="#00d9ff" stroke="#0077b6" stroke-width="0.5" fill-opacity="0.641812" stroke-opacity="0.641812" transform="rotate(29.3333 99 207)" />
  <polygon points="123.235,210.6 117,214.2 110.765,210.6 110.765,203.4 117,199.8 123.235,203.4" fill="#00d9ff" stroke="#0077b6" stroke-width="0.5" fill-opacity="0.654454" stroke-opacity="0.654454" transform="rotate(35.2 117 207)" />
  <polygon points="141.235,210.6 135,214.2 128.765,210.6 128.765,203.4 135,199.8 141.235,203.4" fill="#00d9ff" stroke="#0077b6" stroke-width="0.5" fill-opacity="0.668837" stroke-opacity="0.668837" transform="rotate(41.0667 135 207)" />
  <polygon points="159.235,210.6 153,214.2 146.765,210.6 146.765,203.4 153,199.8 159.235,203.4" fill="#00d9ff" stroke="#0077b6" stroke-width="0.5" fill-opacity="0.684766" stroke-opacity="0.684766" transform="rotate(46.9333 153 207)" />
  <polygon points="177.235,210.6 171,214.2 164.765,210.6 164.765,203.4 171,199.8 177.235,203.4" fill="#00d9ff" stroke="#0077b6" stroke-width="0.5" fill-opacity="0.702056" stroke-opacity="0.702056" transform="rotate(52.8 171 207)" />
  <polygon points="195.235,210.6 189,214.2 182.765,210.6 182.765,203.4 189,199.8 195.235,203.4" fill="#00d9ff" stroke="#0077b6" stroke-width="0.5" fill-opacity="0.720539" stroke-opacity="0.720539" transform="rotate(58.6667 189 207)" />
  <polygon points="213.235,210.6 207,214.2 200.765,210.6 200.765,203.4 207,199.8 213.235,203.4" fill="#00d9ff" stroke="#0077b6" stroke-width="0.5" fill-opacity="0.740066" stroke-opacity="0.740066" transform="rotate(64.5333 207 207)" />
  <polygon points="231.235,210.6 225,214.2 218.765,210.6 218.765,203.4 225,199.8 231.235,203.4" fill="#00d9ff" stroke="#0077b6" stroke-width="0.5" fill-opacity="0.760504" stroke-opacity="0.760504" transform="rotate(70.4 225 207)" />
  <polygon points="249.235,210.6 243,214.2 236.765,210.6 236.765,203.4 243,199.8 249.235,203.4" fill="#00d9ff" stroke="#0077b6" stroke-width="0.5" fill-opacity="0.781737" stroke-opacity="0.781737" transform="rotate(76.2667 243 207)" />
  <polygon points="267.235,210.6 261,214.2 254.765,210.6 254.765,203.4 261,199.8 267.235,203.4" fill="#00d9ff" stroke="#0077b6" stroke-width="0.5" fill-opacity="0.803663" stroke-opacity="0.803663" transform="rotate(82.1333 261 207)" />
  <polygon points="285.235,210.6 279,214.2 272.765,210.6 272.765,203.4 279,199.8 285.235,203.4" fill="#00d9ff" stroke="#0077b6" stroke-width="0.5" fill-opacity="0.826197" stroke-opacity="0.826197" transform="rotate(88 279 207)" />
  <polygon points="15.2354,228.6 9,232.2 2.76462,228.6 2.76462,221.4 9,217.8 15.2354,221.4" fill="#00d9ff" stroke="#0077b6" stroke-width="0.5" fill-opacity="0.639463" stroke-opacity="0.639463" />
  <polygon points="33.2354,228.6 27,232.2 20.7646,228.6 20.7646,221.4 27,217.8 33.2354,221.4" fill="#00d9ff" stroke="#0077b6" stroke-width="0.5" fill-opacity="0.640639" stroke-opacity="0.640639" transform="rotate(6.4 27 225)" />
  <polygon points="51.2354,228.6 45,232.2 38.7646,228.6 38.7646,221.4 45,217.8 51.2354,221.4" fill="#00d9ff" stroke="#0077b6" stroke-width="0.5" fill-opacity="0.644145" stroke-opacity="0.644145" transform="rotate(12.8 45 225)" />
  <polygon points="69.2354,228.6 63,232.2 56.7646,228.6 56.7646,221.4 63,217.8 69.2354,221.4" fill="#00d9ff" stroke="#0077b6" stroke-width="0.5" fill-opacity="0.64991" stroke-opacity="0.64991" transform="rotate(19.2 63 225)" />
  <polygon points="87.2354,228.6 81,232.2 74.7646,228.6 74.7646,221.4 81,217.8 87.2354,221.4" fill="#00d9ff" stroke="#0077b6" stroke-width="0.5" fill-opacity="0.657825" stroke-opacity="0.657825" transform="rotate(25.6 81 225)" />
  <polygon points="105.235,228.6 99,232.2 92.7646,228.6 92.7646,221.4 99,217.8 105.235,221.4" fill="#00d9ff" stroke="#0077b6" stroke-width="0.5" fill-opacity="0.667751" stroke-opacity="0.667751" transform="rotate(32 99 225)" />
  <polygon points="123.235,228.6 117,232.2 110.765,228.6 110.765,221.4 117,217.8 123.235,221.4" fill="#00d9ff" stroke="#0077b6" stroke-width="0.5" fill-opacity="0.679531" stroke-opacity="0.679531" transform="rotate(38.4 117 225)" />
  <polygon points="141.235,228.6 135,232.2 128.765,228.6 128.765,221.4 135,217.8 141.235,221.4" fill="#00d9ff" stroke="#0077b6" stroke-width="0.5" fill-opacity="0.692997" stroke-opacity="0.692997" transform="rotate(44.8 135 225)" />
  <polygon points="159.235,228.6 153,232.2 146.765,228.6 146.765,221.4 153,217.8 159.235,221.4" fill="#00d9ff" stroke="#0077b6" stroke-width="0.5" fill-opacity="0.707983" stroke-opacity="0.707983" transform="rotate(51.2 153 225)" />
  <polygon points="177.235,228.6 171,232.2 164.765,228.6 164.765,221.4 171,217.8 177.235,221.4" fill="#00d9ff" stroke="#0077b6" stroke-width="0.5" fill-opacity="0.724328" stroke-opacity="0.724328" transform="rotate(57.6 171 225)" />
  <polygon points="195.235,228.6 189,232.2 182.765,228.6 182.765,221.4 189,217.8 195.235,221.4" fill="#00d9ff" stroke="#0077b6" stroke-width="0.5" fill-opacity="0.741881" stroke-opacity="0.741881" transform="rotate(64 189 225)" />
  <polygon points="213.235,228.6 207,232.2 200.765,228.6 200.765,221.4 207,217.8 213.235,221.4" fill="#00d9ff" stroke="#0077b6" stroke-width="0.5" fill-opacity="0.760504" stroke-opacity="0.760504" transform="rotate(70.4 207 225)" />
  <polygon points="231.235,228.6 225,232.2 218.765,228.6 218.765,221.4 225,217.8 231.235,221.4" fill="#00d9ff" stroke="#0077b6" stroke-width="0.5" fill-opacity="0.780072" stroke-opacity="0.780072" transform="rotate(76.8 225 225)" />
  <polygon points="249.235,228.6 243,232.2 236.765,228.6 236.765,221.4 243,217.8 249.235,221.4" fill="#00d9ff" stroke="#0077b6" stroke-width="0.5" fill-opacity="0.800475" stroke-opacity="0.800475" transform="rotate(83.2 243 225)" />
  <polygon points="267.235,228.6 261,232.2 254.765,228.6 254.765,221.4 261,217.8 267.235,221.4" fill="#00d9ff" stroke="#0077b6" stroke-width="0.5" fill-opacity="0.821615" stroke-opacity="0.821615" transform="rotate(89.6 261 225)" />
  <polygon points="285.235,228.6 279,232.2 272.765,228.6 272.765,221.4 279,217.8 285.235,221.4" fill="#00d9ff" stroke="#0077b6" stroke-width="0.5" fill-opacity="0.843405" stroke-opacity="0.843405" transform="rotate(96 279 225)" />
  <polygon points="15.2354,246.6 9,250.2 2.76462,246.6 2.76462,239.4 9,235.8 15.2354,239.4" fill="#00d9ff" stroke="#0077b6" stroke-width="0.5" fill-opacity="0.667751" stroke-opacity="0.667751" />
  <polygon points="33.2354,246.6 27,250.2 20.7646,246.6 20.7646,239.4 27,235.8 33.2354,239.4" fill="#00d9ff" stroke="#0077b6" stroke-width="0.5" fill-opacity="0.668837" stroke-opacity="0.668837" transform="rotate(6.93333 27 243)" />
  <polygon points="51.2354,246.6 45,250.2 38.7646,246.6 38.7646,239.4 45,235.8 51.2354,239.4" fill="#00d9ff" stroke="#0077b6" stroke-width="0.5" fill-opacity="0.672078" stroke-opacity="0.672078" transform="rotate(13.8667 45 243)" />
  <polygon points="69.2354,246.6 63,250.2 56.7646,246.6 56.7646,239.4 63,235.8 69.2354,239.4" fill="#00d9ff" stroke="#0077b6" stroke-width="0.5" fill-opacity="0.677416" stroke-opacity="0.677416" transform="rotate(20.8 63 243)" />
  <polygon points="87.2354,246.6 81,250.2 74.7646,246.6 74.7646,239.4 81,235.8 87.2354,239.4" fill="#00d9ff" stroke="#0077b6" stroke-width="0.5" fill-opacity="0.684766" stroke-opacity="0.684766" transform="rotate(27.7333 81 243)" />
  <polygon points="105.235,246.6 99,250.2 92.7646,246.6 92.7646,239.4 99,235.8 105.235,239.4" fill="#00d9ff" stroke="#0077b6" stroke-width="0.5" fill-opacity="0.694014" stroke-opacity="0.694014" transform="rotate(34.6667 99 243)" />
  <polygon points="123.235,246.6 117,250.2 110.765,246.6 110.765,239.4 117,235.8 123.235,239.4" fill="#00d9ff" stroke="#0077b6" stroke-width="0.5" fill-opacity="0.70503" stroke-opacity="0.70503" transform="rotate(41.6 117 243)" />
  <polygon points="141.235,246.6 135,250.2 128.765,246.6 128.765,239.4 135,235.8 141.235,239.4" fill="#00d9ff" stroke="#0077b6" stroke-width="0.5" fill-opacity="0.717675" stroke-opacity="0.717675" transform="rotate(48.5333 135 243)" />
  <polygon points="159.235,246.6 153,250.2 146.765,246.6 146.765,239.4 153,235.8 159.235,239.4" fill="#00d9ff" stroke="#0077b6" stroke-width="0.5" fill-opacity="0.731806" stroke-opacity="0.731806" transform="rotate(55.4667 153 243)" />
  <polygon points="177.235,246.6 171,250.2 164.765,246.6 164.765,239.4 171,235.8 177.235,239.4" fill="#00d9ff" stroke="#0077b6" stroke-width="0.5" fill-opacity="0.747281" stroke-opacity="0.747281" transform="rotate(62.4 171 243)" />
  <polygon points="195.235,246.6 189,250.2 182.765,246.6 182.765,239.4 189,235.8 195.235,239.4" fill="#00d9ff" stroke="#0077b6" stroke-width="0.5" fill-opacity="0.763967" stroke-opacity="0.763967" transform="rotate(69.3333 189 243)" />
  <polygon points="213.235,246.6 207,250.2 200.765,246.6 200.765,239.4 207,235.8 213.235,239.4" fill="#00d9ff" stroke="#0077b6" stroke-width="0.5" fill-opacity="0.781737" stroke-opacity="0.781737" transform="rotate(76.2667 207 243)" />
  <polygon points="231.235,246.6 225,250.2 218.765,246.6 218.765,239.4 225,235.8 231.235,239.4" fill="#00d9ff" stroke="#0077b6" stroke-width="0.5" fill-opacity="0.800475" stroke-opacity="0.800475" transform="rotate(83.2 225 243)" />
  <polygon points="249.235,246.6 243,250.2 236.765,246.6 236.765,239.4 243,235.8 249.235,239.4" fill="#00d9ff" stroke="#0077b6" stroke-width="0.5" fill-opacity="0.820079" stroke-opacity="0.820079" transform="rotate(90.1333 243 243)" />
  <polygon points="267.235,246.6 261,250.2 254.765,246.6 254.765,239.4 261,235.8 267.235,239.4" fill="#00d9ff" stroke="#0077b6" stroke-width="0.5" fill-opacity="0.840452" stroke-opacity="0.840452" transform="rotate(97.0667 261 243)" />
  <polygon points="285.235,246.6 279,250.2 272.765,246.6 272.765,239.4 279,235.8 285.235,239.4" fill="#00d9ff" stroke="#0077b6" stroke-width="0.5" fill-opacity="0.861512" stroke-opacity="0.861512" transform="rotate(104 279 243)" />
  <polygon points="15.2354,264.6 9,268.2 2.76462,264.6 2.76462,257.4 9,253.8 15.2354,257.4" fill="#00d9ff" stroke="#0077b6" stroke-width="0.5" fill-opacity="0.69604" stroke-opacity="0.69604" />
  <polygon points="33.2354,264.6 27,268.2 20.7646,264.6 20.7646,257.4 27,253.8 33.2354,257.4" fill="#00d9ff" stroke="#0077b6" stroke-width="0.5" fill-opacity="0.697049" stroke-opacity="0.697049" transform="rotate(7.46667 27 261)" />
  <polygon points="51.2354,264.6 45,268.2 38.7646,264.6 38.7646,257.4 45,253.8 51.2354,257.4" fill="#00d9ff" stroke="#0077b6" stroke-width="0.5" fill-opacity="0.70006" stroke-opacity="0.70006" transform="rotate(14.9333 45 261)" />
  <polygon points="69.2354,264.6 63,268.2 56.7646,264.6 56.7646,257.4 63,253.8 69.2354,257.4" fill="#00d9ff" stroke="#0077b6" stroke-width="0.5" fill-opacity="0.70503" stroke-opacity="0.70503" transform="rotate(22.4 63 261)" />
  <polygon points="87.2354,264.6 81,268.2 74.7646,264.6 74.7646,257.4 81,253.8 87.2354,257.4" fill="#00d9ff" stroke="#0077b6" stroke-width="0.5" fill-opacity="0.711887" stroke-opacity="0.711887" transform="rotate(29.8667 81 261)" />
  <polygon points="105.235,264.6 99,268.2 92.7646,264.6 92.7646,257.4 99,253.8 105.235,257.4" fill="#00d9ff" stroke="#0077b6" stroke-width="0.5" fill-opacity="0.720539" stroke-opacity="0.720539" transform="rotate(37.3333 99 261)" />
  <polygon points="123.235,264.6 117,268.2 110.765,264.6 110.765,257.4 117,253.8 123.235,257.4" fill="#00d9ff" stroke="#0077b6" stroke-width="0.5" fill-opacity="0.730878" stroke-opacity="0.730878" transform="rotate(44.8 117 261)" />
  <polygon points="141.235,264.6 135,268.2 128.765,264.6 128.765,257.4 135,253.8 141.235,257.4" fill="#00d9ff" stroke="#0077b6" stroke-width="0.5" fill-opacity="0.742786" stroke-opacity="0.742786" transform="rotate(52.2667 135 261)" />
  <polygon points="159.235,264.6 153,268.2 146.765,264.6 146.765,257.4 153,253.8 159.235,257.4" fill="#00d9ff" stroke="#0077b6" stroke-width="0.5" fill-opacity="0.756139" stroke-opacity="0.756139" transform="rotate(59.7333 153 261)" />
  <polygon points="177.235,264.6 171,268.2 164.765,264.6 164.765,257.4 171,253.8 177.235,257.4" fill="#00d9ff" stroke="#0077b6" stroke-width="0.5" fill-opacity="0.770815" stroke-opacity="0.770815" transform="rotate(67.2 171 261)" />
  <polygon points="195.235,264.6 189,268.2 182.765,264.6 182.765,257.4 189,253.8 195.235,257.4" fill="#00d9ff" stroke="#0077b6" stroke-width="0.5" fill-opacity="0.786694" stroke-opacity="0.786694" transform="rotate(74.6667 189 261)" />
  <polygon points="213.235,264.6 207,268.2 200.765,264.6 200.765,257.4 207,253.8 213.235,257.4" fill="#00d9ff" stroke="#0077b6" stroke-width="0.5" fill-opacity="0.803663" stroke-opacity="0.803663" transform="rotate(82.1333 207 261)" />
  <polygon points="231.235,264.6 225,268.2 218.765,264.6 218.765,257.4 225,253.8 231.235,257.4" fill="#00d9ff" stroke="#0077b6" stroke-width="0.5" fill-opacity="0.821615" stroke-opacity="0.821615" transform="rotate(89.6 225 261)" />
  <polygon points="249.235,264.6 243,268.2 236.765,264.6 236.765,257.4 243,253.8 249.235,257.4" fill="#00d9ff" stroke="#0077b6" stroke-width="0.5" fill-opacity="0.840452" stroke-opacity="0.840452" transform="rotate(97.0667 243 261)" />
  <polygon points="267.235,264.6 261,268.2 254.765,264.6 254.765,257.4 261,253.8 267.235,257.4" fill="#00d9ff" stroke="#0077b6" stroke-width="0.5" fill-opacity="0.860085" stroke-opacity="0.860085" transform="rotate(104.533 261 261)" />
  <polygon points="285.235,264.6 279,268.2 272.765,264.6 272.765,257.4 279,253.8 285.235,257.4" fill="#00d9ff" stroke="#0077b6" stroke-width="0.5" fill-opacity="0.880432" stroke-opacity="0.880432" transform="rotate(112 279 261)" />
  <polygon points="15.2354,282.6 9,286.2 2.76462,282.6 2.76462,275.4 9,271.8 15.2354,275.4" fill="#00d9ff" stroke="#0077b6" stroke-width="0.5" fill-opacity="0.724328" stroke-opacity="0.724328" />
  <polygon points="33.2354,282.6 27,286.2 20.7646,282.6 20.7646,275.4 27,271.8 33.2354,275.4" fill="#00d9ff" stroke="#0077b6" stroke-width="0.5" fill-opacity="0.72527" stroke-opacity="0.72527" transform="rotate(8 27 279)" />
  <polygon points="51.2354,282.6 45,286.2 38.7646,282.6 38.7646,275.4 45,271.8 51.2354,275.4" fill="#00d9ff" stroke="#0077b6" stroke-width="0.5" fill-opacity="0.728083" stroke-opacity="0.728083" transform="rotate(16 45 279)" />
  <polygon points="69.2354,282.6 63,286.2 56.7646,282.6 56.7646,275.4 63,271.8 69.2354,275.4" fill="#00d9ff" stroke="#0077b6" stroke-width="0.5" fill-opacity="0.732732" stroke-opacity="0.732732" transform="rotate(24 63 279)" />
  <polygon points="87.2354,282.6 81,286.2 74.7646,282.6 74.7646,275.4 81,271.8 87.2354,275.4" fill="#00d9ff" stroke="#0077b6" stroke-width="0.5" fill-opacity="0.739156" stroke-opacity="0.739156" transform="rotate(32 81 279)" />
  <polygon points="105.235,282.6 99,286.2 92.7646,282.6 92.7646,275.4 99,271.8 105.235,275.4" fill="#00d9ff" stroke="#0077b6" stroke-width="0.5" fill-opacity="0.747281" stroke-opacity="0.747281" transform="rotate(40 99 279)" />
  <polygon points="123.235,282.6 117,286.2 110.765,282.6 110.765,275.4 117,271.8 123.235,275.4" fill="#00d9ff" stroke="#0077b6" stroke-width="0.5" fill-opacity="0.757015" stroke-opacity="0.757015" transform="rotate(48 117 279)" />
  <polygon points="141.235,282.6 135,286.2 128.765,282.6 128.765,275.4 135,271.8 141.235,275.4" fill="#00d9ff" stroke="#0077b6" stroke-width="0.5" fill-opacity="0.768259" stroke-opacity="0.768259" transform="rotate(56 135 279)" />
  <polygon points="159.235,282.6 153,286.2 146.765,282.6 146.765,275.4 153,271.8 159.235,275.4" fill="#00d9ff" stroke="#0077b6" stroke-width="0.5" fill-opacity="0.780905" stroke-opacity="0.780905" transform="rotate(64 153 279)" />
  <polygon points="177.235,282.6 171,286.2 164.765,282.6 164.765,275.4 171,271.8 177.235,275.4" fill="#00d9ff" stroke="#0077b6" stroke-width="0.5" fill-opacity="0.794847" stroke-opacity="0.794847" transform="rotate(72 171 279)" />
  <polygon points="195.235,282.6 189,286.2 182.765,282.6 182.765,275.4 189,271.8 195.235,275.4" fill="#00d9ff" stroke="#0077b6" stroke-width="0.5" fill-opacity="0.809979" stroke-opacity="0.809979" transform="rotate(80 189 279)" />
  <polygon points="213.235,282.6 207,286.2 200.765,282.6 200.765,275.4 207,271.8 213.235,275.4" fill="#00d9ff" stroke="#0077b6" stroke-width="0.5" fill-opacity="0.826197" stroke-opacity="0.826197" transform="rotate(88 207 279)" />
  <polygon points="231.235,282.6 225,286.2 218.765,282.6 218.765,275.4 225,271.8 231.235,275.4" fill="#00d9ff" stroke="#0077b6" stroke-width="0.5" fill-opacity="0.843405" stroke-opacity="0.843405" transform="rotate(96 225 279)" />
  <polygon points="249.235,282.6 243,286.2 236.765,282.6 236.765,275.4 243,271.8 249.235,275.4" fill="#00d9ff" stroke="#0077b6" stroke-width="0.5" fill-opacity="0.861512" stroke-opacity="0.861512" transform="rotate(104 243 279)" />
  <polygon points="267.235,282.6 261,286.2 254.765,282.6 254.765,275.4 261,271.8 267.235,275.4" fill="#00d9ff" stroke="#0077b6" stroke-width="0.5" fill-opacity="0.880432" stroke-opacity="0.880432" transform="rotate(112 261 279)" />
  <polygon points="285.235,282.6 279,286.2 272.765,282.6 272.765,275.4 279,271.8 285.235,275.4" fill="#00d9ff" stroke="#0077b6" stroke-width="0.5" fill-opacity="0.900091" stroke-opacity="0.900091" transform="rotate(120 279 279)" />
</svg>