<?xml version="1.0" encoding="UTF-8"?>
<svg xmlns="http://www.w3.org/2000/svg" width="288" height="216" viewBox="0 0 288 216">
  <defs>
    <marker id="cap-arrow-ff6b35-4_5" viewBox="0 0 10 10" refX="10" refY="5" markerWidth="4.5" markerHeight="4.5" orient="auto" overflow="visible"><path d="M 0 0 L 10 5 L 0 10 z" fill="#ff6b35" /></marker>
  </defs>
  <rect width="100%" height="100%" fill="#2d1b4e" />
  <line x1="18" y1="18" x2="90" y2="18" stroke="#ff6b35" stroke-width="1.5" stroke-linecap="butt" marker-end="url(#cap-arrow-ff6b35-4_5)" opacity="0.5" />
  <line x1="18" y1="18" x2="18" y2="90" stroke="#ff6b35" stroke-width="1.5" stroke-linecap="butt" marker-end="url(#cap-arrow-ff6b35-4_5)" opacity="0.5" />
  <line x1="90" y1="18" x2="162" y2="18" stroke="#ff6b35" stroke-width="1.5" stroke-linecap="butt" marker-end="url(#cap-arrow-ff6b35-4_5)" opacity="0.5" />
  <line x1="90" y1="18" x2="90" y2="90" stroke="#ff6b35" stroke-width="1.5" stroke-linecap="butt" marker-end="url(#cap-arrow-ff6b35-4_5)" opacity="0.5" />
  <line x1="162" y1="18" x2="162" y2="90" stroke="#ff6b35" stroke-width="1.5" stroke-linecap="butt" marker-end="url(#cap-arrow-ff6b35-4_5)" opacity="0.5" />
  <line x1="162" y1="18" x2="234" y2="18" stroke="#ff6b35" stroke-width="1.5" stroke-linecap="butt" marker-end="url(#cap-arrow-ff6b35-4_5)" opacity="0.5" />
  <line x1="234" y1="18" x2="234" y2="90" stroke="#ff6b35" stroke-width="1.5" stroke-linecap="butt" marker-end="url(#cap-arrow-ff6b35-4_5)" opacity="0.5" />
  <line x1="54" y1="54" x2="126" y2="54" stroke="#ff6b35" stroke-width="1.5" stroke-linecap="butt" marker-end="url(#cap-arrow-ff6b35-4_5)" opacity="0.5" />
  <line x1="54" y1="54" x2="54" y2="126" stroke="#ff6b35" stroke-width="1.5" stroke-linecap="butt" marker-end="url(#cap-arrow-ff6b35-4_5)" opacity="0.5" />
  <line x1="126" y1="54" x2="198" y2="54" stroke="#ff6b35" stroke-width="1.5" stroke-linecap="butt" marker-end="url(#cap-arrow-ff6b35-4_5)" opacity="0.5" />
  <line x1="126" y1="54" x2="126" y2="126" stroke="#ff6b35" stroke-width="1.5" stroke-linecap="butt" marker-end="url(#cap-arrow-ff6b35-4_5)" opacity="0.5" />
  <line x1="198" y1="54" x2="270" y2="54" stroke="#ff6b35" stroke-width="1.5" stroke-linecap="butt" marker-end="url(#cap-arrow-ff6b35-4_5)" opacity="0.5" />
  <line x1="198" y1="54" x2="198" y2="126" stroke="#ff6b35" stroke-width="1.5" stroke-linecap="butt" marker-end="url(#cap-arrow-ff6b35-4_5)" opacity="0.5" />
  <line x1="270" y1="54" x2="270" y2="126" stroke="#ff6b35" stroke-width="1.5" stroke-linecap="butt" marker-end="url(#cap-arrow-ff6b35-4_5)" opacity="0.5" />
  <line x1="18" y1="90" x2="90" y2="90" stroke="#ff6b35" stroke-width="1.5" stroke-linecap="butt" marker-end="url(#cap-arrow-ff6b35-4_5)" opacity="0.5" />
  <line x1="18" y1="90" x2="18" y2="162" stroke="#ff6b35" stroke-width="1.5" stroke-linecap="butt" marker-end="url(#cap-arrow-ff6b35-4_5)" opacity="0.5" />
  <line x1="90" y1="90" x2="90" y2="162" stroke="#ff6b35" stroke-width="1.5" stroke-linecap="butt" marker-end="url(#cap-arrow-ff6b35-4_5)" opacity="0.5" />
  <line x1="90" y1="90" x2="162" y2="90" stroke="#ff6b35" stroke-width="1.5" stroke-linecap="butt" marker-end="url(#cap-arrow-ff6b35-4_5)" opacity="0.5" />
  <line x1="162" y1="90" x2="234" y2="90" stroke="#ff6b35" stroke-width="1.5" stroke-linecap="butt" marker-end="url(#cap-arrow-ff6b35-4_5)" opacity="0.5" />
  <line x1="162" y1="90" x2="162" y2="162" stroke="#ff6b35" stroke-width="1.5" stroke-linecap="butt" marker-end="url(#cap-arrow-ff6b35-4_5)" opacity="0.5" />
  <line x1="234" y1="90" x2="234" y2="162" stroke="#ff6b35" stroke-width="1.5" stroke-linecap="butt" marker-end="url(#cap-arrow-ff6b35-4_5)" opacity="0.5" />
  <line x1="54" y1="126" x2="126" y2="126" stroke="#ff6b35" stroke-width="1.5" stroke-linecap="butt" marker-end="url(#cap-arrow-ff6b35-4_5)" opacity="0.5" />
  <line x1="54" y1="126" x2="54" y2="198" stroke="#ff6b35" stroke-width="1.5" stroke-linecap="butt" marker-end="url(#cap-arrow-ff6b35-4_5)" opacity="0.5" />
  <line x1="126" y1="126" x2="126" y2="198" stroke="#ff6b35" stroke-width="1.5" stroke-linecap="butt" marker-end="url(#cap-arrow-ff6b35-4_5)" opacity="0.5" />
  <line x1="126" y1="126" x2="198" y2="126" stroke="#ff6b35" stroke-width="1.5" stroke-linecap="butt" marker-end="url(#cap-arrow-ff6b35-4_5)" opacity="0.5" />
  <line x1="198" y1="126" x2="198" y2="198" stroke="#ff6b35" stroke-width="1.5" stroke-linecap="butt" marker-end="url(#cap-arrow-ff6b35-4_5)" opacity="0.5" />
  <line x1="198" y1="126" x2="270" y2="126" stroke="#ff6b35" stroke-width="1.5" stroke-linecap="butt" marker-end="url(#cap-arrow-ff6b35-4_5)" opacity="0.5" />
  <line x1="270" y1="126" x2="270" y2="198" stroke="#ff6b35" stroke-width="1.5" stroke-linecap="butt" marker-end="url(#cap-arrow-ff6b35-4_5)" opacity="0.5" />
  <line x1="18" y1="162" x2="90" y2="162" stroke="#ff6b35" stroke-width="1.5" stroke-linecap="butt" marker-end="url(#cap-arrow-ff6b35-4_5)" opacity="0.5" />
  <line x1="90" y1="162" x2="162" y2="162" stroke="#ff6b35" stroke-width="1.5" stroke-linecap="butt" marker-end="url(#cap-arrow-ff6b35-4_5)" opacity="0.5" />
  <line x1="162" y1="162" x2="234" y2="162" stroke="#ff6b35" stroke-width="1.5" stroke-linecap="butt" marker-end="url(#cap-arrow-ff6b35-4_5)" opacity="0.5" />
  <line x1="54" y1="198" x2="126" y2="198" stroke="#ff6b35" stroke-width="1.5" stroke-linecap="butt" marker-end="url(#cap-arrow-ff6b35-4_5)" opacity="0.5" />
  <line x1="126" y1="198" x2="198" y2="198" stroke="#ff6b35" stroke-width="1.5" stroke-linecap="butt" marker-end="url(#cap-arrow-ff6b35-4_5)" opacity="0.5" />
  <line x1="198" y1="198" x2="270" y2="198" stroke="#ff6b35" stroke-width="1.5" stroke-linecap="butt" marker-end="url(#cap-arrow-ff6b35-4_5)" opacity="0.5" />
  <circle cx="18" cy="18" r="5.4" fill="#efa00b" opacity="0.8" />
  <circle cx="90" cy="18" r="5.4" fill="#efa00b" opacity="0.8" />
  <circle cx="162" cy="18" r="5.4" fill="#efa00b" opacity="0.8" />
  <circle cx="234" cy="18" r="5.4" fill="#efa00b" opacity="0.8" />
  <circle cx="54" cy="54" r="5.4" fill="#efa00b" opacity="0.8" />
  <circle cx="126" cy="54" r="5.4" fill="#efa00b" opacity="0.8" />
  <circle cx="198" cy="54" r="5.4" fill="#efa00b" opacity="0.8" />
  <circle cx="270" cy="54" r="5.4" fill="#efa00b" opacity="0.8" />
  <circle cx="18" cy="90" r="5.4" fill="#efa00b" opacity="0.8" />
  <circle cx="90" cy="90" r="5.4" fill="#efa00b" opacity="0.8" />
  <circle cx="162" cy="90" r="5.4" fill="#efa00b" opacity="0.8" />
  <circle cx="234" cy="90" r="5.4" fill="#efa00b" opacity="0.8" />
  <circle cx="54" cy="126" r="5.4" fill="#efa00b" opacity="0.8" />
  <circle cx="126" cy="126" r="5.4" fill="#efa00b" opacity="0.8" />
  <circle cx="198" cy="126" r="5.4" fill="#efa00b" opacity="0.8" />
  <circle cx="270" cy="126" r="5.4" fill="#efa00b" opacity="0.8" />
  <circle cx="18" cy="162" r="5.4" fill="#efa00b" opacity="0.8" />
  <circle cx="90" cy="162" r="5.4" fill="#efa00b" opacity="0.8" />
  <circle cx="162" cy="162" r="5.4" fill="#efa00b" opacity="0.8" />
  <circle cx="234" cy="162" r="5.4" fill="#efa00b" opacity="0.8" />
  <circle cx="54" cy="198" r="5.4" fill="#efa00b" opacity="0.8" />
  <circle cx="126" cy="198" r="5.4" fill="#efa00b" opacity="0.8" />
  <circle cx="198" cy="198" r="5.4" fill="#efa00b" opacity="0.8" />
  <circle cx="270" cy="198" r="5.4" fill="#efa00b" opacity="0.8" />
</svg>