<?xml version="1.0" encoding="UTF-8"?>
<svg xmlns="http://www.w3.org/2000/svg" width="312" height="260" viewBox="0 0 312 260">
  <rect width="100%" height="100%" fill="#0a1628" />
  <line x1="13.0" y1="13.0" x2="91.0" y2="13.0" stroke="#0077b6" stroke-width="0.5375000000000001" stroke-linecap="round" opacity="0.015000000000000013" />
  <line x1="13.0" y1="13.0" x2="65.0" y2="39.0" stroke="#0077b6" stroke-width="0.9099168609688524" stroke-linecap="round" opacity="0.16396674438754097" />
  <line x1="13.0" y1="13.0" x2="39.0" y2="65.0" stroke="#0077b6" stroke-width="0.9099168609688524" stroke-linecap="round" opacity="0.16396674438754097" />
  <line x1="13.0" y1="13.0" x2="13.0" y2="91.0" stroke="#0077b6" stroke-width="0.5375000000000001" stroke-linecap="round" opacity="0.015000000000000013" />
  <line x1="91.0" y1="13.0" x2="169.0" y2="13.0" stroke="#0077b6" stroke-width="0.5375000000000001" stroke-linecap="round" opacity="0.015000000000000013" />
  <line x1="91.0" y1="13.0" x2="65.0" y2="39.0" stroke="#0077b6" stroke-width="1.3105708883431162" stroke-linecap="round" opacity="0.3242283553372465" />
  <line x1="91.0" y1="13.0" x2="143.0" y2="39.0" stroke="#0077b6" stroke-width="0.9099168609688524" stroke-linecap="round" opacity="0.16396674438754097" />
  <line x1="91.0" y1="13.0" x2="39.0" y2="65.0" stroke="#0077b6" stroke-width="0.6211417766862324" stroke-linecap="round" opacity="0.048456710674492955" />
  <line x1="91.0" y1="13.0" x2="117.0" y2="65.0" stroke="#0077b6" stroke-width="0.9099168609688524" stroke-linecap="round" opacity="0.16396674438754097" />
  <line x1="91.0" y1="13.0" x2="91.0" y2="91.0" stroke="#0077b6" stroke-width="0.5375000000000001" stroke-linecap="round" opacity="0.015000000000000013" />
  <line x1="169.0" y1="13.0" x2="247.0" y2="13.0" stroke="#0077b6" stroke-width="0.5375000000000001" stroke-linecap="round" opacity="0.015000000000000013" />
  <line x1="169.0" y1="13.0" x2="143.0" y2="39.0" stroke="#0077b6" stroke-width="1.3105708883431162" stroke-linecap="round" opacity="0.3242283553372465" />
  <line x1="169.0" y1="13.0" x2="221.0" y2="39.0" stroke="#0077b6" stroke-width="0.9099168609688524" stroke-linecap="round" opacity="0.16396674438754097" />
  <line x1="169.0" y1="13.0" x2="117.0" y2="65.0" stroke="#0077b6" stroke-width="0.6211417766862324" stroke-linecap="round" opacity="0.048456710674492955" />
  <line x1="169.0" y1="13.0" x2="195.0" y2="65.0" stroke="#0077b6" stroke-width="0.9099168609688524" stroke-linecap="round" opacity="0.16396674438754097" />
  <line x1="169.0" y1="13.0" x2="169.0" y2="91.0" stroke="#0077b6" stroke-width="0.5375000000000001" stroke-linecap="round" opacity="0.015000000000000013" />
  <line x1="247.0" y1="13.0" x2="221.0" y2="39.0" stroke="#0077b6" stroke-width="1.3105708883431162" stroke-linecap="round" opacity="0.3242283553372465" />
  <line x1="247.0" y1="13.0" x2="299.0" y2="39.0" stroke="#0077b6" stroke-width="0.9099168609688524" stroke-linecap="round" opacity="0.16396674438754097" />
  <line x1="247.0" y1="13.0" x2="195.0" y2="65.0" stroke="#0077b6" stroke-width="0.6211417766862324" stroke-linecap="round" opacity="0.048456710674492955" />
  <line x1="247.0" y1="13.0" x2="273.0" y2="65.0" stroke="#0077b6" stroke-width="0.9099168609688524" stroke-linecap="round" opacity="0.16396674438754097" />
  <line x1="247.0" y1="13.0" x2="247.0" y2="91.0" stroke="#0077b6" stroke-width="0.5375000000000001" stroke-linecap="round" opacity="0.015000000000000013" />
  <line x1="65.0" y1="39.0" x2="143.0" y2="39.0" stroke="#0077b6" stroke-width="0.5375000000000001" stroke-linecap="round" opacity="0.015000000000000013" />
  <line x1="65.0" y1="39.0" x2="39.0" y2="65.0" stroke="#0077b6" stroke-width="1.3105708883431162" stroke-linecap="round" opacity="0.3242283553372465" />
  <line x1="65.0" y1="39.0" x2="117.0" y2="65.0" stroke="#0077b6" stroke-width="0.9099168609688524" stroke-linecap="round" opacity="0.16396674438754097" />
  <line x1="65.0" y1="39.0" x2="13.0" y2="91.0" stroke="#0077b6" stroke-width="0.6211417766862324" stroke-linecap="round" opacity="0.048456710674492955" />
  <line x1="65.0" y1="39.0" x2="91.0" y2="91.0" stroke="#0077b6" stroke-width="0.9099168609688524" stroke-linecap="round" opacity="0.16396674438754097" />
  <line x1="65.0" y1="39.0" x2="65.0" y2="117.0" stroke="#0077b6" stroke-width="0.5375000000000001" stroke-linecap="round" opacity="0.015000000000000013" />
  <line x1="143.0" y1="39.0" x2="221.0" y2="39.0" stroke="#0077b6" stroke-width="0.5375000000000001" stroke-linecap="round" opacity="0.015000000000000013" />
  <line x1="143.0" y1="39.0" x2="117.0" y2="65.0" stroke="#0077b6" stroke-width="1.3105708883431162" stroke-linecap="round" opacity="0.3242283553372465" />
  <line x1="143.0" y1="39.0" x2="195.0" y2="65.0" stroke="#0077b6" stroke-width="0.9099168609688524" stroke-linecap="round" opacity="0.16396674438754097" />
  <line x1="143.0" y1="39.0" x2="91.0" y2="91.0" stroke="#0077b6" stroke-width="0.6211417766862324" stroke-linecap="round" opacity="0.048456710674492955" />
  <line x1="143.0" y1="39.0" x2="169.0" y2="91.0" stroke="#0077b6" stroke-width="0.9099168609688524" stroke-linecap="round" opacity="0.16396674438754097" />
  <line x1="143.0" y1="39.0" x2="143.0" y2="117.0" stroke="#0077b6" stroke-width="0.5375000000000001" stroke-linecap="round" opacity="0.015000000000000013" />
  <line x1="221.0" y1="39.0" x2="299.0" y2="39.0" stroke="#0077b6" stroke-width="0.5375000000000001" stroke-linecap="round" opacity="0.015000000000000013" />
  <line x1="221.0" y1="39.0" x2="195.0" y2="65.0" stroke="#0077b6" stroke-width="1.3105708883431162" stroke-linecap="round" opacity="0.3242283553372465" />
  <line x1="221.0" y1="39.0" x2="273.0" y2="65.0" stroke="#0077b6" stroke-width="0.9099168609688524" stroke-linecap="round" opacity="0.16396674438754097" />
  <line x1="221.0" y1="39.0" x2="169.0" y2="91.0" stroke="#0077b6" stroke-width="0.6211417766862324" stroke-linecap="round" opacity="0.048456710674492955" />
  <line x1="221.0" y1="39.0" x2="247.0" y2="91.0" stroke="#0077b6" stroke-width="0.9099168609688524" stroke-linecap="round" opacity="0.16396674438754097" />
  <line x1="221.0" y1="39.0" x2="221.0" y2="117.0" stroke="#0077b6" stroke-width="0.5375000000000001" stroke-linecap="round" opacity="0.015000000000000013" />
  <line x1="299.0" y1="39.0" x2="273.0" y2="65.0" stroke="#0077b6" stroke-width="1.3105708883431162" stroke-linecap="round" opacity="0.3242283553372465" />
  <line x1="299.0" y1="39.0" x2="247.0" y2="91.0" stroke="#0077b6" stroke-width="0.6211417766862324" stroke-linecap="round" opacity="0.048456710674492955" />
  <line x1="299.0" y1="39.0" x2="299.0" y2="117.0" stroke="#0077b6" stroke-width="0.5375000000000001" stroke-linecap="round" opacity="0.015000000000000013" />
  <line x1="39.0" y1="65.0" x2="117.0" y2="65.0" stroke="#0077b6" stroke-width="0.5375000000000001" stroke-linecap="round" opacity="0.015000000000000013" />
  <line x1="39.0" y1="65.0" x2="13.0" y2="91.0" stroke="#0077b6" stroke-width="1.3105708883431162" stroke-linecap="round" opacity="0.3242283553372465" />
  <line x1="39.0" y1="65.0" x2="91.0" y2="91.0" stroke="#0077b6" stroke-width="0.9099168609688524" stroke-linecap="round" opacity="0.16396674438754097" />
  <line x1="39.0" y1="65.0" x2="65.0" y2="117.0" stroke="#0077b6" stroke-width="0.9099168609688524" stroke-linecap="round" opacity="0.16396674438754097" />
  <line x1="39.0" y1="65.0" x2="39.0" y2="143.0" stroke="#0077b6" stroke-width="0.5375000000000001" stroke-linecap="round" opacity="0.015000000000000013" />
  <line x1="117.0" y1="65.0" x2="195.0" y2="65.0" stroke="#0077b6" stroke-width="0.5375000000000001" stroke-linecap="round" opacity="0.015000000000000013" />
  <line x1="117.0" y1="65.0" x2="91.0" y2="91.0" stroke="#0077b6" stroke-width="1.3105708883431162" stroke-linecap="round" opacity="0.3242283553372465" />
  <line x1="117.0" y1="65.0" x2="169.0" y2="91.0" stroke="#0077b6" stroke-width="0.9099168609688524" stroke-linecap="round" opacity="0.16396674438754097" />
  <line x1="117.0" y1="65.0" x2="65.0" y2="117.0" stroke="#0077b6" stroke-width="0.6211417766862324" stroke-linecap="round" opacity="0.048456710674492955" />
  <line x1="117.0" y1="65.0" x2="143.0" y2="117.0" stroke="#0077b6" stroke-width="0.9099168609688524" stroke-linecap="round" opacity="0.16396674438754097" />
  <line x1="117.0" y1="65.0" x2="117.0" y2="143.0" stroke="#0077b6" stroke-width="0.5375000000000001" stroke-linecap="round" opacity="0.015000000000000013" />
  <line x1="195.0" y1="65.0" x2="273.0" y2="65.0" stroke="#0077b6" stroke-width="0.5375000000000001" stroke-linecap="round" opacity="0.015000000000000013" />
  <line x1="195.0" y1="65.0" x2="169.0" y2="91.0" stroke="#0077b6" stroke-width="1.3105708883431162" stroke-linecap="round" opacity="0.3242283553372465" />
  <line x1="195.0" y1="65.0" x2="247.0" y2="91.0" stroke="#0077b6" stroke-width="0.9099168609688524" stroke-linecap="round" opacity="0.16396674438754097" />
  <line x1="195.0" y1="65.0" x2="143.0" y2="117.0" stroke="#0077b6" stroke-width="0.6211417766862324" stroke-linecap="round" opacity="0.048456710674492955" />
  <line x1="195.0" y1="65.0" x2="221.0" y2="117.0" stroke="#0077b6" stroke-width="0.9099168609688524" stroke-linecap="round" opacity="0.16396674438754097" />
  <line x1="195.0" y1="65.0" x2="195.0" y2="143.0" stroke="#0077b6" stroke-width="0.5375000000000001" stroke-linecap="round" opacity="0.015000000000000013" />
  <line x1="273.0" y1="65.0" x2="247.0" y2="91.0" stroke="#0077b6" stroke-width="1.3105708883431162" stroke-linecap="round" opacity="0.3242283553372465" />
  <line x1="273.0" y1="65.0" x2="221.0" y2="117.0" stroke="#0077b6" stroke-width="0.6211417766862324" stroke-linecap="round" opacity="0.048456710674492955" />
  <line x1="273.0" y1="65.0" x2="299.0" y2="117.0" stroke="#0077b6" stroke-width="0.9099168609688524" stroke-linecap="round" opacity="0.16396674438754097" />
  <line x1="273.0" y1="65.0" x2="273.0" y2="143.0" stroke="#0077b6" stroke-width="0.5375000000000001" stroke-linecap="round" opacity="0.015000000000000013" />
  <line x1="13.0" y1="91.0" x2="91.0" y2="91.0" stroke="#0077b6" stroke-width="0.5375000000000001" stroke-linecap="round" opacity="0.015000000000000013" />
  <line x1="13.0" y1="91.0" x2="65.0" y2="117.0" stroke="#0077b6" stroke-width="0.9099168609688524" stroke-linecap="round" opacity="0.16396674438754097" />
  <line x1="13.0" y1="91.0" x2="39.0" y2="143.0" stroke="#0077b6" stroke-width="0.9099168609688524" stroke-linecap="round" opacity="0.16396674438754097" />
  <line x1="13.0" y1="91.0" x2="13.0" y2="169.0" stroke="#0077b6" stroke-width="0.5375000000000001" stroke-linecap="round" opacity="0.015000000000000013" />
  <line x1="91.0" y1="91.0" x2="169.0" y2="91.0" stroke="#0077b6" stroke-width="0.5375000000000001" stroke-linecap="round" opacity="0.015000000000000013" />
  <line x1="91.0" y1="91.0" x2="65.0" y2="117.0" stroke="#0077b6" stroke-width="1.3105708883431162" stroke-linecap="round" opacity="0.3242283553372465" />
  <line x1="91.0" y1="91.0" x2="143.0" y2="117.0" stroke="#0077b6" stroke-width="0.9099168609688524" stroke-linecap="round" opacity="0.16396674438754097" />
  <line x1="91.0" y1="91.0" x2="39.0" y2="143.0" stroke="#0077b6" stroke-width="0.6211417766862324" stroke-linecap="round" opacity="0.048456710674492955" />
  <line x1="91.0" y1="91.0" x2="117.0" y2="143.0" stroke="#0077b6" stroke-width="0.9099168609688524" stroke-linecap="round" opacity="0.16396674438754097" />
  <line x1="91.0" y1="91.0" x2="91.0" y2="169.0" stroke="#0077b6" stroke-width="0.5375000000000001" stroke-linecap="round" opacity="0.015000000000000013" />
  <line x1="169.0" y1="91.0" x2="247.0" y2="91.0" stroke="#0077b6" stroke-width="0.5375000000000001" stroke-linecap="round" opacity="0.015000000000000013" />
  <line x1="169.0" y1="91.0" x2="143.0" y2="117.0" stroke="#0077b6" stroke-width="1.3105708883431162" stroke-linecap="round" opacity="0.3242283553372465" />
  <line x1="169.0" y1="91.0" x2="221.0" y2="117.0" stroke="#0077b6" stroke-width="0.9099168609688524" stroke-linecap="round" opacity="0.16396674438754097" />
  <line x1="169.0" y1="91.0" x2="117.0" y2="143.0" stroke="#0077b6" stroke-width="0.6211417766862324" stroke-linecap="round" opacity="0.048456710674492955" />
  <line x1="169.0" y1="91.0" x2="195.0" y2="143.0" stroke="#0077b6" stroke-width="0.9099168609688524" stroke-linecap="round" opacity="0.16396674438754097" />
  <line x1="169.0" y1="91.0" x2="169.0" y2="169.0" stroke="#0077b6" stroke-width="0.5375000000000001" stroke-linecap="round" opacity="0.015000000000000013" />
  <line x1="247.0" y1="91.0" x2="221.0" y2="117.0" stroke="#0077b6" stroke-width="1.3105708883431162" stroke-linecap="round" opacity="0.3242283553372465" />
  <line x1="247.0" y1="91.0" x2="299.0" y2="117.0" stroke="#0077b6" stroke-width="0.9099168609688524" stroke-linecap="round" opacity="0.16396674438754097" />
  <line x1="247.0" y1="91.0" x2="195.0" y2="143.0" stroke="#0077b6" stroke-width="0.6211417766862324" stroke-linecap="round" opacity="0.048456710674492955" />
  <line x1="247.0" y1="91.0" x2="273.0" y2="143.0" stroke="#0077b6" stroke-width="0.9099168609688524" stroke-linecap="round" opacity="0.16396674438754097" />
  <line x1="247.0" y1="91.0" x2="247.0" y2="169.0" stroke="#0077b6" stroke-width="0.5375000000000001" stroke-linecap="round" opacity="0.015000000000000013" />
  <line x1="65.0" y1="117.0" x2="143.0" y2="117.0" stroke="#0077b6" stroke-width="0.5375000000000001" stroke-linecap="round" opacity="0.015000000000000013" />
  <line x1="65.0" y1="117.0" x2="39.0" y2="143.0" stroke="#0077b6" stroke-width="1.3105708883431162" stroke-linecap="round" opacity="0.3242283553372465" />
  <line x1="65.0" y1="117.0" x2="117.0" y2="143.0" stroke="#0077b6" stroke-width="0.9099168609688524" stroke-linecap="round" opacity="0.16396674438754097" />
  <line x1="65.0" y1="117.0" x2="13.0" y2="169.0" stroke="#0077b6" stroke-width="0.6211417766862324" stroke-linecap="round" opacity="0.048456710674492955" />
  <line x1="65.0" y1="117.0" x2="91.0" y2="169.0" stroke="#0077b6" stroke-width="0.9099168609688524" stroke-linecap="round" opacity="0.16396674438754097" />
  <line x1="65.0" y1="117.0" x2="65.0" y2="195.0" stroke="#0077b6" stroke-width="0.5375000000000001" stroke-linecap="round" opacity="0.015000000000000013" />
  <line x1="143.0" y1="117.0" x2="221.0" y2="117.0" stroke="#0077b6" stroke-width="0.5375000000000001" stroke-linecap="round" opacity="0.015000000000000013" />
  <line x1="143.0" y1="117.0" x2="117.0" y2="143.0" stroke="#0077b6" stroke-width="1.3105708883431162" stroke-linecap="round" opacity="0.3242283553372465" />
  <line x1="143.0" y1="117.0" x2="195.0" y2="143.0" stroke="#0077b6" stroke-width="0.9099168609688524" stroke-linecap="round" opacity="0.16396674438754097" />
  <line x1="143.0" y1="117.0" x2="91.0" y2="169.0" stroke="#0077b6" stroke-width="0.6211417766862324" stroke-linecap="round" opacity="0.048456710674492955" />
  <line x1="143.0" y1="117.0" x2="169.0" y2="169.0" stroke="#0077b6" stroke-width="0.9099168609688524" stroke-linecap="round" opacity="0.16396674438754097" />
  <line x1="143.0" y1="117.0" x2="143.0" y2="195.0" stroke="#0077b6" stroke-width="0.5375000000000001" stroke-linecap="round" opacity="0.015000000000000013" />
  <line x1="221.0" y1="117.0" x2="299.0" y2="117.0" stroke="#0077b6" stroke-width="0.5375000000000001" stroke-linecap="round" opacity="0.015000000000000013" />
  <line x1="221.0" y1="117.0" x2="195.0" y2="143.0" stroke="#0077b6" stroke-width="1.3105708883431162" stroke-linecap="round" opacity="0.3242283553372465" />
  <line x1="221.0" y1="117.0" x2="273.0" y2="143.0" stroke="#0077b6" stroke-width="0.9099168609688524" stroke-linecap="round" opacity="0.16396674438754097" />
  <line x1="221.0" y1="117.0" x2="169.0" y2="169.0" stroke="#0077b6" stroke-width="0.6211417766862324" stroke-linecap="round" opacity="0.048456710674492955" />
  <line x1="221.0" y1="117.0" x2="247.0" y2="169.0" stroke="#0077b6" stroke-width="0.9099168609688524" stroke-linecap="round" opacity="0.16396674438754097" />
  <line x1="221.0" y1="117.0" x2="221.0" y2="195.0" stroke="#0077b6" stroke-width="0.5375000000000001" stroke-linecap="round" opacity="0.015000000000000013" />
  <line x1="299.0" y1="117.0" x2="273.0" y2="143.0" stroke="#0077b6" stroke-width="1.3105708883431162" stroke-linecap="round" opacity="0.3242283553372465" />
  <line x1="299.0" y1="117.0" x2="247.0" y2="169.0" stroke="#0077b6" stroke-width="0.6211417766862324" stroke-linecap="round" opacity="0.048456710674492955" />
  <line x1="299.0" y1="117.0" x2="299.0" y2="195.0" stroke="#0077b6" stroke-width="0.5375000000000001" stroke-linecap="round" opacity="0.015000000000000013" />
  <line x1="39.0" y1="143.0" x2="117.0" y2="143.0" stroke="#0077b6" stroke-width="0.5375000000000001" stroke-linecap="round" opacity="0.015000000000000013" />
  <line x1="39.0" y1="143.0" x2="13.0" y2="169.0" stroke="#0077b6" stroke-width="1.3105708883431162" stroke-linecap="round" opacity="0.3242283553372465" />
  <line x1="39.0" y1="143.0" x2="91.0" y2="169.0" stroke="#0077b6" stroke-width="0.9099168609688524" stroke-linecap="round" opacity="0.16396674438754097" />
  <line x1="39.0" y1="143.0" x2="65.0" y2="195.0" stroke="#0077b6" stroke-width="0.9099168609688524" stroke-linecap="round" opacity="0.16396674438754097" />
  <line x1="39.0" y1="143.0" x2="39.0" y2="221.0" stroke="#0077b6" stroke-width="0.5375000000000001" stroke-linecap="round" opacity="0.015000000000000013" />
  <line x1="117.0" y1="143.0" x2="195.0" y2="143.0" stroke="#0077b6" stroke-width="0.5375000000000001" stroke-linecap="round" opacity="0.015000000000000013" />
  <line x1="117.0" y1="143.0" x2="91.0" y2="169.0" stroke="#0077b6" stroke-width="1.3105708883431162" stroke-linecap="round" opacity="0.3242283553372465" />
  <line x1="117.0" y1="143.0" x2="169.0" y2="169.0" stroke="#0077b6" stroke-width="0.9099168609688524" stroke-linecap="round" opacity="0.16396674438754097" />
  <line x1="117.0" y1="143.0" x2="65.0" y2="195.0" stroke="#0077b6" stroke-width="0.6211417766862324" stroke-linecap="round" opacity="0.048456710674492955" />
  <line x1="117.0" y1="143.0" x2="143.0" y2="195.0" stroke="#0077b6" stroke-width="0.9099168609688524" stroke-linecap="round" opacity="0.16396674438754097" />
  <line x1="117.0" y1="143.0" x2="117.0" y2="221.0" stroke="#0077b6" stroke-width="0.5375000000000001" stroke-linecap="round" opacity="0.015000000000000013" />
  <line x1="195.0" y1="143.0" x2="273.0" y2="143.0" stroke="#0077b6" stroke-width="0.5375000000000001" stroke-linecap="round" opacity="0.015000000000000013" />
  <line x1="195.0" y1="143.0" x2="169.0" y2="169.0" stroke="#0077b6" stroke-width="1.3105708883431162" stroke-linecap="round" opacity="0.3242283553372465" />
  <line x1="195.0" y1="143.0" x2="247.0" y2="169.0" stroke="#0077b6" stroke-width="0.9099168609688524" stroke-linecap="round" opacity="0.16396674438754097" />
  <line x1="195.0" y1="143.0" x2="143.0" y2="195.0" stroke="#0077b6" stroke-width="0.6211417766862324" stroke-linecap="round" opacity="0.048456710674492955" />
  <line x1="195.0" y1="143.0" x2="221.0" y2="195.0" stroke="#0077b6" stroke-width="0.9099168609688524" stroke-linecap="round" opacity="0.16396674438754097" />
  <line x1="195.0" y1="143.0" x2="195.0" y2="221.0" stroke="#0077b6" stroke-width="0.5375000000000001" stroke-linecap="round" opacity="0.015000000000000013" />
  <line x1="273.0" y1="143.0" x2="247.0" y2="169.0" stroke="#0077b6" stroke-width="1.3105708883431162" stroke-linecap="round" opacity="0.3242283553372465" />
  <line x1="273.0" y1="143.0" x2="221.0" y2="195.0" stroke="#0077b6" stroke-width="0.6211417766862324" stroke-linecap="round" opacity="0.048456710674492955" />
  <line x1="273.0" y1="143.0" x2="299.0" y2="195.0" stroke="#0077b6" stroke-width="0.9099168609688524" stroke-linecap="round" opacity="0.16396674438754097" />
  <line x1="273.0" y1="143.0" x2="273.0" y2="221.0" stroke="#0077b6" stroke-width="0.5375000000000001" stroke-linecap="round" opacity="0.015000000000000013" />
  <line x1="13.0" y1="169.0" x2="91.0" y2="169.0" stroke="#0077b6" stroke-width="0.5375000000000001" stroke-linecap="round" opacity="0.015000000000000013" />
  <line x1="13.0" y1="169.0" x2="65.0" y2="195.0" stroke="#0077b6" stroke-width="0.9099168609688524" stroke-linecap="round" opacity="0.16396674438754097" />
  <line x1="13.0" y1="169.0" x2="39.0" y2="221.0" stroke="#0077b6" stroke-width="0.9099168609688524" stroke-linecap="round" opacity="0.16396674438754097" />
  <line x1="13.0" y1="169.0" x2="13.0" y2="247.0" stroke="#0077b6" stroke-width="0.5375000000000001" stroke-linecap="round" opacity="0.015000000000000013" />
  <line x1="91.0" y1="169.0" x2="169.0" y2="169.0" stroke="#0077b6" stroke-width="0.5375000000000001" stroke-linecap="round" opacity="0.015000000000000013" />
  <line x1="91.0" y1="169.0" x2="65.0" y2="195.0" stroke="#0077b6" stroke-width="1.3105708883431162" stroke-linecap="round" opacity="0.3242283553372465" />
  <line x1="91.0" y1="169.0" x2="143.0" y2="195.0" stroke="#0077b6" stroke-width="0.9099168609688524" stroke-linecap="round" opacity="0.16396674438754097" />
  <line x1="91.0" y1="169.0" x2="39.0" y2="221.0" stroke="#0077b6" stroke-width="0.6211417766862324" stroke-linecap="round" opacity="0.048456710674492955" />
  <line x1="91.0" y1="169.0" x2="117.0" y2="221.0" stroke="#0077b6" stroke-width="0.9099168609688524" stroke-linecap="round" opacity="0.16396674438754097" />
  <line x1="91.0" y1="169.0" x2="91.0" y2="247.0" stroke="#0077b6" stroke-width="0.5375000000000001" stroke-linecap="round" opacity="0.015000000000000013" />
  <line x1="169.0" y1="169.0" x2="247.0" y2="169.0" stroke="#0077b6" stroke-width="0.5375000000000001" stroke-linecap="round" opacity="0.015000000000000013" />
  <line x1="169.0" y1="169.0" x2="143.0" y2="195.0" stroke="#0077b6" stroke-width="1.3105708883431162" stroke-linecap="round" opacity="0.3242283553372465" />
  <line x1="169.0" y1="169.0" x2="221.0" y2="195.0" stroke="#0077b6" stroke-width="0.9099168609688524" stroke-linecap="round" opacity="0.16396674438754097" />
  <line x1="169.0" y1="169.0" x2="117.0" y2="221.0" stroke="#0077b6" stroke-width="0.6211417766862324" stroke-linecap="round" opacity="0.048456710674492955" />
  <line x1="169.0" y1="169.0" x2="195.0" y2="221.0" stroke="#0077b6" stroke-width="0.9099168609688524" stroke-linecap="round" opacity="0.16396674438754097" />
  <line x1="169.0" y1="169.0" x2="169.0" y2="247.0" stroke="#0077b6" stroke-width="0.5375000000000001" stroke-linecap="round" opacity="0.015000000000000013" />
  <line x1="247.0" y1="169.0" x2="221.0" y2="195.0" stroke="#0077b6" stroke-width="1.3105708883431162" stroke-linecap="round" opacity="0.3242283553372465" />
  <line x1="247.0" y1="169.0" x2="299.0" y2="195.0" stroke="#0077b6" stroke-width="0.9099168609688524" stroke-linecap="round" opacity="0.16396674438754097" />
  <line x1="247.0" y1="169.0" x2="195.0" y2="221.0" stroke="#0077b6" stroke-width="0.6211417766862324" stroke-linecap="round" opacity="0.048456710674492955" />
  <line x1="247.0" y1="169.0" x2="273.0" y2="221.0" stroke="#0077b6" stroke-width="0.9099168609688524" stroke-linecap="round" opacity="0.16396674438754097" />
  <line x1="247.0" y1="169.0" x2="247.0" y2="247.0" stroke="#0077b6" stroke-width="0.5375000000000001" stroke-linecap="round" opacity="0.015000000000000013" />
  <line x1="65.0" y1="195.0" x2="143.0" y2="195.0" stroke="#0077b6" stroke-width="0.5375000000000001" stroke-linecap="round" opacity="0.015000000000000013" />
  <line x1="65.0" y1="195.0" x2="39.0" y2="221.0" stroke="#0077b6" stroke-width="1.3105708883431162" stroke-linecap="round" opacity="0.3242283553372465" />
  <line x1="65.0" y1="195.0" x2="117.0" y2="221.0" stroke="#0077b6" stroke-width="0.9099168609688524" stroke-linecap="round" opacity="0.16396674438754097" />
  <line x1="65.0" y1="195.0" x2="13.0" y2="247.0" stroke="#0077b6" stroke-width="0.6211417766862324" stroke-linecap="round" opacity="0.048456710674492955" />
  <line x1="65.0" y1="195.0" x2="91.0" y2="247.0" stroke="#0077b6" stroke-width="0.9099168609688524" stroke-linecap="round" opacity="0.16396674438754097" />
  <line x1="143.0" y1="195.0" x2="221.0" y2="195.0" stroke="#0077b6" stroke-width="0.5375000000000001" stroke-linecap="round" opacity="0.015000000000000013" />
  <line x1="143.0" y1="195.0" x2="117.0" y2="221.0" stroke="#0077b6" stroke-width="1.3105708883431162" stroke-linecap="round" opacity="0.3242283553372465" />
  <line x1="143.0" y1="195.0" x2="195.0" y2="221.0" stroke="#0077b6" stroke-width="0.9099168609688524" stroke-linecap="round" opacity="0.16396674438754097" />
  <line x1="143.0" y1="195.0" x2="91.0" y2="247.0" stroke="#0077b6" stroke-width="0.6211417766862324" stroke-linecap="round" opacity="0.048456710674492955" />
  <line x1="143.0" y1="195.0" x2="169.0" y2="247.0" stroke="#0077b6" stroke-width="0.9099168609688524" stroke-linecap="round" opacity="0.16396674438754097" />
  <line x1="221.0" y1="195.0" x2="299.0" y2="195.0" stroke="#0077b6" stroke-width="0.5375000000000001" stroke-linecap="round" opacity="0.015000000000000013" />
  <line x1="221.0" y1="195.0" x2="195.0" y2="221.0" stroke="#0077b6" stroke-width="1.3105708883431162" stroke-linecap="round" opacity="0.3242283553372465" />
  <line x1="221.0" y1="195.0" x2="273.0" y2="221.0" stroke="#0077b6" stroke-width="0.9099168609688524" stroke-linecap="round" opacity="0.16396674438754097" />
  <line x1="221.0" y1="195.0" x2="169.0" y2="247.0" stroke="#0077b6" stroke-width="0.6211417766862324" stroke-linecap="round" opacity="0.048456710674492955" />
  <line x1="221.0" y1="195.0" x2="247.0" y2="247.0" stroke="#0077b6" stroke-width="0.9099168609688524" stroke-linecap="round" opacity="0.16396674438754097" />
  <line x1="299.0" y1="195.0" x2="273.0" y2="221.0" stroke="#0077b6" stroke-width="1.3105708883431162" stroke-linecap="round" opacity="0.3242283553372465" />
  <line x1="299.0" y1="195.0" x2="247.0" y2="247.0" stroke="#0077b6" stroke-width="0.6211417766862324" stroke-linecap="round" opacity="0.048456710674492955" />
  <line x1="39.0" y1="221.0" x2="117.0" y2="221.0" stroke="#0077b6" stroke-width="0.5375000000000001" stroke-linecap="round" opacity="0.015000000000000013" />
  <line x1="39.0" y1="221.0" x2="13.0" y2="247.0" stroke="#0077b6" stroke-width="1.3105708883431162" stroke-linecap="round" opacity="0.3242283553372465" />
  <line x1="39.0" y1="221.0" x2="91.0" y2="247.0" stroke="#0077b6" stroke-width="0.9099168609688524" stroke-linecap="round" opacity="0.16396674438754097" />
  <line x1="117.0" y1="221.0" x2="195.0" y2="221.0" stroke="#0077b6" stroke-width="0.5375000000000001" stroke-linecap="round" opacity="0.015000000000000013" />
  <line x1="117.0" y1="221.0" x2="91.0" y2="247.0" stroke="#0077b6" stroke-width="1.3105708883431162" stroke-linecap="round" opacity="0.3242283553372465" />
  <line x1="117.0" y1="221.0" x2="169.0" y2="247.0" stroke="#0077b6" stroke-width="0.9099168609688524" stroke-linecap="round" opacity="0.16396674438754097" />
  <line x1="195.0" y1="221.0" x2="273.0" y2="221.0" stroke="#0077b6" stroke-width="0.5375000000000001" stroke-linecap="round" opacity="0.015000000000000013" />
  <line x1="195.0" y1="221.0" x2="169.0" y2="247.0" stroke="#0077b6" stroke-width="1.3105708883431162" stroke-linecap="round" opacity="0.3242283553372465" />
  <line x1="195.0" y1="221.0" x2="247.0" y2="247.0" stroke="#0077b6" stroke-width="0.9099168609688524" stroke-linecap="round" opacity="0.16396674438754097" />
  <line x1="273.0" y1="221.0" x2="247.0" y2="247.0" stroke="#0077b6" stroke-width="1.3105708883431162" stroke-linecap="round" opacity="0.3242283553372465" />
  <line x1="13.0" y1="247.0" x2="91.0" y2="247.0" stroke="#0077b6" stroke-width="0.5375000000000001" stroke-linecap="round" opacity="0.015000000000000013" />
  <line x1="91.0" y1="247.0" x2="169.0" y2="247.0" stroke="#0077b6" stroke-width="0.5375000000000001" stroke-linecap="round" opacity="0.015000000000000013" />
  <line x1="169.0" y1="247.0" x2="247.0" y2="247.0" stroke="#0077b6" stroke-width="0.5375000000000001" stroke-linecap="round" opacity="0.015000000000000013" />
  <circle cx="13.0" cy="13.0" r="4.0" fill="#00d9ff" opacity="0.8" />
  <circle cx="91.0" cy="13.0" r="4.0" fill="#00d9ff" opacity="0.8" />
  <circle cx="169.0" cy="13.0" r="4.0" fill="#00d9ff" opacity="0.8" />
  <circle cx="247.0" cy="13.0" r="4.0" fill="#00d9ff" opacity="0.8" />
  <circle cx="65.0" cy="39.0" r="4.0" fill="#00d9ff" opacity="0.8" />
  <circle cx="143.0" cy="39.0" r="4.0" fill="#00d9ff" opacity="0.8" />
  <circle cx="221.0" cy="39.0" r="4.0" fill="#00d9ff" opacity="0.8" />
  <circle cx="299.0" cy="39.0" r="4.0" fill="#00d9ff" opacity="0.8" />
  <circle cx="39.0" cy="65.0" r="4.0" fill="#00d9ff" opacity="0.8" />
  <circle cx="117.0" cy="65.0" r="4.0" fill="#00d9ff" opacity="0.8" />
  <circle cx="195.0" cy="65.0" r="4.0" fill="#00d9ff" opacity="0.8" />
  <circle cx="273.0" cy="65.0" r="4.0" fill="#00d9ff" opacity="0.8" />
  <circle cx="13.0" cy="91.0" r="4.0" fill="#00d9ff" opacity="0.8" />
  <circle cx="91.0" cy="91.0" r="4.0" fill="#00d9ff" opacity="0.8" />
  <circle cx="169.0" cy="91.0" r="4.0" fill="#00d9ff" opacity="0.8" />
  <circle cx="247.0" cy="91.0" r="4.0" fill="#00d9ff" opacity="0.8" />
  <circle cx="65.0" cy="117.0" r="4.0" fill="#00d9ff" opacity="0.8" />
  <circle cx="143.0" cy="117.0" r="4.0" fill="#00d9ff" opacity="0.8" />
  <circle cx="221.0" cy="117.0" r="4.0" fill="#00d9ff" opacity="0.8" />
  <circle cx="299.0" cy="117.0" r="4.0" fill="#00d9ff" opacity="0.8" />
  <circle cx="39.0" cy="143.0" r="4.0" fill="#00d9ff" opacity="0.8" />
  <circle cx="117.0" cy="143.0" r="4.0" fill="#00d9ff" opacity="0.8" />
  <circle cx="195.0" cy="143.0" r="4.0" fill="#00d9ff" opacity="0.8" />
  <circle cx="273.0" cy="143.0" r="4.0" fill="#00d9ff" opacity="0.8" />
  <circle cx="13.0" cy="169.0" r="4.0" fill="#00d9ff" opacity="0.8" />
  <circle cx="91.0" cy="169.0" r="4.0" fill="#00d9ff" opacity="0.8" />
  <circle cx="169.0" cy="169.0" r="4.0" fill="#00d9ff" opacity="0.8" />
  <circle cx="247.0" cy="169.0" r="4.0" fill="#00d9ff" opacity="0.8" />
  <circle cx="65.0" cy="195.0" r="4.0" fill="#00d9ff" opacity="0.8" />
  <circle cx="143.0" cy="195.0" r="4.0" fill="#00d9ff" opacity="0.8" />
  <circle cx="221.0" cy="195.0" r="4.0" fill="#00d9ff" opacity="0.8" />
  <circle cx="299.0" cy="195.0" r="4.0" fill="#00d9ff" opacity="0.8" />
  <circle cx="39.0" cy="221.0" r="4.0" fill="#00d9ff" opacity="0.8" />
  <circle cx="117.0" cy="221.0" r="4.0" fill="#00d9ff" opacity="0.8" />
  <circle cx="195.0" cy="221.0" r="4.0" fill="#00d9ff" opacity="0.8" />
  <circle cx="273.0" cy="221.0" r="4.0" fill="#00d9ff" opacity="0.8" />
  <circle cx="13.0" cy="247.0" r="4.0" fill="#00d9ff" opacity="0.8" />
  <circle cx="91.0" cy="247.0" r="4.0" fill="#00d9ff" opacity="0.8" />
  <circle cx="169.0" cy="247.0" r="4.0" fill="#00d9ff" opacity="0.8" />
  <circle cx="247.0" cy="247.0" r="4.0" fill="#00d9ff" opacity="0.8" />
</svg>