<?xml version="1.0" encoding="UTF-8"?>
<svg xmlns="http://www.w3.org/2000/svg" width="288" height="216" viewBox="0 0 288 216">
  <defs>
    <marker id="cap-arrow-ff6b35-4_5" viewBox="0 0 10 10" refX="10" refY="5" markerWidth="4.5" markerHeight="4.5" orient="auto" overflow="visible"><path d="M 0 0 L 10 5 L 0 10 z" fill="#ff6b35" /></marker>
  </defs>
  <rect width="100%" height="100%" fill="#2d1b4e" />
  <line x1="18.0" y1="18.0" x2="90.0" y2="18.0" stroke="#ff6b35" stroke-width="1.5" stroke-linecap="butt" marker-end="url(#cap-arrow-ff6b35-4_5)" opacity="0.5" />
  <line x1="18.0" y1="18.0" x2="18.0" y2="90.0" stroke="#ff6b35" stroke-width="1.5" stroke-linecap="butt" marker-end="url(#cap-arrow-ff6b35-4_5)" opacity="0.5" />
  <line x1="90.0" y1="18.0" x2="90.0" y2="90.0" stroke="#ff6b35" stroke-width="1.5" stroke-linecap="butt" marker-end="url(#cap-arrow-ff6b35-4_5)" opacity="0.5" />
  <line x1="90.0" y1="18.0" x2="162.0" y2="18.0" stroke="#ff6b35" stroke-width="1.5" stroke-linecap="butt" marker-end="url(#cap-arrow-ff6b35-4_5)" opacity="0.5" />
  <line x1="162.0" y1="18.0" x2="162.0" y2="90.0" stroke="#ff6b35" stroke-width="1.5" stroke-linecap="butt" marker-end="url(#cap-arrow-ff6b35-4_5)" opacity="0.5" />
  <line x1="162.0" y1="18.0" x2="234.0" y2="18.0" stroke="#ff6b35" stroke-width="1.5" stroke-linecap="butt" marker-end="url(#cap-arrow-ff6b35-4_5)" opacity="0.5" />
  <line x1="234.0" y1="18.0" x2="234.0" y2="90.0" stroke="#ff6b35" stroke-width="1.5" stroke-linecap="butt" marker-end="url(#cap-arrow-ff6b35-4_5)" opacity="0.5" />
  <line x1="54.0" y1="54.0" x2="126.0" y2="54.0" stroke="#ff6b35" stroke-width="1.5" stroke-linecap="butt" marker-end="url(#cap-arrow-ff6b35-4_5)" opacity="0.5" />
  <line x1="54.0" y1="54.0" x2="54.0" y2="126.0" stroke="#ff6b35" stroke-width="1.5" stroke-linecap="butt" marker-end="url(#cap-arrow-ff6b35-4_5)" opacity="0.5" />
  <line x1="126.0" y1="54.0" x2="198.0" y2="54.0" stroke="#ff6b35" stroke-width="1.5" stroke-linecap="butt" marker-end="url(#cap-arrow-ff6b35-4_5)" opacity="0.5" />
  <line x1="126.0" y1="54.0" x2="126.0" y2="126.0" stroke="#ff6b35" stroke-width="1.5" stroke-linecap="butt" marker-end="url(#cap-arrow-ff6b35-4_5)" opacity="0.5" />
  <line x1="198.0" y1="54.0" x2="270.0" y2="54.0" stroke="#ff6b35" stroke-width="1.5" stroke-linecap="butt" marker-end="url(#cap-arrow-ff6b35-4_5)" opacity="0.5" />
  <line x1="198.0" y1="54.0" x2="198.0" y2="126.0" stroke="#ff6b35" stroke-width="1.5" stroke-linecap="butt" marker-end="url(#cap-arrow-ff6b35-4_5)" opacity="0.5" />
  <line x1="270.0" y1="54.0" x2="270.0" y2="126.0" stroke="#ff6b35" stroke-width="1.5" stroke-linecap="butt" marker-end="url(#cap-arrow-ff6b35-4_5)" opacity="0.5" />
  <line x1="18.0" y1="90.0" x2="90.0" y2="90.0" stroke="#ff6b35" stroke-width="1.5" stroke-linecap="butt" marker-end="url(#cap-arrow-ff6b35-4_5)" opacity="0.5" />
  <line x1="18.0" y1="90.0" x2="18.0" y2="162.0" stroke="#ff6b35" stroke-width="1.5" stroke-linecap="butt" marker-end="url(#cap-arrow-ff6b35-4_5)" opacity="0.5" />
  <line x1="90.0" y1="90.0" x2="162.0" y2="90.0" stroke="#ff6b35" stroke-width="1.5" stroke-linecap="butt" marker-end="url(#cap-arrow-ff6b35-4_5)" opacity="0.5" />
  <line x1="90.0" y1="90.0" x2="90.0" y2="162.0" stroke="#ff6b35" stroke-width="1.5" stroke-linecap="butt" marker-end="url(#cap-arrow-ff6b35-4_5)" opacity="0.5" />
  <line x1="162.0" y1="90.0" x2="234.0" y2="90.0" stroke="#ff6b35" stroke-width="1.5" stroke-linecap="butt" marker-end="url(#cap-arrow-ff6b35-4_5)" opacity="0.5" />
  <line x1="162.0" y1="90.0" x2="162.0" y2="162.0" stroke="#ff6b35" stroke-width="1.5" stroke-linecap="butt" marker-end="url(#cap-arrow-ff6b35-4_5)" opacity="0.5" />
  <line x1="234.0" y1="90.0" x2="234.0" y2="162.0" stroke="#ff6b35" stroke-width="1.5" stroke-linecap="butt" marker-end="url(#cap-arrow-ff6b35-4_5)" opacity="0.5" />
  <line x1="54.0" y1="126.0" x2="54.0" y2="198.0" stroke="#ff6b35" stroke-width="1.5" stroke-linecap="butt" marker-end="url(#cap-arrow-ff6b35-4_5)" opacity="0.5" />
  <line x1="54.0" y1="126.0" x2="126.0" y2="126.0" stroke="#ff6b35" stroke-width="1.5" stroke-linecap="butt" marker-end="url(#cap-arrow-ff6b35-4_5)" opacity="0.5" />
  <line x1="126.0" y1="126.0" x2="126.0" y2="198.0" stroke="#ff6b35" stroke-width="1.5" stroke-linecap="butt" marker-end="url(#cap-arrow-ff6b35-4_5)" opacity="0.5" />
  <line x1="126.0" y1="126.0" x2="198.0" y2="126.0" stroke="#ff6b35" stroke-width="1.5" stroke-linecap="butt" marker-end="url(#cap-arrow-ff6b35-4_5)" opacity="0.5" />
  <line x1="198.0" y1="126.0" x2="270.0" y2="126.0" stroke="#ff6b35" stroke-width="1.5" stroke-linecap="butt" marker-end="url(#cap-arrow-ff6b35-4_5)" opacity="0.5" />
  <line x1="198.0" y1="126.0" x2="198.0" y2="198.0" stroke="#ff6b35" stroke-width="1.5" stroke-linecap="butt" marker-end="url(#cap-arrow-ff6b35-4_5)" opacity="0.5" />
  <line x1="270.0" y1="126.0" x2="270.0" y2="198.0" stroke="#ff6b35" stroke-width="1.5" stroke-linecap="butt" marker-end="url(#cap-arrow-ff6b35-4_5)" opacity="0.5" />
  <line x1="18.0" y1="162.0" x2="90.0" y2="162.0" stroke="#ff6b35" stroke-width="1.5" stroke-linecap="butt" marker-end="url(#cap-arrow-ff6b35-4_5)" opacity="0.5" />
  <line x1="90.0" y1="162.0" x2="162.0" y2="162.0" stroke="#ff6b35" stroke-width="1.5" stroke-linecap="butt" marker-end="url(#cap-arrow-ff6b35-4_5)" opacity="0.5" />
  <line x1="162.0" y1="162.0" x2="234.0" y2="162.0" stroke="#ff6b35" stroke-width="1.5" stroke-linecap="butt" marker-end="url(#cap-arrow-ff6b35-4_5)" opacity="0.5" />
  <line x1="54.0" y1="198.0" x2="126.0" y2="198.0" stroke="#ff6b35" stroke-width="1.5" stroke-linecap="butt" marker-end="url(#cap-arrow-ff6b35-4_5)" opacity="0.5" />
  <line x1="126.0" y1="198.0" x2="198.0" y2="198.0" stroke="#ff6b35" stroke-width="1.5" stroke-linecap="butt" marker-end="url(#cap-arrow-ff6b35-4_5)" opacity="0.5" />
  <line x1="198.0" y1="198.0" x2="270.0" y2="198.0" stroke="#ff6b35" stroke-width="1.5" stroke-linecap="butt" marker-end="url(#cap-arrow-ff6b35-4_5)" opacity="0.5" />
  <circle cx="18.0" cy="18.0" r="5.3999999999999995" fill="#efa00b" opacity="0.8" />
  <circle cx="90.0" cy="18.0" r="5.3999999999999995" fill="#efa00b" opacity="0.8" />
  <circle cx="162.0" cy="18.0" r="5.3999999999999995" fill="#efa00b" opacity="0.8" />
  <circle cx="234.0" cy="18.0" r="5.3999999999999995" fill="#efa00b" opacity="0.8" />
  <circle cx="54.0" cy="54.0" r="5.3999999999999995" fill="#efa00b" opacity="0.8" />
  <circle cx="126.0" cy="54.0" r="5.3999999999999995" fill="#efa00b" opacity="0.8" />
  <circle cx="198.0" cy="54.0" r="5.3999999999999995" fill="#efa00b" opacity="0.8" />
  <circle cx="270.0" cy="54.0" r="5.3999999999999995" fill="#efa00b" opacity="0.8" />
  <circle cx="18.0" cy="90.0" r="5.3999999999999995" fill="#efa00b" opacity="0.8" />
  <circle cx="90.0" cy="90.0" r="5.3999999999999995" fill="#efa00b" opacity="0.8" />
  <circle cx="162.0" cy="90.0" r="5.3999999999999995" fill="#efa00b" opacity="0.8" />
  <circle cx="234.0" cy="90.0" r="5.3999999999999995" fill="#efa00b" opacity="0.8" />
  <circle cx="54.0" cy="126.0" r="5.3999999999999995" fill="#efa00b" opacity="0.8" />
  <circle cx="126.0" cy="126.0" r="5.3999999999999995" fill="#efa00b" opacity="0.8" />
  <circle cx="198.0" cy="126.0" r="5.3999999999999995" fill="#efa00b" opacity="0.8" />
  <circle cx="270.0" cy="126.0" r="5.3999999999999995" fill="#efa00b" opacity="0.8" />
  <circle cx="18.0" cy="162.0" r="5.3999999999999995" fill="#efa00b" opacity="0.8" />
  <circle cx="90.0" cy="162.0" r="5.3999999999999995" fill="#efa00b" opacity="0.8" />
  <circle cx="162.0" cy="162.0" r="5.3999999999999995" fill="#efa00b" opacity="0.8" />
  <circle cx="234.0" cy="162.0" r="5.3999999999999995" fill="#efa00b" opacity="0.8" />
  <circle cx="54.0" cy="198.0" r="5.3999999999999995" fill="#efa00b" opacity="0.8" />
  <circle cx="126.0" cy="198.0" r="5.3999999999999995" fill="#efa00b" opacity="0.8" />
  <circle cx="198.0" cy="198.0" r="5.3999999999999995" fill="#efa00b" opacity="0.8" />
  <circle cx="270.0" cy="198.0" r="5.3999999999999995" fill="#efa00b" opacity="0.8" />
</svg>