<?xml version="1.0" encoding="UTF-8"?>
<svg xmlns="http://www.w3.org/2000/svg" width="312" height="260" viewBox="0 0 312 260">
  <rect width="100%" height="100%" fill="#0a1628" />
  <line x1="13" y1="13" x2="91" y2="13" stroke="#0077b6" stroke-width="0.5375" stroke-linecap="round" opacity="0.015" />
  <line x1="13" y1="13" x2="65" y2="39" stroke="#0077b6" stroke-width="0.909917" stroke-linecap="round" opacity="0.163967" />
  <line x1="13" y1="13" x2="39" y2="65" stroke="#0077b6" stroke-width="0.909917" stroke-linecap="round" opacity="0.163967" />
  <line x1="13" y1="13" x2="13" y2="91" stroke="#0077b6" stroke-width="0.5375" stroke-linecap="round" opacity="0.015" />
  <line x1="91" y1="13" x2="169" y2="13" stroke="#0077b6" stroke-width="0.5375" stroke-linecap="round" opacity="0.015" />
  <line x1="91" y1="13" x2="65" y2="39" stroke="#0077b6" stroke-width="1.31057" stroke-linecap="round" opacity="0.324228" />
  <line x1="91" y1="13" x2="143" y2="39" stroke="#0077b6" stroke-width="0.909917" stroke-linecap="round" opacity="0.163967" />
  <line x1="91" y1="13" x2="39" y2="65" stroke="#0077b6" stroke-width="0.621142" stroke-linecap="round" opacity="0.0484567" />
  <line x1="91" y1="13" x2="117" y2="65" stroke="#0077b6" stroke-width="0.909917" stroke-linecap="round" opacity="0.163967" />
  <line x1="91" y1="13" x2="91" y2="91" stroke="#0077b6" stroke-width="0.5375" stroke-linecap="round" opacity="0.015" />
  <line x1="169" y1="13" x2="247" y2="13" stroke="#0077b6" stroke-width="0.5375" stroke-linecap="round" opacity="0.015" />
  <line x1="169" y1="13" x2="143" y2="39" stroke="#0077b6" stroke-width="1.31057" stroke-linecap="round" opacity="0.324228" />
  <line x1="169" y1="13" x2="221" y2="39" stroke="#0077b6" stroke-width="0.909917" stroke-linecap="round" opacity="0.163967" />
  <line x1="169" y1="13" x2="117" y2="65" stroke="#0077b6" stroke-width="0.621142" stroke-linecap="round" opacity="0.0484567" />
  <line x1="169" y1="13" x2="195" y2="65" stroke="#0077b6" stroke-width="0.909917" stroke-linecap="round" opacity="0.163967" />
  <line x1="169" y1="13" x2="169" y2="91" stroke="#0077b6" stroke-width="0.5375" stroke-linecap="round" opacity="0.015" />
  <line x1="247" y1="13" x2="221" y2="39" stroke="#0077b6" stroke-width="1.31057" stroke-linecap="round" opacity="0.324228" />
  <line x1="247" y1="13" x2="299" y2="39" stroke="#0077b6" stroke-width="0.909917" stroke-linecap="round" opacity="0.163967" />
  <line x1="247" y1="13" x2="195" y2="65" stroke="#0077b6" stroke-width="0.621142" stroke-linecap="round" opacity="0.0484567" />
  <line x1="247" y1="13" x2="273" y2="65" stroke="#0077b6" stroke-width="0.909917" stroke-linecap="round" opacity="0.163967" />
  <line x1="247" y1="13" x2="247" y2="91" stroke="#0077b6" stroke-width="0.5375" stroke-linecap="round" opacity="0.015" />
  <line x1="65" y1="39" x2="143" y2="39" stroke="#0077b6" stroke-width="0.5375" stroke-linecap="round" opacity="0.015" />
  <line x1="65" y1="39" x2="39" y2="65" stroke="#0077b6" stroke-width="1.31057" stroke-linecap="round" opacity="0.324228" />
  <line x1="65" y1="39" x2="117" y2="65" stroke="#0077b6" stroke-width="0.909917" stroke-linecap="round" opacity="0.163967" />
  <line x1="65" y1="39" x2="13" y2="91" stroke="#0077b6" stroke-width="0.621142" stroke-linecap="round" opacity="0.0484567" />
  <line x1="65" y1="39" x2="91" y2="91" stroke="#0077b6" stroke-width="0.909917" stroke-linecap="round" opacity="0.163967" />
  <line x1="65" y1="39" x2="65" y2="117" stroke="#0077b6" stroke-width="0.5375" stroke-linecap="round" opacity="0.015" />
  <line x1="143" y1="39" x2="221" y2="39" stroke="#0077b6" stroke-width="0.5375" stroke-linecap="round" opacity="0.015" />
  <line x1="143" y1="39" x2="117" y2="65" stroke="#0077b6" stroke-width="1.31057" stroke-linecap="round" opacity="0.324228" />
  <line x1="143" y1="39" x2="195" y2="65" stroke="#0077b6" stroke-width="0.909917" stroke-linecap="round" opacity="0.163967" />
  <line x1="143" y1="39" x2="91" y2="91" stroke="#0077b6" stroke-width="0.621142" stroke-linecap="round" opacity="0.0484567" />
  <line x1="143" y1="39" x2="169" y2="91" stroke="#0077b6" stroke-width="0.909917" stroke-linecap="round" opacity="0.163967" />
  <line x1="143" y1="39" x2="143" y2="117" stroke="#0077b6" stroke-width="0.5375" stroke-linecap="round" opacity="0.015" />
  <line x1="221" y1="39" x2="299" y2="39" stroke="#0077b6" stroke-width="0.5375" stroke-linecap="round" opacity="0.015" />
  <line x1="221" y1="39" x2="195" y2="65" stroke="#0077b6" stroke-width="1.31057" stroke-linecap="round" opacity="0.324228" />
  <line x1="221" y1="39" x2="273" y2="65" stroke="#0077b6" stroke-width="0.909917" stroke-linecap="round" opacity="0.163967" />
  <line x1="221" y1="39" x2="169" y2="91" stroke="#0077b6" stroke-width="0.621142" stroke-linecap="round" opacity="0.0484567" />
  <line x1="221" y1="39" x2="247" y2="91" stroke="#0077b6" stroke-width="0.909917" stroke-linecap="round" opacity="0.163967" />
  <line x1="221" y1="39" x2="221" y2="117" stroke="#0077b6" stroke-width="0.5375" stroke-linecap="round" opacity="0.015" />
  <line x1="299" y1="39" x2="273" y2="65" stroke="#0077b6" stroke-width="1.31057" stroke-linecap="round" opacity="0.324228" />
  <line x1="299" y1="39" x2="247" y2="91" stroke="#0077b6" stroke-width="0.621142" stroke-linecap="round" opacity="0.0484567" />
  <line x1="299" y1="39" x2="299" y2="117" stroke="#0077b6" stroke-width="0.5375" stroke-linecap="round" opacity="0.015" />
  <line x1="39" y1="65" x2="117" y2="65" stroke="#0077b6" stroke-width="0.5375" stroke-linecap="round" opacity="0.015" />
  <line x1="39" y1="65" x2="13" y2="91" stroke="#0077b6" stroke-width="1.31057" stroke-linecap="round" opacity="0.324228" />
  <line x1="39" y1="65" x2="91" y2="91" stroke="#0077b6" stroke-width="0.909917" stroke-linecap="round" opacity="0.163967" />
  <line x1="39" y1="65" x2="65" y2="117" stroke="#0077b6" stroke-width="0.909917" stroke-linecap="round" opacity="0.163967" />
  <line x1="39" y1="65" x2="39" y2="143" stroke="#0077b6" stroke-width="0.5375" stroke-linecap="round" opacity="0.015" />
  <line x1="117" y1="65" x2="195" y2="65" stroke="#0077b6" stroke-width="0.5375" stroke-linecap="round" opacity="0.015" />
  <line x1="117" y1="65" x2="91" y2="91" stroke="#0077b6" stroke-width="1.31057" stroke-linecap="round" opacity="0.324228" />
  <line x1="117" y1="65" x2="169" y2="91" stroke="#0077b6" stroke-width="0.909917" stroke-linecap="round" opacity="0.163967" />
  <line x1="117" y1="65" x2="65" y2="117" stroke="#0077b6" stroke-width="0.621142" stroke-linecap="round" opacity="0.0484567" />
  <line x1="117" y1="65" x2="143" y2="117" stroke="#0077b6" stroke-width="0.909917" stroke-linecap="round" opacity="0.163967" />
  <line x1="117" y1="65" x2="117" y2="143" stroke="#0077b6" stroke-width="0.5375" stroke-linecap="round" opacity="0.015" />
  <line x1="195" y1="65" x2="273" y2="65" stroke="#0077b6" stroke-width="0.5375" stroke-linecap="round" opacity="0.015" />
  <line x1="195" y1="65" x2="169" y2="91" stroke="#0077b6" stroke-width="1.31057" stroke-linecap="round" opacity="0.324228" />
  <line x1="195" y1="65" x2="247" y2="91" stroke="#0077b6" stroke-width="0.909917" stroke-linecap="round" opacity="0.163967" />
  <line x1="195" y1="65" x2="143" y2="117" stroke="#0077b6" stroke-width="0.621142" stroke-linecap="round" opacity="0.0484567" />
  <line x1="195" y1="65" x2="221" y2="117" stroke="#0077b6" stroke-width="0.909917" stroke-linecap="round" opacity="0.163967" />
  <line x1="195" y1="65" x2="195" y2="143" stroke="#0077b6" stroke-width="0.5375" stroke-linecap="round" opacity="0.015" />
  <line x1="273" y1="65" x2="247" y2="91" stroke="#0077b6" stroke-width="1.31057" stroke-linecap="round" opacity="0.324228" />
  <line x1="273" y1="65" x2="221" y2="117" stroke="#0077b6" stroke-width="0.621142" stroke-linecap="round" opacity="0.0484567" />
  <line x1="273" y1="65" x2="299" y2="117" stroke="#0077b6" stroke-width="0.909917" stroke-linecap="round" opacity="0.163967" />
  <line x1="273" y1="65" x2="273" y2="143" stroke="#0077b6" stroke-width="0.5375" stroke-linecap="round" opacity="0.015" />
  <line x1="13" y1="91" x2="91" y2="91" stroke="#0077b6" stroke-width="0.5375" stroke-linecap="round" opacity="0.015" />
  <line x1="13" y1="91" x2="65" y2="117" stroke="#0077b6" stroke-width="0.909917" stroke-linecap="round" opacity="0.163967" />
  <line x1="13" y1="91" x2="39" y2="143" stroke="#0077b6" stroke-width="0.909917" stroke-linecap="round" opacity="0.163967" />
  <line x1="13" y1="91" x2="13" y2="169" stroke="#0077b6" stroke-width="0.5375" stroke-linecap="round" opacity="0.015" />
  <line x1="91" y1="91" x2="169" y2="91" stroke="#0077b6" stroke-width="0.5375" stroke-linecap="round" opacity="0.015" />
  <line x1="91" y1="91" x2="65" y2="117" stroke="#0077b6" stroke-width="1.31057" stroke-linecap="round" opacity="0.324228" />
  <line x1="91" y1="91" x2="143" y2="117" stroke="#0077b6" stroke-width="0.909917" stroke-linecap="round" opacity="0.163967" />
  <line x1="91" y1="91" x2="39" y2="143" stroke="#0077b6" stroke-width="0.621142" stroke-linecap="round" opacity="0.0484567" />
  <line x1="91" y1="91" x2="117" y2="143" stroke="#0077b6" stroke-width="0.909917" stroke-linecap="round" opacity="0.163967" />
  <line x1="91" y1="91" x2="91" y2="169" stroke="#0077b6" stroke-width="0.5375" stroke-linecap="round" opacity="0.015" />
  <line x1="169" y1="91" x2="247" y2="91" stroke="#0077b6" stroke-width="0.5375" stroke-linecap="round" opacity="0.015" />
  <line x1="169" y1="91" x2="143" y2="117" stroke="#0077b6" stroke-width="1.31057" stroke-linecap="round" opacity="0.324228" />
  <line x1="169" y1="91" x2="221" y2="117" stroke="#0077b6" stroke-width="0.909917" stroke-linecap="round" opacity="0.163967" />
  <line x1="169" y1="91" x2="117" y2="143" stroke="#0077b6" stroke-width="0.621142" stroke-linecap="round" opacity="0.0484567" />
  <line x1="169" y1="91" x2="195" y2="143" stroke="#0077b6" stroke-width="0.909917" stroke-linecap="round" opacity="0.163967" />
  <line x1="169" y1="91" x2="169" y2="169" stroke="#0077b6" stroke-width="0.5375" stroke-linecap="round" opacity="0.015" />
  <line x1="247" y1="91" x2="221" y2="117" stroke="#0077b6" stroke-width="1.31057" stroke-linecap="round" opacity="0.324228" />
  <line x1="247" y1="91" x2="299" y2="117" stroke="#0077b6" stroke-width="0.909917" stroke-linecap="round" opacity="0.163967" />
  <line x1="247" y1="91" x2="195" y2="143" stroke="#0077b6" stroke-width="0.621142" stroke-linecap="round" opacity="0.0484567" />
  <line x1="247" y1="91" x2="273" y2="143" stroke="#0077b6" stroke-width="0.909917" stroke-linecap="round" opacity="0.163967" />
  <line x1="247" y1="91" x2="247" y2="169" stroke="#0077b6" stroke-width="0.5375" stroke-linecap="round" opacity="0.015" />
  <line x1="65" y1="117" x2="143" y2="117" stroke="#0077b6" stroke-width="0.5375" stroke-linecap="round" opacity="0.015" />
  <line x1="65" y1="117" x2="39" y2="143" stroke="#0077b6" stroke-width="1.31057" stroke-linecap="round" opacity="0.324228" />
  <line x1="65" y1="117" x2="117" y2="143" stroke="#0077b6" stroke-width="0.909917" stroke-linecap="round" opacity="0.163967" />
  <line x1="65" y1="117" x2="13" y2="169" stroke="#0077b6" stroke-width="0.621142" stroke-linecap="round" opacity="0.0484567" />
  <line x1="65" y1="117" x2="91" y2="169" stroke="#0077b6" stroke-width="0.909917" stroke-linecap="round" opacity="0.163967" />
  <line x1="65" y1="117" x2="65" y2="195" stroke="#0077b6" stroke-width="0.5375" stroke-linecap="round" opacity="0.015" />
  <line x1="143" y1="117" x2="221" y2="117" stroke="#0077b6" stroke-width="0.5375" stroke-linecap="round" opacity="0.015" />
  <line x1="143" y1="117" x2="117" y2="143" stroke="#0077b6" stroke-width="1.31057" stroke-linecap="round" opacity="0.324228" />
  <line x1="143" y1="117" x2="195" y2="143" stroke="#0077b6" stroke-width="0.909917" stroke-linecap="round" opacity="0.163967" />
  <line x1="143" y1="117" x2="91" y2="169" stroke="#0077b6" stroke-width="0.621142" stroke-linecap="round" opacity="0.0484567" />
  <line x1="143" y1="117" x2="169" y2="169" stroke="#0077b6" stroke-width="0.909917" stroke-linecap="round" opacity="0.163967" />
  <line x1="143" y1="117" x2="143" y2="195" stroke="#0077b6" stroke-width="0.5375" stroke-linecap="round" opacity="0.015" />
  <line x1="221" y1="117" x2="299" y2="117" stroke="#0077b6" stroke-width="0.5375" stroke-linecap="round" opacity="0.015" />
  <line x1="221" y1="117" x2="195" y2="143" stroke="#0077b6" stroke-width="1.31057" stroke-linecap="round" opacity="0.324228" />
  <line x1="221" y1="117" x2="273" y2="143" stroke="#0077b6" stroke-width="0.909917" stroke-linecap="round" opacity="0.163967" />
  <line x1="221" y1="117" x2="169" y2="169" stroke="#0077b6" stroke-width="0.621142" stroke-linecap="round" opacity="0.0484567" />
  <line x1="221" y1="117" x2="247" y2="169" stroke="#0077b6" stroke-width="0.909917" stroke-linecap="round" opacity="0.163967" />
  <line x1="221" y1="117" x2="221" y2="195" stroke="#0077b6" stroke-width="0.5375" stroke-linecap="round" opacity="0.015" />
  <line x1="299" y1="117" x2="273" y2="143" stroke="#0077b6" stroke-width="1.31057" stroke-linecap="round" opacity="0.324228" />
  <line x1="299" y1="117" x2="247" y2="169" stroke="#0077b6" stroke-width="0.621142" stroke-linecap="round" opacity="0.0484567" />
  <line x1="299" y1="117" x2="299" y2="195" stroke="#0077b6" stroke-width="0.5375" stroke-linecap="round" opacity="0.015" />
  <line x1="39" y1="143" x2="117" y2="143" stroke="#0077b6" stroke-width="0.5375" stroke-linecap="round" opacity="0.015" />
  <line x1="39" y1="143" x2="13" y2="169" stroke="#0077b6" stroke-width="1.31057" stroke-linecap="round" opacity="0.324228" />
  <line x1="39" y1="143" x2="91" y2="169" stroke="#0077b6" stroke-width="0.909917" stroke-linecap="round" opacity="0.163967" />
  <line x1="39" y1="143" x2="65" y2="195" stroke="#0077b6" stroke-width="0.909917" stroke-linecap="round" opacity="0.163967" />
  <line x1="39" y1="143" x2="39" y2="221" stroke="#0077b6" stroke-width="0.5375" stroke-linecap="round" opacity="0.015" />
  <line x1="117" y1="143" x2="195" y2="143" stroke="#0077b6" stroke-width="0.5375" stroke-linecap="round" opacity="0.015" />
  <line x1="117" y1="143" x2="91" y2="169" stroke="#0077b6" stroke-width="1.31057" stroke-linecap="round" opacity="0.324228" />
  <line x1="117" y1="143" x2="169" y2="169" stroke="#0077b6" stroke-width="0.909917" stroke-linecap="round" opacity="0.163967" />
  <line x1="117" y1="143" x2="65" y2="195" stroke="#0077b6" stroke-width="0.621142" stroke-linecap="round" opacity="0.0484567" />
  <line x1="117" y1="143" x2="143" y2="195" stroke="#0077b6" stroke-width="0.909917" stroke-linecap="round" opacity="0.163967" />
  <line x1="117" y1="143" x2="117" y2="221" stroke="#0077b6" stroke-width="0.5375" stroke-linecap="round" opacity="0.015" />
  <line x1="195" y1="143" x2="273" y2="143" stroke="#0077b6" stroke-width="0.5375" stroke-linecap="round" opacity="0.015" />
  <line x1="195" y1="143" x2="169" y2="169" stroke="#0077b6" stroke-width="1.31057" stroke-linecap="round" opacity="0.324228" />
  <line x1="195" y1="143" x2="247" y2="169" stroke="#0077b6" stroke-width="0.909917" stroke-linecap="round" opacity="0.163967" />
  <line x1="195" y1="143" x2="143" y2="195" stroke="#0077b6" stroke-width="0.621142" stroke-linecap="round" opacity="0.0484567" />
  <line x1="195" y1="143" x2="221" y2="195" stroke="#0077b6" stroke-width="0.909917" stroke-linecap="round" opacity="0.163967" />
  <line x1="195" y1="143" x2="195" y2="221" stroke="#0077b6" stroke-width="0.5375" stroke-linecap="round" opacity="0.015" />
  <line x1="273" y1="143" x2="247" y2="169" stroke="#0077b6" stroke-width="1.31057" stroke-linecap="round" opacity="0.324228" />
  <line x1="273" y1="143" x2="221" y2="195" stroke="#0077b6" stroke-width="0.621142" stroke-linecap="round" opacity="0.0484567" />
  <line x1="273" y1="143" x2="299" y2="195" stroke="#0077b6" stroke-width="0.909917" stroke-linecap="round" opacity="0.163967" />
  <line x1="273" y1="143" x2="273" y2="221" stroke="#0077b6" stroke-width="0.5375" stroke-linecap="round" opacity="0.015" />
  <line x1="13" y1="169" x2="91" y2="169" stroke="#0077b6" stroke-width="0.5375" stroke-linecap="round" opacity="0.015" />
  <line x1="13" y1="169" x2="65" y2="195" stroke="#0077b6" stroke-width="0.909917" stroke-linecap="round" opacity="0.163967" />
  <line x1="13" y1="169" x2="39" y2="221" stroke="#0077b6" stroke-width="0.909917" stroke-linecap="round" opacity="0.163967" />
  <line x1="13" y1="169" x2="13" y2="247" stroke="#0077b6" stroke-width="0.5375" stroke-linecap="round" opacity="0.015" />
  <line x1="91" y1="169" x2="169" y2="169" stroke="#0077b6" stroke-width="0.5375" stroke-linecap="round" opacity="0.015" />
  <line x1="91" y1="169" x2="65" y2="195" stroke="#0077b6" stroke-width="1.31057" stroke-linecap="round" opacity="0.324228" />
  <line x1="91" y1="169" x2="143" y2="195" stroke="#0077b6" stroke-width="0.909917" stroke-linecap="round" opacity="0.163967" />
  <line x1="91" y1="169" x2="39" y2="221" stroke="#0077b6" stroke-width="0.621142" stroke-linecap="round" opacity="0.0484567" />
  <line x1="91" y1="169" x2="117" y2="221" stroke="#0077b6" stroke-width="0.909917" stroke-linecap="round" opacity="0.163967" />
  <line x1="91" y1="169" x2="91" y2="247" stroke="#0077b6" stroke-width="0.5375" stroke-linecap="round" opacity="0.015" />
  <line x1="169" y1="169" x2="247" y2="169" stroke="#0077b6" stroke-width="0.5375" stroke-linecap="round" opacity="0.015" />
  <line x1="169" y1="169" x2="143" y2="195" stroke="#0077b6" stroke-width="1.31057" stroke-linecap="round" opacity="0.324228" />
  <line x1="169" y1="169" x2="221" y2="195" stroke="#0077b6" stroke-width="0.909917" stroke-linecap="round" opacity="0.163967" />
  <line x1="169" y1="169" x2="117" y2="221" stroke="#0077b6" stroke-width="0.621142" stroke-linecap="round" opacity="0.0484567" />
  <line x1="169" y1="169" x2="195" y2="221" stroke="#0077b6" stroke-width="0.909917" stroke-linecap="round" opacity="0.163967" />
  <line x1="169" y1="169" x2="169" y2="247" stroke="#0077b6" stroke-width="0.5375" stroke-linecap="round" opacity="0.015" />
  <line x1="247" y1="169" x2="221" y2="195" stroke="#0077b6" stroke-width="1.31057" stroke-linecap="round" opacity="0.324228" />
  <line x1="247" y1="169" x2="299" y2="195" stroke="#0077b6" stroke-width="0.909917" stroke-linecap="round" opacity="0.163967" />
  <line x1="247" y1="169" x2="195" y2="221" stroke="#0077b6" stroke-width="0.621142" stroke-linecap="round" opacity="0.0484567" />
  <line x1="247" y1="169" x2="273" y2="221" stroke="#0077b6" stroke-width="0.909917" stroke-linecap="round" opacity="0.163967" />
  <line x1="247" y1="169" x2="247" y2="247" stroke="#0077b6" stroke-width="0.5375" stroke-linecap="round" opacity="0.015" />
  <line x1="65" y1="195" x2="143" y2="195" stroke="#0077b6" stroke-width="0.5375" stroke-linecap="round" opacity="0.015" />
  <line x1="65" y1="195" x2="39" y2="221" stroke="#0077b6" stroke-width="1.31057" stroke-linecap="round" opacity="0.324228" />
  <line x1="65" y1="195" x2="117" y2="221" stroke="#0077b6" stroke-width="0.909917" stroke-linecap="round" opacity="0.163967" />
  <line x1="65" y1="195" x2="13" y2="247" stroke="#0077b6" stroke-width="0.621142" stroke-linecap="round" opacity="0.0484567" />
  <line x1="65" y1="195" x2="91" y2="247" stroke="#0077b6" stroke-width="0.909917" stroke-linecap="round" opacity="0.163967" />
  <line x1="143" y1="195" x2="221" y2="195" stroke="#0077b6" stroke-width="0.5375" stroke-linecap="round" opacity="0.015" />
  <line x1="143" y1="195" x2="117" y2="221" stroke="#0077b6" stroke-width="1.31057" stroke-linecap="round" opacity="0.324228" />
  <line x1="143" y1="195" x2="195" y2="221" stroke="#0077b6" stroke-width="0.909917" stroke-linecap="round" opacity="0.163967" />
  <line x1="143" y1="195" x2="91" y2="247" stroke="#0077b6" stroke-width="0.621142" stroke-linecap="round" opacity="0.0484567" />
  <line x1="143" y1="195" x2="169" y2="247" stroke="#0077b6" stroke-width="0.909917" stroke-linecap="round" opacity="0.163967" />
  <line x1="221" y1="195" x2="299" y2="195" stroke="#0077b6" stroke-width="0.5375" stroke-linecap="round" opacity="0.015" />
  <line x1="221" y1="195" x2="195" y2="221" stroke="#0077b6" stroke-width="1.31057" stroke-linecap="round" opacity="0.324228" />
  <line x1="221" y1="195" x2="273" y2="221" stroke="#0077b6" stroke-width="0.909917" stroke-linecap="round" opacity="0.163967" />
  <line x1="221" y1="195" x2="169" y2="247" stroke="#0077b6" stroke-width="0.621142" stroke-linecap="round" opacity="0.0484567" />
  <line x1="221" y1="195" x2="247" y2="247" stroke="#0077b6" stroke-width="0.909917" stroke-linecap="round" opacity="0.163967" />
  <line x1="299" y1="195" x2="273" y2="221" stroke="#0077b6" stroke-width="1.31057" stroke-linecap="round" opacity="0.324228" />
  <line x1="299" y1="195" x2="247" y2="247" stroke="#0077b6" stroke-width="0.621142" stroke-linecap="round" opacity="0.0484567" />
  <line x1="39" y1="221" x2="117" y2="221" stroke="#0077b6" stroke-width="0.5375" stroke-linecap="round" opacity="0.015" />
  <line x1="39" y1="221" x2="13" y2="247" stroke="#0077b6" stroke-width="1.31057" stroke-linecap="round" opacity="0.324228" />
  <line x1="39" y1="221" x2="91" y2="247" stroke="#0077b6" stroke-width="0.909917" stroke-linecap="round" opacity="0.163967" />
  <line x1="117" y1="221" x2="195" y2="221" stroke="#0077b6" stroke-width="0.5375" stroke-linecap="round" opacity="0.015" />
  <line x1="117" y1="221" x2="91" y2="247" stroke="#0077b6" stroke-width="1.31057" stroke-linecap="round" opacity="0.324228" />
  <line x1="117" y1="221" x2="169" y2="247" stroke="#0077b6" stroke-width="0.909917" stroke-linecap="round" opacity="0.163967" />
  <line x1="195" y1="221" x2="273" y2="221" stroke="#0077b6" stroke-width="0.5375" stroke-linecap="round" opacity="0.015" />
  <line x1="195" y1="221" x2="169" y2="247" stroke="#0077b6" stroke-width="1.31057" stroke-linecap="round" opacity="0.324228" />
  <line x1="195" y1="221" x2="247" y2="247" stroke="#0077b6" stroke-width="0.909917" stroke-linecap="round" opacity="0.163967" />
  <line x1="273" y1="221" x2="247" y2="247" stroke="#0077b6" stroke-width="1.31057" stroke-linecap="round" opacity="0.324228" />
  <line x1="13" y1="247" x2="91" y2="247" stroke="#0077b6" stroke-width="0.5375" stroke-linecap="round" opacity="0.015" />
  <line x1="91" y1="247" x2="169" y2="247" stroke="#0077b6" stroke-width="0.5375" stroke-linecap="round" opacity="0.015" />
  <line x1="169" y1="247" x2="247" y2="247" stroke="#0077b6" stroke-width="0.5375" stroke-linecap="round" opacity="0.015" />
  <circle cx="13" cy="13" r="3.9" fill="#00d9ff" opacity="0.8" />
  <circle cx="91" cy="13" r="3.9" fill="#00d9ff" opacity="0.8" />
  <circle cx="169" cy="13" r="3.9" fill="#00d9ff" opacity="0.8" />
  <circle cx="247" cy="13" r="3.9" fill="#00d9ff" opacity="0.8" />
  <circle cx="65" cy="39" r="3.9" fill="#00d9ff" opacity="0.8" />
  <circle cx="143" cy="39" r="3.9" fill="#00d9ff" opacity="0.8" />
  <circle cx="221" cy="39" r="3.9" fill="#00d9ff" opacity="0.8" />
  <circle cx="299" cy="39" r="3.9" fill="#00d9ff" opacity="0.8" />
  <circle cx="39" cy="65" r="3.9" fill="#00d9ff" opacity="0.8" />
  <circle cx="117" cy="65" r="3.9" fill="#00d9ff" opacity="0.8" />
  <circle cx="195" cy="65" r="3.9" fill="#00d9ff" opacity="0.8" />
  <circle cx="273" cy="65" r="3.9" fill="#00d9ff" opacity="0.8" />
  <circle cx="13" cy="91" r="3.9" fill="#00d9ff" opacity="0.8" />
  <circle cx="91" cy="91" r="3.9" fill="#00d9ff" opacity="0.8" />
  <circle cx="169" cy="91" r="3.9" fill="#00d9ff" opacity="0.8" />
  <circle cx="247" cy="91" r="3.9" fill="#00d9ff" opacity="0.8" />
  <circle cx="65" cy="117" r="3.9" fill="#00d9ff" opacity="0.8" />
  <circle cx="143" cy="117" r="3.9" fill="#00d9ff" opacity="0.8" />
  <circle cx="221" cy="117" r="3.9" fill="#00d9ff" opacity="0.8" />
  <circle cx="299" cy="117" r="3.9" fill="#00d9ff" opacity="0.8" />
  <circle cx="39" cy="143" r="3.9" fill="#00d9ff" opacity="0.8" />
  <circle cx="117" cy="143" r="3.9" fill="#00d9ff" opacity="0.8" />
  <circle cx="195" cy="143" r="3.9" fill="#00d9ff" opacity="0.8" />
  <circle cx="273" cy="143" r="3.9" fill="#00d9ff" opacity="0.8" />
  <circle cx="13" cy="169" r="3.9" fill="#00d9ff" opacity="0.8" />
  <circle cx="91" cy="169" r="3.9" fill="#00d9ff" opacity="0.8" />
  <circle cx="169" cy="169" r="3.9" fill="#00d9ff" opacity="0.8" />
  <circle cx="247" cy="169" r="3.9" fill="#00d9ff" opacity="0.8" />
  <circle cx="65" cy="195" r="3.9" fill="#00d9ff" opacity="0.8" />
  <circle cx="143" cy="195" r="3.9" fill="#00d9ff" opacity="0.8" />
  <circle cx="221" cy="195" r="3.9" fill="#00d9ff" opacity="0.8" />
  <circle cx="299" cy="195" r="3.9" fill="#00d9ff" opacity="0.8" />
  <circle cx="39" cy="221" r="3.9" fill="#00d9ff" opacity="0.8" />
  <circle cx="117" cy="221" r="3.9" fill="#00d9ff" opacity="0.8" />
  <circle cx="195" cy="221" r="3.9" fill="#00d9ff" opacity="0.8" />
  <circle cx="273" cy="221" r="3.9" fill="#00d9ff" opacity="0.8" />
  <circle cx="13" cy="247" r="3.9" fill="#00d9ff" opacity="0.8" />
  <circle cx="91" cy="247" r="3.9" fill="#00d9ff" opacity="0.8" />
  <circle cx="169" cy="247" r="3.9" fill="#00d9ff" opacity="0.8" />
  <circle cx="247" cy="247" r="3.9" fill="#00d9ff" opacity="0.8" />
</svg>