<?xml version="1.0" encoding="UTF-8"?>
<svg xmlns="http://www.w3.org/2000/svg" width="360" height="160" viewBox="0 0 360 160">
  <rect width="100%" height="100%" fill="#1e293b" />
  <circle cx="15.0" cy="10.0" r="4.0" fill="#38bdf8" />
  <rect x="0" y="0" width="30.0" height="20.0" fill="none" stroke="#334155" stroke-width="0.5" />
  <circle cx="45.0" cy="10.0" r="4.0" fill="#38bdf8" />
  <rect x="30" y="0" width="30.0" height="20.0" fill="none" stroke="#334155" stroke-width="0.5" />
  <circle cx="75.0" cy="10.0" r="4.0" fill="#38bdf8" />
  <rect x="60" y="0" width="30.0" height="20.0" fill="none" stroke="#334155" stroke-width="0.5" />
  <circle cx="105.0" cy="10.0" r="4.0" fill="#38bdf8" />
  <rect x="90" y="0" width="30.0" height="20.0" fill="none" stroke="#334155" stroke-width="0.5" />
  <circle cx="135.0" cy="10.0" r="4.0" fill="#38bdf8" />
  <rect x="120" y="0" width="30.0" height="20.0" fill="none" stroke="#334155" stroke-width="0.5" />
  <circle cx="165.0" cy="10.0" r="4.0" fill="#38bdf8" />
  <rect x="150" y="0" width="30.0" height="20.0" fill="none" stroke="#334155" stroke-width="0.5" />
  <circle cx="195.0" cy="10.0" r="4.0" fill="#38bdf8" />
  <rect x="180" y="0" width="30.0" height="20.0" fill="none" stroke="#334155" stroke-width="0.5" />
  <circle cx="225.0" cy="10.0" r="4.0" fill="#38bdf8" />
  <rect x="210" y="0" width="30.0" height="20.0" fill="none" stroke="#334155" stroke-width="0.5" />
  <circle cx="255.0" cy="10.0" r="4.0" fill="#38bdf8" />
  <rect x="240" y="0" width="30.0" height="20.0" fill="none" stroke="#334155" stroke-width="0.5" />
  <circle cx="285.0" cy="10.0" r="4.0" fill="#38bdf8" />
  <rect x="270" y="0" width="30.0" height="20.0" fill="none" stroke="#334155" stroke-width="0.5" />
  <circle cx="315.0" cy="10.0" r="4.0" fill="#38bdf8" />
  <rect x="300" y="0" width="30.0" height="20.0" fill="none" stroke="#334155" stroke-width="0.5" />
  <circle cx="345.0" cy="10.0" r="4.0" fill="#38bdf8" />
  <rect x="330" y="0" width="30.0" height="20.0" fill="none" stroke="#334155" stroke-width="0.5" />
  <circle cx="15.0" cy="30.0" r="4.0" fill="#38bdf8" />
  <rect x="0" y="20" width="30.0" height="20.0" fill="none" stroke="#334155" stroke-width="0.5" />
  <circle cx="45.0" cy="30.0" r="4.0" fill="#38bdf8" />
  <rect x="30" y="20" width="30.0" height="20.0" fill="none" stroke="#334155" stroke-width="0.5" />
  <circle cx="75.0" cy="30.0" r="4.0" fill="#38bdf8" />
  <rect x="60" y="20" width="30.0" height="20.0" fill="none" stroke="#334155" stroke-width="0.5" />
  <circle cx="105.0" cy="30.0" r="4.0" fill="#38bdf8" />
  <rect x="90" y="20" width="30.0" height="20.0" fill="none" stroke="#334155" stroke-width="0.5" />
  <circle cx="135.0" cy="30.0" r="4.0" fill="#38bdf8" />
  <rect x="120" y="20" width="30.0" height="20.0" fill="none" stroke="#334155" stroke-width="0.5" />
  <circle cx="165.0" cy="30.0" r="4.0" fill="#38bdf8" />
  <rect x="150" y="20" width="30.0" height="20.0" fill="none" stroke="#334155" stroke-width="0.5" />
  <circle cx="195.0" cy="30.0" r="4.0" fill="#38bdf8" />
  <rect x="180" y="20" width="30.0" height="20.0" fill="none" stroke="#334155" stroke-width="0.5" />
  <circle cx="225.0" cy="30.0" r="4.0" fill="#38bdf8" />
  <rect x="210" y="20" width="30.0" height="20.0" fill="none" stroke="#334155" stroke-width="0.5" />
  <circle cx="255.0" cy="30.0" r="4.0" fill="#38bdf8" />
  <rect x="240" y="20" width="30.0" height="20.0" fill="none" stroke="#334155" stroke-width="0.5" />
  <circle cx="285.0" cy="30.0" r="4.0" fill="#38bdf8" />
  <rect x="270" y="20" width="30.0" height="20.0" fill="none" stroke="#334155" stroke-width="0.5" />
  <circle cx="315.0" cy="30.0" r="4.0" fill="#38bdf8" />
  <rect x="300" y="20" width="30.0" height="20.0" fill="none" stroke="#334155" stroke-width="0.5" />
  <circle cx="345.0" cy="30.0" r="4.0" fill="#38bdf8" />
  <rect x="330" y="20" width="30.0" height="20.0" fill="none" stroke="#334155" stroke-width="0.5" />
  <circle cx="15.0" cy="50.0" r="4.0" fill="#38bdf8" />
  <rect x="0" y="40" width="30.0" height="20.0" fill="none" stroke="#334155" stroke-width="0.5" />
  <circle cx="45.0" cy="50.0" r="4.0" fill="#38bdf8" />
  <rect x="30" y="40" width="30.0" height="20.0" fill="none" stroke="#334155" stroke-width="0.5" />
  <circle cx="75.0" cy="50.0" r="4.0" fill="#38bdf8" />
  <rect x="60" y="40" width="30.0" height="20.0" fill="none" stroke="#334155" stroke-width="0.5" />
  <circle cx="105.0" cy="50.0" r="4.0" fill="#38bdf8" />
  <rect x="90" y="40" width="30.0" height="20.0" fill="none" stroke="#334155" stroke-width="0.5" />
  <circle cx="135.0" cy="50.0" r="4.0" fill="#38bdf8" />
  <rect x="120" y="40" width="30.0" height="20.0" fill="none" stroke="#334155" stroke-width="0.5" />
  <circle cx="165.0" cy="50.0" r="4.0" fill="#38bdf8" />
  <rect x="150" y="40" width="30.0" height="20.0" fill="none" stroke="#334155" stroke-width="0.5" />
  <circle cx="195.0" cy="50.0" r="4.0" fill="#38bdf8" />
  <rect x="180" y="40" width="30.0" height="20.0" fill="none" stroke="#334155" stroke-width="0.5" />
  <circle cx="225.0" cy="50.0" r="4.0" fill="#38bdf8" />
  <rect x="210" y="40" width="30.0" height="20.0" fill="none" stroke="#334155" stroke-width="0.5" />
  <circle cx="255.0" cy="50.0" r="4.0" fill="#38bdf8" />
  <rect x="240" y="40" width="30.0" height="20.0" fill="none" stroke="#334155" stroke-width="0.5" />
  <circle cx="285.0" cy="50.0" r="4.0" fill="#38bdf8" />
  <rect x="270" y="40" width="30.0" height="20.0" fill="none" stroke="#334155" stroke-width="0.5" />
  <circle cx="315.0" cy="50.0" r="4.0" fill="#38bdf8" />
  <rect x="300" y="40" width="30.0" height="20.0" fill="none" stroke="#334155" stroke-width="0.5" />
  <circle cx="345.0" cy="50.0" r="4.0" fill="#38bdf8" />
  <rect x="330" y="40" width="30.0" height="20.0" fill="none" stroke="#334155" stroke-width="0.5" />
  <circle cx="15.0" cy="70.0" r="4.0" fill="#38bdf8" />
  <rect x="0" y="60" width="30.0" height="20.0" fill="none" stroke="#334155" stroke-width="0.5" />
  <circle cx="45.0" cy="70.0" r="4.0" fill="#38bdf8" />
  <rect x="30" y="60" width="30.0" height="20.0" fill="none" stroke="#334155" stroke-width="0.5" />
  <circle cx="75.0" cy="70.0" r="4.0" fill="#38bdf8" />
  <rect x="60" y="60" width="30.0" height="20.0" fill="none" stroke="#334155" stroke-width="0.5" />
  <circle cx="105.0" cy="70.0" r="4.0" fill="#38bdf8" />
  <rect x="90" y="60" width="30.0" height="20.0" fill="none" stroke="#334155" stroke-width="0.5" />
  <circle cx="135.0" cy="70.0" r="4.0" fill="#38bdf8" />
  <rect x="120" y="60" width="30.0" height="20.0" fill="none" stroke="#334155" stroke-width="0.5" />
  <circle cx="165.0" cy="70.0" r="4.0" fill="#38bdf8" />
  <rect x="150" y="60" width="30.0" height="20.0" fill="none" stroke="#334155" stroke-width="0.5" />
  <circle cx="195.0" cy="70.0" r="4.0" fill="#38bdf8" />
  <rect x="180" y="60" width="30.0" height="20.0" fill="none" stroke="#334155" stroke-width="0.5" />
  <circle cx="225.0" cy="70.0" r="4.0" fill="#38bdf8" />
  <rect x="210" y="60" width="30.0" height="20.0" fill="none" stroke="#334155" stroke-width="0.5" />
  <circle cx="255.0" cy="70.0" r="4.0" fill="#38bdf8" />
  <rect x="240" y="60" width="30.0" height="20.0" fill="none" stroke="#334155" stroke-width="0.5" />
  <circle cx="285.0" cy="70.0" r="4.0" fill="#38bdf8" />
  <rect x="270" y="60" width="30.0" height="20.0" fill="none" stroke="#334155" stroke-width="0.5" />
  <circle cx="315.0" cy="70.0" r="4.0" fill="#38bdf8" />
  <rect x="300" y="60" width="30.0" height="20.0" fill="none" stroke="#334155" stroke-width="0.5" />
  <circle cx="345.0" cy="70.0" r="4.0" fill="#38bdf8" />
  <rect x="330" y="60" width="30.0" height="20.0" fill="none" stroke="#334155" stroke-width="0.5" />
  <circle cx="15.0" cy="90.0" r="4.0" fill="#38bdf8" />
  <rect x="0" y="80" width="30.0" height="20.0" fill="none" stroke="#334155" stroke-width="0.5" />
  <circle cx="45.0" cy="90.0" r="4.0" fill="#38bdf8" />
  <rect x="30" y="80" width="30.0" height="20.0" fill="none" stroke="#334155" stroke-width="0.5" />
  <circle cx="75.0" cy="90.0" r="4.0" fill="#38bdf8" />
  <rect x="60" y="80" width="30.0" height="20.0" fill="none" stroke="#334155" stroke-width="0.5" />
  <circle cx="105.0" cy="90.0" r="4.0" fill="#38bdf8" />
  <rect x="90" y="80" width="30.0" height="20.0" fill="none" stroke="#334155" stroke-width="0.5" />
  <circle cx="135.0" cy="90.0" r="4.0" fill="#38bdf8" />
  <rect x="120" y="80" width="30.0" height="20.0" fill="none" stroke="#334155" stroke-width="0.5" />
  <circle cx="165.0" cy="90.0" r="4.0" fill="#38bdf8" />
  <rect x="150" y="80" width="30.0" height="20.0" fill="none" stroke="#334155" stroke-width="0.5" />
  <circle cx="195.0" cy="90.0" r="4.0" fill="#38bdf8" />
  <rect x="180" y="80" width="30.0" height="20.0" fill="none" stroke="#334155" stroke-width="0.5" />
  <circle cx="225.0" cy="90.0" r="4.0" fill="#38bdf8" />
  <rect x="210" y="80" width="30.0" height="20.0" fill="none" stroke="#334155" stroke-width="0.5" />
  <circle cx="255.0" cy="90.0" r="4.0" fill="#38bdf8" />
  <rect x="240" y="80" width="30.0" height="20.0" fill="none" stroke="#334155" stroke-width="0.5" />
  <circle cx="285.0" cy="90.0" r="4.0" fill="#38bdf8" />
  <rect x="270" y="80" width="30.0" height="20.0" fill="none" stroke="#334155" stroke-width="0.5" />
  <circle cx="315.0" cy="90.0" r="4.0" fill="#38bdf8" />
  <rect x="300" y="80" width="30.0" height="20.0" fill="none" stroke="#334155" stroke-width="0.5" />
  <circle cx="345.0" cy="90.0" r="4.0" fill="#38bdf8" />
  <rect x="330" y="80" width="30.0" height="20.0" fill="none" stroke="#334155" stroke-width="0.5" />
  <circle cx="15.0" cy="110.0" r="4.0" fill="#38bdf8" />
  <rect x="0" y="100" width="30.0" height="20.0" fill="none" stroke="#334155" stroke-width="0.5" />
  <circle cx="45.0" cy="110.0" r="4.0" fill="#38bdf8" />
  <rect x="30" y="100" width="30.0" height="20.0" fill="none" stroke="#334155" stroke-width="0.5" />
  <circle cx="75.0" cy="110.0" r="4.0" fill="#38bdf8" />
  <rect x="60" y="100" width="30.0" height="20.0" fill="none" stroke="#334155" stroke-width="0.5" />
  <circle cx="105.0" cy="110.0" r="4.0" fill="#38bdf8" />
  <rect x="90" y="100" width="30.0" height="20.0" fill="none" stroke="#334155" stroke-width="0.5" />
  <circle cx="135.0" cy="110.0" r="4.0" fill="#38bdf8" />
  <rect x="120" y="100" width="30.0" height="20.0" fill="none" stroke="#334155" stroke-width="0.5" />
  <circle cx="165.0" cy="110.0" r="4.0" fill="#38bdf8" />
  <rect x="150" y="100" width="30.0" height="20.0" fill="none" stroke="#334155" stroke-width="0.5" />
  <circle cx="195.0" cy="110.0" r="4.0" fill="#38bdf8" />
  <rect x="180" y="100" width="30.0" height="20.0" fill="none" stroke="#334155" stroke-width="0.5" />
  <circle cx="225.0" cy="110.0" r="4.0" fill="#38bdf8" />
  <rect x="210" y="100" width="30.0" height="20.0" fill="none" stroke="#334155" stroke-width="0.5" />
  <circle cx="255.0" cy="110.0" r="4.0" fill="#38bdf8" />
  <rect x="240" y="100" width="30.0" height="20.0" fill="none" stroke="#334155" stroke-width="0.5" />
  <circle cx="285.0" cy="110.0" r="4.0" fill="#38bdf8" />
  <rect x="270" y="100" width="30.0" height="20.0" fill="none" stroke="#334155" stroke-width="0.5" />
  <circle cx="315.0" cy="110.0" r="4.0" fill="#38bdf8" />
  <rect x="300" y="100" width="30.0" height="20.0" fill="none" stroke="#334155" stroke-width="0.5" />
  <circle cx="345.0" cy="110.0" r="4.0" fill="#38bdf8" />
  <rect x="330" y="100" width="30.0" height="20.0" fill="none" stroke="#334155" stroke-width="0.5" />
  <circle cx="15.0" cy="130.0" r="4.0" fill="#38bdf8" />
  <rect x="0" y="120" width="30.0" height="20.0" fill="none" stroke="#334155" stroke-width="0.5" />
  <circle cx="45.0" cy="130.0" r="4.0" fill="#38bdf8" />
  <rect x="30" y="120" width="30.0" height="20.0" fill="none" stroke="#334155" stroke-width="0.5" />
  <circle cx="75.0" cy="130.0" r="4.0" fill="#38bdf8" />
  <rect x="60" y="120" width="30.0" height="20.0" fill="none" stroke="#334155" stroke-width="0.5" />
  <circle cx="105.0" cy="130.0" r="4.0" fill="#38bdf8" />
  <rect x="90" y="120" width="30.0" height="20.0" fill="none" stroke="#334155" stroke-width="0.5" />
  <circle cx="135.0" cy="130.0" r="4.0" fill="#38bdf8" />
  <rect x="120" y="120" width="30.0" height="20.0" fill="none" stroke="#334155" stroke-width="0.5" />
  <circle cx="165.0" cy="130.0" r="4.0" fill="#38bdf8" />
  <rect x="150" y="120" width="30.0" height="20.0" fill="none" stroke="#334155" stroke-width="0.5" />
  <circle cx="195.0" cy="130.0" r="4.0" fill="#38bdf8" />
  <rect x="180" y="120" width="30.0" height="20.0" fill="none" stroke="#334155" stroke-width="0.5" />
  <circle cx="225.0" cy="130.0" r="4.0" fill="#38bdf8" />
  <rect x="210" y="120" width="30.0" height="20.0" fill="none" stroke="#334155" stroke-width="0.5" />
  <circle cx="255.0" cy="130.0" r="4.0" fill="#38bdf8" />
  <rect x="240" y="120" width="30.0" height="20.0" fill="none" stroke="#334155" stroke-width="0.5" />
  <circle cx="285.0" cy="130.0" r="4.0" fill="#38bdf8" />
  <rect x="270" y="120" width="30.0" height="20.0" fill="none" stroke="#334155" stroke-width="0.5" />
  <circle cx="315.0" cy="130.0" r="4.0" fill="#38bdf8" />
  <rect x="300" y="120" width="30.0" height="20.0" fill="none" stroke="#334155" stroke-width="0.5" />
  <circle cx="345.0" cy="130.0" r="4.0" fill="#38bdf8" />
  <rect x="330" y="120" width="30.0" height="20.0" fill="none" stroke="#334155" stroke-width="0.5" />
  <circle cx="15.0" cy="150.0" r="4.0" fill="#38bdf8" />
  <rect x="0" y="140" width="30.0" height="20.0" fill="none" stroke="#334155" stroke-width="0.5" />
  <circle cx="45.0" cy="150.0" r="4.0" fill="#38bdf8" />
  <rect x="30" y="140" width="30.0" height="20.0" fill="none" stroke="#334155" stroke-width="0.5" />
  <circle cx="75.0" cy="150.0" r="4.0" fill="#38bdf8" />
  <rect x="60" y="140" width="30.0" height="20.0" fill="none" stroke="#334155" stroke-width="0.5" />
  <circle cx="105.0" cy="150.0" r="4.0" fill="#38bdf8" />
  <rect x="90" y="140" width="30.0" height="20.0" fill="none" stroke="#334155" stroke-width="0.5" />
  <circle cx="135.0" cy="150.0" r="4.0" fill="#38bdf8" />
  <rect x="120" y="140" width="30.0" height="20.0" fill="none" stroke="#334155" stroke-width="0.5" />
  <circle cx="165.0" cy="150.0" r="4.0" fill="#38bdf8" />
  <rect x="150" y="140" width="30.0" height="20.0" fill="none" stroke="#334155" stroke-width="0.5" />
  <circle cx="195.0" cy="150.0" r="4.0" fill="#38bdf8" />
  <rect x="180" y="140" width="30.0" height="20.0" fill="none" stroke="#334155" stroke-width="0.5" />
  <circle cx="225.0" cy="150.0" r="4.0" fill="#38bdf8" />
  <rect x="210" y="140" width="30.0" height="20.0" fill="none" stroke="#334155" stroke-width="0.5" />
  <circle cx="255.0" cy="150.0" r="4.0" fill="#38bdf8" />
  <rect x="240" y="140" width="30.0" height="20.0" fill="none" stroke="#334155" stroke-width="0.5" />
  <circle cx="285.0" cy="150.0" r="4.0" fill="#38bdf8" />
  <rect x="270" y="140" width="30.0" height="20.0" fill="none" stroke="#334155" stroke-width="0.5" />
  <circle cx="315.0" cy="150.0" r="4.0" fill="#38bdf8" />
  <rect x="300" y="140" width="30.0" height="20.0" fill="none" stroke="#334155" stroke-width="0.5" />
  <circle cx="345.0" cy="150.0" r="4.0" fill="#38bdf8" />
  <rect x="330" y="140" width="30.0" height="20.0" fill="none" stroke="#334155" stroke-width="0.5" />
</svg>