<?xml version="1.0" encoding="UTF-8"?>
<svg xmlns="http://www.w3.org/2000/svg" width="360" height="360" viewBox="0 0 360 360">
  <rect width="100%" height="100%" fill="#1a1a2e" />
  <polygon points="24.742785792574935,20.625 15.0,26.25 5.257214207425067,20.625000000000004 5.257214207425063,9.375000000000004 14.999999999999998,3.75 24.742785792574935,9.375000000000004" fill="#ff6b6b" fill-opacity="0.5" stroke-opacity="0.5" />
  <polygon points="54.46410224435079,21.082209196375473 44.4647034469829,26.23725756580884 35.00060120263211,20.15504836943337 35.53589775564921,8.91779080362453 45.5352965530171,3.7627424341911606 54.99939879736789,9.844951630566637" fill="#4ecdc4" fill-opacity="0.5227272727272727" stroke-opacity="0.5227272727272727" />
  <polygon points="84.16397946056628,21.52564023267598 73.93061951282795,26.1990591289472 64.76664005226166,19.673418896271226 65.83602053943372,8.474359767324025 76.06938048717205,3.8009408710527985 85.23335994773834,10.326581103728781" fill="#4ecdc4" fill-opacity="0.5454545454545454" stroke-opacity="0.5454545454545454" />
  <polygon points="113.84309731585635,21.954288594981808 103.39895806942555,26.135491221160493 94.55586075356918,19.18120262617869 96.15690268414365,8.045711405018196 106.60104193057445,3.8645087788395074 115.44413924643082,10.818797373821319" fill="#ff6b6b" fill-opacity="0.5681818181818181" stroke-opacity="0.5681818181818181" />
  <polygon points="143.5021827114854,22.367183256884452 132.8709235009454,26.04669784420545 124.36874078945998,18.679514587321 126.4978172885146,7.632816743115546 137.1290764990546,3.9533021557945496 145.63125921054,11.320485412679007" fill="#4ecdc4" fill-opacity="0.5909090909090909" stroke-opacity="0.5909090909090909" />
  <polygon points="173.14200792868203,22.763388879173757 162.34771197551893,25.932880143639842 154.20570404683693,18.169491264466092 156.85799207131794,7.2366111208262405 167.65228802448107,4.067119856360156 175.79429595316307,11.830508735533916" fill="#4ecdc4" fill-opacity="0.6136363636363636" stroke-opacity="0.6136363636363636" />
  <polygon points="202.76338887917376,23.142007928682034 191.83050873553393,25.794295953163093 184.06711985636016,17.652288024481063 187.23661112082624,6.857992071317961 198.16949126446607,4.205704046836905 205.93288014363984,12.347711975518944" fill="#ff6b6b" fill-opacity="0.6363636363636364" stroke-opacity="0.6363636363636364" />
  <polygon points="232.36718325688443,23.502182711485403 221.320485412679,25.631259210540023 213.95330215579457,17.129076499054623 217.63281674311554,6.497817288514593 228.679514587321,4.368740789459979 236.04669784420543,12.870923500945384" fill="#4ecdc4" fill-opacity="0.6590909090909091" stroke-opacity="0.6590909090909091" />
  <polygon points="261.9542885949818,23.843097315856355 250.81879737382133,25.444139246430815 243.8645087788395,16.601041930574464 248.04571140501818,6.156902684143638 259.1812026261787,4.555860753569183 266.13549122116046,13.398958069425541" fill="#4ecdc4" fill-opacity="0.6818181818181819" stroke-opacity="0.6818181818181819" />
  <polygon points="291.525640232676,24.16397946056627 280.32658110372876,25.23335994773833 273.80094087105283,16.06938048717206 278.474359767324,5.836020539433733 289.67341889627124,4.766640052261669 296.19905912894717,13.930619512827942" fill="#ff6b6b" fill-opacity="0.7045454545454546" stroke-opacity="0.7045454545454546" />
  <polygon points="321.08220919637546,24.464102244350784 309.84495163056664,24.99939879736789 303.7627424341912,15.53529655301711 308.91779080362454,5.53589775564922 320.15504836943336,5.000601202632112 326.2372575658088,14.464703446982895" fill="#4ecdc4" fill-opacity="0.7272727272727273" stroke-opacity="0.7272727272727273" />
  <polygon points="350.625,24.742785792574928 339.375,24.742785792574935 333.75,15.00000000000001 339.375,5.257214207425076 350.625,5.257214207425065 356.25,14.999999999999995" fill="#4ecdc4" fill-opacity="0.75" stroke-opacity="0.75" />
  <polygon points="24.46410224435079,51.08220919637547 14.464703446982899,56.23725756580884 5.000601202632112,50.155048369433366 5.535897755649209,38.91779080362453 15.5352965530171,33.76274243419116 24.99939879736789,39.844951630566634" fill="#4ecdc4" fill-opacity="0.5227272727272727" stroke-opacity="0.5227272727272727" />
  <polygon points="54.16397946056628,51.52564023267598 43.930619512827946,56.1990591289472 34.766640052261664,49.67341889627122 35.83602053943372,38.47435976732402 46.069380487172054,33.8009408710528 55.233359947738336,40.32658110372878" fill="#4ecdc4" fill-opacity="0.5454545454545454" stroke-opacity="0.5454545454545454" />
  <polygon points="83.84309731585635,51.95428859498181 73.39895806942555,56.13549122116049 64.55586075356918,49.18120262617868 66.15690268414365,38.04571140501819 76.60104193057445,33.86450877883951 85.44413924643082,40.81879737382132" fill="#ff6b6b" fill-opacity="0.5681818181818181" stroke-opacity="0.5681818181818181" />
  <polygon points="113.5021827114854,52.36718325688446 102.87092350094538,56.046697844205454 94.36874078945998,48.679514587320995 96.4978172885146,37.63281674311554 107.12907649905462,33.953302155794546 115.63125921054002,41.320485412679005" fill="#4ecdc4" fill-opacity="0.5909090909090909" stroke-opacity="0.5909090909090909" />
  <polygon points="143.14200792868203,52.76338887917376 132.34771197551893,55.93288014363984 124.2057040468369,48.16949126446608 126.85799207131797,37.23661112082624 137.65228802448107,34.06711985636016 145.79429595316307,41.83050873553391" fill="#4ecdc4" fill-opacity="0.6136363636363636" stroke-opacity="0.6136363636363636" />
  <polygon points="172.76338887917376,53.142007928682034 161.83050873553393,55.79429595316309 154.06711985636016,47.65228802448106 157.23661112082624,36.85799207131796 168.16949126446607,34.20570404683691 175.93288014363984,42.34771197551894" fill="#ff6b6b" fill-opacity="0.6363636363636364" stroke-opacity="0.6363636363636364" />
  <polygon points="202.36718325688443,53.5021827114854 191.320485412679,55.63125921054002 183.95330215579457,47.12907649905462 187.63281674311554,36.49781728851459 198.679514587321,34.36874078945998 206.04669784420543,42.87092350094538" fill="#4ecdc4" fill-opacity="0.6590909090909091" stroke-opacity="0.6590909090909091" />
  <polygon points="231.9542885949818,53.843097315856355 220.81879737382133,55.444139246430815 213.8645087788395,46.60104193057446 218.04571140501818,36.15690268414363 229.18120262617867,34.555860753569185 236.1354912211605,43.39895806942554" fill="#4ecdc4" fill-opacity="0.6818181818181819" stroke-opacity="0.6818181818181819" />
  <polygon points="261.525640232676,54.16397946056627 250.32658110372878,55.23335994773833 243.8009408710528,46.06938048717206 248.47435976732402,35.83602053943372 259.67341889627124,34.76664005226167 266.19905912894717,43.93061951282794" fill="#ff6b6b" fill-opacity="0.7045454545454546" stroke-opacity="0.7045454545454546" />
  <polygon points="291.08220919637546,54.464102244350784 279.84495163056664,54.99939879736789 273.7627424341912,45.535296553017105 278.91779080362454,35.535897755649216 290.15504836943336,35.00060120263211 296.2372575658088,44.464703446982895" fill="#4ecdc4" fill-opacity="0.7272727272727273" stroke-opacity="0.7272727272727273" />
  <polygon points="320.625,54.74278579257493 309.375,54.742785792574935 303.75,45.00000000000001 309.375,35.25721420742507 320.625,35.257214207425065 326.25,44.99999999999999" fill="#4ecdc4" fill-opacity="0.75" stroke-opacity="0.75" />
  <polygon points="350.15504836943336,54.99939879736788 338.91779080362454,54.46410224435079 333.7627424341912,44.46470344698291 339.84495163056664,35.00060120263212 351.08220919637546,35.53589775564921 356.2372575658088,45.53529655301709" fill="#ff6b6b" fill-opacity="0.7727272727272727" stroke-opacity="0.7727272727272727" />
  <polygon points="24.163979460566278,81.52564023267598 13.930619512827946,86.1990591289472 4.766640052261669,79.67341889627122 5.83602053943372,68.47435976732402 16.069380487172054,63.8009408710528 25.233359947738332,70.32658110372878" fill="#4ecdc4" fill-opacity="0.5454545454545454" stroke-opacity="0.5454545454545454" />
  <polygon points="53.84309731585636,81.9542885949818 43.39895806942554,86.13549122116049 34.555860753569185,79.18120262617869 36.15690268414364,68.0457114050182 46.60104193057446,63.86450877883951 55.444139246430815,70.81879737382131" fill="#ff6b6b" fill-opacity="0.5681818181818181" stroke-opacity="0.5681818181818181" />
  <polygon points="83.5021827114854,82.36718325688446 72.87092350094538,86.04669784420545 64.36874078945998,78.679514587321 66.4978172885146,67.63281674311554 77.12907649905462,63.953302155794546 85.63125921054002,71.320485412679" fill="#4ecdc4" fill-opacity="0.5909090909090909" stroke-opacity="0.5909090909090909" />
  <polygon points="113.14200792868203,82.76338887917376 102.34771197551895,85.93288014363985 94.2057040468369,78.16949126446609 96.85799207131797,67.23661112082624 107.65228802448105,64.06711985636015 115.7942959531631,71.83050873553391" fill="#4ecdc4" fill-opacity="0.6136363636363636" stroke-opacity="0.6136363636363636" />
  <polygon points="142.76338887917376,83.14200792868203 131.83050873553393,85.7942959531631 124.06711985636015,77.65228802448105 127.23661112082624,66.85799207131797 138.16949126446607,64.2057040468369 145.93288014363984,72.34771197551893" fill="#ff6b6b" fill-opacity="0.6363636363636364" stroke-opacity="0.6363636363636364" />
  <polygon points="172.36718325688443,83.5021827114854 161.320485412679,85.63125921054002 153.95330215579457,77.12907649905462 157.63281674311554,66.4978172885146 168.679514587321,64.36874078945998 176.04669784420543,72.87092350094538" fill="#4ecdc4" fill-opacity="0.6590909090909091" stroke-opacity="0.6590909090909091" />
  <polygon points="201.9542885949818,83.84309731585635 190.81879737382133,85.44413924643082 183.8645087788395,76.60104193057447 188.04571140501818,66.15690268414363 199.18120262617867,64.55586075356918 206.1354912211605,73.39895806942553" fill="#4ecdc4" fill-opacity="0.6818181818181819" stroke-opacity="0.6818181818181819" />
  <polygon points="231.52564023267595,84.16397946056627 220.32658110372878,85.23335994773834 213.8009408710528,76.06938048717205 218.47435976732402,65.83602053943372 229.67341889627122,64.76664005226166 236.1990591289472,73.93061951282795" fill="#ff6b6b" fill-opacity="0.7045454545454546" stroke-opacity="0.7045454545454546" />
  <polygon points="261.08220919637546,84.46410224435078 249.84495163056664,84.99939879736789 243.76274243419118,75.5352965530171 248.9177908036245,65.5358977556492 260.15504836943336,65.00060120263211 266.2372575658088,74.4647034469829" fill="#4ecdc4" fill-opacity="0.7272727272727273" stroke-opacity="0.7272727272727273" />
  <polygon points="290.625,84.74278579257492 279.375,84.74278579257494 273.75,75.00000000000001 279.375,65.25721420742508 290.625,65.25721420742506 296.25,74.99999999999999" fill="#4ecdc4" fill-opacity="0.75" stroke-opacity="0.75" />
  <polygon points="320.15504836943336,84.99939879736789 308.91779080362454,84.46410224435078 303.7627424341912,74.46470344698291 309.84495163056664,65.00060120263211 321.08220919637546,65.53589775564922 326.2372575658088,75.53529655301709" fill="#ff6b6b" fill-opacity="0.7727272727272727" stroke-opacity="0.7727272727272727" />
  <polygon points="349.6734188962712,85.23335994773832 338.474359767324,84.16397946056628 333.80094087105283,73.93061951282795 340.3265811037288,64.76664005226168 351.525640232676,65.83602053943372 356.19905912894717,76.06938048717205" fill="#4ecdc4" fill-opacity="0.7954545454545454" stroke-opacity="0.7954545454545454" />
  <polygon points="23.84309731585636,111.9542885949818 13.398958069425543,116.13549122116049 4.555860753569185,109.18120262617869 6.156902684143638,98.0457114050182 16.601041930574457,93.86450877883951 25.444139246430815,100.81879737382131" fill="#ff6b6b" fill-opacity="0.5681818181818181" stroke-opacity="0.5681818181818181" />
  <polygon points="53.5021827114854,112.36718325688446 42.87092350094539,116.04669784420545 34.36874078945998,108.679514587321 36.4978172885146,97.63281674311554 47.12907649905461,93.95330215579455 55.63125921054002,101.320485412679" fill="#4ecdc4" fill-opacity="0.5909090909090909" stroke-opacity="0.5909090909090909" />
  <polygon points="83.14200792868203,112.76338887917376 72.34771197551895,115.93288014363985 64.2057040468369,108.16949126446609 66.85799207131797,97.23661112082624 77.65228802448105,94.06711985636015 85.7942959531631,101.83050873553391" fill="#4ecdc4" fill-opacity="0.6136363636363636" stroke-opacity="0.6136363636363636" />
  <polygon points="112.76338887917376,113.14200792868203 101.83050873553391,115.7942959531631 94.06711985636015,107.65228802448105 97.23661112082624,96.85799207131797 108.16949126446609,94.2057040468369 115.93288014363985,102.34771197551895" fill="#ff6b6b" fill-opacity="0.6363636363636364" stroke-opacity="0.6363636363636364" />
  <polygon points="142.36718325688443,113.5021827114854 131.320485412679,115.63125921054002 123.95330215579455,107.12907649905462 127.63281674311554,96.4978172885146 138.679514587321,94.36874078945998 146.04669784420543,102.87092350094538" fill="#4ecdc4" fill-opacity="0.6590909090909091" stroke-opacity="0.6590909090909091" />
  <polygon points="171.9542885949818,113.84309731585635 160.81879737382133,115.44413924643082 153.8645087788395,106.60104193057447 158.04571140501818,96.15690268414363 169.18120262617867,94.55586075356918 176.1354912211605,103.39895806942553" fill="#4ecdc4" fill-opacity="0.6818181818181819" stroke-opacity="0.6818181818181819" />
  <polygon points="201.52564023267595,114.16397946056627 190.32658110372878,115.23335994773834 183.8009408710528,106.06938048717205 188.47435976732402,95.83602053943372 199.67341889627122,94.76664005226166 206.1990591289472,103.93061951282795" fill="#ff6b6b" fill-opacity="0.7045454545454546" stroke-opacity="0.7045454545454546" />
  <polygon points="231.08220919637546,114.46410224435078 219.84495163056664,114.99939879736789 213.76274243419118,105.5352965530171 218.9177908036245,95.5358977556492 230.15504836943336,95.00060120263211 236.23725756580882,104.4647034469829" fill="#4ecdc4" fill-opacity="0.7272727272727273" stroke-opacity="0.7272727272727273" />
  <polygon points="260.625,114.74278579257492 249.375,114.74278579257494 243.75,105.00000000000001 249.375,95.25721420742505 260.625,95.25721420742506 266.25,104.99999999999999" fill="#4ecdc4" fill-opacity="0.75" stroke-opacity="0.75" />
  <polygon points="290.15504836943336,114.99939879736789 278.91779080362454,114.46410224435078 273.7627424341912,104.46470344698291 279.84495163056664,95.00060120263211 291.08220919637546,95.53589775564922 296.2372575658088,105.53529655301709" fill="#ff6b6b" fill-opacity="0.7727272727272727" stroke-opacity="0.7727272727272727" />
  <polygon points="319.6734188962712,115.23335994773832 308.474359767324,114.16397946056628 303.80094087105283,103.93061951282795 310.3265811037288,94.76664005226168 321.525640232676,95.83602053943372 326.19905912894717,106.06938048717205" fill="#4ecdc4" fill-opacity="0.7954545454545454" stroke-opacity="0.7954545454545454" />
  <polygon points="349.1812026261787,115.44413924643081 338.0457114050182,113.84309731585635 333.86450877883954,103.39895806942555 340.8187973738213,94.55586075356919 351.9542885949818,96.15690268414365 356.13549122116046,106.60104193057445" fill="#4ecdc4" fill-opacity="0.8181818181818181" stroke-opacity="0.8181818181818181" />
  <polygon points="23.502182711485403,142.36718325688446 12.870923500945384,146.04669784420545 4.368740789459981,138.679514587321 6.497817288514593,127.63281674311554 17.129076499054612,123.95330215579455 25.631259210540023,131.320485412679" fill="#4ecdc4" fill-opacity="0.5909090909090909" stroke-opacity="0.5909090909090909" />
  <polygon points="53.14200792868204,142.76338887917376 42.34771197551894,145.93288014363984 34.20570404683691,138.16949126446607 36.85799207131796,127.23661112082624 47.65228802448106,124.06711985636015 55.79429595316309,131.83050873553393" fill="#4ecdc4" fill-opacity="0.6136363636363636" stroke-opacity="0.6136363636363636" />
  <polygon points="82.76338887917376,143.14200792868203 71.83050873553391,145.7942959531631 64.06711985636015,137.65228802448107 67.23661112082624,126.85799207131797 78.16949126446609,124.2057040468369 85.93288014363985,132.34771197551893" fill="#ff6b6b" fill-opacity="0.6363636363636364" stroke-opacity="0.6363636363636364" />
  <polygon points="112.36718325688446,143.5021827114854 101.320485412679,145.63125921054 93.95330215579455,137.1290764990546 97.63281674311554,126.4978172885146 108.679514587321,124.36874078945998 116.04669784420545,132.8709235009454" fill="#4ecdc4" fill-opacity="0.6590909090909091" stroke-opacity="0.6590909090909091" />
  <polygon points="141.9542885949818,143.84309731585637 130.81879737382133,145.4441392464308 123.86450877883951,136.60104193057447 128.04571140501818,126.15690268414365 139.18120262617867,124.55586075356918 146.1354912211605,133.39895806942553" fill="#4ecdc4" fill-opacity="0.6818181818181819" stroke-opacity="0.6818181818181819" />
  <polygon points="171.52564023267595,144.16397946056628 160.32658110372878,145.23335994773834 153.8009408710528,136.06938048717205 158.47435976732402,125.83602053943372 169.67341889627122,124.76664005226166 176.1990591289472,133.93061951282795" fill="#ff6b6b" fill-opacity="0.7045454545454546" stroke-opacity="0.7045454545454546" />
  <polygon points="201.08220919637546,144.46410224435078 189.84495163056664,144.9993987973679 183.76274243419118,135.5352965530171 188.9177908036245,125.5358977556492 200.15504836943336,125.00060120263211 206.23725756580882,134.4647034469829" fill="#4ecdc4" fill-opacity="0.7272727272727273" stroke-opacity="0.7272727272727273" />
  <polygon points="230.625,144.74278579257492 219.375,144.74278579257492 213.75,135.0 219.375,125.25721420742505 230.625,125.25721420742506 236.25,135.0" fill="#4ecdc4" fill-opacity="0.75" stroke-opacity="0.75" />
  <polygon points="260.15504836943336,144.9993987973679 248.91779080362454,144.46410224435078 243.76274243419118,134.4647034469829 249.8449516305666,125.0006012026321 261.08220919637546,125.53589775564922 266.2372575658088,135.5352965530171" fill="#ff6b6b" fill-opacity="0.7727272727272727" stroke-opacity="0.7727272727272727" />
  <polygon points="289.6734188962712,145.23335994773834 278.474359767324,144.16397946056628 273.80094087105283,133.93061951282795 280.3265811037288,124.76664005226168 291.525640232676,125.83602053943372 296.19905912894717,136.06938048717205" fill="#4ecdc4" fill-opacity="0.7954545454545454" stroke-opacity="0.7954545454545454" />
  <polygon points="319.1812026261787,145.4441392464308 308.0457114050182,143.84309731585637 303.86450877883954,133.39895806942556 310.8187973738213,124.55586075356919 321.9542885949818,126.15690268414365 326.13549122116046,136.60104193057444" fill="#4ecdc4" fill-opacity="0.8181818181818181" stroke-opacity="0.8181818181818181" />
  <polygon points="348.67951458732097,145.63125921054 337.63281674311554,143.5021827114854 333.9533021557946,132.8709235009454 341.32048541267903,124.36874078945999 352.36718325688446,126.4978172885146 356.0466978442054,137.1290764990546" fill="#ff6b6b" fill-opacity="0.8409090909090909" stroke-opacity="0.8409090909090909" />
  <polygon points="23.14200792868204,172.76338887917376 12.347711975518944,175.93288014363984 4.205704046836907,168.16949126446607 6.857992071317959,157.23661112082624 17.652288024481056,154.06711985636016 25.794295953163093,161.83050873553393" fill="#4ecdc4" fill-opacity="0.6136363636363636" stroke-opacity="0.6136363636363636" />
  <polygon points="52.76338887917376,173.14200792868203 41.83050873553392,175.7942959531631 34.06711985636016,167.65228802448107 37.23661112082624,156.85799207131797 48.16949126446608,154.2057040468369 55.93288014363984,162.34771197551893" fill="#ff6b6b" fill-opacity="0.6363636363636364" stroke-opacity="0.6363636363636364" />
  <polygon points="82.36718325688446,173.5021827114854 71.320485412679,175.63125921054 63.953302155794546,167.1290764990546 67.63281674311554,156.4978172885146 78.679514587321,154.36874078946 86.04669784420545,162.8709235009454" fill="#4ecdc4" fill-opacity="0.6590909090909091" stroke-opacity="0.6590909090909091" />
  <polygon points="111.9542885949818,173.84309731585637 100.81879737382131,175.4441392464308 93.86450877883951,166.60104193057447 98.0457114050182,156.15690268414363 109.18120262617869,154.5558607535692 116.13549122116049,163.39895806942553" fill="#4ecdc4" fill-opacity="0.6818181818181819" stroke-opacity="0.6818181818181819" />
  <polygon points="141.52564023267595,174.16397946056628 130.32658110372878,175.23335994773834 123.8009408710528,166.06938048717205 128.47435976732402,155.83602053943372 139.67341889627122,154.76664005226166 146.1990591289472,163.93061951282795" fill="#ff6b6b" fill-opacity="0.7045454545454546" stroke-opacity="0.7045454545454546" />
  <polygon points="171.08220919637546,174.46410224435078 159.84495163056664,174.9993987973679 153.76274243419118,165.5352965530171 158.9177908036245,155.53589775564922 170.15504836943336,155.0006012026321 176.23725756580882,164.4647034469829" fill="#4ecdc4" fill-opacity="0.7272727272727273" stroke-opacity="0.7272727272727273" />
  <polygon points="200.625,174.74278579257492 189.375,174.74278579257492 183.75,165.0 189.375,155.25721420742505 200.625,155.25721420742508 206.25,165.0" fill="#4ecdc4" fill-opacity="0.75" stroke-opacity="0.75" />
  <polygon points="230.15504836943336,174.9993987973679 218.91779080362454,174.46410224435078 213.76274243419118,164.4647034469829 219.8449516305666,155.0006012026321 231.08220919637546,155.53589775564922 236.23725756580882,165.5352965530171" fill="#ff6b6b" fill-opacity="0.7727272727272727" stroke-opacity="0.7727272727272727" />
  <polygon points="259.6734188962712,175.23335994773834 248.47435976732402,174.16397946056628 243.8009408710528,163.93061951282795 250.32658110372876,154.76664005226166 261.525640232676,155.83602053943372 266.19905912894717,166.06938048717205" fill="#4ecdc4" fill-opacity="0.7954545454545454" stroke-opacity="0.7954545454545454" />
  <polygon points="289.1812026261787,175.4441392464308 278.0457114050182,173.84309731585637 273.86450877883954,163.39895806942556 280.8187973738213,154.5558607535692 291.9542885949818,156.15690268414363 296.13549122116046,166.60104193057444" fill="#4ecdc4" fill-opacity="0.8181818181818181" stroke-opacity="0.8181818181818181" />
  <polygon points="318.67951458732097,175.63125921054 307.63281674311554,173.5021827114854 303.9533021557946,162.8709235009454 311.32048541267903,154.36874078946 322.36718325688446,156.4978172885146 326.0466978442054,167.1290764990546" fill="#ff6b6b" fill-opacity="0.8409090909090908" stroke-opacity="0.8409090909090908" />
  <polygon points="348.16949126446605,175.7942959531631 337.23661112082624,173.14200792868203 334.0671198563602,162.34771197551896 341.83050873553395,154.2057040468369 352.76338887917376,156.85799207131797 355.9328801436398,167.65228802448104" fill="#4ecdc4" fill-opacity="0.8636363636363636" stroke-opacity="0.8636363636363636" />
  <polygon points="22.76338887917376,203.14200792868203 11.830508735533916,205.7942959531631 4.067119856360158,197.65228802448107 7.236611120826239,186.85799207131797 18.16949126446608,184.2057040468369 25.932880143639842,192.34771197551893" fill="#ff6b6b" fill-opacity="0.6363636363636364" stroke-opacity="0.6363636363636364" />
  <polygon points="52.36718325688446,203.5021827114854 41.320485412679005,205.63125921054 33.953302155794546,197.1290764990546 37.63281674311554,186.4978172885146 48.679514587320995,184.36874078946 56.046697844205454,192.8709235009454" fill="#4ecdc4" fill-opacity="0.6590909090909091" stroke-opacity="0.6590909090909091" />
  <polygon points="81.9542885949818,203.84309731585637 70.81879737382131,205.4441392464308 63.86450877883951,196.60104193057447 68.0457114050182,186.15690268414363 79.18120262617869,184.5558607535692 86.13549122116049,193.39895806942553" fill="#4ecdc4" fill-opacity="0.6818181818181819" stroke-opacity="0.6818181818181819" />
  <polygon points="111.52564023267598,204.16397946056628 100.32658110372878,205.23335994773834 93.8009408710528,196.06938048717205 98.47435976732402,185.83602053943372 109.67341889627122,184.76664005226166 116.1990591289472,193.93061951282795" fill="#ff6b6b" fill-opacity="0.7045454545454546" stroke-opacity="0.7045454545454546" />
  <polygon points="141.08220919637546,204.46410224435078 129.84495163056664,204.9993987973679 123.76274243419115,195.5352965530171 128.91779080362454,185.53589775564922 140.15504836943336,185.0006012026321 146.23725756580882,194.4647034469829" fill="#4ecdc4" fill-opacity="0.7272727272727273" stroke-opacity="0.7272727272727273" />
  <polygon points="170.625,204.74278579257492 159.375,204.74278579257492 153.75,195.0 159.375,185.25721420742505 170.625,185.25721420742508 176.25,195.0" fill="#4ecdc4" fill-opacity="0.75" stroke-opacity="0.75" />
  <polygon points="200.15504836943336,204.9993987973679 188.91779080362454,204.46410224435078 183.76274243419118,194.4647034469829 189.8449516305666,185.0006012026321 201.08220919637546,185.53589775564922 206.23725756580882,195.5352965530171" fill="#ff6b6b" fill-opacity="0.7727272727272727" stroke-opacity="0.7727272727272727" />
  <polygon points="229.67341889627122,205.23335994773834 218.47435976732402,204.16397946056628 213.8009408710528,193.93061951282795 220.32658110372876,184.76664005226166 231.52564023267598,185.83602053943372 236.1990591289472,196.06938048717205" fill="#4ecdc4" fill-opacity="0.7954545454545454" stroke-opacity="0.7954545454545454" />
  <polygon points="259.1812026261787,205.4441392464308 248.04571140501818,203.84309731585637 243.8645087788395,193.39895806942556 250.8187973738213,184.55586075356916 261.9542885949818,186.15690268414363 266.13549122116046,196.60104193057444" fill="#4ecdc4" fill-opacity="0.8181818181818181" stroke-opacity="0.8181818181818181" />
  <polygon points="288.67951458732097,205.63125921054 277.63281674311554,203.5021827114854 273.9533021557946,192.8709235009454 281.32048541267903,184.36874078946 292.36718325688446,186.4978172885146 296.0466978442054,197.1290764990546" fill="#ff6b6b" fill-opacity="0.8409090909090909" stroke-opacity="0.8409090909090909" />
  <polygon points="318.16949126446605,205.7942959531631 307.23661112082624,203.14200792868203 304.0671198563602,192.34771197551896 311.83050873553395,184.2057040468369 322.76338887917376,186.85799207131797 325.9328801436398,197.65228802448104" fill="#4ecdc4" fill-opacity="0.8636363636363636" stroke-opacity="0.8636363636363636" />
  <polygon points="347.65228802448104,205.93288014363984 336.85799207131794,202.76338887917376 334.2057040468369,191.83050873553393 342.34771197551896,184.06711985636016 353.14200792868206,187.23661112082624 355.7942959531631,198.16949126446607" fill="#4ecdc4" fill-opacity="0.8863636363636364" stroke-opacity="0.8863636363636364" />
  <polygon points="22.367183256884456,233.5021827114854 11.320485412679007,235.63125921054 3.953302155794553,227.1290764990546 7.632816743115542,216.4978172885146 18.67951458732099,214.36874078946 26.04669784420545,222.8709235009454" fill="#4ecdc4" fill-opacity="0.6590909090909091" stroke-opacity="0.6590909090909091" />
  <polygon points="51.954288594981804,233.84309731585637 40.81879737382131,235.4441392464308 33.86450877883951,226.60104193057447 38.045711405018196,216.15690268414363 49.18120262617869,214.5558607535692 56.13549122116049,223.39895806942553" fill="#4ecdc4" fill-opacity="0.6818181818181819" stroke-opacity="0.6818181818181819" />
  <polygon points="81.52564023267598,234.16397946056628 70.32658110372878,235.23335994773834 63.800940871052795,226.06938048717205 68.47435976732402,215.83602053943372 79.67341889627122,214.76664005226166 86.1990591289472,223.93061951282795" fill="#ff6b6b" fill-opacity="0.7045454545454546" stroke-opacity="0.7045454545454546" />
  <polygon points="111.08220919637547,234.46410224435078 99.84495163056663,234.9993987973679 93.76274243419115,225.5352965530171 98.91779080362453,215.53589775564922 110.15504836943337,215.0006012026321 116.23725756580885,224.4647034469829" fill="#4ecdc4" fill-opacity="0.7272727272727273" stroke-opacity="0.7272727272727273" />
  <polygon points="140.625,234.74278579257492 129.375,234.74278579257492 123.75,225.0 129.375,215.25721420742508 140.625,215.25721420742508 146.25,225.0" fill="#4ecdc4" fill-opacity="0.75" stroke-opacity="0.75" />
  <polygon points="170.15504836943336,234.9993987973679 158.91779080362454,234.46410224435078 153.76274243419118,224.4647034469829 159.8449516305666,215.0006012026321 171.08220919637546,215.53589775564922 176.23725756580882,225.5352965530171" fill="#ff6b6b" fill-opacity="0.7727272727272727" stroke-opacity="0.7727272727272727" />
  <polygon points="199.67341889627122,235.23335994773834 188.47435976732402,234.16397946056628 183.8009408710528,223.93061951282795 190.32658110372876,214.76664005226166 201.52564023267598,215.83602053943372 206.1990591289472,226.06938048717205" fill="#4ecdc4" fill-opacity="0.7954545454545454" stroke-opacity="0.7954545454545454" />
  <polygon points="229.18120262617867,235.4441392464308 218.04571140501818,233.84309731585637 213.8645087788395,223.39895806942556 220.8187973738213,214.55586075356916 231.95428859498182,216.15690268414363 236.1354912211605,226.60104193057444" fill="#4ecdc4" fill-opacity="0.8181818181818181" stroke-opacity="0.8181818181818181" />
  <polygon points="258.67951458732097,235.63125921054 247.63281674311554,233.5021827114854 243.95330215579457,222.8709235009454 251.320485412679,214.36874078945996 262.36718325688446,216.4978172885146 266.0466978442054,227.1290764990546" fill="#ff6b6b" fill-opacity="0.8409090909090909" stroke-opacity="0.8409090909090909" />
  <polygon points="288.16949126446605,235.7942959531631 277.23661112082624,233.14200792868203 274.0671198563602,222.34771197551896 281.83050873553395,214.2057040468369 292.76338887917376,216.85799207131797 295.9328801436398,227.65228802448104" fill="#4ecdc4" fill-opacity="0.8636363636363636" stroke-opacity="0.8636363636363636" />
  <polygon points="317.65228802448104,235.93288014363984 306.85799207131794,232.76338887917376 304.2057040468369,221.83050873553393 312.34771197551896,214.06711985636016 323.14200792868206,217.23661112082624 325.7942959531631,228.16949126446607" fill="#4ecdc4" fill-opacity="0.8863636363636364" stroke-opacity="0.8863636363636364" />
  <polygon points="347.12907649905463,236.04669784420543 336.4978172885146,232.36718325688446 334.36874078946,221.320485412679 342.87092350094537,213.95330215579457 353.5021827114854,217.63281674311554 355.63125921054,228.679514587321" fill="#ff6b6b" fill-opacity="0.9090909090909091" stroke-opacity="0.9090909090909091" />
  <polygon points="21.954288594981808,263.84309731585637 10.818797373821315,265.44413924643084 3.864508778839509,256.60104193057447 8.04571140501819,246.15690268414363 19.18120262617868,244.5558607535692 26.135491221160493,253.39895806942553" fill="#4ecdc4" fill-opacity="0.6818181818181819" stroke-opacity="0.6818181818181819" />
  <polygon points="51.52564023267598,264.1639794605663 40.32658110372878,265.23335994773834 33.8009408710528,256.06938048717205 38.47435976732402,245.83602053943372 49.67341889627122,244.76664005226166 56.1990591289472,253.93061951282795" fill="#ff6b6b" fill-opacity="0.7045454545454546" stroke-opacity="0.7045454545454546" />
  <polygon points="81.08220919637547,264.4641022443508 69.84495163056663,264.9993987973679 63.76274243419116,255.5352965530171 68.91779080362453,245.53589775564922 80.15504836943337,245.0006012026321 86.23725756580885,254.4647034469829" fill="#4ecdc4" fill-opacity="0.7272727272727273" stroke-opacity="0.7272727272727273" />
  <polygon points="110.625,264.7427857925749 99.375,264.7427857925749 93.75,255.0 99.375,245.25721420742508 110.625,245.25721420742508 116.25,255.0" fill="#4ecdc4" fill-opacity="0.75" stroke-opacity="0.75" />
  <polygon points="140.15504836943336,264.99939879736786 128.91779080362454,264.4641022443508 123.76274243419115,254.4647034469829 129.84495163056664,245.0006012026321 141.08220919637546,245.53589775564922 146.23725756580882,255.5352965530171" fill="#ff6b6b" fill-opacity="0.7727272727272727" stroke-opacity="0.7727272727272727" />
  <polygon points="169.67341889627122,265.23335994773834 158.47435976732402,264.1639794605663 153.8009408710528,253.93061951282795 160.32658110372876,244.76664005226166 171.52564023267598,245.83602053943372 176.1990591289472,256.06938048717205" fill="#4ecdc4" fill-opacity="0.7954545454545454" stroke-opacity="0.7954545454545454" />
  <polygon points="199.18120262617867,265.44413924643084 188.04571140501818,263.84309731585637 183.8645087788395,253.39895806942556 190.8187973738213,244.55586075356916 201.95428859498182,246.15690268414363 206.1354912211605,256.60104193057447" fill="#4ecdc4" fill-opacity="0.8181818181818181" stroke-opacity="0.8181818181818181" />
  <polygon points="228.679514587321,265.63125921054 217.63281674311554,263.50218271148543 213.95330215579457,252.8709235009454 221.320485412679,244.36874078945996 232.36718325688446,246.4978172885146 236.04669784420543,257.12907649905463" fill="#ff6b6b" fill-opacity="0.8409090909090909" stroke-opacity="0.8409090909090909" />
  <polygon points="258.16949126446605,265.7942959531631 247.23661112082624,263.14200792868206 244.06711985636016,252.34771197551896 251.8305087355339,244.2057040468369 262.76338887917376,246.85799207131797 265.9328801436398,257.65228802448104" fill="#4ecdc4" fill-opacity="0.8636363636363636" stroke-opacity="0.8636363636363636" />
  <polygon points="287.65228802448104,265.9328801436398 276.85799207131794,262.76338887917376 274.2057040468369,251.83050873553393 282.34771197551896,244.06711985636016 293.14200792868206,247.23661112082624 295.7942959531631,258.16949126446605" fill="#4ecdc4" fill-opacity="0.8863636363636364" stroke-opacity="0.8863636363636364" />
  <polygon points="317.12907649905463,266.0466978442054 306.4978172885146,262.36718325688446 304.36874078946,251.320485412679 312.87092350094537,243.95330215579457 323.5021827114854,247.63281674311554 325.63125921054,258.67951458732097" fill="#ff6b6b" fill-opacity="0.9090909090909091" stroke-opacity="0.9090909090909091" />
  <polygon points="346.60104193057447,266.13549122116046 336.15690268414363,261.9542885949818 334.55586075356916,250.81879737382133 343.39895806942553,243.8645087788395 353.84309731585637,248.04571140501818 355.44413924643084,259.1812026261787" fill="#4ecdc4" fill-opacity="0.9318181818181819" stroke-opacity="0.9318181818181819" />
  <polygon points="21.52564023267598,294.1639794605663 10.326581103728778,295.23335994773834 3.8009408710528003,286.06938048717205 8.47435976732402,275.8360205394337 19.673418896271222,274.76664005226166 26.1990591289472,283.93061951282795" fill="#ff6b6b" fill-opacity="0.7045454545454546" stroke-opacity="0.7045454545454546" />
  <polygon points="51.08220919637547,294.4641022443508 39.844951630566634,294.9993987973679 33.76274243419116,285.5352965530171 38.91779080362453,275.5358977556492 50.155048369433366,275.0006012026321 56.23725756580884,284.4647034469829" fill="#4ecdc4" fill-opacity="0.7272727272727273" stroke-opacity="0.7272727272727273" />
  <polygon points="80.625,294.7427857925749 69.375,294.7427857925749 63.75,285.0 69.375,275.2572142074251 80.625,275.2572142074251 86.25,285.0" fill="#4ecdc4" fill-opacity="0.75" stroke-opacity="0.75" />
  <polygon points="110.15504836943337,294.9993987973679 98.91779080362453,294.4641022443508 93.76274243419115,284.4647034469829 99.84495163056663,275.0006012026321 111.08220919637547,275.5358977556492 116.23725756580885,285.5352965530171" fill="#ff6b6b" fill-opacity="0.7727272727272727" stroke-opacity="0.7727272727272727" />
  <polygon points="139.67341889627122,295.23335994773834 128.47435976732402,294.1639794605663 123.8009408710528,283.93061951282795 130.32658110372878,274.76664005226166 141.52564023267598,275.8360205394337 146.1990591289472,286.06938048717205" fill="#4ecdc4" fill-opacity="0.7954545454545454" stroke-opacity="0.7954545454545454" />
  <polygon points="169.18120262617867,295.44413924643084 158.04571140501818,293.84309731585637 153.8645087788395,283.39895806942553 160.8187973738213,274.55586075356916 171.95428859498182,276.15690268414363 176.1354912211605,286.60104193057447" fill="#4ecdc4" fill-opacity="0.8181818181818181" stroke-opacity="0.8181818181818181" />
  <polygon points="198.679514587321,295.63125921054 187.63281674311554,293.50218271148543 183.95330215579457,282.87092350094537 191.320485412679,274.36874078946 202.36718325688446,276.49781728851457 206.04669784420543,287.12907649905463" fill="#ff6b6b" fill-opacity="0.8409090909090909" stroke-opacity="0.8409090909090909" />
  <polygon points="228.16949126446607,295.7942959531631 217.23661112082624,293.14200792868206 214.06711985636016,282.34771197551896 221.8305087355339,274.2057040468369 232.76338887917376,276.85799207131794 235.93288014363984,287.65228802448104" fill="#4ecdc4" fill-opacity="0.8636363636363636" stroke-opacity="0.8636363636363636" />
  <polygon points="257.65228802448104,295.9328801436398 246.85799207131797,292.76338887917376 244.2057040468369,281.83050873553395 252.34771197551893,274.06711985636014 263.14200792868206,277.23661112082624 265.7942959531631,288.16949126446605" fill="#4ecdc4" fill-opacity="0.8863636363636364" stroke-opacity="0.8863636363636364" />
  <polygon points="287.12907649905463,296.0466978442054 276.49781728851457,292.36718325688446 274.36874078946,281.32048541267903 282.87092350094537,273.9533021557946 293.50218271148543,277.63281674311554 295.63125921054,288.67951458732097" fill="#ff6b6b" fill-opacity="0.9090909090909092" stroke-opacity="0.9090909090909092" />
  <polygon points="316.60104193057447,296.13549122116046 306.15690268414363,291.9542885949818 304.55586075356916,280.8187973738213 313.39895806942553,273.86450877883954 323.84309731585637,278.0457114050182 325.44413924643084,289.1812026261787" fill="#4ecdc4" fill-opacity="0.9318181818181819" stroke-opacity="0.9318181818181819" />
  <polygon points="346.06938048717205,296.19905912894717 335.8360205394337,291.525640232676 334.76664005226166,280.3265811037288 343.93061951282795,273.80094087105283 354.1639794605663,278.474359767324 355.23335994773834,289.6734188962712" fill="#4ecdc4" fill-opacity="0.9545454545454546" stroke-opacity="0.9545454545454546" />
  <polygon points="21.082209196375473,324.4641022443508 9.844951630566634,324.9993987973679 3.7627424341911624,315.5352965530171 8.917790803624525,305.5358977556492 20.155048369433366,305.0006012026321 26.23725756580884,314.4647034469829" fill="#4ecdc4" fill-opacity="0.7272727272727273" stroke-opacity="0.7272727272727273" />
  <polygon points="50.625,324.7427857925749 39.375,324.7427857925749 33.75,315.0 39.375,305.2572142074251 50.625,305.2572142074251 56.25,315.0" fill="#4ecdc4" fill-opacity="0.75" stroke-opacity="0.75" />
  <polygon points="80.15504836943337,324.9993987973679 68.91779080362453,324.4641022443508 63.76274243419116,314.4647034469829 69.84495163056663,305.0006012026321 81.08220919637547,305.5358977556492 86.23725756580885,315.5352965530171" fill="#ff6b6b" fill-opacity="0.7727272727272727" stroke-opacity="0.7727272727272727" />
  <polygon points="109.67341889627123,325.23335994773834 98.47435976732402,324.1639794605663 93.8009408710528,313.93061951282795 100.32658110372877,304.76664005226166 111.52564023267598,305.8360205394337 116.1990591289472,316.06938048717205" fill="#4ecdc4" fill-opacity="0.7954545454545454" stroke-opacity="0.7954545454545454" />
  <polygon points="139.18120262617867,325.44413924643084 128.04571140501818,323.84309731585637 123.86450877883951,313.39895806942553 130.81879737382133,304.55586075356916 141.95428859498182,306.15690268414363 146.1354912211605,316.60104193057447" fill="#4ecdc4" fill-opacity="0.8181818181818181" stroke-opacity="0.8181818181818181" />
  <polygon points="168.679514587321,325.63125921054 157.63281674311554,323.50218271148543 153.95330215579457,312.8709235009454 161.320485412679,304.36874078946 172.36718325688446,306.49781728851457 176.04669784420543,317.1290764990546" fill="#ff6b6b" fill-opacity="0.8409090909090908" stroke-opacity="0.8409090909090908" />
  <polygon points="198.16949126446607,325.7942959531631 187.23661112082624,323.14200792868206 184.06711985636016,312.34771197551896 191.8305087355339,304.2057040468369 202.76338887917376,306.85799207131794 205.93288014363984,317.65228802448104" fill="#4ecdc4" fill-opacity="0.8636363636363636" stroke-opacity="0.8636363636363636" />
  <polygon points="227.65228802448104,325.9328801436398 216.85799207131797,322.76338887917376 214.2057040468369,311.83050873553395 222.34771197551893,304.06711985636014 233.14200792868203,307.23661112082624 235.7942959531631,318.16949126446605" fill="#4ecdc4" fill-opacity="0.8863636363636364" stroke-opacity="0.8863636363636364" />
  <polygon points="257.12907649905463,326.0466978442054 246.4978172885146,322.36718325688446 244.36874078946,311.32048541267903 252.87092350094537,303.9533021557945 263.5021827114854,307.63281674311554 265.63125921054,318.67951458732097" fill="#ff6b6b" fill-opacity="0.9090909090909091" stroke-opacity="0.9090909090909091" />
  <polygon points="286.60104193057447,326.13549122116046 276.15690268414363,321.9542885949818 274.55586075356916,310.8187973738213 283.39895806942553,303.86450877883954 293.84309731585637,308.0457114050182 295.44413924643084,319.1812026261787" fill="#4ecdc4" fill-opacity="0.9318181818181819" stroke-opacity="0.9318181818181819" />
  <polygon points="316.06938048717205,326.19905912894717 305.8360205394337,321.525640232676 304.76664005226166,310.3265811037288 313.93061951282795,303.80094087105283 324.1639794605663,308.474359767324 325.23335994773834,319.6734188962712" fill="#4ecdc4" fill-opacity="0.9545454545454546" stroke-opacity="0.9545454545454546" />
  <polygon points="345.5352965530171,326.2372575658088 335.5358977556492,321.08220919637546 335.00060120263214,309.84495163056664 344.4647034469829,303.7627424341912 354.4641022443508,308.91779080362454 354.99939879736786,320.15504836943336" fill="#ff6b6b" fill-opacity="0.9772727272727273" stroke-opacity="0.9772727272727273" />
  <polygon points="20.625,354.7427857925749 9.375,354.7427857925749 3.75,345.0 9.374999999999998,335.2572142074251 20.624999999999996,335.2572142074251 26.25,345.0" fill="#4ecdc4" fill-opacity="0.75" stroke-opacity="0.75" />
  <polygon points="50.155048369433366,354.9993987973679 38.91779080362453,354.4641022443508 33.76274243419116,344.4647034469829 39.844951630566634,335.0006012026321 51.08220919637547,335.5358977556492 56.23725756580884,345.5352965530171" fill="#ff6b6b" fill-opacity="0.7727272727272727" stroke-opacity="0.7727272727272727" />
  <polygon points="79.67341889627123,355.23335994773834 68.47435976732402,354.1639794605663 63.8009408710528,343.93061951282795 70.32658110372877,334.76664005226166 81.52564023267598,335.8360205394337 86.1990591289472,346.06938048717205" fill="#4ecdc4" fill-opacity="0.7954545454545454" stroke-opacity="0.7954545454545454" />
  <polygon points="109.18120262617869,355.44413924643084 98.0457114050182,353.84309731585637 93.86450877883951,343.39895806942553 100.81879737382131,334.55586075356916 111.9542885949818,336.15690268414363 116.13549122116049,346.60104193057447" fill="#4ecdc4" fill-opacity="0.8181818181818181" stroke-opacity="0.8181818181818181" />
  <polygon points="138.679514587321,355.63125921054 127.63281674311554,353.50218271148543 123.95330215579455,342.87092350094537 131.320485412679,334.36874078946 142.36718325688446,336.49781728851457 146.04669784420543,347.12907649905463" fill="#ff6b6b" fill-opacity="0.8409090909090909" stroke-opacity="0.8409090909090909" />
  <polygon points="168.16949126446607,355.7942959531631 157.23661112082624,353.14200792868206 154.06711985636016,342.34771197551896 161.8305087355339,334.2057040468369 172.76338887917376,336.85799207131794 175.93288014363984,347.65228802448104" fill="#4ecdc4" fill-opacity="0.8636363636363636" stroke-opacity="0.8636363636363636" />
  <polygon points="197.65228802448104,355.9328801436398 186.85799207131797,352.76338887917376 184.2057040468369,341.83050873553395 192.34771197551893,334.06711985636014 203.14200792868203,337.23661112082624 205.7942959531631,348.16949126446605" fill="#4ecdc4" fill-opacity="0.8863636363636364" stroke-opacity="0.8863636363636364" />
  <polygon points="227.1290764990546,356.0466978442054 216.4978172885146,352.36718325688446 214.36874078946,341.32048541267903 222.87092350094537,333.9533021557945 233.5021827114854,337.63281674311554 235.63125921054,348.67951458732097" fill="#ff6b6b" fill-opacity="0.9090909090909091" stroke-opacity="0.9090909090909091" />
  <polygon points="256.60104193057447,356.13549122116046 246.15690268414363,351.9542885949818 244.5558607535692,340.8187973738213 253.39895806942553,333.8645087788395 263.84309731585637,338.0457114050182 265.44413924643084,349.1812026261787" fill="#4ecdc4" fill-opacity="0.9318181818181819" stroke-opacity="0.9318181818181819" />
  <polygon points="286.06938048717205,356.19905912894717 275.8360205394337,351.525640232676 274.76664005226166,340.3265811037288 283.93061951282795,333.80094087105283 294.1639794605663,338.474359767324 295.23335994773834,349.6734188962712" fill="#4ecdc4" fill-opacity="0.9545454545454546" stroke-opacity="0.9545454545454546" />
  <polygon points="315.5352965530171,356.2372575658088 305.5358977556492,351.08220919637546 305.00060120263214,339.84495163056664 314.4647034469829,333.7627424341912 324.4641022443508,338.91779080362454 324.99939879736786,350.15504836943336" fill="#ff6b6b" fill-opacity="0.9772727272727273" stroke-opacity="0.9772727272727273" />
  <polygon points="345.0,356.25 335.2572142074251,350.625 335.2572142074251,339.375 345.0,333.75 354.7427857925749,339.375 354.7427857925749,350.625" fill="#4ecdc4" />
</svg>