<?xml version="1.0" encoding="UTF-8"?>
<svg xmlns="http://www.w3.org/2000/svg" width="360" height="360" viewBox="0 0 360 360">
  <rect width="100%" height="100%" fill="#1a1a2e" />
  <polygon points="24.742785792574935,20.625 15.0,26.25 5.257214207425067,20.625000000000004 5.257214207425063,9.375000000000004 14.999999999999998,3.75 24.742785792574935,9.375000000000004" fill="#ff6b6b" fill-opacity="0.5" stroke-opacity="0.5" />
  <polygon points="54.742785792574935,20.625 45.0,26.25 35.257214207425065,20.625000000000004 35.257214207425065,9.375000000000004 45.0,3.75 54.742785792574935,9.375000000000004" fill="#4ecdc4" fill-opacity="0.5227272727272727" stroke-opacity="0.5227272727272727" transform="rotate(2.7272727272727275 45.0 15.0)" />
  <polygon points="84.74278579257494,20.625 75.0,26.25 65.25721420742506,20.625000000000004 65.25721420742506,9.375000000000004 75.0,3.75 84.74278579257494,9.375000000000004" fill="#4ecdc4" fill-opacity="0.5454545454545454" stroke-opacity="0.5454545454545454" transform="rotate(5.454545454545455 75.0 15.0)" />
  <polygon points="114.74278579257494,20.625 105.0,26.25 95.25721420742506,20.625000000000004 95.25721420742506,9.375000000000004 105.0,3.75 114.74278579257494,9.375000000000004" fill="#ff6b6b" fill-opacity="0.5681818181818181" stroke-opacity="0.5681818181818181" transform="rotate(8.181818181818182 105.0 15.0)" />
  <polygon points="144.74278579257492,20.625 135.0,26.25 125.25721420742506,20.625000000000004 125.25721420742506,9.375000000000004 135.0,3.75 144.74278579257492,9.375000000000004" fill="#4ecdc4" fill-opacity="0.5909090909090909" stroke-opacity="0.5909090909090909" transform="rotate(10.90909090909091 135.0 15.0)" />
  <polygon points="174.74278579257492,20.625 165.0,26.25 155.25721420742508,20.625000000000004 155.25721420742505,9.375000000000004 165.0,3.75 174.74278579257492,9.375000000000004" fill="#4ecdc4" fill-opacity="0.6136363636363636" stroke-opacity="0.6136363636363636" transform="rotate(13.636363636363637 165.0 15.0)" />
  <polygon points="204.74278579257492,20.625 195.0,26.25 185.25721420742508,20.625000000000004 185.25721420742505,9.375000000000004 195.0,3.75 204.74278579257492,9.375000000000004" fill="#ff6b6b" fill-opacity="0.6363636363636364" stroke-opacity="0.6363636363636364" transform="rotate(16.363636363636363 195.0 15.0)" />
  <polygon points="234.74278579257492,20.625 225.0,26.25 215.25721420742508,20.625000000000004 215.25721420742505,9.375000000000004 225.0,3.75 234.74278579257492,9.375000000000004" fill="#4ecdc4" fill-opacity="0.6590909090909091" stroke-opacity="0.6590909090909091" transform="rotate(19.09090909090909 225.0 15.0)" />
  <polygon points="264.7427857925749,20.625 255.0,26.25 245.25721420742508,20.625000000000004 245.25721420742505,9.375000000000004 255.0,3.75 264.7427857925749,9.375000000000004" fill="#4ecdc4" fill-opacity="0.6818181818181819" stroke-opacity="0.6818181818181819" transform="rotate(21.81818181818182 255.0 15.0)" />
  <polygon points="294.7427857925749,20.625 285.0,26.25 275.2572142074251,20.625000000000004 275.2572142074251,9.375000000000004 285.0,3.75 294.7427857925749,9.375000000000004" fill="#ff6b6b" fill-opacity="0.7045454545454546" stroke-opacity="0.7045454545454546" transform="rotate(24.545454545454547 285.0 15.0)" />
  <polygon points="324.7427857925749,20.625 315.0,26.25 305.2572142074251,20.625000000000004 305.2572142074251,9.375000000000004 315.0,3.75 324.7427857925749,9.375000000000004" fill="#4ecdc4" fill-opacity="0.7272727272727273" stroke-opacity="0.7272727272727273" transform="rotate(27.272727272727273 315.0 15.0)" />
  <polygon points="354.7427857925749,20.625 345.0,26.25 335.2572142074251,20.625000000000004 335.2572142074251,9.375000000000004 345.0,3.75 354.7427857925749,9.375000000000004" fill="#4ecdc4" fill-opacity="0.75" stroke-opacity="0.75" transform="rotate(30.0 345.0 15.0)" />
  <polygon points="24.742785792574935,50.625 15.0,56.25 5.257214207425067,50.625 5.257214207425063,39.375 14.999999999999998,33.75 24.742785792574935,39.375" fill="#4ecdc4" fill-opacity="0.5227272727272727" stroke-opacity="0.5227272727272727" transform="rotate(2.7272727272727275 15.0 45.0)" />
  <polygon points="54.742785792574935,50.625 45.0,56.25 35.257214207425065,50.625 35.257214207425065,39.375 45.0,33.75 54.742785792574935,39.375" fill="#4ecdc4" fill-opacity="0.5454545454545454" stroke-opacity="0.5454545454545454" transform="rotate(5.454545454545455 45.0 45.0)" />
  <polygon points="84.74278579257494,50.625 75.0,56.25 65.25721420742506,50.625 65.25721420742506,39.375 75.0,33.75 84.74278579257494,39.375" fill="#ff6b6b" fill-opacity="0.5681818181818181" stroke-opacity="0.5681818181818181" transform="rotate(8.181818181818182 75.0 45.0)" />
  <polygon points="114.74278579257494,50.625 105.0,56.25 95.25721420742506,50.625 95.25721420742506,39.375 105.0,33.75 114.74278579257494,39.375" fill="#4ecdc4" fill-opacity="0.5909090909090909" stroke-opacity="0.5909090909090909" transform="rotate(10.90909090909091 105.0 45.0)" />
  <polygon points="144.74278579257492,50.625 135.0,56.25 125.25721420742506,50.625 125.25721420742506,39.375 135.0,33.75 144.74278579257492,39.375" fill="#4ecdc4" fill-opacity="0.6136363636363636" stroke-opacity="0.6136363636363636" transform="rotate(13.636363636363637 135.0 45.0)" />
  <polygon points="174.74278579257492,50.625 165.0,56.25 155.25721420742508,50.625 155.25721420742505,39.375 165.0,33.75 174.74278579257492,39.375" fill="#ff6b6b" fill-opacity="0.6363636363636364" stroke-opacity="0.6363636363636364" transform="rotate(16.363636363636363 165.0 45.0)" />
  <polygon points="204.74278579257492,50.625 195.0,56.25 185.25721420742508,50.625 185.25721420742505,39.375 195.0,33.75 204.74278579257492,39.375" fill="#4ecdc4" fill-opacity="0.6590909090909091" stroke-opacity="0.6590909090909091" transform="rotate(19.09090909090909 195.0 45.0)" />
  <polygon points="234.74278579257492,50.625 225.0,56.25 215.25721420742508,50.625 215.25721420742505,39.375 225.0,33.75 234.74278579257492,39.375" fill="#4ecdc4" fill-opacity="0.6818181818181819" stroke-opacity="0.6818181818181819" transform="rotate(21.81818181818182 225.0 45.0)" />
  <polygon points="264.7427857925749,50.625 255.0,56.25 245.25721420742508,50.625 245.25721420742505,39.375 255.0,33.75 264.7427857925749,39.375" fill="#ff6b6b" fill-opacity="0.7045454545454546" stroke-opacity="0.7045454545454546" transform="rotate(24.545454545454547 255.0 45.0)" />
  <polygon points="294.7427857925749,50.625 285.0,56.25 275.2572142074251,50.625 275.2572142074251,39.375 285.0,33.75 294.7427857925749,39.375" fill="#4ecdc4" fill-opacity="0.7272727272727273" stroke-opacity="0.7272727272727273" transform="rotate(27.272727272727273 285.0 45.0)" />
  <polygon points="324.7427857925749,50.625 315.0,56.25 305.2572142074251,50.625 305.2572142074251,39.375 315.0,33.75 324.7427857925749,39.375" fill="#4ecdc4" fill-opacity="0.75" stroke-opacity="0.75" transform="rotate(30.0 315.0 45.0)" />
  <polygon points="354.7427857925749,50.625 345.0,56.25 335.2572142074251,50.625 335.2572142074251,39.375 345.0,33.75 354.7427857925749,39.375" fill="#ff6b6b" fill-opacity="0.7727272727272727" stroke-opacity="0.7727272727272727" transform="rotate(32.72727272727273 345.0 45.0)" />
  <polygon points="24.742785792574935,80.625 15.0,86.25 5.257214207425067,80.625 5.257214207425063,69.375 14.999999999999998,63.75 24.742785792574935,69.375" fill="#4ecdc4" fill-opacity="0.5454545454545454" stroke-opacity="0.5454545454545454" transform="rotate(5.454545454545455 15.0 75.0)" />
  <polygon points="54.742785792574935,80.625 45.0,86.25 35.257214207425065,80.625 35.257214207425065,69.375 45.0,63.75 54.742785792574935,69.375" fill="#ff6b6b" fill-opacity="0.5681818181818181" stroke-opacity="0.5681818181818181" transform="rotate(8.181818181818182 45.0 75.0)" />
  <polygon points="84.74278579257494,80.625 75.0,86.25 65.25721420742506,80.625 65.25721420742506,69.375 75.0,63.75 84.74278579257494,69.375" fill="#4ecdc4" fill-opacity="0.5909090909090909" stroke-opacity="0.5909090909090909" transform="rotate(10.90909090909091 75.0 75.0)" />
  <polygon points="114.74278579257494,80.625 105.0,86.25 95.25721420742506,80.625 95.25721420742506,69.375 105.0,63.75 114.74278579257494,69.375" fill="#4ecdc4" fill-opacity="0.6136363636363636" stroke-opacity="0.6136363636363636" transform="rotate(13.636363636363637 105.0 75.0)" />
  <polygon points="144.74278579257492,80.625 135.0,86.25 125.25721420742506,80.625 125.25721420742506,69.375 135.0,63.75 144.74278579257492,69.375" fill="#ff6b6b" fill-opacity="0.6363636363636364" stroke-opacity="0.6363636363636364" transform="rotate(16.363636363636363 135.0 75.0)" />
  <polygon points="174.74278579257492,80.625 165.0,86.25 155.25721420742508,80.625 155.25721420742505,69.375 165.0,63.75 174.74278579257492,69.375" fill="#4ecdc4" fill-opacity="0.6590909090909091" stroke-opacity="0.6590909090909091" transform="rotate(19.09090909090909 165.0 75.0)" />
  <polygon points="204.74278579257492,80.625 195.0,86.25 185.25721420742508,80.625 185.25721420742505,69.375 195.0,63.75 204.74278579257492,69.375" fill="#4ecdc4" fill-opacity="0.6818181818181819" stroke-opacity="0.6818181818181819" transform="rotate(21.81818181818182 195.0 75.0)" />
  <polygon points="234.74278579257492,80.625 225.0,86.25 215.25721420742508,80.625 215.25721420742505,69.375 225.0,63.75 234.74278579257492,69.375" fill="#ff6b6b" fill-opacity="0.7045454545454546" stroke-opacity="0.7045454545454546" transform="rotate(24.545454545454543 225.0 75.0)" />
  <polygon points="264.7427857925749,80.625 255.0,86.25 245.25721420742508,80.625 245.25721420742505,69.375 255.0,63.75 264.7427857925749,69.375" fill="#4ecdc4" fill-opacity="0.7272727272727273" stroke-opacity="0.7272727272727273" transform="rotate(27.272727272727273 255.0 75.0)" />
  <polygon points="294.7427857925749,80.625 285.0,86.25 275.2572142074251,80.625 275.2572142074251,69.375 285.0,63.75 294.7427857925749,69.375" fill="#4ecdc4" fill-opacity="0.75" stroke-opacity="0.75" transform="rotate(30.0 285.0 75.0)" />
  <polygon points="324.7427857925749,80.625 315.0,86.25 305.2572142074251,80.625 305.2572142074251,69.375 315.0,63.75 324.7427857925749,69.375" fill="#ff6b6b" fill-opacity="0.7727272727272727" stroke-opacity="0.7727272727272727" transform="rotate(32.72727272727273 315.0 75.0)" />
  <polygon points="354.7427857925749,80.625 345.0,86.25 335.2572142074251,80.625 335.2572142074251,69.375 345.0,63.75 354.7427857925749,69.375" fill="#4ecdc4" fill-opacity="0.7954545454545454" stroke-opacity="0.7954545454545454" transform="rotate(35.45454545454545 345.0 75.0)" />
  <polygon points="24.742785792574935,110.625 15.0,116.25 5.257214207425067,110.625 5.257214207425063,99.375 14.999999999999998,93.75 24.742785792574935,99.375" fill="#ff6b6b" fill-opacity="0.5681818181818181" stroke-opacity="0.5681818181818181" transform="rotate(8.181818181818182 15.0 105.0)" />
  <polygon points="54.742785792574935,110.625 45.0,116.25 35.257214207425065,110.625 35.257214207425065,99.375 45.0,93.75 54.742785792574935,99.375" fill="#4ecdc4" fill-opacity="0.5909090909090909" stroke-opacity="0.5909090909090909" transform="rotate(10.90909090909091 45.0 105.0)" />
  <polygon points="84.74278579257494,110.625 75.0,116.25 65.25721420742506,110.625 65.25721420742506,99.375 75.0,93.75 84.74278579257494,99.375" fill="#4ecdc4" fill-opacity="0.6136363636363636" stroke-opacity="0.6136363636363636" transform="rotate(13.636363636363637 75.0 105.0)" />
  <polygon points="114.74278579257494,110.625 105.0,116.25 95.25721420742506,110.625 95.25721420742506,99.375 105.0,93.75 114.74278579257494,99.375" fill="#ff6b6b" fill-opacity="0.6363636363636364" stroke-opacity="0.6363636363636364" transform="rotate(16.363636363636363 105.0 105.0)" />
  <polygon points="144.74278579257492,110.625 135.0,116.25 125.25721420742506,110.625 125.25721420742506,99.375 135.0,93.75 144.74278579257492,99.375" fill="#4ecdc4" fill-opacity="0.6590909090909091" stroke-opacity="0.6590909090909091" transform="rotate(19.09090909090909 135.0 105.0)" />
  <polygon points="174.74278579257492,110.625 165.0,116.25 155.25721420742508,110.625 155.25721420742505,99.375 165.0,93.75 174.74278579257492,99.375" fill="#4ecdc4" fill-opacity="0.6818181818181819" stroke-opacity="0.6818181818181819" transform="rotate(21.81818181818182 165.0 105.0)" />
  <polygon points="204.74278579257492,110.625 195.0,116.25 185.25721420742508,110.625 185.25721420742505,99.375 195.0,93.75 204.74278579257492,99.375" fill="#ff6b6b" fill-opacity="0.7045454545454546" stroke-opacity="0.7045454545454546" transform="rotate(24.545454545454543 195.0 105.0)" />
  <polygon points="234.74278579257492,110.625 225.0,116.25 215.25721420742508,110.625 215.25721420742505,99.375 225.0,93.75 234.74278579257492,99.375" fill="#4ecdc4" fill-opacity="0.7272727272727273" stroke-opacity="0.7272727272727273" transform="rotate(27.272727272727273 225.0 105.0)" />
  <polygon points="264.7427857925749,110.625 255.0,116.25 245.25721420742508,110.625 245.25721420742505,99.375 255.0,93.75 264.7427857925749,99.375" fill="#4ecdc4" fill-opacity="0.75" stroke-opacity="0.75" transform="rotate(30.0 255.0 105.0)" />
  <polygon points="294.7427857925749,110.625 285.0,116.25 275.2572142074251,110.625 275.2572142074251,99.375 285.0,93.75 294.7427857925749,99.375" fill="#ff6b6b" fill-opacity="0.7727272727272727" stroke-opacity="0.7727272727272727" transform="rotate(32.72727272727273 285.0 105.0)" />
  <polygon points="324.7427857925749,110.625 315.0,116.25 305.2572142074251,110.625 305.2572142074251,99.375 315.0,93.75 324.7427857925749,99.375" fill="#4ecdc4" fill-opacity="0.7954545454545454" stroke-opacity="0.7954545454545454" transform="rotate(35.45454545454545 315.0 105.0)" />
  <polygon points="354.7427857925749,110.625 345.0,116.25 335.2572142074251,110.625 335.2572142074251,99.375 345.0,93.75 354.7427857925749,99.375" fill="#4ecdc4" fill-opacity="0.8181818181818181" stroke-opacity="0.8181818181818181" transform="rotate(38.18181818181818 345.0 105.0)" />
  <polygon points="24.742785792574935,140.625 15.0,146.25 5.257214207425067,140.625 5.257214207425063,129.375 14.999999999999998,123.75 24.742785792574935,129.375" fill="#4ecdc4" fill-opacity="0.5909090909090909" stroke-opacity="0.5909090909090909" transform="rotate(10.90909090909091 15.0 135.0)" />
  <polygon points="54.742785792574935,140.625 45.0,146.25 35.257214207425065,140.625 35.257214207425065,129.375 45.0,123.75 54.742785792574935,129.375" fill="#4ecdc4" fill-opacity="0.6136363636363636" stroke-opacity="0.6136363636363636" transform="rotate(13.636363636363637 45.0 135.0)" />
  <polygon points="84.74278579257494,140.625 75.0,146.25 65.25721420742506,140.625 65.25721420742506,129.375 75.0,123.75 84.74278579257494,129.375" fill="#ff6b6b" fill-opacity="0.6363636363636364" stroke-opacity="0.6363636363636364" transform="rotate(16.363636363636363 75.0 135.0)" />
  <polygon points="114.74278579257494,140.625 105.0,146.25 95.25721420742506,140.625 95.25721420742506,129.375 105.0,123.75 114.74278579257494,129.375" fill="#4ecdc4" fill-opacity="0.6590909090909091" stroke-opacity="0.6590909090909091" transform="rotate(19.09090909090909 105.0 135.0)" />
  <polygon points="144.74278579257492,140.625 135.0,146.25 125.25721420742506,140.625 125.25721420742506,129.375 135.0,123.75 144.74278579257492,129.375" fill="#4ecdc4" fill-opacity="0.6818181818181819" stroke-opacity="0.6818181818181819" transform="rotate(21.81818181818182 135.0 135.0)" />
  <polygon points="174.74278579257492,140.625 165.0,146.25 155.25721420742508,140.625 155.25721420742505,129.375 165.0,123.75 174.74278579257492,129.375" fill="#ff6b6b" fill-opacity="0.7045454545454546" stroke-opacity="0.7045454545454546" transform="rotate(24.545454545454543 165.0 135.0)" />
  <polygon points="204.74278579257492,140.625 195.0,146.25 185.25721420742508,140.625 185.25721420742505,129.375 195.0,123.75 204.74278579257492,129.375" fill="#4ecdc4" fill-opacity="0.7272727272727273" stroke-opacity="0.7272727272727273" transform="rotate(27.272727272727273 195.0 135.0)" />
  <polygon points="234.74278579257492,140.625 225.0,146.25 215.25721420742508,140.625 215.25721420742505,129.375 225.0,123.75 234.74278579257492,129.375" fill="#4ecdc4" fill-opacity="0.75" stroke-opacity="0.75" transform="rotate(30.0 225.0 135.0)" />
  <polygon points="264.7427857925749,140.625 255.0,146.25 245.25721420742508,140.625 245.25721420742505,129.375 255.0,123.75 264.7427857925749,129.375" fill="#ff6b6b" fill-opacity="0.7727272727272727" stroke-opacity="0.7727272727272727" transform="rotate(32.72727272727273 255.0 135.0)" />
  <polygon points="294.7427857925749,140.625 285.0,146.25 275.2572142074251,140.625 275.2572142074251,129.375 285.0,123.75 294.7427857925749,129.375" fill="#4ecdc4" fill-opacity="0.7954545454545454" stroke-opacity="0.7954545454545454" transform="rotate(35.45454545454545 285.0 135.0)" />
  <polygon points="324.7427857925749,140.625 315.0,146.25 305.2572142074251,140.625 305.2572142074251,129.375 315.0,123.75 324.7427857925749,129.375" fill="#4ecdc4" fill-opacity="0.8181818181818181" stroke-opacity="0.8181818181818181" transform="rotate(38.18181818181818 315.0 135.0)" />
  <polygon points="354.7427857925749,140.625 345.0,146.25 335.2572142074251,140.625 335.2572142074251,129.375 345.0,123.75 354.7427857925749,129.375" fill="#ff6b6b" fill-opacity="0.8409090909090909" stroke-opacity="0.8409090909090909" transform="rotate(40.909090909090914 345.0 135.0)" />
  <polygon points="24.742785792574935,170.625 15.0,176.25 5.257214207425067,170.625 5.257214207425063,159.375 14.999999999999998,153.75 24.742785792574935,159.375" fill="#4ecdc4" fill-opacity="0.6136363636363636" stroke-opacity="0.6136363636363636" transform="rotate(13.636363636363637 15.0 165.0)" />
  <polygon points="54.742785792574935,170.625 45.0,176.25 35.257214207425065,170.625 35.257214207425065,159.375 45.0,153.75 54.742785792574935,159.375" fill="#ff6b6b" fill-opacity="0.6363636363636364" stroke-opacity="0.6363636363636364" transform="rotate(16.363636363636363 45.0 165.0)" />
  <polygon points="84.74278579257494,170.625 75.0,176.25 65.25721420742506,170.625 65.25721420742506,159.375 75.0,153.75 84.74278579257494,159.375" fill="#4ecdc4" fill-opacity="0.6590909090909091" stroke-opacity="0.6590909090909091" transform="rotate(19.09090909090909 75.0 165.0)" />
  <polygon points="114.74278579257494,170.625 105.0,176.25 95.25721420742506,170.625 95.25721420742506,159.375 105.0,153.75 114.74278579257494,159.375" fill="#4ecdc4" fill-opacity="0.6818181818181819" stroke-opacity="0.6818181818181819" transform="rotate(21.81818181818182 105.0 165.0)" />
  <polygon points="144.74278579257492,170.625 135.0,176.25 125.25721420742506,170.625 125.25721420742506,159.375 135.0,153.75 144.74278579257492,159.375" fill="#ff6b6b" fill-opacity="0.7045454545454546" stroke-opacity="0.7045454545454546" transform="rotate(24.545454545454543 135.0 165.0)" />
  <polygon points="174.74278579257492,170.625 165.0,176.25 155.25721420742508,170.625 155.25721420742505,159.375 165.0,153.75 174.74278579257492,159.375" fill="#4ecdc4" fill-opacity="0.7272727272727273" stroke-opacity="0.7272727272727273" transform="rotate(27.272727272727273 165.0 165.0)" />
  <polygon points="204.74278579257492,170.625 195.0,176.25 185.25721420742508,170.625 185.25721420742505,159.375 195.0,153.75 204.74278579257492,159.375" fill="#4ecdc4" fill-opacity="0.75" stroke-opacity="0.75" transform="rotate(30.0 195.0 165.0)" />
  <polygon points="234.74278579257492,170.625 225.0,176.25 215.25721420742508,170.625 215.25721420742505,159.375 225.0,153.75 234.74278579257492,159.375" fill="#ff6b6b" fill-opacity="0.7727272727272727" stroke-opacity="0.7727272727272727" transform="rotate(32.72727272727273 225.0 165.0)" />
  <polygon points="264.7427857925749,170.625 255.0,176.25 245.25721420742508,170.625 245.25721420742505,159.375 255.0,153.75 264.7427857925749,159.375" fill="#4ecdc4" fill-opacity="0.7954545454545454" stroke-opacity="0.7954545454545454" transform="rotate(35.45454545454545 255.0 165.0)" />
  <polygon points="294.7427857925749,170.625 285.0,176.25 275.2572142074251,170.625 275.2572142074251,159.375 285.0,153.75 294.7427857925749,159.375" fill="#4ecdc4" fill-opacity="0.8181818181818181" stroke-opacity="0.8181818181818181" transform="rotate(38.18181818181818 285.0 165.0)" />
  <polygon points="324.7427857925749,170.625 315.0,176.25 305.2572142074251,170.625 305.2572142074251,159.375 315.0,153.75 324.7427857925749,159.375" fill="#ff6b6b" fill-opacity="0.8409090909090908" stroke-opacity="0.8409090909090908" transform="rotate(40.90909090909091 315.0 165.0)" />
  <polygon points="354.7427857925749,170.625 345.0,176.25 335.2572142074251,170.625 335.2572142074251,159.375 345.0,153.75 354.7427857925749,159.375" fill="#4ecdc4" fill-opacity="0.8636363636363636" stroke-opacity="0.8636363636363636" transform="rotate(43.63636363636364 345.0 165.0)" />
  <polygon points="24.742785792574935,200.625 15.0,206.25 5.257214207425067,200.625 5.257214207425063,189.375 14.999999999999998,183.75 24.742785792574935,189.375" fill="#ff6b6b" fill-opacity="0.6363636363636364" stroke-opacity="0.6363636363636364" transform="rotate(16.363636363636363 15.0 195.0)" />
  <polygon points="54.742785792574935,200.625 45.0,206.25 35.257214207425065,200.625 35.257214207425065,189.375 45.0,183.75 54.742785792574935,189.375" fill="#4ecdc4" fill-opacity="0.6590909090909091" stroke-opacity="0.6590909090909091" transform="rotate(19.09090909090909 45.0 195.0)" />
  <polygon points="84.74278579257494,200.625 75.0,206.25 65.25721420742506,200.625 65.25721420742506,189.375 75.0,183.75 84.74278579257494,189.375" fill="#4ecdc4" fill-opacity="0.6818181818181819" stroke-opacity="0.6818181818181819" transform="rotate(21.81818181818182 75.0 195.0)" />
  <polygon points="114.74278579257494,200.625 105.0,206.25 95.25721420742506,200.625 95.25721420742506,189.375 105.0,183.75 114.74278579257494,189.375" fill="#ff6b6b" fill-opacity="0.7045454545454546" stroke-opacity="0.7045454545454546" transform="rotate(24.545454545454543 105.0 195.0)" />
  <polygon points="144.74278579257492,200.625 135.0,206.25 125.25721420742506,200.625 125.25721420742506,189.375 135.0,183.75 144.74278579257492,189.375" fill="#4ecdc4" fill-opacity="0.7272727272727273" stroke-opacity="0.7272727272727273" transform="rotate(27.272727272727273 135.0 195.0)" />
  <polygon points="174.74278579257492,200.625 165.0,206.25 155.25721420742508,200.625 155.25721420742505,189.375 165.0,183.75 174.74278579257492,189.375" fill="#4ecdc4" fill-opacity="0.75" stroke-opacity="0.75" transform="rotate(30.0 165.0 195.0)" />
  <polygon points="204.74278579257492,200.625 195.0,206.25 185.25721420742508,200.625 185.25721420742505,189.375 195.0,183.75 204.74278579257492,189.375" fill="#ff6b6b" fill-opacity="0.7727272727272727" stroke-opacity="0.7727272727272727" transform="rotate(32.72727272727273 195.0 195.0)" />
  <polygon points="234.74278579257492,200.625 225.0,206.25 215.25721420742508,200.625 215.25721420742505,189.375 225.0,183.75 234.74278579257492,189.375" fill="#4ecdc4" fill-opacity="0.7954545454545454" stroke-opacity="0.7954545454545454" transform="rotate(35.45454545454545 225.0 195.0)" />
  <polygon points="264.7427857925749,200.625 255.0,206.25 245.25721420742508,200.625 245.25721420742505,189.375 255.0,183.75 264.7427857925749,189.375" fill="#4ecdc4" fill-opacity="0.8181818181818181" stroke-opacity="0.8181818181818181" transform="rotate(38.18181818181818 255.0 195.0)" />
  <polygon points="294.7427857925749,200.625 285.0,206.25 275.2572142074251,200.625 275.2572142074251,189.375 285.0,183.75 294.7427857925749,189.375" fill="#ff6b6b" fill-opacity="0.8409090909090909" stroke-opacity="0.8409090909090909" transform="rotate(40.909090909090914 285.0 195.0)" />
  <polygon points="324.7427857925749,200.625 315.0,206.25 305.2572142074251,200.625 305.2572142074251,189.375 315.0,183.75 324.7427857925749,189.375" fill="#4ecdc4" fill-opacity="0.8636363636363636" stroke-opacity="0.8636363636363636" transform="rotate(43.63636363636364 315.0 195.0)" />
  <polygon points="354.7427857925749,200.625 345.0,206.25 335.2572142074251,200.625 335.2572142074251,189.375 345.0,183.75 354.7427857925749,189.375" fill="#4ecdc4" fill-opacity="0.8863636363636364" stroke-opacity="0.8863636363636364" transform="rotate(46.36363636363636 345.0 195.0)" />
  <polygon points="24.742785792574935,230.625 15.0,236.25 5.257214207425067,230.625 5.257214207425063,219.375 14.999999999999998,213.75 24.742785792574935,219.375" fill="#4ecdc4" fill-opacity="0.6590909090909091" stroke-opacity="0.6590909090909091" transform="rotate(19.09090909090909 15.0 225.0)" />
  <polygon points="54.742785792574935,230.625 45.0,236.25 35.257214207425065,230.625 35.257214207425065,219.375 45.0,213.75 54.742785792574935,219.375" fill="#4ecdc4" fill-opacity="0.6818181818181819" stroke-opacity="0.6818181818181819" transform="rotate(21.81818181818182 45.0 225.0)" />
  <polygon points="84.74278579257494,230.625 75.0,236.25 65.25721420742506,230.625 65.25721420742506,219.375 75.0,213.75 84.74278579257494,219.375" fill="#ff6b6b" fill-opacity="0.7045454545454546" stroke-opacity="0.7045454545454546" transform="rotate(24.545454545454543 75.0 225.0)" />
  <polygon points="114.74278579257494,230.625 105.0,236.25 95.25721420742506,230.625 95.25721420742506,219.375 105.0,213.75 114.74278579257494,219.375" fill="#4ecdc4" fill-opacity="0.7272727272727273" stroke-opacity="0.7272727272727273" transform="rotate(27.272727272727273 105.0 225.0)" />
  <polygon points="144.74278579257492,230.625 135.0,236.25 125.25721420742506,230.625 125.25721420742506,219.375 135.0,213.75 144.74278579257492,219.375" fill="#4ecdc4" fill-opacity="0.75" stroke-opacity="0.75" transform="rotate(30.0 135.0 225.0)" />
  <polygon points="174.74278579257492,230.625 165.0,236.25 155.25721420742508,230.625 155.25721420742505,219.375 165.0,213.75 174.74278579257492,219.375" fill="#ff6b6b" fill-opacity="0.7727272727272727" stroke-opacity="0.7727272727272727" transform="rotate(32.72727272727273 165.0 225.0)" />
  <polygon points="204.74278579257492,230.625 195.0,236.25 185.25721420742508,230.625 185.25721420742505,219.375 195.0,213.75 204.74278579257492,219.375" fill="#4ecdc4" fill-opacity="0.7954545454545454" stroke-opacity="0.7954545454545454" transform="rotate(35.45454545454545 195.0 225.0)" />
  <polygon points="234.74278579257492,230.625 225.0,236.25 215.25721420742508,230.625 215.25721420742505,219.375 225.0,213.75 234.74278579257492,219.375" fill="#4ecdc4" fill-opacity="0.8181818181818181" stroke-opacity="0.8181818181818181" transform="rotate(38.18181818181818 225.0 225.0)" />
  <polygon points="264.7427857925749,230.625 255.0,236.25 245.25721420742508,230.625 245.25721420742505,219.375 255.0,213.75 264.7427857925749,219.375" fill="#ff6b6b" fill-opacity="0.8409090909090909" stroke-opacity="0.8409090909090909" transform="rotate(40.909090909090914 255.0 225.0)" />
  <polygon points="294.7427857925749,230.625 285.0,236.25 275.2572142074251,230.625 275.2572142074251,219.375 285.0,213.75 294.7427857925749,219.375" fill="#4ecdc4" fill-opacity="0.8636363636363636" stroke-opacity="0.8636363636363636" transform="rotate(43.63636363636364 285.0 225.0)" />
  <polygon points="324.7427857925749,230.625 315.0,236.25 305.2572142074251,230.625 305.2572142074251,219.375 315.0,213.75 324.7427857925749,219.375" fill="#4ecdc4" fill-opacity="0.8863636363636364" stroke-opacity="0.8863636363636364" transform="rotate(46.36363636363636 315.0 225.0)" />
  <polygon points="354.7427857925749,230.625 345.0,236.25 335.2572142074251,230.625 335.2572142074251,219.375 345.0,213.75 354.7427857925749,219.375" fill="#ff6b6b" fill-opacity="0.9090909090909091" stroke-opacity="0.9090909090909091" transform="rotate(49.090909090909086 345.0 225.0)" />
  <polygon points="24.742785792574935,260.625 15.0,266.25 5.257214207425067,260.625 5.257214207425063,249.375 14.999999999999998,243.75 24.742785792574935,249.375" fill="#4ecdc4" fill-opacity="0.6818181818181819" stroke-opacity="0.6818181818181819" transform="rotate(21.81818181818182 15.0 255.0)" />
  <polygon points="54.742785792574935,260.625 45.0,266.25 35.257214207425065,260.625 35.257214207425065,249.375 45.0,243.75 54.742785792574935,249.375" fill="#ff6b6b" fill-opacity="0.7045454545454546" stroke-opacity="0.7045454545454546" transform="rotate(24.545454545454547 45.0 255.0)" />
  <polygon points="84.74278579257494,260.625 75.0,266.25 65.25721420742506,260.625 65.25721420742506,249.375 75.0,243.75 84.74278579257494,249.375" fill="#4ecdc4" fill-opacity="0.7272727272727273" stroke-opacity="0.7272727272727273" transform="rotate(27.272727272727273 75.0 255.0)" />
  <polygon points="114.74278579257494,260.625 105.0,266.25 95.25721420742506,260.625 95.25721420742506,249.375 105.0,243.75 114.74278579257494,249.375" fill="#4ecdc4" fill-opacity="0.75" stroke-opacity="0.75" transform="rotate(30.0 105.0 255.0)" />
  <polygon points="144.74278579257492,260.625 135.0,266.25 125.25721420742506,260.625 125.25721420742506,249.375 135.0,243.75 144.74278579257492,249.375" fill="#ff6b6b" fill-opacity="0.7727272727272727" stroke-opacity="0.7727272727272727" transform="rotate(32.72727272727273 135.0 255.0)" />
  <polygon points="174.74278579257492,260.625 165.0,266.25 155.25721420742508,260.625 155.25721420742505,249.375 165.0,243.75 174.74278579257492,249.375" fill="#4ecdc4" fill-opacity="0.7954545454545454" stroke-opacity="0.7954545454545454" transform="rotate(35.45454545454545 165.0 255.0)" />
  <polygon points="204.74278579257492,260.625 195.0,266.25 185.25721420742508,260.625 185.25721420742505,249.375 195.0,243.75 204.74278579257492,249.375" fill="#4ecdc4" fill-opacity="0.8181818181818181" stroke-opacity="0.8181818181818181" transform="rotate(38.18181818181818 195.0 255.0)" />
  <polygon points="234.74278579257492,260.625 225.0,266.25 215.25721420742508,260.625 215.25721420742505,249.375 225.0,243.75 234.74278579257492,249.375" fill="#ff6b6b" fill-opacity="0.8409090909090909" stroke-opacity="0.8409090909090909" transform="rotate(40.909090909090914 225.0 255.0)" />
  <polygon points="264.7427857925749,260.625 255.0,266.25 245.25721420742508,260.625 245.25721420742505,249.375 255.0,243.75 264.7427857925749,249.375" fill="#4ecdc4" fill-opacity="0.8636363636363636" stroke-opacity="0.8636363636363636" transform="rotate(43.63636363636364 255.0 255.0)" />
  <polygon points="294.7427857925749,260.625 285.0,266.25 275.2572142074251,260.625 275.2572142074251,249.375 285.0,243.75 294.7427857925749,249.375" fill="#4ecdc4" fill-opacity="0.8863636363636364" stroke-opacity="0.8863636363636364" transform="rotate(46.36363636363636 285.0 255.0)" />
  <polygon points="324.7427857925749,260.625 315.0,266.25 305.2572142074251,260.625 305.2572142074251,249.375 315.0,243.75 324.7427857925749,249.375" fill="#ff6b6b" fill-opacity="0.9090909090909091" stroke-opacity="0.9090909090909091" transform="rotate(49.090909090909086 315.0 255.0)" />
  <polygon points="354.7427857925749,260.625 345.0,266.25 335.2572142074251,260.625 335.2572142074251,249.375 345.0,243.75 354.7427857925749,249.375" fill="#4ecdc4" fill-opacity="0.9318181818181819" stroke-opacity="0.9318181818181819" transform="rotate(51.81818181818182 345.0 255.0)" />
  <polygon points="24.742785792574935,290.625 15.0,296.25 5.257214207425067,290.625 5.257214207425063,279.375 14.999999999999998,273.75 24.742785792574935,279.375" fill="#ff6b6b" fill-opacity="0.7045454545454546" stroke-opacity="0.7045454545454546" transform="rotate(24.545454545454547 15.0 285.0)" />
  <polygon points="54.742785792574935,290.625 45.0,296.25 35.257214207425065,290.625 35.257214207425065,279.375 45.0,273.75 54.742785792574935,279.375" fill="#4ecdc4" fill-opacity="0.7272727272727273" stroke-opacity="0.7272727272727273" transform="rotate(27.272727272727273 45.0 285.0)" />
  <polygon points="84.74278579257494,290.625 75.0,296.25 65.25721420742506,290.625 65.25721420742506,279.375 75.0,273.75 84.74278579257494,279.375" fill="#4ecdc4" fill-opacity="0.75" stroke-opacity="0.75" transform="rotate(30.0 75.0 285.0)" />
  <polygon points="114.74278579257494,290.625 105.0,296.25 95.25721420742506,290.625 95.25721420742506,279.375 105.0,273.75 114.74278579257494,279.375" fill="#ff6b6b" fill-opacity="0.7727272727272727" stroke-opacity="0.7727272727272727" transform="rotate(32.72727272727273 105.0 285.0)" />
  <polygon points="144.74278579257492,290.625 135.0,296.25 125.25721420742506,290.625 125.25721420742506,279.375 135.0,273.75 144.74278579257492,279.375" fill="#4ecdc4" fill-opacity="0.7954545454545454" stroke-opacity="0.7954545454545454" transform="rotate(35.45454545454545 135.0 285.0)" />
  <polygon points="174.74278579257492,290.625 165.0,296.25 155.25721420742508,290.625 155.25721420742505,279.375 165.0,273.75 174.74278579257492,279.375" fill="#4ecdc4" fill-opacity="0.8181818181818181" stroke-opacity="0.8181818181818181" transform="rotate(38.18181818181818 165.0 285.0)" />
  <polygon points="204.74278579257492,290.625 195.0,296.25 185.25721420742508,290.625 185.25721420742505,279.375 195.0,273.75 204.74278579257492,279.375" fill="#ff6b6b" fill-opacity="0.8409090909090909" stroke-opacity="0.8409090909090909" transform="rotate(40.909090909090914 195.0 285.0)" />
  <polygon points="234.74278579257492,290.625 225.0,296.25 215.25721420742508,290.625 215.25721420742505,279.375 225.0,273.75 234.74278579257492,279.375" fill="#4ecdc4" fill-opacity="0.8636363636363636" stroke-opacity="0.8636363636363636" transform="rotate(43.63636363636364 225.0 285.0)" />
  <polygon points="264.7427857925749,290.625 255.0,296.25 245.25721420742508,290.625 245.25721420742505,279.375 255.0,273.75 264.7427857925749,279.375" fill="#4ecdc4" fill-opacity="0.8863636363636364" stroke-opacity="0.8863636363636364" transform="rotate(46.36363636363636 255.0 285.0)" />
  <polygon points="294.7427857925749,290.625 285.0,296.25 275.2572142074251,290.625 275.2572142074251,279.375 285.0,273.75 294.7427857925749,279.375" fill="#ff6b6b" fill-opacity="0.9090909090909092" stroke-opacity="0.9090909090909092" transform="rotate(49.09090909090909 285.0 285.0)" />
  <polygon points="324.7427857925749,290.625 315.0,296.25 305.2572142074251,290.625 305.2572142074251,279.375 315.0,273.75 324.7427857925749,279.375" fill="#4ecdc4" fill-opacity="0.9318181818181819" stroke-opacity="0.9318181818181819" transform="rotate(51.81818181818182 315.0 285.0)" />
  <polygon points="354.7427857925749,290.625 345.0,296.25 335.2572142074251,290.625 335.2572142074251,279.375 345.0,273.75 354.7427857925749,279.375" fill="#4ecdc4" fill-opacity="0.9545454545454546" stroke-opacity="0.9545454545454546" transform="rotate(54.54545454545455 345.0 285.0)" />
  <polygon points="24.742785792574935,320.625 15.0,326.25 5.257214207425067,320.625 5.257214207425063,309.375 14.999999999999998,303.75 24.742785792574935,309.375" fill="#4ecdc4" fill-opacity="0.7272727272727273" stroke-opacity="0.7272727272727273" transform="rotate(27.272727272727273 15.0 315.0)" />
  <polygon points="54.742785792574935,320.625 45.0,326.25 35.257214207425065,320.625 35.257214207425065,309.375 45.0,303.75 54.742785792574935,309.375" fill="#4ecdc4" fill-opacity="0.75" stroke-opacity="0.75" transform="rotate(30.0 45.0 315.0)" />
  <polygon points="84.74278579257494,320.625 75.0,326.25 65.25721420742506,320.625 65.25721420742506,309.375 75.0,303.75 84.74278579257494,309.375" fill="#ff6b6b" fill-opacity="0.7727272727272727" stroke-opacity="0.7727272727272727" transform="rotate(32.72727272727273 75.0 315.0)" />
  <polygon points="114.74278579257494,320.625 105.0,326.25 95.25721420742506,320.625 95.25721420742506,309.375 105.0,303.75 114.74278579257494,309.375" fill="#4ecdc4" fill-opacity="0.7954545454545454" stroke-opacity="0.7954545454545454" transform="rotate(35.45454545454545 105.0 315.0)" />
  <polygon points="144.74278579257492,320.625 135.0,326.25 125.25721420742506,320.625 125.25721420742506,309.375 135.0,303.75 144.74278579257492,309.375" fill="#4ecdc4" fill-opacity="0.8181818181818181" stroke-opacity="0.8181818181818181" transform="rotate(38.18181818181818 135.0 315.0)" />
  <polygon points="174.74278579257492,320.625 165.0,326.25 155.25721420742508,320.625 155.25721420742505,309.375 165.0,303.75 174.74278579257492,309.375" fill="#ff6b6b" fill-opacity="0.8409090909090908" stroke-opacity="0.8409090909090908" transform="rotate(40.90909090909091 165.0 315.0)" />
  <polygon points="204.74278579257492,320.625 195.0,326.25 185.25721420742508,320.625 185.25721420742505,309.375 195.0,303.75 204.74278579257492,309.375" fill="#4ecdc4" fill-opacity="0.8636363636363636" stroke-opacity="0.8636363636363636" transform="rotate(43.63636363636364 195.0 315.0)" />
  <polygon points="234.74278579257492,320.625 225.0,326.25 215.25721420742508,320.625 215.25721420742505,309.375 225.0,303.75 234.74278579257492,309.375" fill="#4ecdc4" fill-opacity="0.8863636363636364" stroke-opacity="0.8863636363636364" transform="rotate(46.36363636363636 225.0 315.0)" />
  <polygon points="264.7427857925749,320.625 255.0,326.25 245.25721420742508,320.625 245.25721420742505,309.375 255.0,303.75 264.7427857925749,309.375" fill="#ff6b6b" fill-opacity="0.9090909090909091" stroke-opacity="0.9090909090909091" transform="rotate(49.090909090909086 255.0 315.0)" />
  <polygon points="294.7427857925749,320.625 285.0,326.25 275.2572142074251,320.625 275.2572142074251,309.375 285.0,303.75 294.7427857925749,309.375" fill="#4ecdc4" fill-opacity="0.9318181818181819" stroke-opacity="0.9318181818181819" transform="rotate(51.81818181818182 285.0 315.0)" />
  <polygon points="324.7427857925749,320.625 315.0,326.25 305.2572142074251,320.625 305.2572142074251,309.375 315.0,303.75 324.7427857925749,309.375" fill="#4ecdc4" fill-opacity="0.9545454545454546" stroke-opacity="0.9545454545454546" transform="rotate(54.54545454545455 315.0 315.0)" />
  <polygon points="354.7427857925749,320.625 345.0,326.25 335.2572142074251,320.625 335.2572142074251,309.375 345.0,303.75 354.7427857925749,309.375" fill="#ff6b6b" fill-opacity="0.9772727272727273" stroke-opacity="0.9772727272727273" transform="rotate(57.27272727272727 345.0 315.0)" />
  <polygon points="24.742785792574935,350.625 15.0,356.25 5.257214207425067,350.625 5.257214207425063,339.375 14.999999999999998,333.75 24.742785792574935,339.375" fill="#4ecdc4" fill-opacity="0.75" stroke-opacity="0.75" transform="rotate(30.0 15.0 345.0)" />
  <polygon points="54.742785792574935,350.625 45.0,356.25 35.257214207425065,350.625 35.257214207425065,339.375 45.0,333.75 54.742785792574935,339.375" fill="#ff6b6b" fill-opacity="0.7727272727272727" stroke-opacity="0.7727272727272727" transform="rotate(32.72727272727273 45.0 345.0)" />
  <polygon points="84.74278579257494,350.625 75.0,356.25 65.25721420742506,350.625 65.25721420742506,339.375 75.0,333.75 84.74278579257494,339.375" fill="#4ecdc4" fill-opacity="0.7954545454545454" stroke-opacity="0.7954545454545454" transform="rotate(35.45454545454545 75.0 345.0)" />
  <polygon points="114.74278579257494,350.625 105.0,356.25 95.25721420742506,350.625 95.25721420742506,339.375 105.0,333.75 114.74278579257494,339.375" fill="#4ecdc4" fill-opacity="0.8181818181818181" stroke-opacity="0.8181818181818181" transform="rotate(38.18181818181818 105.0 345.0)" />
  <polygon points="144.74278579257492,350.625 135.0,356.25 125.25721420742506,350.625 125.25721420742506,339.375 135.0,333.75 144.74278579257492,339.375" fill="#ff6b6b" fill-opacity="0.8409090909090909" stroke-opacity="0.8409090909090909" transform="rotate(40.909090909090914 135.0 345.0)" />
  <polygon points="174.74278579257492,350.625 165.0,356.25 155.25721420742508,350.625 155.25721420742505,339.375 165.0,333.75 174.74278579257492,339.375" fill="#4ecdc4" fill-opacity="0.8636363636363636" stroke-opacity="0.8636363636363636" transform="rotate(43.63636363636364 165.0 345.0)" />
  <polygon points="204.74278579257492,350.625 195.0,356.25 185.25721420742508,350.625 185.25721420742505,339.375 195.0,333.75 204.74278579257492,339.375" fill="#4ecdc4" fill-opacity="0.8863636363636364" stroke-opacity="0.8863636363636364" transform="rotate(46.36363636363636 195.0 345.0)" />
  <polygon points="234.74278579257492,350.625 225.0,356.25 215.25721420742508,350.625 215.25721420742505,339.375 225.0,333.75 234.74278579257492,339.375" fill="#ff6b6b" fill-opacity="0.9090909090909091" stroke-opacity="0.9090909090909091" transform="rotate(49.090909090909086 225.0 345.0)" />
  <polygon points="264.7427857925749,350.625 255.0,356.25 245.25721420742508,350.625 245.25721420742505,339.375 255.0,333.75 264.7427857925749,339.375" fill="#4ecdc4" fill-opacity="0.9318181818181819" stroke-opacity="0.9318181818181819" transform="rotate(51.81818181818182 255.0 345.0)" />
  <polygon points="294.7427857925749,350.625 285.0,356.25 275.2572142074251,350.625 275.2572142074251,339.375 285.0,333.75 294.7427857925749,339.375" fill="#4ecdc4" fill-opacity="0.9545454545454546" stroke-opacity="0.9545454545454546" transform="rotate(54.54545454545455 285.0 345.0)" />
  <polygon points="324.7427857925749,350.625 315.0,356.25 305.2572142074251,350.625 305.2572142074251,339.375 315.0,333.75 324.7427857925749,339.375" fill="#ff6b6b" fill-opacity="0.9772727272727273" stroke-opacity="0.9772727272727273" transform="rotate(57.27272727272727 315.0 345.0)" />
  <polygon points="354.7427857925749,350.625 345.0,356.25 335.2572142074251,350.625 335.2572142074251,339.375 345.0,333.75 354.7427857925749,339.375" fill="#4ecdc4" transform="rotate(60.0 345.0 345.0)" />
</svg>