<?xml version="1.0" encoding="UTF-8"?>
<svg xmlns="http://www.w3.org/2000/svg" width="360" height="270" viewBox="0 0 360 270">
  <rect width="100%" height="100%" fill="#0a1628" />
  <path d="M 0 18 Q 9 9 18 0" fill="none" stroke="#00d9ff" stroke-width="1" stroke-linecap="round" opacity="0.4" />
  <path d="M 18 18 Q 30.4268 12.4268 36 0" fill="none" stroke="#00d9ff" stroke-width="1" stroke-linecap="round" opacity="0.431579" />
  <path d="M 36 18 Q 51.0276 15.0276 54 0" fill="none" stroke="#00d9ff" stroke-width="1" stroke-linecap="round" opacity="0.463158" />
  <path d="M 54 18 Q 70.1754 16.1754 72 0" fill="none" stroke="#00d9ff" stroke-width="1" stroke-linecap="round" opacity="0.494737" />
  <path d="M 72 18 Q 87.5936 15.5936 90 0" fill="none" stroke="#00d9ff" stroke-width="1" stroke-linecap="round" opacity="0.526316" />
  <path d="M 90 18 Q 103.422 13.4223 108 0" fill="none" stroke="#00d9ff" stroke-width="1" stroke-linecap="round" opacity="0.557895" />
  <path d="M 108 18 Q 118.185 10.1851 126 0" fill="none" stroke="#00d9ff" stroke-width="1" stroke-linecap="round" opacity="0.589474" />
  <path d="M 126 18 Q 132.662 6.66216 144 0" fill="none" stroke="#00d9ff" stroke-width="1" stroke-linecap="round" opacity="0.621053" />
  <path d="M 144 18 Q 147.703 3.70279 162 0" fill="none" stroke="#00d9ff" stroke-width="1" stroke-linecap="round" opacity="0.652632" />
  <path d="M 162 18 Q 164.02 2.02032 180 0" fill="none" stroke="#00d9ff" stroke-width="1" stroke-linecap="round" opacity="0.684211" />
  <path d="M 180 18 Q 182.02 2.02032 198 0" fill="none" stroke="#00d9ff" stroke-width="1" stroke-linecap="round" opacity="0.715789" />
  <path d="M 198 18 Q 201.703 3.70279 216 0" fill="none" stroke="#00d9ff" stroke-width="1" stroke-linecap="round" opacity="0.747368" />
  <path d="M 216 18 Q 222.662 6.66216 234 0" fill="none" stroke="#00d9ff" stroke-width="1" stroke-linecap="round" opacity="0.778947" />
  <path d="M 234 18 Q 244.185 10.1851 252 0" fill="none" stroke="#00d9ff" stroke-width="1" stroke-linecap="round" opacity="0.810526" />
  <path d="M 252 18 Q 265.422 13.4223 270 0" fill="none" stroke="#00d9ff" stroke-width="1" stroke-linecap="round" opacity="0.842105" />
  <path d="M 270 18 Q 285.594 15.5936 288 0" fill="none" stroke="#00d9ff" stroke-width="1" stroke-linecap="round" opacity="0.873684" />
  <path d="M 288 18 Q 304.175 16.1754 306 0" fill="none" stroke="#00d9ff" stroke-width="1" stroke-linecap="round" opacity="0.905263" />
  <path d="M 306 18 Q 321.028 15.0276 324 0" fill="none" stroke="#00d9ff" stroke-width="1" stroke-linecap="round" opacity="0.936842" />
  <path d="M 324 18 Q 336.427 12.4268 342 0" fill="none" stroke="#00d9ff" stroke-width="1" stroke-linecap="round" opacity="0.968421" />
  <path d="M 342 18 Q 351 9 360 0" fill="none" stroke="#00d9ff" stroke-width="1" stroke-linecap="round" />
  <path d="M 0 36 Q 9 27 18 18" fill="none" stroke="#00d9ff" stroke-width="1.14286" stroke-linecap="round" opacity="0.4" />
  <path d="M 18 36 Q 30.4268 30.4268 36 18" fill="none" stroke="#00d9ff" stroke-width="1.14286" stroke-linecap="round" opacity="0.431579" />
  <path d="M 36 36 Q 51.0276 33.0276 54 18" fill="none" stroke="#00d9ff" stroke-width="1.14286" stroke-linecap="round" opacity="0.463158" />
  <path d="M 54 36 Q 70.1754 34.1754 72 18" fill="none" stroke="#00d9ff" stroke-width="1.14286" stroke-linecap="round" opacity="0.494737" />
  <path d="M 72 36 Q 87.5936 33.5936 90 18" fill="none" stroke="#00d9ff" stroke-width="1.14286" stroke-linecap="round" opacity="0.526316" />
  <path d="M 90 36 Q 103.422 31.4223 108 18" fill="none" stroke="#00d9ff" stroke-width="1.14286" stroke-linecap="round" opacity="0.557895" />
  <path d="M 108 36 Q 118.185 28.1851 126 18" fill="none" stroke="#00d9ff" stroke-width="1.14286" stroke-linecap="round" opacity="0.589474" />
  <path d="M 126 36 Q 132.662 24.6622 144 18" fill="none" stroke="#00d9ff" stroke-width="1.14286" stroke-linecap="round" opacity="0.621053" />
  <path d="M 144 36 Q 147.703 21.7028 162 18" fill="none" stroke="#00d9ff" stroke-width="1.14286" stroke-linecap="round" opacity="0.652632" />
  <path d="M 162 36 Q 164.02 20.0203 180 18" fill="none" stroke="#00d9ff" stroke-width="1.14286" stroke-linecap="round" opacity="0.684211" />
  <path d="M 180 36 Q 182.02 20.0203 198 18" fill="none" stroke="#00d9ff" stroke-width="1.14286" stroke-linecap="round" opacity="0.715789" />
  <path d="M 198 36 Q 201.703 21.7028 216 18" fill="none" stroke="#00d9ff" stroke-width="1.14286" stroke-linecap="round" opacity="0.747368" />
  <path d="M 216 36 Q 222.662 24.6622 234 18" fill="none" stroke="#00d9ff" stroke-width="1.14286" stroke-linecap="round" opacity="0.778947" />
  <path d="M 234 36 Q 244.185 28.1851 252 18" fill="none" stroke="#00d9ff" stroke-width="1.14286" stroke-linecap="round" opacity="0.810526" />
  <path d="M 252 36 Q 265.422 31.4223 270 18" fill="none" stroke="#00d9ff" stroke-width="1.14286" stroke-linecap="round" opacity="0.842105" />
  <path d="M 270 36 Q 285.594 33.5936 288 18" fill="none" stroke="#00d9ff" stroke-width="1.14286" stroke-linecap="round" opacity="0.873684" />
  <path d="M 288 36 Q 304.175 34.1754 306 18" fill="none" stroke="#00d9ff" stroke-width="1.14286" stroke-linecap="round" opacity="0.905263" />
  <path d="M 306 36 Q 321.028 33.0276 324 18" fill="none" stroke="#00d9ff" stroke-width="1.14286" stroke-linecap="round" opacity="0.936842" />
  <path d="M 324 36 Q 336.427 30.4268 342 18" fill="none" stroke="#00d9ff" stroke-width="1.14286" stroke-linecap="round" opacity="0.968421" />
  <path d="M 342 36 Q 351 27 360 18" fill="none" stroke="#00d9ff" stroke-width="1.14286" stroke-linecap="round" />
  <path d="M 0 54 Q 9 45 18 36" fill="none" stroke="#00d9ff" stroke-width="1.28571" stroke-linecap="round" opacity="0.4" />
  <path d="M 18 54 Q 30.4268 48.4268 36 36" fill="none" stroke="#00d9ff" stroke-width="1.28571" stroke-linecap="round" opacity="0.431579" />
  <path d="M 36 54 Q 51.0276 51.0276 54 36" fill="none" stroke="#00d9ff" stroke-width="1.28571" stroke-linecap="round" opacity="0.463158" />
  <path d="M 54 54 Q 70.1754 52.1754 72 36" fill="none" stroke="#00d9ff" stroke-width="1.28571" stroke-linecap="round" opacity="0.494737" />
  <path d="M 72 54 Q 87.5936 51.5936 90 36" fill="none" stroke="#00d9ff" stroke-width="1.28571" stroke-linecap="round" opacity="0.526316" />
  <path d="M 90 54 Q 103.422 49.4223 108 36" fill="none" stroke="#00d9ff" stroke-width="1.28571" stroke-linecap="round" opacity="0.557895" />
  <path d="M 108 54 Q 118.185 46.1851 126 36" fill="none" stroke="#00d9ff" stroke-width="1.28571" stroke-linecap="round" opacity="0.589474" />
  <path d="M 126 54 Q 132.662 42.6622 144 36" fill="none" stroke="#00d9ff" stroke-width="1.28571" stroke-linecap="round" opacity="0.621053" />
  <path d="M 144 54 Q 147.703 39.7028 162 36" fill="none" stroke="#00d9ff" stroke-width="1.28571" stroke-linecap="round" opacity="0.652632" />
  <path d="M 162 54 Q 164.02 38.0203 180 36" fill="none" stroke="#00d9ff" stroke-width="1.28571" stroke-linecap="round" opacity="0.684211" />
  <path d="M 180 54 Q 182.02 38.0203 198 36" fill="none" stroke="#00d9ff" stroke-width="1.28571" stroke-linecap="round" opacity="0.715789" />
  <path d="M 198 54 Q 201.703 39.7028 216 36" fill="none" stroke="#00d9ff" stroke-width="1.28571" stroke-linecap="round" opacity="0.747368" />
  <path d="M 216 54 Q 222.662 42.6622 234 36" fill="none" stroke="#00d9ff" stroke-width="1.28571" stroke-linecap="round" opacity="0.778947" />
  <path d="M 234 54 Q 244.185 46.1851 252 36" fill="none" stroke="#00d9ff" stroke-width="1.28571" stroke-linecap="round" opacity="0.810526" />
  <path d="M 252 54 Q 265.422 49.4223 270 36" fill="none" stroke="#00d9ff" stroke-width="1.28571" stroke-linecap="round" opacity="0.842105" />
  <path d="M 270 54 Q 285.594 51.5936 288 36" fill="none" stroke="#00d9ff" stroke-width="1.28571" stroke-linecap="round" opacity="0.873684" />
  <path d="M 288 54 Q 304.175 52.1754 306 36" fill="none" stroke="#00d9ff" stroke-width="1.28571" stroke-linecap="round" opacity="0.905263" />
  <path d="M 306 54 Q 321.028 51.0276 324 36" fill="none" stroke="#00d9ff" stroke-width="1.28571" stroke-linecap="round" opacity="0.936842" />
  <path d="M 324 54 Q 336.427 48.4268 342 36" fill="none" stroke="#00d9ff" stroke-width="1.28571" stroke-linecap="round" opacity="0.968421" />
  <path d="M 342 54 Q 351 45 360 36" fill="none" stroke="#00d9ff" stroke-width="1.28571" stroke-linecap="round" />
  <path d="M 0 72 Q 9 63 18 54" fill="none" stroke="#00d9ff" stroke-width="1.42857" stroke-linecap="round" opacity="0.4" />
  <path d="M 18 72 Q 30.4268 66.4268 36 54" fill="none" stroke="#00d9ff" stroke-width="1.42857" stroke-linecap="round" opacity="0.431579" />
  <path d="M 36 72 Q 51.0276 69.0276 54 54" fill="none" stroke="#00d9ff" stroke-width="1.42857" stroke-linecap="round" opacity="0.463158" />
  <path d="M 54 72 Q 70.1754 70.1754 72 54" fill="none" stroke="#00d9ff" stroke-width="1.42857" stroke-linecap="round" opacity="0.494737" />
  <path d="M 72 72 Q 87.5936 69.5936 90 54" fill="none" stroke="#00d9ff" stroke-width="1.42857" stroke-linecap="round" opacity="0.526316" />
  <path d="M 90 72 Q 103.422 67.4223 108 54" fill="none" stroke="#00d9ff" stroke-width="1.42857" stroke-linecap="round" opacity="0.557895" />
  <path d="M 108 72 Q 118.185 64.1851 126 54" fill="none" stroke="#00d9ff" stroke-width="1.42857" stroke-linecap="round" opacity="0.589474" />
  <path d="M 126 72 Q 132.662 60.6622 144 54" fill="none" stroke="#00d9ff" stroke-width="1.42857" stroke-linecap="round" opacity="0.621053" />
  <path d="M 144 72 Q 147.703 57.7028 162 54" fill="none" stroke="#00d9ff" stroke-width="1.42857" stroke-linecap="round" opacity="0.652632" />
  <path d="M 162 72 Q 164.02 56.0203 180 54" fill="none" stroke="#00d9ff" stroke-width="1.42857" stroke-linecap="round" opacity="0.684211" />
  <path d="M 180 72 Q 182.02 56.0203 198 54" fill="none" stroke="#00d9ff" stroke-width="1.42857" stroke-linecap="round" opacity="0.715789" />
  <path d="M 198 72 Q 201.703 57.7028 216 54" fill="none" stroke="#00d9ff" stroke-width="1.42857" stroke-linecap="round" opacity="0.747368" />
  <path d="M 216 72 Q 222.662 60.6622 234 54" fill="none" stroke="#00d9ff" stroke-width="1.42857" stroke-linecap="round" opacity="0.778947" />
  <path d="M 234 72 Q 244.185 64.1851 252 54" fill="none" stroke="#00d9ff" stroke-width="1.42857" stroke-linecap="round" opacity="0.810526" />
  <path d="M 252 72 Q 265.422 67.4223 270 54" fill="none" stroke="#00d9ff" stroke-width="1.42857" stroke-linecap="round" opacity="0.842105" />
  <path d="M 270 72 Q 285.594 69.5936 288 54" fill="none" stroke="#00d9ff" stroke-width="1.42857" stroke-linecap="round" opacity="0.873684" />
  <path d="M 288 72 Q 304.175 70.1754 306 54" fill="none" stroke="#00d9ff" stroke-width="1.42857" stroke-linecap="round" opacity="0.905263" />
  <path d="M 306 72 Q 321.028 69.0276 324 54" fill="none" stroke="#00d9ff" stroke-width="1.42857" stroke-linecap="round" opacity="0.936842" />
  <path d="M 324 72 Q 336.427 66.4268 342 54" fill="none" stroke="#00d9ff" stroke-width="1.42857" stroke-linecap="round" opacity="0.968421" />
  <path d="M 342 72 Q 351 63 360 54" fill="none" stroke="#00d9ff" stroke-width="1.42857" stroke-linecap="round" />
  <path d="M 0 90 Q 9 81 18 72" fill="none" stroke="#00d9ff" stroke-width="1.57143" stroke-linecap="round" opacity="0.4" />
  <path d="M 18 90 Q 30.4268 84.4268 36 72" fill="none" stroke="#00d9ff" stroke-width="1.57143" stroke-linecap="round" opacity="0.431579" />
  <path d="M 36 90 Q 51.0276 87.0276 54 72" fill="none" stroke="#00d9ff" stroke-width="1.57143" stroke-linecap="round" opacity="0.463158" />
  <path d="M 54 90 Q 70.1754 88.1754 72 72" fill="none" stroke="#00d9ff" stroke-width="1.57143" stroke-linecap="round" opacity="0.494737" />
  <path d="M 72 90 Q 87.5936 87.5936 90 72" fill="none" stroke="#00d9ff" stroke-width="1.57143" stroke-linecap="round" opacity="0.526316" />
  <path d="M 90 90 Q 103.422 85.4223 108 72" fill="none" stroke="#00d9ff" stroke-width="1.57143" stroke-linecap="round" opacity="0.557895" />
  <path d="M 108 90 Q 118.185 82.1851 126 72" fill="none" stroke="#00d9ff" stroke-width="1.57143" stroke-linecap="round" opacity="0.589474" />
  <path d="M 126 90 Q 132.662 78.6622 144 72" fill="none" stroke="#00d9ff" stroke-width="1.57143" stroke-linecap="round" opacity="0.621053" />
  <path d="M 144 90 Q 147.703 75.7028 162 72" fill="none" stroke="#00d9ff" stroke-width="1.57143" stroke-linecap="round" opacity="0.652632" />
  <path d="M 162 90 Q 164.02 74.0203 180 72" fill="none" stroke="#00d9ff" stroke-width="1.57143" stroke-linecap="round" opacity="0.684211" />
  <path d="M 180 90 Q 182.02 74.0203 198 72" fill="none" stroke="#00d9ff" stroke-width="1.57143" stroke-linecap="round" opacity="0.715789" />
  <path d="M 198 90 Q 201.703 75.7028 216 72" fill="none" stroke="#00d9ff" stroke-width="1.57143" stroke-linecap="round" opacity="0.747368" />
  <path d="M 216 90 Q 222.662 78.6622 234 72" fill="none" stroke="#00d9ff" stroke-width="1.57143" stroke-linecap="round" opacity="0.778947" />
  <path d="M 234 90 Q 244.185 82.1851 252 72" fill="none" stroke="#00d9ff" stroke-width="1.57143" stroke-linecap="round" opacity="0.810526" />
  <path d="M 252 90 Q 265.422 85.4223 270 72" fill="none" stroke="#00d9ff" stroke-width="1.57143" stroke-linecap="round" opacity="0.842105" />
  <path d="M 270 90 Q 285.594 87.5936 288 72" fill="none" stroke="#00d9ff" stroke-width="1.57143" stroke-linecap="round" opacity="0.873684" />
  <path d="M 288 90 Q 304.175 88.1754 306 72" fill="none" stroke="#00d9ff" stroke-width="1.57143" stroke-linecap="round" opacity="0.905263" />
  <path d="M 306 90 Q 321.028 87.0276 324 72" fill="none" stroke="#00d9ff" stroke-width="1.57143" stroke-linecap="round" opacity="0.936842" />
  <path d="M 324 90 Q 336.427 84.4268 342 72" fill="none" stroke="#00d9ff" stroke-width="1.57143" stroke-linecap="round" opacity="0.968421" />
  <path d="M 342 90 Q 351 81 360 72" fill="none" stroke="#00d9ff" stroke-width="1.57143" stroke-linecap="round" />
  <path d="M 0 108 Q 9 99 18 90" fill="none" stroke="#00d9ff" stroke-width="1.71429" stroke-linecap="round" opacity="0.4" />
  <path d="M 18 108 Q 30.4268 102.427 36 90" fill="none" stroke="#00d9ff" stroke-width="1.71429" stroke-linecap="round" opacity="0.431579" />
  <path d="M 36 108 Q 51.0276 105.028 54 90" fill="none" stroke="#00d9ff" stroke-width="1.71429" stroke-linecap="round" opacity="0.463158" />
  <path d="M 54 108 Q 70.1754 106.175 72 90" fill="none" stroke="#00d9ff" stroke-width="1.71429" stroke-linecap="round" opacity="0.494737" />
  <path d="M 72 108 Q 87.5936 105.594 90 90" fill="none" stroke="#00d9ff" stroke-width="1.71429" stroke-linecap="round" opacity="0.526316" />
  <path d="M 90 108 Q 103.422 103.422 108 90" fill="none" stroke="#00d9ff" stroke-width="1.71429" stroke-linecap="round" opacity="0.557895" />
  <path d="M 108 108 Q 118.185 100.185 126 90" fill="none" stroke="#00d9ff" stroke-width="1.71429" stroke-linecap="round" opacity="0.589474" />
  <path d="M 126 108 Q 132.662 96.6622 144 90" fill="none" stroke="#00d9ff" stroke-width="1.71429" stroke-linecap="round" opacity="0.621053" />
  <path d="M 144 108 Q 147.703 93.7028 162 90" fill="none" stroke="#00d9ff" stroke-width="1.71429" stroke-linecap="round" opacity="0.652632" />
  <path d="M 162 108 Q 164.02 92.0203 180 90" fill="none" stroke="#00d9ff" stroke-width="1.71429" stroke-linecap="round" opacity="0.684211" />
  <path d="M 180 108 Q 182.02 92.0203 198 90" fill="none" stroke="#00d9ff" stroke-width="1.71429" stroke-linecap="round" opacity="0.715789" />
  <path d="M 198 108 Q 201.703 93.7028 216 90" fill="none" stroke="#00d9ff" stroke-width="1.71429" stroke-linecap="round" opacity="0.747368" />
  <path d="M 216 108 Q 222.662 96.6622 234 90" fill="none" stroke="#00d9ff" stroke-width="1.71429" stroke-linecap="round" opacity="0.778947" />
  <path d="M 234 108 Q 244.185 100.185 252 90" fill="none" stroke="#00d9ff" stroke-width="1.71429" stroke-linecap="round" opacity="0.810526" />
  <path d="M 252 108 Q 265.422 103.422 270 90" fill="none" stroke="#00d9ff" stroke-width="1.71429" stroke-linecap="round" opacity="0.842105" />
  <path d="M 270 108 Q 285.594 105.594 288 90" fill="none" stroke="#00d9ff" stroke-width="1.71429" stroke-linecap="round" opacity="0.873684" />
  <path d="M 288 108 Q 304.175 106.175 306 90" fill="none" stroke="#00d9ff" stroke-width="1.71429" stroke-linecap="round" opacity="0.905263" />
  <path d="M 306 108 Q 321.028 105.028 324 90" fill="none" stroke="#00d9ff" stroke-width="1.71429" stroke-linecap="round" opacity="0.936842" />
  <path d="M 324 108 Q 336.427 102.427 342 90" fill="none" stroke="#00d9ff" stroke-width="1.71429" stroke-linecap="round" opacity="0.968421" />
  <path d="M 342 108 Q 351 99 360 90" fill="none" stroke="#00d9ff" stroke-width="1.71429" stroke-linecap="round" />
  <path d="M 0 126 Q 9 117 18 108" fill="none" stroke="#00d9ff" stroke-width="1.85714" stroke-linecap="round" opacity="0.4" />
  <path d="M 18 126 Q 30.4268 120.427 36 108" fill="none" stroke="#00d9ff" stroke-width="1.85714" stroke-linecap="round" opacity="0.431579" />
  <path d="M 36 126 Q 51.0276 123.028 54 108" fill="none" stroke="#00d9ff" stroke-width="1.85714" stroke-linecap="round" opacity="0.463158" />
  <path d="M 54 126 Q 70.1754 124.175 72 108" fill="none" stroke="#00d9ff" stroke-width="1.85714" stroke-linecap="round" opacity="0.494737" />
  <path d="M 72 126 Q 87.5936 123.594 90 108" fill="none" stroke="#00d9ff" stroke-width="1.85714" stroke-linecap="round" opacity="0.526316" />
  <path d="M 90 126 Q 103.422 121.422 108 108" fill="none" stroke="#00d9ff" stroke-width="1.85714" stroke-linecap="round" opacity="0.557895" />
  <path d="M 108 126 Q 118.185 118.185 126 108" fill="none" stroke="#00d9ff" stroke-width="1.85714" stroke-linecap="round" opacity="0.589474" />
  <path d="M 126 126 Q 132.662 114.662 144 108" fill="none" stroke="#00d9ff" stroke-width="1.85714" stroke-linecap="round" opacity="0.621053" />
  <path d="M 144 126 Q 147.703 111.703 162 108" fill="none" stroke="#00d9ff" stroke-width="1.85714" stroke-linecap="round" opacity="0.652632" />
  <path d="M 162 126 Q 164.02 110.02 180 108" fill="none" stroke="#00d9ff" stroke-width="1.85714" stroke-linecap="round" opacity="0.684211" />
  <path d="M 180 126 Q 182.02 110.02 198 108" fill="none" stroke="#00d9ff" stroke-width="1.85714" stroke-linecap="round" opacity="0.715789" />
  <path d="M 198 126 Q 201.703 111.703 216 108" fill="none" stroke="#00d9ff" stroke-width="1.85714" stroke-linecap="round" opacity="0.747368" />
  <path d="M 216 126 Q 222.662 114.662 234 108" fill="none" stroke="#00d9ff" stroke-width="1.85714" stroke-linecap="round" opacity="0.778947" />
  <path d="M 234 126 Q 244.185 118.185 252 108" fill="none" stroke="#00d9ff" stroke-width="1.85714" stroke-linecap="round" opacity="0.810526" />
  <path d="M 252 126 Q 265.422 121.422 270 108" fill="none" stroke="#00d9ff" stroke-width="1.85714" stroke-linecap="round" opacity="0.842105" />
  <path d="M 270 126 Q 285.594 123.594 288 108" fill="none" stroke="#00d9ff" stroke-width="1.85714" stroke-linecap="round" opacity="0.873684" />
  <path d="M 288 126 Q 304.175 124.175 306 108" fill="none" stroke="#00d9ff" stroke-width="1.85714" stroke-linecap="round" opacity="0.905263" />
  <path d="M 306 126 Q 321.028 123.028 324 108" fill="none" stroke="#00d9ff" stroke-width="1.85714" stroke-linecap="round" opacity="0.936842" />
  <path d="M 324 126 Q 336.427 120.427 342 108" fill="none" stroke="#00d9ff" stroke-width="1.85714" stroke-linecap="round" opacity="0.968421" />
  <path d="M 342 126 Q 351 117 360 108" fill="none" stroke="#00d9ff" stroke-width="1.85714" stroke-linecap="round" />
  <path d="M 0 144 Q 9 135 18 126" fill="none" stroke="#00d9ff" stroke-width="2" stroke-linecap="round" opacity="0.4" />
  <path d="M 18 144 Q 30.4268 138.427 36 126" fill="none" stroke="#00d9ff" stroke-width="2" stroke-linecap="round" opacity="0.431579" />
  <path d="M 36 144 Q 51.0276 141.028 54 126" fill="none" stroke="#00d9ff" stroke-width="2" stroke-linecap="round" opacity="0.463158" />
  <path d="M 54 144 Q 70.1754 142.175 72 126" fill="none" stroke="#00d9ff" stroke-width="2" stroke-linecap="round" opacity="0.494737" />
  <path d="M 72 144 Q 87.5936 141.594 90 126" fill="none" stroke="#00d9ff" stroke-width="2" stroke-linecap="round" opacity="0.526316" />
  <path d="M 90 144 Q 103.422 139.422 108 126" fill="none" stroke="#00d9ff" stroke-width="2" stroke-linecap="round" opacity="0.557895" />
  <path d="M 108 144 Q 118.185 136.185 126 126" fill="none" stroke="#00d9ff" stroke-width="2" stroke-linecap="round" opacity="0.589474" />
  <path d="M 126 144 Q 132.662 132.662 144 126" fill="none" stroke="#00d9ff" stroke-width="2" stroke-linecap="round" opacity="0.621053" />
  <path d="M 144 144 Q 147.703 129.703 162 126" fill="none" stroke="#00d9ff" stroke-width="2" stroke-linecap="round" opacity="0.652632" />
  <path d="M 162 144 Q 164.02 128.02 180 126" fill="none" stroke="#00d9ff" stroke-width="2" stroke-linecap="round" opacity="0.684211" />
  <path d="M 180 144 Q 182.02 128.02 198 126" fill="none" stroke="#00d9ff" stroke-width="2" stroke-linecap="round" opacity="0.715789" />
  <path d="M 198 144 Q 201.703 129.703 216 126" fill="none" stroke="#00d9ff" stroke-width="2" stroke-linecap="round" opacity="0.747368" />
  <path d="M 216 144 Q 222.662 132.662 234 126" fill="none" stroke="#00d9ff" stroke-width="2" stroke-linecap="round" opacity="0.778947" />
  <path d="M 234 144 Q 244.185 136.185 252 126" fill="none" stroke="#00d9ff" stroke-width="2" stroke-linecap="round" opacity="0.810526" />
  <path d="M 252 144 Q 265.422 139.422 270 126" fill="none" stroke="#00d9ff" stroke-width="2" stroke-linecap="round" opacity="0.842105" />
  <path d="M 270 144 Q 285.594 141.594 288 126" fill="none" stroke="#00d9ff" stroke-width="2" stroke-linecap="round" opacity="0.873684" />
  <path d="M 288 144 Q 304.175 142.175 306 126" fill="none" stroke="#00d9ff" stroke-width="2" stroke-linecap="round" opacity="0.905263" />
  <path d="M 306 144 Q 321.028 141.028 324 126" fill="none" stroke="#00d9ff" stroke-width="2" stroke-linecap="round" opacity="0.936842" />
  <path d="M 324 144 Q 336.427 138.427 342 126" fill="none" stroke="#00d9ff" stroke-width="2" stroke-linecap="round" opacity="0.968421" />
  <path d="M 342 144 Q 351 135 360 126" fill="none" stroke="#00d9ff" stroke-width="2" stroke-linecap="round" />
  <path d="M 0 162 Q 9 153 18 144" fill="none" stroke="#00d9ff" stroke-width="2.14286" stroke-linecap="round" opacity="0.4" />
  <path d="M 18 162 Q 30.4268 156.427 36 144" fill="none" stroke="#00d9ff" stroke-width="2.14286" stroke-linecap="round" opacity="0.431579" />
  <path d="M 36 162 Q 51.0276 159.028 54 144" fill="none" stroke="#00d9ff" stroke-width="2.14286" stroke-linecap="round" opacity="0.463158" />
  <path d="M 54 162 Q 70.1754 160.175 72 144" fill="none" stroke="#00d9ff" stroke-width="2.14286" stroke-linecap="round" opacity="0.494737" />
  <path d="M 72 162 Q 87.5936 159.594 90 144" fill="none" stroke="#00d9ff" stroke-width="2.14286" stroke-linecap="round" opacity="0.526316" />
  <path d="M 90 162 Q 103.422 157.422 108 144" fill="none" stroke="#00d9ff" stroke-width="2.14286" stroke-linecap="round" opacity="0.557895" />
  <path d="M 108 162 Q 118.185 154.185 126 144" fill="none" stroke="#00d9ff" stroke-width="2.14286" stroke-linecap="round" opacity="0.589474" />
  <path d="M 126 162 Q 132.662 150.662 144 144" fill="none" stroke="#00d9ff" stroke-width="2.14286" stroke-linecap="round" opacity="0.621053" />
  <path d="M 144 162 Q 147.703 147.703 162 144" fill="none" stroke="#00d9ff" stroke-width="2.14286" stroke-linecap="round" opacity="0.652632" />
  <path d="M 162 162 Q 164.02 146.02 180 144" fill="none" stroke="#00d9ff" stroke-width="2.14286" stroke-linecap="round" opacity="0.684211" />
  <path d="M 180 162 Q 182.02 146.02 198 144" fill="none" stroke="#00d9ff" stroke-width="2.14286" stroke-linecap="round" opacity="0.715789" />
  <path d="M 198 162 Q 201.703 147.703 216 144" fill="none" stroke="#00d9ff" stroke-width="2.14286" stroke-linecap="round" opacity="0.747368" />
  <path d="M 216 162 Q 222.662 150.662 234 144" fill="none" stroke="#00d9ff" stroke-width="2.14286" stroke-linecap="round" opacity="0.778947" />
  <path d="M 234 162 Q 244.185 154.185 252 144" fill="none" stroke="#00d9ff" stroke-width="2.14286" stroke-linecap="round" opacity="0.810526" />
  <path d="M 252 162 Q 265.422 157.422 270 144" fill="none" stroke="#00d9ff" stroke-width="2.14286" stroke-linecap="round" opacity="0.842105" />
  <path d="M 270 162 Q 285.594 159.594 288 144" fill="none" stroke="#00d9ff" stroke-width="2.14286" stroke-linecap="round" opacity="0.873684" />
  <path d="M 288 162 Q 304.175 160.175 306 144" fill="none" stroke="#00d9ff" stroke-width="2.14286" stroke-linecap="round" opacity="0.905263" />
  <path d="M 306 162 Q 321.028 159.028 324 144" fill="none" stroke="#00d9ff" stroke-width="2.14286" stroke-linecap="round" opacity="0.936842" />
  <path d="M 324 162 Q 336.427 156.427 342 144" fill="none" stroke="#00d9ff" stroke-width="2.14286" stroke-linecap="round" opacity="0.968421" />
  <path d="M 342 162 Q 351 153 360 144" fill="none" stroke="#00d9ff" stroke-width="2.14286" stroke-linecap="round" />
  <path d="M 0 180 Q 9 171 18 162" fill="none" stroke="#00d9ff" stroke-width="2.28571" stroke-linecap="round" opacity="0.4" />
  <path d="M 18 180 Q 30.4268 174.427 36 162" fill="none" stroke="#00d9ff" stroke-width="2.28571" stroke-linecap="round" opacity="0.431579" />
  <path d="M 36 180 Q 51.0276 177.028 54 162" fill="none" stroke="#00d9ff" stroke-width="2.28571" stroke-linecap="round" opacity="0.463158" />
  <path d="M 54 180 Q 70.1754 178.175 72 162" fill="none" stroke="#00d9ff" stroke-width="2.28571" stroke-linecap="round" opacity="0.494737" />
  <path d="M 72 180 Q 87.5936 177.594 90 162" fill="none" stroke="#00d9ff" stroke-width="2.28571" stroke-linecap="round" opacity="0.526316" />
  <path d="M 90 180 Q 103.422 175.422 108 162" fill="none" stroke="#00d9ff" stroke-width="2.28571" stroke-linecap="round" opacity="0.557895" />
  <path d="M 108 180 Q 118.185 172.185 126 162" fill="none" stroke="#00d9ff" stroke-width="2.28571" stroke-linecap="round" opacity="0.589474" />
  <path d="M 126 180 Q 132.662 168.662 144 162" fill="none" stroke="#00d9ff" stroke-width="2.28571" stroke-linecap="round" opacity="0.621053" />
  <path d="M 144 180 Q 147.703 165.703 162 162" fill="none" stroke="#00d9ff" stroke-width="2.28571" stroke-linecap="round" opacity="0.652632" />
  <path d="M 162 180 Q 164.02 164.02 180 162" fill="none" stroke="#00d9ff" stroke-width="2.28571" stroke-linecap="round" opacity="0.684211" />
  <path d="M 180 180 Q 182.02 164.02 198 162" fill="none" stroke="#00d9ff" stroke-width="2.28571" stroke-linecap="round" opacity="0.715789" />
  <path d="M 198 180 Q 201.703 165.703 216 162" fill="none" stroke="#00d9ff" stroke-width="2.28571" stroke-linecap="round" opacity="0.747368" />
  <path d="M 216 180 Q 222.662 168.662 234 162" fill="none" stroke="#00d9ff" stroke-width="2.28571" stroke-linecap="round" opacity="0.778947" />
  <path d="M 234 180 Q 244.185 172.185 252 162" fill="none" stroke="#00d9ff" stroke-width="2.28571" stroke-linecap="round" opacity="0.810526" />
  <path d="M 252 180 Q 265.422 175.422 270 162" fill="none" stroke="#00d9ff" stroke-width="2.28571" stroke-linecap="round" opacity="0.842105" />
  <path d="M 270 180 Q 285.594 177.594 288 162" fill="none" stroke="#00d9ff" stroke-width="2.28571" stroke-linecap="round" opacity="0.873684" />
  <path d="M 288 180 Q 304.175 178.175 306 162" fill="none" stroke="#00d9ff" stroke-width="2.28571" stroke-linecap="round" opacity="0.905263" />
  <path d="M 306 180 Q 321.028 177.028 324 162" fill="none" stroke="#00d9ff" stroke-width="2.28571" stroke-linecap="round" opacity="0.936842" />
  <path d="M 324 180 Q 336.427 174.427 342 162" fill="none" stroke="#00d9ff" stroke-width="2.28571" stroke-linecap="round" opacity="0.968421" />
  <path d="M 342 180 Q 351 171 360 162" fill="none" stroke="#00d9ff" stroke-width="2.28571" stroke-linecap="round" />
  <path d="M 0 198 Q 9 189 18 180" fill="none" stroke="#00d9ff" stroke-width="2.42857" stroke-linecap="round" opacity="0.4" />
  <path d="M 18 198 Q 30.4268 192.427 36 180" fill="none" stroke="#00d9ff" stroke-width="2.42857" stroke-linecap="round" opacity="0.431579" />
  <path d="M 36 198 Q 51.0276 195.028 54 180" fill="none" stroke="#00d9ff" stroke-width="2.42857" stroke-linecap="round" opacity="0.463158" />
  <path d="M 54 198 Q 70.1754 196.175 72 180" fill="none" stroke="#00d9ff" stroke-width="2.42857" stroke-linecap="round" opacity="0.494737" />
  <path d="M 72 198 Q 87.5936 195.594 90 180" fill="none" stroke="#00d9ff" stroke-width="2.42857" stroke-linecap="round" opacity="0.526316" />
  <path d="M 90 198 Q 103.422 193.422 108 180" fill="none" stroke="#00d9ff" stroke-width="2.42857" stroke-linecap="round" opacity="0.557895" />
  <path d="M 108 198 Q 118.185 190.185 126 180" fill="none" stroke="#00d9ff" stroke-width="2.42857" stroke-linecap="round" opacity="0.589474" />
  <path d="M 126 198 Q 132.662 186.662 144 180" fill="none" stroke="#00d9ff" stroke-width="2.42857" stroke-linecap="round" opacity="0.621053" />
  <path d="M 144 198 Q 147.703 183.703 162 180" fill="none" stroke="#00d9ff" stroke-width="2.42857" stroke-linecap="round" opacity="0.652632" />
  <path d="M 162 198 Q 164.02 182.02 180 180" fill="none" stroke="#00d9ff" stroke-width="2.42857" stroke-linecap="round" opacity="0.684211" />
  <path d="M 180 198 Q 182.02 182.02 198 180" fill="none" stroke="#00d9ff" stroke-width="2.42857" stroke-linecap="round" opacity="0.715789" />
  <path d="M 198 198 Q 201.703 183.703 216 180" fill="none" stroke="#00d9ff" stroke-width="2.42857" stroke-linecap="round" opacity="0.747368" />
  <path d="M 216 198 Q 222.662 186.662 234 180" fill="none" stroke="#00d9ff" stroke-width="2.42857" stroke-linecap="round" opacity="0.778947" />
  <path d="M 234 198 Q 244.185 190.185 252 180" fill="none" stroke="#00d9ff" stroke-width="2.42857" stroke-linecap="round" opacity="0.810526" />
  <path d="M 252 198 Q 265.422 193.422 270 180" fill="none" stroke="#00d9ff" stroke-width="2.42857" stroke-linecap="round" opacity="0.842105" />
  <path d="M 270 198 Q 285.594 195.594 288 180" fill="none" stroke="#00d9ff" stroke-width="2.42857" stroke-linecap="round" opacity="0.873684" />
  <path d="M 288 198 Q 304.175 196.175 306 180" fill="none" stroke="#00d9ff" stroke-width="2.42857" stroke-linecap="round" opacity="0.905263" />
  <path d="M 306 198 Q 321.028 195.028 324 180" fill="none" stroke="#00d9ff" stroke-width="2.42857" stroke-linecap="round" opacity="0.936842" />
  <path d="M 324 198 Q 336.427 192.427 342 180" fill="none" stroke="#00d9ff" stroke-width="2.42857" stroke-linecap="round" opacity="0.968421" />
  <path d="M 342 198 Q 351 189 360 180" fill="none" stroke="#00d9ff" stroke-width="2.42857" stroke-linecap="round" />
  <path d="M 0 216 Q 9 207 18 198" fill="none" stroke="#00d9ff" stroke-width="2.57143" stroke-linecap="round" opacity="0.4" />
  <path d="M 18 216 Q 30.4268 210.427 36 198" fill="none" stroke="#00d9ff" stroke-width="2.57143" stroke-linecap="round" opacity="0.431579" />
  <path d="M 36 216 Q 51.0276 213.028 54 198" fill="none" stroke="#00d9ff" stroke-width="2.57143" stroke-linecap="round" opacity="0.463158" />
  <path d="M 54 216 Q 70.1754 214.175 72 198" fill="none" stroke="#00d9ff" stroke-width="2.57143" stroke-linecap="round" opacity="0.494737" />
  <path d="M 72 216 Q 87.5936 213.594 90 198" fill="none" stroke="#00d9ff" stroke-width="2.57143" stroke-linecap="round" opacity="0.526316" />
  <path d="M 90 216 Q 103.422 211.422 108 198" fill="none" stroke="#00d9ff" stroke-width="2.57143" stroke-linecap="round" opacity="0.557895" />
  <path d="M 108 216 Q 118.185 208.185 126 198" fill="none" stroke="#00d9ff" stroke-width="2.57143" stroke-linecap="round" opacity="0.589474" />
  <path d="M 126 216 Q 132.662 204.662 144 198" fill="none" stroke="#00d9ff" stroke-width="2.57143" stroke-linecap="round" opacity="0.621053" />
  <path d="M 144 216 Q 147.703 201.703 162 198" fill="none" stroke="#00d9ff" stroke-width="2.57143" stroke-linecap="round" opacity="0.652632" />
  <path d="M 162 216 Q 164.02 200.02 180 198" fill="none" stroke="#00d9ff" stroke-width="2.57143" stroke-linecap="round" opacity="0.684211" />
  <path d="M 180 216 Q 182.02 200.02 198 198" fill="none" stroke="#00d9ff" stroke-width="2.57143" stroke-linecap="round" opacity="0.715789" />
  <path d="M 198 216 Q 201.703 201.703 216 198" fill="none" stroke="#00d9ff" stroke-width="2.57143" stroke-linecap="round" opacity="0.747368" />
  <path d="M 216 216 Q 222.662 204.662 234 198" fill="none" stroke="#00d9ff" stroke-width="2.57143" stroke-linecap="round" opacity="0.778947" />
  <path d="M 234 216 Q 244.185 208.185 252 198" fill="none" stroke="#00d9ff" stroke-width="2.57143" stroke-linecap="round" opacity="0.810526" />
  <path d="M 252 216 Q 265.422 211.422 270 198" fill="none" stroke="#00d9ff" stroke-width="2.57143" stroke-linecap="round" opacity="0.842105" />
  <path d="M 270 216 Q 285.594 213.594 288 198" fill="none" stroke="#00d9ff" stroke-width="2.57143" stroke-linecap="round" opacity="0.873684" />
  <path d="M 288 216 Q 304.175 214.175 306 198" fill="none" stroke="#00d9ff" stroke-width="2.57143" stroke-linecap="round" opacity="0.905263" />
  <path d="M 306 216 Q 321.028 213.028 324 198" fill="none" stroke="#00d9ff" stroke-width="2.57143" stroke-linecap="round" opacity="0.936842" />
  <path d="M 324 216 Q 336.427 210.427 342 198" fill="none" stroke="#00d9ff" stroke-width="2.57143" stroke-linecap="round" opacity="0.968421" />
  <path d="M 342 216 Q 351 207 360 198" fill="none" stroke="#00d9ff" stroke-width="2.57143" stroke-linecap="round" />
  <path d="M 0 234 Q 9 225 18 216" fill="none" stroke="#00d9ff" stroke-width="2.71429" stroke-linecap="round" opacity="0.4" />
  <path d="M 18 234 Q 30.4268 228.427 36 216" fill="none" stroke="#00d9ff" stroke-width="2.71429" stroke-linecap="round" opacity="0.431579" />
  <path d="M 36 234 Q 51.0276 231.028 54 216" fill="none" stroke="#00d9ff" stroke-width="2.71429" stroke-linecap="round" opacity="0.463158" />
  <path d="M 54 234 Q 70.1754 232.175 72 216" fill="none" stroke="#00d9ff" stroke-width="2.71429" stroke-linecap="round" opacity="0.494737" />
  <path d="M 72 234 Q 87.5936 231.594 90 216" fill="none" stroke="#00d9ff" stroke-width="2.71429" stroke-linecap="round" opacity="0.526316" />
  <path d="M 90 234 Q 103.422 229.422 108 216" fill="none" stroke="#00d9ff" stroke-width="2.71429" stroke-linecap="round" opacity="0.557895" />
  <path d="M 108 234 Q 118.185 226.185 126 216" fill="none" stroke="#00d9ff" stroke-width="2.71429" stroke-linecap="round" opacity="0.589474" />
  <path d="M 126 234 Q 132.662 222.662 144 216" fill="none" stroke="#00d9ff" stroke-width="2.71429" stroke-linecap="round" opacity="0.621053" />
  <path d="M 144 234 Q 147.703 219.703 162 216" fill="none" stroke="#00d9ff" stroke-width="2.71429" stroke-linecap="round" opacity="0.652632" />
  <path d="M 162 234 Q 164.02 218.02 180 216" fill="none" stroke="#00d9ff" stroke-width="2.71429" stroke-linecap="round" opacity="0.684211" />
  <path d="M 180 234 Q 182.02 218.02 198 216" fill="none" stroke="#00d9ff" stroke-width="2.71429" stroke-linecap="round" opacity="0.715789" />
  <path d="M 198 234 Q 201.703 219.703 216 216" fill="none" stroke="#00d9ff" stroke-width="2.71429" stroke-linecap="round" opacity="0.747368" />
  <path d="M 216 234 Q 222.662 222.662 234 216" fill="none" stroke="#00d9ff" stroke-width="2.71429" stroke-linecap="round" opacity="0.778947" />
  <path d="M 234 234 Q 244.185 226.185 252 216" fill="none" stroke="#00d9ff" stroke-width="2.71429" stroke-linecap="round" opacity="0.810526" />
  <path d="M 252 234 Q 265.422 229.422 270 216" fill="none" stroke="#00d9ff" stroke-width="2.71429" stroke-linecap="round" opacity="0.842105" />
  <path d="M 270 234 Q 285.594 231.594 288 216" fill="none" stroke="#00d9ff" stroke-width="2.71429" stroke-linecap="round" opacity="0.873684" />
  <path d="M 288 234 Q 304.175 232.175 306 216" fill="none" stroke="#00d9ff" stroke-width="2.71429" stroke-linecap="round" opacity="0.905263" />
  <path d="M 306 234 Q 321.028 231.028 324 216" fill="none" stroke="#00d9ff" stroke-width="2.71429" stroke-linecap="round" opacity="0.936842" />
  <path d="M 324 234 Q 336.427 228.427 342 216" fill="none" stroke="#00d9ff" stroke-width="2.71429" stroke-linecap="round" opacity="0.968421" />
  <path d="M 342 234 Q 351 225 360 216" fill="none" stroke="#00d9ff" stroke-width="2.71429" stroke-linecap="round" />
  <path d="M 0 252 Q 9 243 18 234" fill="none" stroke="#00d9ff" stroke-width="2.85714" stroke-linecap="round" opacity="0.4" />
  <path d="M 18 252 Q 30.4268 246.427 36 234" fill="none" stroke="#00d9ff" stroke-width="2.85714" stroke-linecap="round" opacity="0.431579" />
  <path d="M 36 252 Q 51.0276 249.028 54 234" fill="none" stroke="#00d9ff" stroke-width="2.85714" stroke-linecap="round" opacity="0.463158" />
  <path d="M 54 252 Q 70.1754 250.175 72 234" fill="none" stroke="#00d9ff" stroke-width="2.85714" stroke-linecap="round" opacity="0.494737" />
  <path d="M 72 252 Q 87.5936 249.594 90 234" fill="none" stroke="#00d9ff" stroke-width="2.85714" stroke-linecap="round" opacity="0.526316" />
  <path d="M 90 252 Q 103.422 247.422 108 234" fill="none" stroke="#00d9ff" stroke-width="2.85714" stroke-linecap="round" opacity="0.557895" />
  <path d="M 108 252 Q 118.185 244.185 126 234" fill="none" stroke="#00d9ff" stroke-width="2.85714" stroke-linecap="round" opacity="0.589474" />
  <path d="M 126 252 Q 132.662 240.662 144 234" fill="none" stroke="#00d9ff" stroke-width="2.85714" stroke-linecap="round" opacity="0.621053" />
  <path d="M 144 252 Q 147.703 237.703 162 234" fill="none" stroke="#00d9ff" stroke-width="2.85714" stroke-linecap="round" opacity="0.652632" />
  <path d="M 162 252 Q 164.02 236.02 180 234" fill="none" stroke="#00d9ff" stroke-width="2.85714" stroke-linecap="round" opacity="0.684211" />
  <path d="M 180 252 Q 182.02 236.02 198 234" fill="none" stroke="#00d9ff" stroke-width="2.85714" stroke-linecap="round" opacity="0.715789" />
  <path d="M 198 252 Q 201.703 237.703 216 234" fill="none" stroke="#00d9ff" stroke-width="2.85714" stroke-linecap="round" opacity="0.747368" />
  <path d="M 216 252 Q 222.662 240.662 234 234" fill="none" stroke="#00d9ff" stroke-width="2.85714" stroke-linecap="round" opacity="0.778947" />
  <path d="M 234 252 Q 244.185 244.185 252 234" fill="none" stroke="#00d9ff" stroke-width="2.85714" stroke-linecap="round" opacity="0.810526" />
  <path d="M 252 252 Q 265.422 247.422 270 234" fill="none" stroke="#00d9ff" stroke-width="2.85714" stroke-linecap="round" opacity="0.842105" />
  <path d="M 270 252 Q 285.594 249.594 288 234" fill="none" stroke="#00d9ff" stroke-width="2.85714" stroke-linecap="round" opacity="0.873684" />
  <path d="M 288 252 Q 304.175 250.175 306 234" fill="none" stroke="#00d9ff" stroke-width="2.85714" stroke-linecap="round" opacity="0.905263" />
  <path d="M 306 252 Q 321.028 249.028 324 234" fill="none" stroke="#00d9ff" stroke-width="2.85714" stroke-linecap="round" opacity="0.936842" />
  <path d="M 324 252 Q 336.427 246.427 342 234" fill="none" stroke="#00d9ff" stroke-width="2.85714" stroke-linecap="round" opacity="0.968421" />
  <path d="M 342 252 Q 351 243 360 234" fill="none" stroke="#00d9ff" stroke-width="2.85714" stroke-linecap="round" />
  <path d="M 0 270 Q 9 261 18 252" fill="none" stroke="#00d9ff" stroke-width="3" stroke-linecap="round" opacity="0.4" />
  <path d="M 18 270 Q 30.4268 264.427 36 252" fill="none" stroke="#00d9ff" stroke-width="3" stroke-linecap="round" opacity="0.431579" />
  <path d="M 36 270 Q 51.0276 267.028 54 252" fill="none" stroke="#00d9ff" stroke-width="3" stroke-linecap="round" opacity="0.463158" />
  <path d="M 54 270 Q 70.1754 268.175 72 252" fill="none" stroke="#00d9ff" stroke-width="3" stroke-linecap="round" opacity="0.494737" />
  <path d="M 72 270 Q 87.5936 267.594 90 252" fill="none" stroke="#00d9ff" stroke-width="3" stroke-linecap="round" opacity="0.526316" />
  <path d="M 90 270 Q 103.422 265.422 108 252" fill="none" stroke="#00d9ff" stroke-width="3" stroke-linecap="round" opacity="0.557895" />
  <path d="M 108 270 Q 118.185 262.185 126 252" fill="none" stroke="#00d9ff" stroke-width="3" stroke-linecap="round" opacity="0.589474" />
  <path d="M 126 270 Q 132.662 258.662 144 252" fill="none" stroke="#00d9ff" stroke-width="3" stroke-linecap="round" opacity="0.621053" />
  <path d="M 144 270 Q 147.703 255.703 162 252" fill="none" stroke="#00d9ff" stroke-width="3" stroke-linecap="round" opacity="0.652632" />
  <path d="M 162 270 Q 164.02 254.02 180 252" fill="none" stroke="#00d9ff" stroke-width="3" stroke-linecap="round" opacity="0.684211" />
  <path d="M 180 270 Q 182.02 254.02 198 252" fill="none" stroke="#00d9ff" stroke-width="3" stroke-linecap="round" opacity="0.715789" />
  <path d="M 198 270 Q 201.703 255.703 216 252" fill="none" stroke="#00d9ff" stroke-width="3" stroke-linecap="round" opacity="0.747368" />
  <path d="M 216 270 Q 222.662 258.662 234 252" fill="none" stroke="#00d9ff" stroke-width="3" stroke-linecap="round" opacity="0.778947" />
  <path d="M 234 270 Q 244.185 262.185 252 252" fill="none" stroke="#00d9ff" stroke-width="3" stroke-linecap="round" opacity="0.810526" />
  <path d="M 252 270 Q 265.422 265.422 270 252" fill="none" stroke="#00d9ff" stroke-width="3" stroke-linecap="round" opacity="0.842105" />
  <path d="M 270 270 Q 285.594 267.594 288 252" fill="none" stroke="#00d9ff" stroke-width="3" stroke-linecap="round" opacity="0.873684" />
  <path d="M 288 270 Q 304.175 268.175 306 252" fill="none" stroke="#00d9ff" stroke-width="3" stroke-linecap="round" opacity="0.905263" />
  <path d="M 306 270 Q 321.028 267.028 324 252" fill="none" stroke="#00d9ff" stroke-width="3" stroke-linecap="round" opacity="0.936842" />
  <path d="M 324 270 Q 336.427 264.427 342 252" fill="none" stroke="#00d9ff" stroke-width="3" stroke-linecap="round" opacity="0.968421" />
  <path d="M 342 270 Q 351 261 360 252" fill="none" stroke="#00d9ff" stroke-width="3" stroke-linecap="round" />
</svg>