<?xml version="1.0" encoding="UTF-8"?>
<svg xmlns="http://www.w3.org/2000/svg" width="360" height="360" viewBox="0 0 360 360">
  <rect width="100%" height="100%" fill="#2d1b4e" />
  <polygon points="12,8.4 12.8464,10.835 15.4238,10.8875 13.3695,12.445 14.116,14.9125 12,13.44 9.88397,14.9125 10.6305,12.445 8.5762,10.8875 11.1536,10.835" fill="#efa00b" fill-opacity="0.3" stroke-opacity="0.3" />
  <polygon points="36,7.90547 36.9627,10.675 39.8941,10.7347 37.5577,12.5061 38.4067,15.3125 36,13.6378 33.5933,15.3125 34.4423,12.5061 32.1059,10.7347 35.0373,10.675" fill="#efa00b" fill-opacity="0.34808" stroke-opacity="0.34808" />
  <polygon points="60,7.45656 61.0682,10.5297 64.3211,10.596 61.7284,12.5616 62.6706,15.6757 60,13.8174 57.3294,15.6757 58.2716,12.5616 55.6789,10.596 58.9318,10.5297" fill="#efa00b" fill-opacity="0.391724" stroke-opacity="0.391724" />
  <polygon points="84,7.06376 85.1606,10.4026 88.6946,10.4746 85.8779,12.6102 86.9014,15.9935 84,13.9745 81.0986,15.9935 82.1221,12.6102 79.3054,10.4746 82.8394,10.4026" fill="#efa00b" fill-opacity="0.429912" stroke-opacity="0.429912" />
  <polygon points="108,6.73903 109.237,10.2975 113.003,10.3743 110.001,12.6503 111.092,16.2562 108,14.1044 104.908,16.2562 105.999,12.6503 102.997,10.3743 106.763,10.2975" fill="#efa00b" fill-opacity="0.461484" stroke-opacity="0.461484" />
  <polygon points="132,6.4949 133.294,10.2185 137.236,10.2988 134.094,12.6805 135.236,16.4537 132,14.202 128.764,16.4537 129.906,12.6805 126.764,10.2988 130.706,10.2185" fill="#efa00b" fill-opacity="0.485218" stroke-opacity="0.485218" />
  <polygon points="156,6.34286 157.33,10.1693 161.38,10.2518 158.152,12.6993 159.325,16.5767 156,14.2629 152.675,16.5767 153.848,12.6993 150.62,10.2518 154.67,10.1693" fill="#efa00b" fill-opacity="0.5" stroke-opacity="0.5" />
  <polygon points="180,6.29117 181.342,10.1526 185.429,10.2359 182.172,12.7057 183.356,16.6185 180,14.2835 176.644,16.6185 177.828,12.7057 174.571,10.2359 178.658,10.1526" fill="#efa00b" fill-opacity="0.505025" stroke-opacity="0.505025" />
  <polygon points="204,6.34286 205.33,10.1693 209.38,10.2518 206.152,12.6993 207.325,16.5767 204,14.2629 200.675,16.5767 201.848,12.6993 198.62,10.2518 202.67,10.1693" fill="#efa00b" fill-opacity="0.5" stroke-opacity="0.5" />
  <polygon points="228,6.4949 229.294,10.2185 233.236,10.2988 230.094,12.6805 231.236,16.4537 228,14.202 224.764,16.4537 225.906,12.6805 222.764,10.2988 226.706,10.2185" fill="#efa00b" fill-opacity="0.485218" stroke-opacity="0.485218" />
  <polygon points="252,6.73903 253.237,10.2975 257.003,10.3743 254.001,12.6503 255.092,16.2562 252,14.1044 248.908,16.2562 249.999,12.6503 246.997,10.3743 250.763,10.2975" fill="#efa00b" fill-opacity="0.461484" stroke-opacity="0.461484" />
  <polygon points="276,7.06376 277.161,10.4026 280.695,10.4746 277.878,12.6102 278.901,15.9935 276,13.9745 273.099,15.9935 274.122,12.6102 271.305,10.4746 274.839,10.4026" fill="#efa00b" fill-opacity="0.429912" stroke-opacity="0.429912" />
  <polygon points="300,7.45656 301.068,10.5297 304.321,10.596 301.728,12.5616 302.671,15.6757 300,13.8174 297.329,15.6757 298.272,12.5616 295.679,10.596 298.932,10.5297" fill="#efa00b" fill-opacity="0.391724" stroke-opacity="0.391724" />
  <polygon points="324,7.90547 324.963,10.675 327.894,10.7347 325.558,12.5061 326.407,15.3125 324,13.6378 321.593,15.3125 322.442,12.5061 320.106,10.7347 323.037,10.675" fill="#efa00b" fill-opacity="0.34808" stroke-opacity="0.34808" />
  <polygon points="348,8.4 348.846,10.835 351.424,10.8875 349.37,12.445 350.116,14.9125 348,13.44 345.884,14.9125 346.63,12.445 344.576,10.8875 347.154,10.835" fill="#efa00b" fill-opacity="0.3" stroke-opacity="0.3" />
  <polygon points="12,31.9055 12.9627,34.675 15.8941,34.7347 13.5577,36.5061 14.4067,39.3125 12,37.6378 9.59329,39.3125 10.4423,36.5061 8.10587,34.7347 11.0373,34.675" fill="#efa00b" fill-opacity="0.34808" stroke-opacity="0.34808" />
  <polygon points="36,31.3714 37.0882,34.5022 40.402,34.5697 37.7608,36.5721 38.7206,39.7446 36,37.8514 33.2794,39.7446 34.2392,36.5721 31.598,34.5697 34.9118,34.5022" fill="#efa00b" fill-opacity="0.4" stroke-opacity="0.4" />
  <polygon points="60,30.8805 61.2037,34.3433 64.869,34.418 61.9476,36.6328 63.0092,40.1418 60,38.0478 56.9908,40.1418 58.0524,36.6328 55.131,34.418 58.7963,34.3433" fill="#efa00b" fill-opacity="0.447732" stroke-opacity="0.447732" />
  <polygon points="84,30.4447 85.3061,34.2023 89.2834,34.2833 86.1134,36.6867 87.2653,40.4943 84,38.2221 80.7347,40.4943 81.8866,36.6867 78.7166,34.2833 82.6939,34.2023" fill="#efa00b" fill-opacity="0.490098" stroke-opacity="0.490098" />
  <polygon points="108,30.0789 109.392,34.0839 113.631,34.1703 110.253,36.7319 111.48,40.7902 108,38.3684 104.52,40.7902 105.747,36.7319 102.369,34.1703 106.608,34.0839" fill="#efa00b" fill-opacity="0.525658" stroke-opacity="0.525658" />
  <polygon points="132,29.7999 133.458,33.9936 137.897,34.0841 134.359,36.7664 135.644,41.016 132,38.48 128.356,41.016 129.641,36.7664 126.103,34.0841 130.542,33.9936" fill="#efa00b" fill-opacity="0.552786" stroke-opacity="0.552786" />
  <polygon points="156,29.6241 157.499,33.9367 162.064,34.0297 158.426,36.7881 159.748,41.1582 156,38.5504 152.252,41.1582 153.574,36.7881 149.936,34.0297 154.501,33.9367" fill="#efa00b" fill-opacity="0.569884" stroke-opacity="0.569884" />
  <polygon points="180,29.5639 181.513,33.9172 186.121,34.0111 182.448,36.7956 183.783,41.2069 180,38.5745 176.217,41.2069 177.552,36.7956 173.879,34.0111 178.487,33.9172" fill="#efa00b" fill-opacity="0.575736" stroke-opacity="0.575736" />
  <polygon points="204,29.6241 205.499,33.9367 210.064,34.0297 206.426,36.7881 207.748,41.1582 204,38.5504 200.252,41.1582 201.574,36.7881 197.936,34.0297 202.501,33.9367" fill="#efa00b" fill-opacity="0.569884" stroke-opacity="0.569884" />
  <polygon points="228,29.7999 229.458,33.9936 233.897,34.0841 230.359,36.7664 231.644,41.016 228,38.48 224.356,41.016 225.641,36.7664 222.103,34.0841 226.542,33.9936" fill="#efa00b" fill-opacity="0.552786" stroke-opacity="0.552786" />
  <polygon points="252,30.0789 253.392,34.0839 257.631,34.1703 254.253,36.7319 255.48,40.7902 252,38.3684 248.52,40.7902 249.747,36.7319 246.369,34.1703 250.608,34.0839" fill="#efa00b" fill-opacity="0.525658" stroke-opacity="0.525658" />
  <polygon points="276,30.4447 277.306,34.2023 281.283,34.2833 278.113,36.6867 279.265,40.4943 276,38.2221 272.735,40.4943 273.887,36.6867 270.717,34.2833 274.694,34.2023" fill="#efa00b" fill-opacity="0.490098" stroke-opacity="0.490098" />
  <polygon points="300,30.8805 301.204,34.3433 304.869,34.418 301.948,36.6328 303.009,40.1418 300,38.0478 296.991,40.1418 298.052,36.6328 295.131,34.418 298.796,34.3433" fill="#efa00b" fill-opacity="0.447732" stroke-opacity="0.447732" />
  <polygon points="324,31.3714 325.088,34.5022 328.402,34.5697 325.761,36.5721 326.721,39.7446 324,37.8514 321.279,39.7446 322.239,36.5721 319.598,34.5697 322.912,34.5022" fill="#efa00b" fill-opacity="0.4" stroke-opacity="0.4" />
  <polygon points="348,31.9055 348.963,34.675 351.894,34.7347 349.558,36.5061 350.407,39.3125 348,37.6378 345.593,39.3125 346.442,36.5061 344.106,34.7347 347.037,34.675" fill="#efa00b" fill-opacity="0.34808" stroke-opacity="0.34808" />
  <polygon points="12,55.4566 13.0682,58.5297 16.3211,58.596 13.7284,60.5616 14.6706,63.6757 12,61.8174 9.32943,63.6757 10.2716,60.5616 7.67893,58.596 10.9318,58.5297" fill="#efa00b" fill-opacity="0.391724" stroke-opacity="0.391724" />
  <polygon points="36,54.8805 37.2037,58.3433 40.869,58.418 37.9476,60.6328 39.0092,64.1418 36,62.0478 32.9908,64.1418 34.0524,60.6328 31.131,58.418 34.7963,58.3433" fill="#efa00b" fill-opacity="0.447732" stroke-opacity="0.447732" />
  <polygon points="60,54.3429 61.3301,58.1693 65.3803,58.2518 62.1521,60.6993 63.3252,64.5767 60,62.2629 56.6748,64.5767 57.8479,60.6993 54.6197,58.2518 58.6699,58.1693" fill="#efa00b" fill-opacity="0.5" stroke-opacity="0.5" />
  <polygon points="84,53.8571 85.4443,58.0121 89.8423,58.1017 86.3369,60.7593 87.6107,64.9697 84,62.4572 80.3893,64.9697 81.6631,60.7593 78.1577,58.1017 82.5557,58.0121" fill="#efa00b" fill-opacity="0.547231" stroke-opacity="0.547231" />
  <polygon points="108,53.4409 109.542,57.8774 114.238,57.9731 110.495,60.8107 111.855,65.3064 108,62.6236 104.145,65.3064 105.505,60.8107 101.762,57.9731 106.458,57.8774" fill="#efa00b" fill-opacity="0.587689" stroke-opacity="0.587689" />
  <polygon points="132,53.1167 133.618,57.7725 138.546,57.8729 134.619,60.8508 136.046,65.5687 132,62.7533 127.954,65.5687 129.381,60.8508 125.454,57.8729 130.382,57.7725" fill="#efa00b" fill-opacity="0.619211" stroke-opacity="0.619211" />
  <polygon points="156,52.9086 157.667,57.7052 162.744,57.8086 158.698,60.8765 160.168,65.7371 156,62.8366 151.832,65.7371 153.302,60.8765 149.256,57.8086 154.333,57.7052" fill="#efa00b" fill-opacity="0.639445" stroke-opacity="0.639445" />
  <polygon points="180,52.8365 181.684,57.6819 186.813,57.7864 182.725,60.8855 184.211,65.7954 180,62.8654 175.789,65.7954 177.275,60.8855 173.187,57.7864 178.316,57.6819" fill="#efa00b" fill-opacity="0.646447" stroke-opacity="0.646447" />
  <polygon points="204,52.9086 205.667,57.7052 210.744,57.8086 206.698,60.8765 208.168,65.7371 204,62.8366 199.832,65.7371 201.302,60.8765 197.256,57.8086 202.333,57.7052" fill="#efa00b" fill-opacity="0.639445" stroke-opacity="0.639445" />
  <polygon points="228,53.1167 229.618,57.7725 234.546,57.8729 230.619,60.8508 232.046,65.5687 228,62.7533 223.954,65.5687 225.381,60.8508 221.454,57.8729 226.382,57.7725" fill="#efa00b" fill-opacity="0.619211" stroke-opacity="0.619211" />
  <polygon points="252,53.4409 253.542,57.8774 258.238,57.9731 254.495,60.8107 255.855,65.3064 252,62.6236 248.145,65.3064 249.505,60.8107 245.762,57.9731 250.458,57.8774" fill="#efa00b" fill-opacity="0.587689" stroke-opacity="0.587689" />
  <polygon points="276,53.8571 277.444,58.0121 281.842,58.1017 278.337,60.7593 279.611,64.9697 276,62.4572 272.389,64.9697 273.663,60.7593 270.158,58.1017 274.556,58.0121" fill="#efa00b" fill-opacity="0.547231" stroke-opacity="0.547231" />
  <polygon points="300,54.3429 301.33,58.1693 305.38,58.2518 302.152,60.6993 303.325,64.5767 300,62.2629 296.675,64.5767 297.848,60.6993 294.62,58.2518 298.67,58.1693" fill="#efa00b" fill-opacity="0.5" stroke-opacity="0.5" />
  <polygon points="324,54.8805 325.204,58.3433 328.869,58.418 325.948,60.6328 327.009,64.1418 324,62.0478 320.991,64.1418 322.052,60.6328 319.131,58.418 322.796,58.3433" fill="#efa00b" fill-opacity="0.447732" stroke-opacity="0.447732" />
  <polygon points="348,55.4566 349.068,58.5297 352.321,58.596 349.728,60.5616 350.671,63.6757 348,61.8174 345.329,63.6757 346.272,60.5616 343.679,58.596 346.932,58.5297" fill="#efa00b" fill-opacity="0.391724" stroke-opacity="0.391724" />
  <polygon points="12,79.0638 13.1606,82.4026 16.6946,82.4746 13.8779,84.6102 14.9014,87.9935 12,85.9745 9.09855,87.9935 10.1221,84.6102 7.30536,82.4746 10.8394,82.4026" fill="#efa00b" fill-opacity="0.429912" stroke-opacity="0.429912" />
  <polygon points="36,78.4447 37.3061,82.2023 41.2834,82.2833 38.1134,84.6867 39.2653,88.4943 36,86.2221 32.7347,88.4943 33.8866,84.6867 30.7166,82.2833 34.6939,82.2023" fill="#efa00b" fill-opacity="0.490098" stroke-opacity="0.490098" />
  <polygon points="60,77.8571 61.4443,82.0121 65.8423,82.1017 62.3369,84.7593 63.6107,88.9697 60,86.4572 56.3893,88.9697 57.6631,84.7593 54.1577,82.1017 58.5557,82.0121" fill="#efa00b" fill-opacity="0.547231" stroke-opacity="0.547231" />
  <polygon points="84,77.3143 85.5719,81.8365 90.3585,81.934 86.5434,84.8264 87.9298,89.4089 84,86.6743 80.0702,89.4089 81.4566,84.8264 77.6415,81.934 82.4281,81.8365" fill="#efa00b" fill-opacity="0.6" stroke-opacity="0.6" />
  <polygon points="108,76.8365 109.684,81.6819 114.813,81.7864 110.725,84.8855 112.211,89.7954 108,86.8654 103.789,89.7954 105.275,84.8855 101.187,81.7864 106.316,81.6819" fill="#efa00b" fill-opacity="0.646447" stroke-opacity="0.646447" />
  <polygon points="132,76.4526 133.774,81.5576 139.178,81.6677 134.871,84.9329 136.436,90.106 132,87.0189 127.564,90.106 129.129,84.9329 124.822,81.6677 130.226,81.5576" fill="#ff6b35" fill-opacity="0.683772" stroke-opacity="0.683772" />
  <polygon points="156,76.1988 157.834,81.4755 163.419,81.5893 158.968,84.9643 160.585,90.3113 156,87.1205 151.415,90.3113 153.032,84.9643 148.581,81.5893 154.166,81.4755" fill="#ff6b35" fill-opacity="0.708452" stroke-opacity="0.708452" />
  <polygon points="180,76.1092 181.855,81.4465 187.505,81.5616 183.002,84.9754 184.638,90.3838 180,87.1563 175.362,90.3838 176.998,84.9754 172.495,81.5616 178.145,81.4465" fill="#ff6b35" fill-opacity="0.717157" stroke-opacity="0.717157" />
  <polygon points="204,76.1988 205.834,81.4755 211.419,81.5893 206.968,84.9643 208.585,90.3113 204,87.1205 199.415,90.3113 201.032,84.9643 196.581,81.5893 202.166,81.4755" fill="#ff6b35" fill-opacity="0.708452" stroke-opacity="0.708452" />
  <polygon points="228,76.4526 229.774,81.5576 235.178,81.6677 230.871,84.9329 232.436,90.106 228,87.0189 223.564,90.106 225.129,84.9329 220.822,81.6677 226.226,81.5576" fill="#ff6b35" fill-opacity="0.683772" stroke-opacity="0.683772" />
  <polygon points="252,76.8365 253.684,81.6819 258.813,81.7864 254.725,84.8855 256.211,89.7954 252,86.8654 247.789,89.7954 249.275,84.8855 245.187,81.7864 250.316,81.6819" fill="#efa00b" fill-opacity="0.646447" stroke-opacity="0.646447" />
  <polygon points="276,77.3143 277.572,81.8365 282.358,81.934 278.543,84.8264 279.93,89.4089 276,86.6743 272.07,89.4089 273.457,84.8264 269.642,81.934 274.428,81.8365" fill="#efa00b" fill-opacity="0.6" stroke-opacity="0.6" />
  <polygon points="300,77.8571 301.444,82.0121 305.842,82.1017 302.337,84.7593 303.611,88.9697 300,86.4572 296.389,88.9697 297.663,84.7593 294.158,82.1017 298.556,82.0121" fill="#efa00b" fill-opacity="0.547231" stroke-opacity="0.547231" />
  <polygon points="324,78.4447 325.306,82.2023 329.283,82.2833 326.113,84.6867 327.265,88.4943 324,86.2221 320.735,88.4943 321.887,84.6867 318.717,82.2833 322.694,82.2023" fill="#efa00b" fill-opacity="0.490098" stroke-opacity="0.490098" />
  <polygon points="348,79.0638 349.161,82.4026 352.695,82.4746 349.878,84.6102 350.901,87.9935 348,85.9745 345.099,87.9935 346.122,84.6102 343.305,82.4746 346.839,82.4026" fill="#efa00b" fill-opacity="0.429912" stroke-opacity="0.429912" />
  <polygon points="12,102.739 13.2369,106.298 17.0035,106.374 14.0014,108.65 15.0923,112.256 12,110.104 8.90768,112.256 9.99861,108.65 6.99652,106.374 10.7631,106.298" fill="#efa00b" fill-opacity="0.461484" stroke-opacity="0.461484" />
  <polygon points="36,102.079 37.3921,106.084 41.6313,106.17 38.2525,108.732 39.4803,112.79 36,110.368 32.5197,112.79 33.7475,108.732 30.3687,106.17 34.6079,106.084" fill="#efa00b" fill-opacity="0.525658" stroke-opacity="0.525658" />
  <polygon points="60,101.441 61.5421,105.877 66.2381,105.973 62.4952,108.811 63.8553,113.306 60,110.624 56.1447,113.306 57.5048,108.811 53.7619,105.973 58.4579,105.877" fill="#efa00b" fill-opacity="0.587689" stroke-opacity="0.587689" />
  <polygon points="84,100.837 85.6842,105.682 90.8128,105.786 86.7251,108.885 88.2106,113.795 84,110.865 79.7894,113.795 81.2749,108.885 77.1872,105.786 82.3158,105.682" fill="#efa00b" fill-opacity="0.646447" stroke-opacity="0.646447" />
  <polygon points="108,100.286 109.814,105.504 115.337,105.616 110.935,108.954 112.534,114.241 108,111.086 103.466,114.241 105.065,108.954 100.663,105.616 106.186,105.504" fill="#ff6b35" fill-opacity="0.7" stroke-opacity="0.7" />
  <polygon points="132,99.8224 133.923,105.354 139.777,105.473 135.111,109.011 136.807,114.616 132,111.271 127.193,114.616 128.889,109.011 124.223,105.473 130.077,105.354" fill="#ff6b35" fill-opacity="0.745049" stroke-opacity="0.745049" />
  <polygon points="156,99.5 157.998,105.249 164.084,105.373 159.234,109.051 160.996,114.877 156,111.4 151.004,114.877 152.766,109.051 147.916,105.373 154.002,105.249" fill="#ff6b35" fill-opacity="0.776393" stroke-opacity="0.776393" />
  <polygon points="180,99.3819 182.026,105.211 188.196,105.337 183.279,109.065 185.066,114.972 180,111.447 174.934,114.972 176.721,109.065 171.804,105.337 177.974,105.211" fill="#ff6b35" fill-opacity="0.787868" stroke-opacity="0.787868" />
  <polygon points="204,99.5 205.998,105.249 212.084,105.373 207.234,109.051 208.996,114.877 204,111.4 199.004,114.877 200.766,109.051 195.916,105.373 202.002,105.249" fill="#ff6b35" fill-opacity="0.776393" stroke-opacity="0.776393" />
  <polygon points="228,99.8224 229.923,105.354 235.777,105.473 231.111,109.011 232.807,114.616 228,111.271 223.193,114.616 224.889,109.011 220.223,105.473 226.077,105.354" fill="#ff6b35" fill-opacity="0.745049" stroke-opacity="0.745049" />
  <polygon points="252,100.286 253.814,105.504 259.337,105.616 254.935,108.954 256.534,114.241 252,111.086 247.466,114.241 249.065,108.954 244.663,105.616 250.186,105.504" fill="#ff6b35" fill-opacity="0.7" stroke-opacity="0.7" />
  <polygon points="276,100.837 277.684,105.682 282.813,105.786 278.725,108.885 280.211,113.795 276,110.865 271.789,113.795 273.275,108.885 269.187,105.786 274.316,105.682" fill="#efa00b" fill-opacity="0.646447" stroke-opacity="0.646447" />
  <polygon points="300,101.441 301.542,105.877 306.238,105.973 302.495,108.811 303.855,113.306 300,110.624 296.145,113.306 297.505,108.811 293.762,105.973 298.458,105.877" fill="#efa00b" fill-opacity="0.587689" stroke-opacity="0.587689" />
  <polygon points="324,102.079 325.392,106.084 329.631,106.17 326.253,108.732 327.48,112.79 324,110.368 320.52,112.79 321.747,108.732 318.369,106.17 322.608,106.084" fill="#efa00b" fill-opacity="0.525658" stroke-opacity="0.525658" />
  <polygon points="348,102.739 349.237,106.298 353.003,106.374 350.001,108.65 351.092,112.256 348,110.104 344.908,112.256 345.999,108.65 342.997,106.374 346.763,106.298" fill="#efa00b" fill-opacity="0.461484" stroke-opacity="0.461484" />
  <polygon points="12,126.495 13.2943,130.219 17.2357,130.299 14.0943,132.68 15.2358,136.454 12,134.202 8.76418,136.454 9.90573,132.68 6.76433,130.299 10.7057,130.219" fill="#efa00b" fill-opacity="0.485218" stroke-opacity="0.485218" />
  <polygon points="36,125.8 37.4577,129.994 41.8966,130.084 38.3587,132.766 39.6443,137.016 36,134.48 32.3557,137.016 33.6413,132.766 30.1034,130.084 34.5423,129.994" fill="#efa00b" fill-opacity="0.552786" stroke-opacity="0.552786" />
  <polygon points="60,125.117 61.6184,129.773 66.5464,129.873 62.6186,132.851 64.0459,137.569 60,134.753 55.9541,137.569 57.3814,132.851 53.4536,129.873 58.3816,129.773" fill="#efa00b" fill-opacity="0.619211" stroke-opacity="0.619211" />
  <polygon points="84,124.453 85.7745,129.558 91.178,129.668 86.8712,132.933 88.4362,138.106 84,135.019 79.5638,138.106 81.1288,132.933 76.822,129.668 82.2255,129.558" fill="#ff6b35" fill-opacity="0.683772" stroke-opacity="0.683772" />
  <polygon points="108,123.822 109.923,129.354 115.777,129.473 111.111,133.011 112.807,138.616 108,135.271 103.193,138.616 104.889,133.011 100.223,129.473 106.077,129.354" fill="#ff6b35" fill-opacity="0.745049" stroke-opacity="0.745049" />
  <polygon points="132,123.257 134.056,129.171 140.315,129.298 135.326,133.081 137.139,139.073 132,135.497 126.861,139.073 128.674,133.081 123.685,129.298 129.944,129.171" fill="#ff6b35" fill-opacity="0.8" stroke-opacity="0.8" />
  <polygon points="156,122.826 158.157,129.031 164.725,129.165 159.49,133.134 161.392,139.422 156,135.669 150.608,139.422 152.51,133.134 147.275,129.165 153.843,129.031" fill="#ff6b35" fill-opacity="0.841886" stroke-opacity="0.841886" />
  <polygon points="180,122.655 182.197,128.976 188.888,129.112 183.555,133.155 185.493,139.561 180,135.738 174.507,139.561 176.445,133.155 171.112,129.112 177.803,128.976" fill="#ff6b35" fill-opacity="0.858579" stroke-opacity="0.858579" />
  <polygon points="204,122.826 206.157,129.031 212.725,129.165 207.49,133.134 209.392,139.422 204,135.669 198.608,139.422 200.51,133.134 195.275,129.165 201.843,129.031" fill="#ff6b35" fill-opacity="0.841886" stroke-opacity="0.841886" />
  <polygon points="228,123.257 230.056,129.171 236.315,129.298 231.326,133.081 233.139,139.073 228,135.497 222.861,139.073 224.674,133.081 219.685,129.298 225.944,129.171" fill="#ff6b35" fill-opacity="0.8" stroke-opacity="0.8" />
  <polygon points="252,123.822 253.923,129.354 259.777,129.473 255.111,133.011 256.807,138.616 252,135.271 247.193,138.616 248.889,133.011 244.223,129.473 250.077,129.354" fill="#ff6b35" fill-opacity="0.745049" stroke-opacity="0.745049" />
  <polygon points="276,124.453 277.774,129.558 283.178,129.668 278.871,132.933 280.436,138.106 276,135.019 271.564,138.106 273.129,132.933 268.822,129.668 274.226,129.558" fill="#ff6b35" fill-opacity="0.683772" stroke-opacity="0.683772" />
  <polygon points="300,125.117 301.618,129.773 306.546,129.873 302.619,132.851 304.046,137.569 300,134.753 295.954,137.569 297.381,132.851 293.454,129.873 298.382,129.773" fill="#efa00b" fill-opacity="0.619211" stroke-opacity="0.619211" />
  <polygon points="324,125.8 325.458,129.994 329.897,130.084 326.359,132.766 327.644,137.016 324,134.48 320.356,137.016 321.641,132.766 318.103,130.084 322.542,129.994" fill="#efa00b" fill-opacity="0.552786" stroke-opacity="0.552786" />
  <polygon points="348,126.495 349.294,130.219 353.236,130.299 350.094,132.68 351.236,136.454 348,134.202 344.764,136.454 345.906,132.68 342.764,130.299 346.706,130.219" fill="#efa00b" fill-opacity="0.485218" stroke-opacity="0.485218" />
  <polygon points="12,150.343 13.3301,154.169 17.3803,154.252 14.1521,156.699 15.3252,160.577 12,158.263 8.67481,160.577 9.84789,156.699 6.61974,154.252 10.6699,154.169" fill="#efa00b" fill-opacity="0.5" stroke-opacity="0.5" />
  <polygon points="36,149.624 37.4991,153.937 42.0639,154.03 38.4256,156.788 39.7477,161.158 36,158.55 32.2523,161.158 33.5744,156.788 29.9361,154.03 34.5009,153.937" fill="#efa00b" fill-opacity="0.569884" stroke-opacity="0.569884" />
  <polygon points="60,148.909 61.6673,153.705 66.7444,153.809 62.6977,156.877 64.1682,161.737 60,158.837 55.8318,161.737 57.3023,156.877 53.2556,153.809 58.3327,153.705" fill="#efa00b" fill-opacity="0.639445" stroke-opacity="0.639445" />
  <polygon points="84,148.199 85.8342,153.475 91.4194,153.589 86.9678,156.964 88.5854,162.311 84,159.12 79.4146,162.311 81.0322,156.964 76.5806,153.589 82.1658,153.475" fill="#ff6b35" fill-opacity="0.708452" stroke-opacity="0.708452" />
  <polygon points="108,147.5 109.998,153.249 116.084,153.373 111.234,157.051 112.996,162.877 108,159.4 103.004,162.877 104.766,157.051 99.916,153.373 106.002,153.249" fill="#ff6b35" fill-opacity="0.776393" stroke-opacity="0.776393" />
  <polygon points="132,146.826 134.157,153.031 140.725,153.165 135.49,157.134 137.392,163.422 132,159.669 126.608,163.422 128.51,157.134 123.275,153.165 129.843,153.031" fill="#ff6b35" fill-opacity="0.841886" stroke-opacity="0.841886" />
  <polygon points="156,146.229 158.297,152.838 165.293,152.98 159.717,157.208 161.744,163.905 156,159.909 150.256,163.905 152.283,157.208 146.707,152.98 153.703,152.838" fill="#ff6b35" fill-opacity="0.9" stroke-opacity="0.9" />
  <polygon points="180,145.927 182.368,152.74 189.58,152.887 183.832,157.245 185.921,164.149 180,160.029 174.079,164.149 176.168,157.245 170.42,152.887 177.632,152.74" fill="#ff6b35" fill-opacity="0.929289" stroke-opacity="0.929289" />
  <polygon points="204,146.229 206.297,152.838 213.293,152.98 207.717,157.208 209.744,163.905 204,159.909 198.256,163.905 200.283,157.208 194.707,152.98 201.703,152.838" fill="#ff6b35" fill-opacity="0.9" stroke-opacity="0.9" />
  <polygon points="228,146.826 230.157,153.031 236.725,153.165 231.49,157.134 233.392,163.422 228,159.669 222.608,163.422 224.51,157.134 219.275,153.165 225.843,153.031" fill="#ff6b35" fill-opacity="0.841886" stroke-opacity="0.841886" />
  <polygon points="252,147.5 253.998,153.249 260.084,153.373 255.234,157.051 256.996,162.877 252,159.4 247.004,162.877 248.766,157.051 243.916,153.373 250.002,153.249" fill="#ff6b35" fill-opacity="0.776393" stroke-opacity="0.776393" />
  <polygon points="276,148.199 277.834,153.475 283.419,153.589 278.968,156.964 280.585,162.311 276,159.12 271.415,162.311 273.032,156.964 268.581,153.589 274.166,153.475" fill="#ff6b35" fill-opacity="0.708452" stroke-opacity="0.708452" />
  <polygon points="300,148.909 301.667,153.705 306.744,153.809 302.698,156.877 304.168,161.737 300,158.837 295.832,161.737 297.302,156.877 293.256,153.809 298.333,153.705" fill="#efa00b" fill-opacity="0.639445" stroke-opacity="0.639445" />
  <polygon points="324,149.624 325.499,153.937 330.064,154.03 326.426,156.788 327.748,161.158 324,158.55 320.252,161.158 321.574,156.788 317.936,154.03 322.501,153.937" fill="#efa00b" fill-opacity="0.569884" stroke-opacity="0.569884" />
  <polygon points="348,150.343 349.33,154.169 353.38,154.252 350.152,156.699 351.325,160.577 348,158.263 344.675,160.577 345.848,156.699 342.62,154.252 346.67,154.169" fill="#efa00b" fill-opacity="0.5" stroke-opacity="0.5" />
  <polygon points="12,174.291 13.3422,178.153 17.4294,178.236 14.1718,180.706 15.3556,184.619 12,182.284 8.64443,184.619 9.82823,180.706 6.57058,178.236 10.6578,178.153" fill="#efa00b" fill-opacity="0.505025" stroke-opacity="0.505025" />
  <polygon points="36,173.564 37.5132,177.917 42.1211,178.011 38.4485,180.796 39.7831,185.207 36,182.574 32.2169,185.207 33.5515,180.796 29.8789,178.011 34.4868,177.917" fill="#efa00b" fill-opacity="0.575736" stroke-opacity="0.575736" />
  <polygon points="60,172.837 61.6842,177.682 66.8128,177.786 62.7251,180.885 64.2106,185.795 60,182.865 55.7894,185.795 57.2749,180.885 53.1872,177.786 58.3158,177.682" fill="#efa00b" fill-opacity="0.646447" stroke-opacity="0.646447" />
  <polygon points="84,172.109 85.8552,177.446 91.5046,177.562 87.0018,180.975 88.6381,186.384 84,183.156 79.3619,186.384 80.9982,180.975 76.4954,177.562 82.1448,177.446" fill="#ff6b35" fill-opacity="0.717157" stroke-opacity="0.717157" />
  <polygon points="108,171.382 110.026,177.211 116.196,177.337 111.279,181.065 113.066,186.972 108,183.447 102.934,186.972 104.721,181.065 99.8037,177.337 105.974,177.211" fill="#ff6b35" fill-opacity="0.787868" stroke-opacity="0.787868" />
  <polygon points="132,170.655 134.197,176.976 140.888,177.112 135.555,181.155 137.493,187.561 132,183.738 126.507,187.561 128.445,181.155 123.112,177.112 129.803,176.976" fill="#ff6b35" fill-opacity="0.858579" stroke-opacity="0.858579" />
  <polygon points="156,169.927 158.368,176.74 165.58,176.887 159.832,181.245 161.921,188.149 156,184.029 150.079,188.149 152.168,181.245 146.42,176.887 153.632,176.74" fill="#ff6b35" fill-opacity="0.929289" stroke-opacity="0.929289" />
  <polygon points="180,169.2 182.539,176.505 190.271,176.663 184.109,181.335 186.348,188.737 180,184.32 173.652,188.737 175.891,181.335 169.729,176.663 177.461,176.505" fill="#ff6b35" />
  <polygon points="204,169.927 206.368,176.74 213.58,176.887 207.832,181.245 209.921,188.149 204,184.029 198.079,188.149 200.168,181.245 194.42,176.887 201.632,176.74" fill="#ff6b35" fill-opacity="0.929289" stroke-opacity="0.929289" />
  <polygon points="228,170.655 230.197,176.976 236.888,177.112 231.555,181.155 233.493,187.561 228,183.738 222.507,187.561 224.445,181.155 219.112,177.112 225.803,176.976" fill="#ff6b35" fill-opacity="0.858579" stroke-opacity="0.858579" />
  <polygon points="252,171.382 254.026,177.211 260.196,177.337 255.279,181.065 257.066,186.972 252,183.447 246.934,186.972 248.721,181.065 243.804,177.337 249.974,177.211" fill="#ff6b35" fill-opacity="0.787868" stroke-opacity="0.787868" />
  <polygon points="276,172.109 277.855,177.446 283.505,177.562 279.002,180.975 280.638,186.384 276,183.156 271.362,186.384 272.998,180.975 268.495,177.562 274.145,177.446" fill="#ff6b35" fill-opacity="0.717157" stroke-opacity="0.717157" />
  <polygon points="300,172.837 301.684,177.682 306.813,177.786 302.725,180.885 304.211,185.795 300,182.865 295.789,185.795 297.275,180.885 293.187,177.786 298.316,177.682" fill="#efa00b" fill-opacity="0.646447" stroke-opacity="0.646447" />
  <polygon points="324,173.564 325.513,177.917 330.121,178.011 326.448,180.796 327.783,185.207 324,182.574 320.217,185.207 321.552,180.796 317.879,178.011 322.487,177.917" fill="#efa00b" fill-opacity="0.575736" stroke-opacity="0.575736" />
  <polygon points="348,174.291 349.342,178.153 353.429,178.236 350.172,180.706 351.356,184.619 348,182.284 344.644,184.619 345.828,180.706 342.571,178.236 346.658,178.153" fill="#efa00b" fill-opacity="0.505025" stroke-opacity="0.505025" />
  <polygon points="12,198.343 13.3301,202.169 17.3803,202.252 14.1521,204.699 15.3252,208.577 12,206.263 8.67481,208.577 9.84789,204.699 6.61974,202.252 10.6699,202.169" fill="#efa00b" fill-opacity="0.5" stroke-opacity="0.5" />
  <polygon points="36,197.624 37.4991,201.937 42.0639,202.03 38.4256,204.788 39.7477,209.158 36,206.55 32.2523,209.158 33.5744,204.788 29.9361,202.03 34.5009,201.937" fill="#efa00b" fill-opacity="0.569884" stroke-opacity="0.569884" />
  <polygon points="60,196.909 61.6673,201.705 66.7444,201.809 62.6977,204.877 64.1682,209.737 60,206.837 55.8318,209.737 57.3023,204.877 53.2556,201.809 58.3327,201.705" fill="#efa00b" fill-opacity="0.639445" stroke-opacity="0.639445" />
  <polygon points="84,196.199 85.8342,201.475 91.4194,201.589 86.9678,204.964 88.5854,210.311 84,207.12 79.4146,210.311 81.0322,204.964 76.5806,201.589 82.1658,201.475" fill="#ff6b35" fill-opacity="0.708452" stroke-opacity="0.708452" />
  <polygon points="108,195.5 109.998,201.249 116.084,201.373 111.234,205.051 112.996,210.877 108,207.4 103.004,210.877 104.766,205.051 99.916,201.373 106.002,201.249" fill="#ff6b35" fill-opacity="0.776393" stroke-opacity="0.776393" />
  <polygon points="132,194.826 134.157,201.031 140.725,201.165 135.49,205.134 137.392,211.422 132,207.669 126.608,211.422 128.51,205.134 123.275,201.165 129.843,201.031" fill="#ff6b35" fill-opacity="0.841886" stroke-opacity="0.841886" />
  <polygon points="156,194.229 158.297,200.838 165.293,200.98 159.717,205.208 161.744,211.905 156,207.909 150.256,211.905 152.283,205.208 146.707,200.98 153.703,200.838" fill="#ff6b35" fill-opacity="0.9" stroke-opacity="0.9" />
  <polygon points="180,193.927 182.368,200.74 189.58,200.887 183.832,205.245 185.921,212.149 180,208.029 174.079,212.149 176.168,205.245 170.42,200.887 177.632,200.74" fill="#ff6b35" fill-opacity="0.929289" stroke-opacity="0.929289" />
  <polygon points="204,194.229 206.297,200.838 213.293,200.98 207.717,205.208 209.744,211.905 204,207.909 198.256,211.905 200.283,205.208 194.707,200.98 201.703,200.838" fill="#ff6b35" fill-opacity="0.9" stroke-opacity="0.9" />
  <polygon points="228,194.826 230.157,201.031 236.725,201.165 231.49,205.134 233.392,211.422 228,207.669 222.608,211.422 224.51,205.134 219.275,201.165 225.843,201.031" fill="#ff6b35" fill-opacity="0.841886" stroke-opacity="0.841886" />
  <polygon points="252,195.5 253.998,201.249 260.084,201.373 255.234,205.051 256.996,210.877 252,207.4 247.004,210.877 248.766,205.051 243.916,201.373 250.002,201.249" fill="#ff6b35" fill-opacity="0.776393" stroke-opacity="0.776393" />
  <polygon points="276,196.199 277.834,201.475 283.419,201.589 278.968,204.964 280.585,210.311 276,207.12 271.415,210.311 273.032,204.964 268.581,201.589 274.166,201.475" fill="#ff6b35" fill-opacity="0.708452" stroke-opacity="0.708452" />
  <polygon points="300,196.909 301.667,201.705 306.744,201.809 302.698,204.877 304.168,209.737 300,206.837 295.832,209.737 297.302,204.877 293.256,201.809 298.333,201.705" fill="#efa00b" fill-opacity="0.639445" stroke-opacity="0.639445" />
  <polygon points="324,197.624 325.499,201.937 330.064,202.03 326.426,204.788 327.748,209.158 324,206.55 320.252,209.158 321.574,204.788 317.936,202.03 322.501,201.937" fill="#efa00b" fill-opacity="0.569884" stroke-opacity="0.569884" />
  <polygon points="348,198.343 349.33,202.169 353.38,202.252 350.152,204.699 351.325,208.577 348,206.263 344.675,208.577 345.848,204.699 342.62,202.252 346.67,202.169" fill="#efa00b" fill-opacity="0.5" stroke-opacity="0.5" />
  <polygon points="12,222.495 13.2943,226.219 17.2357,226.299 14.0943,228.68 15.2358,232.454 12,230.202 8.76418,232.454 9.90573,228.68 6.76433,226.299 10.7057,226.219" fill="#efa00b" fill-opacity="0.485218" stroke-opacity="0.485218" />
  <polygon points="36,221.8 37.4577,225.994 41.8966,226.084 38.3587,228.766 39.6443,233.016 36,230.48 32.3557,233.016 33.6413,228.766 30.1034,226.084 34.5423,225.994" fill="#efa00b" fill-opacity="0.552786" stroke-opacity="0.552786" />
  <polygon points="60,221.117 61.6184,225.773 66.5464,225.873 62.6186,228.851 64.0459,233.569 60,230.753 55.9541,233.569 57.3814,228.851 53.4536,225.873 58.3816,225.773" fill="#efa00b" fill-opacity="0.619211" stroke-opacity="0.619211" />
  <polygon points="84,220.453 85.7745,225.558 91.178,225.668 86.8712,228.933 88.4362,234.106 84,231.019 79.5638,234.106 81.1288,228.933 76.822,225.668 82.2255,225.558" fill="#ff6b35" fill-opacity="0.683772" stroke-opacity="0.683772" />
  <polygon points="108,219.822 109.923,225.354 115.777,225.473 111.111,229.011 112.807,234.616 108,231.271 103.193,234.616 104.889,229.011 100.223,225.473 106.077,225.354" fill="#ff6b35" fill-opacity="0.745049" stroke-opacity="0.745049" />
  <polygon points="132,219.257 134.056,225.171 140.315,225.298 135.326,229.081 137.139,235.073 132,231.497 126.861,235.073 128.674,229.081 123.685,225.298 129.944,225.171" fill="#ff6b35" fill-opacity="0.8" stroke-opacity="0.8" />
  <polygon points="156,218.826 158.157,225.031 164.725,225.165 159.49,229.134 161.392,235.422 156,231.669 150.608,235.422 152.51,229.134 147.275,225.165 153.843,225.031" fill="#ff6b35" fill-opacity="0.841886" stroke-opacity="0.841886" />
  <polygon points="180,218.655 182.197,224.976 188.888,225.112 183.555,229.155 185.493,235.561 180,231.738 174.507,235.561 176.445,229.155 171.112,225.112 177.803,224.976" fill="#ff6b35" fill-opacity="0.858579" stroke-opacity="0.858579" />
  <polygon points="204,218.826 206.157,225.031 212.725,225.165 207.49,229.134 209.392,235.422 204,231.669 198.608,235.422 200.51,229.134 195.275,225.165 201.843,225.031" fill="#ff6b35" fill-opacity="0.841886" stroke-opacity="0.841886" />
  <polygon points="228,219.257 230.056,225.171 236.315,225.298 231.326,229.081 233.139,235.073 228,231.497 222.861,235.073 224.674,229.081 219.685,225.298 225.944,225.171" fill="#ff6b35" fill-opacity="0.8" stroke-opacity="0.8" />
  <polygon points="252,219.822 253.923,225.354 259.777,225.473 255.111,229.011 256.807,234.616 252,231.271 247.193,234.616 248.889,229.011 244.223,225.473 250.077,225.354" fill="#ff6b35" fill-opacity="0.745049" stroke-opacity="0.745049" />
  <polygon points="276,220.453 277.774,225.558 283.178,225.668 278.871,228.933 280.436,234.106 276,231.019 271.564,234.106 273.129,228.933 268.822,225.668 274.226,225.558" fill="#ff6b35" fill-opacity="0.683772" stroke-opacity="0.683772" />
  <polygon points="300,221.117 301.618,225.773 306.546,225.873 302.619,228.851 304.046,233.569 300,230.753 295.954,233.569 297.381,228.851 293.454,225.873 298.382,225.773" fill="#efa00b" fill-opacity="0.619211" stroke-opacity="0.619211" />
  <polygon points="324,221.8 325.458,225.994 329.897,226.084 326.359,228.766 327.644,233.016 324,230.48 320.356,233.016 321.641,228.766 318.103,226.084 322.542,225.994" fill="#efa00b" fill-opacity="0.552786" stroke-opacity="0.552786" />
  <polygon points="348,222.495 349.294,226.219 353.236,226.299 350.094,228.68 351.236,232.454 348,230.202 344.764,232.454 345.906,228.68 342.764,226.299 346.706,226.219" fill="#efa00b" fill-opacity="0.485218" stroke-opacity="0.485218" />
  <polygon points="12,246.739 13.2369,250.298 17.0035,250.374 14.0014,252.65 15.0923,256.256 12,254.104 8.90768,256.256 9.99861,252.65 6.99652,250.374 10.7631,250.298" fill="#efa00b" fill-opacity="0.461484" stroke-opacity="0.461484" />
  <polygon points="36,246.079 37.3921,250.084 41.6313,250.17 38.2525,252.732 39.4803,256.79 36,254.368 32.5197,256.79 33.7475,252.732 30.3687,250.17 34.6079,250.084" fill="#efa00b" fill-opacity="0.525658" stroke-opacity="0.525658" />
  <polygon points="60,245.441 61.5421,249.877 66.2381,249.973 62.4952,252.811 63.8553,257.306 60,254.624 56.1447,257.306 57.5048,252.811 53.7619,249.973 58.4579,249.877" fill="#efa00b" fill-opacity="0.587689" stroke-opacity="0.587689" />
  <polygon points="84,244.837 85.6842,249.682 90.8128,249.786 86.7251,252.885 88.2106,257.795 84,254.865 79.7894,257.795 81.2749,252.885 77.1872,249.786 82.3158,249.682" fill="#efa00b" fill-opacity="0.646447" stroke-opacity="0.646447" />
  <polygon points="108,244.286 109.814,249.504 115.337,249.616 110.935,252.954 112.534,258.241 108,255.086 103.466,258.241 105.065,252.954 100.663,249.616 106.186,249.504" fill="#ff6b35" fill-opacity="0.7" stroke-opacity="0.7" />
  <polygon points="132,243.822 133.923,249.354 139.777,249.473 135.111,253.011 136.807,258.616 132,255.271 127.193,258.616 128.889,253.011 124.223,249.473 130.077,249.354" fill="#ff6b35" fill-opacity="0.745049" stroke-opacity="0.745049" />
  <polygon points="156,243.5 157.998,249.249 164.084,249.373 159.234,253.051 160.996,258.877 156,255.4 151.004,258.877 152.766,253.051 147.916,249.373 154.002,249.249" fill="#ff6b35" fill-opacity="0.776393" stroke-opacity="0.776393" />
  <polygon points="180,243.382 182.026,249.211 188.196,249.337 183.279,253.065 185.066,258.972 180,255.447 174.934,258.972 176.721,253.065 171.804,249.337 177.974,249.211" fill="#ff6b35" fill-opacity="0.787868" stroke-opacity="0.787868" />
  <polygon points="204,243.5 205.998,249.249 212.084,249.373 207.234,253.051 208.996,258.877 204,255.4 199.004,258.877 200.766,253.051 195.916,249.373 202.002,249.249" fill="#ff6b35" fill-opacity="0.776393" stroke-opacity="0.776393" />
  <polygon points="228,243.822 229.923,249.354 235.777,249.473 231.111,253.011 232.807,258.616 228,255.271 223.193,258.616 224.889,253.011 220.223,249.473 226.077,249.354" fill="#ff6b35" fill-opacity="0.745049" stroke-opacity="0.745049" />
  <polygon points="252,244.286 253.814,249.504 259.337,249.616 254.935,252.954 256.534,258.241 252,255.086 247.466,258.241 249.065,252.954 244.663,249.616 250.186,249.504" fill="#ff6b35" fill-opacity="0.7" stroke-opacity="0.7" />
  <polygon points="276,244.837 277.684,249.682 282.813,249.786 278.725,252.885 280.211,257.795 276,254.865 271.789,257.795 273.275,252.885 269.187,249.786 274.316,249.682" fill="#efa00b" fill-opacity="0.646447" stroke-opacity="0.646447" />
  <polygon points="300,245.441 301.542,249.877 306.238,249.973 302.495,252.811 303.855,257.306 300,254.624 296.145,257.306 297.505,252.811 293.762,249.973 298.458,249.877" fill="#efa00b" fill-opacity="0.587689" stroke-opacity="0.587689" />
  <polygon points="324,246.079 325.392,250.084 329.631,250.17 326.253,252.732 327.48,256.79 324,254.368 320.52,256.79 321.747,252.732 318.369,250.17 322.608,250.084" fill="#efa00b" fill-opacity="0.525658" stroke-opacity="0.525658" />
  <polygon points="348,246.739 349.237,250.298 353.003,250.374 350.001,252.65 351.092,256.256 348,254.104 344.908,256.256 345.999,252.65 342.997,250.374 346.763,250.298" fill="#efa00b" fill-opacity="0.461484" stroke-opacity="0.461484" />
  <polygon points="12,271.064 13.1606,274.403 16.6946,274.475 13.8779,276.61 14.9014,279.994 12,277.974 9.09855,279.994 10.1221,276.61 7.30536,274.475 10.8394,274.403" fill="#efa00b" fill-opacity="0.429912" stroke-opacity="0.429912" />
  <polygon points="36,270.445 37.3061,274.202 41.2834,274.283 38.1134,276.687 39.2653,280.494 36,278.222 32.7347,280.494 33.8866,276.687 30.7166,274.283 34.6939,274.202" fill="#efa00b" fill-opacity="0.490098" stroke-opacity="0.490098" />
  <polygon points="60,269.857 61.4443,274.012 65.8423,274.102 62.3369,276.759 63.6107,280.97 60,278.457 56.3893,280.97 57.6631,276.759 54.1577,274.102 58.5557,274.012" fill="#efa00b" fill-opacity="0.547231" stroke-opacity="0.547231" />
  <polygon points="84,269.314 85.5719,273.836 90.3585,273.934 86.5434,276.826 87.9298,281.409 84,278.674 80.0702,281.409 81.4566,276.826 77.6415,273.934 82.4281,273.836" fill="#efa00b" fill-opacity="0.6" stroke-opacity="0.6" />
  <polygon points="108,268.837 109.684,273.682 114.813,273.786 110.725,276.885 112.211,281.795 108,278.865 103.789,281.795 105.275,276.885 101.187,273.786 106.316,273.682" fill="#efa00b" fill-opacity="0.646447" stroke-opacity="0.646447" />
  <polygon points="132,268.453 133.774,273.558 139.178,273.668 134.871,276.933 136.436,282.106 132,279.019 127.564,282.106 129.129,276.933 124.822,273.668 130.226,273.558" fill="#ff6b35" fill-opacity="0.683772" stroke-opacity="0.683772" />
  <polygon points="156,268.199 157.834,273.475 163.419,273.589 158.968,276.964 160.585,282.311 156,279.12 151.415,282.311 153.032,276.964 148.581,273.589 154.166,273.475" fill="#ff6b35" fill-opacity="0.708452" stroke-opacity="0.708452" />
  <polygon points="180,268.109 181.855,273.446 187.505,273.562 183.002,276.975 184.638,282.384 180,279.156 175.362,282.384 176.998,276.975 172.495,273.562 178.145,273.446" fill="#ff6b35" fill-opacity="0.717157" stroke-opacity="0.717157" />
  <polygon points="204,268.199 205.834,273.475 211.419,273.589 206.968,276.964 208.585,282.311 204,279.12 199.415,282.311 201.032,276.964 196.581,273.589 202.166,273.475" fill="#ff6b35" fill-opacity="0.708452" stroke-opacity="0.708452" />
  <polygon points="228,268.453 229.774,273.558 235.178,273.668 230.871,276.933 232.436,282.106 228,279.019 223.564,282.106 225.129,276.933 220.822,273.668 226.226,273.558" fill="#ff6b35" fill-opacity="0.683772" stroke-opacity="0.683772" />
  <polygon points="252,268.837 253.684,273.682 258.813,273.786 254.725,276.885 256.211,281.795 252,278.865 247.789,281.795 249.275,276.885 245.187,273.786 250.316,273.682" fill="#efa00b" fill-opacity="0.646447" stroke-opacity="0.646447" />
  <polygon points="276,269.314 277.572,273.836 282.358,273.934 278.543,276.826 279.93,281.409 276,278.674 272.07,281.409 273.457,276.826 269.642,273.934 274.428,273.836" fill="#efa00b" fill-opacity="0.6" stroke-opacity="0.6" />
  <polygon points="300,269.857 301.444,274.012 305.842,274.102 302.337,276.759 303.611,280.97 300,278.457 296.389,280.97 297.663,276.759 294.158,274.102 298.556,274.012" fill="#efa00b" fill-opacity="0.547231" stroke-opacity="0.547231" />
  <polygon points="324,270.445 325.306,274.202 329.283,274.283 326.113,276.687 327.265,280.494 324,278.222 320.735,280.494 321.887,276.687 318.717,274.283 322.694,274.202" fill="#efa00b" fill-opacity="0.490098" stroke-opacity="0.490098" />
  <polygon points="348,271.064 349.161,274.403 352.695,274.475 349.878,276.61 350.901,279.994 348,277.974 345.099,279.994 346.122,276.61 343.305,274.475 346.839,274.403" fill="#efa00b" fill-opacity="0.429912" stroke-opacity="0.429912" />
  <polygon points="12,295.457 13.0682,298.53 16.3211,298.596 13.7284,300.562 14.6706,303.676 12,301.817 9.32943,303.676 10.2716,300.562 7.67893,298.596 10.9318,298.53" fill="#efa00b" fill-opacity="0.391724" stroke-opacity="0.391724" />
  <polygon points="36,294.88 37.2037,298.343 40.869,298.418 37.9476,300.633 39.0092,304.142 36,302.048 32.9908,304.142 34.0524,300.633 31.131,298.418 34.7963,298.343" fill="#efa00b" fill-opacity="0.447732" stroke-opacity="0.447732" />
  <polygon points="60,294.343 61.3301,298.169 65.3803,298.252 62.1521,300.699 63.3252,304.577 60,302.263 56.6748,304.577 57.8479,300.699 54.6197,298.252 58.6699,298.169" fill="#efa00b" fill-opacity="0.5" stroke-opacity="0.5" />
  <polygon points="84,293.857 85.4443,298.012 89.8423,298.102 86.3369,300.759 87.6107,304.97 84,302.457 80.3893,304.97 81.6631,300.759 78.1577,298.102 82.5557,298.012" fill="#efa00b" fill-opacity="0.547231" stroke-opacity="0.547231" />
  <polygon points="108,293.441 109.542,297.877 114.238,297.973 110.495,300.811 111.855,305.306 108,302.624 104.145,305.306 105.505,300.811 101.762,297.973 106.458,297.877" fill="#efa00b" fill-opacity="0.587689" stroke-opacity="0.587689" />
  <polygon points="132,293.117 133.618,297.773 138.546,297.873 134.619,300.851 136.046,305.569 132,302.753 127.954,305.569 129.381,300.851 125.454,297.873 130.382,297.773" fill="#efa00b" fill-opacity="0.619211" stroke-opacity="0.619211" />
  <polygon points="156,292.909 157.667,297.705 162.744,297.809 158.698,300.877 160.168,305.737 156,302.837 151.832,305.737 153.302,300.877 149.256,297.809 154.333,297.705" fill="#efa00b" fill-opacity="0.639445" stroke-opacity="0.639445" />
  <polygon points="180,292.837 181.684,297.682 186.813,297.786 182.725,300.885 184.211,305.795 180,302.865 175.789,305.795 177.275,300.885 173.187,297.786 178.316,297.682" fill="#efa00b" fill-opacity="0.646447" stroke-opacity="0.646447" />
  <polygon points="204,292.909 205.667,297.705 210.744,297.809 206.698,300.877 208.168,305.737 204,302.837 199.832,305.737 201.302,300.877 197.256,297.809 202.333,297.705" fill="#efa00b" fill-opacity="0.639445" stroke-opacity="0.639445" />
  <polygon points="228,293.117 229.618,297.773 234.546,297.873 230.619,300.851 232.046,305.569 228,302.753 223.954,305.569 225.381,300.851 221.454,297.873 226.382,297.773" fill="#efa00b" fill-opacity="0.619211" stroke-opacity="0.619211" />
  <polygon points="252,293.441 253.542,297.877 258.238,297.973 254.495,300.811 255.855,305.306 252,302.624 248.145,305.306 249.505,300.811 245.762,297.973 250.458,297.877" fill="#efa00b" fill-opacity="0.587689" stroke-opacity="0.587689" />
  <polygon points="276,293.857 277.444,298.012 281.842,298.102 278.337,300.759 279.611,304.97 276,302.457 272.389,304.97 273.663,300.759 270.158,298.102 274.556,298.012" fill="#efa00b" fill-opacity="0.547231" stroke-opacity="0.547231" />
  <polygon points="300,294.343 301.33,298.169 305.38,298.252 302.152,300.699 303.325,304.577 300,302.263 296.675,304.577 297.848,300.699 294.62,298.252 298.67,298.169" fill="#efa00b" fill-opacity="0.5" stroke-opacity="0.5" />
  <polygon points="324,294.88 325.204,298.343 328.869,298.418 325.948,300.633 327.009,304.142 324,302.048 320.991,304.142 322.052,300.633 319.131,298.418 322.796,298.343" fill="#efa00b" fill-opacity="0.447732" stroke-opacity="0.447732" />
  <polygon points="348,295.457 349.068,298.53 352.321,298.596 349.728,300.562 350.671,303.676 348,301.817 345.329,303.676 346.272,300.562 343.679,298.596 346.932,298.53" fill="#efa00b" fill-opacity="0.391724" stroke-opacity="0.391724" />
  <polygon points="12,319.905 12.9627,322.675 15.8941,322.735 13.5577,324.506 14.4067,327.313 12,325.638 9.59329,327.313 10.4423,324.506 8.10587,322.735 11.0373,322.675" fill="#efa00b" fill-opacity="0.34808" stroke-opacity="0.34808" />
  <polygon points="36,319.371 37.0882,322.502 40.402,322.57 37.7608,324.572 38.7206,327.745 36,325.851 33.2794,327.745 34.2392,324.572 31.598,322.57 34.9118,322.502" fill="#efa00b" fill-opacity="0.4" stroke-opacity="0.4" />
  <polygon points="60,318.88 61.2037,322.343 64.869,322.418 61.9476,324.633 63.0092,328.142 60,326.048 56.9908,328.142 58.0524,324.633 55.131,322.418 58.7963,322.343" fill="#efa00b" fill-opacity="0.447732" stroke-opacity="0.447732" />
  <polygon points="84,318.445 85.3061,322.202 89.2834,322.283 86.1134,324.687 87.2653,328.494 84,326.222 80.7347,328.494 81.8866,324.687 78.7166,322.283 82.6939,322.202" fill="#efa00b" fill-opacity="0.490098" stroke-opacity="0.490098" />
  <polygon points="108,318.079 109.392,322.084 113.631,322.17 110.253,324.732 111.48,328.79 108,326.368 104.52,328.79 105.747,324.732 102.369,322.17 106.608,322.084" fill="#efa00b" fill-opacity="0.525658" stroke-opacity="0.525658" />
  <polygon points="132,317.8 133.458,321.994 137.897,322.084 134.359,324.766 135.644,329.016 132,326.48 128.356,329.016 129.641,324.766 126.103,322.084 130.542,321.994" fill="#efa00b" fill-opacity="0.552786" stroke-opacity="0.552786" />
  <polygon points="156,317.624 157.499,321.937 162.064,322.03 158.426,324.788 159.748,329.158 156,326.55 152.252,329.158 153.574,324.788 149.936,322.03 154.501,321.937" fill="#efa00b" fill-opacity="0.569884" stroke-opacity="0.569884" />
  <polygon points="180,317.564 181.513,321.917 186.121,322.011 182.448,324.796 183.783,329.207 180,326.574 176.217,329.207 177.552,324.796 173.879,322.011 178.487,321.917" fill="#efa00b" fill-opacity="0.575736" stroke-opacity="0.575736" />
  <polygon points="204,317.624 205.499,321.937 210.064,322.03 206.426,324.788 207.748,329.158 204,326.55 200.252,329.158 201.574,324.788 197.936,322.03 202.501,321.937" fill="#efa00b" fill-opacity="0.569884" stroke-opacity="0.569884" />
  <polygon points="228,317.8 229.458,321.994 233.897,322.084 230.359,324.766 231.644,329.016 228,326.48 224.356,329.016 225.641,324.766 222.103,322.084 226.542,321.994" fill="#efa00b" fill-opacity="0.552786" stroke-opacity="0.552786" />
  <polygon points="252,318.079 253.392,322.084 257.631,322.17 254.253,324.732 255.48,328.79 252,326.368 248.52,328.79 249.747,324.732 246.369,322.17 250.608,322.084" fill="#efa00b" fill-opacity="0.525658" stroke-opacity="0.525658" />
  <polygon points="276,318.445 277.306,322.202 281.283,322.283 278.113,324.687 279.265,328.494 276,326.222 272.735,328.494 273.887,324.687 270.717,322.283 274.694,322.202" fill="#efa00b" fill-opacity="0.490098" stroke-opacity="0.490098" />
  <polygon points="300,318.88 301.204,322.343 304.869,322.418 301.948,324.633 303.009,328.142 300,326.048 296.991,328.142 298.052,324.633 295.131,322.418 298.796,322.343" fill="#efa00b" fill-opacity="0.447732" stroke-opacity="0.447732" />
  <polygon points="324,319.371 325.088,322.502 328.402,322.57 325.761,324.572 326.721,327.745 324,325.851 321.279,327.745 322.239,324.572 319.598,322.57 322.912,322.502" fill="#efa00b" fill-opacity="0.4" stroke-opacity="0.4" />
  <polygon points="348,319.905 348.963,322.675 351.894,322.735 349.558,324.506 350.407,327.313 348,325.638 345.593,327.313 346.442,324.506 344.106,322.735 347.037,322.675" fill="#efa00b" fill-opacity="0.34808" stroke-opacity="0.34808" />
  <polygon points="12,344.4 12.8464,346.835 15.4238,346.888 13.3695,348.445 14.116,350.912 12,349.44 9.88397,350.912 10.6305,348.445 8.5762,346.888 11.1536,346.835" fill="#efa00b" fill-opacity="0.3" stroke-opacity="0.3" />
  <polygon points="36,343.905 36.9627,346.675 39.8941,346.735 37.5577,348.506 38.4067,351.313 36,349.638 33.5933,351.313 34.4423,348.506 32.1059,346.735 35.0373,346.675" fill="#efa00b" fill-opacity="0.34808" stroke-opacity="0.34808" />
  <polygon points="60,343.457 61.0682,346.53 64.3211,346.596 61.7284,348.562 62.6706,351.676 60,349.817 57.3294,351.676 58.2716,348.562 55.6789,346.596 58.9318,346.53" fill="#efa00b" fill-opacity="0.391724" stroke-opacity="0.391724" />
  <polygon points="84,343.064 85.1606,346.403 88.6946,346.475 85.8779,348.61 86.9014,351.994 84,349.974 81.0986,351.994 82.1221,348.61 79.3054,346.475 82.8394,346.403" fill="#efa00b" fill-opacity="0.429912" stroke-opacity="0.429912" />
  <polygon points="108,342.739 109.237,346.298 113.003,346.374 110.001,348.65 111.092,352.256 108,350.104 104.908,352.256 105.999,348.65 102.997,346.374 106.763,346.298" fill="#efa00b" fill-opacity="0.461484" stroke-opacity="0.461484" />
  <polygon points="132,342.495 133.294,346.219 137.236,346.299 134.094,348.68 135.236,352.454 132,350.202 128.764,352.454 129.906,348.68 126.764,346.299 130.706,346.219" fill="#efa00b" fill-opacity="0.485218" stroke-opacity="0.485218" />
  <polygon points="156,342.343 157.33,346.169 161.38,346.252 158.152,348.699 159.325,352.577 156,350.263 152.675,352.577 153.848,348.699 150.62,346.252 154.67,346.169" fill="#efa00b" fill-opacity="0.5" stroke-opacity="0.5" />
  <polygon points="180,342.291 181.342,346.153 185.429,346.236 182.172,348.706 183.356,352.619 180,350.284 176.644,352.619 177.828,348.706 174.571,346.236 178.658,346.153" fill="#efa00b" fill-opacity="0.505025" stroke-opacity="0.505025" />
  <polygon points="204,342.343 205.33,346.169 209.38,346.252 206.152,348.699 207.325,352.577 204,350.263 200.675,352.577 201.848,348.699 198.62,346.252 202.67,346.169" fill="#efa00b" fill-opacity="0.5" stroke-opacity="0.5" />
  <polygon points="228,342.495 229.294,346.219 233.236,346.299 230.094,348.68 231.236,352.454 228,350.202 224.764,352.454 225.906,348.68 222.764,346.299 226.706,346.219" fill="#efa00b" fill-opacity="0.485218" stroke-opacity="0.485218" />
  <polygon points="252,342.739 253.237,346.298 257.003,346.374 254.001,348.65 255.092,352.256 252,350.104 248.908,352.256 249.999,348.65 246.997,346.374 250.763,346.298" fill="#efa00b" fill-opacity="0.461484" stroke-opacity="0.461484" />
  <polygon points="276,343.064 277.161,346.403 280.695,346.475 277.878,348.61 278.901,351.994 276,349.974 273.099,351.994 274.122,348.61 271.305,346.475 274.839,346.403" fill="#efa00b" fill-opacity="0.429912" stroke-opacity="0.429912" />
  <polygon points="300,343.457 301.068,346.53 304.321,346.596 301.728,348.562 302.671,351.676 300,349.817 297.329,351.676 298.272,348.562 295.679,346.596 298.932,346.53" fill="#efa00b" fill-opacity="0.391724" stroke-opacity="0.391724" />
  <polygon points="324,343.905 324.963,346.675 327.894,346.735 325.558,348.506 326.407,351.313 324,349.638 321.593,351.313 322.442,348.506 320.106,346.735 323.037,346.675" fill="#efa00b" fill-opacity="0.34808" stroke-opacity="0.34808" />
  <polygon points="348,344.4 348.846,346.835 351.424,346.888 349.37,348.445 350.116,350.912 348,349.44 345.884,350.912 346.63,348.445 344.576,346.888 347.154,346.835" fill="#efa00b" fill-opacity="0.3" stroke-opacity="0.3" />
</svg>