<?xml version="1.0" encoding="UTF-8"?>
<svg xmlns="http://www.w3.org/2000/svg" width="360" height="360" viewBox="0 0 360 360">
  <rect width="100%" height="100%" fill="#1a1a2e" />
  <polygon points="24.7428,20.625 15,26.25 5.25721,20.625 5.25721,9.375 15,3.75 24.7428,9.375" fill="#ff6b6b" fill-opacity="0.5" stroke-opacity="0.5" />
  <polygon points="54.7428,20.625 45,26.25 35.2572,20.625 35.2572,9.375 45,3.75 54.7428,9.375" fill="#4ecdc4" fill-opacity="0.522727" stroke-opacity="0.522727" transform="rotate(2.72727 45 15)" />
  <polygon points="84.7428,20.625 75,26.25 65.2572,20.625 65.2572,9.375 75,3.75 84.7428,9.375" fill="#4ecdc4" fill-opacity="0.545455" stroke-opacity="0.545455" transform="rotate(5.45455 75 15)" />
  <polygon points="114.743,20.625 105,26.25 95.2572,20.625 95.2572,9.375 105,3.75 114.743,9.375" fill="#ff6b6b" fill-opacity="0.568182" stroke-opacity="0.568182" transform="rotate(8.18182 105 15)" />
  <polygon points="144.743,20.625 135,26.25 125.257,20.625 125.257,9.375 135,3.75 144.743,9.375" fill="#4ecdc4" fill-opacity="0.590909" stroke-opacity="0.590909" transform="rotate(10.9091 135 15)" />
  <polygon points="174.743,20.625 165,26.25 155.257,20.625 155.257,9.375 165,3.75 174.743,9.375" fill="#4ecdc4" fill-opacity="0.613636" stroke-opacity="0.613636" transform="rotate(13.6364 165 15)" />
  <polygon points="204.743,20.625 195,26.25 185.257,20.625 185.257,9.375 195,3.75 204.743,9.375" fill="#ff6b6b" fill-opacity="0.636364" stroke-opacity="0.636364" transform="rotate(16.3636 195 15)" />
  <polygon points="234.743,20.625 225,26.25 215.257,20.625 215.257,9.375 225,3.75 234.743,9.375" fill="#4ecdc4" fill-opacity="0.659091" stroke-opacity="0.659091" transform="rotate(19.0909 225 15)" />
  <polygon points="264.743,20.625 255,26.25 245.257,20.625 245.257,9.375 255,3.75 264.743,9.375" fill="#4ecdc4" fill-opacity="0.681818" stroke-opacity="0.681818" transform="rotate(21.8182 255 15)" />
  <polygon points="294.743,20.625 285,26.25 275.257,20.625 275.257,9.375 285,3.75 294.743,9.375" fill="#ff6b6b" fill-opacity="0.704545" stroke-opacity="0.704545" transform="rotate(24.5455 285 15)" />
  <polygon points="324.743,20.625 315,26.25 305.257,20.625 305.257,9.375 315,3.75 324.743,9.375" fill="#4ecdc4" fill-opacity="0.727273" stroke-opacity="0.727273" transform="rotate(27.2727 315 15)" />
  <polygon points="354.743,20.625 345,26.25 335.257,20.625 335.257,9.375 345,3.75 354.743,9.375" fill="#4ecdc4" fill-opacity="0.75" stroke-opacity="0.75" transform="rotate(30 345 15)" />
  <polygon points="24.7428,50.625 15,56.25 5.25721,50.625 5.25721,39.375 15,33.75 24.7428,39.375" fill="#4ecdc4" fill-opacity="0.522727" stroke-opacity="0.522727" transform="rotate(2.72727 15 45)" />
  <polygon points="54.7428,50.625 45,56.25 35.2572,50.625 35.2572,39.375 45,33.75 54.7428,39.375" fill="#4ecdc4" fill-opacity="0.545455" stroke-opacity="0.545455" transform="rotate(5.45455 45 45)" />
  <polygon points="84.7428,50.625 75,56.25 65.2572,50.625 65.2572,39.375 75,33.75 84.7428,39.375" fill="#ff6b6b" fill-opacity="0.568182" stroke-opacity="0.568182" transform="rotate(8.18182 75 45)" />
  <polygon points="114.743,50.625 105,56.25 95.2572,50.625 95.2572,39.375 105,33.75 114.743,39.375" fill="#4ecdc4" fill-opacity="0.590909" stroke-opacity="0.590909" transform="rotate(10.9091 105 45)" />
  <polygon points="144.743,50.625 135,56.25 125.257,50.625 125.257,39.375 135,33.75 144.743,39.375" fill="#4ecdc4" fill-opacity="0.613636" stroke-opacity="0.613636" transform="rotate(13.6364 135 45)" />
  <polygon points="174.743,50.625 165,56.25 155.257,50.625 155.257,39.375 165,33.75 174.743,39.375" fill="#ff6b6b" fill-opacity="0.636364" stroke-opacity="0.636364" transform="rotate(16.3636 165 45)" />
  <polygon points="204.743,50.625 195,56.25 185.257,50.625 185.257,39.375 195,33.75 204.743,39.375" fill="#4ecdc4" fill-opacity="0.659091" stroke-opacity="0.659091" transform="rotate(19.0909 195 45)" />
  <polygon points="234.743,50.625 225,56.25 215.257,50.625 215.257,39.375 225,33.75 234.743,39.375" fill="#4ecdc4" fill-opacity="0.681818" stroke-opacity="0.681818" transform="rotate(21.8182 225 45)" />
  <polygon points="264.743,50.625 255,56.25 245.257,50.625 245.257,39.375 255,33.75 264.743,39.375" fill="#ff6b6b" fill-opacity="0.704545" stroke-opacity="0.704545" transform="rotate(24.5455 255 45)" />
  <polygon points="294.743,50.625 285,56.25 275.257,50.625 275.257,39.375 285,33.75 294.743,39.375" fill="#4ecdc4" fill-opacity="0.727273" stroke-opacity="0.727273" transform="rotate(27.2727 285 45)" />
  <polygon points="324.743,50.625 315,56.25 305.257,50.625 305.257,39.375 315,33.75 324.743,39.375" fill="#4ecdc4" fill-opacity="0.75" stroke-opacity="0.75" transform="rotate(30 315 45)" />
  <polygon points="354.743,50.625 345,56.25 335.257,50.625 335.257,39.375 345,33.75 354.743,39.375" fill="#ff6b6b" fill-opacity="0.772727" stroke-opacity="0.772727" transform="rotate(32.7273 345 45)" />
  <polygon points="24.7428,80.625 15,86.25 5.25721,80.625 5.25721,69.375 15,63.75 24.7428,69.375" fill="#4ecdc4" fill-opacity="0.545455" stroke-opacity="0.545455" transform="rotate(5.45455 15 75)" />
  <polygon points="54.7428,80.625 45,86.25 35.2572,80.625 35.2572,69.375 45,63.75 54.7428,69.375" fill="#ff6b6b" fill-opacity="0.568182" stroke-opacity="0.568182" transform="rotate(8.18182 45 75)" />
  <polygon points="84.7428,80.625 75,86.25 65.2572,80.625 65.2572,69.375 75,63.75 84.7428,69.375" fill="#4ecdc4" fill-opacity="0.590909" stroke-opacity="0.590909" transform="rotate(10.9091 75 75)" />
  <polygon points="114.743,80.625 105,86.25 95.2572,80.625 95.2572,69.375 105,63.75 114.743,69.375" fill="#4ecdc4" fill-opacity="0.613636" stroke-opacity="0.613636" transform="rotate(13.6364 105 75)" />
  <polygon points="144.743,80.625 135,86.25 125.257,80.625 125.257,69.375 135,63.75 144.743,69.375" fill="#ff6b6b" fill-opacity="0.636364" stroke-opacity="0.636364" transform="rotate(16.3636 135 75)" />
  <polygon points="174.743,80.625 165,86.25 155.257,80.625 155.257,69.375 165,63.75 174.743,69.375" fill="#4ecdc4" fill-opacity="0.659091" stroke-opacity="0.659091" transform="rotate(19.0909 165 75)" />
  <polygon points="204.743,80.625 195,86.25 185.257,80.625 185.257,69.375 195,63.75 204.743,69.375" fill="#4ecdc4" fill-opacity="0.681818" stroke-opacity="0.681818" transform="rotate(21.8182 195 75)" />
  <polygon points="234.743,80.625 225,86.25 215.257,80.625 215.257,69.375 225,63.75 234.743,69.375" fill="#ff6b6b" fill-opacity="0.704545" stroke-opacity="0.704545" transform="rotate(24.5455 225 75)" />
  <polygon points="264.743,80.625 255,86.25 245.257,80.625 245.257,69.375 255,63.75 264.743,69.375" fill="#4ecdc4" fill-opacity="0.727273" stroke-opacity="0.727273" transform="rotate(27.2727 255 75)" />
  <polygon points="294.743,80.625 285,86.25 275.257,80.625 275.257,69.375 285,63.75 294.743,69.375" fill="#4ecdc4" fill-opacity="0.75" stroke-opacity="0.75" transform="rotate(30 285 75)" />
  <polygon points="324.743,80.625 315,86.25 305.257,80.625 305.257,69.375 315,63.75 324.743,69.375" fill="#ff6b6b" fill-opacity="0.772727" stroke-opacity="0.772727" transform="rotate(32.7273 315 75)" />
  <polygon points="354.743,80.625 345,86.25 335.257,80.625 335.257,69.375 345,63.75 354.743,69.375" fill="#4ecdc4" fill-opacity="0.795455" stroke-opacity="0.795455" transform="rotate(35.4545 345 75)" />
  <polygon points="24.7428,110.625 15,116.25 5.25721,110.625 5.25721,99.375 15,93.75 24.7428,99.375" fill="#ff6b6b" fill-opacity="0.568182" stroke-opacity="0.568182" transform="rotate(8.18182 15 105)" />
  <polygon points="54.7428,110.625 45,116.25 35.2572,110.625 35.2572,99.375 45,93.75 54.7428,99.375" fill="#4ecdc4" fill-opacity="0.590909" stroke-opacity="0.590909" transform="rotate(10.9091 45 105)" />
  <polygon points="84.7428,110.625 75,116.25 65.2572,110.625 65.2572,99.375 75,93.75 84.7428,99.375" fill="#4ecdc4" fill-opacity="0.613636" stroke-opacity="0.613636" transform="rotate(13.6364 75 105)" />
  <polygon points="114.743,110.625 105,116.25 95.2572,110.625 95.2572,99.375 105,93.75 114.743,99.375" fill="#ff6b6b" fill-opacity="0.636364" stroke-opacity="0.636364" transform="rotate(16.3636 105 105)" />
  <polygon points="144.743,110.625 135,116.25 125.257,110.625 125.257,99.375 135,93.75 144.743,99.375" fill="#4ecdc4" fill-opacity="0.659091" stroke-opacity="0.659091" transform="rotate(19.0909 135 105)" />
  <polygon points="174.743,110.625 165,116.25 155.257,110.625 155.257,99.375 165,93.75 174.743,99.375" fill="#4ecdc4" fill-opacity="0.681818" stroke-opacity="0.681818" transform="rotate(21.8182 165 105)" />
  <polygon points="204.743,110.625 195,116.25 185.257,110.625 185.257,99.375 195,93.75 204.743,99.375" fill="#ff6b6b" fill-opacity="0.704545" stroke-opacity="0.704545" transform="rotate(24.5455 195 105)" />
  <polygon points="234.743,110.625 225,116.25 215.257,110.625 215.257,99.375 225,93.75 234.743,99.375" fill="#4ecdc4" fill-opacity="0.727273" stroke-opacity="0.727273" transform="rotate(27.2727 225 105)" />
  <polygon points="264.743,110.625 255,116.25 245.257,110.625 245.257,99.375 255,93.75 264.743,99.375" fill="#4ecdc4" fill-opacity="0.75" stroke-opacity="0.75" transform="rotate(30 255 105)" />
  <polygon points="294.743,110.625 285,116.25 275.257,110.625 275.257,99.375 285,93.75 294.743,99.375" fill="#ff6b6b" fill-opacity="0.772727" stroke-opacity="0.772727" transform="rotate(32.7273 285 105)" />
  <polygon points="324.743,110.625 315,116.25 305.257,110.625 305.257,99.375 315,93.75 324.743,99.375" fill="#4ecdc4" fill-opacity="0.795455" stroke-opacity="0.795455" transform="rotate(35.4545 315 105)" />
  <polygon points="354.743,110.625 345,116.25 335.257,110.625 335.257,99.375 345,93.75 354.743,99.375" fill="#4ecdc4" fill-opacity="0.818182" stroke-opacity="0.818182" transform="rotate(38.1818 345 105)" />
  <polygon points="24.7428,140.625 15,146.25 5.25721,140.625 5.25721,129.375 15,123.75 24.7428,129.375" fill="#4ecdc4" fill-opacity="0.590909" stroke-opacity="0.590909" transform="rotate(10.9091 15 135)" />
  <polygon points="54.7428,140.625 45,146.25 35.2572,140.625 35.2572,129.375 45,123.75 54.7428,129.375" fill="#4ecdc4" fill-opacity="0.613636" stroke-opacity="0.613636" transform="rotate(13.6364 45 135)" />
  <polygon points="84.7428,140.625 75,146.25 65.2572,140.625 65.2572,129.375 75,123.75 84.7428,129.375" fill="#ff6b6b" fill-opacity="0.636364" stroke-opacity="0.636364" transform="rotate(16.3636 75 135)" />
  <polygon points="114.743,140.625 105,146.25 95.2572,140.625 95.2572,129.375 105,123.75 114.743,129.375" fill="#4ecdc4" fill-opacity="0.659091" stroke-opacity="0.659091" transform="rotate(19.0909 105 135)" />
  <polygon points="144.743,140.625 135,146.25 125.257,140.625 125.257,129.375 135,123.75 144.743,129.375" fill="#4ecdc4" fill-opacity="0.681818" stroke-opacity="0.681818" transform="rotate(21.8182 135 135)" />
  <polygon points="174.743,140.625 165,146.25 155.257,140.625 155.257,129.375 165,123.75 174.743,129.375" fill="#ff6b6b" fill-opacity="0.704545" stroke-opacity="0.704545" transform="rotate(24.5455 165 135)" />
  <polygon points="204.743,140.625 195,146.25 185.257,140.625 185.257,129.375 195,123.75 204.743,129.375" fill="#4ecdc4" fill-opacity="0.727273" stroke-opacity="0.727273" transform="rotate(27.2727 195 135)" />
  <polygon points="234.743,140.625 225,146.25 215.257,140.625 215.257,129.375 225,123.75 234.743,129.375" fill="#4ecdc4" fill-opacity="0.75" stroke-opacity="0.75" transform="rotate(30 225 135)" />
  <polygon points="264.743,140.625 255,146.25 245.257,140.625 245.257,129.375 255,123.75 264.743,129.375" fill="#ff6b6b" fill-opacity="0.772727" stroke-opacity="0.772727" transform="rotate(32.7273 255 135)" />
  <polygon points="294.743,140.625 285,146.25 275.257,140.625 275.257,129.375 285,123.75 294.743,129.375" fill="#4ecdc4" fill-opacity="0.795455" stroke-opacity="0.795455" transform="rotate(35.4545 285 135)" />
  <polygon points="324.743,140.625 315,146.25 305.257,140.625 305.257,129.375 315,123.75 324.743,129.375" fill="#4ecdc4" fill-opacity="0.818182" stroke-opacity="0.818182" transform="rotate(38.1818 315 135)" />
  <polygon points="354.743,140.625 345,146.25 335.257,140.625 335.257,129.375 345,123.75 354.743,129.375" fill="#ff6b6b" fill-opacity="0.840909" stroke-opacity="0.840909" transform="rotate(40.9091 345 135)" />
  <polygon points="24.7428,170.625 15,176.25 5.25721,170.625 5.25721,159.375 15,153.75 24.7428,159.375" fill="#4ecdc4" fill-opacity="0.613636" stroke-opacity="0.613636" transform="rotate(13.6364 15 165)" />
  <polygon points="54.7428,170.625 45,176.25 35.2572,170.625 35.2572,159.375 45,153.75 54.7428,159.375" fill="#ff6b6b" fill-opacity="0.636364" stroke-opacity="0.636364" transform="rotate(16.3636 45 165)" />
  <polygon points="84.7428,170.625 75,176.25 65.2572,170.625 65.2572,159.375 75,153.75 84.7428,159.375" fill="#4ecdc4" fill-opacity="0.659091" stroke-opacity="0.659091" transform="rotate(19.0909 75 165)" />
  <polygon points="114.743,170.625 105,176.25 95.2572,170.625 95.2572,159.375 105,153.75 114.743,159.375" fill="#4ecdc4" fill-opacity="0.681818" stroke-opacity="0.681818" transform="rotate(21.8182 105 165)" />
  <polygon points="144.743,170.625 135,176.25 125.257,170.625 125.257,159.375 135,153.75 144.743,159.375" fill="#ff6b6b" fill-opacity="0.704545" stroke-opacity="0.704545" transform="rotate(24.5455 135 165)" />
  <polygon points="174.743,170.625 165,176.25 155.257,170.625 155.257,159.375 165,153.75 174.743,159.375" fill="#4ecdc4" fill-opacity="0.727273" stroke-opacity="0.727273" transform="rotate(27.2727 165 165)" />
  <polygon points="204.743,170.625 195,176.25 185.257,170.625 185.257,159.375 195,153.75 204.743,159.375" fill="#4ecdc4" fill-opacity="0.75" stroke-opacity="0.75" transform="rotate(30 195 165)" />
  <polygon points="234.743,170.625 225,176.25 215.257,170.625 215.257,159.375 225,153.75 234.743,159.375" fill="#ff6b6b" fill-opacity="0.772727" stroke-opacity="0.772727" transform="rotate(32.7273 225 165)" />
  <polygon points="264.743,170.625 255,176.25 245.257,170.625 245.257,159.375 255,153.75 264.743,159.375" fill="#4ecdc4" fill-opacity="0.795455" stroke-opacity="0.795455" transform="rotate(35.4545 255 165)" />
  <polygon points="294.743,170.625 285,176.25 275.257,170.625 275.257,159.375 285,153.75 294.743,159.375" fill="#4ecdc4" fill-opacity="0.818182" stroke-opacity="0.818182" transform="rotate(38.1818 285 165)" />
  <polygon points="324.743,170.625 315,176.25 305.257,170.625 305.257,159.375 315,153.75 324.743,159.375" fill="#ff6b6b" fill-opacity="0.840909" stroke-opacity="0.840909" transform="rotate(40.9091 315 165)" />
  <polygon points="354.743,170.625 345,176.25 335.257,170.625 335.257,159.375 345,153.75 354.743,159.375" fill="#4ecdc4" fill-opacity="0.863636" stroke-opacity="0.863636" transform="rotate(43.6364 345 165)" />
  <polygon points="24.7428,200.625 15,206.25 5.25721,200.625 5.25721,189.375 15,183.75 24.7428,189.375" fill="#ff6b6b" fill-opacity="0.636364" stroke-opacity="0.636364" transform="rotate(16.3636 15 195)" />
  <polygon points="54.7428,200.625 45,206.25 35.2572,200.625 35.2572,189.375 45,183.75 54.7428,189.375" fill="#4ecdc4" fill-opacity="0.659091" stroke-opacity="0.659091" transform="rotate(19.0909 45 195)" />
  <polygon points="84.7428,200.625 75,206.25 65.2572,200.625 65.2572,189.375 75,183.75 84.7428,189.375" fill="#4ecdc4" fill-opacity="0.681818" stroke-opacity="0.681818" transform="rotate(21.8182 75 195)" />
  <polygon points="114.743,200.625 105,206.25 95.2572,200.625 95.2572,189.375 105,183.75 114.743,189.375" fill="#ff6b6b" fill-opacity="0.704545" stroke-opacity="0.704545" transform="rotate(24.5455 105 195)" />
  <polygon points="144.743,200.625 135,206.25 125.257,200.625 125.257,189.375 135,183.75 144.743,189.375" fill="#4ecdc4" fill-opacity="0.727273" stroke-opacity="0.727273" transform="rotate(27.2727 135 195)" />
  <polygon points="174.743,200.625 165,206.25 155.257,200.625 155.257,189.375 165,183.75 174.743,189.375" fill="#4ecdc4" fill-opacity="0.75" stroke-opacity="0.75" transform="rotate(30 165 195)" />
  <polygon points="204.743,200.625 195,206.25 185.257,200.625 185.257,189.375 195,183.75 204.743,189.375" fill="#ff6b6b" fill-opacity="0.772727" stroke-opacity="0.772727" transform="rotate(32.7273 195 195)" />
  <polygon points="234.743,200.625 225,206.25 215.257,200.625 215.257,189.375 225,183.75 234.743,189.375" fill="#4ecdc4" fill-opacity="0.795455" stroke-opacity="0.795455" transform="rotate(35.4545 225 195)" />
  <polygon points="264.743,200.625 255,206.25 245.257,200.625 245.257,189.375 255,183.75 264.743,189.375" fill="#4ecdc4" fill-opacity="0.818182" stroke-opacity="0.818182" transform="rotate(38.1818 255 195)" />
  <polygon points="294.743,200.625 285,206.25 275.257,200.625 275.257,189.375 285,183.75 294.743,189.375" fill="#ff6b6b" fill-opacity="0.840909" stroke-opacity="0.840909" transform="rotate(40.9091 285 195)" />
  <polygon points="324.743,200.625 315,206.25 305.257,200.625 305.257,189.375 315,183.75 324.743,189.375" fill="#4ecdc4" fill-opacity="0.863636" stroke-opacity="0.863636" transform="rotate(43.6364 315 195)" />
  <polygon points="354.743,200.625 345,206.25 335.257,200.625 335.257,189.375 345,183.75 354.743,189.375" fill="#4ecdc4" fill-opacity="0.886364" stroke-opacity="0.886364" transform="rotate(46.3636 345 195)" />
  <polygon points="24.7428,230.625 15,236.25 5.25721,230.625 5.25721,219.375 15,213.75 24.7428,219.375" fill="#4ecdc4" fill-opacity="0.659091" stroke-opacity="0.659091" transform="rotate(19.0909 15 225)" />
  <polygon points="54.7428,230.625 45,236.25 35.2572,230.625 35.2572,219.375 45,213.75 54.7428,219.375" fill="#4ecdc4" fill-opacity="0.681818" stroke-opacity="0.681818" transform="rotate(21.8182 45 225)" />
  <polygon points="84.7428,230.625 75,236.25 65.2572,230.625 65.2572,219.375 75,213.75 84.7428,219.375" fill="#ff6b6b" fill-opacity="0.704545" stroke-opacity="0.704545" transform="rotate(24.5455 75 225)" />
  <polygon points="114.743,230.625 105,236.25 95.2572,230.625 95.2572,219.375 105,213.75 114.743,219.375" fill="#4ecdc4" fill-opacity="0.727273" stroke-opacity="0.727273" transform="rotate(27.2727 105 225)" />
  <polygon points="144.743,230.625 135,236.25 125.257,230.625 125.257,219.375 135,213.75 144.743,219.375" fill="#4ecdc4" fill-opacity="0.75" stroke-opacity="0.75" transform="rotate(30 135 225)" />
  <polygon points="174.743,230.625 165,236.25 155.257,230.625 155.257,219.375 165,213.75 174.743,219.375" fill="#ff6b6b" fill-opacity="0.772727" stroke-opacity="0.772727" transform="rotate(32.7273 165 225)" />
  <polygon points="204.743,230.625 195,236.25 185.257,230.625 185.257,219.375 195,213.75 204.743,219.375" fill="#4ecdc4" fill-opacity="0.795455" stroke-opacity="0.795455" transform="rotate(35.4545 195 225)" />
  <polygon points="234.743,230.625 225,236.25 215.257,230.625 215.257,219.375 225,213.75 234.743,219.375" fill="#4ecdc4" fill-opacity="0.818182" stroke-opacity="0.818182" transform="rotate(38.1818 225 225)" />
  <polygon points="264.743,230.625 255,236.25 245.257,230.625 245.257,219.375 255,213.75 264.743,219.375" fill="#ff6b6b" fill-opacity="0.840909" stroke-opacity="0.840909" transform="rotate(40.9091 255 225)" />
  <polygon points="294.743,230.625 285,236.25 275.257,230.625 275.257,219.375 285,213.75 294.743,219.375" fill="#4ecdc4" fill-opacity="0.863636" stroke-opacity="0.863636" transform="rotate(43.6364 285 225)" />
  <polygon points="324.743,230.625 315,236.25 305.257,230.625 305.257,219.375 315,213.75 324.743,219.375" fill="#4ecdc4" fill-opacity="0.886364" stroke-opacity="0.886364" transform="rotate(46.3636 315 225)" />
  <polygon points="354.743,230.625 345,236.25 335.257,230.625 335.257,219.375 345,213.75 354.743,219.375" fill="#ff6b6b" fill-opacity="0.909091" stroke-opacity="0.909091" transform="rotate(49.0909 345 225)" />
  <polygon points="24.7428,260.625 15,266.25 5.25721,260.625 5.25721,249.375 15,243.75 24.7428,249.375" fill="#4ecdc4" fill-opacity="0.681818" stroke-opacity="0.681818" transform="rotate(21.8182 15 255)" />
  <polygon points="54.7428,260.625 45,266.25 35.2572,260.625 35.2572,249.375 45,243.75 54.7428,249.375" fill="#ff6b6b" fill-opacity="0.704545" stroke-opacity="0.704545" transform="rotate(24.5455 45 255)" />
  <polygon points="84.7428,260.625 75,266.25 65.2572,260.625 65.2572,249.375 75,243.75 84.7428,249.375" fill="#4ecdc4" fill-opacity="0.727273" stroke-opacity="0.727273" transform="rotate(27.2727 75 255)" />
  <polygon points="114.743,260.625 105,266.25 95.2572,260.625 95.2572,249.375 105,243.75 114.743,249.375" fill="#4ecdc4" fill-opacity="0.75" stroke-opacity="0.75" transform="rotate(30 105 255)" />
  <polygon points="144.743,260.625 135,266.25 125.257,260.625 125.257,249.375 135,243.75 144.743,249.375" fill="#ff6b6b" fill-opacity="0.772727" stroke-opacity="0.772727" transform="rotate(32.7273 135 255)" />
  <polygon points="174.743,260.625 165,266.25 155.257,260.625 155.257,249.375 165,243.75 174.743,249.375" fill="#4ecdc4" fill-opacity="0.795455" stroke-opacity="0.795455" transform="rotate(35.4545 165 255)" />
  <polygon points="204.743,260.625 195,266.25 185.257,260.625 185.257,249.375 195,243.75 204.743,249.375" fill="#4ecdc4" fill-opacity="0.818182" stroke-opacity="0.818182" transform="rotate(38.1818 195 255)" />
  <polygon points="234.743,260.625 225,266.25 215.257,260.625 215.257,249.375 225,243.75 234.743,249.375" fill="#ff6b6b" fill-opacity="0.840909" stroke-opacity="0.840909" transform="rotate(40.9091 225 255)" />
  <polygon points="264.743,260.625 255,266.25 245.257,260.625 245.257,249.375 255,243.75 264.743,249.375" fill="#4ecdc4" fill-opacity="0.863636" stroke-opacity="0.863636" transform="rotate(43.6364 255 255)" />
  <polygon points="294.743,260.625 285,266.25 275.257,260.625 275.257,249.375 285,243.75 294.743,249.375" fill="#4ecdc4" fill-opacity="0.886364" stroke-opacity="0.886364" transform="rotate(46.3636 285 255)" />
  <polygon points="324.743,260.625 315,266.25 305.257,260.625 305.257,249.375 315,243.75 324.743,249.375" fill="#ff6b6b" fill-opacity="0.909091" stroke-opacity="0.909091" transform="rotate(49.0909 315 255)" />
  <polygon points="354.743,260.625 345,266.25 335.257,260.625 335.257,249.375 345,243.75 354.743,249.375" fill="#4ecdc4" fill-opacity="0.931818" stroke-opacity="0.931818" transform="rotate(51.8182 345 255)" />
  <polygon points="24.7428,290.625 15,296.25 5.25721,290.625 5.25721,279.375 15,273.75 24.7428,279.375" fill="#ff6b6b" fill-opacity="0.704545" stroke-opacity="0.704545" transform="rotate(24.5455 15 285)" />
  <polygon points="54.7428,290.625 45,296.25 35.2572,290.625 35.2572,279.375 45,273.75 54.7428,279.375" fill="#4ecdc4" fill-opacity="0.727273" stroke-opacity="0.727273" transform="rotate(27.2727 45 285)" />
  <polygon points="84.7428,290.625 75,296.25 65.2572,290.625 65.2572,279.375 75,273.75 84.7428,279.375" fill="#4ecdc4" fill-opacity="0.75" stroke-opacity="0.75" transform="rotate(30 75 285)" />
  <polygon points="114.743,290.625 105,296.25 95.2572,290.625 95.2572,279.375 105,273.75 114.743,279.375" fill="#ff6b6b" fill-opacity="0.772727" stroke-opacity="0.772727" transform="rotate(32.7273 105 285)" />
  <polygon points="144.743,290.625 135,296.25 125.257,290.625 125.257,279.375 135,273.75 144.743,279.375" fill="#4ecdc4" fill-opacity="0.795455" stroke-opacity="0.795455" transform="rotate(35.4545 135 285)" />
  <polygon points="174.743,290.625 165,296.25 155.257,290.625 155.257,279.375 165,273.75 174.743,279.375" fill="#4ecdc4" fill-opacity="0.818182" stroke-opacity="0.818182" transform="rotate(38.1818 165 285)" />
  <polygon points="204.743,290.625 195,296.25 185.257,290.625 185.257,279.375 195,273.75 204.743,279.375" fill="#ff6b6b" fill-opacity="0.840909" stroke-opacity="0.840909" transform="rotate(40.9091 195 285)" />
  <polygon points="234.743,290.625 225,296.25 215.257,290.625 215.257,279.375 225,273.75 234.743,279.375" fill="#4ecdc4" fill-opacity="0.863636" stroke-opacity="0.863636" transform="rotate(43.6364 225 285)" />
  <polygon points="264.743,290.625 255,296.25 245.257,290.625 245.257,279.375 255,273.75 264.743,279.375" fill="#4ecdc4" fill-opacity="0.886364" stroke-opacity="0.886364" transform="rotate(46.3636 255 285)" />
  <polygon points="294.743,290.625 285,296.25 275.257,290.625 275.257,279.375 285,273.75 294.743,279.375" fill="#ff6b6b" fill-opacity="0.909091" stroke-opacity="0.909091" transform="rotate(49.0909 285 285)" />
  <polygon points="324.743,290.625 315,296.25 305.257,290.625 305.257,279.375 315,273.75 324.743,279.375" fill="#4ecdc4" fill-opacity="0.931818" stroke-opacity="0.931818" transform="rotate(51.8182 315 285)" />
  <polygon points="354.743,290.625 345,296.25 335.257,290.625 335.257,279.375 345,273.75 354.743,279.375" fill="#4ecdc4" fill-opacity="0.954545" stroke-opacity="0.954545" transform="rotate(54.5455 345 285)" />
  <polygon points="24.7428,320.625 15,326.25 5.25721,320.625 5.25721,309.375 15,303.75 24.7428,309.375" fill="#4ecdc4" fill-opacity="0.727273" stroke-opacity="0.727273" transform="rotate(27.2727 15 315)" />
  <polygon points="54.7428,320.625 45,326.25 35.2572,320.625 35.2572,309.375 45,303.75 54.7428,309.375" fill="#4ecdc4" fill-opacity="0.75" stroke-opacity="0.75" transform="rotate(30 45 315)" />
  <polygon points="84.7428,320.625 75,326.25 65.2572,320.625 65.2572,309.375 75,303.75 84.7428,309.375" fill="#ff6b6b" fill-opacity="0.772727" stroke-opacity="0.772727" transform="rotate(32.7273 75 315)" />
  <polygon points="114.743,320.625 105,326.25 95.2572,320.625 95.2572,309.375 105,303.75 114.743,309.375" fill="#4ecdc4" fill-opacity="0.795455" stroke-opacity="0.795455" transform="rotate(35.4545 105 315)" />
  <polygon points="144.743,320.625 135,326.25 125.257,320.625 125.257,309.375 135,303.75 144.743,309.375" fill="#4ecdc4" fill-opacity="0.818182" stroke-opacity="0.818182" transform="rotate(38.1818 135 315)" />
  <polygon points="174.743,320.625 165,326.25 155.257,320.625 155.257,309.375 165,303.75 174.743,309.375" fill="#ff6b6b" fill-opacity="0.840909" stroke-opacity="0.840909" transform="rotate(40.9091 165 315)" />
  <polygon points="204.743,320.625 195,326.25 185.257,320.625 185.257,309.375 195,303.75 204.743,309.375" fill="#4ecdc4" fill-opacity="0.863636" stroke-opacity="0.863636" transform="rotate(43.6364 195 315)" />
  <polygon points="234.743,320.625 225,326.25 215.257,320.625 215.257,309.375 225,303.75 234.743,309.375" fill="#4ecdc4" fill-opacity="0.886364" stroke-opacity="0.886364" transform="rotate(46.3636 225 315)" />
  <polygon points="264.743,320.625 255,326.25 245.257,320.625 245.257,309.375 255,303.75 264.743,309.375" fill="#ff6b6b" fill-opacity="0.909091" stroke-opacity="0.909091" transform="rotate(49.0909 255 315)" />
  <polygon points="294.743,320.625 285,326.25 275.257,320.625 275.257,309.375 285,303.75 294.743,309.375" fill="#4ecdc4" fill-opacity="0.931818" stroke-opacity="0.931818" transform="rotate(51.8182 285 315)" />
  <polygon points="324.743,320.625 315,326.25 305.257,320.625 305.257,309.375 315,303.75 324.743,309.375" fill="#4ecdc4" fill-opacity="0.954545" stroke-opacity="0.954545" transform="rotate(54.5455 315 315)" />
  <polygon points="354.743,320.625 345,326.25 335.257,320.625 335.257,309.375 345,303.75 354.743,309.375" fill="#ff6b6b" fill-opacity="0.977273" stroke-opacity="0.977273" transform="rotate(57.2727 345 315)" />
  <polygon points="24.7428,350.625 15,356.25 5.25721,350.625 5.25721,339.375 15,333.75 24.7428,339.375" fill="#4ecdc4" fill-opacity="0.75" stroke-opacity="0.75" transform="rotate(30 15 345)" />
  <polygon points="54.7428,350.625 45,356.25 35.2572,350.625 35.2572,339.375 45,333.75 54.7428,339.375" fill="#ff6b6b" fill-opacity="0.772727" stroke-opacity="0.772727" transform="rotate(32.7273 45 345)" />
  <polygon points="84.7428,350.625 75,356.25 65.2572,350.625 65.2572,339.375 75,333.75 84.7428,339.375" fill="#4ecdc4" fill-opacity="0.795455" stroke-opacity="0.795455" transform="rotate(35.4545 75 345)" />
  <polygon points="114.743,350.625 105,356.25 95.2572,350.625 95.2572,339.375 105,333.75 114.743,339.375" fill="#4ecdc4" fill-opacity="0.818182" stroke-opacity="0.818182" transform="rotate(38.1818 105 345)" />
  <polygon points="144.743,350.625 135,356.25 125.257,350.625 125.257,339.375 135,333.75 144.743,339.375" fill="#ff6b6b" fill-opacity="0.840909" stroke-opacity="0.840909" transform="rotate(40.9091 135 345)" />
  <polygon points="174.743,350.625 165,356.25 155.257,350.625 155.257,339.375 165,333.75 174.743,339.375" fill="#4ecdc4" fill-opacity="0.863636" stroke-opacity="0.863636" transform="rotate(43.6364 165 345)" />
  <polygon points="204.743,350.625 195,356.25 185.257,350.625 185.257,339.375 195,333.75 204.743,339.375" fill="#4ecdc4" fill-opacity="0.886364" stroke-opacity="0.886364" transform="rotate(46.3636 195 345)" />
  <polygon points="234.743,350.625 225,356.25 215.257,350.625 215.257,339.375 225,333.75 234.743,339.375" fill="#ff6b6b" fill-opacity="0.909091" stroke-opacity="0.909091" transform="rotate(49.0909 225 345)" />
  <polygon points="264.743,350.625 255,356.25 245.257,350.625 245.257,339.375 255,333.75 264.743,339.375" fill="#4ecdc4" fill-opacity="0.931818" stroke-opacity="0.931818" transform="rotate(51.8182 255 345)" />
  <polygon points="294.743,350.625 285,356.25 275.257,350.625 275.257,339.375 285,333.75 294.743,339.375" fill="#4ecdc4" fill-opacity="0.954545" stroke-opacity="0.954545" transform="rotate(54.5455 285 345)" />
  <polygon points="324.743,350.625 315,356.25 305.257,350.625 305.257,339.375 315,333.75 324.743,339.375" fill="#ff6b6b" fill-opacity="0.977273" stroke-opacity="0.977273" transform="rotate(57.2727 315 345)" />
  <polygon points="354.743,350.625 345,356.25 335.257,350.625 335.257,339.375 345,333.75 354.743,339.375" fill="#4ecdc4" transform="rotate(60 345 345)" />
</svg>