<?xml version="1.0" encoding="UTF-8"?>
<svg xmlns="http://www.w3.org/2000/svg" width="300" height="300" viewBox="0 0 300 300">
  <rect width="100%" height="100%" fill="#0f172a" />
  <circle cx="6.0" cy="6.0" r="1.0" fill="rgb(59,130,246)" />
  <circle cx="18.0" cy="6.0" r="1.0" fill="rgb(59,130,246)" />
  <circle cx="30.0" cy="6.0" r="1.0" fill="rgb(59,130,246)" />
  <circle cx="42.0" cy="6.0" r="1.0" fill="rgb(59,130,246)" />
  <circle cx="54.0" cy="6.0" r="1.0" fill="rgb(59,130,246)" />
  <circle cx="66.0" cy="6.0" r="1.0" fill="rgb(59,130,246)" />
  <circle cx="78.0" cy="6.0" r="1.0" fill="rgb(59,130,246)" />
  <circle cx="90.0" cy="6.0" r="1.0" fill="rgb(59,130,246)" />
  <circle cx="102.0" cy="6.0" r="1.0" fill="rgb(59,130,246)" />
  <circle cx="114.0" cy="6.0" r="1.0" fill="rgb(59,130,246)" />
  <circle cx="126.0" cy="6.0" r="1.0" fill="rgb(59,130,246)" />
  <circle cx="138.0" cy="6.0" r="1.0" fill="rgb(59,130,246)" />
  <circle cx="150.0" cy="6.0" r="1.0" fill="rgb(59,130,246)" />
  <circle cx="162.0" cy="6.0" r="1.0" fill="rgb(59,130,246)" />
  <circle cx="174.0" cy="6.0" r="1.0" fill="rgb(59,130,246)" />
  <circle cx="186.0" cy="6.0" r="1.0" fill="rgb(59,130,246)" />
  <circle cx="198.0" cy="6.0" r="1.0" fill="rgb(59,130,246)" />
  <circle cx="210.0" cy="6.0" r="1.0" fill="rgb(59,130,246)" />
  <circle cx="222.0" cy="6.0" r="1.0" fill="rgb(59,130,246)" />
  <circle cx="234.0" cy="6.0" r="1.0" fill="rgb(59,130,246)" />
  <circle cx="246.0" cy="6.0" r="1.0" fill="rgb(59,130,246)" />
  <circle cx="258.0" cy="6.0" r="1.0" fill="rgb(59,130,246)" />
  <circle cx="270.0" cy="6.0" r="1.0" fill="rgb(59,130,246)" />
  <circle cx="282.0" cy="6.0" r="1.0" fill="rgb(59,130,246)" />
  <circle cx="294.0" cy="6.0" r="1.0" fill="rgb(59,130,246)" />
  <circle cx="6.0" cy="18.0" r="1.0" fill="rgb(59,130,246)" />
  <circle cx="18.0" cy="18.0" r="1.0" fill="rgb(59,130,246)" />
  <circle cx="30.0" cy="18.0" r="1.0" fill="rgb(59,130,246)" />
  <circle cx="42.0" cy="18.0" r="1.0" fill="rgb(59,130,246)" />
  <circle cx="54.0" cy="18.0" r="1.0" fill="rgb(59,130,246)" />
  <circle cx="66.0" cy="18.0" r="1.0" fill="rgb(59,130,246)" />
  <circle cx="78.0" cy="18.0" r="1.0" fill="rgb(59,130,246)" />
  <circle cx="90.0" cy="18.0" r="1.0" fill="rgb(59,130,246)" />
  <circle cx="102.0" cy="18.0" r="1.0" fill="rgb(59,130,246)" />
  <circle cx="114.0" cy="18.0" r="1.0" fill="rgb(59,130,246)" />
  <circle cx="126.0" cy="18.0" r="1.0" fill="rgb(59,130,246)" />
  <circle cx="138.0" cy="18.0" r="1.0" fill="rgb(59,130,246)" />
  <circle cx="150.0" cy="18.0" r="1.0" fill="rgb(59,130,246)" />
  <circle cx="162.0" cy="18.0" r="1.0" fill="rgb(59,130,246)" />
  <circle cx="174.0" cy="18.0" r="1.0" fill="rgb(59,130,246)" />
  <circle cx="186.0" cy="18.0" r="1.0" fill="rgb(59,130,246)" />
  <circle cx="198.0" cy="18.0" r="1.0" fill="rgb(59,130,246)" />
  <circle cx="210.0" cy="18.0" r="1.0" fill="rgb(59,130,246)" />
  <circle cx="222.0" cy="18.0" r="1.0" fill="rgb(59,130,246)" />
  <circle cx="234.0" cy="18.0" r="1.0" fill="rgb(59,130,246)" />
  <circle cx="246.0" cy="18.0" r="1.0" fill="rgb(59,130,246)" />
  <circle cx="258.0" cy="18.0" r="1.0" fill="rgb(59,130,246)" />
  <circle cx="270.0" cy="18.0" r="1.0" fill="rgb(59,130,246)" />
  <circle cx="282.0" cy="18.0" r="1.0" fill="rgb(59,130,246)" />
  <circle cx="294.0" cy="18.0" r="1.0" fill="rgb(59,130,246)" />
  <circle cx="6.0" cy="30.0" r="1.0" fill="rgb(59,130,246)" />
  <circle cx="18.0" cy="30.0" r="1.0" fill="rgb(59,130,246)" />
  <circle cx="30.0" cy="30.0" r="1.0" fill="rgb(59,130,246)" />
  <circle cx="42.0" cy="30.0" r="1.0" fill="rgb(59,130,246)" />
  <circle cx="54.0" cy="30.0" r="1.0" fill="rgb(59,130,246)" />
  <circle cx="66.0" cy="30.0" r="1.0" fill="rgb(59,130,246)" />
  <circle cx="78.0" cy="30.0" r="1.0" fill="rgb(59,130,246)" />
  <circle cx="90.0" cy="30.0" r="1.0" fill="rgb(59,130,246)" />
  <circle cx="102.0" cy="30.0" r="1.0" fill="rgb(59,130,246)" />
  <circle cx="114.0" cy="30.0" r="1.0" fill="rgb(59,130,246)" />
  <circle cx="126.0" cy="30.0" r="1.0" fill="rgb(59,130,246)" />
  <circle cx="138.0" cy="30.0" r="1.0" fill="rgb(59,130,246)" />
  <circle cx="150.0" cy="30.0" r="1.0" fill="rgb(59,130,246)" />
  <circle cx="162.0" cy="30.0" r="1.0" fill="rgb(59,130,246)" />
  <circle cx="174.0" cy="30.0" r="1.0" fill="rgb(59,130,246)" />
  <circle cx="186.0" cy="30.0" r="1.0" fill="rgb(59,130,246)" />
  <circle cx="198.0" cy="30.0" r="1.0" fill="rgb(59,130,246)" />
  <circle cx="210.0" cy="30.0" r="1.0" fill="rgb(59,130,246)" />
  <circle cx="222.0" cy="30.0" r="1.0" fill="rgb(59,130,246)" />
  <circle cx="234.0" cy="30.0" r="1.0" fill="rgb(59,130,246)" />
  <circle cx="246.0" cy="30.0" r="1.0" fill="rgb(59,130,246)" />
  <circle cx="258.0" cy="30.0" r="1.0" fill="rgb(59,130,246)" />
  <circle cx="270.0" cy="30.0" r="1.0" fill="rgb(59,130,246)" />
  <circle cx="282.0" cy="30.0" r="1.0" fill="rgb(59,130,246)" />
  <circle cx="294.0" cy="30.0" r="1.0" fill="rgb(59,130,246)" />
  <circle cx="6.0" cy="42.0" r="1.0" fill="rgb(59,130,246)" />
  <circle cx="18.0" cy="42.0" r="1.0" fill="rgb(59,130,246)" />
  <circle cx="30.0" cy="42.0" r="1.0" fill="rgb(59,130,246)" />
  <circle cx="42.0" cy="42.0" r="1.0" fill="rgb(59,130,246)" />
  <circle cx="54.0" cy="42.0" r="1.0" fill="rgb(59,130,246)" />
  <circle cx="66.0" cy="42.0" r="1.0" fill="rgb(59,130,246)" />
  <circle cx="78.0" cy="42.0" r="1.0" fill="rgb(59,130,246)" />
  <circle cx="90.0" cy="42.0" r="1.0" fill="rgb(59,130,246)" />
  <circle cx="102.0" cy="42.0" r="1.0" fill="rgb(59,130,246)" />
  <circle cx="114.0" cy="42.0" r="1.0" fill="rgb(59,130,246)" />
  <circle cx="126.0" cy="42.0" r="1.0" fill="rgb(59,130,246)" />
  <circle cx="138.0" cy="42.0" r="1.0" fill="rgb(59,130,246)" />
  <circle cx="150.0" cy="42.0" r="1.0" fill="rgb(59,130,246)" />
  <circle cx="162.0" cy="42.0" r="1.0" fill="rgb(59,130,246)" />
  <circle cx="174.0" cy="42.0" r="1.0" fill="rgb(59,130,246)" />
  <circle cx="186.0" cy="42.0" r="1.0" fill="rgb(59,130,246)" />
  <circle cx="198.0" cy="42.0" r="1.0" fill="rgb(59,130,246)" />
  <circle cx="210.0" cy="42.0" r="1.0" fill="rgb(59,130,246)" />
  <circle cx="222.0" cy="42.0" r="1.0" fill="rgb(59,130,246)" />
  <circle cx="234.0" cy="42.0" r="1.0" fill="rgb(59,130,246)" />
  <circle cx="246.0" cy="42.0" r="1.0" fill="rgb(59,130,246)" />
  <circle cx="258.0" cy="42.0" r="1.0" fill="rgb(59,130,246)" />
  <circle cx="270.0" cy="42.0" r="1.0" fill="rgb(59,130,246)" />
  <circle cx="282.0" cy="42.0" r="1.0" fill="rgb(59,130,246)" />
  <circle cx="294.0" cy="42.0" r="1.0" fill="rgb(59,130,246)" />
  <circle cx="6.0" cy="54.0" r="1.0" fill="rgb(59,130,246)" />
  <circle cx="18.0" cy="54.0" r="1.0" fill="rgb(59,130,246)" />
  <circle cx="30.0" cy="54.0" r="1.0" fill="rgb(59,130,246)" />
  <circle cx="42.0" cy="54.0" r="1.0" fill="rgb(59,130,246)" />
  <circle cx="54.0" cy="54.0" r="1.0" fill="rgb(59,130,246)" />
  <circle cx="66.0" cy="54.0" r="1.0" fill="rgb(59,130,246)" />
  <circle cx="78.0" cy="54.0" r="1.0" fill="rgb(59,130,246)" />
  <circle cx="90.0" cy="54.0" r="1.0" fill="rgb(59,130,246)" />
  <circle cx="102.0" cy="54.0" r="1.0" fill="rgb(59,130,246)" />
  <circle cx="114.0" cy="54.0" r="1.0" fill="rgb(59,130,246)" />
  <circle cx="126.0" cy="54.0" r="1.0" fill="rgb(59,130,246)" />
  <circle cx="138.0" cy="54.0" r="1.0" fill="rgb(59,130,246)" />
  <circle cx="150.0" cy="54.0" r="1.0" fill="rgb(59,130,246)" />
  <circle cx="162.0" cy="54.0" r="1.0" fill="rgb(59,130,246)" />
  <circle cx="174.0" cy="54.0" r="1.0" fill="rgb(59,130,246)" />
  <circle cx="186.0" cy="54.0" r="1.0" fill="rgb(59,130,246)" />
  <circle cx="198.0" cy="54.0" r="1.0" fill="rgb(59,130,246)" />
  <circle cx="210.0" cy="54.0" r="1.0" fill="rgb(59,130,246)" />
  <circle cx="222.0" cy="54.0" r="1.0" fill="rgb(59,130,246)" />
  <circle cx="234.0" cy="54.0" r="1.0" fill="rgb(59,130,246)" />
  <circle cx="246.0" cy="54.0" r="1.0" fill="rgb(59,130,246)" />
  <circle cx="258.0" cy="54.0" r="1.0" fill="rgb(59,130,246)" />
  <circle cx="270.0" cy="54.0" r="1.0" fill="rgb(59,130,246)" />
  <circle cx="282.0" cy="54.0" r="1.0" fill="rgb(59,130,246)" />
  <circle cx="294.0" cy="54.0" r="1.0" fill="rgb(59,130,246)" />
  <circle cx="6.0" cy="66.0" r="1.0" fill="rgb(59,130,246)" />
  <circle cx="18.0" cy="66.0" r="1.0" fill="rgb(59,130,246)" />
  <circle cx="30.0" cy="66.0" r="1.0" fill="rgb(59,130,246)" />
  <circle cx="42.0" cy="66.0" r="1.0" fill="rgb(59,130,246)" />
  <circle cx="54.0" cy="66.0" r="1.0" fill="rgb(59,130,246)" />
  <circle cx="66.0" cy="66.0" r="1.0" fill="rgb(59,130,246)" />
  <circle cx="78.0" cy="66.0" r="1.0" fill="rgb(59,130,246)" />
  <circle cx="90.0" cy="66.0" r="1.0" fill="rgb(59,130,246)" />
  <circle cx="102.0" cy="66.0" r="1.0" fill="rgb(59,130,246)" />
  <circle cx="114.0" cy="66.0" r="1.0" fill="rgb(59,130,246)" />
  <circle cx="126.0" cy="66.0" r="1.0" fill="rgb(59,130,246)" />
  <circle cx="138.0" cy="66.0" r="1.0" fill="rgb(59,130,246)" />
  <circle cx="150.0" cy="66.0" r="1.0" fill="rgb(59,130,246)" />
  <circle cx="162.0" cy="66.0" r="1.0" fill="rgb(59,130,246)" />
  <circle cx="174.0" cy="66.0" r="1.0" fill="rgb(59,130,246)" />
  <circle cx="186.0" cy="66.0" r="1.0" fill="rgb(59,130,246)" />
  <circle cx="198.0" cy="66.0" r="1.0" fill="rgb(59,130,246)" />
  <circle cx="210.0" cy="66.0" r="1.0" fill="rgb(59,130,246)" />
  <circle cx="222.0" cy="66.0" r="1.0" fill="rgb(59,130,246)" />
  <circle cx="234.0" cy="66.0" r="1.0" fill="rgb(59,130,246)" />
  <circle cx="246.0" cy="66.0" r="1.0" fill="rgb(59,130,246)" />
  <circle cx="258.0" cy="66.0" r="1.0" fill="rgb(59,130,246)" />
  <circle cx="270.0" cy="66.0" r="1.0" fill="rgb(59,130,246)" />
  <circle cx="282.0" cy="66.0" r="1.0" fill="rgb(59,130,246)" />
  <circle cx="294.0" cy="66.0" r="1.0" fill="rgb(59,130,246)" />
  <circle cx="6.0" cy="78.0" r="1.0" fill="rgb(59,130,246)" />
  <circle cx="18.0" cy="78.0" r="1.0" fill="rgb(59,130,246)" />
  <circle cx="30.0" cy="78.0" r="1.0" fill="rgb(59,130,246)" />
  <circle cx="42.0" cy="78.0" r="1.0" fill="rgb(59,130,246)" />
  <circle cx="54.0" cy="78.0" r="1.0" fill="rgb(59,130,246)" />
  <circle cx="66.0" cy="78.0" r="1.0" fill="rgb(59,130,246)" />
  <circle cx="78.0" cy="78.0" r="1.0" fill="rgb(59,130,246)" />
  <circle cx="90.0" cy="78.0" r="1.0" fill="rgb(59,130,246)" />
  <circle cx="102.0" cy="78.0" r="1.0" fill="rgb(59,130,246)" />
  <circle cx="114.0" cy="78.0" r="1.0" fill="rgb(59,130,246)" />
  <circle cx="126.0" cy="78.0" r="1.0" fill="rgb(59,130,246)" />
  <circle cx="138.0" cy="78.0" r="1.0" fill="rgb(59,130,246)" />
  <circle cx="150.0" cy="78.0" r="1.0" fill="rgb(59,130,246)" />
  <circle cx="162.0" cy="78.0" r="1.0" fill="rgb(59,130,246)" />
  <circle cx="174.0" cy="78.0" r="1.0" fill="rgb(59,130,246)" />
  <circle cx="186.0" cy="78.0" r="1.0" fill="rgb(59,130,246)" />
  <circle cx="198.0" cy="78.0" r="1.0" fill="rgb(59,130,246)" />
  <circle cx="210.0" cy="78.0" r="1.0" fill="rgb(59,130,246)" />
  <circle cx="222.0" cy="78.0" r="1.0" fill="rgb(59,130,246)" />
  <circle cx="234.0" cy="78.0" r="1.0" fill="rgb(59,130,246)" />
  <circle cx="246.0" cy="78.0" r="1.0" fill="rgb(59,130,246)" />
  <circle cx="258.0" cy="78.0" r="1.0" fill="rgb(59,130,246)" />
  <circle cx="270.0" cy="78.0" r="1.0" fill="rgb(59,130,246)" />
  <circle cx="282.0" cy="78.0" r="1.0" fill="rgb(59,130,246)" />
  <circle cx="294.0" cy="78.0" r="1.0" fill="rgb(59,130,246)" />
  <circle cx="6.0" cy="90.0" r="1.0" fill="rgb(59,130,246)" />
  <circle cx="18.0" cy="90.0" r="1.0" fill="rgb(59,130,246)" />
  <circle cx="30.0" cy="90.0" r="1.0" fill="rgb(59,130,246)" />
  <circle cx="42.0" cy="90.0" r="1.0" fill="rgb(59,130,246)" />
  <circle cx="54.0" cy="90.0" r="1.0" fill="rgb(59,130,246)" />
  <circle cx="66.0" cy="90.0" r="1.0" fill="rgb(59,130,246)" />
  <circle cx="78.0" cy="90.0" r="1.0" fill="rgb(59,130,246)" />
  <circle cx="90.0" cy="90.0" r="1.0" fill="rgb(59,130,246)" />
  <circle cx="102.0" cy="90.0" r="1.0" fill="rgb(59,130,246)" />
  <circle cx="114.0" cy="90.0" r="1.0" fill="rgb(59,130,246)" />
  <circle cx="126.0" cy="90.0" r="1.0" fill="rgb(59,130,246)" />
  <circle cx="138.0" cy="90.0" r="1.0" fill="rgb(59,130,246)" />
  <circle cx="150.0" cy="90.0" r="1.0" fill="rgb(59,130,246)" />
  <circle cx="162.0" cy="90.0" r="1.0" fill="rgb(59,130,246)" />
  <circle cx="174.0" cy="90.0" r="1.0" fill="rgb(59,130,246)" />
  <circle cx="186.0" cy="90.0" r="1.0" fill="rgb(59,130,246)" />
  <circle cx="198.0" cy="90.0" r="1.0" fill="rgb(59,130,246)" />
  <circle cx="210.0" cy="90.0" r="1.0" fill="rgb(59,130,246)" />
  <circle cx="222.0" cy="90.0" r="1.0" fill="rgb(59,130,246)" />
  <circle cx="234.0" cy="90.0" r="1.0" fill="rgb(59,130,246)" />
  <circle cx="246.0" cy="90.0" r="1.0" fill="rgb(59,130,246)" />
  <circle cx="258.0" cy="90.0" r="1.0" fill="rgb(59,130,246)" />
  <circle cx="270.0" cy="90.0" r="1.0" fill="rgb(59,130,246)" />
  <circle cx="282.0" cy="90.0" r="1.0" fill="rgb(59,130,246)" />
  <circle cx="294.0" cy="90.0" r="1.0" fill="rgb(59,130,246)" />
  <circle cx="6.0" cy="102.0" r="1.0" fill="rgb(59,130,246)" />
  <circle cx="18.0" cy="102.0" r="1.0" fill="rgb(59,130,246)" />
  <circle cx="30.0" cy="102.0" r="1.0" fill="rgb(59,130,246)" />
  <circle cx="42.0" cy="102.0" r="1.0" fill="rgb(59,130,246)" />
  <circle cx="54.0" cy="102.0" r="1.0" fill="rgb(59,130,246)" />
  <circle cx="66.0" cy="102.0" r="1.0" fill="rgb(59,130,246)" />
  <circle cx="78.0" cy="102.0" r="1.0" fill="rgb(59,130,246)" />
  <circle cx="90.0" cy="102.0" r="1.0" fill="rgb(59,130,246)" />
  <circle cx="102.0" cy="102.0" r="1.0" fill="rgb(59,130,246)" />
  <circle cx="114.0" cy="102.0" r="1.0" fill="rgb(59,130,246)" />
  <circle cx="126.0" cy="102.0" r="1.0" fill="rgb(59,130,246)" />
  <circle cx="138.0" cy="102.0" r="1.0" fill="rgb(59,130,246)" />
  <circle cx="150.0" cy="102.0" r="1.0" fill="rgb(59,130,246)" />
  <circle cx="162.0" cy="102.0" r="1.0" fill="rgb(59,130,246)" />
  <circle cx="174.0" cy="102.0" r="1.0" fill="rgb(59,130,246)" />
  <circle cx="186.0" cy="102.0" r="1.0" fill="rgb(59,130,246)" />
  <circle cx="198.0" cy="102.0" r="1.0" fill="rgb(59,130,246)" />
  <circle cx="210.0" cy="102.0" r="1.0" fill="rgb(59,130,246)" />
  <circle cx="222.0" cy="102.0" r="1.0" fill="rgb(59,130,246)" />
  <circle cx="234.0" cy="102.0" r="1.0" fill="rgb(59,130,246)" />
  <circle cx="246.0" cy="102.0" r="1.0" fill="rgb(59,130,246)" />
  <circle cx="258.0" cy="102.0" r="1.0" fill="rgb(59,130,246)" />
  <circle cx="270.0" cy="102.0" r="1.0" fill="rgb(59,130,246)" />
  <circle cx="282.0" cy="102.0" r="1.0" fill="rgb(59,130,246)" />
  <circle cx="294.0" cy="102.0" r="1.0" fill="rgb(59,130,246)" />
  <circle cx="6.0" cy="114.0" r="1.0" fill="rgb(59,130,246)" />
  <circle cx="18.0" cy="114.0" r="1.0" fill="rgb(59,130,246)" />
  <circle cx="30.0" cy="114.0" r="1.0" fill="rgb(59,130,246)" />
  <circle cx="42.0" cy="114.0" r="1.0" fill="rgb(59,130,246)" />
  <circle cx="54.0" cy="114.0" r="1.0" fill="rgb(59,130,246)" />
  <circle cx="66.0" cy="114.0" r="1.0" fill="rgb(59,130,246)" />
  <circle cx="78.0" cy="114.0" r="1.0" fill="rgb(59,130,246)" />
  <circle cx="90.0" cy="114.0" r="1.0" fill="rgb(59,130,246)" />
  <circle cx="102.0" cy="114.0" r="1.0" fill="rgb(59,130,246)" />
  <circle cx="114.0" cy="114.0" r="1.0" fill="rgb(59,130,246)" />
  <circle cx="126.0" cy="114.0" r="1.0" fill="rgb(59,130,246)" />
  <circle cx="138.0" cy="114.0" r="1.0" fill="rgb(59,130,246)" />
  <circle cx="150.0" cy="114.0" r="1.0" fill="rgb(59,130,246)" />
  <circle cx="162.0" cy="114.0" r="1.0" fill="rgb(59,130,246)" />
  <circle cx="174.0" cy="114.0" r="1.0" fill="rgb(59,130,246)" />
  <circle cx="186.0" cy="114.0" r="1.0" fill="rgb(59,130,246)" />
  <circle cx="198.0" cy="114.0" r="1.0" fill="rgb(59,130,246)" />
  <circle cx="210.0" cy="114.0" r="1.0" fill="rgb(59,130,246)" />
  <circle cx="222.0" cy="114.0" r="1.0" fill="rgb(59,130,246)" />
  <circle cx="234.0" cy="114.0" r="1.0" fill="rgb(59,130,246)" />
  <circle cx="246.0" cy="114.0" r="1.0" fill="rgb(59,130,246)" />
  <circle cx="258.0" cy="114.0" r="1.0" fill="rgb(59,130,246)" />
  <circle cx="270.0" cy="114.0" r="1.0" fill="rgb(59,130,246)" />
  <circle cx="282.0" cy="114.0" r="1.0" fill="rgb(59,130,246)" />
  <circle cx="294.0" cy="114.0" r="1.0" fill="rgb(59,130,246)" />
  <circle cx="6.0" cy="126.0" r="1.0" fill="rgb(59,130,246)" />
  <circle cx="18.0" cy="126.0" r="1.0" fill="rgb(59,130,246)" />
  <circle cx="30.0" cy="126.0" r="1.0" fill="rgb(59,130,246)" />
  <circle cx="42.0" cy="126.0" r="1.0" fill="rgb(59,130,246)" />
  <circle cx="54.0" cy="126.0" r="1.0" fill="rgb(59,130,246)" />
  <circle cx="66.0" cy="126.0" r="1.0" fill="rgb(59,130,246)" />
  <circle cx="78.0" cy="126.0" r="1.0" fill="rgb(59,130,246)" />
  <circle cx="90.0" cy="126.0" r="1.0" fill="rgb(59,130,246)" />
  <circle cx="102.0" cy="126.0" r="1.0" fill="rgb(59,130,246)" />
  <circle cx="114.0" cy="126.0" r="1.0" fill="rgb(59,130,246)" />
  <circle cx="126.0" cy="126.0" r="1.0" fill="rgb(59,130,246)" />
  <circle cx="138.0" cy="126.0" r="1.0" fill="rgb(59,130,246)" />
  <circle cx="150.0" cy="126.0" r="1.0" fill="rgb(59,130,246)" />
  <circle cx="162.0" cy="126.0" r="1.0" fill="rgb(59,130,246)" />
  <circle cx="174.0" cy="126.0" r="1.0" fill="rgb(59,130,246)" />
  <circle cx="186.0" cy="126.0" r="1.0" fill="rgb(59,130,246)" />
  <circle cx="198.0" cy="126.0" r="1.0" fill="rgb(59,130,246)" />
  <circle cx="210.0" cy="126.0" r="1.0" fill="rgb(59,130,246)" />
  <circle cx="222.0" cy="126.0" r="1.0" fill="rgb(59,130,246)" />
  <circle cx="234.0" cy="126.0" r="1.0" fill="rgb(59,130,246)" />
  <circle cx="246.0" cy="126.0" r="1.0" fill="rgb(59,130,246)" />
  <circle cx="258.0" cy="126.0" r="1.0" fill="rgb(59,130,246)" />
  <circle cx="270.0" cy="126.0" r="1.0" fill="rgb(59,130,246)" />
  <circle cx="282.0" cy="126.0" r="1.0" fill="rgb(59,130,246)" />
  <circle cx="294.0" cy="126.0" r="1.0" fill="rgb(59,130,246)" />
  <circle cx="6.0" cy="138.0" r="1.0" fill="rgb(59,130,246)" />
  <circle cx="18.0" cy="138.0" r="1.0" fill="rgb(59,130,246)" />
  <circle cx="30.0" cy="138.0" r="1.0" fill="rgb(59,130,246)" />
  <circle cx="42.0" cy="138.0" r="1.0" fill="rgb(59,130,246)" />
  <circle cx="54.0" cy="138.0" r="1.0" fill="rgb(59,130,246)" />
  <circle cx="66.0" cy="138.0" r="1.0" fill="rgb(59,130,246)" />
  <circle cx="78.0" cy="138.0" r="1.0" fill="rgb(59,130,246)" />
  <circle cx="90.0" cy="138.0" r="1.0" fill="rgb(59,130,246)" />
  <circle cx="102.0" cy="138.0" r="1.0" fill="rgb(59,130,246)" />
  <circle cx="114.0" cy="138.0" r="1.0" fill="rgb(59,130,246)" />
  <circle cx="126.0" cy="138.0" r="1.0" fill="rgb(59,130,246)" />
  <circle cx="138.0" cy="138.0" r="1.0" fill="rgb(59,130,246)" />
  <circle cx="150.0" cy="138.0" r="1.9999999999999998" fill="rgb(95,117,210)" />
  <circle cx="162.0" cy="138.0" r="1.0" fill="rgb(59,130,246)" />
  <circle cx="174.0" cy="138.0" r="1.0" fill="rgb(59,130,246)" />
  <circle cx="186.0" cy="138.0" r="1.0" fill="rgb(59,130,246)" />
  <circle cx="198.0" cy="138.0" r="1.0" fill="rgb(59,130,246)" />
  <circle cx="210.0" cy="138.0" r="1.0" fill="rgb(59,130,246)" />
  <circle cx="222.0" cy="138.0" r="1.0" fill="rgb(59,130,246)" />
  <circle cx="234.0" cy="138.0" r="1.0" fill="rgb(59,130,246)" />
  <circle cx="246.0" cy="138.0" r="1.0" fill="rgb(59,130,246)" />
  <circle cx="258.0" cy="138.0" r="1.0" fill="rgb(59,130,246)" />
  <circle cx="270.0" cy="138.0" r="1.0" fill="rgb(59,130,246)" />
  <circle cx="282.0" cy="138.0" r="1.0" fill="rgb(59,130,246)" />
  <circle cx="294.0" cy="138.0" r="1.0" fill="rgb(59,130,246)" />
  <circle cx="6.0" cy="150.0" r="1.0" fill="rgb(59,130,246)" />
  <circle cx="18.0" cy="150.0" r="1.0" fill="rgb(59,130,246)" />
  <circle cx="30.0" cy="150.0" r="1.0" fill="rgb(59,130,246)" />
  <circle cx="42.0" cy="150.0" r="1.0" fill="rgb(59,130,246)" />
  <circle cx="54.0" cy="150.0" r="1.0" fill="rgb(59,130,246)" />
  <circle cx="66.0" cy="150.0" r="1.0" fill="rgb(59,130,246)" />
  <circle cx="78.0" cy="150.0" r="1.0" fill="rgb(59,130,246)" />
  <circle cx="90.0" cy="150.0" r="1.0" fill="rgb(59,130,246)" />
  <circle cx="102.0" cy="150.0" r="1.0" fill="rgb(59,130,246)" />
  <circle cx="114.0" cy="150.0" r="1.0" fill="rgb(59,130,246)" />
  <circle cx="126.0" cy="150.0" r="1.0" fill="rgb(59,130,246)" />
  <circle cx="138.0" cy="150.0" r="1.9999999999999998" fill="rgb(95,117,210)" />
  <circle cx="150.0" cy="150.0" r="6.0" fill="rgb(239,68,68)" />
  <circle cx="162.0" cy="150.0" r="1.9999999999999998" fill="rgb(95,117,210)" />
  <circle cx="174.0" cy="150.0" r="1.0" fill="rgb(59,130,246)" />
  <circle cx="186.0" cy="150.0" r="1.0" fill="rgb(59,130,246)" />
  <circle cx="198.0" cy="150.0" r="1.0" fill="rgb(59,130,246)" />
  <circle cx="210.0" cy="150.0" r="1.0" fill="rgb(59,130,246)" />
  <circle cx="222.0" cy="150.0" r="1.0" fill="rgb(59,130,246)" />
  <circle cx="234.0" cy="150.0" r="1.0" fill="rgb(59,130,246)" />
  <circle cx="246.0" cy="150.0" r="1.0" fill="rgb(59,130,246)" />
  <circle cx="258.0" cy="150.0" r="1.0" fill="rgb(59,130,246)" />
  <circle cx="270.0" cy="150.0" r="1.0" fill="rgb(59,130,246)" />
  <circle cx="282.0" cy="150.0" r="1.0" fill="rgb(59,130,246)" />
  <circle cx="294.0" cy="150.0" r="1.0" fill="rgb(59,130,246)" />
  <circle cx="6.0" cy="162.0" r="1.0" fill="rgb(59,130,246)" />
  <circle cx="18.0" cy="162.0" r="1.0" fill="rgb(59,130,246)" />
  <circle cx="30.0" cy="162.0" r="1.0" fill="rgb(59,130,246)" />
  <circle cx="42.0" cy="162.0" r="1.0" fill="rgb(59,130,246)" />
  <circle cx="54.0" cy="162.0" r="1.0" fill="rgb(59,130,246)" />
  <circle cx="66.0" cy="162.0" r="1.0" fill="rgb(59,130,246)" />
  <circle cx="78.0" cy="162.0" r="1.0" fill="rgb(59,130,246)" />
  <circle cx="90.0" cy="162.0" r="1.0" fill="rgb(59,130,246)" />
  <circle cx="102.0" cy="162.0" r="1.0" fill="rgb(59,130,246)" />
  <circle cx="114.0" cy="162.0" r="1.0" fill="rgb(59,130,246)" />
  <circle cx="126.0" cy="162.0" r="1.0" fill="rgb(59,130,246)" />
  <circle cx="138.0" cy="162.0" r="1.0" fill="rgb(59,130,246)" />
  <circle cx="150.0" cy="162.0" r="1.9999999999999998" fill="rgb(95,117,210)" />
  <circle cx="162.0" cy="162.0" r="1.0" fill="rgb(59,130,246)" />
  <circle cx="174.0" cy="162.0" r="1.0" fill="rgb(59,130,246)" />
  <circle cx="186.0" cy="162.0" r="1.0" fill="rgb(59,130,246)" />
  <circle cx="198.0" cy="162.0" r="1.0" fill="rgb(59,130,246)" />
  <circle cx="210.0" cy="162.0" r="1.0" fill="rgb(59,130,246)" />
  <circle cx="222.0" cy="162.0" r="1.0" fill="rgb(59,130,246)" />
  <circle cx="234.0" cy="162.0" r="1.0" fill="rgb(59,130,246)" />
  <circle cx="246.0" cy="162.0" r="1.0" fill="rgb(59,130,246)" />
  <circle cx="258.0" cy="162.0" r="1.0" fill="rgb(59,130,246)" />
  <circle cx="270.0" cy="162.0" r="1.0" fill="rgb(59,130,246)" />
  <circle cx="282.0" cy="162.0" r="1.0" fill="rgb(59,130,246)" />
  <circle cx="294.0" cy="162.0" r="1.0" fill="rgb(59,130,246)" />
  <circle cx="6.0" cy="174.0" r="1.0" fill="rgb(59,130,246)" />
  <circle cx="18.0" cy="174.0" r="1.0" fill="rgb(59,130,246)" />
  <circle cx="30.0" cy="174.0" r="1.0" fill="rgb(59,130,246)" />
  <circle cx="42.0" cy="174.0" r="1.0" fill="rgb(59,130,246)" />
  <circle cx="54.0" cy="174.0" r="1.0" fill="rgb(59,130,246)" />
  <circle cx="66.0" cy="174.0" r="1.0" fill="rgb(59,130,246)" />
  <circle cx="78.0" cy="174.0" r="1.0" fill="rgb(59,130,246)" />
  <circle cx="90.0" cy="174.0" r="1.0" fill="rgb(59,130,246)" />
  <circle cx="102.0" cy="174.0" r="1.0" fill="rgb(59,130,246)" />
  <circle cx="114.0" cy="174.0" r="1.0" fill="rgb(59,130,246)" />
  <circle cx="126.0" cy="174.0" r="1.0" fill="rgb(59,130,246)" />
  <circle cx="138.0" cy="174.0" r="1.0" fill="rgb(59,130,246)" />
  <circle cx="150.0" cy="174.0" r="1.0" fill="rgb(59,130,246)" />
  <circle cx="162.0" cy="174.0" r="1.0" fill="rgb(59,130,246)" />
  <circle cx="174.0" cy="174.0" r="1.0" fill="rgb(59,130,246)" />
  <circle cx="186.0" cy="174.0" r="1.0" fill="rgb(59,130,246)" />
  <circle cx="198.0" cy="174.0" r="1.0" fill="rgb(59,130,246)" />
  <circle cx="210.0" cy="174.0" r="1.0" fill="rgb(59,130,246)" />
  <circle cx="222.0" cy="174.0" r="1.0" fill="rgb(59,130,246)" />
  <circle cx="234.0" cy="174.0" r="1.0" fill="rgb(59,130,246)" />
  <circle cx="246.0" cy="174.0" r="1.0" fill="rgb(59,130,246)" />
  <circle cx="258.0" cy="174.0" r="1.0" fill="rgb(59,130,246)" />
  <circle cx="270.0" cy="174.0" r="1.0" fill="rgb(59,130,246)" />
  <circle cx="282.0" cy="174.0" r="1.0" fill="rgb(59,130,246)" />
  <circle cx="294.0" cy="174.0" r="1.0" fill="rgb(59,130,246)" />
  <circle cx="6.0" cy="186.0" r="1.0" fill="rgb(59,130,246)" />
  <circle cx="18.0" cy="186.0" r="1.0" fill="rgb(59,130,246)" />
  <circle cx="30.0" cy="186.0" r="1.0" fill="rgb(59,130,246)" />
  <circle cx="42.0" cy="186.0" r="1.0" fill="rgb(59,130,246)" />
  <circle cx="54.0" cy="186.0" r="1.0" fill="rgb(59,130,246)" />
  <circle cx="66.0" cy="186.0" r="1.0" fill="rgb(59,130,246)" />
  <circle cx="78.0" cy="186.0" r="1.0" fill="rgb(59,130,246)" />
  <circle cx="90.0" cy="186.0" r="1.0" fill="rgb(59,130,246)" />
  <circle cx="102.0" cy="186.0" r="1.0" fill="rgb(59,130,246)" />
  <circle cx="114.0" cy="186.0" r="1.0" fill="rgb(59,130,246)" />
  <circle cx="126.0" cy="186.0" r="1.0" fill="rgb(59,130,246)" />
  <circle cx="138.0" cy="186.0" r="1.0" fill="rgb(59,130,246)" />
  <circle cx="150.0" cy="186.0" r="1.0" fill="rgb(59,130,246)" />
  <circle cx="162.0" cy="186.0" r="1.0" fill="rgb(59,130,246)" />
  <circle cx="174.0" cy="186.0" r="1.0" fill="rgb(59,130,246)" />
  <circle cx="186.0" cy="186.0" r="1.0" fill="rgb(59,130,246)" />
  <circle cx="198.0" cy="186.0" r="1.0" fill="rgb(59,130,246)" />
  <circle cx="210.0" cy="186.0" r="1.0" fill="rgb(59,130,246)" />
  <circle cx="222.0" cy="186.0" r="1.0" fill="rgb(59,130,246)" />
  <circle cx="234.0" cy="186.0" r="1.0" fill="rgb(59,130,246)" />
  <circle cx="246.0" cy="186.0" r="1.0" fill="rgb(59,130,246)" />
  <circle cx="258.0" cy="186.0" r="1.0" fill="rgb(59,130,246)" />
  <circle cx="270.0" cy="186.0" r="1.0" fill="rgb(59,130,246)" />
  <circle cx="282.0" cy="186.0" r="1.0" fill="rgb(59,130,246)" />
  <circle cx="294.0" cy="186.0" r="1.0" fill="rgb(59,130,246)" />
  <circle cx="6.0" cy="198.0" r="1.0" fill="rgb(59,130,246)" />
  <circle cx="18.0" cy="198.0" r="1.0" fill="rgb(59,130,246)" />
  <circle cx="30.0" cy="198.0" r="1.0" fill="rgb(59,130,246)" />
  <circle cx="42.0" cy="198.0" r="1.0" fill="rgb(59,130,246)" />
  <circle cx="54.0" cy="198.0" r="1.0" fill="rgb(59,130,246)" />
  <circle cx="66.0" cy="198.0" r="1.0" fill="rgb(59,130,246)" />
  <circle cx="78.0" cy="198.0" r="1.0" fill="rgb(59,130,246)" />
  <circle cx="90.0" cy="198.0" r="1.0" fill="rgb(59,130,246)" />
  <circle cx="102.0" cy="198.0" r="1.0" fill="rgb(59,130,246)" />
  <circle cx="114.0" cy="198.0" r="1.0" fill="rgb(59,130,246)" />
  <circle cx="126.0" cy="198.0" r="1.0" fill="rgb(59,130,246)" />
  <circle cx="138.0" cy="198.0" r="1.0" fill="rgb(59,130,246)" />
  <circle cx="150.0" cy="198.0" r="1.0" fill="rgb(59,130,246)" />
  <circle cx="162.0" cy="198.0" r="1.0" fill="rgb(59,130,246)" />
  <circle cx="174.0" cy="198.0" r="1.0" fill="rgb(59,130,246)" />
  <circle cx="186.0" cy="198.0" r="1.0" fill="rgb(59,130,246)" />
  <circle cx="198.0" cy="198.0" r="1.0" fill="rgb(59,130,246)" />
  <circle cx="210.0" cy="198.0" r="1.0" fill="rgb(59,130,246)" />
  <circle cx="222.0" cy="198.0" r="1.0" fill="rgb(59,130,246)" />
  <circle cx="234.0" cy="198.0" r="1.0" fill="rgb(59,130,246)" />
  <circle cx="246.0" cy="198.0" r="1.0" fill="rgb(59,130,246)" />
  <circle cx="258.0" cy="198.0" r="1.0" fill="rgb(59,130,246)" />
  <circle cx="270.0" cy="198.0" r="1.0" fill="rgb(59,130,246)" />
  <circle cx="282.0" cy="198.0" r="1.0" fill="rgb(59,130,246)" />
  <circle cx="294.0" cy="198.0" r="1.0" fill="rgb(59,130,246)" />
  <circle cx="6.0" cy="210.0" r="1.0" fill="rgb(59,130,246)" />
  <circle cx="18.0" cy="210.0" r="1.0" fill="rgb(59,130,246)" />
  <circle cx="30.0" cy="210.0" r="1.0" fill="rgb(59,130,246)" />
  <circle cx="42.0" cy="210.0" r="1.0" fill="rgb(59,130,246)" />
  <circle cx="54.0" cy="210.0" r="1.0" fill="rgb(59,130,246)" />
  <circle cx="66.0" cy="210.0" r="1.0" fill="rgb(59,130,246)" />
  <circle cx="78.0" cy="210.0" r="1.0" fill="rgb(59,130,246)" />
  <circle cx="90.0" cy="210.0" r="1.0" fill="rgb(59,130,246)" />
  <circle cx="102.0" cy="210.0" r="1.0" fill="rgb(59,130,246)" />
  <circle cx="114.0" cy="210.0" r="1.0" fill="rgb(59,130,246)" />
  <circle cx="126.0" cy="210.0" r="1.0" fill="rgb(59,130,246)" />
  <circle cx="138.0" cy="210.0" r="1.0" fill="rgb(59,130,246)" />
  <circle cx="150.0" cy="210.0" r="1.0" fill="rgb(59,130,246)" />
  <circle cx="162.0" cy="210.0" r="1.0" fill="rgb(59,130,246)" />
  <circle cx="174.0" cy="210.0" r="1.0" fill="rgb(59,130,246)" />
  <circle cx="186.0" cy="210.0" r="1.0" fill="rgb(59,130,246)" />
  <circle cx="198.0" cy="210.0" r="1.0" fill="rgb(59,130,246)" />
  <circle cx="210.0" cy="210.0" r="1.0" fill="rgb(59,130,246)" />
  <circle cx="222.0" cy="210.0" r="1.0" fill="rgb(59,130,246)" />
  <circle cx="234.0" cy="210.0" r="1.0" fill="rgb(59,130,246)" />
  <circle cx="246.0" cy="210.0" r="1.0" fill="rgb(59,130,246)" />
  <circle cx="258.0" cy="210.0" r="1.0" fill="rgb(59,130,246)" />
  <circle cx="270.0" cy="210.0" r="1.0" fill="rgb(59,130,246)" />
  <circle cx="282.0" cy="210.0" r="1.0" fill="rgb(59,130,246)" />
  <circle cx="294.0" cy="210.0" r="1.0" fill="rgb(59,130,246)" />
  <circle cx="6.0" cy="222.0" r="1.0" fill="rgb(59,130,246)" />
  <circle cx="18.0" cy="222.0" r="1.0" fill="rgb(59,130,246)" />
  <circle cx="30.0" cy="222.0" r="1.0" fill="rgb(59,130,246)" />
  <circle cx="42.0" cy="222.0" r="1.0" fill="rgb(59,130,246)" />
  <circle cx="54.0" cy="222.0" r="1.0" fill="rgb(59,130,246)" />
  <circle cx="66.0" cy="222.0" r="1.0" fill="rgb(59,130,246)" />
  <circle cx="78.0" cy="222.0" r="1.0" fill="rgb(59,130,246)" />
  <circle cx="90.0" cy="222.0" r="1.0" fill="rgb(59,130,246)" />
  <circle cx="102.0" cy="222.0" r="1.0" fill="rgb(59,130,246)" />
  <circle cx="114.0" cy="222.0" r="1.0" fill="rgb(59,130,246)" />
  <circle cx="126.0" cy="222.0" r="1.0" fill="rgb(59,130,246)" />
  <circle cx="138.0" cy="222.0" r="1.0" fill="rgb(59,130,246)" />
  <circle cx="150.0" cy="222.0" r="1.0" fill="rgb(59,130,246)" />
  <circle cx="162.0" cy="222.0" r="1.0" fill="rgb(59,130,246)" />
  <circle cx="174.0" cy="222.0" r="1.0" fill="rgb(59,130,246)" />
  <circle cx="186.0" cy="222.0" r="1.0" fill="rgb(59,130,246)" />
  <circle cx="198.0" cy="222.0" r="1.0" fill="rgb(59,130,246)" />
  <circle cx="210.0" cy="222.0" r="1.0" fill="rgb(59,130,246)" />
  <circle cx="222.0" cy="222.0" r="1.0" fill="rgb(59,130,246)" />
  <circle cx="234.0" cy="222.0" r="1.0" fill="rgb(59,130,246)" />
  <circle cx="246.0" cy="222.0" r="1.0" fill="rgb(59,130,246)" />
  <circle cx="258.0" cy="222.0" r="1.0" fill="rgb(59,130,246)" />
  <circle cx="270.0" cy="222.0" r="1.0" fill="rgb(59,130,246)" />
  <circle cx="282.0" cy="222.0" r="1.0" fill="rgb(59,130,246)" />
  <circle cx="294.0" cy="222.0" r="1.0" fill="rgb(59,130,246)" />
  <circle cx="6.0" cy="234.0" r="1.0" fill="rgb(59,130,246)" />
  <circle cx="18.0" cy="234.0" r="1.0" fill="rgb(59,130,246)" />
  <circle cx="30.0" cy="234.0" r="1.0" fill="rgb(59,130,246)" />
  <circle cx="42.0" cy="234.0" r="1.0" fill="rgb(59,130,246)" />
  <circle cx="54.0" cy="234.0" r="1.0" fill="rgb(59,130,246)" />
  <circle cx="66.0" cy="234.0" r="1.0" fill="rgb(59,130,246)" />
  <circle cx="78.0" cy="234.0" r="1.0" fill="rgb(59,130,246)" />
  <circle cx="90.0" cy="234.0" r="1.0" fill="rgb(59,130,246)" />
  <circle cx="102.0" cy="234.0" r="1.0" fill="rgb(59,130,246)" />
  <circle cx="114.0" cy="234.0" r="1.0" fill="rgb(59,130,246)" />
  <circle cx="126.0" cy="234.0" r="1.0" fill="rgb(59,130,246)" />
  <circle cx="138.0" cy="234.0" r="1.0" fill="rgb(59,130,246)" />
  <circle cx="150.0" cy="234.0" r="1.0" fill="rgb(59,130,246)" />
  <circle cx="162.0" cy="234.0" r="1.0" fill="rgb(59,130,246)" />
  <circle cx="174.0" cy="234.0" r="1.0" fill="rgb(59,130,246)" />
  <circle cx="186.0" cy="234.0" r="1.0" fill="rgb(59,130,246)" />
  <circle cx="198.0" cy="234.0" r="1.0" fill="rgb(59,130,246)" />
  <circle cx="210.0" cy="234.0" r="1.0" fill="rgb(59,130,246)" />
  <circle cx="222.0" cy="234.0" r="1.0" fill="rgb(59,130,246)" />
  <circle cx="234.0" cy="234.0" r="1.0" fill="rgb(59,130,246)" />
  <circle cx="246.0" cy="234.0" r="1.0" fill="rgb(59,130,246)" />
  <circle cx="258.0" cy="234.0" r="1.0" fill="rgb(59,130,246)" />
  <circle cx="270.0" cy="234.0" r="1.0" fill="rgb(59,130,246)" />
  <circle cx="282.0" cy="234.0" r="1.0" fill="rgb(59,130,246)" />
  <circle cx="294.0" cy="234.0" r="1.0" fill="rgb(59,130,246)" />
  <circle cx="6.0" cy="246.0" r="1.0" fill="rgb(59,130,246)" />
  <circle cx="18.0" cy="246.0" r="1.0" fill="rgb(59,130,246)" />
  <circle cx="30.0" cy="246.0" r="1.0" fill="rgb(59,130,246)" />
  <circle cx="42.0" cy="246.0" r="1.0" fill="rgb(59,130,246)" />
  <circle cx="54.0" cy="246.0" r="1.0" fill="rgb(59,130,246)" />
  <circle cx="66.0" cy="246.0" r="1.0" fill="rgb(59,130,246)" />
  <circle cx="78.0" cy="246.0" r="1.0" fill="rgb(59,130,246)" />
  <circle cx="90.0" cy="246.0" r="1.0" fill="rgb(59,130,246)" />
  <circle cx="102.0" cy="246.0" r="1.0" fill="rgb(59,130,246)" />
  <circle cx="114.0" cy="246.0" r="1.0" fill="rgb(59,130,246)" />
  <circle cx="126.0" cy="246.0" r="1.0" fill="rgb(59,130,246)" />
  <circle cx="138.0" cy="246.0" r="1.0" fill="rgb(59,130,246)" />
  <circle cx="150.0" cy="246.0" r="1.0" fill="rgb(59,130,246)" />
  <circle cx="162.0" cy="246.0" r="1.0" fill="rgb(59,130,246)" />
  <circle cx="174.0" cy="246.0" r="1.0" fill="rgb(59,130,246)" />
  <circle cx="186.0" cy="246.0" r="1.0" fill="rgb(59,130,246)" />
  <circle cx="198.0" cy="246.0" r="1.0" fill="rgb(59,130,246)" />
  <circle cx="210.0" cy="246.0" r="1.0" fill="rgb(59,130,246)" />
  <circle cx="222.0" cy="246.0" r="1.0" fill="rgb(59,130,246)" />
  <circle cx="234.0" cy="246.0" r="1.0" fill="rgb(59,130,246)" />
  <circle cx="246.0" cy="246.0" r="1.0" fill="rgb(59,130,246)" />
  <circle cx="258.0" cy="246.0" r="1.0" fill="rgb(59,130,246)" />
  <circle cx="270.0" cy="246.0" r="1.0" fill="rgb(59,130,246)" />
  <circle cx="282.0" cy="246.0" r="1.0" fill="rgb(59,130,246)" />
  <circle cx="294.0" cy="246.0" r="1.0" fill="rgb(59,130,246)" />
  <circle cx="6.0" cy="258.0" r="1.0" fill="rgb(59,130,246)" />
  <circle cx="18.0" cy="258.0" r="1.0" fill="rgb(59,130,246)" />
  <circle cx="30.0" cy="258.0" r="1.0" fill="rgb(59,130,246)" />
  <circle cx="42.0" cy="258.0" r="1.0" fill="rgb(59,130,246)" />
  <circle cx="54.0" cy="258.0" r="1.0" fill="rgb(59,130,246)" />
  <circle cx="66.0" cy="258.0" r="1.0" fill="rgb(59,130,246)" />
  <circle cx="78.0" cy="258.0" r="1.0" fill="rgb(59,130,246)" />
  <circle cx="90.0" cy="258.0" r="1.0" fill="rgb(59,130,246)" />
  <circle cx="102.0" cy="258.0" r="1.0" fill="rgb(59,130,246)" />
  <circle cx="114.0" cy="258.0" r="1.0" fill="rgb(59,130,246)" />
  <circle cx="126.0" cy="258.0" r="1.0" fill="rgb(59,130,246)" />
  <circle cx="138.0" cy="258.0" r="1.0" fill="rgb(59,130,246)" />
  <circle cx="150.0" cy="258.0" r="1.0" fill="rgb(59,130,246)" />
  <circle cx="162.0" cy="258.0" r="1.0" fill="rgb(59,130,246)" />
  <circle cx="174.0" cy="258.0" r="1.0" fill="rgb(59,130,246)" />
  <circle cx="186.0" cy="258.0" r="1.0" fill="rgb(59,130,246)" />
  <circle cx="198.0" cy="258.0" r="1.0" fill="rgb(59,130,246)" />
  <circle cx="210.0" cy="258.0" r="1.0" fill="rgb(59,130,246)" />
  <circle cx="222.0" cy="258.0" r="1.0" fill="rgb(59,130,246)" />
  <circle cx="234.0" cy="258.0" r="1.0" fill="rgb(59,130,246)" />
  <circle cx="246.0" cy="258.0" r="1.0" fill="rgb(59,130,246)" />
  <circle cx="258.0" cy="258.0" r="1.0" fill="rgb(59,130,246)" />
  <circle cx="270.0" cy="258.0" r="1.0" fill="rgb(59,130,246)" />
  <circle cx="282.0" cy="258.0" r="1.0" fill="rgb(59,130,246)" />
  <circle cx="294.0" cy="258.0" r="1.0" fill="rgb(59,130,246)" />
  <circle cx="6.0" cy="270.0" r="1.0" fill="rgb(59,130,246)" />
  <circle cx="18.0" cy="270.0" r="1.0" fill="rgb(59,130,246)" />
  <circle cx="30.0" cy="270.0" r="1.0" fill="rgb(59,130,246)" />
  <circle cx="42.0" cy="270.0" r="1.0" fill="rgb(59,130,246)" />
  <circle cx="54.0" cy="270.0" r="1.0" fill="rgb(59,130,246)" />
  <circle cx="66.0" cy="270.0" r="1.0" fill="rgb(59,130,246)" />
  <circle cx="78.0" cy="270.0" r="1.0" fill="rgb(59,130,246)" />
  <circle cx="90.0" cy="270.0" r="1.0" fill="rgb(59,130,246)" />
  <circle cx="102.0" cy="270.0" r="1.0" fill="rgb(59,130,246)" />
  <circle cx="114.0" cy="270.0" r="1.0" fill="rgb(59,130,246)" />
  <circle cx="126.0" cy="270.0" r="1.0" fill="rgb(59,130,246)" />
  <circle cx="138.0" cy="270.0" r="1.0" fill="rgb(59,130,246)" />
  <circle cx="150.0" cy="270.0" r="1.0" fill="rgb(59,130,246)" />
  <circle cx="162.0" cy="270.0" r="1.0" fill="rgb(59,130,246)" />
  <circle cx="174.0" cy="270.0" r="1.0" fill="rgb(59,130,246)" />
  <circle cx="186.0" cy="270.0" r="1.0" fill="rgb(59,130,246)" />
  <circle cx="198.0" cy="270.0" r="1.0" fill="rgb(59,130,246)" />
  <circle cx="210.0" cy="270.0" r="1.0" fill="rgb(59,130,246)" />
  <circle cx="222.0" cy="270.0" r="1.0" fill="rgb(59,130,246)" />
  <circle cx="234.0" cy="270.0" r="1.0" fill="rgb(59,130,246)" />
  <circle cx="246.0" cy="270.0" r="1.0" fill="rgb(59,130,246)" />
  <circle cx="258.0" cy="270.0" r="1.0" fill="rgb(59,130,246)" />
  <circle cx="270.0" cy="270.0" r="1.0" fill="rgb(59,130,246)" />
  <circle cx="282.0" cy="270.0" r="1.0" fill="rgb(59,130,246)" />
  <circle cx="294.0" cy="270.0" r="1.0" fill="rgb(59,130,246)" />
  <circle cx="6.0" cy="282.0" r="1.0" fill="rgb(59,130,246)" />
  <circle cx="18.0" cy="282.0" r="1.0" fill="rgb(59,130,246)" />
  <circle cx="30.0" cy="282.0" r="1.0" fill="rgb(59,130,246)" />
  <circle cx="42.0" cy="282.0" r="1.0" fill="rgb(59,130,246)" />
  <circle cx="54.0" cy="282.0" r="1.0" fill="rgb(59,130,246)" />
  <circle cx="66.0" cy="282.0" r="1.0" fill="rgb(59,130,246)" />
  <circle cx="78.0" cy="282.0" r="1.0" fill="rgb(59,130,246)" />
  <circle cx="90.0" cy="282.0" r="1.0" fill="rgb(59,130,246)" />
  <circle cx="102.0" cy="282.0" r="1.0" fill="rgb(59,130,246)" />
  <circle cx="114.0" cy="282.0" r="1.0" fill="rgb(59,130,246)" />
  <circle cx="126.0" cy="282.0" r="1.0" fill="rgb(59,130,246)" />
  <circle cx="138.0" cy="282.0" r="1.0" fill="rgb(59,130,246)" />
  <circle cx="150.0" cy="282.0" r="1.0" fill="rgb(59,130,246)" />
  <circle cx="162.0" cy="282.0" r="1.0" fill="rgb(59,130,246)" />
  <circle cx="174.0" cy="282.0" r="1.0" fill="rgb(59,130,246)" />
  <circle cx="186.0" cy="282.0" r="1.0" fill="rgb(59,130,246)" />
  <circle cx="198.0" cy="282.0" r="1.0" fill="rgb(59,130,246)" />
  <circle cx="210.0" cy="282.0" r="1.0" fill="rgb(59,130,246)" />
  <circle cx="222.0" cy="282.0" r="1.0" fill="rgb(59,130,246)" />
  <circle cx="234.0" cy="282.0" r="1.0" fill="rgb(59,130,246)" />
  <circle cx="246.0" cy="282.0" r="1.0" fill="rgb(59,130,246)" />
  <circle cx="258.0" cy="282.0" r="1.0" fill="rgb(59,130,246)" />
  <circle cx="270.0" cy="282.0" r="1.0" fill="rgb(59,130,246)" />
  <circle cx="282.0" cy="282.0" r="1.0" fill="rgb(59,130,246)" />
  <circle cx="294.0" cy="282.0" r="1.0" fill="rgb(59,130,246)" />
  <circle cx="6.0" cy="294.0" r="1.0" fill="rgb(59,130,246)" />
  <circle cx="18.0" cy="294.0" r="1.0" fill="rgb(59,130,246)" />
  <circle cx="30.0" cy="294.0" r="1.0" fill="rgb(59,130,246)" />
  <circle cx="42.0" cy="294.0" r="1.0" fill="rgb(59,130,246)" />
  <circle cx="54.0" cy="294.0" r="1.0" fill="rgb(59,130,246)" />
  <circle cx="66.0" cy="294.0" r="1.0" fill="rgb(59,130,246)" />
  <circle cx="78.0" cy="294.0" r="1.0" fill="rgb(59,130,246)" />
  <circle cx="90.0" cy="294.0" r="1.0" fill="rgb(59,130,246)" />
  <circle cx="102.0" cy="294.0" r="1.0" fill="rgb(59,130,246)" />
  <circle cx="114.0" cy="294.0" r="1.0" fill="rgb(59,130,246)" />
  <circle cx="126.0" cy="294.0" r="1.0" fill="rgb(59,130,246)" />
  <circle cx="138.0" cy="294.0" r="1.0" fill="rgb(59,130,246)" />
  <circle cx="150.0" cy="294.0" r="1.0" fill="rgb(59,130,246)" />
  <circle cx="162.0" cy="294.0" r="1.0" fill="rgb(59,130,246)" />
  <circle cx="174.0" cy="294.0" r="1.0" fill="rgb(59,130,246)" />
  <circle cx="186.0" cy="294.0" r="1.0" fill="rgb(59,130,246)" />
  <circle cx="198.0" cy="294.0" r="1.0" fill="rgb(59,130,246)" />
  <circle cx="210.0" cy="294.0" r="1.0" fill="rgb(59,130,246)" />
  <circle cx="222.0" cy="294.0" r="1.0" fill="rgb(59,130,246)" />
  <circle cx="234.0" cy="294.0" r="1.0" fill="rgb(59,130,246)" />
  <circle cx="246.0" cy="294.0" r="1.0" fill="rgb(59,130,246)" />
  <circle cx="258.0" cy="294.0" r="1.0" fill="rgb(59,130,246)" />
  <circle cx="270.0" cy="294.0" r="1.0" fill="rgb(59,130,246)" />
  <circle cx="282.0" cy="294.0" r="1.0" fill="rgb(59,130,246)" />
  <circle cx="294.0" cy="294.0" r="1.0" fill="rgb(59,130,246)" />
</svg>