<?xml version="1.0" encoding="UTF-8"?>
<svg xmlns="http://www.w3.org/2000/svg" width="300" height="300" viewBox="0 0 300 300">
  <rect width="100%" height="100%" fill="#0f172a" />
  <rect x="0" y="0" width="15.0" height="15.0" fill="rgb(0,100,0)" />
  <rect x="15" y="0" width="15.0" height="15.0" fill="rgb(13,100,0)" />
  <rect x="30" y="0" width="15.0" height="15.0" fill="rgb(26,100,0)" />
  <rect x="45" y="0" width="15.0" height="15.0" fill="rgb(40,100,0)" />
  <rect x="60" y="0" width="15.0" height="15.0" fill="rgb(53,100,0)" />
  <rect x="75" y="0" width="15.0" height="15.0" fill="rgb(67,100,0)" />
  <rect x="90" y="0" width="15.0" height="15.0" fill="rgb(80,100,0)" />
  <rect x="105" y="0" width="15.0" height="15.0" fill="rgb(93,100,0)" />
  <rect x="120" y="0" width="15.0" height="15.0" fill="rgb(107,100,0)" />
  <rect x="135" y="0" width="15.0" height="15.0" fill="rgb(120,100,0)" />
  <rect x="150" y="0" width="15.0" height="15.0" fill="rgb(134,100,0)" />
  <rect x="165" y="0" width="15.0" height="15.0" fill="rgb(147,100,0)" />
  <rect x="180" y="0" width="15.0" height="15.0" fill="rgb(161,100,0)" />
  <rect x="195" y="0" width="15.0" height="15.0" fill="rgb(174,100,0)" />
  <rect x="210" y="0" width="15.0" height="15.0" fill="rgb(187,100,0)" />
  <rect x="225" y="0" width="15.0" height="15.0" fill="rgb(201,100,0)" />
  <rect x="240" y="0" width="15.0" height="15.0" fill="rgb(214,100,0)" />
  <rect x="255" y="0" width="15.0" height="15.0" fill="rgb(228,100,0)" />
  <rect x="270" y="0" width="15.0" height="15.0" fill="rgb(241,100,0)" />
  <rect x="285" y="0" width="15.0" height="15.0" fill="rgb(255,100,0)" />
  <rect x="0" y="15" width="15.0" height="15.0" fill="rgb(0,100,13)" />
  <rect x="15" y="15" width="15.0" height="15.0" fill="rgb(13,100,13)" />
  <rect x="30" y="15" width="15.0" height="15.0" fill="rgb(26,100,13)" />
  <rect x="45" y="15" width="15.0" height="15.0" fill="rgb(40,100,13)" />
  <rect x="60" y="15" width="15.0" height="15.0" fill="rgb(53,100,13)" />
  <rect x="75" y="15" width="15.0" height="15.0" fill="rgb(67,100,13)" />
  <rect x="90" y="15" width="15.0" height="15.0" fill="rgb(80,100,13)" />
  <rect x="105" y="15" width="15.0" height="15.0" fill="rgb(93,100,13)" />
  <rect x="120" y="15" width="15.0" height="15.0" fill="rgb(107,100,13)" />
  <rect x="135" y="15" width="15.0" height="15.0" fill="rgb(120,100,13)" />
  <rect x="150" y="15" width="15.0" height="15.0" fill="rgb(134,100,13)" />
  <rect x="165" y="15" width="15.0" height="15.0" fill="rgb(147,100,13)" />
  <rect x="180" y="15" width="15.0" height="15.0" fill="rgb(161,100,13)" />
  <rect x="195" y="15" width="15.0" height="15.0" fill="rgb(174,100,13)" />
  <rect x="210" y="15" width="15.0" height="15.0" fill="rgb(187,100,13)" />
  <rect x="225" y="15" width="15.0" height="15.0" fill="rgb(201,100,13)" />
  <rect x="240" y="15" width="15.0" height="15.0" fill="rgb(214,100,13)" />
  <rect x="255" y="15" width="15.0" height="15.0" fill="rgb(228,100,13)" />
  <rect x="270" y="15" width="15.0" height="15.0" fill="rgb(241,100,13)" />
  <rect x="285" y="15" width="15.0" height="15.0" fill="rgb(255,100,13)" />
  <rect x="0" y="30" width="15.0" height="15.0" fill="rgb(0,100,26)" />
  <rect x="15" y="30" width="15.0" height="15.0" fill="rgb(13,100,26)" />
  <rect x="30" y="30" width="15.0" height="15.0" fill="rgb(26,100,26)" />
  <rect x="45" y="30" width="15.0" height="15.0" fill="rgb(40,100,26)" />
  <rect x="60" y="30" width="15.0" height="15.0" fill="rgb(53,100,26)" />
  <rect x="75" y="30" width="15.0" height="15.0" fill="rgb(67,100,26)" />
  <rect x="90" y="30" width="15.0" height="15.0" fill="rgb(80,100,26)" />
  <rect x="105" y="30" width="15.0" height="15.0" fill="rgb(93,100,26)" />
  <rect x="120" y="30" width="15.0" height="15.0" fill="rgb(107,100,26)" />
  <rect x="135" y="30" width="15.0" height="15.0" fill="rgb(120,100,26)" />
  <rect x="150" y="30" width="15.0" height="15.0" fill="rgb(134,100,26)" />
  <rect x="165" y="30" width="15.0" height="15.0" fill="rgb(147,100,26)" />
  <rect x="180" y="30" width="15.0" height="15.0" fill="rgb(161,100,26)" />
  <rect x="195" y="30" width="15.0" height="15.0" fill="rgb(174,100,26)" />
  <rect x="210" y="30" width="15.0" height="15.0" fill="rgb(187,100,26)" />
  <rect x="225" y="30" width="15.0" height="15.0" fill="rgb(201,100,26)" />
  <rect x="240" y="30" width="15.0" height="15.0" fill="rgb(214,100,26)" />
  <rect x="255" y="30" width="15.0" height="15.0" fill="rgb(228,100,26)" />
  <rect x="270" y="30" width="15.0" height="15.0" fill="rgb(241,100,26)" />
  <rect x="285" y="30" width="15.0" height="15.0" fill="rgb(255,100,26)" />
  <rect x="0" y="45" width="15.0" height="15.0" fill="rgb(0,100,40)" />
  <rect x="15" y="45" width="15.0" height="15.0" fill="rgb(13,100,40)" />
  <rect x="30" y="45" width="15.0" height="15.0" fill="rgb(26,100,40)" />
  <rect x="45" y="45" width="15.0" height="15.0" fill="rgb(40,100,40)" />
  <rect x="60" y="45" width="15.0" height="15.0" fill="rgb(53,100,40)" />
  <rect x="75" y="45" width="15.0" height="15.0" fill="rgb(67,100,40)" />
  <rect x="90" y="45" width="15.0" height="15.0" fill="rgb(80,100,40)" />
  <rect x="105" y="45" width="15.0" height="15.0" fill="rgb(93,100,40)" />
  <rect x="120" y="45" width="15.0" height="15.0" fill="rgb(107,100,40)" />
  <rect x="135" y="45" width="15.0" height="15.0" fill="rgb(120,100,40)" />
  <rect x="150" y="45" width="15.0" height="15.0" fill="rgb(134,100,40)" />
  <rect x="165" y="45" width="15.0" height="15.0" fill="rgb(147,100,40)" />
  <rect x="180" y="45" width="15.0" height="15.0" fill="rgb(161,100,40)" />
  <rect x="195" y="45" width="15.0" height="15.0" fill="rgb(174,100,40)" />
  <rect x="210" y="45" width="15.0" height="15.0" fill="rgb(187,100,40)" />
  <rect x="225" y="45" width="15.0" height="15.0" fill="rgb(201,100,40)" />
  <rect x="240" y="45" width="15.0" height="15.0" fill="rgb(214,100,40)" />
  <rect x="255" y="45" width="15.0" height="15.0" fill="rgb(228,100,40)" />
  <rect x="270" y="45" width="15.0" height="15.0" fill="rgb(241,100,40)" />
  <rect x="285" y="45" width="15.0" height="15.0" fill="rgb(255,100,40)" />
  <rect x="0" y="60" width="15.0" height="15.0" fill="rgb(0,100,53)" />
  <rect x="15" y="60" width="15.0" height="15.0" fill="rgb(13,100,53)" />
  <rect x="30" y="60" width="15.0" height="15.0" fill="rgb(26,100,53)" />
  <rect x="45" y="60" width="15.0" height="15.0" fill="rgb(40,100,53)" />
  <rect x="60" y="60" width="15.0" height="15.0" fill="rgb(53,100,53)" />
  <rect x="75" y="60" width="15.0" height="15.0" fill="rgb(67,100,53)" />
  <rect x="90" y="60" width="15.0" height="15.0" fill="rgb(80,100,53)" />
  <rect x="105" y="60" width="15.0" height="15.0" fill="rgb(93,100,53)" />
  <rect x="120" y="60" width="15.0" height="15.0" fill="rgb(107,100,53)" />
  <rect x="135" y="60" width="15.0" height="15.0" fill="rgb(120,100,53)" />
  <rect x="150" y="60" width="15.0" height="15.0" fill="rgb(134,100,53)" />
  <rect x="165" y="60" width="15.0" height="15.0" fill="rgb(147,100,53)" />
  <rect x="180" y="60" width="15.0" height="15.0" fill="rgb(161,100,53)" />
  <rect x="195" y="60" width="15.0" height="15.0" fill="rgb(174,100,53)" />
  <rect x="210" y="60" width="15.0" height="15.0" fill="rgb(187,100,53)" />
  <rect x="225" y="60" width="15.0" height="15.0" fill="rgb(201,100,53)" />
  <rect x="240" y="60" width="15.0" height="15.0" fill="rgb(214,100,53)" />
  <rect x="255" y="60" width="15.0" height="15.0" fill="rgb(228,100,53)" />
  <rect x="270" y="60" width="15.0" height="15.0" fill="rgb(241,100,53)" />
  <rect x="285" y="60" width="15.0" height="15.0" fill="rgb(255,100,53)" />
  <rect x="0" y="75" width="15.0" height="15.0" fill="rgb(0,100,67)" />
  <rect x="15" y="75" width="15.0" height="15.0" fill="rgb(13,100,67)" />
  <rect x="30" y="75" width="15.0" height="15.0" fill="rgb(26,100,67)" />
  <rect x="45" y="75" width="15.0" height="15.0" fill="rgb(40,100,67)" />
  <rect x="60" y="75" width="15.0" height="15.0" fill="rgb(53,100,67)" />
  <rect x="75" y="75" width="15.0" height="15.0" fill="rgb(67,100,67)" />
  <rect x="90" y="75" width="15.0" height="15.0" fill="rgb(80,100,67)" />
  <rect x="105" y="75" width="15.0" height="15.0" fill="rgb(93,100,67)" />
  <rect x="120" y="75" width="15.0" height="15.0" fill="rgb(107,100,67)" />
  <rect x="135" y="75" width="15.0" height="15.0" fill="rgb(120,100,67)" />
  <rect x="150" y="75" width="15.0" height="15.0" fill="rgb(134,100,67)" />
  <rect x="165" y="75" width="15.0" height="15.0" fill="rgb(147,100,67)" />
  <rect x="180" y="75" width="15.0" height="15.0" fill="rgb(161,100,67)" />
  <rect x="195" y="75" width="15.0" height="15.0" fill="rgb(174,100,67)" />
  <rect x="210" y="75" width="15.0" height="15.0" fill="rgb(187,100,67)" />
  <rect x="225" y="75" width="15.0" height="15.0" fill="rgb(201,100,67)" />
  <rect x="240" y="75" width="15.0" height="15.0" fill="rgb(214,100,67)" />
  <rect x="255" y="75" width="15.0" height="15.0" fill="rgb(228,100,67)" />
  <rect x="270" y="75" width="15.0" height="15.0" fill="rgb(241,100,67)" />
  <rect x="285" y="75" width="15.0" height="15.0" fill="rgb(255,100,67)" />
  <rect x="0" y="90" width="15.0" height="15.0" fill="rgb(0,100,80)" />
  <rect x="15" y="90" width="15.0" height="15.0" fill="rgb(13,100,80)" />
  <rect x="30" y="90" width="15.0" height="15.0" fill="rgb(26,100,80)" />
  <rect x="45" y="90" width="15.0" height="15.0" fill="rgb(40,100,80)" />
  <rect x="60" y="90" width="15.0" height="15.0" fill="rgb(53,100,80)" />
  <rect x="75" y="90" width="15.0" height="15.0" fill="rgb(67,100,80)" />
  <rect x="90" y="90" width="15.0" height="15.0" fill="rgb(80,100,80)" />
  <rect x="105" y="90" width="15.0" height="15.0" fill="rgb(93,100,80)" />
  <rect x="120" y="90" width="15.0" height="15.0" fill="rgb(107,100,80)" />
  <rect x="135" y="90" width="15.0" height="15.0" fill="rgb(120,100,80)" />
  <rect x="150" y="90" width="15.0" height="15.0" fill="rgb(134,100,80)" />
  <rect x="165" y="90" width="15.0" height="15.0" fill="rgb(147,100,80)" />
  <rect x="180" y="90" width="15.0" height="15.0" fill="rgb(161,100,80)" />
  <rect x="195" y="90" width="15.0" height="15.0" fill="rgb(174,100,80)" />
  <rect x="210" y="90" width="15.0" height="15.0" fill="rgb(187,100,80)" />
  <rect x="225" y="90" width="15.0" height="15.0" fill="rgb(201,100,80)" />
  <rect x="240" y="90" width="15.0" height="15.0" fill="rgb(214,100,80)" />
  <rect x="255" y="90" width="15.0" height="15.0" fill="rgb(228,100,80)" />
  <rect x="270" y="90" width="15.0" height="15.0" fill="rgb(241,100,80)" />
  <rect x="285" y="90" width="15.0" height="15.0" fill="rgb(255,100,80)" />
  <rect x="0" y="105" width="15.0" height="15.0" fill="rgb(0,100,93)" />
  <rect x="15" y="105" width="15.0" height="15.0" fill="rgb(13,100,93)" />
  <rect x="30" y="105" width="15.0" height="15.0" fill="rgb(26,100,93)" />
  <rect x="45" y="105" width="15.0" height="15.0" fill="rgb(40,100,93)" />
  <rect x="60" y="105" width="15.0" height="15.0" fill="rgb(53,100,93)" />
  <rect x="75" y="105" width="15.0" height="15.0" fill="rgb(67,100,93)" />
  <rect x="90" y="105" width="15.0" height="15.0" fill="rgb(80,100,93)" />
  <rect x="105" y="105" width="15.0" height="15.0" fill="rgb(93,100,93)" />
  <rect x="120" y="105" width="15.0" height="15.0" fill="rgb(107,100,93)" />
  <rect x="135" y="105" width="15.0" height="15.0" fill="rgb(120,100,93)" />
  <rect x="150" y="105" width="15.0" height="15.0" fill="rgb(134,100,93)" />
  <rect x="165" y="105" width="15.0" height="15.0" fill="rgb(147,100,93)" />
  <rect x="180" y="105" width="15.0" height="15.0" fill="rgb(161,100,93)" />
  <rect x="195" y="105" width="15.0" height="15.0" fill="rgb(174,100,93)" />
  <rect x="210" y="105" width="15.0" height="15.0" fill="rgb(187,100,93)" />
  <rect x="225" y="105" width="15.0" height="15.0" fill="rgb(201,100,93)" />
  <rect x="240" y="105" width="15.0" height="15.0" fill="rgb(214,100,93)" />
  <rect x="255" y="105" width="15.0" height="15.0" fill="rgb(228,100,93)" />
  <rect x="270" y="105" width="15.0" height="15.0" fill="rgb(241,100,93)" />
  <rect x="285" y="105" width="15.0" height="15.0" fill="rgb(255,100,93)" />
  <rect x="0" y="120" width="15.0" height="15.0" fill="rgb(0,100,107)" />
  <rect x="15" y="120" width="15.0" height="15.0" fill="rgb(13,100,107)" />
  <rect x="30" y="120" width="15.0" height="15.0" fill="rgb(26,100,107)" />
  <rect x="45" y="120" width="15.0" height="15.0" fill="rgb(40,100,107)" />
  <rect x="60" y="120" width="15.0" height="15.0" fill="rgb(53,100,107)" />
  <rect x="75" y="120" width="15.0" height="15.0" fill="rgb(67,100,107)" />
  <rect x="90" y="120" width="15.0" height="15.0" fill="rgb(80,100,107)" />
  <rect x="105" y="120" width="15.0" height="15.0" fill="rgb(93,100,107)" />
  <rect x="120" y="120" width="15.0" height="15.0" fill="rgb(107,100,107)" />
  <rect x="135" y="120" width="15.0" height="15.0" fill="rgb(120,100,107)" />
  <rect x="150" y="120" width="15.0" height="15.0" fill="rgb(134,100,107)" />
  <rect x="165" y="120" width="15.0" height="15.0" fill="rgb(147,100,107)" />
  <rect x="180" y="120" width="15.0" height="15.0" fill="rgb(161,100,107)" />
  <rect x="195" y="120" width="15.0" height="15.0" fill="rgb(174,100,107)" />
  <rect x="210" y="120" width="15.0" height="15.0" fill="rgb(187,100,107)" />
  <rect x="225" y="120" width="15.0" height="15.0" fill="rgb(201,100,107)" />
  <rect x="240" y="120" width="15.0" height="15.0" fill="rgb(214,100,107)" />
  <rect x="255" y="120" width="15.0" height="15.0" fill="rgb(228,100,107)" />
  <rect x="270" y="120" width="15.0" height="15.0" fill="rgb(241,100,107)" />
  <rect x="285" y="120" width="15.0" height="15.0" fill="rgb(255,100,107)" />
  <rect x="0" y="135" width="15.0" height="15.0" fill="rgb(0,100,120)" />
  <rect x="15" y="135" width="15.0" height="15.0" fill="rgb(13,100,120)" />
  <rect x="30" y="135" width="15.0" height="15.0" fill="rgb(26,100,120)" />
  <rect x="45" y="135" width="15.0" height="15.0" fill="rgb(40,100,120)" />
  <rect x="60" y="135" width="15.0" height="15.0" fill="rgb(53,100,120)" />
  <rect x="75" y="135" width="15.0" height="15.0" fill="rgb(67,100,120)" />
  <rect x="90" y="135" width="15.0" height="15.0" fill="rgb(80,100,120)" />
  <rect x="105" y="135" width="15.0" height="15.0" fill="rgb(93,100,120)" />
  <rect x="120" y="135" width="15.0" height="15.0" fill="rgb(107,100,120)" />
  <rect x="135" y="135" width="15.0" height="15.0" fill="rgb(120,100,120)" />
  <rect x="150" y="135" width="15.0" height="15.0" fill="rgb(134,100,120)" />
  <rect x="165" y="135" width="15.0" height="15.0" fill="rgb(147,100,120)" />
  <rect x="180" y="135" width="15.0" height="15.0" fill="rgb(161,100,120)" />
  <rect x="195" y="135" width="15.0" height="15.0" fill="rgb(174,100,120)" />
  <rect x="210" y="135" width="15.0" height="15.0" fill="rgb(187,100,120)" />
  <rect x="225" y="135" width="15.0" height="15.0" fill="rgb(201,100,120)" />
  <rect x="240" y="135" width="15.0" height="15.0" fill="rgb(214,100,120)" />
  <rect x="255" y="135" width="15.0" height="15.0" fill="rgb(228,100,120)" />
  <rect x="270" y="135" width="15.0" height="15.0" fill="rgb(241,100,120)" />
  <rect x="285" y="135" width="15.0" height="15.0" fill="rgb(255,100,120)" />
  <rect x="0" y="150" width="15.0" height="15.0" fill="rgb(0,100,134)" />
  <rect x="15" y="150" width="15.0" height="15.0" fill="rgb(13,100,134)" />
  <rect x="30" y="150" width="15.0" height="15.0" fill="rgb(26,100,134)" />
  <rect x="45" y="150" width="15.0" height="15.0" fill="rgb(40,100,134)" />
  <rect x="60" y="150" width="15.0" height="15.0" fill="rgb(53,100,134)" />
  <rect x="75" y="150" width="15.0" height="15.0" fill="rgb(67,100,134)" />
  <rect x="90" y="150" width="15.0" height="15.0" fill="rgb(80,100,134)" />
  <rect x="105" y="150" width="15.0" height="15.0" fill="rgb(93,100,134)" />
  <rect x="120" y="150" width="15.0" height="15.0" fill="rgb(107,100,134)" />
  <rect x="135" y="150" width="15.0" height="15.0" fill="rgb(120,100,134)" />
  <rect x="150" y="150" width="15.0" height="15.0" fill="rgb(134,100,134)" />
  <rect x="165" y="150" width="15.0" height="15.0" fill="rgb(147,100,134)" />
  <rect x="180" y="150" width="15.0" height="15.0" fill="rgb(161,100,134)" />
  <rect x="195" y="150" width="15.0" height="15.0" fill="rgb(174,100,134)" />
  <rect x="210" y="150" width="15.0" height="15.0" fill="rgb(187,100,134)" />
  <rect x="225" y="150" width="15.0" height="15.0" fill="rgb(201,100,134)" />
  <rect x="240" y="150" width="15.0" height="15.0" fill="rgb(214,100,134)" />
  <rect x="255" y="150" width="15.0" height="15.0" fill="rgb(228,100,134)" />
  <rect x="270" y="150" width="15.0" height="15.0" fill="rgb(241,100,134)" />
  <rect x="285" y="150" width="15.0" height="15.0" fill="rgb(255,100,134)" />
  <rect x="0" y="165" width="15.0" height="15.0" fill="rgb(0,100,147)" />
  <rect x="15" y="165" width="15.0" height="15.0" fill="rgb(13,100,147)" />
  <rect x="30" y="165" width="15.0" height="15.0" fill="rgb(26,100,147)" />
  <rect x="45" y="165" width="15.0" height="15.0" fill="rgb(40,100,147)" />
  <rect x="60" y="165" width="15.0" height="15.0" fill="rgb(53,100,147)" />
  <rect x="75" y="165" width="15.0" height="15.0" fill="rgb(67,100,147)" />
  <rect x="90" y="165" width="15.0" height="15.0" fill="rgb(80,100,147)" />
  <rect x="105" y="165" width="15.0" height="15.0" fill="rgb(93,100,147)" />
  <rect x="120" y="165" width="15.0" height="15.0" fill="rgb(107,100,147)" />
  <rect x="135" y="165" width="15.0" height="15.0" fill="rgb(120,100,147)" />
  <rect x="150" y="165" width="15.0" height="15.0" fill="rgb(134,100,147)" />
  <rect x="165" y="165" width="15.0" height="15.0" fill="rgb(147,100,147)" />
  <rect x="180" y="165" width="15.0" height="15.0" fill="rgb(161,100,147)" />
  <rect x="195" y="165" width="15.0" height="15.0" fill="rgb(174,100,147)" />
  <rect x="210" y="165" width="15.0" height="15.0" fill="rgb(187,100,147)" />
  <rect x="225" y="165" width="15.0" height="15.0" fill="rgb(201,100,147)" />
  <rect x="240" y="165" width="15.0" height="15.0" fill="rgb(214,100,147)" />
  <rect x="255" y="165" width="15.0" height="15.0" fill="rgb(228,100,147)" />
  <rect x="270" y="165" width="15.0" height="15.0" fill="rgb(241,100,147)" />
  <rect x="285" y="165" width="15.0" height="15.0" fill="rgb(255,100,147)" />
  <rect x="0" y="180" width="15.0" height="15.0" fill="rgb(0,100,161)" />
  <rect x="15" y="180" width="15.0" height="15.0" fill="rgb(13,100,161)" />
  <rect x="30" y="180" width="15.0" height="15.0" fill="rgb(26,100,161)" />
  <rect x="45" y="180" width="15.0" height="15.0" fill="rgb(40,100,161)" />
  <rect x="60" y="180" width="15.0" height="15.0" fill="rgb(53,100,161)" />
  <rect x="75" y="180" width="15.0" height="15.0" fill="rgb(67,100,161)" />
  <rect x="90" y="180" width="15.0" height="15.0" fill="rgb(80,100,161)" />
  <rect x="105" y="180" width="15.0" height="15.0" fill="rgb(93,100,161)" />
  <rect x="120" y="180" width="15.0" height="15.0" fill="rgb(107,100,161)" />
  <rect x="135" y="180" width="15.0" height="15.0" fill="rgb(120,100,161)" />
  <rect x="150" y="180" width="15.0" height="15.0" fill="rgb(134,100,161)" />
  <rect x="165" y="180" width="15.0" height="15.0" fill="rgb(147,100,161)" />
  <rect x="180" y="180" width="15.0" height="15.0" fill="rgb(161,100,161)" />
  <rect x="195" y="180" width="15.0" height="15.0" fill="rgb(174,100,161)" />
  <rect x="210" y="180" width="15.0" height="15.0" fill="rgb(187,100,161)" />
  <rect x="225" y="180" width="15.0" height="15.0" fill="rgb(201,100,161)" />
  <rect x="240" y="180" width="15.0" height="15.0" fill="rgb(214,100,161)" />
  <rect x="255" y="180" width="15.0" height="15.0" fill="rgb(228,100,161)" />
  <rect x="270" y="180" width="15.0" height="15.0" fill="rgb(241,100,161)" />
  <rect x="285" y="180" width="15.0" height="15.0" fill="rgb(255,100,161)" />
  <rect x="0" y="195" width="15.0" height="15.0" fill="rgb(0,100,174)" />
  <rect x="15" y="195" width="15.0" height="15.0" fill="rgb(13,100,174)" />
  <rect x="30" y="195" width="15.0" height="15.0" fill="rgb(26,100,174)" />
  <rect x="45" y="195" width="15.0" height="15.0" fill="rgb(40,100,174)" />
  <rect x="60" y="195" width="15.0" height="15.0" fill="rgb(53,100,174)" />
  <rect x="75" y="195" width="15.0" height="15.0" fill="rgb(67,100,174)" />
  <rect x="90" y="195" width="15.0" height="15.0" fill="rgb(80,100,174)" />
  <rect x="105" y="195" width="15.0" height="15.0" fill="rgb(93,100,174)" />
  <rect x="120" y="195" width="15.0" height="15.0" fill="rgb(107,100,174)" />
  <rect x="135" y="195" width="15.0" height="15.0" fill="rgb(120,100,174)" />
  <rect x="150" y="195" width="15.0" height="15.0" fill="rgb(134,100,174)" />
  <rect x="165" y="195" width="15.0" height="15.0" fill="rgb(147,100,174)" />
  <rect x="180" y="195" width="15.0" height="15.0" fill="rgb(161,100,174)" />
  <rect x="195" y="195" width="15.0" height="15.0" fill="rgb(174,100,174)" />
  <rect x="210" y="195" width="15.0" height="15.0" fill="rgb(187,100,174)" />
  <rect x="225" y="195" width="15.0" height="15.0" fill="rgb(201,100,174)" />
  <rect x="240" y="195" width="15.0" height="15.0" fill="rgb(214,100,174)" />
  <rect x="255" y="195" width="15.0" height="15.0" fill="rgb(228,100,174)" />
  <rect x="270" y="195" width="15.0" height="15.0" fill="rgb(241,100,174)" />
  <rect x="285" y="195" width="15.0" height="15.0" fill="rgb(255,100,174)" />
  <rect x="0" y="210" width="15.0" height="15.0" fill="rgb(0,100,187)" />
  <rect x="15" y="210" width="15.0" height="15.0" fill="rgb(13,100,187)" />
  <rect x="30" y="210" width="15.0" height="15.0" fill="rgb(26,100,187)" />
  <rect x="45" y="210" width="15.0" height="15.0" fill="rgb(40,100,187)" />
  <rect x="60" y="210" width="15.0" height="15.0" fill="rgb(53,100,187)" />
  <rect x="75" y="210" width="15.0" height="15.0" fill="rgb(67,100,187)" />
  <rect x="90" y="210" width="15.0" height="15.0" fill="rgb(80,100,187)" />
  <rect x="105" y="210" width="15.0" height="15.0" fill="rgb(93,100,187)" />
  <rect x="120" y="210" width="15.0" height="15.0" fill="rgb(107,100,187)" />
  <rect x="135" y="210" width="15.0" height="15.0" fill="rgb(120,100,187)" />
  <rect x="150" y="210" width="15.0" height="15.0" fill="rgb(134,100,187)" />
  <rect x="165" y="210" width="15.0" height="15.0" fill="rgb(147,100,187)" />
  <rect x="180" y="210" width="15.0" height="15.0" fill="rgb(161,100,187)" />
  <rect x="195" y="210" width="15.0" height="15.0" fill="rgb(174,100,187)" />
  <rect x="210" y="210" width="15.0" height="15.0" fill="rgb(187,100,187)" />
  <rect x="225" y="210" width="15.0" height="15.0" fill="rgb(201,100,187)" />
  <rect x="240" y="210" width="15.0" height="15.0" fill="rgb(214,100,187)" />
  <rect x="255" y="210" width="15.0" height="15.0" fill="rgb(228,100,187)" />
  <rect x="270" y="210" width="15.0" height="15.0" fill="rgb(241,100,187)" />
  <rect x="285" y="210" width="15.0" height="15.0" fill="rgb(255,100,187)" />
  <rect x="0" y="225" width="15.0" height="15.0" fill="rgb(0,100,201)" />
  <rect x="15" y="225" width="15.0" height="15.0" fill="rgb(13,100,201)" />
  <rect x="30" y="225" width="15.0" height="15.0" fill="rgb(26,100,201)" />
  <rect x="45" y="225" width="15.0" height="15.0" fill="rgb(40,100,201)" />
  <rect x="60" y="225" width="15.0" height="15.0" fill="rgb(53,100,201)" />
  <rect x="75" y="225" width="15.0" height="15.0" fill="rgb(67,100,201)" />
  <rect x="90" y="225" width="15.0" height="15.0" fill="rgb(80,100,201)" />
  <rect x="105" y="225" width="15.0" height="15.0" fill="rgb(93,100,201)" />
  <rect x="120" y="225" width="15.0" height="15.0" fill="rgb(107,100,201)" />
  <rect x="135" y="225" width="15.0" height="15.0" fill="rgb(120,100,201)" />
  <rect x="150" y="225" width="15.0" height="15.0" fill="rgb(134,100,201)" />
  <rect x="165" y="225" width="15.0" height="15.0" fill="rgb(147,100,201)" />
  <rect x="180" y="225" width="15.0" height="15.0" fill="rgb(161,100,201)" />
  <rect x="195" y="225" width="15.0" height="15.0" fill="rgb(174,100,201)" />
  <rect x="210" y="225" width="15.0" height="15.0" fill="rgb(187,100,201)" />
  <rect x="225" y="225" width="15.0" height="15.0" fill="rgb(201,100,201)" />
  <rect x="240" y="225" width="15.0" height="15.0" fill="rgb(214,100,201)" />
  <rect x="255" y="225" width="15.0" height="15.0" fill="rgb(228,100,201)" />
  <rect x="270" y="225" width="15.0" height="15.0" fill="rgb(241,100,201)" />
  <rect x="285" y="225" width="15.0" height="15.0" fill="rgb(255,100,201)" />
  <rect x="0" y="240" width="15.0" height="15.0" fill="rgb(0,100,214)" />
  <rect x="15" y="240" width="15.0" height="15.0" fill="rgb(13,100,214)" />
  <rect x="30" y="240" width="15.0" height="15.0" fill="rgb(26,100,214)" />
  <rect x="45" y="240" width="15.0" height="15.0" fill="rgb(40,100,214)" />
  <rect x="60" y="240" width="15.0" height="15.0" fill="rgb(53,100,214)" />
  <rect x="75" y="240" width="15.0" height="15.0" fill="rgb(67,100,214)" />
  <rect x="90" y="240" width="15.0" height="15.0" fill="rgb(80,100,214)" />
  <rect x="105" y="240" width="15.0" height="15.0" fill="rgb(93,100,214)" />
  <rect x="120" y="240" width="15.0" height="15.0" fill="rgb(107,100,214)" />
  <rect x="135" y="240" width="15.0" height="15.0" fill="rgb(120,100,214)" />
  <rect x="150" y="240" width="15.0" height="15.0" fill="rgb(134,100,214)" />
  <rect x="165" y="240" width="15.0" height="15.0" fill="rgb(147,100,214)" />
  <rect x="180" y="240" width="15.0" height="15.0" fill="rgb(161,100,214)" />
  <rect x="195" y="240" width="15.0" height="15.0" fill="rgb(174,100,214)" />
  <rect x="210" y="240" width="15.0" height="15.0" fill="rgb(187,100,214)" />
  <rect x="225" y="240" width="15.0" height="15.0" fill="rgb(201,100,214)" />
  <rect x="240" y="240" width="15.0" height="15.0" fill="rgb(214,100,214)" />
  <rect x="255" y="240" width="15.0" height="15.0" fill="rgb(228,100,214)" />
  <rect x="270" y="240" width="15.0" height="15.0" fill="rgb(241,100,214)" />
  <rect x="285" y="240" width="15.0" height="15.0" fill="rgb(255,100,214)" />
  <rect x="0" y="255" width="15.0" height="15.0" fill="rgb(0,100,228)" />
  <rect x="15" y="255" width="15.0" height="15.0" fill="rgb(13,100,228)" />
  <rect x="30" y="255" width="15.0" height="15.0" fill="rgb(26,100,228)" />
  <rect x="45" y="255" width="15.0" height="15.0" fill="rgb(40,100,228)" />
  <rect x="60" y="255" width="15.0" height="15.0" fill="rgb(53,100,228)" />
  <rect x="75" y="255" width="15.0" height="15.0" fill="rgb(67,100,228)" />
  <rect x="90" y="255" width="15.0" height="15.0" fill="rgb(80,100,228)" />
  <rect x="105" y="255" width="15.0" height="15.0" fill="rgb(93,100,228)" />
  <rect x="120" y="255" width="15.0" height="15.0" fill="rgb(107,100,228)" />
  <rect x="135" y="255" width="15.0" height="15.0" fill="rgb(120,100,228)" />
  <rect x="150" y="255" width="15.0" height="15.0" fill="rgb(134,100,228)" />
  <rect x="165" y="255" width="15.0" height="15.0" fill="rgb(147,100,228)" />
  <rect x="180" y="255" width="15.0" height="15.0" fill="rgb(161,100,228)" />
  <rect x="195" y="255" width="15.0" height="15.0" fill="rgb(174,100,228)" />
  <rect x="210" y="255" width="15.0" height="15.0" fill="rgb(187,100,228)" />
  <rect x="225" y="255" width="15.0" height="15.0" fill="rgb(201,100,228)" />
  <rect x="240" y="255" width="15.0" height="15.0" fill="rgb(214,100,228)" />
  <rect x="255" y="255" width="15.0" height="15.0" fill="rgb(228,100,228)" />
  <rect x="270" y="255" width="15.0" height="15.0" fill="rgb(241,100,228)" />
  <rect x="285" y="255" width="15.0" height="15.0" fill="rgb(255,100,228)" />
  <rect x="0" y="270" width="15.0" height="15.0" fill="rgb(0,100,241)" />
  <rect x="15" y="270" width="15.0" height="15.0" fill="rgb(13,100,241)" />
  <rect x="30" y="270" width="15.0" height="15.0" fill="rgb(26,100,241)" />
  <rect x="45" y="270" width="15.0" height="15.0" fill="rgb(40,100,241)" />
  <rect x="60" y="270" width="15.0" height="15.0" fill="rgb(53,100,241)" />
  <rect x="75" y="270" width="15.0" height="15.0" fill="rgb(67,100,241)" />
  <rect x="90" y="270" width="15.0" height="15.0" fill="rgb(80,100,241)" />
  <rect x="105" y="270" width="15.0" height="15.0" fill="rgb(93,100,241)" />
  <rect x="120" y="270" width="15.0" height="15.0" fill="rgb(107,100,241)" />
  <rect x="135" y="270" width="15.0" height="15.0" fill="rgb(120,100,241)" />
  <rect x="150" y="270" width="15.0" height="15.0" fill="rgb(134,100,241)" />
  <rect x="165" y="270" width="15.0" height="15.0" fill="rgb(147,100,241)" />
  <rect x="180" y="270" width="15.0" height="15.0" fill="rgb(161,100,241)" />
  <rect x="195" y="270" width="15.0" height="15.0" fill="rgb(174,100,241)" />
  <rect x="210" y="270" width="15.0" height="15.0" fill="rgb(187,100,241)" />
  <rect x="225" y="270" width="15.0" height="15.0" fill="rgb(201,100,241)" />
  <rect x="240" y="270" width="15.0" height="15.0" fill="rgb(214,100,241)" />
  <rect x="255" y="270" width="15.0" height="15.0" fill="rgb(228,100,241)" />
  <rect x="270" y="270" width="15.0" height="15.0" fill="rgb(241,100,241)" />
  <rect x="285" y="270" width="15.0" height="15.0" fill="rgb(255,100,241)" />
  <rect x="0" y="285" width="15.0" height="15.0" fill="rgb(0,100,255)" />
  <rect x="15" y="285" width="15.0" height="15.0" fill="rgb(13,100,255)" />
  <rect x="30" y="285" width="15.0" height="15.0" fill="rgb(26,100,255)" />
  <rect x="45" y="285" width="15.0" height="15.0" fill="rgb(40,100,255)" />
  <rect x="60" y="285" width="15.0" height="15.0" fill="rgb(53,100,255)" />
  <rect x="75" y="285" width="15.0" height="15.0" fill="rgb(67,100,255)" />
  <rect x="90" y="285" width="15.0" height="15.0" fill="rgb(80,100,255)" />
  <rect x="105" y="285" width="15.0" height="15.0" fill="rgb(93,100,255)" />
  <rect x="120" y="285" width="15.0" height="15.0" fill="rgb(107,100,255)" />
  <rect x="135" y="285" width="15.0" height="15.0" fill="rgb(120,100,255)" />
  <rect x="150" y="285" width="15.0" height="15.0" fill="rgb(134,100,255)" />
  <rect x="165" y="285" width="15.0" height="15.0" fill="rgb(147,100,255)" />
  <rect x="180" y="285" width="15.0" height="15.0" fill="rgb(161,100,255)" />
  <rect x="195" y="285" width="15.0" height="15.0" fill="rgb(174,100,255)" />
  <rect x="210" y="285" width="15.0" height="15.0" fill="rgb(187,100,255)" />
  <rect x="225" y="285" width="15.0" height="15.0" fill="rgb(201,100,255)" />
  <rect x="240" y="285" width="15.0" height="15.0" fill="rgb(214,100,255)" />
  <rect x="255" y="285" width="15.0" height="15.0" fill="rgb(228,100,255)" />
  <rect x="270" y="285" width="15.0" height="15.0" fill="rgb(241,100,255)" />
  <rect x="285" y="285" width="15.0" height="15.0" fill="rgb(255,100,255)" />
</svg>