<?xml version="1.0" encoding="UTF-8"?>
<svg xmlns="http://www.w3.org/2000/svg" width="160" height="160" viewBox="0 0 160 160">
  <rect width="100%" height="100%" fill="#f8f9fa" />
  <circle cx="10.0" cy="10.0" r="3.0" fill="#6366f1" />
  <rect x="0" y="0" width="20.0" height="20.0" fill="none" stroke="#d1d5db" stroke-width="0.5" />
  <circle cx="30.0" cy="10.0" r="3.0" fill="#6366f1" />
  <rect x="20" y="0" width="20.0" height="20.0" fill="none" stroke="#d1d5db" stroke-width="0.5" />
  <circle cx="50.0" cy="10.0" r="3.0" fill="#6366f1" />
  <rect x="40" y="0" width="20.0" height="20.0" fill="none" stroke="#d1d5db" stroke-width="0.5" />
  <circle cx="70.0" cy="10.0" r="3.0" fill="#6366f1" />
  <rect x="60" y="0" width="20.0" height="20.0" fill="none" stroke="#d1d5db" stroke-width="0.5" />
  <circle cx="90.0" cy="10.0" r="3.0" fill="#6366f1" />
  <rect x="80" y="0" width="20.0" height="20.0" fill="none" stroke="#d1d5db" stroke-width="0.5" />
  <circle cx="110.0" cy="10.0" r="3.0" fill="#6366f1" />
  <rect x="100" y="0" width="20.0" height="20.0" fill="none" stroke="#d1d5db" stroke-width="0.5" />
  <circle cx="130.0" cy="10.0" r="3.0" fill="#6366f1" />
  <rect x="120" y="0" width="20.0" height="20.0" fill="none" stroke="#d1d5db" stroke-width="0.5" />
  <circle cx="150.0" cy="10.0" r="3.0" fill="#6366f1" />
  <rect x="140" y="0" width="20.0" height="20.0" fill="none" stroke="#d1d5db" stroke-width="0.5" />
  <circle cx="10.0" cy="30.0" r="3.0" fill="#6366f1" />
  <rect x="0" y="20" width="20.0" height="20.0" fill="none" stroke="#d1d5db" stroke-width="0.5" />
  <circle cx="30.0" cy="30.0" r="3.0" fill="#6366f1" />
  <rect x="20" y="20" width="20.0" height="20.0" fill="none" stroke="#d1d5db" stroke-width="0.5" />
  <circle cx="50.0" cy="30.0" r="3.0" fill="#6366f1" />
  <rect x="40" y="20" width="20.0" height="20.0" fill="none" stroke="#d1d5db" stroke-width="0.5" />
  <circle cx="70.0" cy="30.0" r="3.0" fill="#6366f1" />
  <rect x="60" y="20" width="20.0" height="20.0" fill="none" stroke="#d1d5db" stroke-width="0.5" />
  <circle cx="90.0" cy="30.0" r="3.0" fill="#6366f1" />
  <rect x="80" y="20" width="20.0" height="20.0" fill="none" stroke="#d1d5db" stroke-width="0.5" />
  <circle cx="110.0" cy="30.0" r="3.0" fill="#6366f1" />
  <rect x="100" y="20" width="20.0" height="20.0" fill="none" stroke="#d1d5db" stroke-width="0.5" />
  <circle cx="130.0" cy="30.0" r="3.0" fill="#6366f1" />
  <rect x="120" y="20" width="20.0" height="20.0" fill="none" stroke="#d1d5db" stroke-width="0.5" />
  <circle cx="150.0" cy="30.0" r="3.0" fill="#6366f1" />
  <rect x="140" y="20" width="20.0" height="20.0" fill="none" stroke="#d1d5db" stroke-width="0.5" />
  <circle cx="10.0" cy="50.0" r="3.0" fill="#6366f1" />
  <rect x="0" y="40" width="20.0" height="20.0" fill="none" stroke="#d1d5db" stroke-width="0.5" />
  <circle cx="30.0" cy="50.0" r="3.0" fill="#6366f1" />
  <rect x="20" y="40" width="20.0" height="20.0" fill="none" stroke="#d1d5db" stroke-width="0.5" />
  <circle cx="50.0" cy="50.0" r="3.0" fill="#6366f1" />
  <rect x="40" y="40" width="20.0" height="20.0" fill="none" stroke="#d1d5db" stroke-width="0.5" />
  <circle cx="70.0" cy="50.0" r="3.0" fill="#6366f1" />
  <rect x="60" y="40" width="20.0" height="20.0" fill="none" stroke="#d1d5db" stroke-width="0.5" />
  <circle cx="90.0" cy="50.0" r="3.0" fill="#6366f1" />
  <rect x="80" y="40" width="20.0" height="20.0" fill="none" stroke="#d1d5db" stroke-width="0.5" />
  <circle cx="110.0" cy="50.0" r="3.0" fill="#6366f1" />
  <rect x="100" y="40" width="20.0" height="20.0" fill="none" stroke="#d1d5db" stroke-width="0.5" />
  <circle cx="130.0" cy="50.0" r="3.0" fill="#6366f1" />
  <rect x="120" y="40" width="20.0" height="20.0" fill="none" stroke="#d1d5db" stroke-width="0.5" />
  <circle cx="150.0" cy="50.0" r="3.0" fill="#6366f1" />
  <rect x="140" y="40" width="20.0" height="20.0" fill="none" stroke="#d1d5db" stroke-width="0.5" />
  <circle cx="10.0" cy="70.0" r="3.0" fill="#6366f1" />
  <rect x="0" y="60" width="20.0" height="20.0" fill="none" stroke="#d1d5db" stroke-width="0.5" />
  <circle cx="30.0" cy="70.0" r="3.0" fill="#6366f1" />
  <rect x="20" y="60" width="20.0" height="20.0" fill="none" stroke="#d1d5db" stroke-width="0.5" />
  <circle cx="50.0" cy="70.0" r="3.0" fill="#6366f1" />
  <rect x="40" y="60" width="20.0" height="20.0" fill="none" stroke="#d1d5db" stroke-width="0.5" />
  <circle cx="70.0" cy="70.0" r="3.0" fill="#6366f1" />
  <rect x="60" y="60" width="20.0" height="20.0" fill="none" stroke="#d1d5db" stroke-width="0.5" />
  <circle cx="90.0" cy="70.0" r="3.0" fill="#6366f1" />
  <rect x="80" y="60" width="20.0" height="20.0" fill="none" stroke="#d1d5db" stroke-width="0.5" />
  <circle cx="110.0" cy="70.0" r="3.0" fill="#6366f1" />
  <rect x="100" y="60" width="20.0" height="20.0" fill="none" stroke="#d1d5db" stroke-width="0.5" />
  <circle cx="130.0" cy="70.0" r="3.0" fill="#6366f1" />
  <rect x="120" y="60" width="20.0" height="20.0" fill="none" stroke="#d1d5db" stroke-width="0.5" />
  <circle cx="150.0" cy="70.0" r="3.0" fill="#6366f1" />
  <rect x="140" y="60" width="20.0" height="20.0" fill="none" stroke="#d1d5db" stroke-width="0.5" />
  <circle cx="10.0" cy="90.0" r="3.0" fill="#6366f1" />
  <rect x="0" y="80" width="20.0" height="20.0" fill="none" stroke="#d1d5db" stroke-width="0.5" />
  <circle cx="30.0" cy="90.0" r="3.0" fill="#6366f1" />
  <rect x="20" y="80" width="20.0" height="20.0" fill="none" stroke="#d1d5db" stroke-width="0.5" />
  <circle cx="50.0" cy="90.0" r="3.0" fill="#6366f1" />
  <rect x="40" y="80" width="20.0" height="20.0" fill="none" stroke="#d1d5db" stroke-width="0.5" />
  <circle cx="70.0" cy="90.0" r="3.0" fill="#6366f1" />
  <rect x="60" y="80" width="20.0" height="20.0" fill="none" stroke="#d1d5db" stroke-width="0.5" />
  <circle cx="90.0" cy="90.0" r="3.0" fill="#6366f1" />
  <rect x="80" y="80" width="20.0" height="20.0" fill="none" stroke="#d1d5db" stroke-width="0.5" />
  <circle cx="110.0" cy="90.0" r="3.0" fill="#6366f1" />
  <rect x="100" y="80" width="20.0" height="20.0" fill="none" stroke="#d1d5db" stroke-width="0.5" />
  <circle cx="130.0" cy="90.0" r="3.0" fill="#6366f1" />
  <rect x="120" y="80" width="20.0" height="20.0" fill="none" stroke="#d1d5db" stroke-width="0.5" />
  <circle cx="150.0" cy="90.0" r="3.0" fill="#6366f1" />
  <rect x="140" y="80" width="20.0" height="20.0" fill="none" stroke="#d1d5db" stroke-width="0.5" />
  <circle cx="10.0" cy="110.0" r="3.0" fill="#6366f1" />
  <rect x="0" y="100" width="20.0" height="20.0" fill="none" stroke="#d1d5db" stroke-width="0.5" />
  <circle cx="30.0" cy="110.0" r="3.0" fill="#6366f1" />
  <rect x="20" y="100" width="20.0" height="20.0" fill="none" stroke="#d1d5db" stroke-width="0.5" />
  <circle cx="50.0" cy="110.0" r="3.0" fill="#6366f1" />
  <rect x="40" y="100" width="20.0" height="20.0" fill="none" stroke="#d1d5db" stroke-width="0.5" />
  <circle cx="70.0" cy="110.0" r="3.0" fill="#6366f1" />
  <rect x="60" y="100" width="20.0" height="20.0" fill="none" stroke="#d1d5db" stroke-width="0.5" />
  <circle cx="90.0" cy="110.0" r="3.0" fill="#6366f1" />
  <rect x="80" y="100" width="20.0" height="20.0" fill="none" stroke="#d1d5db" stroke-width="0.5" />
  <circle cx="110.0" cy="110.0" r="3.0" fill="#6366f1" />
  <rect x="100" y="100" width="20.0" height="20.0" fill="none" stroke="#d1d5db" stroke-width="0.5" />
  <circle cx="130.0" cy="110.0" r="3.0" fill="#6366f1" />
  <rect x="120" y="100" width="20.0" height="20.0" fill="none" stroke="#d1d5db" stroke-width="0.5" />
  <circle cx="150.0" cy="110.0" r="3.0" fill="#6366f1" />
  <rect x="140" y="100" width="20.0" height="20.0" fill="none" stroke="#d1d5db" stroke-width="0.5" />
  <circle cx="10.0" cy="130.0" r="3.0" fill="#6366f1" />
  <rect x="0" y="120" width="20.0" height="20.0" fill="none" stroke="#d1d5db" stroke-width="0.5" />
  <circle cx="30.0" cy="130.0" r="3.0" fill="#6366f1" />
  <rect x="20" y="120" width="20.0" height="20.0" fill="none" stroke="#d1d5db" stroke-width="0.5" />
  <circle cx="50.0" cy="130.0" r="3.0" fill="#6366f1" />
  <rect x="40" y="120" width="20.0" height="20.0" fill="none" stroke="#d1d5db" stroke-width="0.5" />
  <circle cx="70.0" cy="130.0" r="3.0" fill="#6366f1" />
  <rect x="60" y="120" width="20.0" height="20.0" fill="none" stroke="#d1d5db" stroke-width="0.5" />
  <circle cx="90.0" cy="130.0" r="3.0" fill="#6366f1" />
  <rect x="80" y="120" width="20.0" height="20.0" fill="none" stroke="#d1d5db" stroke-width="0.5" />
  <circle cx="110.0" cy="130.0" r="3.0" fill="#6366f1" />
  <rect x="100" y="120" width="20.0" height="20.0" fill="none" stroke="#d1d5db" stroke-width="0.5" />
  <circle cx="130.0" cy="130.0" r="3.0" fill="#6366f1" />
  <rect x="120" y="120" width="20.0" height="20.0" fill="none" stroke="#d1d5db" stroke-width="0.5" />
  <circle cx="150.0" cy="130.0" r="3.0" fill="#6366f1" />
  <rect x="140" y="120" width="20.0" height="20.0" fill="none" stroke="#d1d5db" stroke-width="0.5" />
  <circle cx="10.0" cy="150.0" r="3.0" fill="#6366f1" />
  <rect x="0" y="140" width="20.0" height="20.0" fill="none" stroke="#d1d5db" stroke-width="0.5" />
  <circle cx="30.0" cy="150.0" r="3.0" fill="#6366f1" />
  <rect x="20" y="140" width="20.0" height="20.0" fill="none" stroke="#d1d5db" stroke-width="0.5" />
  <circle cx="50.0" cy="150.0" r="3.0" fill="#6366f1" />
  <rect x="40" y="140" width="20.0" height="20.0" fill="none" stroke="#d1d5db" stroke-width="0.5" />
  <circle cx="70.0" cy="150.0" r="3.0" fill="#6366f1" />
  <rect x="60" y="140" width="20.0" height="20.0" fill="none" stroke="#d1d5db" stroke-width="0.5" />
  <circle cx="90.0" cy="150.0" r="3.0" fill="#6366f1" />
  <rect x="80" y="140" width="20.0" height="20.0" fill="none" stroke="#d1d5db" stroke-width="0.5" />
  <circle cx="110.0" cy="150.0" r="3.0" fill="#6366f1" />
  <rect x="100" y="140" width="20.0" height="20.0" fill="none" stroke="#d1d5db" stroke-width="0.5" />
  <circle cx="130.0" cy="150.0" r="3.0" fill="#6366f1" />
  <rect x="120" y="140" width="20.0" height="20.0" fill="none" stroke="#d1d5db" stroke-width="0.5" />
  <circle cx="150.0" cy="150.0" r="3.0" fill="#6366f1" />
  <rect x="140" y="140" width="20.0" height="20.0" fill="none" stroke="#d1d5db" stroke-width="0.5" />
</svg>