<?xml version="1.0" encoding="UTF-8"?>
<svg xmlns="http://www.w3.org/2000/svg" width="320" height="160" viewBox="0 0 320 160">
  <rect width="100%" height="100%" fill="#f8f9fa" />
  <circle cx="20.0" cy="10.0" r="3.0" fill="#6366f1" />
  <rect x="0" y="0" width="40.0" height="20.0" fill="none" stroke="#d1d5db" stroke-width="0.5" />
  <circle cx="60.0" cy="10.0" r="3.0" fill="#6366f1" />
  <rect x="40" y="0" width="40.0" height="20.0" fill="none" stroke="#d1d5db" stroke-width="0.5" />
  <circle cx="100.0" cy="10.0" r="3.0" fill="#6366f1" />
  <rect x="80" y="0" width="40.0" height="20.0" fill="none" stroke="#d1d5db" stroke-width="0.5" />
  <circle cx="140.0" cy="10.0" r="3.0" fill="#6366f1" />
  <rect x="120" y="0" width="40.0" height="20.0" fill="none" stroke="#d1d5db" stroke-width="0.5" />
  <circle cx="180.0" cy="10.0" r="3.0" fill="#6366f1" />
  <rect x="160" y="0" width="40.0" height="20.0" fill="none" stroke="#d1d5db" stroke-width="0.5" />
  <circle cx="220.0" cy="10.0" r="3.0" fill="#6366f1" />
  <rect x="200" y="0" width="40.0" height="20.0" fill="none" stroke="#d1d5db" stroke-width="0.5" />
  <circle cx="260.0" cy="10.0" r="3.0" fill="#6366f1" />
  <rect x="240" y="0" width="40.0" height="20.0" fill="none" stroke="#d1d5db" stroke-width="0.5" />
  <circle cx="300.0" cy="10.0" r="3.0" fill="#6366f1" />
  <rect x="280" y="0" width="40.0" height="20.0" fill="none" stroke="#d1d5db" stroke-width="0.5" />
  <circle cx="20.0" cy="30.0" r="3.0" fill="#6366f1" />
  <rect x="0" y="20" width="40.0" height="20.0" fill="none" stroke="#d1d5db" stroke-width="0.5" />
  <circle cx="60.0" cy="30.0" r="3.0" fill="#6366f1" />
  <rect x="40" y="20" width="40.0" height="20.0" fill="none" stroke="#d1d5db" stroke-width="0.5" />
  <circle cx="100.0" cy="30.0" r="3.0" fill="#6366f1" />
  <rect x="80" y="20" width="40.0" height="20.0" fill="none" stroke="#d1d5db" stroke-width="0.5" />
  <circle cx="140.0" cy="30.0" r="3.0" fill="#6366f1" />
  <rect x="120" y="20" width="40.0" height="20.0" fill="none" stroke="#d1d5db" stroke-width="0.5" />
  <circle cx="180.0" cy="30.0" r="3.0" fill="#6366f1" />
  <rect x="160" y="20" width="40.0" height="20.0" fill="none" stroke="#d1d5db" stroke-width="0.5" />
  <circle cx="220.0" cy="30.0" r="3.0" fill="#6366f1" />
  <rect x="200" y="20" width="40.0" height="20.0" fill="none" stroke="#d1d5db" stroke-width="0.5" />
  <circle cx="260.0" cy="30.0" r="3.0" fill="#6366f1" />
  <rect x="240" y="20" width="40.0" height="20.0" fill="none" stroke="#d1d5db" stroke-width="0.5" />
  <circle cx="300.0" cy="30.0" r="3.0" fill="#6366f1" />
  <rect x="280" y="20" width="40.0" height="20.0" fill="none" stroke="#d1d5db" stroke-width="0.5" />
  <circle cx="20.0" cy="50.0" r="3.0" fill="#6366f1" />
  <rect x="0" y="40" width="40.0" height="20.0" fill="none" stroke="#d1d5db" stroke-width="0.5" />
  <circle cx="60.0" cy="50.0" r="3.0" fill="#6366f1" />
  <rect x="40" y="40" width="40.0" height="20.0" fill="none" stroke="#d1d5db" stroke-width="0.5" />
  <circle cx="100.0" cy="50.0" r="3.0" fill="#6366f1" />
  <rect x="80" y="40" width="40.0" height="20.0" fill="none" stroke="#d1d5db" stroke-width="0.5" />
  <circle cx="140.0" cy="50.0" r="3.0" fill="#6366f1" />
  <rect x="120" y="40" width="40.0" height="20.0" fill="none" stroke="#d1d5db" stroke-width="0.5" />
  <circle cx="180.0" cy="50.0" r="3.0" fill="#6366f1" />
  <rect x="160" y="40" width="40.0" height="20.0" fill="none" stroke="#d1d5db" stroke-width="0.5" />
  <circle cx="220.0" cy="50.0" r="3.0" fill="#6366f1" />
  <rect x="200" y="40" width="40.0" height="20.0" fill="none" stroke="#d1d5db" stroke-width="0.5" />
  <circle cx="260.0" cy="50.0" r="3.0" fill="#6366f1" />
  <rect x="240" y="40" width="40.0" height="20.0" fill="none" stroke="#d1d5db" stroke-width="0.5" />
  <circle cx="300.0" cy="50.0" r="3.0" fill="#6366f1" />
  <rect x="280" y="40" width="40.0" height="20.0" fill="none" stroke="#d1d5db" stroke-width="0.5" />
  <circle cx="20.0" cy="70.0" r="3.0" fill="#6366f1" />
  <rect x="0" y="60" width="40.0" height="20.0" fill="none" stroke="#d1d5db" stroke-width="0.5" />
  <circle cx="60.0" cy="70.0" r="3.0" fill="#6366f1" />
  <rect x="40" y="60" width="40.0" height="20.0" fill="none" stroke="#d1d5db" stroke-width="0.5" />
  <circle cx="100.0" cy="70.0" r="3.0" fill="#6366f1" />
  <rect x="80" y="60" width="40.0" height="20.0" fill="none" stroke="#d1d5db" stroke-width="0.5" />
  <circle cx="140.0" cy="70.0" r="3.0" fill="#6366f1" />
  <rect x="120" y="60" width="40.0" height="20.0" fill="none" stroke="#d1d5db" stroke-width="0.5" />
  <circle cx="180.0" cy="70.0" r="3.0" fill="#6366f1" />
  <rect x="160" y="60" width="40.0" height="20.0" fill="none" stroke="#d1d5db" stroke-width="0.5" />
  <circle cx="220.0" cy="70.0" r="3.0" fill="#6366f1" />
  <rect x="200" y="60" width="40.0" height="20.0" fill="none" stroke="#d1d5db" stroke-width="0.5" />
  <circle cx="260.0" cy="70.0" r="3.0" fill="#6366f1" />
  <rect x="240" y="60" width="40.0" height="20.0" fill="none" stroke="#d1d5db" stroke-width="0.5" />
  <circle cx="300.0" cy="70.0" r="3.0" fill="#6366f1" />
  <rect x="280" y="60" width="40.0" height="20.0" fill="none" stroke="#d1d5db" stroke-width="0.5" />
  <circle cx="20.0" cy="90.0" r="3.0" fill="#6366f1" />
  <rect x="0" y="80" width="40.0" height="20.0" fill="none" stroke="#d1d5db" stroke-width="0.5" />
  <circle cx="60.0" cy="90.0" r="3.0" fill="#6366f1" />
  <rect x="40" y="80" width="40.0" height="20.0" fill="none" stroke="#d1d5db" stroke-width="0.5" />
  <circle cx="100.0" cy="90.0" r="3.0" fill="#6366f1" />
  <rect x="80" y="80" width="40.0" height="20.0" fill="none" stroke="#d1d5db" stroke-width="0.5" />
  <circle cx="140.0" cy="90.0" r="3.0" fill="#6366f1" />
  <rect x="120" y="80" width="40.0" height="20.0" fill="none" stroke="#d1d5db" stroke-width="0.5" />
  <circle cx="180.0" cy="90.0" r="3.0" fill="#6366f1" />
  <rect x="160" y="80" width="40.0" height="20.0" fill="none" stroke="#d1d5db" stroke-width="0.5" />
  <circle cx="220.0" cy="90.0" r="3.0" fill="#6366f1" />
  <rect x="200" y="80" width="40.0" height="20.0" fill="none" stroke="#d1d5db" stroke-width="0.5" />
  <circle cx="260.0" cy="90.0" r="3.0" fill="#6366f1" />
  <rect x="240" y="80" width="40.0" height="20.0" fill="none" stroke="#d1d5db" stroke-width="0.5" />
  <circle cx="300.0" cy="90.0" r="3.0" fill="#6366f1" />
  <rect x="280" y="80" width="40.0" height="20.0" fill="none" stroke="#d1d5db" stroke-width="0.5" />
  <circle cx="20.0" cy="110.0" r="3.0" fill="#6366f1" />
  <rect x="0" y="100" width="40.0" height="20.0" fill="none" stroke="#d1d5db" stroke-width="0.5" />
  <circle cx="60.0" cy="110.0" r="3.0" fill="#6366f1" />
  <rect x="40" y="100" width="40.0" height="20.0" fill="none" stroke="#d1d5db" stroke-width="0.5" />
  <circle cx="100.0" cy="110.0" r="3.0" fill="#6366f1" />
  <rect x="80" y="100" width="40.0" height="20.0" fill="none" stroke="#d1d5db" stroke-width="0.5" />
  <circle cx="140.0" cy="110.0" r="3.0" fill="#6366f1" />
  <rect x="120" y="100" width="40.0" height="20.0" fill="none" stroke="#d1d5db" stroke-width="0.5" />
  <circle cx="180.0" cy="110.0" r="3.0" fill="#6366f1" />
  <rect x="160" y="100" width="40.0" height="20.0" fill="none" stroke="#d1d5db" stroke-width="0.5" />
  <circle cx="220.0" cy="110.0" r="3.0" fill="#6366f1" />
  <rect x="200" y="100" width="40.0" height="20.0" fill="none" stroke="#d1d5db" stroke-width="0.5" />
  <circle cx="260.0" cy="110.0" r="3.0" fill="#6366f1" />
  <rect x="240" y="100" width="40.0" height="20.0" fill="none" stroke="#d1d5db" stroke-width="0.5" />
  <circle cx="300.0" cy="110.0" r="3.0" fill="#6366f1" />
  <rect x="280" y="100" width="40.0" height="20.0" fill="none" stroke="#d1d5db" stroke-width="0.5" />
  <circle cx="20.0" cy="130.0" r="3.0" fill="#6366f1" />
  <rect x="0" y="120" width="40.0" height="20.0" fill="none" stroke="#d1d5db" stroke-width="0.5" />
  <circle cx="60.0" cy="130.0" r="3.0" fill="#6366f1" />
  <rect x="40" y="120" width="40.0" height="20.0" fill="none" stroke="#d1d5db" stroke-width="0.5" />
  <circle cx="100.0" cy="130.0" r="3.0" fill="#6366f1" />
  <rect x="80" y="120" width="40.0" height="20.0" fill="none" stroke="#d1d5db" stroke-width="0.5" />
  <circle cx="140.0" cy="130.0" r="3.0" fill="#6366f1" />
  <rect x="120" y="120" width="40.0" height="20.0" fill="none" stroke="#d1d5db" stroke-width="0.5" />
  <circle cx="180.0" cy="130.0" r="3.0" fill="#6366f1" />
  <rect x="160" y="120" width="40.0" height="20.0" fill="none" stroke="#d1d5db" stroke-width="0.5" />
  <circle cx="220.0" cy="130.0" r="3.0" fill="#6366f1" />
  <rect x="200" y="120" width="40.0" height="20.0" fill="none" stroke="#d1d5db" stroke-width="0.5" />
  <circle cx="260.0" cy="130.0" r="3.0" fill="#6366f1" />
  <rect x="240" y="120" width="40.0" height="20.0" fill="none" stroke="#d1d5db" stroke-width="0.5" />
  <circle cx="300.0" cy="130.0" r="3.0" fill="#6366f1" />
  <rect x="280" y="120" width="40.0" height="20.0" fill="none" stroke="#d1d5db" stroke-width="0.5" />
  <circle cx="20.0" cy="150.0" r="3.0" fill="#6366f1" />
  <rect x="0" y="140" width="40.0" height="20.0" fill="none" stroke="#d1d5db" stroke-width="0.5" />
  <circle cx="60.0" cy="150.0" r="3.0" fill="#6366f1" />
  <rect x="40" y="140" width="40.0" height="20.0" fill="none" stroke="#d1d5db" stroke-width="0.5" />
  <circle cx="100.0" cy="150.0" r="3.0" fill="#6366f1" />
  <rect x="80" y="140" width="40.0" height="20.0" fill="none" stroke="#d1d5db" stroke-width="0.5" />
  <circle cx="140.0" cy="150.0" r="3.0" fill="#6366f1" />
  <rect x="120" y="140" width="40.0" height="20.0" fill="none" stroke="#d1d5db" stroke-width="0.5" />
  <circle cx="180.0" cy="150.0" r="3.0" fill="#6366f1" />
  <rect x="160" y="140" width="40.0" height="20.0" fill="none" stroke="#d1d5db" stroke-width="0.5" />
  <circle cx="220.0" cy="150.0" r="3.0" fill="#6366f1" />
  <rect x="200" y="140" width="40.0" height="20.0" fill="none" stroke="#d1d5db" stroke-width="0.5" />
  <circle cx="260.0" cy="150.0" r="3.0" fill="#6366f1" />
  <rect x="240" y="140" width="40.0" height="20.0" fill="none" stroke="#d1d5db" stroke-width="0.5" />
  <circle cx="300.0" cy="150.0" r="3.0" fill="#6366f1" />
  <rect x="280" y="140" width="40.0" height="20.0" fill="none" stroke="#d1d5db" stroke-width="0.5" />
</svg>