<?xml version="1.0" encoding="UTF-8"?>
<svg xmlns="http://www.w3.org/2000/svg" width="300" height="150" viewBox="0 0 300 150">
  <rect width="100%" height="100%" fill="#1e1b4b" />
  <rect x="0" y="0" width="30.0" height="15.0" fill="#312e81" />
  <rect x="0" y="0" width="30.0" height="15.0" fill="none" stroke="#1e1b4b" stroke-width="0.5" />
  <rect x="30" y="0" width="30.0" height="15.0" fill="#3730a3" />
  <rect x="30" y="0" width="30.0" height="15.0" fill="none" stroke="#1e1b4b" stroke-width="0.5" />
  <rect x="60" y="0" width="30.0" height="15.0" fill="#4338ca" />
  <rect x="60" y="0" width="30.0" height="15.0" fill="none" stroke="#1e1b4b" stroke-width="0.5" />
  <rect x="90" y="0" width="30.0" height="15.0" fill="#4f46e5" />
  <rect x="90" y="0" width="30.0" height="15.0" fill="none" stroke="#1e1b4b" stroke-width="0.5" />
  <rect x="120" y="0" width="30.0" height="15.0" fill="#6366f1" />
  <rect x="120" y="0" width="30.0" height="15.0" fill="none" stroke="#1e1b4b" stroke-width="0.5" />
  <rect x="150" y="0" width="30.0" height="15.0" fill="#312e81" />
  <rect x="150" y="0" width="30.0" height="15.0" fill="none" stroke="#1e1b4b" stroke-width="0.5" />
  <rect x="180" y="0" width="30.0" height="15.0" fill="#3730a3" />
  <rect x="180" y="0" width="30.0" height="15.0" fill="none" stroke="#1e1b4b" stroke-width="0.5" />
  <rect x="210" y="0" width="30.0" height="15.0" fill="#4338ca" />
  <rect x="210" y="0" width="30.0" height="15.0" fill="none" stroke="#1e1b4b" stroke-width="0.5" />
  <rect x="240" y="0" width="30.0" height="15.0" fill="#4f46e5" />
  <rect x="240" y="0" width="30.0" height="15.0" fill="none" stroke="#1e1b4b" stroke-width="0.5" />
  <rect x="270" y="0" width="30.0" height="15.0" fill="#6366f1" />
  <rect x="270" y="0" width="30.0" height="15.0" fill="none" stroke="#1e1b4b" stroke-width="0.5" />
  <rect x="0" y="15" width="30.0" height="15.0" fill="#3730a3" />
  <rect x="0" y="15" width="30.0" height="15.0" fill="none" stroke="#1e1b4b" stroke-width="0.5" />
  <rect x="30" y="15" width="30.0" height="15.0" fill="#4338ca" />
  <rect x="30" y="15" width="30.0" height="15.0" fill="none" stroke="#1e1b4b" stroke-width="0.5" />
  <rect x="60" y="15" width="30.0" height="15.0" fill="#4f46e5" />
  <rect x="60" y="15" width="30.0" height="15.0" fill="none" stroke="#1e1b4b" stroke-width="0.5" />
  <rect x="90" y="15" width="30.0" height="15.0" fill="#6366f1" />
  <rect x="90" y="15" width="30.0" height="15.0" fill="none" stroke="#1e1b4b" stroke-width="0.5" />
  <rect x="120" y="15" width="30.0" height="15.0" fill="#312e81" />
  <rect x="120" y="15" width="30.0" height="15.0" fill="none" stroke="#1e1b4b" stroke-width="0.5" />
  <rect x="150" y="15" width="30.0" height="15.0" fill="#3730a3" />
  <rect x="150" y="15" width="30.0" height="15.0" fill="none" stroke="#1e1b4b" stroke-width="0.5" />
  <rect x="180" y="15" width="30.0" height="15.0" fill="#4338ca" />
  <rect x="180" y="15" width="30.0" height="15.0" fill="none" stroke="#1e1b4b" stroke-width="0.5" />
  <rect x="210" y="15" width="30.0" height="15.0" fill="#4f46e5" />
  <rect x="210" y="15" width="30.0" height="15.0" fill="none" stroke="#1e1b4b" stroke-width="0.5" />
  <rect x="240" y="15" width="30.0" height="15.0" fill="#6366f1" />
  <rect x="240" y="15" width="30.0" height="15.0" fill="none" stroke="#1e1b4b" stroke-width="0.5" />
  <rect x="270" y="15" width="30.0" height="15.0" fill="#312e81" />
  <rect x="270" y="15" width="30.0" height="15.0" fill="none" stroke="#1e1b4b" stroke-width="0.5" />
  <rect x="0" y="30" width="30.0" height="15.0" fill="#4338ca" />
  <rect x="0" y="30" width="30.0" height="15.0" fill="none" stroke="#1e1b4b" stroke-width="0.5" />
  <rect x="30" y="30" width="30.0" height="15.0" fill="#4f46e5" />
  <rect x="30" y="30" width="30.0" height="15.0" fill="none" stroke="#1e1b4b" stroke-width="0.5" />
  <rect x="60" y="30" width="30.0" height="15.0" fill="#6366f1" />
  <rect x="60" y="30" width="30.0" height="15.0" fill="none" stroke="#1e1b4b" stroke-width="0.5" />
  <rect x="90" y="30" width="30.0" height="15.0" fill="#312e81" />
  <rect x="90" y="30" width="30.0" height="15.0" fill="none" stroke="#1e1b4b" stroke-width="0.5" />
  <rect x="120" y="30" width="30.0" height="15.0" fill="#3730a3" />
  <rect x="120" y="30" width="30.0" height="15.0" fill="none" stroke="#1e1b4b" stroke-width="0.5" />
  <rect x="150" y="30" width="30.0" height="15.0" fill="#4338ca" />
  <rect x="150" y="30" width="30.0" height="15.0" fill="none" stroke="#1e1b4b" stroke-width="0.5" />
  <rect x="180" y="30" width="30.0" height="15.0" fill="#4f46e5" />
  <rect x="180" y="30" width="30.0" height="15.0" fill="none" stroke="#1e1b4b" stroke-width="0.5" />
  <rect x="210" y="30" width="30.0" height="15.0" fill="#6366f1" />
  <rect x="210" y="30" width="30.0" height="15.0" fill="none" stroke="#1e1b4b" stroke-width="0.5" />
  <rect x="240" y="30" width="30.0" height="15.0" fill="#312e81" />
  <rect x="240" y="30" width="30.0" height="15.0" fill="none" stroke="#1e1b4b" stroke-width="0.5" />
  <rect x="270" y="30" width="30.0" height="15.0" fill="#3730a3" />
  <rect x="270" y="30" width="30.0" height="15.0" fill="none" stroke="#1e1b4b" stroke-width="0.5" />
  <rect x="0" y="45" width="30.0" height="15.0" fill="#4f46e5" />
  <rect x="0" y="45" width="30.0" height="15.0" fill="none" stroke="#1e1b4b" stroke-width="0.5" />
  <rect x="30" y="45" width="30.0" height="15.0" fill="#6366f1" />
  <rect x="30" y="45" width="30.0" height="15.0" fill="none" stroke="#1e1b4b" stroke-width="0.5" />
  <rect x="60" y="45" width="30.0" height="15.0" fill="#312e81" />
  <rect x="60" y="45" width="30.0" height="15.0" fill="none" stroke="#1e1b4b" stroke-width="0.5" />
  <rect x="90" y="45" width="30.0" height="15.0" fill="#3730a3" />
  <rect x="90" y="45" width="30.0" height="15.0" fill="none" stroke="#1e1b4b" stroke-width="0.5" />
  <rect x="120" y="45" width="30.0" height="15.0" fill="#4338ca" />
  <rect x="120" y="45" width="30.0" height="15.0" fill="none" stroke="#1e1b4b" stroke-width="0.5" />
  <rect x="150" y="45" width="30.0" height="15.0" fill="#4f46e5" />
  <rect x="150" y="45" width="30.0" height="15.0" fill="none" stroke="#1e1b4b" stroke-width="0.5" />
  <rect x="180" y="45" width="30.0" height="15.0" fill="#6366f1" />
  <rect x="180" y="45" width="30.0" height="15.0" fill="none" stroke="#1e1b4b" stroke-width="0.5" />
  <rect x="210" y="45" width="30.0" height="15.0" fill="#312e81" />
  <rect x="210" y="45" width="30.0" height="15.0" fill="none" stroke="#1e1b4b" stroke-width="0.5" />
  <rect x="240" y="45" width="30.0" height="15.0" fill="#3730a3" />
  <rect x="240" y="45" width="30.0" height="15.0" fill="none" stroke="#1e1b4b" stroke-width="0.5" />
  <rect x="270" y="45" width="30.0" height="15.0" fill="#4338ca" />
  <rect x="270" y="45" width="30.0" height="15.0" fill="none" stroke="#1e1b4b" stroke-width="0.5" />
  <rect x="0" y="60" width="30.0" height="15.0" fill="#6366f1" />
  <rect x="0" y="60" width="30.0" height="15.0" fill="none" stroke="#1e1b4b" stroke-width="0.5" />
  <rect x="30" y="60" width="30.0" height="15.0" fill="#312e81" />
  <rect x="30" y="60" width="30.0" height="15.0" fill="none" stroke="#1e1b4b" stroke-width="0.5" />
  <rect x="60" y="60" width="30.0" height="15.0" fill="#3730a3" />
  <rect x="60" y="60" width="30.0" height="15.0" fill="none" stroke="#1e1b4b" stroke-width="0.5" />
  <rect x="90" y="60" width="30.0" height="15.0" fill="#4338ca" />
  <rect x="90" y="60" width="30.0" height="15.0" fill="none" stroke="#1e1b4b" stroke-width="0.5" />
  <rect x="120" y="60" width="30.0" height="15.0" fill="#4f46e5" />
  <rect x="120" y="60" width="30.0" height="15.0" fill="none" stroke="#1e1b4b" stroke-width="0.5" />
  <rect x="150" y="60" width="30.0" height="15.0" fill="#6366f1" />
  <rect x="150" y="60" width="30.0" height="15.0" fill="none" stroke="#1e1b4b" stroke-width="0.5" />
  <rect x="180" y="60" width="30.0" height="15.0" fill="#312e81" />
  <rect x="180" y="60" width="30.0" height="15.0" fill="none" stroke="#1e1b4b" stroke-width="0.5" />
  <rect x="210" y="60" width="30.0" height="15.0" fill="#3730a3" />
  <rect x="210" y="60" width="30.0" height="15.0" fill="none" stroke="#1e1b4b" stroke-width="0.5" />
  <rect x="240" y="60" width="30.0" height="15.0" fill="#4338ca" />
  <rect x="240" y="60" width="30.0" height="15.0" fill="none" stroke="#1e1b4b" stroke-width="0.5" />
  <rect x="270" y="60" width="30.0" height="15.0" fill="#4f46e5" />
  <rect x="270" y="60" width="30.0" height="15.0" fill="none" stroke="#1e1b4b" stroke-width="0.5" />
  <rect x="0" y="75" width="30.0" height="15.0" fill="#312e81" />
  <rect x="0" y="75" width="30.0" height="15.0" fill="none" stroke="#1e1b4b" stroke-width="0.5" />
  <rect x="30" y="75" width="30.0" height="15.0" fill="#3730a3" />
  <rect x="30" y="75" width="30.0" height="15.0" fill="none" stroke="#1e1b4b" stroke-width="0.5" />
  <rect x="60" y="75" width="30.0" height="15.0" fill="#4338ca" />
  <rect x="60" y="75" width="30.0" height="15.0" fill="none" stroke="#1e1b4b" stroke-width="0.5" />
  <rect x="90" y="75" width="30.0" height="15.0" fill="#4f46e5" />
  <rect x="90" y="75" width="30.0" height="15.0" fill="none" stroke="#1e1b4b" stroke-width="0.5" />
  <rect x="120" y="75" width="30.0" height="15.0" fill="#6366f1" />
  <rect x="120" y="75" width="30.0" height="15.0" fill="none" stroke="#1e1b4b" stroke-width="0.5" />
  <rect x="150" y="75" width="30.0" height="15.0" fill="#312e81" />
  <rect x="150" y="75" width="30.0" height="15.0" fill="none" stroke="#1e1b4b" stroke-width="0.5" />
  <rect x="180" y="75" width="30.0" height="15.0" fill="#3730a3" />
  <rect x="180" y="75" width="30.0" height="15.0" fill="none" stroke="#1e1b4b" stroke-width="0.5" />
  <rect x="210" y="75" width="30.0" height="15.0" fill="#4338ca" />
  <rect x="210" y="75" width="30.0" height="15.0" fill="none" stroke="#1e1b4b" stroke-width="0.5" />
  <rect x="240" y="75" width="30.0" height="15.0" fill="#4f46e5" />
  <rect x="240" y="75" width="30.0" height="15.0" fill="none" stroke="#1e1b4b" stroke-width="0.5" />
  <rect x="270" y="75" width="30.0" height="15.0" fill="#6366f1" />
  <rect x="270" y="75" width="30.0" height="15.0" fill="none" stroke="#1e1b4b" stroke-width="0.5" />
  <rect x="0" y="90" width="30.0" height="15.0" fill="#3730a3" />
  <rect x="0" y="90" width="30.0" height="15.0" fill="none" stroke="#1e1b4b" stroke-width="0.5" />
  <rect x="30" y="90" width="30.0" height="15.0" fill="#4338ca" />
  <rect x="30" y="90" width="30.0" height="15.0" fill="none" stroke="#1e1b4b" stroke-width="0.5" />
  <rect x="60" y="90" width="30.0" height="15.0" fill="#4f46e5" />
  <rect x="60" y="90" width="30.0" height="15.0" fill="none" stroke="#1e1b4b" stroke-width="0.5" />
  <rect x="90" y="90" width="30.0" height="15.0" fill="#6366f1" />
  <rect x="90" y="90" width="30.0" height="15.0" fill="none" stroke="#1e1b4b" stroke-width="0.5" />
  <rect x="120" y="90" width="30.0" height="15.0" fill="#312e81" />
  <rect x="120" y="90" width="30.0" height="15.0" fill="none" stroke="#1e1b4b" stroke-width="0.5" />
  <rect x="150" y="90" width="30.0" height="15.0" fill="#3730a3" />
  <rect x="150" y="90" width="30.0" height="15.0" fill="none" stroke="#1e1b4b" stroke-width="0.5" />
  <rect x="180" y="90" width="30.0" height="15.0" fill="#4338ca" />
  <rect x="180" y="90" width="30.0" height="15.0" fill="none" stroke="#1e1b4b" stroke-width="0.5" />
  <rect x="210" y="90" width="30.0" height="15.0" fill="#4f46e5" />
  <rect x="210" y="90" width="30.0" height="15.0" fill="none" stroke="#1e1b4b" stroke-width="0.5" />
  <rect x="240" y="90" width="30.0" height="15.0" fill="#6366f1" />
  <rect x="240" y="90" width="30.0" height="15.0" fill="none" stroke="#1e1b4b" stroke-width="0.5" />
  <rect x="270" y="90" width="30.0" height="15.0" fill="#312e81" />
  <rect x="270" y="90" width="30.0" height="15.0" fill="none" stroke="#1e1b4b" stroke-width="0.5" />
  <rect x="0" y="105" width="30.0" height="15.0" fill="#4338ca" />
  <rect x="0" y="105" width="30.0" height="15.0" fill="none" stroke="#1e1b4b" stroke-width="0.5" />
  <rect x="30" y="105" width="30.0" height="15.0" fill="#4f46e5" />
  <rect x="30" y="105" width="30.0" height="15.0" fill="none" stroke="#1e1b4b" stroke-width="0.5" />
  <rect x="60" y="105" width="30.0" height="15.0" fill="#6366f1" />
  <rect x="60" y="105" width="30.0" height="15.0" fill="none" stroke="#1e1b4b" stroke-width="0.5" />
  <rect x="90" y="105" width="30.0" height="15.0" fill="#312e81" />
  <rect x="90" y="105" width="30.0" height="15.0" fill="none" stroke="#1e1b4b" stroke-width="0.5" />
  <rect x="120" y="105" width="30.0" height="15.0" fill="#3730a3" />
  <rect x="120" y="105" width="30.0" height="15.0" fill="none" stroke="#1e1b4b" stroke-width="0.5" />
  <rect x="150" y="105" width="30.0" height="15.0" fill="#4338ca" />
  <rect x="150" y="105" width="30.0" height="15.0" fill="none" stroke="#1e1b4b" stroke-width="0.5" />
  <rect x="180" y="105" width="30.0" height="15.0" fill="#4f46e5" />
  <rect x="180" y="105" width="30.0" height="15.0" fill="none" stroke="#1e1b4b" stroke-width="0.5" />
  <rect x="210" y="105" width="30.0" height="15.0" fill="#6366f1" />
  <rect x="210" y="105" width="30.0" height="15.0" fill="none" stroke="#1e1b4b" stroke-width="0.5" />
  <rect x="240" y="105" width="30.0" height="15.0" fill="#312e81" />
  <rect x="240" y="105" width="30.0" height="15.0" fill="none" stroke="#1e1b4b" stroke-width="0.5" />
  <rect x="270" y="105" width="30.0" height="15.0" fill="#3730a3" />
  <rect x="270" y="105" width="30.0" height="15.0" fill="none" stroke="#1e1b4b" stroke-width="0.5" />
  <rect x="0" y="120" width="30.0" height="15.0" fill="#4f46e5" />
  <rect x="0" y="120" width="30.0" height="15.0" fill="none" stroke="#1e1b4b" stroke-width="0.5" />
  <rect x="30" y="120" width="30.0" height="15.0" fill="#6366f1" />
  <rect x="30" y="120" width="30.0" height="15.0" fill="none" stroke="#1e1b4b" stroke-width="0.5" />
  <rect x="60" y="120" width="30.0" height="15.0" fill="#312e81" />
  <rect x="60" y="120" width="30.0" height="15.0" fill="none" stroke="#1e1b4b" stroke-width="0.5" />
  <rect x="90" y="120" width="30.0" height="15.0" fill="#3730a3" />
  <rect x="90" y="120" width="30.0" height="15.0" fill="none" stroke="#1e1b4b" stroke-width="0.5" />
  <rect x="120" y="120" width="30.0" height="15.0" fill="#4338ca" />
  <rect x="120" y="120" width="30.0" height="15.0" fill="none" stroke="#1e1b4b" stroke-width="0.5" />
  <rect x="150" y="120" width="30.0" height="15.0" fill="#4f46e5" />
  <rect x="150" y="120" width="30.0" height="15.0" fill="none" stroke="#1e1b4b" stroke-width="0.5" />
  <rect x="180" y="120" width="30.0" height="15.0" fill="#6366f1" />
  <rect x="180" y="120" width="30.0" height="15.0" fill="none" stroke="#1e1b4b" stroke-width="0.5" />
  <rect x="210" y="120" width="30.0" height="15.0" fill="#312e81" />
  <rect x="210" y="120" width="30.0" height="15.0" fill="none" stroke="#1e1b4b" stroke-width="0.5" />
  <rect x="240" y="120" width="30.0" height="15.0" fill="#3730a3" />
  <rect x="240" y="120" width="30.0" height="15.0" fill="none" stroke="#1e1b4b" stroke-width="0.5" />
  <rect x="270" y="120" width="30.0" height="15.0" fill="#4338ca" />
  <rect x="270" y="120" width="30.0" height="15.0" fill="none" stroke="#1e1b4b" stroke-width="0.5" />
  <rect x="0" y="135" width="30.0" height="15.0" fill="#6366f1" />
  <rect x="0" y="135" width="30.0" height="15.0" fill="none" stroke="#1e1b4b" stroke-width="0.5" />
  <rect x="30" y="135" width="30.0" height="15.0" fill="#312e81" />
  <rect x="30" y="135" width="30.0" height="15.0" fill="none" stroke="#1e1b4b" stroke-width="0.5" />
  <rect x="60" y="135" width="30.0" height="15.0" fill="#3730a3" />
  <rect x="60" y="135" width="30.0" height="15.0" fill="none" stroke="#1e1b4b" stroke-width="0.5" />
  <rect x="90" y="135" width="30.0" height="15.0" fill="#4338ca" />
  <rect x="90" y="135" width="30.0" height="15.0" fill="none" stroke="#1e1b4b" stroke-width="0.5" />
  <rect x="120" y="135" width="30.0" height="15.0" fill="#4f46e5" />
  <rect x="120" y="135" width="30.0" height="15.0" fill="none" stroke="#1e1b4b" stroke-width="0.5" />
  <rect x="150" y="135" width="30.0" height="15.0" fill="#6366f1" />
  <rect x="150" y="135" width="30.0" height="15.0" fill="none" stroke="#1e1b4b" stroke-width="0.5" />
  <rect x="180" y="135" width="30.0" height="15.0" fill="#312e81" />
  <rect x="180" y="135" width="30.0" height="15.0" fill="none" stroke="#1e1b4b" stroke-width="0.5" />
  <rect x="210" y="135" width="30.0" height="15.0" fill="#3730a3" />
  <rect x="210" y="135" width="30.0" height="15.0" fill="none" stroke="#1e1b4b" stroke-width="0.5" />
  <rect x="240" y="135" width="30.0" height="15.0" fill="#4338ca" />
  <rect x="240" y="135" width="30.0" height="15.0" fill="none" stroke="#1e1b4b" stroke-width="0.5" />
  <rect x="270" y="135" width="30.0" height="15.0" fill="#4f46e5" />
  <rect x="270" y="135" width="30.0" height="15.0" fill="none" stroke="#1e1b4b" stroke-width="0.5" />
</svg>