<?xml version="1.0" encoding="UTF-8"?>
<svg xmlns="http://www.w3.org/2000/svg" width="300" height="300" viewBox="0 0 300 300">
  <rect width="100%" height="100%" fill="#2d1b4e" />
  <rect x="0" y="0" width="25.0" height="25.0" fill="#ff6b35" fill-opacity="0.15" stroke-opacity="0.15" />
  <polygon points="12.5,8.75 16.25,12.5 12.5,16.25 8.75,12.5" fill="#efa00b" fill-opacity="0.4" stroke-opacity="0.4" />
  <polygon points="37.64398611946407,8.468479510133726 41.53152048986627,12.643986119464069 37.35601388053593,16.531520489866274 33.46847951013373,12.356013880535931" fill="#efa00b" fill-opacity="0.4272727272727273" stroke-opacity="0.4272727272727273" />
  <rect x="50" y="0" width="25.0" height="25.0" fill="#ff6b35" fill-opacity="0.15" stroke-opacity="0.15" />
  <polygon points="62.80805556381487,8.192820414182997 66.807179585817,12.808055563814866 62.19194443618513,16.807179585817003 58.192820414183,12.191944436185134" fill="#efa00b" fill-opacity="0.4545454545454546" stroke-opacity="0.4545454545454546" />
  <polygon points="87.99196050265762,7.924096906617973 92.07590309338202,12.991960502657621 87.00803949734238,17.075903093382028 82.92409690661798,12.008039497342379" fill="#efa00b" fill-opacity="0.4818181818181818" stroke-opacity="0.4818181818181818" />
  <rect x="100" y="0" width="25.0" height="25.0" fill="#ff6b35" fill-opacity="0.15" stroke-opacity="0.15" />
  <polygon points="113.19540205065356,7.663372499899989 117.33662750010002,13.195402050653552 111.80459794934644,17.33662750010001 107.66337249989998,11.804597949346448" fill="#efa00b" fill-opacity="0.5090909090909091" stroke-opacity="0.5090909090909091" />
  <polygon points="138.41803073063303,7.411697750307582 142.58830224969242,13.418030730633042 136.58196926936697,17.58830224969242 132.41169775030758,11.581969269366958" fill="#efa00b" fill-opacity="0.5363636363636364" stroke-opacity="0.5363636363636364" />
  <rect x="150" y="0" width="25.0" height="25.0" fill="#ff6b35" fill-opacity="0.15" stroke-opacity="0.15" />
  <polygon points="163.65944703392532,7.170108003793676 167.8298919962063,13.659447033925325 161.34055296607468,17.829891996206324 157.1701080037937,11.340552966074675" fill="#efa00b" fill-opacity="0.5636363636363636" stroke-opacity="0.5636363636363636" />
  <polygon points="188.91920207704408,6.939621165912941 193.06037883408706,13.91920207704408 186.08079792295592,18.060378834087057 181.93962116591294,11.08079792295592" fill="#efa00b" fill-opacity="0.5909090909090909" stroke-opacity="0.5909090909090909" />
  <rect x="200" y="0" width="25.0" height="25.0" fill="#ff6b35" fill-opacity="0.15" stroke-opacity="0.15" />
  <polygon points="214.19679835370405,6.721235499821778 218.27876450017823,14.196798353704068 210.80320164629595,18.278764500178223 206.72123549982177,10.803201646295932" fill="#efa00b" fill-opacity="0.6181818181818182" stroke-opacity="0.6181818181818182" />
  <polygon points="239.49169058098113,6.515927456310086 243.4840725436899,14.491690580981125 235.50830941901887,18.484072543689912 231.5159274563101,10.508309419018875" fill="#efa00b" fill-opacity="0.6454545454545455" stroke-opacity="0.6454545454545455" />
  <rect x="250" y="0" width="25.0" height="25.0" fill="#ff6b35" fill-opacity="0.15" stroke-opacity="0.15" />
  <polygon points="264.8032866382668,6.324649539774298 268.67535046022573,14.803286638266796 260.1967133617332,18.675350460225705 256.32464953977427,10.196713361733215" fill="#efa00b" fill-opacity="0.6727272727272727" stroke-opacity="0.6727272727272727" />
  <polygon points="290.13094859751,6.148328213984903 293.8516717860151,15.130948597509992 284.86905140249,18.851671786015096 281.1483282139849,9.869051402490008" fill="#efa00b" fill-opacity="0.7" stroke-opacity="0.7" />
  <polygon points="12.643986119464069,33.46847951013373 16.531520489866274,37.64398611946407 12.356013880535931,41.53152048986627 8.468479510133726,37.35601388053593" fill="#efa00b" fill-opacity="0.4272727272727273" stroke-opacity="0.4272727272727273" />
  <rect x="25" y="25" width="25.0" height="25.0" fill="#ff6b35" fill-opacity="0.15" stroke-opacity="0.15" />
  <polygon points="37.80805556381487,33.192820414183 41.807179585816996,37.80805556381487 37.19194443618513,41.807179585816996 33.192820414183,37.19194443618513" fill="#efa00b" fill-opacity="0.4545454545454546" stroke-opacity="0.4545454545454546" />
  <polygon points="62.99196050265762,32.924096906617976 67.07590309338202,37.99196050265762 62.00803949734238,42.075903093382024 57.924096906617976,37.00803949734238" fill="#efa00b" fill-opacity="0.4818181818181818" stroke-opacity="0.4818181818181818" />
  <rect x="75" y="25" width="25.0" height="25.0" fill="#ff6b35" fill-opacity="0.15" stroke-opacity="0.15" />
  <polygon points="88.19540205065356,32.66337249989999 92.33662750010002,38.195402050653556 86.80459794934644,42.336627500100015 82.66337249989998,36.804597949346444" fill="#efa00b" fill-opacity="0.5090909090909091" stroke-opacity="0.5090909090909091" />
  <polygon points="113.41803073063305,32.41169775030758 117.58830224969242,38.41803073063305 111.58196926936695,42.58830224969242 107.41169775030758,36.58196926936695" fill="#efa00b" fill-opacity="0.5363636363636364" stroke-opacity="0.5363636363636364" />
  <rect x="125" y="25" width="25.0" height="25.0" fill="#ff6b35" fill-opacity="0.15" stroke-opacity="0.15" />
  <polygon points="138.65944703392532,32.17010800379368 142.8298919962063,38.659447033925325 136.34055296607468,42.82989199620632 132.1701080037937,36.340552966074675" fill="#efa00b" fill-opacity="0.5636363636363636" stroke-opacity="0.5636363636363636" />
  <polygon points="163.91920207704408,31.939621165912943 168.06037883408706,38.91920207704408 161.08079792295592,43.060378834087054 156.93962116591294,36.08079792295592" fill="#efa00b" fill-opacity="0.5909090909090909" stroke-opacity="0.5909090909090909" />
  <rect x="175" y="25" width="25.0" height="25.0" fill="#ff6b35" fill-opacity="0.15" stroke-opacity="0.15" />
  <polygon points="189.19679835370405,31.721235499821777 193.27876450017823,39.19679835370407 185.80320164629595,43.27876450017823 181.72123549982177,35.80320164629593" fill="#efa00b" fill-opacity="0.6181818181818182" stroke-opacity="0.6181818181818182" />
  <polygon points="214.49169058098113,31.515927456310088 218.4840725436899,39.49169058098113 210.50830941901887,43.48407254368991 206.5159274563101,35.50830941901887" fill="#efa00b" fill-opacity="0.6454545454545455" stroke-opacity="0.6454545454545455" />
  <rect x="225" y="25" width="25.0" height="25.0" fill="#ff6b35" fill-opacity="0.15" stroke-opacity="0.15" />
  <polygon points="239.8032866382668,31.324649539774295 243.6753504602257,39.80328663826678 235.1967133617332,43.6753504602257 231.3246495397743,35.19671336173322" fill="#efa00b" fill-opacity="0.6727272727272728" stroke-opacity="0.6727272727272728" />
  <polygon points="265.13094859751,31.148328213984904 268.8516717860151,40.13094859750999 259.86905140249,43.851671786015096 256.1483282139849,34.86905140249001" fill="#efa00b" fill-opacity="0.7" stroke-opacity="0.7" />
  <rect x="275" y="25" width="25.0" height="25.0" fill="#ff6b35" fill-opacity="0.15" stroke-opacity="0.15" />
  <polygon points="290.4739938430817,30.98786185143924 294.0121381485608,40.4739938430817 284.5260061569183,44.01213814856075 280.9878618514392,34.5260061569183" fill="#efa00b" fill-opacity="0.7272727272727273" stroke-opacity="0.7272727272727273" />
  <rect x="0" y="50" width="25.0" height="25.0" fill="#ff6b35" fill-opacity="0.15" stroke-opacity="0.15" />
  <polygon points="12.808055563814866,58.192820414183 16.807179585817003,62.80805556381487 12.191944436185134,66.807179585817 8.192820414182997,62.19194443618513" fill="#efa00b" fill-opacity="0.4545454545454546" stroke-opacity="0.4545454545454546" />
  <polygon points="37.99196050265762,57.924096906617976 42.075903093382024,62.99196050265762 37.00803949734238,67.07590309338202 32.924096906617976,62.00803949734238" fill="#efa00b" fill-opacity="0.4818181818181818" stroke-opacity="0.4818181818181818" />
  <rect x="50" y="50" width="25.0" height="25.0" fill="#ff6b35" fill-opacity="0.15" stroke-opacity="0.15" />
  <polygon points="63.19540205065355,57.66337249989999 67.33662750010002,63.195402050653556 61.804597949346444,67.33662750010002 57.66337249989999,61.80459794934645" fill="#efa00b" fill-opacity="0.5090909090909091" stroke-opacity="0.5090909090909091" />
  <polygon points="88.41803073063305,57.41169775030758 92.58830224969242,63.41803073063304 86.58196926936695,67.58830224969242 82.41169775030758,61.58196926936696" fill="#efa00b" fill-opacity="0.5363636363636364" stroke-opacity="0.5363636363636364" />
  <rect x="100" y="50" width="25.0" height="25.0" fill="#ff6b35" fill-opacity="0.15" stroke-opacity="0.15" />
  <polygon points="113.65944703392533,57.17010800379368 117.82989199620633,63.659447033925325 111.34055296607467,67.82989199620633 107.17010800379367,61.340552966074675" fill="#efa00b" fill-opacity="0.5636363636363636" stroke-opacity="0.5636363636363636" />
  <polygon points="138.91920207704408,56.93962116591294 143.06037883408706,63.91920207704408 136.08079792295592,68.06037883408706 131.93962116591294,61.08079792295592" fill="#efa00b" fill-opacity="0.5909090909090909" stroke-opacity="0.5909090909090909" />
  <rect x="150" y="50" width="25.0" height="25.0" fill="#ff6b35" fill-opacity="0.15" stroke-opacity="0.15" />
  <polygon points="164.19679835370405,56.72123549982177 168.27876450017823,64.19679835370407 160.80320164629595,68.27876450017823 156.72123549982177,60.80320164629593" fill="#efa00b" fill-opacity="0.6181818181818182" stroke-opacity="0.6181818181818182" />
  <polygon points="189.49169058098113,56.51592745631009 193.4840725436899,64.49169058098113 185.50830941901887,68.48407254368992 181.5159274563101,60.50830941901887" fill="#efa00b" fill-opacity="0.6454545454545455" stroke-opacity="0.6454545454545455" />
  <rect x="200" y="50" width="25.0" height="25.0" fill="#ff6b35" fill-opacity="0.15" stroke-opacity="0.15" />
  <polygon points="214.8032866382668,56.3246495397743 218.6753504602257,64.80328663826678 210.1967133617332,68.6753504602257 206.3246495397743,60.19671336173322" fill="#efa00b" fill-opacity="0.6727272727272728" stroke-opacity="0.6727272727272728" />
  <polygon points="240.13094859750998,56.148328213984904 243.8516717860151,65.13094859751 234.86905140249002,68.85167178601509 231.1483282139849,59.86905140249001" fill="#efa00b" fill-opacity="0.7" stroke-opacity="0.7" />
  <rect x="250" y="50" width="25.0" height="25.0" fill="#ff6b35" fill-opacity="0.15" stroke-opacity="0.15" />
  <polygon points="265.4739938430817,55.98786185143925 269.0121381485608,65.4739938430817 259.5260061569183,69.01213814856075 255.98786185143925,59.526006156918314" fill="#efa00b" fill-opacity="0.7272727272727273" stroke-opacity="0.7272727272727273" />
  <polygon points="290.83169627944403,55.844118730021464 294.1558812699785,65.83169627944405 284.16830372055597,69.15588126997852 280.8441187300215,59.16830372055595" fill="#efa00b" fill-opacity="0.7545454545454546" stroke-opacity="0.7545454545454546" />
  <polygon points="12.991960502657621,82.92409690661798 17.075903093382028,87.99196050265762 12.008039497342379,92.07590309338202 7.924096906617973,87.00803949734238" fill="#efa00b" fill-opacity="0.4818181818181818" stroke-opacity="0.4818181818181818" />
  <rect x="25" y="75" width="25.0" height="25.0" fill="#ff6b35" fill-opacity="0.15" stroke-opacity="0.15" />
  <polygon points="38.195402050653556,82.66337249989998 42.336627500100015,88.19540205065356 36.804597949346444,92.33662750010002 32.66337249989999,86.80459794934644" fill="#efa00b" fill-opacity="0.5090909090909091" stroke-opacity="0.5090909090909091" />
  <polygon points="63.41803073063304,82.41169775030758 67.58830224969242,88.41803073063305 61.58196926936696,92.58830224969242 57.41169775030758,86.58196926936695" fill="#efa00b" fill-opacity="0.5363636363636364" stroke-opacity="0.5363636363636364" />
  <rect x="75" y="75" width="25.0" height="25.0" fill="#ff6b35" fill-opacity="0.15" stroke-opacity="0.15" />
  <polygon points="88.65944703392533,82.17010800379367 92.82989199620633,88.65944703392533 86.34055296607467,92.82989199620633 82.17010800379367,86.34055296607467" fill="#efa00b" fill-opacity="0.5636363636363636" stroke-opacity="0.5636363636363636" />
  <polygon points="113.91920207704408,81.93962116591294 118.06037883408706,88.91920207704408 111.08079792295592,93.06037883408706 106.93962116591294,86.08079792295592" fill="#efa00b" fill-opacity="0.5909090909090909" stroke-opacity="0.5909090909090909" />
  <rect x="125" y="75" width="25.0" height="25.0" fill="#ff6b35" fill-opacity="0.15" stroke-opacity="0.15" />
  <polygon points="139.19679835370405,81.72123549982179 143.27876450017823,89.19679835370407 135.80320164629595,93.27876450017823 131.72123549982177,85.80320164629593" fill="#efa00b" fill-opacity="0.6181818181818182" stroke-opacity="0.6181818181818182" />
  <polygon points="164.49169058098113,81.51592745631008 168.4840725436899,89.49169058098113 160.50830941901887,93.48407254368992 156.5159274563101,85.50830941901887" fill="#efa00b" fill-opacity="0.6454545454545455" stroke-opacity="0.6454545454545455" />
  <rect x="175" y="75" width="25.0" height="25.0" fill="#ff6b35" fill-opacity="0.15" stroke-opacity="0.15" />
  <polygon points="189.8032866382668,81.3246495397743 193.6753504602257,89.80328663826678 185.1967133617332,93.6753504602257 181.3246495397743,85.19671336173322" fill="#efa00b" fill-opacity="0.6727272727272727" stroke-opacity="0.6727272727272727" />
  <polygon points="215.13094859750998,81.14832821398491 218.8516717860151,90.13094859751 209.86905140249002,93.85167178601509 206.1483282139849,84.86905140249" fill="#efa00b" fill-opacity="0.7" stroke-opacity="0.7" />
  <rect x="225" y="75" width="25.0" height="25.0" fill="#ff6b35" fill-opacity="0.15" stroke-opacity="0.15" />
  <polygon points="240.47399384308167,80.98786185143925 244.01213814856075,90.47399384308169 234.52600615691833,94.01213814856075 230.98786185143925,84.52600615691831" fill="#efa00b" fill-opacity="0.7272727272727273" stroke-opacity="0.7272727272727273" />
  <polygon points="265.83169627944403,80.84411873002148 269.1558812699785,90.83169627944405 259.16830372055597,94.15588126997852 255.84411873002148,84.16830372055595" fill="#efa00b" fill-opacity="0.7545454545454545" stroke-opacity="0.7545454545454545" />
  <rect x="275" y="75" width="25.0" height="25.0" fill="#ff6b35" fill-opacity="0.15" stroke-opacity="0.15" />
  <polygon points="291.203287624655,80.71793508061667 294.28206491938334,91.20328762465499 283.796712375345,94.28206491938333 280.71793508061666,83.79671237534501" fill="#efa00b" fill-opacity="0.7818181818181817" stroke-opacity="0.7818181818181817" />
  <rect x="0" y="100" width="25.0" height="25.0" fill="#ff6b35" fill-opacity="0.15" stroke-opacity="0.15" />
  <polygon points="13.195402050653552,107.66337249989998 17.33662750010001,113.19540205065356 11.804597949346448,117.33662750010002 7.663372499899989,111.80459794934644" fill="#efa00b" fill-opacity="0.5090909090909091" stroke-opacity="0.5090909090909091" />
  <polygon points="38.41803073063305,107.41169775030758 42.58830224969242,113.41803073063305 36.58196926936695,117.58830224969242 32.41169775030758,111.58196926936695" fill="#efa00b" fill-opacity="0.5363636363636364" stroke-opacity="0.5363636363636364" />
  <rect x="50" y="100" width="25.0" height="25.0" fill="#ff6b35" fill-opacity="0.15" stroke-opacity="0.15" />
  <polygon points="63.659447033925325,107.17010800379367 67.82989199620633,113.65944703392533 61.340552966074675,117.82989199620633 57.17010800379368,111.34055296607467" fill="#efa00b" fill-opacity="0.5636363636363636" stroke-opacity="0.5636363636363636" />
  <polygon points="88.91920207704408,106.93962116591294 93.06037883408706,113.91920207704408 86.08079792295592,118.06037883408706 81.93962116591294,111.08079792295592" fill="#efa00b" fill-opacity="0.5909090909090909" stroke-opacity="0.5909090909090909" />
  <rect x="100" y="100" width="25.0" height="25.0" fill="#ff6b35" fill-opacity="0.15" stroke-opacity="0.15" />
  <polygon points="114.19679835370407,106.72123549982179 118.27876450017823,114.19679835370407 110.80320164629593,118.27876450017823 106.72123549982179,110.80320164629593" fill="#efa00b" fill-opacity="0.6181818181818182" stroke-opacity="0.6181818181818182" />
  <polygon points="139.49169058098113,106.51592745631008 143.4840725436899,114.49169058098113 135.50830941901887,118.48407254368992 131.5159274563101,110.50830941901887" fill="#efa00b" fill-opacity="0.6454545454545455" stroke-opacity="0.6454545454545455" />
  <rect x="150" y="100" width="25.0" height="25.0" fill="#ff6b35" fill-opacity="0.15" stroke-opacity="0.15" />
  <polygon points="164.8032866382668,106.3246495397743 168.6753504602257,114.80328663826678 160.1967133617332,118.6753504602257 156.3246495397743,110.19671336173322" fill="#efa00b" fill-opacity="0.6727272727272727" stroke-opacity="0.6727272727272727" />
  <polygon points="190.13094859750998,106.14832821398491 193.8516717860151,115.13094859751 184.86905140249002,118.85167178601509 181.1483282139849,109.86905140249" fill="#efa00b" fill-opacity="0.7" stroke-opacity="0.7" />
  <rect x="200" y="100" width="25.0" height="25.0" fill="#ff6b35" fill-opacity="0.15" stroke-opacity="0.15" />
  <polygon points="215.47399384308167,105.98786185143925 219.01213814856075,115.47399384308169 209.52600615691833,119.01213814856075 205.98786185143925,109.52600615691831" fill="#efa00b" fill-opacity="0.7272727272727273" stroke-opacity="0.7272727272727273" />
  <polygon points="240.83169627944406,105.84411873002148 244.15588126997852,115.83169627944405 234.16830372055594,119.15588126997852 230.84411873002148,109.16830372055595" fill="#efa00b" fill-opacity="0.7545454545454546" stroke-opacity="0.7545454545454546" />
  <rect x="250" y="100" width="25.0" height="25.0" fill="#ff6b35" fill-opacity="0.15" stroke-opacity="0.15" />
  <polygon points="266.203287624655,105.71793508061667 269.28206491938334,116.20328762465499 258.796712375345,119.28206491938333 255.71793508061666,108.79671237534502" fill="#efa00b" fill-opacity="0.7818181818181817" stroke-opacity="0.7818181818181817" />
  <polygon points="291.58795878759014,105.61011318924513 294.3898868107549,116.58795878759015 283.41204121240986,119.38988681075487 280.6101131892451,108.41204121240985" fill="#efa00b" fill-opacity="0.8090909090909091" stroke-opacity="0.8090909090909091" />
  <polygon points="13.418030730633042,132.41169775030758 17.58830224969242,138.41803073063303 11.581969269366958,142.58830224969242 7.411697750307582,136.58196926936697" fill="#efa00b" fill-opacity="0.5363636363636364" stroke-opacity="0.5363636363636364" />
  <rect x="25" y="125" width="25.0" height="25.0" fill="#ff6b35" fill-opacity="0.15" stroke-opacity="0.15" />
  <polygon points="38.659447033925325,132.1701080037937 42.82989199620632,138.65944703392532 36.340552966074675,142.8298919962063 32.17010800379368,136.34055296607468" fill="#efa00b" fill-opacity="0.5636363636363636" stroke-opacity="0.5636363636363636" />
  <polygon points="63.91920207704408,131.93962116591294 68.06037883408706,138.91920207704408 61.08079792295592,143.06037883408706 56.93962116591294,136.08079792295592" fill="#efa00b" fill-opacity="0.5909090909090909" stroke-opacity="0.5909090909090909" />
  <rect x="75" y="125" width="25.0" height="25.0" fill="#ff6b35" fill-opacity="0.15" stroke-opacity="0.15" />
  <polygon points="89.19679835370407,131.72123549982177 93.27876450017823,139.19679835370405 85.80320164629593,143.27876450017823 81.72123549982179,135.80320164629595" fill="#efa00b" fill-opacity="0.6181818181818182" stroke-opacity="0.6181818181818182" />
  <polygon points="114.49169058098113,131.5159274563101 118.48407254368992,139.49169058098113 110.50830941901887,143.4840725436899 106.51592745631008,135.50830941901887" fill="#efa00b" fill-opacity="0.6454545454545455" stroke-opacity="0.6454545454545455" />
  <rect x="125" y="125" width="25.0" height="25.0" fill="#ff6b35" fill-opacity="0.15" stroke-opacity="0.15" />
  <polygon points="139.8032866382668,131.3246495397743 143.6753504602257,139.8032866382668 135.1967133617332,143.6753504602257 131.3246495397743,135.1967133617332" fill="#efa00b" fill-opacity="0.6727272727272727" stroke-opacity="0.6727272727272727" />
  <polygon points="165.13094859750998,131.1483282139849 168.8516717860151,140.13094859750998 159.86905140249002,143.8516717860151 156.1483282139849,134.86905140249002" fill="#efa00b" fill-opacity="0.7" stroke-opacity="0.7" />
  <rect x="175" y="125" width="25.0" height="25.0" fill="#ff6b35" fill-opacity="0.15" stroke-opacity="0.15" />
  <polygon points="190.47399384308167,130.98786185143925 194.01213814856075,140.47399384308167 184.52600615691833,144.01213814856075 180.98786185143925,134.52600615691833" fill="#efa00b" fill-opacity="0.7272727272727273" stroke-opacity="0.7272727272727273" />
  <polygon points="215.83169627944406,130.84411873002148 219.15588126997852,140.83169627944406 209.16830372055594,144.15588126997852 205.84411873002148,134.16830372055594" fill="#efa00b" fill-opacity="0.7545454545454546" stroke-opacity="0.7545454545454546" />
  <rect x="225" y="125" width="25.0" height="25.0" fill="#ff6b35" fill-opacity="0.15" stroke-opacity="0.15" />
  <polygon points="241.203287624655,130.71793508061666 244.28206491938334,141.203287624655 233.796712375345,144.28206491938334 230.71793508061666,133.796712375345" fill="#efa00b" fill-opacity="0.7818181818181817" stroke-opacity="0.7818181818181817" />
  <polygon points="266.58795878759014,130.61011318924514 269.3898868107549,141.58795878759017 258.41204121240986,144.38988681075486 255.61011318924514,133.41204121240983" fill="#efa00b" fill-opacity="0.8090909090909091" stroke-opacity="0.8090909090909091" />
  <rect x="275" y="125" width="25.0" height="25.0" fill="#ff6b35" fill-opacity="0.15" stroke-opacity="0.15" />
  <polygon points="291.9848613266203,130.52141955719588 294.4785804428041,141.98486132662032 283.0151386733797,144.47858044280412 280.5214195571959,133.01513867337968" fill="#efa00b" fill-opacity="0.8363636363636364" stroke-opacity="0.8363636363636364" />
  <rect x="0" y="150" width="25.0" height="25.0" fill="#ff6b35" fill-opacity="0.15" stroke-opacity="0.15" />
  <polygon points="13.659447033925325,157.1701080037937 17.829891996206324,163.65944703392532 11.340552966074675,167.8298919962063 7.170108003793676,161.34055296607468" fill="#efa00b" fill-opacity="0.5636363636363636" stroke-opacity="0.5636363636363636" />
  <polygon points="38.91920207704408,156.93962116591294 43.060378834087054,163.91920207704408 36.08079792295592,168.06037883408706 31.939621165912943,161.08079792295592" fill="#efa00b" fill-opacity="0.5909090909090909" stroke-opacity="0.5909090909090909" />
  <rect x="50" y="150" width="25.0" height="25.0" fill="#ff6b35" fill-opacity="0.15" stroke-opacity="0.15" />
  <polygon points="64.19679835370407,156.72123549982177 68.27876450017823,164.19679835370405 60.80320164629593,168.27876450017823 56.72123549982177,160.80320164629595" fill="#efa00b" fill-opacity="0.6181818181818182" stroke-opacity="0.6181818181818182" />
  <polygon points="89.49169058098113,156.5159274563101 93.48407254368992,164.49169058098113 85.50830941901887,168.4840725436899 81.51592745631008,160.50830941901887" fill="#efa00b" fill-opacity="0.6454545454545455" stroke-opacity="0.6454545454545455" />
  <rect x="100" y="150" width="25.0" height="25.0" fill="#ff6b35" fill-opacity="0.15" stroke-opacity="0.15" />
  <polygon points="114.80328663826678,156.3246495397743 118.6753504602257,164.8032866382668 110.19671336173322,168.6753504602257 106.3246495397743,160.1967133617332" fill="#efa00b" fill-opacity="0.6727272727272727" stroke-opacity="0.6727272727272727" />
  <polygon points="140.13094859750998,156.1483282139849 143.8516717860151,165.13094859750998 134.86905140249002,168.8516717860151 131.1483282139849,159.86905140249002" fill="#efa00b" fill-opacity="0.7" stroke-opacity="0.7" />
  <rect x="150" y="150" width="25.0" height="25.0" fill="#ff6b35" fill-opacity="0.15" stroke-opacity="0.15" />
  <polygon points="165.47399384308167,155.98786185143925 169.01213814856075,165.47399384308167 159.52600615691833,169.01213814856075 155.98786185143925,159.52600615691833" fill="#efa00b" fill-opacity="0.7272727272727273" stroke-opacity="0.7272727272727273" />
  <polygon points="190.83169627944406,155.84411873002148 194.15588126997852,165.83169627944406 184.16830372055594,169.15588126997852 180.84411873002148,159.16830372055594" fill="#efa00b" fill-opacity="0.7545454545454545" stroke-opacity="0.7545454545454545" />
  <rect x="200" y="150" width="25.0" height="25.0" fill="#ff6b35" fill-opacity="0.15" stroke-opacity="0.15" />
  <polygon points="216.203287624655,155.71793508061666 219.28206491938334,166.203287624655 208.796712375345,169.28206491938334 205.71793508061666,158.796712375345" fill="#efa00b" fill-opacity="0.7818181818181817" stroke-opacity="0.7818181818181817" />
  <polygon points="241.58795878759017,155.61011318924514 244.38988681075486,166.58795878759017 233.41204121240983,169.38988681075486 230.61011318924514,158.41204121240983" fill="#efa00b" fill-opacity="0.8090909090909091" stroke-opacity="0.8090909090909091" />
  <rect x="250" y="150" width="25.0" height="25.0" fill="#ff6b35" fill-opacity="0.15" stroke-opacity="0.15" />
  <polygon points="266.9848613266203,155.52141955719588 269.4785804428041,166.98486132662032 258.0151386733797,169.47858044280412 255.52141955719588,158.0151386733797" fill="#efa00b" fill-opacity="0.8363636363636364" stroke-opacity="0.8363636363636364" />
  <polygon points="292.39310898733976,155.45258312254578 294.5474168774542,167.39310898733973 282.60689101266024,169.5474168774542 280.4525831225458,157.60689101266027" fill="#efa00b" fill-opacity="0.8636363636363636" stroke-opacity="0.8636363636363636" />
  <polygon points="13.91920207704408,181.93962116591294 18.060378834087057,188.91920207704408 11.08079792295592,193.06037883408706 6.939621165912941,186.08079792295592" fill="#efa00b" fill-opacity="0.5909090909090909" stroke-opacity="0.5909090909090909" />
  <rect x="25" y="175" width="25.0" height="25.0" fill="#ff6b35" fill-opacity="0.15" stroke-opacity="0.15" />
  <polygon points="39.19679835370407,181.72123549982177 43.27876450017823,189.19679835370405 35.80320164629593,193.27876450017823 31.721235499821777,185.80320164629595" fill="#efa00b" fill-opacity="0.6181818181818182" stroke-opacity="0.6181818181818182" />
  <polygon points="64.49169058098113,181.5159274563101 68.48407254368992,189.49169058098113 60.50830941901887,193.4840725436899 56.51592745631009,185.50830941901887" fill="#efa00b" fill-opacity="0.6454545454545455" stroke-opacity="0.6454545454545455" />
  <rect x="75" y="175" width="25.0" height="25.0" fill="#ff6b35" fill-opacity="0.15" stroke-opacity="0.15" />
  <polygon points="89.80328663826678,181.3246495397743 93.6753504602257,189.8032866382668 85.19671336173322,193.6753504602257 81.3246495397743,185.1967133617332" fill="#efa00b" fill-opacity="0.6727272727272727" stroke-opacity="0.6727272727272727" />
  <polygon points="115.13094859751,181.1483282139849 118.85167178601509,190.13094859750998 109.86905140249,193.8516717860151 106.14832821398491,184.86905140249002" fill="#efa00b" fill-opacity="0.7" stroke-opacity="0.7" />
  <rect x="125" y="175" width="25.0" height="25.0" fill="#ff6b35" fill-opacity="0.15" stroke-opacity="0.15" />
  <polygon points="140.47399384308167,180.98786185143925 144.01213814856075,190.47399384308167 134.52600615691833,194.01213814856075 130.98786185143925,184.52600615691833" fill="#efa00b" fill-opacity="0.7272727272727273" stroke-opacity="0.7272727272727273" />
  <polygon points="165.83169627944406,180.84411873002148 169.15588126997852,190.83169627944406 159.16830372055594,194.15588126997852 155.84411873002148,184.16830372055594" fill="#efa00b" fill-opacity="0.7545454545454545" stroke-opacity="0.7545454545454545" />
  <rect x="175" y="175" width="25.0" height="25.0" fill="#ff6b35" fill-opacity="0.15" stroke-opacity="0.15" />
  <polygon points="191.203287624655,180.71793508061666 194.28206491938334,191.203287624655 183.796712375345,194.28206491938334 180.71793508061666,183.796712375345" fill="#efa00b" fill-opacity="0.7818181818181817" stroke-opacity="0.7818181818181817" />
  <polygon points="216.58795878759017,180.61011318924514 219.38988681075486,191.58795878759017 208.41204121240983,194.38988681075486 205.61011318924514,183.41204121240983" fill="#efa00b" fill-opacity="0.8090909090909091" stroke-opacity="0.8090909090909091" />
  <rect x="225" y="175" width="25.0" height="25.0" fill="#ff6b35" fill-opacity="0.15" stroke-opacity="0.15" />
  <polygon points="241.9848613266203,180.52141955719588 244.47858044280412,191.9848613266203 233.0151386733797,194.47858044280412 230.52141955719588,183.0151386733797" fill="#efa00b" fill-opacity="0.8363636363636364" stroke-opacity="0.8363636363636364" />
  <polygon points="267.39310898733976,180.45258312254578 269.5474168774542,192.39310898733973 257.60689101266024,194.5474168774542 255.45258312254578,182.60689101266024" fill="#efa00b" fill-opacity="0.8636363636363636" stroke-opacity="0.8636363636363636" />
  <rect x="275" y="175" width="25.0" height="25.0" fill="#ff6b35" fill-opacity="0.15" stroke-opacity="0.15" />
  <polygon points="292.81177931680514,180.40429354635225 294.5957064536477,192.81177931680512 282.18822068319486,194.59570645364775 280.4042935463523,182.18822068319488" fill="#efa00b" fill-opacity="0.8909090909090909" stroke-opacity="0.8909090909090909" />
  <rect x="0" y="200" width="25.0" height="25.0" fill="#ff6b35" fill-opacity="0.15" stroke-opacity="0.15" />
  <polygon points="14.196798353704068,206.72123549982177 18.278764500178223,214.19679835370405 10.803201646295932,218.27876450017823 6.721235499821778,210.80320164629595" fill="#efa00b" fill-opacity="0.6181818181818182" stroke-opacity="0.6181818181818182" />
  <polygon points="39.49169058098113,206.5159274563101 43.48407254368991,214.49169058098113 35.50830941901887,218.4840725436899 31.515927456310088,210.50830941901887" fill="#efa00b" fill-opacity="0.6454545454545455" stroke-opacity="0.6454545454545455" />
  <rect x="50" y="200" width="25.0" height="25.0" fill="#ff6b35" fill-opacity="0.15" stroke-opacity="0.15" />
  <polygon points="64.80328663826678,206.3246495397743 68.6753504602257,214.8032866382668 60.19671336173322,218.6753504602257 56.3246495397743,210.1967133617332" fill="#efa00b" fill-opacity="0.6727272727272728" stroke-opacity="0.6727272727272728" />
  <polygon points="90.13094859751,206.1483282139849 93.85167178601509,215.13094859750998 84.86905140249,218.8516717860151 81.14832821398491,209.86905140249002" fill="#efa00b" fill-opacity="0.7" stroke-opacity="0.7" />
  <rect x="100" y="200" width="25.0" height="25.0" fill="#ff6b35" fill-opacity="0.15" stroke-opacity="0.15" />
  <polygon points="115.47399384308169,205.98786185143925 119.01213814856075,215.47399384308167 109.52600615691831,219.01213814856075 105.98786185143925,209.52600615691833" fill="#efa00b" fill-opacity="0.7272727272727273" stroke-opacity="0.7272727272727273" />
  <polygon points="140.83169627944406,205.84411873002148 144.15588126997852,215.83169627944406 134.16830372055594,219.15588126997852 130.84411873002148,209.16830372055594" fill="#efa00b" fill-opacity="0.7545454545454546" stroke-opacity="0.7545454545454546" />
  <rect x="150" y="200" width="25.0" height="25.0" fill="#ff6b35" fill-opacity="0.15" stroke-opacity="0.15" />
  <polygon points="166.203287624655,205.71793508061666 169.28206491938334,216.203287624655 158.796712375345,219.28206491938334 155.71793508061666,208.796712375345" fill="#efa00b" fill-opacity="0.7818181818181817" stroke-opacity="0.7818181818181817" />
  <polygon points="191.58795878759017,205.61011318924514 194.38988681075486,216.58795878759017 183.41204121240983,219.38988681075486 180.61011318924514,208.41204121240983" fill="#efa00b" fill-opacity="0.8090909090909091" stroke-opacity="0.8090909090909091" />
  <rect x="200" y="200" width="25.0" height="25.0" fill="#ff6b35" fill-opacity="0.15" stroke-opacity="0.15" />
  <polygon points="216.9848613266203,205.52141955719588 219.47858044280412,216.9848613266203 208.0151386733797,219.47858044280412 205.52141955719588,208.0151386733797" fill="#efa00b" fill-opacity="0.8363636363636364" stroke-opacity="0.8363636363636364" />
  <polygon points="242.39310898733976,205.45258312254578 244.5474168774542,217.39310898733973 232.60689101266027,219.5474168774542 230.45258312254578,207.60689101266024" fill="#efa00b" fill-opacity="0.8636363636363636" stroke-opacity="0.8636363636363636" />
  <rect x="250" y="200" width="25.0" height="25.0" fill="#ff6b35" fill-opacity="0.15" stroke-opacity="0.15" />
  <polygon points="267.81177931680514,205.40429354635225 269.5957064536477,217.81177931680512 257.18822068319486,219.59570645364775 255.40429354635225,207.18822068319488" fill="#efa00b" fill-opacity="0.8909090909090909" stroke-opacity="0.8909090909090909" />
  <polygon points="293.23991535160894,205.37719956670395 294.62280043329605,218.23991535160891 281.76008464839106,219.62280043329605 280.37719956670395,206.76008464839109" fill="#efa00b" fill-opacity="0.9181818181818182" stroke-opacity="0.9181818181818182" />
  <polygon points="14.491690580981125,231.5159274563101 18.484072543689912,239.49169058098113 10.508309419018875,243.4840725436899 6.515927456310086,235.50830941901887" fill="#efa00b" fill-opacity="0.6454545454545455" stroke-opacity="0.6454545454545455" />
  <rect x="25" y="225" width="25.0" height="25.0" fill="#ff6b35" fill-opacity="0.15" stroke-opacity="0.15" />
  <polygon points="39.80328663826678,231.3246495397743 43.6753504602257,239.8032866382668 35.19671336173322,243.6753504602257 31.324649539774295,235.1967133617332" fill="#efa00b" fill-opacity="0.6727272727272728" stroke-opacity="0.6727272727272728" />
  <polygon points="65.13094859751,231.1483282139849 68.85167178601509,240.13094859750998 59.86905140249001,243.8516717860151 56.148328213984904,234.86905140249002" fill="#efa00b" fill-opacity="0.7" stroke-opacity="0.7" />
  <rect x="75" y="225" width="25.0" height="25.0" fill="#ff6b35" fill-opacity="0.15" stroke-opacity="0.15" />
  <polygon points="90.47399384308169,230.98786185143925 94.01213814856075,240.47399384308167 84.52600615691831,244.01213814856075 80.98786185143925,234.52600615691833" fill="#efa00b" fill-opacity="0.7272727272727273" stroke-opacity="0.7272727272727273" />
  <polygon points="115.83169627944405,230.84411873002148 119.15588126997852,240.83169627944406 109.16830372055595,244.15588126997852 105.84411873002148,234.16830372055594" fill="#efa00b" fill-opacity="0.7545454545454546" stroke-opacity="0.7545454545454546" />
  <rect x="125" y="225" width="25.0" height="25.0" fill="#ff6b35" fill-opacity="0.15" stroke-opacity="0.15" />
  <polygon points="141.203287624655,230.71793508061666 144.28206491938334,241.203287624655 133.796712375345,244.28206491938334 130.71793508061666,233.796712375345" fill="#efa00b" fill-opacity="0.7818181818181817" stroke-opacity="0.7818181818181817" />
  <polygon points="166.58795878759017,230.61011318924514 169.38988681075486,241.58795878759017 158.41204121240983,244.38988681075486 155.61011318924514,233.41204121240983" fill="#efa00b" fill-opacity="0.8090909090909091" stroke-opacity="0.8090909090909091" />
  <rect x="175" y="225" width="25.0" height="25.0" fill="#ff6b35" fill-opacity="0.15" stroke-opacity="0.15" />
  <polygon points="191.9848613266203,230.52141955719588 194.47858044280412,241.9848613266203 183.0151386733797,244.47858044280412 180.52141955719588,233.0151386733797" fill="#efa00b" fill-opacity="0.8363636363636364" stroke-opacity="0.8363636363636364" />
  <polygon points="217.39310898733976,230.45258312254578 219.5474168774542,242.39310898733973 207.60689101266027,244.5474168774542 205.45258312254578,232.60689101266024" fill="#efa00b" fill-opacity="0.8636363636363636" stroke-opacity="0.8636363636363636" />
  <rect x="225" y="225" width="25.0" height="25.0" fill="#ff6b35" fill-opacity="0.15" stroke-opacity="0.15" />
  <polygon points="242.81177931680512,230.40429354635225 244.59570645364775,242.81177931680512 232.18822068319488,244.59570645364775 230.40429354635225,232.18822068319488" fill="#efa00b" fill-opacity="0.8909090909090909" stroke-opacity="0.8909090909090909" />
  <polygon points="268.23991535160894,230.37719956670395 269.62280043329605,243.23991535160891 256.76008464839106,244.62280043329605 255.37719956670395,231.76008464839106" fill="#efa00b" fill-opacity="0.9181818181818182" stroke-opacity="0.9181818181818182" />
  <rect x="275" y="225" width="25.0" height="25.0" fill="#ff6b35" fill-opacity="0.15" stroke-opacity="0.15" />
  <polygon points="293.6765273769839,230.37190742370416 294.62809257629584,243.67652737698396 281.3234726230161,244.62809257629584 280.37190742370416,231.32347262301604" fill="#efa00b" fill-opacity="0.9454545454545455" stroke-opacity="0.9454545454545455" />
  <rect x="0" y="250" width="25.0" height="25.0" fill="#ff6b35" fill-opacity="0.15" stroke-opacity="0.15" />
  <polygon points="14.803286638266785,256.32464953977427 18.675350460225705,264.8032866382668 10.196713361733204,268.67535046022573 6.324649539774298,260.1967133617332" fill="#efa00b" fill-opacity="0.6727272727272727" stroke-opacity="0.6727272727272727" />
  <polygon points="40.13094859750999,256.1483282139849 43.851671786015096,265.13094859751 34.86905140249001,268.8516717860151 31.148328213984904,259.86905140249" fill="#efa00b" fill-opacity="0.7" stroke-opacity="0.7" />
  <rect x="50" y="250" width="25.0" height="25.0" fill="#ff6b35" fill-opacity="0.15" stroke-opacity="0.15" />
  <polygon points="65.47399384308169,255.98786185143925 69.01213814856075,265.4739938430817 59.5260061569183,269.0121381485608 55.98786185143925,259.5260061569183" fill="#efa00b" fill-opacity="0.7272727272727273" stroke-opacity="0.7272727272727273" />
  <polygon points="90.83169627944405,255.84411873002148 94.15588126997852,265.83169627944403 84.16830372055595,269.1558812699785 80.84411873002148,259.16830372055597" fill="#efa00b" fill-opacity="0.7545454545454545" stroke-opacity="0.7545454545454545" />
  <rect x="100" y="250" width="25.0" height="25.0" fill="#ff6b35" fill-opacity="0.15" stroke-opacity="0.15" />
  <polygon points="116.20328762465498,255.71793508061666 119.28206491938333,266.203287624655 108.79671237534501,269.28206491938334 105.71793508061667,258.796712375345" fill="#efa00b" fill-opacity="0.7818181818181817" stroke-opacity="0.7818181818181817" />
  <polygon points="141.58795878759017,255.61011318924514 144.38988681075486,266.58795878759014 133.41204121240983,269.3898868107549 130.61011318924514,258.41204121240986" fill="#efa00b" fill-opacity="0.8090909090909091" stroke-opacity="0.8090909090909091" />
  <rect x="150" y="250" width="25.0" height="25.0" fill="#ff6b35" fill-opacity="0.15" stroke-opacity="0.15" />
  <polygon points="166.9848613266203,255.52141955719588 169.47858044280412,266.9848613266203 158.01513867337968,269.4785804428041 155.52141955719588,258.0151386733797" fill="#efa00b" fill-opacity="0.8363636363636364" stroke-opacity="0.8363636363636364" />
  <polygon points="192.39310898733976,255.45258312254578 194.5474168774542,267.39310898733976 182.60689101266027,269.5474168774542 180.45258312254578,257.60689101266024" fill="#efa00b" fill-opacity="0.8636363636363636" stroke-opacity="0.8636363636363636" />
  <rect x="200" y="250" width="25.0" height="25.0" fill="#ff6b35" fill-opacity="0.15" stroke-opacity="0.15" />
  <polygon points="217.81177931680512,255.40429354635225 219.59570645364775,267.81177931680514 207.18822068319488,269.5957064536477 205.40429354635225,257.18822068319486" fill="#efa00b" fill-opacity="0.8909090909090909" stroke-opacity="0.8909090909090909" />
  <polygon points="243.23991535160894,255.37719956670395 244.62280043329605,268.23991535160894 231.76008464839109,269.62280043329605 230.37719956670395,256.76008464839106" fill="#efa00b" fill-opacity="0.9181818181818182" stroke-opacity="0.9181818181818182" />
  <rect x="250" y="250" width="25.0" height="25.0" fill="#ff6b35" fill-opacity="0.15" stroke-opacity="0.15" />
  <polygon points="268.6765273769839,255.37190742370416 269.62809257629584,268.6765273769839 256.3234726230161,269.62809257629584 255.37190742370416,256.3234726230161" fill="#efa00b" fill-opacity="0.9454545454545454" stroke-opacity="0.9454545454545454" />
  <polygon points="294.12059475400883,255.388979358348 294.61102064165203,269.12059475400883 280.87940524599117,269.61102064165203 280.388979358348,255.8794052459912" fill="#efa00b" fill-opacity="0.9727272727272728" stroke-opacity="0.9727272727272728" />
  <polygon points="15.130948597509992,281.1483282139849 18.851671786015096,290.13094859751 9.869051402490008,293.8516717860151 6.148328213984903,284.86905140249" fill="#efa00b" fill-opacity="0.7" stroke-opacity="0.7" />
  <rect x="25" y="275" width="25.0" height="25.0" fill="#ff6b35" fill-opacity="0.15" stroke-opacity="0.15" />
  <polygon points="40.4739938430817,280.9878618514392 44.01213814856075,290.4739938430817 34.5260061569183,294.0121381485608 30.98786185143924,284.5260061569183" fill="#efa00b" fill-opacity="0.7272727272727273" stroke-opacity="0.7272727272727273" />
  <polygon points="65.83169627944405,280.8441187300215 69.15588126997852,290.83169627944403 59.16830372055595,294.1558812699785 55.844118730021464,284.16830372055597" fill="#efa00b" fill-opacity="0.7545454545454546" stroke-opacity="0.7545454545454546" />
  <rect x="75" y="275" width="25.0" height="25.0" fill="#ff6b35" fill-opacity="0.15" stroke-opacity="0.15" />
  <polygon points="91.20328762465499,280.71793508061666 94.28206491938333,291.203287624655 83.79671237534501,294.28206491938334 80.71793508061667,283.796712375345" fill="#efa00b" fill-opacity="0.7818181818181817" stroke-opacity="0.7818181818181817" />
  <polygon points="116.58795878759015,280.6101131892451 119.38988681075487,291.58795878759014 108.41204121240985,294.3898868107549 105.61011318924513,283.41204121240986" fill="#efa00b" fill-opacity="0.8090909090909091" stroke-opacity="0.8090909090909091" />
  <rect x="125" y="275" width="25.0" height="25.0" fill="#ff6b35" fill-opacity="0.15" stroke-opacity="0.15" />
  <polygon points="141.98486132662032,280.5214195571959 144.47858044280412,291.9848613266203 133.01513867337968,294.4785804428041 130.52141955719588,283.0151386733797" fill="#efa00b" fill-opacity="0.8363636363636364" stroke-opacity="0.8363636363636364" />
  <polygon points="167.39310898733973,280.4525831225458 169.5474168774542,292.39310898733976 157.60689101266027,294.5474168774542 155.45258312254578,282.60689101266024" fill="#efa00b" fill-opacity="0.8636363636363636" stroke-opacity="0.8636363636363636" />
  <rect x="175" y="275" width="25.0" height="25.0" fill="#ff6b35" fill-opacity="0.15" stroke-opacity="0.15" />
  <polygon points="192.81177931680512,280.4042935463523 194.59570645364775,292.81177931680514 182.18822068319488,294.5957064536477 180.40429354635225,282.18822068319486" fill="#efa00b" fill-opacity="0.8909090909090909" stroke-opacity="0.8909090909090909" />
  <polygon points="218.23991535160891,280.37719956670395 219.62280043329605,293.23991535160894 206.76008464839109,294.62280043329605 205.37719956670395,281.76008464839106" fill="#efa00b" fill-opacity="0.9181818181818182" stroke-opacity="0.9181818181818182" />
  <rect x="225" y="275" width="25.0" height="25.0" fill="#ff6b35" fill-opacity="0.15" stroke-opacity="0.15" />
  <polygon points="243.67652737698396,280.37190742370416 244.62809257629584,293.6765273769839 231.32347262301604,294.62809257629584 230.37190742370416,281.3234726230161" fill="#efa00b" fill-opacity="0.9454545454545455" stroke-opacity="0.9454545454545455" />
  <polygon points="269.12059475400883,280.388979358348 269.61102064165203,294.12059475400883 255.87940524599117,294.61102064165203 255.388979358348,280.87940524599117" fill="#efa00b" fill-opacity="0.9727272727272728" stroke-opacity="0.9727272727272728" />
  <rect x="275" y="275" width="25.0" height="25.0" fill="#ff6b35" fill-opacity="0.15" stroke-opacity="0.15" />
  <polygon points="294.5710678118655,280.4289321881345 294.5710678118655,294.5710678118655 280.4289321881345,294.5710678118655 280.4289321881345,280.4289321881345" fill="#efa00b" />
</svg>