<?xml version="1.0" encoding="UTF-8"?>
<svg xmlns="http://www.w3.org/2000/svg" width="300" height="300" viewBox="0 0 300 300">
  <rect width="100%" height="100%" fill="#2d1b4e" />
  <rect x="0" y="0" width="25.0" height="25.0" fill="#ff6b35" fill-opacity="0.15" stroke-opacity="0.15" />
  <polygon points="12.5,8.75 16.25,12.5 12.5,16.25 8.75,12.5" fill="#efa00b" fill-opacity="0.4" stroke-opacity="0.4" />
  <polygon points="37.5,8.46590909090909 41.53409090909091,12.5 37.5,16.53409090909091 33.46590909090909,12.5" fill="#efa00b" fill-opacity="0.4272727272727273" stroke-opacity="0.4272727272727273" transform="rotate(2.0454545454545454 37.5 12.5)" />
  <rect x="50" y="0" width="25.0" height="25.0" fill="#ff6b35" fill-opacity="0.15" stroke-opacity="0.15" />
  <polygon points="62.5,8.181818181818182 66.81818181818181,12.5 62.5,16.818181818181817 58.18181818181818,12.5" fill="#efa00b" fill-opacity="0.4545454545454546" stroke-opacity="0.4545454545454546" transform="rotate(4.090909090909091 62.5 12.5)" />
  <polygon points="87.5,7.897727272727273 92.10227272727272,12.5 87.5,17.102272727272727 82.89772727272728,12.5" fill="#efa00b" fill-opacity="0.4818181818181818" stroke-opacity="0.4818181818181818" transform="rotate(6.136363636363636 87.5 12.5)" />
  <rect x="100" y="0" width="25.0" height="25.0" fill="#ff6b35" fill-opacity="0.15" stroke-opacity="0.15" />
  <polygon points="112.5,7.613636363636364 117.38636363636364,12.5 112.5,17.386363636363637 107.61363636363636,12.5" fill="#efa00b" fill-opacity="0.5090909090909091" stroke-opacity="0.5090909090909091" transform="rotate(8.181818181818182 112.5 12.5)" />
  <polygon points="137.5,7.329545454545455 142.67045454545453,12.5 137.5,17.670454545454543 132.32954545454547,12.5" fill="#efa00b" fill-opacity="0.5363636363636364" stroke-opacity="0.5363636363636364" transform="rotate(10.227272727272727 137.5 12.5)" />
  <rect x="150" y="0" width="25.0" height="25.0" fill="#ff6b35" fill-opacity="0.15" stroke-opacity="0.15" />
  <polygon points="162.5,7.045454545454547 167.95454545454544,12.5 162.5,17.954545454545453 157.04545454545456,12.5" fill="#efa00b" fill-opacity="0.5636363636363636" stroke-opacity="0.5636363636363636" transform="rotate(12.272727272727272 162.5 12.5)" />
  <polygon points="187.5,6.761363636363636 193.23863636363637,12.5 187.5,18.238636363636363 181.76136363636363,12.5" fill="#efa00b" fill-opacity="0.5909090909090909" stroke-opacity="0.5909090909090909" transform="rotate(14.318181818181818 187.5 12.5)" />
  <rect x="200" y="0" width="25.0" height="25.0" fill="#ff6b35" fill-opacity="0.15" stroke-opacity="0.15" />
  <polygon points="212.5,6.4772727272727275 218.52272727272728,12.5 212.5,18.522727272727273 206.47727272727272,12.5" fill="#efa00b" fill-opacity="0.6181818181818182" stroke-opacity="0.6181818181818182" transform="rotate(16.363636363636363 212.5 12.5)" />
  <polygon points="237.5,6.193181818181818 243.8068181818182,12.5 237.5,18.80681818181818 231.1931818181818,12.5" fill="#efa00b" fill-opacity="0.6454545454545455" stroke-opacity="0.6454545454545455" transform="rotate(18.40909090909091 237.5 12.5)" />
  <rect x="250" y="0" width="25.0" height="25.0" fill="#ff6b35" fill-opacity="0.15" stroke-opacity="0.15" />
  <polygon points="262.5,5.90909090909091 269.0909090909091,12.5 262.5,19.090909090909093 255.9090909090909,12.5" fill="#efa00b" fill-opacity="0.6727272727272727" stroke-opacity="0.6727272727272727" transform="rotate(20.454545454545453 262.5 12.5)" />
  <polygon points="287.5,5.624999999999999 294.375,12.5 287.5,19.375 280.625,12.5" fill="#efa00b" fill-opacity="0.7" stroke-opacity="0.7" transform="rotate(22.5 287.5 12.5)" />
  <polygon points="12.5,33.46590909090909 16.53409090909091,37.5 12.5,41.53409090909091 8.46590909090909,37.5" fill="#efa00b" fill-opacity="0.4272727272727273" stroke-opacity="0.4272727272727273" transform="rotate(2.0454545454545454 12.5 37.5)" />
  <rect x="25" y="25" width="25.0" height="25.0" fill="#ff6b35" fill-opacity="0.15" stroke-opacity="0.15" />
  <polygon points="37.5,33.18181818181818 41.81818181818181,37.5 37.5,41.81818181818181 33.18181818181818,37.5" fill="#efa00b" fill-opacity="0.4545454545454546" stroke-opacity="0.4545454545454546" transform="rotate(4.090909090909091 37.5 37.5)" />
  <polygon points="62.5,32.89772727272727 67.10227272727272,37.5 62.5,42.10227272727273 57.89772727272727,37.5" fill="#efa00b" fill-opacity="0.4818181818181818" stroke-opacity="0.4818181818181818" transform="rotate(6.136363636363636 62.5 37.5)" />
  <rect x="75" y="25" width="25.0" height="25.0" fill="#ff6b35" fill-opacity="0.15" stroke-opacity="0.15" />
  <polygon points="87.5,32.61363636363637 92.38636363636364,37.5 87.5,42.38636363636364 82.61363636363636,37.5" fill="#efa00b" fill-opacity="0.5090909090909091" stroke-opacity="0.5090909090909091" transform="rotate(8.181818181818182 87.5 37.5)" />
  <polygon points="112.5,32.32954545454545 117.67045454545455,37.5 112.5,42.67045454545455 107.32954545454545,37.5" fill="#efa00b" fill-opacity="0.5363636363636364" stroke-opacity="0.5363636363636364" transform="rotate(10.227272727272728 112.5 37.5)" />
  <rect x="125" y="25" width="25.0" height="25.0" fill="#ff6b35" fill-opacity="0.15" stroke-opacity="0.15" />
  <polygon points="137.5,32.04545454545455 142.95454545454544,37.5 137.5,42.95454545454545 132.04545454545456,37.5" fill="#efa00b" fill-opacity="0.5636363636363636" stroke-opacity="0.5636363636363636" transform="rotate(12.272727272727272 137.5 37.5)" />
  <polygon points="162.5,31.761363636363637 168.23863636363637,37.5 162.5,43.23863636363636 156.76136363636363,37.5" fill="#efa00b" fill-opacity="0.5909090909090909" stroke-opacity="0.5909090909090909" transform="rotate(14.318181818181818 162.5 37.5)" />
  <rect x="175" y="25" width="25.0" height="25.0" fill="#ff6b35" fill-opacity="0.15" stroke-opacity="0.15" />
  <polygon points="187.5,31.477272727272727 193.52272727272728,37.5 187.5,43.52272727272727 181.47727272727272,37.5" fill="#efa00b" fill-opacity="0.6181818181818182" stroke-opacity="0.6181818181818182" transform="rotate(16.363636363636363 187.5 37.5)" />
  <polygon points="212.5,31.19318181818182 218.8068181818182,37.5 212.5,43.80681818181818 206.1931818181818,37.5" fill="#efa00b" fill-opacity="0.6454545454545455" stroke-opacity="0.6454545454545455" transform="rotate(18.40909090909091 212.5 37.5)" />
  <rect x="225" y="25" width="25.0" height="25.0" fill="#ff6b35" fill-opacity="0.15" stroke-opacity="0.15" />
  <polygon points="237.5,30.909090909090907 244.0909090909091,37.5 237.5,44.09090909090909 230.9090909090909,37.5" fill="#efa00b" fill-opacity="0.6727272727272728" stroke-opacity="0.6727272727272728" transform="rotate(20.454545454545457 237.5 37.5)" />
  <polygon points="262.5,30.625 269.375,37.5 262.5,44.375 255.625,37.5" fill="#efa00b" fill-opacity="0.7" stroke-opacity="0.7" transform="rotate(22.5 262.5 37.5)" />
  <rect x="275" y="25" width="25.0" height="25.0" fill="#ff6b35" fill-opacity="0.15" stroke-opacity="0.15" />
  <polygon points="287.5,30.34090909090909 294.65909090909093,37.5 287.5,44.65909090909091 280.34090909090907,37.5" fill="#efa00b" fill-opacity="0.7272727272727273" stroke-opacity="0.7272727272727273" transform="rotate(24.545454545454543 287.5 37.5)" />
  <rect x="0" y="50" width="25.0" height="25.0" fill="#ff6b35" fill-opacity="0.15" stroke-opacity="0.15" />
  <polygon points="12.5,58.18181818181818 16.818181818181817,62.5 12.5,66.81818181818181 8.181818181818182,62.5" fill="#efa00b" fill-opacity="0.4545454545454546" stroke-opacity="0.4545454545454546" transform="rotate(4.090909090909091 12.5 62.5)" />
  <polygon points="37.5,57.89772727272727 42.10227272727273,62.5 37.5,67.10227272727272 32.89772727272727,62.5" fill="#efa00b" fill-opacity="0.4818181818181818" stroke-opacity="0.4818181818181818" transform="rotate(6.136363636363636 37.5 62.5)" />
  <rect x="50" y="50" width="25.0" height="25.0" fill="#ff6b35" fill-opacity="0.15" stroke-opacity="0.15" />
  <polygon points="62.5,57.61363636363637 67.38636363636364,62.5 62.5,67.38636363636364 57.61363636363637,62.5" fill="#efa00b" fill-opacity="0.5090909090909091" stroke-opacity="0.5090909090909091" transform="rotate(8.181818181818182 62.5 62.5)" />
  <polygon points="87.5,57.32954545454545 92.67045454545455,62.5 87.5,67.67045454545455 82.32954545454545,62.5" fill="#efa00b" fill-opacity="0.5363636363636364" stroke-opacity="0.5363636363636364" transform="rotate(10.227272727272727 87.5 62.5)" />
  <rect x="100" y="50" width="25.0" height="25.0" fill="#ff6b35" fill-opacity="0.15" stroke-opacity="0.15" />
  <polygon points="112.5,57.04545454545455 117.95454545454545,62.5 112.5,67.95454545454545 107.04545454545455,62.5" fill="#efa00b" fill-opacity="0.5636363636363636" stroke-opacity="0.5636363636363636" transform="rotate(12.272727272727272 112.5 62.5)" />
  <polygon points="137.5,56.76136363636363 143.23863636363637,62.5 137.5,68.23863636363636 131.76136363636363,62.5" fill="#efa00b" fill-opacity="0.5909090909090909" stroke-opacity="0.5909090909090909" transform="rotate(14.318181818181818 137.5 62.5)" />
  <rect x="150" y="50" width="25.0" height="25.0" fill="#ff6b35" fill-opacity="0.15" stroke-opacity="0.15" />
  <polygon points="162.5,56.47727272727273 168.52272727272728,62.5 162.5,68.52272727272728 156.47727272727272,62.5" fill="#efa00b" fill-opacity="0.6181818181818182" stroke-opacity="0.6181818181818182" transform="rotate(16.363636363636363 162.5 62.5)" />
  <polygon points="187.5,56.19318181818182 193.8068181818182,62.5 187.5,68.80681818181819 181.1931818181818,62.5" fill="#efa00b" fill-opacity="0.6454545454545455" stroke-opacity="0.6454545454545455" transform="rotate(18.409090909090907 187.5 62.5)" />
  <rect x="200" y="50" width="25.0" height="25.0" fill="#ff6b35" fill-opacity="0.15" stroke-opacity="0.15" />
  <polygon points="212.5,55.90909090909091 219.0909090909091,62.5 212.5,69.0909090909091 205.9090909090909,62.5" fill="#efa00b" fill-opacity="0.6727272727272728" stroke-opacity="0.6727272727272728" transform="rotate(20.454545454545457 212.5 62.5)" />
  <polygon points="237.5,55.625 244.375,62.5 237.5,69.375 230.625,62.5" fill="#efa00b" fill-opacity="0.7" stroke-opacity="0.7" transform="rotate(22.5 237.5 62.5)" />
  <rect x="250" y="50" width="25.0" height="25.0" fill="#ff6b35" fill-opacity="0.15" stroke-opacity="0.15" />
  <polygon points="262.5,55.34090909090909 269.65909090909093,62.5 262.5,69.6590909090909 255.3409090909091,62.5" fill="#efa00b" fill-opacity="0.7272727272727273" stroke-opacity="0.7272727272727273" transform="rotate(24.545454545454543 262.5 62.5)" />
  <polygon points="287.5,55.05681818181818 294.9431818181818,62.5 287.5,69.94318181818181 280.0568181818182,62.5" fill="#efa00b" fill-opacity="0.7545454545454546" stroke-opacity="0.7545454545454546" transform="rotate(26.590909090909093 287.5 62.5)" />
  <polygon points="12.5,82.89772727272728 17.102272727272727,87.5 12.5,92.10227272727272 7.897727272727273,87.5" fill="#efa00b" fill-opacity="0.4818181818181818" stroke-opacity="0.4818181818181818" transform="rotate(6.136363636363636 12.5 87.5)" />
  <rect x="25" y="75" width="25.0" height="25.0" fill="#ff6b35" fill-opacity="0.15" stroke-opacity="0.15" />
  <polygon points="37.5,82.61363636363636 42.38636363636364,87.5 37.5,92.38636363636364 32.61363636363637,87.5" fill="#efa00b" fill-opacity="0.5090909090909091" stroke-opacity="0.5090909090909091" transform="rotate(8.181818181818182 37.5 87.5)" />
  <polygon points="62.5,82.32954545454545 67.67045454545455,87.5 62.5,92.67045454545455 57.32954545454545,87.5" fill="#efa00b" fill-opacity="0.5363636363636364" stroke-opacity="0.5363636363636364" transform="rotate(10.227272727272727 62.5 87.5)" />
  <rect x="75" y="75" width="25.0" height="25.0" fill="#ff6b35" fill-opacity="0.15" stroke-opacity="0.15" />
  <polygon points="87.5,82.04545454545455 92.95454545454545,87.5 87.5,92.95454545454545 82.04545454545455,87.5" fill="#efa00b" fill-opacity="0.5636363636363636" stroke-opacity="0.5636363636363636" transform="rotate(12.272727272727272 87.5 87.5)" />
  <polygon points="112.5,81.76136363636364 118.23863636363636,87.5 112.5,93.23863636363636 106.76136363636364,87.5" fill="#efa00b" fill-opacity="0.5909090909090909" stroke-opacity="0.5909090909090909" transform="rotate(14.318181818181818 112.5 87.5)" />
  <rect x="125" y="75" width="25.0" height="25.0" fill="#ff6b35" fill-opacity="0.15" stroke-opacity="0.15" />
  <polygon points="137.5,81.47727272727273 143.52272727272728,87.5 137.5,93.52272727272728 131.47727272727272,87.5" fill="#efa00b" fill-opacity="0.6181818181818182" stroke-opacity="0.6181818181818182" transform="rotate(16.363636363636363 137.5 87.5)" />
  <polygon points="162.5,81.19318181818181 168.8068181818182,87.5 162.5,93.80681818181819 156.1931818181818,87.5" fill="#efa00b" fill-opacity="0.6454545454545455" stroke-opacity="0.6454545454545455" transform="rotate(18.409090909090907 162.5 87.5)" />
  <rect x="175" y="75" width="25.0" height="25.0" fill="#ff6b35" fill-opacity="0.15" stroke-opacity="0.15" />
  <polygon points="187.5,80.9090909090909 194.0909090909091,87.5 187.5,94.0909090909091 180.9090909090909,87.5" fill="#efa00b" fill-opacity="0.6727272727272727" stroke-opacity="0.6727272727272727" transform="rotate(20.454545454545453 187.5 87.5)" />
  <polygon points="212.5,80.625 219.375,87.5 212.5,94.375 205.625,87.5" fill="#efa00b" fill-opacity="0.7" stroke-opacity="0.7" transform="rotate(22.5 212.5 87.5)" />
  <rect x="225" y="75" width="25.0" height="25.0" fill="#ff6b35" fill-opacity="0.15" stroke-opacity="0.15" />
  <polygon points="237.5,80.3409090909091 244.6590909090909,87.5 237.5,94.6590909090909 230.3409090909091,87.5" fill="#efa00b" fill-opacity="0.7272727272727273" stroke-opacity="0.7272727272727273" transform="rotate(24.545454545454543 237.5 87.5)" />
  <polygon points="262.5,80.05681818181819 269.9431818181818,87.5 262.5,94.94318181818181 255.0568181818182,87.5" fill="#efa00b" fill-opacity="0.7545454545454545" stroke-opacity="0.7545454545454545" transform="rotate(26.590909090909086 262.5 87.5)" />
  <rect x="275" y="75" width="25.0" height="25.0" fill="#ff6b35" fill-opacity="0.15" stroke-opacity="0.15" />
  <polygon points="287.5,79.77272727272728 295.22727272727275,87.5 287.5,95.22727272727272 279.77272727272725,87.5" fill="#efa00b" fill-opacity="0.7818181818181817" stroke-opacity="0.7818181818181817" transform="rotate(28.636363636363637 287.5 87.5)" />
  <rect x="0" y="100" width="25.0" height="25.0" fill="#ff6b35" fill-opacity="0.15" stroke-opacity="0.15" />
  <polygon points="12.5,107.61363636363636 17.386363636363637,112.5 12.5,117.38636363636364 7.613636363636364,112.5" fill="#efa00b" fill-opacity="0.5090909090909091" stroke-opacity="0.5090909090909091" transform="rotate(8.181818181818182 12.5 112.5)" />
  <polygon points="37.5,107.32954545454545 42.67045454545455,112.5 37.5,117.67045454545455 32.32954545454545,112.5" fill="#efa00b" fill-opacity="0.5363636363636364" stroke-opacity="0.5363636363636364" transform="rotate(10.227272727272728 37.5 112.5)" />
  <rect x="50" y="100" width="25.0" height="25.0" fill="#ff6b35" fill-opacity="0.15" stroke-opacity="0.15" />
  <polygon points="62.5,107.04545454545455 67.95454545454545,112.5 62.5,117.95454545454545 57.04545454545455,112.5" fill="#efa00b" fill-opacity="0.5636363636363636" stroke-opacity="0.5636363636363636" transform="rotate(12.272727272727272 62.5 112.5)" />
  <polygon points="87.5,106.76136363636364 93.23863636363636,112.5 87.5,118.23863636363636 81.76136363636364,112.5" fill="#efa00b" fill-opacity="0.5909090909090909" stroke-opacity="0.5909090909090909" transform="rotate(14.318181818181818 87.5 112.5)" />
  <rect x="100" y="100" width="25.0" height="25.0" fill="#ff6b35" fill-opacity="0.15" stroke-opacity="0.15" />
  <polygon points="112.5,106.47727272727273 118.52272727272728,112.5 112.5,118.52272727272728 106.47727272727273,112.5" fill="#efa00b" fill-opacity="0.6181818181818182" stroke-opacity="0.6181818181818182" transform="rotate(16.363636363636363 112.5 112.5)" />
  <polygon points="137.5,106.19318181818181 143.8068181818182,112.5 137.5,118.80681818181819 131.1931818181818,112.5" fill="#efa00b" fill-opacity="0.6454545454545455" stroke-opacity="0.6454545454545455" transform="rotate(18.409090909090907 137.5 112.5)" />
  <rect x="150" y="100" width="25.0" height="25.0" fill="#ff6b35" fill-opacity="0.15" stroke-opacity="0.15" />
  <polygon points="162.5,105.9090909090909 169.0909090909091,112.5 162.5,119.0909090909091 155.9090909090909,112.5" fill="#efa00b" fill-opacity="0.6727272727272727" stroke-opacity="0.6727272727272727" transform="rotate(20.454545454545453 162.5 112.5)" />
  <polygon points="187.5,105.625 194.375,112.5 187.5,119.375 180.625,112.5" fill="#efa00b" fill-opacity="0.7" stroke-opacity="0.7" transform="rotate(22.5 187.5 112.5)" />
  <rect x="200" y="100" width="25.0" height="25.0" fill="#ff6b35" fill-opacity="0.15" stroke-opacity="0.15" />
  <polygon points="212.5,105.3409090909091 219.6590909090909,112.5 212.5,119.6590909090909 205.3409090909091,112.5" fill="#efa00b" fill-opacity="0.7272727272727273" stroke-opacity="0.7272727272727273" transform="rotate(24.545454545454543 212.5 112.5)" />
  <polygon points="237.5,105.05681818181819 244.9431818181818,112.5 237.5,119.94318181818181 230.0568181818182,112.5" fill="#efa00b" fill-opacity="0.7545454545454546" stroke-opacity="0.7545454545454546" transform="rotate(26.590909090909093 237.5 112.5)" />
  <rect x="250" y="100" width="25.0" height="25.0" fill="#ff6b35" fill-opacity="0.15" stroke-opacity="0.15" />
  <polygon points="262.5,104.77272727272728 270.22727272727275,112.5 262.5,120.22727272727272 254.77272727272728,112.5" fill="#efa00b" fill-opacity="0.7818181818181817" stroke-opacity="0.7818181818181817" transform="rotate(28.636363636363637 262.5 112.5)" />
  <polygon points="287.5,104.48863636363636 295.5113636363636,112.5 287.5,120.51136363636364 279.4886363636364,112.5" fill="#efa00b" fill-opacity="0.8090909090909091" stroke-opacity="0.8090909090909091" transform="rotate(30.681818181818183 287.5 112.5)" />
  <polygon points="12.5,132.32954545454547 17.670454545454543,137.5 12.5,142.67045454545453 7.329545454545455,137.5" fill="#efa00b" fill-opacity="0.5363636363636364" stroke-opacity="0.5363636363636364" transform="rotate(10.227272727272727 12.5 137.5)" />
  <rect x="25" y="125" width="25.0" height="25.0" fill="#ff6b35" fill-opacity="0.15" stroke-opacity="0.15" />
  <polygon points="37.5,132.04545454545456 42.95454545454545,137.5 37.5,142.95454545454544 32.04545454545455,137.5" fill="#efa00b" fill-opacity="0.5636363636363636" stroke-opacity="0.5636363636363636" transform="rotate(12.272727272727272 37.5 137.5)" />
  <polygon points="62.5,131.76136363636363 68.23863636363636,137.5 62.5,143.23863636363637 56.76136363636363,137.5" fill="#efa00b" fill-opacity="0.5909090909090909" stroke-opacity="0.5909090909090909" transform="rotate(14.318181818181818 62.5 137.5)" />
  <rect x="75" y="125" width="25.0" height="25.0" fill="#ff6b35" fill-opacity="0.15" stroke-opacity="0.15" />
  <polygon points="87.5,131.47727272727272 93.52272727272728,137.5 87.5,143.52272727272728 81.47727272727273,137.5" fill="#efa00b" fill-opacity="0.6181818181818182" stroke-opacity="0.6181818181818182" transform="rotate(16.363636363636363 87.5 137.5)" />
  <polygon points="112.5,131.1931818181818 118.80681818181819,137.5 112.5,143.8068181818182 106.19318181818181,137.5" fill="#efa00b" fill-opacity="0.6454545454545455" stroke-opacity="0.6454545454545455" transform="rotate(18.409090909090907 112.5 137.5)" />
  <rect x="125" y="125" width="25.0" height="25.0" fill="#ff6b35" fill-opacity="0.15" stroke-opacity="0.15" />
  <polygon points="137.5,130.9090909090909 144.0909090909091,137.5 137.5,144.0909090909091 130.9090909090909,137.5" fill="#efa00b" fill-opacity="0.6727272727272727" stroke-opacity="0.6727272727272727" transform="rotate(20.454545454545453 137.5 137.5)" />
  <polygon points="162.5,130.625 169.375,137.5 162.5,144.375 155.625,137.5" fill="#efa00b" fill-opacity="0.7" stroke-opacity="0.7" transform="rotate(22.5 162.5 137.5)" />
  <rect x="175" y="125" width="25.0" height="25.0" fill="#ff6b35" fill-opacity="0.15" stroke-opacity="0.15" />
  <polygon points="187.5,130.3409090909091 194.6590909090909,137.5 187.5,144.6590909090909 180.3409090909091,137.5" fill="#efa00b" fill-opacity="0.7272727272727273" stroke-opacity="0.7272727272727273" transform="rotate(24.545454545454543 187.5 137.5)" />
  <polygon points="212.5,130.0568181818182 219.9431818181818,137.5 212.5,144.9431818181818 205.0568181818182,137.5" fill="#efa00b" fill-opacity="0.7545454545454546" stroke-opacity="0.7545454545454546" transform="rotate(26.590909090909093 212.5 137.5)" />
  <rect x="225" y="125" width="25.0" height="25.0" fill="#ff6b35" fill-opacity="0.15" stroke-opacity="0.15" />
  <polygon points="237.5,129.77272727272728 245.22727272727272,137.5 237.5,145.22727272727272 229.77272727272728,137.5" fill="#efa00b" fill-opacity="0.7818181818181817" stroke-opacity="0.7818181818181817" transform="rotate(28.636363636363637 237.5 137.5)" />
  <polygon points="262.5,129.48863636363637 270.5113636363636,137.5 262.5,145.51136363636363 254.48863636363637,137.5" fill="#efa00b" fill-opacity="0.8090909090909091" stroke-opacity="0.8090909090909091" transform="rotate(30.68181818181818 262.5 137.5)" />
  <rect x="275" y="125" width="25.0" height="25.0" fill="#ff6b35" fill-opacity="0.15" stroke-opacity="0.15" />
  <polygon points="287.5,129.20454545454547 295.79545454545456,137.5 287.5,145.79545454545453 279.20454545454544,137.5" fill="#efa00b" fill-opacity="0.8363636363636364" stroke-opacity="0.8363636363636364" transform="rotate(32.72727272727273 287.5 137.5)" />
  <rect x="0" y="150" width="25.0" height="25.0" fill="#ff6b35" fill-opacity="0.15" stroke-opacity="0.15" />
  <polygon points="12.5,157.04545454545456 17.954545454545453,162.5 12.5,167.95454545454544 7.045454545454547,162.5" fill="#efa00b" fill-opacity="0.5636363636363636" stroke-opacity="0.5636363636363636" transform="rotate(12.272727272727272 12.5 162.5)" />
  <polygon points="37.5,156.76136363636363 43.23863636363636,162.5 37.5,168.23863636363637 31.761363636363637,162.5" fill="#efa00b" fill-opacity="0.5909090909090909" stroke-opacity="0.5909090909090909" transform="rotate(14.318181818181818 37.5 162.5)" />
  <rect x="50" y="150" width="25.0" height="25.0" fill="#ff6b35" fill-opacity="0.15" stroke-opacity="0.15" />
  <polygon points="62.5,156.47727272727272 68.52272727272728,162.5 62.5,168.52272727272728 56.47727272727273,162.5" fill="#efa00b" fill-opacity="0.6181818181818182" stroke-opacity="0.6181818181818182" transform="rotate(16.363636363636363 62.5 162.5)" />
  <polygon points="87.5,156.1931818181818 93.80681818181819,162.5 87.5,168.8068181818182 81.19318181818181,162.5" fill="#efa00b" fill-opacity="0.6454545454545455" stroke-opacity="0.6454545454545455" transform="rotate(18.409090909090907 87.5 162.5)" />
  <rect x="100" y="150" width="25.0" height="25.0" fill="#ff6b35" fill-opacity="0.15" stroke-opacity="0.15" />
  <polygon points="112.5,155.9090909090909 119.0909090909091,162.5 112.5,169.0909090909091 105.9090909090909,162.5" fill="#efa00b" fill-opacity="0.6727272727272727" stroke-opacity="0.6727272727272727" transform="rotate(20.454545454545453 112.5 162.5)" />
  <polygon points="137.5,155.625 144.375,162.5 137.5,169.375 130.625,162.5" fill="#efa00b" fill-opacity="0.7" stroke-opacity="0.7" transform="rotate(22.5 137.5 162.5)" />
  <rect x="150" y="150" width="25.0" height="25.0" fill="#ff6b35" fill-opacity="0.15" stroke-opacity="0.15" />
  <polygon points="162.5,155.3409090909091 169.6590909090909,162.5 162.5,169.6590909090909 155.3409090909091,162.5" fill="#efa00b" fill-opacity="0.7272727272727273" stroke-opacity="0.7272727272727273" transform="rotate(24.545454545454543 162.5 162.5)" />
  <polygon points="187.5,155.0568181818182 194.9431818181818,162.5 187.5,169.9431818181818 180.0568181818182,162.5" fill="#efa00b" fill-opacity="0.7545454545454545" stroke-opacity="0.7545454545454545" transform="rotate(26.590909090909086 187.5 162.5)" />
  <rect x="200" y="150" width="25.0" height="25.0" fill="#ff6b35" fill-opacity="0.15" stroke-opacity="0.15" />
  <polygon points="212.5,154.77272727272728 220.22727272727272,162.5 212.5,170.22727272727272 204.77272727272728,162.5" fill="#efa00b" fill-opacity="0.7818181818181817" stroke-opacity="0.7818181818181817" transform="rotate(28.636363636363637 212.5 162.5)" />
  <polygon points="237.5,154.48863636363637 245.51136363636363,162.5 237.5,170.51136363636363 229.48863636363637,162.5" fill="#efa00b" fill-opacity="0.8090909090909091" stroke-opacity="0.8090909090909091" transform="rotate(30.681818181818183 237.5 162.5)" />
  <rect x="250" y="150" width="25.0" height="25.0" fill="#ff6b35" fill-opacity="0.15" stroke-opacity="0.15" />
  <polygon points="262.5,154.20454545454547 270.79545454545456,162.5 262.5,170.79545454545453 254.20454545454547,162.5" fill="#efa00b" fill-opacity="0.8363636363636364" stroke-opacity="0.8363636363636364" transform="rotate(32.72727272727273 262.5 162.5)" />
  <polygon points="287.5,153.92045454545453 296.07954545454544,162.5 287.5,171.07954545454544 278.92045454545456,162.5" fill="#efa00b" fill-opacity="0.8636363636363636" stroke-opacity="0.8636363636363636" transform="rotate(34.77272727272727 287.5 162.5)" />
  <polygon points="12.5,181.76136363636363 18.238636363636363,187.5 12.5,193.23863636363637 6.761363636363636,187.5" fill="#efa00b" fill-opacity="0.5909090909090909" stroke-opacity="0.5909090909090909" transform="rotate(14.318181818181818 12.5 187.5)" />
  <rect x="25" y="175" width="25.0" height="25.0" fill="#ff6b35" fill-opacity="0.15" stroke-opacity="0.15" />
  <polygon points="37.5,181.47727272727272 43.52272727272727,187.5 37.5,193.52272727272728 31.477272727272727,187.5" fill="#efa00b" fill-opacity="0.6181818181818182" stroke-opacity="0.6181818181818182" transform="rotate(16.363636363636363 37.5 187.5)" />
  <polygon points="62.5,181.1931818181818 68.80681818181819,187.5 62.5,193.8068181818182 56.19318181818182,187.5" fill="#efa00b" fill-opacity="0.6454545454545455" stroke-opacity="0.6454545454545455" transform="rotate(18.409090909090907 62.5 187.5)" />
  <rect x="75" y="175" width="25.0" height="25.0" fill="#ff6b35" fill-opacity="0.15" stroke-opacity="0.15" />
  <polygon points="87.5,180.9090909090909 94.0909090909091,187.5 87.5,194.0909090909091 80.9090909090909,187.5" fill="#efa00b" fill-opacity="0.6727272727272727" stroke-opacity="0.6727272727272727" transform="rotate(20.454545454545453 87.5 187.5)" />
  <polygon points="112.5,180.625 119.375,187.5 112.5,194.375 105.625,187.5" fill="#efa00b" fill-opacity="0.7" stroke-opacity="0.7" transform="rotate(22.5 112.5 187.5)" />
  <rect x="125" y="175" width="25.0" height="25.0" fill="#ff6b35" fill-opacity="0.15" stroke-opacity="0.15" />
  <polygon points="137.5,180.3409090909091 144.6590909090909,187.5 137.5,194.6590909090909 130.3409090909091,187.5" fill="#efa00b" fill-opacity="0.7272727272727273" stroke-opacity="0.7272727272727273" transform="rotate(24.545454545454543 137.5 187.5)" />
  <polygon points="162.5,180.0568181818182 169.9431818181818,187.5 162.5,194.9431818181818 155.0568181818182,187.5" fill="#efa00b" fill-opacity="0.7545454545454545" stroke-opacity="0.7545454545454545" transform="rotate(26.590909090909086 162.5 187.5)" />
  <rect x="175" y="175" width="25.0" height="25.0" fill="#ff6b35" fill-opacity="0.15" stroke-opacity="0.15" />
  <polygon points="187.5,179.77272727272728 195.22727272727272,187.5 187.5,195.22727272727272 179.77272727272728,187.5" fill="#efa00b" fill-opacity="0.7818181818181817" stroke-opacity="0.7818181818181817" transform="rotate(28.636363636363637 187.5 187.5)" />
  <polygon points="212.5,179.48863636363637 220.51136363636363,187.5 212.5,195.51136363636363 204.48863636363637,187.5" fill="#efa00b" fill-opacity="0.8090909090909091" stroke-opacity="0.8090909090909091" transform="rotate(30.681818181818183 212.5 187.5)" />
  <rect x="225" y="175" width="25.0" height="25.0" fill="#ff6b35" fill-opacity="0.15" stroke-opacity="0.15" />
  <polygon points="237.5,179.20454545454547 245.79545454545453,187.5 237.5,195.79545454545453 229.20454545454547,187.5" fill="#efa00b" fill-opacity="0.8363636363636364" stroke-opacity="0.8363636363636364" transform="rotate(32.72727272727273 237.5 187.5)" />
  <polygon points="262.5,178.92045454545453 271.07954545454544,187.5 262.5,196.07954545454544 253.92045454545453,187.5" fill="#efa00b" fill-opacity="0.8636363636363636" stroke-opacity="0.8636363636363636" transform="rotate(34.77272727272727 262.5 187.5)" />
  <rect x="275" y="175" width="25.0" height="25.0" fill="#ff6b35" fill-opacity="0.15" stroke-opacity="0.15" />
  <polygon points="287.5,178.63636363636363 296.3636363636364,187.5 287.5,196.36363636363637 278.6363636363636,187.5" fill="#efa00b" fill-opacity="0.8909090909090909" stroke-opacity="0.8909090909090909" transform="rotate(36.81818181818181 287.5 187.5)" />
  <rect x="0" y="200" width="25.0" height="25.0" fill="#ff6b35" fill-opacity="0.15" stroke-opacity="0.15" />
  <polygon points="12.5,206.47727272727272 18.522727272727273,212.5 12.5,218.52272727272728 6.4772727272727275,212.5" fill="#efa00b" fill-opacity="0.6181818181818182" stroke-opacity="0.6181818181818182" transform="rotate(16.363636363636363 12.5 212.5)" />
  <polygon points="37.5,206.1931818181818 43.80681818181818,212.5 37.5,218.8068181818182 31.19318181818182,212.5" fill="#efa00b" fill-opacity="0.6454545454545455" stroke-opacity="0.6454545454545455" transform="rotate(18.40909090909091 37.5 212.5)" />
  <rect x="50" y="200" width="25.0" height="25.0" fill="#ff6b35" fill-opacity="0.15" stroke-opacity="0.15" />
  <polygon points="62.5,205.9090909090909 69.0909090909091,212.5 62.5,219.0909090909091 55.90909090909091,212.5" fill="#efa00b" fill-opacity="0.6727272727272728" stroke-opacity="0.6727272727272728" transform="rotate(20.454545454545457 62.5 212.5)" />
  <polygon points="87.5,205.625 94.375,212.5 87.5,219.375 80.625,212.5" fill="#efa00b" fill-opacity="0.7" stroke-opacity="0.7" transform="rotate(22.5 87.5 212.5)" />
  <rect x="100" y="200" width="25.0" height="25.0" fill="#ff6b35" fill-opacity="0.15" stroke-opacity="0.15" />
  <polygon points="112.5,205.3409090909091 119.6590909090909,212.5 112.5,219.6590909090909 105.3409090909091,212.5" fill="#efa00b" fill-opacity="0.7272727272727273" stroke-opacity="0.7272727272727273" transform="rotate(24.545454545454543 112.5 212.5)" />
  <polygon points="137.5,205.0568181818182 144.9431818181818,212.5 137.5,219.9431818181818 130.0568181818182,212.5" fill="#efa00b" fill-opacity="0.7545454545454546" stroke-opacity="0.7545454545454546" transform="rotate(26.590909090909093 137.5 212.5)" />
  <rect x="150" y="200" width="25.0" height="25.0" fill="#ff6b35" fill-opacity="0.15" stroke-opacity="0.15" />
  <polygon points="162.5,204.77272727272728 170.22727272727272,212.5 162.5,220.22727272727272 154.77272727272728,212.5" fill="#efa00b" fill-opacity="0.7818181818181817" stroke-opacity="0.7818181818181817" transform="rotate(28.636363636363637 162.5 212.5)" />
  <polygon points="187.5,204.48863636363637 195.51136363636363,212.5 187.5,220.51136363636363 179.48863636363637,212.5" fill="#efa00b" fill-opacity="0.8090909090909091" stroke-opacity="0.8090909090909091" transform="rotate(30.681818181818183 187.5 212.5)" />
  <rect x="200" y="200" width="25.0" height="25.0" fill="#ff6b35" fill-opacity="0.15" stroke-opacity="0.15" />
  <polygon points="212.5,204.20454545454547 220.79545454545453,212.5 212.5,220.79545454545453 204.20454545454547,212.5" fill="#efa00b" fill-opacity="0.8363636363636364" stroke-opacity="0.8363636363636364" transform="rotate(32.72727272727273 212.5 212.5)" />
  <polygon points="237.5,203.92045454545453 246.07954545454544,212.5 237.5,221.07954545454544 228.92045454545453,212.5" fill="#efa00b" fill-opacity="0.8636363636363636" stroke-opacity="0.8636363636363636" transform="rotate(34.77272727272727 237.5 212.5)" />
  <rect x="250" y="200" width="25.0" height="25.0" fill="#ff6b35" fill-opacity="0.15" stroke-opacity="0.15" />
  <polygon points="262.5,203.63636363636363 271.3636363636364,212.5 262.5,221.36363636363637 253.63636363636363,212.5" fill="#efa00b" fill-opacity="0.8909090909090909" stroke-opacity="0.8909090909090909" transform="rotate(36.81818181818181 262.5 212.5)" />
  <polygon points="287.5,203.35227272727272 296.64772727272725,212.5 287.5,221.64772727272728 278.35227272727275,212.5" fill="#efa00b" fill-opacity="0.9181818181818182" stroke-opacity="0.9181818181818182" transform="rotate(38.86363636363637 287.5 212.5)" />
  <polygon points="12.5,231.1931818181818 18.80681818181818,237.5 12.5,243.8068181818182 6.193181818181818,237.5" fill="#efa00b" fill-opacity="0.6454545454545455" stroke-opacity="0.6454545454545455" transform="rotate(18.40909090909091 12.5 237.5)" />
  <rect x="25" y="225" width="25.0" height="25.0" fill="#ff6b35" fill-opacity="0.15" stroke-opacity="0.15" />
  <polygon points="37.5,230.9090909090909 44.09090909090909,237.5 37.5,244.0909090909091 30.909090909090907,237.5" fill="#efa00b" fill-opacity="0.6727272727272728" stroke-opacity="0.6727272727272728" transform="rotate(20.454545454545457 37.5 237.5)" />
  <polygon points="62.5,230.625 69.375,237.5 62.5,244.375 55.625,237.5" fill="#efa00b" fill-opacity="0.7" stroke-opacity="0.7" transform="rotate(22.5 62.5 237.5)" />
  <rect x="75" y="225" width="25.0" height="25.0" fill="#ff6b35" fill-opacity="0.15" stroke-opacity="0.15" />
  <polygon points="87.5,230.3409090909091 94.6590909090909,237.5 87.5,244.6590909090909 80.3409090909091,237.5" fill="#efa00b" fill-opacity="0.7272727272727273" stroke-opacity="0.7272727272727273" transform="rotate(24.545454545454543 87.5 237.5)" />
  <polygon points="112.5,230.0568181818182 119.94318181818181,237.5 112.5,244.9431818181818 105.05681818181819,237.5" fill="#efa00b" fill-opacity="0.7545454545454546" stroke-opacity="0.7545454545454546" transform="rotate(26.590909090909093 112.5 237.5)" />
  <rect x="125" y="225" width="25.0" height="25.0" fill="#ff6b35" fill-opacity="0.15" stroke-opacity="0.15" />
  <polygon points="137.5,229.77272727272728 145.22727272727272,237.5 137.5,245.22727272727272 129.77272727272728,237.5" fill="#efa00b" fill-opacity="0.7818181818181817" stroke-opacity="0.7818181818181817" transform="rotate(28.636363636363637 137.5 237.5)" />
  <polygon points="162.5,229.48863636363637 170.51136363636363,237.5 162.5,245.51136363636363 154.48863636363637,237.5" fill="#efa00b" fill-opacity="0.8090909090909091" stroke-opacity="0.8090909090909091" transform="rotate(30.681818181818183 162.5 237.5)" />
  <rect x="175" y="225" width="25.0" height="25.0" fill="#ff6b35" fill-opacity="0.15" stroke-opacity="0.15" />
  <polygon points="187.5,229.20454545454547 195.79545454545453,237.5 187.5,245.79545454545453 179.20454545454547,237.5" fill="#efa00b" fill-opacity="0.8363636363636364" stroke-opacity="0.8363636363636364" transform="rotate(32.72727272727273 187.5 237.5)" />
  <polygon points="212.5,228.92045454545453 221.07954545454544,237.5 212.5,246.07954545454544 203.92045454545453,237.5" fill="#efa00b" fill-opacity="0.8636363636363636" stroke-opacity="0.8636363636363636" transform="rotate(34.77272727272727 212.5 237.5)" />
  <rect x="225" y="225" width="25.0" height="25.0" fill="#ff6b35" fill-opacity="0.15" stroke-opacity="0.15" />
  <polygon points="237.5,228.63636363636363 246.36363636363637,237.5 237.5,246.36363636363637 228.63636363636363,237.5" fill="#efa00b" fill-opacity="0.8909090909090909" stroke-opacity="0.8909090909090909" transform="rotate(36.81818181818182 237.5 237.5)" />
  <polygon points="262.5,228.35227272727272 271.64772727272725,237.5 262.5,246.64772727272728 253.35227272727272,237.5" fill="#efa00b" fill-opacity="0.9181818181818182" stroke-opacity="0.9181818181818182" transform="rotate(38.86363636363637 262.5 237.5)" />
  <rect x="275" y="225" width="25.0" height="25.0" fill="#ff6b35" fill-opacity="0.15" stroke-opacity="0.15" />
  <polygon points="287.5,228.0681818181818 296.9318181818182,237.5 287.5,246.9318181818182 278.0681818181818,237.5" fill="#efa00b" fill-opacity="0.9454545454545455" stroke-opacity="0.9454545454545455" transform="rotate(40.909090909090914 287.5 237.5)" />
  <rect x="0" y="250" width="25.0" height="25.0" fill="#ff6b35" fill-opacity="0.15" stroke-opacity="0.15" />
  <polygon points="12.5,255.9090909090909 19.090909090909093,262.5 12.5,269.0909090909091 5.90909090909091,262.5" fill="#efa00b" fill-opacity="0.6727272727272727" stroke-opacity="0.6727272727272727" transform="rotate(20.454545454545453 12.5 262.5)" />
  <polygon points="37.5,255.625 44.375,262.5 37.5,269.375 30.625,262.5" fill="#efa00b" fill-opacity="0.7" stroke-opacity="0.7" transform="rotate(22.5 37.5 262.5)" />
  <rect x="50" y="250" width="25.0" height="25.0" fill="#ff6b35" fill-opacity="0.15" stroke-opacity="0.15" />
  <polygon points="62.5,255.3409090909091 69.6590909090909,262.5 62.5,269.65909090909093 55.34090909090909,262.5" fill="#efa00b" fill-opacity="0.7272727272727273" stroke-opacity="0.7272727272727273" transform="rotate(24.545454545454543 62.5 262.5)" />
  <polygon points="87.5,255.0568181818182 94.94318181818181,262.5 87.5,269.9431818181818 80.05681818181819,262.5" fill="#efa00b" fill-opacity="0.7545454545454545" stroke-opacity="0.7545454545454545" transform="rotate(26.590909090909086 87.5 262.5)" />
  <rect x="100" y="250" width="25.0" height="25.0" fill="#ff6b35" fill-opacity="0.15" stroke-opacity="0.15" />
  <polygon points="112.5,254.77272727272728 120.22727272727272,262.5 112.5,270.22727272727275 104.77272727272728,262.5" fill="#efa00b" fill-opacity="0.7818181818181817" stroke-opacity="0.7818181818181817" transform="rotate(28.636363636363637 112.5 262.5)" />
  <polygon points="137.5,254.48863636363637 145.51136363636363,262.5 137.5,270.5113636363636 129.48863636363637,262.5" fill="#efa00b" fill-opacity="0.8090909090909091" stroke-opacity="0.8090909090909091" transform="rotate(30.68181818181818 137.5 262.5)" />
  <rect x="150" y="250" width="25.0" height="25.0" fill="#ff6b35" fill-opacity="0.15" stroke-opacity="0.15" />
  <polygon points="162.5,254.20454545454547 170.79545454545453,262.5 162.5,270.79545454545456 154.20454545454547,262.5" fill="#efa00b" fill-opacity="0.8363636363636364" stroke-opacity="0.8363636363636364" transform="rotate(32.72727272727273 162.5 262.5)" />
  <polygon points="187.5,253.92045454545453 196.07954545454544,262.5 187.5,271.07954545454544 178.92045454545453,262.5" fill="#efa00b" fill-opacity="0.8636363636363636" stroke-opacity="0.8636363636363636" transform="rotate(34.77272727272727 187.5 262.5)" />
  <rect x="200" y="250" width="25.0" height="25.0" fill="#ff6b35" fill-opacity="0.15" stroke-opacity="0.15" />
  <polygon points="212.5,253.63636363636363 221.36363636363637,262.5 212.5,271.3636363636364 203.63636363636363,262.5" fill="#efa00b" fill-opacity="0.8909090909090909" stroke-opacity="0.8909090909090909" transform="rotate(36.81818181818181 212.5 262.5)" />
  <polygon points="237.5,253.35227272727272 246.64772727272728,262.5 237.5,271.64772727272725 228.35227272727272,262.5" fill="#efa00b" fill-opacity="0.9181818181818182" stroke-opacity="0.9181818181818182" transform="rotate(38.86363636363637 237.5 262.5)" />
  <rect x="250" y="250" width="25.0" height="25.0" fill="#ff6b35" fill-opacity="0.15" stroke-opacity="0.15" />
  <polygon points="262.5,253.0681818181818 271.9318181818182,262.5 262.5,271.9318181818182 253.0681818181818,262.5" fill="#efa00b" fill-opacity="0.9454545454545454" stroke-opacity="0.9454545454545454" transform="rotate(40.90909090909091 262.5 262.5)" />
  <polygon points="287.5,252.7840909090909 297.2159090909091,262.5 287.5,272.2159090909091 277.78409090909093,262.5" fill="#efa00b" fill-opacity="0.9727272727272728" stroke-opacity="0.9727272727272728" transform="rotate(42.95454545454545 287.5 262.5)" />
  <polygon points="12.5,280.625 19.375,287.5 12.5,294.375 5.624999999999999,287.5" fill="#efa00b" fill-opacity="0.7" stroke-opacity="0.7" transform="rotate(22.5 12.5 287.5)" />
  <rect x="25" y="275" width="25.0" height="25.0" fill="#ff6b35" fill-opacity="0.15" stroke-opacity="0.15" />
  <polygon points="37.5,280.34090909090907 44.65909090909091,287.5 37.5,294.65909090909093 30.34090909090909,287.5" fill="#efa00b" fill-opacity="0.7272727272727273" stroke-opacity="0.7272727272727273" transform="rotate(24.545454545454543 37.5 287.5)" />
  <polygon points="62.5,280.0568181818182 69.94318181818181,287.5 62.5,294.9431818181818 55.05681818181818,287.5" fill="#efa00b" fill-opacity="0.7545454545454546" stroke-opacity="0.7545454545454546" transform="rotate(26.590909090909093 62.5 287.5)" />
  <rect x="75" y="275" width="25.0" height="25.0" fill="#ff6b35" fill-opacity="0.15" stroke-opacity="0.15" />
  <polygon points="87.5,279.77272727272725 95.22727272727272,287.5 87.5,295.22727272727275 79.77272727272728,287.5" fill="#efa00b" fill-opacity="0.7818181818181817" stroke-opacity="0.7818181818181817" transform="rotate(28.636363636363637 87.5 287.5)" />
  <polygon points="112.5,279.4886363636364 120.51136363636364,287.5 112.5,295.5113636363636 104.48863636363636,287.5" fill="#efa00b" fill-opacity="0.8090909090909091" stroke-opacity="0.8090909090909091" transform="rotate(30.681818181818183 112.5 287.5)" />
  <rect x="125" y="275" width="25.0" height="25.0" fill="#ff6b35" fill-opacity="0.15" stroke-opacity="0.15" />
  <polygon points="137.5,279.20454545454544 145.79545454545453,287.5 137.5,295.79545454545456 129.20454545454547,287.5" fill="#efa00b" fill-opacity="0.8363636363636364" stroke-opacity="0.8363636363636364" transform="rotate(32.72727272727273 137.5 287.5)" />
  <polygon points="162.5,278.92045454545456 171.07954545454544,287.5 162.5,296.07954545454544 153.92045454545453,287.5" fill="#efa00b" fill-opacity="0.8636363636363636" stroke-opacity="0.8636363636363636" transform="rotate(34.77272727272727 162.5 287.5)" />
  <rect x="175" y="275" width="25.0" height="25.0" fill="#ff6b35" fill-opacity="0.15" stroke-opacity="0.15" />
  <polygon points="187.5,278.6363636363636 196.36363636363637,287.5 187.5,296.3636363636364 178.63636363636363,287.5" fill="#efa00b" fill-opacity="0.8909090909090909" stroke-opacity="0.8909090909090909" transform="rotate(36.81818181818181 187.5 287.5)" />
  <polygon points="212.5,278.35227272727275 221.64772727272728,287.5 212.5,296.64772727272725 203.35227272727272,287.5" fill="#efa00b" fill-opacity="0.9181818181818182" stroke-opacity="0.9181818181818182" transform="rotate(38.86363636363637 212.5 287.5)" />
  <rect x="225" y="275" width="25.0" height="25.0" fill="#ff6b35" fill-opacity="0.15" stroke-opacity="0.15" />
  <polygon points="237.5,278.0681818181818 246.9318181818182,287.5 237.5,296.9318181818182 228.0681818181818,287.5" fill="#efa00b" fill-opacity="0.9454545454545455" stroke-opacity="0.9454545454545455" transform="rotate(40.909090909090914 237.5 287.5)" />
  <polygon points="262.5,277.78409090909093 272.2159090909091,287.5 262.5,297.2159090909091 252.7840909090909,287.5" fill="#efa00b" fill-opacity="0.9727272727272728" stroke-opacity="0.9727272727272728" transform="rotate(42.95454545454545 262.5 287.5)" />
  <rect x="275" y="275" width="25.0" height="25.0" fill="#ff6b35" fill-opacity="0.15" stroke-opacity="0.15" />
  <polygon points="287.5,277.5 297.5,287.5 287.5,297.5 277.5,287.5" fill="#efa00b" transform="rotate(45.0 287.5 287.5)" />
</svg>