<?xml version="1.0" encoding="UTF-8"?>
<svg xmlns="http://www.w3.org/2000/svg" width="300" height="300" viewBox="0 0 300 300">
  <rect width="100%" height="100%" fill="#2d1b4e" />
  <rect x="0" y="0" width="25.0" height="25.0" fill="#ff6b35" fill-opacity="0.7" stroke-opacity="0.7" />
  <rect x="25" y="0" width="25.0" height="25.0" fill="#f7c59f" fill-opacity="0.3" stroke-opacity="0.3" />
  <rect x="50" y="0" width="25.0" height="25.0" fill="#ff6b35" fill-opacity="0.7" stroke-opacity="0.7" />
  <rect x="75" y="0" width="25.0" height="25.0" fill="#f7c59f" fill-opacity="0.3" stroke-opacity="0.3" />
  <rect x="100" y="0" width="25.0" height="25.0" fill="#ff6b35" fill-opacity="0.7" stroke-opacity="0.7" />
  <rect x="125" y="0" width="25.0" height="25.0" fill="#f7c59f" fill-opacity="0.3" stroke-opacity="0.3" />
  <rect x="150" y="0" width="25.0" height="25.0" fill="#ff6b35" fill-opacity="0.7" stroke-opacity="0.7" />
  <rect x="175" y="0" width="25.0" height="25.0" fill="#f7c59f" fill-opacity="0.3" stroke-opacity="0.3" />
  <rect x="200" y="0" width="25.0" height="25.0" fill="#ff6b35" fill-opacity="0.7" stroke-opacity="0.7" />
  <rect x="225" y="0" width="25.0" height="25.0" fill="#f7c59f" fill-opacity="0.3" stroke-opacity="0.3" />
  <rect x="250" y="0" width="25.0" height="25.0" fill="#ff6b35" fill-opacity="0.7" stroke-opacity="0.7" />
  <rect x="275" y="0" width="25.0" height="25.0" fill="#f7c59f" fill-opacity="0.3" stroke-opacity="0.3" />
  <rect x="0" y="25" width="25.0" height="25.0" fill="#f7c59f" fill-opacity="0.3" stroke-opacity="0.3" />
  <rect x="25" y="25" width="25.0" height="25.0" fill="#ff6b35" fill-opacity="0.7" stroke-opacity="0.7" />
  <rect x="50" y="25" width="25.0" height="25.0" fill="#f7c59f" fill-opacity="0.3" stroke-opacity="0.3" />
  <rect x="75" y="25" width="25.0" height="25.0" fill="#ff6b35" fill-opacity="0.7" stroke-opacity="0.7" />
  <rect x="100" y="25" width="25.0" height="25.0" fill="#f7c59f" fill-opacity="0.3" stroke-opacity="0.3" />
  <rect x="125" y="25" width="25.0" height="25.0" fill="#ff6b35" fill-opacity="0.7" stroke-opacity="0.7" />
  <rect x="150" y="25" width="25.0" height="25.0" fill="#f7c59f" fill-opacity="0.3" stroke-opacity="0.3" />
  <rect x="175" y="25" width="25.0" height="25.0" fill="#ff6b35" fill-opacity="0.7" stroke-opacity="0.7" />
  <rect x="200" y="25" width="25.0" height="25.0" fill="#f7c59f" fill-opacity="0.3" stroke-opacity="0.3" />
  <rect x="225" y="25" width="25.0" height="25.0" fill="#ff6b35" fill-opacity="0.7" stroke-opacity="0.7" />
  <rect x="250" y="25" width="25.0" height="25.0" fill="#f7c59f" fill-opacity="0.3" stroke-opacity="0.3" />
  <rect x="275" y="25" width="25.0" height="25.0" fill="#ff6b35" fill-opacity="0.7" stroke-opacity="0.7" />
  <rect x="0" y="50" width="25.0" height="25.0" fill="#ff6b35" fill-opacity="0.7" stroke-opacity="0.7" />
  <rect x="25" y="50" width="25.0" height="25.0" fill="#f7c59f" fill-opacity="0.3" stroke-opacity="0.3" />
  <rect x="50" y="50" width="25.0" height="25.0" fill="#ff6b35" fill-opacity="0.7" stroke-opacity="0.7" />
  <rect x="75" y="50" width="25.0" height="25.0" fill="#f7c59f" fill-opacity="0.3" stroke-opacity="0.3" />
  <rect x="100" y="50" width="25.0" height="25.0" fill="#ff6b35" fill-opacity="0.7" stroke-opacity="0.7" />
  <rect x="125" y="50" width="25.0" height="25.0" fill="#f7c59f" fill-opacity="0.3" stroke-opacity="0.3" />
  <rect x="150" y="50" width="25.0" height="25.0" fill="#ff6b35" fill-opacity="0.7" stroke-opacity="0.7" />
  <rect x="175" y="50" width="25.0" height="25.0" fill="#f7c59f" fill-opacity="0.3" stroke-opacity="0.3" />
  <rect x="200" y="50" width="25.0" height="25.0" fill="#ff6b35" fill-opacity="0.7" stroke-opacity="0.7" />
  <rect x="225" y="50" width="25.0" height="25.0" fill="#f7c59f" fill-opacity="0.3" stroke-opacity="0.3" />
  <rect x="250" y="50" width="25.0" height="25.0" fill="#ff6b35" fill-opacity="0.7" stroke-opacity="0.7" />
  <rect x="275" y="50" width="25.0" height="25.0" fill="#f7c59f" fill-opacity="0.3" stroke-opacity="0.3" />
  <rect x="0" y="75" width="25.0" height="25.0" fill="#f7c59f" fill-opacity="0.3" stroke-opacity="0.3" />
  <rect x="25" y="75" width="25.0" height="25.0" fill="#ff6b35" fill-opacity="0.7" stroke-opacity="0.7" />
  <rect x="50" y="75" width="25.0" height="25.0" fill="#f7c59f" fill-opacity="0.3" stroke-opacity="0.3" />
  <rect x="75" y="75" width="25.0" height="25.0" fill="#ff6b35" fill-opacity="0.7" stroke-opacity="0.7" />
  <rect x="100" y="75" width="25.0" height="25.0" fill="#f7c59f" fill-opacity="0.3" stroke-opacity="0.3" />
  <rect x="125" y="75" width="25.0" height="25.0" fill="#ff6b35" fill-opacity="0.7" stroke-opacity="0.7" />
  <rect x="150" y="75" width="25.0" height="25.0" fill="#f7c59f" fill-opacity="0.3" stroke-opacity="0.3" />
  <rect x="175" y="75" width="25.0" height="25.0" fill="#ff6b35" fill-opacity="0.7" stroke-opacity="0.7" />
  <rect x="200" y="75" width="25.0" height="25.0" fill="#f7c59f" fill-opacity="0.3" stroke-opacity="0.3" />
  <rect x="225" y="75" width="25.0" height="25.0" fill="#ff6b35" fill-opacity="0.7" stroke-opacity="0.7" />
  <rect x="250" y="75" width="25.0" height="25.0" fill="#f7c59f" fill-opacity="0.3" stroke-opacity="0.3" />
  <rect x="275" y="75" width="25.0" height="25.0" fill="#ff6b35" fill-opacity="0.7" stroke-opacity="0.7" />
  <rect x="0" y="100" width="25.0" height="25.0" fill="#ff6b35" fill-opacity="0.7" stroke-opacity="0.7" />
  <rect x="25" y="100" width="25.0" height="25.0" fill="#f7c59f" fill-opacity="0.3" stroke-opacity="0.3" />
  <rect x="50" y="100" width="25.0" height="25.0" fill="#ff6b35" fill-opacity="0.7" stroke-opacity="0.7" />
  <rect x="75" y="100" width="25.0" height="25.0" fill="#f7c59f" fill-opacity="0.3" stroke-opacity="0.3" />
  <rect x="100" y="100" width="25.0" height="25.0" fill="#ff6b35" fill-opacity="0.7" stroke-opacity="0.7" />
  <rect x="125" y="100" width="25.0" height="25.0" fill="#f7c59f" fill-opacity="0.3" stroke-opacity="0.3" />
  <rect x="150" y="100" width="25.0" height="25.0" fill="#ff6b35" fill-opacity="0.7" stroke-opacity="0.7" />
  <rect x="175" y="100" width="25.0" height="25.0" fill="#f7c59f" fill-opacity="0.3" stroke-opacity="0.3" />
  <rect x="200" y="100" width="25.0" height="25.0" fill="#ff6b35" fill-opacity="0.7" stroke-opacity="0.7" />
  <rect x="225" y="100" width="25.0" height="25.0" fill="#f7c59f" fill-opacity="0.3" stroke-opacity="0.3" />
  <rect x="250" y="100" width="25.0" height="25.0" fill="#ff6b35" fill-opacity="0.7" stroke-opacity="0.7" />
  <rect x="275" y="100" width="25.0" height="25.0" fill="#f7c59f" fill-opacity="0.3" stroke-opacity="0.3" />
  <rect x="0" y="125" width="25.0" height="25.0" fill="#f7c59f" fill-opacity="0.3" stroke-opacity="0.3" />
  <rect x="25" y="125" width="25.0" height="25.0" fill="#ff6b35" fill-opacity="0.7" stroke-opacity="0.7" />
  <rect x="50" y="125" width="25.0" height="25.0" fill="#f7c59f" fill-opacity="0.3" stroke-opacity="0.3" />
  <rect x="75" y="125" width="25.0" height="25.0" fill="#ff6b35" fill-opacity="0.7" stroke-opacity="0.7" />
  <rect x="100" y="125" width="25.0" height="25.0" fill="#f7c59f" fill-opacity="0.3" stroke-opacity="0.3" />
  <rect x="125" y="125" width="25.0" height="25.0" fill="#ff6b35" fill-opacity="0.7" stroke-opacity="0.7" />
  <rect x="150" y="125" width="25.0" height="25.0" fill="#f7c59f" fill-opacity="0.3" stroke-opacity="0.3" />
  <rect x="175" y="125" width="25.0" height="25.0" fill="#ff6b35" fill-opacity="0.7" stroke-opacity="0.7" />
  <rect x="200" y="125" width="25.0" height="25.0" fill="#f7c59f" fill-opacity="0.3" stroke-opacity="0.3" />
  <rect x="225" y="125" width="25.0" height="25.0" fill="#ff6b35" fill-opacity="0.7" stroke-opacity="0.7" />
  <rect x="250" y="125" width="25.0" height="25.0" fill="#f7c59f" fill-opacity="0.3" stroke-opacity="0.3" />
  <rect x="275" y="125" width="25.0" height="25.0" fill="#ff6b35" fill-opacity="0.7" stroke-opacity="0.7" />
  <rect x="0" y="150" width="25.0" height="25.0" fill="#ff6b35" fill-opacity="0.7" stroke-opacity="0.7" />
  <rect x="25" y="150" width="25.0" height="25.0" fill="#f7c59f" fill-opacity="0.3" stroke-opacity="0.3" />
  <rect x="50" y="150" width="25.0" height="25.0" fill="#ff6b35" fill-opacity="0.7" stroke-opacity="0.7" />
  <rect x="75" y="150" width="25.0" height="25.0" fill="#f7c59f" fill-opacity="0.3" stroke-opacity="0.3" />
  <rect x="100" y="150" width="25.0" height="25.0" fill="#ff6b35" fill-opacity="0.7" stroke-opacity="0.7" />
  <rect x="125" y="150" width="25.0" height="25.0" fill="#f7c59f" fill-opacity="0.3" stroke-opacity="0.3" />
  <rect x="150" y="150" width="25.0" height="25.0" fill="#ff6b35" fill-opacity="0.7" stroke-opacity="0.7" />
  <rect x="175" y="150" width="25.0" height="25.0" fill="#f7c59f" fill-opacity="0.3" stroke-opacity="0.3" />
  <rect x="200" y="150" width="25.0" height="25.0" fill="#ff6b35" fill-opacity="0.7" stroke-opacity="0.7" />
  <rect x="225" y="150" width="25.0" height="25.0" fill="#f7c59f" fill-opacity="0.3" stroke-opacity="0.3" />
  <rect x="250" y="150" width="25.0" height="25.0" fill="#ff6b35" fill-opacity="0.7" stroke-opacity="0.7" />
  <rect x="275" y="150" width="25.0" height="25.0" fill="#f7c59f" fill-opacity="0.3" stroke-opacity="0.3" />
  <rect x="0" y="175" width="25.0" height="25.0" fill="#f7c59f" fill-opacity="0.3" stroke-opacity="0.3" />
  <rect x="25" y="175" width="25.0" height="25.0" fill="#ff6b35" fill-opacity="0.7" stroke-opacity="0.7" />
  <rect x="50" y="175" width="25.0" height="25.0" fill="#f7c59f" fill-opacity="0.3" stroke-opacity="0.3" />
  <rect x="75" y="175" width="25.0" height="25.0" fill="#ff6b35" fill-opacity="0.7" stroke-opacity="0.7" />
  <rect x="100" y="175" width="25.0" height="25.0" fill="#f7c59f" fill-opacity="0.3" stroke-opacity="0.3" />
  <rect x="125" y="175" width="25.0" height="25.0" fill="#ff6b35" fill-opacity="0.7" stroke-opacity="0.7" />
  <rect x="150" y="175" width="25.0" height="25.0" fill="#f7c59f" fill-opacity="0.3" stroke-opacity="0.3" />
  <rect x="175" y="175" width="25.0" height="25.0" fill="#ff6b35" fill-opacity="0.7" stroke-opacity="0.7" />
  <rect x="200" y="175" width="25.0" height="25.0" fill="#f7c59f" fill-opacity="0.3" stroke-opacity="0.3" />
  <rect x="225" y="175" width="25.0" height="25.0" fill="#ff6b35" fill-opacity="0.7" stroke-opacity="0.7" />
  <rect x="250" y="175" width="25.0" height="25.0" fill="#f7c59f" fill-opacity="0.3" stroke-opacity="0.3" />
  <rect x="275" y="175" width="25.0" height="25.0" fill="#ff6b35" fill-opacity="0.7" stroke-opacity="0.7" />
  <rect x="0" y="200" width="25.0" height="25.0" fill="#ff6b35" fill-opacity="0.7" stroke-opacity="0.7" />
  <rect x="25" y="200" width="25.0" height="25.0" fill="#f7c59f" fill-opacity="0.3" stroke-opacity="0.3" />
  <rect x="50" y="200" width="25.0" height="25.0" fill="#ff6b35" fill-opacity="0.7" stroke-opacity="0.7" />
  <rect x="75" y="200" width="25.0" height="25.0" fill="#f7c59f" fill-opacity="0.3" stroke-opacity="0.3" />
  <rect x="100" y="200" width="25.0" height="25.0" fill="#ff6b35" fill-opacity="0.7" stroke-opacity="0.7" />
  <rect x="125" y="200" width="25.0" height="25.0" fill="#f7c59f" fill-opacity="0.3" stroke-opacity="0.3" />
  <rect x="150" y="200" width="25.0" height="25.0" fill="#ff6b35" fill-opacity="0.7" stroke-opacity="0.7" />
  <rect x="175" y="200" width="25.0" height="25.0" fill="#f7c59f" fill-opacity="0.3" stroke-opacity="0.3" />
  <rect x="200" y="200" width="25.0" height="25.0" fill="#ff6b35" fill-opacity="0.7" stroke-opacity="0.7" />
  <rect x="225" y="200" width="25.0" height="25.0" fill="#f7c59f" fill-opacity="0.3" stroke-opacity="0.3" />
  <rect x="250" y="200" width="25.0" height="25.0" fill="#ff6b35" fill-opacity="0.7" stroke-opacity="0.7" />
  <rect x="275" y="200" width="25.0" height="25.0" fill="#f7c59f" fill-opacity="0.3" stroke-opacity="0.3" />
  <rect x="0" y="225" width="25.0" height="25.0" fill="#f7c59f" fill-opacity="0.3" stroke-opacity="0.3" />
  <rect x="25" y="225" width="25.0" height="25.0" fill="#ff6b35" fill-opacity="0.7" stroke-opacity="0.7" />
  <rect x="50" y="225" width="25.0" height="25.0" fill="#f7c59f" fill-opacity="0.3" stroke-opacity="0.3" />
  <rect x="75" y="225" width="25.0" height="25.0" fill="#ff6b35" fill-opacity="0.7" stroke-opacity="0.7" />
  <rect x="100" y="225" width="25.0" height="25.0" fill="#f7c59f" fill-opacity="0.3" stroke-opacity="0.3" />
  <rect x="125" y="225" width="25.0" height="25.0" fill="#ff6b35" fill-opacity="0.7" stroke-opacity="0.7" />
  <rect x="150" y="225" width="25.0" height="25.0" fill="#f7c59f" fill-opacity="0.3" stroke-opacity="0.3" />
  <rect x="175" y="225" width="25.0" height="25.0" fill="#ff6b35" fill-opacity="0.7" stroke-opacity="0.7" />
  <rect x="200" y="225" width="25.0" height="25.0" fill="#f7c59f" fill-opacity="0.3" stroke-opacity="0.3" />
  <rect x="225" y="225" width="25.0" height="25.0" fill="#ff6b35" fill-opacity="0.7" stroke-opacity="0.7" />
  <rect x="250" y="225" width="25.0" height="25.0" fill="#f7c59f" fill-opacity="0.3" stroke-opacity="0.3" />
  <rect x="275" y="225" width="25.0" height="25.0" fill="#ff6b35" fill-opacity="0.7" stroke-opacity="0.7" />
  <rect x="0" y="250" width="25.0" height="25.0" fill="#ff6b35" fill-opacity="0.7" stroke-opacity="0.7" />
  <rect x="25" y="250" width="25.0" height="25.0" fill="#f7c59f" fill-opacity="0.3" stroke-opacity="0.3" />
  <rect x="50" y="250" width="25.0" height="25.0" fill="#ff6b35" fill-opacity="0.7" stroke-opacity="0.7" />
  <rect x="75" y="250" width="25.0" height="25.0" fill="#f7c59f" fill-opacity="0.3" stroke-opacity="0.3" />
  <rect x="100" y="250" width="25.0" height="25.0" fill="#ff6b35" fill-opacity="0.7" stroke-opacity="0.7" />
  <rect x="125" y="250" width="25.0" height="25.0" fill="#f7c59f" fill-opacity="0.3" stroke-opacity="0.3" />
  <rect x="150" y="250" width="25.0" height="25.0" fill="#ff6b35" fill-opacity="0.7" stroke-opacity="0.7" />
  <rect x="175" y="250" width="25.0" height="25.0" fill="#f7c59f" fill-opacity="0.3" stroke-opacity="0.3" />
  <rect x="200" y="250" width="25.0" height="25.0" fill="#ff6b35" fill-opacity="0.7" stroke-opacity="0.7" />
  <rect x="225" y="250" width="25.0" height="25.0" fill="#f7c59f" fill-opacity="0.3" stroke-opacity="0.3" />
  <rect x="250" y="250" width="25.0" height="25.0" fill="#ff6b35" fill-opacity="0.7" stroke-opacity="0.7" />
  <rect x="275" y="250" width="25.0" height="25.0" fill="#f7c59f" fill-opacity="0.3" stroke-opacity="0.3" />
  <rect x="0" y="275" width="25.0" height="25.0" fill="#f7c59f" fill-opacity="0.3" stroke-opacity="0.3" />
  <rect x="25" y="275" width="25.0" height="25.0" fill="#ff6b35" fill-opacity="0.7" stroke-opacity="0.7" />
  <rect x="50" y="275" width="25.0" height="25.0" fill="#f7c59f" fill-opacity="0.3" stroke-opacity="0.3" />
  <rect x="75" y="275" width="25.0" height="25.0" fill="#ff6b35" fill-opacity="0.7" stroke-opacity="0.7" />
  <rect x="100" y="275" width="25.0" height="25.0" fill="#f7c59f" fill-opacity="0.3" stroke-opacity="0.3" />
  <rect x="125" y="275" width="25.0" height="25.0" fill="#ff6b35" fill-opacity="0.7" stroke-opacity="0.7" />
  <rect x="150" y="275" width="25.0" height="25.0" fill="#f7c59f" fill-opacity="0.3" stroke-opacity="0.3" />
  <rect x="175" y="275" width="25.0" height="25.0" fill="#ff6b35" fill-opacity="0.7" stroke-opacity="0.7" />
  <rect x="200" y="275" width="25.0" height="25.0" fill="#f7c59f" fill-opacity="0.3" stroke-opacity="0.3" />
  <rect x="225" y="275" width="25.0" height="25.0" fill="#ff6b35" fill-opacity="0.7" stroke-opacity="0.7" />
  <rect x="250" y="275" width="25.0" height="25.0" fill="#f7c59f" fill-opacity="0.3" stroke-opacity="0.3" />
  <rect x="275" y="275" width="25.0" height="25.0" fill="#ff6b35" fill-opacity="0.7" stroke-opacity="0.7" />
</svg>