<?xml version="1.0" encoding="UTF-8"?>
<svg xmlns="http://www.w3.org/2000/svg" width="240" height="240" viewBox="0 0 240 240">
  <rect width="100%" height="100%" fill="#1a1a2e" />
  <rect x="0" y="0" width="40.0" height="40.0" fill="none" stroke="#3d3d5c" stroke-width="0.5" />
  <rect x="40" y="0" width="40.0" height="40.0" fill="none" stroke="#3d3d5c" stroke-width="0.5" />
  <rect x="80" y="0" width="40.0" height="40.0" fill="none" stroke="#3d3d5c" stroke-width="0.5" />
  <rect x="120" y="0" width="40.0" height="40.0" fill="none" stroke="#3d3d5c" stroke-width="0.5" />
  <rect x="160" y="0" width="40.0" height="40.0" fill="none" stroke="#3d3d5c" stroke-width="0.5" />
  <rect x="200" y="0" width="40.0" height="40.0" fill="none" stroke="#3d3d5c" stroke-width="0.5" />
  <rect x="0" y="40" width="40.0" height="40.0" fill="none" stroke="#3d3d5c" stroke-width="0.5" />
  <rect x="40" y="40" width="40.0" height="40.0" fill="none" stroke="#3d3d5c" stroke-width="0.5" />
  <circle cx="60.0" cy="60.0" r="12.0" fill="#ff6b6b" />
  <rect x="80" y="40" width="40.0" height="40.0" fill="none" stroke="#3d3d5c" stroke-width="0.5" />
  <circle cx="100.0" cy="60.0" r="8.0" fill="#4ecdc4" />
  <rect x="120" y="40" width="40.0" height="40.0" fill="none" stroke="#3d3d5c" stroke-width="0.5" />
  <rect x="160" y="40" width="40.0" height="40.0" fill="none" stroke="#3d3d5c" stroke-width="0.5" />
  <rect x="200" y="40" width="40.0" height="40.0" fill="none" stroke="#3d3d5c" stroke-width="0.5" />
  <rect x="0" y="80" width="40.0" height="40.0" fill="none" stroke="#3d3d5c" stroke-width="0.5" />
  <rect x="40" y="80" width="40.0" height="40.0" fill="none" stroke="#3d3d5c" stroke-width="0.5" />
  <line x1="40.0" y1="120.0" x2="80.0" y2="80.0" stroke="#ffe66d" stroke-width="2.0" stroke-linecap="round" />
  <rect x="80" y="80" width="40.0" height="40.0" fill="none" stroke="#3d3d5c" stroke-width="0.5" />
  <rect x="80" y="80" width="40.0" height="40.0" fill="#ff6b6b" fill-opacity="0.3" stroke-opacity="0.3" />
  <circle cx="100.0" cy="100.0" r="6.0" fill="#ffe66d" />
  <rect x="120" y="80" width="40.0" height="40.0" fill="none" stroke="#3d3d5c" stroke-width="0.5" />
  <rect x="160" y="80" width="40.0" height="40.0" fill="none" stroke="#3d3d5c" stroke-width="0.5" />
  <rect x="200" y="80" width="40.0" height="40.0" fill="none" stroke="#3d3d5c" stroke-width="0.5" />
  <rect x="0" y="120" width="40.0" height="40.0" fill="none" stroke="#3d3d5c" stroke-width="0.5" />
  <rect x="40" y="120" width="40.0" height="40.0" fill="none" stroke="#3d3d5c" stroke-width="0.5" />
  <rect x="80" y="120" width="40.0" height="40.0" fill="none" stroke="#3d3d5c" stroke-width="0.5" />
  <rect x="120" y="120" width="40.0" height="40.0" fill="none" stroke="#3d3d5c" stroke-width="0.5" />
  <polygon points="152.12435565298213,147.0 140.0,154.0 127.87564434701787,147.0 127.87564434701785,133.0 140.0,126.0 152.12435565298213,133.0" fill="#4ecdc4" fill-opacity="0.7" stroke-opacity="0.7" />
  <rect x="160" y="120" width="40.0" height="40.0" fill="none" stroke="#3d3d5c" stroke-width="0.5" />
  <path d="M 160.0 160.0 Q 190.0 150.0 200.0 120.0" fill="none" stroke="#ff6b6b" stroke-width="2.0" stroke-linecap="round" />
  <rect x="200" y="120" width="40.0" height="40.0" fill="none" stroke="#3d3d5c" stroke-width="0.5" />
  <rect x="0" y="160" width="40.0" height="40.0" fill="none" stroke="#3d3d5c" stroke-width="0.5" />
  <rect x="40" y="160" width="40.0" height="40.0" fill="none" stroke="#3d3d5c" stroke-width="0.5" />
  <rect x="80" y="160" width="40.0" height="40.0" fill="none" stroke="#3d3d5c" stroke-width="0.5" />
  <polygon points="100.0,167.0 103.05648331192086,175.79311162925026 112.363734711837,175.9827790731257 104.9454938847348,181.60688837074974 107.64120827980216,190.5172209268743 100.0,185.2 92.35879172019784,190.5172209268743 95.0545061152652,181.60688837074974 87.636265288163,175.9827790731257 96.94351668807914,175.79311162925026" fill="#ffe66d" fill-opacity="0.8" stroke-opacity="0.8" />
  <rect x="120" y="160" width="40.0" height="40.0" fill="none" stroke="#3d3d5c" stroke-width="0.5" />
  <rect x="160" y="160" width="40.0" height="40.0" fill="none" stroke="#3d3d5c" stroke-width="0.5" />
  <rect x="200" y="160" width="40.0" height="40.0" fill="none" stroke="#3d3d5c" stroke-width="0.5" />
  <rect x="0" y="200" width="40.0" height="40.0" fill="none" stroke="#3d3d5c" stroke-width="0.5" />
  <rect x="40" y="200" width="40.0" height="40.0" fill="none" stroke="#3d3d5c" stroke-width="0.5" />
  <rect x="80" y="200" width="40.0" height="40.0" fill="none" stroke="#3d3d5c" stroke-width="0.5" />
  <rect x="120" y="200" width="40.0" height="40.0" fill="none" stroke="#3d3d5c" stroke-width="0.5" />
  <rect x="160" y="200" width="40.0" height="40.0" fill="none" stroke="#3d3d5c" stroke-width="0.5" />
  <rect x="200" y="200" width="40.0" height="40.0" fill="none" stroke="#3d3d5c" stroke-width="0.5" />
</svg>