<?xml version="1.0" encoding="UTF-8"?>
<svg xmlns="http://www.w3.org/2000/svg" width="240" height="180" viewBox="0 0 240 180">
  <rect width="100%" height="100%" fill="#1a1a2e" />
  <circle cx="160" cy="110" r="15.0" fill="#ffe66d" opacity="0.8" />
  <line x1="140" y1="90" x2="220" y2="160" stroke="#4ecdc4" stroke-width="2.0" stroke-linecap="round" opacity="0.6" />
  <rect x="0.15" y="0.15" width="29.7" height="29.7" fill="none" stroke="#3d3d5c" stroke-width="0.3" fill-opacity="0.3" stroke-opacity="0.3" />
  <circle cx="15.0" cy="15.0" r="4.5" fill="#ff6b6b" opacity="0.5" />
  <rect x="30.15" y="0.15" width="29.7" height="29.7" fill="none" stroke="#3d3d5c" stroke-width="0.3" fill-opacity="0.3" stroke-opacity="0.3" />
  <circle cx="45.0" cy="15.0" r="4.928571428571429" fill="#ff6b6b" opacity="0.5357142857142857" />
  <rect x="60.15" y="0.15" width="29.7" height="29.7" fill="none" stroke="#3d3d5c" stroke-width="0.3" fill-opacity="0.3" stroke-opacity="0.3" />
  <circle cx="75.0" cy="15.0" r="5.357142857142858" fill="#ff6b6b" opacity="0.5714285714285714" />
  <rect x="90.15" y="0.15" width="29.7" height="29.7" fill="none" stroke="#3d3d5c" stroke-width="0.3" fill-opacity="0.3" stroke-opacity="0.3" />
  <circle cx="105.0" cy="15.0" r="5.785714285714285" fill="#ff6b6b" opacity="0.6071428571428571" />
  <rect x="120.15" y="0.15" width="29.7" height="29.7" fill="none" stroke="#3d3d5c" stroke-width="0.3" fill-opacity="0.3" stroke-opacity="0.3" />
  <rect x="150.15" y="0.15" width="29.7" height="29.7" fill="none" stroke="#3d3d5c" stroke-width="0.3" fill-opacity="0.3" stroke-opacity="0.3" />
  <rect x="180.15" y="0.15" width="29.7" height="29.7" fill="none" stroke="#3d3d5c" stroke-width="0.3" fill-opacity="0.3" stroke-opacity="0.3" />
  <rect x="210.15" y="0.15" width="29.7" height="29.7" fill="none" stroke="#3d3d5c" stroke-width="0.3" fill-opacity="0.3" stroke-opacity="0.3" />
  <rect x="0.15" y="30.15" width="29.7" height="29.7" fill="none" stroke="#3d3d5c" stroke-width="0.3" fill-opacity="0.3" stroke-opacity="0.3" />
  <circle cx="15.0" cy="45.0" r="5.1" fill="#ff6b6b" opacity="0.55" />
  <rect x="30.15" y="30.15" width="29.7" height="29.7" fill="none" stroke="#3d3d5c" stroke-width="0.3" fill-opacity="0.3" stroke-opacity="0.3" />
  <circle cx="45.0" cy="45.0" r="5.5285714285714285" fill="#ff6b6b" opacity="0.5857142857142857" />
  <rect x="60.15" y="30.15" width="29.7" height="29.7" fill="none" stroke="#3d3d5c" stroke-width="0.3" fill-opacity="0.3" stroke-opacity="0.3" />
  <circle cx="75.0" cy="45.0" r="5.957142857142857" fill="#ff6b6b" opacity="0.6214285714285714" />
  <rect x="90.15" y="30.15" width="29.7" height="29.7" fill="none" stroke="#3d3d5c" stroke-width="0.3" fill-opacity="0.3" stroke-opacity="0.3" />
  <circle cx="105.0" cy="45.0" r="6.385714285714286" fill="#ff6b6b" opacity="0.6571428571428571" />
  <rect x="120.15" y="30.15" width="29.7" height="29.7" fill="none" stroke="#3d3d5c" stroke-width="0.3" fill-opacity="0.3" stroke-opacity="0.3" />
  <rect x="150.15" y="30.15" width="29.7" height="29.7" fill="none" stroke="#3d3d5c" stroke-width="0.3" fill-opacity="0.3" stroke-opacity="0.3" />
  <rect x="180.15" y="30.15" width="29.7" height="29.7" fill="none" stroke="#3d3d5c" stroke-width="0.3" fill-opacity="0.3" stroke-opacity="0.3" />
  <rect x="210.15" y="30.15" width="29.7" height="29.7" fill="none" stroke="#3d3d5c" stroke-width="0.3" fill-opacity="0.3" stroke-opacity="0.3" />
  <rect x="0.15" y="60.15" width="29.7" height="29.7" fill="none" stroke="#3d3d5c" stroke-width="0.3" fill-opacity="0.3" stroke-opacity="0.3" />
  <circle cx="15.0" cy="75.0" r="5.7" fill="#ff6b6b" opacity="0.6" />
  <rect x="30.15" y="60.15" width="29.7" height="29.7" fill="none" stroke="#3d3d5c" stroke-width="0.3" fill-opacity="0.3" stroke-opacity="0.3" />
  <circle cx="45.0" cy="75.0" r="6.128571428571429" fill="#ff6b6b" opacity="0.6357142857142857" />
  <rect x="60.15" y="60.15" width="29.7" height="29.7" fill="none" stroke="#3d3d5c" stroke-width="0.3" fill-opacity="0.3" stroke-opacity="0.3" />
  <circle cx="75.0" cy="75.0" r="6.557142857142858" fill="#ff6b6b" opacity="0.6714285714285715" />
  <rect x="90.15" y="60.15" width="29.7" height="29.7" fill="none" stroke="#3d3d5c" stroke-width="0.3" fill-opacity="0.3" stroke-opacity="0.3" />
  <circle cx="105.0" cy="75.0" r="6.985714285714286" fill="#ff6b6b" opacity="0.7071428571428571" />
  <rect x="120.15" y="60.15" width="29.7" height="29.7" fill="none" stroke="#3d3d5c" stroke-width="0.3" fill-opacity="0.3" stroke-opacity="0.3" />
  <rect x="150.15" y="60.15" width="29.7" height="29.7" fill="none" stroke="#3d3d5c" stroke-width="0.3" fill-opacity="0.3" stroke-opacity="0.3" />
  <rect x="180.15" y="60.15" width="29.7" height="29.7" fill="none" stroke="#3d3d5c" stroke-width="0.3" fill-opacity="0.3" stroke-opacity="0.3" />
  <rect x="210.15" y="60.15" width="29.7" height="29.7" fill="none" stroke="#3d3d5c" stroke-width="0.3" fill-opacity="0.3" stroke-opacity="0.3" />
  <rect x="0.15" y="90.15" width="29.7" height="29.7" fill="none" stroke="#3d3d5c" stroke-width="0.3" fill-opacity="0.3" stroke-opacity="0.3" />
  <rect x="30.15" y="90.15" width="29.7" height="29.7" fill="none" stroke="#3d3d5c" stroke-width="0.3" fill-opacity="0.3" stroke-opacity="0.3" />
  <rect x="60.15" y="90.15" width="29.7" height="29.7" fill="none" stroke="#3d3d5c" stroke-width="0.3" fill-opacity="0.3" stroke-opacity="0.3" />
  <rect x="90.15" y="90.15" width="29.7" height="29.7" fill="none" stroke="#3d3d5c" stroke-width="0.3" fill-opacity="0.3" stroke-opacity="0.3" />
  <rect x="120.15" y="90.15" width="29.7" height="29.7" fill="none" stroke="#3d3d5c" stroke-width="0.3" fill-opacity="0.3" stroke-opacity="0.3" />
  <rect x="150.15" y="90.15" width="29.7" height="29.7" fill="none" stroke="#3d3d5c" stroke-width="0.3" fill-opacity="0.3" stroke-opacity="0.3" />
  <rect x="180.15" y="90.15" width="29.7" height="29.7" fill="none" stroke="#3d3d5c" stroke-width="0.3" fill-opacity="0.3" stroke-opacity="0.3" />
  <rect x="210.15" y="90.15" width="29.7" height="29.7" fill="none" stroke="#3d3d5c" stroke-width="0.3" fill-opacity="0.3" stroke-opacity="0.3" />
  <rect x="0.15" y="120.15" width="29.7" height="29.7" fill="none" stroke="#3d3d5c" stroke-width="0.3" fill-opacity="0.3" stroke-opacity="0.3" />
  <rect x="30.15" y="120.15" width="29.7" height="29.7" fill="none" stroke="#3d3d5c" stroke-width="0.3" fill-opacity="0.3" stroke-opacity="0.3" />
  <rect x="60.15" y="120.15" width="29.7" height="29.7" fill="none" stroke="#3d3d5c" stroke-width="0.3" fill-opacity="0.3" stroke-opacity="0.3" />
  <rect x="90.15" y="120.15" width="29.7" height="29.7" fill="none" stroke="#3d3d5c" stroke-width="0.3" fill-opacity="0.3" stroke-opacity="0.3" />
  <rect x="120.15" y="120.15" width="29.7" height="29.7" fill="none" stroke="#3d3d5c" stroke-width="0.3" fill-opacity="0.3" stroke-opacity="0.3" />
  <rect x="150.15" y="120.15" width="29.7" height="29.7" fill="none" stroke="#3d3d5c" stroke-width="0.3" fill-opacity="0.3" stroke-opacity="0.3" />
  <rect x="180.15" y="120.15" width="29.7" height="29.7" fill="none" stroke="#3d3d5c" stroke-width="0.3" fill-opacity="0.3" stroke-opacity="0.3" />
  <rect x="210.15" y="120.15" width="29.7" height="29.7" fill="none" stroke="#3d3d5c" stroke-width="0.3" fill-opacity="0.3" stroke-opacity="0.3" />
  <rect x="0.15" y="150.15" width="29.7" height="29.7" fill="none" stroke="#3d3d5c" stroke-width="0.3" fill-opacity="0.3" stroke-opacity="0.3" />
  <rect x="30.15" y="150.15" width="29.7" height="29.7" fill="none" stroke="#3d3d5c" stroke-width="0.3" fill-opacity="0.3" stroke-opacity="0.3" />
  <rect x="60.15" y="150.15" width="29.7" height="29.7" fill="none" stroke="#3d3d5c" stroke-width="0.3" fill-opacity="0.3" stroke-opacity="0.3" />
  <rect x="90.15" y="150.15" width="29.7" height="29.7" fill="none" stroke="#3d3d5c" stroke-width="0.3" fill-opacity="0.3" stroke-opacity="0.3" />
  <rect x="120.15" y="150.15" width="29.7" height="29.7" fill="none" stroke="#3d3d5c" stroke-width="0.3" fill-opacity="0.3" stroke-opacity="0.3" />
  <rect x="150.15" y="150.15" width="29.7" height="29.7" fill="none" stroke="#3d3d5c" stroke-width="0.3" fill-opacity="0.3" stroke-opacity="0.3" />
  <rect x="180.15" y="150.15" width="29.7" height="29.7" fill="none" stroke="#3d3d5c" stroke-width="0.3" fill-opacity="0.3" stroke-opacity="0.3" />
  <rect x="210.15" y="150.15" width="29.7" height="29.7" fill="none" stroke="#3d3d5c" stroke-width="0.3" fill-opacity="0.3" stroke-opacity="0.3" />
</svg>