<?xml version="1.0" encoding="UTF-8"?>
<svg xmlns="http://www.w3.org/2000/svg" width="240" height="180" viewBox="0 0 240 180">
  <rect width="100%" height="100%" fill="#1a1a2e" />
  <rect x="0.15" y="0.15" width="29.7" height="29.7" fill="none" stroke="#3d3d5c" stroke-width="0.3" fill-opacity="0.3" stroke-opacity="0.3" />
  <circle cx="15" cy="15" r="4.5" fill="#ff6b6b" opacity="0.5" />
  <rect x="30.15" y="0.15" width="29.7" height="29.7" fill="none" stroke="#3d3d5c" stroke-width="0.3" fill-opacity="0.3" stroke-opacity="0.3" />
  <circle cx="45" cy="15" r="4.92857" fill="#ff6b6b" opacity="0.535714" />
  <rect x="60.15" y="0.15" width="29.7" height="29.7" fill="none" stroke="#3d3d5c" stroke-width="0.3" fill-opacity="0.3" stroke-opacity="0.3" />
  <circle cx="75" cy="15" r="5.35714" fill="#ff6b6b" opacity="0.571429" />
  <rect x="90.15" y="0.15" width="29.7" height="29.7" fill="none" stroke="#3d3d5c" stroke-width="0.3" fill-opacity="0.3" stroke-opacity="0.3" />
  <circle cx="105" cy="15" r="5.78571" fill="#ff6b6b" opacity="0.607143" />
  <rect x="120.15" y="0.15" width="29.7" height="29.7" fill="none" stroke="#3d3d5c" stroke-width="0.3" fill-opacity="0.3" stroke-opacity="0.3" />
  <rect x="150.15" y="0.15" width="29.7" height="29.7" fill="none" stroke="#3d3d5c" stroke-width="0.3" fill-opacity="0.3" stroke-opacity="0.3" />
  <rect x="180.15" y="0.15" width="29.7" height="29.7" fill="none" stroke="#3d3d5c" stroke-width="0.3" fill-opacity="0.3" stroke-opacity="0.3" />
  <rect x="210.15" y="0.15" width="29.7" height="29.7" fill="none" stroke="#3d3d5c" stroke-width="0.3" fill-opacity="0.3" stroke-opacity="0.3" />
  <rect x="0.15" y="30.15" width="29.7" height="29.7" fill="none" stroke="#3d3d5c" stroke-width="0.3" fill-opacity="0.3" stroke-opacity="0.3" />
  <circle cx="15" cy="45" r="5.1" fill="#ff6b6b" opacity="0.55" />
  <rect x="30.15" y="30.15" width="29.7" height="29.7" fill="none" stroke="#3d3d5c" stroke-width="0.3" fill-opacity="0.3" stroke-opacity="0.3" />
  <circle cx="45" cy="45" r="5.52857" fill="#ff6b6b" opacity="0.585714" />
  <rect x="60.15" y="30.15" width="29.7" height="29.7" fill="none" stroke="#3d3d5c" stroke-width="0.3" fill-opacity="0.3" stroke-opacity="0.3" />
  <circle cx="75" cy="45" r="5.95714" fill="#ff6b6b" opacity="0.621429" />
  <rect x="90.15" y="30.15" width="29.7" height="29.7" fill="none" stroke="#3d3d5c" stroke-width="0.3" fill-opacity="0.3" stroke-opacity="0.3" />
  <circle cx="105" cy="45" r="6.38571" fill="#ff6b6b" opacity="0.657143" />
  <rect x="120.15" y="30.15" width="29.7" height="29.7" fill="none" stroke="#3d3d5c" stroke-width="0.3" fill-opacity="0.3" stroke-opacity="0.3" />
  <rect x="150.15" y="30.15" width="29.7" height="29.7" fill="none" stroke="#3d3d5c" stroke-width="0.3" fill-opacity="0.3" stroke-opacity="0.3" />
  <rect x="180.15" y="30.15" width="29.7" height="29.7" fill="none" stroke="#3d3d5c" stroke-width="0.3" fill-opacity="0.3" stroke-opacity="0.3" />
  <rect x="210.15" y="30.15" width="29.7" height="29.7" fill="none" stroke="#3d3d5c" stroke-width="0.3" fill-opacity="0.3" stroke-opacity="0.3" />
  <rect x="0.15" y="60.15" width="29.7" height="29.7" fill="none" stroke="#3d3d5c" stroke-width="0.3" fill-opacity="0.3" stroke-opacity="0.3" />
  <circle cx="15" cy="75" r="5.7" fill="#ff6b6b" opacity="0.6" />
  <rect x="30.15" y="60.15" width="29.7" height="29.7" fill="none" stroke="#3d3d5c" stroke-width="0.3" fill-opacity="0.3" stroke-opacity="0.3" />
  <circle cx="45" cy="75" r="6.12857" fill="#ff6b6b" opacity="0.635714" />
  <rect x="60.15" y="60.15" width="29.7" height="29.7" fill="none" stroke="#3d3d5c" stroke-width="0.3" fill-opacity="0.3" stroke-opacity="0.3" />
  <circle cx="75" cy="75" r="6.55714" fill="#ff6b6b" opacity="0.671429" />
  <rect x="90.15" y="60.15" width="29.7" height="29.7" fill="none" stroke="#3d3d5c" stroke-width="0.3" fill-opacity="0.3" stroke-opacity="0.3" />
  <circle cx="105" cy="75" r="6.98571" fill="#ff6b6b" opacity="0.707143" />
  <rect x="120.15" y="60.15" width="29.7" height="29.7" fill="none" stroke="#3d3d5c" stroke-width="0.3" fill-opacity="0.3" stroke-opacity="0.3" />
  <rect x="150.15" y="60.15" width="29.7" height="29.7" fill="none" stroke="#3d3d5c" stroke-width="0.3" fill-opacity="0.3" stroke-opacity="0.3" />
  <rect x="180.15" y="60.15" width="29.7" height="29.7" fill="none" stroke="#3d3d5c" stroke-width="0.3" fill-opacity="0.3" stroke-opacity="0.3" />
  <rect x="210.15" y="60.15" width="29.7" height="29.7" fill="none" stroke="#3d3d5c" stroke-width="0.3" fill-opacity="0.3" stroke-opacity="0.3" />
  <rect x="0.15" y="90.15" width="29.7" height="29.7" fill="none" stroke="#3d3d5c" stroke-width="0.3" fill-opacity="0.3" stroke-opacity="0.3" />
  <rect x="30.15" y="90.15" width="29.7" height="29.7" fill="none" stroke="#3d3d5c" stroke-width="0.3" fill-opacity="0.3" stroke-opacity="0.3" />
  <rect x="60.15" y="90.15" width="29.7" height="29.7" fill="none" stroke="#3d3d5c" stroke-width="0.3" fill-opacity="0.3" stroke-opacity="0.3" />
  <rect x="90.15" y="90.15" width="29.7" height="29.7" fill="none" stroke="#3d3d5c" stroke-width="0.3" fill-opacity="0.3" stroke-opacity="0.3" />
  <rect x="120.15" y="90.15" width="29.7" height="29.7" fill="none" stroke="#3d3d5c" stroke-width="0.3" fill-opacity="0.3" stroke-opacity="0.3" />
  <rect x="150.15" y="90.15" width="29.7" height="29.7" fill="none" stroke="#3d3d5c" stroke-width="0.3" fill-opacity="0.3" stroke-opacity="0.3" />
  <rect x="180.15" y="90.15" width="29.7" height="29.7" fill="none" stroke="#3d3d5c" stroke-width="0.3" fill-opacity="0.3" stroke-opacity="0.3" />
  <rect x="210.15" y="90.15" width="29.7" height="29.7" fill="none" stroke="#3d3d5c" stroke-width="0.3" fill-opacity="0.3" stroke-opacity="0.3" />
  <rect x="0.15" y="120.15" width="29.7" height="29.7" fill="none" stroke="#3d3d5c" stroke-width="0.3" fill-opacity="0.3" stroke-opacity="0.3" />
  <rect x="30.15" y="120.15" width="29.7" height="29.7" fill="none" stroke="#3d3d5c" stroke-width="0.3" fill-opacity="0.3" stroke-opacity="0.3" />
  <rect x="60.15" y="120.15" width="29.7" height="29.7" fill="none" stroke="#3d3d5c" stroke-width="0.3" fill-opacity="0.3" stroke-opacity="0.3" />
  <rect x="90.15" y="120.15" width="29.7" height="29.7" fill="none" stroke="#3d3d5c" stroke-width="0.3" fill-opacity="0.3" stroke-opacity="0.3" />
  <rect x="120.15" y="120.15" width="29.7" height="29.7" fill="none" stroke="#3d3d5c" stroke-width="0.3" fill-opacity="0.3" stroke-opacity="0.3" />
  <rect x="150.15" y="120.15" width="29.7" height="29.7" fill="none" stroke="#3d3d5c" stroke-width="0.3" fill-opacity="0.3" stroke-opacity="0.3" />
  <rect x="180.15" y="120.15" width="29.7" height="29.7" fill="none" stroke="#3d3d5c" stroke-width="0.3" fill-opacity="0.3" stroke-opacity="0.3" />
  <rect x="210.15" y="120.15" width="29.7" height="29.7" fill="none" stroke="#3d3d5c" stroke-width="0.3" fill-opacity="0.3" stroke-opacity="0.3" />
  <rect x="0.15" y="150.15" width="29.7" height="29.7" fill="none" stroke="#3d3d5c" stroke-width="0.3" fill-opacity="0.3" stroke-opacity="0.3" />
  <rect x="30.15" y="150.15" width="29.7" height="29.7" fill="none" stroke="#3d3d5c" stroke-width="0.3" fill-opacity="0.3" stroke-opacity="0.3" />
  <rect x="60.15" y="150.15" width="29.7" height="29.7" fill="none" stroke="#3d3d5c" stroke-width="0.3" fill-opacity="0.3" stroke-opacity="0.3" />
  <rect x="90.15" y="150.15" width="29.7" height="29.7" fill="none" stroke="#3d3d5c" stroke-width="0.3" fill-opacity="0.3" stroke-opacity="0.3" />
  <rect x="120.15" y="150.15" width="29.7" height="29.7" fill="none" stroke="#3d3d5c" stroke-width="0.3" fill-opacity="0.3" stroke-opacity="0.3" />
  <rect x="150.15" y="150.15" width="29.7" height="29.7" fill="none" stroke="#3d3d5c" stroke-width="0.3" fill-opacity="0.3" stroke-opacity="0.3" />
  <rect x="180.15" y="150.15" width="29.7" height="29.7" fill="none" stroke="#3d3d5c" stroke-width="0.3" fill-opacity="0.3" stroke-opacity="0.3" />
  <rect x="210.15" y="150.15" width="29.7" height="29.7" fill="none" stroke="#3d3d5c" stroke-width="0.3" fill-opacity="0.3" stroke-opacity="0.3" />
  <circle cx="160" cy="110" r="15" fill="#ffe66d" opacity="0.8" />
  <line x1="140" y1="90" x2="220" y2="160" stroke="#4ecdc4" stroke-width="2" stroke-linecap="round" opacity="0.6" />
</svg>