<?xml version="1.0" encoding="UTF-8"?>
<svg xmlns="http://www.w3.org/2000/svg" width="240" height="240" viewBox="0 0 240 240">
  <rect width="100%" height="100%" fill="#1a1a2e" />
  <rect x="0.25" y="0.25" width="39.5" height="39.5" fill="none" stroke="#3d3d5c" stroke-width="0.5" />
  <rect x="40.25" y="0.25" width="39.5" height="39.5" fill="none" stroke="#3d3d5c" stroke-width="0.5" />
  <rect x="80.25" y="0.25" width="39.5" height="39.5" fill="none" stroke="#3d3d5c" stroke-width="0.5" />
  <rect x="120.25" y="0.25" width="39.5" height="39.5" fill="none" stroke="#3d3d5c" stroke-width="0.5" />
  <rect x="160.25" y="0.25" width="39.5" height="39.5" fill="none" stroke="#3d3d5c" stroke-width="0.5" />
  <rect x="200.25" y="0.25" width="39.5" height="39.5" fill="none" stroke="#3d3d5c" stroke-width="0.5" />
  <rect x="0.25" y="40.25" width="39.5" height="39.5" fill="none" stroke="#3d3d5c" stroke-width="0.5" />
  <rect x="40.25" y="40.25" width="39.5" height="39.5" fill="none" stroke="#3d3d5c" stroke-width="0.5" />
  <circle cx="60" cy="60" r="12" fill="#ff6b6b" />
  <rect x="80.25" y="40.25" width="39.5" height="39.5" fill="none" stroke="#3d3d5c" stroke-width="0.5" />
  <circle cx="100" cy="60" r="8" fill="#4ecdc4" />
  <rect x="120.25" y="40.25" width="39.5" height="39.5" fill="none" stroke="#3d3d5c" stroke-width="0.5" />
  <rect x="160.25" y="40.25" width="39.5" height="39.5" fill="none" stroke="#3d3d5c" stroke-width="0.5" />
  <rect x="200.25" y="40.25" width="39.5" height="39.5" fill="none" stroke="#3d3d5c" stroke-width="0.5" />
  <rect x="0.25" y="80.25" width="39.5" height="39.5" fill="none" stroke="#3d3d5c" stroke-width="0.5" />
  <rect x="40.25" y="80.25" width="39.5" height="39.5" fill="none" stroke="#3d3d5c" stroke-width="0.5" />
  <line x1="40" y1="120" x2="80" y2="80" stroke="#ffe66d" stroke-width="2" stroke-linecap="round" transform="translate(60,100) scale(0.952381) translate(-60,-100)" />
  <rect x="80.25" y="80.25" width="39.5" height="39.5" fill="none" stroke="#3d3d5c" stroke-width="0.5" />
  <rect x="80" y="80" width="40" height="40" fill="#ff6b6b" fill-opacity="0.3" stroke-opacity="0.3" />
  <circle cx="100" cy="100" r="6" fill="#ffe66d" />
  <rect x="120.25" y="80.25" width="39.5" height="39.5" fill="none" stroke="#3d3d5c" stroke-width="0.5" />
  <rect x="160.25" y="80.25" width="39.5" height="39.5" fill="none" stroke="#3d3d5c" stroke-width="0.5" />
  <rect x="200.25" y="80.25" width="39.5" height="39.5" fill="none" stroke="#3d3d5c" stroke-width="0.5" />
  <rect x="0.25" y="120.25" width="39.5" height="39.5" fill="none" stroke="#3d3d5c" stroke-width="0.5" />
  <rect x="40.25" y="120.25" width="39.5" height="39.5" fill="none" stroke="#3d3d5c" stroke-width="0.5" />
  <rect x="80.25" y="120.25" width="39.5" height="39.5" fill="none" stroke="#3d3d5c" stroke-width="0.5" />
  <rect x="120.25" y="120.25" width="39.5" height="39.5" fill="none" stroke="#3d3d5c" stroke-width="0.5" />
  <polygon points="152.124,147 140,154 127.876,147 127.876,133 140,126 152.124,133" fill="#4ecdc4" fill-opacity="0.7" stroke-opacity="0.7" />
  <rect x="160.25" y="120.25" width="39.5" height="39.5" fill="none" stroke="#3d3d5c" stroke-width="0.5" />
  <path d="M 160 160 Q 190 150 200 120" fill="none" stroke="#ff6b6b" stroke-width="2" stroke-linecap="round" transform="translate(180,140) scale(0.952381) translate(-180,-140)" />
  <rect x="200.25" y="120.25" width="39.5" height="39.5" fill="none" stroke="#3d3d5c" stroke-width="0.5" />
  <rect x="0.25" y="160.25" width="39.5" height="39.5" fill="none" stroke="#3d3d5c" stroke-width="0.5" />
  <rect x="40.25" y="160.25" width="39.5" height="39.5" fill="none" stroke="#3d3d5c" stroke-width="0.5" />
  <rect x="80.25" y="160.25" width="39.5" height="39.5" fill="none" stroke="#3d3d5c" stroke-width="0.5" />
  <polygon points="100,167 103.056,175.793 112.364,175.983 104.945,181.607 107.641,190.517 100,185.2 92.3588,190.517 95.0545,181.607 87.6363,175.983 96.9435,175.793" fill="#ffe66d" fill-opacity="0.8" stroke-opacity="0.8" />
  <rect x="120.25" y="160.25" width="39.5" height="39.5" fill="none" stroke="#3d3d5c" stroke-width="0.5" />
  <rect x="160.25" y="160.25" width="39.5" height="39.5" fill="none" stroke="#3d3d5c" stroke-width="0.5" />
  <rect x="200.25" y="160.25" width="39.5" height="39.5" fill="none" stroke="#3d3d5c" stroke-width="0.5" />
  <rect x="0.25" y="200.25" width="39.5" height="39.5" fill="none" stroke="#3d3d5c" stroke-width="0.5" />
  <rect x="40.25" y="200.25" width="39.5" height="39.5" fill="none" stroke="#3d3d5c" stroke-width="0.5" />
  <rect x="80.25" y="200.25" width="39.5" height="39.5" fill="none" stroke="#3d3d5c" stroke-width="0.5" />
  <rect x="120.25" y="200.25" width="39.5" height="39.5" fill="none" stroke="#3d3d5c" stroke-width="0.5" />
  <rect x="160.25" y="200.25" width="39.5" height="39.5" fill="none" stroke="#3d3d5c" stroke-width="0.5" />
  <rect x="200.25" y="200.25" width="39.5" height="39.5" fill="none" stroke="#3d3d5c" stroke-width="0.5" />
</svg>