<?xml version="1.0" encoding="UTF-8"?>
<svg xmlns="http://www.w3.org/2000/svg" width="460" height="300" viewBox="0 0 460 300">
  <rect width="100%" height="100%" fill="#1a1a2e" />
  <path d="M 30 35 C 163.333 75 296.667 75 430 35" fill="none" stroke="coral" stroke-width="2" stroke-linecap="round" stroke-linejoin="round" stroke-dasharray="405.921" stroke-dashoffset="405.921">
  <animate attributeName="stroke-dashoffset" from="405.921" to="0" dur="2.0s" begin="0.3s" calcMode="spline" keySplines="0.42 0.0 0.58 1.0" fill="freeze" />
</path>
  <circle cx="30" cy="35" r="4" fill="white" />
  <circle cx="430" cy="35" r="4" fill="white" />
  <rect x="55" y="105" width="50" height="50" fill="mediumpurple" stroke="white" stroke-width="1">
  <animateTransform attributeName="transform" type="rotate" values="0 80 130;360 80 130" keyTimes="0;1" dur="3.0s" fill="freeze" repeatCount="indefinite" additive="sum" />
  <animate attributeName="opacity" values="1;0.3" keyTimes="0;1" dur="2.0s" calcMode="spline" keySplines="0.42 0.0 0.58 1.0" fill="freeze" />
</rect>
  <circle cx="200" cy="130" r="8" fill="coral">
  <animate attributeName="r" values="8;28;8" keyTimes="0;0.5;1" dur="1.5s" calcMode="spline" keySplines="0.42 0.0 0.58 1.0;0.42 0.0 0.58 1.0" fill="freeze" repeatCount="indefinite" />
</circle>
  <circle cx="340" cy="130" r="22" fill="gold">
  <animate attributeName="opacity" values="1;0" keyTimes="0;1" dur="3.0s" calcMode="spline" keySplines="0.42 0.0 0.58 1.0" fill="freeze" />
</circle>
  <path d="M 30 208 C 30.9896 210.292 31.9792 212.583 32.9688 214.875 C 33.9583 217.167 34.9479 219.458 35.9375 221.75 C 36.9271 224.042 37.9167 226.333 38.9062 228.625 C 39.8958 230.917 40.8854 233.208 41.875 235.5 C 42.8646 237.792 43.8542 240.083 44.8438 242.375 C 45.8333 244.667 46.8229 246.958 47.8125 249.25 C 48.7853 251.503 49.8085 250.128 50.7812 247.875 C 51.7708 245.583 52.7604 243.292 53.75 241 C 54.7396 238.708 55.7292 236.417 56.7188 234.125 C 57.7083 231.833 58.6979 229.542 59.6875 227.25 C 60.6771 224.958 61.6667 222.667 62.6562 220.375 C 63.6458 218.083 64.6354 215.792 65.625 213.5 C 66.6146 211.208 67.6042 207.083 68.5938 209.375 C 69.5833 211.667 70.5729 213.958 71.5625 216.25 C 72.5521 218.542 73.5417 220.833 74.5312 223.125 C 75.5208 225.417 76.5104 227.708 77.5 230 C 78.4896 232.292 79.4792 234.583 80.4688 236.875 C 81.4583 239.167 82.4479 241.458 83.4375 243.75 C 84.4271 246.042 85.4167 248.333 86.4062 250.625 C 87.3958 252.917 88.3854 248.792 89.375 246.5 C 90.3646 244.208 91.3542 241.917 92.3438 239.625 C 93.3333 237.333 94.3229 235.042 95.3125 232.75 C 96.3021 230.458 97.2917 228.167 98.2812 225.875 C 99.2708 223.583 100.26 221.292 101.25 219 C 102.24 216.708 103.229 214.417 104.219 212.125 C 105.192 209.872 106.215 208.497 107.188 210.75 C 108.177 213.042 109.167 215.333 110.156 217.625 C 111.146 219.917 112.135 222.208 113.125 224.5 C 114.115 226.792 115.104 229.083 116.094 231.375 C 117.083 233.667 118.073 235.958 119.062 238.25 C 120.052 240.542 121.042 242.833 122.031 245.125 C 123.021 247.417 124.01 252 125 252 C 125.99 252 126.979 247.417 127.969 245.125 C 128.958 242.833 129.948 240.542 130.938 238.25 C 131.927 235.958 132.917 233.667 133.906 231.375 C 134.896 229.083 135.885 226.792 136.875 224.5 C 137.865 222.208 138.854 219.917 139.844 217.625 C 140.833 215.333 141.823 213.042 142.812 210.75 C 143.785 208.497 144.808 209.872 145.781 212.125 C 146.771 214.417 147.76 216.708 148.75 219 C 149.74 221.292 150.729 223.583 151.719 225.875 C 152.708 228.167 153.698 230.458 154.688 232.75 C 155.677 235.042 156.667 237.333 157.656 239.625 C 158.646 241.917 159.635 244.208 160.625 246.5 C 161.615 248.792 162.604 252.917 163.594 250.625 C 164.583 248.333 165.573 246.042 166.562 243.75 C 167.552 241.458 168.542 239.167 169.531 236.875 C 170.521 234.583 171.51 232.292 172.5 230 C 173.49 227.708 174.479 225.417 175.469 223.125 C 176.458 220.833 177.448 218.542 178.438 216.25 C 179.427 213.958 180.417 211.667 181.406 209.375 C 182.396 207.083 183.385 211.208 184.375 213.5 C 185.365 215.792 186.354 218.083 187.344 220.375 C 188.333 222.667 189.323 224.958 190.312 227.25 C 191.302 229.542 192.292 231.833 193.281 234.125 C 194.271 236.417 195.26 238.708 196.25 241 C 197.24 243.292 198.229 245.583 199.219 247.875 C 200.192 250.128 201.215 251.503 202.188 249.25 C 203.177 246.958 204.167 244.667 205.156 242.375 C 206.146 240.083 207.135 237.792 208.125 235.5 C 209.115 233.208 210.104 230.917 211.094 228.625 C 212.083 226.333 213.073 224.042 214.062 221.75 C 215.052 219.458 216.042 217.167 217.031 214.875 C 218.021 212.583 219.01 210.292 220 208" fill="none" stroke="skyblue" stroke-width="2" stroke-linecap="round" stroke-linejoin="round" stroke-dasharray="463.094" stroke-dashoffset="463.094">
  <animate attributeName="stroke-dashoffset" from="463.094" to="0" dur="2.0s" calcMode="spline" keySplines="0.42 0.0 0.58 1.0" fill="freeze" />
</path>
  <path d="M 240 230 C 241.042 232.16 242.083 234.319 243.125 236.386 C 244.167 238.453 245.208 240.427 246.25 242.223 C 247.292 244.018 248.333 245.636 249.375 247.006 C 250.417 248.376 251.458 249.499 252.5 250.325 C 253.542 251.152 254.583 251.682 255.625 251.894 C 256.667 252.106 257.708 251.999 258.75 251.577 C 259.792 251.156 260.833 250.42 261.875 249.402 C 262.917 248.384 263.958 247.084 265 245.556 C 266.042 244.029 267.083 242.276 268.125 240.371 C 269.167 238.466 270.208 236.41 271.25 234.292 C 272.292 232.174 273.333 229.993 274.375 227.844 C 275.417 225.694 276.458 223.576 277.5 221.581 C 278.542 219.586 279.583 217.713 280.625 216.043 C 281.667 214.374 282.708 212.908 283.75 211.708 C 284.792 210.508 285.833 209.574 286.875 208.947 C 287.917 208.32 288.958 208 290 208 C 291.042 208 292.083 208.32 293.125 208.947 C 294.167 209.574 295.208 210.508 296.25 211.708 C 297.292 212.908 298.333 214.374 299.375 216.043 C 300.417 217.713 301.458 219.586 302.5 221.581 C 303.542 223.576 304.583 225.694 305.625 227.844 C 306.667 229.993 307.708 232.174 308.75 234.292 C 309.792 236.41 310.833 238.466 311.875 240.371 C 312.917 242.276 313.958 244.029 315 245.556 C 316.042 247.084 317.083 248.384 318.125 249.402 C 319.167 250.42 320.208 251.156 321.25 251.577 C 322.292 251.999 323.333 252.106 324.375 251.894 C 325.417 251.682 326.458 251.152 327.5 250.325 C 328.542 249.499 329.583 248.376 330.625 247.006 C 331.667 245.636 332.708 244.018 333.75 242.223 C 334.792 240.427 335.833 238.453 336.875 236.386 C 337.917 234.319 338.958 232.16 340 230 C 341.042 227.84 342.083 225.681 343.125 223.614 C 344.167 221.547 345.208 219.573 346.25 217.777 C 347.292 215.982 348.333 214.364 349.375 212.994 C 350.417 211.624 351.458 210.501 352.5 209.675 C 353.542 208.848 354.583 208.318 355.625 208.106 C 356.667 207.894 357.708 208.001 358.75 208.423 C 359.792 208.844 360.833 209.58 361.875 210.598 C 362.917 211.616 363.958 212.916 365 214.444 C 366.042 215.971 367.083 217.724 368.125 219.629 C 369.167 221.534 370.208 223.59 371.25 225.708 C 372.292 227.826 373.333 230.007 374.375 232.156 C 375.417 234.306 376.458 236.424 377.5 238.419 C 378.542 240.414 379.583 242.287 380.625 243.957 C 381.667 245.626 382.708 247.092 383.75 248.292 C 384.792 249.492 385.833 250.426 386.875 251.053 C 387.917 251.68 388.958 252 390 252 C 391.042 252 392.083 251.68 393.125 251.053 C 394.167 250.426 395.208 249.492 396.25 248.292 C 397.292 247.092 398.333 245.626 399.375 243.957 C 400.417 242.287 401.458 240.414 402.5 238.419 C 403.542 236.424 404.583 234.306 405.625 232.156 C 406.667 230.007 407.708 227.826 408.75 225.708 C 409.792 223.59 410.833 221.534 411.875 219.629 C 412.917 217.724 413.958 215.971 415 214.444 C 416.042 212.916 417.083 211.616 418.125 210.598 C 419.167 209.58 420.208 208.844 421.25 208.423 C 422.292 208.001 423.333 207.894 424.375 208.106 C 425.417 208.318 426.458 208.848 427.5 209.675 C 428.542 210.501 429.583 211.624 430.625 212.994 C 431.667 214.364 432.708 215.982 433.75 217.777 C 434.792 219.573 435.833 221.547 436.875 223.614 C 437.917 225.681 438.958 227.84 440 230" fill="none" stroke="limegreen" stroke-width="2" stroke-linecap="round" stroke-linejoin="round" stroke-dasharray="343.075" stroke-dashoffset="343.075">
  <animate attributeName="stroke-dashoffset" from="343.075" to="0" dur="2.5s" begin="0.5s" calcMode="spline" keySplines="0.42 0.0 0.58 1.0" fill="freeze" />
</path>
  <rect x="93" y="273" width="14" height="14" fill="coral">
  <animateTransform attributeName="transform" type="rotate" values="0 100 280;360 100 280" keyTimes="0;1" dur="1.5s" fill="freeze" repeatCount="indefinite" additive="sum" />
</rect>
  <rect x="163" y="273" width="14" height="14" fill="gold">
  <animateTransform attributeName="transform" type="rotate" values="0 170 280;360 170 280" keyTimes="0;1" dur="1.8s" fill="freeze" repeatCount="indefinite" additive="sum" />
</rect>
  <rect x="233" y="273" width="14" height="14" fill="skyblue">
  <animateTransform attributeName="transform" type="rotate" values="0 240 280;360 240 280" keyTimes="0;1" dur="2.1s" fill="freeze" repeatCount="indefinite" additive="sum" />
</rect>
  <rect x="303" y="273" width="14" height="14" fill="limegreen">
  <animateTransform attributeName="transform" type="rotate" values="0 310 280;360 310 280" keyTimes="0;1" dur="2.4s" fill="freeze" repeatCount="indefinite" additive="sum" />
</rect>
  <rect x="373" y="273" width="14" height="14" fill="mediumpurple">
  <animateTransform attributeName="transform" type="rotate" values="0 380 280;360 380 280" keyTimes="0;1" dur="2.7s" fill="freeze" repeatCount="indefinite" additive="sum" />
</rect>
</svg>