<?xml version="1.0" encoding="UTF-8"?>
<svg xmlns="http://www.w3.org/2000/svg" width="360" height="140" viewBox="0 0 360 140">
  <rect width="100%" height="100%" fill="#1a1a2e" />
  <path d="M 30 55 C 31.5625 57.9452 33.125 60.8901 34.6875 63.7085 C 36.25 66.527 37.8125 69.2182 39.375 71.6671 C 40.9375 74.116 42.5 76.3219 44.0625 78.1903 C 45.625 80.0588 47.1875 81.5893 48.75 82.7164 C 50.3125 83.8435 51.875 84.5669 53.4375 84.8555 C 55 85.1442 56.5625 84.9981 58.125 84.4236 C 59.6875 83.849 61.25 82.846 62.8125 81.4576 C 64.375 80.0693 65.9375 78.2958 67.5 76.2132 C 69.0625 74.1306 70.625 71.7394 72.1875 69.1419 C 73.75 66.5444 75.3125 63.7414 76.875 60.8527 C 78.4375 57.9641 80 54.9905 81.5625 52.0595 C 83.125 49.1284 84.6875 46.2405 86.25 43.5195 C 87.8125 40.7984 89.375 38.2449 90.9375 35.9682 C 92.5 33.6915 94.0625 31.6922 95.625 30.0559 C 97.1875 28.4196 98.75 27.1467 100.312 26.2918 C 101.875 25.4368 103.438 25 105 25 C 106.562 25 108.125 25.4368 109.688 26.2918 C 111.25 27.1467 112.813 28.4196 114.375 30.0559 C 115.937 31.6922 117.5 33.6915 119.062 35.9682 C 120.625 38.2449 122.188 40.7984 123.75 43.5195 C 125.312 46.2405 126.875 49.1284 128.438 52.0595 C 130 54.9905 131.563 57.9641 133.125 60.8527 C 134.687 63.7414 136.25 66.5444 137.812 69.1419 C 139.375 71.7394 140.938 74.1306 142.5 76.2132 C 144.062 78.2958 145.625 80.0693 147.188 81.4576 C 148.75 82.846 150.313 83.849 151.875 84.4236 C 153.437 84.9981 155 85.1442 156.562 84.8555 C 158.125 84.5669 159.687 83.8435 161.25 82.7164 C 162.813 81.5893 164.375 80.0588 165.938 78.1903 C 167.5 76.3219 169.062 74.116 170.625 71.6671 C 172.188 69.2182 173.75 66.527 175.312 63.7085 C 176.875 60.8901 178.437 57.9452 180 55 C 181.563 52.0548 183.125 49.1099 184.688 46.2915 C 186.25 43.473 187.813 40.7818 189.375 38.3329 C 190.937 35.884 192.5 33.6781 194.062 31.8097 C 195.625 29.9412 197.188 28.4107 198.75 27.2836 C 200.312 26.1565 201.875 25.4331 203.438 25.1445 C 205 24.8558 206.563 25.0019 208.125 25.5764 C 209.687 26.151 211.25 27.154 212.812 28.5424 C 214.375 29.9307 215.938 31.7042 217.5 33.7868 C 219.062 35.8694 220.625 38.2606 222.188 40.8581 C 223.75 43.4556 225.313 46.2586 226.875 49.1473 C 228.437 52.0359 230 55.0095 231.562 57.9405 C 233.125 60.8716 234.688 63.7595 236.25 66.4805 C 237.812 69.2016 239.375 71.7551 240.938 74.0318 C 242.5 76.3085 244.063 78.3078 245.625 79.9441 C 247.187 81.5804 248.75 82.8533 250.312 83.7082 C 251.875 84.5632 253.438 85 255 85 C 256.562 85 258.125 84.5632 259.688 83.7082 C 261.25 82.8533 262.813 81.5804 264.375 79.9441 C 265.937 78.3078 267.5 76.3085 269.062 74.0318 C 270.625 71.7551 272.188 69.2016 273.75 66.4805 C 275.312 63.7595 276.875 60.8716 278.438 57.9405 C 280 55.0095 281.563 52.0359 283.125 49.1473 C 284.687 46.2586 286.25 43.4556 287.812 40.8581 C 289.375 38.2606 290.938 35.8694 292.5 33.7868 C 294.062 31.7042 295.625 29.9307 297.188 28.5424 C 298.75 27.154 300.313 26.151 301.875 25.5764 C 303.437 25.0019 305 24.8558 306.562 25.1445 C 308.125 25.4331 309.688 26.1565 311.25 27.2836 C 312.812 28.4107 314.375 29.9412 315.938 31.8097 C 317.5 33.6781 319.063 35.884 320.625 38.3329 C 322.187 40.7818 323.75 43.473 325.312 46.2915 C 326.875 49.1099 328.438 52.0548 330 55" fill="none" stroke="limegreen" stroke-width="3" stroke-linecap="round" stroke-linejoin="round" stroke-dasharray="485.463" stroke-dashoffset="485.463">
  <animate attributeName="stroke-dashoffset" from="485.463" to="0" dur="2.5s" calcMode="spline" keySplines="0.42 0.0 0.58 1.0" fill="freeze" />
</path>
  <text x="180" y="120" font-size="11" font-family="sans-serif" font-style="normal" font-weight="normal" fill="gray" text-anchor="middle" dominant-baseline="middle">.draw(duration=2.5)</text>
</svg>