<?xml version="1.0" encoding="UTF-8"?>
<svg xmlns="http://www.w3.org/2000/svg" width="360" height="140" viewBox="0 0 360 140">
  <rect width="100%" height="100%" fill="#1a1a2e" />
  <path d="M 28.8 56 C 30.375 59.8485 31.95 63.6964 33.525 67.3792 C 35.1 71.0619 36.675 74.5785 38.25 77.7784 C 39.825 80.9782 41.4 83.8606 42.975 86.302 C 44.55 88.7434 46.125 90.7433 47.7 92.2161 C 49.275 93.6888 50.85 94.634 52.425 95.0112 C 54 95.3885 55.575 95.1976 57.15 94.4468 C 58.725 93.696 60.3 92.3855 61.875 90.5713 C 63.45 88.7572 65.025 86.4399 66.6 83.7186 C 68.175 80.9973 69.75 77.8728 71.325 74.4788 C 72.9 71.0847 74.475 67.422 76.05 63.6475 C 77.625 59.873 79.2 55.9876 80.775 52.1577 C 82.35 48.3278 83.925 44.5543 85.5 40.9988 C 87.075 37.4433 88.65 34.1067 90.225 31.1318 C 91.8 28.1569 93.375 25.5445 94.95 23.4064 C 96.525 21.2683 98.1 19.6051 99.675 18.4879 C 101.25 17.3708 102.825 16.8 104.4 16.8 C 105.975 16.8 107.55 17.3708 109.125 18.4879 C 110.7 19.6051 112.275 21.2683 113.85 23.4064 C 115.425 25.5445 117 28.1569 118.575 31.1318 C 120.15 34.1067 121.725 37.4433 123.3 40.9988 C 124.875 44.5543 126.45 48.3278 128.025 52.1577 C 129.6 55.9876 131.175 59.873 132.75 63.6475 C 134.325 67.422 135.9 71.0847 137.475 74.4788 C 139.05 77.8728 140.625 80.9973 142.2 83.7186 C 143.775 86.4399 145.35 88.7572 146.925 90.5713 C 148.5 92.3855 150.075 93.696 151.65 94.4468 C 153.225 95.1976 154.8 95.3885 156.375 95.0112 C 157.95 94.634 159.525 93.6888 161.1 92.2161 C 162.675 90.7433 164.25 88.7434 165.825 86.302 C 167.4 83.8606 168.975 80.9782 170.55 77.7784 C 172.125 74.5785 173.7 71.0619 175.275 67.3792 C 176.85 63.6964 178.425 59.8485 180 56 C 181.575 52.1515 183.15 48.3036 184.725 44.6208 C 186.3 40.9381 187.875 37.4215 189.45 34.2216 C 191.025 31.0218 192.6 28.1394 194.175 25.698 C 195.75 23.2566 197.325 21.2567 198.9 19.7839 C 200.475 18.3112 202.05 17.366 203.625 16.9888 C 205.2 16.6115 206.775 16.8024 208.35 17.5532 C 209.925 18.304 211.5 19.6145 213.075 21.4287 C 214.65 23.2428 216.225 25.5601 217.8 28.2814 C 219.375 31.0027 220.95 34.1272 222.525 37.5212 C 224.1 40.9153 225.675 44.578 227.25 48.3525 C 228.825 52.127 230.4 56.0124 231.975 59.8423 C 233.55 63.6722 235.125 67.4457 236.7 71.0012 C 238.275 74.5567 239.85 77.8933 241.425 80.8682 C 243 83.8431 244.575 86.4555 246.15 88.5936 C 247.725 90.7317 249.3 92.3949 250.875 93.5121 C 252.45 94.6292 254.025 95.2 255.6 95.2 C 257.175 95.2 258.75 94.6292 260.325 93.5121 C 261.9 92.3949 263.475 90.7317 265.05 88.5936 C 266.625 86.4555 268.2 83.8431 269.775 80.8682 C 271.35 77.8933 272.925 74.5567 274.5 71.0012 C 276.075 67.4457 277.65 63.6722 279.225 59.8423 C 280.8 56.0124 282.375 52.127 283.95 48.3525 C 285.525 44.578 287.1 40.9153 288.675 37.5212 C 290.25 34.1272 291.825 31.0027 293.4 28.2814 C 294.975 25.5601 296.55 23.2428 298.125 21.4287 C 299.7 19.6145 301.275 18.304 302.85 17.5532 C 304.425 16.8024 306 16.6115 307.575 16.9888 C 309.15 17.366 310.725 18.3112 312.3 19.7839 C 313.875 21.2567 315.45 23.2566 317.025 25.698 C 318.6 28.1394 320.175 31.0218 321.75 34.2216 C 323.325 37.4215 324.9 40.9381 326.475 44.6208 C 328.05 48.3036 329.625 52.1515 331.2 56" fill="none" stroke="limegreen" stroke-width="3" stroke-linecap="round" stroke-linejoin="round" pathLength="1" stroke-dasharray="1" stroke-dashoffset="1">
  <animate attributeName="stroke-dashoffset" values="1;0;1" keyTimes="0;0.5;1" dur="2.5s" calcMode="spline" keySplines="0.42 0.0 0.58 1.0;0.42 0.0 0.58 1.0" fill="freeze" repeatCount="indefinite" />
</path>
  <text x="180" y="123.2" font-size="10.5" font-family="sans-serif" font-style="normal" font-weight="normal" fill="gray" text-anchor="middle" dominant-baseline="middle">.animate_draw(bounce=True)</text>
</svg>