<?xml version="1.0" encoding="UTF-8"?>
<svg xmlns="http://www.w3.org/2000/svg" width="460" height="300" viewBox="0 0 460 300">
  <rect width="100%" height="100%" fill="#1a1a2e" />
  <path d="M 27.6 36 C 162.533 76.48 297.467 76.48 432.4 36" fill="none" stroke="coral" stroke-width="2" stroke-linecap="round" stroke-linejoin="round" stroke-dasharray="410.792" stroke-dashoffset="410.792">
  <animate attributeName="stroke-dashoffset" values="410.792;0;410.792" keyTimes="0;0.5;1" dur="2.0s" begin="0.3s" calcMode="spline" keySplines="0.42 0.0 0.58 1.0;0.42 0.0 0.58 1.0" fill="freeze" repeatCount="indefinite" />
</path>
  <circle cx="27.6" cy="36" r="3.6" fill="white" />
  <circle cx="432.4" cy="36" r="3.6" fill="white" />
  <rect x="55.2" y="105" width="46" height="48" fill="mediumpurple" stroke="white" stroke-width="1">
  <animateTransform attributeName="transform" values="0 78.2 129;360 78.2 129" keyTimes="0;1" dur="3.0s" fill="freeze" repeatCount="indefinite" type="rotate" additive="sum" />
  <animate attributeName="opacity" values="1;0.3;1" keyTimes="0;0.5;1" dur="2.0s" calcMode="spline" keySplines="0.42 0.0 0.58 1.0;0.42 0.0 0.58 1.0" fill="freeze" repeatCount="indefinite" />
</rect>
  <circle cx="197.8" cy="129" r="7.5" fill="coral">
  <animate attributeName="r" values="7.5;28;7.5" keyTimes="0;0.5;1" dur="1.5s" calcMode="spline" keySplines="0.42 0.0 0.58 1.0;0.42 0.0 0.58 1.0" fill="freeze" repeatCount="indefinite" />
</circle>
  <circle cx="340.4" cy="129" r="18" fill="gold">
  <animate attributeName="opacity" values="1;0;1" keyTimes="0;0.5;1" dur="3.0s" calcMode="spline" keySplines="0.42 0.0 0.58 1.0;0.42 0.0 0.58 1.0" fill="freeze" repeatCount="indefinite" />
</circle>
  <path d="M 27.6 210 C 28.6063 212.187 29.6125 214.375 30.6187 216.562 C 31.625 218.75 32.6313 220.938 33.6375 223.125 C 34.6437 225.312 35.65 227.5 36.6562 229.688 C 37.6625 231.875 38.6688 234.063 39.675 236.25 C 40.6812 238.437 41.6875 240.625 42.6937 242.812 C 43.7 245 44.7062 247.188 45.7125 249.375 C 46.7188 251.562 47.725 250.25 48.7312 248.062 C 49.7375 245.875 50.7438 243.687 51.75 241.5 C 52.7562 239.313 53.7625 237.125 54.7687 234.938 C 55.775 232.75 56.7813 230.562 57.7875 228.375 C 58.7937 226.188 59.8 224 60.8062 221.812 C 61.8125 219.625 62.8187 217.438 63.825 215.25 C 64.8313 213.062 65.8375 209.125 66.8438 211.312 C 67.85 213.5 68.8562 215.687 69.8625 217.875 C 70.8688 220.063 71.875 222.25 72.8812 224.438 C 73.8875 226.625 74.8937 228.813 75.9 231 C 76.9063 233.187 77.9125 235.375 78.9187 237.562 C 79.925 239.75 80.9312 241.937 81.9375 244.125 C 82.9438 246.313 83.95 248.5 84.9562 250.688 C 85.9625 252.875 86.9688 248.938 87.975 246.75 C 88.9812 244.562 89.9875 242.375 90.9937 240.188 C 92 238 93.0062 235.812 94.0125 233.625 C 95.0188 231.438 96.025 229.25 97.0312 227.062 C 98.0375 224.875 99.0437 222.688 100.05 220.5 C 101.056 218.312 102.062 216.125 103.069 213.938 C 104.075 211.75 105.081 210.438 106.087 212.625 C 107.094 214.812 108.1 217 109.106 219.188 C 110.112 221.375 111.119 223.563 112.125 225.75 C 113.131 227.937 114.137 230.125 115.144 232.312 C 116.15 234.5 117.156 236.688 118.162 238.875 C 119.169 241.062 120.175 243.25 121.181 245.438 C 122.188 247.625 123.194 252 124.2 252 C 125.206 252 126.213 247.625 127.219 245.438 C 128.225 243.25 129.231 241.063 130.237 238.875 C 131.244 236.687 132.25 234.5 133.256 232.312 C 134.262 230.125 135.269 227.938 136.275 225.75 C 137.281 223.562 138.287 221.375 139.294 219.188 C 140.3 217 141.306 214.813 142.312 212.625 C 143.319 210.437 144.325 211.75 145.331 213.938 C 146.338 216.125 147.344 218.312 148.35 220.5 C 149.356 222.688 150.362 224.875 151.369 227.062 C 152.375 229.25 153.381 231.437 154.387 233.625 C 155.394 235.813 156.4 238 157.406 240.188 C 158.413 242.375 159.419 244.562 160.425 246.75 C 161.431 248.938 162.437 252.875 163.444 250.688 C 164.45 248.5 165.456 246.313 166.462 244.125 C 167.469 241.937 168.475 239.75 169.481 237.562 C 170.487 235.375 171.494 233.188 172.5 231 C 173.506 228.812 174.513 226.625 175.519 224.438 C 176.525 222.25 177.531 220.063 178.537 217.875 C 179.544 215.687 180.55 213.5 181.556 211.312 C 182.563 209.125 183.569 213.062 184.575 215.25 C 185.581 217.438 186.587 219.625 187.594 221.812 C 188.6 224 189.606 226.187 190.612 228.375 C 191.619 230.563 192.625 232.75 193.631 234.938 C 194.638 237.125 195.644 239.312 196.65 241.5 C 197.656 243.688 198.663 245.875 199.669 248.062 C 200.675 250.25 201.681 251.563 202.687 249.375 C 203.694 247.187 204.7 245 205.706 242.812 C 206.712 240.625 207.719 238.438 208.725 236.25 C 209.731 234.062 210.737 231.875 211.744 229.688 C 212.75 227.5 213.756 225.313 214.762 223.125 C 215.769 220.937 216.775 218.75 217.781 216.562 C 218.788 214.375 219.794 212.188 220.8 210" fill="none" stroke="skyblue" stroke-width="2" stroke-linecap="round" stroke-linejoin="round" stroke-dasharray="447.343" stroke-dashoffset="447.343">
  <animate attributeName="stroke-dashoffset" from="447.343" to="0" dur="2.5s" calcMode="spline" keySplines="0.42 0.0 0.58 1.0" fill="freeze" />
</path>
  <path d="M 239.2 231 C 240.254 233.062 241.308 235.123 242.363 237.096 C 243.417 239.069 244.471 240.953 245.525 242.667 C 246.579 244.381 247.633 245.925 248.688 247.233 C 249.742 248.541 250.796 249.613 251.85 250.401 C 252.904 251.19 253.958 251.697 255.013 251.899 C 256.067 252.101 257.121 251.999 258.175 251.596 C 259.229 251.194 260.283 250.492 261.338 249.52 C 262.392 248.548 263.446 247.307 264.5 245.849 C 265.554 244.391 266.608 242.718 267.663 240.899 C 268.717 239.081 269.771 237.119 270.825 235.097 C 271.879 233.075 272.933 230.993 273.988 228.942 C 275.042 226.89 276.096 224.868 277.15 222.964 C 278.204 221.059 279.258 219.271 280.312 217.678 C 281.367 216.084 282.421 214.685 283.475 213.539 C 284.529 212.394 285.583 211.503 286.637 210.904 C 287.692 210.306 288.746 210 289.8 210 C 290.854 210 291.908 210.306 292.962 210.904 C 294.017 211.503 295.071 212.394 296.125 213.539 C 297.179 214.685 298.233 216.084 299.288 217.678 C 300.342 219.271 301.396 221.059 302.45 222.964 C 303.504 224.868 304.558 226.89 305.613 228.942 C 306.667 230.993 307.721 233.075 308.775 235.097 C 309.829 237.119 310.883 239.081 311.938 240.899 C 312.992 242.718 314.046 244.391 315.1 245.849 C 316.154 247.307 317.208 248.548 318.262 249.52 C 319.317 250.492 320.371 251.194 321.425 251.596 C 322.479 251.999 323.533 252.101 324.587 251.899 C 325.642 251.697 326.696 251.19 327.75 250.401 C 328.804 249.613 329.858 248.541 330.913 247.233 C 331.967 245.925 333.021 244.381 334.075 242.667 C 335.129 240.953 336.183 239.069 337.238 237.096 C 338.292 235.123 339.346 233.062 340.4 231 C 341.454 228.938 342.508 226.877 343.562 224.904 C 344.617 222.931 345.671 221.047 346.725 219.333 C 347.779 217.619 348.833 216.075 349.887 214.767 C 350.942 213.459 351.996 212.387 353.05 211.599 C 354.104 210.81 355.158 210.303 356.212 210.101 C 357.267 209.899 358.321 210.001 359.375 210.404 C 360.429 210.806 361.483 211.508 362.537 212.48 C 363.592 213.452 364.646 214.693 365.7 216.151 C 366.754 217.609 367.808 219.282 368.862 221.101 C 369.917 222.919 370.971 224.881 372.025 226.903 C 373.079 228.925 374.133 231.007 375.188 233.058 C 376.242 235.11 377.296 237.132 378.35 239.036 C 379.404 240.941 380.458 242.729 381.512 244.322 C 382.567 245.916 383.621 247.315 384.675 248.461 C 385.729 249.606 386.783 250.497 387.837 251.096 C 388.892 251.694 389.946 252 391 252 C 392.054 252 393.108 251.694 394.162 251.096 C 395.217 250.497 396.271 249.606 397.325 248.461 C 398.379 247.315 399.433 245.916 400.487 244.322 C 401.542 242.729 402.596 240.941 403.65 239.036 C 404.704 237.132 405.758 235.11 406.812 233.058 C 407.867 231.007 408.921 228.925 409.975 226.903 C 411.029 224.881 412.083 222.919 413.137 221.101 C 414.192 219.282 415.246 217.609 416.3 216.151 C 417.354 214.693 418.408 213.452 419.462 212.48 C 420.517 211.508 421.571 210.806 422.625 210.404 C 423.679 210.001 424.733 209.899 425.787 210.101 C 426.842 210.303 427.896 210.81 428.95 211.599 C 430.004 212.387 431.058 213.459 432.112 214.767 C 433.167 216.075 434.221 217.619 435.275 219.333 C 436.329 221.047 437.383 222.931 438.438 224.904 C 439.492 226.877 440.546 228.938 441.6 231" fill="none" stroke="limegreen" stroke-width="2" stroke-linecap="round" stroke-linejoin="round" stroke-dasharray="334.844" stroke-dashoffset="334.844">
  <animate attributeName="stroke-dashoffset" values="334.844;0;334.844" keyTimes="0;0.5;1" dur="2.5s" begin="0.5s" calcMode="spline" keySplines="0.42 0.0 0.58 1.0;0.42 0.0 0.58 1.0" fill="freeze" repeatCount="indefinite" />
</path>
  <rect x="94.3" y="272.25" width="13.8" height="13.5" fill="coral">
  <animateTransform attributeName="transform" values="0 101.2 279;360 101.2 279" keyTimes="0;1" dur="1.5s" fill="freeze" repeatCount="indefinite" type="rotate" additive="sum" />
</rect>
  <rect x="163.3" y="272.25" width="13.8" height="13.5" fill="gold">
  <animateTransform attributeName="transform" values="0 170.2 279;360 170.2 279" keyTimes="0;1" dur="1.8s" fill="freeze" repeatCount="indefinite" type="rotate" additive="sum" />
</rect>
  <rect x="232.3" y="272.25" width="13.8" height="13.5" fill="skyblue">
  <animateTransform attributeName="transform" values="0 239.2 279;360 239.2 279" keyTimes="0;1" dur="2.1s" fill="freeze" repeatCount="indefinite" type="rotate" additive="sum" />
</rect>
  <rect x="301.3" y="272.25" width="13.8" height="13.5" fill="limegreen">
  <animateTransform attributeName="transform" values="0 308.2 279;360 308.2 279" keyTimes="0;1" dur="2.4s" fill="freeze" repeatCount="indefinite" type="rotate" additive="sum" />
</rect>
  <rect x="370.3" y="272.25" width="13.8" height="13.5" fill="mediumpurple">
  <animateTransform attributeName="transform" values="0 377.2 279;360 377.2 279" keyTimes="0;1" dur="2.7s" fill="freeze" repeatCount="indefinite" type="rotate" additive="sum" />
</rect>
</svg>