<?xml version="1.0" encoding="UTF-8"?>
<svg xmlns="http://www.w3.org/2000/svg" width="320" height="320" viewBox="0 0 320 320">
  <rect width="100%" height="100%" fill="#0a1628" />
  <circle cx="40.0" cy="8.0" r="0.6612304033038087" fill="#00d9ff" opacity="0.36612304033038084" />
  <circle cx="56.0" cy="8.0" r="0.9580632244287769" fill="#00d9ff" opacity="0.39580632244287767" />
  <circle cx="72.0" cy="8.0" r="1.227652124135275" fill="#00d9ff" opacity="0.4227652124135275" />
  <circle cx="88.0" cy="8.0" r="1.466014094705336" fill="#00d9ff" opacity="0.44660140947053356" />
  <circle cx="104.0" cy="8.0" r="1.6689588258952646" fill="#00d9ff" opacity="0.4668958825895264" />
  <circle cx="120.0" cy="8.0" r="1.8323119289183096" fill="#00d9ff" opacity="0.4832311928918309" />
  <circle cx="136.0" cy="8.0" r="1.9522282143504155" fill="#00d9ff" opacity="0.4952228214350415" />
  <circle cx="152.0" cy="8.0" r="2.025565358756837" fill="#00d9ff" opacity="0.5025565358756836" />
  <circle cx="168.0" cy="8.0" r="2.0502525316941678" fill="#00d9ff" opacity="0.5050252531694168" />
  <circle cx="184.0" cy="8.0" r="2.025565358756837" fill="#00d9ff" opacity="0.5025565358756836" />
  <circle cx="200.0" cy="8.0" r="1.9522282143504155" fill="#00d9ff" opacity="0.4952228214350415" />
  <circle cx="216.0" cy="8.0" r="1.8323119289183096" fill="#00d9ff" opacity="0.4832311928918309" />
  <circle cx="232.0" cy="8.0" r="1.6689588258952646" fill="#00d9ff" opacity="0.4668958825895264" />
  <circle cx="248.0" cy="8.0" r="1.466014094705336" fill="#00d9ff" opacity="0.44660140947053356" />
  <circle cx="264.0" cy="8.0" r="1.227652124135275" fill="#00d9ff" opacity="0.4227652124135275" />
  <circle cx="280.0" cy="8.0" r="0.9580632244287769" fill="#00d9ff" opacity="0.39580632244287767" />
  <circle cx="296.0" cy="8.0" r="0.6612304033038087" fill="#00d9ff" opacity="0.36612304033038084" />
  <circle cx="24.0" cy="24.0" r="0.7000000000000006" fill="#00d9ff" opacity="0.37000000000000005" />
  <circle cx="40.0" cy="24.0" r="1.03971477192576" fill="#00d9ff" opacity="0.403971477192576" />
  <circle cx="56.0" cy="24.0" r="1.3564195761910156" fill="#00d9ff" opacity="0.4356419576191015" />
  <circle cx="72.0" cy="24.0" r="1.646029510727576" fill="#00d9ff" opacity="0.46460295107275756" />
  <circle cx="88.0" cy="24.0" r="1.903923077503637" fill="#00d9ff" opacity="0.4903923077503637" />
  <circle cx="104.0" cy="24.0" r="2.125064102985559" fill="#00d9ff" opacity="0.5125064102985558" />
  <circle cx="120.0" cy="24.0" r="2.3042572472504417" fill="#00d9ff" opacity="0.5304257247250441" />
  <circle cx="136.0" cy="24.0" r="2.4365583163581457" fill="#00d9ff" opacity="0.5436558316358145" />
  <circle cx="152.0" cy="24.0" r="2.5178130337970055" fill="#00d9ff" opacity="0.5517813033797005" />
  <circle cx="168.0" cy="24.0" r="2.545227278524751" fill="#00d9ff" opacity="0.5545227278524751" />
  <circle cx="184.0" cy="24.0" r="2.5178130337970055" fill="#00d9ff" opacity="0.5517813033797005" />
  <circle cx="200.0" cy="24.0" r="2.4365583163581457" fill="#00d9ff" opacity="0.5436558316358145" />
  <circle cx="216.0" cy="24.0" r="2.3042572472504417" fill="#00d9ff" opacity="0.5304257247250441" />
  <circle cx="232.0" cy="24.0" r="2.125064102985559" fill="#00d9ff" opacity="0.5125064102985558" />
  <circle cx="248.0" cy="24.0" r="1.903923077503637" fill="#00d9ff" opacity="0.4903923077503637" />
  <circle cx="264.0" cy="24.0" r="1.646029510727576" fill="#00d9ff" opacity="0.46460295107275756" />
  <circle cx="280.0" cy="24.0" r="1.3564195761910156" fill="#00d9ff" opacity="0.4356419576191015" />
  <circle cx="296.0" cy="24.0" r="1.03971477192576" fill="#00d9ff" opacity="0.403971477192576" />
  <circle cx="312.0" cy="24.0" r="0.7000000000000006" fill="#00d9ff" opacity="0.37000000000000005" />
  <circle cx="8.0" cy="40.0" r="0.6612304033038087" fill="#00d9ff" opacity="0.36612304033038084" />
  <circle cx="24.0" cy="40.0" r="1.03971477192576" fill="#00d9ff" opacity="0.403971477192576" />
  <circle cx="40.0" cy="40.0" r="1.3999999999999997" fill="#00d9ff" opacity="0.43999999999999995" />
  <circle cx="56.0" cy="40.0" r="1.7383462675694819" fill="#00d9ff" opacity="0.47383462675694815" />
  <circle cx="72.0" cy="40.0" r="2.0502525316941678" fill="#00d9ff" opacity="0.5050252531694168" />
  <circle cx="88.0" cy="40.0" r="2.3304175775557834" fill="#00d9ff" opacity="0.5330417577555784" />
  <circle cx="104.0" cy="40.0" r="2.572811275764269" fill="#00d9ff" opacity="0.5572811275764269" />
  <circle cx="120.0" cy="40.0" r="2.7709339092419003" fill="#00d9ff" opacity="0.57709339092419" />
  <circle cx="136.0" cy="40.0" r="2.91833367360829" fill="#00d9ff" opacity="0.5918333673608289" />
  <circle cx="152.0" cy="40.0" r="3.0093860121530174" fill="#00d9ff" opacity="0.6009386012153017" />
  <circle cx="168.0" cy="40.0" r="3.0402020253553337" fill="#00d9ff" opacity="0.6040202025355333" />
  <circle cx="184.0" cy="40.0" r="3.0093860121530174" fill="#00d9ff" opacity="0.6009386012153017" />
  <circle cx="200.0" cy="40.0" r="2.91833367360829" fill="#00d9ff" opacity="0.5918333673608289" />
  <circle cx="216.0" cy="40.0" r="2.7709339092419003" fill="#00d9ff" opacity="0.57709339092419" />
  <circle cx="232.0" cy="40.0" r="2.572811275764269" fill="#00d9ff" opacity="0.5572811275764269" />
  <circle cx="248.0" cy="40.0" r="2.3304175775557834" fill="#00d9ff" opacity="0.5330417577555784" />
  <circle cx="264.0" cy="40.0" r="2.0502525316941678" fill="#00d9ff" opacity="0.5050252531694168" />
  <circle cx="280.0" cy="40.0" r="1.7383462675694819" fill="#00d9ff" opacity="0.47383462675694815" />
  <circle cx="296.0" cy="40.0" r="1.3999999999999997" fill="#00d9ff" opacity="0.43999999999999995" />
  <circle cx="312.0" cy="40.0" r="1.03971477192576" fill="#00d9ff" opacity="0.403971477192576" />
  <circle cx="8.0" cy="56.0" r="0.9580632244287769" fill="#00d9ff" opacity="0.39580632244287767" />
  <circle cx="24.0" cy="56.0" r="1.3564195761910156" fill="#00d9ff" opacity="0.4356419576191015" />
  <circle cx="40.0" cy="56.0" r="1.7383462675694819" fill="#00d9ff" opacity="0.47383462675694815" />
  <circle cx="56.0" cy="56.0" r="2.1000000000000005" fill="#00d9ff" opacity="0.51" />
  <circle cx="72.0" cy="56.0" r="2.4365583163581457" fill="#00d9ff" opacity="0.5436558316358145" />
  <circle cx="88.0" cy="56.0" r="2.7420662287912467" fill="#00d9ff" opacity="0.5742066228791246" />
  <circle cx="104.0" cy="56.0" r="3.0093860121530174" fill="#00d9ff" opacity="0.6009386012153017" />
  <circle cx="120.0" cy="56.0" r="3.2303846350058474" fill="#00d9ff" opacity="0.6230384635005848" />
  <circle cx="136.0" cy="56.0" r="3.3965294506545503" fill="#00d9ff" opacity="0.6396529450654549" />
  <circle cx="152.0" cy="56.0" r="3.5" fill="#00d9ff" opacity="0.6499999999999999" />
  <circle cx="168.0" cy="56.0" r="3.5351767721859177" fill="#00d9ff" opacity="0.6535176772185918" />
  <circle cx="184.0" cy="56.0" r="3.5" fill="#00d9ff" opacity="0.6499999999999999" />
  <circle cx="200.0" cy="56.0" r="3.3965294506545503" fill="#00d9ff" opacity="0.6396529450654549" />
  <circle cx="216.0" cy="56.0" r="3.2303846350058474" fill="#00d9ff" opacity="0.6230384635005848" />
  <circle cx="232.0" cy="56.0" r="3.0093860121530174" fill="#00d9ff" opacity="0.6009386012153017" />
  <circle cx="248.0" cy="56.0" r="2.7420662287912467" fill="#00d9ff" opacity="0.5742066228791246" />
  <circle cx="264.0" cy="56.0" r="2.4365583163581457" fill="#00d9ff" opacity="0.5436558316358145" />
  <circle cx="280.0" cy="56.0" r="2.1000000000000005" fill="#00d9ff" opacity="0.51" />
  <circle cx="296.0" cy="56.0" r="1.7383462675694819" fill="#00d9ff" opacity="0.47383462675694815" />
  <circle cx="312.0" cy="56.0" r="1.3564195761910156" fill="#00d9ff" opacity="0.4356419576191015" />
  <circle cx="8.0" cy="72.0" r="1.227652124135275" fill="#00d9ff" opacity="0.4227652124135275" />
  <circle cx="24.0" cy="72.0" r="1.646029510727576" fill="#00d9ff" opacity="0.46460295107275756" />
  <circle cx="40.0" cy="72.0" r="2.0502525316941678" fill="#00d9ff" opacity="0.5050252531694168" />
  <circle cx="56.0" cy="72.0" r="2.4365583163581457" fill="#00d9ff" opacity="0.5436558316358145" />
  <circle cx="72.0" cy="72.0" r="2.8000000000000003" fill="#00d9ff" opacity="0.58" />
  <circle cx="88.0" cy="72.0" r="3.134123643984459" fill="#00d9ff" opacity="0.6134123643984458" />
  <circle cx="104.0" cy="72.0" r="3.4306863404850514" fill="#00d9ff" opacity="0.643068634048505" />
  <circle cx="120.0" cy="72.0" r="3.679608456823202" fill="#00d9ff" opacity="0.6679608456823202" />
  <circle cx="136.0" cy="72.0" r="3.869504831500295" fill="#00d9ff" opacity="0.6869504831500295" />
  <circle cx="152.0" cy="72.0" r="3.98918615653508" fill="#00d9ff" opacity="0.698918615653508" />
  <circle cx="168.0" cy="72.0" r="4.0301515190165" fill="#00d9ff" opacity="0.70301515190165" />
  <circle cx="184.0" cy="72.0" r="3.98918615653508" fill="#00d9ff" opacity="0.698918615653508" />
  <circle cx="200.0" cy="72.0" r="3.869504831500295" fill="#00d9ff" opacity="0.6869504831500295" />
  <circle cx="216.0" cy="72.0" r="3.679608456823202" fill="#00d9ff" opacity="0.6679608456823202" />
  <circle cx="232.0" cy="72.0" r="3.4306863404850514" fill="#00d9ff" opacity="0.643068634048505" />
  <circle cx="248.0" cy="72.0" r="3.134123643984459" fill="#00d9ff" opacity="0.6134123643984458" />
  <circle cx="264.0" cy="72.0" r="2.8000000000000003" fill="#00d9ff" opacity="0.58" />
  <circle cx="280.0" cy="72.0" r="2.4365583163581457" fill="#00d9ff" opacity="0.5436558316358145" />
  <circle cx="296.0" cy="72.0" r="2.0502525316941678" fill="#00d9ff" opacity="0.5050252531694168" />
  <circle cx="312.0" cy="72.0" r="1.646029510727576" fill="#00d9ff" opacity="0.46460295107275756" />
  <circle cx="8.0" cy="88.0" r="1.466014094705336" fill="#00d9ff" opacity="0.44660140947053356" />
  <circle cx="24.0" cy="88.0" r="1.903923077503637" fill="#00d9ff" opacity="0.4903923077503637" />
  <circle cx="40.0" cy="88.0" r="2.3304175775557834" fill="#00d9ff" opacity="0.5330417577555784" />
  <circle cx="56.0" cy="88.0" r="2.7420662287912467" fill="#00d9ff" opacity="0.5742066228791246" />
  <circle cx="72.0" cy="88.0" r="3.134123643984459" fill="#00d9ff" opacity="0.6134123643984458" />
  <circle cx="88.0" cy="88.0" r="3.5" fill="#00d9ff" opacity="0.6499999999999999" />
  <circle cx="104.0" cy="88.0" r="3.830615201651904" fill="#00d9ff" opacity="0.6830615201651904" />
  <circle cx="120.0" cy="88.0" r="4.113826062067638" fill="#00d9ff" opacity="0.7113826062067637" />
  <circle cx="136.0" cy="88.0" r="4.3344794129476325" fill="#00d9ff" opacity="0.7334479412947632" />
  <circle cx="152.0" cy="88.0" r="4.476114107175207" fill="#00d9ff" opacity="0.7476114107175207" />
  <circle cx="168.0" cy="88.0" r="4.525126265847084" fill="#00d9ff" opacity="0.7525126265847084" />
  <circle cx="184.0" cy="88.0" r="4.476114107175207" fill="#00d9ff" opacity="0.7476114107175207" />
  <circle cx="200.0" cy="88.0" r="4.3344794129476325" fill="#00d9ff" opacity="0.7334479412947632" />
  <circle cx="216.0" cy="88.0" r="4.113826062067638" fill="#00d9ff" opacity="0.7113826062067637" />
  <circle cx="232.0" cy="88.0" r="3.830615201651904" fill="#00d9ff" opacity="0.6830615201651904" />
  <circle cx="248.0" cy="88.0" r="3.5" fill="#00d9ff" opacity="0.6499999999999999" />
  <circle cx="264.0" cy="88.0" r="3.134123643984459" fill="#00d9ff" opacity="0.6134123643984458" />
  <circle cx="280.0" cy="88.0" r="2.7420662287912467" fill="#00d9ff" opacity="0.5742066228791246" />
  <circle cx="296.0" cy="88.0" r="2.3304175775557834" fill="#00d9ff" opacity="0.5330417577555784" />
  <circle cx="312.0" cy="88.0" r="1.903923077503637" fill="#00d9ff" opacity="0.4903923077503637" />
  <circle cx="8.0" cy="104.0" r="1.6689588258952646" fill="#00d9ff" opacity="0.4668958825895264" />
  <circle cx="24.0" cy="104.0" r="2.125064102985559" fill="#00d9ff" opacity="0.5125064102985558" />
  <circle cx="40.0" cy="104.0" r="2.572811275764269" fill="#00d9ff" opacity="0.5572811275764269" />
  <circle cx="56.0" cy="104.0" r="3.0093860121530174" fill="#00d9ff" opacity="0.6009386012153017" />
  <circle cx="72.0" cy="104.0" r="3.4306863404850514" fill="#00d9ff" opacity="0.643068634048505" />
  <circle cx="88.0" cy="104.0" r="3.830615201651904" fill="#00d9ff" opacity="0.6830615201651904" />
  <circle cx="104.0" cy="104.0" r="4.2" fill="#00d9ff" opacity="0.72" />
  <circle cx="120.0" cy="104.0" r="4.525126265847084" fill="#00d9ff" opacity="0.7525126265847084" />
  <circle cx="136.0" cy="104.0" r="4.786405637882134" fill="#00d9ff" opacity="0.7786405637882133" />
  <circle cx="152.0" cy="104.0" r="4.959166836804145" fill="#00d9ff" opacity="0.7959166836804145" />
  <circle cx="168.0" cy="104.0" r="5.020101012677667" fill="#00d9ff" opacity="0.8020101012677667" />
  <circle cx="184.0" cy="104.0" r="4.959166836804145" fill="#00d9ff" opacity="0.7959166836804145" />
  <circle cx="200.0" cy="104.0" r="4.786405637882134" fill="#00d9ff" opacity="0.7786405637882133" />
  <circle cx="216.0" cy="104.0" r="4.525126265847084" fill="#00d9ff" opacity="0.7525126265847084" />
  <circle cx="232.0" cy="104.0" r="4.2" fill="#00d9ff" opacity="0.72" />
  <circle cx="248.0" cy="104.0" r="3.830615201651904" fill="#00d9ff" opacity="0.6830615201651904" />
  <circle cx="264.0" cy="104.0" r="3.4306863404850514" fill="#00d9ff" opacity="0.643068634048505" />
  <circle cx="280.0" cy="104.0" r="3.0093860121530174" fill="#00d9ff" opacity="0.6009386012153017" />
  <circle cx="296.0" cy="104.0" r="2.572811275764269" fill="#00d9ff" opacity="0.5572811275764269" />
  <circle cx="312.0" cy="104.0" r="2.125064102985559" fill="#00d9ff" opacity="0.5125064102985558" />
  <circle cx="8.0" cy="120.0" r="1.8323119289183096" fill="#00d9ff" opacity="0.4832311928918309" />
  <circle cx="24.0" cy="120.0" r="2.3042572472504417" fill="#00d9ff" opacity="0.5304257247250441" />
  <circle cx="40.0" cy="120.0" r="2.7709339092419003" fill="#00d9ff" opacity="0.57709339092419" />
  <circle cx="56.0" cy="120.0" r="3.2303846350058474" fill="#00d9ff" opacity="0.6230384635005848" />
  <circle cx="72.0" cy="120.0" r="3.679608456823202" fill="#00d9ff" opacity="0.6679608456823202" />
  <circle cx="88.0" cy="120.0" r="4.113826062067638" fill="#00d9ff" opacity="0.7113826062067637" />
  <circle cx="104.0" cy="120.0" r="4.525126265847084" fill="#00d9ff" opacity="0.7525126265847084" />
  <circle cx="120.0" cy="120.0" r="4.8999999999999995" fill="#00d9ff" opacity="0.7899999999999999" />
  <circle cx="136.0" cy="120.0" r="5.215343170242526" fill="#00d9ff" opacity="0.8215343170242526" />
  <circle cx="152.0" cy="120.0" r="5.434752415750148" fill="#00d9ff" opacity="0.8434752415750146" />
  <circle cx="168.0" cy="120.0" r="5.51507575950825" fill="#00d9ff" opacity="0.851507575950825" />
  <circle cx="184.0" cy="120.0" r="5.434752415750148" fill="#00d9ff" opacity="0.8434752415750146" />
  <circle cx="200.0" cy="120.0" r="5.215343170242526" fill="#00d9ff" opacity="0.8215343170242526" />
  <circle cx="216.0" cy="120.0" r="4.8999999999999995" fill="#00d9ff" opacity="0.7899999999999999" />
  <circle cx="232.0" cy="120.0" r="4.525126265847084" fill="#00d9ff" opacity="0.7525126265847084" />
  <circle cx="248.0" cy="120.0" r="4.113826062067638" fill="#00d9ff" opacity="0.7113826062067637" />
  <circle cx="264.0" cy="120.0" r="3.679608456823202" fill="#00d9ff" opacity="0.6679608456823202" />
  <circle cx="280.0" cy="120.0" r="3.2303846350058474" fill="#00d9ff" opacity="0.6230384635005848" />
  <circle cx="296.0" cy="120.0" r="2.7709339092419003" fill="#00d9ff" opacity="0.57709339092419" />
  <circle cx="312.0" cy="120.0" r="2.3042572472504417" fill="#00d9ff" opacity="0.5304257247250441" />
  <circle cx="8.0" cy="136.0" r="1.9522282143504155" fill="#00d9ff" opacity="0.4952228214350415" />
  <circle cx="24.0" cy="136.0" r="2.4365583163581457" fill="#00d9ff" opacity="0.5436558316358145" />
  <circle cx="40.0" cy="136.0" r="2.91833367360829" fill="#00d9ff" opacity="0.5918333673608289" />
  <circle cx="56.0" cy="136.0" r="3.3965294506545503" fill="#00d9ff" opacity="0.6396529450654549" />
  <circle cx="72.0" cy="136.0" r="3.869504831500295" fill="#00d9ff" opacity="0.6869504831500295" />
  <circle cx="88.0" cy="136.0" r="4.3344794129476325" fill="#00d9ff" opacity="0.7334479412947632" />
  <circle cx="104.0" cy="136.0" r="4.786405637882134" fill="#00d9ff" opacity="0.7786405637882133" />
  <circle cx="120.0" cy="136.0" r="5.215343170242526" fill="#00d9ff" opacity="0.8215343170242526" />
  <circle cx="136.0" cy="136.0" r="5.6000000000000005" fill="#00d9ff" opacity="0.8599999999999999" />
  <circle cx="152.0" cy="136.0" r="5.893202818941067" fill="#00d9ff" opacity="0.8893202818941066" />
  <circle cx="168.0" cy="136.0" r="6.010050506338834" fill="#00d9ff" opacity="0.9010050506338834" />
  <circle cx="184.0" cy="136.0" r="5.893202818941067" fill="#00d9ff" opacity="0.8893202818941066" />
  <circle cx="200.0" cy="136.0" r="5.6000000000000005" fill="#00d9ff" opacity="0.8599999999999999" />
  <circle cx="216.0" cy="136.0" r="5.215343170242526" fill="#00d9ff" opacity="0.8215343170242526" />
  <circle cx="232.0" cy="136.0" r="4.786405637882134" fill="#00d9ff" opacity="0.7786405637882133" />
  <circle cx="248.0" cy="136.0" r="4.3344794129476325" fill="#00d9ff" opacity="0.7334479412947632" />
  <circle cx="264.0" cy="136.0" r="3.869504831500295" fill="#00d9ff" opacity="0.6869504831500295" />
  <circle cx="280.0" cy="136.0" r="3.3965294506545503" fill="#00d9ff" opacity="0.6396529450654549" />
  <circle cx="296.0" cy="136.0" r="2.91833367360829" fill="#00d9ff" opacity="0.5918333673608289" />
  <circle cx="312.0" cy="136.0" r="2.4365583163581457" fill="#00d9ff" opacity="0.5436558316358145" />
  <circle cx="8.0" cy="152.0" r="2.025565358756837" fill="#00d9ff" opacity="0.5025565358756836" />
  <circle cx="24.0" cy="152.0" r="2.5178130337970055" fill="#00d9ff" opacity="0.5517813033797005" />
  <circle cx="40.0" cy="152.0" r="3.0093860121530174" fill="#00d9ff" opacity="0.6009386012153017" />
  <circle cx="56.0" cy="152.0" r="3.5" fill="#00d9ff" opacity="0.6499999999999999" />
  <circle cx="72.0" cy="152.0" r="3.98918615653508" fill="#00d9ff" opacity="0.698918615653508" />
  <circle cx="88.0" cy="152.0" r="4.476114107175207" fill="#00d9ff" opacity="0.7476114107175207" />
  <circle cx="104.0" cy="152.0" r="4.959166836804145" fill="#00d9ff" opacity="0.7959166836804145" />
  <circle cx="120.0" cy="152.0" r="5.434752415750148" fill="#00d9ff" opacity="0.8434752415750146" />
  <circle cx="136.0" cy="152.0" r="5.893202818941067" fill="#00d9ff" opacity="0.8893202818941066" />
  <circle cx="152.0" cy="152.0" r="6.3" fill="#00d9ff" opacity="0.9299999999999999" />
  <circle cx="168.0" cy="152.0" r="6.505025253169417" fill="#00d9ff" opacity="0.9505025253169417" />
  <circle cx="184.0" cy="152.0" r="6.3" fill="#00d9ff" opacity="0.9299999999999999" />
  <circle cx="200.0" cy="152.0" r="5.893202818941067" fill="#00d9ff" opacity="0.8893202818941066" />
  <circle cx="216.0" cy="152.0" r="5.434752415750148" fill="#00d9ff" opacity="0.8434752415750146" />
  <circle cx="232.0" cy="152.0" r="4.959166836804145" fill="#00d9ff" opacity="0.7959166836804145" />
  <circle cx="248.0" cy="152.0" r="4.476114107175207" fill="#00d9ff" opacity="0.7476114107175207" />
  <circle cx="264.0" cy="152.0" r="3.98918615653508" fill="#00d9ff" opacity="0.698918615653508" />
  <circle cx="280.0" cy="152.0" r="3.5" fill="#00d9ff" opacity="0.6499999999999999" />
  <circle cx="296.0" cy="152.0" r="3.0093860121530174" fill="#00d9ff" opacity="0.6009386012153017" />
  <circle cx="312.0" cy="152.0" r="2.5178130337970055" fill="#00d9ff" opacity="0.5517813033797005" />
  <circle cx="8.0" cy="168.0" r="2.0502525316941678" fill="#00d9ff" opacity="0.5050252531694168" />
  <circle cx="24.0" cy="168.0" r="2.545227278524751" fill="#00d9ff" opacity="0.5545227278524751" />
  <circle cx="40.0" cy="168.0" r="3.0402020253553337" fill="#00d9ff" opacity="0.6040202025355333" />
  <circle cx="56.0" cy="168.0" r="3.5351767721859177" fill="#00d9ff" opacity="0.6535176772185918" />
  <circle cx="72.0" cy="168.0" r="4.0301515190165" fill="#00d9ff" opacity="0.70301515190165" />
  <circle cx="88.0" cy="168.0" r="4.525126265847084" fill="#00d9ff" opacity="0.7525126265847084" />
  <circle cx="104.0" cy="168.0" r="5.020101012677667" fill="#00d9ff" opacity="0.8020101012677667" />
  <circle cx="120.0" cy="168.0" r="5.51507575950825" fill="#00d9ff" opacity="0.851507575950825" />
  <circle cx="136.0" cy="168.0" r="6.010050506338834" fill="#00d9ff" opacity="0.9010050506338834" />
  <circle cx="152.0" cy="168.0" r="6.505025253169417" fill="#00d9ff" opacity="0.9505025253169417" />
  <circle cx="168.0" cy="168.0" r="7.0" fill="#00d9ff" />
  <circle cx="184.0" cy="168.0" r="6.505025253169417" fill="#00d9ff" opacity="0.9505025253169417" />
  <circle cx="200.0" cy="168.0" r="6.010050506338834" fill="#00d9ff" opacity="0.9010050506338834" />
  <circle cx="216.0" cy="168.0" r="5.51507575950825" fill="#00d9ff" opacity="0.851507575950825" />
  <circle cx="232.0" cy="168.0" r="5.020101012677667" fill="#00d9ff" opacity="0.8020101012677667" />
  <circle cx="248.0" cy="168.0" r="4.525126265847084" fill="#00d9ff" opacity="0.7525126265847084" />
  <circle cx="264.0" cy="168.0" r="4.0301515190165" fill="#00d9ff" opacity="0.70301515190165" />
  <circle cx="280.0" cy="168.0" r="3.5351767721859177" fill="#00d9ff" opacity="0.6535176772185918" />
  <circle cx="296.0" cy="168.0" r="3.0402020253553337" fill="#00d9ff" opacity="0.6040202025355333" />
  <circle cx="312.0" cy="168.0" r="2.545227278524751" fill="#00d9ff" opacity="0.5545227278524751" />
  <circle cx="8.0" cy="184.0" r="2.025565358756837" fill="#00d9ff" opacity="0.5025565358756836" />
  <circle cx="24.0" cy="184.0" r="2.5178130337970055" fill="#00d9ff" opacity="0.5517813033797005" />
  <circle cx="40.0" cy="184.0" r="3.0093860121530174" fill="#00d9ff" opacity="0.6009386012153017" />
  <circle cx="56.0" cy="184.0" r="3.5" fill="#00d9ff" opacity="0.6499999999999999" />
  <circle cx="72.0" cy="184.0" r="3.98918615653508" fill="#00d9ff" opacity="0.698918615653508" />
  <circle cx="88.0" cy="184.0" r="4.476114107175207" fill="#00d9ff" opacity="0.7476114107175207" />
  <circle cx="104.0" cy="184.0" r="4.959166836804145" fill="#00d9ff" opacity="0.7959166836804145" />
  <circle cx="120.0" cy="184.0" r="5.434752415750148" fill="#00d9ff" opacity="0.8434752415750146" />
  <circle cx="136.0" cy="184.0" r="5.893202818941067" fill="#00d9ff" opacity="0.8893202818941066" />
  <circle cx="152.0" cy="184.0" r="6.3" fill="#00d9ff" opacity="0.9299999999999999" />
  <circle cx="168.0" cy="184.0" r="6.505025253169417" fill="#00d9ff" opacity="0.9505025253169417" />
  <circle cx="184.0" cy="184.0" r="6.3" fill="#00d9ff" opacity="0.9299999999999999" />
  <circle cx="200.0" cy="184.0" r="5.893202818941067" fill="#00d9ff" opacity="0.8893202818941066" />
  <circle cx="216.0" cy="184.0" r="5.434752415750148" fill="#00d9ff" opacity="0.8434752415750146" />
  <circle cx="232.0" cy="184.0" r="4.959166836804145" fill="#00d9ff" opacity="0.7959166836804145" />
  <circle cx="248.0" cy="184.0" r="4.476114107175207" fill="#00d9ff" opacity="0.7476114107175207" />
  <circle cx="264.0" cy="184.0" r="3.98918615653508" fill="#00d9ff" opacity="0.698918615653508" />
  <circle cx="280.0" cy="184.0" r="3.5" fill="#00d9ff" opacity="0.6499999999999999" />
  <circle cx="296.0" cy="184.0" r="3.0093860121530174" fill="#00d9ff" opacity="0.6009386012153017" />
  <circle cx="312.0" cy="184.0" r="2.5178130337970055" fill="#00d9ff" opacity="0.5517813033797005" />
  <circle cx="8.0" cy="200.0" r="1.9522282143504155" fill="#00d9ff" opacity="0.4952228214350415" />
  <circle cx="24.0" cy="200.0" r="2.4365583163581457" fill="#00d9ff" opacity="0.5436558316358145" />
  <circle cx="40.0" cy="200.0" r="2.91833367360829" fill="#00d9ff" opacity="0.5918333673608289" />
  <circle cx="56.0" cy="200.0" r="3.3965294506545503" fill="#00d9ff" opacity="0.6396529450654549" />
  <circle cx="72.0" cy="200.0" r="3.869504831500295" fill="#00d9ff" opacity="0.6869504831500295" />
  <circle cx="88.0" cy="200.0" r="4.3344794129476325" fill="#00d9ff" opacity="0.7334479412947632" />
  <circle cx="104.0" cy="200.0" r="4.786405637882134" fill="#00d9ff" opacity="0.7786405637882133" />
  <circle cx="120.0" cy="200.0" r="5.215343170242526" fill="#00d9ff" opacity="0.8215343170242526" />
  <circle cx="136.0" cy="200.0" r="5.6000000000000005" fill="#00d9ff" opacity="0.8599999999999999" />
  <circle cx="152.0" cy="200.0" r="5.893202818941067" fill="#00d9ff" opacity="0.8893202818941066" />
  <circle cx="168.0" cy="200.0" r="6.010050506338834" fill="#00d9ff" opacity="0.9010050506338834" />
  <circle cx="184.0" cy="200.0" r="5.893202818941067" fill="#00d9ff" opacity="0.8893202818941066" />
  <circle cx="200.0" cy="200.0" r="5.6000000000000005" fill="#00d9ff" opacity="0.8599999999999999" />
  <circle cx="216.0" cy="200.0" r="5.215343170242526" fill="#00d9ff" opacity="0.8215343170242526" />
  <circle cx="232.0" cy="200.0" r="4.786405637882134" fill="#00d9ff" opacity="0.7786405637882133" />
  <circle cx="248.0" cy="200.0" r="4.3344794129476325" fill="#00d9ff" opacity="0.7334479412947632" />
  <circle cx="264.0" cy="200.0" r="3.869504831500295" fill="#00d9ff" opacity="0.6869504831500295" />
  <circle cx="280.0" cy="200.0" r="3.3965294506545503" fill="#00d9ff" opacity="0.6396529450654549" />
  <circle cx="296.0" cy="200.0" r="2.91833367360829" fill="#00d9ff" opacity="0.5918333673608289" />
  <circle cx="312.0" cy="200.0" r="2.4365583163581457" fill="#00d9ff" opacity="0.5436558316358145" />
  <circle cx="8.0" cy="216.0" r="1.8323119289183096" fill="#00d9ff" opacity="0.4832311928918309" />
  <circle cx="24.0" cy="216.0" r="2.3042572472504417" fill="#00d9ff" opacity="0.5304257247250441" />
  <circle cx="40.0" cy="216.0" r="2.7709339092419003" fill="#00d9ff" opacity="0.57709339092419" />
  <circle cx="56.0" cy="216.0" r="3.2303846350058474" fill="#00d9ff" opacity="0.6230384635005848" />
  <circle cx="72.0" cy="216.0" r="3.679608456823202" fill="#00d9ff" opacity="0.6679608456823202" />
  <circle cx="88.0" cy="216.0" r="4.113826062067638" fill="#00d9ff" opacity="0.7113826062067637" />
  <circle cx="104.0" cy="216.0" r="4.525126265847084" fill="#00d9ff" opacity="0.7525126265847084" />
  <circle cx="120.0" cy="216.0" r="4.8999999999999995" fill="#00d9ff" opacity="0.7899999999999999" />
  <circle cx="136.0" cy="216.0" r="5.215343170242526" fill="#00d9ff" opacity="0.8215343170242526" />
  <circle cx="152.0" cy="216.0" r="5.434752415750148" fill="#00d9ff" opacity="0.8434752415750146" />
  <circle cx="168.0" cy="216.0" r="5.51507575950825" fill="#00d9ff" opacity="0.851507575950825" />
  <circle cx="184.0" cy="216.0" r="5.434752415750148" fill="#00d9ff" opacity="0.8434752415750146" />
  <circle cx="200.0" cy="216.0" r="5.215343170242526" fill="#00d9ff" opacity="0.8215343170242526" />
  <circle cx="216.0" cy="216.0" r="4.8999999999999995" fill="#00d9ff" opacity="0.7899999999999999" />
  <circle cx="232.0" cy="216.0" r="4.525126265847084" fill="#00d9ff" opacity="0.7525126265847084" />
  <circle cx="248.0" cy="216.0" r="4.113826062067638" fill="#00d9ff" opacity="0.7113826062067637" />
  <circle cx="264.0" cy="216.0" r="3.679608456823202" fill="#00d9ff" opacity="0.6679608456823202" />
  <circle cx="280.0" cy="216.0" r="3.2303846350058474" fill="#00d9ff" opacity="0.6230384635005848" />
  <circle cx="296.0" cy="216.0" r="2.7709339092419003" fill="#00d9ff" opacity="0.57709339092419" />
  <circle cx="312.0" cy="216.0" r="2.3042572472504417" fill="#00d9ff" opacity="0.5304257247250441" />
  <circle cx="8.0" cy="232.0" r="1.6689588258952646" fill="#00d9ff" opacity="0.4668958825895264" />
  <circle cx="24.0" cy="232.0" r="2.125064102985559" fill="#00d9ff" opacity="0.5125064102985558" />
  <circle cx="40.0" cy="232.0" r="2.572811275764269" fill="#00d9ff" opacity="0.5572811275764269" />
  <circle cx="56.0" cy="232.0" r="3.0093860121530174" fill="#00d9ff" opacity="0.6009386012153017" />
  <circle cx="72.0" cy="232.0" r="3.4306863404850514" fill="#00d9ff" opacity="0.643068634048505" />
  <circle cx="88.0" cy="232.0" r="3.830615201651904" fill="#00d9ff" opacity="0.6830615201651904" />
  <circle cx="104.0" cy="232.0" r="4.2" fill="#00d9ff" opacity="0.72" />
  <circle cx="120.0" cy="232.0" r="4.525126265847084" fill="#00d9ff" opacity="0.7525126265847084" />
  <circle cx="136.0" cy="232.0" r="4.786405637882134" fill="#00d9ff" opacity="0.7786405637882133" />
  <circle cx="152.0" cy="232.0" r="4.959166836804145" fill="#00d9ff" opacity="0.7959166836804145" />
  <circle cx="168.0" cy="232.0" r="5.020101012677667" fill="#00d9ff" opacity="0.8020101012677667" />
  <circle cx="184.0" cy="232.0" r="4.959166836804145" fill="#00d9ff" opacity="0.7959166836804145" />
  <circle cx="200.0" cy="232.0" r="4.786405637882134" fill="#00d9ff" opacity="0.7786405637882133" />
  <circle cx="216.0" cy="232.0" r="4.525126265847084" fill="#00d9ff" opacity="0.7525126265847084" />
  <circle cx="232.0" cy="232.0" r="4.2" fill="#00d9ff" opacity="0.72" />
  <circle cx="248.0" cy="232.0" r="3.830615201651904" fill="#00d9ff" opacity="0.6830615201651904" />
  <circle cx="264.0" cy="232.0" r="3.4306863404850514" fill="#00d9ff" opacity="0.643068634048505" />
  <circle cx="280.0" cy="232.0" r="3.0093860121530174" fill="#00d9ff" opacity="0.6009386012153017" />
  <circle cx="296.0" cy="232.0" r="2.572811275764269" fill="#00d9ff" opacity="0.5572811275764269" />
  <circle cx="312.0" cy="232.0" r="2.125064102985559" fill="#00d9ff" opacity="0.5125064102985558" />
  <circle cx="8.0" cy="248.0" r="1.466014094705336" fill="#00d9ff" opacity="0.44660140947053356" />
  <circle cx="24.0" cy="248.0" r="1.903923077503637" fill="#00d9ff" opacity="0.4903923077503637" />
  <circle cx="40.0" cy="248.0" r="2.3304175775557834" fill="#00d9ff" opacity="0.5330417577555784" />
  <circle cx="56.0" cy="248.0" r="2.7420662287912467" fill="#00d9ff" opacity="0.5742066228791246" />
  <circle cx="72.0" cy="248.0" r="3.134123643984459" fill="#00d9ff" opacity="0.6134123643984458" />
  <circle cx="88.0" cy="248.0" r="3.5" fill="#00d9ff" opacity="0.6499999999999999" />
  <circle cx="104.0" cy="248.0" r="3.830615201651904" fill="#00d9ff" opacity="0.6830615201651904" />
  <circle cx="120.0" cy="248.0" r="4.113826062067638" fill="#00d9ff" opacity="0.7113826062067637" />
  <circle cx="136.0" cy="248.0" r="4.3344794129476325" fill="#00d9ff" opacity="0.7334479412947632" />
  <circle cx="152.0" cy="248.0" r="4.476114107175207" fill="#00d9ff" opacity="0.7476114107175207" />
  <circle cx="168.0" cy="248.0" r="4.525126265847084" fill="#00d9ff" opacity="0.7525126265847084" />
  <circle cx="184.0" cy="248.0" r="4.476114107175207" fill="#00d9ff" opacity="0.7476114107175207" />
  <circle cx="200.0" cy="248.0" r="4.3344794129476325" fill="#00d9ff" opacity="0.7334479412947632" />
  <circle cx="216.0" cy="248.0" r="4.113826062067638" fill="#00d9ff" opacity="0.7113826062067637" />
  <circle cx="232.0" cy="248.0" r="3.830615201651904" fill="#00d9ff" opacity="0.6830615201651904" />
  <circle cx="248.0" cy="248.0" r="3.5" fill="#00d9ff" opacity="0.6499999999999999" />
  <circle cx="264.0" cy="248.0" r="3.134123643984459" fill="#00d9ff" opacity="0.6134123643984458" />
  <circle cx="280.0" cy="248.0" r="2.7420662287912467" fill="#00d9ff" opacity="0.5742066228791246" />
  <circle cx="296.0" cy="248.0" r="2.3304175775557834" fill="#00d9ff" opacity="0.5330417577555784" />
  <circle cx="312.0" cy="248.0" r="1.903923077503637" fill="#00d9ff" opacity="0.4903923077503637" />
  <circle cx="8.0" cy="264.0" r="1.227652124135275" fill="#00d9ff" opacity="0.4227652124135275" />
  <circle cx="24.0" cy="264.0" r="1.646029510727576" fill="#00d9ff" opacity="0.46460295107275756" />
  <circle cx="40.0" cy="264.0" r="2.0502525316941678" fill="#00d9ff" opacity="0.5050252531694168" />
  <circle cx="56.0" cy="264.0" r="2.4365583163581457" fill="#00d9ff" opacity="0.5436558316358145" />
  <circle cx="72.0" cy="264.0" r="2.8000000000000003" fill="#00d9ff" opacity="0.58" />
  <circle cx="88.0" cy="264.0" r="3.134123643984459" fill="#00d9ff" opacity="0.6134123643984458" />
  <circle cx="104.0" cy="264.0" r="3.4306863404850514" fill="#00d9ff" opacity="0.643068634048505" />
  <circle cx="120.0" cy="264.0" r="3.679608456823202" fill="#00d9ff" opacity="0.6679608456823202" />
  <circle cx="136.0" cy="264.0" r="3.869504831500295" fill="#00d9ff" opacity="0.6869504831500295" />
  <circle cx="152.0" cy="264.0" r="3.98918615653508" fill="#00d9ff" opacity="0.698918615653508" />
  <circle cx="168.0" cy="264.0" r="4.0301515190165" fill="#00d9ff" opacity="0.70301515190165" />
  <circle cx="184.0" cy="264.0" r="3.98918615653508" fill="#00d9ff" opacity="0.698918615653508" />
  <circle cx="200.0" cy="264.0" r="3.869504831500295" fill="#00d9ff" opacity="0.6869504831500295" />
  <circle cx="216.0" cy="264.0" r="3.679608456823202" fill="#00d9ff" opacity="0.6679608456823202" />
  <circle cx="232.0" cy="264.0" r="3.4306863404850514" fill="#00d9ff" opacity="0.643068634048505" />
  <circle cx="248.0" cy="264.0" r="3.134123643984459" fill="#00d9ff" opacity="0.6134123643984458" />
  <circle cx="264.0" cy="264.0" r="2.8000000000000003" fill="#00d9ff" opacity="0.58" />
  <circle cx="280.0" cy="264.0" r="2.4365583163581457" fill="#00d9ff" opacity="0.5436558316358145" />
  <circle cx="296.0" cy="264.0" r="2.0502525316941678" fill="#00d9ff" opacity="0.5050252531694168" />
  <circle cx="312.0" cy="264.0" r="1.646029510727576" fill="#00d9ff" opacity="0.46460295107275756" />
  <circle cx="8.0" cy="280.0" r="0.9580632244287769" fill="#00d9ff" opacity="0.39580632244287767" />
  <circle cx="24.0" cy="280.0" r="1.3564195761910156" fill="#00d9ff" opacity="0.4356419576191015" />
  <circle cx="40.0" cy="280.0" r="1.7383462675694819" fill="#00d9ff" opacity="0.47383462675694815" />
  <circle cx="56.0" cy="280.0" r="2.1000000000000005" fill="#00d9ff" opacity="0.51" />
  <circle cx="72.0" cy="280.0" r="2.4365583163581457" fill="#00d9ff" opacity="0.5436558316358145" />
  <circle cx="88.0" cy="280.0" r="2.7420662287912467" fill="#00d9ff" opacity="0.5742066228791246" />
  <circle cx="104.0" cy="280.0" r="3.0093860121530174" fill="#00d9ff" opacity="0.6009386012153017" />
  <circle cx="120.0" cy="280.0" r="3.2303846350058474" fill="#00d9ff" opacity="0.6230384635005848" />
  <circle cx="136.0" cy="280.0" r="3.3965294506545503" fill="#00d9ff" opacity="0.6396529450654549" />
  <circle cx="152.0" cy="280.0" r="3.5" fill="#00d9ff" opacity="0.6499999999999999" />
  <circle cx="168.0" cy="280.0" r="3.5351767721859177" fill="#00d9ff" opacity="0.6535176772185918" />
  <circle cx="184.0" cy="280.0" r="3.5" fill="#00d9ff" opacity="0.6499999999999999" />
  <circle cx="200.0" cy="280.0" r="3.3965294506545503" fill="#00d9ff" opacity="0.6396529450654549" />
  <circle cx="216.0" cy="280.0" r="3.2303846350058474" fill="#00d9ff" opacity="0.6230384635005848" />
  <circle cx="232.0" cy="280.0" r="3.0093860121530174" fill="#00d9ff" opacity="0.6009386012153017" />
  <circle cx="248.0" cy="280.0" r="2.7420662287912467" fill="#00d9ff" opacity="0.5742066228791246" />
  <circle cx="264.0" cy="280.0" r="2.4365583163581457" fill="#00d9ff" opacity="0.5436558316358145" />
  <circle cx="280.0" cy="280.0" r="2.1000000000000005" fill="#00d9ff" opacity="0.51" />
  <circle cx="296.0" cy="280.0" r="1.7383462675694819" fill="#00d9ff" opacity="0.47383462675694815" />
  <circle cx="312.0" cy="280.0" r="1.3564195761910156" fill="#00d9ff" opacity="0.4356419576191015" />
  <circle cx="8.0" cy="296.0" r="0.6612304033038087" fill="#00d9ff" opacity="0.36612304033038084" />
  <circle cx="24.0" cy="296.0" r="1.03971477192576" fill="#00d9ff" opacity="0.403971477192576" />
  <circle cx="40.0" cy="296.0" r="1.3999999999999997" fill="#00d9ff" opacity="0.43999999999999995" />
  <circle cx="56.0" cy="296.0" r="1.7383462675694819" fill="#00d9ff" opacity="0.47383462675694815" />
  <circle cx="72.0" cy="296.0" r="2.0502525316941678" fill="#00d9ff" opacity="0.5050252531694168" />
  <circle cx="88.0" cy="296.0" r="2.3304175775557834" fill="#00d9ff" opacity="0.5330417577555784" />
  <circle cx="104.0" cy="296.0" r="2.572811275764269" fill="#00d9ff" opacity="0.5572811275764269" />
  <circle cx="120.0" cy="296.0" r="2.7709339092419003" fill="#00d9ff" opacity="0.57709339092419" />
  <circle cx="136.0" cy="296.0" r="2.91833367360829" fill="#00d9ff" opacity="0.5918333673608289" />
  <circle cx="152.0" cy="296.0" r="3.0093860121530174" fill="#00d9ff" opacity="0.6009386012153017" />
  <circle cx="168.0" cy="296.0" r="3.0402020253553337" fill="#00d9ff" opacity="0.6040202025355333" />
  <circle cx="184.0" cy="296.0" r="3.0093860121530174" fill="#00d9ff" opacity="0.6009386012153017" />
  <circle cx="200.0" cy="296.0" r="2.91833367360829" fill="#00d9ff" opacity="0.5918333673608289" />
  <circle cx="216.0" cy="296.0" r="2.7709339092419003" fill="#00d9ff" opacity="0.57709339092419" />
  <circle cx="232.0" cy="296.0" r="2.572811275764269" fill="#00d9ff" opacity="0.5572811275764269" />
  <circle cx="248.0" cy="296.0" r="2.3304175775557834" fill="#00d9ff" opacity="0.5330417577555784" />
  <circle cx="264.0" cy="296.0" r="2.0502525316941678" fill="#00d9ff" opacity="0.5050252531694168" />
  <circle cx="280.0" cy="296.0" r="1.7383462675694819" fill="#00d9ff" opacity="0.47383462675694815" />
  <circle cx="296.0" cy="296.0" r="1.3999999999999997" fill="#00d9ff" opacity="0.43999999999999995" />
  <circle cx="312.0" cy="296.0" r="1.03971477192576" fill="#00d9ff" opacity="0.403971477192576" />
  <circle cx="24.0" cy="312.0" r="0.7000000000000006" fill="#00d9ff" opacity="0.37000000000000005" />
  <circle cx="40.0" cy="312.0" r="1.03971477192576" fill="#00d9ff" opacity="0.403971477192576" />
  <circle cx="56.0" cy="312.0" r="1.3564195761910156" fill="#00d9ff" opacity="0.4356419576191015" />
  <circle cx="72.0" cy="312.0" r="1.646029510727576" fill="#00d9ff" opacity="0.46460295107275756" />
  <circle cx="88.0" cy="312.0" r="1.903923077503637" fill="#00d9ff" opacity="0.4903923077503637" />
  <circle cx="104.0" cy="312.0" r="2.125064102985559" fill="#00d9ff" opacity="0.5125064102985558" />
  <circle cx="120.0" cy="312.0" r="2.3042572472504417" fill="#00d9ff" opacity="0.5304257247250441" />
  <circle cx="136.0" cy="312.0" r="2.4365583163581457" fill="#00d9ff" opacity="0.5436558316358145" />
  <circle cx="152.0" cy="312.0" r="2.5178130337970055" fill="#00d9ff" opacity="0.5517813033797005" />
  <circle cx="168.0" cy="312.0" r="2.545227278524751" fill="#00d9ff" opacity="0.5545227278524751" />
  <circle cx="184.0" cy="312.0" r="2.5178130337970055" fill="#00d9ff" opacity="0.5517813033797005" />
  <circle cx="200.0" cy="312.0" r="2.4365583163581457" fill="#00d9ff" opacity="0.5436558316358145" />
  <circle cx="216.0" cy="312.0" r="2.3042572472504417" fill="#00d9ff" opacity="0.5304257247250441" />
  <circle cx="232.0" cy="312.0" r="2.125064102985559" fill="#00d9ff" opacity="0.5125064102985558" />
  <circle cx="248.0" cy="312.0" r="1.903923077503637" fill="#00d9ff" opacity="0.4903923077503637" />
  <circle cx="264.0" cy="312.0" r="1.646029510727576" fill="#00d9ff" opacity="0.46460295107275756" />
  <circle cx="280.0" cy="312.0" r="1.3564195761910156" fill="#00d9ff" opacity="0.4356419576191015" />
  <circle cx="296.0" cy="312.0" r="1.03971477192576" fill="#00d9ff" opacity="0.403971477192576" />
  <circle cx="312.0" cy="312.0" r="0.7000000000000006" fill="#00d9ff" opacity="0.37000000000000005" />
</svg>