<?xml version="1.0" encoding="UTF-8"?>
<svg xmlns="http://www.w3.org/2000/svg" width="320" height="320" viewBox="0 0 320 320">
  <rect width="100%" height="100%" fill="#0a1628" />
  <circle cx="40" cy="8" r="0.66123" fill="#00d9ff" opacity="0.366123" />
  <circle cx="56" cy="8" r="0.958063" fill="#00d9ff" opacity="0.395806" />
  <circle cx="72" cy="8" r="1.22765" fill="#00d9ff" opacity="0.422765" />
  <circle cx="88" cy="8" r="1.46601" fill="#00d9ff" opacity="0.446601" />
  <circle cx="104" cy="8" r="1.66896" fill="#00d9ff" opacity="0.466896" />
  <circle cx="120" cy="8" r="1.83231" fill="#00d9ff" opacity="0.483231" />
  <circle cx="136" cy="8" r="1.95223" fill="#00d9ff" opacity="0.495223" />
  <circle cx="152" cy="8" r="2.02557" fill="#00d9ff" opacity="0.502557" />
  <circle cx="168" cy="8" r="2.05025" fill="#00d9ff" opacity="0.505025" />
  <circle cx="184" cy="8" r="2.02557" fill="#00d9ff" opacity="0.502557" />
  <circle cx="200" cy="8" r="1.95223" fill="#00d9ff" opacity="0.495223" />
  <circle cx="216" cy="8" r="1.83231" fill="#00d9ff" opacity="0.483231" />
  <circle cx="232" cy="8" r="1.66896" fill="#00d9ff" opacity="0.466896" />
  <circle cx="248" cy="8" r="1.46601" fill="#00d9ff" opacity="0.446601" />
  <circle cx="264" cy="8" r="1.22765" fill="#00d9ff" opacity="0.422765" />
  <circle cx="280" cy="8" r="0.958063" fill="#00d9ff" opacity="0.395806" />
  <circle cx="296" cy="8" r="0.66123" fill="#00d9ff" opacity="0.366123" />
  <circle cx="24" cy="24" r="0.7" fill="#00d9ff" opacity="0.37" />
  <circle cx="40" cy="24" r="1.03971" fill="#00d9ff" opacity="0.403971" />
  <circle cx="56" cy="24" r="1.35642" fill="#00d9ff" opacity="0.435642" />
  <circle cx="72" cy="24" r="1.64603" fill="#00d9ff" opacity="0.464603" />
  <circle cx="88" cy="24" r="1.90392" fill="#00d9ff" opacity="0.490392" />
  <circle cx="104" cy="24" r="2.12506" fill="#00d9ff" opacity="0.512506" />
  <circle cx="120" cy="24" r="2.30426" fill="#00d9ff" opacity="0.530426" />
  <circle cx="136" cy="24" r="2.43656" fill="#00d9ff" opacity="0.543656" />
  <circle cx="152" cy="24" r="2.51781" fill="#00d9ff" opacity="0.551781" />
  <circle cx="168" cy="24" r="2.54523" fill="#00d9ff" opacity="0.554523" />
  <circle cx="184" cy="24" r="2.51781" fill="#00d9ff" opacity="0.551781" />
  <circle cx="200" cy="24" r="2.43656" fill="#00d9ff" opacity="0.543656" />
  <circle cx="216" cy="24" r="2.30426" fill="#00d9ff" opacity="0.530426" />
  <circle cx="232" cy="24" r="2.12506" fill="#00d9ff" opacity="0.512506" />
  <circle cx="248" cy="24" r="1.90392" fill="#00d9ff" opacity="0.490392" />
  <circle cx="264" cy="24" r="1.64603" fill="#00d9ff" opacity="0.464603" />
  <circle cx="280" cy="24" r="1.35642" fill="#00d9ff" opacity="0.435642" />
  <circle cx="296" cy="24" r="1.03971" fill="#00d9ff" opacity="0.403971" />
  <circle cx="312" cy="24" r="0.7" fill="#00d9ff" opacity="0.37" />
  <circle cx="8" cy="40" r="0.66123" fill="#00d9ff" opacity="0.366123" />
  <circle cx="24" cy="40" r="1.03971" fill="#00d9ff" opacity="0.403971" />
  <circle cx="40" cy="40" r="1.4" fill="#00d9ff" opacity="0.44" />
  <circle cx="56" cy="40" r="1.73835" fill="#00d9ff" opacity="0.473835" />
  <circle cx="72" cy="40" r="2.05025" fill="#00d9ff" opacity="0.505025" />
  <circle cx="88" cy="40" r="2.33042" fill="#00d9ff" opacity="0.533042" />
  <circle cx="104" cy="40" r="2.57281" fill="#00d9ff" opacity="0.557281" />
  <circle cx="120" cy="40" r="2.77093" fill="#00d9ff" opacity="0.577093" />
  <circle cx="136" cy="40" r="2.91833" fill="#00d9ff" opacity="0.591833" />
  <circle cx="152" cy="40" r="3.00939" fill="#00d9ff" opacity="0.600939" />
  <circle cx="168" cy="40" r="3.0402" fill="#00d9ff" opacity="0.60402" />
  <circle cx="184" cy="40" r="3.00939" fill="#00d9ff" opacity="0.600939" />
  <circle cx="200" cy="40" r="2.91833" fill="#00d9ff" opacity="0.591833" />
  <circle cx="216" cy="40" r="2.77093" fill="#00d9ff" opacity="0.577093" />
  <circle cx="232" cy="40" r="2.57281" fill="#00d9ff" opacity="0.557281" />
  <circle cx="248" cy="40" r="2.33042" fill="#00d9ff" opacity="0.533042" />
  <circle cx="264" cy="40" r="2.05025" fill="#00d9ff" opacity="0.505025" />
  <circle cx="280" cy="40" r="1.73835" fill="#00d9ff" opacity="0.473835" />
  <circle cx="296" cy="40" r="1.4" fill="#00d9ff" opacity="0.44" />
  <circle cx="312" cy="40" r="1.03971" fill="#00d9ff" opacity="0.403971" />
  <circle cx="8" cy="56" r="0.958063" fill="#00d9ff" opacity="0.395806" />
  <circle cx="24" cy="56" r="1.35642" fill="#00d9ff" opacity="0.435642" />
  <circle cx="40" cy="56" r="1.73835" fill="#00d9ff" opacity="0.473835" />
  <circle cx="56" cy="56" r="2.1" fill="#00d9ff" opacity="0.51" />
  <circle cx="72" cy="56" r="2.43656" fill="#00d9ff" opacity="0.543656" />
  <circle cx="88" cy="56" r="2.74207" fill="#00d9ff" opacity="0.574207" />
  <circle cx="104" cy="56" r="3.00939" fill="#00d9ff" opacity="0.600939" />
  <circle cx="120" cy="56" r="3.23038" fill="#00d9ff" opacity="0.623038" />
  <circle cx="136" cy="56" r="3.39653" fill="#00d9ff" opacity="0.639653" />
  <circle cx="152" cy="56" r="3.5" fill="#00d9ff" opacity="0.65" />
  <circle cx="168" cy="56" r="3.53518" fill="#00d9ff" opacity="0.653518" />
  <circle cx="184" cy="56" r="3.5" fill="#00d9ff" opacity="0.65" />
  <circle cx="200" cy="56" r="3.39653" fill="#00d9ff" opacity="0.639653" />
  <circle cx="216" cy="56" r="3.23038" fill="#00d9ff" opacity="0.623038" />
  <circle cx="232" cy="56" r="3.00939" fill="#00d9ff" opacity="0.600939" />
  <circle cx="248" cy="56" r="2.74207" fill="#00d9ff" opacity="0.574207" />
  <circle cx="264" cy="56" r="2.43656" fill="#00d9ff" opacity="0.543656" />
  <circle cx="280" cy="56" r="2.1" fill="#00d9ff" opacity="0.51" />
  <circle cx="296" cy="56" r="1.73835" fill="#00d9ff" opacity="0.473835" />
  <circle cx="312" cy="56" r="1.35642" fill="#00d9ff" opacity="0.435642" />
  <circle cx="8" cy="72" r="1.22765" fill="#00d9ff" opacity="0.422765" />
  <circle cx="24" cy="72" r="1.64603" fill="#00d9ff" opacity="0.464603" />
  <circle cx="40" cy="72" r="2.05025" fill="#00d9ff" opacity="0.505025" />
  <circle cx="56" cy="72" r="2.43656" fill="#00d9ff" opacity="0.543656" />
  <circle cx="72" cy="72" r="2.8" fill="#00d9ff" opacity="0.58" />
  <circle cx="88" cy="72" r="3.13412" fill="#00d9ff" opacity="0.613412" />
  <circle cx="104" cy="72" r="3.43069" fill="#00d9ff" opacity="0.643069" />
  <circle cx="120" cy="72" r="3.67961" fill="#00d9ff" opacity="0.667961" />
  <circle cx="136" cy="72" r="3.8695" fill="#00d9ff" opacity="0.68695" />
  <circle cx="152" cy="72" r="3.98919" fill="#00d9ff" opacity="0.698919" />
  <circle cx="168" cy="72" r="4.03015" fill="#00d9ff" opacity="0.703015" />
  <circle cx="184" cy="72" r="3.98919" fill="#00d9ff" opacity="0.698919" />
  <circle cx="200" cy="72" r="3.8695" fill="#00d9ff" opacity="0.68695" />
  <circle cx="216" cy="72" r="3.67961" fill="#00d9ff" opacity="0.667961" />
  <circle cx="232" cy="72" r="3.43069" fill="#00d9ff" opacity="0.643069" />
  <circle cx="248" cy="72" r="3.13412" fill="#00d9ff" opacity="0.613412" />
  <circle cx="264" cy="72" r="2.8" fill="#00d9ff" opacity="0.58" />
  <circle cx="280" cy="72" r="2.43656" fill="#00d9ff" opacity="0.543656" />
  <circle cx="296" cy="72" r="2.05025" fill="#00d9ff" opacity="0.505025" />
  <circle cx="312" cy="72" r="1.64603" fill="#00d9ff" opacity="0.464603" />
  <circle cx="8" cy="88" r="1.46601" fill="#00d9ff" opacity="0.446601" />
  <circle cx="24" cy="88" r="1.90392" fill="#00d9ff" opacity="0.490392" />
  <circle cx="40" cy="88" r="2.33042" fill="#00d9ff" opacity="0.533042" />
  <circle cx="56" cy="88" r="2.74207" fill="#00d9ff" opacity="0.574207" />
  <circle cx="72" cy="88" r="3.13412" fill="#00d9ff" opacity="0.613412" />
  <circle cx="88" cy="88" r="3.5" fill="#00d9ff" opacity="0.65" />
  <circle cx="104" cy="88" r="3.83062" fill="#00d9ff" opacity="0.683062" />
  <circle cx="120" cy="88" r="4.11383" fill="#00d9ff" opacity="0.711383" />
  <circle cx="136" cy="88" r="4.33448" fill="#00d9ff" opacity="0.733448" />
  <circle cx="152" cy="88" r="4.47611" fill="#00d9ff" opacity="0.747611" />
  <circle cx="168" cy="88" r="4.52513" fill="#00d9ff" opacity="0.752513" />
  <circle cx="184" cy="88" r="4.47611" fill="#00d9ff" opacity="0.747611" />
  <circle cx="200" cy="88" r="4.33448" fill="#00d9ff" opacity="0.733448" />
  <circle cx="216" cy="88" r="4.11383" fill="#00d9ff" opacity="0.711383" />
  <circle cx="232" cy="88" r="3.83062" fill="#00d9ff" opacity="0.683062" />
  <circle cx="248" cy="88" r="3.5" fill="#00d9ff" opacity="0.65" />
  <circle cx="264" cy="88" r="3.13412" fill="#00d9ff" opacity="0.613412" />
  <circle cx="280" cy="88" r="2.74207" fill="#00d9ff" opacity="0.574207" />
  <circle cx="296" cy="88" r="2.33042" fill="#00d9ff" opacity="0.533042" />
  <circle cx="312" cy="88" r="1.90392" fill="#00d9ff" opacity="0.490392" />
  <circle cx="8" cy="104" r="1.66896" fill="#00d9ff" opacity="0.466896" />
  <circle cx="24" cy="104" r="2.12506" fill="#00d9ff" opacity="0.512506" />
  <circle cx="40" cy="104" r="2.57281" fill="#00d9ff" opacity="0.557281" />
  <circle cx="56" cy="104" r="3.00939" fill="#00d9ff" opacity="0.600939" />
  <circle cx="72" cy="104" r="3.43069" fill="#00d9ff" opacity="0.643069" />
  <circle cx="88" cy="104" r="3.83062" fill="#00d9ff" opacity="0.683062" />
  <circle cx="104" cy="104" r="4.2" fill="#00d9ff" opacity="0.72" />
  <circle cx="120" cy="104" r="4.52513" fill="#00d9ff" opacity="0.752513" />
  <circle cx="136" cy="104" r="4.78641" fill="#00d9ff" opacity="0.778641" />
  <circle cx="152" cy="104" r="4.95917" fill="#00d9ff" opacity="0.795917" />
  <circle cx="168" cy="104" r="5.0201" fill="#00d9ff" opacity="0.80201" />
  <circle cx="184" cy="104" r="4.95917" fill="#00d9ff" opacity="0.795917" />
  <circle cx="200" cy="104" r="4.78641" fill="#00d9ff" opacity="0.778641" />
  <circle cx="216" cy="104" r="4.52513" fill="#00d9ff" opacity="0.752513" />
  <circle cx="232" cy="104" r="4.2" fill="#00d9ff" opacity="0.72" />
  <circle cx="248" cy="104" r="3.83062" fill="#00d9ff" opacity="0.683062" />
  <circle cx="264" cy="104" r="3.43069" fill="#00d9ff" opacity="0.643069" />
  <circle cx="280" cy="104" r="3.00939" fill="#00d9ff" opacity="0.600939" />
  <circle cx="296" cy="104" r="2.57281" fill="#00d9ff" opacity="0.557281" />
  <circle cx="312" cy="104" r="2.12506" fill="#00d9ff" opacity="0.512506" />
  <circle cx="8" cy="120" r="1.83231" fill="#00d9ff" opacity="0.483231" />
  <circle cx="24" cy="120" r="2.30426" fill="#00d9ff" opacity="0.530426" />
  <circle cx="40" cy="120" r="2.77093" fill="#00d9ff" opacity="0.577093" />
  <circle cx="56" cy="120" r="3.23038" fill="#00d9ff" opacity="0.623038" />
  <circle cx="72" cy="120" r="3.67961" fill="#00d9ff" opacity="0.667961" />
  <circle cx="88" cy="120" r="4.11383" fill="#00d9ff" opacity="0.711383" />
  <circle cx="104" cy="120" r="4.52513" fill="#00d9ff" opacity="0.752513" />
  <circle cx="120" cy="120" r="4.9" fill="#00d9ff" opacity="0.79" />
  <circle cx="136" cy="120" r="5.21534" fill="#00d9ff" opacity="0.821534" />
  <circle cx="152" cy="120" r="5.43475" fill="#00d9ff" opacity="0.843475" />
  <circle cx="168" cy="120" r="5.51508" fill="#00d9ff" opacity="0.851508" />
  <circle cx="184" cy="120" r="5.43475" fill="#00d9ff" opacity="0.843475" />
  <circle cx="200" cy="120" r="5.21534" fill="#00d9ff" opacity="0.821534" />
  <circle cx="216" cy="120" r="4.9" fill="#00d9ff" opacity="0.79" />
  <circle cx="232" cy="120" r="4.52513" fill="#00d9ff" opacity="0.752513" />
  <circle cx="248" cy="120" r="4.11383" fill="#00d9ff" opacity="0.711383" />
  <circle cx="264" cy="120" r="3.67961" fill="#00d9ff" opacity="0.667961" />
  <circle cx="280" cy="120" r="3.23038" fill="#00d9ff" opacity="0.623038" />
  <circle cx="296" cy="120" r="2.77093" fill="#00d9ff" opacity="0.577093" />
  <circle cx="312" cy="120" r="2.30426" fill="#00d9ff" opacity="0.530426" />
  <circle cx="8" cy="136" r="1.95223" fill="#00d9ff" opacity="0.495223" />
  <circle cx="24" cy="136" r="2.43656" fill="#00d9ff" opacity="0.543656" />
  <circle cx="40" cy="136" r="2.91833" fill="#00d9ff" opacity="0.591833" />
  <circle cx="56" cy="136" r="3.39653" fill="#00d9ff" opacity="0.639653" />
  <circle cx="72" cy="136" r="3.8695" fill="#00d9ff" opacity="0.68695" />
  <circle cx="88" cy="136" r="4.33448" fill="#00d9ff" opacity="0.733448" />
  <circle cx="104" cy="136" r="4.78641" fill="#00d9ff" opacity="0.778641" />
  <circle cx="120" cy="136" r="5.21534" fill="#00d9ff" opacity="0.821534" />
  <circle cx="136" cy="136" r="5.6" fill="#00d9ff" opacity="0.86" />
  <circle cx="152" cy="136" r="5.8932" fill="#00d9ff" opacity="0.88932" />
  <circle cx="168" cy="136" r="6.01005" fill="#00d9ff" opacity="0.901005" />
  <circle cx="184" cy="136" r="5.8932" fill="#00d9ff" opacity="0.88932" />
  <circle cx="200" cy="136" r="5.6" fill="#00d9ff" opacity="0.86" />
  <circle cx="216" cy="136" r="5.21534" fill="#00d9ff" opacity="0.821534" />
  <circle cx="232" cy="136" r="4.78641" fill="#00d9ff" opacity="0.778641" />
  <circle cx="248" cy="136" r="4.33448" fill="#00d9ff" opacity="0.733448" />
  <circle cx="264" cy="136" r="3.8695" fill="#00d9ff" opacity="0.68695" />
  <circle cx="280" cy="136" r="3.39653" fill="#00d9ff" opacity="0.639653" />
  <circle cx="296" cy="136" r="2.91833" fill="#00d9ff" opacity="0.591833" />
  <circle cx="312" cy="136" r="2.43656" fill="#00d9ff" opacity="0.543656" />
  <circle cx="8" cy="152" r="2.02557" fill="#00d9ff" opacity="0.502557" />
  <circle cx="24" cy="152" r="2.51781" fill="#00d9ff" opacity="0.551781" />
  <circle cx="40" cy="152" r="3.00939" fill="#00d9ff" opacity="0.600939" />
  <circle cx="56" cy="152" r="3.5" fill="#00d9ff" opacity="0.65" />
  <circle cx="72" cy="152" r="3.98919" fill="#00d9ff" opacity="0.698919" />
  <circle cx="88" cy="152" r="4.47611" fill="#00d9ff" opacity="0.747611" />
  <circle cx="104" cy="152" r="4.95917" fill="#00d9ff" opacity="0.795917" />
  <circle cx="120" cy="152" r="5.43475" fill="#00d9ff" opacity="0.843475" />
  <circle cx="136" cy="152" r="5.8932" fill="#00d9ff" opacity="0.88932" />
  <circle cx="152" cy="152" r="6.3" fill="#00d9ff" opacity="0.93" />
  <circle cx="168" cy="152" r="6.50503" fill="#00d9ff" opacity="0.950503" />
  <circle cx="184" cy="152" r="6.3" fill="#00d9ff" opacity="0.93" />
  <circle cx="200" cy="152" r="5.8932" fill="#00d9ff" opacity="0.88932" />
  <circle cx="216" cy="152" r="5.43475" fill="#00d9ff" opacity="0.843475" />
  <circle cx="232" cy="152" r="4.95917" fill="#00d9ff" opacity="0.795917" />
  <circle cx="248" cy="152" r="4.47611" fill="#00d9ff" opacity="0.747611" />
  <circle cx="264" cy="152" r="3.98919" fill="#00d9ff" opacity="0.698919" />
  <circle cx="280" cy="152" r="3.5" fill="#00d9ff" opacity="0.65" />
  <circle cx="296" cy="152" r="3.00939" fill="#00d9ff" opacity="0.600939" />
  <circle cx="312" cy="152" r="2.51781" fill="#00d9ff" opacity="0.551781" />
  <circle cx="8" cy="168" r="2.05025" fill="#00d9ff" opacity="0.505025" />
  <circle cx="24" cy="168" r="2.54523" fill="#00d9ff" opacity="0.554523" />
  <circle cx="40" cy="168" r="3.0402" fill="#00d9ff" opacity="0.60402" />
  <circle cx="56" cy="168" r="3.53518" fill="#00d9ff" opacity="0.653518" />
  <circle cx="72" cy="168" r="4.03015" fill="#00d9ff" opacity="0.703015" />
  <circle cx="88" cy="168" r="4.52513" fill="#00d9ff" opacity="0.752513" />
  <circle cx="104" cy="168" r="5.0201" fill="#00d9ff" opacity="0.80201" />
  <circle cx="120" cy="168" r="5.51508" fill="#00d9ff" opacity="0.851508" />
  <circle cx="136" cy="168" r="6.01005" fill="#00d9ff" opacity="0.901005" />
  <circle cx="152" cy="168" r="6.50503" fill="#00d9ff" opacity="0.950503" />
  <circle cx="168" cy="168" r="7" fill="#00d9ff" />
  <circle cx="184" cy="168" r="6.50503" fill="#00d9ff" opacity="0.950503" />
  <circle cx="200" cy="168" r="6.01005" fill="#00d9ff" opacity="0.901005" />
  <circle cx="216" cy="168" r="5.51508" fill="#00d9ff" opacity="0.851508" />
  <circle cx="232" cy="168" r="5.0201" fill="#00d9ff" opacity="0.80201" />
  <circle cx="248" cy="168" r="4.52513" fill="#00d9ff" opacity="0.752513" />
  <circle cx="264" cy="168" r="4.03015" fill="#00d9ff" opacity="0.703015" />
  <circle cx="280" cy="168" r="3.53518" fill="#00d9ff" opacity="0.653518" />
  <circle cx="296" cy="168" r="3.0402" fill="#00d9ff" opacity="0.60402" />
  <circle cx="312" cy="168" r="2.54523" fill="#00d9ff" opacity="0.554523" />
  <circle cx="8" cy="184" r="2.02557" fill="#00d9ff" opacity="0.502557" />
  <circle cx="24" cy="184" r="2.51781" fill="#00d9ff" opacity="0.551781" />
  <circle cx="40" cy="184" r="3.00939" fill="#00d9ff" opacity="0.600939" />
  <circle cx="56" cy="184" r="3.5" fill="#00d9ff" opacity="0.65" />
  <circle cx="72" cy="184" r="3.98919" fill="#00d9ff" opacity="0.698919" />
  <circle cx="88" cy="184" r="4.47611" fill="#00d9ff" opacity="0.747611" />
  <circle cx="104" cy="184" r="4.95917" fill="#00d9ff" opacity="0.795917" />
  <circle cx="120" cy="184" r="5.43475" fill="#00d9ff" opacity="0.843475" />
  <circle cx="136" cy="184" r="5.8932" fill="#00d9ff" opacity="0.88932" />
  <circle cx="152" cy="184" r="6.3" fill="#00d9ff" opacity="0.93" />
  <circle cx="168" cy="184" r="6.50503" fill="#00d9ff" opacity="0.950503" />
  <circle cx="184" cy="184" r="6.3" fill="#00d9ff" opacity="0.93" />
  <circle cx="200" cy="184" r="5.8932" fill="#00d9ff" opacity="0.88932" />
  <circle cx="216" cy="184" r="5.43475" fill="#00d9ff" opacity="0.843475" />
  <circle cx="232" cy="184" r="4.95917" fill="#00d9ff" opacity="0.795917" />
  <circle cx="248" cy="184" r="4.47611" fill="#00d9ff" opacity="0.747611" />
  <circle cx="264" cy="184" r="3.98919" fill="#00d9ff" opacity="0.698919" />
  <circle cx="280" cy="184" r="3.5" fill="#00d9ff" opacity="0.65" />
  <circle cx="296" cy="184" r="3.00939" fill="#00d9ff" opacity="0.600939" />
  <circle cx="312" cy="184" r="2.51781" fill="#00d9ff" opacity="0.551781" />
  <circle cx="8" cy="200" r="1.95223" fill="#00d9ff" opacity="0.495223" />
  <circle cx="24" cy="200" r="2.43656" fill="#00d9ff" opacity="0.543656" />
  <circle cx="40" cy="200" r="2.91833" fill="#00d9ff" opacity="0.591833" />
  <circle cx="56" cy="200" r="3.39653" fill="#00d9ff" opacity="0.639653" />
  <circle cx="72" cy="200" r="3.8695" fill="#00d9ff" opacity="0.68695" />
  <circle cx="88" cy="200" r="4.33448" fill="#00d9ff" opacity="0.733448" />
  <circle cx="104" cy="200" r="4.78641" fill="#00d9ff" opacity="0.778641" />
  <circle cx="120" cy="200" r="5.21534" fill="#00d9ff" opacity="0.821534" />
  <circle cx="136" cy="200" r="5.6" fill="#00d9ff" opacity="0.86" />
  <circle cx="152" cy="200" r="5.8932" fill="#00d9ff" opacity="0.88932" />
  <circle cx="168" cy="200" r="6.01005" fill="#00d9ff" opacity="0.901005" />
  <circle cx="184" cy="200" r="5.8932" fill="#00d9ff" opacity="0.88932" />
  <circle cx="200" cy="200" r="5.6" fill="#00d9ff" opacity="0.86" />
  <circle cx="216" cy="200" r="5.21534" fill="#00d9ff" opacity="0.821534" />
  <circle cx="232" cy="200" r="4.78641" fill="#00d9ff" opacity="0.778641" />
  <circle cx="248" cy="200" r="4.33448" fill="#00d9ff" opacity="0.733448" />
  <circle cx="264" cy="200" r="3.8695" fill="#00d9ff" opacity="0.68695" />
  <circle cx="280" cy="200" r="3.39653" fill="#00d9ff" opacity="0.639653" />
  <circle cx="296" cy="200" r="2.91833" fill="#00d9ff" opacity="0.591833" />
  <circle cx="312" cy="200" r="2.43656" fill="#00d9ff" opacity="0.543656" />
  <circle cx="8" cy="216" r="1.83231" fill="#00d9ff" opacity="0.483231" />
  <circle cx="24" cy="216" r="2.30426" fill="#00d9ff" opacity="0.530426" />
  <circle cx="40" cy="216" r="2.77093" fill="#00d9ff" opacity="0.577093" />
  <circle cx="56" cy="216" r="3.23038" fill="#00d9ff" opacity="0.623038" />
  <circle cx="72" cy="216" r="3.67961" fill="#00d9ff" opacity="0.667961" />
  <circle cx="88" cy="216" r="4.11383" fill="#00d9ff" opacity="0.711383" />
  <circle cx="104" cy="216" r="4.52513" fill="#00d9ff" opacity="0.752513" />
  <circle cx="120" cy="216" r="4.9" fill="#00d9ff" opacity="0.79" />
  <circle cx="136" cy="216" r="5.21534" fill="#00d9ff" opacity="0.821534" />
  <circle cx="152" cy="216" r="5.43475" fill="#00d9ff" opacity="0.843475" />
  <circle cx="168" cy="216" r="5.51508" fill="#00d9ff" opacity="0.851508" />
  <circle cx="184" cy="216" r="5.43475" fill="#00d9ff" opacity="0.843475" />
  <circle cx="200" cy="216" r="5.21534" fill="#00d9ff" opacity="0.821534" />
  <circle cx="216" cy="216" r="4.9" fill="#00d9ff" opacity="0.79" />
  <circle cx="232" cy="216" r="4.52513" fill="#00d9ff" opacity="0.752513" />
  <circle cx="248" cy="216" r="4.11383" fill="#00d9ff" opacity="0.711383" />
  <circle cx="264" cy="216" r="3.67961" fill="#00d9ff" opacity="0.667961" />
  <circle cx="280" cy="216" r="3.23038" fill="#00d9ff" opacity="0.623038" />
  <circle cx="296" cy="216" r="2.77093" fill="#00d9ff" opacity="0.577093" />
  <circle cx="312" cy="216" r="2.30426" fill="#00d9ff" opacity="0.530426" />
  <circle cx="8" cy="232" r="1.66896" fill="#00d9ff" opacity="0.466896" />
  <circle cx="24" cy="232" r="2.12506" fill="#00d9ff" opacity="0.512506" />
  <circle cx="40" cy="232" r="2.57281" fill="#00d9ff" opacity="0.557281" />
  <circle cx="56" cy="232" r="3.00939" fill="#00d9ff" opacity="0.600939" />
  <circle cx="72" cy="232" r="3.43069" fill="#00d9ff" opacity="0.643069" />
  <circle cx="88" cy="232" r="3.83062" fill="#00d9ff" opacity="0.683062" />
  <circle cx="104" cy="232" r="4.2" fill="#00d9ff" opacity="0.72" />
  <circle cx="120" cy="232" r="4.52513" fill="#00d9ff" opacity="0.752513" />
  <circle cx="136" cy="232" r="4.78641" fill="#00d9ff" opacity="0.778641" />
  <circle cx="152" cy="232" r="4.95917" fill="#00d9ff" opacity="0.795917" />
  <circle cx="168" cy="232" r="5.0201" fill="#00d9ff" opacity="0.80201" />
  <circle cx="184" cy="232" r="4.95917" fill="#00d9ff" opacity="0.795917" />
  <circle cx="200" cy="232" r="4.78641" fill="#00d9ff" opacity="0.778641" />
  <circle cx="216" cy="232" r="4.52513" fill="#00d9ff" opacity="0.752513" />
  <circle cx="232" cy="232" r="4.2" fill="#00d9ff" opacity="0.72" />
  <circle cx="248" cy="232" r="3.83062" fill="#00d9ff" opacity="0.683062" />
  <circle cx="264" cy="232" r="3.43069" fill="#00d9ff" opacity="0.643069" />
  <circle cx="280" cy="232" r="3.00939" fill="#00d9ff" opacity="0.600939" />
  <circle cx="296" cy="232" r="2.57281" fill="#00d9ff" opacity="0.557281" />
  <circle cx="312" cy="232" r="2.12506" fill="#00d9ff" opacity="0.512506" />
  <circle cx="8" cy="248" r="1.46601" fill="#00d9ff" opacity="0.446601" />
  <circle cx="24" cy="248" r="1.90392" fill="#00d9ff" opacity="0.490392" />
  <circle cx="40" cy="248" r="2.33042" fill="#00d9ff" opacity="0.533042" />
  <circle cx="56" cy="248" r="2.74207" fill="#00d9ff" opacity="0.574207" />
  <circle cx="72" cy="248" r="3.13412" fill="#00d9ff" opacity="0.613412" />
  <circle cx="88" cy="248" r="3.5" fill="#00d9ff" opacity="0.65" />
  <circle cx="104" cy="248" r="3.83062" fill="#00d9ff" opacity="0.683062" />
  <circle cx="120" cy="248" r="4.11383" fill="#00d9ff" opacity="0.711383" />
  <circle cx="136" cy="248" r="4.33448" fill="#00d9ff" opacity="0.733448" />
  <circle cx="152" cy="248" r="4.47611" fill="#00d9ff" opacity="0.747611" />
  <circle cx="168" cy="248" r="4.52513" fill="#00d9ff" opacity="0.752513" />
  <circle cx="184" cy="248" r="4.47611" fill="#00d9ff" opacity="0.747611" />
  <circle cx="200" cy="248" r="4.33448" fill="#00d9ff" opacity="0.733448" />
  <circle cx="216" cy="248" r="4.11383" fill="#00d9ff" opacity="0.711383" />
  <circle cx="232" cy="248" r="3.83062" fill="#00d9ff" opacity="0.683062" />
  <circle cx="248" cy="248" r="3.5" fill="#00d9ff" opacity="0.65" />
  <circle cx="264" cy="248" r="3.13412" fill="#00d9ff" opacity="0.613412" />
  <circle cx="280" cy="248" r="2.74207" fill="#00d9ff" opacity="0.574207" />
  <circle cx="296" cy="248" r="2.33042" fill="#00d9ff" opacity="0.533042" />
  <circle cx="312" cy="248" r="1.90392" fill="#00d9ff" opacity="0.490392" />
  <circle cx="8" cy="264" r="1.22765" fill="#00d9ff" opacity="0.422765" />
  <circle cx="24" cy="264" r="1.64603" fill="#00d9ff" opacity="0.464603" />
  <circle cx="40" cy="264" r="2.05025" fill="#00d9ff" opacity="0.505025" />
  <circle cx="56" cy="264" r="2.43656" fill="#00d9ff" opacity="0.543656" />
  <circle cx="72" cy="264" r="2.8" fill="#00d9ff" opacity="0.58" />
  <circle cx="88" cy="264" r="3.13412" fill="#00d9ff" opacity="0.613412" />
  <circle cx="104" cy="264" r="3.43069" fill="#00d9ff" opacity="0.643069" />
  <circle cx="120" cy="264" r="3.67961" fill="#00d9ff" opacity="0.667961" />
  <circle cx="136" cy="264" r="3.8695" fill="#00d9ff" opacity="0.68695" />
  <circle cx="152" cy="264" r="3.98919" fill="#00d9ff" opacity="0.698919" />
  <circle cx="168" cy="264" r="4.03015" fill="#00d9ff" opacity="0.703015" />
  <circle cx="184" cy="264" r="3.98919" fill="#00d9ff" opacity="0.698919" />
  <circle cx="200" cy="264" r="3.8695" fill="#00d9ff" opacity="0.68695" />
  <circle cx="216" cy="264" r="3.67961" fill="#00d9ff" opacity="0.667961" />
  <circle cx="232" cy="264" r="3.43069" fill="#00d9ff" opacity="0.643069" />
  <circle cx="248" cy="264" r="3.13412" fill="#00d9ff" opacity="0.613412" />
  <circle cx="264" cy="264" r="2.8" fill="#00d9ff" opacity="0.58" />
  <circle cx="280" cy="264" r="2.43656" fill="#00d9ff" opacity="0.543656" />
  <circle cx="296" cy="264" r="2.05025" fill="#00d9ff" opacity="0.505025" />
  <circle cx="312" cy="264" r="1.64603" fill="#00d9ff" opacity="0.464603" />
  <circle cx="8" cy="280" r="0.958063" fill="#00d9ff" opacity="0.395806" />
  <circle cx="24" cy="280" r="1.35642" fill="#00d9ff" opacity="0.435642" />
  <circle cx="40" cy="280" r="1.73835" fill="#00d9ff" opacity="0.473835" />
  <circle cx="56" cy="280" r="2.1" fill="#00d9ff" opacity="0.51" />
  <circle cx="72" cy="280" r="2.43656" fill="#00d9ff" opacity="0.543656" />
  <circle cx="88" cy="280" r="2.74207" fill="#00d9ff" opacity="0.574207" />
  <circle cx="104" cy="280" r="3.00939" fill="#00d9ff" opacity="0.600939" />
  <circle cx="120" cy="280" r="3.23038" fill="#00d9ff" opacity="0.623038" />
  <circle cx="136" cy="280" r="3.39653" fill="#00d9ff" opacity="0.639653" />
  <circle cx="152" cy="280" r="3.5" fill="#00d9ff" opacity="0.65" />
  <circle cx="168" cy="280" r="3.53518" fill="#00d9ff" opacity="0.653518" />
  <circle cx="184" cy="280" r="3.5" fill="#00d9ff" opacity="0.65" />
  <circle cx="200" cy="280" r="3.39653" fill="#00d9ff" opacity="0.639653" />
  <circle cx="216" cy="280" r="3.23038" fill="#00d9ff" opacity="0.623038" />
  <circle cx="232" cy="280" r="3.00939" fill="#00d9ff" opacity="0.600939" />
  <circle cx="248" cy="280" r="2.74207" fill="#00d9ff" opacity="0.574207" />
  <circle cx="264" cy="280" r="2.43656" fill="#00d9ff" opacity="0.543656" />
  <circle cx="280" cy="280" r="2.1" fill="#00d9ff" opacity="0.51" />
  <circle cx="296" cy="280" r="1.73835" fill="#00d9ff" opacity="0.473835" />
  <circle cx="312" cy="280" r="1.35642" fill="#00d9ff" opacity="0.435642" />
  <circle cx="8" cy="296" r="0.66123" fill="#00d9ff" opacity="0.366123" />
  <circle cx="24" cy="296" r="1.03971" fill="#00d9ff" opacity="0.403971" />
  <circle cx="40" cy="296" r="1.4" fill="#00d9ff" opacity="0.44" />
  <circle cx="56" cy="296" r="1.73835" fill="#00d9ff" opacity="0.473835" />
  <circle cx="72" cy="296" r="2.05025" fill="#00d9ff" opacity="0.505025" />
  <circle cx="88" cy="296" r="2.33042" fill="#00d9ff" opacity="0.533042" />
  <circle cx="104" cy="296" r="2.57281" fill="#00d9ff" opacity="0.557281" />
  <circle cx="120" cy="296" r="2.77093" fill="#00d9ff" opacity="0.577093" />
  <circle cx="136" cy="296" r="2.91833" fill="#00d9ff" opacity="0.591833" />
  <circle cx="152" cy="296" r="3.00939" fill="#00d9ff" opacity="0.600939" />
  <circle cx="168" cy="296" r="3.0402" fill="#00d9ff" opacity="0.60402" />
  <circle cx="184" cy="296" r="3.00939" fill="#00d9ff" opacity="0.600939" />
  <circle cx="200" cy="296" r="2.91833" fill="#00d9ff" opacity="0.591833" />
  <circle cx="216" cy="296" r="2.77093" fill="#00d9ff" opacity="0.577093" />
  <circle cx="232" cy="296" r="2.57281" fill="#00d9ff" opacity="0.557281" />
  <circle cx="248" cy="296" r="2.33042" fill="#00d9ff" opacity="0.533042" />
  <circle cx="264" cy="296" r="2.05025" fill="#00d9ff" opacity="0.505025" />
  <circle cx="280" cy="296" r="1.73835" fill="#00d9ff" opacity="0.473835" />
  <circle cx="296" cy="296" r="1.4" fill="#00d9ff" opacity="0.44" />
  <circle cx="312" cy="296" r="1.03971" fill="#00d9ff" opacity="0.403971" />
  <circle cx="24" cy="312" r="0.7" fill="#00d9ff" opacity="0.37" />
  <circle cx="40" cy="312" r="1.03971" fill="#00d9ff" opacity="0.403971" />
  <circle cx="56" cy="312" r="1.35642" fill="#00d9ff" opacity="0.435642" />
  <circle cx="72" cy="312" r="1.64603" fill="#00d9ff" opacity="0.464603" />
  <circle cx="88" cy="312" r="1.90392" fill="#00d9ff" opacity="0.490392" />
  <circle cx="104" cy="312" r="2.12506" fill="#00d9ff" opacity="0.512506" />
  <circle cx="120" cy="312" r="2.30426" fill="#00d9ff" opacity="0.530426" />
  <circle cx="136" cy="312" r="2.43656" fill="#00d9ff" opacity="0.543656" />
  <circle cx="152" cy="312" r="2.51781" fill="#00d9ff" opacity="0.551781" />
  <circle cx="168" cy="312" r="2.54523" fill="#00d9ff" opacity="0.554523" />
  <circle cx="184" cy="312" r="2.51781" fill="#00d9ff" opacity="0.551781" />
  <circle cx="200" cy="312" r="2.43656" fill="#00d9ff" opacity="0.543656" />
  <circle cx="216" cy="312" r="2.30426" fill="#00d9ff" opacity="0.530426" />
  <circle cx="232" cy="312" r="2.12506" fill="#00d9ff" opacity="0.512506" />
  <circle cx="248" cy="312" r="1.90392" fill="#00d9ff" opacity="0.490392" />
  <circle cx="264" cy="312" r="1.64603" fill="#00d9ff" opacity="0.464603" />
  <circle cx="280" cy="312" r="1.35642" fill="#00d9ff" opacity="0.435642" />
  <circle cx="296" cy="312" r="1.03971" fill="#00d9ff" opacity="0.403971" />
  <circle cx="312" cy="312" r="0.7" fill="#00d9ff" opacity="0.37" />
</svg>