<?xml version="1.0" encoding="UTF-8"?>
<svg xmlns="http://www.w3.org/2000/svg" width="320" height="240" viewBox="0 0 320 240">
  <rect width="100%" height="100%" fill="#2d1b4e" />
  <polygon points="10.0,7.0 13.0,10.0 10.0,13.0 7.0,10.0" fill="#ff6b35" fill-opacity="0.5" stroke-opacity="0.5" />
  <polygon points="30.0,7.0 33.0,10.0 30.0,13.0 27.0,10.0" fill="#fd6e32" fill-opacity="0.5" stroke-opacity="0.5" />
  <polygon points="50.0,7.0 53.0,10.0 50.0,13.0 47.0,10.0" fill="#fc722f" fill-opacity="0.5" stroke-opacity="0.5" />
  <polygon points="70.0,7.0 73.0,10.0 70.0,13.0 67.0,10.0" fill="#fb752c" fill-opacity="0.5" stroke-opacity="0.5" />
  <polygon points="90.0,7.0 93.0,10.0 90.0,13.0 87.0,10.0" fill="#fa7929" fill-opacity="0.5" stroke-opacity="0.5" />
  <polygon points="110.0,7.0 113.0,10.0 110.0,13.0 107.0,10.0" fill="#f97c27" fill-opacity="0.5" stroke-opacity="0.5" />
  <polygon points="130.0,7.0 133.0,10.0 130.0,13.0 127.0,10.0" fill="#f88024" fill-opacity="0.5" stroke-opacity="0.5" />
  <polygon points="150.0,7.0 153.0,10.0 150.0,13.0 147.0,10.0" fill="#f78321" fill-opacity="0.5" stroke-opacity="0.5" />
  <polygon points="170.0,7.0 173.0,10.0 170.0,13.0 167.0,10.0" fill="#f6871e" fill-opacity="0.5" stroke-opacity="0.5" />
  <polygon points="190.0,7.0 193.0,10.0 190.0,13.0 187.0,10.0" fill="#f58a1b" fill-opacity="0.5" stroke-opacity="0.5" />
  <polygon points="210.0,7.0 213.0,10.0 210.0,13.0 207.0,10.0" fill="#f48e19" fill-opacity="0.5" stroke-opacity="0.5" />
  <polygon points="230.0,7.0 233.0,10.0 230.0,13.0 227.0,10.0" fill="#f39116" fill-opacity="0.5" stroke-opacity="0.5" />
  <polygon points="250.0,7.0 253.0,10.0 250.0,13.0 247.0,10.0" fill="#f29513" fill-opacity="0.5" stroke-opacity="0.5" />
  <polygon points="270.0,7.0 273.0,10.0 270.0,13.0 267.0,10.0" fill="#f19810" fill-opacity="0.5" stroke-opacity="0.5" />
  <polygon points="290.0,7.0 293.0,10.0 290.0,13.0 287.0,10.0" fill="#f09c0d" fill-opacity="0.5" stroke-opacity="0.5" />
  <polygon points="310.0,7.0 313.0,10.0 310.0,13.0 307.0,10.0" fill="#efa00b" fill-opacity="0.5" stroke-opacity="0.5" />
  <polygon points="10.0,26.545454545454547 13.454545454545455,30.0 10.0,33.45454545454545 6.545454545454545,30.0" fill="#ff6b35" fill-opacity="0.5454545454545454" stroke-opacity="0.5454545454545454" />
  <polygon points="30.0,26.545454545454547 33.45454545454545,30.0 30.0,33.45454545454545 26.545454545454547,30.0" fill="#fd6e32" fill-opacity="0.5454545454545454" stroke-opacity="0.5454545454545454" />
  <polygon points="50.0,26.545454545454547 53.45454545454545,30.0 50.0,33.45454545454545 46.54545454545455,30.0" fill="#fc722f" fill-opacity="0.5454545454545454" stroke-opacity="0.5454545454545454" />
  <polygon points="70.0,26.545454545454547 73.45454545454545,30.0 70.0,33.45454545454545 66.54545454545455,30.0" fill="#fb752c" fill-opacity="0.5454545454545454" stroke-opacity="0.5454545454545454" />
  <polygon points="90.0,26.545454545454547 93.45454545454545,30.0 90.0,33.45454545454545 86.54545454545455,30.0" fill="#fa7929" fill-opacity="0.5454545454545454" stroke-opacity="0.5454545454545454" />
  <polygon points="110.0,26.545454545454547 113.45454545454545,30.0 110.0,33.45454545454545 106.54545454545455,30.0" fill="#f97c27" fill-opacity="0.5454545454545454" stroke-opacity="0.5454545454545454" />
  <polygon points="130.0,26.545454545454547 133.45454545454547,30.0 130.0,33.45454545454545 126.54545454545455,30.0" fill="#f88024" fill-opacity="0.5454545454545454" stroke-opacity="0.5454545454545454" />
  <polygon points="150.0,26.545454545454547 153.45454545454547,30.0 150.0,33.45454545454545 146.54545454545453,30.0" fill="#f78321" fill-opacity="0.5454545454545454" stroke-opacity="0.5454545454545454" />
  <polygon points="170.0,26.545454545454547 173.45454545454547,30.0 170.0,33.45454545454545 166.54545454545453,30.0" fill="#f6871e" fill-opacity="0.5454545454545454" stroke-opacity="0.5454545454545454" />
  <polygon points="190.0,26.545454545454547 193.45454545454547,30.0 190.0,33.45454545454545 186.54545454545453,30.0" fill="#f58a1b" fill-opacity="0.5454545454545454" stroke-opacity="0.5454545454545454" />
  <polygon points="210.0,26.545454545454547 213.45454545454547,30.0 210.0,33.45454545454545 206.54545454545453,30.0" fill="#f48e19" fill-opacity="0.5454545454545454" stroke-opacity="0.5454545454545454" />
  <polygon points="230.0,26.545454545454547 233.45454545454547,30.0 230.0,33.45454545454545 226.54545454545453,30.0" fill="#f39116" fill-opacity="0.5454545454545454" stroke-opacity="0.5454545454545454" />
  <polygon points="250.0,26.545454545454547 253.45454545454547,30.0 250.0,33.45454545454545 246.54545454545453,30.0" fill="#f29513" fill-opacity="0.5454545454545454" stroke-opacity="0.5454545454545454" />
  <polygon points="270.0,26.545454545454547 273.45454545454544,30.0 270.0,33.45454545454545 266.54545454545456,30.0" fill="#f19810" fill-opacity="0.5454545454545454" stroke-opacity="0.5454545454545454" />
  <polygon points="290.0,26.545454545454547 293.45454545454544,30.0 290.0,33.45454545454545 286.54545454545456,30.0" fill="#f09c0d" fill-opacity="0.5454545454545454" stroke-opacity="0.5454545454545454" />
  <polygon points="310.0,26.545454545454547 313.45454545454544,30.0 310.0,33.45454545454545 306.54545454545456,30.0" fill="#efa00b" fill-opacity="0.5454545454545454" stroke-opacity="0.5454545454545454" />
  <polygon points="10.0,46.09090909090909 13.909090909090908,50.0 10.0,53.90909090909091 6.090909090909092,50.0" fill="#ff6b35" fill-opacity="0.5909090909090909" stroke-opacity="0.5909090909090909" />
  <polygon points="30.0,46.09090909090909 33.90909090909091,50.0 30.0,53.90909090909091 26.090909090909093,50.0" fill="#fd6e32" fill-opacity="0.5909090909090909" stroke-opacity="0.5909090909090909" />
  <polygon points="50.0,46.09090909090909 53.90909090909091,50.0 50.0,53.90909090909091 46.09090909090909,50.0" fill="#fc722f" fill-opacity="0.5909090909090909" stroke-opacity="0.5909090909090909" />
  <polygon points="70.0,46.09090909090909 73.9090909090909,50.0 70.0,53.90909090909091 66.0909090909091,50.0" fill="#fb752c" fill-opacity="0.5909090909090909" stroke-opacity="0.5909090909090909" />
  <polygon points="90.0,46.09090909090909 93.9090909090909,50.0 90.0,53.90909090909091 86.0909090909091,50.0" fill="#fa7929" fill-opacity="0.5909090909090909" stroke-opacity="0.5909090909090909" />
  <polygon points="110.0,46.09090909090909 113.9090909090909,50.0 110.0,53.90909090909091 106.0909090909091,50.0" fill="#f97c27" fill-opacity="0.5909090909090909" stroke-opacity="0.5909090909090909" />
  <polygon points="130.0,46.09090909090909 133.9090909090909,50.0 130.0,53.90909090909091 126.0909090909091,50.0" fill="#f88024" fill-opacity="0.5909090909090909" stroke-opacity="0.5909090909090909" />
  <polygon points="150.0,46.09090909090909 153.9090909090909,50.0 150.0,53.90909090909091 146.0909090909091,50.0" fill="#f78321" fill-opacity="0.5909090909090909" stroke-opacity="0.5909090909090909" />
  <polygon points="170.0,46.09090909090909 173.9090909090909,50.0 170.0,53.90909090909091 166.0909090909091,50.0" fill="#f6871e" fill-opacity="0.5909090909090909" stroke-opacity="0.5909090909090909" />
  <polygon points="190.0,46.09090909090909 193.9090909090909,50.0 190.0,53.90909090909091 186.0909090909091,50.0" fill="#f58a1b" fill-opacity="0.5909090909090909" stroke-opacity="0.5909090909090909" />
  <polygon points="210.0,46.09090909090909 213.9090909090909,50.0 210.0,53.90909090909091 206.0909090909091,50.0" fill="#f48e19" fill-opacity="0.5909090909090909" stroke-opacity="0.5909090909090909" />
  <polygon points="230.0,46.09090909090909 233.9090909090909,50.0 230.0,53.90909090909091 226.0909090909091,50.0" fill="#f39116" fill-opacity="0.5909090909090909" stroke-opacity="0.5909090909090909" />
  <polygon points="250.0,46.09090909090909 253.9090909090909,50.0 250.0,53.90909090909091 246.0909090909091,50.0" fill="#f29513" fill-opacity="0.5909090909090909" stroke-opacity="0.5909090909090909" />
  <polygon points="270.0,46.09090909090909 273.90909090909093,50.0 270.0,53.90909090909091 266.09090909090907,50.0" fill="#f19810" fill-opacity="0.5909090909090909" stroke-opacity="0.5909090909090909" />
  <polygon points="290.0,46.09090909090909 293.90909090909093,50.0 290.0,53.90909090909091 286.09090909090907,50.0" fill="#f09c0d" fill-opacity="0.5909090909090909" stroke-opacity="0.5909090909090909" />
  <polygon points="310.0,46.09090909090909 313.90909090909093,50.0 310.0,53.90909090909091 306.09090909090907,50.0" fill="#efa00b" fill-opacity="0.5909090909090909" stroke-opacity="0.5909090909090909" />
  <polygon points="10.0,65.63636363636364 14.363636363636363,70.0 10.0,74.36363636363636 5.636363636363637,70.0" fill="#ff6b35" fill-opacity="0.6363636363636364" stroke-opacity="0.6363636363636364" />
  <polygon points="30.0,65.63636363636364 34.36363636363636,70.0 30.0,74.36363636363636 25.636363636363637,70.0" fill="#fd6e32" fill-opacity="0.6363636363636364" stroke-opacity="0.6363636363636364" />
  <polygon points="50.0,65.63636363636364 54.36363636363636,70.0 50.0,74.36363636363636 45.63636363636364,70.0" fill="#fc722f" fill-opacity="0.6363636363636364" stroke-opacity="0.6363636363636364" />
  <polygon points="70.0,65.63636363636364 74.36363636363636,70.0 70.0,74.36363636363636 65.63636363636364,70.0" fill="#fb752c" fill-opacity="0.6363636363636364" stroke-opacity="0.6363636363636364" />
  <polygon points="90.0,65.63636363636364 94.36363636363636,70.0 90.0,74.36363636363636 85.63636363636364,70.0" fill="#fa7929" fill-opacity="0.6363636363636364" stroke-opacity="0.6363636363636364" />
  <polygon points="110.0,65.63636363636364 114.36363636363636,70.0 110.0,74.36363636363636 105.63636363636364,70.0" fill="#f97c27" fill-opacity="0.6363636363636364" stroke-opacity="0.6363636363636364" />
  <polygon points="130.0,65.63636363636364 134.36363636363637,70.0 130.0,74.36363636363636 125.63636363636364,70.0" fill="#f88024" fill-opacity="0.6363636363636364" stroke-opacity="0.6363636363636364" />
  <polygon points="150.0,65.63636363636364 154.36363636363637,70.0 150.0,74.36363636363636 145.63636363636363,70.0" fill="#f78321" fill-opacity="0.6363636363636364" stroke-opacity="0.6363636363636364" />
  <polygon points="170.0,65.63636363636364 174.36363636363637,70.0 170.0,74.36363636363636 165.63636363636363,70.0" fill="#f6871e" fill-opacity="0.6363636363636364" stroke-opacity="0.6363636363636364" />
  <polygon points="190.0,65.63636363636364 194.36363636363637,70.0 190.0,74.36363636363636 185.63636363636363,70.0" fill="#f58a1b" fill-opacity="0.6363636363636364" stroke-opacity="0.6363636363636364" />
  <polygon points="210.0,65.63636363636364 214.36363636363637,70.0 210.0,74.36363636363636 205.63636363636363,70.0" fill="#f48e19" fill-opacity="0.6363636363636364" stroke-opacity="0.6363636363636364" />
  <polygon points="230.0,65.63636363636364 234.36363636363637,70.0 230.0,74.36363636363636 225.63636363636363,70.0" fill="#f39116" fill-opacity="0.6363636363636364" stroke-opacity="0.6363636363636364" />
  <polygon points="250.0,65.63636363636364 254.36363636363637,70.0 250.0,74.36363636363636 245.63636363636363,70.0" fill="#f29513" fill-opacity="0.6363636363636364" stroke-opacity="0.6363636363636364" />
  <polygon points="270.0,65.63636363636364 274.3636363636364,70.0 270.0,74.36363636363636 265.6363636363636,70.0" fill="#f19810" fill-opacity="0.6363636363636364" stroke-opacity="0.6363636363636364" />
  <polygon points="290.0,65.63636363636364 294.3636363636364,70.0 290.0,74.36363636363636 285.6363636363636,70.0" fill="#f09c0d" fill-opacity="0.6363636363636364" stroke-opacity="0.6363636363636364" />
  <polygon points="310.0,65.63636363636364 314.3636363636364,70.0 310.0,74.36363636363636 305.6363636363636,70.0" fill="#efa00b" fill-opacity="0.6363636363636364" stroke-opacity="0.6363636363636364" />
  <polygon points="10.0,85.18181818181819 14.81818181818182,90.0 10.0,94.81818181818181 5.181818181818182,90.0" fill="#ff6b35" fill-opacity="0.6818181818181819" stroke-opacity="0.6818181818181819" />
  <polygon points="30.0,85.18181818181819 34.81818181818182,90.0 30.0,94.81818181818181 25.18181818181818,90.0" fill="#fd6e32" fill-opacity="0.6818181818181819" stroke-opacity="0.6818181818181819" />
  <polygon points="50.0,85.18181818181819 54.81818181818182,90.0 50.0,94.81818181818181 45.18181818181818,90.0" fill="#fc722f" fill-opacity="0.6818181818181819" stroke-opacity="0.6818181818181819" />
  <polygon points="70.0,85.18181818181819 74.81818181818181,90.0 70.0,94.81818181818181 65.18181818181819,90.0" fill="#fb752c" fill-opacity="0.6818181818181819" stroke-opacity="0.6818181818181819" />
  <polygon points="90.0,85.18181818181819 94.81818181818181,90.0 90.0,94.81818181818181 85.18181818181819,90.0" fill="#fa7929" fill-opacity="0.6818181818181819" stroke-opacity="0.6818181818181819" />
  <polygon points="110.0,85.18181818181819 114.81818181818181,90.0 110.0,94.81818181818181 105.18181818181819,90.0" fill="#f97c27" fill-opacity="0.6818181818181819" stroke-opacity="0.6818181818181819" />
  <polygon points="130.0,85.18181818181819 134.8181818181818,90.0 130.0,94.81818181818181 125.18181818181819,90.0" fill="#f88024" fill-opacity="0.6818181818181819" stroke-opacity="0.6818181818181819" />
  <polygon points="150.0,85.18181818181819 154.8181818181818,90.0 150.0,94.81818181818181 145.1818181818182,90.0" fill="#f78321" fill-opacity="0.6818181818181819" stroke-opacity="0.6818181818181819" />
  <polygon points="170.0,85.18181818181819 174.8181818181818,90.0 170.0,94.81818181818181 165.1818181818182,90.0" fill="#f6871e" fill-opacity="0.6818181818181819" stroke-opacity="0.6818181818181819" />
  <polygon points="190.0,85.18181818181819 194.8181818181818,90.0 190.0,94.81818181818181 185.1818181818182,90.0" fill="#f58a1b" fill-opacity="0.6818181818181819" stroke-opacity="0.6818181818181819" />
  <polygon points="210.0,85.18181818181819 214.8181818181818,90.0 210.0,94.81818181818181 205.1818181818182,90.0" fill="#f48e19" fill-opacity="0.6818181818181819" stroke-opacity="0.6818181818181819" />
  <polygon points="230.0,85.18181818181819 234.8181818181818,90.0 230.0,94.81818181818181 225.1818181818182,90.0" fill="#f39116" fill-opacity="0.6818181818181819" stroke-opacity="0.6818181818181819" />
  <polygon points="250.0,85.18181818181819 254.8181818181818,90.0 250.0,94.81818181818181 245.1818181818182,90.0" fill="#f29513" fill-opacity="0.6818181818181819" stroke-opacity="0.6818181818181819" />
  <polygon points="270.0,85.18181818181819 274.8181818181818,90.0 270.0,94.81818181818181 265.1818181818182,90.0" fill="#f19810" fill-opacity="0.6818181818181819" stroke-opacity="0.6818181818181819" />
  <polygon points="290.0,85.18181818181819 294.8181818181818,90.0 290.0,94.81818181818181 285.1818181818182,90.0" fill="#f09c0d" fill-opacity="0.6818181818181819" stroke-opacity="0.6818181818181819" />
  <polygon points="310.0,85.18181818181819 314.8181818181818,90.0 310.0,94.81818181818181 305.1818181818182,90.0" fill="#efa00b" fill-opacity="0.6818181818181819" stroke-opacity="0.6818181818181819" />
  <polygon points="10.0,104.72727272727273 15.272727272727273,110.0 10.0,115.27272727272728 4.7272727272727275,110.0" fill="#ff6b35" fill-opacity="0.7272727272727273" stroke-opacity="0.7272727272727273" />
  <polygon points="30.0,104.72727272727273 35.27272727272727,110.0 30.0,115.27272727272728 24.727272727272727,110.0" fill="#fd6e32" fill-opacity="0.7272727272727273" stroke-opacity="0.7272727272727273" />
  <polygon points="50.0,104.72727272727273 55.27272727272727,110.0 50.0,115.27272727272728 44.72727272727273,110.0" fill="#fc722f" fill-opacity="0.7272727272727273" stroke-opacity="0.7272727272727273" />
  <polygon points="70.0,104.72727272727273 75.27272727272728,110.0 70.0,115.27272727272728 64.72727272727273,110.0" fill="#fb752c" fill-opacity="0.7272727272727273" stroke-opacity="0.7272727272727273" />
  <polygon points="90.0,104.72727272727273 95.27272727272728,110.0 90.0,115.27272727272728 84.72727272727273,110.0" fill="#fa7929" fill-opacity="0.7272727272727273" stroke-opacity="0.7272727272727273" />
  <polygon points="110.0,104.72727272727273 115.27272727272728,110.0 110.0,115.27272727272728 104.72727272727273,110.0" fill="#f97c27" fill-opacity="0.7272727272727273" stroke-opacity="0.7272727272727273" />
  <polygon points="130.0,104.72727272727273 135.27272727272728,110.0 130.0,115.27272727272728 124.72727272727273,110.0" fill="#f88024" fill-opacity="0.7272727272727273" stroke-opacity="0.7272727272727273" />
  <polygon points="150.0,104.72727272727273 155.27272727272728,110.0 150.0,115.27272727272728 144.72727272727272,110.0" fill="#f78321" fill-opacity="0.7272727272727273" stroke-opacity="0.7272727272727273" />
  <polygon points="170.0,104.72727272727273 175.27272727272728,110.0 170.0,115.27272727272728 164.72727272727272,110.0" fill="#f6871e" fill-opacity="0.7272727272727273" stroke-opacity="0.7272727272727273" />
  <polygon points="190.0,104.72727272727273 195.27272727272728,110.0 190.0,115.27272727272728 184.72727272727272,110.0" fill="#f58a1b" fill-opacity="0.7272727272727273" stroke-opacity="0.7272727272727273" />
  <polygon points="210.0,104.72727272727273 215.27272727272728,110.0 210.0,115.27272727272728 204.72727272727272,110.0" fill="#f48e19" fill-opacity="0.7272727272727273" stroke-opacity="0.7272727272727273" />
  <polygon points="230.0,104.72727272727273 235.27272727272728,110.0 230.0,115.27272727272728 224.72727272727272,110.0" fill="#f39116" fill-opacity="0.7272727272727273" stroke-opacity="0.7272727272727273" />
  <polygon points="250.0,104.72727272727273 255.27272727272728,110.0 250.0,115.27272727272728 244.72727272727272,110.0" fill="#f29513" fill-opacity="0.7272727272727273" stroke-opacity="0.7272727272727273" />
  <polygon points="270.0,104.72727272727273 275.27272727272725,110.0 270.0,115.27272727272728 264.72727272727275,110.0" fill="#f19810" fill-opacity="0.7272727272727273" stroke-opacity="0.7272727272727273" />
  <polygon points="290.0,104.72727272727273 295.27272727272725,110.0 290.0,115.27272727272728 284.72727272727275,110.0" fill="#f09c0d" fill-opacity="0.7272727272727273" stroke-opacity="0.7272727272727273" />
  <polygon points="310.0,104.72727272727273 315.27272727272725,110.0 310.0,115.27272727272728 304.72727272727275,110.0" fill="#efa00b" fill-opacity="0.7272727272727273" stroke-opacity="0.7272727272727273" />
  <polygon points="10.0,124.27272727272727 15.727272727272727,130.0 10.0,135.72727272727272 4.2727272727272725,130.0" fill="#ff6b35" fill-opacity="0.7727272727272727" stroke-opacity="0.7727272727272727" />
  <polygon points="30.0,124.27272727272727 35.72727272727273,130.0 30.0,135.72727272727272 24.272727272727273,130.0" fill="#fd6e32" fill-opacity="0.7727272727272727" stroke-opacity="0.7727272727272727" />
  <polygon points="50.0,124.27272727272727 55.72727272727273,130.0 50.0,135.72727272727272 44.27272727272727,130.0" fill="#fc722f" fill-opacity="0.7727272727272727" stroke-opacity="0.7727272727272727" />
  <polygon points="70.0,124.27272727272727 75.72727272727272,130.0 70.0,135.72727272727272 64.27272727272727,130.0" fill="#fb752c" fill-opacity="0.7727272727272727" stroke-opacity="0.7727272727272727" />
  <polygon points="90.0,124.27272727272727 95.72727272727272,130.0 90.0,135.72727272727272 84.27272727272727,130.0" fill="#fa7929" fill-opacity="0.7727272727272727" stroke-opacity="0.7727272727272727" />
  <polygon points="110.0,124.27272727272727 115.72727272727272,130.0 110.0,135.72727272727272 104.27272727272727,130.0" fill="#f97c27" fill-opacity="0.7727272727272727" stroke-opacity="0.7727272727272727" />
  <polygon points="130.0,124.27272727272727 135.72727272727272,130.0 130.0,135.72727272727272 124.27272727272727,130.0" fill="#f88024" fill-opacity="0.7727272727272727" stroke-opacity="0.7727272727272727" />
  <polygon points="150.0,124.27272727272727 155.72727272727272,130.0 150.0,135.72727272727272 144.27272727272728,130.0" fill="#f78321" fill-opacity="0.7727272727272727" stroke-opacity="0.7727272727272727" />
  <polygon points="170.0,124.27272727272727 175.72727272727272,130.0 170.0,135.72727272727272 164.27272727272728,130.0" fill="#f6871e" fill-opacity="0.7727272727272727" stroke-opacity="0.7727272727272727" />
  <polygon points="190.0,124.27272727272727 195.72727272727272,130.0 190.0,135.72727272727272 184.27272727272728,130.0" fill="#f58a1b" fill-opacity="0.7727272727272727" stroke-opacity="0.7727272727272727" />
  <polygon points="210.0,124.27272727272727 215.72727272727272,130.0 210.0,135.72727272727272 204.27272727272728,130.0" fill="#f48e19" fill-opacity="0.7727272727272727" stroke-opacity="0.7727272727272727" />
  <polygon points="230.0,124.27272727272727 235.72727272727272,130.0 230.0,135.72727272727272 224.27272727272728,130.0" fill="#f39116" fill-opacity="0.7727272727272727" stroke-opacity="0.7727272727272727" />
  <polygon points="250.0,124.27272727272727 255.72727272727272,130.0 250.0,135.72727272727272 244.27272727272728,130.0" fill="#f29513" fill-opacity="0.7727272727272727" stroke-opacity="0.7727272727272727" />
  <polygon points="270.0,124.27272727272727 275.72727272727275,130.0 270.0,135.72727272727272 264.27272727272725,130.0" fill="#f19810" fill-opacity="0.7727272727272727" stroke-opacity="0.7727272727272727" />
  <polygon points="290.0,124.27272727272727 295.72727272727275,130.0 290.0,135.72727272727272 284.27272727272725,130.0" fill="#f09c0d" fill-opacity="0.7727272727272727" stroke-opacity="0.7727272727272727" />
  <polygon points="310.0,124.27272727272727 315.72727272727275,130.0 310.0,135.72727272727272 304.27272727272725,130.0" fill="#efa00b" fill-opacity="0.7727272727272727" stroke-opacity="0.7727272727272727" />
  <polygon points="10.0,143.8181818181818 16.18181818181818,150.0 10.0,156.1818181818182 3.8181818181818183,150.0" fill="#ff6b35" fill-opacity="0.8181818181818181" stroke-opacity="0.8181818181818181" />
  <polygon points="30.0,143.8181818181818 36.18181818181818,150.0 30.0,156.1818181818182 23.81818181818182,150.0" fill="#fd6e32" fill-opacity="0.8181818181818181" stroke-opacity="0.8181818181818181" />
  <polygon points="50.0,143.8181818181818 56.18181818181818,150.0 50.0,156.1818181818182 43.81818181818182,150.0" fill="#fc722f" fill-opacity="0.8181818181818181" stroke-opacity="0.8181818181818181" />
  <polygon points="70.0,143.8181818181818 76.18181818181819,150.0 70.0,156.1818181818182 63.81818181818182,150.0" fill="#fb752c" fill-opacity="0.8181818181818181" stroke-opacity="0.8181818181818181" />
  <polygon points="90.0,143.8181818181818 96.18181818181819,150.0 90.0,156.1818181818182 83.81818181818181,150.0" fill="#fa7929" fill-opacity="0.8181818181818181" stroke-opacity="0.8181818181818181" />
  <polygon points="110.0,143.8181818181818 116.18181818181819,150.0 110.0,156.1818181818182 103.81818181818181,150.0" fill="#f97c27" fill-opacity="0.8181818181818181" stroke-opacity="0.8181818181818181" />
  <polygon points="130.0,143.8181818181818 136.1818181818182,150.0 130.0,156.1818181818182 123.81818181818181,150.0" fill="#f88024" fill-opacity="0.8181818181818181" stroke-opacity="0.8181818181818181" />
  <polygon points="150.0,143.8181818181818 156.1818181818182,150.0 150.0,156.1818181818182 143.8181818181818,150.0" fill="#f78321" fill-opacity="0.8181818181818181" stroke-opacity="0.8181818181818181" />
  <polygon points="170.0,143.8181818181818 176.1818181818182,150.0 170.0,156.1818181818182 163.8181818181818,150.0" fill="#f6871e" fill-opacity="0.8181818181818181" stroke-opacity="0.8181818181818181" />
  <polygon points="190.0,143.8181818181818 196.1818181818182,150.0 190.0,156.1818181818182 183.8181818181818,150.0" fill="#f58a1b" fill-opacity="0.8181818181818181" stroke-opacity="0.8181818181818181" />
  <polygon points="210.0,143.8181818181818 216.1818181818182,150.0 210.0,156.1818181818182 203.8181818181818,150.0" fill="#f48e19" fill-opacity="0.8181818181818181" stroke-opacity="0.8181818181818181" />
  <polygon points="230.0,143.8181818181818 236.1818181818182,150.0 230.0,156.1818181818182 223.8181818181818,150.0" fill="#f39116" fill-opacity="0.8181818181818181" stroke-opacity="0.8181818181818181" />
  <polygon points="250.0,143.8181818181818 256.1818181818182,150.0 250.0,156.1818181818182 243.8181818181818,150.0" fill="#f29513" fill-opacity="0.8181818181818181" stroke-opacity="0.8181818181818181" />
  <polygon points="270.0,143.8181818181818 276.1818181818182,150.0 270.0,156.1818181818182 263.8181818181818,150.0" fill="#f19810" fill-opacity="0.8181818181818181" stroke-opacity="0.8181818181818181" />
  <polygon points="290.0,143.8181818181818 296.1818181818182,150.0 290.0,156.1818181818182 283.8181818181818,150.0" fill="#f09c0d" fill-opacity="0.8181818181818181" stroke-opacity="0.8181818181818181" />
  <polygon points="310.0,143.8181818181818 316.1818181818182,150.0 310.0,156.1818181818182 303.8181818181818,150.0" fill="#efa00b" fill-opacity="0.8181818181818181" stroke-opacity="0.8181818181818181" />
  <polygon points="10.0,163.36363636363637 16.636363636363637,170.0 10.0,176.63636363636363 3.363636363636364,170.0" fill="#ff6b35" fill-opacity="0.8636363636363636" stroke-opacity="0.8636363636363636" />
  <polygon points="30.0,163.36363636363637 36.63636363636364,170.0 30.0,176.63636363636363 23.363636363636363,170.0" fill="#fd6e32" fill-opacity="0.8636363636363636" stroke-opacity="0.8636363636363636" />
  <polygon points="50.0,163.36363636363637 56.63636363636364,170.0 50.0,176.63636363636363 43.36363636363637,170.0" fill="#fc722f" fill-opacity="0.8636363636363636" stroke-opacity="0.8636363636363636" />
  <polygon points="70.0,163.36363636363637 76.63636363636364,170.0 70.0,176.63636363636363 63.36363636363637,170.0" fill="#fb752c" fill-opacity="0.8636363636363636" stroke-opacity="0.8636363636363636" />
  <polygon points="90.0,163.36363636363637 96.63636363636364,170.0 90.0,176.63636363636363 83.36363636363636,170.0" fill="#fa7929" fill-opacity="0.8636363636363636" stroke-opacity="0.8636363636363636" />
  <polygon points="110.0,163.36363636363637 116.63636363636364,170.0 110.0,176.63636363636363 103.36363636363636,170.0" fill="#f97c27" fill-opacity="0.8636363636363636" stroke-opacity="0.8636363636363636" />
  <polygon points="130.0,163.36363636363637 136.63636363636363,170.0 130.0,176.63636363636363 123.36363636363636,170.0" fill="#f88024" fill-opacity="0.8636363636363636" stroke-opacity="0.8636363636363636" />
  <polygon points="150.0,163.36363636363637 156.63636363636363,170.0 150.0,176.63636363636363 143.36363636363637,170.0" fill="#f78321" fill-opacity="0.8636363636363636" stroke-opacity="0.8636363636363636" />
  <polygon points="170.0,163.36363636363637 176.63636363636363,170.0 170.0,176.63636363636363 163.36363636363637,170.0" fill="#f6871e" fill-opacity="0.8636363636363636" stroke-opacity="0.8636363636363636" />
  <polygon points="190.0,163.36363636363637 196.63636363636363,170.0 190.0,176.63636363636363 183.36363636363637,170.0" fill="#f58a1b" fill-opacity="0.8636363636363636" stroke-opacity="0.8636363636363636" />
  <polygon points="210.0,163.36363636363637 216.63636363636363,170.0 210.0,176.63636363636363 203.36363636363637,170.0" fill="#f48e19" fill-opacity="0.8636363636363636" stroke-opacity="0.8636363636363636" />
  <polygon points="230.0,163.36363636363637 236.63636363636363,170.0 230.0,176.63636363636363 223.36363636363637,170.0" fill="#f39116" fill-opacity="0.8636363636363636" stroke-opacity="0.8636363636363636" />
  <polygon points="250.0,163.36363636363637 256.6363636363636,170.0 250.0,176.63636363636363 243.36363636363637,170.0" fill="#f29513" fill-opacity="0.8636363636363636" stroke-opacity="0.8636363636363636" />
  <polygon points="270.0,163.36363636363637 276.6363636363636,170.0 270.0,176.63636363636363 263.3636363636364,170.0" fill="#f19810" fill-opacity="0.8636363636363636" stroke-opacity="0.8636363636363636" />
  <polygon points="290.0,163.36363636363637 296.6363636363636,170.0 290.0,176.63636363636363 283.3636363636364,170.0" fill="#f09c0d" fill-opacity="0.8636363636363636" stroke-opacity="0.8636363636363636" />
  <polygon points="310.0,163.36363636363637 316.6363636363636,170.0 310.0,176.63636363636363 303.3636363636364,170.0" fill="#efa00b" fill-opacity="0.8636363636363636" stroke-opacity="0.8636363636363636" />
  <polygon points="10.0,182.9090909090909 17.09090909090909,190.0 10.0,197.0909090909091 2.909090909090909,190.0" fill="#ff6b35" fill-opacity="0.9090909090909092" stroke-opacity="0.9090909090909092" />
  <polygon points="30.0,182.9090909090909 37.09090909090909,190.0 30.0,197.0909090909091 22.90909090909091,190.0" fill="#fd6e32" fill-opacity="0.9090909090909092" stroke-opacity="0.9090909090909092" />
  <polygon points="50.0,182.9090909090909 57.09090909090909,190.0 50.0,197.0909090909091 42.90909090909091,190.0" fill="#fc722f" fill-opacity="0.9090909090909092" stroke-opacity="0.9090909090909092" />
  <polygon points="70.0,182.9090909090909 77.0909090909091,190.0 70.0,197.0909090909091 62.90909090909091,190.0" fill="#fb752c" fill-opacity="0.9090909090909092" stroke-opacity="0.9090909090909092" />
  <polygon points="90.0,182.9090909090909 97.0909090909091,190.0 90.0,197.0909090909091 82.9090909090909,190.0" fill="#fa7929" fill-opacity="0.9090909090909092" stroke-opacity="0.9090909090909092" />
  <polygon points="110.0,182.9090909090909 117.0909090909091,190.0 110.0,197.0909090909091 102.9090909090909,190.0" fill="#f97c27" fill-opacity="0.9090909090909092" stroke-opacity="0.9090909090909092" />
  <polygon points="130.0,182.9090909090909 137.0909090909091,190.0 130.0,197.0909090909091 122.9090909090909,190.0" fill="#f88024" fill-opacity="0.9090909090909092" stroke-opacity="0.9090909090909092" />
  <polygon points="150.0,182.9090909090909 157.0909090909091,190.0 150.0,197.0909090909091 142.9090909090909,190.0" fill="#f78321" fill-opacity="0.9090909090909092" stroke-opacity="0.9090909090909092" />
  <polygon points="170.0,182.9090909090909 177.0909090909091,190.0 170.0,197.0909090909091 162.9090909090909,190.0" fill="#f6871e" fill-opacity="0.9090909090909092" stroke-opacity="0.9090909090909092" />
  <polygon points="190.0,182.9090909090909 197.0909090909091,190.0 190.0,197.0909090909091 182.9090909090909,190.0" fill="#f58a1b" fill-opacity="0.9090909090909092" stroke-opacity="0.9090909090909092" />
  <polygon points="210.0,182.9090909090909 217.0909090909091,190.0 210.0,197.0909090909091 202.9090909090909,190.0" fill="#f48e19" fill-opacity="0.9090909090909092" stroke-opacity="0.9090909090909092" />
  <polygon points="230.0,182.9090909090909 237.0909090909091,190.0 230.0,197.0909090909091 222.9090909090909,190.0" fill="#f39116" fill-opacity="0.9090909090909092" stroke-opacity="0.9090909090909092" />
  <polygon points="250.0,182.9090909090909 257.09090909090907,190.0 250.0,197.0909090909091 242.9090909090909,190.0" fill="#f29513" fill-opacity="0.9090909090909092" stroke-opacity="0.9090909090909092" />
  <polygon points="270.0,182.9090909090909 277.09090909090907,190.0 270.0,197.0909090909091 262.90909090909093,190.0" fill="#f19810" fill-opacity="0.9090909090909092" stroke-opacity="0.9090909090909092" />
  <polygon points="290.0,182.9090909090909 297.09090909090907,190.0 290.0,197.0909090909091 282.90909090909093,190.0" fill="#f09c0d" fill-opacity="0.9090909090909092" stroke-opacity="0.9090909090909092" />
  <polygon points="310.0,182.9090909090909 317.09090909090907,190.0 310.0,197.0909090909091 302.90909090909093,190.0" fill="#efa00b" fill-opacity="0.9090909090909092" stroke-opacity="0.9090909090909092" />
  <polygon points="10.0,202.45454545454547 17.545454545454543,210.0 10.0,217.54545454545453 2.454545454545455,210.0" fill="#ff6b35" fill-opacity="0.9545454545454546" stroke-opacity="0.9545454545454546" />
  <polygon points="30.0,202.45454545454547 37.54545454545455,210.0 30.0,217.54545454545453 22.454545454545453,210.0" fill="#fd6e32" fill-opacity="0.9545454545454546" stroke-opacity="0.9545454545454546" />
  <polygon points="50.0,202.45454545454547 57.54545454545455,210.0 50.0,217.54545454545453 42.45454545454545,210.0" fill="#fc722f" fill-opacity="0.9545454545454546" stroke-opacity="0.9545454545454546" />
  <polygon points="70.0,202.45454545454547 77.54545454545455,210.0 70.0,217.54545454545453 62.45454545454545,210.0" fill="#fb752c" fill-opacity="0.9545454545454546" stroke-opacity="0.9545454545454546" />
  <polygon points="90.0,202.45454545454547 97.54545454545455,210.0 90.0,217.54545454545453 82.45454545454545,210.0" fill="#fa7929" fill-opacity="0.9545454545454546" stroke-opacity="0.9545454545454546" />
  <polygon points="110.0,202.45454545454547 117.54545454545455,210.0 110.0,217.54545454545453 102.45454545454545,210.0" fill="#f97c27" fill-opacity="0.9545454545454546" stroke-opacity="0.9545454545454546" />
  <polygon points="130.0,202.45454545454547 137.54545454545453,210.0 130.0,217.54545454545453 122.45454545454545,210.0" fill="#f88024" fill-opacity="0.9545454545454546" stroke-opacity="0.9545454545454546" />
  <polygon points="150.0,202.45454545454547 157.54545454545453,210.0 150.0,217.54545454545453 142.45454545454547,210.0" fill="#f78321" fill-opacity="0.9545454545454546" stroke-opacity="0.9545454545454546" />
  <polygon points="170.0,202.45454545454547 177.54545454545453,210.0 170.0,217.54545454545453 162.45454545454547,210.0" fill="#f6871e" fill-opacity="0.9545454545454546" stroke-opacity="0.9545454545454546" />
  <polygon points="190.0,202.45454545454547 197.54545454545453,210.0 190.0,217.54545454545453 182.45454545454547,210.0" fill="#f58a1b" fill-opacity="0.9545454545454546" stroke-opacity="0.9545454545454546" />
  <polygon points="210.0,202.45454545454547 217.54545454545453,210.0 210.0,217.54545454545453 202.45454545454547,210.0" fill="#f48e19" fill-opacity="0.9545454545454546" stroke-opacity="0.9545454545454546" />
  <polygon points="230.0,202.45454545454547 237.54545454545453,210.0 230.0,217.54545454545453 222.45454545454547,210.0" fill="#f39116" fill-opacity="0.9545454545454546" stroke-opacity="0.9545454545454546" />
  <polygon points="250.0,202.45454545454547 257.54545454545456,210.0 250.0,217.54545454545453 242.45454545454547,210.0" fill="#f29513" fill-opacity="0.9545454545454546" stroke-opacity="0.9545454545454546" />
  <polygon points="270.0,202.45454545454547 277.54545454545456,210.0 270.0,217.54545454545453 262.45454545454544,210.0" fill="#f19810" fill-opacity="0.9545454545454546" stroke-opacity="0.9545454545454546" />
  <polygon points="290.0,202.45454545454547 297.54545454545456,210.0 290.0,217.54545454545453 282.45454545454544,210.0" fill="#f09c0d" fill-opacity="0.9545454545454546" stroke-opacity="0.9545454545454546" />
  <polygon points="310.0,202.45454545454547 317.54545454545456,210.0 310.0,217.54545454545453 302.45454545454544,210.0" fill="#efa00b" fill-opacity="0.9545454545454546" stroke-opacity="0.9545454545454546" />
  <polygon points="10.0,222.0 18.0,230.0 10.0,238.0 1.9999999999999996,230.0" fill="#ff6b35" />
  <polygon points="30.0,222.0 38.0,230.0 30.0,238.0 22.0,230.0" fill="#fd6e32" />
  <polygon points="50.0,222.0 58.0,230.0 50.0,238.0 42.0,230.0" fill="#fc722f" />
  <polygon points="70.0,222.0 78.0,230.0 70.0,238.0 62.0,230.0" fill="#fb752c" />
  <polygon points="90.0,222.0 98.0,230.0 90.0,238.0 82.0,230.0" fill="#fa7929" />
  <polygon points="110.0,222.0 118.0,230.0 110.0,238.0 102.0,230.0" fill="#f97c27" />
  <polygon points="130.0,222.0 138.0,230.0 130.0,238.0 122.0,230.0" fill="#f88024" />
  <polygon points="150.0,222.0 158.0,230.0 150.0,238.0 142.0,230.0" fill="#f78321" />
  <polygon points="170.0,222.0 178.0,230.0 170.0,238.0 162.0,230.0" fill="#f6871e" />
  <polygon points="190.0,222.0 198.0,230.0 190.0,238.0 182.0,230.0" fill="#f58a1b" />
  <polygon points="210.0,222.0 218.0,230.0 210.0,238.0 202.0,230.0" fill="#f48e19" />
  <polygon points="230.0,222.0 238.0,230.0 230.0,238.0 222.0,230.0" fill="#f39116" />
  <polygon points="250.0,222.0 258.0,230.0 250.0,238.0 242.0,230.0" fill="#f29513" />
  <polygon points="270.0,222.0 278.0,230.0 270.0,238.0 262.0,230.0" fill="#f19810" />
  <polygon points="290.0,222.0 298.0,230.0 290.0,238.0 282.0,230.0" fill="#f09c0d" />
  <polygon points="310.0,222.0 318.0,230.0 310.0,238.0 302.0,230.0" fill="#efa00b" />
</svg>