<?xml version="1.0" encoding="UTF-8"?>
<svg xmlns="http://www.w3.org/2000/svg" width="320" height="240" viewBox="0 0 320 240">
  <rect width="100%" height="100%" fill="#2d1b4e" />
  <polygon points="10,7 13,10 10,13 7,10" fill="#ff6b35" fill-opacity="0.5" stroke-opacity="0.5" />
  <polygon points="30,7 33,10 30,13 27,10" fill="#fd6e32" fill-opacity="0.5" stroke-opacity="0.5" />
  <polygon points="50,7 53,10 50,13 47,10" fill="#fc722f" fill-opacity="0.5" stroke-opacity="0.5" />
  <polygon points="70,7 73,10 70,13 67,10" fill="#fb752c" fill-opacity="0.5" stroke-opacity="0.5" />
  <polygon points="90,7 93,10 90,13 87,10" fill="#fa7929" fill-opacity="0.5" stroke-opacity="0.5" />
  <polygon points="110,7 113,10 110,13 107,10" fill="#f97c27" fill-opacity="0.5" stroke-opacity="0.5" />
  <polygon points="130,7 133,10 130,13 127,10" fill="#f88024" fill-opacity="0.5" stroke-opacity="0.5" />
  <polygon points="150,7 153,10 150,13 147,10" fill="#f78321" fill-opacity="0.5" stroke-opacity="0.5" />
  <polygon points="170,7 173,10 170,13 167,10" fill="#f6871e" fill-opacity="0.5" stroke-opacity="0.5" />
  <polygon points="190,7 193,10 190,13 187,10" fill="#f58a1b" fill-opacity="0.5" stroke-opacity="0.5" />
  <polygon points="210,7 213,10 210,13 207,10" fill="#f48e19" fill-opacity="0.5" stroke-opacity="0.5" />
  <polygon points="230,7 233,10 230,13 227,10" fill="#f39116" fill-opacity="0.5" stroke-opacity="0.5" />
  <polygon points="250,7 253,10 250,13 247,10" fill="#f29513" fill-opacity="0.5" stroke-opacity="0.5" />
  <polygon points="270,7 273,10 270,13 267,10" fill="#f19810" fill-opacity="0.5" stroke-opacity="0.5" />
  <polygon points="290,7 293,10 290,13 287,10" fill="#f09c0d" fill-opacity="0.5" stroke-opacity="0.5" />
  <polygon points="310,7 313,10 310,13 307,10" fill="#efa00b" fill-opacity="0.5" stroke-opacity="0.5" />
  <polygon points="10,26.5455 13.4545,30 10,33.4545 6.54545,30" fill="#ff6b35" fill-opacity="0.545455" stroke-opacity="0.545455" />
  <polygon points="30,26.5455 33.4545,30 30,33.4545 26.5455,30" fill="#fd6e32" fill-opacity="0.545455" stroke-opacity="0.545455" />
  <polygon points="50,26.5455 53.4545,30 50,33.4545 46.5455,30" fill="#fc722f" fill-opacity="0.545455" stroke-opacity="0.545455" />
  <polygon points="70,26.5455 73.4545,30 70,33.4545 66.5455,30" fill="#fb752c" fill-opacity="0.545455" stroke-opacity="0.545455" />
  <polygon points="90,26.5455 93.4545,30 90,33.4545 86.5455,30" fill="#fa7929" fill-opacity="0.545455" stroke-opacity="0.545455" />
  <polygon points="110,26.5455 113.455,30 110,33.4545 106.545,30" fill="#f97c27" fill-opacity="0.545455" stroke-opacity="0.545455" />
  <polygon points="130,26.5455 133.455,30 130,33.4545 126.545,30" fill="#f88024" fill-opacity="0.545455" stroke-opacity="0.545455" />
  <polygon points="150,26.5455 153.455,30 150,33.4545 146.545,30" fill="#f78321" fill-opacity="0.545455" stroke-opacity="0.545455" />
  <polygon points="170,26.5455 173.455,30 170,33.4545 166.545,30" fill="#f6871e" fill-opacity="0.545455" stroke-opacity="0.545455" />
  <polygon points="190,26.5455 193.455,30 190,33.4545 186.545,30" fill="#f58a1b" fill-opacity="0.545455" stroke-opacity="0.545455" />
  <polygon points="210,26.5455 213.455,30 210,33.4545 206.545,30" fill="#f48e19" fill-opacity="0.545455" stroke-opacity="0.545455" />
  <polygon points="230,26.5455 233.455,30 230,33.4545 226.545,30" fill="#f39116" fill-opacity="0.545455" stroke-opacity="0.545455" />
  <polygon points="250,26.5455 253.455,30 250,33.4545 246.545,30" fill="#f29513" fill-opacity="0.545455" stroke-opacity="0.545455" />
  <polygon points="270,26.5455 273.455,30 270,33.4545 266.545,30" fill="#f19810" fill-opacity="0.545455" stroke-opacity="0.545455" />
  <polygon points="290,26.5455 293.455,30 290,33.4545 286.545,30" fill="#f09c0d" fill-opacity="0.545455" stroke-opacity="0.545455" />
  <polygon points="310,26.5455 313.455,30 310,33.4545 306.545,30" fill="#efa00b" fill-opacity="0.545455" stroke-opacity="0.545455" />
  <polygon points="10,46.0909 13.9091,50 10,53.9091 6.09091,50" fill="#ff6b35" fill-opacity="0.590909" stroke-opacity="0.590909" />
  <polygon points="30,46.0909 33.9091,50 30,53.9091 26.0909,50" fill="#fd6e32" fill-opacity="0.590909" stroke-opacity="0.590909" />
  <polygon points="50,46.0909 53.9091,50 50,53.9091 46.0909,50" fill="#fc722f" fill-opacity="0.590909" stroke-opacity="0.590909" />
  <polygon points="70,46.0909 73.9091,50 70,53.9091 66.0909,50" fill="#fb752c" fill-opacity="0.590909" stroke-opacity="0.590909" />
  <polygon points="90,46.0909 93.9091,50 90,53.9091 86.0909,50" fill="#fa7929" fill-opacity="0.590909" stroke-opacity="0.590909" />
  <polygon points="110,46.0909 113.909,50 110,53.9091 106.091,50" fill="#f97c27" fill-opacity="0.590909" stroke-opacity="0.590909" />
  <polygon points="130,46.0909 133.909,50 130,53.9091 126.091,50" fill="#f88024" fill-opacity="0.590909" stroke-opacity="0.590909" />
  <polygon points="150,46.0909 153.909,50 150,53.9091 146.091,50" fill="#f78321" fill-opacity="0.590909" stroke-opacity="0.590909" />
  <polygon points="170,46.0909 173.909,50 170,53.9091 166.091,50" fill="#f6871e" fill-opacity="0.590909" stroke-opacity="0.590909" />
  <polygon points="190,46.0909 193.909,50 190,53.9091 186.091,50" fill="#f58a1b" fill-opacity="0.590909" stroke-opacity="0.590909" />
  <polygon points="210,46.0909 213.909,50 210,53.9091 206.091,50" fill="#f48e19" fill-opacity="0.590909" stroke-opacity="0.590909" />
  <polygon points="230,46.0909 233.909,50 230,53.9091 226.091,50" fill="#f39116" fill-opacity="0.590909" stroke-opacity="0.590909" />
  <polygon points="250,46.0909 253.909,50 250,53.9091 246.091,50" fill="#f29513" fill-opacity="0.590909" stroke-opacity="0.590909" />
  <polygon points="270,46.0909 273.909,50 270,53.9091 266.091,50" fill="#f19810" fill-opacity="0.590909" stroke-opacity="0.590909" />
  <polygon points="290,46.0909 293.909,50 290,53.9091 286.091,50" fill="#f09c0d" fill-opacity="0.590909" stroke-opacity="0.590909" />
  <polygon points="310,46.0909 313.909,50 310,53.9091 306.091,50" fill="#efa00b" fill-opacity="0.590909" stroke-opacity="0.590909" />
  <polygon points="10,65.6364 14.3636,70 10,74.3636 5.63636,70" fill="#ff6b35" fill-opacity="0.636364" stroke-opacity="0.636364" />
  <polygon points="30,65.6364 34.3636,70 30,74.3636 25.6364,70" fill="#fd6e32" fill-opacity="0.636364" stroke-opacity="0.636364" />
  <polygon points="50,65.6364 54.3636,70 50,74.3636 45.6364,70" fill="#fc722f" fill-opacity="0.636364" stroke-opacity="0.636364" />
  <polygon points="70,65.6364 74.3636,70 70,74.3636 65.6364,70" fill="#fb752c" fill-opacity="0.636364" stroke-opacity="0.636364" />
  <polygon points="90,65.6364 94.3636,70 90,74.3636 85.6364,70" fill="#fa7929" fill-opacity="0.636364" stroke-opacity="0.636364" />
  <polygon points="110,65.6364 114.364,70 110,74.3636 105.636,70" fill="#f97c27" fill-opacity="0.636364" stroke-opacity="0.636364" />
  <polygon points="130,65.6364 134.364,70 130,74.3636 125.636,70" fill="#f88024" fill-opacity="0.636364" stroke-opacity="0.636364" />
  <polygon points="150,65.6364 154.364,70 150,74.3636 145.636,70" fill="#f78321" fill-opacity="0.636364" stroke-opacity="0.636364" />
  <polygon points="170,65.6364 174.364,70 170,74.3636 165.636,70" fill="#f6871e" fill-opacity="0.636364" stroke-opacity="0.636364" />
  <polygon points="190,65.6364 194.364,70 190,74.3636 185.636,70" fill="#f58a1b" fill-opacity="0.636364" stroke-opacity="0.636364" />
  <polygon points="210,65.6364 214.364,70 210,74.3636 205.636,70" fill="#f48e19" fill-opacity="0.636364" stroke-opacity="0.636364" />
  <polygon points="230,65.6364 234.364,70 230,74.3636 225.636,70" fill="#f39116" fill-opacity="0.636364" stroke-opacity="0.636364" />
  <polygon points="250,65.6364 254.364,70 250,74.3636 245.636,70" fill="#f29513" fill-opacity="0.636364" stroke-opacity="0.636364" />
  <polygon points="270,65.6364 274.364,70 270,74.3636 265.636,70" fill="#f19810" fill-opacity="0.636364" stroke-opacity="0.636364" />
  <polygon points="290,65.6364 294.364,70 290,74.3636 285.636,70" fill="#f09c0d" fill-opacity="0.636364" stroke-opacity="0.636364" />
  <polygon points="310,65.6364 314.364,70 310,74.3636 305.636,70" fill="#efa00b" fill-opacity="0.636364" stroke-opacity="0.636364" />
  <polygon points="10,85.1818 14.8182,90 10,94.8182 5.18182,90" fill="#ff6b35" fill-opacity="0.681818" stroke-opacity="0.681818" />
  <polygon points="30,85.1818 34.8182,90 30,94.8182 25.1818,90" fill="#fd6e32" fill-opacity="0.681818" stroke-opacity="0.681818" />
  <polygon points="50,85.1818 54.8182,90 50,94.8182 45.1818,90" fill="#fc722f" fill-opacity="0.681818" stroke-opacity="0.681818" />
  <polygon points="70,85.1818 74.8182,90 70,94.8182 65.1818,90" fill="#fb752c" fill-opacity="0.681818" stroke-opacity="0.681818" />
  <polygon points="90,85.1818 94.8182,90 90,94.8182 85.1818,90" fill="#fa7929" fill-opacity="0.681818" stroke-opacity="0.681818" />
  <polygon points="110,85.1818 114.818,90 110,94.8182 105.182,90" fill="#f97c27" fill-opacity="0.681818" stroke-opacity="0.681818" />
  <polygon points="130,85.1818 134.818,90 130,94.8182 125.182,90" fill="#f88024" fill-opacity="0.681818" stroke-opacity="0.681818" />
  <polygon points="150,85.1818 154.818,90 150,94.8182 145.182,90" fill="#f78321" fill-opacity="0.681818" stroke-opacity="0.681818" />
  <polygon points="170,85.1818 174.818,90 170,94.8182 165.182,90" fill="#f6871e" fill-opacity="0.681818" stroke-opacity="0.681818" />
  <polygon points="190,85.1818 194.818,90 190,94.8182 185.182,90" fill="#f58a1b" fill-opacity="0.681818" stroke-opacity="0.681818" />
  <polygon points="210,85.1818 214.818,90 210,94.8182 205.182,90" fill="#f48e19" fill-opacity="0.681818" stroke-opacity="0.681818" />
  <polygon points="230,85.1818 234.818,90 230,94.8182 225.182,90" fill="#f39116" fill-opacity="0.681818" stroke-opacity="0.681818" />
  <polygon points="250,85.1818 254.818,90 250,94.8182 245.182,90" fill="#f29513" fill-opacity="0.681818" stroke-opacity="0.681818" />
  <polygon points="270,85.1818 274.818,90 270,94.8182 265.182,90" fill="#f19810" fill-opacity="0.681818" stroke-opacity="0.681818" />
  <polygon points="290,85.1818 294.818,90 290,94.8182 285.182,90" fill="#f09c0d" fill-opacity="0.681818" stroke-opacity="0.681818" />
  <polygon points="310,85.1818 314.818,90 310,94.8182 305.182,90" fill="#efa00b" fill-opacity="0.681818" stroke-opacity="0.681818" />
  <polygon points="10,104.727 15.2727,110 10,115.273 4.72727,110" fill="#ff6b35" fill-opacity="0.727273" stroke-opacity="0.727273" />
  <polygon points="30,104.727 35.2727,110 30,115.273 24.7273,110" fill="#fd6e32" fill-opacity="0.727273" stroke-opacity="0.727273" />
  <polygon points="50,104.727 55.2727,110 50,115.273 44.7273,110" fill="#fc722f" fill-opacity="0.727273" stroke-opacity="0.727273" />
  <polygon points="70,104.727 75.2727,110 70,115.273 64.7273,110" fill="#fb752c" fill-opacity="0.727273" stroke-opacity="0.727273" />
  <polygon points="90,104.727 95.2727,110 90,115.273 84.7273,110" fill="#fa7929" fill-opacity="0.727273" stroke-opacity="0.727273" />
  <polygon points="110,104.727 115.273,110 110,115.273 104.727,110" fill="#f97c27" fill-opacity="0.727273" stroke-opacity="0.727273" />
  <polygon points="130,104.727 135.273,110 130,115.273 124.727,110" fill="#f88024" fill-opacity="0.727273" stroke-opacity="0.727273" />
  <polygon points="150,104.727 155.273,110 150,115.273 144.727,110" fill="#f78321" fill-opacity="0.727273" stroke-opacity="0.727273" />
  <polygon points="170,104.727 175.273,110 170,115.273 164.727,110" fill="#f6871e" fill-opacity="0.727273" stroke-opacity="0.727273" />
  <polygon points="190,104.727 195.273,110 190,115.273 184.727,110" fill="#f58a1b" fill-opacity="0.727273" stroke-opacity="0.727273" />
  <polygon points="210,104.727 215.273,110 210,115.273 204.727,110" fill="#f48e19" fill-opacity="0.727273" stroke-opacity="0.727273" />
  <polygon points="230,104.727 235.273,110 230,115.273 224.727,110" fill="#f39116" fill-opacity="0.727273" stroke-opacity="0.727273" />
  <polygon points="250,104.727 255.273,110 250,115.273 244.727,110" fill="#f29513" fill-opacity="0.727273" stroke-opacity="0.727273" />
  <polygon points="270,104.727 275.273,110 270,115.273 264.727,110" fill="#f19810" fill-opacity="0.727273" stroke-opacity="0.727273" />
  <polygon points="290,104.727 295.273,110 290,115.273 284.727,110" fill="#f09c0d" fill-opacity="0.727273" stroke-opacity="0.727273" />
  <polygon points="310,104.727 315.273,110 310,115.273 304.727,110" fill="#efa00b" fill-opacity="0.727273" stroke-opacity="0.727273" />
  <polygon points="10,124.273 15.7273,130 10,135.727 4.27273,130" fill="#ff6b35" fill-opacity="0.772727" stroke-opacity="0.772727" />
  <polygon points="30,124.273 35.7273,130 30,135.727 24.2727,130" fill="#fd6e32" fill-opacity="0.772727" stroke-opacity="0.772727" />
  <polygon points="50,124.273 55.7273,130 50,135.727 44.2727,130" fill="#fc722f" fill-opacity="0.772727" stroke-opacity="0.772727" />
  <polygon points="70,124.273 75.7273,130 70,135.727 64.2727,130" fill="#fb752c" fill-opacity="0.772727" stroke-opacity="0.772727" />
  <polygon points="90,124.273 95.7273,130 90,135.727 84.2727,130" fill="#fa7929" fill-opacity="0.772727" stroke-opacity="0.772727" />
  <polygon points="110,124.273 115.727,130 110,135.727 104.273,130" fill="#f97c27" fill-opacity="0.772727" stroke-opacity="0.772727" />
  <polygon points="130,124.273 135.727,130 130,135.727 124.273,130" fill="#f88024" fill-opacity="0.772727" stroke-opacity="0.772727" />
  <polygon points="150,124.273 155.727,130 150,135.727 144.273,130" fill="#f78321" fill-opacity="0.772727" stroke-opacity="0.772727" />
  <polygon points="170,124.273 175.727,130 170,135.727 164.273,130" fill="#f6871e" fill-opacity="0.772727" stroke-opacity="0.772727" />
  <polygon points="190,124.273 195.727,130 190,135.727 184.273,130" fill="#f58a1b" fill-opacity="0.772727" stroke-opacity="0.772727" />
  <polygon points="210,124.273 215.727,130 210,135.727 204.273,130" fill="#f48e19" fill-opacity="0.772727" stroke-opacity="0.772727" />
  <polygon points="230,124.273 235.727,130 230,135.727 224.273,130" fill="#f39116" fill-opacity="0.772727" stroke-opacity="0.772727" />
  <polygon points="250,124.273 255.727,130 250,135.727 244.273,130" fill="#f29513" fill-opacity="0.772727" stroke-opacity="0.772727" />
  <polygon points="270,124.273 275.727,130 270,135.727 264.273,130" fill="#f19810" fill-opacity="0.772727" stroke-opacity="0.772727" />
  <polygon points="290,124.273 295.727,130 290,135.727 284.273,130" fill="#f09c0d" fill-opacity="0.772727" stroke-opacity="0.772727" />
  <polygon points="310,124.273 315.727,130 310,135.727 304.273,130" fill="#efa00b" fill-opacity="0.772727" stroke-opacity="0.772727" />
  <polygon points="10,143.818 16.1818,150 10,156.182 3.81818,150" fill="#ff6b35" fill-opacity="0.818182" stroke-opacity="0.818182" />
  <polygon points="30,143.818 36.1818,150 30,156.182 23.8182,150" fill="#fd6e32" fill-opacity="0.818182" stroke-opacity="0.818182" />
  <polygon points="50,143.818 56.1818,150 50,156.182 43.8182,150" fill="#fc722f" fill-opacity="0.818182" stroke-opacity="0.818182" />
  <polygon points="70,143.818 76.1818,150 70,156.182 63.8182,150" fill="#fb752c" fill-opacity="0.818182" stroke-opacity="0.818182" />
  <polygon points="90,143.818 96.1818,150 90,156.182 83.8182,150" fill="#fa7929" fill-opacity="0.818182" stroke-opacity="0.818182" />
  <polygon points="110,143.818 116.182,150 110,156.182 103.818,150" fill="#f97c27" fill-opacity="0.818182" stroke-opacity="0.818182" />
  <polygon points="130,143.818 136.182,150 130,156.182 123.818,150" fill="#f88024" fill-opacity="0.818182" stroke-opacity="0.818182" />
  <polygon points="150,143.818 156.182,150 150,156.182 143.818,150" fill="#f78321" fill-opacity="0.818182" stroke-opacity="0.818182" />
  <polygon points="170,143.818 176.182,150 170,156.182 163.818,150" fill="#f6871e" fill-opacity="0.818182" stroke-opacity="0.818182" />
  <polygon points="190,143.818 196.182,150 190,156.182 183.818,150" fill="#f58a1b" fill-opacity="0.818182" stroke-opacity="0.818182" />
  <polygon points="210,143.818 216.182,150 210,156.182 203.818,150" fill="#f48e19" fill-opacity="0.818182" stroke-opacity="0.818182" />
  <polygon points="230,143.818 236.182,150 230,156.182 223.818,150" fill="#f39116" fill-opacity="0.818182" stroke-opacity="0.818182" />
  <polygon points="250,143.818 256.182,150 250,156.182 243.818,150" fill="#f29513" fill-opacity="0.818182" stroke-opacity="0.818182" />
  <polygon points="270,143.818 276.182,150 270,156.182 263.818,150" fill="#f19810" fill-opacity="0.818182" stroke-opacity="0.818182" />
  <polygon points="290,143.818 296.182,150 290,156.182 283.818,150" fill="#f09c0d" fill-opacity="0.818182" stroke-opacity="0.818182" />
  <polygon points="310,143.818 316.182,150 310,156.182 303.818,150" fill="#efa00b" fill-opacity="0.818182" stroke-opacity="0.818182" />
  <polygon points="10,163.364 16.6364,170 10,176.636 3.36364,170" fill="#ff6b35" fill-opacity="0.863636" stroke-opacity="0.863636" />
  <polygon points="30,163.364 36.6364,170 30,176.636 23.3636,170" fill="#fd6e32" fill-opacity="0.863636" stroke-opacity="0.863636" />
  <polygon points="50,163.364 56.6364,170 50,176.636 43.3636,170" fill="#fc722f" fill-opacity="0.863636" stroke-opacity="0.863636" />
  <polygon points="70,163.364 76.6364,170 70,176.636 63.3636,170" fill="#fb752c" fill-opacity="0.863636" stroke-opacity="0.863636" />
  <polygon points="90,163.364 96.6364,170 90,176.636 83.3636,170" fill="#fa7929" fill-opacity="0.863636" stroke-opacity="0.863636" />
  <polygon points="110,163.364 116.636,170 110,176.636 103.364,170" fill="#f97c27" fill-opacity="0.863636" stroke-opacity="0.863636" />
  <polygon points="130,163.364 136.636,170 130,176.636 123.364,170" fill="#f88024" fill-opacity="0.863636" stroke-opacity="0.863636" />
  <polygon points="150,163.364 156.636,170 150,176.636 143.364,170" fill="#f78321" fill-opacity="0.863636" stroke-opacity="0.863636" />
  <polygon points="170,163.364 176.636,170 170,176.636 163.364,170" fill="#f6871e" fill-opacity="0.863636" stroke-opacity="0.863636" />
  <polygon points="190,163.364 196.636,170 190,176.636 183.364,170" fill="#f58a1b" fill-opacity="0.863636" stroke-opacity="0.863636" />
  <polygon points="210,163.364 216.636,170 210,176.636 203.364,170" fill="#f48e19" fill-opacity="0.863636" stroke-opacity="0.863636" />
  <polygon points="230,163.364 236.636,170 230,176.636 223.364,170" fill="#f39116" fill-opacity="0.863636" stroke-opacity="0.863636" />
  <polygon points="250,163.364 256.636,170 250,176.636 243.364,170" fill="#f29513" fill-opacity="0.863636" stroke-opacity="0.863636" />
  <polygon points="270,163.364 276.636,170 270,176.636 263.364,170" fill="#f19810" fill-opacity="0.863636" stroke-opacity="0.863636" />
  <polygon points="290,163.364 296.636,170 290,176.636 283.364,170" fill="#f09c0d" fill-opacity="0.863636" stroke-opacity="0.863636" />
  <polygon points="310,163.364 316.636,170 310,176.636 303.364,170" fill="#efa00b" fill-opacity="0.863636" stroke-opacity="0.863636" />
  <polygon points="10,182.909 17.0909,190 10,197.091 2.90909,190" fill="#ff6b35" fill-opacity="0.909091" stroke-opacity="0.909091" />
  <polygon points="30,182.909 37.0909,190 30,197.091 22.9091,190" fill="#fd6e32" fill-opacity="0.909091" stroke-opacity="0.909091" />
  <polygon points="50,182.909 57.0909,190 50,197.091 42.9091,190" fill="#fc722f" fill-opacity="0.909091" stroke-opacity="0.909091" />
  <polygon points="70,182.909 77.0909,190 70,197.091 62.9091,190" fill="#fb752c" fill-opacity="0.909091" stroke-opacity="0.909091" />
  <polygon points="90,182.909 97.0909,190 90,197.091 82.9091,190" fill="#fa7929" fill-opacity="0.909091" stroke-opacity="0.909091" />
  <polygon points="110,182.909 117.091,190 110,197.091 102.909,190" fill="#f97c27" fill-opacity="0.909091" stroke-opacity="0.909091" />
  <polygon points="130,182.909 137.091,190 130,197.091 122.909,190" fill="#f88024" fill-opacity="0.909091" stroke-opacity="0.909091" />
  <polygon points="150,182.909 157.091,190 150,197.091 142.909,190" fill="#f78321" fill-opacity="0.909091" stroke-opacity="0.909091" />
  <polygon points="170,182.909 177.091,190 170,197.091 162.909,190" fill="#f6871e" fill-opacity="0.909091" stroke-opacity="0.909091" />
  <polygon points="190,182.909 197.091,190 190,197.091 182.909,190" fill="#f58a1b" fill-opacity="0.909091" stroke-opacity="0.909091" />
  <polygon points="210,182.909 217.091,190 210,197.091 202.909,190" fill="#f48e19" fill-opacity="0.909091" stroke-opacity="0.909091" />
  <polygon points="230,182.909 237.091,190 230,197.091 222.909,190" fill="#f39116" fill-opacity="0.909091" stroke-opacity="0.909091" />
  <polygon points="250,182.909 257.091,190 250,197.091 242.909,190" fill="#f29513" fill-opacity="0.909091" stroke-opacity="0.909091" />
  <polygon points="270,182.909 277.091,190 270,197.091 262.909,190" fill="#f19810" fill-opacity="0.909091" stroke-opacity="0.909091" />
  <polygon points="290,182.909 297.091,190 290,197.091 282.909,190" fill="#f09c0d" fill-opacity="0.909091" stroke-opacity="0.909091" />
  <polygon points="310,182.909 317.091,190 310,197.091 302.909,190" fill="#efa00b" fill-opacity="0.909091" stroke-opacity="0.909091" />
  <polygon points="10,202.455 17.5455,210 10,217.545 2.45455,210" fill="#ff6b35" fill-opacity="0.954545" stroke-opacity="0.954545" />
  <polygon points="30,202.455 37.5455,210 30,217.545 22.4545,210" fill="#fd6e32" fill-opacity="0.954545" stroke-opacity="0.954545" />
  <polygon points="50,202.455 57.5455,210 50,217.545 42.4545,210" fill="#fc722f" fill-opacity="0.954545" stroke-opacity="0.954545" />
  <polygon points="70,202.455 77.5455,210 70,217.545 62.4545,210" fill="#fb752c" fill-opacity="0.954545" stroke-opacity="0.954545" />
  <polygon points="90,202.455 97.5455,210 90,217.545 82.4545,210" fill="#fa7929" fill-opacity="0.954545" stroke-opacity="0.954545" />
  <polygon points="110,202.455 117.545,210 110,217.545 102.455,210" fill="#f97c27" fill-opacity="0.954545" stroke-opacity="0.954545" />
  <polygon points="130,202.455 137.545,210 130,217.545 122.455,210" fill="#f88024" fill-opacity="0.954545" stroke-opacity="0.954545" />
  <polygon points="150,202.455 157.545,210 150,217.545 142.455,210" fill="#f78321" fill-opacity="0.954545" stroke-opacity="0.954545" />
  <polygon points="170,202.455 177.545,210 170,217.545 162.455,210" fill="#f6871e" fill-opacity="0.954545" stroke-opacity="0.954545" />
  <polygon points="190,202.455 197.545,210 190,217.545 182.455,210" fill="#f58a1b" fill-opacity="0.954545" stroke-opacity="0.954545" />
  <polygon points="210,202.455 217.545,210 210,217.545 202.455,210" fill="#f48e19" fill-opacity="0.954545" stroke-opacity="0.954545" />
  <polygon points="230,202.455 237.545,210 230,217.545 222.455,210" fill="#f39116" fill-opacity="0.954545" stroke-opacity="0.954545" />
  <polygon points="250,202.455 257.545,210 250,217.545 242.455,210" fill="#f29513" fill-opacity="0.954545" stroke-opacity="0.954545" />
  <polygon points="270,202.455 277.545,210 270,217.545 262.455,210" fill="#f19810" fill-opacity="0.954545" stroke-opacity="0.954545" />
  <polygon points="290,202.455 297.545,210 290,217.545 282.455,210" fill="#f09c0d" fill-opacity="0.954545" stroke-opacity="0.954545" />
  <polygon points="310,202.455 317.545,210 310,217.545 302.455,210" fill="#efa00b" fill-opacity="0.954545" stroke-opacity="0.954545" />
  <polygon points="10,222 18,230 10,238 2,230" fill="#ff6b35" />
  <polygon points="30,222 38,230 30,238 22,230" fill="#fd6e32" />
  <polygon points="50,222 58,230 50,238 42,230" fill="#fc722f" />
  <polygon points="70,222 78,230 70,238 62,230" fill="#fb752c" />
  <polygon points="90,222 98,230 90,238 82,230" fill="#fa7929" />
  <polygon points="110,222 118,230 110,238 102,230" fill="#f97c27" />
  <polygon points="130,222 138,230 130,238 122,230" fill="#f88024" />
  <polygon points="150,222 158,230 150,238 142,230" fill="#f78321" />
  <polygon points="170,222 178,230 170,238 162,230" fill="#f6871e" />
  <polygon points="190,222 198,230 190,238 182,230" fill="#f58a1b" />
  <polygon points="210,222 218,230 210,238 202,230" fill="#f48e19" />
  <polygon points="230,222 238,230 230,238 222,230" fill="#f39116" />
  <polygon points="250,222 258,230 250,238 242,230" fill="#f29513" />
  <polygon points="270,222 278,230 270,238 262,230" fill="#f19810" />
  <polygon points="290,222 298,230 290,238 282,230" fill="#f09c0d" />
  <polygon points="310,222 318,230 310,238 302,230" fill="#efa00b" />
</svg>