<?xml version="1.0" encoding="UTF-8"?>
<svg xmlns="http://www.w3.org/2000/svg" width="440" height="320" viewBox="0 0 440 320">
  <rect width="100%" height="100%" fill="#0f0f23" />
  <path d="M 272.9821834139958 36.5027963578934 C 304.22801283784605 46.460177123404534 336.24336360912787 51.827277165322805 369.02823572784126 52.6040964836482" fill="none" stroke="#a78bfa" stroke-width="0.7010493203078236" stroke-linecap="round" stroke-linejoin="round" opacity="0.12543721679492653" />
  <path d="M 272.9821834139958 36.5027963578934 C 245.42593370141398 36.544434177138044 217.87530305688296 36.95926107580634 190.33029148040276 37.747277053898294" fill="none" stroke="#a78bfa" stroke-width="0.8369729808399686" stroke-linecap="round" stroke-linejoin="round" opacity="0.18207207534998693" />
  <path d="M 272.9821834139958 36.5027963578934 C 294.40948686916454 33.46907741093521 315.943283577024 31.864704463736032 337.5835735375741 31.689677516295866" fill="none" stroke="#a78bfa" stroke-width="1.0020266854428213" stroke-linecap="round" stroke-linejoin="round" opacity="0.2508444522678422" />
  <path d="M 272.9821834139958 36.5027963578934 C 232.49397427631254 39.121333109570045 194.59831189725958 50.42862430729331 159.29519627683692 70.42466995106321" fill="none" stroke="#a78bfa" stroke-width="0.5048625128747193" stroke-linecap="round" stroke-linejoin="round" opacity="0.0436927136977997" />
  <path d="M 272.9821834139958 36.5027963578934 C 280.90826501969667 39.79620792541817 289.15996980225503 41.60005572294443 297.7372977616709 41.91433975047218" fill="none" stroke="#a78bfa" stroke-width="1.3660950601358777" stroke-linecap="round" stroke-linejoin="round" opacity="0.402539608389949" />
  <path d="M 272.9821834139958 36.5027963578934 C 281.3332124858653 66.09603014945188 280.8591809546907 95.5472202075614 271.56008882047206 124.8563665322219" fill="none" stroke="#a78bfa" stroke-width="0.784322946837668" stroke-linecap="round" stroke-linejoin="round" opacity="0.16013456118236163" />
  <path d="M 134.51114098026534 88.03479191869391 C 148.13064817102338 65.73685336792579 166.7370316710692 48.974348412993905 190.33029148040276 37.74727705389828" fill="none" stroke="#a78bfa" stroke-width="0.9064864831152641" stroke-linecap="round" stroke-linejoin="round" opacity="0.21103603463136006" />
  <path d="M 134.51114098026534 88.03479191869391 C 128.9560843294346 112.95115044310475 121.8131808111359 137.40367810583152 113.08243042536927 161.3923749068742" fill="none" stroke="#a78bfa" stroke-width="0.8945539222400269" stroke-linecap="round" stroke-linejoin="round" opacity="0.2060641342666779" />
  <path d="M 134.51114098026534 88.03479191869391 C 102.62657795981531 92.01306208631785 71.15075379301625 89.90072783959609 40.08366847986818 81.69778917852862" fill="none" stroke="#a78bfa" stroke-width="0.7264011915668056" stroke-linecap="round" stroke-linejoin="round" opacity="0.13600049648616902" />
  <path d="M 134.51114098026534 88.03479191869391 C 131.53813912083749 120.61863768904617 124.62357091923728 152.3433996520603 113.76743637546473 183.20907780773626" fill="none" stroke="#a78bfa" stroke-width="0.7008431890545084" stroke-linecap="round" stroke-linejoin="round" opacity="0.12535132877271182" />
  <path d="M 134.51114098026534 88.03479191869391 C 141.05296894120056 79.7447354824022 149.31432070672443 73.8746948265253 159.29519627683692 70.42466995106321" fill="none" stroke="#a78bfa" stroke-width="1.3193533732991236" stroke-linecap="round" stroke-linejoin="round" opacity="0.3830639055413015" />
  <path d="M 134.51114098026534 88.03479191869391 C 108.24279828811788 83.76756908435333 85.15355812284815 72.80472443702223 65.24342048445621 55.14625797670064" fill="none" stroke="#a78bfa" stroke-width="0.8921936218498141" stroke-linecap="round" stroke-linejoin="round" opacity="0.2050806757707559" />
  <path d="M 134.51114098026534 88.03479191869391 C 153.61789659308607 113.77489861992646 166.72853737938908 142.27348935737484 173.84306333917436 173.53056413103903" fill="none" stroke="#a78bfa" stroke-width="0.7313003956810904" stroke-linecap="round" stroke-linejoin="round" opacity="0.13804183153378768" />
  <path d="M 134.51114098026534 88.03479191869391 C 126.86408058513611 92.02442966448606 120.89414850757693 97.75978920377071 116.6013447475878 105.24087053654786" fill="none" stroke="#a78bfa" stroke-width="1.3707477659507958" stroke-linecap="round" stroke-linejoin="round" opacity="0.4044782358128316" />
  <path d="M 134.51114098026534 88.03479191869391 C 109.8779187757041 91.74950388861627 85.1478555259418 92.57978340034092 60.32095123097844 90.52563045386785" fill="none" stroke="#a78bfa" stroke-width="0.9147816188139828" stroke-linecap="round" stroke-linejoin="round" opacity="0.21449234117249283" />
  <path d="M 134.51114098026534 88.03479191869391 C 112.27427100217045 91.88294322193525 90.23073840064768 96.62905818524527 68.38054317569706 102.27313680862396" fill="none" stroke="#a78bfa" stroke-width="0.9755750356134945" stroke-linecap="round" stroke-linejoin="round" opacity="0.23982293150562267" />
  <path d="M 309.85906138232474 205.94186672995693 C 299.8219099612084 193.62911343383897 288.8542516191731 182.21008617613208 276.9560863562188 171.68478495683632" fill="none" stroke="#a78bfa" stroke-width="1.161547846204515" stroke-linecap="round" stroke-linejoin="round" opacity="0.31731160258521457" />
  <path d="M 309.85906138232474 205.94186672995693 C 318.08653877358864 210.43129272537269 326.8706235449694 212.28941804770005 336.211315696467 211.51624269693897" fill="none" stroke="#a78bfa" stroke-width="1.351365675250652" stroke-linecap="round" stroke-linejoin="round" opacity="0.3964023646877717" />
  <path d="M 309.85906138232474 205.94186672995693 C 329.058000652291 168.15478161071678 357.018636004375 138.67901994382544 393.74096743857683 117.51458172928294" fill="none" stroke="#a78bfa" stroke-width="0.47492262434248267" stroke-linecap="round" stroke-linejoin="round" opacity="0.031217760142701112" />
  <path d="M 309.85906138232474 205.94186672995693 C 323.41983547500325 198.5008951469434 337.4827680849066 192.17652895542165 352.0478592120347 186.96876815539167" fill="none" stroke="#a78bfa" stroke-width="1.172996036086447" stroke-linecap="round" stroke-linejoin="round" opacity="0.32208168170268625" />
  <path d="M 309.85906138232474 205.94186672995693 C 317.90150309960774 212.30505088718346 326.85139725358766 216.90118349066202 336.70874384426446 219.73026454039265" fill="none" stroke="#a78bfa" stroke-width="1.3213858766987323" stroke-linecap="round" stroke-linejoin="round" opacity="0.38391078195780515" />
  <path d="M 309.85906138232474 205.94186672995693 C 276.9349011280528 224.16697182272486 251.57077225153998 249.85638245761803 233.7666747527863 283.0100986346364" fill="none" stroke="#a78bfa" stroke-width="0.6002789830718315" stroke-linecap="round" stroke-linejoin="round" opacity="0.08344957627992977" />
  <path d="M 309.85906138232474 205.94186672995693 C 321.309250669153 200.14933010959348 333.08082101375743 195.10708640450918 345.17377241613804 190.81513561470396" fill="none" stroke="#a78bfa" stroke-width="1.2453718168608383" stroke-linecap="round" stroke-linejoin="round" opacity="0.3522382570253493" />
  <path d="M 309.85906138232474 205.94186672995693 C 324.5024333457951 195.0843861495472 340.36562025771866 186.47428316181427 357.44862211809533 180.11155776675812" fill="none" stroke="#a78bfa" stroke-width="1.1001752698255836" stroke-linecap="round" stroke-linejoin="round" opacity="0.29173969576065983" />
  <path d="M 309.85906138232474 205.94186672995693 C 304.7799157512799 175.28249505462654 292.01359156399565 148.25399498871485 271.56008882047206 124.8563665322219" fill="none" stroke="#a78bfa" stroke-width="0.7722274744363349" stroke-linecap="round" stroke-linejoin="round" opacity="0.15509478101513952" />
  <path d="M 369.02823572784126 52.6040964836482 C 358.79538522335025 45.25869967631128 348.3138311599279 38.28722668719384 337.5835735375741 31.68967751629587" fill="none" stroke="#a78bfa" stroke-width="1.2514018972439211" stroke-linecap="round" stroke-linejoin="round" opacity="0.3547507905183005" />
  <path d="M 369.02823572784126 52.6040964836482 C 383.2223208391189 71.97316214103964 391.45989807603075 93.60999055625123 393.74096743857683 117.51458172928295" fill="none" stroke="#a78bfa" stroke-width="0.9588707312661355" stroke-linecap="round" stroke-linejoin="round" opacity="0.23286280469422316" />
  <path d="M 369.02823572784126 52.6040964836482 C 362.62388742546443 94.87550642104043 358.7640162222158 137.37799351541042 357.44862211809533 180.11155776675815" fill="none" stroke="#a78bfa" stroke-width="0.41816445558630966" stroke-linecap="round" stroke-linejoin="round" opacity="0.007568523160962348" />
  <path d="M 369.02823572784126 52.6040964836482 C 344.2701794085196 55.67265513646586 320.50653341979614 52.10940289207385 297.7372977616709 41.91433975047217" fill="none" stroke="#a78bfa" stroke-width="0.9345730125292376" stroke-linecap="round" stroke-linejoin="round" opacity="0.22273875522051567" />
  <path d="M 369.02823572784126 52.6040964836482 C 333.6342317293227 72.76985848063961 301.1448494268663 96.85394849683087 271.56008882047206 124.85636653222193" fill="none" stroke="#a78bfa" stroke-width="0.48005126195690373" stroke-linecap="round" stroke-linejoin="round" opacity="0.0333546924820432" />
  <path d="M 190.33029148040276 37.74727705389829 C 178.61262493779685 47.33609231085632 168.26759320327488 58.228556609911294 159.29519627683692 70.42466995106321" fill="none" stroke="#a78bfa" stroke-width="1.1840015672804816" stroke-linecap="round" stroke-linejoin="round" opacity="0.3266673197002007" />
  <path d="M 190.33029148040276 37.74727705389829 C 150.37438101916717 56.054295240344345 108.67875735385164 61.853955547945134 65.24342048445622 55.14625797670065" fill="none" stroke="#a78bfa" stroke-width="0.4342357115273558" stroke-linecap="round" stroke-linejoin="round" opacity="0.0142648798030649" />
  <path d="M 190.33029148040276 37.74727705389829 C 225.7764058755281 48.317977568265796 261.57874130261746 49.70699846712376 297.7372977616709 41.91433975047218" fill="none" stroke="#a78bfa" stroke-width="0.6078048259933567" stroke-linecap="round" stroke-linejoin="round" opacity="0.08658534416389863" />
  <path d="M 190.33029148040276 37.74727705389829 C 164.2558994349525 58.608666226529785 139.6795838573475 81.10653072074632 116.60134474758779 105.24087053654786" fill="none" stroke="#a78bfa" stroke-width="0.6773227289375652" stroke-linecap="round" stroke-linejoin="round" opacity="0.11555113705731879" />
  <path d="M 190.33029148040276 37.74727705389829 C 225.84384073542705 58.9161288631435 252.9204398487835 87.9524920225847 271.56008882047206 124.8563665322219" fill="none" stroke="#a78bfa" stroke-width="0.5005586743690226" stroke-linecap="round" stroke-linejoin="round" opacity="0.041899447653759414" />
  <path d="M 113.08243042536928 161.3923749068742 C 96.41892077439171 127.8024748150483 72.08600012589133 101.23761290559976 40.083668479868194 81.6977891785286" fill="none" stroke="#a78bfa" stroke-width="0.6023914220063064" stroke-linecap="round" stroke-linejoin="round" opacity="0.0843297591692943" />
  <path d="M 113.08243042536928 161.3923749068742 C 111.6934427339373 168.715390293966 111.92177805063578 175.98762459425336 113.76743637546474 183.20907780773626" fill="none" stroke="#a78bfa" stroke-width="1.3985158070118207" stroke-linecap="round" stroke-linejoin="round" opacity="0.4160482529215919" />
  <path d="M 113.08243042536928 161.3923749068742 C 121.94664815834781 127.74738327173448 137.35090344217036 97.4248149531308 159.29519627683692 70.42466995106321" fill="none" stroke="#a78bfa" stroke-width="0.6581564714778856" stroke-linecap="round" stroke-linejoin="round" opacity="0.107565196449119" />
  <path d="M 113.08243042536928 161.3923749068742 C 100.67948058271995 124.38153613221274 84.73314393574893 88.96616382215488 65.24342048445622 55.14625797670064" fill="none" stroke="#a78bfa" stroke-width="0.5244348160233425" stroke-linecap="round" stroke-linejoin="round" opacity="0.05184784000972603" />
  <path d="M 113.08243042536928 161.3923749068742 C 133.27522701974652 165.74252529257237 153.5287713243482 169.78858836729395 173.84306333917434 173.53056413103903" fill="none" stroke="#a78bfa" stroke-width="1.028050473137199" stroke-linecap="round" stroke-linejoin="round" opacity="0.2616876971404996" />
  <path d="M 113.08243042536928 161.3923749068742 C 109.2086561297382 142.35893625690824 110.3816275704777 123.64176813346612 116.6013447475878 105.24087053654786" fill="none" stroke="#a78bfa" stroke-width="1.0806616151679498" stroke-linecap="round" stroke-linejoin="round" opacity="0.2836090063199791" />
  <path d="M 113.08243042536928 161.3923749068742 C 101.42280634040031 133.35697710294954 83.83564660893671 109.7347289519474 60.320951230978466 90.52563045386783" fill="none" stroke="#a78bfa" stroke-width="0.7844538772125377" stroke-linecap="round" stroke-linejoin="round" opacity="0.16018911550522402" />
  <path d="M 113.08243042536928 161.3923749068742 C 103.19773140913102 137.8932621064513 88.29710232590693 118.18684940703454 68.38054317569706 102.27313680862393" fill="none" stroke="#a78bfa" stroke-width="0.9158422457221852" stroke-linecap="round" stroke-linejoin="round" opacity="0.2149342690509105" />
  <path d="M 40.08366847986818 81.69778917852861 C 69.1007328726383 112.30055787259607 93.66198883783716 146.13765408233198 113.76743637546474 183.20907780773626" fill="none" stroke="#a78bfa" stroke-width="0.44214213569531197" stroke-linecap="round" stroke-linejoin="round" opacity="0.01755922320637998" />
  <path d="M 40.08366847986818 81.69778917852861 C 80.28508698076341 82.84937759285584 120.02226291308634 79.09167118370071 159.29519627683692 70.42466995106321" fill="none" stroke="#a78bfa" stroke-width="0.4946767034137897" stroke-linecap="round" stroke-linejoin="round" opacity="0.03944862642241237" />
  <path d="M 40.08366847986818 81.69778917852861 C 49.887559116457986 74.19029297855128 58.274143117987336 65.33978257794195 65.24342048445621 55.14625797670064" fill="none" stroke="#a78bfa" stroke-width="1.2623510121236434" stroke-linecap="round" stroke-linejoin="round" opacity="0.35931292171818474" />
  <path d="M 40.08366847986818 81.69778917852861 C 67.20101100737259 84.30808684456616 92.70690309661248 92.15578063057258 116.6013447475878 105.24087053654786" fill="none" stroke="#a78bfa" stroke-width="0.8610060691496677" stroke-linecap="round" stroke-linejoin="round" opacity="0.1920858621456949" />
  <path d="M 40.08366847986818 81.69778917852861 C 47.61310953727603 82.84386445237135 54.35887045431279 85.78647821081776 60.32095123097845 90.52563045386785" fill="none" stroke="#a78bfa" stroke-width="1.3961946501778477" stroke-linecap="round" stroke-linejoin="round" opacity="0.4150811042407699" />
  <path d="M 40.08366847986818 81.69778917852861 C 51.542529997303035 85.76913622000777 60.97482156257932 92.62758543003955 68.38054317569706 102.27313680862395" fill="none" stroke="#a78bfa" stroke-width="1.2770473143070746" stroke-linecap="round" stroke-linejoin="round" opacity="0.36543638096128106" />
  <path d="M 276.9560863562188 171.68478495683632 C 300.07602674151906 179.95124214352185 319.8277698549351 193.22839472355608 336.211315696467 211.51624269693897" fill="none" stroke="#a78bfa" stroke-width="0.9409381236451264" stroke-linecap="round" stroke-linejoin="round" opacity="0.225390884852136" />
  <path d="M 276.9560863562188 171.68478495683632 C 320.2733284398254 163.09013090185957 359.20162213394474 145.0333964926751 393.74096743857683 117.51458172928295" fill="none" stroke="#a78bfa" stroke-width="0.41166189616170973" stroke-linecap="round" stroke-linejoin="round" opacity="0.004859123400712373" />
  <path d="M 276.9560863562188 171.68478495683632 C 303.23942134096654 170.62458644642422 328.2700122929052 175.71924751260931 352.0478592120347 186.96876815539167" fill="none" stroke="#a78bfa" stroke-width="0.8926330484529568" stroke-linecap="round" stroke-linejoin="round" opacity="0.205263770188732" />
  <path d="M 276.9560863562188 171.68478495683632 C 300.15397005010846 183.62029969400834 320.0715225461237 199.6354595551938 336.70874384426446 219.73026454039265" fill="none" stroke="#a78bfa" stroke-width="0.8922492755369142" stroke-linecap="round" stroke-linejoin="round" opacity="0.20510386480704762" />
  <path d="M 276.9560863562188 171.68478495683632 C 261.42446168711234 208.35283209252617 247.02799115263485 245.46126998512625 233.7666747527863 283.0100986346364" fill="none" stroke="#a78bfa" stroke-width="0.4977576092733467" stroke-linecap="round" stroke-linejoin="round" opacity="0.0407323371972278" />
  <path d="M 276.9560863562188 171.68478495683632 C 242.52970199911647 169.20646910683647 208.15869432676828 169.8217288315707 173.8430633391743 173.530564131039" fill="none" stroke="#a78bfa" stroke-width="0.6480349976685008" stroke-linecap="round" stroke-linejoin="round" opacity="0.10334791569520868" />
  <path d="M 276.9560863562188 171.68478495683632 C 301.46312035612135 171.75768051325934 324.2023490427611 178.13446406588187 345.17377241613804 190.81513561470396" fill="none" stroke="#a78bfa" stroke-width="0.9460064812657503" stroke-linecap="round" stroke-linejoin="round" opacity="0.22750270052739596" />
  <path d="M 276.9560863562188 171.68478495683632 C 304.3111055347108 169.48679978263348 331.14195078866965 172.2957240526074 357.44862211809533 180.11155776675812" fill="none" stroke="#a78bfa" stroke-width="0.8529313818716393" stroke-linecap="round" stroke-linejoin="round" opacity="0.18872140911318303" />
  <path d="M 276.9560863562188 171.68478495683632 C 270.4750533074981 156.61485720997217 268.67638746224924 141.00538440176737 271.56008882047206 124.8563665322219" fill="none" stroke="#a78bfa" stroke-width="1.1648774036158216" stroke-linecap="round" stroke-linejoin="round" opacity="0.318698918173259" />
  <path d="M 113.76743637546474 183.20907780773626 C 133.7331140513264 147.54775999488575 148.90903401845046 109.95295737599471 159.29519627683692 70.42466995106321" fill="none" stroke="#a78bfa" stroke-width="0.477290276278311" stroke-linecap="round" stroke-linejoin="round" opacity="0.032204281782629574" />
  <path d="M 113.76743637546474 183.20907780773626 C 133.43436107731452 177.75899557321813 153.45957006521775 174.5328243476524 173.84306333917434 173.53056413103903" fill="none" stroke="#a78bfa" stroke-width="1.0383052589340764" stroke-linecap="round" stroke-linejoin="round" opacity="0.26596052455586516" />
  <path d="M 113.76743637546474 183.20907780773626 C 110.28782829432669 157.05886749663594 111.23246441836771 131.06946507290647 116.6013447475878 105.24087053654786" fill="none" stroke="#a78bfa" stroke-width="0.879818225209519" stroke-linecap="round" stroke-linejoin="round" opacity="0.19992426050396628" />
  <path d="M 113.76743637546474 183.20907780773626 C 88.92817989599784 156.36489097787936 71.11268484783574 125.47040852658985 60.320951230978466 90.52563045386783" fill="none" stroke="#a78bfa" stroke-width="0.6124048277370182" stroke-linecap="round" stroke-linejoin="round" opacity="0.08850201155709092" />
  <path d="M 113.76743637546474 183.20907780773626 C 92.31887764804429 159.77430450947156 77.18991324812173 132.79565750976744 68.38054317569708 102.27313680862395" fill="none" stroke="#a78bfa" stroke-width="0.7434464568208344" stroke-linecap="round" stroke-linejoin="round" opacity="0.14310269034201434" />
  <path d="M 337.5835735375741 31.689677516295866 C 348.33188263042223 65.51348841085192 367.0510139307565 94.12178981518096 393.74096743857683 117.51458172928295" fill="none" stroke="#a78bfa" stroke-width="0.6532467006850917" stroke-linecap="round" stroke-linejoin="round" opacity="0.1055194586187882" />
  <path d="M 337.5835735375741 31.689677516295866 C 323.72006138154387 32.83206000399928 310.4379694562428 36.24028074872472 297.7372977616709 41.91433975047218" fill="none" stroke="#a78bfa" stroke-width="1.2202719790002179" stroke-linecap="round" stroke-linejoin="round" opacity="0.3417799912500908" />
  <path d="M 337.5835735375741 31.689677516295866 C 324.87190958039184 69.3330581941376 302.8640813413578 100.3886211994463 271.56008882047206 124.8563665322219" fill="none" stroke="#a78bfa" stroke-width="0.5459475001008752" stroke-linecap="round" stroke-linejoin="round" opacity="0.06081145837536467" />
  <path d="M 336.211315696467 211.51624269693897 C 364.17073461101467 185.55753047954403 383.34728519171796 154.22364349032534 393.74096743857683 117.51458172928297" fill="none" stroke="#a78bfa" stroke-width="0.5826882723443396" stroke-linecap="round" stroke-linejoin="round" opacity="0.0761201134768082" />
  <path d="M 336.211315696467 211.51624269693897 C 343.71561019697015 204.7694745543222 348.9944580354927 196.5869830404731 352.0478592120347 186.96876815539167" fill="none" stroke="#a78bfa" stroke-width="1.3303454490952813" stroke-linecap="round" stroke-linejoin="round" opacity="0.3876439371230339" />
  <path d="M 336.211315696467 211.51624269693897 C 336.4641592914682 214.24897932409203 336.62996867406736 216.98698660524326 336.70874384426446 219.73026454039265" fill="none" stroke="#a78bfa" stroke-width="1.5240393557855887" stroke-linecap="round" stroke-linejoin="round" opacity="0.4683497315773286" />
  <path d="M 336.211315696467 211.51624269693897 C 301.8450345782277 235.0350557920245 267.6968209303341 258.86634110459033 233.7666747527863 283.0100986346364" fill="none" stroke="#a78bfa" stroke-width="0.4468454049692592" stroke-linecap="round" stroke-linejoin="round" opacity="0.019518918737191304" />
  <path d="M 336.211315696467 211.51624269693897 C 341.26549780328696 205.51064118903577 344.2529833765106 198.6102721616241 345.17377241613804 190.81513561470396" fill="none" stroke="#a78bfa" stroke-width="1.391772696253685" stroke-linecap="round" stroke-linejoin="round" opacity="0.4132386234390354" />
  <path d="M 336.211315696467 211.51624269693897 C 346.04548749647586 202.91112043940214 353.12458963701863 192.44289212934186 357.44862211809533 180.11155776675812" fill="none" stroke="#a78bfa" stroke-width="1.250048229507384" stroke-linecap="round" stroke-linejoin="round" opacity="0.35418676229474333" />
  <path d="M 336.211315696467 211.51624269693897 C 306.0129208032956 189.08131012683282 284.4625118446306 160.1946847385938 271.56008882047206 124.8563665322219" fill="none" stroke="#a78bfa" stroke-width="0.6019785848019898" stroke-linecap="round" stroke-linejoin="round" opacity="0.08415774366749579" />
  <path d="M 159.29519627683692 70.42466995106321 C 128.39620720634167 62.55186166104399 97.0456152755481 57.4590576695898 65.24342048445622 55.146257976700625" fill="none" stroke="#a78bfa" stroke-width="0.7204492937199952" stroke-linecap="round" stroke-linejoin="round" opacity="0.133520539049998" />
  <path d="M 159.29519627683692 70.42466995106321 C 167.8450395679056 104.27116658178059 172.69432858868473 138.63979797510586 173.84306333917434 173.53056413103906" fill="none" stroke="#a78bfa" stroke-width="0.6388261976082641" stroke-linecap="round" stroke-linejoin="round" opacity="0.09951091567011006" />
  <path d="M 159.29519627683692 70.42466995106321 C 144.0148486711004 80.74364107658882 129.78356482801735 92.34904127175037 116.6013447475878 105.24087053654785" fill="none" stroke="#a78bfa" stroke-width="1.091474855280722" stroke-linecap="round" stroke-linejoin="round" opacity="0.28811452303363416" />
  <path d="M 159.29519627683692 70.42466995106321 C 124.32854482208538 67.39920933540921 91.33712980679921 74.09952950301076 60.32095123097845 90.52563045386786" fill="none" stroke="#a78bfa" stroke-width="0.6677402999923094" stroke-linecap="round" stroke-linejoin="round" opacity="0.11155845833012895" />
  <path d="M 159.29519627683692 70.42466995106321 C 125.88450087526725 72.17497547880929 95.57961650822062 82.7911310979962 68.38054317569707 102.27313680862396" fill="none" stroke="#a78bfa" stroke-width="0.7107841848097978" stroke-linecap="round" stroke-linejoin="round" opacity="0.12949341033741574" />
  <path d="M 159.29519627683692 70.42466995106321 C 193.77411738377697 94.63788161269514 231.1957482316554 112.78178047308137 271.56008882047206 124.8563665322219" fill="none" stroke="#a78bfa" stroke-width="0.4483263890424699" stroke-linecap="round" stroke-linejoin="round" opacity="0.020135995434362453" />
  <path d="M 393.74096743857683 117.51458172928295 C 381.44065278717636 141.62488375839274 367.5429500449957 164.77627923376232 352.0478592120347 186.96876815539167" fill="none" stroke="#a78bfa" stroke-width="0.8522393600624818" stroke-linecap="round" stroke-linejoin="round" opacity="0.18843306669270077" />
  <path d="M 393.74096743857683 117.51458172928295 C 378.015176775064 153.41934575341926 359.00443557695985 187.4912400237892 336.70874384426446 219.73026454039268" fill="none" stroke="#a78bfa" stroke-width="0.5195377580660249" stroke-linecap="round" stroke-linejoin="round" opacity="0.04980739919417704" />
  <path d="M 393.74096743857683 117.51458172928295 C 378.2726413694998 142.4256440850434 362.0835763620202 166.85916204685037 345.17377241613804 190.81513561470396" fill="none" stroke="#a78bfa" stroke-width="0.7883353787289411" stroke-linecap="round" stroke-linejoin="round" opacity="0.16180640780372546" />
  <path d="M 393.74096743857683 117.51458172928295 C 383.3597540362455 139.37527560961007 371.26230559608496 160.24093428876847 357.44862211809533 180.11155776675812" fill="none" stroke="#a78bfa" stroke-width="0.9320904880685343" stroke-linecap="round" stroke-linejoin="round" opacity="0.22170437002855597" />
  <path d="M 393.74096743857683 117.51458172928295 C 354.2614596717334 101.81106801248465 322.26023644609813 76.61098735288105 297.7372977616709 41.91433975047218" fill="none" stroke="#a78bfa" stroke-width="0.47202790496480734" stroke-linecap="round" stroke-linejoin="round" opacity="0.030011627068669722" />
  <path d="M 393.74096743857683 117.51458172928295 C 352.68594281082824 114.50223346452674 311.95898327145994 116.94949506550637 271.56008882047206 124.85636653222187" fill="none" stroke="#a78bfa" stroke-width="0.47014219825066234" stroke-linecap="round" stroke-linejoin="round" opacity="0.02922591593777596" />
  <path d="M 65.24342048445621 55.14625797670064 C 79.50967229211639 74.76946828396906 96.62898037982693 91.4676724705848 116.6013447475878 105.24087053654785" fill="none" stroke="#a78bfa" stroke-width="0.9377538001976516" stroke-linecap="round" stroke-linejoin="round" opacity="0.22406408341568818" />
  <path d="M 65.24342048445621 55.14625797670064 C 66.45810590672552 67.33668010469721 64.81728282223294 79.12980426375294 60.32095123097845 90.52563045386785" fill="none" stroke="#a78bfa" stroke-width="1.2702753337410728" stroke-linecap="round" stroke-linejoin="round" opacity="0.3626147223921136" />
  <path d="M 65.24342048445621 55.14625797670064 C 71.00110204064242 70.54155284020375 72.04680960438938 86.25051245084485 68.38054317569706 102.27313680862395" fill="none" stroke="#a78bfa" stroke-width="1.1640198883536343" stroke-linecap="round" stroke-linejoin="round" opacity="0.3183416201473477" />
  <path d="M 352.0478592120347 186.96876815539167 C 345.48129417893904 197.2087176984484 340.36825572301564 208.12921649344872 336.70874384426446 219.73026454039265" fill="none" stroke="#a78bfa" stroke-width="1.2660803065632862" stroke-linecap="round" stroke-linejoin="round" opacity="0.36086679440136926" />
  <path d="M 352.0478592120347 186.96876815539167 C 349.47695308176134 187.75130010311378 347.1855908164625 189.0334225895512 345.17377241613804 190.81513561470396" fill="none" stroke="#a78bfa" stroke-width="1.5272889478177136" stroke-linecap="round" stroke-linejoin="round" opacity="0.46970372825738077" />
  <path d="M 352.0478592120347 186.96876815539167 C 353.22293482497423 184.19063843519444 355.0231891269944 181.90490163898326 357.44862211809533 180.11155776675812" fill="none" stroke="#a78bfa" stroke-width="1.5194277174219275" stroke-linecap="round" stroke-linejoin="round" opacity="0.4664282155924699" />
  <path d="M 352.0478592120347 186.96876815539167 C 322.49992048503583 169.78761264306718 295.6706636878483 149.08347876867725 271.56008882047206 124.8563665322219" fill="none" stroke="#a78bfa" stroke-width="0.6615329908758409" stroke-linecap="round" stroke-linejoin="round" opacity="0.10897207953160037" />
  <path d="M 336.70874384426446 219.73026454039265 C 299.71835668831545 236.46969960334505 265.4043336578227 257.56297763475965 233.7666747527863 283.0100986346364" fill="none" stroke="#a78bfa" stroke-width="0.48458816828338414" stroke-linecap="round" stroke-linejoin="round" opacity="0.035245070118076705" />
  <path d="M 336.70874384426446 219.73026454039265 C 338.143122433021 209.68575088180498 340.96479862364555 200.04737457324208 345.17377241613804 190.81513561470396" fill="none" stroke="#a78bfa" stroke-width="1.3218884901925148" stroke-linecap="round" stroke-linejoin="round" opacity="0.38412020424688115" />
  <path d="M 336.70874384426446 219.73026454039265 C 340.10422071512795 204.68249803539717 347.0175134730716 191.47626244418566 357.44862211809533 180.11155776675812" fill="none" stroke="#a78bfa" stroke-width="1.1872096935331866" stroke-linecap="round" stroke-linejoin="round" opacity="0.3280040389721611" />
  <path d="M 336.70874384426446 219.73026454039265 C 322.8844708492126 182.68633704259 301.16825250794847 151.06170437319975 271.56008882047206 124.8563665322219" fill="none" stroke="#a78bfa" stroke-width="0.5376429734752384" stroke-linecap="round" stroke-linejoin="round" opacity="0.05735123894801597" />
  <path d="M 233.7666747527863 283.0100986346364 C 224.48943902443094 240.66175369295667 204.5149018865603 204.16857552509086 173.84306333917436 173.530564131039" fill="none" stroke="#a78bfa" stroke-width="0.4479420251284077" stroke-linecap="round" stroke-linejoin="round" opacity="0.0199758438035032" />
  <path d="M 173.84306333917434 173.53056413103903 C 161.5390507912551 145.08709132969128 142.45847792739292 122.32386013152752 116.60134474758782 105.24087053654785" fill="none" stroke="#a78bfa" stroke-width="0.7774718183670482" stroke-linecap="round" stroke-linejoin="round" opacity="0.15727992431960336" />
  <path d="M 173.84306333917434 173.53056413103903 C 144.0790403762844 141.80055016566214 108.92486698845863 118.04807439152378 68.38054317569704 102.27313680862395" fill="none" stroke="#a78bfa" stroke-width="0.42511618816199254" stroke-linecap="round" stroke-linejoin="round" opacity="0.010465078400830219" />
  <path d="M 173.84306333917434 173.53056413103903 C 210.00854777514206 164.51932920442255 242.5808896022413 148.2945966714835 271.56008882047206 124.8563665322219" fill="none" stroke="#a78bfa" stroke-width="0.5922893660987086" stroke-linecap="round" stroke-linejoin="round" opacity="0.08012056920779526" />
  <path d="M 345.17377241613804 190.81513561470396 C 349.83887523207574 187.90494964540298 353.9304917993948 184.33709036275437 357.44862211809533 180.11155776675812" fill="none" stroke="#a78bfa" stroke-width="1.449666355265486" stroke-linecap="round" stroke-linejoin="round" opacity="0.4373609813606191" />
  <path d="M 345.17377241613804 190.81513561470396 C 327.1051468265182 161.60881248131574 302.5672522946295 139.62255612048838 271.56008882047206 124.8563665322219" fill="none" stroke="#a78bfa" stroke-width="0.68762198905017" stroke-linecap="round" stroke-linejoin="round" opacity="0.11984249543757086" />
  <path d="M 357.44862211809533 180.11155776675812 C 334.21210793943646 153.31029954493664 305.5825968402287 134.8919024667579 271.56008882047206 124.8563665322219" fill="none" stroke="#a78bfa" stroke-width="0.6572868725598742" stroke-linecap="round" stroke-linejoin="round" opacity="0.10720286356661424" />
  <path d="M 297.7372977616709 41.91433975047218 C 288.36170244142426 69.35658098259137 279.6359661276913 97.00392324317463 271.56008882047206 124.8563665322219" fill="none" stroke="#a78bfa" stroke-width="0.7971551489369227" stroke-linecap="round" stroke-linejoin="round" opacity="0.16548131205705113" />
  <path d="M 116.6013447475878 105.24087053654786 C 99.2587801797778 94.91411842732393 80.49864900757467 90.00903839976392 60.32095123097845 90.52563045386785" fill="none" stroke="#a78bfa" stroke-width="1.0630245662231927" stroke-linecap="round" stroke-linejoin="round" opacity="0.2762602359263303" />
  <path d="M 116.6013447475878 105.24087053654786 C 100.81026509381387 99.66112557533039 84.73666456985029 98.67188099935575 68.38054317569706 102.27313680862395" fill="none" stroke="#a78bfa" stroke-width="1.1540427135433176" stroke-linecap="round" stroke-linejoin="round" opacity="0.31418446397638233" />
  <path d="M 60.32095123097845 90.52563045386785 C 61.86332520025063 95.22643555559245 64.54985584849017 99.14227100717781 68.38054317569706 102.27313680862395" fill="none" stroke="#a78bfa" stroke-width="1.4684944404321936" stroke-linecap="round" stroke-linejoin="round" opacity="0.4452060168467474" />
  <circle cx="272.9821834139958" cy="36.5027963578934" r="5.0" fill="#ffd700" opacity="0.8" />
  <circle cx="134.51114098026534" cy="88.03479191869391" r="5.0" fill="#ffd700" opacity="0.8" />
  <circle cx="309.85906138232474" cy="205.94186672995693" r="5.0" fill="#ffd700" opacity="0.8" />
  <circle cx="369.02823572784126" cy="52.6040964836482" r="3.0" fill="#e0c3fc" opacity="0.9" />
  <circle cx="190.33029148040276" cy="37.74727705389829" r="3.0" fill="#e0c3fc" opacity="0.9" />
  <circle cx="113.08243042536928" cy="161.3923749068742" r="3.0" fill="#e0c3fc" opacity="0.9" />
  <circle cx="40.08366847986818" cy="81.69778917852861" r="3.0" fill="#e0c3fc" opacity="0.9" />
  <circle cx="276.9560863562188" cy="171.68478495683632" r="3.0" fill="#e0c3fc" opacity="0.9" />
  <circle cx="113.76743637546474" cy="183.20907780773626" r="3.0" fill="#e0c3fc" opacity="0.9" />
  <circle cx="337.5835735375741" cy="31.689677516295866" r="3.0" fill="#e0c3fc" opacity="0.9" />
  <circle cx="336.211315696467" cy="211.51624269693897" r="3.0" fill="#e0c3fc" opacity="0.9" />
  <circle cx="159.29519627683692" cy="70.42466995106321" r="3.0" fill="#e0c3fc" opacity="0.9" />
  <circle cx="393.74096743857683" cy="117.51458172928295" r="3.0" fill="#e0c3fc" opacity="0.9" />
  <circle cx="65.24342048445621" cy="55.14625797670064" r="3.0" fill="#e0c3fc" opacity="0.9" />
  <circle cx="352.0478592120347" cy="186.96876815539167" r="3.0" fill="#e0c3fc" opacity="0.9" />
  <circle cx="336.70874384426446" cy="219.73026454039265" r="3.0" fill="#e0c3fc" opacity="0.9" />
  <circle cx="233.7666747527863" cy="283.0100986346364" r="3.0" fill="#e0c3fc" opacity="0.9" />
  <circle cx="173.84306333917434" cy="173.53056413103903" r="3.0" fill="#e0c3fc" opacity="0.9" />
  <circle cx="345.17377241613804" cy="190.81513561470396" r="3.0" fill="#e0c3fc" opacity="0.9" />
  <circle cx="357.44862211809533" cy="180.11155776675812" r="3.0" fill="#e0c3fc" opacity="0.9" />
  <circle cx="297.7372977616709" cy="41.91433975047218" r="3.0" fill="#e0c3fc" opacity="0.9" />
  <circle cx="116.6013447475878" cy="105.24087053654786" r="3.0" fill="#e0c3fc" opacity="0.9" />
  <circle cx="60.32095123097845" cy="90.52563045386785" r="3.0" fill="#e0c3fc" opacity="0.9" />
  <circle cx="68.38054317569706" cy="102.27313680862395" r="3.0" fill="#e0c3fc" opacity="0.9" />
  <circle cx="271.56008882047206" cy="124.8563665322219" r="3.0" fill="#e0c3fc" opacity="0.9" />
  <circle cx="320.42806856034485" cy="47.99615696346545" r="1.5" fill="#ffd700" opacity="0.6" />
  <circle cx="214.19427977644364" cy="46.94716731994333" r="1.5" fill="#ffd700" opacity="0.6" />
  <circle cx="86.99085058982853" cy="89.43424385937054" r="1.5" fill="#ffd700" opacity="0.6" />
  <circle cx="127.09546343449429" cy="136.2662477187187" r="1.5" fill="#ffd700" opacity="0.6" />
  <circle cx="158.67418827960816" cy="128.7138149977046" r="1.5" fill="#ffd700" opacity="0.6" />
  <circle cx="345.22874234886245" cy="155.49473164035834" r="1.5" fill="#ffd700" opacity="0.6" />
  <circle cx="266.1428445342362" cy="238.87775352570276" r="1.5" fill="#ffd700" opacity="0.6" />
  <circle cx="361.33007109862217" cy="116.18451925746986" r="1.5" fill="#ffd700" opacity="0.6" />
  <circle cx="318.11569600211004" cy="85.79148549353519" r="1.5" fill="#ffd700" opacity="0.6" />
  <circle cx="129.09164088548943" cy="55.82728592443342" r="1.5" fill="#ffd700" opacity="0.6" />
  <circle cx="243.7666288470638" cy="46.71706811381739" r="1.5" fill="#ffd700" opacity="0.6" />
  <circle cx="152.3422607631113" cy="70.2667173040343" r="1.5" fill="#ffd700" opacity="0.6" />
  <circle cx="237.27290275668832" cy="75.4011882804131" r="1.5" fill="#ffd700" opacity="0.6" />
  <circle cx="82.33510770076083" cy="116.27630340591838" r="1.5" fill="#ffd700" opacity="0.6" />
  <circle cx="131.2837851879701" cy="113.41670494156665" r="1.5" fill="#ffd700" opacity="0.6" />
  <circle cx="91.82046555815401" cy="107.07271659333472" r="1.5" fill="#ffd700" opacity="0.6" />
  <circle cx="80.2674087483449" cy="130.02768785638114" r="1.5" fill="#ffd700" opacity="0.6" />
  <circle cx="100.03761430478178" cy="79.74320068240769" r="1.5" fill="#ffd700" opacity="0.6" />
  <circle cx="338.64023818951324" cy="151.6962436087154" r="1.5" fill="#ffd700" opacity="0.6" />
  <circle cx="254.51001495353083" cy="227.01714872805374" r="1.5" fill="#ffd700" opacity="0.6" />
  <circle cx="225.35804233413091" cy="170.28749286288712" r="1.5" fill="#ffd700" opacity="0.6" />
  <circle cx="140.12363460770402" cy="128.2669874839301" r="1.5" fill="#ffd700" opacity="0.6" />
  <circle cx="81.776372729743" cy="139.90507584687646" r="1.5" fill="#ffd700" opacity="0.6" />
  <circle cx="86.33429402995749" cy="145.39901258425965" r="1.5" fill="#ffd700" opacity="0.6" />
  <circle cx="359.6841538324609" cy="78.51376174045967" r="1.5" fill="#ffd700" opacity="0.6" />
  <circle cx="311.5439543904119" cy="83.2138852786587" r="1.5" fill="#ffd700" opacity="0.6" />
  <circle cx="371.5632928179052" cy="168.54679329197876" r="1.5" fill="#ffd700" opacity="0.6" />
  <circle cx="284.82544462186735" cy="247.02881650267747" r="1.5" fill="#ffd700" opacity="0.6" />
  <circle cx="297.3997128075897" cy="173.02507422818007" r="1.5" fill="#ffd700" opacity="0.6" />
  <circle cx="112.6080105258703" cy="60.70046073995815" r="1.5" fill="#ffd700" opacity="0.6" />
  <circle cx="169.34454551072275" cy="121.5860159690952" r="1.5" fill="#ffd700" opacity="0.6" />
  <circle cx="108.32664642430865" cy="73.18081461502388" r="1.5" fill="#ffd700" opacity="0.6" />
  <circle cx="111.5085114503747" cy="79.69951581126296" r="1.5" fill="#ffd700" opacity="0.6" />
  <circle cx="213.22061024295076" cy="102.19250284257683" r="1.5" fill="#ffd700" opacity="0.6" />
  <circle cx="367.6885685423641" cy="169.9970754501626" r="1.5" fill="#ffd700" opacity="0.6" />
  <circle cx="340.1304191942178" cy="86.83688594698154" r="1.5" fill="#ffd700" opacity="0.6" />
  <circle cx="332.4044793132392" cy="117.09076673145051" r="1.5" fill="#ffd700" opacity="0.6" />
  <circle cx="309.7649625688949" cy="158.55480111535584" r="1.5" fill="#ffd700" opacity="0.6" />
  <circle cx="283.23043620443315" cy="248.1047993611679" r="1.5" fill="#ffd700" opacity="0.6" />
  <circle cx="310.0533753420275" cy="168.22884441499798" r="1.5" fill="#ffd700" opacity="0.6" />
  <circle cx="211.8278451031168" cy="223.87895630247726" r="1.5" fill="#ffd700" opacity="0.6" />
  <circle cx="125.15441607613757" cy="131.9186968264026" r="1.5" fill="#ffd700" opacity="0.6" />
  <circle cx="225.39643303647455" cy="154.60358853637237" r="1.5" fill="#ffd700" opacity="0.6" />
  <circle cx="313.21888232500663" cy="152.42070099404228" r="1.5" fill="#ffd700" opacity="0.6" />
  <circle cx="318.54910315969533" cy="146.19681629175795" r="1.5" fill="#ffd700" opacity="0.6" />
</svg>