<?xml version="1.0" encoding="UTF-8"?>
<svg xmlns="http://www.w3.org/2000/svg" width="540" height="160" viewBox="0 0 540 160">
  <rect width="100%" height="100%" fill="#1a1a2e" />
  <line x1="40" y1="75" x2="170" y2="75" stroke="#ffe66d" stroke-width="2.5" stroke-linecap="round" />
  <path d="M 220.0 75.0 C 263.3333333333333 92.33333333333333 306.6666666666667 92.33333333333333 350.0 75.0" fill="none" stroke="#ffe66d" stroke-width="2.5" stroke-linecap="round" stroke-linejoin="round" />
  <path d="M 400.0 75.0 C 401.3541666666667 82.65763204777843 402.7083333333333 90.30015073784259 404.0625 96.66723908776449 C 405.4166666666667 103.03432743768639 406.7708333333333 108.10085285211142 408.125 111.03130176794019 C 409.4791666666667 113.96175068376894 410.8333333333333 114.74455583780839 412.1875 113.25062593572599 C 413.5416666666667 111.75669603364358 414.8958333333333 107.99192801508673 416.25 102.57716446627535 C 417.6041666666667 97.16240091746398 418.9583333333333 90.11901535384078 420.3125 82.60852255862902 C 421.6666666666667 75.09802976341726 423.0208333333333 67.15007565418738 424.375 60.07534613776151 C 425.7291666666667 53.00061662133565 427.08333333333337 46.82703754135238 428.4375 42.572685120200745 C 429.7916666666667 38.31833269904911 431.14583333333337 36.00000000000001 432.5 36.00000000000001 C 433.8541666666667 36.00000000000001 435.2083333333333 38.31833269905097 436.5625 42.57268512020073 C 437.9166666666667 46.82703754135049 439.2708333333333 53.000616621334686 440.625 60.075346137761485 C 441.9791666666667 67.15007565418829 443.3333333333333 75.09802976344403 444.6875 82.608522558629 C 446.0416666666667 90.11901535381399 447.3958333333333 97.16240091746398 448.75 102.57716446627535 C 450.1041666666667 107.99192801508674 451.4583333333333 111.75669603364567 452.8125 113.25062593572599 C 454.1666666666667 114.74455583780632 455.5208333333333 113.96175068377343 456.875 111.03130176794019 C 458.2291666666667 108.10085285210697 459.5833333333333 103.03432743765458 460.9375 96.6672390877645 C 462.2916666666667 90.30015073787443 463.6458333333333 82.65763204776128 465.0 75.00000000000003 C 466.35416666666663 67.34236795223877 467.70833333333337 59.6998492621309 469.0625 53.33276091223554 C 470.41666666666663 46.965672562340195 471.77083333333337 41.899147147879276 473.125 38.96869823205984 C 474.4791666666667 36.03824931624041 475.83333333333337 35.255444162196675 477.1875 36.74937406427402 C 478.5416666666667 38.24330396635137 479.89583333333337 42.008071984930176 481.25 47.42283553372463 C 482.60416666666663 52.837599082519084 483.95833333333337 59.88098464619744 485.3125 67.39147744137102 C 486.66666666666663 74.9019702365446 488.02083333333337 82.84992434582412 489.375 89.92465386223851 C 490.72916666666663 96.99938337865291 492.08333333333337 103.1729624586541 493.4375 107.42731487979927 C 494.79166666666663 111.68166730094447 496.1458333333333 114.00000000000003 497.5 114.00000000000003 C 498.85416666666663 114.00000000000003 500.2083333333333 111.6816673009426 501.5625 107.4273148797993 C 502.91666666666663 103.172962458656 504.27083333333337 96.9993833786539 505.625 89.92465386223856 C 506.97916666666663 82.84992434582323 508.33333333333337 74.90197023654466 509.6875 67.39147744137107 C 511.04166666666663 59.88098464619749 512.3958333333334 52.83759908254355 513.75 47.422835533724665 C 515.1041666666666 42.00807198490578 516.4583333333334 38.24330396634012 517.8125 36.74937406427406 C 519.1666666666666 35.25544416220799 520.5208333333334 36.03824931622538 521.875 38.96869823205984 C 523.2291666666666 41.89914714789431 524.5833333333334 46.96567256237019 525.9375 53.33276091223547 C 527.2916666666666 59.699849262100756 528.6458333333334 67.3423679522175 530.0 75.0" fill="none" stroke="#ffe66d" stroke-width="2.5" stroke-linecap="round" stroke-linejoin="round" />
  <circle cx="40" cy="75" r="8.0" fill="#ff6b6b" />
  <circle cx="170" cy="75" r="8.0" fill="#4ecdc4" />
  <text x="105" y="135" font-size="11.0" font-family="sans-serif" font-style="normal" font-weight="normal" fill="#aaaacc" text-anchor="middle" dominant-baseline="middle">Line</text>
  <text x="105" y="25" font-size="9.0" font-family="sans-serif" font-style="normal" font-weight="normal" fill="#888899" text-anchor="middle" dominant-baseline="middle">connect(dot2)</text>
  <circle cx="220" cy="75" r="8.0" fill="#ff6b6b" />
  <circle cx="350" cy="75" r="8.0" fill="#4ecdc4" />
  <text x="285" y="135" font-size="11.0" font-family="sans-serif" font-style="normal" font-weight="normal" fill="#aaaacc" text-anchor="middle" dominant-baseline="middle">Curve</text>
  <text x="285" y="25" font-size="9.0" font-family="sans-serif" font-style="normal" font-weight="normal" fill="#888899" text-anchor="middle" dominant-baseline="middle">curvature=0.4</text>
  <circle cx="400" cy="75" r="8.0" fill="#ff6b6b" />
  <circle cx="530" cy="75" r="8.0" fill="#4ecdc4" />
  <text x="465" y="135" font-size="11.0" font-family="sans-serif" font-style="normal" font-weight="normal" fill="#aaaacc" text-anchor="middle" dominant-baseline="middle">Path (wave)</text>
  <text x="465" y="25" font-size="9.0" font-family="sans-serif" font-style="normal" font-weight="normal" fill="#888899" text-anchor="middle" dominant-baseline="middle">path=Path(wave)</text>
</svg>