<?xml version="1.0" encoding="UTF-8"?>
<svg xmlns="http://www.w3.org/2000/svg" width="440" height="280" viewBox="0 0 440 280">
  <rect width="100%" height="100%" fill="#1a1a2e" />
  <path d="M 220 45 C 179.167 66.6667 145.833 96.6667 120 135" fill="none" stroke="#666688" stroke-width="2" stroke-linecap="round" stroke-linejoin="round" opacity="0.6" />
  <path d="M 220 45 C 260.833 66.6667 294.167 96.6667 320 135" fill="none" stroke="#666688" stroke-width="2" stroke-linecap="round" stroke-linejoin="round" opacity="0.6" />
  <path d="M 120 135 C 96.6667 165 80 198.333 70 235" fill="none" stroke="#666688" stroke-width="2" stroke-linecap="round" stroke-linejoin="round" opacity="0.6" />
  <path d="M 120 135 C 143.333 165 160 198.333 170 235" fill="none" stroke="#666688" stroke-width="2" stroke-linecap="round" stroke-linejoin="round" opacity="0.6" />
  <path d="M 320 135 C 343.333 165 360 198.333 370 235" fill="none" stroke="#666688" stroke-width="2" stroke-linecap="round" stroke-linejoin="round" opacity="0.6" />
  <path d="M 320 135 C 296.667 165 280 198.333 270 235" fill="none" stroke="#666688" stroke-width="2" stroke-linecap="round" stroke-linejoin="round" opacity="0.6" />
  <circle cx="220" cy="45" r="10" fill="#ffe66d" />
  <circle cx="120" cy="135" r="8" fill="#ff6b6b" />
  <circle cx="320" cy="135" r="8" fill="#ff6b6b" />
  <circle cx="70" cy="235" r="6" fill="#4ecdc4" />
  <circle cx="170" cy="235" r="6" fill="#4ecdc4" />
  <circle cx="270" cy="235" r="6" fill="#4ecdc4" />
  <circle cx="370" cy="235" r="6" fill="#4ecdc4" />
  <text x="220" y="270" font-size="10" font-family="sans-serif" font-style="normal" font-weight="normal" fill="#aaaacc" text-anchor="middle" dominant-baseline="middle">Flowing tree with curved connections</text>
</svg>