<?xml version="1.0" encoding="UTF-8"?>
<svg xmlns="http://www.w3.org/2000/svg" width="440" height="280" viewBox="0 0 440 280">
  <rect width="100%" height="100%" fill="#1a1a2e" />
  <path d="M 220.0 45.0 C 179.16666666666666 66.66666666666666 145.83333333333331 96.66666666666667 119.99999999999999 135.0" fill="none" stroke="#666688" stroke-width="2" stroke-linecap="round" stroke-linejoin="round" opacity="0.6" />
  <path d="M 220.0 45.0 C 260.8333333333333 66.66666666666666 294.1666666666667 96.66666666666667 320.0 135.0" fill="none" stroke="#666688" stroke-width="2" stroke-linecap="round" stroke-linejoin="round" opacity="0.6" />
  <path d="M 120.0 135.0 C 96.66666666666667 165.0 80.0 198.33333333333334 70.0 235.0" fill="none" stroke="#666688" stroke-width="2" stroke-linecap="round" stroke-linejoin="round" opacity="0.6" />
  <path d="M 120.0 135.0 C 143.33333333333334 165.0 160.0 198.33333333333334 170.0 235.0" fill="none" stroke="#666688" stroke-width="2" stroke-linecap="round" stroke-linejoin="round" opacity="0.6" />
  <path d="M 320.0 135.0 C 296.6666666666667 165.0 280.0 198.33333333333334 270.0 235.0" fill="none" stroke="#666688" stroke-width="2" stroke-linecap="round" stroke-linejoin="round" opacity="0.6" />
  <path d="M 320.0 135.0 C 343.3333333333333 165.0 360.0 198.33333333333334 370.0 235.0" fill="none" stroke="#666688" stroke-width="2" stroke-linecap="round" stroke-linejoin="round" opacity="0.6" />
  <circle cx="220" cy="45" r="10.0" fill="#ffe66d" />
  <circle cx="120" cy="135" r="8.0" fill="#ff6b6b" />
  <circle cx="320" cy="135" r="8.0" fill="#ff6b6b" />
  <circle cx="70" cy="235" r="6.0" fill="#4ecdc4" />
  <circle cx="170" cy="235" r="6.0" fill="#4ecdc4" />
  <circle cx="270" cy="235" r="6.0" fill="#4ecdc4" />
  <circle cx="370" cy="235" r="6.0" fill="#4ecdc4" />
  <text x="220" y="270" font-size="10.0" font-family="sans-serif" font-style="normal" font-weight="normal" fill="#aaaacc" text-anchor="middle" dominant-baseline="middle">Flowing tree with curved connections</text>
</svg>