<?xml version="1.0" encoding="UTF-8"?>
<svg xmlns="http://www.w3.org/2000/svg" width="540" height="160" viewBox="0 0 540 160">
  <rect width="100%" height="100%" fill="#1a1a2e" />
  <line x1="40" y1="75" x2="170" y2="75" stroke="#ffe66d" stroke-width="2.5" stroke-linecap="round" />
  <path d="M 220 75 C 263.333 92.3333 306.667 92.3333 350 75" fill="none" stroke="#ffe66d" stroke-width="2.5" stroke-linecap="round" stroke-linejoin="round" />
  <path d="M 400 75 C 401.354 82.6576 402.708 90.3002 404.062 96.6672 C 405.417 103.034 406.771 108.101 408.125 111.031 C 409.479 113.962 410.833 114.745 412.188 113.251 C 413.542 111.757 414.896 107.992 416.25 102.577 C 417.604 97.1624 418.958 90.119 420.312 82.6085 C 421.667 75.098 423.021 67.1501 424.375 60.0753 C 425.729 53.0006 427.083 46.827 428.438 42.5727 C 429.792 38.3183 431.146 36 432.5 36 C 433.854 36 435.208 38.3183 436.562 42.5727 C 437.917 46.827 439.271 53.0006 440.625 60.0753 C 441.979 67.1501 443.333 75.098 444.688 82.6085 C 446.042 90.119 447.396 97.1624 448.75 102.577 C 450.104 107.992 451.458 111.757 452.812 113.251 C 454.167 114.745 455.521 113.962 456.875 111.031 C 458.229 108.101 459.583 103.034 460.938 96.6672 C 462.292 90.3002 463.646 82.6576 465 75 C 466.354 67.3424 467.708 59.6998 469.062 53.3328 C 470.417 46.9657 471.771 41.8991 473.125 38.9687 C 474.479 36.0382 475.833 35.2554 477.188 36.7494 C 478.542 38.2433 479.896 42.0081 481.25 47.4228 C 482.604 52.8376 483.958 59.881 485.312 67.3915 C 486.667 74.902 488.021 82.8499 489.375 89.9247 C 490.729 96.9994 492.083 103.173 493.438 107.427 C 494.792 111.682 496.146 114 497.5 114 C 498.854 114 500.208 111.682 501.562 107.427 C 502.917 103.173 504.271 96.9994 505.625 89.9247 C 506.979 82.8499 508.333 74.902 509.688 67.3915 C 511.042 59.881 512.396 52.8376 513.75 47.4228 C 515.104 42.0081 516.458 38.2433 517.812 36.7494 C 519.167 35.2554 520.521 36.0382 521.875 38.9687 C 523.229 41.8991 524.583 46.9657 525.938 53.3328 C 527.292 59.6998 528.646 67.3424 530 75" fill="none" stroke="#ffe66d" stroke-width="2.5" stroke-linecap="round" stroke-linejoin="round" />
  <circle cx="40" cy="75" r="8" fill="#ff6b6b" />
  <circle cx="170" cy="75" r="8" fill="#4ecdc4" />
  <text x="105" y="135" font-size="11" font-family="sans-serif" font-style="normal" font-weight="normal" fill="#aaaacc" text-anchor="middle" dominant-baseline="middle">Line</text>
  <text x="105" y="25" font-size="9" font-family="sans-serif" font-style="normal" font-weight="normal" fill="#888899" text-anchor="middle" dominant-baseline="middle">connect(dot2)</text>
  <circle cx="220" cy="75" r="8" fill="#ff6b6b" />
  <circle cx="350" cy="75" r="8" fill="#4ecdc4" />
  <text x="285" y="135" font-size="11" font-family="sans-serif" font-style="normal" font-weight="normal" fill="#aaaacc" text-anchor="middle" dominant-baseline="middle">Curve</text>
  <text x="285" y="25" font-size="9" font-family="sans-serif" font-style="normal" font-weight="normal" fill="#888899" text-anchor="middle" dominant-baseline="middle">curvature=0.4</text>
  <circle cx="400" cy="75" r="8" fill="#ff6b6b" />
  <circle cx="530" cy="75" r="8" fill="#4ecdc4" />
  <text x="465" y="135" font-size="11" font-family="sans-serif" font-style="normal" font-weight="normal" fill="#aaaacc" text-anchor="middle" dominant-baseline="middle">Path (wave)</text>
  <text x="465" y="25" font-size="9" font-family="sans-serif" font-style="normal" font-weight="normal" fill="#888899" text-anchor="middle" dominant-baseline="middle">path=Path(wave)</text>
</svg>