<?xml version="1.0" encoding="UTF-8"?>
<svg xmlns="http://www.w3.org/2000/svg" width="540" height="160" viewBox="0 0 540 160">
  <rect width="100%" height="100%" fill="#1a1a2e" />
  <line x1="40" y1="75" x2="170" y2="75" stroke="#ffe66d" stroke-width="2.5" stroke-linecap="round" />
  <path d="M 220.0 75.0 C 263.3333333333333 92.33333333333333 306.6666666666667 92.33333333333333 350.0 75.0" fill="none" stroke="#ffe66d" stroke-width="2.5" stroke-linecap="round" stroke-linejoin="round" />
  <path d="M 400.0 75.0 C 401.3541666666667 82.65762716848515 402.7083333333333 90.30015479482533 404.0625 96.66723908776449 C 405.4166666666667 103.03432338070363 406.7708333333333 108.10085471933394 408.125 111.03130176794019 C 409.4791666666667 113.96174881654643 410.8333333333343 114.74455488590606 412.1875 113.25062593572599 C 413.5416666666657 111.75669698554591 414.8958333333333 107.99192456490402 416.25 102.57716446627535 C 417.6041666666667 97.16240436764669 418.9583333333333 90.11901056830104 420.3125 82.60852255862902 C 421.6666666666667 75.09803454895699 423.0208333333352 67.15007114630805 424.375 60.07534613776151 C 425.7291666666648 53.00062112921496 427.08333333333525 46.82703483056072 428.4375 42.572685120200745 C 429.7916666666648 38.31833540984076 431.14583333332956 36.00000000000001 432.5 36.00000000000001 C 433.85416666667044 36.00000000000001 435.2083333333333 38.31833540984075 436.5625 42.57268512020073 C 437.9166666666667 46.827034830560706 439.2708333333333 53.000621129214 440.625 60.075346137761485 C 441.9791666666667 67.15007114630897 443.3333333333333 75.09803454898329 444.6875 82.608522558629 C 446.0416666666667 90.11901056827473 447.39583333333707 97.16240436764669 448.75 102.57716446627535 C 450.1041666666629 107.99192456490402 451.45833333333707 111.75669698554799 452.8125 113.25062593572599 C 454.1666666666629 114.744554885904 455.52083333333707 113.96174881655091 456.875 111.03130176794019 C 458.2291666666629 108.10085471932948 459.5833333333333 103.03432338066806 460.9375 96.6672390877645 C 462.2916666666667 90.30015479486094 463.6458333333409 82.65762716846801 465.0 75.00000000000003 C 466.3541666666591 67.34237283153205 467.70833333333337 59.69984520514814 469.0625 53.33276091223554 C 470.41666666666663 46.965676619322956 471.77083333332587 41.899145280652995 473.125 38.96869823205984 C 474.4791666666742 36.0382511834667 475.8333333333409 35.25544511410277 477.1875 36.74937406427402 C 478.5416666666591 38.243303014445274 479.89583333333337 42.00807543511287 481.25 47.42283553372463 C 482.60416666666663 52.83759563233638 483.95833333333337 59.88098943173717 485.3125 67.39147744137102 C 486.66666666666663 74.90196545100487 488.0208333333258 82.84992885370343 489.375 89.92465386223851 C 490.7291666666742 96.9993788707736 492.08333333333337 103.17296516944575 493.4375 107.42731487979927 C 494.79166666666663 111.68166459015279 496.1458333333409 114.00000000000378 497.5 114.00000000000003 C 498.8541666666591 113.99999999999626 500.2083333333258 111.68166459015094 501.5625 107.4273148797993 C 502.9166666666742 103.17296516944765 504.2708333333409 96.99937887077458 505.625 89.92465386223856 C 506.9791666666591 82.84992885370254 508.33333333333337 74.9019654510054 509.6875 67.39147744137107 C 511.04166666666663 59.88098943173675 512.3958333333334 52.837595632360845 513.75 47.422835533724665 C 515.1041666666666 42.008075435088486 516.4583333333259 38.2433030144378 517.8125 36.74937406427406 C 519.1666666666742 35.255445114110316 520.5208333333334 36.0382511834479 521.875 38.96869823205984 C 523.2291666666666 41.89914528067179 524.5833333333334 46.9656766193567 525.9375 53.33276091223547 C 527.2916666666666 59.69984520511424 528.6458333333334 67.34237283151077 530.0 75.0" fill="none" stroke="#ffe66d" stroke-width="2.5" stroke-linecap="round" stroke-linejoin="round" />
  <circle cx="40" cy="75" r="8.0" fill="#ff6b6b" />
  <circle cx="170" cy="75" r="8.0" fill="#4ecdc4" />
  <text x="105" y="135" font-size="11.0" font-family="sans-serif" font-style="normal" font-weight="normal" fill="#aaaacc" text-anchor="middle" dominant-baseline="middle">Line</text>
  <text x="105" y="25" font-size="9.0" font-family="sans-serif" font-style="normal" font-weight="normal" fill="#888899" text-anchor="middle" dominant-baseline="middle">shape=Line()</text>
  <circle cx="220" cy="75" r="8.0" fill="#ff6b6b" />
  <circle cx="350" cy="75" r="8.0" fill="#4ecdc4" />
  <text x="285" y="135" font-size="11.0" font-family="sans-serif" font-style="normal" font-weight="normal" fill="#aaaacc" text-anchor="middle" dominant-baseline="middle">Curve</text>
  <text x="285" y="25" font-size="9.0" font-family="sans-serif" font-style="normal" font-weight="normal" fill="#888899" text-anchor="middle" dominant-baseline="middle">shape=Curve()</text>
  <circle cx="400" cy="75" r="8.0" fill="#ff6b6b" />
  <circle cx="530" cy="75" r="8.0" fill="#4ecdc4" />
  <text x="465" y="135" font-size="11.0" font-family="sans-serif" font-style="normal" font-weight="normal" fill="#aaaacc" text-anchor="middle" dominant-baseline="middle">Path (wave)</text>
  <text x="465" y="25" font-size="9.0" font-family="sans-serif" font-style="normal" font-weight="normal" fill="#888899" text-anchor="middle" dominant-baseline="middle">shape=Path(wave)</text>
</svg>