<?xml version="1.0" encoding="UTF-8"?>
<svg xmlns="http://www.w3.org/2000/svg" width="324" height="252" viewBox="0 0 324 252">
  <rect width="100%" height="100%" fill="#0a1628" />
  <line x1="1.8" y1="9" x2="16.2" y2="9" stroke="#00d9ff" stroke-width="0.5" stroke-linecap="round" opacity="0.3" />
  <line x1="19.875" y1="7.96324" x2="34.125" y2="10.0368" stroke="#00d9ff" stroke-width="0.5" stroke-linecap="round" opacity="0.341176" />
  <line x1="38.0598" y1="7.08315" x2="51.9402" y2="10.9168" stroke="#00d9ff" stroke-width="0.5" stroke-linecap="round" opacity="0.382353" />
  <line x1="56.2566" y1="6.47667" x2="69.7434" y2="11.5233" stroke="#00d9ff" stroke-width="0.5" stroke-linecap="round" opacity="0.423529" />
  <line x1="74.3636" y1="6.20751" x2="87.6364" y2="11.7925" stroke="#00d9ff" stroke-width="0.5" stroke-linecap="round" opacity="0.464706" />
  <line x1="92.3263" y1="6.29777" x2="105.674" y2="11.7022" stroke="#00d9ff" stroke-width="0.5" stroke-linecap="round" opacity="0.505882" />
  <line x1="110.164" y1="6.74054" x2="123.836" y2="11.2595" stroke="#00d9ff" stroke-width="0.5" stroke-linecap="round" opacity="0.547059" />
  <line x1="127.959" y1="7.49505" x2="142.041" y2="10.5049" stroke="#00d9ff" stroke-width="0.5" stroke-linecap="round" opacity="0.588235" />
  <line x1="145.819" y1="8.47128" x2="160.181" y2="9.52872" stroke="#00d9ff" stroke-width="0.5" stroke-linecap="round" opacity="0.629412" />
  <line x1="163.819" y1="9.52872" x2="178.181" y2="8.47128" stroke="#00d9ff" stroke-width="0.5" stroke-linecap="round" opacity="0.670588" />
  <line x1="181.959" y1="10.5049" x2="196.041" y2="7.49505" stroke="#00d9ff" stroke-width="0.5" stroke-linecap="round" opacity="0.711765" />
  <line x1="200.164" y1="11.2595" x2="213.836" y2="6.74054" stroke="#00d9ff" stroke-width="0.5" stroke-linecap="round" opacity="0.752941" />
  <line x1="218.326" y1="11.7022" x2="231.674" y2="6.29777" stroke="#00d9ff" stroke-width="0.5" stroke-linecap="round" opacity="0.794118" />
  <line x1="236.364" y1="11.7925" x2="249.636" y2="6.20751" stroke="#00d9ff" stroke-width="0.5" stroke-linecap="round" opacity="0.835294" />
  <line x1="254.257" y1="11.5233" x2="267.743" y2="6.47667" stroke="#00d9ff" stroke-width="0.5" stroke-linecap="round" opacity="0.876471" />
  <line x1="272.06" y1="10.9168" x2="285.94" y2="7.08315" stroke="#00d9ff" stroke-width="0.5" stroke-linecap="round" opacity="0.917647" />
  <line x1="289.875" y1="10.0368" x2="304.125" y2="7.96324" stroke="#00d9ff" stroke-width="0.5" stroke-linecap="round" opacity="0.958824" />
  <line x1="307.8" y1="9" x2="322.2" y2="9" stroke="#00d9ff" stroke-width="0.5" stroke-linecap="round" />
  <line x1="1.8" y1="27" x2="16.2" y2="27" stroke="#00d9ff" stroke-width="0.653846" stroke-linecap="round" opacity="0.3" />
  <line x1="19.8707" y1="25.9932" x2="34.1293" y2="28.0068" stroke="#00d9ff" stroke-width="0.653846" stroke-linecap="round" opacity="0.341176" />
  <line x1="38.0451" y1="25.1376" x2="51.9549" y2="28.8624" stroke="#00d9ff" stroke-width="0.653846" stroke-linecap="round" opacity="0.382353" />
  <line x1="56.2308" y1="24.547" x2="69.7692" y2="29.453" stroke="#00d9ff" stroke-width="0.653846" stroke-linecap="round" opacity="0.423529" />
  <line x1="74.3317" y1="24.2845" x2="87.6683" y2="29.7155" stroke="#00d9ff" stroke-width="0.653846" stroke-linecap="round" opacity="0.464706" />
  <line x1="92.2965" y1="24.3726" x2="105.703" y2="29.6274" stroke="#00d9ff" stroke-width="0.653846" stroke-linecap="round" opacity="0.505882" />
  <line x1="110.143" y1="24.804" x2="123.857" y2="29.196" stroke="#00d9ff" stroke-width="0.653846" stroke-linecap="round" opacity="0.547059" />
  <line x1="127.95" y1="25.5382" x2="142.05" y2="28.4618" stroke="#00d9ff" stroke-width="0.653846" stroke-linecap="round" opacity="0.588235" />
  <line x1="145.818" y1="26.4866" x2="160.182" y2="27.5134" stroke="#00d9ff" stroke-width="0.653846" stroke-linecap="round" opacity="0.629412" />
  <line x1="163.818" y1="27.5134" x2="178.182" y2="26.4866" stroke="#00d9ff" stroke-width="0.653846" stroke-linecap="round" opacity="0.670588" />
  <line x1="181.95" y1="28.4618" x2="196.05" y2="25.5382" stroke="#00d9ff" stroke-width="0.653846" stroke-linecap="round" opacity="0.711765" />
  <line x1="200.143" y1="29.196" x2="213.857" y2="24.804" stroke="#00d9ff" stroke-width="0.653846" stroke-linecap="round" opacity="0.752941" />
  <line x1="218.297" y1="29.6274" x2="231.703" y2="24.3726" stroke="#00d9ff" stroke-width="0.653846" stroke-linecap="round" opacity="0.794118" />
  <line x1="236.332" y1="29.7155" x2="249.668" y2="24.2845" stroke="#00d9ff" stroke-width="0.653846" stroke-linecap="round" opacity="0.835294" />
  <line x1="254.231" y1="29.453" x2="267.769" y2="24.547" stroke="#00d9ff" stroke-width="0.653846" stroke-linecap="round" opacity="0.876471" />
  <line x1="272.045" y1="28.8624" x2="285.955" y2="25.1376" stroke="#00d9ff" stroke-width="0.653846" stroke-linecap="round" opacity="0.917647" />
  <line x1="289.871" y1="28.0068" x2="304.129" y2="25.9932" stroke="#00d9ff" stroke-width="0.653846" stroke-linecap="round" opacity="0.958824" />
  <line x1="307.8" y1="27" x2="322.2" y2="27" stroke="#00d9ff" stroke-width="0.653846" stroke-linecap="round" />
  <line x1="1.8" y1="45" x2="16.2" y2="45" stroke="#00d9ff" stroke-width="0.807692" stroke-linecap="round" opacity="0.3" />
  <line x1="19.8589" y1="44.0813" x2="34.1411" y2="45.9187" stroke="#00d9ff" stroke-width="0.807692" stroke-linecap="round" opacity="0.341176" />
  <line x1="38.004" y1="43.2983" x2="51.996" y2="46.7017" stroke="#00d9ff" stroke-width="0.807692" stroke-linecap="round" opacity="0.382353" />
  <line x1="56.1589" y1="42.7553" x2="69.8411" y2="47.2447" stroke="#00d9ff" stroke-width="0.807692" stroke-linecap="round" opacity="0.423529" />
  <line x1="74.2431" y1="42.5131" x2="87.7569" y2="47.4869" stroke="#00d9ff" stroke-width="0.807692" stroke-linecap="round" opacity="0.464706" />
  <line x1="92.2138" y1="42.5944" x2="105.786" y2="47.4056" stroke="#00d9ff" stroke-width="0.807692" stroke-linecap="round" opacity="0.505882" />
  <line x1="110.086" y1="42.992" x2="123.914" y2="47.008" stroke="#00d9ff" stroke-width="0.807692" stroke-linecap="round" opacity="0.547059" />
  <line x1="127.925" y1="43.6653" x2="142.075" y2="46.3347" stroke="#00d9ff" stroke-width="0.807692" stroke-linecap="round" opacity="0.588235" />
  <line x1="145.815" y1="44.5317" x2="160.185" y2="45.4683" stroke="#00d9ff" stroke-width="0.807692" stroke-linecap="round" opacity="0.629412" />
  <line x1="163.815" y1="45.4683" x2="178.185" y2="44.5317" stroke="#00d9ff" stroke-width="0.807692" stroke-linecap="round" opacity="0.670588" />
  <line x1="181.925" y1="46.3347" x2="196.075" y2="43.6653" stroke="#00d9ff" stroke-width="0.807692" stroke-linecap="round" opacity="0.711765" />
  <line x1="200.086" y1="47.008" x2="213.914" y2="42.992" stroke="#00d9ff" stroke-width="0.807692" stroke-linecap="round" opacity="0.752941" />
  <line x1="218.214" y1="47.4056" x2="231.786" y2="42.5944" stroke="#00d9ff" stroke-width="0.807692" stroke-linecap="round" opacity="0.794118" />
  <line x1="236.243" y1="47.4869" x2="249.757" y2="42.5131" stroke="#00d9ff" stroke-width="0.807692" stroke-linecap="round" opacity="0.835294" />
  <line x1="254.159" y1="47.2447" x2="267.841" y2="42.7553" stroke="#00d9ff" stroke-width="0.807692" stroke-linecap="round" opacity="0.876471" />
  <line x1="272.004" y1="46.7017" x2="285.996" y2="43.2983" stroke="#00d9ff" stroke-width="0.807692" stroke-linecap="round" opacity="0.917647" />
  <line x1="289.859" y1="45.9187" x2="304.141" y2="44.0813" stroke="#00d9ff" stroke-width="0.807692" stroke-linecap="round" opacity="0.958824" />
  <line x1="307.8" y1="45" x2="322.2" y2="45" stroke="#00d9ff" stroke-width="0.807692" stroke-linecap="round" />
  <line x1="1.8" y1="63" x2="16.2" y2="63" stroke="#00d9ff" stroke-width="0.961538" stroke-linecap="round" opacity="0.3" />
  <line x1="19.8421" y1="62.2228" x2="34.1579" y2="63.7772" stroke="#00d9ff" stroke-width="0.961538" stroke-linecap="round" opacity="0.341176" />
  <line x1="37.946" y1="61.5575" x2="52.054" y2="64.4425" stroke="#00d9ff" stroke-width="0.961538" stroke-linecap="round" opacity="0.382353" />
  <line x1="56.0571" y1="61.0933" x2="69.9429" y2="64.9067" stroke="#00d9ff" stroke-width="0.961538" stroke-linecap="round" opacity="0.423529" />
  <line x1="74.1176" y1="60.8851" x2="87.8824" y2="65.1149" stroke="#00d9ff" stroke-width="0.961538" stroke-linecap="round" opacity="0.464706" />
  <line x1="92.0965" y1="60.9551" x2="105.904" y2="65.0449" stroke="#00d9ff" stroke-width="0.961538" stroke-linecap="round" opacity="0.505882" />
  <line x1="110.005" y1="61.296" x2="123.995" y2="64.704" stroke="#00d9ff" stroke-width="0.961538" stroke-linecap="round" opacity="0.547059" />
  <line x1="127.889" y1="61.8699" x2="142.111" y2="64.1301" stroke="#00d9ff" stroke-width="0.961538" stroke-linecap="round" opacity="0.588235" />
  <line x1="145.811" y1="62.6041" x2="160.189" y2="63.3959" stroke="#00d9ff" stroke-width="0.961538" stroke-linecap="round" opacity="0.629412" />
  <line x1="163.811" y1="63.3959" x2="178.189" y2="62.6041" stroke="#00d9ff" stroke-width="0.961538" stroke-linecap="round" opacity="0.670588" />
  <line x1="181.889" y1="64.1301" x2="196.111" y2="61.8699" stroke="#00d9ff" stroke-width="0.961538" stroke-linecap="round" opacity="0.711765" />
  <line x1="200.005" y1="64.704" x2="213.995" y2="61.296" stroke="#00d9ff" stroke-width="0.961538" stroke-linecap="round" opacity="0.752941" />
  <line x1="218.096" y1="65.0449" x2="231.904" y2="60.9551" stroke="#00d9ff" stroke-width="0.961538" stroke-linecap="round" opacity="0.794118" />
  <line x1="236.118" y1="65.1149" x2="249.882" y2="60.8851" stroke="#00d9ff" stroke-width="0.961538" stroke-linecap="round" opacity="0.835294" />
  <line x1="254.057" y1="64.9067" x2="267.943" y2="61.0933" stroke="#00d9ff" stroke-width="0.961538" stroke-linecap="round" opacity="0.876471" />
  <line x1="271.946" y1="64.4425" x2="286.054" y2="61.5575" stroke="#00d9ff" stroke-width="0.961538" stroke-linecap="round" opacity="0.917647" />
  <line x1="289.842" y1="63.7772" x2="304.158" y2="62.2228" stroke="#00d9ff" stroke-width="0.961538" stroke-linecap="round" opacity="0.958824" />
  <line x1="307.8" y1="63" x2="322.2" y2="63" stroke="#00d9ff" stroke-width="0.961538" stroke-linecap="round" />
  <line x1="1.8" y1="81" x2="16.2" y2="81" stroke="#00d9ff" stroke-width="1.11538" stroke-linecap="round" opacity="0.3" />
  <line x1="19.8242" y1="80.4097" x2="34.1758" y2="81.5903" stroke="#00d9ff" stroke-width="1.11538" stroke-linecap="round" opacity="0.341176" />
  <line x1="37.8842" y1="79.9021" x2="52.1158" y2="82.0979" stroke="#00d9ff" stroke-width="1.11538" stroke-linecap="round" opacity="0.382353" />
  <line x1="55.9484" y1="79.5456" x2="70.0516" y2="82.4544" stroke="#00d9ff" stroke-width="1.11538" stroke-linecap="round" opacity="0.423529" />
  <line x1="73.9835" y1="79.3848" x2="88.0165" y2="82.6152" stroke="#00d9ff" stroke-width="1.11538" stroke-linecap="round" opacity="0.464706" />
  <line x1="91.9713" y1="79.4389" x2="106.029" y2="82.5611" stroke="#00d9ff" stroke-width="1.11538" stroke-linecap="round" opacity="0.505882" />
  <line x1="109.918" y1="79.7016" x2="124.082" y2="82.2984" stroke="#00d9ff" stroke-width="1.11538" stroke-linecap="round" opacity="0.547059" />
  <line x1="127.851" y1="80.1408" x2="142.149" y2="81.8592" stroke="#00d9ff" stroke-width="1.11538" stroke-linecap="round" opacity="0.588235" />
  <line x1="145.806" y1="80.6995" x2="160.194" y2="81.3005" stroke="#00d9ff" stroke-width="1.11538" stroke-linecap="round" opacity="0.629412" />
  <line x1="163.806" y1="81.3005" x2="178.194" y2="80.6995" stroke="#00d9ff" stroke-width="1.11538" stroke-linecap="round" opacity="0.670588" />
  <line x1="181.851" y1="81.8592" x2="196.149" y2="80.1408" stroke="#00d9ff" stroke-width="1.11538" stroke-linecap="round" opacity="0.711765" />
  <line x1="199.918" y1="82.2984" x2="214.082" y2="79.7016" stroke="#00d9ff" stroke-width="1.11538" stroke-linecap="round" opacity="0.752941" />
  <line x1="217.971" y1="82.5611" x2="232.029" y2="79.4389" stroke="#00d9ff" stroke-width="1.11538" stroke-linecap="round" opacity="0.794118" />
  <line x1="235.984" y1="82.6152" x2="250.016" y2="79.3848" stroke="#00d9ff" stroke-width="1.11538" stroke-linecap="round" opacity="0.835294" />
  <line x1="253.948" y1="82.4544" x2="268.052" y2="79.5456" stroke="#00d9ff" stroke-width="1.11538" stroke-linecap="round" opacity="0.876471" />
  <line x1="271.884" y1="82.0979" x2="286.116" y2="79.9021" stroke="#00d9ff" stroke-width="1.11538" stroke-linecap="round" opacity="0.917647" />
  <line x1="289.824" y1="81.5903" x2="304.176" y2="80.4097" stroke="#00d9ff" stroke-width="1.11538" stroke-linecap="round" opacity="0.958824" />
  <line x1="307.8" y1="81" x2="322.2" y2="81" stroke="#00d9ff" stroke-width="1.11538" stroke-linecap="round" />
  <line x1="1.8" y1="99" x2="16.2" y2="99" stroke="#00d9ff" stroke-width="1.26923" stroke-linecap="round" opacity="0.3" />
  <line x1="19.8094" y1="98.6312" x2="34.1906" y2="99.3688" stroke="#00d9ff" stroke-width="1.26923" stroke-linecap="round" opacity="0.341176" />
  <line x1="37.8328" y1="98.313" x2="52.1672" y2="99.687" stroke="#00d9ff" stroke-width="1.26923" stroke-linecap="round" opacity="0.382353" />
  <line x1="55.858" y1="98.0883" x2="70.142" y2="99.9117" stroke="#00d9ff" stroke-width="1.26923" stroke-linecap="round" opacity="0.423529" />
  <line x1="73.8717" y1="97.9865" x2="88.1283" y2="100.014" stroke="#00d9ff" stroke-width="1.26923" stroke-linecap="round" opacity="0.464706" />
  <line x1="91.8669" y1="98.0208" x2="106.133" y2="99.9792" stroke="#00d9ff" stroke-width="1.26923" stroke-linecap="round" opacity="0.505882" />
  <line x1="109.846" y1="98.1868" x2="124.154" y2="99.8132" stroke="#00d9ff" stroke-width="1.26923" stroke-linecap="round" opacity="0.547059" />
  <line x1="127.82" y1="98.4629" x2="142.18" y2="99.5371" stroke="#00d9ff" stroke-width="1.26923" stroke-linecap="round" opacity="0.588235" />
  <line x1="145.802" y1="98.8124" x2="160.198" y2="99.1876" stroke="#00d9ff" stroke-width="1.26923" stroke-linecap="round" opacity="0.629412" />
  <line x1="163.802" y1="99.1876" x2="178.198" y2="98.8124" stroke="#00d9ff" stroke-width="1.26923" stroke-linecap="round" opacity="0.670588" />
  <line x1="181.82" y1="99.5371" x2="196.18" y2="98.4629" stroke="#00d9ff" stroke-width="1.26923" stroke-linecap="round" opacity="0.711765" />
  <line x1="199.846" y1="99.8132" x2="214.154" y2="98.1868" stroke="#00d9ff" stroke-width="1.26923" stroke-linecap="round" opacity="0.752941" />
  <line x1="217.867" y1="99.9792" x2="232.133" y2="98.0208" stroke="#00d9ff" stroke-width="1.26923" stroke-linecap="round" opacity="0.794118" />
  <line x1="235.872" y1="100.014" x2="250.128" y2="97.9865" stroke="#00d9ff" stroke-width="1.26923" stroke-linecap="round" opacity="0.835294" />
  <line x1="253.858" y1="99.9117" x2="268.142" y2="98.0883" stroke="#00d9ff" stroke-width="1.26923" stroke-linecap="round" opacity="0.876471" />
  <line x1="271.833" y1="99.687" x2="286.167" y2="98.313" stroke="#00d9ff" stroke-width="1.26923" stroke-linecap="round" opacity="0.917647" />
  <line x1="289.809" y1="99.3688" x2="304.191" y2="98.6312" stroke="#00d9ff" stroke-width="1.26923" stroke-linecap="round" opacity="0.958824" />
  <line x1="307.8" y1="99" x2="322.2" y2="99" stroke="#00d9ff" stroke-width="1.26923" stroke-linecap="round" />
  <line x1="1.8" y1="117" x2="16.2" y2="117" stroke="#00d9ff" stroke-width="1.42308" stroke-linecap="round" opacity="0.3" />
  <line x1="19.8011" y1="116.875" x2="34.1989" y2="117.125" stroke="#00d9ff" stroke-width="1.42308" stroke-linecap="round" opacity="0.341176" />
  <line x1="37.8038" y1="116.766" x2="52.1962" y2="117.234" stroke="#00d9ff" stroke-width="1.42308" stroke-linecap="round" opacity="0.382353" />
  <line x1="55.8067" y1="116.689" x2="70.1933" y2="117.311" stroke="#00d9ff" stroke-width="1.42308" stroke-linecap="round" opacity="0.423529" />
  <line x1="73.8083" y1="116.654" x2="88.1917" y2="117.346" stroke="#00d9ff" stroke-width="1.42308" stroke-linecap="round" opacity="0.464706" />
  <line x1="91.8077" y1="116.666" x2="106.192" y2="117.334" stroke="#00d9ff" stroke-width="1.42308" stroke-linecap="round" opacity="0.505882" />
  <line x1="109.805" y1="116.723" x2="124.195" y2="117.277" stroke="#00d9ff" stroke-width="1.42308" stroke-linecap="round" opacity="0.547059" />
  <line x1="127.802" y1="116.817" x2="142.198" y2="117.183" stroke="#00d9ff" stroke-width="1.42308" stroke-linecap="round" opacity="0.588235" />
  <line x1="145.8" y1="116.936" x2="160.2" y2="117.064" stroke="#00d9ff" stroke-width="1.42308" stroke-linecap="round" opacity="0.629412" />
  <line x1="163.8" y1="117.064" x2="178.2" y2="116.936" stroke="#00d9ff" stroke-width="1.42308" stroke-linecap="round" opacity="0.670588" />
  <line x1="181.802" y1="117.183" x2="196.198" y2="116.817" stroke="#00d9ff" stroke-width="1.42308" stroke-linecap="round" opacity="0.711765" />
  <line x1="199.805" y1="117.277" x2="214.195" y2="116.723" stroke="#00d9ff" stroke-width="1.42308" stroke-linecap="round" opacity="0.752941" />
  <line x1="217.808" y1="117.334" x2="232.192" y2="116.666" stroke="#00d9ff" stroke-width="1.42308" stroke-linecap="round" opacity="0.794118" />
  <line x1="235.808" y1="117.346" x2="250.192" y2="116.654" stroke="#00d9ff" stroke-width="1.42308" stroke-linecap="round" opacity="0.835294" />
  <line x1="253.807" y1="117.311" x2="268.193" y2="116.689" stroke="#00d9ff" stroke-width="1.42308" stroke-linecap="round" opacity="0.876471" />
  <line x1="271.804" y1="117.234" x2="286.196" y2="116.766" stroke="#00d9ff" stroke-width="1.42308" stroke-linecap="round" opacity="0.917647" />
  <line x1="289.801" y1="117.125" x2="304.199" y2="116.875" stroke="#00d9ff" stroke-width="1.42308" stroke-linecap="round" opacity="0.958824" />
  <line x1="307.8" y1="117" x2="322.2" y2="117" stroke="#00d9ff" stroke-width="1.42308" stroke-linecap="round" />
  <line x1="1.8" y1="135" x2="16.2" y2="135" stroke="#00d9ff" stroke-width="1.57692" stroke-linecap="round" opacity="0.3" />
  <line x1="19.8011" y1="135.125" x2="34.1989" y2="134.875" stroke="#00d9ff" stroke-width="1.57692" stroke-linecap="round" opacity="0.341176" />
  <line x1="37.8038" y1="135.234" x2="52.1962" y2="134.766" stroke="#00d9ff" stroke-width="1.57692" stroke-linecap="round" opacity="0.382353" />
  <line x1="55.8067" y1="135.311" x2="70.1933" y2="134.689" stroke="#00d9ff" stroke-width="1.57692" stroke-linecap="round" opacity="0.423529" />
  <line x1="73.8083" y1="135.346" x2="88.1917" y2="134.654" stroke="#00d9ff" stroke-width="1.57692" stroke-linecap="round" opacity="0.464706" />
  <line x1="91.8077" y1="135.334" x2="106.192" y2="134.666" stroke="#00d9ff" stroke-width="1.57692" stroke-linecap="round" opacity="0.505882" />
  <line x1="109.805" y1="135.277" x2="124.195" y2="134.723" stroke="#00d9ff" stroke-width="1.57692" stroke-linecap="round" opacity="0.547059" />
  <line x1="127.802" y1="135.183" x2="142.198" y2="134.817" stroke="#00d9ff" stroke-width="1.57692" stroke-linecap="round" opacity="0.588235" />
  <line x1="145.8" y1="135.064" x2="160.2" y2="134.936" stroke="#00d9ff" stroke-width="1.57692" stroke-linecap="round" opacity="0.629412" />
  <line x1="163.8" y1="134.936" x2="178.2" y2="135.064" stroke="#00d9ff" stroke-width="1.57692" stroke-linecap="round" opacity="0.670588" />
  <line x1="181.802" y1="134.817" x2="196.198" y2="135.183" stroke="#00d9ff" stroke-width="1.57692" stroke-linecap="round" opacity="0.711765" />
  <line x1="199.805" y1="134.723" x2="214.195" y2="135.277" stroke="#00d9ff" stroke-width="1.57692" stroke-linecap="round" opacity="0.752941" />
  <line x1="217.808" y1="134.666" x2="232.192" y2="135.334" stroke="#00d9ff" stroke-width="1.57692" stroke-linecap="round" opacity="0.794118" />
  <line x1="235.808" y1="134.654" x2="250.192" y2="135.346" stroke="#00d9ff" stroke-width="1.57692" stroke-linecap="round" opacity="0.835294" />
  <line x1="253.807" y1="134.689" x2="268.193" y2="135.311" stroke="#00d9ff" stroke-width="1.57692" stroke-linecap="round" opacity="0.876471" />
  <line x1="271.804" y1="134.766" x2="286.196" y2="135.234" stroke="#00d9ff" stroke-width="1.57692" stroke-linecap="round" opacity="0.917647" />
  <line x1="289.801" y1="134.875" x2="304.199" y2="135.125" stroke="#00d9ff" stroke-width="1.57692" stroke-linecap="round" opacity="0.958824" />
  <line x1="307.8" y1="135" x2="322.2" y2="135" stroke="#00d9ff" stroke-width="1.57692" stroke-linecap="round" />
  <line x1="1.8" y1="153" x2="16.2" y2="153" stroke="#00d9ff" stroke-width="1.73077" stroke-linecap="round" opacity="0.3" />
  <line x1="19.8094" y1="153.369" x2="34.1906" y2="152.631" stroke="#00d9ff" stroke-width="1.73077" stroke-linecap="round" opacity="0.341176" />
  <line x1="37.8328" y1="153.687" x2="52.1672" y2="152.313" stroke="#00d9ff" stroke-width="1.73077" stroke-linecap="round" opacity="0.382353" />
  <line x1="55.858" y1="153.912" x2="70.142" y2="152.088" stroke="#00d9ff" stroke-width="1.73077" stroke-linecap="round" opacity="0.423529" />
  <line x1="73.8717" y1="154.014" x2="88.1283" y2="151.986" stroke="#00d9ff" stroke-width="1.73077" stroke-linecap="round" opacity="0.464706" />
  <line x1="91.8669" y1="153.979" x2="106.133" y2="152.021" stroke="#00d9ff" stroke-width="1.73077" stroke-linecap="round" opacity="0.505882" />
  <line x1="109.846" y1="153.813" x2="124.154" y2="152.187" stroke="#00d9ff" stroke-width="1.73077" stroke-linecap="round" opacity="0.547059" />
  <line x1="127.82" y1="153.537" x2="142.18" y2="152.463" stroke="#00d9ff" stroke-width="1.73077" stroke-linecap="round" opacity="0.588235" />
  <line x1="145.802" y1="153.188" x2="160.198" y2="152.812" stroke="#00d9ff" stroke-width="1.73077" stroke-linecap="round" opacity="0.629412" />
  <line x1="163.802" y1="152.812" x2="178.198" y2="153.188" stroke="#00d9ff" stroke-width="1.73077" stroke-linecap="round" opacity="0.670588" />
  <line x1="181.82" y1="152.463" x2="196.18" y2="153.537" stroke="#00d9ff" stroke-width="1.73077" stroke-linecap="round" opacity="0.711765" />
  <line x1="199.846" y1="152.187" x2="214.154" y2="153.813" stroke="#00d9ff" stroke-width="1.73077" stroke-linecap="round" opacity="0.752941" />
  <line x1="217.867" y1="152.021" x2="232.133" y2="153.979" stroke="#00d9ff" stroke-width="1.73077" stroke-linecap="round" opacity="0.794118" />
  <line x1="235.872" y1="151.986" x2="250.128" y2="154.014" stroke="#00d9ff" stroke-width="1.73077" stroke-linecap="round" opacity="0.835294" />
  <line x1="253.858" y1="152.088" x2="268.142" y2="153.912" stroke="#00d9ff" stroke-width="1.73077" stroke-linecap="round" opacity="0.876471" />
  <line x1="271.833" y1="152.313" x2="286.167" y2="153.687" stroke="#00d9ff" stroke-width="1.73077" stroke-linecap="round" opacity="0.917647" />
  <line x1="289.809" y1="152.631" x2="304.191" y2="153.369" stroke="#00d9ff" stroke-width="1.73077" stroke-linecap="round" opacity="0.958824" />
  <line x1="307.8" y1="153" x2="322.2" y2="153" stroke="#00d9ff" stroke-width="1.73077" stroke-linecap="round" />
  <line x1="1.8" y1="171" x2="16.2" y2="171" stroke="#00d9ff" stroke-width="1.88462" stroke-linecap="round" opacity="0.3" />
  <line x1="19.8242" y1="171.59" x2="34.1758" y2="170.41" stroke="#00d9ff" stroke-width="1.88462" stroke-linecap="round" opacity="0.341176" />
  <line x1="37.8842" y1="172.098" x2="52.1158" y2="169.902" stroke="#00d9ff" stroke-width="1.88462" stroke-linecap="round" opacity="0.382353" />
  <line x1="55.9484" y1="172.454" x2="70.0516" y2="169.546" stroke="#00d9ff" stroke-width="1.88462" stroke-linecap="round" opacity="0.423529" />
  <line x1="73.9835" y1="172.615" x2="88.0165" y2="169.385" stroke="#00d9ff" stroke-width="1.88462" stroke-linecap="round" opacity="0.464706" />
  <line x1="91.9713" y1="172.561" x2="106.029" y2="169.439" stroke="#00d9ff" stroke-width="1.88462" stroke-linecap="round" opacity="0.505882" />
  <line x1="109.918" y1="172.298" x2="124.082" y2="169.702" stroke="#00d9ff" stroke-width="1.88462" stroke-linecap="round" opacity="0.547059" />
  <line x1="127.851" y1="171.859" x2="142.149" y2="170.141" stroke="#00d9ff" stroke-width="1.88462" stroke-linecap="round" opacity="0.588235" />
  <line x1="145.806" y1="171.301" x2="160.194" y2="170.699" stroke="#00d9ff" stroke-width="1.88462" stroke-linecap="round" opacity="0.629412" />
  <line x1="163.806" y1="170.699" x2="178.194" y2="171.301" stroke="#00d9ff" stroke-width="1.88462" stroke-linecap="round" opacity="0.670588" />
  <line x1="181.851" y1="170.141" x2="196.149" y2="171.859" stroke="#00d9ff" stroke-width="1.88462" stroke-linecap="round" opacity="0.711765" />
  <line x1="199.918" y1="169.702" x2="214.082" y2="172.298" stroke="#00d9ff" stroke-width="1.88462" stroke-linecap="round" opacity="0.752941" />
  <line x1="217.971" y1="169.439" x2="232.029" y2="172.561" stroke="#00d9ff" stroke-width="1.88462" stroke-linecap="round" opacity="0.794118" />
  <line x1="235.984" y1="169.385" x2="250.016" y2="172.615" stroke="#00d9ff" stroke-width="1.88462" stroke-linecap="round" opacity="0.835294" />
  <line x1="253.948" y1="169.546" x2="268.052" y2="172.454" stroke="#00d9ff" stroke-width="1.88462" stroke-linecap="round" opacity="0.876471" />
  <line x1="271.884" y1="169.902" x2="286.116" y2="172.098" stroke="#00d9ff" stroke-width="1.88462" stroke-linecap="round" opacity="0.917647" />
  <line x1="289.824" y1="170.41" x2="304.176" y2="171.59" stroke="#00d9ff" stroke-width="1.88462" stroke-linecap="round" opacity="0.958824" />
  <line x1="307.8" y1="171" x2="322.2" y2="171" stroke="#00d9ff" stroke-width="1.88462" stroke-linecap="round" />
  <line x1="1.8" y1="189" x2="16.2" y2="189" stroke="#00d9ff" stroke-width="2.03846" stroke-linecap="round" opacity="0.3" />
  <line x1="19.8421" y1="189.777" x2="34.1579" y2="188.223" stroke="#00d9ff" stroke-width="2.03846" stroke-linecap="round" opacity="0.341176" />
  <line x1="37.946" y1="190.442" x2="52.054" y2="187.558" stroke="#00d9ff" stroke-width="2.03846" stroke-linecap="round" opacity="0.382353" />
  <line x1="56.0571" y1="190.907" x2="69.9429" y2="187.093" stroke="#00d9ff" stroke-width="2.03846" stroke-linecap="round" opacity="0.423529" />
  <line x1="74.1176" y1="191.115" x2="87.8824" y2="186.885" stroke="#00d9ff" stroke-width="2.03846" stroke-linecap="round" opacity="0.464706" />
  <line x1="92.0965" y1="191.045" x2="105.904" y2="186.955" stroke="#00d9ff" stroke-width="2.03846" stroke-linecap="round" opacity="0.505882" />
  <line x1="110.005" y1="190.704" x2="123.995" y2="187.296" stroke="#00d9ff" stroke-width="2.03846" stroke-linecap="round" opacity="0.547059" />
  <line x1="127.889" y1="190.13" x2="142.111" y2="187.87" stroke="#00d9ff" stroke-width="2.03846" stroke-linecap="round" opacity="0.588235" />
  <line x1="145.811" y1="189.396" x2="160.189" y2="188.604" stroke="#00d9ff" stroke-width="2.03846" stroke-linecap="round" opacity="0.629412" />
  <line x1="163.811" y1="188.604" x2="178.189" y2="189.396" stroke="#00d9ff" stroke-width="2.03846" stroke-linecap="round" opacity="0.670588" />
  <line x1="181.889" y1="187.87" x2="196.111" y2="190.13" stroke="#00d9ff" stroke-width="2.03846" stroke-linecap="round" opacity="0.711765" />
  <line x1="200.005" y1="187.296" x2="213.995" y2="190.704" stroke="#00d9ff" stroke-width="2.03846" stroke-linecap="round" opacity="0.752941" />
  <line x1="218.096" y1="186.955" x2="231.904" y2="191.045" stroke="#00d9ff" stroke-width="2.03846" stroke-linecap="round" opacity="0.794118" />
  <line x1="236.118" y1="186.885" x2="249.882" y2="191.115" stroke="#00d9ff" stroke-width="2.03846" stroke-linecap="round" opacity="0.835294" />
  <line x1="254.057" y1="187.093" x2="267.943" y2="190.907" stroke="#00d9ff" stroke-width="2.03846" stroke-linecap="round" opacity="0.876471" />
  <line x1="271.946" y1="187.558" x2="286.054" y2="190.442" stroke="#00d9ff" stroke-width="2.03846" stroke-linecap="round" opacity="0.917647" />
  <line x1="289.842" y1="188.223" x2="304.158" y2="189.777" stroke="#00d9ff" stroke-width="2.03846" stroke-linecap="round" opacity="0.958824" />
  <line x1="307.8" y1="189" x2="322.2" y2="189" stroke="#00d9ff" stroke-width="2.03846" stroke-linecap="round" />
  <line x1="1.8" y1="207" x2="16.2" y2="207" stroke="#00d9ff" stroke-width="2.19231" stroke-linecap="round" opacity="0.3" />
  <line x1="19.8589" y1="207.919" x2="34.1411" y2="206.081" stroke="#00d9ff" stroke-width="2.19231" stroke-linecap="round" opacity="0.341176" />
  <line x1="38.004" y1="208.702" x2="51.996" y2="205.298" stroke="#00d9ff" stroke-width="2.19231" stroke-linecap="round" opacity="0.382353" />
  <line x1="56.1589" y1="209.245" x2="69.8411" y2="204.755" stroke="#00d9ff" stroke-width="2.19231" stroke-linecap="round" opacity="0.423529" />
  <line x1="74.2431" y1="209.487" x2="87.7569" y2="204.513" stroke="#00d9ff" stroke-width="2.19231" stroke-linecap="round" opacity="0.464706" />
  <line x1="92.2138" y1="209.406" x2="105.786" y2="204.594" stroke="#00d9ff" stroke-width="2.19231" stroke-linecap="round" opacity="0.505882" />
  <line x1="110.086" y1="209.008" x2="123.914" y2="204.992" stroke="#00d9ff" stroke-width="2.19231" stroke-linecap="round" opacity="0.547059" />
  <line x1="127.925" y1="208.335" x2="142.075" y2="205.665" stroke="#00d9ff" stroke-width="2.19231" stroke-linecap="round" opacity="0.588235" />
  <line x1="145.815" y1="207.468" x2="160.185" y2="206.532" stroke="#00d9ff" stroke-width="2.19231" stroke-linecap="round" opacity="0.629412" />
  <line x1="163.815" y1="206.532" x2="178.185" y2="207.468" stroke="#00d9ff" stroke-width="2.19231" stroke-linecap="round" opacity="0.670588" />
  <line x1="181.925" y1="205.665" x2="196.075" y2="208.335" stroke="#00d9ff" stroke-width="2.19231" stroke-linecap="round" opacity="0.711765" />
  <line x1="200.086" y1="204.992" x2="213.914" y2="209.008" stroke="#00d9ff" stroke-width="2.19231" stroke-linecap="round" opacity="0.752941" />
  <line x1="218.214" y1="204.594" x2="231.786" y2="209.406" stroke="#00d9ff" stroke-width="2.19231" stroke-linecap="round" opacity="0.794118" />
  <line x1="236.243" y1="204.513" x2="249.757" y2="209.487" stroke="#00d9ff" stroke-width="2.19231" stroke-linecap="round" opacity="0.835294" />
  <line x1="254.159" y1="204.755" x2="267.841" y2="209.245" stroke="#00d9ff" stroke-width="2.19231" stroke-linecap="round" opacity="0.876471" />
  <line x1="272.004" y1="205.298" x2="285.996" y2="208.702" stroke="#00d9ff" stroke-width="2.19231" stroke-linecap="round" opacity="0.917647" />
  <line x1="289.859" y1="206.081" x2="304.141" y2="207.919" stroke="#00d9ff" stroke-width="2.19231" stroke-linecap="round" opacity="0.958824" />
  <line x1="307.8" y1="207" x2="322.2" y2="207" stroke="#00d9ff" stroke-width="2.19231" stroke-linecap="round" />
  <line x1="1.8" y1="225" x2="16.2" y2="225" stroke="#00d9ff" stroke-width="2.34615" stroke-linecap="round" opacity="0.3" />
  <line x1="19.8707" y1="226.007" x2="34.1293" y2="223.993" stroke="#00d9ff" stroke-width="2.34615" stroke-linecap="round" opacity="0.341176" />
  <line x1="38.0451" y1="226.862" x2="51.9549" y2="223.138" stroke="#00d9ff" stroke-width="2.34615" stroke-linecap="round" opacity="0.382353" />
  <line x1="56.2308" y1="227.453" x2="69.7692" y2="222.547" stroke="#00d9ff" stroke-width="2.34615" stroke-linecap="round" opacity="0.423529" />
  <line x1="74.3317" y1="227.715" x2="87.6683" y2="222.285" stroke="#00d9ff" stroke-width="2.34615" stroke-linecap="round" opacity="0.464706" />
  <line x1="92.2965" y1="227.627" x2="105.703" y2="222.373" stroke="#00d9ff" stroke-width="2.34615" stroke-linecap="round" opacity="0.505882" />
  <line x1="110.143" y1="227.196" x2="123.857" y2="222.804" stroke="#00d9ff" stroke-width="2.34615" stroke-linecap="round" opacity="0.547059" />
  <line x1="127.95" y1="226.462" x2="142.05" y2="223.538" stroke="#00d9ff" stroke-width="2.34615" stroke-linecap="round" opacity="0.588235" />
  <line x1="145.818" y1="225.513" x2="160.182" y2="224.487" stroke="#00d9ff" stroke-width="2.34615" stroke-linecap="round" opacity="0.629412" />
  <line x1="163.818" y1="224.487" x2="178.182" y2="225.513" stroke="#00d9ff" stroke-width="2.34615" stroke-linecap="round" opacity="0.670588" />
  <line x1="181.95" y1="223.538" x2="196.05" y2="226.462" stroke="#00d9ff" stroke-width="2.34615" stroke-linecap="round" opacity="0.711765" />
  <line x1="200.143" y1="222.804" x2="213.857" y2="227.196" stroke="#00d9ff" stroke-width="2.34615" stroke-linecap="round" opacity="0.752941" />
  <line x1="218.297" y1="222.373" x2="231.703" y2="227.627" stroke="#00d9ff" stroke-width="2.34615" stroke-linecap="round" opacity="0.794118" />
  <line x1="236.332" y1="222.285" x2="249.668" y2="227.715" stroke="#00d9ff" stroke-width="2.34615" stroke-linecap="round" opacity="0.835294" />
  <line x1="254.231" y1="222.547" x2="267.769" y2="227.453" stroke="#00d9ff" stroke-width="2.34615" stroke-linecap="round" opacity="0.876471" />
  <line x1="272.045" y1="223.138" x2="285.955" y2="226.862" stroke="#00d9ff" stroke-width="2.34615" stroke-linecap="round" opacity="0.917647" />
  <line x1="289.871" y1="223.993" x2="304.129" y2="226.007" stroke="#00d9ff" stroke-width="2.34615" stroke-linecap="round" opacity="0.958824" />
  <line x1="307.8" y1="225" x2="322.2" y2="225" stroke="#00d9ff" stroke-width="2.34615" stroke-linecap="round" />
  <line x1="1.8" y1="243" x2="16.2" y2="243" stroke="#00d9ff" stroke-width="2.5" stroke-linecap="round" opacity="0.3" />
  <line x1="19.875" y1="244.037" x2="34.125" y2="241.963" stroke="#00d9ff" stroke-width="2.5" stroke-linecap="round" opacity="0.341176" />
  <line x1="38.0598" y1="244.917" x2="51.9402" y2="241.083" stroke="#00d9ff" stroke-width="2.5" stroke-linecap="round" opacity="0.382353" />
  <line x1="56.2566" y1="245.523" x2="69.7434" y2="240.477" stroke="#00d9ff" stroke-width="2.5" stroke-linecap="round" opacity="0.423529" />
  <line x1="74.3636" y1="245.792" x2="87.6364" y2="240.208" stroke="#00d9ff" stroke-width="2.5" stroke-linecap="round" opacity="0.464706" />
  <line x1="92.3263" y1="245.702" x2="105.674" y2="240.298" stroke="#00d9ff" stroke-width="2.5" stroke-linecap="round" opacity="0.505882" />
  <line x1="110.164" y1="245.259" x2="123.836" y2="240.741" stroke="#00d9ff" stroke-width="2.5" stroke-linecap="round" opacity="0.547059" />
  <line x1="127.959" y1="244.505" x2="142.041" y2="241.495" stroke="#00d9ff" stroke-width="2.5" stroke-linecap="round" opacity="0.588235" />
  <line x1="145.819" y1="243.529" x2="160.181" y2="242.471" stroke="#00d9ff" stroke-width="2.5" stroke-linecap="round" opacity="0.629412" />
  <line x1="163.819" y1="242.471" x2="178.181" y2="243.529" stroke="#00d9ff" stroke-width="2.5" stroke-linecap="round" opacity="0.670588" />
  <line x1="181.959" y1="241.495" x2="196.041" y2="244.505" stroke="#00d9ff" stroke-width="2.5" stroke-linecap="round" opacity="0.711765" />
  <line x1="200.164" y1="240.741" x2="213.836" y2="245.259" stroke="#00d9ff" stroke-width="2.5" stroke-linecap="round" opacity="0.752941" />
  <line x1="218.326" y1="240.298" x2="231.674" y2="245.702" stroke="#00d9ff" stroke-width="2.5" stroke-linecap="round" opacity="0.794118" />
  <line x1="236.364" y1="240.208" x2="249.636" y2="245.792" stroke="#00d9ff" stroke-width="2.5" stroke-linecap="round" opacity="0.835294" />
  <line x1="254.257" y1="240.477" x2="267.743" y2="245.523" stroke="#00d9ff" stroke-width="2.5" stroke-linecap="round" opacity="0.876471" />
  <line x1="272.06" y1="241.083" x2="285.94" y2="244.917" stroke="#00d9ff" stroke-width="2.5" stroke-linecap="round" opacity="0.917647" />
  <line x1="289.875" y1="241.963" x2="304.125" y2="244.037" stroke="#00d9ff" stroke-width="2.5" stroke-linecap="round" opacity="0.958824" />
  <line x1="307.8" y1="243" x2="322.2" y2="243" stroke="#00d9ff" stroke-width="2.5" stroke-linecap="round" />
</svg>