<?xml version="1.0" encoding="UTF-8"?>
<svg xmlns="http://www.w3.org/2000/svg" width="312" height="312" viewBox="0 0 312 312">
  <rect width="100%" height="100%" fill="#0d0d0d" />
  <ellipse cx="13.0" cy="13.0" rx="10.4" ry="5.2" fill="#ff00ff" stroke="#00ffff" stroke-width="0.5" fill-opacity="0.6" stroke-opacity="0.6" />
  <ellipse cx="39.0" cy="13.0" rx="10.4" ry="5.2" fill="#ff00ff" stroke="#00ffff" stroke-width="0.5" fill-opacity="0.6" stroke-opacity="0.6" transform="rotate(8.181818181818182 39 13)" />
  <ellipse cx="65.0" cy="13.0" rx="10.4" ry="5.2" fill="#ff00ff" stroke="#00ffff" stroke-width="0.5" fill-opacity="0.6" stroke-opacity="0.6" transform="rotate(16.363636363636363 65 13)" />
  <ellipse cx="91.0" cy="13.0" rx="10.4" ry="5.2" fill="#ff00ff" stroke="#00ffff" stroke-width="0.5" fill-opacity="0.6" stroke-opacity="0.6" transform="rotate(24.545454545454543 91 13)" />
  <ellipse cx="117.0" cy="13.0" rx="10.4" ry="5.2" fill="#ff00ff" stroke="#00ffff" stroke-width="0.5" fill-opacity="0.6" stroke-opacity="0.6" transform="rotate(32.72727272727273 117 13)" />
  <ellipse cx="143.0" cy="13.0" rx="10.4" ry="5.2" fill="#ff00ff" stroke="#00ffff" stroke-width="0.5" fill-opacity="0.6" stroke-opacity="0.6" transform="rotate(40.90909090909091 143 13)" />
  <ellipse cx="169.0" cy="13.0" rx="10.4" ry="5.2" fill="#ff00ff" stroke="#00ffff" stroke-width="0.5" fill-opacity="0.6" stroke-opacity="0.6" transform="rotate(49.090909090909086 169 13)" />
  <ellipse cx="195.0" cy="13.0" rx="10.4" ry="5.2" fill="#ff00ff" stroke="#00ffff" stroke-width="0.5" fill-opacity="0.6" stroke-opacity="0.6" transform="rotate(57.27272727272727 195 13)" />
  <ellipse cx="221.0" cy="13.0" rx="10.4" ry="5.2" fill="#ff00ff" stroke="#00ffff" stroke-width="0.5" fill-opacity="0.6" stroke-opacity="0.6" transform="rotate(65.45454545454545 221 13)" />
  <ellipse cx="247.0" cy="13.0" rx="10.4" ry="5.2" fill="#ff00ff" stroke="#00ffff" stroke-width="0.5" fill-opacity="0.6" stroke-opacity="0.6" transform="rotate(73.63636363636364 247 13)" />
  <ellipse cx="273.0" cy="13.0" rx="10.4" ry="5.2" fill="#ff00ff" stroke="#00ffff" stroke-width="0.5" fill-opacity="0.6" stroke-opacity="0.6" transform="rotate(81.81818181818181 273 13)" />
  <ellipse cx="299.0" cy="13.0" rx="10.4" ry="5.2" fill="#ff00ff" stroke="#00ffff" stroke-width="0.5" fill-opacity="0.6" stroke-opacity="0.6" transform="rotate(90.0 299 13)" />
  <ellipse cx="13.0" cy="39.0" rx="10.4" ry="5.2" fill="#ff00ff" stroke="#00ffff" stroke-width="0.5" fill-opacity="0.6" stroke-opacity="0.6" transform="rotate(8.181818181818182 13 39)" />
  <ellipse cx="39.0" cy="39.0" rx="10.4" ry="5.2" fill="#ff00ff" stroke="#00ffff" stroke-width="0.5" fill-opacity="0.6" stroke-opacity="0.6" transform="rotate(16.363636363636363 39 39)" />
  <ellipse cx="65.0" cy="39.0" rx="10.4" ry="5.2" fill="#ff00ff" stroke="#00ffff" stroke-width="0.5" fill-opacity="0.6" stroke-opacity="0.6" transform="rotate(24.545454545454543 65 39)" />
  <ellipse cx="91.0" cy="39.0" rx="10.4" ry="5.2" fill="#ff00ff" stroke="#00ffff" stroke-width="0.5" fill-opacity="0.6" stroke-opacity="0.6" transform="rotate(32.72727272727273 91 39)" />
  <ellipse cx="117.0" cy="39.0" rx="10.4" ry="5.2" fill="#ff00ff" stroke="#00ffff" stroke-width="0.5" fill-opacity="0.6" stroke-opacity="0.6" transform="rotate(40.909090909090914 117 39)" />
  <ellipse cx="143.0" cy="39.0" rx="10.4" ry="5.2" fill="#ff00ff" stroke="#00ffff" stroke-width="0.5" fill-opacity="0.6" stroke-opacity="0.6" transform="rotate(49.090909090909086 143 39)" />
  <ellipse cx="169.0" cy="39.0" rx="10.4" ry="5.2" fill="#ff00ff" stroke="#00ffff" stroke-width="0.5" fill-opacity="0.6" stroke-opacity="0.6" transform="rotate(57.27272727272727 169 39)" />
  <ellipse cx="195.0" cy="39.0" rx="10.4" ry="5.2" fill="#ff00ff" stroke="#00ffff" stroke-width="0.5" fill-opacity="0.6" stroke-opacity="0.6" transform="rotate(65.45454545454545 195 39)" />
  <ellipse cx="221.0" cy="39.0" rx="10.4" ry="5.2" fill="#ff00ff" stroke="#00ffff" stroke-width="0.5" fill-opacity="0.6" stroke-opacity="0.6" transform="rotate(73.63636363636364 221 39)" />
  <ellipse cx="247.0" cy="39.0" rx="10.4" ry="5.2" fill="#ff00ff" stroke="#00ffff" stroke-width="0.5" fill-opacity="0.6" stroke-opacity="0.6" transform="rotate(81.81818181818183 247 39)" />
  <ellipse cx="273.0" cy="39.0" rx="10.4" ry="5.2" fill="#ff00ff" stroke="#00ffff" stroke-width="0.5" fill-opacity="0.6" stroke-opacity="0.6" transform="rotate(90.0 273 39)" />
  <ellipse cx="299.0" cy="39.0" rx="10.4" ry="5.2" fill="#ff00ff" stroke="#00ffff" stroke-width="0.5" fill-opacity="0.6" stroke-opacity="0.6" transform="rotate(98.18181818181817 299 39)" />
  <ellipse cx="13.0" cy="65.0" rx="10.4" ry="5.2" fill="#ff00ff" stroke="#00ffff" stroke-width="0.5" fill-opacity="0.6" stroke-opacity="0.6" transform="rotate(16.363636363636363 13 65)" />
  <ellipse cx="39.0" cy="65.0" rx="10.4" ry="5.2" fill="#ff00ff" stroke="#00ffff" stroke-width="0.5" fill-opacity="0.6" stroke-opacity="0.6" transform="rotate(24.545454545454543 39 65)" />
  <ellipse cx="65.0" cy="65.0" rx="10.4" ry="5.2" fill="#ff00ff" stroke="#00ffff" stroke-width="0.5" fill-opacity="0.6" stroke-opacity="0.6" transform="rotate(32.72727272727273 65 65)" />
  <ellipse cx="91.0" cy="65.0" rx="10.4" ry="5.2" fill="#ff00ff" stroke="#00ffff" stroke-width="0.5" fill-opacity="0.6" stroke-opacity="0.6" transform="rotate(40.90909090909091 91 65)" />
  <ellipse cx="117.0" cy="65.0" rx="10.4" ry="5.2" fill="#ff00ff" stroke="#00ffff" stroke-width="0.5" fill-opacity="0.6" stroke-opacity="0.6" transform="rotate(49.090909090909086 117 65)" />
  <ellipse cx="143.0" cy="65.0" rx="10.4" ry="5.2" fill="#ff00ff" stroke="#00ffff" stroke-width="0.5" fill-opacity="0.6" stroke-opacity="0.6" transform="rotate(57.27272727272727 143 65)" />
  <ellipse cx="169.0" cy="65.0" rx="10.4" ry="5.2" fill="#ff00ff" stroke="#00ffff" stroke-width="0.5" fill-opacity="0.6" stroke-opacity="0.6" transform="rotate(65.45454545454545 169 65)" />
  <ellipse cx="195.0" cy="65.0" rx="10.4" ry="5.2" fill="#ff00ff" stroke="#00ffff" stroke-width="0.5" fill-opacity="0.6" stroke-opacity="0.6" transform="rotate(73.63636363636363 195 65)" />
  <ellipse cx="221.0" cy="65.0" rx="10.4" ry="5.2" fill="#ff00ff" stroke="#00ffff" stroke-width="0.5" fill-opacity="0.6" stroke-opacity="0.6" transform="rotate(81.81818181818183 221 65)" />
  <ellipse cx="247.0" cy="65.0" rx="10.4" ry="5.2" fill="#ff00ff" stroke="#00ffff" stroke-width="0.5" fill-opacity="0.6" stroke-opacity="0.6" transform="rotate(90.0 247 65)" />
  <ellipse cx="273.0" cy="65.0" rx="10.4" ry="5.2" fill="#ff00ff" stroke="#00ffff" stroke-width="0.5" fill-opacity="0.6" stroke-opacity="0.6" transform="rotate(98.18181818181817 273 65)" />
  <ellipse cx="299.0" cy="65.0" rx="10.4" ry="5.2" fill="#ff00ff" stroke="#00ffff" stroke-width="0.5" fill-opacity="0.6" stroke-opacity="0.6" transform="rotate(106.36363636363637 299 65)" />
  <ellipse cx="13.0" cy="91.0" rx="10.4" ry="5.2" fill="#ff00ff" stroke="#00ffff" stroke-width="0.5" fill-opacity="0.6" stroke-opacity="0.6" transform="rotate(24.545454545454543 13 91)" />
  <ellipse cx="39.0" cy="91.0" rx="10.4" ry="5.2" fill="#ff00ff" stroke="#00ffff" stroke-width="0.5" fill-opacity="0.6" stroke-opacity="0.6" transform="rotate(32.72727272727273 39 91)" />
  <ellipse cx="65.0" cy="91.0" rx="10.4" ry="5.2" fill="#ff00ff" stroke="#00ffff" stroke-width="0.5" fill-opacity="0.6" stroke-opacity="0.6" transform="rotate(40.90909090909091 65 91)" />
  <ellipse cx="91.0" cy="91.0" rx="10.4" ry="5.2" fill="#ff00ff" stroke="#00ffff" stroke-width="0.5" fill-opacity="0.6" stroke-opacity="0.6" transform="rotate(49.090909090909086 91 91)" />
  <ellipse cx="117.0" cy="91.0" rx="10.4" ry="5.2" fill="#ff00ff" stroke="#00ffff" stroke-width="0.5" fill-opacity="0.6" stroke-opacity="0.6" transform="rotate(57.27272727272727 117 91)" />
  <ellipse cx="143.0" cy="91.0" rx="10.4" ry="5.2" fill="#ff00ff" stroke="#00ffff" stroke-width="0.5" fill-opacity="0.6" stroke-opacity="0.6" transform="rotate(65.45454545454545 143 91)" />
  <ellipse cx="169.0" cy="91.0" rx="10.4" ry="5.2" fill="#ff00ff" stroke="#00ffff" stroke-width="0.5" fill-opacity="0.6" stroke-opacity="0.6" transform="rotate(73.63636363636363 169 91)" />
  <ellipse cx="195.0" cy="91.0" rx="10.4" ry="5.2" fill="#ff00ff" stroke="#00ffff" stroke-width="0.5" fill-opacity="0.6" stroke-opacity="0.6" transform="rotate(81.81818181818181 195 91)" />
  <ellipse cx="221.0" cy="91.0" rx="10.4" ry="5.2" fill="#ff00ff" stroke="#00ffff" stroke-width="0.5" fill-opacity="0.6" stroke-opacity="0.6" transform="rotate(90.0 221 91)" />
  <ellipse cx="247.0" cy="91.0" rx="10.4" ry="5.2" fill="#ff00ff" stroke="#00ffff" stroke-width="0.5" fill-opacity="0.6" stroke-opacity="0.6" transform="rotate(98.18181818181817 247 91)" />
  <ellipse cx="273.0" cy="91.0" rx="10.4" ry="5.2" fill="#ff00ff" stroke="#00ffff" stroke-width="0.5" fill-opacity="0.6" stroke-opacity="0.6" transform="rotate(106.36363636363635 273 91)" />
  <ellipse cx="299.0" cy="91.0" rx="10.4" ry="5.2" fill="#ff00ff" stroke="#00ffff" stroke-width="0.5" fill-opacity="0.6" stroke-opacity="0.6" transform="rotate(114.54545454545455 299 91)" />
  <ellipse cx="13.0" cy="117.0" rx="10.4" ry="5.2" fill="#ff00ff" stroke="#00ffff" stroke-width="0.5" fill-opacity="0.6" stroke-opacity="0.6" transform="rotate(32.72727272727273 13 117)" />
  <ellipse cx="39.0" cy="117.0" rx="10.4" ry="5.2" fill="#ff00ff" stroke="#00ffff" stroke-width="0.5" fill-opacity="0.6" stroke-opacity="0.6" transform="rotate(40.909090909090914 39 117)" />
  <ellipse cx="65.0" cy="117.0" rx="10.4" ry="5.2" fill="#ff00ff" stroke="#00ffff" stroke-width="0.5" fill-opacity="0.6" stroke-opacity="0.6" transform="rotate(49.090909090909086 65 117)" />
  <ellipse cx="91.0" cy="117.0" rx="10.4" ry="5.2" fill="#ff00ff" stroke="#00ffff" stroke-width="0.5" fill-opacity="0.6" stroke-opacity="0.6" transform="rotate(57.27272727272727 91 117)" />
  <ellipse cx="117.0" cy="117.0" rx="10.4" ry="5.2" fill="#ff00ff" stroke="#00ffff" stroke-width="0.5" fill-opacity="0.6" stroke-opacity="0.6" transform="rotate(65.45454545454545 117 117)" />
  <ellipse cx="143.0" cy="117.0" rx="10.4" ry="5.2" fill="#ff00ff" stroke="#00ffff" stroke-width="0.5" fill-opacity="0.6" stroke-opacity="0.6" transform="rotate(73.63636363636363 143 117)" />
  <ellipse cx="169.0" cy="117.0" rx="10.4" ry="5.2" fill="#ff00ff" stroke="#00ffff" stroke-width="0.5" fill-opacity="0.6" stroke-opacity="0.6" transform="rotate(81.81818181818181 169 117)" />
  <ellipse cx="195.0" cy="117.0" rx="10.4" ry="5.2" fill="#ff00ff" stroke="#00ffff" stroke-width="0.5" fill-opacity="0.6" stroke-opacity="0.6" transform="rotate(90.0 195 117)" />
  <ellipse cx="221.0" cy="117.0" rx="10.4" ry="5.2" fill="#ff00ff" stroke="#00ffff" stroke-width="0.5" fill-opacity="0.6" stroke-opacity="0.6" transform="rotate(98.18181818181817 221 117)" />
  <ellipse cx="247.0" cy="117.0" rx="10.4" ry="5.2" fill="#ff00ff" stroke="#00ffff" stroke-width="0.5" fill-opacity="0.6" stroke-opacity="0.6" transform="rotate(106.36363636363637 247 117)" />
  <ellipse cx="273.0" cy="117.0" rx="10.4" ry="5.2" fill="#ff00ff" stroke="#00ffff" stroke-width="0.5" fill-opacity="0.6" stroke-opacity="0.6" transform="rotate(114.54545454545455 273 117)" />
  <ellipse cx="299.0" cy="117.0" rx="10.4" ry="5.2" fill="#ff00ff" stroke="#00ffff" stroke-width="0.5" fill-opacity="0.6" stroke-opacity="0.6" transform="rotate(122.72727272727273 299 117)" />
  <ellipse cx="13.0" cy="143.0" rx="10.4" ry="5.2" fill="#ff00ff" stroke="#00ffff" stroke-width="0.5" fill-opacity="0.6" stroke-opacity="0.6" transform="rotate(40.90909090909091 13 143)" />
  <ellipse cx="39.0" cy="143.0" rx="10.4" ry="5.2" fill="#ff00ff" stroke="#00ffff" stroke-width="0.5" fill-opacity="0.6" stroke-opacity="0.6" transform="rotate(49.090909090909086 39 143)" />
  <ellipse cx="65.0" cy="143.0" rx="10.4" ry="5.2" fill="#ff00ff" stroke="#00ffff" stroke-width="0.5" fill-opacity="0.6" stroke-opacity="0.6" transform="rotate(57.27272727272727 65 143)" />
  <ellipse cx="91.0" cy="143.0" rx="10.4" ry="5.2" fill="#ff00ff" stroke="#00ffff" stroke-width="0.5" fill-opacity="0.6" stroke-opacity="0.6" transform="rotate(65.45454545454545 91 143)" />
  <ellipse cx="117.0" cy="143.0" rx="10.4" ry="5.2" fill="#ff00ff" stroke="#00ffff" stroke-width="0.5" fill-opacity="0.6" stroke-opacity="0.6" transform="rotate(73.63636363636363 117 143)" />
  <ellipse cx="143.0" cy="143.0" rx="10.4" ry="5.2" fill="#ff00ff" stroke="#00ffff" stroke-width="0.5" fill-opacity="0.6" stroke-opacity="0.6" transform="rotate(81.81818181818181 143 143)" />
  <ellipse cx="169.0" cy="143.0" rx="10.4" ry="5.2" fill="#ff00ff" stroke="#00ffff" stroke-width="0.5" fill-opacity="0.6" stroke-opacity="0.6" transform="rotate(90.0 169 143)" />
  <ellipse cx="195.0" cy="143.0" rx="10.4" ry="5.2" fill="#ff00ff" stroke="#00ffff" stroke-width="0.5" fill-opacity="0.6" stroke-opacity="0.6" transform="rotate(98.18181818181817 195 143)" />
  <ellipse cx="221.0" cy="143.0" rx="10.4" ry="5.2" fill="#ff00ff" stroke="#00ffff" stroke-width="0.5" fill-opacity="0.6" stroke-opacity="0.6" transform="rotate(106.36363636363637 221 143)" />
  <ellipse cx="247.0" cy="143.0" rx="10.4" ry="5.2" fill="#ff00ff" stroke="#00ffff" stroke-width="0.5" fill-opacity="0.6" stroke-opacity="0.6" transform="rotate(114.54545454545455 247 143)" />
  <ellipse cx="273.0" cy="143.0" rx="10.4" ry="5.2" fill="#ff00ff" stroke="#00ffff" stroke-width="0.5" fill-opacity="0.6" stroke-opacity="0.6" transform="rotate(122.72727272727272 273 143)" />
  <ellipse cx="299.0" cy="143.0" rx="10.4" ry="5.2" fill="#ff00ff" stroke="#00ffff" stroke-width="0.5" fill-opacity="0.6" stroke-opacity="0.6" transform="rotate(130.9090909090909 299 143)" />
  <ellipse cx="13.0" cy="169.0" rx="10.4" ry="5.2" fill="#ff00ff" stroke="#00ffff" stroke-width="0.5" fill-opacity="0.6" stroke-opacity="0.6" transform="rotate(49.090909090909086 13 169)" />
  <ellipse cx="39.0" cy="169.0" rx="10.4" ry="5.2" fill="#ff00ff" stroke="#00ffff" stroke-width="0.5" fill-opacity="0.6" stroke-opacity="0.6" transform="rotate(57.27272727272727 39 169)" />
  <ellipse cx="65.0" cy="169.0" rx="10.4" ry="5.2" fill="#ff00ff" stroke="#00ffff" stroke-width="0.5" fill-opacity="0.6" stroke-opacity="0.6" transform="rotate(65.45454545454545 65 169)" />
  <ellipse cx="91.0" cy="169.0" rx="10.4" ry="5.2" fill="#ff00ff" stroke="#00ffff" stroke-width="0.5" fill-opacity="0.6" stroke-opacity="0.6" transform="rotate(73.63636363636363 91 169)" />
  <ellipse cx="117.0" cy="169.0" rx="10.4" ry="5.2" fill="#ff00ff" stroke="#00ffff" stroke-width="0.5" fill-opacity="0.6" stroke-opacity="0.6" transform="rotate(81.81818181818181 117 169)" />
  <ellipse cx="143.0" cy="169.0" rx="10.4" ry="5.2" fill="#ff00ff" stroke="#00ffff" stroke-width="0.5" fill-opacity="0.6" stroke-opacity="0.6" transform="rotate(90.0 143 169)" />
  <ellipse cx="169.0" cy="169.0" rx="10.4" ry="5.2" fill="#ff00ff" stroke="#00ffff" stroke-width="0.5" fill-opacity="0.6" stroke-opacity="0.6" transform="rotate(98.18181818181817 169 169)" />
  <ellipse cx="195.0" cy="169.0" rx="10.4" ry="5.2" fill="#ff00ff" stroke="#00ffff" stroke-width="0.5" fill-opacity="0.6" stroke-opacity="0.6" transform="rotate(106.36363636363635 195 169)" />
  <ellipse cx="221.0" cy="169.0" rx="10.4" ry="5.2" fill="#ff00ff" stroke="#00ffff" stroke-width="0.5" fill-opacity="0.6" stroke-opacity="0.6" transform="rotate(114.54545454545455 221 169)" />
  <ellipse cx="247.0" cy="169.0" rx="10.4" ry="5.2" fill="#ff00ff" stroke="#00ffff" stroke-width="0.5" fill-opacity="0.6" stroke-opacity="0.6" transform="rotate(122.72727272727273 247 169)" />
  <ellipse cx="273.0" cy="169.0" rx="10.4" ry="5.2" fill="#ff00ff" stroke="#00ffff" stroke-width="0.5" fill-opacity="0.6" stroke-opacity="0.6" transform="rotate(130.9090909090909 273 169)" />
  <ellipse cx="299.0" cy="169.0" rx="10.4" ry="5.2" fill="#ff00ff" stroke="#00ffff" stroke-width="0.5" fill-opacity="0.6" stroke-opacity="0.6" transform="rotate(139.0909090909091 299 169)" />
  <ellipse cx="13.0" cy="195.0" rx="10.4" ry="5.2" fill="#ff00ff" stroke="#00ffff" stroke-width="0.5" fill-opacity="0.6" stroke-opacity="0.6" transform="rotate(57.27272727272727 13 195)" />
  <ellipse cx="39.0" cy="195.0" rx="10.4" ry="5.2" fill="#ff00ff" stroke="#00ffff" stroke-width="0.5" fill-opacity="0.6" stroke-opacity="0.6" transform="rotate(65.45454545454545 39 195)" />
  <ellipse cx="65.0" cy="195.0" rx="10.4" ry="5.2" fill="#ff00ff" stroke="#00ffff" stroke-width="0.5" fill-opacity="0.6" stroke-opacity="0.6" transform="rotate(73.63636363636363 65 195)" />
  <ellipse cx="91.0" cy="195.0" rx="10.4" ry="5.2" fill="#ff00ff" stroke="#00ffff" stroke-width="0.5" fill-opacity="0.6" stroke-opacity="0.6" transform="rotate(81.81818181818181 91 195)" />
  <ellipse cx="117.0" cy="195.0" rx="10.4" ry="5.2" fill="#ff00ff" stroke="#00ffff" stroke-width="0.5" fill-opacity="0.6" stroke-opacity="0.6" transform="rotate(90.0 117 195)" />
  <ellipse cx="143.0" cy="195.0" rx="10.4" ry="5.2" fill="#ff00ff" stroke="#00ffff" stroke-width="0.5" fill-opacity="0.6" stroke-opacity="0.6" transform="rotate(98.18181818181817 143 195)" />
  <ellipse cx="169.0" cy="195.0" rx="10.4" ry="5.2" fill="#ff00ff" stroke="#00ffff" stroke-width="0.5" fill-opacity="0.6" stroke-opacity="0.6" transform="rotate(106.36363636363635 169 195)" />
  <ellipse cx="195.0" cy="195.0" rx="10.4" ry="5.2" fill="#ff00ff" stroke="#00ffff" stroke-width="0.5" fill-opacity="0.6" stroke-opacity="0.6" transform="rotate(114.54545454545455 195 195)" />
  <ellipse cx="221.0" cy="195.0" rx="10.4" ry="5.2" fill="#ff00ff" stroke="#00ffff" stroke-width="0.5" fill-opacity="0.6" stroke-opacity="0.6" transform="rotate(122.72727272727273 221 195)" />
  <ellipse cx="247.0" cy="195.0" rx="10.4" ry="5.2" fill="#ff00ff" stroke="#00ffff" stroke-width="0.5" fill-opacity="0.6" stroke-opacity="0.6" transform="rotate(130.9090909090909 247 195)" />
  <ellipse cx="273.0" cy="195.0" rx="10.4" ry="5.2" fill="#ff00ff" stroke="#00ffff" stroke-width="0.5" fill-opacity="0.6" stroke-opacity="0.6" transform="rotate(139.0909090909091 273 195)" />
  <ellipse cx="299.0" cy="195.0" rx="10.4" ry="5.2" fill="#ff00ff" stroke="#00ffff" stroke-width="0.5" fill-opacity="0.6" stroke-opacity="0.6" transform="rotate(147.27272727272725 299 195)" />
  <ellipse cx="13.0" cy="221.0" rx="10.4" ry="5.2" fill="#ff00ff" stroke="#00ffff" stroke-width="0.5" fill-opacity="0.6" stroke-opacity="0.6" transform="rotate(65.45454545454545 13 221)" />
  <ellipse cx="39.0" cy="221.0" rx="10.4" ry="5.2" fill="#ff00ff" stroke="#00ffff" stroke-width="0.5" fill-opacity="0.6" stroke-opacity="0.6" transform="rotate(73.63636363636364 39 221)" />
  <ellipse cx="65.0" cy="221.0" rx="10.4" ry="5.2" fill="#ff00ff" stroke="#00ffff" stroke-width="0.5" fill-opacity="0.6" stroke-opacity="0.6" transform="rotate(81.81818181818183 65 221)" />
  <ellipse cx="91.0" cy="221.0" rx="10.4" ry="5.2" fill="#ff00ff" stroke="#00ffff" stroke-width="0.5" fill-opacity="0.6" stroke-opacity="0.6" transform="rotate(90.0 91 221)" />
  <ellipse cx="117.0" cy="221.0" rx="10.4" ry="5.2" fill="#ff00ff" stroke="#00ffff" stroke-width="0.5" fill-opacity="0.6" stroke-opacity="0.6" transform="rotate(98.18181818181817 117 221)" />
  <ellipse cx="143.0" cy="221.0" rx="10.4" ry="5.2" fill="#ff00ff" stroke="#00ffff" stroke-width="0.5" fill-opacity="0.6" stroke-opacity="0.6" transform="rotate(106.36363636363637 143 221)" />
  <ellipse cx="169.0" cy="221.0" rx="10.4" ry="5.2" fill="#ff00ff" stroke="#00ffff" stroke-width="0.5" fill-opacity="0.6" stroke-opacity="0.6" transform="rotate(114.54545454545455 169 221)" />
  <ellipse cx="195.0" cy="221.0" rx="10.4" ry="5.2" fill="#ff00ff" stroke="#00ffff" stroke-width="0.5" fill-opacity="0.6" stroke-opacity="0.6" transform="rotate(122.72727272727273 195 221)" />
  <ellipse cx="221.0" cy="221.0" rx="10.4" ry="5.2" fill="#ff00ff" stroke="#00ffff" stroke-width="0.5" fill-opacity="0.6" stroke-opacity="0.6" transform="rotate(130.9090909090909 221 221)" />
  <ellipse cx="247.0" cy="221.0" rx="10.4" ry="5.2" fill="#ff00ff" stroke="#00ffff" stroke-width="0.5" fill-opacity="0.6" stroke-opacity="0.6" transform="rotate(139.0909090909091 247 221)" />
  <ellipse cx="273.0" cy="221.0" rx="10.4" ry="5.2" fill="#ff00ff" stroke="#00ffff" stroke-width="0.5" fill-opacity="0.6" stroke-opacity="0.6" transform="rotate(147.27272727272725 273 221)" />
  <ellipse cx="299.0" cy="221.0" rx="10.4" ry="5.2" fill="#ff00ff" stroke="#00ffff" stroke-width="0.5" fill-opacity="0.6" stroke-opacity="0.6" transform="rotate(155.45454545454547 299 221)" />
  <ellipse cx="13.0" cy="247.0" rx="10.4" ry="5.2" fill="#ff00ff" stroke="#00ffff" stroke-width="0.5" fill-opacity="0.6" stroke-opacity="0.6" transform="rotate(73.63636363636364 13 247)" />
  <ellipse cx="39.0" cy="247.0" rx="10.4" ry="5.2" fill="#ff00ff" stroke="#00ffff" stroke-width="0.5" fill-opacity="0.6" stroke-opacity="0.6" transform="rotate(81.81818181818183 39 247)" />
  <ellipse cx="65.0" cy="247.0" rx="10.4" ry="5.2" fill="#ff00ff" stroke="#00ffff" stroke-width="0.5" fill-opacity="0.6" stroke-opacity="0.6" transform="rotate(90.0 65 247)" />
  <ellipse cx="91.0" cy="247.0" rx="10.4" ry="5.2" fill="#ff00ff" stroke="#00ffff" stroke-width="0.5" fill-opacity="0.6" stroke-opacity="0.6" transform="rotate(98.18181818181817 91 247)" />
  <ellipse cx="117.0" cy="247.0" rx="10.4" ry="5.2" fill="#ff00ff" stroke="#00ffff" stroke-width="0.5" fill-opacity="0.6" stroke-opacity="0.6" transform="rotate(106.36363636363637 117 247)" />
  <ellipse cx="143.0" cy="247.0" rx="10.4" ry="5.2" fill="#ff00ff" stroke="#00ffff" stroke-width="0.5" fill-opacity="0.6" stroke-opacity="0.6" transform="rotate(114.54545454545455 143 247)" />
  <ellipse cx="169.0" cy="247.0" rx="10.4" ry="5.2" fill="#ff00ff" stroke="#00ffff" stroke-width="0.5" fill-opacity="0.6" stroke-opacity="0.6" transform="rotate(122.72727272727273 169 247)" />
  <ellipse cx="195.0" cy="247.0" rx="10.4" ry="5.2" fill="#ff00ff" stroke="#00ffff" stroke-width="0.5" fill-opacity="0.6" stroke-opacity="0.6" transform="rotate(130.9090909090909 195 247)" />
  <ellipse cx="221.0" cy="247.0" rx="10.4" ry="5.2" fill="#ff00ff" stroke="#00ffff" stroke-width="0.5" fill-opacity="0.6" stroke-opacity="0.6" transform="rotate(139.0909090909091 221 247)" />
  <ellipse cx="247.0" cy="247.0" rx="10.4" ry="5.2" fill="#ff00ff" stroke="#00ffff" stroke-width="0.5" fill-opacity="0.6" stroke-opacity="0.6" transform="rotate(147.27272727272728 247 247)" />
  <ellipse cx="273.0" cy="247.0" rx="10.4" ry="5.2" fill="#ff00ff" stroke="#00ffff" stroke-width="0.5" fill-opacity="0.6" stroke-opacity="0.6" transform="rotate(155.45454545454547 273 247)" />
  <ellipse cx="299.0" cy="247.0" rx="10.4" ry="5.2" fill="#ff00ff" stroke="#00ffff" stroke-width="0.5" fill-opacity="0.6" stroke-opacity="0.6" transform="rotate(163.63636363636365 299 247)" />
  <ellipse cx="13.0" cy="273.0" rx="10.4" ry="5.2" fill="#ff00ff" stroke="#00ffff" stroke-width="0.5" fill-opacity="0.6" stroke-opacity="0.6" transform="rotate(81.81818181818181 13 273)" />
  <ellipse cx="39.0" cy="273.0" rx="10.4" ry="5.2" fill="#ff00ff" stroke="#00ffff" stroke-width="0.5" fill-opacity="0.6" stroke-opacity="0.6" transform="rotate(90.0 39 273)" />
  <ellipse cx="65.0" cy="273.0" rx="10.4" ry="5.2" fill="#ff00ff" stroke="#00ffff" stroke-width="0.5" fill-opacity="0.6" stroke-opacity="0.6" transform="rotate(98.18181818181817 65 273)" />
  <ellipse cx="91.0" cy="273.0" rx="10.4" ry="5.2" fill="#ff00ff" stroke="#00ffff" stroke-width="0.5" fill-opacity="0.6" stroke-opacity="0.6" transform="rotate(106.36363636363635 91 273)" />
  <ellipse cx="117.0" cy="273.0" rx="10.4" ry="5.2" fill="#ff00ff" stroke="#00ffff" stroke-width="0.5" fill-opacity="0.6" stroke-opacity="0.6" transform="rotate(114.54545454545455 117 273)" />
  <ellipse cx="143.0" cy="273.0" rx="10.4" ry="5.2" fill="#ff00ff" stroke="#00ffff" stroke-width="0.5" fill-opacity="0.6" stroke-opacity="0.6" transform="rotate(122.72727272727272 143 273)" />
  <ellipse cx="169.0" cy="273.0" rx="10.4" ry="5.2" fill="#ff00ff" stroke="#00ffff" stroke-width="0.5" fill-opacity="0.6" stroke-opacity="0.6" transform="rotate(130.9090909090909 169 273)" />
  <ellipse cx="195.0" cy="273.0" rx="10.4" ry="5.2" fill="#ff00ff" stroke="#00ffff" stroke-width="0.5" fill-opacity="0.6" stroke-opacity="0.6" transform="rotate(139.0909090909091 195 273)" />
  <ellipse cx="221.0" cy="273.0" rx="10.4" ry="5.2" fill="#ff00ff" stroke="#00ffff" stroke-width="0.5" fill-opacity="0.6" stroke-opacity="0.6" transform="rotate(147.27272727272725 221 273)" />
  <ellipse cx="247.0" cy="273.0" rx="10.4" ry="5.2" fill="#ff00ff" stroke="#00ffff" stroke-width="0.5" fill-opacity="0.6" stroke-opacity="0.6" transform="rotate(155.45454545454547 247 273)" />
  <ellipse cx="273.0" cy="273.0" rx="10.4" ry="5.2" fill="#ff00ff" stroke="#00ffff" stroke-width="0.5" fill-opacity="0.6" stroke-opacity="0.6" transform="rotate(163.63636363636363 273 273)" />
  <ellipse cx="299.0" cy="273.0" rx="10.4" ry="5.2" fill="#ff00ff" stroke="#00ffff" stroke-width="0.5" fill-opacity="0.6" stroke-opacity="0.6" transform="rotate(171.8181818181818 299 273)" />
  <ellipse cx="13.0" cy="299.0" rx="10.4" ry="5.2" fill="#ff00ff" stroke="#00ffff" stroke-width="0.5" fill-opacity="0.6" stroke-opacity="0.6" transform="rotate(90.0 13 299)" />
  <ellipse cx="39.0" cy="299.0" rx="10.4" ry="5.2" fill="#ff00ff" stroke="#00ffff" stroke-width="0.5" fill-opacity="0.6" stroke-opacity="0.6" transform="rotate(98.18181818181817 39 299)" />
  <ellipse cx="65.0" cy="299.0" rx="10.4" ry="5.2" fill="#ff00ff" stroke="#00ffff" stroke-width="0.5" fill-opacity="0.6" stroke-opacity="0.6" transform="rotate(106.36363636363637 65 299)" />
  <ellipse cx="91.0" cy="299.0" rx="10.4" ry="5.2" fill="#ff00ff" stroke="#00ffff" stroke-width="0.5" fill-opacity="0.6" stroke-opacity="0.6" transform="rotate(114.54545454545455 91 299)" />
  <ellipse cx="117.0" cy="299.0" rx="10.4" ry="5.2" fill="#ff00ff" stroke="#00ffff" stroke-width="0.5" fill-opacity="0.6" stroke-opacity="0.6" transform="rotate(122.72727272727273 117 299)" />
  <ellipse cx="143.0" cy="299.0" rx="10.4" ry="5.2" fill="#ff00ff" stroke="#00ffff" stroke-width="0.5" fill-opacity="0.6" stroke-opacity="0.6" transform="rotate(130.9090909090909 143 299)" />
  <ellipse cx="169.0" cy="299.0" rx="10.4" ry="5.2" fill="#ff00ff" stroke="#00ffff" stroke-width="0.5" fill-opacity="0.6" stroke-opacity="0.6" transform="rotate(139.0909090909091 169 299)" />
  <ellipse cx="195.0" cy="299.0" rx="10.4" ry="5.2" fill="#ff00ff" stroke="#00ffff" stroke-width="0.5" fill-opacity="0.6" stroke-opacity="0.6" transform="rotate(147.27272727272725 195 299)" />
  <ellipse cx="221.0" cy="299.0" rx="10.4" ry="5.2" fill="#ff00ff" stroke="#00ffff" stroke-width="0.5" fill-opacity="0.6" stroke-opacity="0.6" transform="rotate(155.45454545454547 221 299)" />
  <ellipse cx="247.0" cy="299.0" rx="10.4" ry="5.2" fill="#ff00ff" stroke="#00ffff" stroke-width="0.5" fill-opacity="0.6" stroke-opacity="0.6" transform="rotate(163.63636363636365 247 299)" />
  <ellipse cx="273.0" cy="299.0" rx="10.4" ry="5.2" fill="#ff00ff" stroke="#00ffff" stroke-width="0.5" fill-opacity="0.6" stroke-opacity="0.6" transform="rotate(171.8181818181818 273 299)" />
  <ellipse cx="299.0" cy="299.0" rx="10.4" ry="5.2" fill="#ff00ff" stroke="#00ffff" stroke-width="0.5" fill-opacity="0.6" stroke-opacity="0.6" transform="rotate(180.0 299 299)" />
</svg>