<?xml version="1.0" encoding="UTF-8"?>
<svg xmlns="http://www.w3.org/2000/svg" width="312" height="312" viewBox="0 0 312 312">
  <rect width="100%" height="100%" fill="#0d0d0d" />
  <ellipse cx="13.0" cy="13.0" rx="10.4" ry="5.2" fill="#ff00ff" stroke="#00ffff" stroke-width="0.5" fill-opacity="0.6" stroke-opacity="0.6" />
  <ellipse cx="39.0" cy="13.0" rx="10.4" ry="5.2" fill="#ff00ff" stroke="#00ffff" stroke-width="0.5" fill-opacity="0.6" stroke-opacity="0.6" transform="rotate(8.181818181818182 39.0 13.0)" />
  <ellipse cx="65.0" cy="13.0" rx="10.4" ry="5.2" fill="#ff00ff" stroke="#00ffff" stroke-width="0.5" fill-opacity="0.6" stroke-opacity="0.6" transform="rotate(16.363636363636363 65.0 13.0)" />
  <ellipse cx="91.0" cy="13.0" rx="10.4" ry="5.2" fill="#ff00ff" stroke="#00ffff" stroke-width="0.5" fill-opacity="0.6" stroke-opacity="0.6" transform="rotate(24.545454545454543 91.0 13.0)" />
  <ellipse cx="117.0" cy="13.0" rx="10.4" ry="5.2" fill="#ff00ff" stroke="#00ffff" stroke-width="0.5" fill-opacity="0.6" stroke-opacity="0.6" transform="rotate(32.72727272727273 117.0 13.0)" />
  <ellipse cx="143.0" cy="13.0" rx="10.4" ry="5.2" fill="#ff00ff" stroke="#00ffff" stroke-width="0.5" fill-opacity="0.6" stroke-opacity="0.6" transform="rotate(40.90909090909091 143.0 13.0)" />
  <ellipse cx="169.0" cy="13.0" rx="10.4" ry="5.2" fill="#ff00ff" stroke="#00ffff" stroke-width="0.5" fill-opacity="0.6" stroke-opacity="0.6" transform="rotate(49.090909090909086 169.0 13.0)" />
  <ellipse cx="195.0" cy="13.0" rx="10.4" ry="5.2" fill="#ff00ff" stroke="#00ffff" stroke-width="0.5" fill-opacity="0.6" stroke-opacity="0.6" transform="rotate(57.27272727272727 195.0 13.0)" />
  <ellipse cx="221.0" cy="13.0" rx="10.4" ry="5.2" fill="#ff00ff" stroke="#00ffff" stroke-width="0.5" fill-opacity="0.6" stroke-opacity="0.6" transform="rotate(65.45454545454545 221.0 13.0)" />
  <ellipse cx="247.0" cy="13.0" rx="10.4" ry="5.2" fill="#ff00ff" stroke="#00ffff" stroke-width="0.5" fill-opacity="0.6" stroke-opacity="0.6" transform="rotate(73.63636363636364 247.0 13.0)" />
  <ellipse cx="273.0" cy="13.0" rx="10.4" ry="5.2" fill="#ff00ff" stroke="#00ffff" stroke-width="0.5" fill-opacity="0.6" stroke-opacity="0.6" transform="rotate(81.81818181818181 273.0 13.0)" />
  <ellipse cx="299.0" cy="13.0" rx="10.4" ry="5.2" fill="#ff00ff" stroke="#00ffff" stroke-width="0.5" fill-opacity="0.6" stroke-opacity="0.6" transform="rotate(90.0 299.0 13.0)" />
  <ellipse cx="13.0" cy="39.0" rx="10.4" ry="5.2" fill="#ff00ff" stroke="#00ffff" stroke-width="0.5" fill-opacity="0.6" stroke-opacity="0.6" transform="rotate(8.181818181818182 13.0 39.0)" />
  <ellipse cx="39.0" cy="39.0" rx="10.4" ry="5.2" fill="#ff00ff" stroke="#00ffff" stroke-width="0.5" fill-opacity="0.6" stroke-opacity="0.6" transform="rotate(16.363636363636363 39.0 39.0)" />
  <ellipse cx="65.0" cy="39.0" rx="10.4" ry="5.2" fill="#ff00ff" stroke="#00ffff" stroke-width="0.5" fill-opacity="0.6" stroke-opacity="0.6" transform="rotate(24.545454545454543 65.0 39.0)" />
  <ellipse cx="91.0" cy="39.0" rx="10.4" ry="5.2" fill="#ff00ff" stroke="#00ffff" stroke-width="0.5" fill-opacity="0.6" stroke-opacity="0.6" transform="rotate(32.72727272727273 91.0 39.0)" />
  <ellipse cx="117.0" cy="39.0" rx="10.4" ry="5.2" fill="#ff00ff" stroke="#00ffff" stroke-width="0.5" fill-opacity="0.6" stroke-opacity="0.6" transform="rotate(40.909090909090914 117.0 39.0)" />
  <ellipse cx="143.0" cy="39.0" rx="10.4" ry="5.2" fill="#ff00ff" stroke="#00ffff" stroke-width="0.5" fill-opacity="0.6" stroke-opacity="0.6" transform="rotate(49.090909090909086 143.0 39.0)" />
  <ellipse cx="169.0" cy="39.0" rx="10.4" ry="5.2" fill="#ff00ff" stroke="#00ffff" stroke-width="0.5" fill-opacity="0.6" stroke-opacity="0.6" transform="rotate(57.27272727272727 169.0 39.0)" />
  <ellipse cx="195.0" cy="39.0" rx="10.4" ry="5.2" fill="#ff00ff" stroke="#00ffff" stroke-width="0.5" fill-opacity="0.6" stroke-opacity="0.6" transform="rotate(65.45454545454545 195.0 39.0)" />
  <ellipse cx="221.0" cy="39.0" rx="10.4" ry="5.2" fill="#ff00ff" stroke="#00ffff" stroke-width="0.5" fill-opacity="0.6" stroke-opacity="0.6" transform="rotate(73.63636363636364 221.0 39.0)" />
  <ellipse cx="247.0" cy="39.0" rx="10.4" ry="5.2" fill="#ff00ff" stroke="#00ffff" stroke-width="0.5" fill-opacity="0.6" stroke-opacity="0.6" transform="rotate(81.81818181818183 247.0 39.0)" />
  <ellipse cx="273.0" cy="39.0" rx="10.4" ry="5.2" fill="#ff00ff" stroke="#00ffff" stroke-width="0.5" fill-opacity="0.6" stroke-opacity="0.6" transform="rotate(90.0 273.0 39.0)" />
  <ellipse cx="299.0" cy="39.0" rx="10.4" ry="5.2" fill="#ff00ff" stroke="#00ffff" stroke-width="0.5" fill-opacity="0.6" stroke-opacity="0.6" transform="rotate(98.18181818181817 299.0 39.0)" />
  <ellipse cx="13.0" cy="65.0" rx="10.4" ry="5.2" fill="#ff00ff" stroke="#00ffff" stroke-width="0.5" fill-opacity="0.6" stroke-opacity="0.6" transform="rotate(16.363636363636363 13.0 65.0)" />
  <ellipse cx="39.0" cy="65.0" rx="10.4" ry="5.2" fill="#ff00ff" stroke="#00ffff" stroke-width="0.5" fill-opacity="0.6" stroke-opacity="0.6" transform="rotate(24.545454545454543 39.0 65.0)" />
  <ellipse cx="65.0" cy="65.0" rx="10.4" ry="5.2" fill="#ff00ff" stroke="#00ffff" stroke-width="0.5" fill-opacity="0.6" stroke-opacity="0.6" transform="rotate(32.72727272727273 65.0 65.0)" />
  <ellipse cx="91.0" cy="65.0" rx="10.4" ry="5.2" fill="#ff00ff" stroke="#00ffff" stroke-width="0.5" fill-opacity="0.6" stroke-opacity="0.6" transform="rotate(40.90909090909091 91.0 65.0)" />
  <ellipse cx="117.0" cy="65.0" rx="10.4" ry="5.2" fill="#ff00ff" stroke="#00ffff" stroke-width="0.5" fill-opacity="0.6" stroke-opacity="0.6" transform="rotate(49.090909090909086 117.0 65.0)" />
  <ellipse cx="143.0" cy="65.0" rx="10.4" ry="5.2" fill="#ff00ff" stroke="#00ffff" stroke-width="0.5" fill-opacity="0.6" stroke-opacity="0.6" transform="rotate(57.27272727272727 143.0 65.0)" />
  <ellipse cx="169.0" cy="65.0" rx="10.4" ry="5.2" fill="#ff00ff" stroke="#00ffff" stroke-width="0.5" fill-opacity="0.6" stroke-opacity="0.6" transform="rotate(65.45454545454545 169.0 65.0)" />
  <ellipse cx="195.0" cy="65.0" rx="10.4" ry="5.2" fill="#ff00ff" stroke="#00ffff" stroke-width="0.5" fill-opacity="0.6" stroke-opacity="0.6" transform="rotate(73.63636363636363 195.0 65.0)" />
  <ellipse cx="221.0" cy="65.0" rx="10.4" ry="5.2" fill="#ff00ff" stroke="#00ffff" stroke-width="0.5" fill-opacity="0.6" stroke-opacity="0.6" transform="rotate(81.81818181818183 221.0 65.0)" />
  <ellipse cx="247.0" cy="65.0" rx="10.4" ry="5.2" fill="#ff00ff" stroke="#00ffff" stroke-width="0.5" fill-opacity="0.6" stroke-opacity="0.6" transform="rotate(90.0 247.0 65.0)" />
  <ellipse cx="273.0" cy="65.0" rx="10.4" ry="5.2" fill="#ff00ff" stroke="#00ffff" stroke-width="0.5" fill-opacity="0.6" stroke-opacity="0.6" transform="rotate(98.18181818181817 273.0 65.0)" />
  <ellipse cx="299.0" cy="65.0" rx="10.4" ry="5.2" fill="#ff00ff" stroke="#00ffff" stroke-width="0.5" fill-opacity="0.6" stroke-opacity="0.6" transform="rotate(106.36363636363637 299.0 65.0)" />
  <ellipse cx="13.0" cy="91.0" rx="10.4" ry="5.2" fill="#ff00ff" stroke="#00ffff" stroke-width="0.5" fill-opacity="0.6" stroke-opacity="0.6" transform="rotate(24.545454545454543 13.0 91.0)" />
  <ellipse cx="39.0" cy="91.0" rx="10.4" ry="5.2" fill="#ff00ff" stroke="#00ffff" stroke-width="0.5" fill-opacity="0.6" stroke-opacity="0.6" transform="rotate(32.72727272727273 39.0 91.0)" />
  <ellipse cx="65.0" cy="91.0" rx="10.4" ry="5.2" fill="#ff00ff" stroke="#00ffff" stroke-width="0.5" fill-opacity="0.6" stroke-opacity="0.6" transform="rotate(40.90909090909091 65.0 91.0)" />
  <ellipse cx="91.0" cy="91.0" rx="10.4" ry="5.2" fill="#ff00ff" stroke="#00ffff" stroke-width="0.5" fill-opacity="0.6" stroke-opacity="0.6" transform="rotate(49.090909090909086 91.0 91.0)" />
  <ellipse cx="117.0" cy="91.0" rx="10.4" ry="5.2" fill="#ff00ff" stroke="#00ffff" stroke-width="0.5" fill-opacity="0.6" stroke-opacity="0.6" transform="rotate(57.27272727272727 117.0 91.0)" />
  <ellipse cx="143.0" cy="91.0" rx="10.4" ry="5.2" fill="#ff00ff" stroke="#00ffff" stroke-width="0.5" fill-opacity="0.6" stroke-opacity="0.6" transform="rotate(65.45454545454545 143.0 91.0)" />
  <ellipse cx="169.0" cy="91.0" rx="10.4" ry="5.2" fill="#ff00ff" stroke="#00ffff" stroke-width="0.5" fill-opacity="0.6" stroke-opacity="0.6" transform="rotate(73.63636363636363 169.0 91.0)" />
  <ellipse cx="195.0" cy="91.0" rx="10.4" ry="5.2" fill="#ff00ff" stroke="#00ffff" stroke-width="0.5" fill-opacity="0.6" stroke-opacity="0.6" transform="rotate(81.81818181818181 195.0 91.0)" />
  <ellipse cx="221.0" cy="91.0" rx="10.4" ry="5.2" fill="#ff00ff" stroke="#00ffff" stroke-width="0.5" fill-opacity="0.6" stroke-opacity="0.6" transform="rotate(90.0 221.0 91.0)" />
  <ellipse cx="247.0" cy="91.0" rx="10.4" ry="5.2" fill="#ff00ff" stroke="#00ffff" stroke-width="0.5" fill-opacity="0.6" stroke-opacity="0.6" transform="rotate(98.18181818181817 247.0 91.0)" />
  <ellipse cx="273.0" cy="91.0" rx="10.4" ry="5.2" fill="#ff00ff" stroke="#00ffff" stroke-width="0.5" fill-opacity="0.6" stroke-opacity="0.6" transform="rotate(106.36363636363635 273.0 91.0)" />
  <ellipse cx="299.0" cy="91.0" rx="10.4" ry="5.2" fill="#ff00ff" stroke="#00ffff" stroke-width="0.5" fill-opacity="0.6" stroke-opacity="0.6" transform="rotate(114.54545454545455 299.0 91.0)" />
  <ellipse cx="13.0" cy="117.0" rx="10.4" ry="5.2" fill="#ff00ff" stroke="#00ffff" stroke-width="0.5" fill-opacity="0.6" stroke-opacity="0.6" transform="rotate(32.72727272727273 13.0 117.0)" />
  <ellipse cx="39.0" cy="117.0" rx="10.4" ry="5.2" fill="#ff00ff" stroke="#00ffff" stroke-width="0.5" fill-opacity="0.6" stroke-opacity="0.6" transform="rotate(40.909090909090914 39.0 117.0)" />
  <ellipse cx="65.0" cy="117.0" rx="10.4" ry="5.2" fill="#ff00ff" stroke="#00ffff" stroke-width="0.5" fill-opacity="0.6" stroke-opacity="0.6" transform="rotate(49.090909090909086 65.0 117.0)" />
  <ellipse cx="91.0" cy="117.0" rx="10.4" ry="5.2" fill="#ff00ff" stroke="#00ffff" stroke-width="0.5" fill-opacity="0.6" stroke-opacity="0.6" transform="rotate(57.27272727272727 91.0 117.0)" />
  <ellipse cx="117.0" cy="117.0" rx="10.4" ry="5.2" fill="#ff00ff" stroke="#00ffff" stroke-width="0.5" fill-opacity="0.6" stroke-opacity="0.6" transform="rotate(65.45454545454545 117.0 117.0)" />
  <ellipse cx="143.0" cy="117.0" rx="10.4" ry="5.2" fill="#ff00ff" stroke="#00ffff" stroke-width="0.5" fill-opacity="0.6" stroke-opacity="0.6" transform="rotate(73.63636363636363 143.0 117.0)" />
  <ellipse cx="169.0" cy="117.0" rx="10.4" ry="5.2" fill="#ff00ff" stroke="#00ffff" stroke-width="0.5" fill-opacity="0.6" stroke-opacity="0.6" transform="rotate(81.81818181818181 169.0 117.0)" />
  <ellipse cx="195.0" cy="117.0" rx="10.4" ry="5.2" fill="#ff00ff" stroke="#00ffff" stroke-width="0.5" fill-opacity="0.6" stroke-opacity="0.6" transform="rotate(90.0 195.0 117.0)" />
  <ellipse cx="221.0" cy="117.0" rx="10.4" ry="5.2" fill="#ff00ff" stroke="#00ffff" stroke-width="0.5" fill-opacity="0.6" stroke-opacity="0.6" transform="rotate(98.18181818181817 221.0 117.0)" />
  <ellipse cx="247.0" cy="117.0" rx="10.4" ry="5.2" fill="#ff00ff" stroke="#00ffff" stroke-width="0.5" fill-opacity="0.6" stroke-opacity="0.6" transform="rotate(106.36363636363637 247.0 117.0)" />
  <ellipse cx="273.0" cy="117.0" rx="10.4" ry="5.2" fill="#ff00ff" stroke="#00ffff" stroke-width="0.5" fill-opacity="0.6" stroke-opacity="0.6" transform="rotate(114.54545454545455 273.0 117.0)" />
  <ellipse cx="299.0" cy="117.0" rx="10.4" ry="5.2" fill="#ff00ff" stroke="#00ffff" stroke-width="0.5" fill-opacity="0.6" stroke-opacity="0.6" transform="rotate(122.72727272727273 299.0 117.0)" />
  <ellipse cx="13.0" cy="143.0" rx="10.4" ry="5.2" fill="#ff00ff" stroke="#00ffff" stroke-width="0.5" fill-opacity="0.6" stroke-opacity="0.6" transform="rotate(40.90909090909091 13.0 143.0)" />
  <ellipse cx="39.0" cy="143.0" rx="10.4" ry="5.2" fill="#ff00ff" stroke="#00ffff" stroke-width="0.5" fill-opacity="0.6" stroke-opacity="0.6" transform="rotate(49.090909090909086 39.0 143.0)" />
  <ellipse cx="65.0" cy="143.0" rx="10.4" ry="5.2" fill="#ff00ff" stroke="#00ffff" stroke-width="0.5" fill-opacity="0.6" stroke-opacity="0.6" transform="rotate(57.27272727272727 65.0 143.0)" />
  <ellipse cx="91.0" cy="143.0" rx="10.4" ry="5.2" fill="#ff00ff" stroke="#00ffff" stroke-width="0.5" fill-opacity="0.6" stroke-opacity="0.6" transform="rotate(65.45454545454545 91.0 143.0)" />
  <ellipse cx="117.0" cy="143.0" rx="10.4" ry="5.2" fill="#ff00ff" stroke="#00ffff" stroke-width="0.5" fill-opacity="0.6" stroke-opacity="0.6" transform="rotate(73.63636363636363 117.0 143.0)" />
  <ellipse cx="143.0" cy="143.0" rx="10.4" ry="5.2" fill="#ff00ff" stroke="#00ffff" stroke-width="0.5" fill-opacity="0.6" stroke-opacity="0.6" transform="rotate(81.81818181818181 143.0 143.0)" />
  <ellipse cx="169.0" cy="143.0" rx="10.4" ry="5.2" fill="#ff00ff" stroke="#00ffff" stroke-width="0.5" fill-opacity="0.6" stroke-opacity="0.6" transform="rotate(90.0 169.0 143.0)" />
  <ellipse cx="195.0" cy="143.0" rx="10.4" ry="5.2" fill="#ff00ff" stroke="#00ffff" stroke-width="0.5" fill-opacity="0.6" stroke-opacity="0.6" transform="rotate(98.18181818181817 195.0 143.0)" />
  <ellipse cx="221.0" cy="143.0" rx="10.4" ry="5.2" fill="#ff00ff" stroke="#00ffff" stroke-width="0.5" fill-opacity="0.6" stroke-opacity="0.6" transform="rotate(106.36363636363637 221.0 143.0)" />
  <ellipse cx="247.0" cy="143.0" rx="10.4" ry="5.2" fill="#ff00ff" stroke="#00ffff" stroke-width="0.5" fill-opacity="0.6" stroke-opacity="0.6" transform="rotate(114.54545454545455 247.0 143.0)" />
  <ellipse cx="273.0" cy="143.0" rx="10.4" ry="5.2" fill="#ff00ff" stroke="#00ffff" stroke-width="0.5" fill-opacity="0.6" stroke-opacity="0.6" transform="rotate(122.72727272727272 273.0 143.0)" />
  <ellipse cx="299.0" cy="143.0" rx="10.4" ry="5.2" fill="#ff00ff" stroke="#00ffff" stroke-width="0.5" fill-opacity="0.6" stroke-opacity="0.6" transform="rotate(130.9090909090909 299.0 143.0)" />
  <ellipse cx="13.0" cy="169.0" rx="10.4" ry="5.2" fill="#ff00ff" stroke="#00ffff" stroke-width="0.5" fill-opacity="0.6" stroke-opacity="0.6" transform="rotate(49.090909090909086 13.0 169.0)" />
  <ellipse cx="39.0" cy="169.0" rx="10.4" ry="5.2" fill="#ff00ff" stroke="#00ffff" stroke-width="0.5" fill-opacity="0.6" stroke-opacity="0.6" transform="rotate(57.27272727272727 39.0 169.0)" />
  <ellipse cx="65.0" cy="169.0" rx="10.4" ry="5.2" fill="#ff00ff" stroke="#00ffff" stroke-width="0.5" fill-opacity="0.6" stroke-opacity="0.6" transform="rotate(65.45454545454545 65.0 169.0)" />
  <ellipse cx="91.0" cy="169.0" rx="10.4" ry="5.2" fill="#ff00ff" stroke="#00ffff" stroke-width="0.5" fill-opacity="0.6" stroke-opacity="0.6" transform="rotate(73.63636363636363 91.0 169.0)" />
  <ellipse cx="117.0" cy="169.0" rx="10.4" ry="5.2" fill="#ff00ff" stroke="#00ffff" stroke-width="0.5" fill-opacity="0.6" stroke-opacity="0.6" transform="rotate(81.81818181818181 117.0 169.0)" />
  <ellipse cx="143.0" cy="169.0" rx="10.4" ry="5.2" fill="#ff00ff" stroke="#00ffff" stroke-width="0.5" fill-opacity="0.6" stroke-opacity="0.6" transform="rotate(90.0 143.0 169.0)" />
  <ellipse cx="169.0" cy="169.0" rx="10.4" ry="5.2" fill="#ff00ff" stroke="#00ffff" stroke-width="0.5" fill-opacity="0.6" stroke-opacity="0.6" transform="rotate(98.18181818181817 169.0 169.0)" />
  <ellipse cx="195.0" cy="169.0" rx="10.4" ry="5.2" fill="#ff00ff" stroke="#00ffff" stroke-width="0.5" fill-opacity="0.6" stroke-opacity="0.6" transform="rotate(106.36363636363635 195.0 169.0)" />
  <ellipse cx="221.0" cy="169.0" rx="10.4" ry="5.2" fill="#ff00ff" stroke="#00ffff" stroke-width="0.5" fill-opacity="0.6" stroke-opacity="0.6" transform="rotate(114.54545454545455 221.0 169.0)" />
  <ellipse cx="247.0" cy="169.0" rx="10.4" ry="5.2" fill="#ff00ff" stroke="#00ffff" stroke-width="0.5" fill-opacity="0.6" stroke-opacity="0.6" transform="rotate(122.72727272727273 247.0 169.0)" />
  <ellipse cx="273.0" cy="169.0" rx="10.4" ry="5.2" fill="#ff00ff" stroke="#00ffff" stroke-width="0.5" fill-opacity="0.6" stroke-opacity="0.6" transform="rotate(130.9090909090909 273.0 169.0)" />
  <ellipse cx="299.0" cy="169.0" rx="10.4" ry="5.2" fill="#ff00ff" stroke="#00ffff" stroke-width="0.5" fill-opacity="0.6" stroke-opacity="0.6" transform="rotate(139.0909090909091 299.0 169.0)" />
  <ellipse cx="13.0" cy="195.0" rx="10.4" ry="5.2" fill="#ff00ff" stroke="#00ffff" stroke-width="0.5" fill-opacity="0.6" stroke-opacity="0.6" transform="rotate(57.27272727272727 13.0 195.0)" />
  <ellipse cx="39.0" cy="195.0" rx="10.4" ry="5.2" fill="#ff00ff" stroke="#00ffff" stroke-width="0.5" fill-opacity="0.6" stroke-opacity="0.6" transform="rotate(65.45454545454545 39.0 195.0)" />
  <ellipse cx="65.0" cy="195.0" rx="10.4" ry="5.2" fill="#ff00ff" stroke="#00ffff" stroke-width="0.5" fill-opacity="0.6" stroke-opacity="0.6" transform="rotate(73.63636363636363 65.0 195.0)" />
  <ellipse cx="91.0" cy="195.0" rx="10.4" ry="5.2" fill="#ff00ff" stroke="#00ffff" stroke-width="0.5" fill-opacity="0.6" stroke-opacity="0.6" transform="rotate(81.81818181818181 91.0 195.0)" />
  <ellipse cx="117.0" cy="195.0" rx="10.4" ry="5.2" fill="#ff00ff" stroke="#00ffff" stroke-width="0.5" fill-opacity="0.6" stroke-opacity="0.6" transform="rotate(90.0 117.0 195.0)" />
  <ellipse cx="143.0" cy="195.0" rx="10.4" ry="5.2" fill="#ff00ff" stroke="#00ffff" stroke-width="0.5" fill-opacity="0.6" stroke-opacity="0.6" transform="rotate(98.18181818181817 143.0 195.0)" />
  <ellipse cx="169.0" cy="195.0" rx="10.4" ry="5.2" fill="#ff00ff" stroke="#00ffff" stroke-width="0.5" fill-opacity="0.6" stroke-opacity="0.6" transform="rotate(106.36363636363635 169.0 195.0)" />
  <ellipse cx="195.0" cy="195.0" rx="10.4" ry="5.2" fill="#ff00ff" stroke="#00ffff" stroke-width="0.5" fill-opacity="0.6" stroke-opacity="0.6" transform="rotate(114.54545454545455 195.0 195.0)" />
  <ellipse cx="221.0" cy="195.0" rx="10.4" ry="5.2" fill="#ff00ff" stroke="#00ffff" stroke-width="0.5" fill-opacity="0.6" stroke-opacity="0.6" transform="rotate(122.72727272727273 221.0 195.0)" />
  <ellipse cx="247.0" cy="195.0" rx="10.4" ry="5.2" fill="#ff00ff" stroke="#00ffff" stroke-width="0.5" fill-opacity="0.6" stroke-opacity="0.6" transform="rotate(130.9090909090909 247.0 195.0)" />
  <ellipse cx="273.0" cy="195.0" rx="10.4" ry="5.2" fill="#ff00ff" stroke="#00ffff" stroke-width="0.5" fill-opacity="0.6" stroke-opacity="0.6" transform="rotate(139.0909090909091 273.0 195.0)" />
  <ellipse cx="299.0" cy="195.0" rx="10.4" ry="5.2" fill="#ff00ff" stroke="#00ffff" stroke-width="0.5" fill-opacity="0.6" stroke-opacity="0.6" transform="rotate(147.27272727272725 299.0 195.0)" />
  <ellipse cx="13.0" cy="221.0" rx="10.4" ry="5.2" fill="#ff00ff" stroke="#00ffff" stroke-width="0.5" fill-opacity="0.6" stroke-opacity="0.6" transform="rotate(65.45454545454545 13.0 221.0)" />
  <ellipse cx="39.0" cy="221.0" rx="10.4" ry="5.2" fill="#ff00ff" stroke="#00ffff" stroke-width="0.5" fill-opacity="0.6" stroke-opacity="0.6" transform="rotate(73.63636363636364 39.0 221.0)" />
  <ellipse cx="65.0" cy="221.0" rx="10.4" ry="5.2" fill="#ff00ff" stroke="#00ffff" stroke-width="0.5" fill-opacity="0.6" stroke-opacity="0.6" transform="rotate(81.81818181818183 65.0 221.0)" />
  <ellipse cx="91.0" cy="221.0" rx="10.4" ry="5.2" fill="#ff00ff" stroke="#00ffff" stroke-width="0.5" fill-opacity="0.6" stroke-opacity="0.6" transform="rotate(90.0 91.0 221.0)" />
  <ellipse cx="117.0" cy="221.0" rx="10.4" ry="5.2" fill="#ff00ff" stroke="#00ffff" stroke-width="0.5" fill-opacity="0.6" stroke-opacity="0.6" transform="rotate(98.18181818181817 117.0 221.0)" />
  <ellipse cx="143.0" cy="221.0" rx="10.4" ry="5.2" fill="#ff00ff" stroke="#00ffff" stroke-width="0.5" fill-opacity="0.6" stroke-opacity="0.6" transform="rotate(106.36363636363637 143.0 221.0)" />
  <ellipse cx="169.0" cy="221.0" rx="10.4" ry="5.2" fill="#ff00ff" stroke="#00ffff" stroke-width="0.5" fill-opacity="0.6" stroke-opacity="0.6" transform="rotate(114.54545454545455 169.0 221.0)" />
  <ellipse cx="195.0" cy="221.0" rx="10.4" ry="5.2" fill="#ff00ff" stroke="#00ffff" stroke-width="0.5" fill-opacity="0.6" stroke-opacity="0.6" transform="rotate(122.72727272727273 195.0 221.0)" />
  <ellipse cx="221.0" cy="221.0" rx="10.4" ry="5.2" fill="#ff00ff" stroke="#00ffff" stroke-width="0.5" fill-opacity="0.6" stroke-opacity="0.6" transform="rotate(130.9090909090909 221.0 221.0)" />
  <ellipse cx="247.0" cy="221.0" rx="10.4" ry="5.2" fill="#ff00ff" stroke="#00ffff" stroke-width="0.5" fill-opacity="0.6" stroke-opacity="0.6" transform="rotate(139.0909090909091 247.0 221.0)" />
  <ellipse cx="273.0" cy="221.0" rx="10.4" ry="5.2" fill="#ff00ff" stroke="#00ffff" stroke-width="0.5" fill-opacity="0.6" stroke-opacity="0.6" transform="rotate(147.27272727272725 273.0 221.0)" />
  <ellipse cx="299.0" cy="221.0" rx="10.4" ry="5.2" fill="#ff00ff" stroke="#00ffff" stroke-width="0.5" fill-opacity="0.6" stroke-opacity="0.6" transform="rotate(155.45454545454547 299.0 221.0)" />
  <ellipse cx="13.0" cy="247.0" rx="10.4" ry="5.2" fill="#ff00ff" stroke="#00ffff" stroke-width="0.5" fill-opacity="0.6" stroke-opacity="0.6" transform="rotate(73.63636363636364 13.0 247.0)" />
  <ellipse cx="39.0" cy="247.0" rx="10.4" ry="5.2" fill="#ff00ff" stroke="#00ffff" stroke-width="0.5" fill-opacity="0.6" stroke-opacity="0.6" transform="rotate(81.81818181818183 39.0 247.0)" />
  <ellipse cx="65.0" cy="247.0" rx="10.4" ry="5.2" fill="#ff00ff" stroke="#00ffff" stroke-width="0.5" fill-opacity="0.6" stroke-opacity="0.6" transform="rotate(90.0 65.0 247.0)" />
  <ellipse cx="91.0" cy="247.0" rx="10.4" ry="5.2" fill="#ff00ff" stroke="#00ffff" stroke-width="0.5" fill-opacity="0.6" stroke-opacity="0.6" transform="rotate(98.18181818181817 91.0 247.0)" />
  <ellipse cx="117.0" cy="247.0" rx="10.4" ry="5.2" fill="#ff00ff" stroke="#00ffff" stroke-width="0.5" fill-opacity="0.6" stroke-opacity="0.6" transform="rotate(106.36363636363637 117.0 247.0)" />
  <ellipse cx="143.0" cy="247.0" rx="10.4" ry="5.2" fill="#ff00ff" stroke="#00ffff" stroke-width="0.5" fill-opacity="0.6" stroke-opacity="0.6" transform="rotate(114.54545454545455 143.0 247.0)" />
  <ellipse cx="169.0" cy="247.0" rx="10.4" ry="5.2" fill="#ff00ff" stroke="#00ffff" stroke-width="0.5" fill-opacity="0.6" stroke-opacity="0.6" transform="rotate(122.72727272727273 169.0 247.0)" />
  <ellipse cx="195.0" cy="247.0" rx="10.4" ry="5.2" fill="#ff00ff" stroke="#00ffff" stroke-width="0.5" fill-opacity="0.6" stroke-opacity="0.6" transform="rotate(130.9090909090909 195.0 247.0)" />
  <ellipse cx="221.0" cy="247.0" rx="10.4" ry="5.2" fill="#ff00ff" stroke="#00ffff" stroke-width="0.5" fill-opacity="0.6" stroke-opacity="0.6" transform="rotate(139.0909090909091 221.0 247.0)" />
  <ellipse cx="247.0" cy="247.0" rx="10.4" ry="5.2" fill="#ff00ff" stroke="#00ffff" stroke-width="0.5" fill-opacity="0.6" stroke-opacity="0.6" transform="rotate(147.27272727272728 247.0 247.0)" />
  <ellipse cx="273.0" cy="247.0" rx="10.4" ry="5.2" fill="#ff00ff" stroke="#00ffff" stroke-width="0.5" fill-opacity="0.6" stroke-opacity="0.6" transform="rotate(155.45454545454547 273.0 247.0)" />
  <ellipse cx="299.0" cy="247.0" rx="10.4" ry="5.2" fill="#ff00ff" stroke="#00ffff" stroke-width="0.5" fill-opacity="0.6" stroke-opacity="0.6" transform="rotate(163.63636363636365 299.0 247.0)" />
  <ellipse cx="13.0" cy="273.0" rx="10.4" ry="5.2" fill="#ff00ff" stroke="#00ffff" stroke-width="0.5" fill-opacity="0.6" stroke-opacity="0.6" transform="rotate(81.81818181818181 13.0 273.0)" />
  <ellipse cx="39.0" cy="273.0" rx="10.4" ry="5.2" fill="#ff00ff" stroke="#00ffff" stroke-width="0.5" fill-opacity="0.6" stroke-opacity="0.6" transform="rotate(90.0 39.0 273.0)" />
  <ellipse cx="65.0" cy="273.0" rx="10.4" ry="5.2" fill="#ff00ff" stroke="#00ffff" stroke-width="0.5" fill-opacity="0.6" stroke-opacity="0.6" transform="rotate(98.18181818181817 65.0 273.0)" />
  <ellipse cx="91.0" cy="273.0" rx="10.4" ry="5.2" fill="#ff00ff" stroke="#00ffff" stroke-width="0.5" fill-opacity="0.6" stroke-opacity="0.6" transform="rotate(106.36363636363635 91.0 273.0)" />
  <ellipse cx="117.0" cy="273.0" rx="10.4" ry="5.2" fill="#ff00ff" stroke="#00ffff" stroke-width="0.5" fill-opacity="0.6" stroke-opacity="0.6" transform="rotate(114.54545454545455 117.0 273.0)" />
  <ellipse cx="143.0" cy="273.0" rx="10.4" ry="5.2" fill="#ff00ff" stroke="#00ffff" stroke-width="0.5" fill-opacity="0.6" stroke-opacity="0.6" transform="rotate(122.72727272727272 143.0 273.0)" />
  <ellipse cx="169.0" cy="273.0" rx="10.4" ry="5.2" fill="#ff00ff" stroke="#00ffff" stroke-width="0.5" fill-opacity="0.6" stroke-opacity="0.6" transform="rotate(130.9090909090909 169.0 273.0)" />
  <ellipse cx="195.0" cy="273.0" rx="10.4" ry="5.2" fill="#ff00ff" stroke="#00ffff" stroke-width="0.5" fill-opacity="0.6" stroke-opacity="0.6" transform="rotate(139.0909090909091 195.0 273.0)" />
  <ellipse cx="221.0" cy="273.0" rx="10.4" ry="5.2" fill="#ff00ff" stroke="#00ffff" stroke-width="0.5" fill-opacity="0.6" stroke-opacity="0.6" transform="rotate(147.27272727272725 221.0 273.0)" />
  <ellipse cx="247.0" cy="273.0" rx="10.4" ry="5.2" fill="#ff00ff" stroke="#00ffff" stroke-width="0.5" fill-opacity="0.6" stroke-opacity="0.6" transform="rotate(155.45454545454547 247.0 273.0)" />
  <ellipse cx="273.0" cy="273.0" rx="10.4" ry="5.2" fill="#ff00ff" stroke="#00ffff" stroke-width="0.5" fill-opacity="0.6" stroke-opacity="0.6" transform="rotate(163.63636363636363 273.0 273.0)" />
  <ellipse cx="299.0" cy="273.0" rx="10.4" ry="5.2" fill="#ff00ff" stroke="#00ffff" stroke-width="0.5" fill-opacity="0.6" stroke-opacity="0.6" transform="rotate(171.8181818181818 299.0 273.0)" />
  <ellipse cx="13.0" cy="299.0" rx="10.4" ry="5.2" fill="#ff00ff" stroke="#00ffff" stroke-width="0.5" fill-opacity="0.6" stroke-opacity="0.6" transform="rotate(90.0 13.0 299.0)" />
  <ellipse cx="39.0" cy="299.0" rx="10.4" ry="5.2" fill="#ff00ff" stroke="#00ffff" stroke-width="0.5" fill-opacity="0.6" stroke-opacity="0.6" transform="rotate(98.18181818181817 39.0 299.0)" />
  <ellipse cx="65.0" cy="299.0" rx="10.4" ry="5.2" fill="#ff00ff" stroke="#00ffff" stroke-width="0.5" fill-opacity="0.6" stroke-opacity="0.6" transform="rotate(106.36363636363637 65.0 299.0)" />
  <ellipse cx="91.0" cy="299.0" rx="10.4" ry="5.2" fill="#ff00ff" stroke="#00ffff" stroke-width="0.5" fill-opacity="0.6" stroke-opacity="0.6" transform="rotate(114.54545454545455 91.0 299.0)" />
  <ellipse cx="117.0" cy="299.0" rx="10.4" ry="5.2" fill="#ff00ff" stroke="#00ffff" stroke-width="0.5" fill-opacity="0.6" stroke-opacity="0.6" transform="rotate(122.72727272727273 117.0 299.0)" />
  <ellipse cx="143.0" cy="299.0" rx="10.4" ry="5.2" fill="#ff00ff" stroke="#00ffff" stroke-width="0.5" fill-opacity="0.6" stroke-opacity="0.6" transform="rotate(130.9090909090909 143.0 299.0)" />
  <ellipse cx="169.0" cy="299.0" rx="10.4" ry="5.2" fill="#ff00ff" stroke="#00ffff" stroke-width="0.5" fill-opacity="0.6" stroke-opacity="0.6" transform="rotate(139.0909090909091 169.0 299.0)" />
  <ellipse cx="195.0" cy="299.0" rx="10.4" ry="5.2" fill="#ff00ff" stroke="#00ffff" stroke-width="0.5" fill-opacity="0.6" stroke-opacity="0.6" transform="rotate(147.27272727272725 195.0 299.0)" />
  <ellipse cx="221.0" cy="299.0" rx="10.4" ry="5.2" fill="#ff00ff" stroke="#00ffff" stroke-width="0.5" fill-opacity="0.6" stroke-opacity="0.6" transform="rotate(155.45454545454547 221.0 299.0)" />
  <ellipse cx="247.0" cy="299.0" rx="10.4" ry="5.2" fill="#ff00ff" stroke="#00ffff" stroke-width="0.5" fill-opacity="0.6" stroke-opacity="0.6" transform="rotate(163.63636363636365 247.0 299.0)" />
  <ellipse cx="273.0" cy="299.0" rx="10.4" ry="5.2" fill="#ff00ff" stroke="#00ffff" stroke-width="0.5" fill-opacity="0.6" stroke-opacity="0.6" transform="rotate(171.8181818181818 273.0 299.0)" />
  <ellipse cx="299.0" cy="299.0" rx="10.4" ry="5.2" fill="#ff00ff" stroke="#00ffff" stroke-width="0.5" fill-opacity="0.6" stroke-opacity="0.6" transform="rotate(180.0 299.0 299.0)" />
</svg>