<?xml version="1.0" encoding="UTF-8"?>
<svg xmlns="http://www.w3.org/2000/svg" width="320" height="240" viewBox="0 0 320 240">
  <rect width="100%" height="100%" fill="#2d1b4e" />
  <path d="M 0 20 Q 10 10 20 0" fill="none" stroke="#ff6b35" stroke-width="0.8" stroke-linecap="round" opacity="0.4" />
  <path d="M 20 20 Q 34.7023 14.7023 40 0" fill="none" stroke="#ff6b35" stroke-width="1.74046" stroke-linecap="round" opacity="0.4" />
  <path d="M 40 20 Q 57.6085 17.6085 60 0" fill="none" stroke="#ff6b35" stroke-width="2.32169" stroke-linecap="round" opacity="0.4" />
  <path d="M 60 20 Q 77.6085 17.6085 80 0" fill="none" stroke="#ff6b35" stroke-width="2.32169" stroke-linecap="round" opacity="0.4" />
  <path d="M 80 20 Q 94.7023 14.7023 100 0" fill="none" stroke="#ff6b35" stroke-width="1.74046" stroke-linecap="round" opacity="0.4" />
  <path d="M 100 20 Q 110 10 120 0" fill="none" stroke="#ff6b35" stroke-width="0.8" stroke-linecap="round" opacity="0.4" />
  <path d="M 120 20 Q 125.298 5.29772 140 0" fill="none" stroke="#ff6b35" stroke-width="1.74046" stroke-linecap="round" opacity="0.4" />
  <path d="M 140 20 Q 142.392 2.39155 160 0" fill="none" stroke="#ff6b35" stroke-width="2.32169" stroke-linecap="round" opacity="0.4" />
  <path d="M 160 20 Q 162.392 2.39155 180 0" fill="none" stroke="#ff6b35" stroke-width="2.32169" stroke-linecap="round" opacity="0.4" />
  <path d="M 180 20 Q 185.298 5.29772 200 0" fill="none" stroke="#ff6b35" stroke-width="1.74046" stroke-linecap="round" opacity="0.4" />
  <path d="M 200 20 Q 210 10 220 0" fill="none" stroke="#ff6b35" stroke-width="0.8" stroke-linecap="round" opacity="0.4" />
  <path d="M 220 20 Q 234.702 14.7023 240 0" fill="none" stroke="#ff6b35" stroke-width="1.74046" stroke-linecap="round" opacity="0.4" />
  <path d="M 240 20 Q 257.608 17.6085 260 0" fill="none" stroke="#ff6b35" stroke-width="2.32169" stroke-linecap="round" opacity="0.4" />
  <path d="M 260 20 Q 277.608 17.6085 280 0" fill="none" stroke="#ff6b35" stroke-width="2.32169" stroke-linecap="round" opacity="0.4" />
  <path d="M 280 20 Q 294.702 14.7023 300 0" fill="none" stroke="#ff6b35" stroke-width="1.74046" stroke-linecap="round" opacity="0.4" />
  <path d="M 300 20 Q 310 10 320 0" fill="none" stroke="#ff6b35" stroke-width="0.8" stroke-linecap="round" opacity="0.4" />
  <path d="M 0 40 Q 11.4465 31.4465 20 20" fill="none" stroke="#ff6b35" stroke-width="1.08931" stroke-linecap="round" opacity="0.445455" />
  <path d="M 20 40 Q 35.7951 35.7951 40 20" fill="none" stroke="#ff6b35" stroke-width="1.95901" stroke-linecap="round" opacity="0.445455" />
  <path d="M 40 40 Q 57.93 37.93 60 20" fill="none" stroke="#ff6b35" stroke-width="2.38601" stroke-linecap="round" opacity="0.445455" />
  <path d="M 60 40 Q 77.036 37.036 80 20" fill="none" stroke="#ff6b35" stroke-width="2.20721" stroke-linecap="round" opacity="0.445455" />
  <path d="M 80 40 Q 93.4545 33.4545 100 20" fill="none" stroke="#ff6b35" stroke-width="1.4909" stroke-linecap="round" opacity="0.445455" />
  <path d="M 100 40 Q 108.553 28.5535 120 20" fill="none" stroke="#ff6b35" stroke-width="1.08931" stroke-linecap="round" opacity="0.445455" />
  <path d="M 120 40 Q 124.205 24.2049 140 20" fill="none" stroke="#ff6b35" stroke-width="1.95901" stroke-linecap="round" opacity="0.445455" />
  <path d="M 140 40 Q 142.07 22.07 160 20" fill="none" stroke="#ff6b35" stroke-width="2.38601" stroke-linecap="round" opacity="0.445455" />
  <path d="M 160 40 Q 162.964 22.964 180 20" fill="none" stroke="#ff6b35" stroke-width="2.20721" stroke-linecap="round" opacity="0.445455" />
  <path d="M 180 40 Q 186.546 26.5455 200 20" fill="none" stroke="#ff6b35" stroke-width="1.4909" stroke-linecap="round" opacity="0.445455" />
  <path d="M 200 40 Q 211.447 31.4465 220 20" fill="none" stroke="#ff6b35" stroke-width="1.08931" stroke-linecap="round" opacity="0.445455" />
  <path d="M 220 40 Q 235.795 35.7951 240 20" fill="none" stroke="#ff6b35" stroke-width="1.95901" stroke-linecap="round" opacity="0.445455" />
  <path d="M 240 40 Q 257.93 37.93 260 20" fill="none" stroke="#ff6b35" stroke-width="2.38601" stroke-linecap="round" opacity="0.445455" />
  <path d="M 260 40 Q 277.036 37.036 280 20" fill="none" stroke="#ff6b35" stroke-width="2.20721" stroke-linecap="round" opacity="0.445455" />
  <path d="M 280 40 Q 293.454 33.4545 300 20" fill="none" stroke="#ff6b35" stroke-width="1.4909" stroke-linecap="round" opacity="0.445455" />
  <path d="M 300 40 Q 308.553 28.5535 320 20" fill="none" stroke="#ff6b35" stroke-width="1.08931" stroke-linecap="round" opacity="0.445455" />
  <path d="M 0 60 Q 12.8454 52.8454 20 40" fill="none" stroke="#ff6b35" stroke-width="1.36908" stroke-linecap="round" opacity="0.490909" />
  <path d="M 20 60 Q 36.6968 56.6968 40 40" fill="none" stroke="#ff6b35" stroke-width="2.13936" stroke-linecap="round" opacity="0.490909" />
  <path d="M 40 60 Q 57.9902 57.9902 60 40" fill="none" stroke="#ff6b35" stroke-width="2.39804" stroke-linecap="round" opacity="0.490909" />
  <path d="M 60 60 Q 76.2317 56.2317 80 40" fill="none" stroke="#ff6b35" stroke-width="2.04633" stroke-linecap="round" opacity="0.490909" />
  <path d="M 80 60 Q 92.0928 52.0928 100 40" fill="none" stroke="#ff6b35" stroke-width="1.21856" stroke-linecap="round" opacity="0.490909" />
  <path d="M 100 60 Q 107.155 47.1546 120 40" fill="none" stroke="#ff6b35" stroke-width="1.36908" stroke-linecap="round" opacity="0.490909" />
  <path d="M 120 60 Q 123.303 43.3032 140 40" fill="none" stroke="#ff6b35" stroke-width="2.13936" stroke-linecap="round" opacity="0.490909" />
  <path d="M 140 60 Q 142.01 42.0098 160 40" fill="none" stroke="#ff6b35" stroke-width="2.39804" stroke-linecap="round" opacity="0.490909" />
  <path d="M 160 60 Q 163.768 43.7683 180 40" fill="none" stroke="#ff6b35" stroke-width="2.04633" stroke-linecap="round" opacity="0.490909" />
  <path d="M 180 60 Q 187.907 47.9072 200 40" fill="none" stroke="#ff6b35" stroke-width="1.21856" stroke-linecap="round" opacity="0.490909" />
  <path d="M 200 60 Q 212.845 52.8454 220 40" fill="none" stroke="#ff6b35" stroke-width="1.36908" stroke-linecap="round" opacity="0.490909" />
  <path d="M 220 60 Q 236.697 56.6968 240 40" fill="none" stroke="#ff6b35" stroke-width="2.13936" stroke-linecap="round" opacity="0.490909" />
  <path d="M 240 60 Q 257.99 57.9902 260 40" fill="none" stroke="#ff6b35" stroke-width="2.39804" stroke-linecap="round" opacity="0.490909" />
  <path d="M 260 60 Q 276.232 56.2317 280 40" fill="none" stroke="#ff6b35" stroke-width="2.04633" stroke-linecap="round" opacity="0.490909" />
  <path d="M 280 60 Q 292.093 52.0928 300 40" fill="none" stroke="#ff6b35" stroke-width="1.21856" stroke-linecap="round" opacity="0.490909" />
  <path d="M 300 60 Q 307.155 47.1546 320 40" fill="none" stroke="#ff6b35" stroke-width="1.36908" stroke-linecap="round" opacity="0.490909" />
  <path d="M 0 80 Q 14.1505 74.1505 20 60" fill="none" stroke="#ff6b35" stroke-width="1.63009" stroke-linecap="round" opacity="0.536364" />
  <path d="M 20 80 Q 37.3777 77.3777 40 60" fill="none" stroke="#ff6b35" stroke-width="2.27555" stroke-linecap="round" opacity="0.536364" />
  <path d="M 40 80 Q 57.787 77.787 60 60" fill="none" stroke="#ff6b35" stroke-width="2.35739" stroke-linecap="round" opacity="0.536364" />
  <path d="M 60 80 Q 75.2218 75.2218 80 60" fill="none" stroke="#ff6b35" stroke-width="1.84437" stroke-linecap="round" opacity="0.536364" />
  <path d="M 80 80 Q 90.6622 70.6622 100 60" fill="none" stroke="#ff6b35" stroke-width="0.932431" stroke-linecap="round" opacity="0.536364" />
  <path d="M 100 80 Q 105.85 65.8495 120 60" fill="none" stroke="#ff6b35" stroke-width="1.63009" stroke-linecap="round" opacity="0.536364" />
  <path d="M 120 80 Q 122.622 62.6223 140 60" fill="none" stroke="#ff6b35" stroke-width="2.27555" stroke-linecap="round" opacity="0.536364" />
  <path d="M 140 80 Q 142.213 62.213 160 60" fill="none" stroke="#ff6b35" stroke-width="2.35739" stroke-linecap="round" opacity="0.536364" />
  <path d="M 160 80 Q 164.778 64.7782 180 60" fill="none" stroke="#ff6b35" stroke-width="1.84437" stroke-linecap="round" opacity="0.536364" />
  <path d="M 180 80 Q 189.338 69.3378 200 60" fill="none" stroke="#ff6b35" stroke-width="0.932431" stroke-linecap="round" opacity="0.536364" />
  <path d="M 200 80 Q 214.15 74.1505 220 60" fill="none" stroke="#ff6b35" stroke-width="1.63009" stroke-linecap="round" opacity="0.536364" />
  <path d="M 220 80 Q 237.378 77.3777 240 60" fill="none" stroke="#ff6b35" stroke-width="2.27555" stroke-linecap="round" opacity="0.536364" />
  <path d="M 240 80 Q 257.787 77.787 260 60" fill="none" stroke="#ff6b35" stroke-width="2.35739" stroke-linecap="round" opacity="0.536364" />
  <path d="M 260 80 Q 275.222 75.2218 280 60" fill="none" stroke="#ff6b35" stroke-width="1.84437" stroke-linecap="round" opacity="0.536364" />
  <path d="M 280 80 Q 290.662 70.6622 300 60" fill="none" stroke="#ff6b35" stroke-width="0.932431" stroke-linecap="round" opacity="0.536364" />
  <path d="M 300 80 Q 305.85 65.8495 320 60" fill="none" stroke="#ff6b35" stroke-width="1.63009" stroke-linecap="round" opacity="0.536364" />
  <path d="M 0 100 Q 15.3187 95.3187 20 80" fill="none" stroke="#ff6b35" stroke-width="1.86374" stroke-linecap="round" opacity="0.581818" />
  <path d="M 20 100 Q 37.8155 97.8155 40 80" fill="none" stroke="#ff6b35" stroke-width="2.36309" stroke-linecap="round" opacity="0.581818" />
  <path d="M 40 100 Q 57.327 97.327 60 80" fill="none" stroke="#ff6b35" stroke-width="2.2654" stroke-linecap="round" opacity="0.581818" />
  <path d="M 60 100 Q 74.0399 94.0399 80 80" fill="none" stroke="#ff6b35" stroke-width="1.60798" stroke-linecap="round" opacity="0.581818" />
  <path d="M 80 100 Q 89.2097 89.2097 100 80" fill="none" stroke="#ff6b35" stroke-width="0.958068" stroke-linecap="round" opacity="0.581818" />
  <path d="M 100 100 Q 104.681 84.6813 120 80" fill="none" stroke="#ff6b35" stroke-width="1.86374" stroke-linecap="round" opacity="0.581818" />
  <path d="M 120 100 Q 122.185 82.1845 140 80" fill="none" stroke="#ff6b35" stroke-width="2.36309" stroke-linecap="round" opacity="0.581818" />
  <path d="M 140 100 Q 142.673 82.673 160 80" fill="none" stroke="#ff6b35" stroke-width="2.2654" stroke-linecap="round" opacity="0.581818" />
  <path d="M 160 100 Q 165.96 85.9601 180 80" fill="none" stroke="#ff6b35" stroke-width="1.60798" stroke-linecap="round" opacity="0.581818" />
  <path d="M 180 100 Q 190.79 90.7903 200 80" fill="none" stroke="#ff6b35" stroke-width="0.958068" stroke-linecap="round" opacity="0.581818" />
  <path d="M 200 100 Q 215.319 95.3187 220 80" fill="none" stroke="#ff6b35" stroke-width="1.86374" stroke-linecap="round" opacity="0.581818" />
  <path d="M 220 100 Q 237.815 97.8155 240 80" fill="none" stroke="#ff6b35" stroke-width="2.36309" stroke-linecap="round" opacity="0.581818" />
  <path d="M 240 100 Q 257.327 97.327 260 80" fill="none" stroke="#ff6b35" stroke-width="2.2654" stroke-linecap="round" opacity="0.581818" />
  <path d="M 260 100 Q 274.04 94.0399 280 80" fill="none" stroke="#ff6b35" stroke-width="1.60798" stroke-linecap="round" opacity="0.581818" />
  <path d="M 280 100 Q 289.21 89.2097 300 80" fill="none" stroke="#ff6b35" stroke-width="0.958068" stroke-linecap="round" opacity="0.581818" />
  <path d="M 300 100 Q 304.681 84.6813 320 80" fill="none" stroke="#ff6b35" stroke-width="1.86374" stroke-linecap="round" opacity="0.581818" />
  <path d="M 0 120 Q 16.3116 116.312 20 100" fill="none" stroke="#ff6b35" stroke-width="2.06231" stroke-linecap="round" opacity="0.627273" />
  <path d="M 20 120 Q 37.9955 117.996 40 100" fill="none" stroke="#ff6b35" stroke-width="2.39911" stroke-linecap="round" opacity="0.627273" />
  <path d="M 40 120 Q 56.6255 116.625 60 100" fill="none" stroke="#ff6b35" stroke-width="2.1251" stroke-linecap="round" opacity="0.627273" />
  <path d="M 60 120 Q 72.7247 112.725 80 100" fill="none" stroke="#ff6b35" stroke-width="1.34495" stroke-linecap="round" opacity="0.627273" />
  <path d="M 80 120 Q 87.7832 107.783 100 100" fill="none" stroke="#ff6b35" stroke-width="1.24336" stroke-linecap="round" opacity="0.627273" />
  <path d="M 100 120 Q 103.688 103.688 120 100" fill="none" stroke="#ff6b35" stroke-width="2.06231" stroke-linecap="round" opacity="0.627273" />
  <path d="M 120 120 Q 122.004 102.004 140 100" fill="none" stroke="#ff6b35" stroke-width="2.39911" stroke-linecap="round" opacity="0.627273" />
  <path d="M 140 120 Q 143.375 103.375 160 100" fill="none" stroke="#ff6b35" stroke-width="2.1251" stroke-linecap="round" opacity="0.627273" />
  <path d="M 160 120 Q 167.275 107.275 180 100" fill="none" stroke="#ff6b35" stroke-width="1.34495" stroke-linecap="round" opacity="0.627273" />
  <path d="M 180 120 Q 192.217 112.217 200 100" fill="none" stroke="#ff6b35" stroke-width="1.24336" stroke-linecap="round" opacity="0.627273" />
  <path d="M 200 120 Q 216.312 116.312 220 100" fill="none" stroke="#ff6b35" stroke-width="2.06231" stroke-linecap="round" opacity="0.627273" />
  <path d="M 220 120 Q 237.996 117.996 240 100" fill="none" stroke="#ff6b35" stroke-width="2.39911" stroke-linecap="round" opacity="0.627273" />
  <path d="M 240 120 Q 256.625 116.625 260 100" fill="none" stroke="#ff6b35" stroke-width="2.1251" stroke-linecap="round" opacity="0.627273" />
  <path d="M 260 120 Q 272.725 112.725 280 100" fill="none" stroke="#ff6b35" stroke-width="1.34495" stroke-linecap="round" opacity="0.627273" />
  <path d="M 280 120 Q 287.783 107.783 300 100" fill="none" stroke="#ff6b35" stroke-width="1.24336" stroke-linecap="round" opacity="0.627273" />
  <path d="M 300 120 Q 303.688 103.688 320 100" fill="none" stroke="#ff6b35" stroke-width="2.06231" stroke-linecap="round" opacity="0.627273" />
  <path d="M 0 140 Q 17.0964 137.096 20 120" fill="none" stroke="#ff6b35" stroke-width="2.21928" stroke-linecap="round" opacity="0.672727" />
  <path d="M 20 140 Q 37.912 137.912 40 120" fill="none" stroke="#ff6b35" stroke-width="2.38241" stroke-linecap="round" opacity="0.672727" />
  <path d="M 40 140 Q 55.7056 135.706 60 120" fill="none" stroke="#ff6b35" stroke-width="1.94111" stroke-linecap="round" opacity="0.672727" />
  <path d="M 60 140 Q 71.3198 131.32 80 120" fill="none" stroke="#ff6b35" stroke-width="1.06395" stroke-linecap="round" opacity="0.672727" />
  <path d="M 80 140 Q 86.4299 126.43 100 120" fill="none" stroke="#ff6b35" stroke-width="1.51403" stroke-linecap="round" opacity="0.672727" />
  <path d="M 100 140 Q 102.904 122.904 120 120" fill="none" stroke="#ff6b35" stroke-width="2.21928" stroke-linecap="round" opacity="0.672727" />
  <path d="M 120 140 Q 122.088 122.088 140 120" fill="none" stroke="#ff6b35" stroke-width="2.38241" stroke-linecap="round" opacity="0.672727" />
  <path d="M 140 140 Q 144.294 124.294 160 120" fill="none" stroke="#ff6b35" stroke-width="1.94111" stroke-linecap="round" opacity="0.672727" />
  <path d="M 160 140 Q 168.68 128.68 180 120" fill="none" stroke="#ff6b35" stroke-width="1.06395" stroke-linecap="round" opacity="0.672727" />
  <path d="M 180 140 Q 193.57 133.57 200 120" fill="none" stroke="#ff6b35" stroke-width="1.51403" stroke-linecap="round" opacity="0.672727" />
  <path d="M 200 140 Q 217.096 137.096 220 120" fill="none" stroke="#ff6b35" stroke-width="2.21928" stroke-linecap="round" opacity="0.672727" />
  <path d="M 220 140 Q 237.912 137.912 240 120" fill="none" stroke="#ff6b35" stroke-width="2.38241" stroke-linecap="round" opacity="0.672727" />
  <path d="M 240 140 Q 255.706 135.706 260 120" fill="none" stroke="#ff6b35" stroke-width="1.94111" stroke-linecap="round" opacity="0.672727" />
  <path d="M 260 140 Q 271.32 131.32 280 120" fill="none" stroke="#ff6b35" stroke-width="1.06395" stroke-linecap="round" opacity="0.672727" />
  <path d="M 280 140 Q 286.43 126.43 300 120" fill="none" stroke="#ff6b35" stroke-width="1.51403" stroke-linecap="round" opacity="0.672727" />
  <path d="M 300 140 Q 302.904 122.904 320 120" fill="none" stroke="#ff6b35" stroke-width="2.21928" stroke-linecap="round" opacity="0.672727" />
  <path d="M 0 160 Q 17.6472 157.647 20 140" fill="none" stroke="#ff6b35" stroke-width="2.32945" stroke-linecap="round" opacity="0.718182" />
  <path d="M 20 160 Q 37.5677 157.568 40 140" fill="none" stroke="#ff6b35" stroke-width="2.31354" stroke-linecap="round" opacity="0.718182" />
  <path d="M 40 160 Q 54.5975 154.598 60 140" fill="none" stroke="#ff6b35" stroke-width="1.71951" stroke-linecap="round" opacity="0.718182" />
  <path d="M 60 160 Q 69.8713 149.871 80 140" fill="none" stroke="#ff6b35" stroke-width="0.825743" stroke-linecap="round" opacity="0.718182" />
  <path d="M 80 160 Q 85.1942 145.194 100 140" fill="none" stroke="#ff6b35" stroke-width="1.76116" stroke-linecap="round" opacity="0.718182" />
  <path d="M 100 160 Q 102.353 142.353 120 140" fill="none" stroke="#ff6b35" stroke-width="2.32945" stroke-linecap="round" opacity="0.718182" />
  <path d="M 120 160 Q 122.432 142.432 140 140" fill="none" stroke="#ff6b35" stroke-width="2.31354" stroke-linecap="round" opacity="0.718182" />
  <path d="M 140 160 Q 145.402 145.402 160 140" fill="none" stroke="#ff6b35" stroke-width="1.71951" stroke-linecap="round" opacity="0.718182" />
  <path d="M 160 160 Q 170.129 150.129 180 140" fill="none" stroke="#ff6b35" stroke-width="0.825743" stroke-linecap="round" opacity="0.718182" />
  <path d="M 180 160 Q 194.806 154.806 200 140" fill="none" stroke="#ff6b35" stroke-width="1.76116" stroke-linecap="round" opacity="0.718182" />
  <path d="M 200 160 Q 217.647 157.647 220 140" fill="none" stroke="#ff6b35" stroke-width="2.32945" stroke-linecap="round" opacity="0.718182" />
  <path d="M 220 160 Q 237.568 157.568 240 140" fill="none" stroke="#ff6b35" stroke-width="2.31354" stroke-linecap="round" opacity="0.718182" />
  <path d="M 240 160 Q 254.598 154.598 260 140" fill="none" stroke="#ff6b35" stroke-width="1.71951" stroke-linecap="round" opacity="0.718182" />
  <path d="M 260 160 Q 269.871 149.871 280 140" fill="none" stroke="#ff6b35" stroke-width="0.825743" stroke-linecap="round" opacity="0.718182" />
  <path d="M 280 160 Q 285.194 145.194 300 140" fill="none" stroke="#ff6b35" stroke-width="1.76116" stroke-linecap="round" opacity="0.718182" />
  <path d="M 300 160 Q 302.353 142.353 320 140" fill="none" stroke="#ff6b35" stroke-width="2.32945" stroke-linecap="round" opacity="0.718182" />
  <path d="M 0 180 Q 17.946 177.946 20 160" fill="none" stroke="#ff6b35" stroke-width="2.3892" stroke-linecap="round" opacity="0.763636" />
  <path d="M 20 180 Q 36.9739 176.974 40 160" fill="none" stroke="#ff6b35" stroke-width="2.19477" stroke-linecap="round" opacity="0.763636" />
  <path d="M 40 180 Q 53.3379 173.338 60 160" fill="none" stroke="#ff6b35" stroke-width="1.46759" stroke-linecap="round" opacity="0.763636" />
  <path d="M 60 180 Q 68.427 168.427 80 160" fill="none" stroke="#ff6b35" stroke-width="1.11459" stroke-linecap="round" opacity="0.763636" />
  <path d="M 80 180 Q 84.117 164.117 100 160" fill="none" stroke="#ff6b35" stroke-width="1.97661" stroke-linecap="round" opacity="0.763636" />
  <path d="M 100 180 Q 102.054 162.054 120 160" fill="none" stroke="#ff6b35" stroke-width="2.3892" stroke-linecap="round" opacity="0.763636" />
  <path d="M 120 180 Q 123.026 163.026 140 160" fill="none" stroke="#ff6b35" stroke-width="2.19477" stroke-linecap="round" opacity="0.763636" />
  <path d="M 140 180 Q 146.662 166.662 160 160" fill="none" stroke="#ff6b35" stroke-width="1.46759" stroke-linecap="round" opacity="0.763636" />
  <path d="M 160 180 Q 171.573 171.573 180 160" fill="none" stroke="#ff6b35" stroke-width="1.11459" stroke-linecap="round" opacity="0.763636" />
  <path d="M 180 180 Q 195.883 175.883 200 160" fill="none" stroke="#ff6b35" stroke-width="1.97661" stroke-linecap="round" opacity="0.763636" />
  <path d="M 200 180 Q 217.946 177.946 220 160" fill="none" stroke="#ff6b35" stroke-width="2.3892" stroke-linecap="round" opacity="0.763636" />
  <path d="M 220 180 Q 236.974 176.974 240 160" fill="none" stroke="#ff6b35" stroke-width="2.19477" stroke-linecap="round" opacity="0.763636" />
  <path d="M 240 180 Q 253.338 173.338 260 160" fill="none" stroke="#ff6b35" stroke-width="1.46759" stroke-linecap="round" opacity="0.763636" />
  <path d="M 260 180 Q 268.427 168.427 280 160" fill="none" stroke="#ff6b35" stroke-width="1.11459" stroke-linecap="round" opacity="0.763636" />
  <path d="M 280 180 Q 284.117 164.117 300 160" fill="none" stroke="#ff6b35" stroke-width="1.97661" stroke-linecap="round" opacity="0.763636" />
  <path d="M 300 180 Q 302.054 162.054 320 160" fill="none" stroke="#ff6b35" stroke-width="2.3892" stroke-linecap="round" opacity="0.763636" />
  <path d="M 0 200 Q 17.9828 197.983 20 180" fill="none" stroke="#ff6b35" stroke-width="2.39656" stroke-linecap="round" opacity="0.809091" />
  <path d="M 20 200 Q 36.1501 196.15 40 180" fill="none" stroke="#ff6b35" stroke-width="2.03003" stroke-linecap="round" opacity="0.809091" />
  <path d="M 40 200 Q 51.9683 191.968 60 180" fill="none" stroke="#ff6b35" stroke-width="1.19366" stroke-linecap="round" opacity="0.809091" />
  <path d="M 60 200 Q 67.0347 187.035 80 180" fill="none" stroke="#ff6b35" stroke-width="1.39307" stroke-linecap="round" opacity="0.809091" />
  <path d="M 80 200 Q 83.2337 183.234 100 180" fill="none" stroke="#ff6b35" stroke-width="2.15326" stroke-linecap="round" opacity="0.809091" />
  <path d="M 100 200 Q 102.017 182.017 120 180" fill="none" stroke="#ff6b35" stroke-width="2.39656" stroke-linecap="round" opacity="0.809091" />
  <path d="M 120 200 Q 123.85 183.85 140 180" fill="none" stroke="#ff6b35" stroke-width="2.03003" stroke-linecap="round" opacity="0.809091" />
  <path d="M 140 200 Q 148.032 188.032 160 180" fill="none" stroke="#ff6b35" stroke-width="1.19366" stroke-linecap="round" opacity="0.809091" />
  <path d="M 160 200 Q 172.965 192.965 180 180" fill="none" stroke="#ff6b35" stroke-width="1.39307" stroke-linecap="round" opacity="0.809091" />
  <path d="M 180 200 Q 196.766 196.766 200 180" fill="none" stroke="#ff6b35" stroke-width="2.15326" stroke-linecap="round" opacity="0.809091" />
  <path d="M 200 200 Q 217.983 197.983 220 180" fill="none" stroke="#ff6b35" stroke-width="2.39656" stroke-linecap="round" opacity="0.809091" />
  <path d="M 220 200 Q 236.15 196.15 240 180" fill="none" stroke="#ff6b35" stroke-width="2.03003" stroke-linecap="round" opacity="0.809091" />
  <path d="M 240 200 Q 251.968 191.968 260 180" fill="none" stroke="#ff6b35" stroke-width="1.19366" stroke-linecap="round" opacity="0.809091" />
  <path d="M 260 200 Q 267.035 187.035 280 180" fill="none" stroke="#ff6b35" stroke-width="1.39307" stroke-linecap="round" opacity="0.809091" />
  <path d="M 280 200 Q 283.234 183.234 300 180" fill="none" stroke="#ff6b35" stroke-width="2.15326" stroke-linecap="round" opacity="0.809091" />
  <path d="M 300 200 Q 302.017 182.017 320 180" fill="none" stroke="#ff6b35" stroke-width="2.39656" stroke-linecap="round" opacity="0.809091" />
  <path d="M 0 220 Q 17.7564 217.756 20 200" fill="none" stroke="#ff6b35" stroke-width="2.35129" stroke-linecap="round" opacity="0.854545" />
  <path d="M 20 220 Q 35.1237 215.124 40 200" fill="none" stroke="#ff6b35" stroke-width="1.82473" stroke-linecap="round" opacity="0.854545" />
  <path d="M 40 220 Q 50.5338 210.534 60 200" fill="none" stroke="#ff6b35" stroke-width="0.906759" stroke-linecap="round" opacity="0.854545" />
  <path d="M 60 220 Q 65.74 205.74 80 200" fill="none" stroke="#ff6b35" stroke-width="1.65199" stroke-linecap="round" opacity="0.854545" />
  <path d="M 80 220 Q 82.5735 202.573 100 200" fill="none" stroke="#ff6b35" stroke-width="2.28531" stroke-linecap="round" opacity="0.854545" />
  <path d="M 100 220 Q 102.244 202.244 120 200" fill="none" stroke="#ff6b35" stroke-width="2.35129" stroke-linecap="round" opacity="0.854545" />
  <path d="M 120 220 Q 124.876 204.876 140 200" fill="none" stroke="#ff6b35" stroke-width="1.82473" stroke-linecap="round" opacity="0.854545" />
  <path d="M 140 220 Q 149.466 209.466 160 200" fill="none" stroke="#ff6b35" stroke-width="0.906759" stroke-linecap="round" opacity="0.854545" />
  <path d="M 160 220 Q 174.26 214.26 180 200" fill="none" stroke="#ff6b35" stroke-width="1.65199" stroke-linecap="round" opacity="0.854545" />
  <path d="M 180 220 Q 197.427 217.427 200 200" fill="none" stroke="#ff6b35" stroke-width="2.28531" stroke-linecap="round" opacity="0.854545" />
  <path d="M 200 220 Q 217.756 217.756 220 200" fill="none" stroke="#ff6b35" stroke-width="2.35129" stroke-linecap="round" opacity="0.854545" />
  <path d="M 220 220 Q 235.124 215.124 240 200" fill="none" stroke="#ff6b35" stroke-width="1.82473" stroke-linecap="round" opacity="0.854545" />
  <path d="M 240 220 Q 250.534 210.534 260 200" fill="none" stroke="#ff6b35" stroke-width="0.906759" stroke-linecap="round" opacity="0.854545" />
  <path d="M 260 220 Q 265.74 205.74 280 200" fill="none" stroke="#ff6b35" stroke-width="1.65199" stroke-linecap="round" opacity="0.854545" />
  <path d="M 280 220 Q 282.573 202.573 300 200" fill="none" stroke="#ff6b35" stroke-width="2.28531" stroke-linecap="round" opacity="0.854545" />
  <path d="M 300 220 Q 302.244 202.244 320 200" fill="none" stroke="#ff6b35" stroke-width="2.35129" stroke-linecap="round" opacity="0.854545" />
  <path d="M 0 240 Q 17.2744 237.274 20 220" fill="none" stroke="#ff6b35" stroke-width="2.25488" stroke-linecap="round" opacity="0.9" />
  <path d="M 20 240 Q 33.9283 233.928 40 220" fill="none" stroke="#ff6b35" stroke-width="1.58565" stroke-linecap="round" opacity="0.9" />
  <path d="M 40 240 Q 49.0817 229.082 60 220" fill="none" stroke="#ff6b35" stroke-width="0.983665" stroke-linecap="round" opacity="0.9" />
  <path d="M 60 240 Q 64.5859 224.586 80 220" fill="none" stroke="#ff6b35" stroke-width="1.88283" stroke-linecap="round" opacity="0.9" />
  <path d="M 80 240 Q 82.1581 222.158 100 220" fill="none" stroke="#ff6b35" stroke-width="2.36839" stroke-linecap="round" opacity="0.9" />
  <path d="M 100 240 Q 102.726 222.726 120 220" fill="none" stroke="#ff6b35" stroke-width="2.25488" stroke-linecap="round" opacity="0.9" />
  <path d="M 120 240 Q 126.072 226.072 140 220" fill="none" stroke="#ff6b35" stroke-width="1.58565" stroke-linecap="round" opacity="0.9" />
  <path d="M 140 240 Q 150.918 230.918 160 220" fill="none" stroke="#ff6b35" stroke-width="0.983665" stroke-linecap="round" opacity="0.9" />
  <path d="M 160 240 Q 175.414 235.414 180 220" fill="none" stroke="#ff6b35" stroke-width="1.88283" stroke-linecap="round" opacity="0.9" />
  <path d="M 180 240 Q 197.842 237.842 200 220" fill="none" stroke="#ff6b35" stroke-width="2.36839" stroke-linecap="round" opacity="0.9" />
  <path d="M 200 240 Q 217.274 237.274 220 220" fill="none" stroke="#ff6b35" stroke-width="2.25488" stroke-linecap="round" opacity="0.9" />
  <path d="M 220 240 Q 233.928 233.928 240 220" fill="none" stroke="#ff6b35" stroke-width="1.58565" stroke-linecap="round" opacity="0.9" />
  <path d="M 240 240 Q 249.082 229.082 260 220" fill="none" stroke="#ff6b35" stroke-width="0.983665" stroke-linecap="round" opacity="0.9" />
  <path d="M 260 240 Q 264.586 224.586 280 220" fill="none" stroke="#ff6b35" stroke-width="1.88283" stroke-linecap="round" opacity="0.9" />
  <path d="M 280 240 Q 282.158 222.158 300 220" fill="none" stroke="#ff6b35" stroke-width="2.36839" stroke-linecap="round" opacity="0.9" />
  <path d="M 300 240 Q 302.726 222.726 320 220" fill="none" stroke="#ff6b35" stroke-width="2.25488" stroke-linecap="round" opacity="0.9" />
</svg>