<?xml version="1.0" encoding="UTF-8"?>
<svg xmlns="http://www.w3.org/2000/svg" width="320" height="240" viewBox="0 0 320 240">
  <rect width="100%" height="100%" fill="#2d1b4e" />
  <path d="M 0.0 20.0 Q 10.0 10.0 20.0 0.0" fill="none" stroke="#ff6b35" stroke-width="0.8" stroke-linecap="round" opacity="0.4" />
  <path d="M 20.0 20.0 Q 34.70228201833979 14.702282018339785 40.0 0.0" fill="none" stroke="#ff6b35" stroke-width="1.740456403667957" stroke-linecap="round" opacity="0.4" />
  <path d="M 40.0 20.0 Q 57.60845213036123 17.60845213036123 60.0 0.0" fill="none" stroke="#ff6b35" stroke-width="2.3216904260722457" stroke-linecap="round" opacity="0.4" />
  <path d="M 60.0 20.0 Q 77.60845213036123 17.60845213036123 80.0 0.0" fill="none" stroke="#ff6b35" stroke-width="2.321690426072246" stroke-linecap="round" opacity="0.4" />
  <path d="M 80.0 20.0 Q 94.70228201833979 14.702282018339787 100.0 0.0" fill="none" stroke="#ff6b35" stroke-width="1.7404564036679573" stroke-linecap="round" opacity="0.4" />
  <path d="M 100.0 20.0 Q 110.0 10.000000000000002 120.0 0.0" fill="none" stroke="#ff6b35" stroke-width="0.8000000000000003" stroke-linecap="round" opacity="0.4" />
  <path d="M 120.0 20.0 Q 125.29771798166021 5.297717981660216 140.0 0.0" fill="none" stroke="#ff6b35" stroke-width="1.7404564036679568" stroke-linecap="round" opacity="0.4" />
  <path d="M 140.0 20.0 Q 142.39154786963877 2.3915478696387718 160.0 0.0" fill="none" stroke="#ff6b35" stroke-width="2.3216904260722457" stroke-linecap="round" opacity="0.4" />
  <path d="M 160.0 20.0 Q 162.39154786963877 2.39154786963877 180.0 0.0" fill="none" stroke="#ff6b35" stroke-width="2.321690426072246" stroke-linecap="round" opacity="0.4" />
  <path d="M 180.0 20.0 Q 185.2977179816602 5.297717981660214 200.0 0.0" fill="none" stroke="#ff6b35" stroke-width="1.7404564036679573" stroke-linecap="round" opacity="0.4" />
  <path d="M 200.0 20.0 Q 210.0 9.999999999999998 220.0 0.0" fill="none" stroke="#ff6b35" stroke-width="0.8000000000000005" stroke-linecap="round" opacity="0.4" />
  <path d="M 220.0 20.0 Q 234.7022820183398 14.702282018339778 240.0 0.0" fill="none" stroke="#ff6b35" stroke-width="1.7404564036679557" stroke-linecap="round" opacity="0.4" />
  <path d="M 240.0 20.0 Q 257.60845213036123 17.60845213036123 260.0 0.0" fill="none" stroke="#ff6b35" stroke-width="2.3216904260722453" stroke-linecap="round" opacity="0.4" />
  <path d="M 260.0 20.0 Q 277.60845213036123 17.60845213036123 280.0 0.0" fill="none" stroke="#ff6b35" stroke-width="2.321690426072246" stroke-linecap="round" opacity="0.4" />
  <path d="M 280.0 20.0 Q 294.7022820183398 14.702282018339787 300.0 0.0" fill="none" stroke="#ff6b35" stroke-width="1.7404564036679575" stroke-linecap="round" opacity="0.4" />
  <path d="M 300.0 20.0 Q 310.0 10.000000000000004 320.0 0.0" fill="none" stroke="#ff6b35" stroke-width="0.8000000000000006" stroke-linecap="round" opacity="0.4" />
  <path d="M 0.0 40.0 Q 11.44654466590278 31.446544665902778 20.0 20.0" fill="none" stroke="#ff6b35" stroke-width="1.0893089331805559" stroke-linecap="round" opacity="0.4454545454545455" />
  <path d="M 20.0 40.0 Q 35.79505144544563 35.79505144544563 40.0 20.0" fill="none" stroke="#ff6b35" stroke-width="1.9590102890891263" stroke-linecap="round" opacity="0.4454545454545455" />
  <path d="M 40.0 40.0 Q 57.93004553938246 37.93004553938246 60.0 20.0" fill="none" stroke="#ff6b35" stroke-width="2.3860091078764922" stroke-linecap="round" opacity="0.4454545454545455" />
  <path d="M 60.0 40.0 Q 77.03603176960968 37.03603176960968 80.0 20.0" fill="none" stroke="#ff6b35" stroke-width="2.2072063539219364" stroke-linecap="round" opacity="0.4454545454545455" />
  <path d="M 80.0 40.0 Q 93.45449300977008 33.454493009770076 100.0 20.0" fill="none" stroke="#ff6b35" stroke-width="1.4908986019540154" stroke-linecap="round" opacity="0.4454545454545455" />
  <path d="M 100.0 40.0 Q 108.55345533409722 28.553455334097222 120.0 20.0" fill="none" stroke="#ff6b35" stroke-width="1.0893089331805554" stroke-linecap="round" opacity="0.4454545454545455" />
  <path d="M 120.0 40.0 Q 124.20494855455436 24.20494855455437 140.0 20.0" fill="none" stroke="#ff6b35" stroke-width="1.9590102890891261" stroke-linecap="round" opacity="0.4454545454545455" />
  <path d="M 140.0 40.0 Q 142.06995446061754 22.069954460617538 160.0 20.0" fill="none" stroke="#ff6b35" stroke-width="2.3860091078764922" stroke-linecap="round" opacity="0.4454545454545455" />
  <path d="M 160.0 40.0 Q 162.96396823039032 22.963968230390318 180.0 20.0" fill="none" stroke="#ff6b35" stroke-width="2.2072063539219364" stroke-linecap="round" opacity="0.4454545454545455" />
  <path d="M 180.0 40.0 Q 186.5455069902299 26.545506990229924 200.0 20.0" fill="none" stroke="#ff6b35" stroke-width="1.4908986019540156" stroke-linecap="round" opacity="0.4454545454545455" />
  <path d="M 200.0 40.0 Q 211.44654466590276 31.446544665902774 220.0 20.0" fill="none" stroke="#ff6b35" stroke-width="1.0893089331805552" stroke-linecap="round" opacity="0.4454545454545455" />
  <path d="M 220.0 40.0 Q 235.79505144544564 35.79505144544562 240.0 20.0" fill="none" stroke="#ff6b35" stroke-width="1.959010289089125" stroke-linecap="round" opacity="0.4454545454545455" />
  <path d="M 240.0 40.0 Q 257.93004553938243 37.93004553938246 260.0 20.0" fill="none" stroke="#ff6b35" stroke-width="2.3860091078764922" stroke-linecap="round" opacity="0.4454545454545455" />
  <path d="M 260.0 40.0 Q 277.0360317696097 37.036031769609686 280.0 20.0" fill="none" stroke="#ff6b35" stroke-width="2.207206353921937" stroke-linecap="round" opacity="0.4454545454545455" />
  <path d="M 280.0 40.0 Q 293.4544930097701 33.454493009770076 300.0 20.0" fill="none" stroke="#ff6b35" stroke-width="1.4908986019540158" stroke-linecap="round" opacity="0.4454545454545455" />
  <path d="M 300.0 40.0 Q 308.55345533409724 28.553455334097226 320.0 20.0" fill="none" stroke="#ff6b35" stroke-width="1.089308933180555" stroke-linecap="round" opacity="0.4454545454545455" />
  <path d="M 0.0 60.0 Q 12.845401262948258 52.84540126294826 20.0 40.0" fill="none" stroke="#ff6b35" stroke-width="1.3690802525896515" stroke-linecap="round" opacity="0.49090909090909096" />
  <path d="M 20.0 60.0 Q 36.69677608916103 56.69677608916103 40.0 40.0" fill="none" stroke="#ff6b35" stroke-width="2.1393552178322053" stroke-linecap="round" opacity="0.49090909090909096" />
  <path d="M 40.0 60.0 Q 57.99021006436188 57.99021006436188 60.0 40.0" fill="none" stroke="#ff6b35" stroke-width="2.3980420128723763" stroke-linecap="round" opacity="0.49090909090909096" />
  <path d="M 60.0 60.0 Q 76.23165537222798 56.231655372227976 80.0 40.0" fill="none" stroke="#ff6b35" stroke-width="2.046331074445596" stroke-linecap="round" opacity="0.49090909090909096" />
  <path d="M 80.0 60.0 Q 92.09282013407886 52.09282013407887 100.0 40.0" fill="none" stroke="#ff6b35" stroke-width="1.2185640268157738" stroke-linecap="round" opacity="0.49090909090909096" />
  <path d="M 100.0 60.0 Q 107.15459873705174 47.15459873705174 120.0 40.0" fill="none" stroke="#ff6b35" stroke-width="1.3690802525896515" stroke-linecap="round" opacity="0.49090909090909096" />
  <path d="M 120.0 60.0 Q 123.30322391083898 43.30322391083897 140.0 40.0" fill="none" stroke="#ff6b35" stroke-width="2.139355217832205" stroke-linecap="round" opacity="0.49090909090909096" />
  <path d="M 140.0 60.0 Q 142.0097899356381 42.00978993563812 160.0 40.0" fill="none" stroke="#ff6b35" stroke-width="2.3980420128723763" stroke-linecap="round" opacity="0.49090909090909096" />
  <path d="M 160.0 60.0 Q 163.76834462777202 43.76834462777202 180.0 40.0" fill="none" stroke="#ff6b35" stroke-width="2.0463310744455967" stroke-linecap="round" opacity="0.49090909090909096" />
  <path d="M 180.0 60.0 Q 187.90717986592114 47.90717986592113 200.0 40.0" fill="none" stroke="#ff6b35" stroke-width="1.2185640268157747" stroke-linecap="round" opacity="0.49090909090909096" />
  <path d="M 200.0 60.0 Q 212.84540126294826 52.84540126294825 220.0 40.0" fill="none" stroke="#ff6b35" stroke-width="1.3690802525896508" stroke-linecap="round" opacity="0.49090909090909096" />
  <path d="M 220.0 60.0 Q 236.696776089161 56.69677608916102 240.0 40.0" fill="none" stroke="#ff6b35" stroke-width="2.139355217832204" stroke-linecap="round" opacity="0.49090909090909096" />
  <path d="M 240.0 60.0 Q 257.99021006436186 57.99021006436188 260.0 40.0" fill="none" stroke="#ff6b35" stroke-width="2.3980420128723763" stroke-linecap="round" opacity="0.49090909090909096" />
  <path d="M 260.0 60.0 Q 276.231655372228 56.23165537222798 280.0 40.0" fill="none" stroke="#ff6b35" stroke-width="2.0463310744455967" stroke-linecap="round" opacity="0.49090909090909096" />
  <path d="M 280.0 60.0 Q 292.09282013407886 52.09282013407888 300.0 40.0" fill="none" stroke="#ff6b35" stroke-width="1.2185640268157751" stroke-linecap="round" opacity="0.49090909090909096" />
  <path d="M 300.0 60.0 Q 307.15459873705174 47.15459873705175 320.0 40.0" fill="none" stroke="#ff6b35" stroke-width="1.3690802525896504" stroke-linecap="round" opacity="0.49090909090909096" />
  <path d="M 0.0 80.0 Q 14.150453849269018 74.15045384926901 20.0 60.0" fill="none" stroke="#ff6b35" stroke-width="1.6300907698538039" stroke-linecap="round" opacity="0.5363636363636364" />
  <path d="M 20.0 80.0 Q 37.377728898594675 77.37772889859467 40.0 60.0" fill="none" stroke="#ff6b35" stroke-width="2.275545779718935" stroke-linecap="round" opacity="0.5363636363636364" />
  <path d="M 40.0 80.0 Q 57.78696226843949 77.7869622684395 60.0 60.0" fill="none" stroke="#ff6b35" stroke-width="2.357392453687898" stroke-linecap="round" opacity="0.5363636363636364" />
  <path d="M 60.0 80.0 Q 75.22184072085341 75.22184072085341 80.0 60.0" fill="none" stroke="#ff6b35" stroke-width="1.8443681441706807" stroke-linecap="round" opacity="0.5363636363636364" />
  <path d="M 80.0 80.0 Q 90.66215350173957 70.66215350173957 100.0 60.0" fill="none" stroke="#ff6b35" stroke-width="0.9324307003479139" stroke-linecap="round" opacity="0.5363636363636364" />
  <path d="M 100.0 80.0 Q 105.84954615073099 65.84954615073099 120.0 60.0" fill="none" stroke="#ff6b35" stroke-width="1.6300907698538036" stroke-linecap="round" opacity="0.5363636363636364" />
  <path d="M 120.0 80.0 Q 122.62227110140533 62.62227110140533 140.0 60.0" fill="none" stroke="#ff6b35" stroke-width="2.275545779718934" stroke-linecap="round" opacity="0.5363636363636364" />
  <path d="M 140.0 80.0 Q 142.21303773156052 62.21303773156051 160.0 60.0" fill="none" stroke="#ff6b35" stroke-width="2.357392453687898" stroke-linecap="round" opacity="0.5363636363636364" />
  <path d="M 160.0 80.0 Q 164.7781592791466 64.77815927914659 180.0 60.0" fill="none" stroke="#ff6b35" stroke-width="1.8443681441706814" stroke-linecap="round" opacity="0.5363636363636364" />
  <path d="M 180.0 80.0 Q 189.33784649826043 69.33784649826043 200.0 60.0" fill="none" stroke="#ff6b35" stroke-width="0.9324307003479149" stroke-linecap="round" opacity="0.5363636363636364" />
  <path d="M 200.0 80.0 Q 214.150453849269 74.15045384926901 220.0 60.0" fill="none" stroke="#ff6b35" stroke-width="1.630090769853803" stroke-linecap="round" opacity="0.5363636363636364" />
  <path d="M 220.0 80.0 Q 237.37772889859468 77.37772889859467 240.0 60.0" fill="none" stroke="#ff6b35" stroke-width="2.275545779718934" stroke-linecap="round" opacity="0.5363636363636364" />
  <path d="M 240.0 80.0 Q 257.7869622684395 77.7869622684395 260.0 60.0" fill="none" stroke="#ff6b35" stroke-width="2.357392453687898" stroke-linecap="round" opacity="0.5363636363636364" />
  <path d="M 260.0 80.0 Q 275.2218407208534 75.22184072085341 280.0 60.0" fill="none" stroke="#ff6b35" stroke-width="1.8443681441706816" stroke-linecap="round" opacity="0.5363636363636364" />
  <path d="M 280.0 80.0 Q 290.66215350173957 70.66215350173958 300.0 60.0" fill="none" stroke="#ff6b35" stroke-width="0.932430700347915" stroke-linecap="round" opacity="0.5363636363636364" />
  <path d="M 300.0 80.0 Q 305.849546150731 65.84954615073099 320.0 60.0" fill="none" stroke="#ff6b35" stroke-width="1.6300907698538027" stroke-linecap="round" opacity="0.5363636363636364" />
  <path d="M 0.0 100.0 Q 15.318678908850767 95.31867890885077 20.0 80.0" fill="none" stroke="#ff6b35" stroke-width="1.8637357817701536" stroke-linecap="round" opacity="0.5818181818181818" />
  <path d="M 20.0 100.0 Q 37.815460982101335 97.81546098210134 40.0 80.0" fill="none" stroke="#ff6b35" stroke-width="2.3630921964202676" stroke-linecap="round" opacity="0.5818181818181818" />
  <path d="M 40.0 100.0 Q 57.32700259793783 97.32700259793783 60.0 80.0" fill="none" stroke="#ff6b35" stroke-width="2.265400519587566" stroke-linecap="round" opacity="0.5818181818181818" />
  <path d="M 60.0 100.0 Q 74.03987825702085 94.03987825702085 80.0 80.0" fill="none" stroke="#ff6b35" stroke-width="1.6079756514041703" stroke-linecap="round" opacity="0.5818181818181818" />
  <path d="M 80.0 100.0 Q 89.2096577323336 89.2096577323336 100.0 80.0" fill="none" stroke="#ff6b35" stroke-width="0.9580684535332818" stroke-linecap="round" opacity="0.5818181818181818" />
  <path d="M 100.0 100.0 Q 104.68132109114923 84.68132109114923 120.0 80.0" fill="none" stroke="#ff6b35" stroke-width="1.8637357817701536" stroke-linecap="round" opacity="0.5818181818181818" />
  <path d="M 120.0 100.0 Q 122.18453901789866 82.18453901789866 140.0 80.0" fill="none" stroke="#ff6b35" stroke-width="2.3630921964202676" stroke-linecap="round" opacity="0.5818181818181818" />
  <path d="M 140.0 100.0 Q 142.67299740206218 82.67299740206217 160.0 80.0" fill="none" stroke="#ff6b35" stroke-width="2.265400519587566" stroke-linecap="round" opacity="0.5818181818181818" />
  <path d="M 160.0 100.0 Q 165.96012174297914 85.96012174297915 180.0 80.0" fill="none" stroke="#ff6b35" stroke-width="1.6079756514041703" stroke-linecap="round" opacity="0.5818181818181818" />
  <path d="M 180.0 100.0 Q 190.7903422676664 90.7903422676664 200.0 80.0" fill="none" stroke="#ff6b35" stroke-width="0.9580684535332817" stroke-linecap="round" opacity="0.5818181818181818" />
  <path d="M 200.0 100.0 Q 215.31867890885076 95.31867890885077 220.0 80.0" fill="none" stroke="#ff6b35" stroke-width="1.8637357817701536" stroke-linecap="round" opacity="0.5818181818181818" />
  <path d="M 220.0 100.0 Q 237.81546098210134 97.81546098210134 240.0 80.0" fill="none" stroke="#ff6b35" stroke-width="2.363092196420267" stroke-linecap="round" opacity="0.5818181818181818" />
  <path d="M 240.0 100.0 Q 257.32700259793785 97.32700259793783 260.0 80.0" fill="none" stroke="#ff6b35" stroke-width="2.2654005195875664" stroke-linecap="round" opacity="0.5818181818181818" />
  <path d="M 260.0 100.0 Q 274.03987825702086 94.03987825702086 280.0 80.0" fill="none" stroke="#ff6b35" stroke-width="1.6079756514041716" stroke-linecap="round" opacity="0.5818181818181818" />
  <path d="M 280.0 100.0 Q 289.2096577323336 89.2096577323336 300.0 80.0" fill="none" stroke="#ff6b35" stroke-width="0.9580684535332801" stroke-linecap="round" opacity="0.5818181818181818" />
  <path d="M 300.0 100.0 Q 304.68132109114924 84.68132109114924 320.0 80.0" fill="none" stroke="#ff6b35" stroke-width="1.8637357817701523" stroke-linecap="round" opacity="0.5818181818181818" />
  <path d="M 0.0 120.0 Q 16.31156370275406 116.31156370275406 20.0 100.0" fill="none" stroke="#ff6b35" stroke-width="2.062312740550812" stroke-linecap="round" opacity="0.6272727272727273" />
  <path d="M 20.0 120.0 Q 37.99554167726778 117.99554167726778 40.0 100.0" fill="none" stroke="#ff6b35" stroke-width="2.3991083354535556" stroke-linecap="round" opacity="0.6272727272727273" />
  <path d="M 40.0 120.0 Q 56.62549448953155 116.62549448953155 60.0 100.0" fill="none" stroke="#ff6b35" stroke-width="2.1250988979063097" stroke-linecap="round" opacity="0.6272727272727273" />
  <path d="M 60.0 120.0 Q 72.7247335990694 112.7247335990694 80.0 100.0" fill="none" stroke="#ff6b35" stroke-width="1.3449467198138805" stroke-linecap="round" opacity="0.6272727272727273" />
  <path d="M 80.0 120.0 Q 87.78321708405157 107.78321708405157 100.0 100.0" fill="none" stroke="#ff6b35" stroke-width="1.2433565831896856" stroke-linecap="round" opacity="0.6272727272727273" />
  <path d="M 100.0 120.0 Q 103.68843629724594 103.68843629724594 120.0 100.0" fill="none" stroke="#ff6b35" stroke-width="2.062312740550812" stroke-linecap="round" opacity="0.6272727272727273" />
  <path d="M 120.0 120.0 Q 122.00445832273222 102.00445832273222 140.0 100.0" fill="none" stroke="#ff6b35" stroke-width="2.3991083354535556" stroke-linecap="round" opacity="0.6272727272727273" />
  <path d="M 140.0 120.0 Q 143.37450551046845 103.37450551046845 160.0 100.0" fill="none" stroke="#ff6b35" stroke-width="2.1250988979063097" stroke-linecap="round" opacity="0.6272727272727273" />
  <path d="M 160.0 120.0 Q 167.2752664009306 107.27526640093059 180.0 100.0" fill="none" stroke="#ff6b35" stroke-width="1.3449467198138807" stroke-linecap="round" opacity="0.6272727272727273" />
  <path d="M 180.0 120.0 Q 192.21678291594841 112.21678291594843 200.0 100.0" fill="none" stroke="#ff6b35" stroke-width="1.2433565831896853" stroke-linecap="round" opacity="0.6272727272727273" />
  <path d="M 200.0 120.0 Q 216.31156370275406 116.31156370275406 220.0 100.0" fill="none" stroke="#ff6b35" stroke-width="2.0623127405508117" stroke-linecap="round" opacity="0.6272727272727273" />
  <path d="M 220.0 120.0 Q 237.99554167726777 117.99554167726778 240.0 100.0" fill="none" stroke="#ff6b35" stroke-width="2.3991083354535556" stroke-linecap="round" opacity="0.6272727272727273" />
  <path d="M 240.0 120.0 Q 256.62549448953155 116.62549448953155 260.0 100.0" fill="none" stroke="#ff6b35" stroke-width="2.125098897906311" stroke-linecap="round" opacity="0.6272727272727273" />
  <path d="M 260.0 120.0 Q 272.7247335990694 112.72473359906941 280.0 100.0" fill="none" stroke="#ff6b35" stroke-width="1.3449467198138823" stroke-linecap="round" opacity="0.6272727272727273" />
  <path d="M 280.0 120.0 Q 287.78321708405156 107.78321708405159 300.0 100.0" fill="none" stroke="#ff6b35" stroke-width="1.2433565831896838" stroke-linecap="round" opacity="0.6272727272727273" />
  <path d="M 300.0 120.0 Q 303.68843629724597 103.68843629724594 320.0 100.0" fill="none" stroke="#ff6b35" stroke-width="2.062312740550811" stroke-linecap="round" opacity="0.6272727272727273" />
  <path d="M 0.0 140.0 Q 17.09637591407565 137.09637591407565 20.0 120.0" fill="none" stroke="#ff6b35" stroke-width="2.2192751828151303" stroke-linecap="round" opacity="0.6727272727272727" />
  <path d="M 20.0 140.0 Q 37.91203428487316 137.91203428487316 40.0 120.0" fill="none" stroke="#ff6b35" stroke-width="2.3824068569746326" stroke-linecap="round" opacity="0.6727272727272727" />
  <path d="M 40.0 140.0 Q 55.7055644790036 135.70556447900358 60.0 120.0" fill="none" stroke="#ff6b35" stroke-width="1.9411128958007193" stroke-linecap="round" opacity="0.6727272727272727" />
  <path d="M 60.0 140.0 Q 71.31976296715874 131.31976296715874 80.0 120.0" fill="none" stroke="#ff6b35" stroke-width="1.0639525934317482" stroke-linecap="round" opacity="0.6727272727272727" />
  <path d="M 80.0 140.0 Q 86.42985685895266 126.42985685895266 100.0 120.0" fill="none" stroke="#ff6b35" stroke-width="1.5140286282094686" stroke-linecap="round" opacity="0.6727272727272727" />
  <path d="M 100.0 140.0 Q 102.90362408592435 122.90362408592435 120.0 120.0" fill="none" stroke="#ff6b35" stroke-width="2.21927518281513" stroke-linecap="round" opacity="0.6727272727272727" />
  <path d="M 120.0 140.0 Q 122.08796571512684 122.08796571512684 140.0 120.0" fill="none" stroke="#ff6b35" stroke-width="2.382406856974633" stroke-linecap="round" opacity="0.6727272727272727" />
  <path d="M 140.0 140.0 Q 144.29443552099642 124.2944355209964 160.0 120.0" fill="none" stroke="#ff6b35" stroke-width="1.9411128958007193" stroke-linecap="round" opacity="0.6727272727272727" />
  <path d="M 160.0 140.0 Q 168.68023703284126 128.68023703284126 180.0 120.0" fill="none" stroke="#ff6b35" stroke-width="1.0639525934317484" stroke-linecap="round" opacity="0.6727272727272727" />
  <path d="M 180.0 140.0 Q 193.57014314104734 133.57014314104734 200.0 120.0" fill="none" stroke="#ff6b35" stroke-width="1.5140286282094684" stroke-linecap="round" opacity="0.6727272727272727" />
  <path d="M 200.0 140.0 Q 217.09637591407565 137.09637591407565 220.0 120.0" fill="none" stroke="#ff6b35" stroke-width="2.21927518281513" stroke-linecap="round" opacity="0.6727272727272727" />
  <path d="M 220.0 140.0 Q 237.91203428487316 137.91203428487316 240.0 120.0" fill="none" stroke="#ff6b35" stroke-width="2.382406856974633" stroke-linecap="round" opacity="0.6727272727272727" />
  <path d="M 240.0 140.0 Q 255.7055644790036 135.7055644790036 260.0 120.0" fill="none" stroke="#ff6b35" stroke-width="1.9411128958007204" stroke-linecap="round" opacity="0.6727272727272727" />
  <path d="M 260.0 140.0 Q 271.31976296715874 131.31976296715874 280.0 120.0" fill="none" stroke="#ff6b35" stroke-width="1.06395259343175" stroke-linecap="round" opacity="0.6727272727272727" />
  <path d="M 280.0 140.0 Q 286.4298568589527 126.42985685895266 300.0 120.0" fill="none" stroke="#ff6b35" stroke-width="1.5140286282094668" stroke-linecap="round" opacity="0.6727272727272727" />
  <path d="M 300.0 140.0 Q 302.9036240859244 122.90362408592435 320.0 120.0" fill="none" stroke="#ff6b35" stroke-width="2.219275182815129" stroke-linecap="round" opacity="0.6727272727272727" />
  <path d="M 0.0 160.0 Q 17.64724273041248 157.64724273041247 20.0 140.0" fill="none" stroke="#ff6b35" stroke-width="2.329448546082496" stroke-linecap="round" opacity="0.7181818181818183" />
  <path d="M 20.0 160.0 Q 37.5676917833581 157.5676917833581 40.0 140.0" fill="none" stroke="#ff6b35" stroke-width="2.3135383566716197" stroke-linecap="round" opacity="0.7181818181818183" />
  <path d="M 40.0 160.0 Q 54.597539791444234 154.59753979144423 60.0 140.0" fill="none" stroke="#ff6b35" stroke-width="1.7195079582888466" stroke-linecap="round" opacity="0.7181818181818183" />
  <path d="M 60.0 160.0 Q 69.87128386382878 149.87128386382878 80.0 140.0" fill="none" stroke="#ff6b35" stroke-width="0.8257432272342454" stroke-linecap="round" opacity="0.7181818181818183" />
  <path d="M 80.0 160.0 Q 85.19419312533016 145.19419312533017 100.0 140.0" fill="none" stroke="#ff6b35" stroke-width="1.7611613749339678" stroke-linecap="round" opacity="0.7181818181818183" />
  <path d="M 100.0 160.0 Q 102.35275726958753 142.35275726958753 120.0 140.0" fill="none" stroke="#ff6b35" stroke-width="2.329448546082496" stroke-linecap="round" opacity="0.7181818181818183" />
  <path d="M 120.0 160.0 Q 122.4323082166419 142.4323082166419 140.0 140.0" fill="none" stroke="#ff6b35" stroke-width="2.31353835667162" stroke-linecap="round" opacity="0.7181818181818183" />
  <path d="M 140.0 160.0 Q 145.40246020855577 145.40246020855577 160.0 140.0" fill="none" stroke="#ff6b35" stroke-width="1.7195079582888468" stroke-linecap="round" opacity="0.7181818181818183" />
  <path d="M 160.0 160.0 Q 170.12871613617122 150.12871613617122 180.0 140.0" fill="none" stroke="#ff6b35" stroke-width="0.8257432272342453" stroke-linecap="round" opacity="0.7181818181818183" />
  <path d="M 180.0 160.0 Q 194.80580687466983 154.80580687466983 200.0 140.0" fill="none" stroke="#ff6b35" stroke-width="1.7611613749339676" stroke-linecap="round" opacity="0.7181818181818183" />
  <path d="M 200.0 160.0 Q 217.64724273041247 157.64724273041247 220.0 140.0" fill="none" stroke="#ff6b35" stroke-width="2.329448546082496" stroke-linecap="round" opacity="0.7181818181818183" />
  <path d="M 220.0 160.0 Q 237.5676917833581 157.5676917833581 240.0 140.0" fill="none" stroke="#ff6b35" stroke-width="2.3135383566716206" stroke-linecap="round" opacity="0.7181818181818183" />
  <path d="M 240.0 160.0 Q 254.59753979144423 154.59753979144423 260.0 140.0" fill="none" stroke="#ff6b35" stroke-width="1.7195079582888457" stroke-linecap="round" opacity="0.7181818181818183" />
  <path d="M 260.0 160.0 Q 269.87128386382875 149.87128386382878 280.0 140.0" fill="none" stroke="#ff6b35" stroke-width="0.8257432272342465" stroke-linecap="round" opacity="0.7181818181818183" />
  <path d="M 280.0 160.0 Q 285.1941931253302 145.19419312533014 300.0 140.0" fill="none" stroke="#ff6b35" stroke-width="1.7611613749339687" stroke-linecap="round" opacity="0.7181818181818183" />
  <path d="M 300.0 160.0 Q 302.3527572695875 142.35275726958753 320.0 140.0" fill="none" stroke="#ff6b35" stroke-width="2.329448546082496" stroke-linecap="round" opacity="0.7181818181818183" />
  <path d="M 0.0 180.0 Q 17.946003789842862 177.94600378984285 20.0 160.0" fill="none" stroke="#ff6b35" stroke-width="2.389200757968572" stroke-linecap="round" opacity="0.7636363636363637" />
  <path d="M 20.0 180.0 Q 36.97386607170629 176.97386607170628 40.0 160.0" fill="none" stroke="#ff6b35" stroke-width="2.194773214341258" stroke-linecap="round" opacity="0.7636363636363637" />
  <path d="M 40.0 180.0 Q 53.33794854716763 173.33794854716763 60.0 160.0" fill="none" stroke="#ff6b35" stroke-width="1.467589709433526" stroke-linecap="round" opacity="0.7636363636363637" />
  <path d="M 60.0 180.0 Q 68.42704813030926 168.42704813030926 80.0 160.0" fill="none" stroke="#ff6b35" stroke-width="1.114590373938147" stroke-linecap="round" opacity="0.7636363636363637" />
  <path d="M 80.0 180.0 Q 84.11696186500507 164.11696186500507 100.0 160.0" fill="none" stroke="#ff6b35" stroke-width="1.976607626998987" stroke-linecap="round" opacity="0.7636363636363637" />
  <path d="M 100.0 180.0 Q 102.05399621015714 162.05399621015715 120.0 160.0" fill="none" stroke="#ff6b35" stroke-width="2.389200757968572" stroke-linecap="round" opacity="0.7636363636363637" />
  <path d="M 120.0 180.0 Q 123.02613392829372 163.02613392829372 140.0 160.0" fill="none" stroke="#ff6b35" stroke-width="2.194773214341258" stroke-linecap="round" opacity="0.7636363636363637" />
  <path d="M 140.0 180.0 Q 146.66205145283237 166.66205145283237 160.0 160.0" fill="none" stroke="#ff6b35" stroke-width="1.4675897094335255" stroke-linecap="round" opacity="0.7636363636363637" />
  <path d="M 160.0 180.0 Q 171.57295186969074 171.57295186969074 180.0 160.0" fill="none" stroke="#ff6b35" stroke-width="1.1145903739381475" stroke-linecap="round" opacity="0.7636363636363637" />
  <path d="M 180.0 180.0 Q 195.88303813499493 175.88303813499493 200.0 160.0" fill="none" stroke="#ff6b35" stroke-width="1.9766076269989872" stroke-linecap="round" opacity="0.7636363636363637" />
  <path d="M 200.0 180.0 Q 217.94600378984285 177.94600378984285 220.0 160.0" fill="none" stroke="#ff6b35" stroke-width="2.389200757968572" stroke-linecap="round" opacity="0.7636363636363637" />
  <path d="M 220.0 180.0 Q 236.9738660717063 176.9738660717063 240.0 160.0" fill="none" stroke="#ff6b35" stroke-width="2.19477321434126" stroke-linecap="round" opacity="0.7636363636363637" />
  <path d="M 240.0 180.0 Q 253.33794854716763 173.33794854716763 260.0 160.0" fill="none" stroke="#ff6b35" stroke-width="1.4675897094335257" stroke-linecap="round" opacity="0.7636363636363637" />
  <path d="M 260.0 180.0 Q 268.4270481303093 168.42704813030926 280.0 160.0" fill="none" stroke="#ff6b35" stroke-width="1.1145903739381473" stroke-linecap="round" opacity="0.7636363636363637" />
  <path d="M 280.0 180.0 Q 284.11696186500507 164.11696186500507 300.0 160.0" fill="none" stroke="#ff6b35" stroke-width="1.9766076269989872" stroke-linecap="round" opacity="0.7636363636363637" />
  <path d="M 300.0 180.0 Q 302.05399621015715 162.05399621015715 320.0 160.0" fill="none" stroke="#ff6b35" stroke-width="2.389200757968572" stroke-linecap="round" opacity="0.7636363636363637" />
  <path d="M 0.0 200.0 Q 17.982809871454492 197.9828098714545 20.0 180.0" fill="none" stroke="#ff6b35" stroke-width="2.3965619742908983" stroke-linecap="round" opacity="0.8090909090909091" />
  <path d="M 20.0 200.0 Q 36.15013373271812 196.1501337327181 40.0 180.0" fill="none" stroke="#ff6b35" stroke-width="2.030026746543623" stroke-linecap="round" opacity="0.8090909090909091" />
  <path d="M 40.0 200.0 Q 51.96831554344068 191.96831554344067 60.0 180.0" fill="none" stroke="#ff6b35" stroke-width="1.1936631086881357" stroke-linecap="round" opacity="0.8090909090909091" />
  <path d="M 60.0 200.0 Q 67.03466771715362 187.03466771715364 80.0 180.0" fill="none" stroke="#ff6b35" stroke-width="1.3930664565692752" stroke-linecap="round" opacity="0.8090909090909091" />
  <path d="M 80.0 200.0 Q 83.23367603497657 183.23367603497658 100.0 180.0" fill="none" stroke="#ff6b35" stroke-width="2.153264793004686" stroke-linecap="round" opacity="0.8090909090909091" />
  <path d="M 100.0 200.0 Q 102.01719012854551 182.0171901285455 120.0 180.0" fill="none" stroke="#ff6b35" stroke-width="2.3965619742908983" stroke-linecap="round" opacity="0.8090909090909091" />
  <path d="M 120.0 200.0 Q 123.84986626728188 183.8498662672819 140.0 180.0" fill="none" stroke="#ff6b35" stroke-width="2.030026746543623" stroke-linecap="round" opacity="0.8090909090909091" />
  <path d="M 140.0 200.0 Q 148.03168445655933 188.03168445655933 160.0 180.0" fill="none" stroke="#ff6b35" stroke-width="1.1936631086881362" stroke-linecap="round" opacity="0.8090909090909091" />
  <path d="M 160.0 200.0 Q 172.96533228284636 192.96533228284636 180.0 180.0" fill="none" stroke="#ff6b35" stroke-width="1.393066456569275" stroke-linecap="round" opacity="0.8090909090909091" />
  <path d="M 180.0 200.0 Q 196.76632396502342 196.76632396502342 200.0 180.0" fill="none" stroke="#ff6b35" stroke-width="2.153264793004686" stroke-linecap="round" opacity="0.8090909090909091" />
  <path d="M 200.0 200.0 Q 217.9828098714545 197.9828098714545 220.0 180.0" fill="none" stroke="#ff6b35" stroke-width="2.3965619742908983" stroke-linecap="round" opacity="0.8090909090909091" />
  <path d="M 220.0 200.0 Q 236.15013373271813 196.15013373271813 240.0 180.0" fill="none" stroke="#ff6b35" stroke-width="2.030026746543625" stroke-linecap="round" opacity="0.8090909090909091" />
  <path d="M 240.0 200.0 Q 251.96831554344067 191.96831554344067 260.0 180.0" fill="none" stroke="#ff6b35" stroke-width="1.1936631086881362" stroke-linecap="round" opacity="0.8090909090909091" />
  <path d="M 260.0 200.0 Q 267.03466771715364 187.03466771715364 280.0 180.0" fill="none" stroke="#ff6b35" stroke-width="1.3930664565692747" stroke-linecap="round" opacity="0.8090909090909091" />
  <path d="M 280.0 200.0 Q 283.23367603497655 183.23367603497658 300.0 180.0" fill="none" stroke="#ff6b35" stroke-width="2.153264793004686" stroke-linecap="round" opacity="0.8090909090909091" />
  <path d="M 300.0 200.0 Q 302.0171901285455 182.0171901285455 320.0 180.0" fill="none" stroke="#ff6b35" stroke-width="2.3965619742908983" stroke-linecap="round" opacity="0.8090909090909091" />
  <path d="M 0.0 220.0 Q 17.75644759345859 217.7564475934586 20.0 200.0" fill="none" stroke="#ff6b35" stroke-width="2.351289518691718" stroke-linecap="round" opacity="0.8545454545454545" />
  <path d="M 20.0 220.0 Q 35.12365065409451 215.12365065409452 40.0 200.0" fill="none" stroke="#ff6b35" stroke-width="1.8247301308189028" stroke-linecap="round" opacity="0.8545454545454545" />
  <path d="M 40.0 220.0 Q 50.53379331134696 210.53379331134695 60.0 200.0" fill="none" stroke="#ff6b35" stroke-width="0.906758662269393" stroke-linecap="round" opacity="0.8545454545454545" />
  <path d="M 60.0 220.0 Q 65.74004506663223 205.74004506663223 80.0 200.0" fill="none" stroke="#ff6b35" stroke-width="1.651990986673554" stroke-linecap="round" opacity="0.8545454545454545" />
  <path d="M 80.0 220.0 Q 82.5734548159212 202.5734548159212 100.0 200.0" fill="none" stroke="#ff6b35" stroke-width="2.285309036815762" stroke-linecap="round" opacity="0.8545454545454545" />
  <path d="M 100.0 220.0 Q 102.24355240654141 202.2435524065414 120.0 200.0" fill="none" stroke="#ff6b35" stroke-width="2.351289518691718" stroke-linecap="round" opacity="0.8545454545454545" />
  <path d="M 120.0 220.0 Q 124.87634934590548 204.87634934590548 140.0 200.0" fill="none" stroke="#ff6b35" stroke-width="1.824730130818903" stroke-linecap="round" opacity="0.8545454545454545" />
  <path d="M 140.0 220.0 Q 149.46620668865305 209.46620668865305 160.0 200.0" fill="none" stroke="#ff6b35" stroke-width="0.9067586622693932" stroke-linecap="round" opacity="0.8545454545454545" />
  <path d="M 160.0 220.0 Q 174.25995493336777 214.25995493336777 180.0 200.0" fill="none" stroke="#ff6b35" stroke-width="1.651990986673554" stroke-linecap="round" opacity="0.8545454545454545" />
  <path d="M 180.0 220.0 Q 197.4265451840788 217.4265451840788 200.0 200.0" fill="none" stroke="#ff6b35" stroke-width="2.285309036815762" stroke-linecap="round" opacity="0.8545454545454545" />
  <path d="M 200.0 220.0 Q 217.7564475934586 217.7564475934586 220.0 200.0" fill="none" stroke="#ff6b35" stroke-width="2.351289518691718" stroke-linecap="round" opacity="0.8545454545454545" />
  <path d="M 220.0 220.0 Q 235.12365065409452 215.12365065409452 240.0 200.0" fill="none" stroke="#ff6b35" stroke-width="1.8247301308189052" stroke-linecap="round" opacity="0.8545454545454545" />
  <path d="M 240.0 220.0 Q 250.53379331134695 210.53379331134695 260.0 200.0" fill="none" stroke="#ff6b35" stroke-width="0.9067586622693934" stroke-linecap="round" opacity="0.8545454545454545" />
  <path d="M 260.0 220.0 Q 265.7400450666322 205.74004506663223 280.0 200.0" fill="none" stroke="#ff6b35" stroke-width="1.6519909866735538" stroke-linecap="round" opacity="0.8545454545454545" />
  <path d="M 280.0 220.0 Q 282.5734548159212 202.5734548159212 300.0 200.0" fill="none" stroke="#ff6b35" stroke-width="2.285309036815762" stroke-linecap="round" opacity="0.8545454545454545" />
  <path d="M 300.0 220.0 Q 302.2435524065414 202.2435524065414 320.0 200.0" fill="none" stroke="#ff6b35" stroke-width="2.351289518691718" stroke-linecap="round" opacity="0.8545454545454545" />
  <path d="M 0.0 240.0 Q 17.274379414605455 237.27437941460545 20.0 220.0" fill="none" stroke="#ff6b35" stroke-width="2.254875882921091" stroke-linecap="round" opacity="0.9" />
  <path d="M 20.0 240.0 Q 33.92825678346248 233.92825678346247 40.0 220.0" fill="none" stroke="#ff6b35" stroke-width="1.5856513566924961" stroke-linecap="round" opacity="0.9" />
  <path d="M 40.0 240.0 Q 49.08167357757418 229.08167357757418 60.0 220.0" fill="none" stroke="#ff6b35" stroke-width="0.9836652844851649" stroke-linecap="round" opacity="0.9" />
  <path d="M 60.0 240.0 Q 64.58585985228544 224.58585985228544 80.0 220.0" fill="none" stroke="#ff6b35" stroke-width="1.8828280295429116" stroke-linecap="round" opacity="0.9" />
  <path d="M 80.0 240.0 Q 82.1580636435683 222.15806364356828 100.0 220.0" fill="none" stroke="#ff6b35" stroke-width="2.368387271286341" stroke-linecap="round" opacity="0.9" />
  <path d="M 100.0 240.0 Q 102.72562058539455 222.72562058539455 120.0 220.0" fill="none" stroke="#ff6b35" stroke-width="2.254875882921091" stroke-linecap="round" opacity="0.9" />
  <path d="M 120.0 240.0 Q 126.07174321653751 226.07174321653753 140.0 220.0" fill="none" stroke="#ff6b35" stroke-width="1.5856513566924963" stroke-linecap="round" opacity="0.9" />
  <path d="M 140.0 240.0 Q 150.91832642242582 230.91832642242582 160.0 220.0" fill="none" stroke="#ff6b35" stroke-width="0.9836652844851648" stroke-linecap="round" opacity="0.9" />
  <path d="M 160.0 240.0 Q 175.41414014771456 235.41414014771456 180.0 220.0" fill="none" stroke="#ff6b35" stroke-width="1.8828280295429114" stroke-linecap="round" opacity="0.9" />
  <path d="M 180.0 240.0 Q 197.84193635643172 237.84193635643172 200.0 220.0" fill="none" stroke="#ff6b35" stroke-width="2.368387271286341" stroke-linecap="round" opacity="0.9" />
  <path d="M 200.0 240.0 Q 217.27437941460545 237.27437941460545 220.0 220.0" fill="none" stroke="#ff6b35" stroke-width="2.254875882921091" stroke-linecap="round" opacity="0.9" />
  <path d="M 220.0 240.0 Q 233.92825678346247 233.92825678346247 240.0 220.0" fill="none" stroke="#ff6b35" stroke-width="1.5856513566924963" stroke-linecap="round" opacity="0.9" />
  <path d="M 240.0 240.0 Q 249.08167357757418 229.08167357757418 260.0 220.0" fill="none" stroke="#ff6b35" stroke-width="0.9836652844851645" stroke-linecap="round" opacity="0.9" />
  <path d="M 260.0 240.0 Q 264.58585985228547 224.58585985228544 280.0 220.0" fill="none" stroke="#ff6b35" stroke-width="1.8828280295429114" stroke-linecap="round" opacity="0.9" />
  <path d="M 280.0 240.0 Q 282.1580636435683 222.15806364356828 300.0 220.0" fill="none" stroke="#ff6b35" stroke-width="2.368387271286341" stroke-linecap="round" opacity="0.9" />
  <path d="M 300.0 240.0 Q 302.72562058539455 222.72562058539455 320.0 220.0" fill="none" stroke="#ff6b35" stroke-width="2.254875882921091" stroke-linecap="round" opacity="0.9" />
</svg>