<?xml version="1.0" encoding="UTF-8"?>
<svg xmlns="http://www.w3.org/2000/svg" width="308" height="220" viewBox="0 0 308 220">
  <rect width="100%" height="100%" fill="#1a2e1a" />
  <rect x="6.6" y="2.2" width="8.8" height="17.6" fill="#4ade80" fill-opacity="0.3" stroke-opacity="0.3" />
  <rect x="28.4308" y="2.36923" width="9.13846" height="17.2615" fill="#fbbf24" fill-opacity="0.323077" stroke-opacity="0.323077" transform="rotate(1.73077 33 11)" />
  <rect x="50.2615" y="2.53846" width="9.47692" height="16.9231" fill="#4ade80" fill-opacity="0.346154" stroke-opacity="0.346154" transform="rotate(3.46154 55 11)" />
  <rect x="72.0923" y="2.70769" width="9.81538" height="16.5846" fill="#fbbf24" fill-opacity="0.369231" stroke-opacity="0.369231" transform="rotate(5.19231 77 11)" />
  <rect x="93.9231" y="2.87692" width="10.1538" height="16.2462" fill="#4ade80" fill-opacity="0.392308" stroke-opacity="0.392308" transform="rotate(6.92308 99 11)" />
  <rect x="115.754" y="3.04615" width="10.4923" height="15.9077" fill="#fbbf24" fill-opacity="0.415385" stroke-opacity="0.415385" transform="rotate(8.65385 121 11)" />
  <rect x="137.585" y="3.21538" width="10.8308" height="15.5692" fill="#4ade80" fill-opacity="0.438462" stroke-opacity="0.438462" transform="rotate(10.3846 143 11)" />
  <rect x="159.415" y="3.38462" width="11.1692" height="15.2308" fill="#fbbf24" fill-opacity="0.461538" stroke-opacity="0.461538" transform="rotate(12.1154 165 11)" />
  <rect x="181.246" y="3.55385" width="11.5077" height="14.8923" fill="#4ade80" fill-opacity="0.484615" stroke-opacity="0.484615" transform="rotate(13.8462 187 11)" />
  <rect x="203.077" y="3.72308" width="11.8462" height="14.5538" fill="#fbbf24" fill-opacity="0.507692" stroke-opacity="0.507692" transform="rotate(15.5769 209 11)" />
  <rect x="224.908" y="3.89231" width="12.1846" height="14.2154" fill="#4ade80" fill-opacity="0.530769" stroke-opacity="0.530769" transform="rotate(17.3077 231 11)" />
  <rect x="246.738" y="4.06154" width="12.5231" height="13.8769" fill="#fbbf24" fill-opacity="0.553846" stroke-opacity="0.553846" transform="rotate(19.0385 253 11)" />
  <rect x="268.569" y="4.23077" width="12.8615" height="13.5385" fill="#4ade80" fill-opacity="0.576923" stroke-opacity="0.576923" transform="rotate(20.7692 275 11)" />
  <rect x="290.4" y="4.4" width="13.2" height="13.2" fill="#fbbf24" fill-opacity="0.6" stroke-opacity="0.6" transform="rotate(22.5 297 11)" />
  <rect x="6.35556" y="24.4444" width="9.28889" height="17.1111" fill="#fbbf24" fill-opacity="0.333333" stroke-opacity="0.333333" transform="rotate(2.5 11 33)" />
  <rect x="28.1863" y="24.6137" width="9.62735" height="16.7726" fill="#4ade80" fill-opacity="0.35641" stroke-opacity="0.35641" transform="rotate(4.23077 33 33)" />
  <rect x="50.0171" y="24.7829" width="9.96581" height="16.4342" fill="#fbbf24" fill-opacity="0.379487" stroke-opacity="0.379487" transform="rotate(5.96154 55 33)" />
  <rect x="71.8479" y="24.9521" width="10.3043" height="16.0957" fill="#4ade80" fill-opacity="0.402564" stroke-opacity="0.402564" transform="rotate(7.69231 77 33)" />
  <rect x="93.6786" y="25.1214" width="10.6427" height="15.7573" fill="#fbbf24" fill-opacity="0.425641" stroke-opacity="0.425641" transform="rotate(9.42308 99 33)" />
  <rect x="115.509" y="25.2906" width="10.9812" height="15.4188" fill="#4ade80" fill-opacity="0.448718" stroke-opacity="0.448718" transform="rotate(11.1538 121 33)" />
  <rect x="137.34" y="25.4598" width="11.3197" height="15.0803" fill="#fbbf24" fill-opacity="0.471795" stroke-opacity="0.471795" transform="rotate(12.8846 143 33)" />
  <rect x="159.171" y="25.6291" width="11.6581" height="14.7419" fill="#4ade80" fill-opacity="0.494872" stroke-opacity="0.494872" transform="rotate(14.6154 165 33)" />
  <rect x="181.002" y="25.7983" width="11.9966" height="14.4034" fill="#fbbf24" fill-opacity="0.517949" stroke-opacity="0.517949" transform="rotate(16.3462 187 33)" />
  <rect x="202.832" y="25.9675" width="12.335" height="14.065" fill="#4ade80" fill-opacity="0.541026" stroke-opacity="0.541026" transform="rotate(18.0769 209 33)" />
  <rect x="224.663" y="26.1368" width="12.6735" height="13.7265" fill="#fbbf24" fill-opacity="0.564103" stroke-opacity="0.564103" transform="rotate(19.8077 231 33)" />
  <rect x="246.494" y="26.306" width="13.012" height="13.388" fill="#4ade80" fill-opacity="0.587179" stroke-opacity="0.587179" transform="rotate(21.5385 253 33)" />
  <rect x="268.325" y="26.4752" width="13.3504" height="13.0496" fill="#fbbf24" fill-opacity="0.610256" stroke-opacity="0.610256" transform="rotate(23.2692 275 33)" />
  <rect x="290.156" y="26.6444" width="13.6889" height="12.7111" fill="#4ade80" fill-opacity="0.633333" stroke-opacity="0.633333" transform="rotate(25 297 33)" />
  <rect x="6.11111" y="46.6889" width="9.77778" height="16.6222" fill="#4ade80" fill-opacity="0.366667" stroke-opacity="0.366667" transform="rotate(5 11 55)" />
  <rect x="27.9419" y="46.8581" width="10.1162" height="16.2838" fill="#fbbf24" fill-opacity="0.389744" stroke-opacity="0.389744" transform="rotate(6.73077 33 55)" />
  <rect x="49.7726" y="47.0274" width="10.4547" height="15.9453" fill="#4ade80" fill-opacity="0.412821" stroke-opacity="0.412821" transform="rotate(8.46154 55 55)" />
  <rect x="71.6034" y="47.1966" width="10.7932" height="15.6068" fill="#fbbf24" fill-opacity="0.435897" stroke-opacity="0.435897" transform="rotate(10.1923 77 55)" />
  <rect x="93.4342" y="47.3658" width="11.1316" height="15.2684" fill="#4ade80" fill-opacity="0.458974" stroke-opacity="0.458974" transform="rotate(11.9231 99 55)" />
  <rect x="115.265" y="47.535" width="11.4701" height="14.9299" fill="#fbbf24" fill-opacity="0.482051" stroke-opacity="0.482051" transform="rotate(13.6538 121 55)" />
  <rect x="137.096" y="47.7043" width="11.8085" height="14.5915" fill="#4ade80" fill-opacity="0.505128" stroke-opacity="0.505128" transform="rotate(15.3846 143 55)" />
  <rect x="158.926" y="47.8735" width="12.147" height="14.253" fill="#fbbf24" fill-opacity="0.528205" stroke-opacity="0.528205" transform="rotate(17.1154 165 55)" />
  <rect x="180.757" y="48.0427" width="12.4855" height="13.9145" fill="#4ade80" fill-opacity="0.551282" stroke-opacity="0.551282" transform="rotate(18.8462 187 55)" />
  <rect x="202.588" y="48.212" width="12.8239" height="13.5761" fill="#fbbf24" fill-opacity="0.574359" stroke-opacity="0.574359" transform="rotate(20.5769 209 55)" />
  <rect x="224.419" y="48.3812" width="13.1624" height="13.2376" fill="#4ade80" fill-opacity="0.597436" stroke-opacity="0.597436" transform="rotate(22.3077 231 55)" />
  <rect x="246.25" y="48.5504" width="13.5009" height="12.8991" fill="#fbbf24" fill-opacity="0.620513" stroke-opacity="0.620513" transform="rotate(24.0385 253 55)" />
  <rect x="268.08" y="48.7197" width="13.8393" height="12.5607" fill="#4ade80" fill-opacity="0.64359" stroke-opacity="0.64359" transform="rotate(25.7692 275 55)" />
  <rect x="289.911" y="48.8889" width="14.1778" height="12.2222" fill="#fbbf24" fill-opacity="0.666667" stroke-opacity="0.666667" transform="rotate(27.5 297 55)" />
  <rect x="5.86667" y="68.9333" width="10.2667" height="16.1333" fill="#fbbf24" fill-opacity="0.4" stroke-opacity="0.4" transform="rotate(7.5 11 77)" />
  <rect x="27.6974" y="69.1026" width="10.6051" height="15.7949" fill="#4ade80" fill-opacity="0.423077" stroke-opacity="0.423077" transform="rotate(9.23077 33 77)" />
  <rect x="49.5282" y="69.2718" width="10.9436" height="15.4564" fill="#fbbf24" fill-opacity="0.446154" stroke-opacity="0.446154" transform="rotate(10.9615 55 77)" />
  <rect x="71.359" y="69.441" width="11.2821" height="15.1179" fill="#4ade80" fill-opacity="0.469231" stroke-opacity="0.469231" transform="rotate(12.6923 77 77)" />
  <rect x="93.1897" y="69.6103" width="11.6205" height="14.7795" fill="#fbbf24" fill-opacity="0.492308" stroke-opacity="0.492308" transform="rotate(14.4231 99 77)" />
  <rect x="115.021" y="69.7795" width="11.959" height="14.441" fill="#4ade80" fill-opacity="0.515385" stroke-opacity="0.515385" transform="rotate(16.1538 121 77)" />
  <rect x="136.851" y="69.9487" width="12.2974" height="14.1026" fill="#fbbf24" fill-opacity="0.538462" stroke-opacity="0.538462" transform="rotate(17.8846 143 77)" />
  <rect x="158.682" y="70.1179" width="12.6359" height="13.7641" fill="#4ade80" fill-opacity="0.561538" stroke-opacity="0.561538" transform="rotate(19.6154 165 77)" />
  <rect x="180.513" y="70.2872" width="12.9744" height="13.4256" fill="#fbbf24" fill-opacity="0.584615" stroke-opacity="0.584615" transform="rotate(21.3462 187 77)" />
  <rect x="202.344" y="70.4564" width="13.3128" height="13.0872" fill="#4ade80" fill-opacity="0.607692" stroke-opacity="0.607692" transform="rotate(23.0769 209 77)" />
  <rect x="224.174" y="70.6256" width="13.6513" height="12.7487" fill="#fbbf24" fill-opacity="0.630769" stroke-opacity="0.630769" transform="rotate(24.8077 231 77)" />
  <rect x="246.005" y="70.7949" width="13.9897" height="12.4103" fill="#4ade80" fill-opacity="0.653846" stroke-opacity="0.653846" transform="rotate(26.5385 253 77)" />
  <rect x="267.836" y="70.9641" width="14.3282" height="12.0718" fill="#fbbf24" fill-opacity="0.676923" stroke-opacity="0.676923" transform="rotate(28.2692 275 77)" />
  <rect x="289.667" y="71.1333" width="14.6667" height="11.7333" fill="#4ade80" fill-opacity="0.7" stroke-opacity="0.7" transform="rotate(30 297 77)" />
  <rect x="5.62222" y="91.1778" width="10.7556" height="15.6444" fill="#4ade80" fill-opacity="0.433333" stroke-opacity="0.433333" transform="rotate(10 11 99)" />
  <rect x="27.453" y="91.347" width="11.094" height="15.306" fill="#fbbf24" fill-opacity="0.45641" stroke-opacity="0.45641" transform="rotate(11.7308 33 99)" />
  <rect x="49.2838" y="91.5162" width="11.4325" height="14.9675" fill="#4ade80" fill-opacity="0.479487" stroke-opacity="0.479487" transform="rotate(13.4615 55 99)" />
  <rect x="71.1145" y="91.6855" width="11.7709" height="14.6291" fill="#fbbf24" fill-opacity="0.502564" stroke-opacity="0.502564" transform="rotate(15.1923 77 99)" />
  <rect x="92.9453" y="91.8547" width="12.1094" height="14.2906" fill="#4ade80" fill-opacity="0.525641" stroke-opacity="0.525641" transform="rotate(16.9231 99 99)" />
  <rect x="114.776" y="92.0239" width="12.4479" height="13.9521" fill="#fbbf24" fill-opacity="0.548718" stroke-opacity="0.548718" transform="rotate(18.6538 121 99)" />
  <rect x="136.607" y="92.1932" width="12.7863" height="13.6137" fill="#4ade80" fill-opacity="0.571795" stroke-opacity="0.571795" transform="rotate(20.3846 143 99)" />
  <rect x="158.438" y="92.3624" width="13.1248" height="13.2752" fill="#fbbf24" fill-opacity="0.594872" stroke-opacity="0.594872" transform="rotate(22.1154 165 99)" />
  <rect x="180.268" y="92.5316" width="13.4632" height="12.9368" fill="#4ade80" fill-opacity="0.617949" stroke-opacity="0.617949" transform="rotate(23.8462 187 99)" />
  <rect x="202.099" y="92.7009" width="13.8017" height="12.5983" fill="#fbbf24" fill-opacity="0.641026" stroke-opacity="0.641026" transform="rotate(25.5769 209 99)" />
  <rect x="223.93" y="92.8701" width="14.1402" height="12.2598" fill="#4ade80" fill-opacity="0.664103" stroke-opacity="0.664103" transform="rotate(27.3077 231 99)" />
  <rect x="245.761" y="93.0393" width="14.4786" height="11.9214" fill="#fbbf24" fill-opacity="0.687179" stroke-opacity="0.687179" transform="rotate(29.0385 253 99)" />
  <rect x="267.591" y="93.2085" width="14.8171" height="11.5829" fill="#4ade80" fill-opacity="0.710256" stroke-opacity="0.710256" transform="rotate(30.7692 275 99)" />
  <rect x="289.422" y="93.3778" width="15.1556" height="11.2444" fill="#fbbf24" fill-opacity="0.733333" stroke-opacity="0.733333" transform="rotate(32.5 297 99)" />
  <rect x="5.37778" y="113.422" width="11.2444" height="15.1556" fill="#fbbf24" fill-opacity="0.466667" stroke-opacity="0.466667" transform="rotate(12.5 11 121)" />
  <rect x="27.2085" y="113.591" width="11.5829" height="14.8171" fill="#4ade80" fill-opacity="0.489744" stroke-opacity="0.489744" transform="rotate(14.2308 33 121)" />
  <rect x="49.0393" y="113.761" width="11.9214" height="14.4786" fill="#fbbf24" fill-opacity="0.512821" stroke-opacity="0.512821" transform="rotate(15.9615 55 121)" />
  <rect x="70.8701" y="113.93" width="12.2598" height="14.1402" fill="#4ade80" fill-opacity="0.535897" stroke-opacity="0.535897" transform="rotate(17.6923 77 121)" />
  <rect x="92.7009" y="114.099" width="12.5983" height="13.8017" fill="#fbbf24" fill-opacity="0.558974" stroke-opacity="0.558974" transform="rotate(19.4231 99 121)" />
  <rect x="114.532" y="114.268" width="12.9368" height="13.4632" fill="#4ade80" fill-opacity="0.582051" stroke-opacity="0.582051" transform="rotate(21.1538 121 121)" />
  <rect x="136.362" y="114.438" width="13.2752" height="13.1248" fill="#fbbf24" fill-opacity="0.605128" stroke-opacity="0.605128" transform="rotate(22.8846 143 121)" />
  <rect x="158.193" y="114.607" width="13.6137" height="12.7863" fill="#4ade80" fill-opacity="0.628205" stroke-opacity="0.628205" transform="rotate(24.6154 165 121)" />
  <rect x="180.024" y="114.776" width="13.9521" height="12.4479" fill="#fbbf24" fill-opacity="0.651282" stroke-opacity="0.651282" transform="rotate(26.3462 187 121)" />
  <rect x="201.855" y="114.945" width="14.2906" height="12.1094" fill="#4ade80" fill-opacity="0.674359" stroke-opacity="0.674359" transform="rotate(28.0769 209 121)" />
  <rect x="223.685" y="115.115" width="14.6291" height="11.7709" fill="#fbbf24" fill-opacity="0.697436" stroke-opacity="0.697436" transform="rotate(29.8077 231 121)" />
  <rect x="245.516" y="115.284" width="14.9675" height="11.4325" fill="#4ade80" fill-opacity="0.720513" stroke-opacity="0.720513" transform="rotate(31.5385 253 121)" />
  <rect x="267.347" y="115.453" width="15.306" height="11.094" fill="#fbbf24" fill-opacity="0.74359" stroke-opacity="0.74359" transform="rotate(33.2692 275 121)" />
  <rect x="289.178" y="115.622" width="15.6444" height="10.7556" fill="#4ade80" fill-opacity="0.766667" stroke-opacity="0.766667" transform="rotate(35 297 121)" />
  <rect x="5.13333" y="135.667" width="11.7333" height="14.6667" fill="#4ade80" fill-opacity="0.5" stroke-opacity="0.5" transform="rotate(15 11 143)" />
  <rect x="26.9641" y="135.836" width="12.0718" height="14.3282" fill="#fbbf24" fill-opacity="0.523077" stroke-opacity="0.523077" transform="rotate(16.7308 33 143)" />
  <rect x="48.7949" y="136.005" width="12.4103" height="13.9897" fill="#4ade80" fill-opacity="0.546154" stroke-opacity="0.546154" transform="rotate(18.4615 55 143)" />
  <rect x="70.6256" y="136.174" width="12.7487" height="13.6513" fill="#fbbf24" fill-opacity="0.569231" stroke-opacity="0.569231" transform="rotate(20.1923 77 143)" />
  <rect x="92.4564" y="136.344" width="13.0872" height="13.3128" fill="#4ade80" fill-opacity="0.592308" stroke-opacity="0.592308" transform="rotate(21.9231 99 143)" />
  <rect x="114.287" y="136.513" width="13.4256" height="12.9744" fill="#fbbf24" fill-opacity="0.615385" stroke-opacity="0.615385" transform="rotate(23.6538 121 143)" />
  <rect x="136.118" y="136.682" width="13.7641" height="12.6359" fill="#4ade80" fill-opacity="0.638462" stroke-opacity="0.638462" transform="rotate(25.3846 143 143)" />
  <rect x="157.949" y="136.851" width="14.1026" height="12.2974" fill="#fbbf24" fill-opacity="0.661538" stroke-opacity="0.661538" transform="rotate(27.1154 165 143)" />
  <rect x="179.779" y="137.021" width="14.441" height="11.959" fill="#4ade80" fill-opacity="0.684615" stroke-opacity="0.684615" transform="rotate(28.8462 187 143)" />
  <rect x="201.61" y="137.19" width="14.7795" height="11.6205" fill="#fbbf24" fill-opacity="0.707692" stroke-opacity="0.707692" transform="rotate(30.5769 209 143)" />
  <rect x="223.441" y="137.359" width="15.1179" height="11.2821" fill="#4ade80" fill-opacity="0.730769" stroke-opacity="0.730769" transform="rotate(32.3077 231 143)" />
  <rect x="245.272" y="137.528" width="15.4564" height="10.9436" fill="#fbbf24" fill-opacity="0.753846" stroke-opacity="0.753846" transform="rotate(34.0385 253 143)" />
  <rect x="267.103" y="137.697" width="15.7949" height="10.6051" fill="#4ade80" fill-opacity="0.776923" stroke-opacity="0.776923" transform="rotate(35.7692 275 143)" />
  <rect x="288.933" y="137.867" width="16.1333" height="10.2667" fill="#fbbf24" fill-opacity="0.8" stroke-opacity="0.8" transform="rotate(37.5 297 143)" />
  <rect x="4.88889" y="157.911" width="12.2222" height="14.1778" fill="#fbbf24" fill-opacity="0.533333" stroke-opacity="0.533333" transform="rotate(17.5 11 165)" />
  <rect x="26.7197" y="158.08" width="12.5607" height="13.8393" fill="#4ade80" fill-opacity="0.55641" stroke-opacity="0.55641" transform="rotate(19.2308 33 165)" />
  <rect x="48.5504" y="158.25" width="12.8991" height="13.5009" fill="#fbbf24" fill-opacity="0.579487" stroke-opacity="0.579487" transform="rotate(20.9615 55 165)" />
  <rect x="70.3812" y="158.419" width="13.2376" height="13.1624" fill="#4ade80" fill-opacity="0.602564" stroke-opacity="0.602564" transform="rotate(22.6923 77 165)" />
  <rect x="92.212" y="158.588" width="13.5761" height="12.8239" fill="#fbbf24" fill-opacity="0.625641" stroke-opacity="0.625641" transform="rotate(24.4231 99 165)" />
  <rect x="114.043" y="158.757" width="13.9145" height="12.4855" fill="#4ade80" fill-opacity="0.648718" stroke-opacity="0.648718" transform="rotate(26.1538 121 165)" />
  <rect x="135.874" y="158.926" width="14.253" height="12.147" fill="#fbbf24" fill-opacity="0.671795" stroke-opacity="0.671795" transform="rotate(27.8846 143 165)" />
  <rect x="157.704" y="159.096" width="14.5915" height="11.8085" fill="#4ade80" fill-opacity="0.694872" stroke-opacity="0.694872" transform="rotate(29.6154 165 165)" />
  <rect x="179.535" y="159.265" width="14.9299" height="11.4701" fill="#fbbf24" fill-opacity="0.717949" stroke-opacity="0.717949" transform="rotate(31.3462 187 165)" />
  <rect x="201.366" y="159.434" width="15.2684" height="11.1316" fill="#4ade80" fill-opacity="0.741026" stroke-opacity="0.741026" transform="rotate(33.0769 209 165)" />
  <rect x="223.197" y="159.603" width="15.6068" height="10.7932" fill="#fbbf24" fill-opacity="0.764103" stroke-opacity="0.764103" transform="rotate(34.8077 231 165)" />
  <rect x="245.027" y="159.773" width="15.9453" height="10.4547" fill="#4ade80" fill-opacity="0.787179" stroke-opacity="0.787179" transform="rotate(36.5385 253 165)" />
  <rect x="266.858" y="159.942" width="16.2838" height="10.1162" fill="#fbbf24" fill-opacity="0.810256" stroke-opacity="0.810256" transform="rotate(38.2692 275 165)" />
  <rect x="288.689" y="160.111" width="16.6222" height="9.77778" fill="#4ade80" fill-opacity="0.833333" stroke-opacity="0.833333" transform="rotate(40 297 165)" />
  <rect x="4.64444" y="180.156" width="12.7111" height="13.6889" fill="#4ade80" fill-opacity="0.566667" stroke-opacity="0.566667" transform="rotate(20 11 187)" />
  <rect x="26.4752" y="180.325" width="13.0496" height="13.3504" fill="#fbbf24" fill-opacity="0.589744" stroke-opacity="0.589744" transform="rotate(21.7308 33 187)" />
  <rect x="48.306" y="180.494" width="13.388" height="13.012" fill="#4ade80" fill-opacity="0.612821" stroke-opacity="0.612821" transform="rotate(23.4615 55 187)" />
  <rect x="70.1368" y="180.663" width="13.7265" height="12.6735" fill="#fbbf24" fill-opacity="0.635897" stroke-opacity="0.635897" transform="rotate(25.1923 77 187)" />
  <rect x="91.9675" y="180.832" width="14.065" height="12.335" fill="#4ade80" fill-opacity="0.658974" stroke-opacity="0.658974" transform="rotate(26.9231 99 187)" />
  <rect x="113.798" y="181.002" width="14.4034" height="11.9966" fill="#fbbf24" fill-opacity="0.682051" stroke-opacity="0.682051" transform="rotate(28.6538 121 187)" />
  <rect x="135.629" y="181.171" width="14.7419" height="11.6581" fill="#4ade80" fill-opacity="0.705128" stroke-opacity="0.705128" transform="rotate(30.3846 143 187)" />
  <rect x="157.46" y="181.34" width="15.0803" height="11.3197" fill="#fbbf24" fill-opacity="0.728205" stroke-opacity="0.728205" transform="rotate(32.1154 165 187)" />
  <rect x="179.291" y="181.509" width="15.4188" height="10.9812" fill="#4ade80" fill-opacity="0.751282" stroke-opacity="0.751282" transform="rotate(33.8462 187 187)" />
  <rect x="201.121" y="181.679" width="15.7573" height="10.6427" fill="#fbbf24" fill-opacity="0.774359" stroke-opacity="0.774359" transform="rotate(35.5769 209 187)" />
  <rect x="222.952" y="181.848" width="16.0957" height="10.3043" fill="#4ade80" fill-opacity="0.797436" stroke-opacity="0.797436" transform="rotate(37.3077 231 187)" />
  <rect x="244.783" y="182.017" width="16.4342" height="9.96581" fill="#fbbf24" fill-opacity="0.820513" stroke-opacity="0.820513" transform="rotate(39.0385 253 187)" />
  <rect x="266.614" y="182.186" width="16.7726" height="9.62735" fill="#4ade80" fill-opacity="0.84359" stroke-opacity="0.84359" transform="rotate(40.7692 275 187)" />
  <rect x="288.444" y="182.356" width="17.1111" height="9.28889" fill="#fbbf24" fill-opacity="0.866667" stroke-opacity="0.866667" transform="rotate(42.5 297 187)" />
  <rect x="4.4" y="202.4" width="13.2" height="13.2" fill="#fbbf24" fill-opacity="0.6" stroke-opacity="0.6" transform="rotate(22.5 11 209)" />
  <rect x="26.2308" y="202.569" width="13.5385" height="12.8615" fill="#4ade80" fill-opacity="0.623077" stroke-opacity="0.623077" transform="rotate(24.2308 33 209)" />
  <rect x="48.0615" y="202.738" width="13.8769" height="12.5231" fill="#fbbf24" fill-opacity="0.646154" stroke-opacity="0.646154" transform="rotate(25.9615 55 209)" />
  <rect x="69.8923" y="202.908" width="14.2154" height="12.1846" fill="#4ade80" fill-opacity="0.669231" stroke-opacity="0.669231" transform="rotate(27.6923 77 209)" />
  <rect x="91.7231" y="203.077" width="14.5538" height="11.8462" fill="#fbbf24" fill-opacity="0.692308" stroke-opacity="0.692308" transform="rotate(29.4231 99 209)" />
  <rect x="113.554" y="203.246" width="14.8923" height="11.5077" fill="#4ade80" fill-opacity="0.715385" stroke-opacity="0.715385" transform="rotate(31.1538 121 209)" />
  <rect x="135.385" y="203.415" width="15.2308" height="11.1692" fill="#fbbf24" fill-opacity="0.738462" stroke-opacity="0.738462" transform="rotate(32.8846 143 209)" />
  <rect x="157.215" y="203.585" width="15.5692" height="10.8308" fill="#4ade80" fill-opacity="0.761538" stroke-opacity="0.761538" transform="rotate(34.6154 165 209)" />
  <rect x="179.046" y="203.754" width="15.9077" height="10.4923" fill="#fbbf24" fill-opacity="0.784615" stroke-opacity="0.784615" transform="rotate(36.3462 187 209)" />
  <rect x="200.877" y="203.923" width="16.2462" height="10.1538" fill="#4ade80" fill-opacity="0.807692" stroke-opacity="0.807692" transform="rotate(38.0769 209 209)" />
  <rect x="222.708" y="204.092" width="16.5846" height="9.81538" fill="#fbbf24" fill-opacity="0.830769" stroke-opacity="0.830769" transform="rotate(39.8077 231 209)" />
  <rect x="244.538" y="204.262" width="16.9231" height="9.47692" fill="#4ade80" fill-opacity="0.853846" stroke-opacity="0.853846" transform="rotate(41.5385 253 209)" />
  <rect x="266.369" y="204.431" width="17.2615" height="9.13846" fill="#fbbf24" fill-opacity="0.876923" stroke-opacity="0.876923" transform="rotate(43.2692 275 209)" />
  <rect x="288.2" y="204.6" width="17.6" height="8.8" fill="#4ade80" fill-opacity="0.9" stroke-opacity="0.9" transform="rotate(45 297 209)" />
</svg>