<?xml version="1.0" encoding="UTF-8"?>
<svg xmlns="http://www.w3.org/2000/svg" width="308" height="220" viewBox="0 0 308 220">
  <rect width="100%" height="100%" fill="#1a2e1a" />
  <rect x="6.6" y="2.1999999999999993" width="8.8" height="17.6" fill="#4ade80" fill-opacity="0.3" stroke-opacity="0.3" />
  <rect x="28.43076923076923" y="2.369230769230768" width="9.13846153846154" height="17.261538461538464" fill="#fbbf24" fill-opacity="0.32307692307692304" stroke-opacity="0.32307692307692304" transform="rotate(1.7307692307692308 33 11)" />
  <rect x="50.261538461538464" y="2.538461538461538" width="9.476923076923077" height="16.923076923076923" fill="#4ade80" fill-opacity="0.34615384615384615" stroke-opacity="0.34615384615384615" transform="rotate(3.4615384615384617 55 11)" />
  <rect x="72.0923076923077" y="2.707692307692308" width="9.815384615384616" height="16.584615384615383" fill="#fbbf24" fill-opacity="0.36923076923076925" stroke-opacity="0.36923076923076925" transform="rotate(5.1923076923076925 77 11)" />
  <rect x="93.92307692307692" y="2.8769230769230765" width="10.153846153846155" height="16.246153846153845" fill="#4ade80" fill-opacity="0.3923076923076923" stroke-opacity="0.3923076923076923" transform="rotate(6.923076923076923 99 11)" />
  <rect x="115.75384615384615" y="3.046153846153845" width="10.492307692307692" height="15.90769230769231" fill="#fbbf24" fill-opacity="0.41538461538461535" stroke-opacity="0.41538461538461535" transform="rotate(8.653846153846155 121 11)" />
  <rect x="137.58461538461538" y="3.215384615384615" width="10.830769230769231" height="15.56923076923077" fill="#4ade80" fill-opacity="0.43846153846153846" stroke-opacity="0.43846153846153846" transform="rotate(10.384615384615385 143 11)" />
  <rect x="159.41538461538462" y="3.384615384615385" width="11.169230769230769" height="15.23076923076923" fill="#fbbf24" fill-opacity="0.4615384615384615" stroke-opacity="0.4615384615384615" transform="rotate(12.115384615384615 165 11)" />
  <rect x="181.24615384615385" y="3.5538461538461537" width="11.507692307692308" height="14.892307692307693" fill="#4ade80" fill-opacity="0.4846153846153846" stroke-opacity="0.4846153846153846" transform="rotate(13.846153846153847 187 11)" />
  <rect x="203.07692307692307" y="3.7230769230769223" width="11.846153846153848" height="14.553846153846155" fill="#fbbf24" fill-opacity="0.5076923076923077" stroke-opacity="0.5076923076923077" transform="rotate(15.576923076923077 209 11)" />
  <rect x="224.90769230769232" y="3.892307692307692" width="12.184615384615386" height="14.215384615384616" fill="#4ade80" fill-opacity="0.5307692307692308" stroke-opacity="0.5307692307692308" transform="rotate(17.30769230769231 231 11)" />
  <rect x="246.73846153846154" y="4.061538461538461" width="12.523076923076923" height="13.876923076923077" fill="#fbbf24" fill-opacity="0.5538461538461539" stroke-opacity="0.5538461538461539" transform="rotate(19.038461538461537 253 11)" />
  <rect x="268.5692307692308" y="4.23076923076923" width="12.861538461538462" height="13.53846153846154" fill="#4ade80" fill-opacity="0.5769230769230769" stroke-opacity="0.5769230769230769" transform="rotate(20.76923076923077 275 11)" />
  <rect x="290.4" y="4.399999999999999" width="13.200000000000003" height="13.200000000000003" fill="#fbbf24" fill-opacity="0.6" stroke-opacity="0.6" transform="rotate(22.5 297 11)" />
  <rect x="6.355555555555555" y="24.444444444444443" width="9.28888888888889" height="17.11111111111111" fill="#fbbf24" fill-opacity="0.3333333333333333" stroke-opacity="0.3333333333333333" transform="rotate(2.5 11 33)" />
  <rect x="28.186324786324786" y="24.61367521367521" width="9.627350427350427" height="16.772649572649573" fill="#4ade80" fill-opacity="0.35641025641025637" stroke-opacity="0.35641025641025637" transform="rotate(4.230769230769231 33 33)" />
  <rect x="50.01709401709402" y="24.782905982905984" width="9.965811965811968" height="16.434188034188033" fill="#fbbf24" fill-opacity="0.37948717948717947" stroke-opacity="0.37948717948717947" transform="rotate(5.961538461538462 55 33)" />
  <rect x="71.84786324786324" y="24.952136752136752" width="10.304273504273505" height="16.095726495726495" fill="#4ade80" fill-opacity="0.4025641025641026" stroke-opacity="0.4025641025641026" transform="rotate(7.6923076923076925 77 33)" />
  <rect x="93.67863247863248" y="25.12136752136752" width="10.642735042735044" height="15.757264957264958" fill="#fbbf24" fill-opacity="0.4256410256410256" stroke-opacity="0.4256410256410256" transform="rotate(9.423076923076923 99 33)" />
  <rect x="115.50940170940171" y="25.29059829059829" width="10.981196581196581" height="15.41880341880342" fill="#4ade80" fill-opacity="0.4487179487179487" stroke-opacity="0.4487179487179487" transform="rotate(11.153846153846153 121 33)" />
  <rect x="137.34017094017094" y="25.45982905982906" width="11.31965811965812" height="15.08034188034188" fill="#fbbf24" fill-opacity="0.4717948717948718" stroke-opacity="0.4717948717948718" transform="rotate(12.884615384615383 143 33)" />
  <rect x="159.17094017094018" y="25.629059829059827" width="11.658119658119658" height="14.741880341880343" fill="#4ade80" fill-opacity="0.49487179487179483" stroke-opacity="0.49487179487179483" transform="rotate(14.615384615384613 165 33)" />
  <rect x="181.0017094017094" y="25.7982905982906" width="11.996581196581198" height="14.403418803418804" fill="#fbbf24" fill-opacity="0.517948717948718" stroke-opacity="0.517948717948718" transform="rotate(16.346153846153847 187 33)" />
  <rect x="202.83247863247863" y="25.967521367521368" width="12.335042735042736" height="14.064957264957267" fill="#4ade80" fill-opacity="0.541025641025641" stroke-opacity="0.541025641025641" transform="rotate(18.076923076923077 209 33)" />
  <rect x="224.66324786324788" y="26.136752136752136" width="12.673504273504275" height="13.726495726495727" fill="#fbbf24" fill-opacity="0.5641025641025641" stroke-opacity="0.5641025641025641" transform="rotate(19.807692307692307 231 33)" />
  <rect x="246.4940170940171" y="26.305982905982905" width="13.011965811965812" height="13.38803418803419" fill="#4ade80" fill-opacity="0.5871794871794871" stroke-opacity="0.5871794871794871" transform="rotate(21.538461538461537 253 33)" />
  <rect x="268.3247863247863" y="26.475213675213674" width="13.350427350427353" height="13.04957264957265" fill="#fbbf24" fill-opacity="0.6102564102564103" stroke-opacity="0.6102564102564103" transform="rotate(23.26923076923077 275 33)" />
  <rect x="290.15555555555557" y="26.644444444444446" width="13.68888888888889" height="12.711111111111112" fill="#4ade80" fill-opacity="0.6333333333333333" stroke-opacity="0.6333333333333333" transform="rotate(25.0 297 33)" />
  <rect x="6.111111111111112" y="46.68888888888889" width="9.777777777777779" height="16.62222222222222" fill="#4ade80" fill-opacity="0.36666666666666664" stroke-opacity="0.36666666666666664" transform="rotate(5.0 11 55)" />
  <rect x="27.941880341880342" y="46.858119658119655" width="10.116239316239318" height="16.283760683760683" fill="#fbbf24" fill-opacity="0.38974358974358975" stroke-opacity="0.38974358974358975" transform="rotate(6.730769230769231 33 55)" />
  <rect x="49.77264957264957" y="47.02735042735043" width="10.454700854700855" height="15.945299145299147" fill="#4ade80" fill-opacity="0.4128205128205128" stroke-opacity="0.4128205128205128" transform="rotate(8.461538461538462 55 55)" />
  <rect x="71.6034188034188" y="47.1965811965812" width="10.793162393162394" height="15.606837606837608" fill="#fbbf24" fill-opacity="0.4358974358974359" stroke-opacity="0.4358974358974359" transform="rotate(10.192307692307692 77 55)" />
  <rect x="93.43418803418804" y="47.365811965811965" width="11.131623931623931" height="15.268376068376067" fill="#4ade80" fill-opacity="0.45897435897435895" stroke-opacity="0.45897435897435895" transform="rotate(11.923076923076923 99 55)" />
  <rect x="115.26495726495726" y="47.53504273504274" width="11.47008547008547" height="14.92991452991453" fill="#fbbf24" fill-opacity="0.48205128205128206" stroke-opacity="0.48205128205128206" transform="rotate(13.653846153846155 121 55)" />
  <rect x="137.0957264957265" y="47.7042735042735" width="11.808547008547011" height="14.591452991452993" fill="#4ade80" fill-opacity="0.5051282051282051" stroke-opacity="0.5051282051282051" transform="rotate(15.384615384615385 143 55)" />
  <rect x="158.92649572649572" y="47.873504273504274" width="12.147008547008548" height="14.252991452991454" fill="#fbbf24" fill-opacity="0.5282051282051281" stroke-opacity="0.5282051282051281" transform="rotate(17.115384615384613 165 55)" />
  <rect x="180.75726495726497" y="48.042735042735046" width="12.485470085470086" height="13.914529914529915" fill="#4ade80" fill-opacity="0.5512820512820513" stroke-opacity="0.5512820512820513" transform="rotate(18.846153846153847 187 55)" />
  <rect x="202.5880341880342" y="48.21196581196581" width="12.823931623931625" height="13.576068376068378" fill="#fbbf24" fill-opacity="0.5743589743589743" stroke-opacity="0.5743589743589743" transform="rotate(20.576923076923077 209 55)" />
  <rect x="224.4188034188034" y="48.381196581196576" width="13.162393162393165" height="13.23760683760684" fill="#4ade80" fill-opacity="0.5974358974358974" stroke-opacity="0.5974358974358974" transform="rotate(22.307692307692307 231 55)" />
  <rect x="246.24957264957266" y="48.55042735042735" width="13.500854700854703" height="12.8991452991453" fill="#fbbf24" fill-opacity="0.6205128205128205" stroke-opacity="0.6205128205128205" transform="rotate(24.038461538461537 253 55)" />
  <rect x="268.0803418803419" y="48.71965811965812" width="13.83931623931624" height="12.560683760683762" fill="#4ade80" fill-opacity="0.6435897435897435" stroke-opacity="0.6435897435897435" transform="rotate(25.769230769230766 275 55)" />
  <rect x="289.9111111111111" y="48.888888888888886" width="14.177777777777779" height="12.222222222222223" fill="#fbbf24" fill-opacity="0.6666666666666667" stroke-opacity="0.6666666666666667" transform="rotate(27.500000000000004 297 55)" />
  <rect x="5.866666666666666" y="68.93333333333334" width="10.266666666666667" height="16.133333333333333" fill="#fbbf24" fill-opacity="0.39999999999999997" stroke-opacity="0.39999999999999997" transform="rotate(7.5 11 77)" />
  <rect x="27.697435897435895" y="69.1025641025641" width="10.605128205128205" height="15.794871794871797" fill="#4ade80" fill-opacity="0.4230769230769231" stroke-opacity="0.4230769230769231" transform="rotate(9.23076923076923 33 77)" />
  <rect x="49.52820512820513" y="69.27179487179487" width="10.943589743589744" height="15.456410256410258" fill="#fbbf24" fill-opacity="0.4461538461538461" stroke-opacity="0.4461538461538461" transform="rotate(10.961538461538462 55 77)" />
  <rect x="71.35897435897436" y="69.44102564102565" width="11.282051282051283" height="15.117948717948718" fill="#4ade80" fill-opacity="0.46923076923076923" stroke-opacity="0.46923076923076923" transform="rotate(12.692307692307692 77 77)" />
  <rect x="93.18974358974359" y="69.61025641025641" width="11.62051282051282" height="14.77948717948718" fill="#fbbf24" fill-opacity="0.4923076923076923" stroke-opacity="0.4923076923076923" transform="rotate(14.423076923076922 99 77)" />
  <rect x="115.02051282051282" y="69.77948717948718" width="11.958974358974361" height="14.441025641025641" fill="#4ade80" fill-opacity="0.5153846153846153" stroke-opacity="0.5153846153846153" transform="rotate(16.153846153846153 121 77)" />
  <rect x="136.85128205128206" y="69.94871794871794" width="12.297435897435898" height="14.102564102564104" fill="#fbbf24" fill-opacity="0.5384615384615384" stroke-opacity="0.5384615384615384" transform="rotate(17.884615384615387 143 77)" />
  <rect x="158.68205128205128" y="70.11794871794872" width="12.635897435897437" height="13.764102564102565" fill="#4ade80" fill-opacity="0.5615384615384615" stroke-opacity="0.5615384615384615" transform="rotate(19.615384615384617 165 77)" />
  <rect x="180.51282051282053" y="70.28717948717949" width="12.974358974358974" height="13.425641025641028" fill="#fbbf24" fill-opacity="0.5846153846153845" stroke-opacity="0.5846153846153845" transform="rotate(21.346153846153847 187 77)" />
  <rect x="202.34358974358975" y="70.45641025641025" width="13.312820512820515" height="13.08717948717949" fill="#4ade80" fill-opacity="0.6076923076923076" stroke-opacity="0.6076923076923076" transform="rotate(23.076923076923073 209 77)" />
  <rect x="224.17435897435897" y="70.62564102564103" width="13.651282051282053" height="12.74871794871795" fill="#fbbf24" fill-opacity="0.6307692307692307" stroke-opacity="0.6307692307692307" transform="rotate(24.80769230769231 231 77)" />
  <rect x="246.00512820512822" y="70.7948717948718" width="13.989743589743592" height="12.41025641025641" fill="#4ade80" fill-opacity="0.6538461538461539" stroke-opacity="0.6538461538461539" transform="rotate(26.53846153846154 253 77)" />
  <rect x="267.83589743589744" y="70.96410256410256" width="14.328205128205129" height="12.071794871794873" fill="#fbbf24" fill-opacity="0.676923076923077" stroke-opacity="0.676923076923077" transform="rotate(28.26923076923077 275 77)" />
  <rect x="289.6666666666667" y="71.13333333333333" width="14.666666666666668" height="11.733333333333336" fill="#4ade80" fill-opacity="0.7" stroke-opacity="0.7" transform="rotate(30.0 297 77)" />
  <rect x="5.622222222222222" y="91.17777777777778" width="10.755555555555556" height="15.644444444444446" fill="#4ade80" fill-opacity="0.43333333333333335" stroke-opacity="0.43333333333333335" transform="rotate(10.0 11 99)" />
  <rect x="27.452991452991455" y="91.34700854700854" width="11.094017094017094" height="15.305982905982905" fill="#fbbf24" fill-opacity="0.45641025641025634" stroke-opacity="0.45641025641025634" transform="rotate(11.73076923076923 33 99)" />
  <rect x="49.28376068376068" y="91.51623931623932" width="11.432478632478633" height="14.967521367521368" fill="#4ade80" fill-opacity="0.47948717948717945" stroke-opacity="0.47948717948717945" transform="rotate(13.461538461538462 55 99)" />
  <rect x="71.11452991452991" y="91.68547008547009" width="11.770940170940174" height="14.62905982905983" fill="#fbbf24" fill-opacity="0.5025641025641026" stroke-opacity="0.5025641025641026" transform="rotate(15.192307692307693 77 99)" />
  <rect x="92.94529914529915" y="91.85470085470085" width="12.10940170940171" height="14.290598290598291" fill="#4ade80" fill-opacity="0.5256410256410255" stroke-opacity="0.5256410256410255" transform="rotate(16.923076923076923 99 99)" />
  <rect x="114.77606837606838" y="92.02393162393162" width="12.447863247863248" height="13.952136752136754" fill="#fbbf24" fill-opacity="0.5487179487179487" stroke-opacity="0.5487179487179487" transform="rotate(18.653846153846153 121 99)" />
  <rect x="136.60683760683762" y="92.1931623931624" width="12.786324786324787" height="13.613675213675215" fill="#4ade80" fill-opacity="0.5717948717948718" stroke-opacity="0.5717948717948718" transform="rotate(20.384615384615383 143 99)" />
  <rect x="158.43760683760684" y="92.36239316239316" width="13.124786324786324" height="13.275213675213678" fill="#fbbf24" fill-opacity="0.5948717948717948" stroke-opacity="0.5948717948717948" transform="rotate(22.115384615384613 165 99)" />
  <rect x="180.26837606837606" y="92.53162393162393" width="13.463247863247865" height="12.936752136752137" fill="#4ade80" fill-opacity="0.617948717948718" stroke-opacity="0.617948717948718" transform="rotate(23.846153846153847 187 99)" />
  <rect x="202.0991452991453" y="92.7008547008547" width="13.801709401709402" height="12.5982905982906" fill="#fbbf24" fill-opacity="0.641025641025641" stroke-opacity="0.641025641025641" transform="rotate(25.576923076923077 209 99)" />
  <rect x="223.92991452991453" y="92.87008547008547" width="14.140170940170941" height="12.25982905982906" fill="#4ade80" fill-opacity="0.6641025641025642" stroke-opacity="0.6641025641025642" transform="rotate(27.30769230769231 231 99)" />
  <rect x="245.76068376068375" y="93.03931623931624" width="14.478632478632479" height="11.921367521367523" fill="#fbbf24" fill-opacity="0.6871794871794872" stroke-opacity="0.6871794871794872" transform="rotate(29.038461538461537 253 99)" />
  <rect x="267.59145299145297" y="93.20854700854701" width="14.817094017094018" height="11.582905982905983" fill="#4ade80" fill-opacity="0.7102564102564102" stroke-opacity="0.7102564102564102" transform="rotate(30.76923076923077 275 99)" />
  <rect x="289.4222222222222" y="93.37777777777778" width="15.155555555555555" height="11.244444444444445" fill="#fbbf24" fill-opacity="0.7333333333333333" stroke-opacity="0.7333333333333333" transform="rotate(32.5 297 99)" />
  <rect x="5.377777777777777" y="113.42222222222222" width="11.244444444444445" height="15.155555555555555" fill="#fbbf24" fill-opacity="0.4666666666666667" stroke-opacity="0.4666666666666667" transform="rotate(12.5 11 121)" />
  <rect x="27.208547008547008" y="113.591452991453" width="11.582905982905983" height="14.817094017094018" fill="#4ade80" fill-opacity="0.4897435897435897" stroke-opacity="0.4897435897435897" transform="rotate(14.23076923076923 33 121)" />
  <rect x="49.039316239316236" y="113.76068376068376" width="11.921367521367523" height="14.478632478632479" fill="#fbbf24" fill-opacity="0.5128205128205128" stroke-opacity="0.5128205128205128" transform="rotate(15.961538461538462 55 121)" />
  <rect x="70.87008547008547" y="113.92991452991453" width="12.25982905982906" height="14.140170940170941" fill="#4ade80" fill-opacity="0.5358974358974359" stroke-opacity="0.5358974358974359" transform="rotate(17.692307692307693 77 121)" />
  <rect x="92.7008547008547" y="114.0991452991453" width="12.5982905982906" height="13.801709401709402" fill="#fbbf24" fill-opacity="0.558974358974359" stroke-opacity="0.558974358974359" transform="rotate(19.423076923076923 99 121)" />
  <rect x="114.53162393162393" y="114.26837606837607" width="12.936752136752137" height="13.463247863247865" fill="#4ade80" fill-opacity="0.582051282051282" stroke-opacity="0.582051282051282" transform="rotate(21.153846153846153 121 121)" />
  <rect x="136.36239316239318" y="114.43760683760684" width="13.275213675213678" height="13.124786324786328" fill="#fbbf24" fill-opacity="0.6051282051282051" stroke-opacity="0.6051282051282051" transform="rotate(22.884615384615383 143 121)" />
  <rect x="158.1931623931624" y="114.6068376068376" width="13.613675213675215" height="12.786324786324787" fill="#4ade80" fill-opacity="0.6282051282051282" stroke-opacity="0.6282051282051282" transform="rotate(24.615384615384617 165 121)" />
  <rect x="180.02393162393162" y="114.77606837606838" width="13.952136752136754" height="12.447863247863248" fill="#fbbf24" fill-opacity="0.6512820512820513" stroke-opacity="0.6512820512820513" transform="rotate(26.346153846153847 187 121)" />
  <rect x="201.85470085470087" y="114.94529914529915" width="14.290598290598291" height="12.10940170940171" fill="#4ade80" fill-opacity="0.6743589743589744" stroke-opacity="0.6743589743589744" transform="rotate(28.076923076923077 209 121)" />
  <rect x="223.6854700854701" y="115.11452991452991" width="14.62905982905983" height="11.77094017094017" fill="#fbbf24" fill-opacity="0.6974358974358974" stroke-opacity="0.6974358974358974" transform="rotate(29.80769230769231 231 121)" />
  <rect x="245.5162393162393" y="115.28376068376069" width="14.967521367521368" height="11.432478632478633" fill="#4ade80" fill-opacity="0.7205128205128204" stroke-opacity="0.7205128205128204" transform="rotate(31.538461538461537 253 121)" />
  <rect x="267.34700854700856" y="115.45299145299145" width="15.305982905982905" height="11.094017094017094" fill="#fbbf24" fill-opacity="0.7435897435897436" stroke-opacity="0.7435897435897436" transform="rotate(33.269230769230774 275 121)" />
  <rect x="289.1777777777778" y="115.62222222222222" width="15.644444444444446" height="10.755555555555556" fill="#4ade80" fill-opacity="0.7666666666666666" stroke-opacity="0.7666666666666666" transform="rotate(35.0 297 121)" />
  <rect x="5.133333333333334" y="135.66666666666666" width="11.733333333333333" height="14.666666666666668" fill="#4ade80" fill-opacity="0.5" stroke-opacity="0.5" transform="rotate(15.0 11 143)" />
  <rect x="26.964102564102564" y="135.83589743589744" width="12.071794871794873" height="14.328205128205129" fill="#fbbf24" fill-opacity="0.5230769230769231" stroke-opacity="0.5230769230769231" transform="rotate(16.73076923076923 33 143)" />
  <rect x="48.794871794871796" y="136.00512820512822" width="12.41025641025641" height="13.989743589743592" fill="#4ade80" fill-opacity="0.5461538461538461" stroke-opacity="0.5461538461538461" transform="rotate(18.46153846153846 55 143)" />
  <rect x="70.62564102564103" y="136.17435897435897" width="12.74871794871795" height="13.651282051282053" fill="#fbbf24" fill-opacity="0.5692307692307692" stroke-opacity="0.5692307692307692" transform="rotate(20.19230769230769 77 143)" />
  <rect x="92.45641025641025" y="136.34358974358975" width="13.087179487179487" height="13.312820512820515" fill="#4ade80" fill-opacity="0.5923076923076922" stroke-opacity="0.5923076923076922" transform="rotate(21.923076923076923 99 143)" />
  <rect x="114.28717948717949" y="136.51282051282053" width="13.425641025641028" height="12.974358974358974" fill="#fbbf24" fill-opacity="0.6153846153846154" stroke-opacity="0.6153846153846154" transform="rotate(23.653846153846153 121 143)" />
  <rect x="136.1179487179487" y="136.68205128205128" width="13.764102564102565" height="12.635897435897437" fill="#4ade80" fill-opacity="0.6384615384615384" stroke-opacity="0.6384615384615384" transform="rotate(25.384615384615383 143 143)" />
  <rect x="157.94871794871796" y="136.85128205128206" width="14.102564102564104" height="12.297435897435898" fill="#fbbf24" fill-opacity="0.6615384615384615" stroke-opacity="0.6615384615384615" transform="rotate(27.115384615384613 165 143)" />
  <rect x="179.77948717948718" y="137.0205128205128" width="14.441025641025641" height="11.958974358974361" fill="#4ade80" fill-opacity="0.6846153846153846" stroke-opacity="0.6846153846153846" transform="rotate(28.846153846153843 187 143)" />
  <rect x="201.6102564102564" y="137.18974358974359" width="14.77948717948718" height="11.62051282051282" fill="#fbbf24" fill-opacity="0.7076923076923076" stroke-opacity="0.7076923076923076" transform="rotate(30.576923076923077 209 143)" />
  <rect x="223.44102564102565" y="137.35897435897436" width="15.117948717948718" height="11.282051282051283" fill="#4ade80" fill-opacity="0.7307692307692307" stroke-opacity="0.7307692307692307" transform="rotate(32.30769230769231 231 143)" />
  <rect x="245.27179487179487" y="137.52820512820512" width="15.456410256410258" height="10.943589743589744" fill="#fbbf24" fill-opacity="0.7538461538461538" stroke-opacity="0.7538461538461538" transform="rotate(34.03846153846154 253 143)" />
  <rect x="267.1025641025641" y="137.6974358974359" width="15.794871794871797" height="10.605128205128205" fill="#4ade80" fill-opacity="0.7769230769230769" stroke-opacity="0.7769230769230769" transform="rotate(35.769230769230774 275 143)" />
  <rect x="288.93333333333334" y="137.86666666666667" width="16.133333333333333" height="10.266666666666667" fill="#fbbf24" fill-opacity="0.7999999999999999" stroke-opacity="0.7999999999999999" transform="rotate(37.5 297 143)" />
  <rect x="4.888888888888888" y="157.9111111111111" width="12.222222222222223" height="14.177777777777779" fill="#fbbf24" fill-opacity="0.5333333333333333" stroke-opacity="0.5333333333333333" transform="rotate(17.5 11 165)" />
  <rect x="26.71965811965812" y="158.08034188034188" width="12.560683760683762" height="13.83931623931624" fill="#4ade80" fill-opacity="0.5564102564102564" stroke-opacity="0.5564102564102564" transform="rotate(19.230769230769234 33 165)" />
  <rect x="48.55042735042735" y="158.24957264957266" width="12.8991452991453" height="13.500854700854703" fill="#fbbf24" fill-opacity="0.5794871794871794" stroke-opacity="0.5794871794871794" transform="rotate(20.961538461538463 55 165)" />
  <rect x="70.38119658119658" y="158.4188034188034" width="13.23760683760684" height="13.162393162393165" fill="#4ade80" fill-opacity="0.6025641025641025" stroke-opacity="0.6025641025641025" transform="rotate(22.692307692307693 77 165)" />
  <rect x="92.21196581196581" y="158.5880341880342" width="13.576068376068378" height="12.823931623931625" fill="#fbbf24" fill-opacity="0.6256410256410256" stroke-opacity="0.6256410256410256" transform="rotate(24.423076923076927 99 165)" />
  <rect x="114.04273504273505" y="158.75726495726497" width="13.914529914529917" height="12.485470085470086" fill="#4ade80" fill-opacity="0.6487179487179487" stroke-opacity="0.6487179487179487" transform="rotate(26.153846153846157 121 165)" />
  <rect x="135.87350427350427" y="158.92649572649572" width="14.252991452991454" height="12.147008547008548" fill="#fbbf24" fill-opacity="0.6717948717948719" stroke-opacity="0.6717948717948719" transform="rotate(27.884615384615387 143 165)" />
  <rect x="157.70427350427352" y="159.0957264957265" width="14.591452991452993" height="11.808547008547011" fill="#4ade80" fill-opacity="0.6948717948717948" stroke-opacity="0.6948717948717948" transform="rotate(29.615384615384617 165 165)" />
  <rect x="179.53504273504274" y="159.26495726495727" width="14.92991452991453" height="11.47008547008547" fill="#fbbf24" fill-opacity="0.7179487179487178" stroke-opacity="0.7179487179487178" transform="rotate(31.346153846153843 187 165)" />
  <rect x="201.36581196581196" y="159.43418803418803" width="15.268376068376067" height="11.131623931623931" fill="#4ade80" fill-opacity="0.7410256410256411" stroke-opacity="0.7410256410256411" transform="rotate(33.07692307692308 209 165)" />
  <rect x="223.1965811965812" y="159.6034188034188" width="15.606837606837608" height="10.793162393162394" fill="#fbbf24" fill-opacity="0.764102564102564" stroke-opacity="0.764102564102564" transform="rotate(34.80769230769231 231 165)" />
  <rect x="245.02735042735043" y="159.77264957264958" width="15.945299145299147" height="10.454700854700855" fill="#4ade80" fill-opacity="0.7871794871794872" stroke-opacity="0.7871794871794872" transform="rotate(36.53846153846154 253 165)" />
  <rect x="266.8581196581197" y="159.94188034188033" width="16.283760683760683" height="10.116239316239316" fill="#fbbf24" fill-opacity="0.8102564102564103" stroke-opacity="0.8102564102564103" transform="rotate(38.269230769230774 275 165)" />
  <rect x="288.68888888888887" y="160.11111111111111" width="16.62222222222222" height="9.777777777777779" fill="#4ade80" fill-opacity="0.8333333333333333" stroke-opacity="0.8333333333333333" transform="rotate(40.0 297 165)" />
  <rect x="4.644444444444444" y="180.15555555555557" width="12.711111111111112" height="13.68888888888889" fill="#4ade80" fill-opacity="0.5666666666666667" stroke-opacity="0.5666666666666667" transform="rotate(20.0 11 187)" />
  <rect x="26.475213675213674" y="180.32478632478632" width="13.04957264957265" height="13.350427350427353" fill="#fbbf24" fill-opacity="0.5897435897435896" stroke-opacity="0.5897435897435896" transform="rotate(21.73076923076923 33 187)" />
  <rect x="48.3059829059829" y="180.4940170940171" width="13.38803418803419" height="13.011965811965815" fill="#4ade80" fill-opacity="0.6128205128205128" stroke-opacity="0.6128205128205128" transform="rotate(23.46153846153846 55 187)" />
  <rect x="70.13675213675214" y="180.66324786324788" width="13.726495726495727" height="12.673504273504275" fill="#fbbf24" fill-opacity="0.6358974358974359" stroke-opacity="0.6358974358974359" transform="rotate(25.192307692307693 77 187)" />
  <rect x="91.96752136752137" y="180.83247863247863" width="14.064957264957267" height="12.335042735042736" fill="#4ade80" fill-opacity="0.658974358974359" stroke-opacity="0.658974358974359" transform="rotate(26.923076923076923 99 187)" />
  <rect x="113.79829059829059" y="181.0017094017094" width="14.403418803418804" height="11.996581196581198" fill="#fbbf24" fill-opacity="0.6820512820512821" stroke-opacity="0.6820512820512821" transform="rotate(28.653846153846153 121 187)" />
  <rect x="135.62905982905983" y="181.17094017094018" width="14.741880341880343" height="11.658119658119658" fill="#4ade80" fill-opacity="0.7051282051282051" stroke-opacity="0.7051282051282051" transform="rotate(30.384615384615387 143 187)" />
  <rect x="157.45982905982905" y="181.34017094017094" width="15.08034188034188" height="11.31965811965812" fill="#fbbf24" fill-opacity="0.7282051282051281" stroke-opacity="0.7282051282051281" transform="rotate(32.11538461538461 165 187)" />
  <rect x="179.2905982905983" y="181.50940170940171" width="15.41880341880342" height="10.981196581196581" fill="#4ade80" fill-opacity="0.7512820512820513" stroke-opacity="0.7512820512820513" transform="rotate(33.84615384615385 187 187)" />
  <rect x="201.12136752136752" y="181.67863247863247" width="15.757264957264958" height="10.642735042735044" fill="#fbbf24" fill-opacity="0.7743589743589743" stroke-opacity="0.7743589743589743" transform="rotate(35.57692307692307 209 187)" />
  <rect x="222.95213675213674" y="181.84786324786324" width="16.095726495726495" height="10.304273504273505" fill="#4ade80" fill-opacity="0.7974358974358974" stroke-opacity="0.7974358974358974" transform="rotate(37.30769230769231 231 187)" />
  <rect x="244.782905982906" y="182.01709401709402" width="16.434188034188033" height="9.965811965811966" fill="#fbbf24" fill-opacity="0.8205128205128205" stroke-opacity="0.8205128205128205" transform="rotate(39.03846153846154 253 187)" />
  <rect x="266.6136752136752" y="182.18632478632478" width="16.772649572649573" height="9.627350427350427" fill="#4ade80" fill-opacity="0.8435897435897435" stroke-opacity="0.8435897435897435" transform="rotate(40.76923076923077 275 187)" />
  <rect x="288.44444444444446" y="182.35555555555555" width="17.11111111111111" height="9.28888888888889" fill="#fbbf24" fill-opacity="0.8666666666666667" stroke-opacity="0.8666666666666667" transform="rotate(42.5 297 187)" />
  <rect x="4.399999999999999" y="202.4" width="13.200000000000003" height="13.200000000000003" fill="#fbbf24" fill-opacity="0.6" stroke-opacity="0.6" transform="rotate(22.5 11 209)" />
  <rect x="26.23076923076923" y="202.56923076923076" width="13.53846153846154" height="12.861538461538462" fill="#4ade80" fill-opacity="0.6230769230769231" stroke-opacity="0.6230769230769231" transform="rotate(24.23076923076923 33 209)" />
  <rect x="48.06153846153846" y="202.73846153846154" width="13.876923076923077" height="12.523076923076925" fill="#fbbf24" fill-opacity="0.6461538461538461" stroke-opacity="0.6461538461538461" transform="rotate(25.96153846153846 55 209)" />
  <rect x="69.8923076923077" y="202.90769230769232" width="14.215384615384616" height="12.184615384615386" fill="#4ade80" fill-opacity="0.6692307692307693" stroke-opacity="0.6692307692307693" transform="rotate(27.692307692307693 77 209)" />
  <rect x="91.72307692307692" y="203.07692307692307" width="14.553846153846155" height="11.846153846153848" fill="#fbbf24" fill-opacity="0.6923076923076923" stroke-opacity="0.6923076923076923" transform="rotate(29.423076923076923 99 209)" />
  <rect x="113.55384615384615" y="203.24615384615385" width="14.892307692307693" height="11.507692307692308" fill="#4ade80" fill-opacity="0.7153846153846153" stroke-opacity="0.7153846153846153" transform="rotate(31.153846153846153 121 209)" />
  <rect x="135.3846153846154" y="203.41538461538462" width="15.23076923076923" height="11.169230769230769" fill="#fbbf24" fill-opacity="0.7384615384615385" stroke-opacity="0.7384615384615385" transform="rotate(32.88461538461539 143 209)" />
  <rect x="157.2153846153846" y="203.58461538461538" width="15.56923076923077" height="10.830769230769231" fill="#4ade80" fill-opacity="0.7615384615384615" stroke-opacity="0.7615384615384615" transform="rotate(34.61538461538461 165 209)" />
  <rect x="179.04615384615386" y="203.75384615384615" width="15.90769230769231" height="10.492307692307692" fill="#fbbf24" fill-opacity="0.7846153846153846" stroke-opacity="0.7846153846153846" transform="rotate(36.34615384615385 187 209)" />
  <rect x="200.87692307692308" y="203.92307692307693" width="16.246153846153845" height="10.153846153846155" fill="#4ade80" fill-opacity="0.8076923076923077" stroke-opacity="0.8076923076923077" transform="rotate(38.07692307692307 209 209)" />
  <rect x="222.7076923076923" y="204.09230769230768" width="16.584615384615383" height="9.815384615384616" fill="#fbbf24" fill-opacity="0.8307692307692307" stroke-opacity="0.8307692307692307" transform="rotate(39.80769230769231 231 209)" />
  <rect x="244.53846153846155" y="204.26153846153846" width="16.923076923076923" height="9.476923076923077" fill="#4ade80" fill-opacity="0.8538461538461539" stroke-opacity="0.8538461538461539" transform="rotate(41.53846153846154 253 209)" />
  <rect x="266.36923076923074" y="204.43076923076924" width="17.261538461538464" height="9.13846153846154" fill="#fbbf24" fill-opacity="0.8769230769230769" stroke-opacity="0.8769230769230769" transform="rotate(43.269230769230774 275 209)" />
  <rect x="288.2" y="204.6" width="17.6" height="8.8" fill="#4ade80" fill-opacity="0.8999999999999999" stroke-opacity="0.8999999999999999" transform="rotate(45.0 297 209)" />
</svg>