<?xml version="1.0" encoding="UTF-8"?>
<svg xmlns="http://www.w3.org/2000/svg" width="312" height="312" viewBox="0 0 312 312">
  <rect width="100%" height="100%" fill="#0d0d0d" />
  <ellipse cx="13" cy="13" rx="10.4" ry="5.2" fill="#ff00ff" stroke="#00ffff" stroke-width="0.5" fill-opacity="0.6" stroke-opacity="0.6" />
  <ellipse cx="39" cy="13" rx="10.4" ry="5.2" fill="#ff00ff" stroke="#00ffff" stroke-width="0.5" fill-opacity="0.6" stroke-opacity="0.6" transform="rotate(8.18182 39 13)" />
  <ellipse cx="65" cy="13" rx="10.4" ry="5.2" fill="#ff00ff" stroke="#00ffff" stroke-width="0.5" fill-opacity="0.6" stroke-opacity="0.6" transform="rotate(16.3636 65 13)" />
  <ellipse cx="91" cy="13" rx="10.4" ry="5.2" fill="#ff00ff" stroke="#00ffff" stroke-width="0.5" fill-opacity="0.6" stroke-opacity="0.6" transform="rotate(24.5455 91 13)" />
  <ellipse cx="117" cy="13" rx="10.4" ry="5.2" fill="#ff00ff" stroke="#00ffff" stroke-width="0.5" fill-opacity="0.6" stroke-opacity="0.6" transform="rotate(32.7273 117 13)" />
  <ellipse cx="143" cy="13" rx="10.4" ry="5.2" fill="#ff00ff" stroke="#00ffff" stroke-width="0.5" fill-opacity="0.6" stroke-opacity="0.6" transform="rotate(40.9091 143 13)" />
  <ellipse cx="169" cy="13" rx="10.4" ry="5.2" fill="#ff00ff" stroke="#00ffff" stroke-width="0.5" fill-opacity="0.6" stroke-opacity="0.6" transform="rotate(49.0909 169 13)" />
  <ellipse cx="195" cy="13" rx="10.4" ry="5.2" fill="#ff00ff" stroke="#00ffff" stroke-width="0.5" fill-opacity="0.6" stroke-opacity="0.6" transform="rotate(57.2727 195 13)" />
  <ellipse cx="221" cy="13" rx="10.4" ry="5.2" fill="#ff00ff" stroke="#00ffff" stroke-width="0.5" fill-opacity="0.6" stroke-opacity="0.6" transform="rotate(65.4545 221 13)" />
  <ellipse cx="247" cy="13" rx="10.4" ry="5.2" fill="#ff00ff" stroke="#00ffff" stroke-width="0.5" fill-opacity="0.6" stroke-opacity="0.6" transform="rotate(73.6364 247 13)" />
  <ellipse cx="273" cy="13" rx="10.4" ry="5.2" fill="#ff00ff" stroke="#00ffff" stroke-width="0.5" fill-opacity="0.6" stroke-opacity="0.6" transform="rotate(81.8182 273 13)" />
  <ellipse cx="299" cy="13" rx="10.4" ry="5.2" fill="#ff00ff" stroke="#00ffff" stroke-width="0.5" fill-opacity="0.6" stroke-opacity="0.6" transform="rotate(90 299 13)" />
  <ellipse cx="13" cy="39" rx="10.4" ry="5.2" fill="#ff00ff" stroke="#00ffff" stroke-width="0.5" fill-opacity="0.6" stroke-opacity="0.6" transform="rotate(8.18182 13 39)" />
  <ellipse cx="39" cy="39" rx="10.4" ry="5.2" fill="#ff00ff" stroke="#00ffff" stroke-width="0.5" fill-opacity="0.6" stroke-opacity="0.6" transform="rotate(16.3636 39 39)" />
  <ellipse cx="65" cy="39" rx="10.4" ry="5.2" fill="#ff00ff" stroke="#00ffff" stroke-width="0.5" fill-opacity="0.6" stroke-opacity="0.6" transform="rotate(24.5455 65 39)" />
  <ellipse cx="91" cy="39" rx="10.4" ry="5.2" fill="#ff00ff" stroke="#00ffff" stroke-width="0.5" fill-opacity="0.6" stroke-opacity="0.6" transform="rotate(32.7273 91 39)" />
  <ellipse cx="117" cy="39" rx="10.4" ry="5.2" fill="#ff00ff" stroke="#00ffff" stroke-width="0.5" fill-opacity="0.6" stroke-opacity="0.6" transform="rotate(40.9091 117 39)" />
  <ellipse cx="143" cy="39" rx="10.4" ry="5.2" fill="#ff00ff" stroke="#00ffff" stroke-width="0.5" fill-opacity="0.6" stroke-opacity="0.6" transform="rotate(49.0909 143 39)" />
  <ellipse cx="169" cy="39" rx="10.4" ry="5.2" fill="#ff00ff" stroke="#00ffff" stroke-width="0.5" fill-opacity="0.6" stroke-opacity="0.6" transform="rotate(57.2727 169 39)" />
  <ellipse cx="195" cy="39" rx="10.4" ry="5.2" fill="#ff00ff" stroke="#00ffff" stroke-width="0.5" fill-opacity="0.6" stroke-opacity="0.6" transform="rotate(65.4545 195 39)" />
  <ellipse cx="221" cy="39" rx="10.4" ry="5.2" fill="#ff00ff" stroke="#00ffff" stroke-width="0.5" fill-opacity="0.6" stroke-opacity="0.6" transform="rotate(73.6364 221 39)" />
  <ellipse cx="247" cy="39" rx="10.4" ry="5.2" fill="#ff00ff" stroke="#00ffff" stroke-width="0.5" fill-opacity="0.6" stroke-opacity="0.6" transform="rotate(81.8182 247 39)" />
  <ellipse cx="273" cy="39" rx="10.4" ry="5.2" fill="#ff00ff" stroke="#00ffff" stroke-width="0.5" fill-opacity="0.6" stroke-opacity="0.6" transform="rotate(90 273 39)" />
  <ellipse cx="299" cy="39" rx="10.4" ry="5.2" fill="#ff00ff" stroke="#00ffff" stroke-width="0.5" fill-opacity="0.6" stroke-opacity="0.6" transform="rotate(98.1818 299 39)" />
  <ellipse cx="13" cy="65" rx="10.4" ry="5.2" fill="#ff00ff" stroke="#00ffff" stroke-width="0.5" fill-opacity="0.6" stroke-opacity="0.6" transform="rotate(16.3636 13 65)" />
  <ellipse cx="39" cy="65" rx="10.4" ry="5.2" fill="#ff00ff" stroke="#00ffff" stroke-width="0.5" fill-opacity="0.6" stroke-opacity="0.6" transform="rotate(24.5455 39 65)" />
  <ellipse cx="65" cy="65" rx="10.4" ry="5.2" fill="#ff00ff" stroke="#00ffff" stroke-width="0.5" fill-opacity="0.6" stroke-opacity="0.6" transform="rotate(32.7273 65 65)" />
  <ellipse cx="91" cy="65" rx="10.4" ry="5.2" fill="#ff00ff" stroke="#00ffff" stroke-width="0.5" fill-opacity="0.6" stroke-opacity="0.6" transform="rotate(40.9091 91 65)" />
  <ellipse cx="117" cy="65" rx="10.4" ry="5.2" fill="#ff00ff" stroke="#00ffff" stroke-width="0.5" fill-opacity="0.6" stroke-opacity="0.6" transform="rotate(49.0909 117 65)" />
  <ellipse cx="143" cy="65" rx="10.4" ry="5.2" fill="#ff00ff" stroke="#00ffff" stroke-width="0.5" fill-opacity="0.6" stroke-opacity="0.6" transform="rotate(57.2727 143 65)" />
  <ellipse cx="169" cy="65" rx="10.4" ry="5.2" fill="#ff00ff" stroke="#00ffff" stroke-width="0.5" fill-opacity="0.6" stroke-opacity="0.6" transform="rotate(65.4545 169 65)" />
  <ellipse cx="195" cy="65" rx="10.4" ry="5.2" fill="#ff00ff" stroke="#00ffff" stroke-width="0.5" fill-opacity="0.6" stroke-opacity="0.6" transform="rotate(73.6364 195 65)" />
  <ellipse cx="221" cy="65" rx="10.4" ry="5.2" fill="#ff00ff" stroke="#00ffff" stroke-width="0.5" fill-opacity="0.6" stroke-opacity="0.6" transform="rotate(81.8182 221 65)" />
  <ellipse cx="247" cy="65" rx="10.4" ry="5.2" fill="#ff00ff" stroke="#00ffff" stroke-width="0.5" fill-opacity="0.6" stroke-opacity="0.6" transform="rotate(90 247 65)" />
  <ellipse cx="273" cy="65" rx="10.4" ry="5.2" fill="#ff00ff" stroke="#00ffff" stroke-width="0.5" fill-opacity="0.6" stroke-opacity="0.6" transform="rotate(98.1818 273 65)" />
  <ellipse cx="299" cy="65" rx="10.4" ry="5.2" fill="#ff00ff" stroke="#00ffff" stroke-width="0.5" fill-opacity="0.6" stroke-opacity="0.6" transform="rotate(106.364 299 65)" />
  <ellipse cx="13" cy="91" rx="10.4" ry="5.2" fill="#ff00ff" stroke="#00ffff" stroke-width="0.5" fill-opacity="0.6" stroke-opacity="0.6" transform="rotate(24.5455 13 91)" />
  <ellipse cx="39" cy="91" rx="10.4" ry="5.2" fill="#ff00ff" stroke="#00ffff" stroke-width="0.5" fill-opacity="0.6" stroke-opacity="0.6" transform="rotate(32.7273 39 91)" />
  <ellipse cx="65" cy="91" rx="10.4" ry="5.2" fill="#ff00ff" stroke="#00ffff" stroke-width="0.5" fill-opacity="0.6" stroke-opacity="0.6" transform="rotate(40.9091 65 91)" />
  <ellipse cx="91" cy="91" rx="10.4" ry="5.2" fill="#ff00ff" stroke="#00ffff" stroke-width="0.5" fill-opacity="0.6" stroke-opacity="0.6" transform="rotate(49.0909 91 91)" />
  <ellipse cx="117" cy="91" rx="10.4" ry="5.2" fill="#ff00ff" stroke="#00ffff" stroke-width="0.5" fill-opacity="0.6" stroke-opacity="0.6" transform="rotate(57.2727 117 91)" />
  <ellipse cx="143" cy="91" rx="10.4" ry="5.2" fill="#ff00ff" stroke="#00ffff" stroke-width="0.5" fill-opacity="0.6" stroke-opacity="0.6" transform="rotate(65.4545 143 91)" />
  <ellipse cx="169" cy="91" rx="10.4" ry="5.2" fill="#ff00ff" stroke="#00ffff" stroke-width="0.5" fill-opacity="0.6" stroke-opacity="0.6" transform="rotate(73.6364 169 91)" />
  <ellipse cx="195" cy="91" rx="10.4" ry="5.2" fill="#ff00ff" stroke="#00ffff" stroke-width="0.5" fill-opacity="0.6" stroke-opacity="0.6" transform="rotate(81.8182 195 91)" />
  <ellipse cx="221" cy="91" rx="10.4" ry="5.2" fill="#ff00ff" stroke="#00ffff" stroke-width="0.5" fill-opacity="0.6" stroke-opacity="0.6" transform="rotate(90 221 91)" />
  <ellipse cx="247" cy="91" rx="10.4" ry="5.2" fill="#ff00ff" stroke="#00ffff" stroke-width="0.5" fill-opacity="0.6" stroke-opacity="0.6" transform="rotate(98.1818 247 91)" />
  <ellipse cx="273" cy="91" rx="10.4" ry="5.2" fill="#ff00ff" stroke="#00ffff" stroke-width="0.5" fill-opacity="0.6" stroke-opacity="0.6" transform="rotate(106.364 273 91)" />
  <ellipse cx="299" cy="91" rx="10.4" ry="5.2" fill="#ff00ff" stroke="#00ffff" stroke-width="0.5" fill-opacity="0.6" stroke-opacity="0.6" transform="rotate(114.545 299 91)" />
  <ellipse cx="13" cy="117" rx="10.4" ry="5.2" fill="#ff00ff" stroke="#00ffff" stroke-width="0.5" fill-opacity="0.6" stroke-opacity="0.6" transform="rotate(32.7273 13 117)" />
  <ellipse cx="39" cy="117" rx="10.4" ry="5.2" fill="#ff00ff" stroke="#00ffff" stroke-width="0.5" fill-opacity="0.6" stroke-opacity="0.6" transform="rotate(40.9091 39 117)" />
  <ellipse cx="65" cy="117" rx="10.4" ry="5.2" fill="#ff00ff" stroke="#00ffff" stroke-width="0.5" fill-opacity="0.6" stroke-opacity="0.6" transform="rotate(49.0909 65 117)" />
  <ellipse cx="91" cy="117" rx="10.4" ry="5.2" fill="#ff00ff" stroke="#00ffff" stroke-width="0.5" fill-opacity="0.6" stroke-opacity="0.6" transform="rotate(57.2727 91 117)" />
  <ellipse cx="117" cy="117" rx="10.4" ry="5.2" fill="#ff00ff" stroke="#00ffff" stroke-width="0.5" fill-opacity="0.6" stroke-opacity="0.6" transform="rotate(65.4545 117 117)" />
  <ellipse cx="143" cy="117" rx="10.4" ry="5.2" fill="#ff00ff" stroke="#00ffff" stroke-width="0.5" fill-opacity="0.6" stroke-opacity="0.6" transform="rotate(73.6364 143 117)" />
  <ellipse cx="169" cy="117" rx="10.4" ry="5.2" fill="#ff00ff" stroke="#00ffff" stroke-width="0.5" fill-opacity="0.6" stroke-opacity="0.6" transform="rotate(81.8182 169 117)" />
  <ellipse cx="195" cy="117" rx="10.4" ry="5.2" fill="#ff00ff" stroke="#00ffff" stroke-width="0.5" fill-opacity="0.6" stroke-opacity="0.6" transform="rotate(90 195 117)" />
  <ellipse cx="221" cy="117" rx="10.4" ry="5.2" fill="#ff00ff" stroke="#00ffff" stroke-width="0.5" fill-opacity="0.6" stroke-opacity="0.6" transform="rotate(98.1818 221 117)" />
  <ellipse cx="247" cy="117" rx="10.4" ry="5.2" fill="#ff00ff" stroke="#00ffff" stroke-width="0.5" fill-opacity="0.6" stroke-opacity="0.6" transform="rotate(106.364 247 117)" />
  <ellipse cx="273" cy="117" rx="10.4" ry="5.2" fill="#ff00ff" stroke="#00ffff" stroke-width="0.5" fill-opacity="0.6" stroke-opacity="0.6" transform="rotate(114.545 273 117)" />
  <ellipse cx="299" cy="117" rx="10.4" ry="5.2" fill="#ff00ff" stroke="#00ffff" stroke-width="0.5" fill-opacity="0.6" stroke-opacity="0.6" transform="rotate(122.727 299 117)" />
  <ellipse cx="13" cy="143" rx="10.4" ry="5.2" fill="#ff00ff" stroke="#00ffff" stroke-width="0.5" fill-opacity="0.6" stroke-opacity="0.6" transform="rotate(40.9091 13 143)" />
  <ellipse cx="39" cy="143" rx="10.4" ry="5.2" fill="#ff00ff" stroke="#00ffff" stroke-width="0.5" fill-opacity="0.6" stroke-opacity="0.6" transform="rotate(49.0909 39 143)" />
  <ellipse cx="65" cy="143" rx="10.4" ry="5.2" fill="#ff00ff" stroke="#00ffff" stroke-width="0.5" fill-opacity="0.6" stroke-opacity="0.6" transform="rotate(57.2727 65 143)" />
  <ellipse cx="91" cy="143" rx="10.4" ry="5.2" fill="#ff00ff" stroke="#00ffff" stroke-width="0.5" fill-opacity="0.6" stroke-opacity="0.6" transform="rotate(65.4545 91 143)" />
  <ellipse cx="117" cy="143" rx="10.4" ry="5.2" fill="#ff00ff" stroke="#00ffff" stroke-width="0.5" fill-opacity="0.6" stroke-opacity="0.6" transform="rotate(73.6364 117 143)" />
  <ellipse cx="143" cy="143" rx="10.4" ry="5.2" fill="#ff00ff" stroke="#00ffff" stroke-width="0.5" fill-opacity="0.6" stroke-opacity="0.6" transform="rotate(81.8182 143 143)" />
  <ellipse cx="169" cy="143" rx="10.4" ry="5.2" fill="#ff00ff" stroke="#00ffff" stroke-width="0.5" fill-opacity="0.6" stroke-opacity="0.6" transform="rotate(90 169 143)" />
  <ellipse cx="195" cy="143" rx="10.4" ry="5.2" fill="#ff00ff" stroke="#00ffff" stroke-width="0.5" fill-opacity="0.6" stroke-opacity="0.6" transform="rotate(98.1818 195 143)" />
  <ellipse cx="221" cy="143" rx="10.4" ry="5.2" fill="#ff00ff" stroke="#00ffff" stroke-width="0.5" fill-opacity="0.6" stroke-opacity="0.6" transform="rotate(106.364 221 143)" />
  <ellipse cx="247" cy="143" rx="10.4" ry="5.2" fill="#ff00ff" stroke="#00ffff" stroke-width="0.5" fill-opacity="0.6" stroke-opacity="0.6" transform="rotate(114.545 247 143)" />
  <ellipse cx="273" cy="143" rx="10.4" ry="5.2" fill="#ff00ff" stroke="#00ffff" stroke-width="0.5" fill-opacity="0.6" stroke-opacity="0.6" transform="rotate(122.727 273 143)" />
  <ellipse cx="299" cy="143" rx="10.4" ry="5.2" fill="#ff00ff" stroke="#00ffff" stroke-width="0.5" fill-opacity="0.6" stroke-opacity="0.6" transform="rotate(130.909 299 143)" />
  <ellipse cx="13" cy="169" rx="10.4" ry="5.2" fill="#ff00ff" stroke="#00ffff" stroke-width="0.5" fill-opacity="0.6" stroke-opacity="0.6" transform="rotate(49.0909 13 169)" />
  <ellipse cx="39" cy="169" rx="10.4" ry="5.2" fill="#ff00ff" stroke="#00ffff" stroke-width="0.5" fill-opacity="0.6" stroke-opacity="0.6" transform="rotate(57.2727 39 169)" />
  <ellipse cx="65" cy="169" rx="10.4" ry="5.2" fill="#ff00ff" stroke="#00ffff" stroke-width="0.5" fill-opacity="0.6" stroke-opacity="0.6" transform="rotate(65.4545 65 169)" />
  <ellipse cx="91" cy="169" rx="10.4" ry="5.2" fill="#ff00ff" stroke="#00ffff" stroke-width="0.5" fill-opacity="0.6" stroke-opacity="0.6" transform="rotate(73.6364 91 169)" />
  <ellipse cx="117" cy="169" rx="10.4" ry="5.2" fill="#ff00ff" stroke="#00ffff" stroke-width="0.5" fill-opacity="0.6" stroke-opacity="0.6" transform="rotate(81.8182 117 169)" />
  <ellipse cx="143" cy="169" rx="10.4" ry="5.2" fill="#ff00ff" stroke="#00ffff" stroke-width="0.5" fill-opacity="0.6" stroke-opacity="0.6" transform="rotate(90 143 169)" />
  <ellipse cx="169" cy="169" rx="10.4" ry="5.2" fill="#ff00ff" stroke="#00ffff" stroke-width="0.5" fill-opacity="0.6" stroke-opacity="0.6" transform="rotate(98.1818 169 169)" />
  <ellipse cx="195" cy="169" rx="10.4" ry="5.2" fill="#ff00ff" stroke="#00ffff" stroke-width="0.5" fill-opacity="0.6" stroke-opacity="0.6" transform="rotate(106.364 195 169)" />
  <ellipse cx="221" cy="169" rx="10.4" ry="5.2" fill="#ff00ff" stroke="#00ffff" stroke-width="0.5" fill-opacity="0.6" stroke-opacity="0.6" transform="rotate(114.545 221 169)" />
  <ellipse cx="247" cy="169" rx="10.4" ry="5.2" fill="#ff00ff" stroke="#00ffff" stroke-width="0.5" fill-opacity="0.6" stroke-opacity="0.6" transform="rotate(122.727 247 169)" />
  <ellipse cx="273" cy="169" rx="10.4" ry="5.2" fill="#ff00ff" stroke="#00ffff" stroke-width="0.5" fill-opacity="0.6" stroke-opacity="0.6" transform="rotate(130.909 273 169)" />
  <ellipse cx="299" cy="169" rx="10.4" ry="5.2" fill="#ff00ff" stroke="#00ffff" stroke-width="0.5" fill-opacity="0.6" stroke-opacity="0.6" transform="rotate(139.091 299 169)" />
  <ellipse cx="13" cy="195" rx="10.4" ry="5.2" fill="#ff00ff" stroke="#00ffff" stroke-width="0.5" fill-opacity="0.6" stroke-opacity="0.6" transform="rotate(57.2727 13 195)" />
  <ellipse cx="39" cy="195" rx="10.4" ry="5.2" fill="#ff00ff" stroke="#00ffff" stroke-width="0.5" fill-opacity="0.6" stroke-opacity="0.6" transform="rotate(65.4545 39 195)" />
  <ellipse cx="65" cy="195" rx="10.4" ry="5.2" fill="#ff00ff" stroke="#00ffff" stroke-width="0.5" fill-opacity="0.6" stroke-opacity="0.6" transform="rotate(73.6364 65 195)" />
  <ellipse cx="91" cy="195" rx="10.4" ry="5.2" fill="#ff00ff" stroke="#00ffff" stroke-width="0.5" fill-opacity="0.6" stroke-opacity="0.6" transform="rotate(81.8182 91 195)" />
  <ellipse cx="117" cy="195" rx="10.4" ry="5.2" fill="#ff00ff" stroke="#00ffff" stroke-width="0.5" fill-opacity="0.6" stroke-opacity="0.6" transform="rotate(90 117 195)" />
  <ellipse cx="143" cy="195" rx="10.4" ry="5.2" fill="#ff00ff" stroke="#00ffff" stroke-width="0.5" fill-opacity="0.6" stroke-opacity="0.6" transform="rotate(98.1818 143 195)" />
  <ellipse cx="169" cy="195" rx="10.4" ry="5.2" fill="#ff00ff" stroke="#00ffff" stroke-width="0.5" fill-opacity="0.6" stroke-opacity="0.6" transform="rotate(106.364 169 195)" />
  <ellipse cx="195" cy="195" rx="10.4" ry="5.2" fill="#ff00ff" stroke="#00ffff" stroke-width="0.5" fill-opacity="0.6" stroke-opacity="0.6" transform="rotate(114.545 195 195)" />
  <ellipse cx="221" cy="195" rx="10.4" ry="5.2" fill="#ff00ff" stroke="#00ffff" stroke-width="0.5" fill-opacity="0.6" stroke-opacity="0.6" transform="rotate(122.727 221 195)" />
  <ellipse cx="247" cy="195" rx="10.4" ry="5.2" fill="#ff00ff" stroke="#00ffff" stroke-width="0.5" fill-opacity="0.6" stroke-opacity="0.6" transform="rotate(130.909 247 195)" />
  <ellipse cx="273" cy="195" rx="10.4" ry="5.2" fill="#ff00ff" stroke="#00ffff" stroke-width="0.5" fill-opacity="0.6" stroke-opacity="0.6" transform="rotate(139.091 273 195)" />
  <ellipse cx="299" cy="195" rx="10.4" ry="5.2" fill="#ff00ff" stroke="#00ffff" stroke-width="0.5" fill-opacity="0.6" stroke-opacity="0.6" transform="rotate(147.273 299 195)" />
  <ellipse cx="13" cy="221" rx="10.4" ry="5.2" fill="#ff00ff" stroke="#00ffff" stroke-width="0.5" fill-opacity="0.6" stroke-opacity="0.6" transform="rotate(65.4545 13 221)" />
  <ellipse cx="39" cy="221" rx="10.4" ry="5.2" fill="#ff00ff" stroke="#00ffff" stroke-width="0.5" fill-opacity="0.6" stroke-opacity="0.6" transform="rotate(73.6364 39 221)" />
  <ellipse cx="65" cy="221" rx="10.4" ry="5.2" fill="#ff00ff" stroke="#00ffff" stroke-width="0.5" fill-opacity="0.6" stroke-opacity="0.6" transform="rotate(81.8182 65 221)" />
  <ellipse cx="91" cy="221" rx="10.4" ry="5.2" fill="#ff00ff" stroke="#00ffff" stroke-width="0.5" fill-opacity="0.6" stroke-opacity="0.6" transform="rotate(90 91 221)" />
  <ellipse cx="117" cy="221" rx="10.4" ry="5.2" fill="#ff00ff" stroke="#00ffff" stroke-width="0.5" fill-opacity="0.6" stroke-opacity="0.6" transform="rotate(98.1818 117 221)" />
  <ellipse cx="143" cy="221" rx="10.4" ry="5.2" fill="#ff00ff" stroke="#00ffff" stroke-width="0.5" fill-opacity="0.6" stroke-opacity="0.6" transform="rotate(106.364 143 221)" />
  <ellipse cx="169" cy="221" rx="10.4" ry="5.2" fill="#ff00ff" stroke="#00ffff" stroke-width="0.5" fill-opacity="0.6" stroke-opacity="0.6" transform="rotate(114.545 169 221)" />
  <ellipse cx="195" cy="221" rx="10.4" ry="5.2" fill="#ff00ff" stroke="#00ffff" stroke-width="0.5" fill-opacity="0.6" stroke-opacity="0.6" transform="rotate(122.727 195 221)" />
  <ellipse cx="221" cy="221" rx="10.4" ry="5.2" fill="#ff00ff" stroke="#00ffff" stroke-width="0.5" fill-opacity="0.6" stroke-opacity="0.6" transform="rotate(130.909 221 221)" />
  <ellipse cx="247" cy="221" rx="10.4" ry="5.2" fill="#ff00ff" stroke="#00ffff" stroke-width="0.5" fill-opacity="0.6" stroke-opacity="0.6" transform="rotate(139.091 247 221)" />
  <ellipse cx="273" cy="221" rx="10.4" ry="5.2" fill="#ff00ff" stroke="#00ffff" stroke-width="0.5" fill-opacity="0.6" stroke-opacity="0.6" transform="rotate(147.273 273 221)" />
  <ellipse cx="299" cy="221" rx="10.4" ry="5.2" fill="#ff00ff" stroke="#00ffff" stroke-width="0.5" fill-opacity="0.6" stroke-opacity="0.6" transform="rotate(155.455 299 221)" />
  <ellipse cx="13" cy="247" rx="10.4" ry="5.2" fill="#ff00ff" stroke="#00ffff" stroke-width="0.5" fill-opacity="0.6" stroke-opacity="0.6" transform="rotate(73.6364 13 247)" />
  <ellipse cx="39" cy="247" rx="10.4" ry="5.2" fill="#ff00ff" stroke="#00ffff" stroke-width="0.5" fill-opacity="0.6" stroke-opacity="0.6" transform="rotate(81.8182 39 247)" />
  <ellipse cx="65" cy="247" rx="10.4" ry="5.2" fill="#ff00ff" stroke="#00ffff" stroke-width="0.5" fill-opacity="0.6" stroke-opacity="0.6" transform="rotate(90 65 247)" />
  <ellipse cx="91" cy="247" rx="10.4" ry="5.2" fill="#ff00ff" stroke="#00ffff" stroke-width="0.5" fill-opacity="0.6" stroke-opacity="0.6" transform="rotate(98.1818 91 247)" />
  <ellipse cx="117" cy="247" rx="10.4" ry="5.2" fill="#ff00ff" stroke="#00ffff" stroke-width="0.5" fill-opacity="0.6" stroke-opacity="0.6" transform="rotate(106.364 117 247)" />
  <ellipse cx="143" cy="247" rx="10.4" ry="5.2" fill="#ff00ff" stroke="#00ffff" stroke-width="0.5" fill-opacity="0.6" stroke-opacity="0.6" transform="rotate(114.545 143 247)" />
  <ellipse cx="169" cy="247" rx="10.4" ry="5.2" fill="#ff00ff" stroke="#00ffff" stroke-width="0.5" fill-opacity="0.6" stroke-opacity="0.6" transform="rotate(122.727 169 247)" />
  <ellipse cx="195" cy="247" rx="10.4" ry="5.2" fill="#ff00ff" stroke="#00ffff" stroke-width="0.5" fill-opacity="0.6" stroke-opacity="0.6" transform="rotate(130.909 195 247)" />
  <ellipse cx="221" cy="247" rx="10.4" ry="5.2" fill="#ff00ff" stroke="#00ffff" stroke-width="0.5" fill-opacity="0.6" stroke-opacity="0.6" transform="rotate(139.091 221 247)" />
  <ellipse cx="247" cy="247" rx="10.4" ry="5.2" fill="#ff00ff" stroke="#00ffff" stroke-width="0.5" fill-opacity="0.6" stroke-opacity="0.6" transform="rotate(147.273 247 247)" />
  <ellipse cx="273" cy="247" rx="10.4" ry="5.2" fill="#ff00ff" stroke="#00ffff" stroke-width="0.5" fill-opacity="0.6" stroke-opacity="0.6" transform="rotate(155.455 273 247)" />
  <ellipse cx="299" cy="247" rx="10.4" ry="5.2" fill="#ff00ff" stroke="#00ffff" stroke-width="0.5" fill-opacity="0.6" stroke-opacity="0.6" transform="rotate(163.636 299 247)" />
  <ellipse cx="13" cy="273" rx="10.4" ry="5.2" fill="#ff00ff" stroke="#00ffff" stroke-width="0.5" fill-opacity="0.6" stroke-opacity="0.6" transform="rotate(81.8182 13 273)" />
  <ellipse cx="39" cy="273" rx="10.4" ry="5.2" fill="#ff00ff" stroke="#00ffff" stroke-width="0.5" fill-opacity="0.6" stroke-opacity="0.6" transform="rotate(90 39 273)" />
  <ellipse cx="65" cy="273" rx="10.4" ry="5.2" fill="#ff00ff" stroke="#00ffff" stroke-width="0.5" fill-opacity="0.6" stroke-opacity="0.6" transform="rotate(98.1818 65 273)" />
  <ellipse cx="91" cy="273" rx="10.4" ry="5.2" fill="#ff00ff" stroke="#00ffff" stroke-width="0.5" fill-opacity="0.6" stroke-opacity="0.6" transform="rotate(106.364 91 273)" />
  <ellipse cx="117" cy="273" rx="10.4" ry="5.2" fill="#ff00ff" stroke="#00ffff" stroke-width="0.5" fill-opacity="0.6" stroke-opacity="0.6" transform="rotate(114.545 117 273)" />
  <ellipse cx="143" cy="273" rx="10.4" ry="5.2" fill="#ff00ff" stroke="#00ffff" stroke-width="0.5" fill-opacity="0.6" stroke-opacity="0.6" transform="rotate(122.727 143 273)" />
  <ellipse cx="169" cy="273" rx="10.4" ry="5.2" fill="#ff00ff" stroke="#00ffff" stroke-width="0.5" fill-opacity="0.6" stroke-opacity="0.6" transform="rotate(130.909 169 273)" />
  <ellipse cx="195" cy="273" rx="10.4" ry="5.2" fill="#ff00ff" stroke="#00ffff" stroke-width="0.5" fill-opacity="0.6" stroke-opacity="0.6" transform="rotate(139.091 195 273)" />
  <ellipse cx="221" cy="273" rx="10.4" ry="5.2" fill="#ff00ff" stroke="#00ffff" stroke-width="0.5" fill-opacity="0.6" stroke-opacity="0.6" transform="rotate(147.273 221 273)" />
  <ellipse cx="247" cy="273" rx="10.4" ry="5.2" fill="#ff00ff" stroke="#00ffff" stroke-width="0.5" fill-opacity="0.6" stroke-opacity="0.6" transform="rotate(155.455 247 273)" />
  <ellipse cx="273" cy="273" rx="10.4" ry="5.2" fill="#ff00ff" stroke="#00ffff" stroke-width="0.5" fill-opacity="0.6" stroke-opacity="0.6" transform="rotate(163.636 273 273)" />
  <ellipse cx="299" cy="273" rx="10.4" ry="5.2" fill="#ff00ff" stroke="#00ffff" stroke-width="0.5" fill-opacity="0.6" stroke-opacity="0.6" transform="rotate(171.818 299 273)" />
  <ellipse cx="13" cy="299" rx="10.4" ry="5.2" fill="#ff00ff" stroke="#00ffff" stroke-width="0.5" fill-opacity="0.6" stroke-opacity="0.6" transform="rotate(90 13 299)" />
  <ellipse cx="39" cy="299" rx="10.4" ry="5.2" fill="#ff00ff" stroke="#00ffff" stroke-width="0.5" fill-opacity="0.6" stroke-opacity="0.6" transform="rotate(98.1818 39 299)" />
  <ellipse cx="65" cy="299" rx="10.4" ry="5.2" fill="#ff00ff" stroke="#00ffff" stroke-width="0.5" fill-opacity="0.6" stroke-opacity="0.6" transform="rotate(106.364 65 299)" />
  <ellipse cx="91" cy="299" rx="10.4" ry="5.2" fill="#ff00ff" stroke="#00ffff" stroke-width="0.5" fill-opacity="0.6" stroke-opacity="0.6" transform="rotate(114.545 91 299)" />
  <ellipse cx="117" cy="299" rx="10.4" ry="5.2" fill="#ff00ff" stroke="#00ffff" stroke-width="0.5" fill-opacity="0.6" stroke-opacity="0.6" transform="rotate(122.727 117 299)" />
  <ellipse cx="143" cy="299" rx="10.4" ry="5.2" fill="#ff00ff" stroke="#00ffff" stroke-width="0.5" fill-opacity="0.6" stroke-opacity="0.6" transform="rotate(130.909 143 299)" />
  <ellipse cx="169" cy="299" rx="10.4" ry="5.2" fill="#ff00ff" stroke="#00ffff" stroke-width="0.5" fill-opacity="0.6" stroke-opacity="0.6" transform="rotate(139.091 169 299)" />
  <ellipse cx="195" cy="299" rx="10.4" ry="5.2" fill="#ff00ff" stroke="#00ffff" stroke-width="0.5" fill-opacity="0.6" stroke-opacity="0.6" transform="rotate(147.273 195 299)" />
  <ellipse cx="221" cy="299" rx="10.4" ry="5.2" fill="#ff00ff" stroke="#00ffff" stroke-width="0.5" fill-opacity="0.6" stroke-opacity="0.6" transform="rotate(155.455 221 299)" />
  <ellipse cx="247" cy="299" rx="10.4" ry="5.2" fill="#ff00ff" stroke="#00ffff" stroke-width="0.5" fill-opacity="0.6" stroke-opacity="0.6" transform="rotate(163.636 247 299)" />
  <ellipse cx="273" cy="299" rx="10.4" ry="5.2" fill="#ff00ff" stroke="#00ffff" stroke-width="0.5" fill-opacity="0.6" stroke-opacity="0.6" transform="rotate(171.818 273 299)" />
  <ellipse cx="299" cy="299" rx="10.4" ry="5.2" fill="#ff00ff" stroke="#00ffff" stroke-width="0.5" fill-opacity="0.6" stroke-opacity="0.6" transform="rotate(180 299 299)" />
</svg>