<?xml version="1.0" encoding="UTF-8"?>
<svg xmlns="http://www.w3.org/2000/svg" width="280" height="280" viewBox="0 0 280 280">
  <rect width="100%" height="100%" fill="#1a1a2e" />
  <path d="M 28 224 Q 190.4 207.2 252 56" fill="none" stroke="#666688" stroke-width="1.5" stroke-linecap="round" opacity="0.4" />
  <polygon points="28,215.6 35.2746,228.2 20.7254,228.2" fill="#ff6b6b" fill-opacity="0.6" stroke-opacity="0.6" transform="rotate(354.094 28 224)" />
  <polygon points="59.472,210.896 66.7466,223.496 52.1974,223.496" fill="#ff6b6b" fill-opacity="0.64" stroke-opacity="0.64" transform="rotate(348.771 59.472 219.296)" />
  <polygon points="88.928,203.504 96.2026,216.104 81.6534,216.104" fill="#ff6b6b" fill-opacity="0.68" stroke-opacity="0.68" transform="rotate(342.929 88.928 211.904)" />
  <polygon points="116.368,193.424 123.643,206.024 109.093,206.024" fill="#ff6b6b" fill-opacity="0.72" stroke-opacity="0.72" transform="rotate(336.626 116.368 201.824)" />
  <polygon points="141.792,180.656 149.067,193.256 134.517,193.256" fill="#ff6b6b" fill-opacity="0.76" stroke-opacity="0.76" transform="rotate(329.973 141.792 189.056)" />
  <polygon points="165.2,165.2 172.475,177.8 157.925,177.8" fill="#ff6b6b" fill-opacity="0.8" stroke-opacity="0.8" transform="rotate(323.13 165.2 173.6)" />
  <polygon points="186.592,147.056 193.867,159.656 179.317,159.656" fill="#ff6b6b" fill-opacity="0.84" stroke-opacity="0.84" transform="rotate(316.287 186.592 155.456)" />
  <polygon points="205.968,126.224 213.243,138.824 198.693,138.824" fill="#ff6b6b" fill-opacity="0.88" stroke-opacity="0.88" transform="rotate(309.634 205.968 134.624)" />
  <polygon points="223.328,102.704 230.603,115.304 216.053,115.304" fill="#ff6b6b" fill-opacity="0.92" stroke-opacity="0.92" transform="rotate(303.331 223.328 111.104)" />
  <polygon points="238.672,76.496 245.947,89.096 231.397,89.096" fill="#ff6b6b" fill-opacity="0.96" stroke-opacity="0.96" transform="rotate(297.489 238.672 84.896)" />
  <polygon points="252,47.6 259.275,60.2 244.725,60.2" fill="#ff6b6b" transform="rotate(292.166 252 56)" />
</svg>