<?xml version="1.0" encoding="UTF-8"?>
<svg xmlns="http://www.w3.org/2000/svg" width="280" height="280" viewBox="0 0 280 280">
  <rect width="100%" height="100%" fill="#2d1b4e" />
  <ellipse cx="14.0" cy="14.0" rx="11.200000000000001" ry="7.0" fill="none" stroke="#8e7dbe" stroke-width="0.5" fill-opacity="0.3" stroke-opacity="0.3" />
  <circle cx="25.200000000000003" cy="14.0" r="2.8000000000000003" fill="#efa00b" opacity="0.8" />
  <ellipse cx="42.0" cy="14.0" rx="11.200000000000001" ry="7.0" fill="none" stroke="#8e7dbe" stroke-width="0.5" fill-opacity="0.3" stroke-opacity="0.3" transform="rotate(6.666666666666666 42.0 14.0)" />
  <circle cx="53.12426960670976" cy="15.30024063820258" r="2.8000000000000003" fill="#efa00b" opacity="0.8" />
  <ellipse cx="70.0" cy="14.0" rx="11.200000000000001" ry="7.0" fill="none" stroke="#8e7dbe" stroke-width="0.5" fill-opacity="0.3" stroke-opacity="0.3" transform="rotate(13.333333333333332 70.0 14.0)" />
  <circle cx="80.89810255049403" cy="16.58289775231533" r="2.8000000000000003" fill="#efa00b" opacity="0.8" />
  <ellipse cx="98.0" cy="14.0" rx="11.200000000000001" ry="7.0" fill="none" stroke="#8e7dbe" stroke-width="0.5" fill-opacity="0.3" stroke-opacity="0.3" transform="rotate(20.0 98.0 14.0)" />
  <circle cx="108.52455735280218" cy="17.83062560524749" r="2.8000000000000003" fill="#efa00b" opacity="0.8" />
  <ellipse cx="126.0" cy="14.0" rx="11.200000000000001" ry="7.0" fill="none" stroke="#8e7dbe" stroke-width="0.5" fill-opacity="0.3" stroke-opacity="0.3" transform="rotate(26.666666666666664 126.0 14.0)" />
  <circle cx="136.0086855716222" cy="19.026550818245177" r="2.8000000000000003" fill="#efa00b" opacity="0.8" />
  <ellipse cx="154.0" cy="14.0" rx="11.200000000000001" ry="7.0" fill="none" stroke="#8e7dbe" stroke-width="0.5" fill-opacity="0.3" stroke-opacity="0.3" transform="rotate(33.333333333333336 154.0 14.0)" />
  <circle cx="163.3574634878249" cy="20.154500554393028" r="2.8000000000000003" fill="#efa00b" opacity="0.8" />
  <ellipse cx="182.0" cy="14.0" rx="11.200000000000001" ry="7.0" fill="none" stroke="#8e7dbe" stroke-width="0.5" fill-opacity="0.3" stroke-opacity="0.3" transform="rotate(40.0 182.0 14.0)" />
  <circle cx="190.57969776293257" cy="21.19922122848924" r="2.8000000000000003" fill="#efa00b" opacity="0.8" />
  <ellipse cx="210.0" cy="14.0" rx="11.200000000000001" ry="7.0" fill="none" stroke="#8e7dbe" stroke-width="0.5" fill-opacity="0.3" stroke-opacity="0.3" transform="rotate(46.666666666666664 210.0 14.0)" />
  <circle cx="217.68590634412982" cy="22.146584785618145" r="2.8000000000000003" fill="#efa00b" opacity="0.8" />
  <ellipse cx="238.0" cy="14.0" rx="11.200000000000001" ry="7.0" fill="none" stroke="#8e7dbe" stroke-width="0.5" fill-opacity="0.3" stroke-opacity="0.3" transform="rotate(53.33333333333333 238.0 14.0)" />
  <circle cx="244.6881762270712" cy="22.983779758856492" r="2.8000000000000003" fill="#efa00b" opacity="0.8" />
  <ellipse cx="266.0" cy="14.0" rx="11.200000000000001" ry="7.0" fill="none" stroke="#8e7dbe" stroke-width="0.5" fill-opacity="0.3" stroke-opacity="0.3" transform="rotate(60.0 266.0 14.0)" />
  <circle cx="271.6" cy="23.699484522385713" r="2.8000000000000003" fill="#efa00b" opacity="0.8" />
  <ellipse cx="14.0" cy="42.0" rx="11.200000000000001" ry="7.0" fill="none" stroke="#8e7dbe" stroke-width="0.5" fill-opacity="0.3" stroke-opacity="0.3" />
  <circle cx="22.579697762932554" cy="46.499513267805774" r="2.8000000000000003" fill="#efa00b" opacity="0.8" />
  <ellipse cx="42.0" cy="42.0" rx="11.200000000000001" ry="7.0" fill="none" stroke="#8e7dbe" stroke-width="0.5" fill-opacity="0.3" stroke-opacity="0.3" transform="rotate(6.666666666666666 42.0 42.0)" />
  <circle cx="49.99932330857264" cy="47.46513128436605" r="2.8000000000000003" fill="#efa00b" opacity="0.8" />
  <ellipse cx="70.0" cy="42.0" rx="11.200000000000001" ry="7.0" fill="none" stroke="#8e7dbe" stroke-width="0.5" fill-opacity="0.3" stroke-opacity="0.3" transform="rotate(13.333333333333332 70.0 42.0)" />
  <circle cx="77.31077172917452" cy="48.35684277564992" r="2.8000000000000003" fill="#efa00b" opacity="0.8" />
  <ellipse cx="98.0" cy="42.0" rx="11.200000000000001" ry="7.0" fill="none" stroke="#8e7dbe" stroke-width="0.5" fill-opacity="0.3" stroke-opacity="0.3" transform="rotate(20.0 98.0 42.0)" />
  <circle cx="104.52335450365041" cy="49.16258887345449" r="2.8000000000000003" fill="#efa00b" opacity="0.8" />
  <ellipse cx="126.0" cy="42.0" rx="11.200000000000001" ry="7.0" fill="none" stroke="#8e7dbe" stroke-width="0.5" fill-opacity="0.3" stroke-opacity="0.3" transform="rotate(26.666666666666664 126.0 42.0)" />
  <circle cx="131.64772009917397" cy="49.871473244051366" r="2.8000000000000003" fill="#efa00b" opacity="0.8" />
  <ellipse cx="154.0" cy="42.0" rx="11.200000000000001" ry="7.0" fill="none" stroke="#8e7dbe" stroke-width="0.5" fill-opacity="0.3" stroke-opacity="0.3" transform="rotate(33.333333333333336 154.0 42.0)" />
  <circle cx="158.695709968929" cy="50.473909442407965" r="2.8000000000000003" fill="#efa00b" opacity="0.8" />
  <ellipse cx="182.0" cy="42.0" rx="11.200000000000001" ry="7.0" fill="none" stroke="#8e7dbe" stroke-width="0.5" fill-opacity="0.3" stroke-opacity="0.3" transform="rotate(40.0 182.0 42.0)" />
  <circle cx="185.68019841676906" cy="50.96175055241109" r="2.8000000000000003" fill="#efa00b" opacity="0.8" />
  <ellipse cx="210.0" cy="42.0" rx="11.200000000000001" ry="7.0" fill="none" stroke="#8e7dbe" stroke-width="0.5" fill-opacity="0.3" stroke-opacity="0.3" transform="rotate(46.666666666666664 210.0 42.0)" />
  <circle cx="212.6149184943434" cy="51.328399359931524" r="2.8000000000000003" fill="#efa00b" opacity="0.8" />
  <ellipse cx="238.0" cy="42.0" rx="11.200000000000001" ry="7.0" fill="none" stroke="#8e7dbe" stroke-width="0.5" fill-opacity="0.3" stroke-opacity="0.3" transform="rotate(53.33333333333333 238.0 42.0)" />
  <circle cx="239.5142762851323" cy="51.568897568827666" r="2.8000000000000003" fill="#efa00b" opacity="0.8" />
  <ellipse cx="266.0" cy="42.0" rx="11.200000000000001" ry="7.0" fill="none" stroke="#8e7dbe" stroke-width="0.5" fill-opacity="0.3" stroke-opacity="0.3" transform="rotate(60.0 266.0 42.0)" />
  <circle cx="266.39315608688133" cy="51.679992853395" r="2.8000000000000003" fill="#efa00b" opacity="0.8" />
  <ellipse cx="14.0" cy="70.0" rx="11.200000000000001" ry="7.0" fill="none" stroke="#8e7dbe" stroke-width="0.5" fill-opacity="0.3" stroke-opacity="0.3" />
  <circle cx="15.94485958986962" cy="76.89365427108545" r="2.8000000000000003" fill="#efa00b" opacity="0.8" />
  <ellipse cx="42.0" cy="70.0" rx="11.200000000000001" ry="7.0" fill="none" stroke="#8e7dbe" stroke-width="0.5" fill-opacity="0.3" stroke-opacity="0.3" transform="rotate(6.666666666666666 42.0 70.0)" />
  <circle cx="43.13140473177862" cy="77.07282626440602" r="2.8000000000000003" fill="#efa00b" opacity="0.8" />
  <ellipse cx="70.0" cy="70.0" rx="11.200000000000001" ry="7.0" fill="none" stroke="#8e7dbe" stroke-width="0.5" fill-opacity="0.3" stroke-opacity="0.3" transform="rotate(13.333333333333332 70.0 70.0)" />
  <circle cx="70.3026495655969" cy="77.15635041581996" r="2.8000000000000003" fill="#efa00b" opacity="0.8" />
  <ellipse cx="98.0" cy="70.0" rx="11.200000000000001" ry="7.0" fill="none" stroke="#8e7dbe" stroke-width="0.5" fill-opacity="0.3" stroke-opacity="0.3" transform="rotate(20.0 98.0 70.0)" />
  <circle cx="97.46980158323093" cy="77.14309720446377" r="2.8000000000000003" fill="#efa00b" opacity="0.8" />
  <ellipse cx="126.0" cy="70.0" rx="11.200000000000001" ry="7.0" fill="none" stroke="#8e7dbe" stroke-width="0.5" fill-opacity="0.3" stroke-opacity="0.3" transform="rotate(26.666666666666664 126.0 70.0)" />
  <circle cx="124.64412362490494" cy="77.03324585728535" r="2.8000000000000003" fill="#efa00b" opacity="0.8" />
  <ellipse cx="154.0" cy="70.0" rx="11.200000000000001" ry="7.0" fill="none" stroke="#8e7dbe" stroke-width="0.5" fill-opacity="0.3" stroke-opacity="0.3" transform="rotate(33.333333333333336 154.0 70.0)" />
  <circle cx="151.836781568568" cy="76.8282819253071" r="2.8000000000000003" fill="#efa00b" opacity="0.8" />
  <ellipse cx="182.0" cy="70.0" rx="11.200000000000001" ry="7.0" fill="none" stroke="#8e7dbe" stroke-width="0.5" fill-opacity="0.3" stroke-opacity="0.3" transform="rotate(40.0 182.0 70.0)" />
  <circle cx="179.05869333054986" cy="76.53097719409666" r="2.8000000000000003" fill="#efa00b" opacity="0.8" />
  <ellipse cx="210.0" cy="70.0" rx="11.200000000000001" ry="7.0" fill="none" stroke="#8e7dbe" stroke-width="0.5" fill-opacity="0.3" stroke-opacity="0.3" transform="rotate(46.666666666666664 210.0 70.0)" />
  <circle cx="206.3203812194718" cy="76.1453522001222" r="2.8000000000000003" fill="#efa00b" opacity="0.8" />
  <ellipse cx="238.0" cy="70.0" rx="11.200000000000001" ry="7.0" fill="none" stroke="#8e7dbe" stroke-width="0.5" fill-opacity="0.3" stroke-opacity="0.3" transform="rotate(53.33333333333333 238.0 70.0)" />
  <circle cx="233.6318296400737" cy="75.67662185989377" r="2.8000000000000003" fill="#efa00b" opacity="0.8" />
  <ellipse cx="266.0" cy="70.0" rx="11.200000000000001" ry="7.0" fill="none" stroke="#8e7dbe" stroke-width="0.5" fill-opacity="0.3" stroke-opacity="0.3" transform="rotate(60.0 266.0 70.0)" />
  <circle cx="261.0023500712677" cy="75.1311249471636" r="2.8000000000000003" fill="#efa00b" opacity="0.8" />
  <ellipse cx="14.0" cy="98.0" rx="11.200000000000001" ry="7.0" fill="none" stroke="#8e7dbe" stroke-width="0.5" fill-opacity="0.3" stroke-opacity="0.3" />
  <circle cx="8.400000000000002" cy="104.06217782649107" r="2.8000000000000003" fill="#efa00b" opacity="0.8" />
  <ellipse cx="42.0" cy="98.0" rx="11.200000000000001" ry="7.0" fill="none" stroke="#8e7dbe" stroke-width="0.5" fill-opacity="0.3" stroke-opacity="0.3" transform="rotate(6.666666666666666 42.0 98.0)" />
  <circle cx="35.73408930682242" cy="103.37106722962233" r="2.8000000000000003" fill="#efa00b" opacity="0.8" />
  <ellipse cx="70.0" cy="98.0" rx="11.200000000000001" ry="7.0" fill="none" stroke="#8e7dbe" stroke-width="0.5" fill-opacity="0.3" stroke-opacity="0.3" transform="rotate(13.333333333333332 70.0 98.0)" />
  <circle cx="63.152914306701234" cy="102.60732216245222" r="2.8000000000000003" fill="#efa00b" opacity="0.8" />
  <ellipse cx="98.0" cy="98.0" rx="11.200000000000001" ry="7.0" fill="none" stroke="#8e7dbe" stroke-width="0.5" fill-opacity="0.3" stroke-opacity="0.3" transform="rotate(20.0 98.0 98.0)" />
  <circle cx="90.66433439451674" cy="101.78127096682188" r="2.8000000000000003" fill="#efa00b" opacity="0.8" />
  <ellipse cx="126.0" cy="98.0" rx="11.200000000000001" ry="7.0" fill="none" stroke="#8e7dbe" stroke-width="0.5" fill-opacity="0.3" stroke-opacity="0.3" transform="rotate(26.666666666666664 126.0 98.0)" />
  <circle cx="118.27495677543028" cy="100.90408456807468" r="2.8000000000000003" fill="#efa00b" opacity="0.8" />
  <ellipse cx="154.0" cy="98.0" rx="11.200000000000001" ry="7.0" fill="none" stroke="#8e7dbe" stroke-width="0.5" fill-opacity="0.3" stroke-opacity="0.3" transform="rotate(33.333333333333336 154.0 98.0)" />
  <circle cx="145.99004711376895" cy="99.98762540745454" r="2.8000000000000003" fill="#efa00b" opacity="0.8" />
  <ellipse cx="182.0" cy="98.0" rx="11.200000000000001" ry="7.0" fill="none" stroke="#8e7dbe" stroke-width="0.5" fill-opacity="0.3" stroke-opacity="0.3" transform="rotate(40.0 182.0 98.0)" />
  <circle cx="173.8134583239488" cy="99.04428702293795" r="2.8000000000000003" fill="#efa00b" opacity="0.8" />
  <ellipse cx="210.0" cy="98.0" rx="11.200000000000001" ry="7.0" fill="none" stroke="#8e7dbe" stroke-width="0.5" fill-opacity="0.3" stroke-opacity="0.3" transform="rotate(46.666666666666664 210.0 98.0)" />
  <circle cx="201.74757846641688" cy="98.08682644789369" r="2.8000000000000003" fill="#efa00b" opacity="0.8" />
  <ellipse cx="238.0" cy="98.0" rx="11.200000000000001" ry="7.0" fill="none" stroke="#8e7dbe" stroke-width="0.5" fill-opacity="0.3" stroke-opacity="0.3" transform="rotate(53.33333333333333 238.0 98.0)" />
  <circle cx="229.79329845323053" cy="97.12819169409103" r="2.8000000000000003" fill="#efa00b" opacity="0.8" />
  <ellipse cx="266.0" cy="98.0" rx="11.200000000000001" ry="7.0" fill="none" stroke="#8e7dbe" stroke-width="0.5" fill-opacity="0.3" stroke-opacity="0.3" transform="rotate(60.0 266.0 98.0)" />
  <circle cx="257.95" cy="96.18134665205268" r="2.8000000000000003" fill="#efa00b" opacity="0.8" />
  <ellipse cx="14.0" cy="126.0" rx="11.200000000000001" ry="7.0" fill="none" stroke="#8e7dbe" stroke-width="0.5" fill-opacity="0.3" stroke-opacity="0.3" />
  <circle cx="3.4754426471978253" cy="128.39414100327969" r="2.8000000000000003" fill="#efa00b" opacity="0.8" />
  <ellipse cx="42.0" cy="126.0" rx="11.200000000000001" ry="7.0" fill="none" stroke="#8e7dbe" stroke-width="0.5" fill-opacity="0.3" stroke-opacity="0.3" transform="rotate(6.666666666666666 42.0 126.0)" />
  <circle cx="31.268663133044434" cy="127.15612614533524" r="2.8000000000000003" fill="#efa00b" opacity="0.8" />
  <ellipse cx="70.0" cy="126.0" rx="11.200000000000001" ry="7.0" fill="none" stroke="#8e7dbe" stroke-width="0.5" fill-opacity="0.3" stroke-opacity="0.3" transform="rotate(13.333333333333332 70.0 126.0)" />
  <circle cx="59.20700654058115" cy="125.9024766645909" r="2.8000000000000003" fill="#efa00b" opacity="0.8" />
  <ellipse cx="98.0" cy="126.0" rx="11.200000000000001" ry="7.0" fill="none" stroke="#8e7dbe" stroke-width="0.5" fill-opacity="0.3" stroke-opacity="0.3" transform="rotate(20.0 98.0 126.0)" />
  <circle cx="87.29130666945014" cy="124.65014601965827" r="2.8000000000000003" fill="#efa00b" opacity="0.8" />
  <ellipse cx="126.0" cy="126.0" rx="11.200000000000001" ry="7.0" fill="none" stroke="#8e7dbe" stroke-width="0.5" fill-opacity="0.3" stroke-opacity="0.3" transform="rotate(26.666666666666664 126.0 126.0)" />
  <circle cx="115.52042350502398" cy="123.416069834157" r="2.8000000000000003" fill="#efa00b" opacity="0.8" />
  <ellipse cx="154.0" cy="126.0" rx="11.200000000000001" ry="7.0" fill="none" stroke="#8e7dbe" stroke-width="0.5" fill-opacity="0.3" stroke-opacity="0.3" transform="rotate(33.333333333333336 154.0 126.0)" />
  <circle cx="143.89125863514775" cy="122.2169368714582" r="2.8000000000000003" fill="#efa00b" opacity="0.8" />
  <ellipse cx="182.0" cy="126.0" rx="11.200000000000001" ry="7.0" fill="none" stroke="#8e7dbe" stroke-width="0.5" fill-opacity="0.3" stroke-opacity="0.3" transform="rotate(40.0 182.0 126.0)" />
  <circle cx="172.39879715084822" cy="121.0689633477891" r="2.8000000000000003" fill="#efa00b" opacity="0.8" />
  <ellipse cx="210.0" cy="126.0" rx="11.200000000000001" ry="7.0" fill="none" stroke="#8e7dbe" stroke-width="0.5" fill-opacity="0.3" stroke-opacity="0.3" transform="rotate(46.666666666666664 210.0 126.0)" />
  <circle cx="201.0361754643747" cy="119.98767363572722" r="2.8000000000000003" fill="#efa00b" opacity="0.8" />
  <ellipse cx="238.0" cy="126.0" rx="11.200000000000001" ry="7.0" fill="none" stroke="#8e7dbe" stroke-width="0.5" fill-opacity="0.3" stroke-opacity="0.3" transform="rotate(53.33333333333333 238.0 126.0)" />
  <circle cx="229.794774127449" cy="118.98769032369314" r="2.8000000000000003" fill="#efa00b" opacity="0.8" />
  <ellipse cx="266.0" cy="126.0" rx="11.200000000000001" ry="7.0" fill="none" stroke="#8e7dbe" stroke-width="0.5" fill-opacity="0.3" stroke-opacity="0.3" transform="rotate(60.0 266.0 126.0)" />
  <circle cx="258.66433439451674" cy="118.08253647052686" r="2.8000000000000003" fill="#efa00b" opacity="0.8" />
  <ellipse cx="14.0" cy="154.0" rx="11.200000000000001" ry="7.0" fill="none" stroke="#8e7dbe" stroke-width="0.5" fill-opacity="0.3" stroke-opacity="0.3" />
  <circle cx="3.4754426471978253" cy="151.60585899672031" r="2.8000000000000003" fill="#efa00b" opacity="0.8" />
  <ellipse cx="42.0" cy="154.0" rx="11.200000000000001" ry="7.0" fill="none" stroke="#8e7dbe" stroke-width="0.5" fill-opacity="0.3" stroke-opacity="0.3" transform="rotate(6.666666666666666 42.0 154.0)" />
  <circle cx="31.82454874483932" cy="150.4002207887349" r="2.8000000000000003" fill="#efa00b" opacity="0.8" />
  <ellipse cx="70.0" cy="154.0" rx="11.200000000000001" ry="7.0" fill="none" stroke="#8e7dbe" stroke-width="0.5" fill-opacity="0.3" stroke-opacity="0.3" transform="rotate(13.333333333333332 70.0 154.0)" />
  <circle cx="60.3112603648842" cy="149.24326341921864" r="2.8000000000000003" fill="#efa00b" opacity="0.8" />
  <ellipse cx="98.0" cy="154.0" rx="11.200000000000001" ry="7.0" fill="none" stroke="#8e7dbe" stroke-width="0.5" fill-opacity="0.3" stroke-opacity="0.3" transform="rotate(20.0 98.0 154.0)" />
  <circle cx="88.92899556761729" cy="148.1506327518525" r="2.8000000000000003" fill="#efa00b" opacity="0.8" />
  <ellipse cx="126.0" cy="154.0" rx="11.200000000000001" ry="7.0" fill="none" stroke="#8e7dbe" stroke-width="0.5" fill-opacity="0.3" stroke-opacity="0.3" transform="rotate(26.666666666666664 126.0 154.0)" />
  <circle cx="117.66940054413644" cy="147.13710474202227" r="2.8000000000000003" fill="#efa00b" opacity="0.8" />
  <ellipse cx="154.0" cy="154.0" rx="11.200000000000001" ry="7.0" fill="none" stroke="#8e7dbe" stroke-width="0.5" fill-opacity="0.3" stroke-opacity="0.3" transform="rotate(33.333333333333336 154.0 154.0)" />
  <circle cx="146.522462587287" cy="146.21638561736998" r="2.8000000000000003" fill="#efa00b" opacity="0.8" />
  <ellipse cx="182.0" cy="154.0" rx="11.200000000000001" ry="7.0" fill="none" stroke="#8e7dbe" stroke-width="0.5" fill-opacity="0.3" stroke-opacity="0.3" transform="rotate(40.0 182.0 154.0)" />
  <circle cx="175.4766454963496" cy="145.4009265245777" r="2.8000000000000003" fill="#efa00b" opacity="0.8" />
  <ellipse cx="210.0" cy="154.0" rx="11.200000000000001" ry="7.0" fill="none" stroke="#8e7dbe" stroke-width="0.5" fill-opacity="0.3" stroke-opacity="0.3" transform="rotate(46.666666666666664 210.0 154.0)" />
  <circle cx="204.5190455843645" cy="144.70175514896854" r="2.8000000000000003" fill="#efa00b" opacity="0.8" />
  <ellipse cx="238.0" cy="154.0" rx="11.200000000000001" ry="7.0" fill="none" stroke="#8e7dbe" stroke-width="0.5" fill-opacity="0.3" stroke-opacity="0.3" transform="rotate(53.33333333333333 238.0 154.0)" />
  <circle cx="233.6355661783619" cy="144.12832658398037" r="2.8000000000000003" fill="#efa00b" opacity="0.8" />
  <ellipse cx="266.0" cy="154.0" rx="11.200000000000001" ry="7.0" fill="none" stroke="#8e7dbe" stroke-width="0.5" fill-opacity="0.3" stroke-opacity="0.3" transform="rotate(60.0 266.0 154.0)" />
  <circle cx="262.8111082526811" cy="143.68839546724718" r="2.8000000000000003" fill="#efa00b" opacity="0.8" />
  <ellipse cx="14.0" cy="182.0" rx="11.200000000000001" ry="7.0" fill="none" stroke="#8e7dbe" stroke-width="0.5" fill-opacity="0.3" stroke-opacity="0.3" />
  <circle cx="8.399999999999995" cy="175.93782217350892" r="2.8000000000000003" fill="#efa00b" opacity="0.8" />
  <ellipse cx="42.0" cy="182.0" rx="11.200000000000001" ry="7.0" fill="none" stroke="#8e7dbe" stroke-width="0.5" fill-opacity="0.3" stroke-opacity="0.3" transform="rotate(6.666666666666666 42.0 182.0)" />
  <circle cx="37.141641086467814" cy="175.3286921321751" r="2.8000000000000003" fill="#efa00b" opacity="0.8" />
  <ellipse cx="70.0" cy="182.0" rx="11.200000000000001" ry="7.0" fill="none" stroke="#8e7dbe" stroke-width="0.5" fill-opacity="0.3" stroke-opacity="0.3" transform="rotate(13.333333333333332 70.0 182.0)" />
  <circle cx="65.94898314280474" cy="174.80978008523246" r="2.8000000000000003" fill="#efa00b" opacity="0.8" />
  <ellipse cx="98.0" cy="182.0" rx="11.200000000000001" ry="7.0" fill="none" stroke="#8e7dbe" stroke-width="0.5" fill-opacity="0.3" stroke-opacity="0.3" transform="rotate(20.0 98.0 182.0)" />
  <circle cx="94.81110825268107" cy="174.38810342793064" r="2.8000000000000003" fill="#efa00b" opacity="0.8" />
  <ellipse cx="126.0" cy="182.0" rx="11.200000000000001" ry="7.0" fill="none" stroke="#8e7dbe" stroke-width="0.5" fill-opacity="0.3" stroke-opacity="0.3" transform="rotate(26.666666666666664 126.0 182.0)" />
  <circle cx="123.7163576529475" cy="174.06936461368014" r="2.8000000000000003" fill="#efa00b" opacity="0.8" />
  <ellipse cx="154.0" cy="182.0" rx="11.200000000000001" ry="7.0" fill="none" stroke="#8e7dbe" stroke-width="0.5" fill-opacity="0.3" stroke-opacity="0.3" transform="rotate(33.333333333333336 154.0 182.0)" />
  <circle cx="152.65248939840615" cy="173.85787403815243" r="2.8000000000000003" fill="#efa00b" opacity="0.8" />
  <ellipse cx="182.0" cy="182.0" rx="11.200000000000001" ry="7.0" fill="none" stroke="#8e7dbe" stroke-width="0.5" fill-opacity="0.3" stroke-opacity="0.3" transform="rotate(40.0 182.0 182.0)" />
  <circle cx="181.60684391311864" cy="173.7564917485728" r="2.8000000000000003" fill="#efa00b" opacity="0.8" />
  <ellipse cx="210.0" cy="182.0" rx="11.200000000000001" ry="7.0" fill="none" stroke="#8e7dbe" stroke-width="0.5" fill-opacity="0.3" stroke-opacity="0.3" transform="rotate(46.666666666666664 210.0 182.0)" />
  <circle cx="210.5665151894533" cy="173.76658876648818" r="2.8000000000000003" fill="#efa00b" opacity="0.8" />
  <ellipse cx="238.0" cy="182.0" rx="11.200000000000001" ry="7.0" fill="none" stroke="#8e7dbe" stroke-width="0.5" fill-opacity="0.3" stroke-opacity="0.3" transform="rotate(53.33333333333333 238.0 182.0)" />
  <circle cx="239.51852531969823" cy="173.8880285470525" r="2.8000000000000003" fill="#efa00b" opacity="0.8" />
  <ellipse cx="266.0" cy="182.0" rx="11.200000000000001" ry="7.0" fill="none" stroke="#8e7dbe" stroke-width="0.5" fill-opacity="0.3" stroke-opacity="0.3" transform="rotate(60.0 266.0 182.0)" />
  <circle cx="268.45" cy="174.11916882556162" r="2.8000000000000003" fill="#efa00b" opacity="0.8" />
  <ellipse cx="14.0" cy="210.0" rx="11.200000000000001" ry="7.0" fill="none" stroke="#8e7dbe" stroke-width="0.5" fill-opacity="0.3" stroke-opacity="0.3" />
  <circle cx="15.944859589869615" cy="203.10634572891453" r="2.8000000000000003" fill="#efa00b" opacity="0.8" />
  <ellipse cx="42.0" cy="210.0" rx="11.200000000000001" ry="7.0" fill="none" stroke="#8e7dbe" stroke-width="0.5" fill-opacity="0.3" stroke-opacity="0.3" transform="rotate(6.666666666666666 42.0 210.0)" />
  <circle cx="44.73201355838292" cy="203.37874257029873" r="2.8000000000000003" fill="#efa00b" opacity="0.8" />
  <ellipse cx="70.0" cy="210.0" rx="11.200000000000001" ry="7.0" fill="none" stroke="#8e7dbe" stroke-width="0.5" fill-opacity="0.3" stroke-opacity="0.3" transform="rotate(13.333333333333332 70.0 210.0)" />
  <circle cx="73.48222173024432" cy="203.74068055975917" r="2.8000000000000003" fill="#efa00b" opacity="0.8" />
  <ellipse cx="98.0" cy="210.0" rx="11.200000000000001" ry="7.0" fill="none" stroke="#8e7dbe" stroke-width="0.5" fill-opacity="0.3" stroke-opacity="0.3" transform="rotate(20.0 98.0 210.0)" />
  <circle cx="102.18533882689944" cy="204.18726510688725" r="2.8000000000000003" fill="#efa00b" opacity="0.8" />
  <ellipse cx="126.0" cy="210.0" rx="11.200000000000001" ry="7.0" fill="none" stroke="#8e7dbe" stroke-width="0.5" fill-opacity="0.3" stroke-opacity="0.3" transform="rotate(26.666666666666664 126.0 210.0)" />
  <circle cx="130.83185639580205" cy="204.7124569217916" r="2.8000000000000003" fill="#efa00b" opacity="0.8" />
  <ellipse cx="154.0" cy="210.0" rx="11.200000000000001" ry="7.0" fill="none" stroke="#8e7dbe" stroke-width="0.5" fill-opacity="0.3" stroke-opacity="0.3" transform="rotate(33.333333333333336 154.0 210.0)" />
  <circle cx="159.41303139592324" cy="205.30915368613384" r="2.8000000000000003" fill="#efa00b" opacity="0.8" />
  <ellipse cx="182.0" cy="210.0" rx="11.200000000000001" ry="7.0" fill="none" stroke="#8e7dbe" stroke-width="0.5" fill-opacity="0.3" stroke-opacity="0.3" transform="rotate(40.0 182.0 210.0)" />
  <circle cx="187.9210044323827" cy="205.9692860997998" r="2.8000000000000003" fill="#efa00b" opacity="0.8" />
  <ellipse cx="210.0" cy="210.0" rx="11.200000000000001" ry="7.0" fill="none" stroke="#8e7dbe" stroke-width="0.5" fill-opacity="0.3" stroke-opacity="0.3" transform="rotate(46.666666666666664 210.0 210.0)" />
  <circle cx="216.34890604128188" cy="206.68392700434126" r="2.8000000000000003" fill="#efa00b" opacity="0.8" />
  <ellipse cx="238.0" cy="210.0" rx="11.200000000000001" ry="7.0" fill="none" stroke="#8e7dbe" stroke-width="0.5" fill-opacity="0.3" stroke-opacity="0.3" transform="rotate(53.33333333333333 238.0 210.0)" />
  <circle cx="244.69094958741871" cy="207.4434121074792" r="2.8000000000000003" fill="#efa00b" opacity="0.8" />
  <ellipse cx="266.0" cy="210.0" rx="11.200000000000001" ry="7.0" fill="none" stroke="#8e7dbe" stroke-width="0.5" fill-opacity="0.3" stroke-opacity="0.3" transform="rotate(60.0 266.0 210.0)" />
  <circle cx="272.9425095186019" cy="208.23747067607815" r="2.8000000000000003" fill="#efa00b" opacity="0.8" />
  <ellipse cx="14.0" cy="238.0" rx="11.200000000000001" ry="7.0" fill="none" stroke="#8e7dbe" stroke-width="0.5" fill-opacity="0.3" stroke-opacity="0.3" />
  <circle cx="22.579697762932554" cy="233.50048673219422" r="2.8000000000000003" fill="#efa00b" opacity="0.8" />
  <ellipse cx="42.0" cy="238.0" rx="11.200000000000001" ry="7.0" fill="none" stroke="#8e7dbe" stroke-width="0.5" fill-opacity="0.3" stroke-opacity="0.3" transform="rotate(6.666666666666666 42.0 238.0)" />
  <circle cx="51.044046523382065" cy="234.52695294685907" r="2.8000000000000003" fill="#efa00b" opacity="0.8" />
  <ellipse cx="70.0" cy="238.0" rx="11.200000000000001" ry="7.0" fill="none" stroke="#8e7dbe" stroke-width="0.5" fill-opacity="0.3" stroke-opacity="0.3" transform="rotate(13.333333333333332 70.0 238.0)" />
  <circle cx="79.3860900695189" cy="235.60038616496138" r="2.8000000000000003" fill="#efa00b" opacity="0.8" />
  <ellipse cx="98.0" cy="238.0" rx="11.200000000000001" ry="7.0" fill="none" stroke="#8e7dbe" stroke-width="0.5" fill-opacity="0.3" stroke-opacity="0.3" transform="rotate(20.0 98.0 238.0)" />
  <circle cx="107.60120284915176" cy="236.70627004368373" r="2.8000000000000003" fill="#efa00b" opacity="0.8" />
  <ellipse cx="126.0" cy="238.0" rx="11.200000000000001" ry="7.0" fill="none" stroke="#8e7dbe" stroke-width="0.5" fill-opacity="0.3" stroke-opacity="0.3" transform="rotate(26.666666666666664 126.0 238.0)" />
  <circle cx="135.6864758309586" cy="237.82964940069238" r="2.8000000000000003" fill="#efa00b" opacity="0.8" />
  <ellipse cx="154.0" cy="238.0" rx="11.200000000000001" ry="7.0" fill="none" stroke="#8e7dbe" stroke-width="0.5" fill-opacity="0.3" stroke-opacity="0.3" transform="rotate(33.333333333333336 154.0 238.0)" />
  <circle cx="163.64075584414496" cy="238.95533245732292" r="2.8000000000000003" fill="#efa00b" opacity="0.8" />
  <ellipse cx="182.0" cy="238.0" rx="11.200000000000001" ry="7.0" fill="none" stroke="#8e7dbe" stroke-width="0.5" fill-opacity="0.3" stroke-opacity="0.3" transform="rotate(40.0 182.0 238.0)" />
  <circle cx="191.46466117310055" cy="240.06809628132564" r="2.8000000000000003" fill="#efa00b" opacity="0.8" />
  <ellipse cx="210.0" cy="238.0" rx="11.200000000000001" ry="7.0" fill="none" stroke="#8e7dbe" stroke-width="0.5" fill-opacity="0.3" stroke-opacity="0.3" transform="rotate(46.666666666666664 210.0 238.0)" />
  <circle cx="219.16057319616368" cy="241.15289265090925" r="2.8000000000000003" fill="#efa00b" opacity="0.8" />
  <ellipse cx="238.0" cy="238.0" rx="11.200000000000001" ry="7.0" fill="none" stroke="#8e7dbe" stroke-width="0.5" fill-opacity="0.3" stroke-opacity="0.3" transform="rotate(53.33333333333333 238.0 238.0)" />
  <circle cx="246.7326041815644" cy="242.19505155612586" r="2.8000000000000003" fill="#efa00b" opacity="0.8" />
  <ellipse cx="266.0" cy="238.0" rx="11.200000000000001" ry="7.0" fill="none" stroke="#8e7dbe" stroke-width="0.5" fill-opacity="0.3" stroke-opacity="0.3" transform="rotate(60.0 266.0 238.0)" />
  <circle cx="274.1865416760512" cy="243.1804795855892" r="2.8000000000000003" fill="#efa00b" opacity="0.8" />
  <ellipse cx="14.0" cy="266.0" rx="11.200000000000001" ry="7.0" fill="none" stroke="#8e7dbe" stroke-width="0.5" fill-opacity="0.3" stroke-opacity="0.3" />
  <circle cx="25.200000000000003" cy="266.0" r="2.8000000000000003" fill="#efa00b" opacity="0.8" />
  <ellipse cx="42.0" cy="266.0" rx="11.200000000000001" ry="7.0" fill="none" stroke="#8e7dbe" stroke-width="0.5" fill-opacity="0.3" stroke-opacity="0.3" transform="rotate(6.666666666666666 42.0 266.0)" />
  <circle cx="53.12426960670976" cy="267.3002406382026" r="2.8000000000000003" fill="#efa00b" opacity="0.8" />
  <ellipse cx="70.0" cy="266.0" rx="11.200000000000001" ry="7.0" fill="none" stroke="#8e7dbe" stroke-width="0.5" fill-opacity="0.3" stroke-opacity="0.3" transform="rotate(13.333333333333332 70.0 266.0)" />
  <circle cx="80.89810255049403" cy="268.5828977523153" r="2.8000000000000003" fill="#efa00b" opacity="0.8" />
  <ellipse cx="98.0" cy="266.0" rx="11.200000000000001" ry="7.0" fill="none" stroke="#8e7dbe" stroke-width="0.5" fill-opacity="0.3" stroke-opacity="0.3" transform="rotate(20.0 98.0 266.0)" />
  <circle cx="108.52455735280218" cy="269.83062560524746" r="2.8000000000000003" fill="#efa00b" opacity="0.8" />
  <ellipse cx="126.0" cy="266.0" rx="11.200000000000001" ry="7.0" fill="none" stroke="#8e7dbe" stroke-width="0.5" fill-opacity="0.3" stroke-opacity="0.3" transform="rotate(26.666666666666664 126.0 266.0)" />
  <circle cx="136.0086855716222" cy="271.0265508182452" r="2.8000000000000003" fill="#efa00b" opacity="0.8" />
  <ellipse cx="154.0" cy="266.0" rx="11.200000000000001" ry="7.0" fill="none" stroke="#8e7dbe" stroke-width="0.5" fill-opacity="0.3" stroke-opacity="0.3" transform="rotate(33.333333333333336 154.0 266.0)" />
  <circle cx="163.3574634878249" cy="272.15450055439305" r="2.8000000000000003" fill="#efa00b" opacity="0.8" />
  <ellipse cx="182.0" cy="266.0" rx="11.200000000000001" ry="7.0" fill="none" stroke="#8e7dbe" stroke-width="0.5" fill-opacity="0.3" stroke-opacity="0.3" transform="rotate(40.0 182.0 266.0)" />
  <circle cx="190.57969776293257" cy="273.19922122848925" r="2.8000000000000003" fill="#efa00b" opacity="0.8" />
  <ellipse cx="210.0" cy="266.0" rx="11.200000000000001" ry="7.0" fill="none" stroke="#8e7dbe" stroke-width="0.5" fill-opacity="0.3" stroke-opacity="0.3" transform="rotate(46.666666666666664 210.0 266.0)" />
  <circle cx="217.68590634412982" cy="274.14658478561813" r="2.8000000000000003" fill="#efa00b" opacity="0.8" />
  <ellipse cx="238.0" cy="266.0" rx="11.200000000000001" ry="7.0" fill="none" stroke="#8e7dbe" stroke-width="0.5" fill-opacity="0.3" stroke-opacity="0.3" transform="rotate(53.33333333333333 238.0 266.0)" />
  <circle cx="244.6881762270712" cy="274.9837797588565" r="2.8000000000000003" fill="#efa00b" opacity="0.8" />
  <ellipse cx="266.0" cy="266.0" rx="11.200000000000001" ry="7.0" fill="none" stroke="#8e7dbe" stroke-width="0.5" fill-opacity="0.3" stroke-opacity="0.3" transform="rotate(60.0 266.0 266.0)" />
  <circle cx="271.6" cy="275.6994845223857" r="2.8000000000000003" fill="#efa00b" opacity="0.8" />
</svg>