<?xml version="1.0" encoding="UTF-8"?>
<svg xmlns="http://www.w3.org/2000/svg" width="400" height="400" viewBox="0 0 400 400">
  <rect width="100%" height="100%" fill="#0a0a1a" />
  <path d="M 350.0 200.0 C 350.0 204.90873850831352 349.4568687866139 209.81746945873266 348.37647649471717 214.70257104943408 C 347.29608420282045 219.5876726401355 345.6784477132132 224.44912982811474 343.54105035983133 229.26354830241922 C 341.4036530064495 234.0779667767237 338.74652818548094 238.84533171200096 335.5983939685165 243.54270158816934 C 332.4502597515521 248.24007146433772 328.81116532726094 252.8674318164817 324.7204418453818 257.40251485476347 C 320.62971836350266 261.9375978930452 316.0874297403676 266.38038965228776 311.14266880324385 270.70951052389967 C 306.1979078661201 275.0386313955116 300.8507518754463 279.25406804854345 295.15899262454684 283.3355349529403 C 289.4672333736474 287.41700185733714 283.43095979460475 291.3644864447918 277.1154116289833 295.15899262454684 C 270.7998634633618 298.9534988043019 264.2051393898077 302.5950148916857 257.40251485476347 306.06601717798213 C 250.5998903197192 309.53701946427856 243.58947161223315 312.83749726102127 236.4470269854896 315.95156800441055 C 229.30458235874605 319.0656387477998 222.03022341137776 321.99329284848676 214.7025710494341 324.72044184538174 C 207.37491868749046 327.4475908422767 199.99408740340598 329.9742263375011 192.63984885088735 332.2881896522532 C 185.2856102983687 334.60215296700534 177.95807938527315 336.70343697575856 170.73645169758075 338.58192987669304 C 163.51482400988834 340.4604227776275 156.3992123834143 342.11611878621505 149.46652199116699 343.54105035983133 C 142.53383159891968 344.9659819334476 135.78417076214643 346.16014468419723 129.29048947610033 347.1177920604846 C 122.79680819005424 348.07543943677194 116.5592079166022 348.7965684896191 110.64510432613507 349.27770900082953 C 104.73100073566793 349.75884951203994 99.1404862343447 350.0 93.93398282201788 350.0 C 88.72747940969106 350.0 83.9050684364842 349.75884951203994 79.51887027790325 349.27770900082953 C 75.1326721193223 348.7965684896191 71.18275530846185 348.07543943677194 67.71181034774676 347.1177920604846 C 64.24086538703168 346.16014468419723 61.24894650899818 344.9659819334476 58.76839022254694 343.54105035983133 C 56.2878339360957 342.11611878621505 54.318678999209496 340.4604227776349 52.88220793951544 338.58192987669304 C 51.44573687982138 336.7034369757512 50.54197214176111 334.6021529670054 50.180681569224134 332.28818965225327 C 49.81939099668716 329.97422633750114 50.00058023473075 327.44759084228417 50.72229099917047 324.7204418453818 C 51.44400176361019 321.9932928484794 52.70622277792736 319.0656387478072 54.4953120208184 315.95156800441055 C 56.28440126370945 312.8374972610139 58.60033078116455 309.53701946428595 61.41807012330702 306.06601717798213 C 64.23580946544948 302.5950148916783 67.55531460593376 298.9534988043019 71.34070849995916 295.15899262454684 C 75.12610239398457 291.3644864447918 79.37732589586918 287.41700185734453 84.04843199558947 283.3355349529403 C 88.71953809530976 279.25406804853606 93.81045380817696 275.0386313955116 99.2661567729472 270.70951052389967 C 104.72185973771744 266.38038965228776 110.54226471060755 261.93759789303783 116.66446504705968 257.40251485476347 C 122.7866653835118 252.8674318164891 129.210565425964 248.24007146434514 135.86673598545764 243.54270158816934 C 142.52290654495127 238.84533171199354 149.41124362075567 234.07796677672746 156.4572984118305 229.26354830241928 C 163.50335320290532 224.4491298281111 170.70701561666073 219.58767264014296 177.99042883169565 214.7025710494341 C 185.27384204673058 209.81746945872527 192.63689226174733 204.90873850830985 199.99999999999997 200.00000000000003 C 207.3631077382526 195.0912614916902 214.72615795326567 190.18253054127476 222.0095711683043 185.29742895056592 C 229.2929843833429 180.41232735985707 236.49664679709093 175.55087017189263 243.54270158816945 170.73645169758075 C 250.58875637924797 165.92203322326887 257.4770934550524 161.15466828800646 264.1332640145423 156.45729841183066 C 270.7894345740322 151.75992853565486 277.21333461648817 147.1325681835183 283.3355349529403 142.59748514523653 C 289.4577352893924 138.06240210695478 295.2781402622862 133.61961034771596 300.7338432270527 129.29048947610033 C 306.18954619181926 124.9613686044847 311.28046190469206 120.7459319514658 315.9515680044105 116.6644650470597 C 320.6226741041289 112.58299814265361 324.8738976060117 108.63551355521014 328.6592915000408 104.84100737545322 C 332.4446853940699 101.0465011956963 335.7641905345505 97.40498510831614 338.581929876693 93.93398282201788 C 341.39966921883547 90.46298053571962 343.71559873629417 87.16250273897877 345.50468797918154 84.0484319955895 C 347.2937772220689 80.93436125220022 348.55599823638244 78.00670715151318 349.27770900082953 75.27955815461821 C 349.9994197652766 72.55240915772325 350.18060900331653 70.02577366250259 349.81931843077587 67.71181034774676 C 349.4580278582352 65.39784703299094 348.55426312017863 63.296563024248904 347.1177920604846 61.41807012330702 C 345.68132100079055 59.53957722236513 343.71216606391175 57.88388121378493 341.2316097774531 56.45894964016867 C 338.7510534909945 55.034018066552406 335.7591346129461 53.839855315795376 332.28818965225327 52.88220793951544 C 328.8172446915604 51.9245605632355 324.867327880672 51.20343151038087 320.4811297220966 50.72229099917047 C 316.09493156352124 50.24115048796007 311.27252059031093 50.0 306.06601717798225 50.0 C 300.85951376565356 50.0 295.2689992643118 50.24115048796007 289.354895673865 50.72229099917047 C 283.44079208341816 51.20343151038087 277.20319180995324 51.924560563239204 270.7095105238997 52.88220793951544 C 264.2158292378462 53.839855315791674 257.4661684010879 55.034018066552406 250.53347800883316 56.45894964016867 C 243.60078761657846 57.88388121378493 236.4851759901227 59.53957722236143 229.2635483024192 61.41807012330702 C 222.04192061471568 63.296563024252606 214.7143897016647 65.39784703298722 207.36015114911274 67.71181034774673 C 200.0059125965608 70.02577366250625 192.62508131251707 72.55240915772319 185.297428950566 75.27955815461816 C 177.96977658861493 78.00670715151313 170.69541764125756 80.93436125219833 163.55297301451031 84.04843199558947 C 156.41052838776307 87.1625027389806 149.4001096802845 90.46298053570479 142.59748514523653 93.93398282201785 C 135.79486061018858 97.40498510833092 129.20013653663088 101.04650119570174 122.8845883710168 104.84100737545312 C 116.56904020540273 108.6355135552045 110.53276662633422 112.58299814265912 104.84100737545327 116.66446504705968 C 99.14924812457232 120.74593195146024 93.8020921338817 124.96136860447727 88.8573311967561 129.2904894761003 C 83.91257025963051 133.61961034772335 79.37028163650679 138.0624021069584 75.27955815461839 142.59748514523645 C 71.18883467272998 147.1325681835145 67.54974024844797 151.75992853565114 64.40160603148354 156.45729841183064 C 61.2534718145191 161.15466828801013 58.59634699355801 165.9220332232799 56.458949640168726 170.7364516975807 C 54.32155228677944 175.55087017188148 52.70391579718328 180.4123273598645 51.62352350528286 185.29742895056592 C 50.543131213382445 190.18253054126734 50.0 195.09126149169015 50.0 199.99999999999997 C 50.0 204.9087385083098 50.54313121338612 209.81746945875108 51.62352350528283 214.702571049434 C 52.70391579717955 219.58767264011692 54.321552286790485 224.44912982813324 56.45894964016867 229.26354830241922 C 58.59634699354685 234.0779667767052 61.25347181453385 238.84533171201943 64.40160603148348 243.5427015881693 C 67.54974024843311 248.2400714643192 71.18883467276692 252.86743181651872 75.2795581546183 257.40251485476347 C 79.37028163646968 261.9375978930082 83.91257025965264 266.3803896523025 88.85733119675602 270.7095105238996 C 93.8020921338594 275.03863139549674 99.14924812457595 279.2540680485582 104.84100737545319 283.3355349529403 C 110.53276662633043 287.41700185732236 116.56904020543223 291.36448644481396 122.8845883710167 295.15899262454684 C 129.20013653660118 298.9534988042797 135.79486061022178 302.59501489169304 142.59748514523642 306.0660171779821 C 149.40010968025106 309.5370194642711 156.41052838779996 312.8374972610286 163.5529730145102 315.9515680044105 C 170.69541764122044 319.0656387477924 177.96977658864813 321.9932928485016 185.2974289505659 324.72044184538174 C 192.62508131248364 327.4475908422619 200.00591259663096 329.9742263375159 207.3601511491126 332.2881896522532 C 214.71438970159423 334.6021529669905 222.04192061478585 336.7034369757585 229.26354830241905 338.581929876693 C 236.48517599005226 340.46042277762746 243.6007876166079 342.11611878622244 250.53347800883301 343.54105035983133 C 257.4661684010581 344.9659819334402 264.2158292378757 346.1601446842046 270.7095105238996 347.1177920604846 C 277.2031918099235 348.07543943676455 283.4407920834258 348.7965684896191 289.35489567386514 349.27770900082953 C 295.2689992643045 349.75884951203994 300.8595137656755 350.0 306.06601717798196 350.0 C 311.2725205902884 350.0 316.09493156353614 349.75884951203994 320.48112972209674 349.27770900082953 C 324.86732788065734 348.7965684896191 328.8172446915602 348.0754394367571 332.2881896522531 347.1177920604846 C 335.759134612946 346.16014468421207 338.75105349101676 344.9659819334327 341.2316097774532 343.5410503598313 C 343.7121660638896 342.11611878622983 345.68132100079794 340.4604227776275 347.1177920604846 338.58192987669304 C 348.55426312017124 336.70343697575856 349.4580278582426 334.6021529670054 349.81931843077587 332.28818965225327 C 350.18060900330914 329.97422633750114 349.99941976526924 327.44759084226945 349.27770900082953 324.72044184538186 C 348.5559982363898 321.99329284849426 347.2937772220616 319.06563874778516 345.50468797918165 315.95156800441066 C 343.71559873630173 312.83749726103616 341.39966921879864 309.53701946424906 338.58192987669315 306.06601717798225 C 335.76419053458767 302.59501489171544 332.4446853940478 298.95349880428705 328.65929150004087 295.1589926245468 C 324.87389760603395 291.3644864448065 320.6226741041067 287.4170018573224 315.9515680044105 283.33553495294035 C 311.2804619047143 279.2540680485583 306.18954619179726 275.03863139548946 300.73384322705294 270.7095105238997 C 295.2781402623086 266.38038965231 289.45773528937775 261.93759789303056 283.3355349529404 257.4025148547636 C 277.21333461650306 252.86743181649663 270.789434574003 248.24007146431939 264.13326401454265 243.5427015881695 C 257.4770934550823 238.84533171201963 250.58875637921452 234.0779667767015 243.5427015881693 229.2635483024192 C 236.4966467971241 224.4491298281369 229.2929843832911 219.587672640117 222.0095711683043 214.70257104943408 C 214.72615795331748 209.81746945875116 207.3631077382194 204.90873850829507 200.00000000000009 200.00000000000006 C 192.63689226178076 195.09126149170504 185.27384204668272 190.18253054124892 177.9904288316959 185.297428950566 C 170.7070156167091 180.41232735988308 163.5033532028761 175.5508701718669 156.4572984118309 170.73645169758092 C 149.41124362078568 165.92203322329493 142.52290654492177 161.1546682879768 135.86673598545775 156.4572984118306 C 129.21056542599374 151.75992853568442 122.78666538349688 147.13256818349979 116.66446504705955 142.59748514523653 C 110.54226471062222 138.06240210697328 104.72185973769133 133.61961034769013 99.266156772947 129.2904894761004 C 93.81045380820267 124.96136860451067 88.71953809528972 120.74593195144548 84.0484319955898 116.66446504705974 C 79.37732589588987 112.58299814267399 75.12610239396625 108.63551355518985 71.34070849995936 104.84100737545327 C 67.55531460595247 101.0465011957167 64.23580946544212 97.40498510827722 61.41807012330705 93.93398282201781 C 58.600330781171984 90.4629805357584 56.284401263702016 87.16250273896762 54.495312020818375 84.04843199558944 C 52.706222777934734 80.93436125221126 51.44400176360646 78.00670715150395 50.72229099917044 75.27955815461823 C 50.00058023473442 72.55240915773251 49.81939099668716 70.02577366248778 50.180681569224134 67.71181034774676 C 50.54197214176111 65.39784703300575 51.445736879828665 63.29656302424523 52.882207939515325 61.41807012330705 C 54.318678999201985 59.53957722236886 56.28783393611037 57.88388121377389 58.7683902225468 56.458949640168726 C 61.24894650898323 55.03401806656356 64.24086538705382 53.839855315791645 67.7118103477467 52.88220793951541 C 71.1827553084396 51.924560563239176 75.13267211934459 51.203431510377165 79.51887027790333 50.72229099917047 C 83.90506843646207 50.24115048796377 88.72747940971715 50.0 93.93398282201808 50.0 C 99.14048623431901 50.0 104.7310007356933 50.24115048796007 110.64510432613453 50.72229099917047 C 116.55920791657576 51.20343151038087 122.79680819007609 51.924560563239176 129.2904894761 52.88220793951541 C 135.7841707621239 53.839855315791645 142.5338315989454 55.0340180665598 149.46652199116681 56.45894964016867 C 156.39921238338823 57.883881213777535 163.51482400991424 59.539577222368806 170.73645169758075 61.41807012330699 C 177.95807938524726 63.296563024245174 185.28561029840586 65.39784703300201 192.6398488508875 67.71181034774673 C 199.99408740336912 70.02577366249146 207.3749186875167 72.55240915773244 214.70257104943445 75.27955815461816 C 222.0302234113522 78.00670715150387 229.30458235877515 80.93436125221487 236.4470269854891 84.04843199558935 C 243.58947161220303 87.16250273896384 250.59989031974854 90.46298053575462 257.4025148547632 93.93398282201773 C 264.2051393897778 97.40498510828083 270.7998634633987 101.04650119571846 277.11541162898317 104.84100737545319 C 283.4309597945676 108.63551355518791 289.4672333736696 112.58299814267204 295.15899262454684 116.66446504705964 C 300.85075187542407 120.74593195144723 306.19790786613515 124.96136860451055 311.1426688032441 129.29048947610028 C 316.087429740353 133.61961034769 320.62971836350226 138.06240210697317 324.7204418453814 142.59748514523642 C 328.81116532726054 147.13256818349967 332.4502597515593 151.7599285356806 335.59839396851635 156.45729841183046 C 338.7465281854734 161.15466828798034 341.4036530064494 165.92203322329848 343.5410503598313 170.73645169758078 C 345.67844771321313 175.55087017186307 347.29608420282045 180.41232735988297 348.37647649471717 185.2974289505659 C 349.4568687866139 190.1825305412488 350.0 195.09126149168648 350.0 200.0 Z" fill="#4a90d9" stroke="#6ab0ff" stroke-width="1.2" stroke-linecap="round" stroke-linejoin="round" fill-opacity="0.25" stroke-opacity="0.7" />
  <path d="M 312.583302491977 200.0 C 317.901102469181 208.50848001389866 322.08261900374123 217.01674990586014 325.00303369878503 225.36174186209666 C 327.92344839382883 233.7067338183332 329.5824092961651 241.88803566983918 329.93039637192754 249.74884620746167 C 330.27838344769 257.6096567450841 329.31535475930235 265.14958771410363 327.07005674266435 272.2241302925483 C 324.82475872602635 279.29867287099296 321.2974619727724 285.9074776388377 316.5934563992495 291.9238815542512 C 311.88945082572656 297.9402854696647 306.0093033342308 303.3639913753601 299.12853650783046 308.09104959933086 C 292.2477696814301 312.8181078233016 284.367212754394 316.84828489053564 275.7221005928143 320.1043392264673 C 267.07698843123455 323.36039356239894 257.6683628991136 325.84216434663733 247.77707175731146 327.50208645242 C 237.8857806155093 329.1620085582026 227.51301591102057 330.0 216.9684049886067 330.0 C 206.4237940661928 330.0 195.70860770754018 329.1620085582026 185.14269455430997 327.50208645242 C 174.57678140107976 325.84216434663733 164.16141480217883 323.36039356239155 154.20749377023964 320.1043392264673 C 144.25357273830045 316.848284890543 134.76229686813207 312.81810782329427 126.0169810357433 308.0910495993309 C 117.27166520335453 303.36399137536756 109.27336334874181 297.9402854696647 102.26082502773299 291.9238815542512 C 95.24828670672417 285.9074776388377 89.22235703397614 279.29867287099296 84.36291019515869 272.2241302925483 C 79.50346335634124 265.14958771410363 75.81108498672012 257.60965674508043 73.39599269394664 249.74884620746167 C 70.98090040117316 241.88803566984288 69.84338523961665 233.70673381833697 70.01740207175698 225.36174186209672 C 70.1914189038973 217.01674990585647 71.67694675813188 208.50848001390239 74.42964258242111 200.00000000000003 C 77.18233840671034 191.49151998609767 81.20187046045949 182.98325009414356 86.36825558852131 174.6382581379033 C 91.53464071658313 166.29326618166306 97.84725629305203 158.1119643301682 105.11767054928131 150.25115379253833 C 112.3880848055106 142.39034325490846 120.61542154893446 134.85041228589455 129.55409452528227 127.77586970745175 C 138.49276750163006 120.70132712900896 148.14169946850078 114.09252236117344 158.21286951058897 108.07611844574883 C 168.28403955267717 102.05971453032423 178.7762339448797 96.63600862463802 189.3762603626231 91.90895040066911 C 199.9762867803665 87.1818921767002 210.68286776356953 83.15171510946443 221.1764115412964 79.89566077353275 C 231.66995531902327 76.63960643760107 241.94919726392337 74.15783565336268 251.7073016885113 72.49791354758005 C 261.4654061130993 70.83799144179743 270.7011970213107 70.0 279.1389857711336 70.0 C 287.5767745209565 70.0 295.2155442339327 70.83799144179741 301.82727739972455 72.49791354758004 C 308.4390105655164 74.15783565336267 314.02291037238416 76.63960643760106 318.4122972397529 79.89566077353274 C 322.8016841071216 83.15171510946442 325.99602904888957 87.18189217669831 327.8999807705201 91.90895040066907 C 329.8039324921506 96.63600862463983 330.4172615392783 102.05971453033345 329.72166002101847 108.0761184457488 C 329.02605850275864 114.09252236116416 327.02161024940455 120.70132712900153 323.76814810281013 127.77586970745172 C 320.5146859562157 134.8504122859019 316.01260200675955 142.39034325490837 310.3962835984552 150.25115379253825 C 304.7799651901509 158.11196433016812 298.05008917253144 166.29326618165564 290.40754255124955 174.63825813790328 C 282.76499592996765 182.98325009415092 274.21069974497703 191.491519986105 265.0 199.99999999999997 C 255.789300255023 208.50848001389494 245.92330697564122 217.01674990584903 235.69652036404108 225.36174186209666 C 225.46973375244093 233.7067338183443 214.8833862878288 241.88803566983182 204.25348076683085 249.7488462074617 C 193.62357524583288 257.60965674509157 182.95139272945391 265.1495877140962 172.55549819333459 272.22413029254824 C 162.15960365721526 279.2986728710003 152.04124996048543 285.90747763883763 142.50247027152977 291.9238815542511 C 132.96369058257412 297.9402854696646 124.00563446557157 303.3639913753675 115.89570017046859 308.09104959933086 C 107.7857658753656 312.8181078232942 100.52493076934135 316.8482848905355 94.32993100308998 320.10433922646723 C 88.13493123683861 323.36039356239894 83.00651339956968 325.8421643466373 79.09776092107845 327.5020864524199 C 75.18900844258721 329.16200855820256 72.50039238542305 330.0 71.11216802140464 330.0 C 69.72394365738623 330.0 69.73895608155212 329.02178998530525 70.85178872747221 327.50208645242 C 72.06729916686182 325.84216434663733 74.58583892794687 323.36039356239894 78.33222952154769 320.1043392264673 C 82.07862011514851 316.84828489053564 87.0524100457682 312.81810782330905 93.10513153132922 308.0910495993309 C 99.15785301689024 303.3639913753528 106.28877661486861 297.9402854696648 114.28504403699095 291.9238815542513 C 122.2813114591133 285.9074776388378 131.14195903681505 279.29867287100774 140.60249616804532 272.2241302925483 C 150.0630332992756 265.14958771408885 160.12231984916107 257.60965674508054 170.48008580553136 249.74884620746178 C 180.83785176190165 241.888035669843 191.49284886067574 233.70673381832947 202.12702511144352 225.36174186209664 C 212.7612013622113 217.0167499058638 223.37327518925625 208.5084800139246 233.6464758633276 200.00000000000006 C 243.91967653739894 191.4915199860755 253.85276598559906 182.98325009413628 263.1492411831242 174.63825813790345 C 272.44571638064934 166.29326618167062 281.1044569646597 158.11196433015712 288.86699926297337 150.25115379253833 C 296.62954156128706 142.39034325491954 303.4949500726235 134.85041228591493 309.25829214227696 127.77586970745178 C 315.0216342119304 120.70132712898862 319.6822152718562 114.09252236116228 323.1009168343638 108.07611844574878 C 326.51961839687135 102.05971453033527 328.69602845786966 96.63600862464543 329.5651811101934 91.90895040066913 C 330.43433376251716 87.18189217669283 329.99612426043916 83.15171510945889 328.26363317103426 79.89566077353277 C 326.53114208162935 76.63960643760664 323.5045781957068 74.15783565335894 319.27428453817384 72.49791354758003 C 315.0439908806409 70.83799144180111 309.61047726449243 70.0 303.1359342378606 70.0 C 296.6613912112288 70.0 289.1465990524706 70.83799144179925 280.81587453811017 72.49791354758001 C 272.4851500237497 74.15783565336078 263.33949712937385 76.6396064376066 253.65191387457116 79.89566077353273 C 243.96433061976848 83.15171510945885 233.73598450177477 87.18189217669091 223.2721919659624 91.90895040066907 C 212.80839943015005 96.63600862464723 202.11042151855324 102.05971453033335 191.49759320008144 108.0761184457487 C 180.88476488160964 114.09252236116406 170.3583651591951 120.7013271289904 160.23260738744818 127.77586970745169 C 150.10684961570126 134.850412285913 140.3829540985292 142.39034325491573 131.35117941545218 150.25115379253822 C 122.31940473237515 158.1119643301607 113.98083934584164 166.2932661816705 106.58438968863918 174.63825813790334 C 99.18794003143671 182.98325009413617 92.73449748519747 191.49151998610498 87.41669750802309 199.99999999999994 C 82.09889753084872 208.5084800138949 77.91738099624585 217.01674990589328 74.99696630121498 225.36174186209652 C 72.07655160618411 233.70673381829977 70.41759070383486 241.8880356698725 70.06960362807246 249.74884620746167 C 69.72161655231005 257.6096567450508 70.68464524070312 265.1495877141406 72.92994325733558 272.22413029254824 C 75.17524127396804 279.2986728709559 78.70253802724784 285.90747763888214 83.40654360075042 291.92388155425124 C 88.11054917425301 297.94028546962033 93.99069666580242 303.36399137538973 100.87146349216948 308.09104959933086 C 107.75223031853655 312.818107823272 115.63278724565188 316.84828489055775 124.27789940718536 320.10433922646723 C 132.92301156871883 323.3603935623767 142.3316371009305 325.8421643466448 152.22292824268825 327.50208645242 C 162.11421938444602 329.16200855819517 172.48698408902735 330.0 183.0315950113931 330.0 C 193.57620593375887 330.0 204.29139229250367 329.16200855819517 214.8573054456895 327.50208645242 C 225.4232185988753 325.8421643466448 235.8385851978652 323.36039356238416 245.79250622975997 320.1043392264673 C 255.74642726165473 316.8482848905504 265.23770313190846 312.8181078232721 273.98301896425653 308.091049599331 C 282.7283347966046 303.36399137538984 290.726636651284 297.9402854696204 297.73917497226694 291.9238815542513 C 304.75171329324985 285.9074776388822 310.7776429660516 279.298672870956 315.63708980484125 272.22413029254835 C 320.4965366436309 265.1495877141407 324.1889150132872 257.6096567450547 326.6040073060533 249.74884620746178 C 329.01909959881937 241.8880356698689 330.156614760387 233.7067338182999 329.982597928243 225.36174186209666 C 329.80858109609903 217.01674990589342 328.32305324185336 208.50848001386544 325.5703574175789 200.00000000000009 C 322.8176615933045 191.49151998613473 318.79812953951296 182.98325009410675 313.6317444114789 174.6382581379035 C 308.46535928344485 166.29326618170026 302.1527437069075 158.11196433012773 294.8823294507189 150.25115379253856 C 287.6119151945303 142.39034325494939 279.3845784510357 134.8504122858648 270.4459054747175 127.77586970745162 C 261.50723249839933 120.70132712903843 251.8583005314438 114.0925223611438 241.7871304894111 108.0761184457488 C 231.71596044737842 102.0597145303538 221.22376605507634 96.63600862461215 210.62373963737733 91.90895040066914 C 200.0237132196783 87.18189217672614 189.31713223638624 83.15171510944965 178.8235884587038 79.89566077353278 C 168.33004468102135 76.63960643761591 158.05080273602118 74.1578356533553 148.29269831148875 72.49791354758008 C 138.53459388695632 70.83799144180486 129.29880297860268 70.0 120.86101422886676 70.0 C 112.42322547913085 70.0 104.78445576603028 70.83799144180668 98.17272260027543 72.49791354758005 C 91.5609894345206 74.15783565335343 85.97708962759378 76.63960643761769 81.58770276024728 79.89566077353271 C 77.19831589290078 83.15171510944774 74.00397095110125 87.18189217672419 72.10001922947997 91.90895040066904 C 70.19606750785869 96.6360086246139 69.58273846072908 102.05971453035552 70.2783399789815 108.07611844574868 C 70.97394149723394 114.09252236114183 72.9783897506175 120.70132712903828 76.23185189718971 127.77586970745146 C 79.48531404376193 134.85041228586465 83.98739799327198 142.39034325494924 89.60371640154483 150.25115379253842 C 95.22003480981768 158.1119643301276 101.94991082749625 166.2932661817001 109.59245744875037 174.63825813790334 C 117.23500407000448 182.98325009410658 125.78930025504104 191.49151998613456 134.99999999999955 199.99999999999991 C 144.21069974495805 208.50848001386527 154.07669302441747 217.01674990589325 164.3034796359584 225.3617418620965 C 174.53026624749936 233.70673381829974 185.1166137122338 241.88803566986854 195.74651923316884 249.7488462074614 C 206.37642475410388 257.6096567450543 217.0486072705793 265.1495877141333 227.44450180666533 272.22413029254835 C 237.84039634275135 279.2986728709634 247.95875003956996 285.90747763885986 257.4975297284701 291.9238815542512 C 267.03630941737026 297.9402854696425 275.9943655344782 303.3639913753823 284.1042998295312 308.09104959933086 C 292.2142341245842 312.81810782327943 299.47506923069915 316.84828489055036 305.67006899690983 320.10433922646723 C 311.8650687631205 323.3603935623841 316.99348660045604 325.8421643466521 320.90223907892135 327.5020864524199 C 324.81099155738667 329.1620085581877 327.49960761458436 330.0 328.8878319785954 330.0 C 330.2760563426064 330.0 330.2610439184467 329.0217899853061 329.14821127252776 327.50208645242 C 327.93270083314553 325.8421643466448 325.4141610720403 323.36039356238416 321.66777047845244 320.1043392264673 C 317.92137988486456 316.8482848905504 312.9475899542062 312.81810782327955 306.89486846867106 308.091049599331 C 300.84214698313593 303.3639913753824 293.7112233851113 297.94028546965006 285.7149559630093 291.92388155425135 C 277.7186885409073 285.90747763885264 268.8580409631038 279.29867287095624 259.39750383195496 272.2241302925486 C 249.93696670080612 265.1495877141409 239.87768015081306 257.6096567450545 229.5199141944687 249.7488462074616 C 219.16214823812433 241.88803566986874 208.50715113926168 233.70673381829994 197.8729748885568 225.3617418620967 C 187.23879863785191 217.01674990589345 176.62672481065894 208.50848001386547 166.35352413667272 200.0000000000001 C 156.0803234626865 191.49151998613476 146.14723401437902 182.98325009410675 136.85075881687607 174.6382581379035 C 127.55428361937312 166.29326618170026 118.8955430352928 158.11196433012776 111.1330007370272 150.2511537925386 C 103.3704584387616 142.3903432549494 96.50504992734693 134.85041228586113 90.74170785772309 127.77586970745165 C 84.97836578809924 120.70132712904217 80.31778472813825 114.09252236114382 76.89908316563624 108.07611844574882 C 73.48038160313423 102.05971453035382 71.30397154213402 96.63600862461587 70.43481888980656 91.90895040066917 C 69.5656662374791 87.18189217672247 70.00387573956442 83.15171510944967 71.73636682896563 79.8956607735328 C 73.46885791836684 76.63960643761592 76.49542180430589 74.15783565335346 80.72571546182593 72.49791354758008 C 84.95600911934596 70.83799144180671 90.38952273560174 70.0 96.8640657621392 70.0 C 103.33860878867667 70.0 110.85340094754964 70.83799144180666 119.18412546188975 72.49791354758004 C 127.51484997622985 74.15783565335342 136.6605028706777 76.63960643761767 146.34808612542858 79.8956607735327 C 156.03566938017946 83.15171510944772 166.26401549831377 87.18189217672602 176.7278080340373 91.90895040066903 C 187.19160056976085 96.63600862461203 197.88957848147606 102.0597145303555 208.50240679991825 108.07611844574866 C 219.11523511836043 114.09252236114182 229.6416348409191 120.70132712904011 239.7673926125513 127.77586970745145 C 249.8931503841835 134.85041228586277 259.61704590147076 142.39034325494922 268.64882058454776 150.2511537925384 C 277.68059526762477 158.11196433012756 286.01916065420454 166.29326618170003 293.41561031136075 174.63825813790328 C 300.81205996851696 182.98325009410652 307.265502514773 191.49151998610134 312.583302491977 200.0 Z" fill="#d94a6b" stroke="#ff6a8b" stroke-width="1.2" stroke-linecap="round" stroke-linejoin="round" fill-opacity="0.2" stroke-opacity="0.7" />
  <path d="M 277.78174593052023 200.0 C 281.59984843287486 207.19948308868604 285.13628314658774 214.39878838188193 288.35282846287095 221.4599354217741 C 291.56937377915415 228.52108246166628 294.46597944046425 235.44372248986534 297.01133907831905 242.09517756015987 C 299.55669871617386 248.7466326304544 301.7507725600631 255.12657421963073 303.5698471701323 261.11272563215624 C 305.38892178020143 267.0988770446818 306.832968733918 272.6909426174706 307.88638084435536 277.78174593052023 C 308.9397929547927 282.87254924356984 309.6025537627063 287.46183885607394 309.86750018256896 291.46165735328 C 310.1324466024316 295.461475850486 309.99957449453376 298.8716256766116 309.47031993394165 301.62674857624154 C 308.94106537334955 304.3818714758715 308.01543662952315 306.48183137023614 306.7034378513998 307.88638084435536 C 305.3914390732765 309.2909303184746 303.6930907604897 310.0 301.62674857624154 310.0 C 299.56040639199335 310.0 297.12610262231647 309.2909303184746 294.3501471000299 307.88638084435536 C 291.57419157774336 306.48183137023614 288.4566276763598 304.3818714758715 285.03114986990107 301.62674857624154 C 281.60567206344234 298.8716256766116 277.8723338740033 295.4614758504786 273.871485033172 291.46165735328 C 269.8706361923407 287.46183885608133 265.602339212232 282.87254924356245 261.11272563215624 277.78174593052023 C 256.6231120520805 272.690942617478 251.9122520209567 267.0988770446818 247.03106027733102 261.11272563215624 C 242.14986853370533 255.12657421963073 237.09842134477265 248.7466326304544 231.93131449799085 242.09517756015987 C 226.76420765120906 235.44372248986534 221.4815218811061 228.52108246167 216.14035219008986 221.45993542177413 C 210.79918249907362 214.39878838187826 205.39961234138724 207.19948308868604 200.0 200.0 C 194.60038765861276 192.80051691131396 189.2008175009264 185.60121161812177 183.85964780991017 178.5400645782259 C 178.51847811889394 171.47891753833002 173.23579234880205 164.55627751014575 168.06868550200917 157.90482243984013 C 162.9015786552163 151.25336736953452 157.850131466291 144.87342578037303 152.968939722669 138.8872743678438 C 148.087747979047 132.90112295531455 143.37688794792695 127.30905738253308 138.8872743678438 122.21825406947978 C 134.39766078776063 117.12745075642648 130.1293638076629 112.53816114392605 126.12851496682796 108.53834264672003 C 122.127666125993 104.538524149514 118.39432793656138 101.12837432339398 114.96885013009897 98.37325142375849 C 111.54337232363656 95.618128524123 108.42580842225661 93.51816862976757 105.64985289997009 92.11361915564467 C 102.87389737768356 90.70906968152177 100.43959360799741 90.0 98.37325142375849 90.0 C 96.30690923951957 90.0 94.60856092671976 90.70906968152175 93.29656214860016 92.11361915564466 C 91.98456337048056 93.51816862976756 91.05893462665227 95.61812852412298 90.52968006605833 98.37325142375848 C 90.00042550546439 101.12837432339397 89.86755339756837 104.53852414951211 90.13249981743104 108.53834264671998 C 90.3974462372937 112.53816114392785 91.06020704520358 117.1274507564357 92.11361915564466 122.21825406947976 C 93.16703126608573 127.3090573825238 94.61107821980407 132.90112295531083 96.4301528298677 138.88727436784376 C 98.24922743993132 144.8734257803767 100.44330128382612 151.25336736953443 102.98866092168089 157.90482243984005 C 105.53402055953566 164.55627751014566 108.43062622082917 171.47891753832258 111.64717153712903 178.54006457822584 C 114.86371685342888 185.6012116181291 118.40015156710662 192.80051691132132 122.21825406947976 199.99999999999997 C 126.03635657185289 207.19948308867862 130.1360672061467 214.39878838187084 134.47307650583235 221.4599354217741 C 138.810085805518 228.52108246167737 143.38432600603392 235.44372248985428 148.1463589491403 242.0951775601599 C 152.9083918922467 248.7466326304655 157.85814317253667 255.12657421961586 162.9421161268558 261.1127256321562 C 168.02608908117494 267.0988770446965 173.24420427392252 272.69094261747796 178.54006457822584 277.7817459305202 C 183.83592488252916 282.8725492435624 189.20944755213898 287.46183885607394 194.602555823984 291.46165735328 C 199.99566409582903 295.461475850486 205.40827370415218 298.8716256766116 210.7818854362516 301.62674857624154 C 216.15549716835102 304.3818714758715 221.49002706307942 306.48183137023614 226.72781978935902 307.88638084435536 C 231.9656125156386 309.2909303184746 237.10658623446932 310.0 242.0951775601598 310.0 C 247.0837688858503 310.0 251.91989987314173 309.2909303184746 256.5513018612543 307.88638084435536 C 261.1827038493668 306.48183137023614 265.6093044740046 304.3818714758715 269.783261258001 301.62674857624154 C 273.9572180419974 298.8716256766116 277.87846576847375 295.46147585049346 281.50462378904547 291.46165735328003 C 285.1307818096172 287.4618388560666 288.46179346656606 282.8725492435625 291.4616573532799 277.7817459305203 C 294.4615212399938 272.6909426174781 297.1301904844607 267.09887704469656 299.4388222435788 261.11272563215624 C 301.7474540026969 255.12657421961592 303.6960122047306 248.74663263045076 305.263436930543 242.09517756015995 C 306.83086165635535 235.44372248986915 308.0171284154046 228.52108246166256 308.8094160961259 221.45993542177408 C 309.6017037768472 214.3987883818856 310.0 207.19948308870457 310.0 200.00000000000003 C 310.0 192.8005169112955 309.6017037768472 185.6012116181145 308.8094160961259 178.540064578226 C 308.0171284154046 171.47891753833753 306.8308616563628 164.55627751013466 305.263436930543 157.90482243984013 C 303.69601220472316 151.2533673695456 301.74745400270433 144.87342578038414 299.43882224357884 138.88727436784382 C 297.13019048445335 132.9011229553035 294.4615212399865 127.30905738252193 291.46165735328003 122.21825406947973 C 288.46179346657357 117.12745075643753 285.1307818096246 112.53816114393346 281.50462378904547 108.53834264672004 C 277.87846576846636 104.53852414950661 273.9572180420197 101.12837432338843 269.7832612580011 98.37325142375849 C 265.60930447398255 95.61812852412855 261.18270384935215 93.51816862976385 256.5513018612544 92.11361915564464 C 251.91989987315665 90.70906968152543 247.08376888588728 90.0 242.09517756015978 90.0 C 237.10658623443229 90.0 231.96561251566465 90.70906968152357 226.72781978935916 92.11361915564463 C 221.49002706305367 93.51816862976568 216.1554971683252 95.61812852412852 210.78188543625168 98.37325142375846 C 205.40827370417816 101.1283743233884 199.99566409585483 104.53852414950656 194.6025558239839 108.53834264671998 C 189.20944755211295 112.53816114393341 183.83592488251452 117.12745075643562 178.540064578226 122.21825406947967 C 173.2442042739375 127.30905738252372 168.02608908115272 132.9011229552997 162.94211612685578 138.88727436784373 C 157.85814317255884 144.87342578038775 152.90839189226904 151.2533673695455 148.14635894914045 157.90482243984002 C 143.38432600601186 164.55627751013455 138.81008580548846 171.4789175383374 134.4730765058324 178.5400645782259 C 130.13606720617636 185.60121161811438 126.03635657186952 192.8005169113176 122.21825406947973 199.99999999999994 C 118.40015156708994 207.19948308868229 114.86371685340498 214.39878838191143 111.64717153712918 221.459935421774 C 108.43062622085338 228.52108246163655 105.53402055952465 235.44372248989126 102.98866092168097 242.09517756015987 C 100.4433012838373 248.74663263042848 98.2492274399239 255.12657421965287 96.43015282986768 261.1127256321562 C 94.61107821981146 267.0988770446595 93.16703126607457 272.6909426175151 92.1136191556446 277.7817459305203 C 91.06020704521463 282.8725492435255 90.39744623729186 287.4618388560888 90.13249981743104 291.46165735328 C 89.86755339757022 295.4614758504712 90.00042550546996 298.871625676619 90.52968006605835 301.62674857624154 C 91.05893462664673 304.3818714758641 91.98456337048978 306.48183137023614 93.29656214860013 307.88638084435536 C 94.60856092671048 309.2909303184746 96.3069092395251 310.0 98.37325142375846 310.0 C 100.43959360799182 310.0 102.87389737769637 309.29093031846713 105.64985289996994 307.88638084435536 C 108.42580842224352 306.4818313702436 111.54337232365125 304.3818714758641 114.96885013009886 301.62674857624154 C 118.39432793654646 298.871625676619 122.12766612601524 295.46147585046384 126.12851496682799 291.46165735328003 C 130.12936380764074 287.4618388560962 134.39766078782705 282.87254924352555 138.8872743678436 277.78174593052034 C 143.37688794786013 272.69094261751513 148.0877479790617 267.0988770446596 152.9689397226689 261.1127256321563 C 157.85013146627608 255.12657421965298 162.9015786552459 248.7466326304286 168.0686855020092 242.09517756015998 C 173.2357923487725 235.44372248989137 178.51847811892006 228.52108246163667 183.8596478099104 221.4599354217741 C 189.20081750090074 214.39878838191154 194.60038765863862 207.19948308865278 199.99999999999994 200.00000000000006 C 205.39961234136126 192.80051691134733 210.79918249909954 185.6012116180923 216.14035219008989 178.54006457822604 C 221.48152188108023 171.47891753835978 226.76420765122373 164.55627751010894 231.9313144979907 157.90482243984033 C 237.0984213447577 151.25336736957172 242.1498685337238 144.873425780347 247.031060277331 138.88727436784367 C 251.91225202093818 132.90112295534036 256.6231120521028 127.3090573825053 261.11272563215636 122.21825406947976 C 265.6023392122099 117.12745075645421 269.8706361923555 112.53816114390388 273.87148503317195 108.53834264672005 C 277.8723338739884 104.53852414953623 281.6056720634498 101.12837432338105 285.03114986990107 98.3732514237585 C 288.45662767635235 95.61812852413595 291.5741915777507 93.51816862976203 294.3501471000298 92.11361915564468 C 297.1261026223089 90.70906968152734 299.56040639203036 90.0 301.62674857624154 90.0 C 303.6930907604527 90.0 305.39143907328395 90.70906968153102 306.7034378513998 92.11361915564467 C 308.0154366295157 93.51816862975832 308.9410653733496 95.61812852413776 309.4703199339417 98.37325142375845 C 309.9995744945338 101.12837432337913 310.1324466024316 104.53852414953614 309.86750018256896 108.53834264671997 C 309.6025537627063 112.53816114390379 308.93979295478533 117.1274507564541 307.88638084435536 122.21825406947964 C 306.8329687339254 127.30905738250519 305.3889217801867 132.9011229553402 303.56984717013233 138.88727436784353 C 301.75077256007796 144.87342578034685 299.5566987161591 151.25336736957158 297.0113390783191 157.9048224398402 C 294.46597944047915 164.5562775101088 291.5693737791467 171.47891753835964 288.3528284628709 178.5400645782259 C 285.1362831465951 185.60121161809215 281.599848432875 192.80051691134346 277.78174593052034 199.99999999999991 C 273.9636434281657 207.19948308865636 269.86393279383117 214.3987883819114 265.5269234941677 221.45993542177396 C 261.18991419450424 228.52108246163652 256.61567399394414 235.44372248989106 251.85364105085998 242.09517756015967 C 247.09160810777578 248.74663263042828 242.1418568274409 255.12657421965298 237.05788387314396 261.1127256321563 C 231.97391091884703 267.0988770446596 226.75579572606262 272.69094261749285 221.4599354217741 277.78174593052023 C 216.1640751174856 282.8725492435476 210.79055244783495 287.46183885609616 205.39744417601582 291.46165735328 C 200.0043359041967 295.4614758504638 194.59172629582196 298.8716256766189 189.21811456374843 301.6267485762415 C 183.8445028316749 304.38187147586405 178.5099729368946 306.4818313702435 173.27218021064093 307.8863808443553 C 168.03438748438725 309.2909303184671 162.89341376547492 310.0 157.90482243983996 310.0 C 152.916231114205 310.0 148.0801001268397 309.2909303184746 143.44869813874567 307.88638084435536 C 138.81729615065163 306.48183137023614 134.3906955259768 304.3818714758641 130.21673874199894 301.62674857624154 C 126.04278195802105 298.871625676619 122.12153423149674 295.46147585046384 118.49537621095463 291.46165735328003 C 114.86921819041252 287.4618388560962 111.5382065334228 282.8725492435478 108.53834264672005 277.7817459305204 C 105.53847876001731 272.690942617493 102.86980951551911 267.0988770446598 100.56117775642136 261.11272563215647 C 98.25254599732361 255.12657421965315 96.3039877952675 248.74663263042842 94.73656306945696 242.0951775601598 C 93.16913834364642 235.4437224898912 91.98287158459725 228.5210824616367 91.1905839038741 221.45993542177413 C 90.39829622315095 214.39878838191157 90.0 207.1994830886528 90.0 200.00000000000009 C 90.0 192.80051691134736 90.39829622315092 185.60121161809232 91.19058390387407 178.54006457822607 C 91.98287158459722 171.4789175383598 93.16913834364465 164.55627751010897 94.73656306945703 157.90482243984036 C 96.30398779526942 151.25336736957175 98.25254599732354 144.87342578034702 100.56117775642129 138.8872743678437 C 102.86980951551904 132.90112295534038 105.53847876001538 127.30905738250716 108.53834264671997 122.21825406947977 C 111.53820653342456 117.12745075645238 114.86921819041056 112.53816114390573 118.49537621095453 108.53834264672005 C 122.1215342314985 104.53852414953438 126.04278195802496 101.12837432338105 130.21673874199914 98.37325142375852 C 134.3906955259733 95.61812852413598 138.81729615065152 93.51816862976018 143.44869813874556 92.11361915564468 C 148.0801001268396 90.70906968152919 152.91623111420856 90.0 157.90482243983982 90.0 C 162.89341376547108 90.0 168.0343874843875 90.709069681531 173.27218021064118 92.11361915564466 C 178.50997293689485 93.5181686297583 183.8445028316748 95.61812852413775 189.2181145637483 98.37325142375843 C 194.5917262958218 101.12837432337912 200.00433590419695 104.53852414953613 205.39744417601608 108.53834264671995 C 210.7905524478352 112.53816114390378 216.16407511748545 117.12745075645408 221.45993542177396 122.21825406947963 C 226.75579572606247 127.30905738250517 231.97391091884356 132.9011229553402 237.0578838731442 138.88727436784353 C 242.14185682744483 144.87342578034685 247.09160810777564 151.25336736957155 251.85364105085984 157.90482243984016 C 256.61567399394403 164.55627751010877 261.1899141945116 171.4789175383596 265.5269234941676 178.54006457822587 C 269.8639327938236 185.60121161809212 273.9636434281656 192.80051691131396 277.78174593052023 200.0 Z" fill="#4ad9a7" stroke="#6affcf" stroke-width="1.2" stroke-linecap="round" stroke-linejoin="round" fill-opacity="0.3" stroke-opacity="0.7" />
</svg>