<?xml version="1.0" encoding="UTF-8"?>
<svg xmlns="http://www.w3.org/2000/svg" width="280" height="280" viewBox="0 0 280 280">
  <rect width="100%" height="100%" fill="#2d1b4e" />
  <ellipse cx="14" cy="14" rx="11.2" ry="7" fill="none" stroke="#8e7dbe" stroke-width="0.5" fill-opacity="0.3" stroke-opacity="0.3" />
  <circle cx="25.2" cy="14" r="2.8" fill="#efa00b" opacity="0.8" />
  <ellipse cx="42" cy="14" rx="11.2" ry="7" fill="none" stroke="#8e7dbe" stroke-width="0.5" fill-opacity="0.3" stroke-opacity="0.3" transform="rotate(6.66667 42 14)" />
  <circle cx="53.1243" cy="15.3002" r="2.8" fill="#efa00b" opacity="0.8" />
  <ellipse cx="70" cy="14" rx="11.2" ry="7" fill="none" stroke="#8e7dbe" stroke-width="0.5" fill-opacity="0.3" stroke-opacity="0.3" transform="rotate(13.3333 70 14)" />
  <circle cx="80.8981" cy="16.5829" r="2.8" fill="#efa00b" opacity="0.8" />
  <ellipse cx="98" cy="14" rx="11.2" ry="7" fill="none" stroke="#8e7dbe" stroke-width="0.5" fill-opacity="0.3" stroke-opacity="0.3" transform="rotate(20 98 14)" />
  <circle cx="108.525" cy="17.8306" r="2.8" fill="#efa00b" opacity="0.8" />
  <ellipse cx="126" cy="14" rx="11.2" ry="7" fill="none" stroke="#8e7dbe" stroke-width="0.5" fill-opacity="0.3" stroke-opacity="0.3" transform="rotate(26.6667 126 14)" />
  <circle cx="136.009" cy="19.0266" r="2.8" fill="#efa00b" opacity="0.8" />
  <ellipse cx="154" cy="14" rx="11.2" ry="7" fill="none" stroke="#8e7dbe" stroke-width="0.5" fill-opacity="0.3" stroke-opacity="0.3" transform="rotate(33.3333 154 14)" />
  <circle cx="163.357" cy="20.1545" r="2.8" fill="#efa00b" opacity="0.8" />
  <ellipse cx="182" cy="14" rx="11.2" ry="7" fill="none" stroke="#8e7dbe" stroke-width="0.5" fill-opacity="0.3" stroke-opacity="0.3" transform="rotate(40 182 14)" />
  <circle cx="190.58" cy="21.1992" r="2.8" fill="#efa00b" opacity="0.8" />
  <ellipse cx="210" cy="14" rx="11.2" ry="7" fill="none" stroke="#8e7dbe" stroke-width="0.5" fill-opacity="0.3" stroke-opacity="0.3" transform="rotate(46.6667 210 14)" />
  <circle cx="217.686" cy="22.1466" r="2.8" fill="#efa00b" opacity="0.8" />
  <ellipse cx="238" cy="14" rx="11.2" ry="7" fill="none" stroke="#8e7dbe" stroke-width="0.5" fill-opacity="0.3" stroke-opacity="0.3" transform="rotate(53.3333 238 14)" />
  <circle cx="244.688" cy="22.9838" r="2.8" fill="#efa00b" opacity="0.8" />
  <ellipse cx="266" cy="14" rx="11.2" ry="7" fill="none" stroke="#8e7dbe" stroke-width="0.5" fill-opacity="0.3" stroke-opacity="0.3" transform="rotate(60 266 14)" />
  <circle cx="271.6" cy="23.6995" r="2.8" fill="#efa00b" opacity="0.8" />
  <ellipse cx="14" cy="42" rx="11.2" ry="7" fill="none" stroke="#8e7dbe" stroke-width="0.5" fill-opacity="0.3" stroke-opacity="0.3" />
  <circle cx="22.5797" cy="46.4995" r="2.8" fill="#efa00b" opacity="0.8" />
  <ellipse cx="42" cy="42" rx="11.2" ry="7" fill="none" stroke="#8e7dbe" stroke-width="0.5" fill-opacity="0.3" stroke-opacity="0.3" transform="rotate(6.66667 42 42)" />
  <circle cx="49.9993" cy="47.4651" r="2.8" fill="#efa00b" opacity="0.8" />
  <ellipse cx="70" cy="42" rx="11.2" ry="7" fill="none" stroke="#8e7dbe" stroke-width="0.5" fill-opacity="0.3" stroke-opacity="0.3" transform="rotate(13.3333 70 42)" />
  <circle cx="77.3108" cy="48.3568" r="2.8" fill="#efa00b" opacity="0.8" />
  <ellipse cx="98" cy="42" rx="11.2" ry="7" fill="none" stroke="#8e7dbe" stroke-width="0.5" fill-opacity="0.3" stroke-opacity="0.3" transform="rotate(20 98 42)" />
  <circle cx="104.523" cy="49.1626" r="2.8" fill="#efa00b" opacity="0.8" />
  <ellipse cx="126" cy="42" rx="11.2" ry="7" fill="none" stroke="#8e7dbe" stroke-width="0.5" fill-opacity="0.3" stroke-opacity="0.3" transform="rotate(26.6667 126 42)" />
  <circle cx="131.648" cy="49.8715" r="2.8" fill="#efa00b" opacity="0.8" />
  <ellipse cx="154" cy="42" rx="11.2" ry="7" fill="none" stroke="#8e7dbe" stroke-width="0.5" fill-opacity="0.3" stroke-opacity="0.3" transform="rotate(33.3333 154 42)" />
  <circle cx="158.696" cy="50.4739" r="2.8" fill="#efa00b" opacity="0.8" />
  <ellipse cx="182" cy="42" rx="11.2" ry="7" fill="none" stroke="#8e7dbe" stroke-width="0.5" fill-opacity="0.3" stroke-opacity="0.3" transform="rotate(40 182 42)" />
  <circle cx="185.68" cy="50.9618" r="2.8" fill="#efa00b" opacity="0.8" />
  <ellipse cx="210" cy="42" rx="11.2" ry="7" fill="none" stroke="#8e7dbe" stroke-width="0.5" fill-opacity="0.3" stroke-opacity="0.3" transform="rotate(46.6667 210 42)" />
  <circle cx="212.615" cy="51.3284" r="2.8" fill="#efa00b" opacity="0.8" />
  <ellipse cx="238" cy="42" rx="11.2" ry="7" fill="none" stroke="#8e7dbe" stroke-width="0.5" fill-opacity="0.3" stroke-opacity="0.3" transform="rotate(53.3333 238 42)" />
  <circle cx="239.514" cy="51.5689" r="2.8" fill="#efa00b" opacity="0.8" />
  <ellipse cx="266" cy="42" rx="11.2" ry="7" fill="none" stroke="#8e7dbe" stroke-width="0.5" fill-opacity="0.3" stroke-opacity="0.3" transform="rotate(60 266 42)" />
  <circle cx="266.393" cy="51.68" r="2.8" fill="#efa00b" opacity="0.8" />
  <ellipse cx="14" cy="70" rx="11.2" ry="7" fill="none" stroke="#8e7dbe" stroke-width="0.5" fill-opacity="0.3" stroke-opacity="0.3" />
  <circle cx="15.9449" cy="76.8937" r="2.8" fill="#efa00b" opacity="0.8" />
  <ellipse cx="42" cy="70" rx="11.2" ry="7" fill="none" stroke="#8e7dbe" stroke-width="0.5" fill-opacity="0.3" stroke-opacity="0.3" transform="rotate(6.66667 42 70)" />
  <circle cx="43.1314" cy="77.0728" r="2.8" fill="#efa00b" opacity="0.8" />
  <ellipse cx="70" cy="70" rx="11.2" ry="7" fill="none" stroke="#8e7dbe" stroke-width="0.5" fill-opacity="0.3" stroke-opacity="0.3" transform="rotate(13.3333 70 70)" />
  <circle cx="70.3026" cy="77.1564" r="2.8" fill="#efa00b" opacity="0.8" />
  <ellipse cx="98" cy="70" rx="11.2" ry="7" fill="none" stroke="#8e7dbe" stroke-width="0.5" fill-opacity="0.3" stroke-opacity="0.3" transform="rotate(20 98 70)" />
  <circle cx="97.4698" cy="77.1431" r="2.8" fill="#efa00b" opacity="0.8" />
  <ellipse cx="126" cy="70" rx="11.2" ry="7" fill="none" stroke="#8e7dbe" stroke-width="0.5" fill-opacity="0.3" stroke-opacity="0.3" transform="rotate(26.6667 126 70)" />
  <circle cx="124.644" cy="77.0332" r="2.8" fill="#efa00b" opacity="0.8" />
  <ellipse cx="154" cy="70" rx="11.2" ry="7" fill="none" stroke="#8e7dbe" stroke-width="0.5" fill-opacity="0.3" stroke-opacity="0.3" transform="rotate(33.3333 154 70)" />
  <circle cx="151.837" cy="76.8283" r="2.8" fill="#efa00b" opacity="0.8" />
  <ellipse cx="182" cy="70" rx="11.2" ry="7" fill="none" stroke="#8e7dbe" stroke-width="0.5" fill-opacity="0.3" stroke-opacity="0.3" transform="rotate(40 182 70)" />
  <circle cx="179.059" cy="76.531" r="2.8" fill="#efa00b" opacity="0.8" />
  <ellipse cx="210" cy="70" rx="11.2" ry="7" fill="none" stroke="#8e7dbe" stroke-width="0.5" fill-opacity="0.3" stroke-opacity="0.3" transform="rotate(46.6667 210 70)" />
  <circle cx="206.32" cy="76.1454" r="2.8" fill="#efa00b" opacity="0.8" />
  <ellipse cx="238" cy="70" rx="11.2" ry="7" fill="none" stroke="#8e7dbe" stroke-width="0.5" fill-opacity="0.3" stroke-opacity="0.3" transform="rotate(53.3333 238 70)" />
  <circle cx="233.632" cy="75.6766" r="2.8" fill="#efa00b" opacity="0.8" />
  <ellipse cx="266" cy="70" rx="11.2" ry="7" fill="none" stroke="#8e7dbe" stroke-width="0.5" fill-opacity="0.3" stroke-opacity="0.3" transform="rotate(60 266 70)" />
  <circle cx="261.002" cy="75.1311" r="2.8" fill="#efa00b" opacity="0.8" />
  <ellipse cx="14" cy="98" rx="11.2" ry="7" fill="none" stroke="#8e7dbe" stroke-width="0.5" fill-opacity="0.3" stroke-opacity="0.3" />
  <circle cx="8.4" cy="104.062" r="2.8" fill="#efa00b" opacity="0.8" />
  <ellipse cx="42" cy="98" rx="11.2" ry="7" fill="none" stroke="#8e7dbe" stroke-width="0.5" fill-opacity="0.3" stroke-opacity="0.3" transform="rotate(6.66667 42 98)" />
  <circle cx="35.7341" cy="103.371" r="2.8" fill="#efa00b" opacity="0.8" />
  <ellipse cx="70" cy="98" rx="11.2" ry="7" fill="none" stroke="#8e7dbe" stroke-width="0.5" fill-opacity="0.3" stroke-opacity="0.3" transform="rotate(13.3333 70 98)" />
  <circle cx="63.1529" cy="102.607" r="2.8" fill="#efa00b" opacity="0.8" />
  <ellipse cx="98" cy="98" rx="11.2" ry="7" fill="none" stroke="#8e7dbe" stroke-width="0.5" fill-opacity="0.3" stroke-opacity="0.3" transform="rotate(20 98 98)" />
  <circle cx="90.6643" cy="101.781" r="2.8" fill="#efa00b" opacity="0.8" />
  <ellipse cx="126" cy="98" rx="11.2" ry="7" fill="none" stroke="#8e7dbe" stroke-width="0.5" fill-opacity="0.3" stroke-opacity="0.3" transform="rotate(26.6667 126 98)" />
  <circle cx="118.275" cy="100.904" r="2.8" fill="#efa00b" opacity="0.8" />
  <ellipse cx="154" cy="98" rx="11.2" ry="7" fill="none" stroke="#8e7dbe" stroke-width="0.5" fill-opacity="0.3" stroke-opacity="0.3" transform="rotate(33.3333 154 98)" />
  <circle cx="145.99" cy="99.9876" r="2.8" fill="#efa00b" opacity="0.8" />
  <ellipse cx="182" cy="98" rx="11.2" ry="7" fill="none" stroke="#8e7dbe" stroke-width="0.5" fill-opacity="0.3" stroke-opacity="0.3" transform="rotate(40 182 98)" />
  <circle cx="173.813" cy="99.0443" r="2.8" fill="#efa00b" opacity="0.8" />
  <ellipse cx="210" cy="98" rx="11.2" ry="7" fill="none" stroke="#8e7dbe" stroke-width="0.5" fill-opacity="0.3" stroke-opacity="0.3" transform="rotate(46.6667 210 98)" />
  <circle cx="201.748" cy="98.0868" r="2.8" fill="#efa00b" opacity="0.8" />
  <ellipse cx="238" cy="98" rx="11.2" ry="7" fill="none" stroke="#8e7dbe" stroke-width="0.5" fill-opacity="0.3" stroke-opacity="0.3" transform="rotate(53.3333 238 98)" />
  <circle cx="229.793" cy="97.1282" r="2.8" fill="#efa00b" opacity="0.8" />
  <ellipse cx="266" cy="98" rx="11.2" ry="7" fill="none" stroke="#8e7dbe" stroke-width="0.5" fill-opacity="0.3" stroke-opacity="0.3" transform="rotate(60 266 98)" />
  <circle cx="257.95" cy="96.1813" r="2.8" fill="#efa00b" opacity="0.8" />
  <ellipse cx="14" cy="126" rx="11.2" ry="7" fill="none" stroke="#8e7dbe" stroke-width="0.5" fill-opacity="0.3" stroke-opacity="0.3" />
  <circle cx="3.47544" cy="128.394" r="2.8" fill="#efa00b" opacity="0.8" />
  <ellipse cx="42" cy="126" rx="11.2" ry="7" fill="none" stroke="#8e7dbe" stroke-width="0.5" fill-opacity="0.3" stroke-opacity="0.3" transform="rotate(6.66667 42 126)" />
  <circle cx="31.2687" cy="127.156" r="2.8" fill="#efa00b" opacity="0.8" />
  <ellipse cx="70" cy="126" rx="11.2" ry="7" fill="none" stroke="#8e7dbe" stroke-width="0.5" fill-opacity="0.3" stroke-opacity="0.3" transform="rotate(13.3333 70 126)" />
  <circle cx="59.207" cy="125.902" r="2.8" fill="#efa00b" opacity="0.8" />
  <ellipse cx="98" cy="126" rx="11.2" ry="7" fill="none" stroke="#8e7dbe" stroke-width="0.5" fill-opacity="0.3" stroke-opacity="0.3" transform="rotate(20 98 126)" />
  <circle cx="87.2913" cy="124.65" r="2.8" fill="#efa00b" opacity="0.8" />
  <ellipse cx="126" cy="126" rx="11.2" ry="7" fill="none" stroke="#8e7dbe" stroke-width="0.5" fill-opacity="0.3" stroke-opacity="0.3" transform="rotate(26.6667 126 126)" />
  <circle cx="115.52" cy="123.416" r="2.8" fill="#efa00b" opacity="0.8" />
  <ellipse cx="154" cy="126" rx="11.2" ry="7" fill="none" stroke="#8e7dbe" stroke-width="0.5" fill-opacity="0.3" stroke-opacity="0.3" transform="rotate(33.3333 154 126)" />
  <circle cx="143.891" cy="122.217" r="2.8" fill="#efa00b" opacity="0.8" />
  <ellipse cx="182" cy="126" rx="11.2" ry="7" fill="none" stroke="#8e7dbe" stroke-width="0.5" fill-opacity="0.3" stroke-opacity="0.3" transform="rotate(40 182 126)" />
  <circle cx="172.399" cy="121.069" r="2.8" fill="#efa00b" opacity="0.8" />
  <ellipse cx="210" cy="126" rx="11.2" ry="7" fill="none" stroke="#8e7dbe" stroke-width="0.5" fill-opacity="0.3" stroke-opacity="0.3" transform="rotate(46.6667 210 126)" />
  <circle cx="201.036" cy="119.988" r="2.8" fill="#efa00b" opacity="0.8" />
  <ellipse cx="238" cy="126" rx="11.2" ry="7" fill="none" stroke="#8e7dbe" stroke-width="0.5" fill-opacity="0.3" stroke-opacity="0.3" transform="rotate(53.3333 238 126)" />
  <circle cx="229.795" cy="118.988" r="2.8" fill="#efa00b" opacity="0.8" />
  <ellipse cx="266" cy="126" rx="11.2" ry="7" fill="none" stroke="#8e7dbe" stroke-width="0.5" fill-opacity="0.3" stroke-opacity="0.3" transform="rotate(60 266 126)" />
  <circle cx="258.664" cy="118.083" r="2.8" fill="#efa00b" opacity="0.8" />
  <ellipse cx="14" cy="154" rx="11.2" ry="7" fill="none" stroke="#8e7dbe" stroke-width="0.5" fill-opacity="0.3" stroke-opacity="0.3" />
  <circle cx="3.47544" cy="151.606" r="2.8" fill="#efa00b" opacity="0.8" />
  <ellipse cx="42" cy="154" rx="11.2" ry="7" fill="none" stroke="#8e7dbe" stroke-width="0.5" fill-opacity="0.3" stroke-opacity="0.3" transform="rotate(6.66667 42 154)" />
  <circle cx="31.8245" cy="150.4" r="2.8" fill="#efa00b" opacity="0.8" />
  <ellipse cx="70" cy="154" rx="11.2" ry="7" fill="none" stroke="#8e7dbe" stroke-width="0.5" fill-opacity="0.3" stroke-opacity="0.3" transform="rotate(13.3333 70 154)" />
  <circle cx="60.3113" cy="149.243" r="2.8" fill="#efa00b" opacity="0.8" />
  <ellipse cx="98" cy="154" rx="11.2" ry="7" fill="none" stroke="#8e7dbe" stroke-width="0.5" fill-opacity="0.3" stroke-opacity="0.3" transform="rotate(20 98 154)" />
  <circle cx="88.929" cy="148.151" r="2.8" fill="#efa00b" opacity="0.8" />
  <ellipse cx="126" cy="154" rx="11.2" ry="7" fill="none" stroke="#8e7dbe" stroke-width="0.5" fill-opacity="0.3" stroke-opacity="0.3" transform="rotate(26.6667 126 154)" />
  <circle cx="117.669" cy="147.137" r="2.8" fill="#efa00b" opacity="0.8" />
  <ellipse cx="154" cy="154" rx="11.2" ry="7" fill="none" stroke="#8e7dbe" stroke-width="0.5" fill-opacity="0.3" stroke-opacity="0.3" transform="rotate(33.3333 154 154)" />
  <circle cx="146.522" cy="146.216" r="2.8" fill="#efa00b" opacity="0.8" />
  <ellipse cx="182" cy="154" rx="11.2" ry="7" fill="none" stroke="#8e7dbe" stroke-width="0.5" fill-opacity="0.3" stroke-opacity="0.3" transform="rotate(40 182 154)" />
  <circle cx="175.477" cy="145.401" r="2.8" fill="#efa00b" opacity="0.8" />
  <ellipse cx="210" cy="154" rx="11.2" ry="7" fill="none" stroke="#8e7dbe" stroke-width="0.5" fill-opacity="0.3" stroke-opacity="0.3" transform="rotate(46.6667 210 154)" />
  <circle cx="204.519" cy="144.702" r="2.8" fill="#efa00b" opacity="0.8" />
  <ellipse cx="238" cy="154" rx="11.2" ry="7" fill="none" stroke="#8e7dbe" stroke-width="0.5" fill-opacity="0.3" stroke-opacity="0.3" transform="rotate(53.3333 238 154)" />
  <circle cx="233.636" cy="144.128" r="2.8" fill="#efa00b" opacity="0.8" />
  <ellipse cx="266" cy="154" rx="11.2" ry="7" fill="none" stroke="#8e7dbe" stroke-width="0.5" fill-opacity="0.3" stroke-opacity="0.3" transform="rotate(60 266 154)" />
  <circle cx="262.811" cy="143.688" r="2.8" fill="#efa00b" opacity="0.8" />
  <ellipse cx="14" cy="182" rx="11.2" ry="7" fill="none" stroke="#8e7dbe" stroke-width="0.5" fill-opacity="0.3" stroke-opacity="0.3" />
  <circle cx="8.4" cy="175.938" r="2.8" fill="#efa00b" opacity="0.8" />
  <ellipse cx="42" cy="182" rx="11.2" ry="7" fill="none" stroke="#8e7dbe" stroke-width="0.5" fill-opacity="0.3" stroke-opacity="0.3" transform="rotate(6.66667 42 182)" />
  <circle cx="37.1416" cy="175.329" r="2.8" fill="#efa00b" opacity="0.8" />
  <ellipse cx="70" cy="182" rx="11.2" ry="7" fill="none" stroke="#8e7dbe" stroke-width="0.5" fill-opacity="0.3" stroke-opacity="0.3" transform="rotate(13.3333 70 182)" />
  <circle cx="65.949" cy="174.81" r="2.8" fill="#efa00b" opacity="0.8" />
  <ellipse cx="98" cy="182" rx="11.2" ry="7" fill="none" stroke="#8e7dbe" stroke-width="0.5" fill-opacity="0.3" stroke-opacity="0.3" transform="rotate(20 98 182)" />
  <circle cx="94.8111" cy="174.388" r="2.8" fill="#efa00b" opacity="0.8" />
  <ellipse cx="126" cy="182" rx="11.2" ry="7" fill="none" stroke="#8e7dbe" stroke-width="0.5" fill-opacity="0.3" stroke-opacity="0.3" transform="rotate(26.6667 126 182)" />
  <circle cx="123.716" cy="174.069" r="2.8" fill="#efa00b" opacity="0.8" />
  <ellipse cx="154" cy="182" rx="11.2" ry="7" fill="none" stroke="#8e7dbe" stroke-width="0.5" fill-opacity="0.3" stroke-opacity="0.3" transform="rotate(33.3333 154 182)" />
  <circle cx="152.652" cy="173.858" r="2.8" fill="#efa00b" opacity="0.8" />
  <ellipse cx="182" cy="182" rx="11.2" ry="7" fill="none" stroke="#8e7dbe" stroke-width="0.5" fill-opacity="0.3" stroke-opacity="0.3" transform="rotate(40 182 182)" />
  <circle cx="181.607" cy="173.756" r="2.8" fill="#efa00b" opacity="0.8" />
  <ellipse cx="210" cy="182" rx="11.2" ry="7" fill="none" stroke="#8e7dbe" stroke-width="0.5" fill-opacity="0.3" stroke-opacity="0.3" transform="rotate(46.6667 210 182)" />
  <circle cx="210.567" cy="173.767" r="2.8" fill="#efa00b" opacity="0.8" />
  <ellipse cx="238" cy="182" rx="11.2" ry="7" fill="none" stroke="#8e7dbe" stroke-width="0.5" fill-opacity="0.3" stroke-opacity="0.3" transform="rotate(53.3333 238 182)" />
  <circle cx="239.519" cy="173.888" r="2.8" fill="#efa00b" opacity="0.8" />
  <ellipse cx="266" cy="182" rx="11.2" ry="7" fill="none" stroke="#8e7dbe" stroke-width="0.5" fill-opacity="0.3" stroke-opacity="0.3" transform="rotate(60 266 182)" />
  <circle cx="268.45" cy="174.119" r="2.8" fill="#efa00b" opacity="0.8" />
  <ellipse cx="14" cy="210" rx="11.2" ry="7" fill="none" stroke="#8e7dbe" stroke-width="0.5" fill-opacity="0.3" stroke-opacity="0.3" />
  <circle cx="15.9449" cy="203.106" r="2.8" fill="#efa00b" opacity="0.8" />
  <ellipse cx="42" cy="210" rx="11.2" ry="7" fill="none" stroke="#8e7dbe" stroke-width="0.5" fill-opacity="0.3" stroke-opacity="0.3" transform="rotate(6.66667 42 210)" />
  <circle cx="44.732" cy="203.379" r="2.8" fill="#efa00b" opacity="0.8" />
  <ellipse cx="70" cy="210" rx="11.2" ry="7" fill="none" stroke="#8e7dbe" stroke-width="0.5" fill-opacity="0.3" stroke-opacity="0.3" transform="rotate(13.3333 70 210)" />
  <circle cx="73.4822" cy="203.741" r="2.8" fill="#efa00b" opacity="0.8" />
  <ellipse cx="98" cy="210" rx="11.2" ry="7" fill="none" stroke="#8e7dbe" stroke-width="0.5" fill-opacity="0.3" stroke-opacity="0.3" transform="rotate(20 98 210)" />
  <circle cx="102.185" cy="204.187" r="2.8" fill="#efa00b" opacity="0.8" />
  <ellipse cx="126" cy="210" rx="11.2" ry="7" fill="none" stroke="#8e7dbe" stroke-width="0.5" fill-opacity="0.3" stroke-opacity="0.3" transform="rotate(26.6667 126 210)" />
  <circle cx="130.832" cy="204.712" r="2.8" fill="#efa00b" opacity="0.8" />
  <ellipse cx="154" cy="210" rx="11.2" ry="7" fill="none" stroke="#8e7dbe" stroke-width="0.5" fill-opacity="0.3" stroke-opacity="0.3" transform="rotate(33.3333 154 210)" />
  <circle cx="159.413" cy="205.309" r="2.8" fill="#efa00b" opacity="0.8" />
  <ellipse cx="182" cy="210" rx="11.2" ry="7" fill="none" stroke="#8e7dbe" stroke-width="0.5" fill-opacity="0.3" stroke-opacity="0.3" transform="rotate(40 182 210)" />
  <circle cx="187.921" cy="205.969" r="2.8" fill="#efa00b" opacity="0.8" />
  <ellipse cx="210" cy="210" rx="11.2" ry="7" fill="none" stroke="#8e7dbe" stroke-width="0.5" fill-opacity="0.3" stroke-opacity="0.3" transform="rotate(46.6667 210 210)" />
  <circle cx="216.349" cy="206.684" r="2.8" fill="#efa00b" opacity="0.8" />
  <ellipse cx="238" cy="210" rx="11.2" ry="7" fill="none" stroke="#8e7dbe" stroke-width="0.5" fill-opacity="0.3" stroke-opacity="0.3" transform="rotate(53.3333 238 210)" />
  <circle cx="244.691" cy="207.443" r="2.8" fill="#efa00b" opacity="0.8" />
  <ellipse cx="266" cy="210" rx="11.2" ry="7" fill="none" stroke="#8e7dbe" stroke-width="0.5" fill-opacity="0.3" stroke-opacity="0.3" transform="rotate(60 266 210)" />
  <circle cx="272.943" cy="208.237" r="2.8" fill="#efa00b" opacity="0.8" />
  <ellipse cx="14" cy="238" rx="11.2" ry="7" fill="none" stroke="#8e7dbe" stroke-width="0.5" fill-opacity="0.3" stroke-opacity="0.3" />
  <circle cx="22.5797" cy="233.5" r="2.8" fill="#efa00b" opacity="0.8" />
  <ellipse cx="42" cy="238" rx="11.2" ry="7" fill="none" stroke="#8e7dbe" stroke-width="0.5" fill-opacity="0.3" stroke-opacity="0.3" transform="rotate(6.66667 42 238)" />
  <circle cx="51.044" cy="234.527" r="2.8" fill="#efa00b" opacity="0.8" />
  <ellipse cx="70" cy="238" rx="11.2" ry="7" fill="none" stroke="#8e7dbe" stroke-width="0.5" fill-opacity="0.3" stroke-opacity="0.3" transform="rotate(13.3333 70 238)" />
  <circle cx="79.3861" cy="235.6" r="2.8" fill="#efa00b" opacity="0.8" />
  <ellipse cx="98" cy="238" rx="11.2" ry="7" fill="none" stroke="#8e7dbe" stroke-width="0.5" fill-opacity="0.3" stroke-opacity="0.3" transform="rotate(20 98 238)" />
  <circle cx="107.601" cy="236.706" r="2.8" fill="#efa00b" opacity="0.8" />
  <ellipse cx="126" cy="238" rx="11.2" ry="7" fill="none" stroke="#8e7dbe" stroke-width="0.5" fill-opacity="0.3" stroke-opacity="0.3" transform="rotate(26.6667 126 238)" />
  <circle cx="135.686" cy="237.83" r="2.8" fill="#efa00b" opacity="0.8" />
  <ellipse cx="154" cy="238" rx="11.2" ry="7" fill="none" stroke="#8e7dbe" stroke-width="0.5" fill-opacity="0.3" stroke-opacity="0.3" transform="rotate(33.3333 154 238)" />
  <circle cx="163.641" cy="238.955" r="2.8" fill="#efa00b" opacity="0.8" />
  <ellipse cx="182" cy="238" rx="11.2" ry="7" fill="none" stroke="#8e7dbe" stroke-width="0.5" fill-opacity="0.3" stroke-opacity="0.3" transform="rotate(40 182 238)" />
  <circle cx="191.465" cy="240.068" r="2.8" fill="#efa00b" opacity="0.8" />
  <ellipse cx="210" cy="238" rx="11.2" ry="7" fill="none" stroke="#8e7dbe" stroke-width="0.5" fill-opacity="0.3" stroke-opacity="0.3" transform="rotate(46.6667 210 238)" />
  <circle cx="219.161" cy="241.153" r="2.8" fill="#efa00b" opacity="0.8" />
  <ellipse cx="238" cy="238" rx="11.2" ry="7" fill="none" stroke="#8e7dbe" stroke-width="0.5" fill-opacity="0.3" stroke-opacity="0.3" transform="rotate(53.3333 238 238)" />
  <circle cx="246.733" cy="242.195" r="2.8" fill="#efa00b" opacity="0.8" />
  <ellipse cx="266" cy="238" rx="11.2" ry="7" fill="none" stroke="#8e7dbe" stroke-width="0.5" fill-opacity="0.3" stroke-opacity="0.3" transform="rotate(60 266 238)" />
  <circle cx="274.187" cy="243.18" r="2.8" fill="#efa00b" opacity="0.8" />
  <ellipse cx="14" cy="266" rx="11.2" ry="7" fill="none" stroke="#8e7dbe" stroke-width="0.5" fill-opacity="0.3" stroke-opacity="0.3" />
  <circle cx="25.2" cy="266" r="2.8" fill="#efa00b" opacity="0.8" />
  <ellipse cx="42" cy="266" rx="11.2" ry="7" fill="none" stroke="#8e7dbe" stroke-width="0.5" fill-opacity="0.3" stroke-opacity="0.3" transform="rotate(6.66667 42 266)" />
  <circle cx="53.1243" cy="267.3" r="2.8" fill="#efa00b" opacity="0.8" />
  <ellipse cx="70" cy="266" rx="11.2" ry="7" fill="none" stroke="#8e7dbe" stroke-width="0.5" fill-opacity="0.3" stroke-opacity="0.3" transform="rotate(13.3333 70 266)" />
  <circle cx="80.8981" cy="268.583" r="2.8" fill="#efa00b" opacity="0.8" />
  <ellipse cx="98" cy="266" rx="11.2" ry="7" fill="none" stroke="#8e7dbe" stroke-width="0.5" fill-opacity="0.3" stroke-opacity="0.3" transform="rotate(20 98 266)" />
  <circle cx="108.525" cy="269.831" r="2.8" fill="#efa00b" opacity="0.8" />
  <ellipse cx="126" cy="266" rx="11.2" ry="7" fill="none" stroke="#8e7dbe" stroke-width="0.5" fill-opacity="0.3" stroke-opacity="0.3" transform="rotate(26.6667 126 266)" />
  <circle cx="136.009" cy="271.027" r="2.8" fill="#efa00b" opacity="0.8" />
  <ellipse cx="154" cy="266" rx="11.2" ry="7" fill="none" stroke="#8e7dbe" stroke-width="0.5" fill-opacity="0.3" stroke-opacity="0.3" transform="rotate(33.3333 154 266)" />
  <circle cx="163.357" cy="272.155" r="2.8" fill="#efa00b" opacity="0.8" />
  <ellipse cx="182" cy="266" rx="11.2" ry="7" fill="none" stroke="#8e7dbe" stroke-width="0.5" fill-opacity="0.3" stroke-opacity="0.3" transform="rotate(40 182 266)" />
  <circle cx="190.58" cy="273.199" r="2.8" fill="#efa00b" opacity="0.8" />
  <ellipse cx="210" cy="266" rx="11.2" ry="7" fill="none" stroke="#8e7dbe" stroke-width="0.5" fill-opacity="0.3" stroke-opacity="0.3" transform="rotate(46.6667 210 266)" />
  <circle cx="217.686" cy="274.147" r="2.8" fill="#efa00b" opacity="0.8" />
  <ellipse cx="238" cy="266" rx="11.2" ry="7" fill="none" stroke="#8e7dbe" stroke-width="0.5" fill-opacity="0.3" stroke-opacity="0.3" transform="rotate(53.3333 238 266)" />
  <circle cx="244.688" cy="274.984" r="2.8" fill="#efa00b" opacity="0.8" />
  <ellipse cx="266" cy="266" rx="11.2" ry="7" fill="none" stroke="#8e7dbe" stroke-width="0.5" fill-opacity="0.3" stroke-opacity="0.3" transform="rotate(60 266 266)" />
  <circle cx="271.6" cy="275.699" r="2.8" fill="#efa00b" opacity="0.8" />
</svg>