<?xml version="1.0" encoding="UTF-8"?>
<svg xmlns="http://www.w3.org/2000/svg" width="256" height="256" viewBox="0 0 256 256">
  <rect width="100%" height="100%" fill="#1a2e1a" />
  <ellipse cx="16" cy="16" rx="12.8" ry="12.8" fill="none" stroke="#2d4a2d" stroke-width="0.3" fill-opacity="0.2" stroke-opacity="0.2" />
  <path d="M 28.8 16 C 28.8 16.3351 28.7868 16.6702 28.7605 17.0043 C 28.7342 17.3383 28.6948 17.6714 28.6424 18.0024 C 28.59 18.3333 28.5246 18.6623 28.4463 18.9881 C 28.3681 19.3139 28.2771 19.6367 28.1735 19.9554 C 28.07 20.2741 27.9539 20.5888 27.8257 20.8983 C 27.6974 21.2079 27.557 21.5125 27.4049 21.8111 C 27.2527 22.1097 27.0889 22.4023 26.9138 22.688 C 26.7387 22.9737 26.5524 23.2525 26.3554 23.5237 C 26.1584 23.7948 25.9508 24.0581 25.7332 24.3129 C 25.5156 24.5677 25.2879 24.814 25.051 25.051 C 24.814 25.2879 24.5677 25.5156 24.3129 25.7332 C 24.0581 25.9508 23.7948 26.1584 23.5237 26.3554 C 23.2525 26.5524 22.9737 26.7387 22.688 26.9138 C 22.4023 27.0889 22.1097 27.2527 21.8111 27.4049 C 21.5125 27.557 21.2079 27.6974 20.8983 27.8257 C 20.5888 27.9539 20.2741 28.07 19.9554 28.1735 C 19.6367 28.2771 19.3139 28.3681 18.9881 28.4463 C 18.6623 28.5246 18.3333 28.59 18.0024 28.6424 C 17.6714 28.6948 17.3383 28.7342 17.0043 28.7605 C 16.6702 28.7868 16.3351 28.8 16 28.8 C 15.6649 28.8 15.3298 28.7868 14.9957 28.7605 C 14.6617 28.7342 14.3286 28.6948 13.9976 28.6424 C 13.6667 28.59 13.3377 28.5246 13.0119 28.4463 C 12.6861 28.3681 12.3633 28.2771 12.0446 28.1735" fill="none" stroke="#4ade80" stroke-width="2" stroke-linecap="round" stroke-linejoin="round" fill-opacity="0.6" stroke-opacity="0.6" />
  <ellipse cx="48" cy="16" rx="12.8" ry="12.8" fill="none" stroke="#2d4a2d" stroke-width="0.3" fill-opacity="0.2" stroke-opacity="0.2" />
  <path d="M 59.5324 21.5537 C 59.387 21.8556 59.2297 22.1518 59.0611 22.4414 C 58.8925 22.731 58.7125 23.0139 58.5216 23.2894 C 58.3308 23.5649 58.1291 23.8328 57.9173 24.0924 C 57.7054 24.3521 57.4834 24.6034 57.2518 24.8456 C 57.0202 25.0878 56.7791 25.3209 56.5292 25.5442 C 56.2794 25.7675 56.0207 25.981 55.7541 26.184 C 55.4875 26.387 55.2129 26.5795 54.9312 26.761 C 54.6495 26.9424 54.3606 27.1128 54.0655 27.2716 C 53.7704 27.4304 53.4691 27.5776 53.1625 27.7128 C 52.8558 27.8479 52.5439 27.971 52.2276 28.0817 C 51.9113 28.1924 51.5906 28.2906 51.2666 28.3762 C 50.9426 28.4617 50.6152 28.5345 50.2855 28.5943 C 49.9558 28.6541 49.6237 28.701 49.2903 28.7348 C 48.9569 28.7686 48.6222 28.7893 48.2872 28.7968 C 47.9522 28.8043 47.6169 28.7987 47.2823 28.7799 C 46.9477 28.7611 46.6139 28.7291 46.2818 28.6842 C 45.9497 28.6392 45.6194 28.5811 45.2919 28.5102 C 44.9644 28.4394 44.6397 28.3556 44.3187 28.2592 C 43.9978 28.1628 43.6806 28.0538 43.3682 27.9326 C 43.0558 27.8113 42.7482 27.6778 42.4463 27.5324 C 42.1444 27.387 41.8482 27.2297 41.5586 27.0611 C 41.269 26.8925 40.9861 26.7125 40.7106 26.5216 C 40.4351 26.3308 40.1672 26.1291 39.9076 25.9173 C 39.6479 25.7054 39.3966 25.4834 39.1544 25.2518" fill="none" stroke="#4ade80" stroke-width="2" stroke-linecap="round" stroke-linejoin="round" fill-opacity="0.6" stroke-opacity="0.6" />
  <ellipse cx="80" cy="16" rx="12.8" ry="12.8" fill="none" stroke="#2d4a2d" stroke-width="0.3" fill-opacity="0.2" stroke-opacity="0.2" />
  <path d="M 87.9807 26.0074 C 87.7187 26.2164 87.4485 26.415 87.1709 26.6027 C 86.8933 26.7905 86.6084 26.9673 86.3169 27.1327 C 86.0255 27.2981 85.7275 27.452 85.424 27.594 C 85.1204 27.736 84.8113 27.8661 84.4976 27.9838 C 84.1839 28.1016 83.8655 28.207 83.5435 28.2997 C 83.2215 28.3925 82.8958 28.4726 82.5675 28.5398 C 82.2393 28.6071 81.9083 28.6614 81.5758 28.7026 C 81.2432 28.7439 80.909 28.7721 80.5743 28.7871 C 80.2395 28.8021 79.9041 28.804 79.5692 28.7927 C 79.2343 28.7815 78.8999 28.757 78.5669 28.7195 C 78.2339 28.682 77.9023 28.6314 77.5733 28.5679 C 77.2443 28.5043 76.9178 28.4279 76.5947 28.3387 C 76.2717 28.2496 75.9522 28.1477 75.6371 28.0335 C 75.3221 27.9193 75.0116 27.7927 74.7065 27.6541 C 74.4013 27.5155 74.1017 27.365 73.8084 27.2029 C 73.5151 27.0408 73.2282 26.8671 72.9485 26.6825 C 72.6689 26.4979 72.3964 26.3023 72.1321 26.0964 C 71.8678 25.8904 71.6116 25.674 71.3642 25.4479 C 71.1169 25.2218 70.8784 24.986 70.6496 24.7412 C 70.4207 24.4964 70.2015 24.2427 69.9926 23.9807 C 69.7836 23.7187 69.585 23.4485 69.3973 23.1709 C 69.2095 22.8933 69.0327 22.6084 68.8673 22.3169 C 68.7019 22.0255 68.548 21.7275 68.406 21.424 C 68.264 21.1204 68.1339 20.8113 68.0162 20.4976" fill="none" stroke="#4ade80" stroke-width="2" stroke-linecap="round" stroke-linejoin="round" fill-opacity="0.6" stroke-opacity="0.6" />
  <ellipse cx="112" cy="16" rx="12.8" ry="12.8" fill="none" stroke="#2d4a2d" stroke-width="0.3" fill-opacity="0.2" stroke-opacity="0.2" />
  <path d="M 114.848 28.4791 C 114.522 28.5536 114.192 28.6154 113.86 28.6641 C 113.529 28.7128 113.195 28.7485 112.861 28.771 C 112.527 28.7935 112.191 28.803 111.856 28.7992 C 111.521 28.7954 111.186 28.7785 110.853 28.7485 C 110.519 28.7184 110.186 28.6753 109.856 28.6191 C 109.526 28.563 109.197 28.4939 108.872 28.412 C 108.547 28.3301 108.226 28.2355 107.908 28.1284 C 107.591 28.0213 107.277 27.9017 106.969 27.77 C 106.661 27.6383 106.358 27.4944 106.061 27.339 C 105.764 27.1835 105.474 27.0164 105.19 26.8381 C 104.906 26.6598 104.63 26.4704 104.361 26.2704 C 104.092 26.0704 103.831 25.8598 103.578 25.6393 C 103.326 25.4188 103.082 25.1884 102.848 24.9488 C 102.614 24.7093 102.389 24.4604 102.174 24.2032 C 101.959 23.946 101.755 23.6803 101.561 23.407 C 101.367 23.1337 101.184 22.8528 101.012 22.5651 C 100.84 22.2774 100.679 21.983 100.531 21.6828 C 100.382 21.3825 100.245 21.0764 100.12 20.7654 C 99.9954 20.4543 99.8828 20.1384 99.7829 19.8186 C 99.6829 19.4987 99.5955 19.175 99.5209 18.8483 C 99.4464 18.5216 99.3846 18.1919 99.3359 17.8604 C 99.2872 17.5288 99.2515 17.1954 99.229 16.861 C 99.2065 16.5267 99.197 16.1915 99.2008 15.8564 C 99.2046 15.5213 99.2215 15.1864 99.2515 14.8526" fill="none" stroke="#4ade80" stroke-width="2" stroke-linecap="round" stroke-linejoin="round" fill-opacity="0.6" stroke-opacity="0.6" />
  <ellipse cx="144" cy="16" rx="12.8" ry="12.8" fill="none" stroke="#2d4a2d" stroke-width="0.3" fill-opacity="0.2" stroke-opacity="0.2" />
  <path d="M 141.152 28.4791 C 140.825 28.4045 140.501 28.3171 140.181 28.2171 C 139.862 28.1172 139.546 28.0046 139.235 27.8799 C 138.924 27.7551 138.618 27.6181 138.317 27.4694 C 138.017 27.3206 137.723 27.16 137.435 26.9881 C 137.147 26.8163 136.866 26.6331 136.593 26.4392 C 136.32 26.2453 136.054 26.0406 135.797 25.8259 C 135.54 25.6111 135.291 25.3862 135.051 25.1519 C 134.812 24.9177 134.581 24.674 134.361 24.4216 C 134.14 24.1693 133.93 23.9082 133.73 23.6394 C 133.53 23.3705 133.34 23.0938 133.162 22.81 C 132.984 22.5263 132.817 22.2355 132.661 21.9387 C 132.506 21.6418 132.362 21.3389 132.23 21.0307 C 132.098 20.7226 131.979 20.4093 131.872 20.0918 C 131.764 19.7742 131.67 19.4525 131.588 19.1276 C 131.506 18.8026 131.437 18.4744 131.381 18.1441 C 131.325 17.8137 131.282 17.4811 131.252 17.1474 C 131.221 16.8136 131.205 16.4787 131.201 16.1436 C 131.197 15.8085 131.206 15.4733 131.229 15.139 C 131.252 14.8046 131.287 14.4712 131.336 14.1396 C 131.385 13.8081 131.446 13.4784 131.521 13.1517 C 131.595 12.825 131.683 12.5013 131.783 12.1814 C 131.883 11.8616 131.995 11.5457 132.12 11.2346 C 132.245 10.9236 132.382 10.6175 132.531 10.3172 C 132.679 10.017 132.84 9.72256 133.012 9.43489" fill="none" stroke="#4ade80" stroke-width="2" stroke-linecap="round" stroke-linejoin="round" fill-opacity="0.6" stroke-opacity="0.6" />
  <ellipse cx="176" cy="16" rx="12.8" ry="12.8" fill="none" stroke="#2d4a2d" stroke-width="0.3" fill-opacity="0.2" stroke-opacity="0.2" />
  <path d="M 168.019 26.0074 C 167.757 25.7985 167.504 25.5793 167.259 25.3504 C 167.014 25.1216 166.778 24.8831 166.552 24.6358 C 166.326 24.3884 166.11 24.1322 165.904 23.8679 C 165.698 23.6036 165.502 23.3311 165.317 23.0515 C 165.133 22.7718 164.959 22.4849 164.797 22.1916 C 164.635 21.8983 164.484 21.5987 164.346 21.2935 C 164.207 20.9884 164.081 20.6779 163.966 20.3629 C 163.852 20.0478 163.75 19.7283 163.661 19.4053 C 163.572 19.0822 163.496 18.7557 163.432 18.4267 C 163.369 18.0977 163.318 17.7661 163.28 17.4331 C 163.243 17.1001 163.219 16.7657 163.207 16.4308 C 163.196 16.0959 163.198 15.7605 163.213 15.4257 C 163.228 15.091 163.256 14.7568 163.297 14.4242 C 163.339 14.0917 163.393 13.7607 163.46 13.4325 C 163.527 13.1042 163.607 12.7785 163.7 12.4565 C 163.793 12.1345 163.898 11.8161 164.016 11.5024 C 164.134 11.1887 164.264 10.8796 164.406 10.576 C 164.548 10.2725 164.702 9.97455 164.867 9.68309 C 165.033 9.39164 165.21 9.10669 165.397 8.82911 C 165.585 8.55153 165.784 8.28132 165.993 8.01933 C 166.201 7.75734 166.421 7.50355 166.65 7.25876 C 166.878 7.01396 167.117 6.77816 167.364 6.55208 C 167.612 6.32599 167.868 6.10963 168.132 5.90365 C 168.396 5.69767 168.669 5.50207 168.949 5.31746" fill="none" stroke="#4ade80" stroke-width="2" stroke-linecap="round" stroke-linejoin="round" fill-opacity="0.6" stroke-opacity="0.6" />
  <ellipse cx="208" cy="16" rx="12.8" ry="12.8" fill="none" stroke="#2d4a2d" stroke-width="0.3" fill-opacity="0.2" stroke-opacity="0.2" />
  <path d="M 196.468 21.5537 C 196.322 21.2518 196.189 20.9442 196.067 20.6318 C 195.946 20.3194 195.837 20.0022 195.741 19.6813 C 195.644 19.3603 195.561 19.0356 195.49 18.7081 C 195.419 18.3806 195.361 18.0503 195.316 17.7182 C 195.271 17.3861 195.239 17.0523 195.22 16.7177 C 195.201 16.3831 195.196 16.0478 195.203 15.7128 C 195.211 15.3778 195.231 15.0431 195.265 14.7097 C 195.299 14.3763 195.346 14.0442 195.406 13.7145 C 195.466 13.3848 195.538 13.0574 195.624 12.7334 C 195.709 12.4094 195.808 12.0887 195.918 11.7724 C 196.029 11.4561 196.152 11.1442 196.287 10.8375 C 196.422 10.5309 196.57 10.2296 196.728 9.93448 C 196.887 9.63939 197.058 9.35054 197.239 9.06882 C 197.42 8.7871 197.613 8.5125 197.816 8.24589 C 198.019 7.97927 198.232 7.72063 198.456 7.47076 C 198.679 7.2209 198.912 6.9798 199.154 6.74823 C 199.397 6.51665 199.648 6.29459 199.908 6.08273 C 200.167 5.87087 200.435 5.66921 200.711 5.47837 C 200.986 5.28754 201.269 5.10752 201.559 4.93889 C 201.848 4.77025 202.144 4.61299 202.446 4.4676 C 202.748 4.3222 203.056 4.18867 203.368 4.06741 C 203.681 3.94615 203.998 3.83717 204.319 3.74079 C 204.64 3.64441 204.964 3.56065 205.292 3.48975 C 205.619 3.41885 205.95 3.36083 206.282 3.31584" fill="none" stroke="#4ade80" stroke-width="2" stroke-linecap="round" stroke-linejoin="round" fill-opacity="0.6" stroke-opacity="0.6" />
  <ellipse cx="240" cy="16" rx="12.8" ry="12.8" fill="none" stroke="#2d4a2d" stroke-width="0.3" fill-opacity="0.2" stroke-opacity="0.2" />
  <path d="M 227.2 16 C 227.2 15.6649 227.213 15.3298 227.239 14.9957 C 227.266 14.6617 227.305 14.3286 227.358 13.9976 C 227.41 13.6667 227.475 13.3377 227.554 13.0119 C 227.632 12.6861 227.723 12.3633 227.826 12.0446 C 227.93 11.7259 228.046 11.4112 228.174 11.1017 C 228.303 10.7921 228.443 10.4875 228.595 10.1889 C 228.747 9.89034 228.911 9.59774 229.086 9.31202 C 229.261 9.0263 229.448 8.74745 229.645 8.47635 C 229.842 8.20524 230.049 7.94188 230.267 7.68706 C 230.484 7.43225 230.712 7.18599 230.949 6.94903 C 231.186 6.71208 231.432 6.48444 231.687 6.2668 C 231.942 6.04917 232.205 5.84155 232.476 5.64458 C 232.747 5.44761 233.026 5.2613 233.312 5.08621 C 233.598 4.91111 233.89 4.74725 234.189 4.59512 C 234.488 4.44298 234.792 4.30258 235.102 4.17434 C 235.411 4.0461 235.726 3.93003 236.045 3.82648 C 236.363 3.72292 236.686 3.63189 237.012 3.55367 C 237.338 3.47544 237.667 3.41001 237.998 3.35759 C 238.329 3.30517 238.662 3.26575 238.996 3.23946 C 239.33 3.21317 239.665 3.2 240 3.2 C 240.335 3.2 240.67 3.21317 241.004 3.23946 C 241.338 3.26575 241.671 3.30517 242.002 3.35759 C 242.333 3.41001 242.662 3.47544 242.988 3.55367 C 243.314 3.63189 243.637 3.72292 243.955 3.82648" fill="none" stroke="#4ade80" stroke-width="2" stroke-linecap="round" stroke-linejoin="round" fill-opacity="0.6" stroke-opacity="0.6" />
  <ellipse cx="16" cy="48" rx="12.8" ry="12.8" fill="none" stroke="#2d4a2d" stroke-width="0.3" fill-opacity="0.2" stroke-opacity="0.2" />
  <path d="M 28.8 48 C 28.8 48.383 28.7828 48.7659 28.7485 49.1474 C 28.7141 49.5288 28.6627 49.9087 28.5943 50.2855 C 28.5259 50.6623 28.4406 51.0361 28.3387 51.4053 C 28.2368 51.7744 28.1184 52.139 27.9838 52.4976 C 27.8492 52.8562 27.6986 53.2087 27.5324 53.5537 C 27.3662 53.8988 27.1846 54.2363 26.9881 54.5651 C 26.7917 54.8939 26.5805 55.2138 26.3554 55.5237 C 26.1303 55.8335 25.8913 56.1332 25.6393 56.4216 C 25.3873 56.71 25.1224 56.9871 24.8456 57.2518 C 24.5688 57.5164 24.2801 57.7687 23.9807 58.0074 C 23.6812 58.2462 23.3711 58.4716 23.0515 58.6825 C 22.7319 58.8935 22.4028 59.0901 22.0655 59.2716 C 21.7283 59.4531 21.3829 59.6194 21.0307 59.77 C 20.6786 59.9205 20.3196 60.0552 19.9554 60.1735 C 19.5912 60.2919 19.2216 60.3939 18.8483 60.4791 C 18.4749 60.5643 18.0977 60.6327 17.7182 60.6842 C 17.3387 60.7356 16.9569 60.7699 16.5743 60.7871 C 16.1917 60.8043 15.8083 60.8043 15.4257 60.7871 C 15.0431 60.7699 14.6613 60.7356 14.2818 60.6842 C 13.9023 60.6327 13.5251 60.5643 13.1517 60.4791 C 12.7784 60.3939 12.4088 60.2919 12.0446 60.1735 C 11.6804 60.0552 11.3214 59.9205 10.9693 59.77 C 10.6171 59.6194 10.2717 59.4531 9.93448 59.2716 C 9.59723 59.0901 9.26814 58.8935 8.94852 58.6825" fill="none" stroke="#4ade80" stroke-width="2" stroke-linecap="round" stroke-linejoin="round" fill-opacity="0.657143" stroke-opacity="0.657143" />
  <ellipse cx="48" cy="48" rx="12.8" ry="12.8" fill="none" stroke="#2d4a2d" stroke-width="0.3" fill-opacity="0.2" stroke-opacity="0.2" />
  <path d="M 59.5324 53.5537 C 59.3662 53.8988 59.1846 54.2363 58.9881 54.5651 C 58.7917 54.8939 58.5805 55.2138 58.3554 55.5237 C 58.1303 55.8335 57.8913 56.1332 57.6393 56.4216 C 57.3873 56.71 57.1224 56.9871 56.8456 57.2518 C 56.5688 57.5164 56.2801 57.7687 55.9807 58.0074 C 55.6812 58.2462 55.3711 58.4716 55.0515 58.6825 C 54.7319 58.8935 54.4028 59.0901 54.0655 59.2716 C 53.7283 59.4531 53.3829 59.6194 53.0307 59.77 C 52.6786 59.9205 52.3196 60.0552 51.9554 60.1735 C 51.5912 60.2919 51.2216 60.3939 50.8483 60.4791 C 50.4749 60.5643 50.0977 60.6327 49.7182 60.6842 C 49.3387 60.7356 48.9569 60.7699 48.5743 60.7871 C 48.1917 60.8043 47.8083 60.8043 47.4257 60.7871 C 47.0431 60.7699 46.6613 60.7356 46.2818 60.6842 C 45.9023 60.6327 45.5251 60.5643 45.1517 60.4791 C 44.7784 60.3939 44.4088 60.2919 44.0446 60.1735 C 43.6804 60.0552 43.3214 59.9205 42.9693 59.77 C 42.6171 59.6194 42.2717 59.4531 41.9345 59.2716 C 41.5972 59.0901 41.2681 58.8935 40.9485 58.6825 C 40.6289 58.4716 40.3188 58.2462 40.0193 58.0074 C 39.7199 57.7687 39.4312 57.5164 39.1544 57.2518 C 38.8776 56.9871 38.6127 56.71 38.3607 56.4216 C 38.1087 56.1332 37.8697 55.8335 37.6446 55.5237 C 37.4195 55.2138 37.2083 54.8939 37.0119 54.5651" fill="none" stroke="#4ade80" stroke-width="2" stroke-linecap="round" stroke-linejoin="round" fill-opacity="0.657143" stroke-opacity="0.657143" />
  <ellipse cx="80" cy="48" rx="12.8" ry="12.8" fill="none" stroke="#2d4a2d" stroke-width="0.3" fill-opacity="0.2" stroke-opacity="0.2" />
  <path d="M 87.9807 58.0074 C 87.6812 58.2462 87.3711 58.4716 87.0515 58.6825 C 86.7319 58.8935 86.4028 59.0901 86.0655 59.2716 C 85.7283 59.4531 85.3829 59.6194 85.0307 59.77 C 84.6786 59.9205 84.3196 60.0552 83.9554 60.1735 C 83.5912 60.2919 83.2216 60.3939 82.8483 60.4791 C 82.4749 60.5643 82.0977 60.6327 81.7182 60.6842 C 81.3387 60.7356 80.9569 60.7699 80.5743 60.7871 C 80.1917 60.8043 79.8083 60.8043 79.4257 60.7871 C 79.0431 60.7699 78.6613 60.7356 78.2818 60.6842 C 77.9023 60.6327 77.5251 60.5643 77.1517 60.4791 C 76.7784 60.3939 76.4088 60.2919 76.0446 60.1735 C 75.6804 60.0552 75.3214 59.9205 74.9693 59.77 C 74.6171 59.6194 74.2717 59.4531 73.9345 59.2716 C 73.5972 59.0901 73.2681 58.8935 72.9485 58.6825 C 72.6289 58.4716 72.3188 58.2462 72.0193 58.0074 C 71.7199 57.7687 71.4312 57.5164 71.1544 57.2518 C 70.8776 56.9871 70.6127 56.71 70.3607 56.4216 C 70.1087 56.1332 69.8697 55.8335 69.6446 55.5237 C 69.4195 55.2138 69.2083 54.8939 69.0119 54.5651 C 68.8154 54.2363 68.6338 53.8988 68.4676 53.5537 C 68.3014 53.2087 68.1508 52.8562 68.0162 52.4976 C 67.8816 52.139 67.7632 51.7744 67.6613 51.4053 C 67.5594 51.0361 67.4741 50.6623 67.4057 50.2855 C 67.3373 49.9087 67.2859 49.5288 67.2515 49.1474" fill="none" stroke="#4ade80" stroke-width="2" stroke-linecap="round" stroke-linejoin="round" fill-opacity="0.657143" stroke-opacity="0.657143" />
  <ellipse cx="112" cy="48" rx="12.8" ry="12.8" fill="none" stroke="#2d4a2d" stroke-width="0.3" fill-opacity="0.2" stroke-opacity="0.2" />
  <path d="M 114.848 60.4791 C 114.475 60.5643 114.098 60.6327 113.718 60.6842 C 113.339 60.7356 112.957 60.7699 112.574 60.7871 C 112.192 60.8043 111.808 60.8043 111.426 60.7871 C 111.043 60.7699 110.661 60.7356 110.282 60.6842 C 109.902 60.6327 109.525 60.5643 109.152 60.4791 C 108.778 60.3939 108.409 60.2919 108.045 60.1735 C 107.68 60.0552 107.321 59.9205 106.969 59.77 C 106.617 59.6194 106.272 59.4531 105.934 59.2716 C 105.597 59.0901 105.268 58.8935 104.949 58.6825 C 104.629 58.4716 104.319 58.2462 104.019 58.0074 C 103.72 57.7687 103.431 57.5164 103.154 57.2518 C 102.878 56.9871 102.613 56.71 102.361 56.4216 C 102.109 56.1332 101.87 55.8335 101.645 55.5237 C 101.419 55.2138 101.208 54.8939 101.012 54.5651 C 100.815 54.2363 100.634 53.8988 100.468 53.5537 C 100.301 53.2087 100.151 52.8562 100.016 52.4976 C 99.8816 52.139 99.7632 51.7744 99.6613 51.4053 C 99.5594 51.0361 99.4741 50.6623 99.4057 50.2855 C 99.3373 49.9087 99.2859 49.5288 99.2515 49.1474 C 99.2172 48.7659 99.2 48.383 99.2 48 C 99.2 47.617 99.2172 47.2341 99.2515 46.8526 C 99.2859 46.4712 99.3373 46.0913 99.4057 45.7145 C 99.4741 45.3377 99.5594 44.9639 99.6613 44.5947 C 99.7632 44.2256 99.8816 43.861 100.016 43.5024" fill="none" stroke="#4ade80" stroke-width="2" stroke-linecap="round" stroke-linejoin="round" fill-opacity="0.657143" stroke-opacity="0.657143" />
  <ellipse cx="144" cy="48" rx="12.8" ry="12.8" fill="none" stroke="#2d4a2d" stroke-width="0.3" fill-opacity="0.2" stroke-opacity="0.2" />
  <path d="M 141.152 60.4791 C 140.778 60.3939 140.409 60.2919 140.045 60.1735 C 139.68 60.0552 139.321 59.9205 138.969 59.77 C 138.617 59.6194 138.272 59.4531 137.934 59.2716 C 137.597 59.0901 137.268 58.8935 136.949 58.6825 C 136.629 58.4716 136.319 58.2462 136.019 58.0074 C 135.72 57.7687 135.431 57.5164 135.154 57.2518 C 134.878 56.9871 134.613 56.71 134.361 56.4216 C 134.109 56.1332 133.87 55.8335 133.645 55.5237 C 133.419 55.2138 133.208 54.8939 133.012 54.5651 C 132.815 54.2363 132.634 53.8988 132.468 53.5537 C 132.301 53.2087 132.151 52.8562 132.016 52.4976 C 131.882 52.139 131.763 51.7744 131.661 51.4053 C 131.559 51.0361 131.474 50.6623 131.406 50.2855 C 131.337 49.9087 131.286 49.5288 131.252 49.1474 C 131.217 48.7659 131.2 48.383 131.2 48 C 131.2 47.617 131.217 47.2341 131.252 46.8526 C 131.286 46.4712 131.337 46.0913 131.406 45.7145 C 131.474 45.3377 131.559 44.9639 131.661 44.5947 C 131.763 44.2256 131.882 43.861 132.016 43.5024 C 132.151 43.1438 132.301 42.7913 132.468 42.4463 C 132.634 42.1012 132.815 41.7637 133.012 41.4349 C 133.208 41.1061 133.419 40.7862 133.645 40.4763 C 133.87 40.1665 134.109 39.8668 134.361 39.5784 C 134.613 39.29 134.878 39.0129 135.154 38.7482" fill="none" stroke="#4ade80" stroke-width="2" stroke-linecap="round" stroke-linejoin="round" fill-opacity="0.657143" stroke-opacity="0.657143" />
  <ellipse cx="176" cy="48" rx="12.8" ry="12.8" fill="none" stroke="#2d4a2d" stroke-width="0.3" fill-opacity="0.2" stroke-opacity="0.2" />
  <path d="M 168.019 58.0074 C 167.72 57.7687 167.431 57.5164 167.154 57.2518 C 166.878 56.9871 166.613 56.71 166.361 56.4216 C 166.109 56.1332 165.87 55.8335 165.645 55.5237 C 165.419 55.2138 165.208 54.8939 165.012 54.5651 C 164.815 54.2363 164.634 53.8988 164.468 53.5537 C 164.301 53.2087 164.151 52.8562 164.016 52.4976 C 163.882 52.139 163.763 51.7744 163.661 51.4053 C 163.559 51.0361 163.474 50.6623 163.406 50.2855 C 163.337 49.9087 163.286 49.5288 163.252 49.1474 C 163.217 48.7659 163.2 48.383 163.2 48 C 163.2 47.617 163.217 47.2341 163.252 46.8526 C 163.286 46.4712 163.337 46.0913 163.406 45.7145 C 163.474 45.3377 163.559 44.9639 163.661 44.5947 C 163.763 44.2256 163.882 43.861 164.016 43.5024 C 164.151 43.1438 164.301 42.7913 164.468 42.4463 C 164.634 42.1012 164.815 41.7637 165.012 41.4349 C 165.208 41.1061 165.419 40.7862 165.645 40.4763 C 165.87 40.1665 166.109 39.8668 166.361 39.5784 C 166.613 39.29 166.878 39.0129 167.154 38.7482 C 167.431 38.4836 167.72 38.2313 168.019 37.9926 C 168.319 37.7538 168.629 37.5284 168.949 37.3175 C 169.268 37.1065 169.597 36.9099 169.934 36.7284 C 170.272 36.5469 170.617 36.3806 170.969 36.23 C 171.321 36.0795 171.68 35.9448 172.045 35.8265" fill="none" stroke="#4ade80" stroke-width="2" stroke-linecap="round" stroke-linejoin="round" fill-opacity="0.657143" stroke-opacity="0.657143" />
  <ellipse cx="208" cy="48" rx="12.8" ry="12.8" fill="none" stroke="#2d4a2d" stroke-width="0.3" fill-opacity="0.2" stroke-opacity="0.2" />
  <path d="M 196.468 53.5537 C 196.301 53.2087 196.151 52.8562 196.016 52.4976 C 195.882 52.139 195.763 51.7744 195.661 51.4053 C 195.559 51.0361 195.474 50.6623 195.406 50.2855 C 195.337 49.9087 195.286 49.5288 195.252 49.1474 C 195.217 48.7659 195.2 48.383 195.2 48 C 195.2 47.617 195.217 47.2341 195.252 46.8526 C 195.286 46.4712 195.337 46.0913 195.406 45.7145 C 195.474 45.3377 195.559 44.9639 195.661 44.5947 C 195.763 44.2256 195.882 43.861 196.016 43.5024 C 196.151 43.1438 196.301 42.7913 196.468 42.4463 C 196.634 42.1012 196.815 41.7637 197.012 41.4349 C 197.208 41.1061 197.419 40.7862 197.645 40.4763 C 197.87 40.1665 198.109 39.8668 198.361 39.5784 C 198.613 39.29 198.878 39.0129 199.154 38.7482 C 199.431 38.4836 199.72 38.2313 200.019 37.9926 C 200.319 37.7538 200.629 37.5284 200.949 37.3175 C 201.268 37.1065 201.597 36.9099 201.934 36.7284 C 202.272 36.5469 202.617 36.3806 202.969 36.23 C 203.321 36.0795 203.68 35.9448 204.045 35.8265 C 204.409 35.7081 204.778 35.6061 205.152 35.5209 C 205.525 35.4357 205.902 35.3673 206.282 35.3158 C 206.661 35.2644 207.043 35.2301 207.426 35.2129 C 207.808 35.1957 208.192 35.1957 208.574 35.2129 C 208.957 35.2301 209.339 35.2644 209.718 35.3158" fill="none" stroke="#4ade80" stroke-width="2" stroke-linecap="round" stroke-linejoin="round" fill-opacity="0.657143" stroke-opacity="0.657143" />
  <ellipse cx="240" cy="48" rx="12.8" ry="12.8" fill="none" stroke="#2d4a2d" stroke-width="0.3" fill-opacity="0.2" stroke-opacity="0.2" />
  <path d="M 227.2 48 C 227.2 47.617 227.217 47.2341 227.252 46.8526 C 227.286 46.4712 227.337 46.0913 227.406 45.7145 C 227.474 45.3377 227.559 44.9639 227.661 44.5947 C 227.763 44.2256 227.882 43.861 228.016 43.5024 C 228.151 43.1438 228.301 42.7913 228.468 42.4463 C 228.634 42.1012 228.815 41.7637 229.012 41.4349 C 229.208 41.1061 229.419 40.7862 229.645 40.4763 C 229.87 40.1665 230.109 39.8668 230.361 39.5784 C 230.613 39.29 230.878 39.0129 231.154 38.7482 C 231.431 38.4836 231.72 38.2313 232.019 37.9926 C 232.319 37.7538 232.629 37.5284 232.949 37.3175 C 233.268 37.1065 233.597 36.9099 233.934 36.7284 C 234.272 36.5469 234.617 36.3806 234.969 36.23 C 235.321 36.0795 235.68 35.9448 236.045 35.8265 C 236.409 35.7081 236.778 35.6061 237.152 35.5209 C 237.525 35.4357 237.902 35.3673 238.282 35.3158 C 238.661 35.2644 239.043 35.2301 239.426 35.2129 C 239.808 35.1957 240.192 35.1957 240.574 35.2129 C 240.957 35.2301 241.339 35.2644 241.718 35.3158 C 242.098 35.3673 242.475 35.4357 242.848 35.5209 C 243.222 35.6061 243.591 35.7081 243.955 35.8265 C 244.32 35.9448 244.679 36.0795 245.031 36.23 C 245.383 36.3806 245.728 36.5469 246.066 36.7284 C 246.403 36.9099 246.732 37.1065 247.051 37.3175" fill="none" stroke="#4ade80" stroke-width="2" stroke-linecap="round" stroke-linejoin="round" fill-opacity="0.657143" stroke-opacity="0.657143" />
  <ellipse cx="16" cy="80" rx="12.8" ry="12.8" fill="none" stroke="#2d4a2d" stroke-width="0.3" fill-opacity="0.2" stroke-opacity="0.2" />
  <path d="M 28.8 80 C 28.8 80.4308 28.7782 80.8617 28.7348 81.2903 C 28.6914 81.719 28.6263 82.1455 28.5398 82.5675 C 28.4534 82.9896 28.3457 83.4074 28.2171 83.8186 C 28.0886 84.2298 27.9393 84.6345 27.77 85.0307 C 27.6006 85.4269 27.4113 85.8145 27.2029 86.1916 C 26.9945 86.5687 26.767 86.9352 26.5216 87.2894 C 26.2763 87.6436 26.013 87.9853 25.7332 88.3129 C 25.4534 88.6406 25.157 88.954 24.8456 89.2518 C 24.5342 89.5495 24.2077 89.8315 23.8679 90.0964 C 23.528 90.3612 23.1748 90.6088 22.81 90.8381 C 22.4452 91.0673 22.0688 91.2781 21.6828 91.4694 C 21.2967 91.6606 20.901 91.8324 20.4976 91.9838 C 20.0942 92.1352 19.6832 92.2662 19.2666 92.3762 C 18.85 92.4861 18.4279 92.575 18.0024 92.6424 C 17.5768 92.7098 17.1479 92.7557 16.7177 92.7799 C 16.2875 92.804 15.8561 92.8064 15.4257 92.7871 C 14.9953 92.7678 14.5659 92.7267 14.1396 92.6641 C 13.7133 92.6015 13.2902 92.5173 12.8724 92.412 C 12.4547 92.3068 12.0422 92.1804 11.6371 92.0335 C 11.2321 91.8867 10.8345 91.7193 10.4463 91.5324 C 10.0581 91.3455 9.67938 91.1389 9.31202 90.9138 C 8.94466 90.6887 8.58868 90.445 8.24589 90.184 C 7.90309 89.923 7.57349 89.6447 7.25876 89.3504 C 6.94402 89.0562 6.64416 88.7461 6.36069 88.4216" fill="none" stroke="#4ade80" stroke-width="2" stroke-linecap="round" stroke-linejoin="round" fill-opacity="0.714286" stroke-opacity="0.714286" />
  <ellipse cx="48" cy="80" rx="12.8" ry="12.8" fill="none" stroke="#2d4a2d" stroke-width="0.3" fill-opacity="0.2" stroke-opacity="0.2" />
  <path d="M 59.5324 85.5537 C 59.3455 85.9419 59.1389 86.3206 58.9138 86.688 C 58.6887 87.0553 58.445 87.4113 58.184 87.7541 C 57.923 88.0969 57.6447 88.4265 57.3504 88.7412 C 57.0562 89.056 56.7461 89.3558 56.4216 89.6393 C 56.0972 89.9228 55.7584 90.1899 55.407 90.4392 C 55.0556 90.6885 54.6916 90.9201 54.3169 91.1327 C 53.9422 91.3453 53.5567 91.539 53.1625 91.7128 C 52.7682 91.8865 52.3652 92.0404 51.9554 92.1735 C 51.5457 92.3067 51.1292 92.4191 50.7081 92.5102 C 50.287 92.6014 49.8613 92.6713 49.4331 92.7195 C 49.005 92.7678 48.5744 92.7944 48.1436 92.7992 C 47.7128 92.804 47.2817 92.7871 46.8526 92.7485 C 46.4235 92.7099 45.9963 92.6495 45.5733 92.5679 C 45.1503 92.4862 44.7314 92.3831 44.3187 92.2592 C 43.9061 92.1353 43.4997 91.9905 43.1017 91.8257 C 42.7036 91.6608 42.3139 91.4758 41.9345 91.2716 C 41.5551 91.0675 41.186 90.8441 40.8291 90.6027 C 40.4722 90.3614 40.1275 90.102 39.7968 89.8259 C 39.4661 89.5497 39.1493 89.2569 38.8481 88.9488 C 38.5468 88.6408 38.2612 88.3175 37.9926 87.9807 C 37.7239 87.6438 37.4723 87.2934 37.239 86.9312 C 37.0057 86.569 36.7907 86.195 36.5951 85.8111 C 36.3995 85.4272 36.2233 85.0334 36.0674 84.6318 C 35.9115 84.2301 35.7759 83.8206 35.6613 83.4053" fill="none" stroke="#4ade80" stroke-width="2" stroke-linecap="round" stroke-linejoin="round" fill-opacity="0.714286" stroke-opacity="0.714286" />
  <ellipse cx="80" cy="80" rx="12.8" ry="12.8" fill="none" stroke="#2d4a2d" stroke-width="0.3" fill-opacity="0.2" stroke-opacity="0.2" />
  <path d="M 87.9807 90.0074 C 87.6438 90.2761 87.2934 90.5277 86.9312 90.761 C 86.569 90.9943 86.195 91.2093 85.8111 91.4049 C 85.4272 91.6005 85.0334 91.7767 84.6318 91.9326 C 84.2301 92.0885 83.8206 92.2241 83.4053 92.3387 C 82.99 92.4533 82.5688 92.547 82.1441 92.6191 C 81.7193 92.6913 81.2909 92.742 80.861 92.771 C 80.4312 92.8 79.9998 92.8072 79.5692 92.7927 C 79.1386 92.7783 78.7088 92.742 78.2818 92.6842 C 77.8549 92.6263 77.4308 92.5469 77.0119 92.4463 C 76.593 92.3458 76.1791 92.224 75.7724 92.0817 C 75.3658 91.9394 74.9663 91.7766 74.576 91.594 C 74.1858 91.4114 73.8047 91.2091 73.4349 90.9881 C 73.065 90.7672 72.7063 90.5275 72.3606 90.2704 C 72.0149 90.0132 71.6822 89.7386 71.3642 89.4479 C 71.0462 89.1572 70.7429 88.8505 70.4558 88.5292 C 70.1687 88.208 69.8978 87.8722 69.6446 87.5237 C 69.3913 87.1751 69.1557 86.8137 68.9389 86.4414 C 68.7221 86.0691 68.5241 85.6858 68.3459 85.2935 C 68.1677 84.9013 68.0093 84.5 67.8716 84.0918 C 67.7339 83.6835 67.6168 83.2683 67.5209 82.8483 C 67.4251 82.4282 67.3504 82.0033 67.2974 81.5758 C 67.2443 81.1482 67.2129 80.7179 67.2032 80.2872 C 67.1936 79.8565 67.2057 79.4252 67.2395 78.9957 C 67.2733 78.5662 67.3288 78.1384 67.4057 77.7145" fill="none" stroke="#4ade80" stroke-width="2" stroke-linecap="round" stroke-linejoin="round" fill-opacity="0.714286" stroke-opacity="0.714286" />
  <ellipse cx="112" cy="80" rx="12.8" ry="12.8" fill="none" stroke="#2d4a2d" stroke-width="0.3" fill-opacity="0.2" stroke-opacity="0.2" />
  <path d="M 114.848 92.4791 C 114.428 92.5749 114.003 92.6496 113.576 92.7026 C 113.148 92.7557 112.718 92.7871 112.287 92.7968 C 111.856 92.8064 111.425 92.7943 110.996 92.7605 C 110.566 92.7267 110.138 92.6712 109.714 92.5943 C 109.291 92.5174 108.871 92.419 108.457 92.2997 C 108.042 92.1805 107.635 92.0403 107.235 91.8799 C 106.835 91.7195 106.443 91.5389 106.061 91.339 C 105.68 91.1391 105.308 90.9199 104.949 90.6825 C 104.589 90.4452 104.241 90.1897 103.908 89.9173 C 103.574 89.6449 103.254 89.3556 102.949 89.051 C 102.644 88.7463 102.355 88.4263 102.083 88.0924 C 101.81 87.7586 101.555 87.4111 101.317 87.0515 C 101.08 86.6919 100.861 86.3203 100.661 85.9387 C 100.461 85.557 100.281 85.1652 100.12 84.7654 C 99.9597 84.3655 99.8195 83.9575 99.7003 83.5435 C 99.581 83.1295 99.4826 82.7095 99.4057 82.2855 C 99.3288 81.8616 99.2733 81.4338 99.2395 81.0043 C 99.2057 80.5748 99.1936 80.1435 99.2032 79.7128 C 99.2129 79.2821 99.2443 78.8518 99.2974 78.4242 C 99.3504 77.9967 99.4251 77.5718 99.5209 77.1517 C 99.6168 76.7317 99.7339 76.3165 99.8716 75.9082 C 100.009 75.5 100.168 75.0987 100.346 74.7065 C 100.524 74.3142 100.722 73.9309 100.939 73.5586 C 101.156 73.1863 101.391 72.8249 101.645 72.4763" fill="none" stroke="#4ade80" stroke-width="2" stroke-linecap="round" stroke-linejoin="round" fill-opacity="0.714286" stroke-opacity="0.714286" />
  <ellipse cx="144" cy="80" rx="12.8" ry="12.8" fill="none" stroke="#2d4a2d" stroke-width="0.3" fill-opacity="0.2" stroke-opacity="0.2" />
  <path d="M 141.152 92.4791 C 140.732 92.3832 140.316 92.2661 139.908 92.1284 C 139.5 91.9907 139.099 91.8323 138.706 91.6541 C 138.314 91.4759 137.931 91.2779 137.559 91.0611 C 137.186 90.8443 136.825 90.6087 136.476 90.3554 C 136.128 90.1022 135.792 89.8313 135.471 89.5442 C 135.15 89.2571 134.843 88.9538 134.552 88.6358 C 134.261 88.3178 133.987 87.9851 133.73 87.6394 C 133.473 87.2937 133.233 86.935 133.012 86.5651 C 132.791 86.1953 132.589 85.8142 132.406 85.424 C 132.223 85.0337 132.061 84.6342 131.918 84.2276 C 131.776 83.8209 131.654 83.407 131.554 82.9881 C 131.453 82.5692 131.374 82.1451 131.316 81.7182 C 131.258 81.2912 131.222 80.8614 131.207 80.4308 C 131.193 80.0002 131.2 79.5688 131.229 79.139 C 131.258 78.7091 131.309 78.2807 131.381 77.8559 C 131.453 77.4312 131.547 77.01 131.661 76.5947 C 131.776 76.1794 131.912 75.7699 132.067 75.3682 C 132.223 74.9666 132.4 74.5728 132.595 74.1889 C 132.791 73.805 133.006 73.431 133.239 73.0688 C 133.472 72.7066 133.724 72.3562 133.993 72.0193 C 134.261 71.6825 134.547 71.3592 134.848 71.0512 C 135.149 70.7431 135.466 70.4503 135.797 70.1741 C 136.128 69.898 136.472 69.6386 136.829 69.3973 C 137.186 69.1559 137.555 68.9325 137.934 68.7284" fill="none" stroke="#4ade80" stroke-width="2" stroke-linecap="round" stroke-linejoin="round" fill-opacity="0.714286" stroke-opacity="0.714286" />
  <ellipse cx="176" cy="80" rx="12.8" ry="12.8" fill="none" stroke="#2d4a2d" stroke-width="0.3" fill-opacity="0.2" stroke-opacity="0.2" />
  <path d="M 168.019 90.0074 C 167.682 89.7388 167.359 89.4532 167.051 89.1519 C 166.743 88.8507 166.45 88.5339 166.174 88.2032 C 165.898 87.8725 165.639 87.5278 165.397 87.1709 C 165.156 86.814 164.933 86.4449 164.728 86.0655 C 164.524 85.6861 164.339 85.2964 164.174 84.8983 C 164.009 84.5003 163.865 84.0939 163.741 83.6813 C 163.617 83.2686 163.514 82.8497 163.432 82.4267 C 163.35 82.0037 163.29 81.5765 163.252 81.1474 C 163.213 80.7183 163.196 80.2872 163.201 79.8564 C 163.206 79.4256 163.232 78.995 163.28 78.5669 C 163.329 78.1387 163.399 77.713 163.49 77.2919 C 163.581 76.8708 163.693 76.4543 163.826 76.0446 C 163.96 75.6348 164.113 75.2318 164.287 74.8375 C 164.461 74.4433 164.655 74.0578 164.867 73.6831 C 165.08 73.3084 165.312 72.9444 165.561 72.593 C 165.81 72.2416 166.077 71.9028 166.361 71.5784 C 166.644 71.2539 166.944 70.9438 167.259 70.6496 C 167.573 70.3553 167.903 70.077 168.246 69.816 C 168.589 69.555 168.945 69.3113 169.312 69.0862 C 169.679 68.8611 170.058 68.6545 170.446 68.4676 C 170.834 68.2807 171.232 68.1133 171.637 67.9665 C 172.042 67.8196 172.455 67.6932 172.872 67.588 C 173.29 67.4827 173.713 67.3985 174.14 67.3359 C 174.566 67.2733 174.995 67.2322 175.426 67.2129" fill="none" stroke="#4ade80" stroke-width="2" stroke-linecap="round" stroke-linejoin="round" fill-opacity="0.714286" stroke-opacity="0.714286" />
  <ellipse cx="208" cy="80" rx="12.8" ry="12.8" fill="none" stroke="#2d4a2d" stroke-width="0.3" fill-opacity="0.2" stroke-opacity="0.2" />
  <path d="M 196.468 85.5537 C 196.281 85.1655 196.113 84.7679 195.966 84.3629 C 195.82 83.9578 195.693 83.5453 195.588 83.1276 C 195.483 82.7098 195.399 82.2867 195.336 81.8604 C 195.273 81.4341 195.232 81.0047 195.213 80.5743 C 195.194 80.1439 195.196 79.7125 195.22 79.2823 C 195.244 78.8521 195.29 78.4232 195.358 77.9976 C 195.425 77.5721 195.514 77.15 195.624 76.7334 C 195.734 76.3168 195.865 75.9058 196.016 75.5024 C 196.168 75.099 196.339 74.7033 196.531 74.3172 C 196.722 73.9312 196.933 73.5548 197.162 73.19 C 197.391 72.8252 197.639 72.472 197.904 72.1321 C 198.168 71.7923 198.45 71.4658 198.748 71.1544 C 199.046 70.843 199.359 70.5466 199.687 70.2668 C 200.015 69.987 200.356 69.7237 200.711 69.4784 C 201.065 69.233 201.431 69.0055 201.808 68.7971 C 202.185 68.5887 202.573 68.3994 202.969 68.23 C 203.365 68.0607 203.77 67.9114 204.181 67.7829 C 204.593 67.6543 205.01 67.5466 205.432 67.4602 C 205.855 67.3737 206.281 67.3086 206.71 67.2652 C 207.138 67.2218 207.569 67.2 208 67.2 C 208.431 67.2 208.862 67.2218 209.29 67.2652 C 209.719 67.3086 210.145 67.3737 210.568 67.4602 C 210.99 67.5466 211.407 67.6543 211.819 67.7829 C 212.23 67.9114 212.635 68.0607 213.031 68.23" fill="none" stroke="#4ade80" stroke-width="2" stroke-linecap="round" stroke-linejoin="round" fill-opacity="0.714286" stroke-opacity="0.714286" />
  <ellipse cx="240" cy="80" rx="12.8" ry="12.8" fill="none" stroke="#2d4a2d" stroke-width="0.3" fill-opacity="0.2" stroke-opacity="0.2" />
  <path d="M 227.2 80 C 227.2 79.5692 227.222 79.1383 227.265 78.7097 C 227.309 78.281 227.374 77.8545 227.46 77.4325 C 227.547 77.0104 227.654 76.5926 227.783 76.1814 C 227.911 75.7702 228.061 75.3655 228.23 74.9693 C 228.399 74.5731 228.589 74.1855 228.797 73.8084 C 229.006 73.4313 229.233 73.0648 229.478 72.7106 C 229.724 72.3564 229.987 72.0147 230.267 71.6871 C 230.547 71.3594 230.843 71.046 231.154 70.7482 C 231.466 70.4505 231.792 70.1685 232.132 69.9036 C 232.472 69.6388 232.825 69.3912 233.19 69.1619 C 233.555 68.9327 233.931 68.7219 234.317 68.5306 C 234.703 68.3394 235.099 68.1676 235.502 68.0162 C 235.906 67.8648 236.317 67.7338 236.733 67.6238 C 237.15 67.5139 237.572 67.425 237.998 67.3576 C 238.423 67.2902 238.852 67.2443 239.282 67.2201 C 239.712 67.196 240.144 67.1936 240.574 67.2129 C 241.005 67.2322 241.434 67.2733 241.86 67.3359 C 242.287 67.3985 242.71 67.4827 243.128 67.588 C 243.545 67.6932 243.958 67.8196 244.363 67.9665 C 244.768 68.1133 245.166 68.2807 245.554 68.4676 C 245.942 68.6545 246.321 68.8611 246.688 69.0862 C 247.055 69.3113 247.411 69.555 247.754 69.816 C 248.097 70.077 248.427 70.3553 248.741 70.6496 C 249.056 70.9438 249.356 71.2539 249.639 71.5784" fill="none" stroke="#4ade80" stroke-width="2" stroke-linecap="round" stroke-linejoin="round" fill-opacity="0.714286" stroke-opacity="0.714286" />
  <ellipse cx="16" cy="112" rx="12.8" ry="12.8" fill="none" stroke="#2d4a2d" stroke-width="0.3" fill-opacity="0.2" stroke-opacity="0.2" />
  <path d="M 28.8 112 C 28.8 112.479 28.7731 112.957 28.7195 113.433 C 28.6659 113.909 28.5856 114.382 28.4791 114.848 C 28.3726 115.315 28.2398 115.776 28.0817 116.228 C 27.9236 116.679 27.7401 117.122 27.5324 117.554 C 27.3247 117.985 27.0928 118.405 26.8381 118.81 C 26.5834 119.215 26.3059 119.606 26.0074 119.981 C 25.709 120.355 25.3895 120.712 25.051 121.051 C 24.7125 121.389 24.3549 121.709 23.9807 122.007 C 23.6064 122.306 23.2154 122.583 22.81 122.838 C 22.4047 123.093 21.985 123.325 21.5537 123.532 C 21.1224 123.74 20.6794 123.924 20.2276 124.082 C 19.7757 124.24 19.315 124.373 18.8483 124.479 C 18.3816 124.586 17.9089 124.666 17.4331 124.72 C 16.9574 124.773 16.4787 124.8 16 124.8 C 15.5213 124.8 15.0426 124.773 14.5669 124.72 C 14.0911 124.666 13.6184 124.586 13.1517 124.479 C 12.685 124.373 12.2243 124.24 11.7724 124.082 C 11.3206 123.924 10.8776 123.74 10.4463 123.532 C 10.015 123.325 9.59533 123.093 9.18999 122.838 C 8.78465 122.583 8.39361 122.306 8.01933 122.007 C 7.64505 121.709 7.28754 121.389 6.94903 121.051 C 6.61053 120.712 6.29103 120.355 5.99256 119.981 C 5.69408 119.606 5.41662 119.215 5.16193 118.81 C 4.90724 118.405 4.67531 117.985 4.4676 117.554" fill="none" stroke="#4ade80" stroke-width="2" stroke-linecap="round" stroke-linejoin="round" fill-opacity="0.771429" stroke-opacity="0.771429" />
  <ellipse cx="48" cy="112" rx="12.8" ry="12.8" fill="none" stroke="#2d4a2d" stroke-width="0.3" fill-opacity="0.2" stroke-opacity="0.2" />
  <path d="M 59.5324 117.554 C 59.3247 117.985 59.0928 118.405 58.8381 118.81 C 58.5834 119.215 58.3059 119.606 58.0074 119.981 C 57.709 120.355 57.3895 120.712 57.051 121.051 C 56.7125 121.389 56.3549 121.709 55.9807 122.007 C 55.6064 122.306 55.2154 122.583 54.81 122.838 C 54.4047 123.093 53.985 123.325 53.5537 123.532 C 53.1224 123.74 52.6794 123.924 52.2276 124.082 C 51.7757 124.24 51.315 124.373 50.8483 124.479 C 50.3816 124.586 49.9089 124.666 49.4331 124.72 C 48.9574 124.773 48.4787 124.8 48 124.8 C 47.5213 124.8 47.0426 124.773 46.5669 124.72 C 46.0911 124.666 45.6184 124.586 45.1517 124.479 C 44.685 124.373 44.2243 124.24 43.7724 124.082 C 43.3206 123.924 42.8776 123.74 42.4463 123.532 C 42.015 123.325 41.5953 123.093 41.19 122.838 C 40.7846 122.583 40.3936 122.306 40.0193 122.007 C 39.6451 121.709 39.2875 121.389 38.949 121.051 C 38.6105 120.712 38.291 120.355 37.9926 119.981 C 37.6941 119.606 37.4166 119.215 37.1619 118.81 C 36.9072 118.405 36.6753 117.985 36.4676 117.554 C 36.2599 117.122 36.0764 116.679 35.9183 116.228 C 35.7602 115.776 35.6274 115.315 35.5209 114.848 C 35.4144 114.382 35.3341 113.909 35.2805 113.433 C 35.2269 112.957 35.2 112.479 35.2 112" fill="none" stroke="#4ade80" stroke-width="2" stroke-linecap="round" stroke-linejoin="round" fill-opacity="0.771429" stroke-opacity="0.771429" />
  <ellipse cx="80" cy="112" rx="12.8" ry="12.8" fill="none" stroke="#2d4a2d" stroke-width="0.3" fill-opacity="0.2" stroke-opacity="0.2" />
  <path d="M 87.9807 122.007 C 87.6064 122.306 87.2154 122.583 86.81 122.838 C 86.4047 123.093 85.985 123.325 85.5537 123.532 C 85.1224 123.74 84.6794 123.924 84.2276 124.082 C 83.7757 124.24 83.315 124.373 82.8483 124.479 C 82.3816 124.586 81.9089 124.666 81.4331 124.72 C 80.9574 124.773 80.4787 124.8 80 124.8 C 79.5213 124.8 79.0426 124.773 78.5669 124.72 C 78.0911 124.666 77.6184 124.586 77.1517 124.479 C 76.685 124.373 76.2243 124.24 75.7724 124.082 C 75.3206 123.924 74.8776 123.74 74.4463 123.532 C 74.015 123.325 73.5953 123.093 73.19 122.838 C 72.7846 122.583 72.3936 122.306 72.0193 122.007 C 71.6451 121.709 71.2875 121.389 70.949 121.051 C 70.6105 120.712 70.291 120.355 69.9926 119.981 C 69.6941 119.606 69.4166 119.215 69.1619 118.81 C 68.9072 118.405 68.6753 117.985 68.4676 117.554 C 68.2599 117.122 68.0764 116.679 67.9183 116.228 C 67.7602 115.776 67.6274 115.315 67.5209 114.848 C 67.4144 114.382 67.3341 113.909 67.2805 113.433 C 67.2269 112.957 67.2 112.479 67.2 112 C 67.2 111.521 67.2269 111.043 67.2805 110.567 C 67.3341 110.091 67.4144 109.618 67.5209 109.152 C 67.6274 108.685 67.7602 108.224 67.9183 107.772 C 68.0764 107.321 68.2599 106.878 68.4676 106.446" fill="none" stroke="#4ade80" stroke-width="2" stroke-linecap="round" stroke-linejoin="round" fill-opacity="0.771429" stroke-opacity="0.771429" />
  <ellipse cx="112" cy="112" rx="12.8" ry="12.8" fill="none" stroke="#2d4a2d" stroke-width="0.3" fill-opacity="0.2" stroke-opacity="0.2" />
  <path d="M 114.848 124.479 C 114.382 124.586 113.909 124.666 113.433 124.72 C 112.957 124.773 112.479 124.8 112 124.8 C 111.521 124.8 111.043 124.773 110.567 124.72 C 110.091 124.666 109.618 124.586 109.152 124.479 C 108.685 124.373 108.224 124.24 107.772 124.082 C 107.321 123.924 106.878 123.74 106.446 123.532 C 106.015 123.325 105.595 123.093 105.19 122.838 C 104.785 122.583 104.394 122.306 104.019 122.007 C 103.645 121.709 103.288 121.389 102.949 121.051 C 102.611 120.712 102.291 120.355 101.993 119.981 C 101.694 119.606 101.417 119.215 101.162 118.81 C 100.907 118.405 100.675 117.985 100.468 117.554 C 100.26 117.122 100.076 116.679 99.9183 116.228 C 99.7602 115.776 99.6274 115.315 99.5209 114.848 C 99.4144 114.382 99.3341 113.909 99.2805 113.433 C 99.2269 112.957 99.2 112.479 99.2 112 C 99.2 111.521 99.2269 111.043 99.2805 110.567 C 99.3341 110.091 99.4144 109.618 99.5209 109.152 C 99.6274 108.685 99.7602 108.224 99.9183 107.772 C 100.076 107.321 100.26 106.878 100.468 106.446 C 100.675 106.015 100.907 105.595 101.162 105.19 C 101.417 104.785 101.694 104.394 101.993 104.019 C 102.291 103.645 102.611 103.288 102.949 102.949 C 103.288 102.611 103.645 102.291 104.019 101.993" fill="none" stroke="#4ade80" stroke-width="2" stroke-linecap="round" stroke-linejoin="round" fill-opacity="0.771429" stroke-opacity="0.771429" />
  <ellipse cx="144" cy="112" rx="12.8" ry="12.8" fill="none" stroke="#2d4a2d" stroke-width="0.3" fill-opacity="0.2" stroke-opacity="0.2" />
  <path d="M 141.152 124.479 C 140.685 124.373 140.224 124.24 139.772 124.082 C 139.321 123.924 138.878 123.74 138.446 123.532 C 138.015 123.325 137.595 123.093 137.19 122.838 C 136.785 122.583 136.394 122.306 136.019 122.007 C 135.645 121.709 135.288 121.389 134.949 121.051 C 134.611 120.712 134.291 120.355 133.993 119.981 C 133.694 119.606 133.417 119.215 133.162 118.81 C 132.907 118.405 132.675 117.985 132.468 117.554 C 132.26 117.122 132.076 116.679 131.918 116.228 C 131.76 115.776 131.627 115.315 131.521 114.848 C 131.414 114.382 131.334 113.909 131.28 113.433 C 131.227 112.957 131.2 112.479 131.2 112 C 131.2 111.521 131.227 111.043 131.28 110.567 C 131.334 110.091 131.414 109.618 131.521 109.152 C 131.627 108.685 131.76 108.224 131.918 107.772 C 132.076 107.321 132.26 106.878 132.468 106.446 C 132.675 106.015 132.907 105.595 133.162 105.19 C 133.417 104.785 133.694 104.394 133.993 104.019 C 134.291 103.645 134.611 103.288 134.949 102.949 C 135.288 102.611 135.645 102.291 136.019 101.993 C 136.394 101.694 136.785 101.417 137.19 101.162 C 137.595 100.907 138.015 100.675 138.446 100.468 C 138.878 100.26 139.321 100.076 139.772 99.9183 C 140.224 99.7602 140.685 99.6274 141.152 99.5209" fill="none" stroke="#4ade80" stroke-width="2" stroke-linecap="round" stroke-linejoin="round" fill-opacity="0.771429" stroke-opacity="0.771429" />
  <ellipse cx="176" cy="112" rx="12.8" ry="12.8" fill="none" stroke="#2d4a2d" stroke-width="0.3" fill-opacity="0.2" stroke-opacity="0.2" />
  <path d="M 168.019 122.007 C 167.645 121.709 167.288 121.389 166.949 121.051 C 166.611 120.712 166.291 120.355 165.993 119.981 C 165.694 119.606 165.417 119.215 165.162 118.81 C 164.907 118.405 164.675 117.985 164.468 117.554 C 164.26 117.122 164.076 116.679 163.918 116.228 C 163.76 115.776 163.627 115.315 163.521 114.848 C 163.414 114.382 163.334 113.909 163.28 113.433 C 163.227 112.957 163.2 112.479 163.2 112 C 163.2 111.521 163.227 111.043 163.28 110.567 C 163.334 110.091 163.414 109.618 163.521 109.152 C 163.627 108.685 163.76 108.224 163.918 107.772 C 164.076 107.321 164.26 106.878 164.468 106.446 C 164.675 106.015 164.907 105.595 165.162 105.19 C 165.417 104.785 165.694 104.394 165.993 104.019 C 166.291 103.645 166.611 103.288 166.949 102.949 C 167.288 102.611 167.645 102.291 168.019 101.993 C 168.394 101.694 168.785 101.417 169.19 101.162 C 169.595 100.907 170.015 100.675 170.446 100.468 C 170.878 100.26 171.321 100.076 171.772 99.9183 C 172.224 99.7602 172.685 99.6274 173.152 99.5209 C 173.618 99.4144 174.091 99.3341 174.567 99.2805 C 175.043 99.2269 175.521 99.2 176 99.2 C 176.479 99.2 176.957 99.2269 177.433 99.2805 C 177.909 99.3341 178.382 99.4144 178.848 99.5209" fill="none" stroke="#4ade80" stroke-width="2" stroke-linecap="round" stroke-linejoin="round" fill-opacity="0.771429" stroke-opacity="0.771429" />
  <ellipse cx="208" cy="112" rx="12.8" ry="12.8" fill="none" stroke="#2d4a2d" stroke-width="0.3" fill-opacity="0.2" stroke-opacity="0.2" />
  <path d="M 196.468 117.554 C 196.26 117.122 196.076 116.679 195.918 116.228 C 195.76 115.776 195.627 115.315 195.521 114.848 C 195.414 114.382 195.334 113.909 195.28 113.433 C 195.227 112.957 195.2 112.479 195.2 112 C 195.2 111.521 195.227 111.043 195.28 110.567 C 195.334 110.091 195.414 109.618 195.521 109.152 C 195.627 108.685 195.76 108.224 195.918 107.772 C 196.076 107.321 196.26 106.878 196.468 106.446 C 196.675 106.015 196.907 105.595 197.162 105.19 C 197.417 104.785 197.694 104.394 197.993 104.019 C 198.291 103.645 198.611 103.288 198.949 102.949 C 199.288 102.611 199.645 102.291 200.019 101.993 C 200.394 101.694 200.785 101.417 201.19 101.162 C 201.595 100.907 202.015 100.675 202.446 100.468 C 202.878 100.26 203.321 100.076 203.772 99.9183 C 204.224 99.7602 204.685 99.6274 205.152 99.5209 C 205.618 99.4144 206.091 99.3341 206.567 99.2805 C 207.043 99.2269 207.521 99.2 208 99.2 C 208.479 99.2 208.957 99.2269 209.433 99.2805 C 209.909 99.3341 210.382 99.4144 210.848 99.5209 C 211.315 99.6274 211.776 99.7602 212.228 99.9183 C 212.679 100.076 213.122 100.26 213.554 100.468 C 213.985 100.675 214.405 100.907 214.81 101.162 C 215.215 101.417 215.606 101.694 215.981 101.993" fill="none" stroke="#4ade80" stroke-width="2" stroke-linecap="round" stroke-linejoin="round" fill-opacity="0.771429" stroke-opacity="0.771429" />
  <ellipse cx="240" cy="112" rx="12.8" ry="12.8" fill="none" stroke="#2d4a2d" stroke-width="0.3" fill-opacity="0.2" stroke-opacity="0.2" />
  <path d="M 227.2 112 C 227.2 111.521 227.227 111.043 227.28 110.567 C 227.334 110.091 227.414 109.618 227.521 109.152 C 227.627 108.685 227.76 108.224 227.918 107.772 C 228.076 107.321 228.26 106.878 228.468 106.446 C 228.675 106.015 228.907 105.595 229.162 105.19 C 229.417 104.785 229.694 104.394 229.993 104.019 C 230.291 103.645 230.611 103.288 230.949 102.949 C 231.288 102.611 231.645 102.291 232.019 101.993 C 232.394 101.694 232.785 101.417 233.19 101.162 C 233.595 100.907 234.015 100.675 234.446 100.468 C 234.878 100.26 235.321 100.076 235.772 99.9183 C 236.224 99.7602 236.685 99.6274 237.152 99.5209 C 237.618 99.4144 238.091 99.3341 238.567 99.2805 C 239.043 99.2269 239.521 99.2 240 99.2 C 240.479 99.2 240.957 99.2269 241.433 99.2805 C 241.909 99.3341 242.382 99.4144 242.848 99.5209 C 243.315 99.6274 243.776 99.7602 244.228 99.9183 C 244.679 100.076 245.122 100.26 245.554 100.468 C 245.985 100.675 246.405 100.907 246.81 101.162 C 247.215 101.417 247.606 101.694 247.981 101.993 C 248.355 102.291 248.712 102.611 249.051 102.949 C 249.389 103.288 249.709 103.645 250.007 104.019 C 250.306 104.394 250.583 104.785 250.838 105.19 C 251.093 105.595 251.325 106.015 251.532 106.446" fill="none" stroke="#4ade80" stroke-width="2" stroke-linecap="round" stroke-linejoin="round" fill-opacity="0.771429" stroke-opacity="0.771429" />
  <ellipse cx="16" cy="144" rx="12.8" ry="12.8" fill="none" stroke="#2d4a2d" stroke-width="0.3" fill-opacity="0.2" stroke-opacity="0.2" />
  <path d="M 28.8 144 C 28.8 144.527 28.7675 145.053 28.7026 145.576 C 28.6378 146.098 28.5407 146.617 28.412 147.128 C 28.2834 147.638 28.1231 148.141 27.9326 148.632 C 27.742 149.123 27.5212 149.602 27.2716 150.066 C 27.0221 150.529 26.7439 150.978 26.4392 151.407 C 26.1345 151.836 25.8032 152.247 25.4479 152.636 C 25.0926 153.024 24.7134 153.391 24.3129 153.733 C 23.9125 154.075 23.491 154.392 23.0515 154.683 C 22.612 154.973 22.1546 155.236 21.6828 155.469 C 21.2109 155.703 20.7246 155.908 20.2276 156.082 C 19.7305 156.256 19.2227 156.399 18.7081 156.51 C 18.1934 156.622 17.6719 156.701 17.1474 156.748 C 16.6229 156.796 16.0955 156.81 15.5692 156.793 C 15.0429 156.775 14.5177 156.725 13.9976 156.642 C 13.4775 156.56 12.9625 156.446 12.4565 156.3 C 11.9505 156.154 11.4535 155.977 10.9693 155.77 C 10.4851 155.563 10.0136 155.326 9.55859 155.061 C 9.10353 154.796 8.66486 154.503 8.24589 154.184 C 7.82692 153.865 7.42766 153.52 7.05115 153.152 C 6.67464 152.784 6.32088 152.392 5.99256 151.981 C 5.66423 151.569 5.36135 151.137 5.08621 150.688 C 4.81106 150.239 4.56366 149.773 4.34589 149.294 C 4.12811 148.814 3.93996 148.321 3.78286 147.819 C 3.62577 147.316 3.49973 146.804 3.4057 146.286" fill="none" stroke="#4ade80" stroke-width="2" stroke-linecap="round" stroke-linejoin="round" fill-opacity="0.828571" stroke-opacity="0.828571" />
  <ellipse cx="48" cy="144" rx="12.8" ry="12.8" fill="none" stroke="#2d4a2d" stroke-width="0.3" fill-opacity="0.2" stroke-opacity="0.2" />
  <path d="M 59.5324 149.554 C 59.3039 150.028 59.0461 150.488 58.761 150.931 C 58.4758 151.374 58.1633 151.799 57.8259 152.203 C 57.4884 152.607 57.1259 152.991 56.7412 153.35 C 56.3566 153.71 55.9497 154.046 55.5237 154.355 C 55.0976 154.665 54.6525 154.948 54.1916 155.203 C 53.7307 155.458 53.2541 155.684 52.7654 155.88 C 52.2766 156.076 51.7758 156.242 51.2666 156.376 C 50.7575 156.511 50.24 156.613 49.7182 156.684 C 49.1964 156.755 48.6702 156.793 48.1436 156.799 C 47.6171 156.805 47.0901 156.778 46.5669 156.72 C 46.0436 156.661 45.5239 156.569 45.0119 156.446 C 44.4999 156.323 43.9954 156.169 43.5024 155.984 C 43.0094 155.799 42.5278 155.583 42.0613 155.339 C 41.5948 155.095 41.1435 154.822 40.7106 154.522 C 40.2777 154.222 39.8634 153.895 39.4708 153.544 C 39.0781 153.193 38.7071 152.818 38.3607 152.422 C 38.0142 152.025 37.6923 151.607 37.3973 151.171 C 37.1022 150.735 36.8342 150.28 36.5951 149.811 C 36.356 149.342 36.146 148.858 35.9665 148.363 C 35.787 147.868 35.6381 147.362 35.5209 146.848 C 35.4037 146.335 35.3183 145.814 35.2652 145.29 C 35.2121 144.766 35.1914 144.239 35.2032 143.713 C 35.215 143.186 35.2594 142.661 35.3359 142.14 C 35.4125 141.619 35.5212 141.102 35.6613 140.595" fill="none" stroke="#4ade80" stroke-width="2" stroke-linecap="round" stroke-linejoin="round" fill-opacity="0.828571" stroke-opacity="0.828571" />
  <ellipse cx="80" cy="144" rx="12.8" ry="12.8" fill="none" stroke="#2d4a2d" stroke-width="0.3" fill-opacity="0.2" stroke-opacity="0.2" />
  <path d="M 87.9807 154.007 C 87.569 154.336 87.137 154.639 86.688 154.914 C 86.239 155.189 85.773 155.436 85.2935 155.654 C 84.8141 155.872 84.3212 156.06 83.8186 156.217 C 83.316 156.374 82.8037 156.5 82.2855 156.594 C 81.7674 156.688 81.2435 156.75 80.7177 156.78 C 80.1919 156.809 79.6644 156.806 79.139 156.771 C 78.6136 156.736 78.0904 156.668 77.5733 156.568 C 77.0563 156.468 76.5454 156.336 76.0446 156.174 C 75.5438 156.011 75.053 155.817 74.576 155.594 C 74.0991 155.371 73.6359 155.118 73.19 154.838 C 72.7441 154.558 72.3155 154.25 71.9076 153.917 C 71.4996 153.584 71.1121 153.226 70.7482 152.846 C 70.3843 152.465 70.0439 152.062 69.7296 151.639 C 69.4154 151.217 69.1272 150.775 68.8673 150.317 C 68.6074 149.859 68.3759 149.385 68.1743 148.898 C 67.9728 148.412 67.8014 147.913 67.6613 147.405 C 67.5212 146.898 67.4125 146.381 67.3359 145.86 C 67.2594 145.339 67.215 144.814 67.2032 144.287 C 67.1914 143.761 67.2121 143.234 67.2652 142.71 C 67.3183 142.186 67.4037 141.665 67.5209 141.152 C 67.6381 140.638 67.787 140.132 67.9665 139.637 C 68.146 139.142 68.356 138.658 68.5951 138.189 C 68.8342 137.72 69.1022 137.265 69.3973 136.829 C 69.6923 136.393 70.0142 135.975 70.3607 135.578" fill="none" stroke="#4ade80" stroke-width="2" stroke-linecap="round" stroke-linejoin="round" fill-opacity="0.828571" stroke-opacity="0.828571" />
  <ellipse cx="112" cy="144" rx="12.8" ry="12.8" fill="none" stroke="#2d4a2d" stroke-width="0.3" fill-opacity="0.2" stroke-opacity="0.2" />
  <path d="M 114.848 156.479 C 114.335 156.596 113.814 156.682 113.29 156.735 C 112.766 156.788 112.239 156.809 111.713 156.797 C 111.186 156.785 110.661 156.741 110.14 156.664 C 109.619 156.588 109.102 156.479 108.595 156.339 C 108.087 156.199 107.588 156.027 107.102 155.826 C 106.615 155.624 106.141 155.393 105.683 155.133 C 105.225 154.873 104.783 154.585 104.361 154.27 C 103.938 153.956 103.535 153.616 103.154 153.252 C 102.774 152.888 102.416 152.5 102.083 152.092 C 101.75 151.684 101.442 151.256 101.162 150.81 C 100.882 150.364 100.629 149.901 100.406 149.424 C 100.183 148.947 99.9892 148.456 99.8265 147.955 C 99.6638 147.455 99.532 146.944 99.4321 146.427 C 99.3323 145.91 99.2644 145.386 99.229 144.861 C 99.1936 144.336 99.1906 143.808 99.2201 143.282 C 99.2497 142.757 99.3117 142.233 99.4057 141.714 C 99.4997 141.196 99.6258 140.684 99.7829 140.181 C 99.94 139.679 100.128 139.186 100.346 138.706 C 100.564 138.227 100.811 137.761 101.086 137.312 C 101.361 136.863 101.664 136.431 101.993 136.019 C 102.321 135.608 102.675 135.216 103.051 134.848 C 103.428 134.48 103.827 134.135 104.246 133.816 C 104.665 133.497 105.104 133.204 105.559 132.939 C 106.014 132.674 106.485 132.437 106.969 132.23" fill="none" stroke="#4ade80" stroke-width="2" stroke-linecap="round" stroke-linejoin="round" fill-opacity="0.828571" stroke-opacity="0.828571" />
  <ellipse cx="144" cy="144" rx="12.8" ry="12.8" fill="none" stroke="#2d4a2d" stroke-width="0.3" fill-opacity="0.2" stroke-opacity="0.2" />
  <path d="M 141.152 156.479 C 140.638 156.362 140.132 156.213 139.637 156.034 C 139.142 155.854 138.658 155.644 138.189 155.405 C 137.72 155.166 137.265 154.898 136.829 154.603 C 136.393 154.308 135.975 153.986 135.578 153.639 C 135.182 153.293 134.807 152.922 134.456 152.529 C 134.105 152.137 133.778 151.722 133.478 151.289 C 133.178 150.857 132.905 150.405 132.661 149.939 C 132.417 149.472 132.201 148.991 132.016 148.498 C 131.831 148.005 131.677 147.5 131.554 146.988 C 131.431 146.476 131.339 145.956 131.28 145.433 C 131.222 144.91 131.195 144.383 131.201 143.856 C 131.207 143.33 131.245 142.804 131.316 142.282 C 131.387 141.76 131.489 141.243 131.624 140.733 C 131.758 140.224 131.924 139.723 132.12 139.235 C 132.316 138.746 132.542 138.269 132.797 137.808 C 133.052 137.348 133.335 136.902 133.645 136.476 C 133.954 136.05 134.29 135.643 134.65 135.259 C 135.009 134.874 135.393 134.512 135.797 134.174 C 136.201 133.837 136.626 133.524 137.069 133.239 C 137.512 132.954 137.972 132.696 138.446 132.468 C 138.921 132.239 139.409 132.04 139.908 131.872 C 140.407 131.703 140.917 131.566 141.432 131.46 C 141.948 131.355 142.471 131.281 142.996 131.239 C 143.521 131.198 144.048 131.189 144.574 131.213" fill="none" stroke="#4ade80" stroke-width="2" stroke-linecap="round" stroke-linejoin="round" fill-opacity="0.828571" stroke-opacity="0.828571" />
  <ellipse cx="176" cy="144" rx="12.8" ry="12.8" fill="none" stroke="#2d4a2d" stroke-width="0.3" fill-opacity="0.2" stroke-opacity="0.2" />
  <path d="M 168.019 154.007 C 167.608 153.679 167.216 153.325 166.848 152.949 C 166.48 152.572 166.135 152.173 165.816 151.754 C 165.497 151.335 165.204 150.896 164.939 150.441 C 164.674 149.986 164.437 149.515 164.23 149.031 C 164.023 148.547 163.846 148.05 163.7 147.543 C 163.554 147.037 163.44 146.522 163.358 146.002 C 163.275 145.482 163.225 144.957 163.207 144.431 C 163.19 143.904 163.204 143.377 163.252 142.853 C 163.299 142.328 163.378 141.807 163.49 141.292 C 163.601 140.777 163.744 140.269 163.918 139.772 C 164.092 139.275 164.297 138.789 164.531 138.317 C 164.764 137.845 165.027 137.388 165.317 136.949 C 165.608 136.509 165.925 136.087 166.267 135.687 C 166.609 135.287 166.976 134.907 167.364 134.552 C 167.753 134.197 168.164 133.866 168.593 133.561 C 169.022 133.256 169.471 132.978 169.934 132.728 C 170.398 132.479 170.877 132.258 171.368 132.067 C 171.859 131.877 172.362 131.717 172.872 131.588 C 173.383 131.459 173.902 131.362 174.424 131.297 C 174.947 131.233 175.473 131.2 176 131.2 C 176.527 131.2 177.053 131.233 177.576 131.297 C 178.098 131.362 178.617 131.459 179.128 131.588 C 179.638 131.717 180.141 131.877 180.632 132.067 C 181.123 132.258 181.602 132.479 182.066 132.728" fill="none" stroke="#4ade80" stroke-width="2" stroke-linecap="round" stroke-linejoin="round" fill-opacity="0.828571" stroke-opacity="0.828571" />
  <ellipse cx="208" cy="144" rx="12.8" ry="12.8" fill="none" stroke="#2d4a2d" stroke-width="0.3" fill-opacity="0.2" stroke-opacity="0.2" />
  <path d="M 196.468 149.554 C 196.239 149.079 196.04 148.591 195.872 148.092 C 195.703 147.593 195.566 147.083 195.46 146.568 C 195.355 146.052 195.281 145.529 195.239 145.004 C 195.198 144.479 195.189 143.952 195.213 143.426 C 195.237 142.9 195.293 142.375 195.381 141.856 C 195.469 141.337 195.589 140.823 195.741 140.319 C 195.892 139.814 196.075 139.319 196.287 138.838 C 196.5 138.356 196.742 137.887 197.012 137.435 C 197.282 136.983 197.58 136.547 197.904 136.132 C 198.227 135.717 198.577 135.321 198.949 134.949 C 199.321 134.577 199.717 134.227 200.132 133.904 C 200.547 133.58 200.983 133.282 201.435 133.012 C 201.887 132.742 202.356 132.5 202.838 132.287 C 203.319 132.075 203.814 131.892 204.319 131.741 C 204.823 131.589 205.337 131.469 205.856 131.381 C 206.375 131.293 206.9 131.237 207.426 131.213 C 207.952 131.189 208.479 131.198 209.004 131.239 C 209.529 131.281 210.052 131.355 210.568 131.46 C 211.083 131.566 211.593 131.703 212.092 131.872 C 212.591 132.04 213.079 132.239 213.554 132.468 C 214.028 132.696 214.488 132.954 214.931 133.239 C 215.374 133.524 215.799 133.837 216.203 134.174 C 216.607 134.512 216.991 134.874 217.35 135.259 C 217.71 135.643 218.046 136.05 218.355 136.476" fill="none" stroke="#4ade80" stroke-width="2" stroke-linecap="round" stroke-linejoin="round" fill-opacity="0.828571" stroke-opacity="0.828571" />
  <ellipse cx="240" cy="144" rx="12.8" ry="12.8" fill="none" stroke="#2d4a2d" stroke-width="0.3" fill-opacity="0.2" stroke-opacity="0.2" />
  <path d="M 227.2 144 C 227.2 143.473 227.233 142.947 227.297 142.424 C 227.362 141.902 227.459 141.383 227.588 140.872 C 227.717 140.362 227.877 139.859 228.067 139.368 C 228.258 138.877 228.479 138.398 228.728 137.934 C 228.978 137.471 229.256 137.022 229.561 136.593 C 229.866 136.164 230.197 135.753 230.552 135.364 C 230.907 134.976 231.287 134.609 231.687 134.267 C 232.087 133.925 232.509 133.608 232.949 133.317 C 233.388 133.027 233.845 132.764 234.317 132.531 C 234.789 132.297 235.275 132.092 235.772 131.918 C 236.269 131.744 236.777 131.601 237.292 131.49 C 237.807 131.378 238.328 131.299 238.853 131.252 C 239.377 131.204 239.904 131.19 240.431 131.207 C 240.957 131.225 241.482 131.275 242.002 131.358 C 242.522 131.44 243.037 131.554 243.543 131.7 C 244.05 131.846 244.547 132.023 245.031 132.23 C 245.515 132.437 245.986 132.674 246.441 132.939 C 246.896 133.204 247.335 133.497 247.754 133.816 C 248.173 134.135 248.572 134.48 248.949 134.848 C 249.325 135.216 249.679 135.608 250.007 136.019 C 250.336 136.431 250.639 136.863 250.914 137.312 C 251.189 137.761 251.436 138.227 251.654 138.706 C 251.872 139.186 252.06 139.679 252.217 140.181 C 252.374 140.684 252.5 141.196 252.594 141.714" fill="none" stroke="#4ade80" stroke-width="2" stroke-linecap="round" stroke-linejoin="round" fill-opacity="0.828571" stroke-opacity="0.828571" />
  <ellipse cx="16" cy="176" rx="12.8" ry="12.8" fill="none" stroke="#2d4a2d" stroke-width="0.3" fill-opacity="0.2" stroke-opacity="0.2" />
  <path d="M 28.8 176 C 28.8 176.574 28.7613 177.149 28.6842 177.718 C 28.607 178.287 28.4916 178.852 28.3387 179.405 C 28.1859 179.959 27.9957 180.502 27.77 181.031 C 27.5442 181.559 27.2828 182.072 26.9881 182.565 C 26.6935 183.058 26.3656 183.532 26.0074 183.981 C 25.6493 184.43 25.2608 184.855 24.8456 185.252 C 24.4304 185.649 23.9884 186.018 23.5237 186.355 C 23.0589 186.693 22.5714 186.999 22.0655 187.272 C 21.5596 187.544 21.0354 187.782 20.4976 187.984 C 19.9598 188.186 19.4083 188.351 18.8483 188.479 C 18.2882 188.607 17.7195 188.697 17.1474 188.748 C 16.5752 188.8 15.9996 188.813 15.4257 188.787 C 14.8518 188.761 14.2797 188.697 13.7145 188.594 C 13.1492 188.492 12.5909 188.351 12.0446 188.174 C 11.4982 187.996 10.9639 187.782 10.4463 187.532 C 9.92872 187.283 9.42795 186.999 8.94852 186.683 C 8.46909 186.366 8.011 186.017 7.57838 185.639 C 7.14577 185.261 6.73865 184.854 6.36069 184.422 C 5.98272 183.989 5.63393 183.531 5.31746 183.051 C 5.00099 182.572 4.71685 182.071 4.4676 181.554 C 4.21835 181.036 4.004 180.502 3.82648 179.955 C 3.64896 179.409 3.50828 178.851 3.4057 178.286 C 3.30313 177.72 3.23866 177.148 3.21289 176.574 C 3.18712 176 3.20003 175.425 3.25153 174.853" fill="none" stroke="#4ade80" stroke-width="2" stroke-linecap="round" stroke-linejoin="round" fill-opacity="0.885714" stroke-opacity="0.885714" />
  <ellipse cx="48" cy="176" rx="12.8" ry="12.8" fill="none" stroke="#2d4a2d" stroke-width="0.3" fill-opacity="0.2" stroke-opacity="0.2" />
  <path d="M 59.5324 181.554 C 59.2832 182.071 58.999 182.572 58.6825 183.051 C 58.3661 183.531 58.0173 183.989 57.6393 184.422 C 57.2614 184.854 56.8542 185.261 56.4216 185.639 C 55.989 186.017 55.5309 186.366 55.0515 186.683 C 54.5721 186.999 54.0713 187.283 53.5537 187.532 C 53.0361 187.782 52.5018 187.996 51.9554 188.174 C 51.4091 188.351 50.8508 188.492 50.2855 188.594 C 49.7203 188.697 49.1482 188.761 48.5743 188.787 C 48.0004 188.813 47.4248 188.8 46.8526 188.748 C 46.2805 188.697 45.7118 188.607 45.1517 188.479 C 44.5917 188.351 44.0402 188.186 43.5024 187.984 C 42.9646 187.782 42.4404 187.544 41.9345 187.272 C 41.4286 186.999 40.9411 186.693 40.4763 186.355 C 40.0116 186.018 39.5696 185.649 39.1544 185.252 C 38.7392 184.855 38.3507 184.43 37.9926 183.981 C 37.6344 183.532 37.3065 183.058 37.0119 182.565 C 36.7172 182.072 36.4558 181.559 36.23 181.031 C 36.0043 180.502 35.8141 179.959 35.6613 179.405 C 35.5084 178.852 35.393 178.287 35.3158 177.718 C 35.2387 177.149 35.2 176.574 35.2 176 C 35.2 175.426 35.2387 174.851 35.3158 174.282 C 35.393 173.713 35.5084 173.148 35.6613 172.595 C 35.8141 172.041 36.0043 171.498 36.23 170.969 C 36.4558 170.441 36.7172 169.928 37.0119 169.435" fill="none" stroke="#4ade80" stroke-width="2" stroke-linecap="round" stroke-linejoin="round" fill-opacity="0.885714" stroke-opacity="0.885714" />
  <ellipse cx="80" cy="176" rx="12.8" ry="12.8" fill="none" stroke="#2d4a2d" stroke-width="0.3" fill-opacity="0.2" stroke-opacity="0.2" />
  <path d="M 87.9807 186.007 C 87.5315 186.366 87.0583 186.694 86.5651 186.988 C 86.072 187.283 85.559 187.544 85.0307 187.77 C 84.5025 187.996 83.959 188.186 83.4053 188.339 C 82.8515 188.492 82.2874 188.607 81.7182 188.684 C 81.1489 188.761 80.5745 188.8 80 188.8 C 79.4255 188.8 78.8511 188.761 78.2818 188.684 C 77.7126 188.607 77.1485 188.492 76.5947 188.339 C 76.041 188.186 75.4975 187.996 74.9693 187.77 C 74.441 187.544 73.928 187.283 73.4349 186.988 C 72.9417 186.694 72.4685 186.366 72.0193 186.007 C 71.5702 185.649 71.1452 185.261 70.7482 184.846 C 70.3512 184.43 69.9822 183.988 69.6446 183.524 C 69.3069 183.059 69.0006 182.571 68.7284 182.066 C 68.4562 181.56 68.218 181.035 68.0162 180.498 C 67.8143 179.96 67.6488 179.408 67.5209 178.848 C 67.3931 178.288 67.303 177.72 67.2515 177.147 C 67.2 176.575 67.1871 176 67.2129 175.426 C 67.2387 174.852 67.3031 174.28 67.4057 173.714 C 67.5083 173.149 67.649 172.591 67.8265 172.045 C 68.004 171.498 68.2183 170.964 68.4676 170.446 C 68.7168 169.929 69.001 169.428 69.3175 168.949 C 69.6339 168.469 69.9827 168.011 70.3607 167.578 C 70.7386 167.146 71.1458 166.739 71.5784 166.361 C 72.011 165.983 72.4691 165.634 72.9485 165.317" fill="none" stroke="#4ade80" stroke-width="2" stroke-linecap="round" stroke-linejoin="round" fill-opacity="0.885714" stroke-opacity="0.885714" />
  <ellipse cx="112" cy="176" rx="12.8" ry="12.8" fill="none" stroke="#2d4a2d" stroke-width="0.3" fill-opacity="0.2" stroke-opacity="0.2" />
  <path d="M 114.848 188.479 C 114.288 188.607 113.72 188.697 113.147 188.748 C 112.575 188.8 112 188.813 111.426 188.787 C 110.852 188.761 110.28 188.697 109.714 188.594 C 109.149 188.492 108.591 188.351 108.045 188.174 C 107.498 187.996 106.964 187.782 106.446 187.532 C 105.929 187.283 105.428 186.999 104.949 186.683 C 104.469 186.366 104.011 186.017 103.578 185.639 C 103.146 185.261 102.739 184.854 102.361 184.422 C 101.983 183.989 101.634 183.531 101.317 183.051 C 101.001 182.572 100.717 182.071 100.468 181.554 C 100.218 181.036 100.004 180.502 99.8265 179.955 C 99.649 179.409 99.5083 178.851 99.4057 178.286 C 99.3031 177.72 99.2387 177.148 99.2129 176.574 C 99.1871 176 99.2 175.425 99.2515 174.853 C 99.303 174.28 99.3931 173.712 99.5209 173.152 C 99.6488 172.592 99.8143 172.04 100.016 171.502 C 100.218 170.965 100.456 170.44 100.728 169.934 C 101.001 169.429 101.307 168.941 101.645 168.476 C 101.982 168.012 102.351 167.57 102.748 167.154 C 103.145 166.739 103.57 166.351 104.019 165.993 C 104.468 165.634 104.942 165.306 105.435 165.012 C 105.928 164.717 106.441 164.456 106.969 164.23 C 107.498 164.004 108.041 163.814 108.595 163.661 C 109.148 163.508 109.713 163.393 110.282 163.316" fill="none" stroke="#4ade80" stroke-width="2" stroke-linecap="round" stroke-linejoin="round" fill-opacity="0.885714" stroke-opacity="0.885714" />
  <ellipse cx="144" cy="176" rx="12.8" ry="12.8" fill="none" stroke="#2d4a2d" stroke-width="0.3" fill-opacity="0.2" stroke-opacity="0.2" />
  <path d="M 141.152 188.479 C 140.592 188.351 140.04 188.186 139.502 187.984 C 138.965 187.782 138.44 187.544 137.934 187.272 C 137.429 186.999 136.941 186.693 136.476 186.355 C 136.012 186.018 135.57 185.649 135.154 185.252 C 134.739 184.855 134.351 184.43 133.993 183.981 C 133.634 183.532 133.306 183.058 133.012 182.565 C 132.717 182.072 132.456 181.559 132.23 181.031 C 132.004 180.502 131.814 179.959 131.661 179.405 C 131.508 178.852 131.393 178.287 131.316 177.718 C 131.239 177.149 131.2 176.574 131.2 176 C 131.2 175.426 131.239 174.851 131.316 174.282 C 131.393 173.713 131.508 173.148 131.661 172.595 C 131.814 172.041 132.004 171.498 132.23 170.969 C 132.456 170.441 132.717 169.928 133.012 169.435 C 133.306 168.942 133.634 168.468 133.993 168.019 C 134.351 167.57 134.739 167.145 135.154 166.748 C 135.57 166.351 136.012 165.982 136.476 165.645 C 136.941 165.307 137.429 165.001 137.934 164.728 C 138.44 164.456 138.965 164.218 139.502 164.016 C 140.04 163.814 140.592 163.649 141.152 163.521 C 141.712 163.393 142.28 163.303 142.853 163.252 C 143.425 163.2 144 163.187 144.574 163.213 C 145.148 163.239 145.72 163.303 146.286 163.406 C 146.851 163.508 147.409 163.649 147.955 163.826" fill="none" stroke="#4ade80" stroke-width="2" stroke-linecap="round" stroke-linejoin="round" fill-opacity="0.885714" stroke-opacity="0.885714" />
  <ellipse cx="176" cy="176" rx="12.8" ry="12.8" fill="none" stroke="#2d4a2d" stroke-width="0.3" fill-opacity="0.2" stroke-opacity="0.2" />
  <path d="M 168.019 186.007 C 167.57 185.649 167.145 185.261 166.748 184.846 C 166.351 184.43 165.982 183.988 165.645 183.524 C 165.307 183.059 165.001 182.571 164.728 182.066 C 164.456 181.56 164.218 181.035 164.016 180.498 C 163.814 179.96 163.649 179.408 163.521 178.848 C 163.393 178.288 163.303 177.72 163.252 177.147 C 163.2 176.575 163.187 176 163.213 175.426 C 163.239 174.852 163.303 174.28 163.406 173.714 C 163.508 173.149 163.649 172.591 163.826 172.045 C 164.004 171.498 164.218 170.964 164.468 170.446 C 164.717 169.929 165.001 169.428 165.317 168.949 C 165.634 168.469 165.983 168.011 166.361 167.578 C 166.739 167.146 167.146 166.739 167.578 166.361 C 168.011 165.983 168.469 165.634 168.949 165.317 C 169.428 165.001 169.929 164.717 170.446 164.468 C 170.964 164.218 171.498 164.004 172.045 163.826 C 172.591 163.649 173.149 163.508 173.714 163.406 C 174.28 163.303 174.852 163.239 175.426 163.213 C 176 163.187 176.575 163.2 177.147 163.252 C 177.72 163.303 178.288 163.393 178.848 163.521 C 179.408 163.649 179.96 163.814 180.498 164.016 C 181.035 164.218 181.56 164.456 182.066 164.728 C 182.571 165.001 183.059 165.307 183.524 165.645 C 183.988 165.982 184.43 166.351 184.846 166.748" fill="none" stroke="#4ade80" stroke-width="2" stroke-linecap="round" stroke-linejoin="round" fill-opacity="0.885714" stroke-opacity="0.885714" />
  <ellipse cx="208" cy="176" rx="12.8" ry="12.8" fill="none" stroke="#2d4a2d" stroke-width="0.3" fill-opacity="0.2" stroke-opacity="0.2" />
  <path d="M 196.468 181.554 C 196.218 181.036 196.004 180.502 195.826 179.955 C 195.649 179.409 195.508 178.851 195.406 178.286 C 195.303 177.72 195.239 177.148 195.213 176.574 C 195.187 176 195.2 175.425 195.252 174.853 C 195.303 174.28 195.393 173.712 195.521 173.152 C 195.649 172.592 195.814 172.04 196.016 171.502 C 196.218 170.965 196.456 170.44 196.728 169.934 C 197.001 169.429 197.307 168.941 197.645 168.476 C 197.982 168.012 198.351 167.57 198.748 167.154 C 199.145 166.739 199.57 166.351 200.019 165.993 C 200.468 165.634 200.942 165.306 201.435 165.012 C 201.928 164.717 202.441 164.456 202.969 164.23 C 203.498 164.004 204.041 163.814 204.595 163.661 C 205.148 163.508 205.713 163.393 206.282 163.316 C 206.851 163.239 207.426 163.2 208 163.2 C 208.574 163.2 209.149 163.239 209.718 163.316 C 210.287 163.393 210.852 163.508 211.405 163.661 C 211.959 163.814 212.502 164.004 213.031 164.23 C 213.559 164.456 214.072 164.717 214.565 165.012 C 215.058 165.306 215.532 165.634 215.981 165.993 C 216.43 166.351 216.855 166.739 217.252 167.154 C 217.649 167.57 218.018 168.012 218.355 168.476 C 218.693 168.941 218.999 169.429 219.272 169.934 C 219.544 170.44 219.782 170.965 219.984 171.502" fill="none" stroke="#4ade80" stroke-width="2" stroke-linecap="round" stroke-linejoin="round" fill-opacity="0.885714" stroke-opacity="0.885714" />
  <ellipse cx="240" cy="176" rx="12.8" ry="12.8" fill="none" stroke="#2d4a2d" stroke-width="0.3" fill-opacity="0.2" stroke-opacity="0.2" />
  <path d="M 227.2 176 C 227.2 175.441 227.237 174.883 227.31 174.329 C 227.382 173.776 227.492 173.227 227.636 172.687 C 227.781 172.148 227.961 171.618 228.174 171.102 C 228.388 170.586 228.636 170.084 228.915 169.6 C 229.194 169.116 229.505 168.651 229.845 168.208 C 230.185 167.765 230.554 167.344 230.949 166.949 C 231.344 166.554 231.765 166.185 232.208 165.845 C 232.651 165.505 233.116 165.194 233.6 164.915 C 234.084 164.636 234.586 164.388 235.102 164.174 C 235.618 163.961 236.148 163.781 236.687 163.636 C 237.227 163.492 237.776 163.382 238.329 163.31 C 238.883 163.237 239.441 163.2 240 163.2 C 240.559 163.2 241.117 163.237 241.671 163.31 C 242.224 163.382 242.773 163.492 243.313 163.636 C 243.852 163.781 244.382 163.961 244.898 164.174 C 245.414 164.388 245.916 164.636 246.4 164.915 C 246.884 165.194 247.349 165.505 247.792 165.845 C 248.235 166.185 248.656 166.554 249.051 166.949 C 249.446 167.344 249.815 167.765 250.155 168.208 C 250.495 168.651 250.806 169.116 251.085 169.6 C 251.364 170.084 251.612 170.586 251.826 171.102 C 252.039 171.618 252.219 172.148 252.364 172.687 C 252.508 173.227 252.618 173.776 252.69 174.329 C 252.763 174.883 252.8 175.441 252.8 176" fill="none" stroke="#4ade80" stroke-width="2" stroke-linecap="round" stroke-linejoin="round" fill-opacity="0.885714" stroke-opacity="0.885714" />
  <ellipse cx="16" cy="208" rx="12.8" ry="12.8" fill="none" stroke="#2d4a2d" stroke-width="0.3" fill-opacity="0.2" stroke-opacity="0.2" />
  <path d="M 28.8 208 C 28.8 208.622 28.7545 209.245 28.6641 209.86 C 28.5736 210.476 28.4382 211.085 28.2592 211.681 C 28.0802 212.277 27.8577 212.86 27.594 213.424 C 27.3303 213.988 27.0254 214.532 26.6825 215.051 C 26.3397 215.571 25.9589 216.065 25.5442 216.529 C 25.1295 216.993 24.6809 217.427 24.2032 217.826 C 23.7255 218.225 23.2186 218.589 22.688 218.914 C 22.1574 219.239 21.603 219.525 21.0307 219.77 C 20.4585 220.015 19.8683 220.217 19.2666 220.376 C 18.6649 220.535 18.0516 220.65 17.4331 220.72 C 16.8147 220.789 16.1912 220.814 15.5692 220.793 C 14.9473 220.772 14.3268 220.705 13.7145 220.594 C 13.1021 220.483 12.4979 220.327 11.9082 220.128 C 11.3186 219.929 10.7434 219.687 10.1889 219.405 C 9.63442 219.122 9.10056 218.799 8.59301 218.439 C 8.08546 218.079 7.60422 217.682 7.1544 217.252 C 6.70458 216.822 6.28618 216.359 5.90365 215.868 C 5.52111 215.377 5.17444 214.858 4.86731 214.317 C 4.56019 213.776 4.29261 213.212 4.06741 212.632 C 3.84221 212.052 3.65941 211.455 3.52092 210.848 C 3.38244 210.242 3.28829 209.625 3.23946 209.004 C 3.19063 208.384 3.18713 207.76 3.22899 207.139 C 3.27086 206.518 3.35808 205.9 3.48975 205.292 C 3.62142 204.684 3.79752 204.085 4.01619 203.502" fill="none" stroke="#4ade80" stroke-width="2" stroke-linecap="round" stroke-linejoin="round" fill-opacity="0.942857" stroke-opacity="0.942857" />
  <ellipse cx="48" cy="208" rx="12.8" ry="12.8" fill="none" stroke="#2d4a2d" stroke-width="0.3" fill-opacity="0.2" stroke-opacity="0.2" />
  <path d="M 59.5324 213.554 C 59.2624 214.114 58.9514 214.655 58.6027 215.171 C 58.2541 215.686 57.8678 216.176 57.4479 216.636 C 57.0281 217.095 56.5746 217.524 56.0924 217.917 C 55.6103 218.311 55.0994 218.669 54.5651 218.988 C 54.0309 219.307 53.4733 219.588 52.8983 219.826 C 52.3234 220.064 51.731 220.26 51.1276 220.412 C 50.5241 220.564 49.9095 220.672 49.2903 220.735 C 48.6712 220.798 48.0474 220.815 47.4257 220.787 C 46.804 220.759 46.1844 220.686 45.5733 220.568 C 44.9623 220.45 44.3598 220.287 43.7724 220.082 C 43.185 219.876 42.6126 219.628 42.0613 219.339 C 41.51 219.05 40.9798 218.721 40.4763 218.355 C 39.9729 217.99 39.4961 217.587 39.0512 217.152 C 38.6062 216.717 38.193 216.249 37.816 215.754 C 37.439 215.259 37.0982 214.736 36.7971 214.192 C 36.4961 213.647 36.2349 213.08 36.0162 212.498 C 35.7975 211.915 35.6214 211.316 35.4898 210.708 C 35.3581 210.1 35.2709 209.482 35.229 208.861 C 35.1871 208.24 35.1906 207.616 35.2395 206.996 C 35.2883 206.375 35.3824 205.758 35.5209 205.152 C 35.6594 204.545 35.8422 203.948 36.0674 203.368 C 36.2926 202.788 36.5602 202.224 36.8673 201.683 C 37.1744 201.142 37.5211 200.623 37.9036 200.132 C 38.2862 199.641 38.7046 199.178 39.1544 198.748" fill="none" stroke="#4ade80" stroke-width="2" stroke-linecap="round" stroke-linejoin="round" fill-opacity="0.942857" stroke-opacity="0.942857" />
  <ellipse cx="80" cy="208" rx="12.8" ry="12.8" fill="none" stroke="#2d4a2d" stroke-width="0.3" fill-opacity="0.2" stroke-opacity="0.2" />
  <path d="M 87.9807 218.007 C 87.4941 218.395 86.9792 218.748 86.4414 219.061 C 85.9036 219.374 85.343 219.648 84.7654 219.88 C 84.1878 220.112 83.5932 220.301 82.9881 220.446 C 82.383 220.592 81.7672 220.693 81.1474 220.748 C 80.5276 220.804 79.9037 220.815 79.2823 220.78 C 78.6609 220.745 78.0421 220.665 77.4325 220.54 C 76.8228 220.415 76.2222 220.246 75.6371 220.034 C 75.0521 219.821 74.4825 219.567 73.9345 219.272 C 73.3865 218.977 72.86 218.642 72.3606 218.27 C 71.8613 217.899 71.3891 217.491 70.949 217.051 C 70.509 216.611 70.1011 216.139 69.7296 215.639 C 69.3582 215.14 69.0233 214.614 68.7284 214.066 C 68.4335 213.517 68.1786 212.948 67.9665 212.363 C 67.7544 211.778 67.585 211.177 67.4602 210.568 C 67.3353 209.958 67.255 209.339 67.2201 208.718 C 67.1852 208.096 67.1957 207.472 67.2515 206.853 C 67.3073 206.233 67.4084 205.617 67.5537 205.012 C 67.6989 204.407 67.8884 203.812 68.1201 203.235 C 68.3518 202.657 68.6257 202.096 68.9389 201.559 C 69.2521 201.021 69.6045 200.506 69.9926 200.019 C 70.3806 199.533 70.8041 199.075 71.2588 198.65 C 71.7134 198.225 72.199 197.833 72.7106 197.478 C 73.2222 197.124 73.7596 196.807 74.3172 196.531 C 74.8749 196.254 75.4527 196.019 76.0446 195.826" fill="none" stroke="#4ade80" stroke-width="2" stroke-linecap="round" stroke-linejoin="round" fill-opacity="0.942857" stroke-opacity="0.942857" />
  <ellipse cx="112" cy="208" rx="12.8" ry="12.8" fill="none" stroke="#2d4a2d" stroke-width="0.3" fill-opacity="0.2" stroke-opacity="0.2" />
  <path d="M 114.848 220.479 C 114.242 220.618 113.625 220.712 113.004 220.761 C 112.384 220.809 111.76 220.813 111.139 220.771 C 110.518 220.729 109.9 220.642 109.292 220.51 C 108.684 220.379 108.085 220.202 107.502 219.984 C 106.92 219.765 106.353 219.504 105.808 219.203 C 105.264 218.902 104.741 218.561 104.246 218.184 C 103.751 217.807 103.283 217.394 102.848 216.949 C 102.413 216.504 102.01 216.027 101.645 215.524 C 101.279 215.02 100.95 214.49 100.661 213.939 C 100.372 213.387 100.124 212.815 99.9183 212.228 C 99.7127 211.64 99.5501 211.038 99.4321 210.427 C 99.3142 209.816 99.2408 209.196 99.2129 208.574 C 99.185 207.953 99.2025 207.329 99.2652 206.71 C 99.3279 206.09 99.4359 205.476 99.588 204.872 C 99.74 204.269 99.9362 203.677 100.174 203.102 C 100.412 202.527 100.693 201.969 101.012 201.435 C 101.331 200.901 101.689 200.39 102.083 199.908 C 102.476 199.425 102.905 198.972 103.364 198.552 C 103.824 198.132 104.314 197.746 104.829 197.397 C 105.345 197.049 105.886 196.738 106.446 196.468 C 107.007 196.198 107.587 195.969 108.181 195.783 C 108.775 195.597 109.383 195.455 109.998 195.358 C 110.612 195.26 111.234 195.208 111.856 195.201 C 112.479 195.194 113.101 195.232 113.718 195.316" fill="none" stroke="#4ade80" stroke-width="2" stroke-linecap="round" stroke-linejoin="round" fill-opacity="0.942857" stroke-opacity="0.942857" />
  <ellipse cx="144" cy="208" rx="12.8" ry="12.8" fill="none" stroke="#2d4a2d" stroke-width="0.3" fill-opacity="0.2" stroke-opacity="0.2" />
  <path d="M 141.152 220.479 C 140.545 220.341 139.948 220.158 139.368 219.933 C 138.788 219.707 138.224 219.44 137.683 219.133 C 137.142 218.826 136.623 218.479 136.132 218.096 C 135.641 217.714 135.178 217.295 134.748 216.846 C 134.318 216.396 133.921 215.915 133.561 215.407 C 133.201 214.899 132.878 214.366 132.595 213.811 C 132.313 213.257 132.071 212.681 131.872 212.092 C 131.673 211.502 131.517 210.898 131.406 210.286 C 131.295 209.673 131.228 209.053 131.207 208.431 C 131.186 207.809 131.211 207.185 131.28 206.567 C 131.35 205.948 131.465 205.335 131.624 204.733 C 131.783 204.132 131.985 203.542 132.23 202.969 C 132.475 202.397 132.761 201.843 133.086 201.312 C 133.411 200.781 133.775 200.275 134.174 199.797 C 134.573 199.319 135.007 198.87 135.471 198.456 C 135.935 198.041 136.429 197.66 136.949 197.317 C 137.468 196.975 138.012 196.67 138.576 196.406 C 139.14 196.142 139.723 195.92 140.319 195.741 C 140.915 195.562 141.524 195.426 142.14 195.336 C 142.755 195.245 143.378 195.2 144 195.2 C 144.622 195.2 145.245 195.245 145.86 195.336 C 146.476 195.426 147.085 195.562 147.681 195.741 C 148.277 195.92 148.86 196.142 149.424 196.406 C 149.988 196.67 150.532 196.975 151.051 197.317" fill="none" stroke="#4ade80" stroke-width="2" stroke-linecap="round" stroke-linejoin="round" fill-opacity="0.942857" stroke-opacity="0.942857" />
  <ellipse cx="176" cy="208" rx="12.8" ry="12.8" fill="none" stroke="#2d4a2d" stroke-width="0.3" fill-opacity="0.2" stroke-opacity="0.2" />
  <path d="M 168.019 218.007 C 167.533 217.619 167.075 217.196 166.65 216.741 C 166.225 216.287 165.833 215.801 165.478 215.289 C 165.124 214.778 164.807 214.24 164.531 213.683 C 164.254 213.125 164.019 212.547 163.826 211.955 C 163.634 211.364 163.485 210.758 163.381 210.144 C 163.277 209.531 163.217 208.909 163.203 208.287 C 163.189 207.665 163.221 207.042 163.297 206.424 C 163.374 205.807 163.496 205.195 163.661 204.595 C 163.827 203.995 164.036 203.407 164.287 202.838 C 164.538 202.268 164.831 201.717 165.162 201.19 C 165.493 200.663 165.863 200.16 166.267 199.687 C 166.671 199.214 167.11 198.77 167.578 198.361 C 168.047 197.951 168.546 197.576 169.069 197.239 C 169.592 196.902 170.14 196.603 170.706 196.346 C 171.273 196.089 171.858 195.873 172.457 195.7 C 173.055 195.528 173.665 195.399 174.282 195.316 C 174.899 195.232 175.521 195.194 176.144 195.201 C 176.766 195.208 177.388 195.26 178.002 195.358 C 178.617 195.455 179.225 195.597 179.819 195.783 C 180.413 195.969 180.993 196.198 181.554 196.468 C 182.114 196.738 182.655 197.049 183.171 197.397 C 183.686 197.746 184.176 198.132 184.636 198.552 C 185.095 198.972 185.524 199.425 185.917 199.908 C 186.311 200.39 186.669 200.901 186.988 201.435" fill="none" stroke="#4ade80" stroke-width="2" stroke-linecap="round" stroke-linejoin="round" fill-opacity="0.942857" stroke-opacity="0.942857" />
  <ellipse cx="208" cy="208" rx="12.8" ry="12.8" fill="none" stroke="#2d4a2d" stroke-width="0.3" fill-opacity="0.2" stroke-opacity="0.2" />
  <path d="M 196.468 213.554 C 196.198 212.993 195.969 212.413 195.783 211.819 C 195.597 211.225 195.455 210.617 195.358 210.002 C 195.26 209.388 195.208 208.766 195.201 208.144 C 195.194 207.521 195.232 206.899 195.316 206.282 C 195.399 205.665 195.528 205.055 195.7 204.457 C 195.873 203.858 196.089 203.273 196.346 202.706 C 196.603 202.14 196.902 201.592 197.239 201.069 C 197.576 200.546 197.951 200.047 198.361 199.578 C 198.77 199.11 199.214 198.671 199.687 198.267 C 200.16 197.863 200.663 197.493 201.19 197.162 C 201.717 196.831 202.268 196.538 202.838 196.287 C 203.407 196.036 203.995 195.827 204.595 195.661 C 205.195 195.496 205.807 195.374 206.424 195.297 C 207.042 195.221 207.665 195.189 208.287 195.203 C 208.909 195.217 209.531 195.277 210.144 195.381 C 210.758 195.485 211.364 195.634 211.955 195.826 C 212.547 196.019 213.125 196.254 213.683 196.531 C 214.24 196.807 214.778 197.124 215.289 197.478 C 215.801 197.833 216.287 198.225 216.741 198.65 C 217.196 199.075 217.619 199.533 218.007 200.019 C 218.395 200.506 218.748 201.021 219.061 201.559 C 219.374 202.096 219.648 202.657 219.88 203.235 C 220.112 203.812 220.301 204.407 220.446 205.012 C 220.592 205.617 220.693 206.233 220.748 206.853" fill="none" stroke="#4ade80" stroke-width="2" stroke-linecap="round" stroke-linejoin="round" fill-opacity="0.942857" stroke-opacity="0.942857" />
  <ellipse cx="240" cy="208" rx="12.8" ry="12.8" fill="none" stroke="#2d4a2d" stroke-width="0.3" fill-opacity="0.2" stroke-opacity="0.2" />
  <path d="M 227.2 208 C 227.2 207.441 227.237 206.883 227.31 206.329 C 227.382 205.776 227.492 205.227 227.636 204.687 C 227.781 204.148 227.961 203.618 228.174 203.102 C 228.388 202.586 228.636 202.084 228.915 201.6 C 229.194 201.116 229.505 200.651 229.845 200.208 C 230.185 199.765 230.554 199.344 230.949 198.949 C 231.344 198.554 231.765 198.185 232.208 197.845 C 232.651 197.505 233.116 197.194 233.6 196.915 C 234.084 196.636 234.586 196.388 235.102 196.174 C 235.618 195.961 236.148 195.781 236.687 195.636 C 237.227 195.492 237.776 195.382 238.329 195.31 C 238.883 195.237 239.441 195.2 240 195.2 C 240.559 195.2 241.117 195.237 241.671 195.31 C 242.224 195.382 242.773 195.492 243.313 195.636 C 243.852 195.781 244.382 195.961 244.898 196.174 C 245.414 196.388 245.916 196.636 246.4 196.915 C 246.884 197.194 247.349 197.505 247.792 197.845 C 248.235 198.185 248.656 198.554 249.051 198.949 C 249.446 199.344 249.815 199.765 250.155 200.208 C 250.495 200.651 250.806 201.116 251.085 201.6 C 251.364 202.084 251.612 202.586 251.826 203.102 C 252.039 203.618 252.219 204.148 252.364 204.687 C 252.508 205.227 252.618 205.776 252.69 206.329 C 252.763 206.883 252.8 207.441 252.8 208" fill="none" stroke="#4ade80" stroke-width="2" stroke-linecap="round" stroke-linejoin="round" fill-opacity="0.942857" stroke-opacity="0.942857" />
  <ellipse cx="16" cy="240" rx="12.8" ry="12.8" fill="none" stroke="#2d4a2d" stroke-width="0.3" fill-opacity="0.2" stroke-opacity="0.2" />
  <path d="M 28.8 240 C 28.8 240.67 28.7473 241.34 28.6424 242.002 C 28.5376 242.664 28.3806 243.318 28.1735 243.955 C 27.9664 244.593 27.7092 245.214 27.4049 245.811 C 27.1006 246.408 26.7494 246.981 26.3554 247.524 C 25.9615 248.066 25.5249 248.577 25.051 249.051 C 24.5771 249.525 24.0659 249.961 23.5237 250.355 C 22.9814 250.749 22.4082 251.101 21.8111 251.405 C 21.2139 251.709 20.5928 251.966 19.9554 252.174 C 19.318 252.381 18.6643 252.538 18.0024 252.642 C 17.3404 252.747 16.6702 252.8 16 252.8 C 15.3298 252.8 14.6596 252.747 13.9976 252.642 C 13.3357 252.538 12.682 252.381 12.0446 252.174 C 11.4072 251.966 10.7861 251.709 10.1889 251.405 C 9.59176 251.101 9.01856 250.749 8.47635 250.355 C 7.93414 249.961 7.42294 249.525 6.94903 249.051 C 6.47513 248.577 6.03852 248.066 5.64458 247.524 C 5.25065 246.981 4.89938 246.408 4.59512 245.811 C 4.29085 245.214 4.03358 244.593 3.82648 243.955 C 3.61937 243.318 3.46243 242.664 3.35759 242.002 C 3.25275 241.34 3.2 240.67 3.2 240 C 3.2 239.33 3.25275 238.66 3.35759 237.998 C 3.46243 237.336 3.61937 236.682 3.82648 236.045 C 4.03358 235.407 4.29085 234.786 4.59512 234.189 C 4.89938 233.592 5.25065 233.019 5.64458 232.476" fill="none" stroke="#4ade80" stroke-width="2" stroke-linecap="round" stroke-linejoin="round" />
  <ellipse cx="48" cy="240" rx="12.8" ry="12.8" fill="none" stroke="#2d4a2d" stroke-width="0.3" fill-opacity="0.2" stroke-opacity="0.2" />
  <path d="M 59.5324 245.554 C 59.2416 246.158 58.9033 246.738 58.5216 247.289 C 58.14 247.84 57.7149 248.361 57.2518 248.846 C 56.7886 249.33 56.2873 249.778 55.7541 250.184 C 55.2209 250.59 54.6557 250.954 54.0655 251.272 C 53.4753 251.589 52.8602 251.86 52.2276 252.082 C 51.595 252.303 50.945 252.475 50.2855 252.594 C 49.6261 252.714 48.9572 252.782 48.2872 252.797 C 47.6172 252.812 46.946 252.774 46.2818 252.684 C 45.6177 252.594 44.9606 252.452 44.3187 252.259 C 43.6768 252.066 43.0501 251.823 42.4463 251.532 C 41.8425 251.242 41.2615 250.903 40.7106 250.522 C 40.1597 250.14 39.6388 249.715 39.1544 249.252 C 38.67 248.789 38.222 248.287 37.816 247.754 C 37.41 247.221 37.046 246.656 36.7284 246.066 C 36.4108 245.475 36.1396 244.86 35.9183 244.228 C 35.6969 243.595 35.5254 242.945 35.4057 242.286 C 35.286 241.626 35.2183 240.957 35.2032 240.287 C 35.1882 239.617 35.2259 238.946 35.3158 238.282 C 35.4058 237.618 35.548 236.961 35.7408 236.319 C 35.9335 235.677 36.1768 235.05 36.4676 234.446 C 36.7584 233.842 37.0967 233.262 37.4784 232.711 C 37.86 232.16 38.2851 231.639 38.7482 231.154 C 39.2114 230.67 39.7127 230.222 40.2459 229.816 C 40.7791 229.41 41.3443 229.046 41.9345 228.728" fill="none" stroke="#4ade80" stroke-width="2" stroke-linecap="round" stroke-linejoin="round" />
  <ellipse cx="80" cy="240" rx="12.8" ry="12.8" fill="none" stroke="#2d4a2d" stroke-width="0.3" fill-opacity="0.2" stroke-opacity="0.2" />
  <path d="M 87.9807 250.007 C 87.4567 250.425 86.8998 250.802 86.3169 251.133 C 85.734 251.463 85.1251 251.748 84.4976 251.984 C 83.8701 252.219 83.2241 252.405 82.5675 252.54 C 81.911 252.674 81.2438 252.757 80.5743 252.787 C 79.9047 252.817 79.2328 252.795 78.5669 252.72 C 77.9009 252.644 77.2408 252.517 76.5947 252.339 C 75.9487 252.16 75.3167 251.931 74.7065 251.654 C 74.0962 251.377 73.5079 251.052 72.9485 250.683 C 72.3892 250.313 71.8589 249.9 71.3642 249.448 C 70.8695 248.996 70.4104 248.505 69.9926 247.981 C 69.5747 247.457 69.1981 246.9 68.8673 246.317 C 68.5366 245.734 68.2517 245.125 68.0162 244.498 C 67.7807 243.87 67.5946 243.224 67.4602 242.568 C 67.3257 241.911 67.243 241.244 67.2129 240.574 C 67.1828 239.905 67.2054 239.233 67.2805 238.567 C 67.3555 237.901 67.483 237.241 67.6613 236.595 C 67.8396 235.949 68.0687 235.317 68.3459 234.706 C 68.6231 234.096 68.9482 233.508 69.3175 232.949 C 69.6867 232.389 70.0999 231.859 70.5521 231.364 C 71.0042 230.87 71.4953 230.41 72.0193 229.993 C 72.5433 229.575 73.1002 229.198 73.6831 228.867 C 74.266 228.537 74.8749 228.252 75.5024 228.016 C 76.1299 227.781 76.7759 227.595 77.4325 227.46 C 78.089 227.326 78.7562 227.243 79.4257 227.213" fill="none" stroke="#4ade80" stroke-width="2" stroke-linecap="round" stroke-linejoin="round" />
  <ellipse cx="112" cy="240" rx="12.8" ry="12.8" fill="none" stroke="#2d4a2d" stroke-width="0.3" fill-opacity="0.2" stroke-opacity="0.2" />
  <path d="M 114.848 252.479 C 114.195 252.628 113.53 252.726 112.861 252.771 C 112.192 252.816 111.52 252.809 110.853 252.748 C 110.185 252.688 109.522 252.576 108.872 252.412 C 108.223 252.248 107.586 252.033 106.969 251.77 C 106.353 251.507 105.757 251.195 105.19 250.838 C 104.623 250.481 104.083 250.08 103.578 249.639 C 103.074 249.198 102.604 248.718 102.174 248.203 C 101.745 247.689 101.356 247.14 101.012 246.565 C 100.668 245.99 100.37 245.387 100.12 244.765 C 99.8706 244.143 99.6701 243.502 99.5209 242.848 C 99.3718 242.195 99.2741 241.53 99.229 240.861 C 99.1839 240.192 99.1915 239.52 99.2515 238.853 C 99.3116 238.185 99.4242 237.522 99.588 236.872 C 99.7517 236.223 99.9666 235.586 100.23 234.969 C 100.493 234.353 100.805 233.757 101.162 233.19 C 101.519 232.623 101.92 232.083 102.361 231.578 C 102.802 231.074 103.282 230.604 103.797 230.174 C 104.311 229.745 104.86 229.356 105.435 229.012 C 106.01 228.668 106.613 228.37 107.235 228.12 C 107.857 227.871 108.498 227.67 109.152 227.521 C 109.805 227.372 110.47 227.274 111.139 227.229 C 111.808 227.184 112.48 227.191 113.147 227.252 C 113.815 227.312 114.478 227.424 115.128 227.588 C 115.777 227.752 116.414 227.967 117.031 228.23" fill="none" stroke="#4ade80" stroke-width="2" stroke-linecap="round" stroke-linejoin="round" />
  <ellipse cx="144" cy="240" rx="12.8" ry="12.8" fill="none" stroke="#2d4a2d" stroke-width="0.3" fill-opacity="0.2" stroke-opacity="0.2" />
  <path d="M 141.152 252.479 C 140.498 252.33 139.857 252.129 139.235 251.88 C 138.613 251.63 138.01 251.332 137.435 250.988 C 136.86 250.644 136.311 250.255 135.797 249.826 C 135.282 249.396 134.802 248.926 134.361 248.422 C 133.92 247.917 133.519 247.377 133.162 246.81 C 132.805 246.243 132.493 245.647 132.23 245.031 C 131.967 244.414 131.752 243.777 131.588 243.128 C 131.424 242.478 131.312 241.815 131.252 241.147 C 131.191 240.48 131.184 239.808 131.229 239.139 C 131.274 238.47 131.372 237.805 131.521 237.152 C 131.67 236.498 131.871 235.857 132.12 235.235 C 132.37 234.613 132.668 234.01 133.012 233.435 C 133.356 232.86 133.745 232.311 134.174 231.797 C 134.604 231.282 135.074 230.802 135.578 230.361 C 136.083 229.92 136.623 229.519 137.19 229.162 C 137.757 228.805 138.353 228.493 138.969 228.23 C 139.586 227.967 140.223 227.752 140.872 227.588 C 141.522 227.424 142.185 227.312 142.853 227.252 C 143.52 227.191 144.192 227.184 144.861 227.229 C 145.53 227.274 146.195 227.372 146.848 227.521 C 147.502 227.67 148.143 227.871 148.765 228.12 C 149.387 228.37 149.99 228.668 150.565 229.012 C 151.14 229.356 151.689 229.745 152.203 230.174 C 152.718 230.604 153.198 231.074 153.639 231.578" fill="none" stroke="#4ade80" stroke-width="2" stroke-linecap="round" stroke-linejoin="round" />
  <ellipse cx="176" cy="240" rx="12.8" ry="12.8" fill="none" stroke="#2d4a2d" stroke-width="0.3" fill-opacity="0.2" stroke-opacity="0.2" />
  <path d="M 168.019 250.007 C 167.495 249.59 167.004 249.13 166.552 248.636 C 166.1 248.141 165.687 247.611 165.317 247.051 C 164.948 246.492 164.623 245.904 164.346 245.294 C 164.069 244.683 163.84 244.051 163.661 243.405 C 163.483 242.759 163.356 242.099 163.28 241.433 C 163.205 240.767 163.183 240.095 163.213 239.426 C 163.243 238.756 163.326 238.089 163.46 237.432 C 163.595 236.776 163.781 236.13 164.016 235.502 C 164.252 234.875 164.537 234.266 164.867 233.683 C 165.198 233.1 165.575 232.543 165.993 232.019 C 166.41 231.495 166.87 231.004 167.364 230.552 C 167.859 230.1 168.389 229.687 168.949 229.317 C 169.508 228.948 170.096 228.623 170.706 228.346 C 171.317 228.069 171.949 227.84 172.595 227.661 C 173.241 227.483 173.901 227.356 174.567 227.28 C 175.233 227.205 175.905 227.183 176.574 227.213 C 177.244 227.243 177.911 227.326 178.568 227.46 C 179.224 227.595 179.87 227.781 180.498 228.016 C 181.125 228.252 181.734 228.537 182.317 228.867 C 182.9 229.198 183.457 229.575 183.981 229.993 C 184.505 230.41 184.996 230.87 185.448 231.364 C 185.9 231.859 186.313 232.389 186.683 232.949 C 187.052 233.508 187.377 234.096 187.654 234.706 C 187.931 235.317 188.16 235.949 188.339 236.595" fill="none" stroke="#4ade80" stroke-width="2" stroke-linecap="round" stroke-linejoin="round" />
  <ellipse cx="208" cy="240" rx="12.8" ry="12.8" fill="none" stroke="#2d4a2d" stroke-width="0.3" fill-opacity="0.2" stroke-opacity="0.2" />
  <path d="M 196.468 245.554 C 196.191 244.979 195.957 244.383 195.769 243.773 C 195.581 243.163 195.438 242.539 195.343 241.908 C 195.248 241.277 195.2 240.638 195.2 240 C 195.2 239.362 195.248 238.723 195.343 238.092 C 195.438 237.461 195.581 236.837 195.769 236.227 C 195.957 235.617 196.191 235.021 196.468 234.446 C 196.745 233.871 197.065 233.317 197.424 232.79 C 197.784 232.262 198.183 231.762 198.617 231.294 C 199.051 230.826 199.52 230.391 200.019 229.993 C 200.518 229.595 201.047 229.234 201.6 228.915 C 202.153 228.596 202.729 228.318 203.324 228.085 C 203.918 227.852 204.529 227.663 205.152 227.521 C 205.774 227.379 206.407 227.283 207.043 227.236 C 207.68 227.188 208.32 227.188 208.957 227.236 C 209.593 227.283 210.226 227.379 210.848 227.521 C 211.471 227.663 212.082 227.852 212.676 228.085 C 213.271 228.318 213.847 228.596 214.4 228.915 C 214.953 229.234 215.482 229.595 215.981 229.993 C 216.48 230.391 216.949 230.826 217.383 231.294 C 217.817 231.762 218.216 232.262 218.576 232.79 C 218.935 233.317 219.255 233.871 219.532 234.446 C 219.809 235.021 220.043 235.617 220.231 236.227 C 220.419 236.837 220.562 237.461 220.657 238.092 C 220.752 238.723 220.8 239.362 220.8 240" fill="none" stroke="#4ade80" stroke-width="2" stroke-linecap="round" stroke-linejoin="round" />
  <ellipse cx="240" cy="240" rx="12.8" ry="12.8" fill="none" stroke="#2d4a2d" stroke-width="0.3" fill-opacity="0.2" stroke-opacity="0.2" />
  <path d="M 227.2 240 C 227.2 239.441 227.237 238.883 227.31 238.329 C 227.382 237.776 227.492 237.227 227.636 236.687 C 227.781 236.148 227.961 235.618 228.174 235.102 C 228.388 234.586 228.636 234.084 228.915 233.6 C 229.194 233.116 229.505 232.651 229.845 232.208 C 230.185 231.765 230.554 231.344 230.949 230.949 C 231.344 230.554 231.765 230.185 232.208 229.845 C 232.651 229.505 233.116 229.194 233.6 228.915 C 234.084 228.636 234.586 228.388 235.102 228.174 C 235.618 227.961 236.148 227.781 236.687 227.636 C 237.227 227.492 237.776 227.382 238.329 227.31 C 238.883 227.237 239.441 227.2 240 227.2 C 240.559 227.2 241.117 227.237 241.671 227.31 C 242.224 227.382 242.773 227.492 243.313 227.636 C 243.852 227.781 244.382 227.961 244.898 228.174 C 245.414 228.388 245.916 228.636 246.4 228.915 C 246.884 229.194 247.349 229.505 247.792 229.845 C 248.235 230.185 248.656 230.554 249.051 230.949 C 249.446 231.344 249.815 231.765 250.155 232.208 C 250.495 232.651 250.806 233.116 251.085 233.6 C 251.364 234.084 251.612 234.586 251.826 235.102 C 252.039 235.618 252.219 236.148 252.364 236.687 C 252.508 237.227 252.618 237.776 252.69 238.329 C 252.763 238.883 252.8 239.441 252.8 240" fill="none" stroke="#4ade80" stroke-width="2" stroke-linecap="round" stroke-linejoin="round" />
</svg>