<?xml version="1.0" encoding="UTF-8"?>
<svg xmlns="http://www.w3.org/2000/svg" width="280" height="280" viewBox="0 0 280 280">
  <rect width="100%" height="100%" fill="#1a1a2e" />
  <path d="M 28.0 224.0 Q 190.4 207.2 252.0 56.0" fill="none" stroke="#666688" stroke-width="1.5" stroke-linecap="round" opacity="0.4" />
  <polygon points="27.135647130881754,215.64458893185696 35.668174678632674,227.42915399158116 21.196178190485572,228.9262570765619" fill="#ff6b6b" fill-opacity="0.6" stroke-opacity="0.6" />
  <polygon points="57.83627656452957,211.05680047318594 67.42521781480494,221.99902171472408 53.154505620665525,224.83217781208998" fill="#ff6b6b" fill-opacity="0.64" stroke-opacity="0.64" />
  <polygon points="86.46212227097445,203.8740904721476 97.11504450572374,213.78344200796388 83.20683322330184,218.05446751988873" fill="#ff6b6b" fill-opacity="0.6799999999999999" stroke-opacity="0.6799999999999999" />
  <polygon points="113.03543423865236,194.11335765021528 124.71189503508353,202.79323456578308 111.3566707262641,208.56540778400165" fill="#ff6b6b" fill-opacity="0.72" stroke-opacity="0.72" />
  <polygon points="137.58855661658177,181.783375733451 150.19199905871974,189.05202337986472 137.5954443246985,196.33260088668433" fill="#ff6b6b" fill-opacity="0.76" stroke-opacity="0.76" />
  <polygon points="160.16,166.88 173.53969071343144,172.59523196492643 161.90030928656856,181.3247680350736" fill="#ff6b6b" fill-opacity="0.8" stroke-opacity="0.8" />
  <polygon points="180.78724485147004,149.38435955728477 194.75257244030135,153.46475479998216 184.23618270822857,163.51888564273307" fill="#ff6b6b" fill-opacity="0.84" stroke-opacity="0.84" />
  <polygon points="199.498901757384,129.26575701116656 213.84292366928761,131.700718076734 204.56217457332838,142.90552491209945" fill="#ff6b6b" fill-opacity="0.8799999999999999" stroke-opacity="0.8799999999999999" />
  <polygon points="216.30973261738882,106.48838271233676 230.83437551656863,107.33381079993856 222.83989186604265,119.48980648772465" fill="#ff6b6b" fill-opacity="0.92" stroke-opacity="0.92" />
  <polygon points="231.22037101619023,81.01872963444043 245.75562912582004,80.38133518322408 239.03999985798973,93.28793518233546" fill="#ff6b6b" fill-opacity="0.96" stroke-opacity="0.96" />
  <polygon points="244.22082417793578,52.830706146566435 258.63427690016346,50.84768304430345 253.14489892190076,64.32161080913009" fill="#ff6b6b" />
</svg>