<?xml version="1.0" encoding="UTF-8"?>
<svg xmlns="http://www.w3.org/2000/svg" width="400" height="400" viewBox="0 0 400 400">
  <rect width="100%" height="100%" fill="#0a0a1a" />
  <path d="M 350 200 C 350 204.909 349.457 209.817 348.376 214.703 C 347.296 219.588 345.678 224.449 343.541 229.264 C 341.404 234.078 338.747 238.845 335.598 243.543 C 332.45 248.24 328.811 252.867 324.72 257.403 C 320.63 261.938 316.087 266.38 311.143 270.71 C 306.198 275.039 300.851 279.254 295.159 283.336 C 289.467 287.417 283.431 291.364 277.115 295.159 C 270.8 298.953 264.205 302.595 257.403 306.066 C 250.6 309.537 243.589 312.837 236.447 315.952 C 229.305 319.066 222.03 321.993 214.703 324.72 C 207.375 327.448 199.994 329.974 192.64 332.288 C 185.286 334.602 177.958 336.703 170.736 338.582 C 163.515 340.46 156.399 342.116 149.467 343.541 C 142.534 344.966 135.784 346.16 129.29 347.118 C 122.797 348.075 116.559 348.797 110.645 349.278 C 104.731 349.759 99.1405 350 93.934 350 C 88.7275 350 83.9051 349.759 79.5189 349.278 C 75.1327 348.797 71.1828 348.075 67.7118 347.118 C 64.2409 346.16 61.2489 344.966 58.7684 343.541 C 56.2878 342.116 54.3187 340.46 52.8822 338.582 C 51.4457 336.703 50.542 334.602 50.1807 332.288 C 49.8194 329.974 50.0006 327.448 50.7223 324.72 C 51.444 321.993 52.7062 319.066 54.4953 315.952 C 56.2844 312.837 58.6003 309.537 61.4181 306.066 C 64.2358 302.595 67.5553 298.953 71.3407 295.159 C 75.1261 291.364 79.3773 287.417 84.0484 283.336 C 88.7195 279.254 93.8105 275.039 99.2662 270.71 C 104.722 266.38 110.542 261.938 116.664 257.403 C 122.787 252.867 129.211 248.24 135.867 243.543 C 142.523 238.845 149.411 234.078 156.457 229.264 C 163.503 224.449 170.707 219.588 177.99 214.703 C 185.274 209.817 192.637 204.909 200 200 C 207.363 195.091 214.726 190.183 222.01 185.297 C 229.293 180.412 236.497 175.551 243.543 170.736 C 250.589 165.922 257.477 161.155 264.133 156.457 C 270.789 151.76 277.213 147.133 283.336 142.597 C 289.458 138.062 295.278 133.62 300.734 129.29 C 306.19 124.961 311.28 120.746 315.952 116.664 C 320.623 112.583 324.874 108.636 328.659 104.841 C 332.445 101.047 335.764 97.405 338.582 93.934 C 341.4 90.463 343.716 87.1625 345.505 84.0484 C 347.294 80.9344 348.556 78.0067 349.278 75.2796 C 349.999 72.5524 350.181 70.0258 349.819 67.7118 C 349.458 65.3978 348.554 63.2966 347.118 61.4181 C 345.681 59.5396 343.712 57.8839 341.232 56.4589 C 338.751 55.034 335.759 53.8399 332.288 52.8822 C 328.817 51.9246 324.867 51.2034 320.481 50.7223 C 316.095 50.2412 311.273 50 306.066 50 C 300.86 50 295.269 50.2412 289.355 50.7223 C 283.441 51.2034 277.203 51.9246 270.71 52.8822 C 264.216 53.8399 257.466 55.034 250.533 56.4589 C 243.601 57.8839 236.485 59.5396 229.264 61.4181 C 222.042 63.2966 214.714 65.3978 207.36 67.7118 C 200.006 70.0258 192.625 72.5524 185.297 75.2796 C 177.97 78.0067 170.695 80.9344 163.553 84.0484 C 156.411 87.1625 149.4 90.463 142.597 93.934 C 135.795 97.405 129.2 101.047 122.885 104.841 C 116.569 108.636 110.533 112.583 104.841 116.664 C 99.1492 120.746 93.8021 124.961 88.8573 129.29 C 83.9126 133.62 79.3703 138.062 75.2796 142.597 C 71.1888 147.133 67.5497 151.76 64.4016 156.457 C 61.2535 161.155 58.5963 165.922 56.4589 170.736 C 54.3216 175.551 52.7039 180.412 51.6235 185.297 C 50.5431 190.183 50 195.091 50 200 C 50 204.909 50.5431 209.817 51.6235 214.703 C 52.7039 219.588 54.3216 224.449 56.4589 229.264 C 58.5963 234.078 61.2535 238.845 64.4016 243.543 C 67.5497 248.24 71.1888 252.867 75.2796 257.403 C 79.3703 261.938 83.9126 266.38 88.8573 270.71 C 93.8021 275.039 99.1492 279.254 104.841 283.336 C 110.533 287.417 116.569 291.364 122.885 295.159 C 129.2 298.953 135.795 302.595 142.597 306.066 C 149.4 309.537 156.411 312.837 163.553 315.952 C 170.695 319.066 177.97 321.993 185.297 324.72 C 192.625 327.448 200.006 329.974 207.36 332.288 C 214.714 334.602 222.042 336.703 229.264 338.582 C 236.485 340.46 243.601 342.116 250.533 343.541 C 257.466 344.966 264.216 346.16 270.71 347.118 C 277.203 348.075 283.441 348.797 289.355 349.278 C 295.269 349.759 300.86 350 306.066 350 C 311.273 350 316.095 349.759 320.481 349.278 C 324.867 348.797 328.817 348.075 332.288 347.118 C 335.759 346.16 338.751 344.966 341.232 343.541 C 343.712 342.116 345.681 340.46 347.118 338.582 C 348.554 336.703 349.458 334.602 349.819 332.288 C 350.181 329.974 349.999 327.448 349.278 324.72 C 348.556 321.993 347.294 319.066 345.505 315.952 C 343.716 312.837 341.4 309.537 338.582 306.066 C 335.764 302.595 332.445 298.953 328.659 295.159 C 324.874 291.364 320.623 287.417 315.952 283.336 C 311.28 279.254 306.19 275.039 300.734 270.71 C 295.278 266.38 289.458 261.938 283.336 257.403 C 277.213 252.867 270.789 248.24 264.133 243.543 C 257.477 238.845 250.589 234.078 243.543 229.264 C 236.497 224.449 229.293 219.588 222.01 214.703 C 214.726 209.817 207.363 204.909 200 200 C 192.637 195.091 185.274 190.183 177.99 185.297 C 170.707 180.412 163.503 175.551 156.457 170.736 C 149.411 165.922 142.523 161.155 135.867 156.457 C 129.211 151.76 122.787 147.133 116.664 142.597 C 110.542 138.062 104.722 133.62 99.2662 129.29 C 93.8105 124.961 88.7195 120.746 84.0484 116.664 C 79.3773 112.583 75.1261 108.636 71.3407 104.841 C 67.5553 101.047 64.2358 97.405 61.4181 93.934 C 58.6003 90.463 56.2844 87.1625 54.4953 84.0484 C 52.7062 80.9344 51.444 78.0067 50.7223 75.2796 C 50.0006 72.5524 49.8194 70.0258 50.1807 67.7118 C 50.542 65.3978 51.4457 63.2966 52.8822 61.4181 C 54.3187 59.5396 56.2878 57.8839 58.7684 56.4589 C 61.2489 55.034 64.2409 53.8399 67.7118 52.8822 C 71.1828 51.9246 75.1327 51.2034 79.5189 50.7223 C 83.9051 50.2412 88.7275 50 93.934 50 C 99.1405 50 104.731 50.2412 110.645 50.7223 C 116.559 51.2034 122.797 51.9246 129.29 52.8822 C 135.784 53.8399 142.534 55.034 149.467 56.4589 C 156.399 57.8839 163.515 59.5396 170.736 61.4181 C 177.958 63.2966 185.286 65.3978 192.64 67.7118 C 199.994 70.0258 207.375 72.5524 214.703 75.2796 C 222.03 78.0067 229.305 80.9344 236.447 84.0484 C 243.589 87.1625 250.6 90.463 257.403 93.934 C 264.205 97.405 270.8 101.047 277.115 104.841 C 283.431 108.636 289.467 112.583 295.159 116.664 C 300.851 120.746 306.198 124.961 311.143 129.29 C 316.087 133.62 320.63 138.062 324.72 142.597 C 328.811 147.133 332.45 151.76 335.598 156.457 C 338.747 161.155 341.404 165.922 343.541 170.736 C 345.678 175.551 347.296 180.412 348.376 185.297 C 349.457 190.183 350 195.091 350 200 Z" fill="#4a90d9" stroke="#6ab0ff" stroke-width="1.2" stroke-linecap="round" stroke-linejoin="round" fill-opacity="0.25" stroke-opacity="0.7" />
  <path d="M 312.583 200 C 317.901 208.508 322.083 217.017 325.003 225.362 C 327.923 233.707 329.582 241.888 329.93 249.749 C 330.278 257.61 329.315 265.15 327.07 272.224 C 324.825 279.299 321.297 285.907 316.593 291.924 C 311.889 297.94 306.009 303.364 299.129 308.091 C 292.248 312.818 284.367 316.848 275.722 320.104 C 267.077 323.36 257.668 325.842 247.777 327.502 C 237.886 329.162 227.513 330 216.968 330 C 206.424 330 195.709 329.162 185.143 327.502 C 174.577 325.842 164.161 323.36 154.207 320.104 C 144.254 316.848 134.762 312.818 126.017 308.091 C 117.272 303.364 109.273 297.94 102.261 291.924 C 95.2483 285.907 89.2224 279.299 84.3629 272.224 C 79.5035 265.15 75.8111 257.61 73.396 249.749 C 70.9809 241.888 69.8434 233.707 70.0174 225.362 C 70.1914 217.017 71.6769 208.508 74.4296 200 C 77.1823 191.492 81.2019 182.983 86.3683 174.638 C 91.5346 166.293 97.8473 158.112 105.118 150.251 C 112.388 142.39 120.615 134.85 129.554 127.776 C 138.493 120.701 148.142 114.093 158.213 108.076 C 168.284 102.06 178.776 96.636 189.376 91.909 C 199.976 87.1819 210.683 83.1517 221.176 79.8957 C 231.67 76.6396 241.949 74.1578 251.707 72.4979 C 261.465 70.838 270.701 70 279.139 70 C 287.577 70 295.216 70.838 301.827 72.4979 C 308.439 74.1578 314.023 76.6396 318.412 79.8957 C 322.802 83.1517 325.996 87.1819 327.9 91.909 C 329.804 96.636 330.417 102.06 329.722 108.076 C 329.026 114.093 327.022 120.701 323.768 127.776 C 320.515 134.85 316.013 142.39 310.396 150.251 C 304.78 158.112 298.05 166.293 290.408 174.638 C 282.765 182.983 274.211 191.492 265 200 C 255.789 208.508 245.923 217.017 235.697 225.362 C 225.47 233.707 214.883 241.888 204.253 249.749 C 193.624 257.61 182.951 265.15 172.555 272.224 C 162.16 279.299 152.041 285.907 142.502 291.924 C 132.964 297.94 124.006 303.364 115.896 308.091 C 107.786 312.818 100.525 316.848 94.3299 320.104 C 88.1349 323.36 83.0065 325.842 79.0978 327.502 C 75.189 329.162 72.5004 330 71.1122 330 C 69.7239 330 69.739 329.022 70.8518 327.502 C 72.0673 325.842 74.5858 323.36 78.3322 320.104 C 82.0786 316.848 87.0524 312.818 93.1051 308.091 C 99.1579 303.364 106.289 297.94 114.285 291.924 C 122.281 285.907 131.142 279.299 140.602 272.224 C 150.063 265.15 160.122 257.61 170.48 249.749 C 180.838 241.888 191.493 233.707 202.127 225.362 C 212.761 217.017 223.373 208.508 233.646 200 C 243.92 191.492 253.853 182.983 263.149 174.638 C 272.446 166.293 281.104 158.112 288.867 150.251 C 296.63 142.39 303.495 134.85 309.258 127.776 C 315.022 120.701 319.682 114.093 323.101 108.076 C 326.52 102.06 328.696 96.636 329.565 91.909 C 330.434 87.1819 329.996 83.1517 328.264 79.8957 C 326.531 76.6396 323.505 74.1578 319.274 72.4979 C 315.044 70.838 309.61 70 303.136 70 C 296.661 70 289.147 70.838 280.816 72.4979 C 272.485 74.1578 263.339 76.6396 253.652 79.8957 C 243.964 83.1517 233.736 87.1819 223.272 91.909 C 212.808 96.636 202.11 102.06 191.498 108.076 C 180.885 114.093 170.358 120.701 160.233 127.776 C 150.107 134.85 140.383 142.39 131.351 150.251 C 122.319 158.112 113.981 166.293 106.584 174.638 C 99.1879 182.983 92.7345 191.492 87.4167 200 C 82.0989 208.508 77.9174 217.017 74.997 225.362 C 72.0766 233.707 70.4176 241.888 70.0696 249.749 C 69.7216 257.61 70.6846 265.15 72.9299 272.224 C 75.1752 279.299 78.7025 285.907 83.4065 291.924 C 88.1105 297.94 93.9907 303.364 100.871 308.091 C 107.752 312.818 115.633 316.848 124.278 320.104 C 132.923 323.36 142.332 325.842 152.223 327.502 C 162.114 329.162 172.487 330 183.032 330 C 193.576 330 204.291 329.162 214.857 327.502 C 225.423 325.842 235.839 323.36 245.793 320.104 C 255.746 316.848 265.238 312.818 273.983 308.091 C 282.728 303.364 290.727 297.94 297.739 291.924 C 304.752 285.907 310.778 279.299 315.637 272.224 C 320.497 265.15 324.189 257.61 326.604 249.749 C 329.019 241.888 330.157 233.707 329.983 225.362 C 329.809 217.017 328.323 208.508 325.57 200 C 322.818 191.492 318.798 182.983 313.632 174.638 C 308.465 166.293 302.153 158.112 294.882 150.251 C 287.612 142.39 279.385 134.85 270.446 127.776 C 261.507 120.701 251.858 114.093 241.787 108.076 C 231.716 102.06 221.224 96.636 210.624 91.909 C 200.024 87.1819 189.317 83.1517 178.824 79.8957 C 168.33 76.6396 158.051 74.1578 148.293 72.4979 C 138.535 70.838 129.299 70 120.861 70 C 112.423 70 104.784 70.838 98.1727 72.4979 C 91.561 74.1578 85.9771 76.6396 81.5877 79.8957 C 77.1983 83.1517 74.004 87.1819 72.1 91.909 C 70.1961 96.636 69.5827 102.06 70.2783 108.076 C 70.9739 114.093 72.9784 120.701 76.2319 127.776 C 79.4853 134.85 83.9874 142.39 89.6037 150.251 C 95.22 158.112 101.95 166.293 109.592 174.638 C 117.235 182.983 125.789 191.492 135 200 C 144.211 208.508 154.077 217.017 164.303 225.362 C 174.53 233.707 185.117 241.888 195.747 249.749 C 206.376 257.61 217.049 265.15 227.445 272.224 C 237.84 279.299 247.959 285.907 257.498 291.924 C 267.036 297.94 275.994 303.364 284.104 308.091 C 292.214 312.818 299.475 316.848 305.67 320.104 C 311.865 323.36 316.993 325.842 320.902 327.502 C 324.811 329.162 327.5 330 328.888 330 C 330.276 330 330.261 329.022 329.148 327.502 C 327.933 325.842 325.414 323.36 321.668 320.104 C 317.921 316.848 312.948 312.818 306.895 308.091 C 300.842 303.364 293.711 297.94 285.715 291.924 C 277.719 285.907 268.858 279.299 259.398 272.224 C 249.937 265.15 239.878 257.61 229.52 249.749 C 219.162 241.888 208.507 233.707 197.873 225.362 C 187.239 217.017 176.627 208.508 166.354 200 C 156.08 191.492 146.147 182.983 136.851 174.638 C 127.554 166.293 118.896 158.112 111.133 150.251 C 103.37 142.39 96.505 134.85 90.7417 127.776 C 84.9784 120.701 80.3178 114.093 76.8991 108.076 C 73.4804 102.06 71.304 96.636 70.4348 91.909 C 69.5657 87.1819 70.0039 83.1517 71.7364 79.8957 C 73.4689 76.6396 76.4954 74.1578 80.7257 72.4979 C 84.956 70.838 90.3895 70 96.8641 70 C 103.339 70 110.853 70.838 119.184 72.4979 C 127.515 74.1578 136.661 76.6396 146.348 79.8957 C 156.036 83.1517 166.264 87.1819 176.728 91.909 C 187.192 96.636 197.89 102.06 208.502 108.076 C 219.115 114.093 229.642 120.701 239.767 127.776 C 249.893 134.85 259.617 142.39 268.649 150.251 C 277.681 158.112 286.019 166.293 293.416 174.638 C 300.812 182.983 307.266 191.492 312.583 200 Z" fill="#d94a6b" stroke="#ff6a8b" stroke-width="1.2" stroke-linecap="round" stroke-linejoin="round" fill-opacity="0.2" stroke-opacity="0.7" />
  <path d="M 277.782 200 C 281.6 207.199 285.136 214.399 288.353 221.46 C 291.569 228.521 294.466 235.444 297.011 242.095 C 299.557 248.747 301.751 255.127 303.57 261.113 C 305.389 267.099 306.833 272.691 307.886 277.782 C 308.94 282.873 309.603 287.462 309.868 291.462 C 310.132 295.461 310 298.872 309.47 301.627 C 308.941 304.382 308.015 306.482 306.703 307.886 C 305.391 309.291 303.693 310 301.627 310 C 299.56 310 297.126 309.291 294.35 307.886 C 291.574 306.482 288.457 304.382 285.031 301.627 C 281.606 298.872 277.872 295.461 273.871 291.462 C 269.871 287.462 265.602 282.873 261.113 277.782 C 256.623 272.691 251.912 267.099 247.031 261.113 C 242.15 255.127 237.098 248.747 231.931 242.095 C 226.764 235.444 221.482 228.521 216.14 221.46 C 210.799 214.399 205.4 207.199 200 200 C 194.6 192.801 189.201 185.601 183.86 178.54 C 178.518 171.479 173.236 164.556 168.069 157.905 C 162.902 151.253 157.85 144.873 152.969 138.887 C 148.088 132.901 143.377 127.309 138.887 122.218 C 134.398 117.127 130.129 112.538 126.129 108.538 C 122.128 104.539 118.394 101.128 114.969 98.3733 C 111.543 95.6181 108.426 93.5182 105.65 92.1136 C 102.874 90.7091 100.44 90 98.3733 90 C 96.3069 90 94.6086 90.7091 93.2966 92.1136 C 91.9846 93.5182 91.0589 95.6181 90.5297 98.3733 C 90.0004 101.128 89.8676 104.539 90.1325 108.538 C 90.3974 112.538 91.0602 117.127 92.1136 122.218 C 93.167 127.309 94.6111 132.901 96.4302 138.887 C 98.2492 144.873 100.443 151.253 102.989 157.905 C 105.534 164.556 108.431 171.479 111.647 178.54 C 114.864 185.601 118.4 192.801 122.218 200 C 126.036 207.199 130.136 214.399 134.473 221.46 C 138.81 228.521 143.384 235.444 148.146 242.095 C 152.908 248.747 157.858 255.127 162.942 261.113 C 168.026 267.099 173.244 272.691 178.54 277.782 C 183.836 282.873 189.209 287.462 194.603 291.462 C 199.996 295.461 205.408 298.872 210.782 301.627 C 216.155 304.382 221.49 306.482 226.728 307.886 C 231.966 309.291 237.107 310 242.095 310 C 247.084 310 251.92 309.291 256.551 307.886 C 261.183 306.482 265.609 304.382 269.783 301.627 C 273.957 298.872 277.878 295.461 281.505 291.462 C 285.131 287.462 288.462 282.873 291.462 277.782 C 294.462 272.691 297.13 267.099 299.439 261.113 C 301.747 255.127 303.696 248.747 305.263 242.095 C 306.831 235.444 308.017 228.521 308.809 221.46 C 309.602 214.399 310 207.199 310 200 C 310 192.801 309.602 185.601 308.809 178.54 C 308.017 171.479 306.831 164.556 305.263 157.905 C 303.696 151.253 301.747 144.873 299.439 138.887 C 297.13 132.901 294.462 127.309 291.462 122.218 C 288.462 117.127 285.131 112.538 281.505 108.538 C 277.878 104.539 273.957 101.128 269.783 98.3733 C 265.609 95.6181 261.183 93.5182 256.551 92.1136 C 251.92 90.7091 247.084 90 242.095 90 C 237.107 90 231.966 90.7091 226.728 92.1136 C 221.49 93.5182 216.155 95.6181 210.782 98.3733 C 205.408 101.128 199.996 104.539 194.603 108.538 C 189.209 112.538 183.836 117.127 178.54 122.218 C 173.244 127.309 168.026 132.901 162.942 138.887 C 157.858 144.873 152.908 151.253 148.146 157.905 C 143.384 164.556 138.81 171.479 134.473 178.54 C 130.136 185.601 126.036 192.801 122.218 200 C 118.4 207.199 114.864 214.399 111.647 221.46 C 108.431 228.521 105.534 235.444 102.989 242.095 C 100.443 248.747 98.2492 255.127 96.4302 261.113 C 94.6111 267.099 93.167 272.691 92.1136 277.782 C 91.0602 282.873 90.3974 287.462 90.1325 291.462 C 89.8676 295.461 90.0004 298.872 90.5297 301.627 C 91.0589 304.382 91.9846 306.482 93.2966 307.886 C 94.6086 309.291 96.3069 310 98.3733 310 C 100.44 310 102.874 309.291 105.65 307.886 C 108.426 306.482 111.543 304.382 114.969 301.627 C 118.394 298.872 122.128 295.461 126.129 291.462 C 130.129 287.462 134.398 282.873 138.887 277.782 C 143.377 272.691 148.088 267.099 152.969 261.113 C 157.85 255.127 162.902 248.747 168.069 242.095 C 173.236 235.444 178.518 228.521 183.86 221.46 C 189.201 214.399 194.6 207.199 200 200 C 205.4 192.801 210.799 185.601 216.14 178.54 C 221.482 171.479 226.764 164.556 231.931 157.905 C 237.098 151.253 242.15 144.873 247.031 138.887 C 251.912 132.901 256.623 127.309 261.113 122.218 C 265.602 117.127 269.871 112.538 273.871 108.538 C 277.872 104.539 281.606 101.128 285.031 98.3733 C 288.457 95.6181 291.574 93.5182 294.35 92.1136 C 297.126 90.7091 299.56 90 301.627 90 C 303.693 90 305.391 90.7091 306.703 92.1136 C 308.015 93.5182 308.941 95.6181 309.47 98.3733 C 310 101.128 310.132 104.539 309.868 108.538 C 309.603 112.538 308.94 117.127 307.886 122.218 C 306.833 127.309 305.389 132.901 303.57 138.887 C 301.751 144.873 299.557 151.253 297.011 157.905 C 294.466 164.556 291.569 171.479 288.353 178.54 C 285.136 185.601 281.6 192.801 277.782 200 C 273.964 207.199 269.864 214.399 265.527 221.46 C 261.19 228.521 256.616 235.444 251.854 242.095 C 247.092 248.747 242.142 255.127 237.058 261.113 C 231.974 267.099 226.756 272.691 221.46 277.782 C 216.164 282.873 210.791 287.462 205.397 291.462 C 200.004 295.461 194.592 298.872 189.218 301.627 C 183.845 304.382 178.51 306.482 173.272 307.886 C 168.034 309.291 162.893 310 157.905 310 C 152.916 310 148.08 309.291 143.449 307.886 C 138.817 306.482 134.391 304.382 130.217 301.627 C 126.043 298.872 122.122 295.461 118.495 291.462 C 114.869 287.462 111.538 282.873 108.538 277.782 C 105.538 272.691 102.87 267.099 100.561 261.113 C 98.2525 255.127 96.304 248.747 94.7366 242.095 C 93.1691 235.444 91.9829 228.521 91.1906 221.46 C 90.3983 214.399 90 207.199 90 200 C 90 192.801 90.3983 185.601 91.1906 178.54 C 91.9829 171.479 93.1691 164.556 94.7366 157.905 C 96.304 151.253 98.2525 144.873 100.561 138.887 C 102.87 132.901 105.538 127.309 108.538 122.218 C 111.538 117.127 114.869 112.538 118.495 108.538 C 122.122 104.539 126.043 101.128 130.217 98.3733 C 134.391 95.6181 138.817 93.5182 143.449 92.1136 C 148.08 90.7091 152.916 90 157.905 90 C 162.893 90 168.034 90.7091 173.272 92.1136 C 178.51 93.5182 183.845 95.6181 189.218 98.3733 C 194.592 101.128 200.004 104.539 205.397 108.538 C 210.791 112.538 216.164 117.127 221.46 122.218 C 226.756 127.309 231.974 132.901 237.058 138.887 C 242.142 144.873 247.092 151.253 251.854 157.905 C 256.616 164.556 261.19 171.479 265.527 178.54 C 269.864 185.601 273.964 192.801 277.782 200 Z" fill="#4ad9a7" stroke="#6affcf" stroke-width="1.2" stroke-linecap="round" stroke-linejoin="round" fill-opacity="0.3" stroke-opacity="0.7" />
</svg>