<?xml version="1.0" encoding="UTF-8"?>
<svg xmlns="http://www.w3.org/2000/svg" width="280" height="280" viewBox="0 0 280 280">
  <rect width="100%" height="100%" fill="#0a1628" />
  <polygon points="14.0,4.200000000000001 23.8,14.0 14.0,23.8 4.200000000000001,14.0" fill="#00d9ff" fill-opacity="0.7" stroke-opacity="0.7" />
  <circle cx="42.0" cy="14.0" r="4.2" fill="#90e0ef" opacity="0.5" />
  <polygon points="70.0,4.200000000000001 79.8,14.0 70.0,23.8 60.2,14.0" fill="#00d9ff" fill-opacity="0.7" stroke-opacity="0.7" />
  <circle cx="98.0" cy="14.0" r="4.2" fill="#90e0ef" opacity="0.5" />
  <polygon points="126.0,4.200000000000001 135.8,14.0 126.0,23.8 116.2,14.0" fill="#00d9ff" fill-opacity="0.7" stroke-opacity="0.7" />
  <circle cx="154.0" cy="14.0" r="4.2" fill="#90e0ef" opacity="0.5" />
  <polygon points="182.0,4.200000000000001 191.8,14.0 182.0,23.8 172.2,14.0" fill="#00d9ff" fill-opacity="0.7" stroke-opacity="0.7" />
  <circle cx="210.0" cy="14.0" r="4.2" fill="#90e0ef" opacity="0.5" />
  <polygon points="238.0,4.200000000000001 247.8,14.0 238.0,23.8 228.2,14.0" fill="#00d9ff" fill-opacity="0.7" stroke-opacity="0.7" />
  <circle cx="266.0" cy="14.0" r="4.2" fill="#90e0ef" opacity="0.5" />
  <circle cx="14.0" cy="42.0" r="4.2" fill="#90e0ef" opacity="0.5" />
  <polygon points="42.0,32.2 51.8,42.0 42.0,51.8 32.2,42.0" fill="#00d9ff" fill-opacity="0.7" stroke-opacity="0.7" />
  <circle cx="70.0" cy="42.0" r="4.2" fill="#90e0ef" opacity="0.5" />
  <polygon points="98.0,32.2 107.8,42.0 98.0,51.8 88.2,42.0" fill="#00d9ff" fill-opacity="0.7" stroke-opacity="0.7" />
  <circle cx="126.0" cy="42.0" r="4.2" fill="#90e0ef" opacity="0.5" />
  <polygon points="154.0,32.2 163.8,42.0 154.0,51.8 144.2,42.0" fill="#00d9ff" fill-opacity="0.7" stroke-opacity="0.7" />
  <circle cx="182.0" cy="42.0" r="4.2" fill="#90e0ef" opacity="0.5" />
  <polygon points="210.0,32.2 219.8,42.0 210.0,51.8 200.2,42.0" fill="#00d9ff" fill-opacity="0.7" stroke-opacity="0.7" />
  <circle cx="238.0" cy="42.0" r="4.2" fill="#90e0ef" opacity="0.5" />
  <polygon points="266.0,32.2 275.8,42.0 266.0,51.8 256.2,42.0" fill="#00d9ff" fill-opacity="0.7" stroke-opacity="0.7" />
  <polygon points="14.0,60.2 23.8,70.0 14.0,79.8 4.200000000000001,70.0" fill="#00d9ff" fill-opacity="0.7" stroke-opacity="0.7" />
  <circle cx="42.0" cy="70.0" r="4.2" fill="#90e0ef" opacity="0.5" />
  <polygon points="70.0,60.2 79.8,70.0 70.0,79.8 60.2,70.0" fill="#00d9ff" fill-opacity="0.7" stroke-opacity="0.7" />
  <circle cx="98.0" cy="70.0" r="4.2" fill="#90e0ef" opacity="0.5" />
  <polygon points="126.0,60.2 135.8,70.0 126.0,79.8 116.2,70.0" fill="#00d9ff" fill-opacity="0.7" stroke-opacity="0.7" />
  <circle cx="154.0" cy="70.0" r="4.2" fill="#90e0ef" opacity="0.5" />
  <polygon points="182.0,60.2 191.8,70.0 182.0,79.8 172.2,70.0" fill="#00d9ff" fill-opacity="0.7" stroke-opacity="0.7" />
  <circle cx="210.0" cy="70.0" r="4.2" fill="#90e0ef" opacity="0.5" />
  <polygon points="238.0,60.2 247.8,70.0 238.0,79.8 228.2,70.0" fill="#00d9ff" fill-opacity="0.7" stroke-opacity="0.7" />
  <circle cx="266.0" cy="70.0" r="4.2" fill="#90e0ef" opacity="0.5" />
  <circle cx="14.0" cy="98.0" r="4.2" fill="#90e0ef" opacity="0.5" />
  <polygon points="42.0,88.2 51.8,98.0 42.0,107.8 32.2,98.0" fill="#00d9ff" fill-opacity="0.7" stroke-opacity="0.7" />
  <circle cx="70.0" cy="98.0" r="4.2" fill="#90e0ef" opacity="0.5" />
  <polygon points="98.0,88.2 107.8,98.0 98.0,107.8 88.2,98.0" fill="#00d9ff" fill-opacity="0.7" stroke-opacity="0.7" />
  <circle cx="126.0" cy="98.0" r="4.2" fill="#90e0ef" opacity="0.5" />
  <polygon points="154.0,88.2 163.8,98.0 154.0,107.8 144.2,98.0" fill="#00d9ff" fill-opacity="0.7" stroke-opacity="0.7" />
  <circle cx="182.0" cy="98.0" r="4.2" fill="#90e0ef" opacity="0.5" />
  <polygon points="210.0,88.2 219.8,98.0 210.0,107.8 200.2,98.0" fill="#00d9ff" fill-opacity="0.7" stroke-opacity="0.7" />
  <circle cx="238.0" cy="98.0" r="4.2" fill="#90e0ef" opacity="0.5" />
  <polygon points="266.0,88.2 275.8,98.0 266.0,107.8 256.2,98.0" fill="#00d9ff" fill-opacity="0.7" stroke-opacity="0.7" />
  <polygon points="14.0,116.2 23.8,126.0 14.0,135.8 4.200000000000001,126.0" fill="#00d9ff" fill-opacity="0.7" stroke-opacity="0.7" />
  <circle cx="42.0" cy="126.0" r="4.2" fill="#90e0ef" opacity="0.5" />
  <polygon points="70.0,116.2 79.8,126.0 70.0,135.8 60.2,126.0" fill="#00d9ff" fill-opacity="0.7" stroke-opacity="0.7" />
  <circle cx="98.0" cy="126.0" r="4.2" fill="#90e0ef" opacity="0.5" />
  <polygon points="126.0,116.2 135.8,126.0 126.0,135.8 116.2,126.0" fill="#00d9ff" fill-opacity="0.7" stroke-opacity="0.7" />
  <circle cx="154.0" cy="126.0" r="4.2" fill="#90e0ef" opacity="0.5" />
  <polygon points="182.0,116.2 191.8,126.0 182.0,135.8 172.2,126.0" fill="#00d9ff" fill-opacity="0.7" stroke-opacity="0.7" />
  <circle cx="210.0" cy="126.0" r="4.2" fill="#90e0ef" opacity="0.5" />
  <polygon points="238.0,116.2 247.8,126.0 238.0,135.8 228.2,126.0" fill="#00d9ff" fill-opacity="0.7" stroke-opacity="0.7" />
  <circle cx="266.0" cy="126.0" r="4.2" fill="#90e0ef" opacity="0.5" />
  <circle cx="14.0" cy="154.0" r="4.2" fill="#90e0ef" opacity="0.5" />
  <polygon points="42.0,144.2 51.8,154.0 42.0,163.8 32.2,154.0" fill="#00d9ff" fill-opacity="0.7" stroke-opacity="0.7" />
  <circle cx="70.0" cy="154.0" r="4.2" fill="#90e0ef" opacity="0.5" />
  <polygon points="98.0,144.2 107.8,154.0 98.0,163.8 88.2,154.0" fill="#00d9ff" fill-opacity="0.7" stroke-opacity="0.7" />
  <circle cx="126.0" cy="154.0" r="4.2" fill="#90e0ef" opacity="0.5" />
  <polygon points="154.0,144.2 163.8,154.0 154.0,163.8 144.2,154.0" fill="#00d9ff" fill-opacity="0.7" stroke-opacity="0.7" />
  <circle cx="182.0" cy="154.0" r="4.2" fill="#90e0ef" opacity="0.5" />
  <polygon points="210.0,144.2 219.8,154.0 210.0,163.8 200.2,154.0" fill="#00d9ff" fill-opacity="0.7" stroke-opacity="0.7" />
  <circle cx="238.0" cy="154.0" r="4.2" fill="#90e0ef" opacity="0.5" />
  <polygon points="266.0,144.2 275.8,154.0 266.0,163.8 256.2,154.0" fill="#00d9ff" fill-opacity="0.7" stroke-opacity="0.7" />
  <polygon points="14.0,172.2 23.8,182.0 14.0,191.8 4.200000000000001,182.0" fill="#00d9ff" fill-opacity="0.7" stroke-opacity="0.7" />
  <circle cx="42.0" cy="182.0" r="4.2" fill="#90e0ef" opacity="0.5" />
  <polygon points="70.0,172.2 79.8,182.0 70.0,191.8 60.2,182.0" fill="#00d9ff" fill-opacity="0.7" stroke-opacity="0.7" />
  <circle cx="98.0" cy="182.0" r="4.2" fill="#90e0ef" opacity="0.5" />
  <polygon points="126.0,172.2 135.8,182.0 126.0,191.8 116.2,182.0" fill="#00d9ff" fill-opacity="0.7" stroke-opacity="0.7" />
  <circle cx="154.0" cy="182.0" r="4.2" fill="#90e0ef" opacity="0.5" />
  <polygon points="182.0,172.2 191.8,182.0 182.0,191.8 172.2,182.0" fill="#00d9ff" fill-opacity="0.7" stroke-opacity="0.7" />
  <circle cx="210.0" cy="182.0" r="4.2" fill="#90e0ef" opacity="0.5" />
  <polygon points="238.0,172.2 247.8,182.0 238.0,191.8 228.2,182.0" fill="#00d9ff" fill-opacity="0.7" stroke-opacity="0.7" />
  <circle cx="266.0" cy="182.0" r="4.2" fill="#90e0ef" opacity="0.5" />
  <circle cx="14.0" cy="210.0" r="4.2" fill="#90e0ef" opacity="0.5" />
  <polygon points="42.0,200.2 51.8,210.0 42.0,219.8 32.2,210.0" fill="#00d9ff" fill-opacity="0.7" stroke-opacity="0.7" />
  <circle cx="70.0" cy="210.0" r="4.2" fill="#90e0ef" opacity="0.5" />
  <polygon points="98.0,200.2 107.8,210.0 98.0,219.8 88.2,210.0" fill="#00d9ff" fill-opacity="0.7" stroke-opacity="0.7" />
  <circle cx="126.0" cy="210.0" r="4.2" fill="#90e0ef" opacity="0.5" />
  <polygon points="154.0,200.2 163.8,210.0 154.0,219.8 144.2,210.0" fill="#00d9ff" fill-opacity="0.7" stroke-opacity="0.7" />
  <circle cx="182.0" cy="210.0" r="4.2" fill="#90e0ef" opacity="0.5" />
  <polygon points="210.0,200.2 219.8,210.0 210.0,219.8 200.2,210.0" fill="#00d9ff" fill-opacity="0.7" stroke-opacity="0.7" />
  <circle cx="238.0" cy="210.0" r="4.2" fill="#90e0ef" opacity="0.5" />
  <polygon points="266.0,200.2 275.8,210.0 266.0,219.8 256.2,210.0" fill="#00d9ff" fill-opacity="0.7" stroke-opacity="0.7" />
  <polygon points="14.0,228.2 23.8,238.0 14.0,247.8 4.200000000000001,238.0" fill="#00d9ff" fill-opacity="0.7" stroke-opacity="0.7" />
  <circle cx="42.0" cy="238.0" r="4.2" fill="#90e0ef" opacity="0.5" />
  <polygon points="70.0,228.2 79.8,238.0 70.0,247.8 60.2,238.0" fill="#00d9ff" fill-opacity="0.7" stroke-opacity="0.7" />
  <circle cx="98.0" cy="238.0" r="4.2" fill="#90e0ef" opacity="0.5" />
  <polygon points="126.0,228.2 135.8,238.0 126.0,247.8 116.2,238.0" fill="#00d9ff" fill-opacity="0.7" stroke-opacity="0.7" />
  <circle cx="154.0" cy="238.0" r="4.2" fill="#90e0ef" opacity="0.5" />
  <polygon points="182.0,228.2 191.8,238.0 182.0,247.8 172.2,238.0" fill="#00d9ff" fill-opacity="0.7" stroke-opacity="0.7" />
  <circle cx="210.0" cy="238.0" r="4.2" fill="#90e0ef" opacity="0.5" />
  <polygon points="238.0,228.2 247.8,238.0 238.0,247.8 228.2,238.0" fill="#00d9ff" fill-opacity="0.7" stroke-opacity="0.7" />
  <circle cx="266.0" cy="238.0" r="4.2" fill="#90e0ef" opacity="0.5" />
  <circle cx="14.0" cy="266.0" r="4.2" fill="#90e0ef" opacity="0.5" />
  <polygon points="42.0,256.2 51.8,266.0 42.0,275.8 32.2,266.0" fill="#00d9ff" fill-opacity="0.7" stroke-opacity="0.7" />
  <circle cx="70.0" cy="266.0" r="4.2" fill="#90e0ef" opacity="0.5" />
  <polygon points="98.0,256.2 107.8,266.0 98.0,275.8 88.2,266.0" fill="#00d9ff" fill-opacity="0.7" stroke-opacity="0.7" />
  <circle cx="126.0" cy="266.0" r="4.2" fill="#90e0ef" opacity="0.5" />
  <polygon points="154.0,256.2 163.8,266.0 154.0,275.8 144.2,266.0" fill="#00d9ff" fill-opacity="0.7" stroke-opacity="0.7" />
  <circle cx="182.0" cy="266.0" r="4.2" fill="#90e0ef" opacity="0.5" />
  <polygon points="210.0,256.2 219.8,266.0 210.0,275.8 200.2,266.0" fill="#00d9ff" fill-opacity="0.7" stroke-opacity="0.7" />
  <circle cx="238.0" cy="266.0" r="4.2" fill="#90e0ef" opacity="0.5" />
  <polygon points="266.0,256.2 275.8,266.0 266.0,275.8 256.2,266.0" fill="#00d9ff" fill-opacity="0.7" stroke-opacity="0.7" />
</svg>