<?xml version="1.0" encoding="UTF-8"?>
<svg xmlns="http://www.w3.org/2000/svg" width="280" height="280" viewBox="0 0 280 280">
  <rect width="100%" height="100%" fill="#0a1628" />
  <polygon points="14,4.2 23.8,14 14,23.8 4.2,14" fill="#00d9ff" fill-opacity="0.7" stroke-opacity="0.7" />
  <circle cx="42" cy="14" r="4.2" fill="#90e0ef" opacity="0.5" />
  <polygon points="70,4.2 79.8,14 70,23.8 60.2,14" fill="#00d9ff" fill-opacity="0.7" stroke-opacity="0.7" />
  <circle cx="98" cy="14" r="4.2" fill="#90e0ef" opacity="0.5" />
  <polygon points="126,4.2 135.8,14 126,23.8 116.2,14" fill="#00d9ff" fill-opacity="0.7" stroke-opacity="0.7" />
  <circle cx="154" cy="14" r="4.2" fill="#90e0ef" opacity="0.5" />
  <polygon points="182,4.2 191.8,14 182,23.8 172.2,14" fill="#00d9ff" fill-opacity="0.7" stroke-opacity="0.7" />
  <circle cx="210" cy="14" r="4.2" fill="#90e0ef" opacity="0.5" />
  <polygon points="238,4.2 247.8,14 238,23.8 228.2,14" fill="#00d9ff" fill-opacity="0.7" stroke-opacity="0.7" />
  <circle cx="266" cy="14" r="4.2" fill="#90e0ef" opacity="0.5" />
  <circle cx="14" cy="42" r="4.2" fill="#90e0ef" opacity="0.5" />
  <polygon points="42,32.2 51.8,42 42,51.8 32.2,42" fill="#00d9ff" fill-opacity="0.7" stroke-opacity="0.7" />
  <circle cx="70" cy="42" r="4.2" fill="#90e0ef" opacity="0.5" />
  <polygon points="98,32.2 107.8,42 98,51.8 88.2,42" fill="#00d9ff" fill-opacity="0.7" stroke-opacity="0.7" />
  <circle cx="126" cy="42" r="4.2" fill="#90e0ef" opacity="0.5" />
  <polygon points="154,32.2 163.8,42 154,51.8 144.2,42" fill="#00d9ff" fill-opacity="0.7" stroke-opacity="0.7" />
  <circle cx="182" cy="42" r="4.2" fill="#90e0ef" opacity="0.5" />
  <polygon points="210,32.2 219.8,42 210,51.8 200.2,42" fill="#00d9ff" fill-opacity="0.7" stroke-opacity="0.7" />
  <circle cx="238" cy="42" r="4.2" fill="#90e0ef" opacity="0.5" />
  <polygon points="266,32.2 275.8,42 266,51.8 256.2,42" fill="#00d9ff" fill-opacity="0.7" stroke-opacity="0.7" />
  <polygon points="14,60.2 23.8,70 14,79.8 4.2,70" fill="#00d9ff" fill-opacity="0.7" stroke-opacity="0.7" />
  <circle cx="42" cy="70" r="4.2" fill="#90e0ef" opacity="0.5" />
  <polygon points="70,60.2 79.8,70 70,79.8 60.2,70" fill="#00d9ff" fill-opacity="0.7" stroke-opacity="0.7" />
  <circle cx="98" cy="70" r="4.2" fill="#90e0ef" opacity="0.5" />
  <polygon points="126,60.2 135.8,70 126,79.8 116.2,70" fill="#00d9ff" fill-opacity="0.7" stroke-opacity="0.7" />
  <circle cx="154" cy="70" r="4.2" fill="#90e0ef" opacity="0.5" />
  <polygon points="182,60.2 191.8,70 182,79.8 172.2,70" fill="#00d9ff" fill-opacity="0.7" stroke-opacity="0.7" />
  <circle cx="210" cy="70" r="4.2" fill="#90e0ef" opacity="0.5" />
  <polygon points="238,60.2 247.8,70 238,79.8 228.2,70" fill="#00d9ff" fill-opacity="0.7" stroke-opacity="0.7" />
  <circle cx="266" cy="70" r="4.2" fill="#90e0ef" opacity="0.5" />
  <circle cx="14" cy="98" r="4.2" fill="#90e0ef" opacity="0.5" />
  <polygon points="42,88.2 51.8,98 42,107.8 32.2,98" fill="#00d9ff" fill-opacity="0.7" stroke-opacity="0.7" />
  <circle cx="70" cy="98" r="4.2" fill="#90e0ef" opacity="0.5" />
  <polygon points="98,88.2 107.8,98 98,107.8 88.2,98" fill="#00d9ff" fill-opacity="0.7" stroke-opacity="0.7" />
  <circle cx="126" cy="98" r="4.2" fill="#90e0ef" opacity="0.5" />
  <polygon points="154,88.2 163.8,98 154,107.8 144.2,98" fill="#00d9ff" fill-opacity="0.7" stroke-opacity="0.7" />
  <circle cx="182" cy="98" r="4.2" fill="#90e0ef" opacity="0.5" />
  <polygon points="210,88.2 219.8,98 210,107.8 200.2,98" fill="#00d9ff" fill-opacity="0.7" stroke-opacity="0.7" />
  <circle cx="238" cy="98" r="4.2" fill="#90e0ef" opacity="0.5" />
  <polygon points="266,88.2 275.8,98 266,107.8 256.2,98" fill="#00d9ff" fill-opacity="0.7" stroke-opacity="0.7" />
  <polygon points="14,116.2 23.8,126 14,135.8 4.2,126" fill="#00d9ff" fill-opacity="0.7" stroke-opacity="0.7" />
  <circle cx="42" cy="126" r="4.2" fill="#90e0ef" opacity="0.5" />
  <polygon points="70,116.2 79.8,126 70,135.8 60.2,126" fill="#00d9ff" fill-opacity="0.7" stroke-opacity="0.7" />
  <circle cx="98" cy="126" r="4.2" fill="#90e0ef" opacity="0.5" />
  <polygon points="126,116.2 135.8,126 126,135.8 116.2,126" fill="#00d9ff" fill-opacity="0.7" stroke-opacity="0.7" />
  <circle cx="154" cy="126" r="4.2" fill="#90e0ef" opacity="0.5" />
  <polygon points="182,116.2 191.8,126 182,135.8 172.2,126" fill="#00d9ff" fill-opacity="0.7" stroke-opacity="0.7" />
  <circle cx="210" cy="126" r="4.2" fill="#90e0ef" opacity="0.5" />
  <polygon points="238,116.2 247.8,126 238,135.8 228.2,126" fill="#00d9ff" fill-opacity="0.7" stroke-opacity="0.7" />
  <circle cx="266" cy="126" r="4.2" fill="#90e0ef" opacity="0.5" />
  <circle cx="14" cy="154" r="4.2" fill="#90e0ef" opacity="0.5" />
  <polygon points="42,144.2 51.8,154 42,163.8 32.2,154" fill="#00d9ff" fill-opacity="0.7" stroke-opacity="0.7" />
  <circle cx="70" cy="154" r="4.2" fill="#90e0ef" opacity="0.5" />
  <polygon points="98,144.2 107.8,154 98,163.8 88.2,154" fill="#00d9ff" fill-opacity="0.7" stroke-opacity="0.7" />
  <circle cx="126" cy="154" r="4.2" fill="#90e0ef" opacity="0.5" />
  <polygon points="154,144.2 163.8,154 154,163.8 144.2,154" fill="#00d9ff" fill-opacity="0.7" stroke-opacity="0.7" />
  <circle cx="182" cy="154" r="4.2" fill="#90e0ef" opacity="0.5" />
  <polygon points="210,144.2 219.8,154 210,163.8 200.2,154" fill="#00d9ff" fill-opacity="0.7" stroke-opacity="0.7" />
  <circle cx="238" cy="154" r="4.2" fill="#90e0ef" opacity="0.5" />
  <polygon points="266,144.2 275.8,154 266,163.8 256.2,154" fill="#00d9ff" fill-opacity="0.7" stroke-opacity="0.7" />
  <polygon points="14,172.2 23.8,182 14,191.8 4.2,182" fill="#00d9ff" fill-opacity="0.7" stroke-opacity="0.7" />
  <circle cx="42" cy="182" r="4.2" fill="#90e0ef" opacity="0.5" />
  <polygon points="70,172.2 79.8,182 70,191.8 60.2,182" fill="#00d9ff" fill-opacity="0.7" stroke-opacity="0.7" />
  <circle cx="98" cy="182" r="4.2" fill="#90e0ef" opacity="0.5" />
  <polygon points="126,172.2 135.8,182 126,191.8 116.2,182" fill="#00d9ff" fill-opacity="0.7" stroke-opacity="0.7" />
  <circle cx="154" cy="182" r="4.2" fill="#90e0ef" opacity="0.5" />
  <polygon points="182,172.2 191.8,182 182,191.8 172.2,182" fill="#00d9ff" fill-opacity="0.7" stroke-opacity="0.7" />
  <circle cx="210" cy="182" r="4.2" fill="#90e0ef" opacity="0.5" />
  <polygon points="238,172.2 247.8,182 238,191.8 228.2,182" fill="#00d9ff" fill-opacity="0.7" stroke-opacity="0.7" />
  <circle cx="266" cy="182" r="4.2" fill="#90e0ef" opacity="0.5" />
  <circle cx="14" cy="210" r="4.2" fill="#90e0ef" opacity="0.5" />
  <polygon points="42,200.2 51.8,210 42,219.8 32.2,210" fill="#00d9ff" fill-opacity="0.7" stroke-opacity="0.7" />
  <circle cx="70" cy="210" r="4.2" fill="#90e0ef" opacity="0.5" />
  <polygon points="98,200.2 107.8,210 98,219.8 88.2,210" fill="#00d9ff" fill-opacity="0.7" stroke-opacity="0.7" />
  <circle cx="126" cy="210" r="4.2" fill="#90e0ef" opacity="0.5" />
  <polygon points="154,200.2 163.8,210 154,219.8 144.2,210" fill="#00d9ff" fill-opacity="0.7" stroke-opacity="0.7" />
  <circle cx="182" cy="210" r="4.2" fill="#90e0ef" opacity="0.5" />
  <polygon points="210,200.2 219.8,210 210,219.8 200.2,210" fill="#00d9ff" fill-opacity="0.7" stroke-opacity="0.7" />
  <circle cx="238" cy="210" r="4.2" fill="#90e0ef" opacity="0.5" />
  <polygon points="266,200.2 275.8,210 266,219.8 256.2,210" fill="#00d9ff" fill-opacity="0.7" stroke-opacity="0.7" />
  <polygon points="14,228.2 23.8,238 14,247.8 4.2,238" fill="#00d9ff" fill-opacity="0.7" stroke-opacity="0.7" />
  <circle cx="42" cy="238" r="4.2" fill="#90e0ef" opacity="0.5" />
  <polygon points="70,228.2 79.8,238 70,247.8 60.2,238" fill="#00d9ff" fill-opacity="0.7" stroke-opacity="0.7" />
  <circle cx="98" cy="238" r="4.2" fill="#90e0ef" opacity="0.5" />
  <polygon points="126,228.2 135.8,238 126,247.8 116.2,238" fill="#00d9ff" fill-opacity="0.7" stroke-opacity="0.7" />
  <circle cx="154" cy="238" r="4.2" fill="#90e0ef" opacity="0.5" />
  <polygon points="182,228.2 191.8,238 182,247.8 172.2,238" fill="#00d9ff" fill-opacity="0.7" stroke-opacity="0.7" />
  <circle cx="210" cy="238" r="4.2" fill="#90e0ef" opacity="0.5" />
  <polygon points="238,228.2 247.8,238 238,247.8 228.2,238" fill="#00d9ff" fill-opacity="0.7" stroke-opacity="0.7" />
  <circle cx="266" cy="238" r="4.2" fill="#90e0ef" opacity="0.5" />
  <circle cx="14" cy="266" r="4.2" fill="#90e0ef" opacity="0.5" />
  <polygon points="42,256.2 51.8,266 42,275.8 32.2,266" fill="#00d9ff" fill-opacity="0.7" stroke-opacity="0.7" />
  <circle cx="70" cy="266" r="4.2" fill="#90e0ef" opacity="0.5" />
  <polygon points="98,256.2 107.8,266 98,275.8 88.2,266" fill="#00d9ff" fill-opacity="0.7" stroke-opacity="0.7" />
  <circle cx="126" cy="266" r="4.2" fill="#90e0ef" opacity="0.5" />
  <polygon points="154,256.2 163.8,266 154,275.8 144.2,266" fill="#00d9ff" fill-opacity="0.7" stroke-opacity="0.7" />
  <circle cx="182" cy="266" r="4.2" fill="#90e0ef" opacity="0.5" />
  <polygon points="210,256.2 219.8,266 210,275.8 200.2,266" fill="#00d9ff" fill-opacity="0.7" stroke-opacity="0.7" />
  <circle cx="238" cy="266" r="4.2" fill="#90e0ef" opacity="0.5" />
  <polygon points="266,256.2 275.8,266 266,275.8 256.2,266" fill="#00d9ff" fill-opacity="0.7" stroke-opacity="0.7" />
</svg>