<?xml version="1.0" encoding="UTF-8"?>
<svg xmlns="http://www.w3.org/2000/svg" width="200" height="290" viewBox="0 0 200 290">
  <rect width="100%" height="100%" fill="#1a1a2e" />
  <circle cx="5" cy="5" r="1.92129" fill="#647750" />
  <circle cx="15" cy="5" r="1.86356" fill="#627448" />
  <circle cx="25" cy="5" r="1.85502" fill="#607449" />
  <circle cx="35" cy="5" r="1.85301" fill="#607448" />
  <circle cx="45" cy="5" r="1.84774" fill="#5f7448" />
  <circle cx="55" cy="5" r="1.77715" fill="#5b7044" />
  <circle cx="65" cy="5" r="1.82079" fill="#5d7345" />
  <circle cx="75" cy="5" r="1.84064" fill="#607347" />
  <circle cx="85" cy="5" r="1.88573" fill="#657546" />
  <circle cx="95" cy="5" r="1.88303" fill="#61764a" />
  <circle cx="105" cy="5" r="1.86086" fill="#5e754c" />
  <circle cx="115" cy="5" r="1.83844" fill="#5e7446" />
  <circle cx="125" cy="5" r="1.82003" fill="#5e7342" />
  <circle cx="135" cy="5" r="1.75673" fill="#5b6f3f" />
  <circle cx="145" cy="5" r="1.72546" fill="#596d3f" />
  <circle cx="155" cy="5" r="1.74367" fill="#576f43" />
  <circle cx="165" cy="5" r="1.7568" fill="#567047" />
  <circle cx="175" cy="5" r="1.80648" fill="#58734b" />
  <circle cx="185" cy="5" r="1.84781" fill="#5a7550" />
  <circle cx="195" cy="5" r="1.83362" fill="#5c734e" />
  <circle cx="5" cy="15" r="2.14604" fill="#798250" />
  <circle cx="15" cy="15" r="2.10854" fill="#75814d" />
  <circle cx="25" cy="15" r="2.07526" fill="#737f4c" />
  <circle cx="35" cy="15" r="2.10528" fill="#74814e" />
  <circle cx="45" cy="15" r="2.05253" fill="#737d4b" />
  <circle cx="55" cy="15" r="1.97993" fill="#6f7946" />
  <circle cx="65" cy="15" r="2.02232" fill="#707c49" />
  <circle cx="75" cy="15" r="2.05177" fill="#747d48" />
  <circle cx="85" cy="15" r="2.07469" fill="#767e49" />
  <circle cx="95" cy="15" r="2.21298" fill="#788855" />
  <circle cx="105" cy="15" r="2.19935" fill="#778756" />
  <circle cx="115" cy="15" r="2.07401" fill="#727f4e" />
  <circle cx="125" cy="15" r="2.09875" fill="#728150" />
  <circle cx="135" cy="15" r="2.09693" fill="#74804f" />
  <circle cx="145" cy="15" r="2.07018" fill="#747e4c" />
  <circle cx="155" cy="15" r="2.08581" fill="#757f4c" />
  <circle cx="165" cy="15" r="2.11207" fill="#738154" />
  <circle cx="175" cy="15" r="2.163" fill="#768456" />
  <circle cx="185" cy="15" r="2.20281" fill="#7a8655" />
  <circle cx="195" cy="15" r="2.14152" fill="#778253" />
  <circle cx="5" cy="25" r="2.27666" fill="#7f8a58" />
  <circle cx="15" cy="25" r="2.25826" fill="#7f8954" />
  <circle cx="25" cy="25" r="2.28828" fill="#808b56" />
  <circle cx="35" cy="25" r="2.28194" fill="#808a58" />
  <circle cx="45" cy="25" r="2.28847" fill="#828a56" />
  <circle cx="55" cy="25" r="2.28244" fill="#828a53" />
  <circle cx="65" cy="25" r="2.24513" fill="#808850" />
  <circle cx="75" cy="25" r="2.32426" fill="#868c53" />
  <circle cx="85" cy="25" r="2.18624" fill="#81824f" />
  <circle cx="95" cy="25" r="1.88709" fill="#736e46" />
  <circle cx="105" cy="25" r="1.88382" fill="#726e47" />
  <circle cx="115" cy="25" r="2.12149" fill="#7b7f4e" />
  <circle cx="125" cy="25" r="2.36998" fill="#83905d" />
  <circle cx="135" cy="25" r="2.24464" fill="#7e8855" />
  <circle cx="145" cy="25" r="2.19314" fill="#7e8450" />
  <circle cx="155" cy="25" r="2.23121" fill="#7f8656" />
  <circle cx="165" cy="25" r="2.28999" fill="#808a5c" />
  <circle cx="175" cy="25" r="2.33891" fill="#838d5d" />
  <circle cx="185" cy="25" r="2.32175" fill="#848c57" />
  <circle cx="195" cy="25" r="2.32327" fill="#828c5d" />
  <circle cx="5" cy="35" r="2.3742" fill="#858f5f" />
  <circle cx="15" cy="35" r="2.44403" fill="#8a9360" />
  <circle cx="25" cy="35" r="2.45508" fill="#8e935b" />
  <circle cx="35" cy="35" r="2.41345" fill="#8c905b" />
  <circle cx="45" cy="35" r="2.48077" fill="#8f9460" />
  <circle cx="55" cy="35" r="2.478" fill="#90945c" />
  <circle cx="65" cy="35" r="2.56327" fill="#949a5d" />
  <circle cx="75" cy="35" r="2.19699" fill="#85814f" />
  <circle cx="85" cy="35" r="1.58534" fill="#795521" />
  <circle cx="95" cy="35" r="1.27438" fill="#68411a" />
  <circle cx="105" cy="35" r="0.694341" fill="#3c2017" />
  <circle cx="115" cy="35" r="0.628147" fill="#331e18" />
  <circle cx="125" cy="35" r="1.80067" fill="#6c6a42" />
  <circle cx="135" cy="35" r="2.50456" fill="#8e975f" />
  <circle cx="145" cy="35" r="2.27811" fill="#828956" />
  <circle cx="155" cy="35" r="2.40949" fill="#879161" />
  <circle cx="165" cy="35" r="2.48836" fill="#90955c" />
  <circle cx="175" cy="35" r="2.48981" fill="#93945a" />
  <circle cx="185" cy="35" r="2.47272" fill="#8f945c" />
  <circle cx="195" cy="35" r="2.48058" fill="#8d9560" />
  <circle cx="5" cy="45" r="2.48605" fill="#909460" />
  <circle cx="15" cy="45" r="2.66031" fill="#989f69" />
  <circle cx="25" cy="45" r="2.68525" fill="#9aa06b" />
  <circle cx="35" cy="45" r="2.66301" fill="#9c9e65" />
  <circle cx="45" cy="45" r="2.66829" fill="#9d9e65" />
  <circle cx="55" cy="45" r="2.66301" fill="#9c9e65" />
  <circle cx="65" cy="45" r="2.57705" fill="#949969" />
  <circle cx="75" cy="45" r="1.97721" fill="#8b6d39" />
  <circle cx="85" cy="45" r="3.10788" fill="#d7ae55" />
  <circle cx="95" cy="45" r="2.99903" fill="#d0a94b" />
  <circle cx="105" cy="45" r="1.56136" fill="#785322" />
  <circle cx="115" cy="45" r="0.405229" fill="#251016" />
  <circle cx="125" cy="45" r="0.408865" fill="#211218" />
  <circle cx="135" cy="45" r="2.29872" fill="#84895b" />
  <circle cx="145" cy="45" r="2.63412" fill="#959e69" />
  <circle cx="155" cy="45" r="2.62703" fill="#969d68" />
  <circle cx="165" cy="45" r="2.67614" fill="#9b9f69" />
  <circle cx="175" cy="45" r="2.62646" fill="#999c65" />
  <circle cx="185" cy="45" r="2.56567" fill="#98985e" />
  <circle cx="195" cy="45" r="2.64814" fill="#9a9d68" />
  <circle cx="5" cy="55" r="2.39128" fill="#898f5d" />
  <circle cx="15" cy="55" r="2.44874" fill="#8e925d" />
  <circle cx="25" cy="55" r="2.724" fill="#9fa16c" />
  <circle cx="35" cy="55" r="2.84908" fill="#a7a96c" />
  <circle cx="45" cy="55" r="2.81349" fill="#a5a66f" />
  <circle cx="55" cy="55" r="3.02028" fill="#b0b376" />
  <circle cx="65" cy="55" r="1.97389" fill="#7e704a" />
  <circle cx="75" cy="55" r="2.09779" fill="#9a7139" />
  <circle cx="85" cy="55" r="3.46313" fill="#ebc365" />
  <circle cx="95" cy="55" r="3.10059" fill="#d6ae54" />
  <circle cx="105" cy="55" r="2.40773" fill="#af8535" />
  <circle cx="115" cy="55" r="0.986788" fill="#4f311f" />
  <circle cx="135" cy="55" r="1.26162" fill="#4a4a34" />
  <circle cx="145" cy="55" r="2.33538" fill="#858d56" />
  <circle cx="155" cy="55" r="2.48239" fill="#8b9661" />
  <circle cx="165" cy="55" r="2.73159" fill="#a0a268" />
  <circle cx="175" cy="55" r="2.83998" fill="#a8a86a" />
  <circle cx="185" cy="55" r="2.68643" fill="#a09f61" />
  <circle cx="195" cy="55" r="2.62597" fill="#979c6a" />
  <circle cx="5" cy="65" r="1.47319" fill="#545740" />
  <circle cx="15" cy="65" r="1.90165" fill="#6c724b" />
  <circle cx="25" cy="65" r="2.05331" fill="#7b794b" />
  <circle cx="35" cy="65" r="1.91068" fill="#707245" />
  <circle cx="45" cy="65" r="2.37986" fill="#8a8d5f" />
  <circle cx="55" cy="65" r="3.00866" fill="#afb278" />
  <circle cx="65" cy="65" r="1.50757" fill="#675239" />
  <circle cx="75" cy="65" r="1.69609" fill="#825831" />
  <circle cx="85" cy="65" r="2.59551" fill="#ba8f42" />
  <circle cx="95" cy="65" r="2.19085" fill="#a17736" />
  <circle cx="105" cy="65" r="2.02645" fill="#976d32" />
  <circle cx="115" cy="65" r="1.25123" fill="#614026" />
  <circle cx="135" cy="65" r="0.763535" fill="#2f2a28" />
  <circle cx="145" cy="65" r="1.62953" fill="#556543" />
  <circle cx="155" cy="65" r="1.77127" fill="#5a6e4e" />
  <circle cx="165" cy="65" r="2.51982" fill="#94965c" />
  <circle cx="175" cy="65" r="3.00582" fill="#b5b16c" />
  <circle cx="185" cy="65" r="2.59694" fill="#9a9a5e" />
  <circle cx="195" cy="65" r="2.29352" fill="#7e8a63" />
  <circle cx="5" cy="75" r="1.41411" fill="#53523f" />
  <circle cx="15" cy="75" r="1.65964" fill="#5a644a" />
  <circle cx="25" cy="75" r="1.63991" fill="#5e6240" />
  <circle cx="35" cy="75" r="1.46621" fill="#53583a" />
  <circle cx="45" cy="75" r="1.50295" fill="#58593a" />
  <circle cx="55" cy="75" r="1.70485" fill="#666441" />
  <circle cx="65" cy="75" r="0.987053" fill="#4c3127" />
  <circle cx="75" cy="75" r="2.23639" fill="#a5783d" />
  <circle cx="85" cy="75" r="2.91019" fill="#cba250" />
  <circle cx="95" cy="75" r="2.71175" fill="#c09648" />
  <circle cx="105" cy="75" r="2.86322" fill="#cd9e48" />
  <circle cx="115" cy="75" r="1.19301" fill="#5d3d23" />
  <circle cx="125" cy="75" r="0.339494" fill="#1b0d1f" />
  <circle cx="135" cy="75" r="0.709535" fill="#2d2627" />
  <circle cx="145" cy="75" r="1.5528" fill="#535f41" />
  <circle cx="155" cy="75" r="1.58395" fill="#4e6349" />
  <circle cx="165" cy="75" r="2.15666" fill="#768358" />
  <circle cx="175" cy="75" r="2.65717" fill="#9e9d62" />
  <circle cx="185" cy="75" r="2.3607" fill="#8b8c58" />
  <circle cx="195" cy="75" r="2.21276" fill="#7c845f" />
  <circle cx="5" cy="85" r="1.17731" fill="#474336" />
  <circle cx="15" cy="85" r="1.30151" fill="#494d3b" />
  <circle cx="25" cy="85" r="1.47042" fill="#55573c" />
  <circle cx="35" cy="85" r="1.47752" fill="#54583d" />
  <circle cx="45" cy="85" r="1.34785" fill="#4f4f38" />
  <circle cx="55" cy="85" r="1.19324" fill="#484531" />
  <circle cx="65" cy="85" r="0.5937" fill="#34191e" />
  <circle cx="75" cy="85" r="1.82012" fill="#8b5f33" />
  <circle cx="85" cy="85" r="2.61009" fill="#bc8f44" />
  <circle cx="95" cy="85" r="2.24148" fill="#a4793d" />
  <circle cx="105" cy="85" r="2.41346" fill="#af843d" />
  <circle cx="115" cy="85" r="0.806753" fill="#44261b" />
  <circle cx="125" cy="85" r="0.445676" fill="#211420" />
  <circle cx="135" cy="85" r="0.578418" fill="#251e24" />
  <circle cx="145" cy="85" r="1.18507" fill="#414735" />
  <circle cx="155" cy="85" r="1.34935" fill="#445341" />
  <circle cx="165" cy="85" r="1.54175" fill="#4f5f46" />
  <circle cx="175" cy="85" r="1.73234" fill="#5c6a4a" />
  <circle cx="185" cy="85" r="1.55596" fill="#565d45" />
  <circle cx="195" cy="85" r="1.59221" fill="#595e4a" />
  <circle cx="5" cy="95" r="0.984141" fill="#3d372e" />
  <circle cx="15" cy="95" r="1.29586" fill="#4d4b38" />
  <circle cx="25" cy="95" r="1.37222" fill="#544f37" />
  <circle cx="35" cy="95" r="1.25674" fill="#4d4834" />
  <circle cx="45" cy="95" r="1.2762" fill="#4c4a36" />
  <circle cx="55" cy="95" r="1.37183" fill="#505137" />
  <circle cx="65" cy="95" r="0.845576" fill="#442824" />
  <circle cx="75" cy="95" r="0.859024" fill="#4c2620" />
  <circle cx="85" cy="95" r="2.4573" fill="#b3863e" />
  <circle cx="95" cy="95" r="2.25761" fill="#a77a38" />
  <circle cx="105" cy="95" r="1.64019" fill="#7e562a" />
  <circle cx="115" cy="95" r="0.665841" fill="#391e1b" />
  <circle cx="125" cy="95" r="0.438582" fill="#22131f" />
  <circle cx="135" cy="95" r="0.566241" fill="#271c23" />
  <circle cx="145" cy="95" r="1.25509" fill="#484a36" />
  <circle cx="155" cy="95" r="1.36768" fill="#49533d" />
  <circle cx="165" cy="95" r="1.34426" fill="#455241" />
  <circle cx="175" cy="95" r="1.44411" fill="#4b5844" />
  <circle cx="185" cy="95" r="1.41323" fill="#4d5444" />
  <circle cx="195" cy="95" r="1.47566" fill="#535649" />
  <circle cx="5" cy="105" r="0.905965" fill="#38322e" />
  <circle cx="15" cy="105" r="1.02683" fill="#3e3b2c" />
  <circle cx="25" cy="105" r="1.29461" fill="#4c4b3a" />
  <circle cx="35" cy="105" r="1.3368" fill="#4b4f3d" />
  <circle cx="45" cy="105" r="1.51433" fill="#545a45" />
  <circle cx="55" cy="105" r="1.85425" fill="#676f50" />
  <circle cx="65" cy="105" r="1.13312" fill="#513b2f" />
  <circle cx="75" cy="105" r="0.4413" fill="#2f0e18" />
  <circle cx="85" cy="105" r="1.01631" fill="#4e3326" />
  <circle cx="95" cy="105" r="1.46273" fill="#704c2a" />
  <circle cx="105" cy="105" r="0.904588" fill="#4a2c1d" />
  <circle cx="115" cy="105" r="0.808571" fill="#42271c" />
  <circle cx="125" cy="105" r="0.456724" fill="#25141b" />
  <circle cx="135" cy="105" r="0.459106" fill="#20161f" />
  <circle cx="145" cy="105" r="1.21308" fill="#424936" />
  <circle cx="155" cy="105" r="1.48825" fill="#4f5b40" />
  <circle cx="165" cy="105" r="1.3437" fill="#48513e" />
  <circle cx="175" cy="105" r="1.25843" fill="#444b3d" />
  <circle cx="185" cy="105" r="1.48362" fill="#4f5948" />
  <circle cx="195" cy="105" r="1.5546" fill="#575b4c" />
  <circle cx="5" cy="115" r="1.09135" fill="#3f3e3a" />
  <circle cx="15" cy="115" r="1.28921" fill="#444d42" />
  <circle cx="25" cy="115" r="1.52614" fill="#575a43" />
  <circle cx="35" cy="115" r="1.54774" fill="#5d5a3e" />
  <circle cx="45" cy="115" r="1.58963" fill="#5c5d46" />
  <circle cx="55" cy="115" r="1.68526" fill="#606447" />
  <circle cx="65" cy="115" r="1.08889" fill="#493b2e" />
  <circle cx="75" cy="115" r="0.514959" fill="#32131b" />
  <circle cx="85" cy="115" r="0.814412" fill="#40281f" />
  <circle cx="95" cy="115" r="2.07448" fill="#947238" />
  <circle cx="105" cy="115" r="1.9875" fill="#906d31" />
  <circle cx="115" cy="115" r="1.89544" fill="#8d672a" />
  <circle cx="125" cy="115" r="0.745465" fill="#412219" />
  <circle cx="135" cy="115" r="0.531829" fill="#2b181c" />
  <circle cx="145" cy="115" r="0.823871" fill="#312f27" />
  <circle cx="155" cy="115" r="1.32176" fill="#4a5033" />
  <circle cx="165" cy="115" r="1.45258" fill="#52573b" />
  <circle cx="175" cy="115" r="1.83081" fill="#746a3c" />
  <circle cx="185" cy="115" r="1.65104" fill="#665f40" />
  <circle cx="195" cy="115" r="1.60459" fill="#625b48" />
  <circle cx="5" cy="125" r="1.35448" fill="#5e4838" />
  <circle cx="15" cy="125" r="1.43924" fill="#575241" />
  <circle cx="25" cy="125" r="1.58529" fill="#6d5831" />
  <circle cx="35" cy="125" r="1.44173" fill="#6a4e25" />
  <circle cx="45" cy="125" r="1.00461" fill="#493523" />
  <circle cx="55" cy="125" r="0.916941" fill="#413121" />
  <circle cx="65" cy="125" r="0.573159" fill="#2d1a21" />
  <circle cx="75" cy="125" r="0.975565" fill="#522e21" />
  <circle cx="85" cy="125" r="2.68537" fill="#bb9648" />
  <circle cx="95" cy="125" r="3.13895" fill="#d7b155" />
  <circle cx="105" cy="125" r="3.13569" fill="#d6b156" />
  <circle cx="115" cy="125" r="2.79531" fill="#c49d43" />
  <circle cx="125" cy="125" r="1.26316" fill="#6b3e1c" />
  <circle cx="135" cy="125" r="0.739694" fill="#3e221e" />
  <circle cx="145" cy="125" r="0.440029" fill="#25121d" />
  <circle cx="155" cy="125" r="1.14626" fill="#4a4129" />
  <circle cx="165" cy="125" r="2.0661" fill="#82793f" />
  <circle cx="175" cy="125" r="2.03571" fill="#86753a" />
  <circle cx="185" cy="125" r="1.7274" fill="#6d633f" />
  <circle cx="195" cy="125" r="1.55185" fill="#615745" />
  <circle cx="5" cy="135" r="1.38752" fill="#6c462e" />
  <circle cx="15" cy="135" r="1.28998" fill="#664127" />
  <circle cx="25" cy="135" r="1.72909" fill="#7e5e2d" />
  <circle cx="35" cy="135" r="1.77304" fill="#806229" />
  <circle cx="45" cy="135" r="1.31388" fill="#634621" />
  <circle cx="55" cy="135" r="0.879724" fill="#432c23" />
  <circle cx="65" cy="135" r="0.668806" fill="#3a1d1f" />
  <circle cx="75" cy="135" r="2.3496" fill="#af7f37" />
  <circle cx="85" cy="135" r="3.58551" fill="#efcc69" />
  <circle cx="95" cy="135" r="3.37163" fill="#e5be61" />
  <circle cx="105" cy="135" r="3.40999" fill="#e6c162" />
  <circle cx="115" cy="135" r="2.81114" fill="#c79d43" />
  <circle cx="125" cy="135" r="1.25204" fill="#6c3d19" />
  <circle cx="135" cy="135" r="1.00751" fill="#4f331f" />
  <circle cx="145" cy="135" r="1.2474" fill="#633f24" />
  <circle cx="155" cy="135" r="0.836082" fill="#412922" />
  <circle cx="165" cy="135" r="1.53944" fill="#69562f" />
  <circle cx="175" cy="135" r="2.06467" fill="#88763e" />
  <circle cx="185" cy="135" r="2.20641" fill="#8d7f49" />
  <circle cx="195" cy="135" r="1.91185" fill="#7c6c45" />
  <circle cx="5" cy="145" r="1.38722" fill="#6c4533" />
  <circle cx="15" cy="145" r="1.42638" fill="#6f492a" />
  <circle cx="25" cy="145" r="1.44277" fill="#6f4a2d" />
  <circle cx="35" cy="145" r="1.8609" fill="#8a652b" />
  <circle cx="45" cy="145" r="1.40231" fill="#6a4a26" />
  <circle cx="55" cy="145" r="0.407012" fill="#201024" />
  <circle cx="65" cy="145" r="1.42034" fill="#6f4927" />
  <circle cx="75" cy="145" r="3.41405" fill="#e9c257" />
  <circle cx="85" cy="145" r="3.54369" fill="#ebca69" />
  <circle cx="95" cy="145" r="3.69549" fill="#f0d379" />
  <circle cx="105" cy="145" r="3.70327" fill="#f3d375" />
  <circle cx="115" cy="145" r="2.86006" fill="#caa044" />
  <circle cx="125" cy="145" r="1.56482" fill="#7b5221" />
  <circle cx="135" cy="145" r="1.55434" fill="#745329" />
  <circle cx="145" cy="145" r="1.16739" fill="#573d26" />
  <circle cx="155" cy="145" r="0.552812" fill="#281a24" />
  <circle cx="165" cy="145" r="0.499571" fill="#251626" />
  <circle cx="175" cy="145" r="1.08498" fill="#56342e" />
  <circle cx="185" cy="145" r="1.64511" fill="#73583f" />
  <circle cx="195" cy="145" r="2.21082" fill="#917d4b" />
  <circle cx="5" cy="155" r="1.18396" fill="#5f3833" />
  <circle cx="15" cy="155" r="1.69555" fill="#8e532b" />
  <circle cx="25" cy="155" r="1.86263" fill="#93602e" />
  <circle cx="35" cy="155" r="1.60968" fill="#7b542d" />
  <circle cx="45" cy="155" r="0.692929" fill="#31212e" />
  <circle cx="55" cy="155" r="0.727765" fill="#342428" />
  <circle cx="65" cy="155" r="1.30724" fill="#634428" />
  <circle cx="75" cy="155" r="1.86462" fill="#8a6432" />
  <circle cx="85" cy="155" r="2.50936" fill="#b08b46" />
  <circle cx="95" cy="155" r="2.97356" fill="#c9a75b" />
  <circle cx="105" cy="155" r="2.92897" fill="#c6a557" />
  <circle cx="115" cy="155" r="1.77274" fill="#80612e" />
  <circle cx="125" cy="155" r="0.785524" fill="#392823" />
  <circle cx="135" cy="155" r="0.690265" fill="#302325" />
  <circle cx="145" cy="155" r="0.4566" fill="#1e1623" />
  <circle cx="155" cy="155" r="0.333141" fill="#121024" />
  <circle cx="165" cy="155" r="0.505782" fill="#1e192c" />
  <circle cx="175" cy="155" r="0.856094" fill="#432731" />
  <circle cx="185" cy="155" r="1.27855" fill="#6d3a33" />
  <circle cx="195" cy="155" r="1.4643" fill="#6f4842" />
  <circle cx="5" cy="165" r="0.818859" fill="#3c2636" />
  <circle cx="15" cy="165" r="1.30994" fill="#763a2b" />
  <circle cx="25" cy="165" r="1.64319" fill="#914d28" />
  <circle cx="35" cy="165" r="1.23462" fill="#653b2d" />
  <circle cx="45" cy="165" r="0.627494" fill="#271f32" />
  <circle cx="55" cy="165" r="0.881806" fill="#3e2d2c" />
  <circle cx="65" cy="165" r="0.951371" fill="#463125" />
  <circle cx="75" cy="165" r="1.05649" fill="#4d3728" />
  <circle cx="85" cy="165" r="1.3998" fill="#684a2a" />
  <circle cx="95" cy="165" r="1.28758" fill="#624326" />
  <circle cx="105" cy="165" r="1.13899" fill="#523d25" />
  <circle cx="115" cy="165" r="0.502747" fill="#221920" />
  <circle cx="125" cy="165" r="0.517129" fill="#221a22" />
  <circle cx="135" cy="165" r="0.890453" fill="#3e2f26" />
  <circle cx="145" cy="165" r="1.07846" fill="#4e3926" />
  <circle cx="155" cy="165" r="0.811906" fill="#3e2823" />
  <circle cx="165" cy="165" r="0.546847" fill="#231b29" />
  <circle cx="175" cy="165" r="0.698771" fill="#2f2231" />
  <circle cx="185" cy="165" r="1.22799" fill="#653934" />
  <circle cx="195" cy="165" r="1.27101" fill="#5e3e42" />
  <circle cx="5" cy="175" r="1.20235" fill="#563d3a" />
  <circle cx="15" cy="175" r="1.81818" fill="#86603a" />
  <circle cx="25" cy="175" r="1.98672" fill="#976838" />
  <circle cx="35" cy="175" r="1.06645" fill="#4f3532" />
  <circle cx="45" cy="175" r="0.625482" fill="#271f31" />
  <circle cx="55" cy="175" r="0.721994" fill="#31242d" />
  <circle cx="65" cy="175" r="0.759035" fill="#362628" />
  <circle cx="75" cy="175" r="0.860135" fill="#3d2c29" />
  <circle cx="85" cy="175" r="0.995771" fill="#473429" />
  <circle cx="95" cy="175" r="1.10723" fill="#4e3b2a" />
  <circle cx="105" cy="175" r="0.720282" fill="#312527" />
  <circle cx="115" cy="175" r="0.4566" fill="#1e1623" />
  <circle cx="125" cy="175" r="0.555688" fill="#251c23" />
  <circle cx="135" cy="175" r="0.858618" fill="#3f2c23" />
  <circle cx="145" cy="175" r="1.19176" fill="#5c3d25" />
  <circle cx="155" cy="175" r="0.613535" fill="#2e1d23" />
  <circle cx="165" cy="175" r="0.4914" fill="#1e182a" />
  <circle cx="175" cy="175" r="0.737135" fill="#302532" />
  <circle cx="185" cy="175" r="1.18288" fill="#573b38" />
  <circle cx="195" cy="175" r="1.36463" fill="#624542" />
  <circle cx="5" cy="185" r="1.31456" fill="#5c443e" />
  <circle cx="15" cy="185" r="1.49866" fill="#6a5037" />
  <circle cx="25" cy="185" r="1.31209" fill="#5d4535" />
  <circle cx="35" cy="185" r="0.810229" fill="#362932" />
  <circle cx="45" cy="185" r="0.914788" fill="#402e32" />
  <circle cx="55" cy="185" r="0.710382" fill="#30232f" />
  <circle cx="65" cy="185" r="0.649394" fill="#2d2028" />
  <circle cx="75" cy="185" r="0.685941" fill="#302228" />
  <circle cx="85" cy="185" r="0.858124" fill="#3d2c28" />
  <circle cx="95" cy="185" r="0.925941" fill="#423028" />
  <circle cx="105" cy="185" r="0.582635" fill="#271d26" />
  <circle cx="115" cy="185" r="0.420053" fill="#1b1423" />
  <circle cx="125" cy="185" r="0.517694" fill="#1f1b25" />
  <circle cx="135" cy="185" r="0.761541" fill="#382624" />
  <circle cx="145" cy="185" r="0.4686" fill="#231521" />
  <circle cx="155" cy="185" r="0.359153" fill="#1c0e21" />
  <circle cx="165" cy="185" r="0.511059" fill="#1f192c" />
  <circle cx="175" cy="185" r="0.718041" fill="#2c2533" />
  <circle cx="185" cy="185" r="0.916112" fill="#3c2f38" />
  <circle cx="195" cy="185" r="1.22201" fill="#573e3c" />
  <circle cx="5" cy="195" r="1.18652" fill="#533d3a" />
  <circle cx="15" cy="195" r="0.958429" fill="#423133" />
  <circle cx="25" cy="195" r="0.752965" fill="#332532" />
  <circle cx="35" cy="195" r="0.850235" fill="#3c2a31" />
  <circle cx="45" cy="195" r="0.946747" fill="#462f2d" />
  <circle cx="55" cy="195" r="0.699953" fill="#352127" />
  <circle cx="65" cy="195" r="0.537935" fill="#261927" />
  <circle cx="75" cy="195" r="0.618124" fill="#2b1e28" />
  <circle cx="85" cy="195" r="0.896682" fill="#402e29" />
  <circle cx="95" cy="195" r="0.683929" fill="#302227" />
  <circle cx="105" cy="195" r="0.499182" fill="#211826" />
  <circle cx="115" cy="195" r="0.427147" fill="#1a1524" />
  <circle cx="125" cy="195" r="0.451129" fill="#1b1723" />
  <circle cx="135" cy="195" r="0.335647" fill="#141020" />
  <circle cx="145" cy="195" r="0.3957" fill="#1f1021" />
  <circle cx="155" cy="195" r="0.423141" fill="#23111f" />
  <circle cx="165" cy="195" r="0.449012" fill="#1d1527" />
  <circle cx="175" cy="195" r="0.658571" fill="#272232" />
  <circle cx="185" cy="195" r="0.780282" fill="#302838" />
  <circle cx="195" cy="195" r="1.1373" fill="#50393e" />
  <circle cx="5" cy="205" r="1.07229" fill="#4d3635" />
  <circle cx="15" cy="205" r="0.747882" fill="#342432" />
  <circle cx="25" cy="205" r="0.853129" fill="#42282d" />
  <circle cx="35" cy="205" r="0.992718" fill="#512f27" />
  <circle cx="45" cy="205" r="0.872524" fill="#462927" />
  <circle cx="55" cy="205" r="0.476841" fill="#251425" />
  <circle cx="65" cy="205" r="0.309741" fill="#170b25" />
  <circle cx="75" cy="205" r="0.429547" fill="#1e1325" />
  <circle cx="85" cy="205" r="0.637024" fill="#2d1f27" />
  <circle cx="95" cy="205" r="0.548488" fill="#281927" />
  <circle cx="105" cy="205" r="0.448253" fill="#1e1524" />
  <circle cx="115" cy="205" r="0.408247" fill="#181425" />
  <circle cx="125" cy="205" r="0.346765" fill="#131123" />
  <circle cx="135" cy="205" r="0.306388" fill="#120e21" />
  <circle cx="145" cy="205" r="0.435706" fill="#251120" />
  <circle cx="155" cy="205" r="0.438971" fill="#26111f" />
  <circle cx="165" cy="205" r="0.385712" fill="#1a1124" />
  <circle cx="175" cy="205" r="0.556712" fill="#211c2e" />
  <circle cx="185" cy="205" r="0.706429" fill="#2b2435" />
  <circle cx="195" cy="205" r="1.16531" fill="#513b3f" />
  <circle cx="5" cy="215" r="0.9165" fill="#402d38" />
  <circle cx="15" cy="215" r="0.616076" fill="#281d34" />
  <circle cx="25" cy="215" r="1.09659" fill="#57352c" />
  <circle cx="35" cy="215" r="1.45602" fill="#754929" />
  <circle cx="45" cy="215" r="1.25382" fill="#673d27" />
  <circle cx="55" cy="215" r="1.69521" fill="#7c5a36" />
  <circle cx="65" cy="215" r="2.19168" fill="#9b7841" />
  <circle cx="75" cy="215" r="1.41388" fill="#684a31" />
  <circle cx="85" cy="215" r="0.6798" fill="#32202a" />
  <circle cx="105" cy="215" r="0.388288" fill="#171228" />
  <circle cx="115" cy="215" r="0.303882" fill="#100e25" />
  <circle cx="145" cy="215" r="0.427924" fill="#221124" />
  <circle cx="155" cy="215" r="0.397906" fill="#210f22" />
  <circle cx="165" cy="215" r="0.342635" fill="#150f26" />
  <circle cx="175" cy="215" r="0.520359" fill="#20192e" />
  <circle cx="185" cy="215" r="0.608594" fill="#251e33" />
  <circle cx="195" cy="215" r="0.875806" fill="#362d3e" />
  <circle cx="5" cy="225" r="0.841394" fill="#3a2937" />
  <circle cx="15" cy="225" r="0.572241" fill="#241b33" />
  <circle cx="25" cy="225" r="0.764206" fill="#39242d" />
  <circle cx="35" cy="225" r="1.02494" fill="#54302a" />
  <circle cx="45" cy="225" r="0.981106" fill="#502e29" />
  <circle cx="55" cy="225" r="2.06019" fill="#986e3b" />
  <circle cx="65" cy="225" r="2.79665" fill="#c99a46" />
  <circle cx="75" cy="225" r="2.81555" fill="#cb9b45" />
  <circle cx="85" cy="225" r="2.47841" fill="#b7863e" />
  <circle cx="95" cy="225" r="1.58827" fill="#775332" />
  <circle cx="105" cy="225" r="0.593947" fill="#281d29" />
  <circle cx="125" cy="225" r="0.364606" fill="#161124" />
  <circle cx="135" cy="225" r="0.444229" fill="#1e1522" />
  <circle cx="145" cy="225" r="0.412094" fill="#1f1124" />
  <circle cx="155" cy="225" r="0.351565" fill="#1b0d25" />
  <circle cx="165" cy="225" r="0.534741" fill="#201a30" />
  <circle cx="175" cy="225" r="0.613871" fill="#261e33" />
  <circle cx="185" cy="225" r="0.636794" fill="#281f34" />
  <circle cx="195" cy="225" r="0.828141" fill="#342a3b" />
  <circle cx="5" cy="235" r="0.744812" fill="#352333" />
  <circle cx="15" cy="235" r="0.410153" fill="#1a122b" />
  <circle cx="25" cy="235" r="0.383965" fill="#17112b" />
  <circle cx="35" cy="235" r="0.470312" fill="#231427" />
  <circle cx="45" cy="235" r="0.573424" fill="#2a1a29" />
  <circle cx="55" cy="235" r="1.20986" fill="#5c3d2e" />
  <circle cx="65" cy="235" r="1.89321" fill="#916333" />
  <circle cx="75" cy="235" r="2.27996" fill="#ac7a36" />
  <circle cx="85" cy="235" r="2.44763" fill="#b78439" />
  <circle cx="95" cy="235" r="2.26251" fill="#ad7835" />
  <circle cx="105" cy="235" r="1.62332" fill="#855129" />
  <circle cx="115" cy="235" r="1.30354" fill="#6c411e" />
  <circle cx="125" cy="235" r="1.19478" fill="#693919" />
  <circle cx="135" cy="235" r="1.2015" fill="#6d3817" />
  <circle cx="145" cy="235" r="0.878612" fill="#52261a" />
  <circle cx="155" cy="235" r="0.383329" fill="#1f0f20" />
  <circle cx="165" cy="235" r="0.497435" fill="#1e182d" />
  <circle cx="175" cy="235" r="0.571288" fill="#231c30" />
  <circle cx="185" cy="235" r="0.547112" fill="#201b31" />
  <circle cx="195" cy="235" r="0.751906" fill="#342434" />
  <circle cx="5" cy="245" r="0.529659" fill="#211930" />
  <circle cx="15" cy="245" r="0.408141" fill="#1a122a" />
  <circle cx="25" cy="245" r="0.463782" fill="#211429" />
  <circle cx="35" cy="245" r="0.306282" fill="#140c26" />
  <circle cx="45" cy="245" r="0.736694" fill="#3a2227" />
  <circle cx="55" cy="245" r="2.09014" fill="#9e6f35" />
  <circle cx="65" cy="245" r="2.31909" fill="#ac7d3a" />
  <circle cx="75" cy="245" r="1.60442" fill="#83502a" />
  <circle cx="85" cy="245" r="1.90954" fill="#96632e" />
  <circle cx="95" cy="245" r="1.76278" fill="#8d5a2b" />
  <circle cx="105" cy="245" r="1.34036" fill="#753f23" />
  <circle cx="115" cy="245" r="1.0152" fill="#5d2d1d" />
  <circle cx="125" cy="245" r="0.912953" fill="#532919" />
  <circle cx="135" cy="245" r="0.858759" fill="#4f2618" />
  <circle cx="145" cy="245" r="0.678229" fill="#421b19" />
  <circle cx="155" cy="245" r="0.399847" fill="#260e1b" />
  <circle cx="175" cy="245" r="0.381" fill="#161227" />
  <circle cx="185" cy="245" r="0.507988" fill="#20182d" />
  <circle cx="195" cy="245" r="0.846794" fill="#42272f" />
  <circle cx="5" cy="255" r="0.392506" fill="#19112a" />
  <circle cx="15" cy="255" r="0.386665" fill="#1b1027" />
  <circle cx="25" cy="255" r="0.410841" fill="#1e1126" />
  <circle cx="35" cy="255" r="0.372282" fill="#1b0f25" />
  <circle cx="45" cy="255" r="0.742165" fill="#3d2127" />
  <circle cx="55" cy="255" r="1.70225" fill="#89562c" />
  <circle cx="65" cy="255" r="1.68115" fill="#85562c" />
  <circle cx="75" cy="255" r="0.939971" fill="#502b24" />
  <circle cx="85" cy="255" r="0.995418" fill="#552e23" />
  <circle cx="95" cy="255" r="1.05288" fill="#5a3123" />
  <circle cx="105" cy="255" r="0.902859" fill="#502821" />
  <circle cx="115" cy="255" r="0.480035" fill="#2b131c" />
  <circle cx="125" cy="255" r="0.347276" fill="#1e0d1b" />
  <circle cx="135" cy="255" r="0.354371" fill="#1d0e1c" />
  <circle cx="145" cy="255" r="0.326365" fill="#1c0c1b" />
  <circle cx="175" cy="255" r="0.360971" fill="#1a0f22" />
  <circle cx="185" cy="255" r="0.513953" fill="#251728" />
  <circle cx="195" cy="255" r="0.717494" fill="#38202d" />
  <circle cx="5" cy="265" r="0.429247" fill="#1e122a" />
  <circle cx="15" cy="265" r="0.391941" fill="#1c1027" />
  <circle cx="25" cy="265" r="0.359718" fill="#190f24" />
  <circle cx="35" cy="265" r="0.406818" fill="#1e1124" />
  <circle cx="45" cy="265" r="0.375741" fill="#1e0e24" />
  <circle cx="55" cy="265" r="0.842135" fill="#4a2522" />
  <circle cx="65" cy="265" r="0.645018" fill="#3b1a20" />
  <circle cx="75" cy="265" r="0.557912" fill="#301721" />
  <circle cx="85" cy="265" r="0.702653" fill="#392023" />
  <circle cx="95" cy="265" r="0.540071" fill="#2d1720" />
  <circle cx="105" cy="265" r="0.374224" fill="#200e1e" />
  <circle cx="115" cy="265" r="0.314559" fill="#190c1d" />
  <circle cx="175" cy="265" r="0.388412" fill="#1e1020" />
  <circle cx="185" cy="265" r="0.430994" fill="#211223" />
  <circle cx="195" cy="265" r="0.556729" fill="#2a182b" />
  <circle cx="5" cy="275" r="0.355394" fill="#190e27" />
  <circle cx="25" cy="275" r="0.3108" fill="#160c23" />
  <circle cx="35" cy="275" r="0.312053" fill="#170c21" />
  <circle cx="45" cy="275" r="0.367888" fill="#200d20" />
  <circle cx="55" cy="275" r="0.376429" fill="#220d1f" />
  <circle cx="65" cy="275" r="0.314947" fill="#1d0a1d" />
  <circle cx="75" cy="275" r="0.377682" fill="#230d1d" />
  <circle cx="85" cy="275" r="0.344206" fill="#1f0c1c" />
  <circle cx="185" cy="275" r="0.307271" fill="#180c1c" />
  <circle cx="195" cy="275" r="0.399724" fill="#1f1023" />
  <circle cx="5" cy="285" r="0.316835" fill="#160c26" />
  <circle cx="35" cy="285" r="0.347541" fill="#1b0d23" />
  <circle cx="45" cy="285" r="0.394641" fill="#200f23" />
  <circle cx="75" cy="285" r="0.3819" fill="#250c1f" />
  <circle cx="195" cy="285" r="0.314065" fill="#170c22" />
</svg>