<?xml version="1.0" encoding="UTF-8"?>
<svg xmlns="http://www.w3.org/2000/svg" width="264" height="264" viewBox="0 0 264 264">
  <rect width="100%" height="100%" fill="#1a1a2e" />
  <rect x="0" y="0" width="22.0" height="22.0" fill="none" stroke="#3d3d5c" stroke-width="0.3" fill-opacity="0.3" stroke-opacity="0.3" />
  <rect x="0" y="0" width="22.0" height="22.0" fill="#ffe66d" fill-opacity="0.5" stroke-opacity="0.5" />
  <rect x="22" y="0" width="22.0" height="22.0" fill="none" stroke="#3d3d5c" stroke-width="0.3" fill-opacity="0.3" stroke-opacity="0.3" />
  <rect x="44" y="0" width="22.0" height="22.0" fill="none" stroke="#3d3d5c" stroke-width="0.3" fill-opacity="0.3" stroke-opacity="0.3" />
  <rect x="66" y="0" width="22.0" height="22.0" fill="none" stroke="#3d3d5c" stroke-width="0.3" fill-opacity="0.3" stroke-opacity="0.3" />
  <rect x="66" y="0" width="22.0" height="22.0" fill="#ffe66d" fill-opacity="0.5" stroke-opacity="0.5" />
  <rect x="88" y="0" width="22.0" height="22.0" fill="none" stroke="#3d3d5c" stroke-width="0.3" fill-opacity="0.3" stroke-opacity="0.3" />
  <rect x="110" y="0" width="22.0" height="22.0" fill="none" stroke="#3d3d5c" stroke-width="0.3" fill-opacity="0.3" stroke-opacity="0.3" />
  <rect x="132" y="0" width="22.0" height="22.0" fill="none" stroke="#3d3d5c" stroke-width="0.3" fill-opacity="0.3" stroke-opacity="0.3" />
  <rect x="132" y="0" width="22.0" height="22.0" fill="#ffe66d" fill-opacity="0.5" stroke-opacity="0.5" />
  <rect x="154" y="0" width="22.0" height="22.0" fill="none" stroke="#3d3d5c" stroke-width="0.3" fill-opacity="0.3" stroke-opacity="0.3" />
  <rect x="176" y="0" width="22.0" height="22.0" fill="none" stroke="#3d3d5c" stroke-width="0.3" fill-opacity="0.3" stroke-opacity="0.3" />
  <rect x="198" y="0" width="22.0" height="22.0" fill="none" stroke="#3d3d5c" stroke-width="0.3" fill-opacity="0.3" stroke-opacity="0.3" />
  <rect x="198" y="0" width="22.0" height="22.0" fill="#ffe66d" fill-opacity="0.5" stroke-opacity="0.5" />
  <rect x="220" y="0" width="22.0" height="22.0" fill="none" stroke="#3d3d5c" stroke-width="0.3" fill-opacity="0.3" stroke-opacity="0.3" />
  <rect x="242" y="0" width="22.0" height="22.0" fill="none" stroke="#3d3d5c" stroke-width="0.3" fill-opacity="0.3" stroke-opacity="0.3" />
  <rect x="0" y="22" width="22.0" height="22.0" fill="none" stroke="#3d3d5c" stroke-width="0.3" fill-opacity="0.3" stroke-opacity="0.3" />
  <rect x="22" y="22" width="22.0" height="22.0" fill="none" stroke="#3d3d5c" stroke-width="0.3" fill-opacity="0.3" stroke-opacity="0.3" />
  <rect x="22" y="22" width="22.0" height="22.0" fill="#ffe66d" fill-opacity="0.5" stroke-opacity="0.5" />
  <rect x="44" y="22" width="22.0" height="22.0" fill="none" stroke="#3d3d5c" stroke-width="0.3" fill-opacity="0.3" stroke-opacity="0.3" />
  <rect x="66" y="22" width="22.0" height="22.0" fill="none" stroke="#3d3d5c" stroke-width="0.3" fill-opacity="0.3" stroke-opacity="0.3" />
  <rect x="88" y="22" width="22.0" height="22.0" fill="none" stroke="#3d3d5c" stroke-width="0.3" fill-opacity="0.3" stroke-opacity="0.3" />
  <rect x="88" y="22" width="22.0" height="22.0" fill="#ffe66d" fill-opacity="0.5" stroke-opacity="0.5" />
  <rect x="110" y="22" width="22.0" height="22.0" fill="none" stroke="#3d3d5c" stroke-width="0.3" fill-opacity="0.3" stroke-opacity="0.3" />
  <rect x="132" y="22" width="22.0" height="22.0" fill="none" stroke="#3d3d5c" stroke-width="0.3" fill-opacity="0.3" stroke-opacity="0.3" />
  <rect x="154" y="22" width="22.0" height="22.0" fill="none" stroke="#3d3d5c" stroke-width="0.3" fill-opacity="0.3" stroke-opacity="0.3" />
  <rect x="154" y="22" width="22.0" height="22.0" fill="#ffe66d" fill-opacity="0.5" stroke-opacity="0.5" />
  <rect x="176" y="22" width="22.0" height="22.0" fill="none" stroke="#3d3d5c" stroke-width="0.3" fill-opacity="0.3" stroke-opacity="0.3" />
  <rect x="198" y="22" width="22.0" height="22.0" fill="none" stroke="#3d3d5c" stroke-width="0.3" fill-opacity="0.3" stroke-opacity="0.3" />
  <rect x="220" y="22" width="22.0" height="22.0" fill="none" stroke="#3d3d5c" stroke-width="0.3" fill-opacity="0.3" stroke-opacity="0.3" />
  <rect x="220" y="22" width="22.0" height="22.0" fill="#ffe66d" fill-opacity="0.5" stroke-opacity="0.5" />
  <rect x="242" y="22" width="22.0" height="22.0" fill="none" stroke="#3d3d5c" stroke-width="0.3" fill-opacity="0.3" stroke-opacity="0.3" />
  <rect x="0" y="44" width="22.0" height="22.0" fill="none" stroke="#3d3d5c" stroke-width="0.3" fill-opacity="0.3" stroke-opacity="0.3" />
  <rect x="22" y="44" width="22.0" height="22.0" fill="none" stroke="#3d3d5c" stroke-width="0.3" fill-opacity="0.3" stroke-opacity="0.3" />
  <rect x="44" y="44" width="22.0" height="22.0" fill="none" stroke="#3d3d5c" stroke-width="0.3" fill-opacity="0.3" stroke-opacity="0.3" />
  <rect x="44" y="44" width="22.0" height="22.0" fill="#ffe66d" fill-opacity="0.5" stroke-opacity="0.5" />
  <rect x="66" y="44" width="22.0" height="22.0" fill="none" stroke="#3d3d5c" stroke-width="0.3" fill-opacity="0.3" stroke-opacity="0.3" />
  <rect x="88" y="44" width="22.0" height="22.0" fill="none" stroke="#3d3d5c" stroke-width="0.3" fill-opacity="0.3" stroke-opacity="0.3" />
  <rect x="110" y="44" width="22.0" height="22.0" fill="none" stroke="#3d3d5c" stroke-width="0.3" fill-opacity="0.3" stroke-opacity="0.3" />
  <rect x="110" y="44" width="22.0" height="22.0" fill="#ffe66d" fill-opacity="0.5" stroke-opacity="0.5" />
  <rect x="132" y="44" width="22.0" height="22.0" fill="none" stroke="#3d3d5c" stroke-width="0.3" fill-opacity="0.3" stroke-opacity="0.3" />
  <rect x="154" y="44" width="22.0" height="22.0" fill="none" stroke="#3d3d5c" stroke-width="0.3" fill-opacity="0.3" stroke-opacity="0.3" />
  <rect x="176" y="44" width="22.0" height="22.0" fill="none" stroke="#3d3d5c" stroke-width="0.3" fill-opacity="0.3" stroke-opacity="0.3" />
  <rect x="176" y="44" width="22.0" height="22.0" fill="#ffe66d" fill-opacity="0.5" stroke-opacity="0.5" />
  <rect x="198" y="44" width="22.0" height="22.0" fill="none" stroke="#3d3d5c" stroke-width="0.3" fill-opacity="0.3" stroke-opacity="0.3" />
  <rect x="220" y="44" width="22.0" height="22.0" fill="none" stroke="#3d3d5c" stroke-width="0.3" fill-opacity="0.3" stroke-opacity="0.3" />
  <rect x="242" y="44" width="22.0" height="22.0" fill="none" stroke="#3d3d5c" stroke-width="0.3" fill-opacity="0.3" stroke-opacity="0.3" />
  <rect x="242" y="44" width="22.0" height="22.0" fill="#ffe66d" fill-opacity="0.5" stroke-opacity="0.5" />
  <rect x="0" y="66" width="22.0" height="22.0" fill="none" stroke="#3d3d5c" stroke-width="0.3" fill-opacity="0.3" stroke-opacity="0.3" />
  <rect x="22" y="66" width="22.0" height="22.0" fill="none" stroke="#3d3d5c" stroke-width="0.3" fill-opacity="0.3" stroke-opacity="0.3" />
  <rect x="44" y="66" width="22.0" height="22.0" fill="none" stroke="#3d3d5c" stroke-width="0.3" fill-opacity="0.3" stroke-opacity="0.3" />
  <rect x="66" y="66" width="22.0" height="22.0" fill="none" stroke="#3d3d5c" stroke-width="0.3" fill-opacity="0.3" stroke-opacity="0.3" />
  <rect x="66" y="66" width="22.0" height="22.0" fill="#ffe66d" fill-opacity="0.5" stroke-opacity="0.5" />
  <rect x="88" y="66" width="22.0" height="22.0" fill="none" stroke="#3d3d5c" stroke-width="0.3" fill-opacity="0.3" stroke-opacity="0.3" />
  <rect x="110" y="66" width="22.0" height="22.0" fill="none" stroke="#3d3d5c" stroke-width="0.3" fill-opacity="0.3" stroke-opacity="0.3" />
  <rect x="132" y="66" width="22.0" height="22.0" fill="none" stroke="#3d3d5c" stroke-width="0.3" fill-opacity="0.3" stroke-opacity="0.3" />
  <rect x="132" y="66" width="22.0" height="22.0" fill="#ffe66d" fill-opacity="0.5" stroke-opacity="0.5" />
  <rect x="154" y="66" width="22.0" height="22.0" fill="none" stroke="#3d3d5c" stroke-width="0.3" fill-opacity="0.3" stroke-opacity="0.3" />
  <rect x="176" y="66" width="22.0" height="22.0" fill="none" stroke="#3d3d5c" stroke-width="0.3" fill-opacity="0.3" stroke-opacity="0.3" />
  <rect x="198" y="66" width="22.0" height="22.0" fill="none" stroke="#3d3d5c" stroke-width="0.3" fill-opacity="0.3" stroke-opacity="0.3" />
  <rect x="198" y="66" width="22.0" height="22.0" fill="#ffe66d" fill-opacity="0.5" stroke-opacity="0.5" />
  <rect x="220" y="66" width="22.0" height="22.0" fill="none" stroke="#3d3d5c" stroke-width="0.3" fill-opacity="0.3" stroke-opacity="0.3" />
  <rect x="242" y="66" width="22.0" height="22.0" fill="none" stroke="#3d3d5c" stroke-width="0.3" fill-opacity="0.3" stroke-opacity="0.3" />
  <rect x="0" y="88" width="22.0" height="22.0" fill="none" stroke="#3d3d5c" stroke-width="0.3" fill-opacity="0.3" stroke-opacity="0.3" />
  <rect x="22" y="88" width="22.0" height="22.0" fill="none" stroke="#3d3d5c" stroke-width="0.3" fill-opacity="0.3" stroke-opacity="0.3" />
  <rect x="44" y="88" width="22.0" height="22.0" fill="none" stroke="#3d3d5c" stroke-width="0.3" fill-opacity="0.3" stroke-opacity="0.3" />
  <rect x="66" y="88" width="22.0" height="22.0" fill="none" stroke="#3d3d5c" stroke-width="0.3" fill-opacity="0.3" stroke-opacity="0.3" />
  <rect x="88" y="88" width="22.0" height="22.0" fill="none" stroke="#3d3d5c" stroke-width="0.3" fill-opacity="0.3" stroke-opacity="0.3" />
  <rect x="88" y="88" width="22.0" height="22.0" fill="#ffe66d" fill-opacity="0.5" stroke-opacity="0.5" />
  <rect x="110" y="88" width="22.0" height="22.0" fill="none" stroke="#3d3d5c" stroke-width="0.3" fill-opacity="0.3" stroke-opacity="0.3" />
  <rect x="132" y="88" width="22.0" height="22.0" fill="none" stroke="#3d3d5c" stroke-width="0.3" fill-opacity="0.3" stroke-opacity="0.3" />
  <rect x="154" y="88" width="22.0" height="22.0" fill="none" stroke="#3d3d5c" stroke-width="0.3" fill-opacity="0.3" stroke-opacity="0.3" />
  <rect x="154" y="88" width="22.0" height="22.0" fill="#ffe66d" fill-opacity="0.5" stroke-opacity="0.5" />
  <rect x="176" y="88" width="22.0" height="22.0" fill="none" stroke="#3d3d5c" stroke-width="0.3" fill-opacity="0.3" stroke-opacity="0.3" />
  <rect x="198" y="88" width="22.0" height="22.0" fill="none" stroke="#3d3d5c" stroke-width="0.3" fill-opacity="0.3" stroke-opacity="0.3" />
  <rect x="220" y="88" width="22.0" height="22.0" fill="none" stroke="#3d3d5c" stroke-width="0.3" fill-opacity="0.3" stroke-opacity="0.3" />
  <rect x="220" y="88" width="22.0" height="22.0" fill="#ffe66d" fill-opacity="0.5" stroke-opacity="0.5" />
  <rect x="242" y="88" width="22.0" height="22.0" fill="none" stroke="#3d3d5c" stroke-width="0.3" fill-opacity="0.3" stroke-opacity="0.3" />
  <rect x="0" y="110" width="22.0" height="22.0" fill="none" stroke="#3d3d5c" stroke-width="0.3" fill-opacity="0.3" stroke-opacity="0.3" />
  <rect x="22" y="110" width="22.0" height="22.0" fill="none" stroke="#3d3d5c" stroke-width="0.3" fill-opacity="0.3" stroke-opacity="0.3" />
  <rect x="44" y="110" width="22.0" height="22.0" fill="none" stroke="#3d3d5c" stroke-width="0.3" fill-opacity="0.3" stroke-opacity="0.3" />
  <rect x="66" y="110" width="22.0" height="22.0" fill="none" stroke="#3d3d5c" stroke-width="0.3" fill-opacity="0.3" stroke-opacity="0.3" />
  <rect x="88" y="110" width="22.0" height="22.0" fill="none" stroke="#3d3d5c" stroke-width="0.3" fill-opacity="0.3" stroke-opacity="0.3" />
  <rect x="110" y="110" width="22.0" height="22.0" fill="none" stroke="#3d3d5c" stroke-width="0.3" fill-opacity="0.3" stroke-opacity="0.3" />
  <rect x="110" y="110" width="22.0" height="22.0" fill="#ffe66d" fill-opacity="0.5" stroke-opacity="0.5" />
  <rect x="132" y="110" width="22.0" height="22.0" fill="none" stroke="#3d3d5c" stroke-width="0.3" fill-opacity="0.3" stroke-opacity="0.3" />
  <rect x="154" y="110" width="22.0" height="22.0" fill="none" stroke="#3d3d5c" stroke-width="0.3" fill-opacity="0.3" stroke-opacity="0.3" />
  <rect x="176" y="110" width="22.0" height="22.0" fill="none" stroke="#3d3d5c" stroke-width="0.3" fill-opacity="0.3" stroke-opacity="0.3" />
  <rect x="176" y="110" width="22.0" height="22.0" fill="#ffe66d" fill-opacity="0.5" stroke-opacity="0.5" />
  <rect x="198" y="110" width="22.0" height="22.0" fill="none" stroke="#3d3d5c" stroke-width="0.3" fill-opacity="0.3" stroke-opacity="0.3" />
  <rect x="220" y="110" width="22.0" height="22.0" fill="none" stroke="#3d3d5c" stroke-width="0.3" fill-opacity="0.3" stroke-opacity="0.3" />
  <rect x="242" y="110" width="22.0" height="22.0" fill="none" stroke="#3d3d5c" stroke-width="0.3" fill-opacity="0.3" stroke-opacity="0.3" />
  <rect x="242" y="110" width="22.0" height="22.0" fill="#ffe66d" fill-opacity="0.5" stroke-opacity="0.5" />
  <rect x="0" y="132" width="22.0" height="22.0" fill="none" stroke="#3d3d5c" stroke-width="0.3" fill-opacity="0.3" stroke-opacity="0.3" />
  <rect x="22" y="132" width="22.0" height="22.0" fill="none" stroke="#3d3d5c" stroke-width="0.3" fill-opacity="0.3" stroke-opacity="0.3" />
  <rect x="44" y="132" width="22.0" height="22.0" fill="none" stroke="#3d3d5c" stroke-width="0.3" fill-opacity="0.3" stroke-opacity="0.3" />
  <rect x="66" y="132" width="22.0" height="22.0" fill="none" stroke="#3d3d5c" stroke-width="0.3" fill-opacity="0.3" stroke-opacity="0.3" />
  <rect x="88" y="132" width="22.0" height="22.0" fill="none" stroke="#3d3d5c" stroke-width="0.3" fill-opacity="0.3" stroke-opacity="0.3" />
  <rect x="110" y="132" width="22.0" height="22.0" fill="none" stroke="#3d3d5c" stroke-width="0.3" fill-opacity="0.3" stroke-opacity="0.3" />
  <rect x="132" y="132" width="22.0" height="22.0" fill="none" stroke="#3d3d5c" stroke-width="0.3" fill-opacity="0.3" stroke-opacity="0.3" />
  <rect x="132" y="132" width="22.0" height="22.0" fill="#ffe66d" fill-opacity="0.5" stroke-opacity="0.5" />
  <rect x="154" y="132" width="22.0" height="22.0" fill="none" stroke="#3d3d5c" stroke-width="0.3" fill-opacity="0.3" stroke-opacity="0.3" />
  <rect x="176" y="132" width="22.0" height="22.0" fill="none" stroke="#3d3d5c" stroke-width="0.3" fill-opacity="0.3" stroke-opacity="0.3" />
  <rect x="198" y="132" width="22.0" height="22.0" fill="none" stroke="#3d3d5c" stroke-width="0.3" fill-opacity="0.3" stroke-opacity="0.3" />
  <rect x="198" y="132" width="22.0" height="22.0" fill="#ffe66d" fill-opacity="0.5" stroke-opacity="0.5" />
  <rect x="220" y="132" width="22.0" height="22.0" fill="none" stroke="#3d3d5c" stroke-width="0.3" fill-opacity="0.3" stroke-opacity="0.3" />
  <rect x="242" y="132" width="22.0" height="22.0" fill="none" stroke="#3d3d5c" stroke-width="0.3" fill-opacity="0.3" stroke-opacity="0.3" />
  <rect x="0" y="154" width="22.0" height="22.0" fill="none" stroke="#3d3d5c" stroke-width="0.3" fill-opacity="0.3" stroke-opacity="0.3" />
  <rect x="22" y="154" width="22.0" height="22.0" fill="none" stroke="#3d3d5c" stroke-width="0.3" fill-opacity="0.3" stroke-opacity="0.3" />
  <rect x="44" y="154" width="22.0" height="22.0" fill="none" stroke="#3d3d5c" stroke-width="0.3" fill-opacity="0.3" stroke-opacity="0.3" />
  <rect x="66" y="154" width="22.0" height="22.0" fill="none" stroke="#3d3d5c" stroke-width="0.3" fill-opacity="0.3" stroke-opacity="0.3" />
  <rect x="88" y="154" width="22.0" height="22.0" fill="none" stroke="#3d3d5c" stroke-width="0.3" fill-opacity="0.3" stroke-opacity="0.3" />
  <rect x="110" y="154" width="22.0" height="22.0" fill="none" stroke="#3d3d5c" stroke-width="0.3" fill-opacity="0.3" stroke-opacity="0.3" />
  <rect x="132" y="154" width="22.0" height="22.0" fill="none" stroke="#3d3d5c" stroke-width="0.3" fill-opacity="0.3" stroke-opacity="0.3" />
  <rect x="154" y="154" width="22.0" height="22.0" fill="none" stroke="#3d3d5c" stroke-width="0.3" fill-opacity="0.3" stroke-opacity="0.3" />
  <rect x="154" y="154" width="22.0" height="22.0" fill="#ffe66d" fill-opacity="0.5" stroke-opacity="0.5" />
  <rect x="176" y="154" width="22.0" height="22.0" fill="none" stroke="#3d3d5c" stroke-width="0.3" fill-opacity="0.3" stroke-opacity="0.3" />
  <rect x="198" y="154" width="22.0" height="22.0" fill="none" stroke="#3d3d5c" stroke-width="0.3" fill-opacity="0.3" stroke-opacity="0.3" />
  <rect x="220" y="154" width="22.0" height="22.0" fill="none" stroke="#3d3d5c" stroke-width="0.3" fill-opacity="0.3" stroke-opacity="0.3" />
  <rect x="220" y="154" width="22.0" height="22.0" fill="#ffe66d" fill-opacity="0.5" stroke-opacity="0.5" />
  <rect x="242" y="154" width="22.0" height="22.0" fill="none" stroke="#3d3d5c" stroke-width="0.3" fill-opacity="0.3" stroke-opacity="0.3" />
  <rect x="0" y="176" width="22.0" height="22.0" fill="none" stroke="#3d3d5c" stroke-width="0.3" fill-opacity="0.3" stroke-opacity="0.3" />
  <rect x="22" y="176" width="22.0" height="22.0" fill="none" stroke="#3d3d5c" stroke-width="0.3" fill-opacity="0.3" stroke-opacity="0.3" />
  <rect x="44" y="176" width="22.0" height="22.0" fill="none" stroke="#3d3d5c" stroke-width="0.3" fill-opacity="0.3" stroke-opacity="0.3" />
  <rect x="66" y="176" width="22.0" height="22.0" fill="none" stroke="#3d3d5c" stroke-width="0.3" fill-opacity="0.3" stroke-opacity="0.3" />
  <rect x="88" y="176" width="22.0" height="22.0" fill="none" stroke="#3d3d5c" stroke-width="0.3" fill-opacity="0.3" stroke-opacity="0.3" />
  <rect x="110" y="176" width="22.0" height="22.0" fill="none" stroke="#3d3d5c" stroke-width="0.3" fill-opacity="0.3" stroke-opacity="0.3" />
  <rect x="132" y="176" width="22.0" height="22.0" fill="none" stroke="#3d3d5c" stroke-width="0.3" fill-opacity="0.3" stroke-opacity="0.3" />
  <rect x="154" y="176" width="22.0" height="22.0" fill="none" stroke="#3d3d5c" stroke-width="0.3" fill-opacity="0.3" stroke-opacity="0.3" />
  <rect x="176" y="176" width="22.0" height="22.0" fill="none" stroke="#3d3d5c" stroke-width="0.3" fill-opacity="0.3" stroke-opacity="0.3" />
  <rect x="176" y="176" width="22.0" height="22.0" fill="#ffe66d" fill-opacity="0.5" stroke-opacity="0.5" />
  <rect x="198" y="176" width="22.0" height="22.0" fill="none" stroke="#3d3d5c" stroke-width="0.3" fill-opacity="0.3" stroke-opacity="0.3" />
  <rect x="220" y="176" width="22.0" height="22.0" fill="none" stroke="#3d3d5c" stroke-width="0.3" fill-opacity="0.3" stroke-opacity="0.3" />
  <rect x="242" y="176" width="22.0" height="22.0" fill="none" stroke="#3d3d5c" stroke-width="0.3" fill-opacity="0.3" stroke-opacity="0.3" />
  <rect x="242" y="176" width="22.0" height="22.0" fill="#ffe66d" fill-opacity="0.5" stroke-opacity="0.5" />
  <rect x="0" y="198" width="22.0" height="22.0" fill="none" stroke="#3d3d5c" stroke-width="0.3" fill-opacity="0.3" stroke-opacity="0.3" />
  <rect x="22" y="198" width="22.0" height="22.0" fill="none" stroke="#3d3d5c" stroke-width="0.3" fill-opacity="0.3" stroke-opacity="0.3" />
  <rect x="44" y="198" width="22.0" height="22.0" fill="none" stroke="#3d3d5c" stroke-width="0.3" fill-opacity="0.3" stroke-opacity="0.3" />
  <rect x="66" y="198" width="22.0" height="22.0" fill="none" stroke="#3d3d5c" stroke-width="0.3" fill-opacity="0.3" stroke-opacity="0.3" />
  <rect x="88" y="198" width="22.0" height="22.0" fill="none" stroke="#3d3d5c" stroke-width="0.3" fill-opacity="0.3" stroke-opacity="0.3" />
  <rect x="110" y="198" width="22.0" height="22.0" fill="none" stroke="#3d3d5c" stroke-width="0.3" fill-opacity="0.3" stroke-opacity="0.3" />
  <rect x="132" y="198" width="22.0" height="22.0" fill="none" stroke="#3d3d5c" stroke-width="0.3" fill-opacity="0.3" stroke-opacity="0.3" />
  <rect x="154" y="198" width="22.0" height="22.0" fill="none" stroke="#3d3d5c" stroke-width="0.3" fill-opacity="0.3" stroke-opacity="0.3" />
  <rect x="176" y="198" width="22.0" height="22.0" fill="none" stroke="#3d3d5c" stroke-width="0.3" fill-opacity="0.3" stroke-opacity="0.3" />
  <rect x="198" y="198" width="22.0" height="22.0" fill="none" stroke="#3d3d5c" stroke-width="0.3" fill-opacity="0.3" stroke-opacity="0.3" />
  <rect x="198" y="198" width="22.0" height="22.0" fill="#ffe66d" fill-opacity="0.5" stroke-opacity="0.5" />
  <rect x="220" y="198" width="22.0" height="22.0" fill="none" stroke="#3d3d5c" stroke-width="0.3" fill-opacity="0.3" stroke-opacity="0.3" />
  <rect x="242" y="198" width="22.0" height="22.0" fill="none" stroke="#3d3d5c" stroke-width="0.3" fill-opacity="0.3" stroke-opacity="0.3" />
  <rect x="0" y="220" width="22.0" height="22.0" fill="none" stroke="#3d3d5c" stroke-width="0.3" fill-opacity="0.3" stroke-opacity="0.3" />
  <rect x="22" y="220" width="22.0" height="22.0" fill="none" stroke="#3d3d5c" stroke-width="0.3" fill-opacity="0.3" stroke-opacity="0.3" />
  <rect x="44" y="220" width="22.0" height="22.0" fill="none" stroke="#3d3d5c" stroke-width="0.3" fill-opacity="0.3" stroke-opacity="0.3" />
  <rect x="66" y="220" width="22.0" height="22.0" fill="none" stroke="#3d3d5c" stroke-width="0.3" fill-opacity="0.3" stroke-opacity="0.3" />
  <rect x="88" y="220" width="22.0" height="22.0" fill="none" stroke="#3d3d5c" stroke-width="0.3" fill-opacity="0.3" stroke-opacity="0.3" />
  <rect x="110" y="220" width="22.0" height="22.0" fill="none" stroke="#3d3d5c" stroke-width="0.3" fill-opacity="0.3" stroke-opacity="0.3" />
  <rect x="132" y="220" width="22.0" height="22.0" fill="none" stroke="#3d3d5c" stroke-width="0.3" fill-opacity="0.3" stroke-opacity="0.3" />
  <rect x="154" y="220" width="22.0" height="22.0" fill="none" stroke="#3d3d5c" stroke-width="0.3" fill-opacity="0.3" stroke-opacity="0.3" />
  <rect x="176" y="220" width="22.0" height="22.0" fill="none" stroke="#3d3d5c" stroke-width="0.3" fill-opacity="0.3" stroke-opacity="0.3" />
  <rect x="198" y="220" width="22.0" height="22.0" fill="none" stroke="#3d3d5c" stroke-width="0.3" fill-opacity="0.3" stroke-opacity="0.3" />
  <rect x="220" y="220" width="22.0" height="22.0" fill="none" stroke="#3d3d5c" stroke-width="0.3" fill-opacity="0.3" stroke-opacity="0.3" />
  <rect x="220" y="220" width="22.0" height="22.0" fill="#ffe66d" fill-opacity="0.5" stroke-opacity="0.5" />
  <rect x="242" y="220" width="22.0" height="22.0" fill="none" stroke="#3d3d5c" stroke-width="0.3" fill-opacity="0.3" stroke-opacity="0.3" />
  <rect x="0" y="242" width="22.0" height="22.0" fill="none" stroke="#3d3d5c" stroke-width="0.3" fill-opacity="0.3" stroke-opacity="0.3" />
  <rect x="22" y="242" width="22.0" height="22.0" fill="none" stroke="#3d3d5c" stroke-width="0.3" fill-opacity="0.3" stroke-opacity="0.3" />
  <rect x="44" y="242" width="22.0" height="22.0" fill="none" stroke="#3d3d5c" stroke-width="0.3" fill-opacity="0.3" stroke-opacity="0.3" />
  <rect x="66" y="242" width="22.0" height="22.0" fill="none" stroke="#3d3d5c" stroke-width="0.3" fill-opacity="0.3" stroke-opacity="0.3" />
  <rect x="88" y="242" width="22.0" height="22.0" fill="none" stroke="#3d3d5c" stroke-width="0.3" fill-opacity="0.3" stroke-opacity="0.3" />
  <rect x="110" y="242" width="22.0" height="22.0" fill="none" stroke="#3d3d5c" stroke-width="0.3" fill-opacity="0.3" stroke-opacity="0.3" />
  <rect x="132" y="242" width="22.0" height="22.0" fill="none" stroke="#3d3d5c" stroke-width="0.3" fill-opacity="0.3" stroke-opacity="0.3" />
  <rect x="154" y="242" width="22.0" height="22.0" fill="none" stroke="#3d3d5c" stroke-width="0.3" fill-opacity="0.3" stroke-opacity="0.3" />
  <rect x="176" y="242" width="22.0" height="22.0" fill="none" stroke="#3d3d5c" stroke-width="0.3" fill-opacity="0.3" stroke-opacity="0.3" />
  <rect x="198" y="242" width="22.0" height="22.0" fill="none" stroke="#3d3d5c" stroke-width="0.3" fill-opacity="0.3" stroke-opacity="0.3" />
  <rect x="220" y="242" width="22.0" height="22.0" fill="none" stroke="#3d3d5c" stroke-width="0.3" fill-opacity="0.3" stroke-opacity="0.3" />
  <rect x="242" y="242" width="22.0" height="22.0" fill="none" stroke="#3d3d5c" stroke-width="0.3" fill-opacity="0.3" stroke-opacity="0.3" />
  <rect x="242" y="242" width="22.0" height="22.0" fill="#ffe66d" fill-opacity="0.5" stroke-opacity="0.5" />
</svg>