<?xml version="1.0" encoding="UTF-8"?>
<svg xmlns="http://www.w3.org/2000/svg" width="330" height="330" viewBox="0 0 330 330">
  <rect width="100%" height="100%" fill="#1a1a2e" />
  <circle cx="11" cy="11" r="2.2" fill="#ff6b6b" opacity="0.5" />
  <circle cx="33" cy="11" r="2.2" fill="#ff6b6b" opacity="0.535714" />
  <circle cx="55" cy="11" r="2.2" fill="#ff6b6b" opacity="0.571429" />
  <circle cx="77" cy="11" r="2.2" fill="#ff6b6b" opacity="0.607143" />
  <circle cx="99" cy="11" r="2.2" fill="#ff6b6b" opacity="0.642857" />
  <circle cx="121" cy="11" r="2.2" fill="#ff6b6b" opacity="0.678571" />
  <circle cx="143" cy="11" r="2.2" fill="#ff6b6b" opacity="0.714286" />
  <circle cx="165" cy="11" r="2.2" fill="#ff6b6b" opacity="0.75" />
  <circle cx="187" cy="11" r="2.2" fill="#ff6b6b" opacity="0.785714" />
  <circle cx="209" cy="11" r="2.2" fill="#ff6b6b" opacity="0.821429" />
  <circle cx="231" cy="11" r="2.2" fill="#ff6b6b" opacity="0.857143" />
  <circle cx="253" cy="11" r="2.2" fill="#ff6b6b" opacity="0.892857" />
  <circle cx="275" cy="11" r="2.2" fill="#ff6b6b" opacity="0.928571" />
  <circle cx="297" cy="11" r="2.2" fill="#ff6b6b" opacity="0.964286" />
  <circle cx="319" cy="11" r="2.2" fill="#ff6b6b" />
  <circle cx="11" cy="33" r="2.2" fill="#ff6b6b" opacity="0.5" />
  <circle cx="33" cy="33" r="2.23929" fill="#ff6b6b" opacity="0.535714" />
  <circle cx="55" cy="33" r="2.27857" fill="#ff6b6b" opacity="0.571429" />
  <circle cx="77" cy="33" r="2.31786" fill="#ff6b6b" opacity="0.607143" />
  <circle cx="99" cy="33" r="2.35714" fill="#ff6b6b" opacity="0.642857" />
  <circle cx="121" cy="33" r="2.39643" fill="#ff6b6b" opacity="0.678571" />
  <circle cx="143" cy="33" r="2.43571" fill="#ff6b6b" opacity="0.714286" />
  <circle cx="165" cy="33" r="2.475" fill="#ff6b6b" opacity="0.75" />
  <circle cx="187" cy="33" r="2.51429" fill="#ff6b6b" opacity="0.785714" />
  <circle cx="209" cy="33" r="2.55357" fill="#ff6b6b" opacity="0.821429" />
  <circle cx="231" cy="33" r="2.59286" fill="#ff6b6b" opacity="0.857143" />
  <circle cx="253" cy="33" r="2.63214" fill="#ff6b6b" opacity="0.892857" />
  <circle cx="275" cy="33" r="2.67143" fill="#ff6b6b" opacity="0.928571" />
  <circle cx="297" cy="33" r="2.71071" fill="#ff6b6b" opacity="0.964286" />
  <circle cx="319" cy="33" r="2.75" fill="#ff6b6b" />
  <circle cx="11" cy="55" r="2.2" fill="#ff6b6b" opacity="0.5" />
  <circle cx="33" cy="55" r="2.27857" fill="#ff6b6b" opacity="0.535714" />
  <circle cx="55" cy="55" r="2.35714" fill="#ff6b6b" opacity="0.571429" />
  <circle cx="77" cy="55" r="2.43571" fill="#ff6b6b" opacity="0.607143" />
  <circle cx="99" cy="55" r="2.51429" fill="#ff6b6b" opacity="0.642857" />
  <circle cx="121" cy="55" r="2.59286" fill="#ff6b6b" opacity="0.678571" />
  <circle cx="143" cy="55" r="2.67143" fill="#ff6b6b" opacity="0.714286" />
  <circle cx="165" cy="55" r="2.75" fill="#ff6b6b" opacity="0.75" />
  <circle cx="187" cy="55" r="2.82857" fill="#ff6b6b" opacity="0.785714" />
  <circle cx="209" cy="55" r="2.90714" fill="#ff6b6b" opacity="0.821429" />
  <circle cx="231" cy="55" r="2.98571" fill="#ff6b6b" opacity="0.857143" />
  <circle cx="253" cy="55" r="3.06429" fill="#ff6b6b" opacity="0.892857" />
  <circle cx="275" cy="55" r="3.14286" fill="#ff6b6b" opacity="0.928571" />
  <circle cx="297" cy="55" r="3.22143" fill="#ff6b6b" opacity="0.964286" />
  <circle cx="319" cy="55" r="3.3" fill="#ff6b6b" />
  <circle cx="11" cy="77" r="2.2" fill="#ff6b6b" opacity="0.5" />
  <circle cx="33" cy="77" r="2.31786" fill="#ff6b6b" opacity="0.535714" />
  <circle cx="55" cy="77" r="2.43571" fill="#ff6b6b" opacity="0.571429" />
  <circle cx="77" cy="77" r="2.55357" fill="#ff6b6b" opacity="0.607143" />
  <circle cx="99" cy="77" r="2.67143" fill="#ff6b6b" opacity="0.642857" />
  <circle cx="121" cy="77" r="2.78929" fill="#ff6b6b" opacity="0.678571" />
  <circle cx="143" cy="77" r="2.90714" fill="#ff6b6b" opacity="0.714286" />
  <circle cx="165" cy="77" r="3.025" fill="#ff6b6b" opacity="0.75" />
  <circle cx="187" cy="77" r="3.14286" fill="#ff6b6b" opacity="0.785714" />
  <circle cx="209" cy="77" r="3.26071" fill="#ff6b6b" opacity="0.821429" />
  <circle cx="231" cy="77" r="3.37857" fill="#ff6b6b" opacity="0.857143" />
  <circle cx="253" cy="77" r="3.49643" fill="#ff6b6b" opacity="0.892857" />
  <circle cx="275" cy="77" r="3.61429" fill="#ff6b6b" opacity="0.928571" />
  <circle cx="297" cy="77" r="3.73214" fill="#ff6b6b" opacity="0.964286" />
  <circle cx="319" cy="77" r="3.85" fill="#ff6b6b" />
  <circle cx="11" cy="99" r="2.2" fill="#ff6b6b" opacity="0.5" />
  <circle cx="33" cy="99" r="2.35714" fill="#ff6b6b" opacity="0.535714" />
  <circle cx="55" cy="99" r="2.51429" fill="#ff6b6b" opacity="0.571429" />
  <circle cx="77" cy="99" r="2.67143" fill="#ff6b6b" opacity="0.607143" />
  <circle cx="99" cy="99" r="2.82857" fill="#ff6b6b" opacity="0.642857" />
  <circle cx="121" cy="99" r="2.98571" fill="#ff6b6b" opacity="0.678571" />
  <circle cx="143" cy="99" r="3.14286" fill="#ff6b6b" opacity="0.714286" />
  <circle cx="165" cy="99" r="3.3" fill="#ff6b6b" opacity="0.75" />
  <circle cx="187" cy="99" r="3.45714" fill="#ff6b6b" opacity="0.785714" />
  <circle cx="209" cy="99" r="3.61429" fill="#ff6b6b" opacity="0.821429" />
  <circle cx="231" cy="99" r="3.77143" fill="#ff6b6b" opacity="0.857143" />
  <circle cx="253" cy="99" r="3.92857" fill="#ff6b6b" opacity="0.892857" />
  <circle cx="275" cy="99" r="4.08571" fill="#ff6b6b" opacity="0.928571" />
  <circle cx="297" cy="99" r="4.24286" fill="#ff6b6b" opacity="0.964286" />
  <circle cx="319" cy="99" r="4.4" fill="#ff6b6b" />
  <circle cx="11" cy="121" r="2.2" fill="#ff6b6b" opacity="0.5" />
  <circle cx="33" cy="121" r="2.39643" fill="#ff6b6b" opacity="0.535714" />
  <circle cx="55" cy="121" r="2.59286" fill="#ff6b6b" opacity="0.571429" />
  <circle cx="77" cy="121" r="2.78929" fill="#ff6b6b" opacity="0.607143" />
  <circle cx="99" cy="121" r="2.98571" fill="#ff6b6b" opacity="0.642857" />
  <circle cx="121" cy="121" r="3.18214" fill="#ff6b6b" opacity="0.678571" />
  <circle cx="143" cy="121" r="3.37857" fill="#ff6b6b" opacity="0.714286" />
  <circle cx="165" cy="121" r="3.575" fill="#ff6b6b" opacity="0.75" />
  <circle cx="187" cy="121" r="3.77143" fill="#ff6b6b" opacity="0.785714" />
  <circle cx="209" cy="121" r="3.96786" fill="#ff6b6b" opacity="0.821429" />
  <circle cx="231" cy="121" r="4.16429" fill="#ff6b6b" opacity="0.857143" />
  <circle cx="253" cy="121" r="4.36071" fill="#ff6b6b" opacity="0.892857" />
  <circle cx="275" cy="121" r="4.55714" fill="#ff6b6b" opacity="0.928571" />
  <circle cx="297" cy="121" r="4.75357" fill="#ff6b6b" opacity="0.964286" />
  <circle cx="319" cy="121" r="4.95" fill="#ff6b6b" />
  <circle cx="11" cy="143" r="2.2" fill="#ff6b6b" opacity="0.5" />
  <circle cx="33" cy="143" r="2.43571" fill="#ff6b6b" opacity="0.535714" />
  <circle cx="55" cy="143" r="2.67143" fill="#ff6b6b" opacity="0.571429" />
  <circle cx="77" cy="143" r="2.90714" fill="#ff6b6b" opacity="0.607143" />
  <circle cx="99" cy="143" r="3.14286" fill="#ff6b6b" opacity="0.642857" />
  <circle cx="121" cy="143" r="3.37857" fill="#ff6b6b" opacity="0.678571" />
  <circle cx="143" cy="143" r="3.61429" fill="#ff6b6b" opacity="0.714286" />
  <circle cx="165" cy="143" r="3.85" fill="#ff6b6b" opacity="0.75" />
  <circle cx="187" cy="143" r="4.08571" fill="#ff6b6b" opacity="0.785714" />
  <circle cx="209" cy="143" r="4.32143" fill="#ff6b6b" opacity="0.821429" />
  <circle cx="231" cy="143" r="4.55714" fill="#ff6b6b" opacity="0.857143" />
  <circle cx="253" cy="143" r="4.79286" fill="#ff6b6b" opacity="0.892857" />
  <circle cx="275" cy="143" r="5.02857" fill="#ff6b6b" opacity="0.928571" />
  <circle cx="297" cy="143" r="5.26429" fill="#ff6b6b" opacity="0.964286" />
  <circle cx="319" cy="143" r="5.5" fill="#ff6b6b" />
  <circle cx="11" cy="165" r="2.2" fill="#ff6b6b" opacity="0.5" />
  <circle cx="33" cy="165" r="2.475" fill="#ff6b6b" opacity="0.535714" />
  <circle cx="55" cy="165" r="2.75" fill="#ff6b6b" opacity="0.571429" />
  <circle cx="77" cy="165" r="3.025" fill="#ff6b6b" opacity="0.607143" />
  <circle cx="99" cy="165" r="3.3" fill="#ff6b6b" opacity="0.642857" />
  <circle cx="121" cy="165" r="3.575" fill="#ff6b6b" opacity="0.678571" />
  <circle cx="143" cy="165" r="3.85" fill="#ff6b6b" opacity="0.714286" />
  <circle cx="165" cy="165" r="4.125" fill="#ff6b6b" opacity="0.75" />
  <circle cx="187" cy="165" r="4.4" fill="#ff6b6b" opacity="0.785714" />
  <circle cx="209" cy="165" r="4.675" fill="#ff6b6b" opacity="0.821429" />
  <circle cx="231" cy="165" r="4.95" fill="#ff6b6b" opacity="0.857143" />
  <circle cx="253" cy="165" r="5.225" fill="#ff6b6b" opacity="0.892857" />
  <circle cx="275" cy="165" r="5.5" fill="#ff6b6b" opacity="0.928571" />
  <circle cx="297" cy="165" r="5.775" fill="#ff6b6b" opacity="0.964286" />
  <circle cx="319" cy="165" r="6.05" fill="#ff6b6b" />
  <circle cx="11" cy="187" r="2.2" fill="#ff6b6b" opacity="0.5" />
  <circle cx="33" cy="187" r="2.51429" fill="#ff6b6b" opacity="0.535714" />
  <circle cx="55" cy="187" r="2.82857" fill="#ff6b6b" opacity="0.571429" />
  <circle cx="77" cy="187" r="3.14286" fill="#ff6b6b" opacity="0.607143" />
  <circle cx="99" cy="187" r="3.45714" fill="#ff6b6b" opacity="0.642857" />
  <circle cx="121" cy="187" r="3.77143" fill="#ff6b6b" opacity="0.678571" />
  <circle cx="143" cy="187" r="4.08571" fill="#ff6b6b" opacity="0.714286" />
  <circle cx="165" cy="187" r="4.4" fill="#ff6b6b" opacity="0.75" />
  <circle cx="187" cy="187" r="4.71429" fill="#ff6b6b" opacity="0.785714" />
  <circle cx="209" cy="187" r="5.02857" fill="#ff6b6b" opacity="0.821429" />
  <circle cx="231" cy="187" r="5.34286" fill="#ff6b6b" opacity="0.857143" />
  <circle cx="253" cy="187" r="5.65714" fill="#ff6b6b" opacity="0.892857" />
  <circle cx="275" cy="187" r="5.97143" fill="#ff6b6b" opacity="0.928571" />
  <circle cx="297" cy="187" r="6.28571" fill="#ff6b6b" opacity="0.964286" />
  <circle cx="319" cy="187" r="6.6" fill="#ff6b6b" />
  <circle cx="11" cy="209" r="2.2" fill="#ff6b6b" opacity="0.5" />
  <circle cx="33" cy="209" r="2.55357" fill="#ff6b6b" opacity="0.535714" />
  <circle cx="55" cy="209" r="2.90714" fill="#ff6b6b" opacity="0.571429" />
  <circle cx="77" cy="209" r="3.26071" fill="#ff6b6b" opacity="0.607143" />
  <circle cx="99" cy="209" r="3.61429" fill="#ff6b6b" opacity="0.642857" />
  <circle cx="121" cy="209" r="3.96786" fill="#ff6b6b" opacity="0.678571" />
  <circle cx="143" cy="209" r="4.32143" fill="#ff6b6b" opacity="0.714286" />
  <circle cx="165" cy="209" r="4.675" fill="#ff6b6b" opacity="0.75" />
  <circle cx="187" cy="209" r="5.02857" fill="#ff6b6b" opacity="0.785714" />
  <circle cx="209" cy="209" r="5.38214" fill="#ff6b6b" opacity="0.821429" />
  <circle cx="231" cy="209" r="5.73571" fill="#ff6b6b" opacity="0.857143" />
  <circle cx="253" cy="209" r="6.08929" fill="#ff6b6b" opacity="0.892857" />
  <circle cx="275" cy="209" r="6.44286" fill="#ff6b6b" opacity="0.928571" />
  <circle cx="297" cy="209" r="6.79643" fill="#ff6b6b" opacity="0.964286" />
  <circle cx="319" cy="209" r="7.15" fill="#ff6b6b" />
  <circle cx="11" cy="231" r="2.2" fill="#ff6b6b" opacity="0.5" />
  <circle cx="33" cy="231" r="2.59286" fill="#ff6b6b" opacity="0.535714" />
  <circle cx="55" cy="231" r="2.98571" fill="#ff6b6b" opacity="0.571429" />
  <circle cx="77" cy="231" r="3.37857" fill="#ff6b6b" opacity="0.607143" />
  <circle cx="99" cy="231" r="3.77143" fill="#ff6b6b" opacity="0.642857" />
  <circle cx="121" cy="231" r="4.16429" fill="#ff6b6b" opacity="0.678571" />
  <circle cx="143" cy="231" r="4.55714" fill="#ff6b6b" opacity="0.714286" />
  <circle cx="165" cy="231" r="4.95" fill="#ff6b6b" opacity="0.75" />
  <circle cx="187" cy="231" r="5.34286" fill="#ff6b6b" opacity="0.785714" />
  <circle cx="209" cy="231" r="5.73571" fill="#ff6b6b" opacity="0.821429" />
  <circle cx="231" cy="231" r="6.12857" fill="#ff6b6b" opacity="0.857143" />
  <circle cx="253" cy="231" r="6.52143" fill="#ff6b6b" opacity="0.892857" />
  <circle cx="275" cy="231" r="6.91429" fill="#ff6b6b" opacity="0.928571" />
  <circle cx="297" cy="231" r="7.30714" fill="#ff6b6b" opacity="0.964286" />
  <circle cx="319" cy="231" r="7.7" fill="#ff6b6b" />
  <circle cx="11" cy="253" r="2.2" fill="#ff6b6b" opacity="0.5" />
  <circle cx="33" cy="253" r="2.63214" fill="#ff6b6b" opacity="0.535714" />
  <circle cx="55" cy="253" r="3.06429" fill="#ff6b6b" opacity="0.571429" />
  <circle cx="77" cy="253" r="3.49643" fill="#ff6b6b" opacity="0.607143" />
  <circle cx="99" cy="253" r="3.92857" fill="#ff6b6b" opacity="0.642857" />
  <circle cx="121" cy="253" r="4.36071" fill="#ff6b6b" opacity="0.678571" />
  <circle cx="143" cy="253" r="4.79286" fill="#ff6b6b" opacity="0.714286" />
  <circle cx="165" cy="253" r="5.225" fill="#ff6b6b" opacity="0.75" />
  <circle cx="187" cy="253" r="5.65714" fill="#ff6b6b" opacity="0.785714" />
  <circle cx="209" cy="253" r="6.08929" fill="#ff6b6b" opacity="0.821429" />
  <circle cx="231" cy="253" r="6.52143" fill="#ff6b6b" opacity="0.857143" />
  <circle cx="253" cy="253" r="6.95357" fill="#ff6b6b" opacity="0.892857" />
  <circle cx="275" cy="253" r="7.38571" fill="#ff6b6b" opacity="0.928571" />
  <circle cx="297" cy="253" r="7.81786" fill="#ff6b6b" opacity="0.964286" />
  <circle cx="319" cy="253" r="8.25" fill="#ff6b6b" />
  <circle cx="11" cy="275" r="2.2" fill="#ff6b6b" opacity="0.5" />
  <circle cx="33" cy="275" r="2.67143" fill="#ff6b6b" opacity="0.535714" />
  <circle cx="55" cy="275" r="3.14286" fill="#ff6b6b" opacity="0.571429" />
  <circle cx="77" cy="275" r="3.61429" fill="#ff6b6b" opacity="0.607143" />
  <circle cx="99" cy="275" r="4.08571" fill="#ff6b6b" opacity="0.642857" />
  <circle cx="121" cy="275" r="4.55714" fill="#ff6b6b" opacity="0.678571" />
  <circle cx="143" cy="275" r="5.02857" fill="#ff6b6b" opacity="0.714286" />
  <circle cx="165" cy="275" r="5.5" fill="#ff6b6b" opacity="0.75" />
  <circle cx="187" cy="275" r="5.97143" fill="#ff6b6b" opacity="0.785714" />
  <circle cx="209" cy="275" r="6.44286" fill="#ff6b6b" opacity="0.821429" />
  <circle cx="231" cy="275" r="6.91429" fill="#ff6b6b" opacity="0.857143" />
  <circle cx="253" cy="275" r="7.38571" fill="#ff6b6b" opacity="0.892857" />
  <circle cx="275" cy="275" r="7.85714" fill="#ff6b6b" opacity="0.928571" />
  <circle cx="297" cy="275" r="8.32857" fill="#ff6b6b" opacity="0.964286" />
  <circle cx="319" cy="275" r="8.8" fill="#ff6b6b" />
  <circle cx="11" cy="297" r="2.2" fill="#ff6b6b" opacity="0.5" />
  <circle cx="33" cy="297" r="2.71071" fill="#ff6b6b" opacity="0.535714" />
  <circle cx="55" cy="297" r="3.22143" fill="#ff6b6b" opacity="0.571429" />
  <circle cx="77" cy="297" r="3.73214" fill="#ff6b6b" opacity="0.607143" />
  <circle cx="99" cy="297" r="4.24286" fill="#ff6b6b" opacity="0.642857" />
  <circle cx="121" cy="297" r="4.75357" fill="#ff6b6b" opacity="0.678571" />
  <circle cx="143" cy="297" r="5.26429" fill="#ff6b6b" opacity="0.714286" />
  <circle cx="165" cy="297" r="5.775" fill="#ff6b6b" opacity="0.75" />
  <circle cx="187" cy="297" r="6.28571" fill="#ff6b6b" opacity="0.785714" />
  <circle cx="209" cy="297" r="6.79643" fill="#ff6b6b" opacity="0.821429" />
  <circle cx="231" cy="297" r="7.30714" fill="#ff6b6b" opacity="0.857143" />
  <circle cx="253" cy="297" r="7.81786" fill="#ff6b6b" opacity="0.892857" />
  <circle cx="275" cy="297" r="8.32857" fill="#ff6b6b" opacity="0.928571" />
  <circle cx="297" cy="297" r="8.83929" fill="#ff6b6b" opacity="0.964286" />
  <circle cx="319" cy="297" r="9.35" fill="#ff6b6b" />
  <circle cx="11" cy="319" r="2.2" fill="#ff6b6b" opacity="0.5" />
  <circle cx="33" cy="319" r="2.75" fill="#ff6b6b" opacity="0.535714" />
  <circle cx="55" cy="319" r="3.3" fill="#ff6b6b" opacity="0.571429" />
  <circle cx="77" cy="319" r="3.85" fill="#ff6b6b" opacity="0.607143" />
  <circle cx="99" cy="319" r="4.4" fill="#ff6b6b" opacity="0.642857" />
  <circle cx="121" cy="319" r="4.95" fill="#ff6b6b" opacity="0.678571" />
  <circle cx="143" cy="319" r="5.5" fill="#ff6b6b" opacity="0.714286" />
  <circle cx="165" cy="319" r="6.05" fill="#ff6b6b" opacity="0.75" />
  <circle cx="187" cy="319" r="6.6" fill="#ff6b6b" opacity="0.785714" />
  <circle cx="209" cy="319" r="7.15" fill="#ff6b6b" opacity="0.821429" />
  <circle cx="231" cy="319" r="7.7" fill="#ff6b6b" opacity="0.857143" />
  <circle cx="253" cy="319" r="8.25" fill="#ff6b6b" opacity="0.892857" />
  <circle cx="275" cy="319" r="8.8" fill="#ff6b6b" opacity="0.928571" />
  <circle cx="297" cy="319" r="9.35" fill="#ff6b6b" opacity="0.964286" />
  <circle cx="319" cy="319" r="9.9" fill="#ff6b6b" />
</svg>