<?xml version="1.0" encoding="UTF-8"?>
<svg xmlns="http://www.w3.org/2000/svg" width="264" height="264" viewBox="0 0 264 264">
  <rect width="100%" height="100%" fill="#1a1a2e" />
  <rect x="0.15" y="0.15" width="21.7" height="21.7" fill="none" stroke="#3d3d5c" stroke-width="0.3" fill-opacity="0.3" stroke-opacity="0.3" />
  <rect x="0" y="0" width="22" height="22" fill="#ffe66d" fill-opacity="0.5" stroke-opacity="0.5" />
  <rect x="22.15" y="0.15" width="21.7" height="21.7" fill="none" stroke="#3d3d5c" stroke-width="0.3" fill-opacity="0.3" stroke-opacity="0.3" />
  <rect x="44.15" y="0.15" width="21.7" height="21.7" fill="none" stroke="#3d3d5c" stroke-width="0.3" fill-opacity="0.3" stroke-opacity="0.3" />
  <rect x="66.15" y="0.15" width="21.7" height="21.7" fill="none" stroke="#3d3d5c" stroke-width="0.3" fill-opacity="0.3" stroke-opacity="0.3" />
  <rect x="66" y="0" width="22" height="22" fill="#ffe66d" fill-opacity="0.5" stroke-opacity="0.5" />
  <rect x="88.15" y="0.15" width="21.7" height="21.7" fill="none" stroke="#3d3d5c" stroke-width="0.3" fill-opacity="0.3" stroke-opacity="0.3" />
  <rect x="110.15" y="0.15" width="21.7" height="21.7" fill="none" stroke="#3d3d5c" stroke-width="0.3" fill-opacity="0.3" stroke-opacity="0.3" />
  <rect x="132.15" y="0.15" width="21.7" height="21.7" fill="none" stroke="#3d3d5c" stroke-width="0.3" fill-opacity="0.3" stroke-opacity="0.3" />
  <rect x="132" y="0" width="22" height="22" fill="#ffe66d" fill-opacity="0.5" stroke-opacity="0.5" />
  <rect x="154.15" y="0.15" width="21.7" height="21.7" fill="none" stroke="#3d3d5c" stroke-width="0.3" fill-opacity="0.3" stroke-opacity="0.3" />
  <rect x="176.15" y="0.15" width="21.7" height="21.7" fill="none" stroke="#3d3d5c" stroke-width="0.3" fill-opacity="0.3" stroke-opacity="0.3" />
  <rect x="198.15" y="0.15" width="21.7" height="21.7" fill="none" stroke="#3d3d5c" stroke-width="0.3" fill-opacity="0.3" stroke-opacity="0.3" />
  <rect x="198" y="0" width="22" height="22" fill="#ffe66d" fill-opacity="0.5" stroke-opacity="0.5" />
  <rect x="220.15" y="0.15" width="21.7" height="21.7" fill="none" stroke="#3d3d5c" stroke-width="0.3" fill-opacity="0.3" stroke-opacity="0.3" />
  <rect x="242.15" y="0.15" width="21.7" height="21.7" fill="none" stroke="#3d3d5c" stroke-width="0.3" fill-opacity="0.3" stroke-opacity="0.3" />
  <rect x="0.15" y="22.15" width="21.7" height="21.7" fill="none" stroke="#3d3d5c" stroke-width="0.3" fill-opacity="0.3" stroke-opacity="0.3" />
  <rect x="22.15" y="22.15" width="21.7" height="21.7" fill="none" stroke="#3d3d5c" stroke-width="0.3" fill-opacity="0.3" stroke-opacity="0.3" />
  <rect x="22" y="22" width="22" height="22" fill="#ffe66d" fill-opacity="0.5" stroke-opacity="0.5" />
  <rect x="44.15" y="22.15" width="21.7" height="21.7" fill="none" stroke="#3d3d5c" stroke-width="0.3" fill-opacity="0.3" stroke-opacity="0.3" />
  <rect x="66.15" y="22.15" width="21.7" height="21.7" fill="none" stroke="#3d3d5c" stroke-width="0.3" fill-opacity="0.3" stroke-opacity="0.3" />
  <rect x="88.15" y="22.15" width="21.7" height="21.7" fill="none" stroke="#3d3d5c" stroke-width="0.3" fill-opacity="0.3" stroke-opacity="0.3" />
  <rect x="88" y="22" width="22" height="22" fill="#ffe66d" fill-opacity="0.5" stroke-opacity="0.5" />
  <rect x="110.15" y="22.15" width="21.7" height="21.7" fill="none" stroke="#3d3d5c" stroke-width="0.3" fill-opacity="0.3" stroke-opacity="0.3" />
  <rect x="132.15" y="22.15" width="21.7" height="21.7" fill="none" stroke="#3d3d5c" stroke-width="0.3" fill-opacity="0.3" stroke-opacity="0.3" />
  <rect x="154.15" y="22.15" width="21.7" height="21.7" fill="none" stroke="#3d3d5c" stroke-width="0.3" fill-opacity="0.3" stroke-opacity="0.3" />
  <rect x="154" y="22" width="22" height="22" fill="#ffe66d" fill-opacity="0.5" stroke-opacity="0.5" />
  <rect x="176.15" y="22.15" width="21.7" height="21.7" fill="none" stroke="#3d3d5c" stroke-width="0.3" fill-opacity="0.3" stroke-opacity="0.3" />
  <rect x="198.15" y="22.15" width="21.7" height="21.7" fill="none" stroke="#3d3d5c" stroke-width="0.3" fill-opacity="0.3" stroke-opacity="0.3" />
  <rect x="220.15" y="22.15" width="21.7" height="21.7" fill="none" stroke="#3d3d5c" stroke-width="0.3" fill-opacity="0.3" stroke-opacity="0.3" />
  <rect x="220" y="22" width="22" height="22" fill="#ffe66d" fill-opacity="0.5" stroke-opacity="0.5" />
  <rect x="242.15" y="22.15" width="21.7" height="21.7" fill="none" stroke="#3d3d5c" stroke-width="0.3" fill-opacity="0.3" stroke-opacity="0.3" />
  <rect x="0.15" y="44.15" width="21.7" height="21.7" fill="none" stroke="#3d3d5c" stroke-width="0.3" fill-opacity="0.3" stroke-opacity="0.3" />
  <rect x="22.15" y="44.15" width="21.7" height="21.7" fill="none" stroke="#3d3d5c" stroke-width="0.3" fill-opacity="0.3" stroke-opacity="0.3" />
  <rect x="44.15" y="44.15" width="21.7" height="21.7" fill="none" stroke="#3d3d5c" stroke-width="0.3" fill-opacity="0.3" stroke-opacity="0.3" />
  <rect x="44" y="44" width="22" height="22" fill="#ffe66d" fill-opacity="0.5" stroke-opacity="0.5" />
  <rect x="66.15" y="44.15" width="21.7" height="21.7" fill="none" stroke="#3d3d5c" stroke-width="0.3" fill-opacity="0.3" stroke-opacity="0.3" />
  <rect x="88.15" y="44.15" width="21.7" height="21.7" fill="none" stroke="#3d3d5c" stroke-width="0.3" fill-opacity="0.3" stroke-opacity="0.3" />
  <rect x="110.15" y="44.15" width="21.7" height="21.7" fill="none" stroke="#3d3d5c" stroke-width="0.3" fill-opacity="0.3" stroke-opacity="0.3" />
  <rect x="110" y="44" width="22" height="22" fill="#ffe66d" fill-opacity="0.5" stroke-opacity="0.5" />
  <rect x="132.15" y="44.15" width="21.7" height="21.7" fill="none" stroke="#3d3d5c" stroke-width="0.3" fill-opacity="0.3" stroke-opacity="0.3" />
  <rect x="154.15" y="44.15" width="21.7" height="21.7" fill="none" stroke="#3d3d5c" stroke-width="0.3" fill-opacity="0.3" stroke-opacity="0.3" />
  <rect x="176.15" y="44.15" width="21.7" height="21.7" fill="none" stroke="#3d3d5c" stroke-width="0.3" fill-opacity="0.3" stroke-opacity="0.3" />
  <rect x="176" y="44" width="22" height="22" fill="#ffe66d" fill-opacity="0.5" stroke-opacity="0.5" />
  <rect x="198.15" y="44.15" width="21.7" height="21.7" fill="none" stroke="#3d3d5c" stroke-width="0.3" fill-opacity="0.3" stroke-opacity="0.3" />
  <rect x="220.15" y="44.15" width="21.7" height="21.7" fill="none" stroke="#3d3d5c" stroke-width="0.3" fill-opacity="0.3" stroke-opacity="0.3" />
  <rect x="242.15" y="44.15" width="21.7" height="21.7" fill="none" stroke="#3d3d5c" stroke-width="0.3" fill-opacity="0.3" stroke-opacity="0.3" />
  <rect x="242" y="44" width="22" height="22" fill="#ffe66d" fill-opacity="0.5" stroke-opacity="0.5" />
  <rect x="0.15" y="66.15" width="21.7" height="21.7" fill="none" stroke="#3d3d5c" stroke-width="0.3" fill-opacity="0.3" stroke-opacity="0.3" />
  <rect x="22.15" y="66.15" width="21.7" height="21.7" fill="none" stroke="#3d3d5c" stroke-width="0.3" fill-opacity="0.3" stroke-opacity="0.3" />
  <rect x="44.15" y="66.15" width="21.7" height="21.7" fill="none" stroke="#3d3d5c" stroke-width="0.3" fill-opacity="0.3" stroke-opacity="0.3" />
  <rect x="66.15" y="66.15" width="21.7" height="21.7" fill="none" stroke="#3d3d5c" stroke-width="0.3" fill-opacity="0.3" stroke-opacity="0.3" />
  <rect x="66" y="66" width="22" height="22" fill="#ffe66d" fill-opacity="0.5" stroke-opacity="0.5" />
  <rect x="88.15" y="66.15" width="21.7" height="21.7" fill="none" stroke="#3d3d5c" stroke-width="0.3" fill-opacity="0.3" stroke-opacity="0.3" />
  <rect x="110.15" y="66.15" width="21.7" height="21.7" fill="none" stroke="#3d3d5c" stroke-width="0.3" fill-opacity="0.3" stroke-opacity="0.3" />
  <rect x="132.15" y="66.15" width="21.7" height="21.7" fill="none" stroke="#3d3d5c" stroke-width="0.3" fill-opacity="0.3" stroke-opacity="0.3" />
  <rect x="132" y="66" width="22" height="22" fill="#ffe66d" fill-opacity="0.5" stroke-opacity="0.5" />
  <rect x="154.15" y="66.15" width="21.7" height="21.7" fill="none" stroke="#3d3d5c" stroke-width="0.3" fill-opacity="0.3" stroke-opacity="0.3" />
  <rect x="176.15" y="66.15" width="21.7" height="21.7" fill="none" stroke="#3d3d5c" stroke-width="0.3" fill-opacity="0.3" stroke-opacity="0.3" />
  <rect x="198.15" y="66.15" width="21.7" height="21.7" fill="none" stroke="#3d3d5c" stroke-width="0.3" fill-opacity="0.3" stroke-opacity="0.3" />
  <rect x="198" y="66" width="22" height="22" fill="#ffe66d" fill-opacity="0.5" stroke-opacity="0.5" />
  <rect x="220.15" y="66.15" width="21.7" height="21.7" fill="none" stroke="#3d3d5c" stroke-width="0.3" fill-opacity="0.3" stroke-opacity="0.3" />
  <rect x="242.15" y="66.15" width="21.7" height="21.7" fill="none" stroke="#3d3d5c" stroke-width="0.3" fill-opacity="0.3" stroke-opacity="0.3" />
  <rect x="0.15" y="88.15" width="21.7" height="21.7" fill="none" stroke="#3d3d5c" stroke-width="0.3" fill-opacity="0.3" stroke-opacity="0.3" />
  <rect x="22.15" y="88.15" width="21.7" height="21.7" fill="none" stroke="#3d3d5c" stroke-width="0.3" fill-opacity="0.3" stroke-opacity="0.3" />
  <rect x="44.15" y="88.15" width="21.7" height="21.7" fill="none" stroke="#3d3d5c" stroke-width="0.3" fill-opacity="0.3" stroke-opacity="0.3" />
  <rect x="66.15" y="88.15" width="21.7" height="21.7" fill="none" stroke="#3d3d5c" stroke-width="0.3" fill-opacity="0.3" stroke-opacity="0.3" />
  <rect x="88.15" y="88.15" width="21.7" height="21.7" fill="none" stroke="#3d3d5c" stroke-width="0.3" fill-opacity="0.3" stroke-opacity="0.3" />
  <rect x="88" y="88" width="22" height="22" fill="#ffe66d" fill-opacity="0.5" stroke-opacity="0.5" />
  <rect x="110.15" y="88.15" width="21.7" height="21.7" fill="none" stroke="#3d3d5c" stroke-width="0.3" fill-opacity="0.3" stroke-opacity="0.3" />
  <rect x="132.15" y="88.15" width="21.7" height="21.7" fill="none" stroke="#3d3d5c" stroke-width="0.3" fill-opacity="0.3" stroke-opacity="0.3" />
  <rect x="154.15" y="88.15" width="21.7" height="21.7" fill="none" stroke="#3d3d5c" stroke-width="0.3" fill-opacity="0.3" stroke-opacity="0.3" />
  <rect x="154" y="88" width="22" height="22" fill="#ffe66d" fill-opacity="0.5" stroke-opacity="0.5" />
  <rect x="176.15" y="88.15" width="21.7" height="21.7" fill="none" stroke="#3d3d5c" stroke-width="0.3" fill-opacity="0.3" stroke-opacity="0.3" />
  <rect x="198.15" y="88.15" width="21.7" height="21.7" fill="none" stroke="#3d3d5c" stroke-width="0.3" fill-opacity="0.3" stroke-opacity="0.3" />
  <rect x="220.15" y="88.15" width="21.7" height="21.7" fill="none" stroke="#3d3d5c" stroke-width="0.3" fill-opacity="0.3" stroke-opacity="0.3" />
  <rect x="220" y="88" width="22" height="22" fill="#ffe66d" fill-opacity="0.5" stroke-opacity="0.5" />
  <rect x="242.15" y="88.15" width="21.7" height="21.7" fill="none" stroke="#3d3d5c" stroke-width="0.3" fill-opacity="0.3" stroke-opacity="0.3" />
  <rect x="0.15" y="110.15" width="21.7" height="21.7" fill="none" stroke="#3d3d5c" stroke-width="0.3" fill-opacity="0.3" stroke-opacity="0.3" />
  <rect x="22.15" y="110.15" width="21.7" height="21.7" fill="none" stroke="#3d3d5c" stroke-width="0.3" fill-opacity="0.3" stroke-opacity="0.3" />
  <rect x="44.15" y="110.15" width="21.7" height="21.7" fill="none" stroke="#3d3d5c" stroke-width="0.3" fill-opacity="0.3" stroke-opacity="0.3" />
  <rect x="66.15" y="110.15" width="21.7" height="21.7" fill="none" stroke="#3d3d5c" stroke-width="0.3" fill-opacity="0.3" stroke-opacity="0.3" />
  <rect x="88.15" y="110.15" width="21.7" height="21.7" fill="none" stroke="#3d3d5c" stroke-width="0.3" fill-opacity="0.3" stroke-opacity="0.3" />
  <rect x="110.15" y="110.15" width="21.7" height="21.7" fill="none" stroke="#3d3d5c" stroke-width="0.3" fill-opacity="0.3" stroke-opacity="0.3" />
  <rect x="110" y="110" width="22" height="22" fill="#ffe66d" fill-opacity="0.5" stroke-opacity="0.5" />
  <rect x="132.15" y="110.15" width="21.7" height="21.7" fill="none" stroke="#3d3d5c" stroke-width="0.3" fill-opacity="0.3" stroke-opacity="0.3" />
  <rect x="154.15" y="110.15" width="21.7" height="21.7" fill="none" stroke="#3d3d5c" stroke-width="0.3" fill-opacity="0.3" stroke-opacity="0.3" />
  <rect x="176.15" y="110.15" width="21.7" height="21.7" fill="none" stroke="#3d3d5c" stroke-width="0.3" fill-opacity="0.3" stroke-opacity="0.3" />
  <rect x="176" y="110" width="22" height="22" fill="#ffe66d" fill-opacity="0.5" stroke-opacity="0.5" />
  <rect x="198.15" y="110.15" width="21.7" height="21.7" fill="none" stroke="#3d3d5c" stroke-width="0.3" fill-opacity="0.3" stroke-opacity="0.3" />
  <rect x="220.15" y="110.15" width="21.7" height="21.7" fill="none" stroke="#3d3d5c" stroke-width="0.3" fill-opacity="0.3" stroke-opacity="0.3" />
  <rect x="242.15" y="110.15" width="21.7" height="21.7" fill="none" stroke="#3d3d5c" stroke-width="0.3" fill-opacity="0.3" stroke-opacity="0.3" />
  <rect x="242" y="110" width="22" height="22" fill="#ffe66d" fill-opacity="0.5" stroke-opacity="0.5" />
  <rect x="0.15" y="132.15" width="21.7" height="21.7" fill="none" stroke="#3d3d5c" stroke-width="0.3" fill-opacity="0.3" stroke-opacity="0.3" />
  <rect x="22.15" y="132.15" width="21.7" height="21.7" fill="none" stroke="#3d3d5c" stroke-width="0.3" fill-opacity="0.3" stroke-opacity="0.3" />
  <rect x="44.15" y="132.15" width="21.7" height="21.7" fill="none" stroke="#3d3d5c" stroke-width="0.3" fill-opacity="0.3" stroke-opacity="0.3" />
  <rect x="66.15" y="132.15" width="21.7" height="21.7" fill="none" stroke="#3d3d5c" stroke-width="0.3" fill-opacity="0.3" stroke-opacity="0.3" />
  <rect x="88.15" y="132.15" width="21.7" height="21.7" fill="none" stroke="#3d3d5c" stroke-width="0.3" fill-opacity="0.3" stroke-opacity="0.3" />
  <rect x="110.15" y="132.15" width="21.7" height="21.7" fill="none" stroke="#3d3d5c" stroke-width="0.3" fill-opacity="0.3" stroke-opacity="0.3" />
  <rect x="132.15" y="132.15" width="21.7" height="21.7" fill="none" stroke="#3d3d5c" stroke-width="0.3" fill-opacity="0.3" stroke-opacity="0.3" />
  <rect x="132" y="132" width="22" height="22" fill="#ffe66d" fill-opacity="0.5" stroke-opacity="0.5" />
  <rect x="154.15" y="132.15" width="21.7" height="21.7" fill="none" stroke="#3d3d5c" stroke-width="0.3" fill-opacity="0.3" stroke-opacity="0.3" />
  <rect x="176.15" y="132.15" width="21.7" height="21.7" fill="none" stroke="#3d3d5c" stroke-width="0.3" fill-opacity="0.3" stroke-opacity="0.3" />
  <rect x="198.15" y="132.15" width="21.7" height="21.7" fill="none" stroke="#3d3d5c" stroke-width="0.3" fill-opacity="0.3" stroke-opacity="0.3" />
  <rect x="198" y="132" width="22" height="22" fill="#ffe66d" fill-opacity="0.5" stroke-opacity="0.5" />
  <rect x="220.15" y="132.15" width="21.7" height="21.7" fill="none" stroke="#3d3d5c" stroke-width="0.3" fill-opacity="0.3" stroke-opacity="0.3" />
  <rect x="242.15" y="132.15" width="21.7" height="21.7" fill="none" stroke="#3d3d5c" stroke-width="0.3" fill-opacity="0.3" stroke-opacity="0.3" />
  <rect x="0.15" y="154.15" width="21.7" height="21.7" fill="none" stroke="#3d3d5c" stroke-width="0.3" fill-opacity="0.3" stroke-opacity="0.3" />
  <rect x="22.15" y="154.15" width="21.7" height="21.7" fill="none" stroke="#3d3d5c" stroke-width="0.3" fill-opacity="0.3" stroke-opacity="0.3" />
  <rect x="44.15" y="154.15" width="21.7" height="21.7" fill="none" stroke="#3d3d5c" stroke-width="0.3" fill-opacity="0.3" stroke-opacity="0.3" />
  <rect x="66.15" y="154.15" width="21.7" height="21.7" fill="none" stroke="#3d3d5c" stroke-width="0.3" fill-opacity="0.3" stroke-opacity="0.3" />
  <rect x="88.15" y="154.15" width="21.7" height="21.7" fill="none" stroke="#3d3d5c" stroke-width="0.3" fill-opacity="0.3" stroke-opacity="0.3" />
  <rect x="110.15" y="154.15" width="21.7" height="21.7" fill="none" stroke="#3d3d5c" stroke-width="0.3" fill-opacity="0.3" stroke-opacity="0.3" />
  <rect x="132.15" y="154.15" width="21.7" height="21.7" fill="none" stroke="#3d3d5c" stroke-width="0.3" fill-opacity="0.3" stroke-opacity="0.3" />
  <rect x="154.15" y="154.15" width="21.7" height="21.7" fill="none" stroke="#3d3d5c" stroke-width="0.3" fill-opacity="0.3" stroke-opacity="0.3" />
  <rect x="154" y="154" width="22" height="22" fill="#ffe66d" fill-opacity="0.5" stroke-opacity="0.5" />
  <rect x="176.15" y="154.15" width="21.7" height="21.7" fill="none" stroke="#3d3d5c" stroke-width="0.3" fill-opacity="0.3" stroke-opacity="0.3" />
  <rect x="198.15" y="154.15" width="21.7" height="21.7" fill="none" stroke="#3d3d5c" stroke-width="0.3" fill-opacity="0.3" stroke-opacity="0.3" />
  <rect x="220.15" y="154.15" width="21.7" height="21.7" fill="none" stroke="#3d3d5c" stroke-width="0.3" fill-opacity="0.3" stroke-opacity="0.3" />
  <rect x="220" y="154" width="22" height="22" fill="#ffe66d" fill-opacity="0.5" stroke-opacity="0.5" />
  <rect x="242.15" y="154.15" width="21.7" height="21.7" fill="none" stroke="#3d3d5c" stroke-width="0.3" fill-opacity="0.3" stroke-opacity="0.3" />
  <rect x="0.15" y="176.15" width="21.7" height="21.7" fill="none" stroke="#3d3d5c" stroke-width="0.3" fill-opacity="0.3" stroke-opacity="0.3" />
  <rect x="22.15" y="176.15" width="21.7" height="21.7" fill="none" stroke="#3d3d5c" stroke-width="0.3" fill-opacity="0.3" stroke-opacity="0.3" />
  <rect x="44.15" y="176.15" width="21.7" height="21.7" fill="none" stroke="#3d3d5c" stroke-width="0.3" fill-opacity="0.3" stroke-opacity="0.3" />
  <rect x="66.15" y="176.15" width="21.7" height="21.7" fill="none" stroke="#3d3d5c" stroke-width="0.3" fill-opacity="0.3" stroke-opacity="0.3" />
  <rect x="88.15" y="176.15" width="21.7" height="21.7" fill="none" stroke="#3d3d5c" stroke-width="0.3" fill-opacity="0.3" stroke-opacity="0.3" />
  <rect x="110.15" y="176.15" width="21.7" height="21.7" fill="none" stroke="#3d3d5c" stroke-width="0.3" fill-opacity="0.3" stroke-opacity="0.3" />
  <rect x="132.15" y="176.15" width="21.7" height="21.7" fill="none" stroke="#3d3d5c" stroke-width="0.3" fill-opacity="0.3" stroke-opacity="0.3" />
  <rect x="154.15" y="176.15" width="21.7" height="21.7" fill="none" stroke="#3d3d5c" stroke-width="0.3" fill-opacity="0.3" stroke-opacity="0.3" />
  <rect x="176.15" y="176.15" width="21.7" height="21.7" fill="none" stroke="#3d3d5c" stroke-width="0.3" fill-opacity="0.3" stroke-opacity="0.3" />
  <rect x="176" y="176" width="22" height="22" fill="#ffe66d" fill-opacity="0.5" stroke-opacity="0.5" />
  <rect x="198.15" y="176.15" width="21.7" height="21.7" fill="none" stroke="#3d3d5c" stroke-width="0.3" fill-opacity="0.3" stroke-opacity="0.3" />
  <rect x="220.15" y="176.15" width="21.7" height="21.7" fill="none" stroke="#3d3d5c" stroke-width="0.3" fill-opacity="0.3" stroke-opacity="0.3" />
  <rect x="242.15" y="176.15" width="21.7" height="21.7" fill="none" stroke="#3d3d5c" stroke-width="0.3" fill-opacity="0.3" stroke-opacity="0.3" />
  <rect x="242" y="176" width="22" height="22" fill="#ffe66d" fill-opacity="0.5" stroke-opacity="0.5" />
  <rect x="0.15" y="198.15" width="21.7" height="21.7" fill="none" stroke="#3d3d5c" stroke-width="0.3" fill-opacity="0.3" stroke-opacity="0.3" />
  <rect x="22.15" y="198.15" width="21.7" height="21.7" fill="none" stroke="#3d3d5c" stroke-width="0.3" fill-opacity="0.3" stroke-opacity="0.3" />
  <rect x="44.15" y="198.15" width="21.7" height="21.7" fill="none" stroke="#3d3d5c" stroke-width="0.3" fill-opacity="0.3" stroke-opacity="0.3" />
  <rect x="66.15" y="198.15" width="21.7" height="21.7" fill="none" stroke="#3d3d5c" stroke-width="0.3" fill-opacity="0.3" stroke-opacity="0.3" />
  <rect x="88.15" y="198.15" width="21.7" height="21.7" fill="none" stroke="#3d3d5c" stroke-width="0.3" fill-opacity="0.3" stroke-opacity="0.3" />
  <rect x="110.15" y="198.15" width="21.7" height="21.7" fill="none" stroke="#3d3d5c" stroke-width="0.3" fill-opacity="0.3" stroke-opacity="0.3" />
  <rect x="132.15" y="198.15" width="21.7" height="21.7" fill="none" stroke="#3d3d5c" stroke-width="0.3" fill-opacity="0.3" stroke-opacity="0.3" />
  <rect x="154.15" y="198.15" width="21.7" height="21.7" fill="none" stroke="#3d3d5c" stroke-width="0.3" fill-opacity="0.3" stroke-opacity="0.3" />
  <rect x="176.15" y="198.15" width="21.7" height="21.7" fill="none" stroke="#3d3d5c" stroke-width="0.3" fill-opacity="0.3" stroke-opacity="0.3" />
  <rect x="198.15" y="198.15" width="21.7" height="21.7" fill="none" stroke="#3d3d5c" stroke-width="0.3" fill-opacity="0.3" stroke-opacity="0.3" />
  <rect x="198" y="198" width="22" height="22" fill="#ffe66d" fill-opacity="0.5" stroke-opacity="0.5" />
  <rect x="220.15" y="198.15" width="21.7" height="21.7" fill="none" stroke="#3d3d5c" stroke-width="0.3" fill-opacity="0.3" stroke-opacity="0.3" />
  <rect x="242.15" y="198.15" width="21.7" height="21.7" fill="none" stroke="#3d3d5c" stroke-width="0.3" fill-opacity="0.3" stroke-opacity="0.3" />
  <rect x="0.15" y="220.15" width="21.7" height="21.7" fill="none" stroke="#3d3d5c" stroke-width="0.3" fill-opacity="0.3" stroke-opacity="0.3" />
  <rect x="22.15" y="220.15" width="21.7" height="21.7" fill="none" stroke="#3d3d5c" stroke-width="0.3" fill-opacity="0.3" stroke-opacity="0.3" />
  <rect x="44.15" y="220.15" width="21.7" height="21.7" fill="none" stroke="#3d3d5c" stroke-width="0.3" fill-opacity="0.3" stroke-opacity="0.3" />
  <rect x="66.15" y="220.15" width="21.7" height="21.7" fill="none" stroke="#3d3d5c" stroke-width="0.3" fill-opacity="0.3" stroke-opacity="0.3" />
  <rect x="88.15" y="220.15" width="21.7" height="21.7" fill="none" stroke="#3d3d5c" stroke-width="0.3" fill-opacity="0.3" stroke-opacity="0.3" />
  <rect x="110.15" y="220.15" width="21.7" height="21.7" fill="none" stroke="#3d3d5c" stroke-width="0.3" fill-opacity="0.3" stroke-opacity="0.3" />
  <rect x="132.15" y="220.15" width="21.7" height="21.7" fill="none" stroke="#3d3d5c" stroke-width="0.3" fill-opacity="0.3" stroke-opacity="0.3" />
  <rect x="154.15" y="220.15" width="21.7" height="21.7" fill="none" stroke="#3d3d5c" stroke-width="0.3" fill-opacity="0.3" stroke-opacity="0.3" />
  <rect x="176.15" y="220.15" width="21.7" height="21.7" fill="none" stroke="#3d3d5c" stroke-width="0.3" fill-opacity="0.3" stroke-opacity="0.3" />
  <rect x="198.15" y="220.15" width="21.7" height="21.7" fill="none" stroke="#3d3d5c" stroke-width="0.3" fill-opacity="0.3" stroke-opacity="0.3" />
  <rect x="220.15" y="220.15" width="21.7" height="21.7" fill="none" stroke="#3d3d5c" stroke-width="0.3" fill-opacity="0.3" stroke-opacity="0.3" />
  <rect x="220" y="220" width="22" height="22" fill="#ffe66d" fill-opacity="0.5" stroke-opacity="0.5" />
  <rect x="242.15" y="220.15" width="21.7" height="21.7" fill="none" stroke="#3d3d5c" stroke-width="0.3" fill-opacity="0.3" stroke-opacity="0.3" />
  <rect x="0.15" y="242.15" width="21.7" height="21.7" fill="none" stroke="#3d3d5c" stroke-width="0.3" fill-opacity="0.3" stroke-opacity="0.3" />
  <rect x="22.15" y="242.15" width="21.7" height="21.7" fill="none" stroke="#3d3d5c" stroke-width="0.3" fill-opacity="0.3" stroke-opacity="0.3" />
  <rect x="44.15" y="242.15" width="21.7" height="21.7" fill="none" stroke="#3d3d5c" stroke-width="0.3" fill-opacity="0.3" stroke-opacity="0.3" />
  <rect x="66.15" y="242.15" width="21.7" height="21.7" fill="none" stroke="#3d3d5c" stroke-width="0.3" fill-opacity="0.3" stroke-opacity="0.3" />
  <rect x="88.15" y="242.15" width="21.7" height="21.7" fill="none" stroke="#3d3d5c" stroke-width="0.3" fill-opacity="0.3" stroke-opacity="0.3" />
  <rect x="110.15" y="242.15" width="21.7" height="21.7" fill="none" stroke="#3d3d5c" stroke-width="0.3" fill-opacity="0.3" stroke-opacity="0.3" />
  <rect x="132.15" y="242.15" width="21.7" height="21.7" fill="none" stroke="#3d3d5c" stroke-width="0.3" fill-opacity="0.3" stroke-opacity="0.3" />
  <rect x="154.15" y="242.15" width="21.7" height="21.7" fill="none" stroke="#3d3d5c" stroke-width="0.3" fill-opacity="0.3" stroke-opacity="0.3" />
  <rect x="176.15" y="242.15" width="21.7" height="21.7" fill="none" stroke="#3d3d5c" stroke-width="0.3" fill-opacity="0.3" stroke-opacity="0.3" />
  <rect x="198.15" y="242.15" width="21.7" height="21.7" fill="none" stroke="#3d3d5c" stroke-width="0.3" fill-opacity="0.3" stroke-opacity="0.3" />
  <rect x="220.15" y="242.15" width="21.7" height="21.7" fill="none" stroke="#3d3d5c" stroke-width="0.3" fill-opacity="0.3" stroke-opacity="0.3" />
  <rect x="242.15" y="242.15" width="21.7" height="21.7" fill="none" stroke="#3d3d5c" stroke-width="0.3" fill-opacity="0.3" stroke-opacity="0.3" />
  <rect x="242" y="242" width="22" height="22" fill="#ffe66d" fill-opacity="0.5" stroke-opacity="0.5" />
</svg>