<?xml version="1.0" encoding="UTF-8"?>
<svg xmlns="http://www.w3.org/2000/svg" width="330" height="330" viewBox="0 0 330 330">
  <rect width="100%" height="100%" fill="#1a1a2e" />
  <circle cx="11.0" cy="11.0" r="2.2" fill="#ff6b6b" opacity="0.5" />
  <circle cx="33.0" cy="11.0" r="2.2" fill="#ff6b6b" opacity="0.5357142857142857" />
  <circle cx="55.0" cy="11.0" r="2.2" fill="#ff6b6b" opacity="0.5714285714285714" />
  <circle cx="77.0" cy="11.0" r="2.2" fill="#ff6b6b" opacity="0.6071428571428571" />
  <circle cx="99.0" cy="11.0" r="2.2" fill="#ff6b6b" opacity="0.6428571428571428" />
  <circle cx="121.0" cy="11.0" r="2.2" fill="#ff6b6b" opacity="0.6785714285714286" />
  <circle cx="143.0" cy="11.0" r="2.2" fill="#ff6b6b" opacity="0.7142857142857143" />
  <circle cx="165.0" cy="11.0" r="2.2" fill="#ff6b6b" opacity="0.75" />
  <circle cx="187.0" cy="11.0" r="2.2" fill="#ff6b6b" opacity="0.7857142857142857" />
  <circle cx="209.0" cy="11.0" r="2.2" fill="#ff6b6b" opacity="0.8214285714285714" />
  <circle cx="231.0" cy="11.0" r="2.2" fill="#ff6b6b" opacity="0.8571428571428572" />
  <circle cx="253.0" cy="11.0" r="2.2" fill="#ff6b6b" opacity="0.8928571428571428" />
  <circle cx="275.0" cy="11.0" r="2.2" fill="#ff6b6b" opacity="0.9285714285714286" />
  <circle cx="297.0" cy="11.0" r="2.2" fill="#ff6b6b" opacity="0.9642857142857143" />
  <circle cx="319.0" cy="11.0" r="2.2" fill="#ff6b6b" />
  <circle cx="11.0" cy="33.0" r="2.2" fill="#ff6b6b" opacity="0.5" />
  <circle cx="33.0" cy="33.0" r="2.2392857142857143" fill="#ff6b6b" opacity="0.5357142857142857" />
  <circle cx="55.0" cy="33.0" r="2.278571428571429" fill="#ff6b6b" opacity="0.5714285714285714" />
  <circle cx="77.0" cy="33.0" r="2.317857142857143" fill="#ff6b6b" opacity="0.6071428571428571" />
  <circle cx="99.0" cy="33.0" r="2.357142857142857" fill="#ff6b6b" opacity="0.6428571428571428" />
  <circle cx="121.0" cy="33.0" r="2.3964285714285714" fill="#ff6b6b" opacity="0.6785714285714286" />
  <circle cx="143.0" cy="33.0" r="2.435714285714286" fill="#ff6b6b" opacity="0.7142857142857143" />
  <circle cx="165.0" cy="33.0" r="2.475" fill="#ff6b6b" opacity="0.75" />
  <circle cx="187.0" cy="33.0" r="2.5142857142857147" fill="#ff6b6b" opacity="0.7857142857142857" />
  <circle cx="209.0" cy="33.0" r="2.553571428571429" fill="#ff6b6b" opacity="0.8214285714285714" />
  <circle cx="231.0" cy="33.0" r="2.592857142857143" fill="#ff6b6b" opacity="0.8571428571428572" />
  <circle cx="253.0" cy="33.0" r="2.632142857142857" fill="#ff6b6b" opacity="0.8928571428571428" />
  <circle cx="275.0" cy="33.0" r="2.6714285714285713" fill="#ff6b6b" opacity="0.9285714285714286" />
  <circle cx="297.0" cy="33.0" r="2.710714285714286" fill="#ff6b6b" opacity="0.9642857142857143" />
  <circle cx="319.0" cy="33.0" r="2.75" fill="#ff6b6b" />
  <circle cx="11.0" cy="55.0" r="2.2" fill="#ff6b6b" opacity="0.5" />
  <circle cx="33.0" cy="55.0" r="2.278571428571429" fill="#ff6b6b" opacity="0.5357142857142857" />
  <circle cx="55.0" cy="55.0" r="2.357142857142857" fill="#ff6b6b" opacity="0.5714285714285714" />
  <circle cx="77.0" cy="55.0" r="2.435714285714286" fill="#ff6b6b" opacity="0.6071428571428571" />
  <circle cx="99.0" cy="55.0" r="2.5142857142857147" fill="#ff6b6b" opacity="0.6428571428571428" />
  <circle cx="121.0" cy="55.0" r="2.592857142857143" fill="#ff6b6b" opacity="0.6785714285714286" />
  <circle cx="143.0" cy="55.0" r="2.6714285714285713" fill="#ff6b6b" opacity="0.7142857142857143" />
  <circle cx="165.0" cy="55.0" r="2.75" fill="#ff6b6b" opacity="0.75" />
  <circle cx="187.0" cy="55.0" r="2.8285714285714283" fill="#ff6b6b" opacity="0.7857142857142857" />
  <circle cx="209.0" cy="55.0" r="2.907142857142857" fill="#ff6b6b" opacity="0.8214285714285714" />
  <circle cx="231.0" cy="55.0" r="2.985714285714286" fill="#ff6b6b" opacity="0.8571428571428572" />
  <circle cx="253.0" cy="55.0" r="3.0642857142857145" fill="#ff6b6b" opacity="0.8928571428571428" />
  <circle cx="275.0" cy="55.0" r="3.142857142857143" fill="#ff6b6b" opacity="0.9285714285714286" />
  <circle cx="297.0" cy="55.0" r="3.2214285714285715" fill="#ff6b6b" opacity="0.9642857142857143" />
  <circle cx="319.0" cy="55.0" r="3.3" fill="#ff6b6b" />
  <circle cx="11.0" cy="77.0" r="2.2" fill="#ff6b6b" opacity="0.5" />
  <circle cx="33.0" cy="77.0" r="2.317857142857143" fill="#ff6b6b" opacity="0.5357142857142857" />
  <circle cx="55.0" cy="77.0" r="2.435714285714286" fill="#ff6b6b" opacity="0.5714285714285714" />
  <circle cx="77.0" cy="77.0" r="2.553571428571429" fill="#ff6b6b" opacity="0.6071428571428571" />
  <circle cx="99.0" cy="77.0" r="2.6714285714285713" fill="#ff6b6b" opacity="0.6428571428571428" />
  <circle cx="121.0" cy="77.0" r="2.789285714285714" fill="#ff6b6b" opacity="0.6785714285714286" />
  <circle cx="143.0" cy="77.0" r="2.907142857142857" fill="#ff6b6b" opacity="0.7142857142857143" />
  <circle cx="165.0" cy="77.0" r="3.0250000000000004" fill="#ff6b6b" opacity="0.75" />
  <circle cx="187.0" cy="77.0" r="3.142857142857143" fill="#ff6b6b" opacity="0.7857142857142857" />
  <circle cx="209.0" cy="77.0" r="3.2607142857142857" fill="#ff6b6b" opacity="0.8214285714285714" />
  <circle cx="231.0" cy="77.0" r="3.378571428571429" fill="#ff6b6b" opacity="0.8571428571428572" />
  <circle cx="253.0" cy="77.0" r="3.496428571428571" fill="#ff6b6b" opacity="0.8928571428571428" />
  <circle cx="275.0" cy="77.0" r="3.6142857142857143" fill="#ff6b6b" opacity="0.9285714285714286" />
  <circle cx="297.0" cy="77.0" r="3.732142857142857" fill="#ff6b6b" opacity="0.9642857142857143" />
  <circle cx="319.0" cy="77.0" r="3.8499999999999996" fill="#ff6b6b" />
  <circle cx="11.0" cy="99.0" r="2.2" fill="#ff6b6b" opacity="0.5" />
  <circle cx="33.0" cy="99.0" r="2.357142857142857" fill="#ff6b6b" opacity="0.5357142857142857" />
  <circle cx="55.0" cy="99.0" r="2.5142857142857147" fill="#ff6b6b" opacity="0.5714285714285714" />
  <circle cx="77.0" cy="99.0" r="2.6714285714285713" fill="#ff6b6b" opacity="0.6071428571428571" />
  <circle cx="99.0" cy="99.0" r="2.8285714285714283" fill="#ff6b6b" opacity="0.6428571428571428" />
  <circle cx="121.0" cy="99.0" r="2.985714285714286" fill="#ff6b6b" opacity="0.6785714285714286" />
  <circle cx="143.0" cy="99.0" r="3.142857142857143" fill="#ff6b6b" opacity="0.7142857142857143" />
  <circle cx="165.0" cy="99.0" r="3.3" fill="#ff6b6b" opacity="0.75" />
  <circle cx="187.0" cy="99.0" r="3.4571428571428573" fill="#ff6b6b" opacity="0.7857142857142857" />
  <circle cx="209.0" cy="99.0" r="3.6142857142857143" fill="#ff6b6b" opacity="0.8214285714285714" />
  <circle cx="231.0" cy="99.0" r="3.7714285714285714" fill="#ff6b6b" opacity="0.8571428571428572" />
  <circle cx="253.0" cy="99.0" r="3.928571428571428" fill="#ff6b6b" opacity="0.8928571428571428" />
  <circle cx="275.0" cy="99.0" r="4.085714285714285" fill="#ff6b6b" opacity="0.9285714285714286" />
  <circle cx="297.0" cy="99.0" r="4.242857142857143" fill="#ff6b6b" opacity="0.9642857142857143" />
  <circle cx="319.0" cy="99.0" r="4.4" fill="#ff6b6b" />
  <circle cx="11.0" cy="121.0" r="2.2" fill="#ff6b6b" opacity="0.5" />
  <circle cx="33.0" cy="121.0" r="2.3964285714285714" fill="#ff6b6b" opacity="0.5357142857142857" />
  <circle cx="55.0" cy="121.0" r="2.592857142857143" fill="#ff6b6b" opacity="0.5714285714285714" />
  <circle cx="77.0" cy="121.0" r="2.789285714285714" fill="#ff6b6b" opacity="0.6071428571428571" />
  <circle cx="99.0" cy="121.0" r="2.985714285714286" fill="#ff6b6b" opacity="0.6428571428571428" />
  <circle cx="121.0" cy="121.0" r="3.1821428571428574" fill="#ff6b6b" opacity="0.6785714285714286" />
  <circle cx="143.0" cy="121.0" r="3.378571428571429" fill="#ff6b6b" opacity="0.7142857142857143" />
  <circle cx="165.0" cy="121.0" r="3.575" fill="#ff6b6b" opacity="0.75" />
  <circle cx="187.0" cy="121.0" r="3.7714285714285714" fill="#ff6b6b" opacity="0.7857142857142857" />
  <circle cx="209.0" cy="121.0" r="3.9678571428571434" fill="#ff6b6b" opacity="0.8214285714285714" />
  <circle cx="231.0" cy="121.0" r="4.164285714285715" fill="#ff6b6b" opacity="0.8571428571428572" />
  <circle cx="253.0" cy="121.0" r="4.360714285714286" fill="#ff6b6b" opacity="0.8928571428571428" />
  <circle cx="275.0" cy="121.0" r="4.557142857142857" fill="#ff6b6b" opacity="0.9285714285714286" />
  <circle cx="297.0" cy="121.0" r="4.753571428571429" fill="#ff6b6b" opacity="0.9642857142857143" />
  <circle cx="319.0" cy="121.0" r="4.95" fill="#ff6b6b" />
  <circle cx="11.0" cy="143.0" r="2.2" fill="#ff6b6b" opacity="0.5" />
  <circle cx="33.0" cy="143.0" r="2.435714285714286" fill="#ff6b6b" opacity="0.5357142857142857" />
  <circle cx="55.0" cy="143.0" r="2.6714285714285713" fill="#ff6b6b" opacity="0.5714285714285714" />
  <circle cx="77.0" cy="143.0" r="2.907142857142857" fill="#ff6b6b" opacity="0.6071428571428571" />
  <circle cx="99.0" cy="143.0" r="3.142857142857143" fill="#ff6b6b" opacity="0.6428571428571428" />
  <circle cx="121.0" cy="143.0" r="3.378571428571429" fill="#ff6b6b" opacity="0.6785714285714286" />
  <circle cx="143.0" cy="143.0" r="3.6142857142857143" fill="#ff6b6b" opacity="0.7142857142857143" />
  <circle cx="165.0" cy="143.0" r="3.8499999999999996" fill="#ff6b6b" opacity="0.75" />
  <circle cx="187.0" cy="143.0" r="4.085714285714285" fill="#ff6b6b" opacity="0.7857142857142857" />
  <circle cx="209.0" cy="143.0" r="4.321428571428572" fill="#ff6b6b" opacity="0.8214285714285714" />
  <circle cx="231.0" cy="143.0" r="4.557142857142857" fill="#ff6b6b" opacity="0.8571428571428572" />
  <circle cx="253.0" cy="143.0" r="4.792857142857143" fill="#ff6b6b" opacity="0.8928571428571428" />
  <circle cx="275.0" cy="143.0" r="5.0285714285714285" fill="#ff6b6b" opacity="0.9285714285714286" />
  <circle cx="297.0" cy="143.0" r="5.264285714285714" fill="#ff6b6b" opacity="0.9642857142857143" />
  <circle cx="319.0" cy="143.0" r="5.5" fill="#ff6b6b" />
  <circle cx="11.0" cy="165.0" r="2.2" fill="#ff6b6b" opacity="0.5" />
  <circle cx="33.0" cy="165.0" r="2.475" fill="#ff6b6b" opacity="0.5357142857142857" />
  <circle cx="55.0" cy="165.0" r="2.75" fill="#ff6b6b" opacity="0.5714285714285714" />
  <circle cx="77.0" cy="165.0" r="3.0250000000000004" fill="#ff6b6b" opacity="0.6071428571428571" />
  <circle cx="99.0" cy="165.0" r="3.3" fill="#ff6b6b" opacity="0.6428571428571428" />
  <circle cx="121.0" cy="165.0" r="3.575" fill="#ff6b6b" opacity="0.6785714285714286" />
  <circle cx="143.0" cy="165.0" r="3.8499999999999996" fill="#ff6b6b" opacity="0.7142857142857143" />
  <circle cx="165.0" cy="165.0" r="4.125" fill="#ff6b6b" opacity="0.75" />
  <circle cx="187.0" cy="165.0" r="4.4" fill="#ff6b6b" opacity="0.7857142857142857" />
  <circle cx="209.0" cy="165.0" r="4.675000000000001" fill="#ff6b6b" opacity="0.8214285714285714" />
  <circle cx="231.0" cy="165.0" r="4.95" fill="#ff6b6b" opacity="0.8571428571428572" />
  <circle cx="253.0" cy="165.0" r="5.225" fill="#ff6b6b" opacity="0.8928571428571428" />
  <circle cx="275.0" cy="165.0" r="5.5" fill="#ff6b6b" opacity="0.9285714285714286" />
  <circle cx="297.0" cy="165.0" r="5.775" fill="#ff6b6b" opacity="0.9642857142857143" />
  <circle cx="319.0" cy="165.0" r="6.050000000000001" fill="#ff6b6b" />
  <circle cx="11.0" cy="187.0" r="2.2" fill="#ff6b6b" opacity="0.5" />
  <circle cx="33.0" cy="187.0" r="2.5142857142857147" fill="#ff6b6b" opacity="0.5357142857142857" />
  <circle cx="55.0" cy="187.0" r="2.8285714285714283" fill="#ff6b6b" opacity="0.5714285714285714" />
  <circle cx="77.0" cy="187.0" r="3.142857142857143" fill="#ff6b6b" opacity="0.6071428571428571" />
  <circle cx="99.0" cy="187.0" r="3.4571428571428573" fill="#ff6b6b" opacity="0.6428571428571428" />
  <circle cx="121.0" cy="187.0" r="3.7714285714285714" fill="#ff6b6b" opacity="0.6785714285714286" />
  <circle cx="143.0" cy="187.0" r="4.085714285714285" fill="#ff6b6b" opacity="0.7142857142857143" />
  <circle cx="165.0" cy="187.0" r="4.4" fill="#ff6b6b" opacity="0.75" />
  <circle cx="187.0" cy="187.0" r="4.714285714285714" fill="#ff6b6b" opacity="0.7857142857142857" />
  <circle cx="209.0" cy="187.0" r="5.0285714285714285" fill="#ff6b6b" opacity="0.8214285714285714" />
  <circle cx="231.0" cy="187.0" r="5.3428571428571425" fill="#ff6b6b" opacity="0.8571428571428572" />
  <circle cx="253.0" cy="187.0" r="5.657142857142857" fill="#ff6b6b" opacity="0.8928571428571428" />
  <circle cx="275.0" cy="187.0" r="5.971428571428571" fill="#ff6b6b" opacity="0.9285714285714286" />
  <circle cx="297.0" cy="187.0" r="6.285714285714286" fill="#ff6b6b" opacity="0.9642857142857143" />
  <circle cx="319.0" cy="187.0" r="6.6" fill="#ff6b6b" />
  <circle cx="11.0" cy="209.0" r="2.2" fill="#ff6b6b" opacity="0.5" />
  <circle cx="33.0" cy="209.0" r="2.553571428571429" fill="#ff6b6b" opacity="0.5357142857142857" />
  <circle cx="55.0" cy="209.0" r="2.907142857142857" fill="#ff6b6b" opacity="0.5714285714285714" />
  <circle cx="77.0" cy="209.0" r="3.2607142857142857" fill="#ff6b6b" opacity="0.6071428571428571" />
  <circle cx="99.0" cy="209.0" r="3.6142857142857143" fill="#ff6b6b" opacity="0.6428571428571428" />
  <circle cx="121.0" cy="209.0" r="3.9678571428571434" fill="#ff6b6b" opacity="0.6785714285714286" />
  <circle cx="143.0" cy="209.0" r="4.321428571428572" fill="#ff6b6b" opacity="0.7142857142857143" />
  <circle cx="165.0" cy="209.0" r="4.675000000000001" fill="#ff6b6b" opacity="0.75" />
  <circle cx="187.0" cy="209.0" r="5.0285714285714285" fill="#ff6b6b" opacity="0.7857142857142857" />
  <circle cx="209.0" cy="209.0" r="5.382142857142858" fill="#ff6b6b" opacity="0.8214285714285714" />
  <circle cx="231.0" cy="209.0" r="5.735714285714286" fill="#ff6b6b" opacity="0.8571428571428572" />
  <circle cx="253.0" cy="209.0" r="6.089285714285714" fill="#ff6b6b" opacity="0.8928571428571428" />
  <circle cx="275.0" cy="209.0" r="6.442857142857143" fill="#ff6b6b" opacity="0.9285714285714286" />
  <circle cx="297.0" cy="209.0" r="6.796428571428572" fill="#ff6b6b" opacity="0.9642857142857143" />
  <circle cx="319.0" cy="209.0" r="7.15" fill="#ff6b6b" />
  <circle cx="11.0" cy="231.0" r="2.2" fill="#ff6b6b" opacity="0.5" />
  <circle cx="33.0" cy="231.0" r="2.592857142857143" fill="#ff6b6b" opacity="0.5357142857142857" />
  <circle cx="55.0" cy="231.0" r="2.985714285714286" fill="#ff6b6b" opacity="0.5714285714285714" />
  <circle cx="77.0" cy="231.0" r="3.378571428571429" fill="#ff6b6b" opacity="0.6071428571428571" />
  <circle cx="99.0" cy="231.0" r="3.7714285714285714" fill="#ff6b6b" opacity="0.6428571428571428" />
  <circle cx="121.0" cy="231.0" r="4.164285714285715" fill="#ff6b6b" opacity="0.6785714285714286" />
  <circle cx="143.0" cy="231.0" r="4.557142857142857" fill="#ff6b6b" opacity="0.7142857142857143" />
  <circle cx="165.0" cy="231.0" r="4.95" fill="#ff6b6b" opacity="0.75" />
  <circle cx="187.0" cy="231.0" r="5.3428571428571425" fill="#ff6b6b" opacity="0.7857142857142857" />
  <circle cx="209.0" cy="231.0" r="5.735714285714286" fill="#ff6b6b" opacity="0.8214285714285714" />
  <circle cx="231.0" cy="231.0" r="6.128571428571429" fill="#ff6b6b" opacity="0.8571428571428572" />
  <circle cx="253.0" cy="231.0" r="6.5214285714285705" fill="#ff6b6b" opacity="0.8928571428571428" />
  <circle cx="275.0" cy="231.0" r="6.914285714285715" fill="#ff6b6b" opacity="0.9285714285714286" />
  <circle cx="297.0" cy="231.0" r="7.307142857142858" fill="#ff6b6b" opacity="0.9642857142857143" />
  <circle cx="319.0" cy="231.0" r="7.699999999999999" fill="#ff6b6b" />
  <circle cx="11.0" cy="253.0" r="2.2" fill="#ff6b6b" opacity="0.5" />
  <circle cx="33.0" cy="253.0" r="2.632142857142857" fill="#ff6b6b" opacity="0.5357142857142857" />
  <circle cx="55.0" cy="253.0" r="3.0642857142857145" fill="#ff6b6b" opacity="0.5714285714285714" />
  <circle cx="77.0" cy="253.0" r="3.496428571428571" fill="#ff6b6b" opacity="0.6071428571428571" />
  <circle cx="99.0" cy="253.0" r="3.928571428571428" fill="#ff6b6b" opacity="0.6428571428571428" />
  <circle cx="121.0" cy="253.0" r="4.360714285714286" fill="#ff6b6b" opacity="0.6785714285714286" />
  <circle cx="143.0" cy="253.0" r="4.792857142857143" fill="#ff6b6b" opacity="0.7142857142857143" />
  <circle cx="165.0" cy="253.0" r="5.225" fill="#ff6b6b" opacity="0.75" />
  <circle cx="187.0" cy="253.0" r="5.657142857142857" fill="#ff6b6b" opacity="0.7857142857142857" />
  <circle cx="209.0" cy="253.0" r="6.089285714285714" fill="#ff6b6b" opacity="0.8214285714285714" />
  <circle cx="231.0" cy="253.0" r="6.5214285714285705" fill="#ff6b6b" opacity="0.8571428571428572" />
  <circle cx="253.0" cy="253.0" r="6.953571428571428" fill="#ff6b6b" opacity="0.8928571428571428" />
  <circle cx="275.0" cy="253.0" r="7.385714285714285" fill="#ff6b6b" opacity="0.9285714285714286" />
  <circle cx="297.0" cy="253.0" r="7.817857142857142" fill="#ff6b6b" opacity="0.9642857142857143" />
  <circle cx="319.0" cy="253.0" r="8.25" fill="#ff6b6b" />
  <circle cx="11.0" cy="275.0" r="2.2" fill="#ff6b6b" opacity="0.5" />
  <circle cx="33.0" cy="275.0" r="2.6714285714285713" fill="#ff6b6b" opacity="0.5357142857142857" />
  <circle cx="55.0" cy="275.0" r="3.142857142857143" fill="#ff6b6b" opacity="0.5714285714285714" />
  <circle cx="77.0" cy="275.0" r="3.6142857142857143" fill="#ff6b6b" opacity="0.6071428571428571" />
  <circle cx="99.0" cy="275.0" r="4.085714285714285" fill="#ff6b6b" opacity="0.6428571428571428" />
  <circle cx="121.0" cy="275.0" r="4.557142857142857" fill="#ff6b6b" opacity="0.6785714285714286" />
  <circle cx="143.0" cy="275.0" r="5.0285714285714285" fill="#ff6b6b" opacity="0.7142857142857143" />
  <circle cx="165.0" cy="275.0" r="5.5" fill="#ff6b6b" opacity="0.75" />
  <circle cx="187.0" cy="275.0" r="5.971428571428571" fill="#ff6b6b" opacity="0.7857142857142857" />
  <circle cx="209.0" cy="275.0" r="6.442857142857143" fill="#ff6b6b" opacity="0.8214285714285714" />
  <circle cx="231.0" cy="275.0" r="6.914285714285715" fill="#ff6b6b" opacity="0.8571428571428572" />
  <circle cx="253.0" cy="275.0" r="7.385714285714285" fill="#ff6b6b" opacity="0.8928571428571428" />
  <circle cx="275.0" cy="275.0" r="7.857142857142856" fill="#ff6b6b" opacity="0.9285714285714286" />
  <circle cx="297.0" cy="275.0" r="8.32857142857143" fill="#ff6b6b" opacity="0.9642857142857143" />
  <circle cx="319.0" cy="275.0" r="8.8" fill="#ff6b6b" />
  <circle cx="11.0" cy="297.0" r="2.2" fill="#ff6b6b" opacity="0.5" />
  <circle cx="33.0" cy="297.0" r="2.710714285714286" fill="#ff6b6b" opacity="0.5357142857142857" />
  <circle cx="55.0" cy="297.0" r="3.2214285714285715" fill="#ff6b6b" opacity="0.5714285714285714" />
  <circle cx="77.0" cy="297.0" r="3.732142857142857" fill="#ff6b6b" opacity="0.6071428571428571" />
  <circle cx="99.0" cy="297.0" r="4.242857142857143" fill="#ff6b6b" opacity="0.6428571428571428" />
  <circle cx="121.0" cy="297.0" r="4.753571428571429" fill="#ff6b6b" opacity="0.6785714285714286" />
  <circle cx="143.0" cy="297.0" r="5.264285714285714" fill="#ff6b6b" opacity="0.7142857142857143" />
  <circle cx="165.0" cy="297.0" r="5.775" fill="#ff6b6b" opacity="0.75" />
  <circle cx="187.0" cy="297.0" r="6.285714285714286" fill="#ff6b6b" opacity="0.7857142857142857" />
  <circle cx="209.0" cy="297.0" r="6.796428571428572" fill="#ff6b6b" opacity="0.8214285714285714" />
  <circle cx="231.0" cy="297.0" r="7.307142857142858" fill="#ff6b6b" opacity="0.8571428571428572" />
  <circle cx="253.0" cy="297.0" r="7.817857142857142" fill="#ff6b6b" opacity="0.8928571428571428" />
  <circle cx="275.0" cy="297.0" r="8.32857142857143" fill="#ff6b6b" opacity="0.9285714285714286" />
  <circle cx="297.0" cy="297.0" r="8.839285714285715" fill="#ff6b6b" opacity="0.9642857142857143" />
  <circle cx="319.0" cy="297.0" r="9.350000000000001" fill="#ff6b6b" />
  <circle cx="11.0" cy="319.0" r="2.2" fill="#ff6b6b" opacity="0.5" />
  <circle cx="33.0" cy="319.0" r="2.75" fill="#ff6b6b" opacity="0.5357142857142857" />
  <circle cx="55.0" cy="319.0" r="3.3" fill="#ff6b6b" opacity="0.5714285714285714" />
  <circle cx="77.0" cy="319.0" r="3.8499999999999996" fill="#ff6b6b" opacity="0.6071428571428571" />
  <circle cx="99.0" cy="319.0" r="4.4" fill="#ff6b6b" opacity="0.6428571428571428" />
  <circle cx="121.0" cy="319.0" r="4.95" fill="#ff6b6b" opacity="0.6785714285714286" />
  <circle cx="143.0" cy="319.0" r="5.5" fill="#ff6b6b" opacity="0.7142857142857143" />
  <circle cx="165.0" cy="319.0" r="6.050000000000001" fill="#ff6b6b" opacity="0.75" />
  <circle cx="187.0" cy="319.0" r="6.6" fill="#ff6b6b" opacity="0.7857142857142857" />
  <circle cx="209.0" cy="319.0" r="7.15" fill="#ff6b6b" opacity="0.8214285714285714" />
  <circle cx="231.0" cy="319.0" r="7.699999999999999" fill="#ff6b6b" opacity="0.8571428571428572" />
  <circle cx="253.0" cy="319.0" r="8.25" fill="#ff6b6b" opacity="0.8928571428571428" />
  <circle cx="275.0" cy="319.0" r="8.8" fill="#ff6b6b" opacity="0.9285714285714286" />
  <circle cx="297.0" cy="319.0" r="9.350000000000001" fill="#ff6b6b" opacity="0.9642857142857143" />
  <circle cx="319.0" cy="319.0" r="9.899999999999999" fill="#ff6b6b" />
</svg>