<?xml version="1.0" encoding="UTF-8"?>
<svg xmlns="http://www.w3.org/2000/svg" width="330" height="330" viewBox="0 0 330 330">
  <rect width="100%" height="100%" fill="#1a1a2e" />
  <circle cx="11.0" cy="11.0" r="2.0" fill="#ff6b6b" opacity="0.5" />
  <circle cx="33.0" cy="11.0" r="2.0" fill="#ff6b6b" opacity="0.5357142857142857" />
  <circle cx="55.0" cy="11.0" r="2.0" fill="#ff6b6b" opacity="0.5714285714285714" />
  <circle cx="77.0" cy="11.0" r="2.0" fill="#ff6b6b" opacity="0.6071428571428571" />
  <circle cx="99.0" cy="11.0" r="2.0" fill="#ff6b6b" opacity="0.6428571428571428" />
  <circle cx="121.0" cy="11.0" r="2.0" fill="#ff6b6b" opacity="0.6785714285714286" />
  <circle cx="143.0" cy="11.0" r="2.0" fill="#ff6b6b" opacity="0.7142857142857143" />
  <circle cx="165.0" cy="11.0" r="2.0" fill="#ff6b6b" opacity="0.75" />
  <circle cx="187.0" cy="11.0" r="2.0" fill="#ff6b6b" opacity="0.7857142857142857" />
  <circle cx="209.0" cy="11.0" r="2.0" fill="#ff6b6b" opacity="0.8214285714285714" />
  <circle cx="231.0" cy="11.0" r="2.0" fill="#ff6b6b" opacity="0.8571428571428572" />
  <circle cx="253.0" cy="11.0" r="2.0" fill="#ff6b6b" opacity="0.8928571428571428" />
  <circle cx="275.0" cy="11.0" r="2.0" fill="#ff6b6b" opacity="0.9285714285714286" />
  <circle cx="297.0" cy="11.0" r="2.0" fill="#ff6b6b" opacity="0.9642857142857143" />
  <circle cx="319.0" cy="11.0" r="2.0" fill="#ff6b6b" />
  <circle cx="11.0" cy="33.0" r="2.0" fill="#ff6b6b" opacity="0.5" />
  <circle cx="33.0" cy="33.0" r="2.0408163265306123" fill="#ff6b6b" opacity="0.5357142857142857" />
  <circle cx="55.0" cy="33.0" r="2.0816326530612246" fill="#ff6b6b" opacity="0.5714285714285714" />
  <circle cx="77.0" cy="33.0" r="2.122448979591837" fill="#ff6b6b" opacity="0.6071428571428571" />
  <circle cx="99.0" cy="33.0" r="2.163265306122449" fill="#ff6b6b" opacity="0.6428571428571428" />
  <circle cx="121.0" cy="33.0" r="2.204081632653061" fill="#ff6b6b" opacity="0.6785714285714286" />
  <circle cx="143.0" cy="33.0" r="2.2448979591836733" fill="#ff6b6b" opacity="0.7142857142857143" />
  <circle cx="165.0" cy="33.0" r="2.2857142857142856" fill="#ff6b6b" opacity="0.75" />
  <circle cx="187.0" cy="33.0" r="2.326530612244898" fill="#ff6b6b" opacity="0.7857142857142857" />
  <circle cx="209.0" cy="33.0" r="2.36734693877551" fill="#ff6b6b" opacity="0.8214285714285714" />
  <circle cx="231.0" cy="33.0" r="2.4081632653061225" fill="#ff6b6b" opacity="0.8571428571428572" />
  <circle cx="253.0" cy="33.0" r="2.4489795918367347" fill="#ff6b6b" opacity="0.8928571428571428" />
  <circle cx="275.0" cy="33.0" r="2.489795918367347" fill="#ff6b6b" opacity="0.9285714285714286" />
  <circle cx="297.0" cy="33.0" r="2.5306122448979593" fill="#ff6b6b" opacity="0.9642857142857143" />
  <circle cx="319.0" cy="33.0" r="2.571428571428571" fill="#ff6b6b" />
  <circle cx="11.0" cy="55.0" r="2.0" fill="#ff6b6b" opacity="0.5" />
  <circle cx="33.0" cy="55.0" r="2.0816326530612246" fill="#ff6b6b" opacity="0.5357142857142857" />
  <circle cx="55.0" cy="55.0" r="2.163265306122449" fill="#ff6b6b" opacity="0.5714285714285714" />
  <circle cx="77.0" cy="55.0" r="2.2448979591836733" fill="#ff6b6b" opacity="0.6071428571428571" />
  <circle cx="99.0" cy="55.0" r="2.326530612244898" fill="#ff6b6b" opacity="0.6428571428571428" />
  <circle cx="121.0" cy="55.0" r="2.4081632653061225" fill="#ff6b6b" opacity="0.6785714285714286" />
  <circle cx="143.0" cy="55.0" r="2.489795918367347" fill="#ff6b6b" opacity="0.7142857142857143" />
  <circle cx="165.0" cy="55.0" r="2.571428571428571" fill="#ff6b6b" opacity="0.75" />
  <circle cx="187.0" cy="55.0" r="2.6530612244897958" fill="#ff6b6b" opacity="0.7857142857142857" />
  <circle cx="209.0" cy="55.0" r="2.7346938775510203" fill="#ff6b6b" opacity="0.8214285714285714" />
  <circle cx="231.0" cy="55.0" r="2.816326530612245" fill="#ff6b6b" opacity="0.8571428571428572" />
  <circle cx="253.0" cy="55.0" r="2.8979591836734695" fill="#ff6b6b" opacity="0.8928571428571428" />
  <circle cx="275.0" cy="55.0" r="2.9795918367346936" fill="#ff6b6b" opacity="0.9285714285714286" />
  <circle cx="297.0" cy="55.0" r="3.0612244897959187" fill="#ff6b6b" opacity="0.9642857142857143" />
  <circle cx="319.0" cy="55.0" r="3.142857142857143" fill="#ff6b6b" />
  <circle cx="11.0" cy="77.0" r="2.0" fill="#ff6b6b" opacity="0.5" />
  <circle cx="33.0" cy="77.0" r="2.122448979591837" fill="#ff6b6b" opacity="0.5357142857142857" />
  <circle cx="55.0" cy="77.0" r="2.2448979591836733" fill="#ff6b6b" opacity="0.5714285714285714" />
  <circle cx="77.0" cy="77.0" r="2.36734693877551" fill="#ff6b6b" opacity="0.6071428571428571" />
  <circle cx="99.0" cy="77.0" r="2.489795918367347" fill="#ff6b6b" opacity="0.6428571428571428" />
  <circle cx="121.0" cy="77.0" r="2.612244897959184" fill="#ff6b6b" opacity="0.6785714285714286" />
  <circle cx="143.0" cy="77.0" r="2.7346938775510203" fill="#ff6b6b" opacity="0.7142857142857143" />
  <circle cx="165.0" cy="77.0" r="2.857142857142857" fill="#ff6b6b" opacity="0.75" />
  <circle cx="187.0" cy="77.0" r="2.9795918367346936" fill="#ff6b6b" opacity="0.7857142857142857" />
  <circle cx="209.0" cy="77.0" r="3.1020408163265305" fill="#ff6b6b" opacity="0.8214285714285714" />
  <circle cx="231.0" cy="77.0" r="3.2244897959183674" fill="#ff6b6b" opacity="0.8571428571428572" />
  <circle cx="253.0" cy="77.0" r="3.3469387755102042" fill="#ff6b6b" opacity="0.8928571428571428" />
  <circle cx="275.0" cy="77.0" r="3.4693877551020407" fill="#ff6b6b" opacity="0.9285714285714286" />
  <circle cx="297.0" cy="77.0" r="3.5918367346938775" fill="#ff6b6b" opacity="0.9642857142857143" />
  <circle cx="319.0" cy="77.0" r="3.7142857142857144" fill="#ff6b6b" />
  <circle cx="11.0" cy="99.0" r="2.0" fill="#ff6b6b" opacity="0.5" />
  <circle cx="33.0" cy="99.0" r="2.163265306122449" fill="#ff6b6b" opacity="0.5357142857142857" />
  <circle cx="55.0" cy="99.0" r="2.326530612244898" fill="#ff6b6b" opacity="0.5714285714285714" />
  <circle cx="77.0" cy="99.0" r="2.489795918367347" fill="#ff6b6b" opacity="0.6071428571428571" />
  <circle cx="99.0" cy="99.0" r="2.6530612244897958" fill="#ff6b6b" opacity="0.6428571428571428" />
  <circle cx="121.0" cy="99.0" r="2.816326530612245" fill="#ff6b6b" opacity="0.6785714285714286" />
  <circle cx="143.0" cy="99.0" r="2.9795918367346936" fill="#ff6b6b" opacity="0.7142857142857143" />
  <circle cx="165.0" cy="99.0" r="3.142857142857143" fill="#ff6b6b" opacity="0.75" />
  <circle cx="187.0" cy="99.0" r="3.3061224489795915" fill="#ff6b6b" opacity="0.7857142857142857" />
  <circle cx="209.0" cy="99.0" r="3.4693877551020407" fill="#ff6b6b" opacity="0.8214285714285714" />
  <circle cx="231.0" cy="99.0" r="3.63265306122449" fill="#ff6b6b" opacity="0.8571428571428572" />
  <circle cx="253.0" cy="99.0" r="3.7959183673469385" fill="#ff6b6b" opacity="0.8928571428571428" />
  <circle cx="275.0" cy="99.0" r="3.9591836734693873" fill="#ff6b6b" opacity="0.9285714285714286" />
  <circle cx="297.0" cy="99.0" r="4.122448979591837" fill="#ff6b6b" opacity="0.9642857142857143" />
  <circle cx="319.0" cy="99.0" r="4.285714285714286" fill="#ff6b6b" />
  <circle cx="11.0" cy="121.0" r="2.0" fill="#ff6b6b" opacity="0.5" />
  <circle cx="33.0" cy="121.0" r="2.204081632653061" fill="#ff6b6b" opacity="0.5357142857142857" />
  <circle cx="55.0" cy="121.0" r="2.4081632653061225" fill="#ff6b6b" opacity="0.5714285714285714" />
  <circle cx="77.0" cy="121.0" r="2.612244897959184" fill="#ff6b6b" opacity="0.6071428571428571" />
  <circle cx="99.0" cy="121.0" r="2.816326530612245" fill="#ff6b6b" opacity="0.6428571428571428" />
  <circle cx="121.0" cy="121.0" r="3.020408163265306" fill="#ff6b6b" opacity="0.6785714285714286" />
  <circle cx="143.0" cy="121.0" r="3.2244897959183674" fill="#ff6b6b" opacity="0.7142857142857143" />
  <circle cx="165.0" cy="121.0" r="3.428571428571429" fill="#ff6b6b" opacity="0.75" />
  <circle cx="187.0" cy="121.0" r="3.63265306122449" fill="#ff6b6b" opacity="0.7857142857142857" />
  <circle cx="209.0" cy="121.0" r="3.8367346938775513" fill="#ff6b6b" opacity="0.8214285714285714" />
  <circle cx="231.0" cy="121.0" r="4.040816326530612" fill="#ff6b6b" opacity="0.8571428571428572" />
  <circle cx="253.0" cy="121.0" r="4.244897959183673" fill="#ff6b6b" opacity="0.8928571428571428" />
  <circle cx="275.0" cy="121.0" r="4.448979591836735" fill="#ff6b6b" opacity="0.9285714285714286" />
  <circle cx="297.0" cy="121.0" r="4.653061224489797" fill="#ff6b6b" opacity="0.9642857142857143" />
  <circle cx="319.0" cy="121.0" r="4.857142857142858" fill="#ff6b6b" />
  <circle cx="11.0" cy="143.0" r="2.0" fill="#ff6b6b" opacity="0.5" />
  <circle cx="33.0" cy="143.0" r="2.2448979591836733" fill="#ff6b6b" opacity="0.5357142857142857" />
  <circle cx="55.0" cy="143.0" r="2.489795918367347" fill="#ff6b6b" opacity="0.5714285714285714" />
  <circle cx="77.0" cy="143.0" r="2.7346938775510203" fill="#ff6b6b" opacity="0.6071428571428571" />
  <circle cx="99.0" cy="143.0" r="2.9795918367346936" fill="#ff6b6b" opacity="0.6428571428571428" />
  <circle cx="121.0" cy="143.0" r="3.2244897959183674" fill="#ff6b6b" opacity="0.6785714285714286" />
  <circle cx="143.0" cy="143.0" r="3.4693877551020407" fill="#ff6b6b" opacity="0.7142857142857143" />
  <circle cx="165.0" cy="143.0" r="3.7142857142857144" fill="#ff6b6b" opacity="0.75" />
  <circle cx="187.0" cy="143.0" r="3.9591836734693873" fill="#ff6b6b" opacity="0.7857142857142857" />
  <circle cx="209.0" cy="143.0" r="4.204081632653061" fill="#ff6b6b" opacity="0.8214285714285714" />
  <circle cx="231.0" cy="143.0" r="4.448979591836735" fill="#ff6b6b" opacity="0.8571428571428572" />
  <circle cx="253.0" cy="143.0" r="4.6938775510204085" fill="#ff6b6b" opacity="0.8928571428571428" />
  <circle cx="275.0" cy="143.0" r="4.938775510204081" fill="#ff6b6b" opacity="0.9285714285714286" />
  <circle cx="297.0" cy="143.0" r="5.183673469387755" fill="#ff6b6b" opacity="0.9642857142857143" />
  <circle cx="319.0" cy="143.0" r="5.428571428571429" fill="#ff6b6b" />
  <circle cx="11.0" cy="165.0" r="2.0" fill="#ff6b6b" opacity="0.5" />
  <circle cx="33.0" cy="165.0" r="2.2857142857142856" fill="#ff6b6b" opacity="0.5357142857142857" />
  <circle cx="55.0" cy="165.0" r="2.571428571428571" fill="#ff6b6b" opacity="0.5714285714285714" />
  <circle cx="77.0" cy="165.0" r="2.857142857142857" fill="#ff6b6b" opacity="0.6071428571428571" />
  <circle cx="99.0" cy="165.0" r="3.142857142857143" fill="#ff6b6b" opacity="0.6428571428571428" />
  <circle cx="121.0" cy="165.0" r="3.428571428571429" fill="#ff6b6b" opacity="0.6785714285714286" />
  <circle cx="143.0" cy="165.0" r="3.7142857142857144" fill="#ff6b6b" opacity="0.7142857142857143" />
  <circle cx="165.0" cy="165.0" r="4.0" fill="#ff6b6b" opacity="0.75" />
  <circle cx="187.0" cy="165.0" r="4.285714285714286" fill="#ff6b6b" opacity="0.7857142857142857" />
  <circle cx="209.0" cy="165.0" r="4.571428571428571" fill="#ff6b6b" opacity="0.8214285714285714" />
  <circle cx="231.0" cy="165.0" r="4.857142857142858" fill="#ff6b6b" opacity="0.8571428571428572" />
  <circle cx="253.0" cy="165.0" r="5.142857142857142" fill="#ff6b6b" opacity="0.8928571428571428" />
  <circle cx="275.0" cy="165.0" r="5.428571428571429" fill="#ff6b6b" opacity="0.9285714285714286" />
  <circle cx="297.0" cy="165.0" r="5.714285714285714" fill="#ff6b6b" opacity="0.9642857142857143" />
  <circle cx="319.0" cy="165.0" r="6.0" fill="#ff6b6b" />
  <circle cx="11.0" cy="187.0" r="2.0" fill="#ff6b6b" opacity="0.5" />
  <circle cx="33.0" cy="187.0" r="2.326530612244898" fill="#ff6b6b" opacity="0.5357142857142857" />
  <circle cx="55.0" cy="187.0" r="2.6530612244897958" fill="#ff6b6b" opacity="0.5714285714285714" />
  <circle cx="77.0" cy="187.0" r="2.9795918367346936" fill="#ff6b6b" opacity="0.6071428571428571" />
  <circle cx="99.0" cy="187.0" r="3.3061224489795915" fill="#ff6b6b" opacity="0.6428571428571428" />
  <circle cx="121.0" cy="187.0" r="3.63265306122449" fill="#ff6b6b" opacity="0.6785714285714286" />
  <circle cx="143.0" cy="187.0" r="3.9591836734693873" fill="#ff6b6b" opacity="0.7142857142857143" />
  <circle cx="165.0" cy="187.0" r="4.285714285714286" fill="#ff6b6b" opacity="0.75" />
  <circle cx="187.0" cy="187.0" r="4.612244897959183" fill="#ff6b6b" opacity="0.7857142857142857" />
  <circle cx="209.0" cy="187.0" r="4.938775510204081" fill="#ff6b6b" opacity="0.8214285714285714" />
  <circle cx="231.0" cy="187.0" r="5.26530612244898" fill="#ff6b6b" opacity="0.8571428571428572" />
  <circle cx="253.0" cy="187.0" r="5.591836734693877" fill="#ff6b6b" opacity="0.8928571428571428" />
  <circle cx="275.0" cy="187.0" r="5.9183673469387745" fill="#ff6b6b" opacity="0.9285714285714286" />
  <circle cx="297.0" cy="187.0" r="6.244897959183674" fill="#ff6b6b" opacity="0.9642857142857143" />
  <circle cx="319.0" cy="187.0" r="6.571428571428571" fill="#ff6b6b" />
  <circle cx="11.0" cy="209.0" r="2.0" fill="#ff6b6b" opacity="0.5" />
  <circle cx="33.0" cy="209.0" r="2.36734693877551" fill="#ff6b6b" opacity="0.5357142857142857" />
  <circle cx="55.0" cy="209.0" r="2.7346938775510203" fill="#ff6b6b" opacity="0.5714285714285714" />
  <circle cx="77.0" cy="209.0" r="3.1020408163265305" fill="#ff6b6b" opacity="0.6071428571428571" />
  <circle cx="99.0" cy="209.0" r="3.4693877551020407" fill="#ff6b6b" opacity="0.6428571428571428" />
  <circle cx="121.0" cy="209.0" r="3.8367346938775513" fill="#ff6b6b" opacity="0.6785714285714286" />
  <circle cx="143.0" cy="209.0" r="4.204081632653061" fill="#ff6b6b" opacity="0.7142857142857143" />
  <circle cx="165.0" cy="209.0" r="4.571428571428571" fill="#ff6b6b" opacity="0.75" />
  <circle cx="187.0" cy="209.0" r="4.938775510204081" fill="#ff6b6b" opacity="0.7857142857142857" />
  <circle cx="209.0" cy="209.0" r="5.306122448979592" fill="#ff6b6b" opacity="0.8214285714285714" />
  <circle cx="231.0" cy="209.0" r="5.673469387755103" fill="#ff6b6b" opacity="0.8571428571428572" />
  <circle cx="253.0" cy="209.0" r="6.040816326530613" fill="#ff6b6b" opacity="0.8928571428571428" />
  <circle cx="275.0" cy="209.0" r="6.408163265306123" fill="#ff6b6b" opacity="0.9285714285714286" />
  <circle cx="297.0" cy="209.0" r="6.775510204081633" fill="#ff6b6b" opacity="0.9642857142857143" />
  <circle cx="319.0" cy="209.0" r="7.142857142857143" fill="#ff6b6b" />
  <circle cx="11.0" cy="231.0" r="2.0" fill="#ff6b6b" opacity="0.5" />
  <circle cx="33.0" cy="231.0" r="2.4081632653061225" fill="#ff6b6b" opacity="0.5357142857142857" />
  <circle cx="55.0" cy="231.0" r="2.816326530612245" fill="#ff6b6b" opacity="0.5714285714285714" />
  <circle cx="77.0" cy="231.0" r="3.2244897959183674" fill="#ff6b6b" opacity="0.6071428571428571" />
  <circle cx="99.0" cy="231.0" r="3.63265306122449" fill="#ff6b6b" opacity="0.6428571428571428" />
  <circle cx="121.0" cy="231.0" r="4.040816326530612" fill="#ff6b6b" opacity="0.6785714285714286" />
  <circle cx="143.0" cy="231.0" r="4.448979591836735" fill="#ff6b6b" opacity="0.7142857142857143" />
  <circle cx="165.0" cy="231.0" r="4.857142857142858" fill="#ff6b6b" opacity="0.75" />
  <circle cx="187.0" cy="231.0" r="5.26530612244898" fill="#ff6b6b" opacity="0.7857142857142857" />
  <circle cx="209.0" cy="231.0" r="5.673469387755103" fill="#ff6b6b" opacity="0.8214285714285714" />
  <circle cx="231.0" cy="231.0" r="6.081632653061225" fill="#ff6b6b" opacity="0.8571428571428572" />
  <circle cx="253.0" cy="231.0" r="6.489795918367347" fill="#ff6b6b" opacity="0.8928571428571428" />
  <circle cx="275.0" cy="231.0" r="6.8979591836734695" fill="#ff6b6b" opacity="0.9285714285714286" />
  <circle cx="297.0" cy="231.0" r="7.306122448979592" fill="#ff6b6b" opacity="0.9642857142857143" />
  <circle cx="319.0" cy="231.0" r="7.714285714285714" fill="#ff6b6b" />
  <circle cx="11.0" cy="253.0" r="2.0" fill="#ff6b6b" opacity="0.5" />
  <circle cx="33.0" cy="253.0" r="2.4489795918367347" fill="#ff6b6b" opacity="0.5357142857142857" />
  <circle cx="55.0" cy="253.0" r="2.8979591836734695" fill="#ff6b6b" opacity="0.5714285714285714" />
  <circle cx="77.0" cy="253.0" r="3.3469387755102042" fill="#ff6b6b" opacity="0.6071428571428571" />
  <circle cx="99.0" cy="253.0" r="3.7959183673469385" fill="#ff6b6b" opacity="0.6428571428571428" />
  <circle cx="121.0" cy="253.0" r="4.244897959183673" fill="#ff6b6b" opacity="0.6785714285714286" />
  <circle cx="143.0" cy="253.0" r="4.6938775510204085" fill="#ff6b6b" opacity="0.7142857142857143" />
  <circle cx="165.0" cy="253.0" r="5.142857142857142" fill="#ff6b6b" opacity="0.75" />
  <circle cx="187.0" cy="253.0" r="5.591836734693877" fill="#ff6b6b" opacity="0.7857142857142857" />
  <circle cx="209.0" cy="253.0" r="6.040816326530613" fill="#ff6b6b" opacity="0.8214285714285714" />
  <circle cx="231.0" cy="253.0" r="6.489795918367347" fill="#ff6b6b" opacity="0.8571428571428572" />
  <circle cx="253.0" cy="253.0" r="6.938775510204081" fill="#ff6b6b" opacity="0.8928571428571428" />
  <circle cx="275.0" cy="253.0" r="7.387755102040816" fill="#ff6b6b" opacity="0.9285714285714286" />
  <circle cx="297.0" cy="253.0" r="7.836734693877551" fill="#ff6b6b" opacity="0.9642857142857143" />
  <circle cx="319.0" cy="253.0" r="8.285714285714285" fill="#ff6b6b" />
  <circle cx="11.0" cy="275.0" r="2.0" fill="#ff6b6b" opacity="0.5" />
  <circle cx="33.0" cy="275.0" r="2.489795918367347" fill="#ff6b6b" opacity="0.5357142857142857" />
  <circle cx="55.0" cy="275.0" r="2.9795918367346936" fill="#ff6b6b" opacity="0.5714285714285714" />
  <circle cx="77.0" cy="275.0" r="3.4693877551020407" fill="#ff6b6b" opacity="0.6071428571428571" />
  <circle cx="99.0" cy="275.0" r="3.9591836734693873" fill="#ff6b6b" opacity="0.6428571428571428" />
  <circle cx="121.0" cy="275.0" r="4.448979591836735" fill="#ff6b6b" opacity="0.6785714285714286" />
  <circle cx="143.0" cy="275.0" r="4.938775510204081" fill="#ff6b6b" opacity="0.7142857142857143" />
  <circle cx="165.0" cy="275.0" r="5.428571428571429" fill="#ff6b6b" opacity="0.75" />
  <circle cx="187.0" cy="275.0" r="5.9183673469387745" fill="#ff6b6b" opacity="0.7857142857142857" />
  <circle cx="209.0" cy="275.0" r="6.408163265306123" fill="#ff6b6b" opacity="0.8214285714285714" />
  <circle cx="231.0" cy="275.0" r="6.8979591836734695" fill="#ff6b6b" opacity="0.8571428571428572" />
  <circle cx="253.0" cy="275.0" r="7.387755102040816" fill="#ff6b6b" opacity="0.8928571428571428" />
  <circle cx="275.0" cy="275.0" r="7.877551020408163" fill="#ff6b6b" opacity="0.9285714285714286" />
  <circle cx="297.0" cy="275.0" r="8.36734693877551" fill="#ff6b6b" opacity="0.9642857142857143" />
  <circle cx="319.0" cy="275.0" r="8.857142857142858" fill="#ff6b6b" />
  <circle cx="11.0" cy="297.0" r="2.0" fill="#ff6b6b" opacity="0.5" />
  <circle cx="33.0" cy="297.0" r="2.5306122448979593" fill="#ff6b6b" opacity="0.5357142857142857" />
  <circle cx="55.0" cy="297.0" r="3.0612244897959187" fill="#ff6b6b" opacity="0.5714285714285714" />
  <circle cx="77.0" cy="297.0" r="3.5918367346938775" fill="#ff6b6b" opacity="0.6071428571428571" />
  <circle cx="99.0" cy="297.0" r="4.122448979591837" fill="#ff6b6b" opacity="0.6428571428571428" />
  <circle cx="121.0" cy="297.0" r="4.653061224489797" fill="#ff6b6b" opacity="0.6785714285714286" />
  <circle cx="143.0" cy="297.0" r="5.183673469387755" fill="#ff6b6b" opacity="0.7142857142857143" />
  <circle cx="165.0" cy="297.0" r="5.714285714285714" fill="#ff6b6b" opacity="0.75" />
  <circle cx="187.0" cy="297.0" r="6.244897959183674" fill="#ff6b6b" opacity="0.7857142857142857" />
  <circle cx="209.0" cy="297.0" r="6.775510204081633" fill="#ff6b6b" opacity="0.8214285714285714" />
  <circle cx="231.0" cy="297.0" r="7.306122448979592" fill="#ff6b6b" opacity="0.8571428571428572" />
  <circle cx="253.0" cy="297.0" r="7.836734693877551" fill="#ff6b6b" opacity="0.8928571428571428" />
  <circle cx="275.0" cy="297.0" r="8.36734693877551" fill="#ff6b6b" opacity="0.9285714285714286" />
  <circle cx="297.0" cy="297.0" r="8.89795918367347" fill="#ff6b6b" opacity="0.9642857142857143" />
  <circle cx="319.0" cy="297.0" r="9.428571428571429" fill="#ff6b6b" />
  <circle cx="11.0" cy="319.0" r="2.0" fill="#ff6b6b" opacity="0.5" />
  <circle cx="33.0" cy="319.0" r="2.571428571428571" fill="#ff6b6b" opacity="0.5357142857142857" />
  <circle cx="55.0" cy="319.0" r="3.142857142857143" fill="#ff6b6b" opacity="0.5714285714285714" />
  <circle cx="77.0" cy="319.0" r="3.7142857142857144" fill="#ff6b6b" opacity="0.6071428571428571" />
  <circle cx="99.0" cy="319.0" r="4.285714285714286" fill="#ff6b6b" opacity="0.6428571428571428" />
  <circle cx="121.0" cy="319.0" r="4.857142857142858" fill="#ff6b6b" opacity="0.6785714285714286" />
  <circle cx="143.0" cy="319.0" r="5.428571428571429" fill="#ff6b6b" opacity="0.7142857142857143" />
  <circle cx="165.0" cy="319.0" r="6.0" fill="#ff6b6b" opacity="0.75" />
  <circle cx="187.0" cy="319.0" r="6.571428571428571" fill="#ff6b6b" opacity="0.7857142857142857" />
  <circle cx="209.0" cy="319.0" r="7.142857142857143" fill="#ff6b6b" opacity="0.8214285714285714" />
  <circle cx="231.0" cy="319.0" r="7.714285714285714" fill="#ff6b6b" opacity="0.8571428571428572" />
  <circle cx="253.0" cy="319.0" r="8.285714285714285" fill="#ff6b6b" opacity="0.8928571428571428" />
  <circle cx="275.0" cy="319.0" r="8.857142857142858" fill="#ff6b6b" opacity="0.9285714285714286" />
  <circle cx="297.0" cy="319.0" r="9.428571428571429" fill="#ff6b6b" opacity="0.9642857142857143" />
  <circle cx="319.0" cy="319.0" r="10.0" fill="#ff6b6b" />
</svg>