<?xml version="1.0" encoding="UTF-8"?>
<svg xmlns="http://www.w3.org/2000/svg" width="200" height="290" viewBox="0 0 200 290">
  <rect width="100%" height="100%" fill="#1a1a2e" />
  <circle cx="5.0" cy="5.0" r="1.9212882352941174" fill="#647750" />
  <circle cx="15.0" cy="5.0" r="1.8635647058823532" fill="#627448" />
  <circle cx="25.0" cy="5.0" r="1.8550235294117647" fill="#607449" />
  <circle cx="35.0" cy="5.0" r="1.8530117647058821" fill="#607448" />
  <circle cx="45.0" cy="5.0" r="1.847735294117647" fill="#5f7448" />
  <circle cx="55.0" cy="5.0" r="1.7771470588235294" fill="#5b7044" />
  <circle cx="65.0" cy="5.0" r="1.8207882352941176" fill="#5d7345" />
  <circle cx="75.0" cy="5.0" r="1.8406411764705881" fill="#607347" />
  <circle cx="85.0" cy="5.0" r="1.885729411764706" fill="#657546" />
  <circle cx="95.0" cy="5.0" r="1.8830294117647055" fill="#61764a" />
  <circle cx="105.0" cy="5.0" r="1.8608647058823529" fill="#5e754c" />
  <circle cx="115.0" cy="5.0" r="1.8384352941176472" fill="#5e7446" />
  <circle cx="125.0" cy="5.0" r="1.8200294117647056" fill="#5e7342" />
  <circle cx="135.0" cy="5.0" r="1.7567294117647059" fill="#5b6f3f" />
  <circle cx="145.0" cy="5.0" r="1.7254588235294115" fill="#596d3f" />
  <circle cx="155.0" cy="5.0" r="1.743670588235294" fill="#576f43" />
  <circle cx="165.0" cy="5.0" r="1.7568000000000001" fill="#567047" />
  <circle cx="175.0" cy="5.0" r="1.8064764705882352" fill="#58734b" />
  <circle cx="185.0" cy="5.0" r="1.8478058823529415" fill="#5a7550" />
  <circle cx="195.0" cy="5.0" r="1.8336176470588232" fill="#5c734e" />
  <circle cx="5.0" cy="15.0" r="2.1460411764705882" fill="#798250" />
  <circle cx="15.0" cy="15.0" r="2.108541176470588" fill="#75814d" />
  <circle cx="25.0" cy="15.0" r="2.0752588235294116" fill="#737f4c" />
  <circle cx="35.0" cy="15.0" r="2.105276470588235" fill="#74814e" />
  <circle cx="45.0" cy="15.0" r="2.0525294117647057" fill="#737d4b" />
  <circle cx="55.0" cy="15.0" r="1.9799294117647062" fill="#6f7946" />
  <circle cx="65.0" cy="15.0" r="2.0223176470588236" fill="#707c49" />
  <circle cx="75.0" cy="15.0" r="2.051770588235294" fill="#747d48" />
  <circle cx="85.0" cy="15.0" r="2.074694117647059" fill="#767e49" />
  <circle cx="95.0" cy="15.0" r="2.2129764705882353" fill="#788855" />
  <circle cx="105.0" cy="15.0" r="2.1993529411764707" fill="#778756" />
  <circle cx="115.0" cy="15.0" r="2.074005882352941" fill="#727f4e" />
  <circle cx="125.0" cy="15.0" r="2.0987470588235295" fill="#728150" />
  <circle cx="135.0" cy="15.0" r="2.0969294117647057" fill="#74804f" />
  <circle cx="145.0" cy="15.0" r="2.070176470588235" fill="#747e4c" />
  <circle cx="155.0" cy="15.0" r="2.0858117647058823" fill="#757f4c" />
  <circle cx="165.0" cy="15.0" r="2.1120705882352944" fill="#738154" />
  <circle cx="175.0" cy="15.0" r="2.163" fill="#768456" />
  <circle cx="185.0" cy="15.0" r="2.2028117647058822" fill="#7a8655" />
  <circle cx="195.0" cy="15.0" r="2.1415235294117645" fill="#778253" />
  <circle cx="5.0" cy="25.0" r="2.276664705882353" fill="#7f8a58" />
  <circle cx="15.0" cy="25.0" r="2.258258823529412" fill="#7f8954" />
  <circle cx="25.0" cy="25.0" r="2.2882764705882352" fill="#808b56" />
  <circle cx="35.0" cy="25.0" r="2.2819411764705886" fill="#808a58" />
  <circle cx="45.0" cy="25.0" r="2.2884705882352945" fill="#828a56" />
  <circle cx="55.0" cy="25.0" r="2.282435294117647" fill="#828a53" />
  <circle cx="65.0" cy="25.0" r="2.2451294117647054" fill="#808850" />
  <circle cx="75.0" cy="25.0" r="2.3242588235294113" fill="#868c53" />
  <circle cx="85.0" cy="25.0" r="2.1862411764705882" fill="#81824f" />
  <circle cx="95.0" cy="25.0" r="1.8870882352941174" fill="#736e46" />
  <circle cx="105.0" cy="25.0" r="1.8838235294117645" fill="#726e47" />
  <circle cx="115.0" cy="25.0" r="2.121494117647059" fill="#7b7f4e" />
  <circle cx="125.0" cy="25.0" r="2.369982352941176" fill="#83905d" />
  <circle cx="135.0" cy="25.0" r="2.244635294117647" fill="#7e8855" />
  <circle cx="145.0" cy="25.0" r="2.193141176470588" fill="#7e8450" />
  <circle cx="155.0" cy="25.0" r="2.231205882352941" fill="#7f8656" />
  <circle cx="165.0" cy="25.0" r="2.289988235294117" fill="#808a5c" />
  <circle cx="175.0" cy="25.0" r="2.3389058823529414" fill="#838d5d" />
  <circle cx="185.0" cy="25.0" r="2.321752941176471" fill="#848c57" />
  <circle cx="195.0" cy="25.0" r="2.3232705882352938" fill="#828c5d" />
  <circle cx="5.0" cy="35.0" r="2.3742" fill="#858f5f" />
  <circle cx="15.0" cy="35.0" r="2.4440294117647063" fill="#8a9360" />
  <circle cx="25.0" cy="35.0" r="2.455076470588235" fill="#8e935b" />
  <circle cx="35.0" cy="35.0" r="2.4134470588235293" fill="#8c905b" />
  <circle cx="45.0" cy="35.0" r="2.4807705882352935" fill="#8f9460" />
  <circle cx="55.0" cy="35.0" r="2.4779999999999998" fill="#90945c" />
  <circle cx="65.0" cy="35.0" r="2.563270588235294" fill="#949a5d" />
  <circle cx="75.0" cy="35.0" r="2.1969882352941177" fill="#85814f" />
  <circle cx="85.0" cy="35.0" r="1.5853411764705883" fill="#795521" />
  <circle cx="95.0" cy="35.0" r="1.2743823529411766" fill="#68411a" />
  <circle cx="105.0" cy="35.0" r="0.6943411764705882" fill="#3c2017" />
  <circle cx="115.0" cy="35.0" r="0.6281470588235294" fill="#331e18" />
  <circle cx="125.0" cy="35.0" r="1.800670588235294" fill="#6c6a42" />
  <circle cx="135.0" cy="35.0" r="2.504558823529412" fill="#8e975f" />
  <circle cx="145.0" cy="35.0" r="2.2781117647058826" fill="#828956" />
  <circle cx="155.0" cy="35.0" r="2.409494117647059" fill="#879161" />
  <circle cx="165.0" cy="35.0" r="2.4883588235294116" fill="#90955c" />
  <circle cx="175.0" cy="35.0" r="2.4898058823529405" fill="#93945a" />
  <circle cx="185.0" cy="35.0" r="2.472723529411765" fill="#8f945c" />
  <circle cx="195.0" cy="35.0" r="2.480576470588235" fill="#8d9560" />
  <circle cx="5.0" cy="45.0" r="2.486047058823529" fill="#909460" />
  <circle cx="15.0" cy="45.0" r="2.6603117647058827" fill="#989f69" />
  <circle cx="25.0" cy="45.0" r="2.6852470588235295" fill="#9aa06b" />
  <circle cx="35.0" cy="45.0" r="2.6630117647058826" fill="#9c9e65" />
  <circle cx="45.0" cy="45.0" r="2.668288235294118" fill="#9d9e65" />
  <circle cx="55.0" cy="45.0" r="2.6630117647058826" fill="#9c9e65" />
  <circle cx="65.0" cy="45.0" r="2.57705294117647" fill="#949969" />
  <circle cx="75.0" cy="45.0" r="1.9772117647058822" fill="#8b6d39" />
  <circle cx="85.0" cy="45.0" r="3.1078764705882356" fill="#d7ae55" />
  <circle cx="95.0" cy="45.0" r="2.999029411764706" fill="#d0a94b" />
  <circle cx="105.0" cy="45.0" r="1.5613588235294118" fill="#785322" />
  <circle cx="115.0" cy="45.0" r="0.40522941176470584" fill="#251016" />
  <circle cx="125.0" cy="45.0" r="0.40886470588235296" fill="#211218" />
  <circle cx="135.0" cy="45.0" r="2.298723529411765" fill="#84895b" />
  <circle cx="145.0" cy="45.0" r="2.634123529411765" fill="#959e69" />
  <circle cx="155.0" cy="45.0" r="2.6270294117647057" fill="#969d68" />
  <circle cx="165.0" cy="45.0" r="2.6761411764705882" fill="#9b9f69" />
  <circle cx="175.0" cy="45.0" r="2.626464705882353" fill="#999c65" />
  <circle cx="185.0" cy="45.0" r="2.565670588235294" fill="#98985e" />
  <circle cx="195.0" cy="45.0" r="2.6481352941176466" fill="#9a9d68" />
  <circle cx="5.0" cy="55.0" r="2.3912823529411766" fill="#898f5d" />
  <circle cx="15.0" cy="55.0" r="2.4487411764705884" fill="#8e925d" />
  <circle cx="25.0" cy="55.0" r="2.724" fill="#9fa16c" />
  <circle cx="35.0" cy="55.0" r="2.849082352941177" fill="#a7a96c" />
  <circle cx="45.0" cy="55.0" r="2.8134882352941175" fill="#a5a66f" />
  <circle cx="55.0" cy="55.0" r="3.020276470588236" fill="#b0b376" />
  <circle cx="65.0" cy="55.0" r="1.973894117647059" fill="#7e704a" />
  <circle cx="75.0" cy="55.0" r="2.097794117647059" fill="#9a7139" />
  <circle cx="85.0" cy="55.0" r="3.4631294117647062" fill="#ebc365" />
  <circle cx="95.0" cy="55.0" r="3.1005882352941176" fill="#d6ae54" />
  <circle cx="105.0" cy="55.0" r="2.4077294117647057" fill="#af8535" />
  <circle cx="115.0" cy="55.0" r="0.9867882352941176" fill="#4f311f" />
  <circle cx="135.0" cy="55.0" r="1.2616235294117648" fill="#4a4a34" />
  <circle cx="145.0" cy="55.0" r="2.3353764705882347" fill="#858d56" />
  <circle cx="155.0" cy="55.0" r="2.4823941176470585" fill="#8b9661" />
  <circle cx="165.0" cy="55.0" r="2.731588235294118" fill="#a0a268" />
  <circle cx="175.0" cy="55.0" r="2.839976470588236" fill="#a8a86a" />
  <circle cx="185.0" cy="55.0" r="2.686429411764706" fill="#a09f61" />
  <circle cx="195.0" cy="55.0" r="2.625970588235294" fill="#979c6a" />
  <circle cx="5.0" cy="65.0" r="1.4731941176470589" fill="#545740" />
  <circle cx="15.0" cy="65.0" r="1.9016470588235292" fill="#6c724b" />
  <circle cx="25.0" cy="65.0" r="2.0533058823529413" fill="#7b794b" />
  <circle cx="35.0" cy="65.0" r="1.9106823529411765" fill="#707245" />
  <circle cx="45.0" cy="65.0" r="2.3798647058823534" fill="#8a8d5f" />
  <circle cx="55.0" cy="65.0" r="3.008664705882353" fill="#afb278" />
  <circle cx="65.0" cy="65.0" r="1.5075705882352943" fill="#675239" />
  <circle cx="75.0" cy="65.0" r="1.6960941176470588" fill="#825831" />
  <circle cx="85.0" cy="65.0" r="2.595511764705882" fill="#ba8f42" />
  <circle cx="95.0" cy="65.0" r="2.1908470588235294" fill="#a17736" />
  <circle cx="105.0" cy="65.0" r="2.0264470588235293" fill="#976d32" />
  <circle cx="115.0" cy="65.0" r="1.2512294117647058" fill="#614026" />
  <circle cx="135.0" cy="65.0" r="0.7635352941176471" fill="#2f2a28" />
  <circle cx="145.0" cy="65.0" r="1.6295294117647061" fill="#556543" />
  <circle cx="155.0" cy="65.0" r="1.771270588235294" fill="#5a6e4e" />
  <circle cx="165.0" cy="65.0" r="2.5198235294117644" fill="#94965c" />
  <circle cx="175.0" cy="65.0" r="3.0058235294117646" fill="#b5b16c" />
  <circle cx="185.0" cy="65.0" r="2.596941176470588" fill="#9a9a5e" />
  <circle cx="195.0" cy="65.0" r="2.2935176470588234" fill="#7e8a63" />
  <circle cx="5.0" cy="75.0" r="1.4141117647058823" fill="#53523f" />
  <circle cx="15.0" cy="75.0" r="1.659635294117647" fill="#5a644a" />
  <circle cx="25.0" cy="75.0" r="1.639905882352941" fill="#5e6240" />
  <circle cx="35.0" cy="75.0" r="1.4662058823529411" fill="#53583a" />
  <circle cx="45.0" cy="75.0" r="1.5029470588235292" fill="#58593a" />
  <circle cx="55.0" cy="75.0" r="1.7048470588235292" fill="#666441" />
  <circle cx="65.0" cy="75.0" r="0.9870529411764705" fill="#4c3127" />
  <circle cx="75.0" cy="75.0" r="2.236394117647059" fill="#a5783d" />
  <circle cx="85.0" cy="75.0" r="2.910194117647059" fill="#cba250" />
  <circle cx="95.0" cy="75.0" r="2.7117529411764703" fill="#c09648" />
  <circle cx="105.0" cy="75.0" r="2.863217647058824" fill="#cd9e48" />
  <circle cx="115.0" cy="75.0" r="1.1930117647058822" fill="#5d3d23" />
  <circle cx="125.0" cy="75.0" r="0.33949411764705884" fill="#1b0d1f" />
  <circle cx="135.0" cy="75.0" r="0.7095352941176469" fill="#2d2627" />
  <circle cx="145.0" cy="75.0" r="1.5528" fill="#535f41" />
  <circle cx="155.0" cy="75.0" r="1.5839470588235294" fill="#4e6349" />
  <circle cx="165.0" cy="75.0" r="2.1566647058823527" fill="#768358" />
  <circle cx="175.0" cy="75.0" r="2.6571705882352936" fill="#9e9d62" />
  <circle cx="185.0" cy="75.0" r="2.3606999999999996" fill="#8b8c58" />
  <circle cx="195.0" cy="75.0" r="2.212764705882353" fill="#7c845f" />
  <circle cx="5.0" cy="85.0" r="1.1773058823529412" fill="#474336" />
  <circle cx="15.0" cy="85.0" r="1.3015058823529413" fill="#494d3b" />
  <circle cx="25.0" cy="85.0" r="1.4704235294117645" fill="#55573c" />
  <circle cx="35.0" cy="85.0" r="1.4775176470588236" fill="#54583d" />
  <circle cx="45.0" cy="85.0" r="1.3478470588235294" fill="#4f4f38" />
  <circle cx="55.0" cy="85.0" r="1.1932411764705884" fill="#484531" />
  <circle cx="65.0" cy="85.0" r="0.5937000000000001" fill="#34191e" />
  <circle cx="75.0" cy="85.0" r="1.8201176470588234" fill="#8b5f33" />
  <circle cx="85.0" cy="85.0" r="2.6100882352941173" fill="#bc8f44" />
  <circle cx="95.0" cy="85.0" r="2.2414764705882355" fill="#a4793d" />
  <circle cx="105.0" cy="85.0" r="2.413464705882353" fill="#af843d" />
  <circle cx="115.0" cy="85.0" r="0.8067529411764707" fill="#44261b" />
  <circle cx="125.0" cy="85.0" r="0.44567647058823534" fill="#211420" />
  <circle cx="135.0" cy="85.0" r="0.5784176470588236" fill="#251e24" />
  <circle cx="145.0" cy="85.0" r="1.185070588235294" fill="#414735" />
  <circle cx="155.0" cy="85.0" r="1.3493470588235292" fill="#445341" />
  <circle cx="165.0" cy="85.0" r="1.5417529411764705" fill="#4f5f46" />
  <circle cx="175.0" cy="85.0" r="1.7323411764705883" fill="#5c6a4a" />
  <circle cx="185.0" cy="85.0" r="1.5559588235294117" fill="#565d45" />
  <circle cx="195.0" cy="85.0" r="1.5922058823529412" fill="#595e4a" />
  <circle cx="5.0" cy="95.0" r="0.9841411764705883" fill="#3d372e" />
  <circle cx="15.0" cy="95.0" r="1.295858823529412" fill="#4d4b38" />
  <circle cx="25.0" cy="95.0" r="1.3722176470588234" fill="#544f37" />
  <circle cx="35.0" cy="95.0" r="1.256735294117647" fill="#4d4834" />
  <circle cx="45.0" cy="95.0" r="1.2762000000000002" fill="#4c4a36" />
  <circle cx="55.0" cy="95.0" r="1.3718294117647059" fill="#505137" />
  <circle cx="65.0" cy="95.0" r="0.8455764705882353" fill="#442824" />
  <circle cx="75.0" cy="95.0" r="0.8590235294117649" fill="#4c2620" />
  <circle cx="85.0" cy="95.0" r="2.4573000000000005" fill="#b3863e" />
  <circle cx="95.0" cy="95.0" r="2.257605882352941" fill="#a77a38" />
  <circle cx="105.0" cy="95.0" r="1.6401882352941177" fill="#7e562a" />
  <circle cx="115.0" cy="95.0" r="0.6658411764705883" fill="#391e1b" />
  <circle cx="125.0" cy="95.0" r="0.4385823529411764" fill="#22131f" />
  <circle cx="135.0" cy="95.0" r="0.5662411764705884" fill="#271c23" />
  <circle cx="145.0" cy="95.0" r="1.2550941176470587" fill="#484a36" />
  <circle cx="155.0" cy="95.0" r="1.3676823529411766" fill="#49533d" />
  <circle cx="165.0" cy="95.0" r="1.344264705882353" fill="#455241" />
  <circle cx="175.0" cy="95.0" r="1.4441117647058823" fill="#4b5844" />
  <circle cx="185.0" cy="95.0" r="1.413229411764706" fill="#4d5444" />
  <circle cx="195.0" cy="95.0" r="1.4756647058823533" fill="#535649" />
  <circle cx="5.0" cy="105.0" r="0.9059647058823528" fill="#38322e" />
  <circle cx="15.0" cy="105.0" r="1.0268294117647057" fill="#3e3b2c" />
  <circle cx="25.0" cy="105.0" r="1.2946058823529412" fill="#4c4b3a" />
  <circle cx="35.0" cy="105.0" r="1.3368000000000002" fill="#4b4f3d" />
  <circle cx="45.0" cy="105.0" r="1.514329411764706" fill="#545a45" />
  <circle cx="55.0" cy="105.0" r="1.8542470588235294" fill="#676f50" />
  <circle cx="65.0" cy="105.0" r="1.1331176470588233" fill="#513b2f" />
  <circle cx="75.0" cy="105.0" r="0.4413" fill="#2f0e18" />
  <circle cx="85.0" cy="105.0" r="1.0163117647058824" fill="#4e3326" />
  <circle cx="95.0" cy="105.0" r="1.4627294117647058" fill="#704c2a" />
  <circle cx="105.0" cy="105.0" r="0.9045882352941175" fill="#4a2c1d" />
  <circle cx="115.0" cy="105.0" r="0.808570588235294" fill="#42271c" />
  <circle cx="125.0" cy="105.0" r="0.45672352941176464" fill="#25141b" />
  <circle cx="135.0" cy="105.0" r="0.45910588235294114" fill="#20161f" />
  <circle cx="145.0" cy="105.0" r="1.2130764705882355" fill="#424936" />
  <circle cx="155.0" cy="105.0" r="1.4882470588235295" fill="#4f5b40" />
  <circle cx="165.0" cy="105.0" r="1.3436999999999997" fill="#48513e" />
  <circle cx="175.0" cy="105.0" r="1.258429411764706" fill="#444b3d" />
  <circle cx="185.0" cy="105.0" r="1.4836235294117648" fill="#4f5948" />
  <circle cx="195.0" cy="105.0" r="1.5545999999999998" fill="#575b4c" />
  <circle cx="5.0" cy="115.0" r="1.0913470588235294" fill="#3f3e3a" />
  <circle cx="15.0" cy="115.0" r="1.2892058823529415" fill="#444d42" />
  <circle cx="25.0" cy="115.0" r="1.5261352941176471" fill="#575a43" />
  <circle cx="35.0" cy="115.0" r="1.5477352941176472" fill="#5d5a3e" />
  <circle cx="45.0" cy="115.0" r="1.5896294117647058" fill="#5c5d46" />
  <circle cx="55.0" cy="115.0" r="1.6852588235294117" fill="#606447" />
  <circle cx="65.0" cy="115.0" r="1.0888941176470588" fill="#493b2e" />
  <circle cx="75.0" cy="115.0" r="0.5149588235294118" fill="#32131b" />
  <circle cx="85.0" cy="115.0" r="0.8144117647058824" fill="#40281f" />
  <circle cx="95.0" cy="115.0" r="2.0744823529411764" fill="#947238" />
  <circle cx="105.0" cy="115.0" r="1.9874999999999998" fill="#906d31" />
  <circle cx="115.0" cy="115.0" r="1.895435294117647" fill="#8d672a" />
  <circle cx="125.0" cy="115.0" r="0.7454647058823529" fill="#412219" />
  <circle cx="135.0" cy="115.0" r="0.5318294117647059" fill="#2b181c" />
  <circle cx="145.0" cy="115.0" r="0.8238705882352939" fill="#312f27" />
  <circle cx="155.0" cy="115.0" r="1.3217647058823525" fill="#4a5033" />
  <circle cx="165.0" cy="115.0" r="1.4525823529411763" fill="#52573b" />
  <circle cx="175.0" cy="115.0" r="1.8308117647058821" fill="#746a3c" />
  <circle cx="185.0" cy="115.0" r="1.6510411764705881" fill="#665f40" />
  <circle cx="195.0" cy="115.0" r="1.6045941176470588" fill="#625b48" />
  <circle cx="5.0" cy="125.0" r="1.3544823529411762" fill="#5e4838" />
  <circle cx="15.0" cy="125.0" r="1.4392411764705881" fill="#575241" />
  <circle cx="25.0" cy="125.0" r="1.5852882352941178" fill="#6d5831" />
  <circle cx="35.0" cy="125.0" r="1.4417294117647055" fill="#6a4e25" />
  <circle cx="45.0" cy="125.0" r="1.0046117647058823" fill="#493523" />
  <circle cx="55.0" cy="125.0" r="0.9169411764705881" fill="#413121" />
  <circle cx="65.0" cy="125.0" r="0.5731588235294117" fill="#2d1a21" />
  <circle cx="75.0" cy="125.0" r="0.9755647058823529" fill="#522e21" />
  <circle cx="85.0" cy="125.0" r="2.685370588235294" fill="#bb9648" />
  <circle cx="95.0" cy="125.0" r="3.138952941176471" fill="#d7b155" />
  <circle cx="105.0" cy="125.0" r="3.135688235294118" fill="#d6b156" />
  <circle cx="115.0" cy="125.0" r="2.7953117647058825" fill="#c49d43" />
  <circle cx="125.0" cy="125.0" r="1.263158823529412" fill="#6b3e1c" />
  <circle cx="135.0" cy="125.0" r="0.7396941176470588" fill="#3e221e" />
  <circle cx="145.0" cy="125.0" r="0.44002941176470584" fill="#25121d" />
  <circle cx="155.0" cy="125.0" r="1.146264705882353" fill="#4a4129" />
  <circle cx="165.0" cy="125.0" r="2.0661" fill="#82793f" />
  <circle cx="175.0" cy="125.0" r="2.0357117647058827" fill="#86753a" />
  <circle cx="185.0" cy="125.0" r="1.7274" fill="#6d633f" />
  <circle cx="195.0" cy="125.0" r="1.5518470588235296" fill="#615745" />
  <circle cx="5.0" cy="135.0" r="1.3875176470588235" fill="#6c462e" />
  <circle cx="15.0" cy="135.0" r="1.2899823529411765" fill="#664127" />
  <circle cx="25.0" cy="135.0" r="1.7290941176470587" fill="#7e5e2d" />
  <circle cx="35.0" cy="135.0" r="1.7730352941176473" fill="#806229" />
  <circle cx="45.0" cy="135.0" r="1.3138764705882353" fill="#634621" />
  <circle cx="55.0" cy="135.0" r="0.8797235294117647" fill="#432c23" />
  <circle cx="65.0" cy="135.0" r="0.668805882352941" fill="#3a1d1f" />
  <circle cx="75.0" cy="135.0" r="2.3496" fill="#af7f37" />
  <circle cx="85.0" cy="135.0" r="3.5855117647058825" fill="#efcc69" />
  <circle cx="95.0" cy="135.0" r="3.3716294117647054" fill="#e5be61" />
  <circle cx="105.0" cy="135.0" r="3.4099941176470585" fill="#e6c162" />
  <circle cx="115.0" cy="135.0" r="2.811141176470588" fill="#c79d43" />
  <circle cx="125.0" cy="135.0" r="1.252041176470588" fill="#6c3d19" />
  <circle cx="135.0" cy="135.0" r="1.007505882352941" fill="#4f331f" />
  <circle cx="145.0" cy="135.0" r="1.2473999999999998" fill="#633f24" />
  <circle cx="155.0" cy="135.0" r="0.8360823529411764" fill="#412922" />
  <circle cx="165.0" cy="135.0" r="1.5394411764705882" fill="#69562f" />
  <circle cx="175.0" cy="135.0" r="2.064670588235294" fill="#88763e" />
  <circle cx="185.0" cy="135.0" r="2.2064117647058823" fill="#8d7f49" />
  <circle cx="195.0" cy="135.0" r="1.9118470588235292" fill="#7c6c45" />
  <circle cx="5.0" cy="145.0" r="1.3872176470588236" fill="#6c4533" />
  <circle cx="15.0" cy="145.0" r="1.4263764705882351" fill="#6f492a" />
  <circle cx="25.0" cy="145.0" r="1.442770588235294" fill="#6f4a2d" />
  <circle cx="35.0" cy="145.0" r="1.8609" fill="#8a652b" />
  <circle cx="45.0" cy="145.0" r="1.4023058823529408" fill="#6a4a26" />
  <circle cx="55.0" cy="145.0" r="0.40701176470588235" fill="#201024" />
  <circle cx="65.0" cy="145.0" r="1.420341176470588" fill="#6f4927" />
  <circle cx="75.0" cy="145.0" r="3.414052941176471" fill="#e9c257" />
  <circle cx="85.0" cy="145.0" r="3.543688235294118" fill="#ebca69" />
  <circle cx="95.0" cy="145.0" r="3.695488235294118" fill="#f0d379" />
  <circle cx="105.0" cy="145.0" r="3.7032705882352945" fill="#f3d375" />
  <circle cx="115.0" cy="145.0" r="2.860058823529412" fill="#caa044" />
  <circle cx="125.0" cy="145.0" r="1.5648176470588235" fill="#7b5221" />
  <circle cx="135.0" cy="145.0" r="1.5543352941176471" fill="#745329" />
  <circle cx="145.0" cy="145.0" r="1.1673882352941176" fill="#573d26" />
  <circle cx="155.0" cy="145.0" r="0.5528117647058823" fill="#281a24" />
  <circle cx="165.0" cy="145.0" r="0.4995705882352941" fill="#251626" />
  <circle cx="175.0" cy="145.0" r="1.0849764705882352" fill="#56342e" />
  <circle cx="185.0" cy="145.0" r="1.6451117647058822" fill="#73583f" />
  <circle cx="195.0" cy="145.0" r="2.2108235294117646" fill="#917d4b" />
  <circle cx="5.0" cy="155.0" r="1.1839588235294118" fill="#5f3833" />
  <circle cx="15.0" cy="155.0" r="1.6955470588235295" fill="#8e532b" />
  <circle cx="25.0" cy="155.0" r="1.8626294117647058" fill="#93602e" />
  <circle cx="35.0" cy="155.0" r="1.6096764705882354" fill="#7b542d" />
  <circle cx="45.0" cy="155.0" r="0.6929294117647058" fill="#31212e" />
  <circle cx="55.0" cy="155.0" r="0.7277647058823529" fill="#342428" />
  <circle cx="65.0" cy="155.0" r="1.3072411764705882" fill="#634428" />
  <circle cx="75.0" cy="155.0" r="1.8646235294117646" fill="#8a6432" />
  <circle cx="85.0" cy="155.0" r="2.5093588235294115" fill="#b08b46" />
  <circle cx="95.0" cy="155.0" r="2.9735647058823527" fill="#c9a75b" />
  <circle cx="105.0" cy="155.0" r="2.928970588235294" fill="#c6a557" />
  <circle cx="115.0" cy="155.0" r="1.772735294117647" fill="#80612e" />
  <circle cx="125.0" cy="155.0" r="0.7855235294117647" fill="#392823" />
  <circle cx="135.0" cy="155.0" r="0.6902647058823529" fill="#302325" />
  <circle cx="145.0" cy="155.0" r="0.45660000000000006" fill="#1e1623" />
  <circle cx="155.0" cy="155.0" r="0.3331411764705882" fill="#121024" />
  <circle cx="165.0" cy="155.0" r="0.5057823529411763" fill="#1e192c" />
  <circle cx="175.0" cy="155.0" r="0.8560941176470588" fill="#432731" />
  <circle cx="185.0" cy="155.0" r="1.2785470588235295" fill="#6d3a33" />
  <circle cx="195.0" cy="155.0" r="1.4643000000000002" fill="#6f4842" />
  <circle cx="5.0" cy="165.0" r="0.8188588235294116" fill="#3c2636" />
  <circle cx="15.0" cy="165.0" r="1.3099411764705882" fill="#763a2b" />
  <circle cx="25.0" cy="165.0" r="1.6431882352941178" fill="#914d28" />
  <circle cx="35.0" cy="165.0" r="1.2346235294117645" fill="#653b2d" />
  <circle cx="45.0" cy="165.0" r="0.6274941176470589" fill="#271f32" />
  <circle cx="55.0" cy="165.0" r="0.8818058823529412" fill="#3e2d2c" />
  <circle cx="65.0" cy="165.0" r="0.9513705882352942" fill="#463125" />
  <circle cx="75.0" cy="165.0" r="1.0564941176470588" fill="#4d3728" />
  <circle cx="85.0" cy="165.0" r="1.3997999999999997" fill="#684a2a" />
  <circle cx="95.0" cy="165.0" r="1.2875823529411765" fill="#624326" />
  <circle cx="105.0" cy="165.0" r="1.1389941176470588" fill="#523d25" />
  <circle cx="115.0" cy="165.0" r="0.5027470588235294" fill="#221920" />
  <circle cx="125.0" cy="165.0" r="0.5171294117647058" fill="#221a22" />
  <circle cx="135.0" cy="165.0" r="0.8904529411764706" fill="#3e2f26" />
  <circle cx="145.0" cy="165.0" r="1.0784647058823529" fill="#4e3926" />
  <circle cx="155.0" cy="165.0" r="0.8119058823529413" fill="#3e2823" />
  <circle cx="165.0" cy="165.0" r="0.5468470588235295" fill="#231b29" />
  <circle cx="175.0" cy="165.0" r="0.698770588235294" fill="#2f2231" />
  <circle cx="185.0" cy="165.0" r="1.2279882352941176" fill="#653934" />
  <circle cx="195.0" cy="165.0" r="1.2710117647058825" fill="#5e3e42" />
  <circle cx="5.0" cy="175.0" r="1.2023470588235292" fill="#563d3a" />
  <circle cx="15.0" cy="175.0" r="1.818176470588235" fill="#86603a" />
  <circle cx="25.0" cy="175.0" r="1.9867235294117647" fill="#976838" />
  <circle cx="35.0" cy="175.0" r="1.0664470588235295" fill="#4f3532" />
  <circle cx="45.0" cy="175.0" r="0.6254823529411764" fill="#271f31" />
  <circle cx="55.0" cy="175.0" r="0.7219941176470589" fill="#31242d" />
  <circle cx="65.0" cy="175.0" r="0.759035294117647" fill="#362628" />
  <circle cx="75.0" cy="175.0" r="0.8601352941176471" fill="#3d2c29" />
  <circle cx="85.0" cy="175.0" r="0.9957705882352941" fill="#473429" />
  <circle cx="95.0" cy="175.0" r="1.1072294117647057" fill="#4e3b2a" />
  <circle cx="105.0" cy="175.0" r="0.7202823529411764" fill="#312527" />
  <circle cx="115.0" cy="175.0" r="0.45660000000000006" fill="#1e1623" />
  <circle cx="125.0" cy="175.0" r="0.5556882352941176" fill="#251c23" />
  <circle cx="135.0" cy="175.0" r="0.8586176470588236" fill="#3f2c23" />
  <circle cx="145.0" cy="175.0" r="1.1917588235294116" fill="#5c3d25" />
  <circle cx="155.0" cy="175.0" r="0.6135352941176471" fill="#2e1d23" />
  <circle cx="165.0" cy="175.0" r="0.49140000000000006" fill="#1e182a" />
  <circle cx="175.0" cy="175.0" r="0.737135294117647" fill="#302532" />
  <circle cx="185.0" cy="175.0" r="1.1828823529411765" fill="#573b38" />
  <circle cx="195.0" cy="175.0" r="1.364629411764706" fill="#624542" />
  <circle cx="5.0" cy="185.0" r="1.3145647058823529" fill="#5c443e" />
  <circle cx="15.0" cy="185.0" r="1.4986588235294118" fill="#6a5037" />
  <circle cx="25.0" cy="185.0" r="1.312094117647059" fill="#5d4535" />
  <circle cx="35.0" cy="185.0" r="0.810229411764706" fill="#362932" />
  <circle cx="45.0" cy="185.0" r="0.9147882352941178" fill="#402e32" />
  <circle cx="55.0" cy="185.0" r="0.7103823529411764" fill="#30232f" />
  <circle cx="65.0" cy="185.0" r="0.6493941176470588" fill="#2d2028" />
  <circle cx="75.0" cy="185.0" r="0.6859411764705883" fill="#302228" />
  <circle cx="85.0" cy="185.0" r="0.8581235294117646" fill="#3d2c28" />
  <circle cx="95.0" cy="185.0" r="0.9259411764705883" fill="#423028" />
  <circle cx="105.0" cy="185.0" r="0.582635294117647" fill="#271d26" />
  <circle cx="115.0" cy="185.0" r="0.4200529411764706" fill="#1b1423" />
  <circle cx="125.0" cy="185.0" r="0.5176941176470587" fill="#1f1b25" />
  <circle cx="135.0" cy="185.0" r="0.7615411764705882" fill="#382624" />
  <circle cx="145.0" cy="185.0" r="0.46860000000000007" fill="#231521" />
  <circle cx="155.0" cy="185.0" r="0.3591529411764707" fill="#1c0e21" />
  <circle cx="165.0" cy="185.0" r="0.5110588235294118" fill="#1f192c" />
  <circle cx="175.0" cy="185.0" r="0.7180411764705883" fill="#2c2533" />
  <circle cx="185.0" cy="185.0" r="0.9161117647058824" fill="#3c2f38" />
  <circle cx="195.0" cy="185.0" r="1.2220058823529414" fill="#573e3c" />
  <circle cx="5.0" cy="195.0" r="1.1865176470588235" fill="#533d3a" />
  <circle cx="15.0" cy="195.0" r="0.9584294117647059" fill="#423133" />
  <circle cx="25.0" cy="195.0" r="0.752964705882353" fill="#332532" />
  <circle cx="35.0" cy="195.0" r="0.850235294117647" fill="#3c2a31" />
  <circle cx="45.0" cy="195.0" r="0.9467470588235295" fill="#462f2d" />
  <circle cx="55.0" cy="195.0" r="0.6999529411764704" fill="#352127" />
  <circle cx="65.0" cy="195.0" r="0.537935294117647" fill="#261927" />
  <circle cx="75.0" cy="195.0" r="0.6181235294117647" fill="#2b1e28" />
  <circle cx="85.0" cy="195.0" r="0.8966823529411765" fill="#402e29" />
  <circle cx="95.0" cy="195.0" r="0.683929411764706" fill="#302227" />
  <circle cx="105.0" cy="195.0" r="0.49918235294117647" fill="#211826" />
  <circle cx="115.0" cy="195.0" r="0.4271470588235294" fill="#1a1524" />
  <circle cx="125.0" cy="195.0" r="0.4511294117647059" fill="#1b1723" />
  <circle cx="135.0" cy="195.0" r="0.3356470588235294" fill="#141020" />
  <circle cx="145.0" cy="195.0" r="0.3957" fill="#1f1021" />
  <circle cx="155.0" cy="195.0" r="0.42314117647058824" fill="#23111f" />
  <circle cx="165.0" cy="195.0" r="0.4490117647058823" fill="#1d1527" />
  <circle cx="175.0" cy="195.0" r="0.6585705882352941" fill="#272232" />
  <circle cx="185.0" cy="195.0" r="0.7802823529411763" fill="#302838" />
  <circle cx="195.0" cy="195.0" r="1.1373" fill="#50393e" />
  <circle cx="5.0" cy="205.0" r="1.0722882352941177" fill="#4d3635" />
  <circle cx="15.0" cy="205.0" r="0.7478823529411764" fill="#342432" />
  <circle cx="25.0" cy="205.0" r="0.8531294117647059" fill="#42282d" />
  <circle cx="35.0" cy="205.0" r="0.9927176470588234" fill="#512f27" />
  <circle cx="45.0" cy="205.0" r="0.8725235294117648" fill="#462927" />
  <circle cx="55.0" cy="205.0" r="0.4768411764705882" fill="#251425" />
  <circle cx="65.0" cy="205.0" r="0.30974117647058824" fill="#170b25" />
  <circle cx="75.0" cy="205.0" r="0.4295470588235294" fill="#1e1325" />
  <circle cx="85.0" cy="205.0" r="0.6370235294117648" fill="#2d1f27" />
  <circle cx="95.0" cy="205.0" r="0.5484882352941176" fill="#281927" />
  <circle cx="105.0" cy="205.0" r="0.4482529411764705" fill="#1e1524" />
  <circle cx="115.0" cy="205.0" r="0.40824705882352935" fill="#181425" />
  <circle cx="125.0" cy="205.0" r="0.346764705882353" fill="#131123" />
  <circle cx="135.0" cy="205.0" r="0.30638823529411763" fill="#120e21" />
  <circle cx="145.0" cy="205.0" r="0.43570588235294117" fill="#251120" />
  <circle cx="155.0" cy="205.0" r="0.4389705882352941" fill="#26111f" />
  <circle cx="165.0" cy="205.0" r="0.3857117647058824" fill="#1a1124" />
  <circle cx="175.0" cy="205.0" r="0.5567117647058824" fill="#211c2e" />
  <circle cx="185.0" cy="205.0" r="0.7064294117647059" fill="#2b2435" />
  <circle cx="195.0" cy="205.0" r="1.165305882352941" fill="#513b3f" />
  <circle cx="5.0" cy="215.0" r="0.9165" fill="#402d38" />
  <circle cx="15.0" cy="215.0" r="0.6160764705882352" fill="#281d34" />
  <circle cx="25.0" cy="215.0" r="1.0965882352941176" fill="#57352c" />
  <circle cx="35.0" cy="215.0" r="1.456023529411765" fill="#754929" />
  <circle cx="45.0" cy="215.0" r="1.2538235294117643" fill="#673d27" />
  <circle cx="55.0" cy="215.0" r="1.6952117647058826" fill="#7c5a36" />
  <circle cx="65.0" cy="215.0" r="2.1916764705882352" fill="#9b7841" />
  <circle cx="75.0" cy="215.0" r="1.4138823529411764" fill="#684a31" />
  <circle cx="85.0" cy="215.0" r="0.6797999999999998" fill="#32202a" />
  <circle cx="105.0" cy="215.0" r="0.3882882352941176" fill="#171228" />
  <circle cx="115.0" cy="215.0" r="0.3038823529411765" fill="#100e25" />
  <circle cx="145.0" cy="215.0" r="0.4279235294117647" fill="#221124" />
  <circle cx="155.0" cy="215.0" r="0.3979058823529411" fill="#210f22" />
  <circle cx="165.0" cy="215.0" r="0.34263529411764704" fill="#150f26" />
  <circle cx="175.0" cy="215.0" r="0.5203588235294118" fill="#20192e" />
  <circle cx="185.0" cy="215.0" r="0.6085941176470587" fill="#251e33" />
  <circle cx="195.0" cy="215.0" r="0.8758058823529412" fill="#362d3e" />
  <circle cx="5.0" cy="225.0" r="0.841394117647059" fill="#3a2937" />
  <circle cx="15.0" cy="225.0" r="0.5722411764705883" fill="#241b33" />
  <circle cx="25.0" cy="225.0" r="0.7642058823529412" fill="#39242d" />
  <circle cx="35.0" cy="225.0" r="1.0249411764705882" fill="#54302a" />
  <circle cx="45.0" cy="225.0" r="0.9811058823529412" fill="#502e29" />
  <circle cx="55.0" cy="225.0" r="2.0601882352941177" fill="#986e3b" />
  <circle cx="65.0" cy="225.0" r="2.79665294117647" fill="#c99a46" />
  <circle cx="75.0" cy="225.0" r="2.815552941176471" fill="#cb9b45" />
  <circle cx="85.0" cy="225.0" r="2.4784058823529413" fill="#b7863e" />
  <circle cx="95.0" cy="225.0" r="1.588270588235294" fill="#775332" />
  <circle cx="105.0" cy="225.0" r="0.5939470588235294" fill="#281d29" />
  <circle cx="125.0" cy="225.0" r="0.3646058823529412" fill="#161124" />
  <circle cx="135.0" cy="225.0" r="0.4442294117647059" fill="#1e1522" />
  <circle cx="145.0" cy="225.0" r="0.41209411764705883" fill="#1f1124" />
  <circle cx="155.0" cy="225.0" r="0.35156470588235295" fill="#1b0d25" />
  <circle cx="165.0" cy="225.0" r="0.5347411764705883" fill="#201a30" />
  <circle cx="175.0" cy="225.0" r="0.6138705882352942" fill="#261e33" />
  <circle cx="185.0" cy="225.0" r="0.6367941176470587" fill="#281f34" />
  <circle cx="195.0" cy="225.0" r="0.8281411764705883" fill="#342a3b" />
  <circle cx="5.0" cy="235.0" r="0.7448117647058823" fill="#352333" />
  <circle cx="15.0" cy="235.0" r="0.41015294117647066" fill="#1a122b" />
  <circle cx="25.0" cy="235.0" r="0.3839647058823529" fill="#17112b" />
  <circle cx="35.0" cy="235.0" r="0.4703117647058823" fill="#231427" />
  <circle cx="45.0" cy="235.0" r="0.5734235294117647" fill="#2a1a29" />
  <circle cx="55.0" cy="235.0" r="1.2098647058823528" fill="#5c3d2e" />
  <circle cx="65.0" cy="235.0" r="1.8932117647058821" fill="#916333" />
  <circle cx="75.0" cy="235.0" r="2.2799647058823527" fill="#ac7a36" />
  <circle cx="85.0" cy="235.0" r="2.447629411764706" fill="#b78439" />
  <circle cx="95.0" cy="235.0" r="2.2625117647058826" fill="#ad7835" />
  <circle cx="105.0" cy="235.0" r="1.6233176470588238" fill="#855129" />
  <circle cx="115.0" cy="235.0" r="1.303535294117647" fill="#6c411e" />
  <circle cx="125.0" cy="235.0" r="1.194776470588235" fill="#693919" />
  <circle cx="135.0" cy="235.0" r="1.2014999999999998" fill="#6d3817" />
  <circle cx="145.0" cy="235.0" r="0.8786117647058823" fill="#52261a" />
  <circle cx="155.0" cy="235.0" r="0.3833294117647059" fill="#1f0f20" />
  <circle cx="165.0" cy="235.0" r="0.497435294117647" fill="#1e182d" />
  <circle cx="175.0" cy="235.0" r="0.5712882352941175" fill="#231c30" />
  <circle cx="185.0" cy="235.0" r="0.5471117647058823" fill="#201b31" />
  <circle cx="195.0" cy="235.0" r="0.7519058823529412" fill="#342434" />
  <circle cx="5.0" cy="245.0" r="0.5296588235294117" fill="#211930" />
  <circle cx="15.0" cy="245.0" r="0.40814117647058823" fill="#1a122a" />
  <circle cx="25.0" cy="245.0" r="0.4637823529411764" fill="#211429" />
  <circle cx="35.0" cy="245.0" r="0.30628235294117645" fill="#140c26" />
  <circle cx="45.0" cy="245.0" r="0.7366941176470587" fill="#3a2227" />
  <circle cx="55.0" cy="245.0" r="2.090135294117647" fill="#9e6f35" />
  <circle cx="65.0" cy="245.0" r="2.3190882352941173" fill="#ac7d3a" />
  <circle cx="75.0" cy="245.0" r="1.6044176470588234" fill="#83502a" />
  <circle cx="85.0" cy="245.0" r="1.909535294117647" fill="#96632e" />
  <circle cx="95.0" cy="245.0" r="1.7627823529411766" fill="#8d5a2b" />
  <circle cx="105.0" cy="245.0" r="1.340364705882353" fill="#753f23" />
  <circle cx="115.0" cy="245.0" r="1.0151999999999999" fill="#5d2d1d" />
  <circle cx="125.0" cy="245.0" r="0.9129529411764705" fill="#532919" />
  <circle cx="135.0" cy="245.0" r="0.8587588235294117" fill="#4f2618" />
  <circle cx="145.0" cy="245.0" r="0.678229411764706" fill="#421b19" />
  <circle cx="155.0" cy="245.0" r="0.39984705882352933" fill="#260e1b" />
  <circle cx="175.0" cy="245.0" r="0.38099999999999995" fill="#161227" />
  <circle cx="185.0" cy="245.0" r="0.5079882352941176" fill="#20182d" />
  <circle cx="195.0" cy="245.0" r="0.8467941176470588" fill="#42272f" />
  <circle cx="5.0" cy="255.0" r="0.3925058823529412" fill="#19112a" />
  <circle cx="15.0" cy="255.0" r="0.38666470588235297" fill="#1b1027" />
  <circle cx="25.0" cy="255.0" r="0.41084117647058827" fill="#1e1126" />
  <circle cx="35.0" cy="255.0" r="0.3722823529411765" fill="#1b0f25" />
  <circle cx="45.0" cy="255.0" r="0.7421647058823528" fill="#3d2127" />
  <circle cx="55.0" cy="255.0" r="1.7022529411764706" fill="#89562c" />
  <circle cx="65.0" cy="255.0" r="1.6811470588235293" fill="#85562c" />
  <circle cx="75.0" cy="255.0" r="0.939970588235294" fill="#502b24" />
  <circle cx="85.0" cy="255.0" r="0.9954176470588237" fill="#552e23" />
  <circle cx="95.0" cy="255.0" r="1.0528764705882352" fill="#5a3123" />
  <circle cx="105.0" cy="255.0" r="0.9028588235294116" fill="#502821" />
  <circle cx="115.0" cy="255.0" r="0.480035294117647" fill="#2b131c" />
  <circle cx="125.0" cy="255.0" r="0.3472764705882353" fill="#1e0d1b" />
  <circle cx="135.0" cy="255.0" r="0.3543705882352941" fill="#1d0e1c" />
  <circle cx="145.0" cy="255.0" r="0.32636470588235295" fill="#1c0c1b" />
  <circle cx="175.0" cy="255.0" r="0.3609705882352942" fill="#1a0f22" />
  <circle cx="185.0" cy="255.0" r="0.5139529411764706" fill="#251728" />
  <circle cx="195.0" cy="255.0" r="0.717494117647059" fill="#38202d" />
  <circle cx="5.0" cy="265.0" r="0.4292470588235293" fill="#1e122a" />
  <circle cx="15.0" cy="265.0" r="0.39194117647058824" fill="#1c1027" />
  <circle cx="25.0" cy="265.0" r="0.3597176470588236" fill="#190f24" />
  <circle cx="35.0" cy="265.0" r="0.4068176470588235" fill="#1e1124" />
  <circle cx="45.0" cy="265.0" r="0.3757411764705882" fill="#1e0e24" />
  <circle cx="55.0" cy="265.0" r="0.842135294117647" fill="#4a2522" />
  <circle cx="65.0" cy="265.0" r="0.6450176470588236" fill="#3b1a20" />
  <circle cx="75.0" cy="265.0" r="0.5579117647058824" fill="#301721" />
  <circle cx="85.0" cy="265.0" r="0.7026529411764706" fill="#392023" />
  <circle cx="95.0" cy="265.0" r="0.5400705882352941" fill="#2d1720" />
  <circle cx="105.0" cy="265.0" r="0.37422352941176473" fill="#200e1e" />
  <circle cx="115.0" cy="265.0" r="0.3145588235294117" fill="#190c1d" />
  <circle cx="175.0" cy="265.0" r="0.38841176470588235" fill="#1e1020" />
  <circle cx="185.0" cy="265.0" r="0.43099411764705886" fill="#211223" />
  <circle cx="195.0" cy="265.0" r="0.556729411764706" fill="#2a182b" />
  <circle cx="5.0" cy="275.0" r="0.3553941176470588" fill="#190e27" />
  <circle cx="25.0" cy="275.0" r="0.3108000000000001" fill="#160c23" />
  <circle cx="35.0" cy="275.0" r="0.3120529411764706" fill="#170c21" />
  <circle cx="45.0" cy="275.0" r="0.3678882352941176" fill="#200d20" />
  <circle cx="55.0" cy="275.0" r="0.3764294117647059" fill="#220d1f" />
  <circle cx="65.0" cy="275.0" r="0.31494705882352936" fill="#1d0a1d" />
  <circle cx="75.0" cy="275.0" r="0.3776823529411765" fill="#230d1d" />
  <circle cx="85.0" cy="275.0" r="0.3442058823529412" fill="#1f0c1c" />
  <circle cx="185.0" cy="275.0" r="0.3072705882352941" fill="#180c1c" />
  <circle cx="195.0" cy="275.0" r="0.3997235294117648" fill="#1f1023" />
  <circle cx="5.0" cy="285.0" r="0.3168352941176471" fill="#160c26" />
  <circle cx="35.0" cy="285.0" r="0.34754117647058824" fill="#1b0d23" />
  <circle cx="45.0" cy="285.0" r="0.3946411764705882" fill="#200f23" />
  <circle cx="75.0" cy="285.0" r="0.38189999999999996" fill="#250c1f" />
  <circle cx="195.0" cy="285.0" r="0.314064705882353" fill="#170c22" />
</svg>