<?xml version="1.0" encoding="UTF-8"?>
<svg xmlns="http://www.w3.org/2000/svg" width="288" height="288" viewBox="0 0 288 288">
  <rect width="100%" height="100%" fill="#1a1a2e" />
  <rect x="0" y="0" width="24" height="24" fill="#1a1a2e" />
  <rect x="0" y="0" width="24" height="24" fill="#ffe66d" fill-opacity="0.7" stroke-opacity="0.7" />
  <circle cx="12" cy="12" r="3.6" fill="#ff6b6b" />
  <rect x="24" y="0" width="24" height="24" fill="#1a1a2e" />
  <rect x="24" y="0" width="24" height="24" fill="#ffe66d" fill-opacity="0.7" stroke-opacity="0.7" />
  <circle cx="36" cy="12" r="3.6" fill="#ff6b6b" />
  <rect x="48" y="0" width="24" height="24" fill="#1a1a2e" />
  <rect x="48" y="0" width="24" height="24" fill="#ffe66d" fill-opacity="0.7" stroke-opacity="0.7" />
  <circle cx="60" cy="12" r="3.6" fill="#ff6b6b" />
  <rect x="72" y="0" width="24" height="24" fill="#1a1a2e" />
  <rect x="72" y="0" width="24" height="24" fill="#ffe66d" fill-opacity="0.7" stroke-opacity="0.7" />
  <circle cx="84" cy="12" r="3.6" fill="#ff6b6b" />
  <rect x="96" y="0" width="24" height="24" fill="#1a1a2e" />
  <rect x="96" y="0" width="24" height="24" fill="#ffe66d" fill-opacity="0.7" stroke-opacity="0.7" />
  <circle cx="108" cy="12" r="3.6" fill="#ff6b6b" />
  <rect x="120" y="0" width="24" height="24" fill="#1a1a2e" />
  <rect x="120" y="0" width="24" height="24" fill="#ffe66d" fill-opacity="0.7" stroke-opacity="0.7" />
  <circle cx="132" cy="12" r="3.6" fill="#ff6b6b" />
  <rect x="144" y="0" width="24" height="24" fill="#1a1a2e" />
  <rect x="144" y="0" width="24" height="24" fill="#ffe66d" fill-opacity="0.7" stroke-opacity="0.7" />
  <circle cx="156" cy="12" r="3.6" fill="#ff6b6b" />
  <rect x="168" y="0" width="24" height="24" fill="#1a1a2e" />
  <rect x="168" y="0" width="24" height="24" fill="#ffe66d" fill-opacity="0.7" stroke-opacity="0.7" />
  <circle cx="180" cy="12" r="3.6" fill="#ff6b6b" />
  <rect x="192" y="0" width="24" height="24" fill="#1a1a2e" />
  <rect x="192" y="0" width="24" height="24" fill="#ffe66d" fill-opacity="0.7" stroke-opacity="0.7" />
  <circle cx="204" cy="12" r="3.6" fill="#ff6b6b" />
  <rect x="216" y="0" width="24" height="24" fill="#1a1a2e" />
  <rect x="216" y="0" width="24" height="24" fill="#ffe66d" fill-opacity="0.7" stroke-opacity="0.7" />
  <circle cx="228" cy="12" r="3.6" fill="#ff6b6b" />
  <rect x="240" y="0" width="24" height="24" fill="#1a1a2e" />
  <rect x="240" y="0" width="24" height="24" fill="#ffe66d" fill-opacity="0.7" stroke-opacity="0.7" />
  <circle cx="252" cy="12" r="3.6" fill="#ff6b6b" />
  <rect x="264" y="0" width="24" height="24" fill="#1a1a2e" />
  <rect x="264" y="0" width="24" height="24" fill="#ffe66d" fill-opacity="0.7" stroke-opacity="0.7" />
  <circle cx="276" cy="12" r="3.6" fill="#ff6b6b" />
  <rect x="0" y="24" width="24" height="24" fill="#1a1a2e" />
  <rect x="0" y="24" width="24" height="24" fill="#ffe66d" fill-opacity="0.7" stroke-opacity="0.7" />
  <circle cx="12" cy="36" r="3.6" fill="#ff6b6b" />
  <rect x="24" y="24" width="24" height="24" fill="#1a1a2e" />
  <rect x="24" y="24" width="24" height="24" fill="#ffe66d" fill-opacity="0.7" stroke-opacity="0.7" />
  <circle cx="36" cy="36" r="3.6" fill="#ff6b6b" />
  <rect x="48" y="24" width="24" height="24" fill="#1a1a2e" />
  <rect x="48" y="24" width="24" height="24" fill="#ffe66d" fill-opacity="0.7" stroke-opacity="0.7" />
  <circle cx="60" cy="36" r="3.6" fill="#ff6b6b" />
  <rect x="72" y="24" width="24" height="24" fill="#1a1a2e" />
  <rect x="72" y="24" width="24" height="24" fill="#ffe66d" fill-opacity="0.7" stroke-opacity="0.7" />
  <circle cx="84" cy="36" r="3.6" fill="#ff6b6b" />
  <rect x="96" y="24" width="24" height="24" fill="#1a1a2e" />
  <rect x="96" y="24" width="24" height="24" fill="#ffe66d" fill-opacity="0.7" stroke-opacity="0.7" />
  <circle cx="108" cy="36" r="3.6" fill="#ff6b6b" />
  <rect x="120" y="24" width="24" height="24" fill="#1a1a2e" />
  <rect x="120" y="24" width="24" height="24" fill="#ffe66d" fill-opacity="0.7" stroke-opacity="0.7" />
  <circle cx="132" cy="36" r="3.6" fill="#ff6b6b" />
  <rect x="144" y="24" width="24" height="24" fill="#1a1a2e" />
  <rect x="144" y="24" width="24" height="24" fill="#ffe66d" fill-opacity="0.7" stroke-opacity="0.7" />
  <circle cx="156" cy="36" r="3.6" fill="#ff6b6b" />
  <rect x="168" y="24" width="24" height="24" fill="#1a1a2e" />
  <rect x="168" y="24" width="24" height="24" fill="#ffe66d" fill-opacity="0.7" stroke-opacity="0.7" />
  <circle cx="180" cy="36" r="3.6" fill="#ff6b6b" />
  <rect x="192" y="24" width="24" height="24" fill="#1a1a2e" />
  <rect x="192" y="24" width="24" height="24" fill="#ffe66d" fill-opacity="0.7" stroke-opacity="0.7" />
  <circle cx="204" cy="36" r="3.6" fill="#ff6b6b" />
  <rect x="216" y="24" width="24" height="24" fill="#1a1a2e" />
  <rect x="216" y="24" width="24" height="24" fill="#ffe66d" fill-opacity="0.7" stroke-opacity="0.7" />
  <circle cx="228" cy="36" r="3.6" fill="#ff6b6b" />
  <rect x="240" y="24" width="24" height="24" fill="#1a1a2e" />
  <rect x="240" y="24" width="24" height="24" fill="#ffe66d" fill-opacity="0.7" stroke-opacity="0.7" />
  <circle cx="252" cy="36" r="3.6" fill="#ff6b6b" />
  <rect x="264" y="24" width="24" height="24" fill="#1a1a2e" />
  <rect x="264" y="24" width="24" height="24" fill="#ffe66d" fill-opacity="0.7" stroke-opacity="0.7" />
  <circle cx="276" cy="36" r="3.6" fill="#ff6b6b" />
  <rect x="0" y="48" width="24" height="24" fill="#1a1a2e" />
  <rect x="0" y="48" width="24" height="24" fill="#ffe66d" fill-opacity="0.7" stroke-opacity="0.7" />
  <circle cx="12" cy="60" r="3.6" fill="#ff6b6b" />
  <rect x="24" y="48" width="24" height="24" fill="#1a1a2e" />
  <rect x="24" y="48" width="24" height="24" fill="#ffe66d" fill-opacity="0.7" stroke-opacity="0.7" />
  <circle cx="36" cy="60" r="3.6" fill="#ff6b6b" />
  <rect x="48" y="48" width="24" height="24" fill="#1a1a2e" />
  <rect x="72" y="48" width="24" height="24" fill="#1a1a2e" />
  <rect x="96" y="48" width="24" height="24" fill="#1a1a2e" />
  <rect x="120" y="48" width="24" height="24" fill="#1a1a2e" />
  <rect x="144" y="48" width="24" height="24" fill="#1a1a2e" />
  <rect x="168" y="48" width="24" height="24" fill="#1a1a2e" />
  <rect x="192" y="48" width="24" height="24" fill="#1a1a2e" />
  <rect x="216" y="48" width="24" height="24" fill="#1a1a2e" />
  <rect x="240" y="48" width="24" height="24" fill="#1a1a2e" />
  <rect x="240" y="48" width="24" height="24" fill="#ffe66d" fill-opacity="0.7" stroke-opacity="0.7" />
  <circle cx="252" cy="60" r="3.6" fill="#ff6b6b" />
  <rect x="264" y="48" width="24" height="24" fill="#1a1a2e" />
  <rect x="264" y="48" width="24" height="24" fill="#ffe66d" fill-opacity="0.7" stroke-opacity="0.7" />
  <circle cx="276" cy="60" r="3.6" fill="#ff6b6b" />
  <rect x="0" y="72" width="24" height="24" fill="#1a1a2e" />
  <rect x="0" y="72" width="24" height="24" fill="#ffe66d" fill-opacity="0.7" stroke-opacity="0.7" />
  <circle cx="12" cy="84" r="3.6" fill="#ff6b6b" />
  <rect x="24" y="72" width="24" height="24" fill="#1a1a2e" />
  <rect x="24" y="72" width="24" height="24" fill="#ffe66d" fill-opacity="0.7" stroke-opacity="0.7" />
  <circle cx="36" cy="84" r="3.6" fill="#ff6b6b" />
  <rect x="48" y="72" width="24" height="24" fill="#1a1a2e" />
  <rect x="72" y="72" width="24" height="24" fill="#1a1a2e" />
  <rect x="96" y="72" width="24" height="24" fill="#1a1a2e" />
  <rect x="120" y="72" width="24" height="24" fill="#1a1a2e" />
  <rect x="144" y="72" width="24" height="24" fill="#1a1a2e" />
  <rect x="168" y="72" width="24" height="24" fill="#1a1a2e" />
  <rect x="192" y="72" width="24" height="24" fill="#1a1a2e" />
  <rect x="216" y="72" width="24" height="24" fill="#1a1a2e" />
  <rect x="240" y="72" width="24" height="24" fill="#1a1a2e" />
  <rect x="240" y="72" width="24" height="24" fill="#ffe66d" fill-opacity="0.7" stroke-opacity="0.7" />
  <circle cx="252" cy="84" r="3.6" fill="#ff6b6b" />
  <rect x="264" y="72" width="24" height="24" fill="#1a1a2e" />
  <rect x="264" y="72" width="24" height="24" fill="#ffe66d" fill-opacity="0.7" stroke-opacity="0.7" />
  <circle cx="276" cy="84" r="3.6" fill="#ff6b6b" />
  <rect x="0" y="96" width="24" height="24" fill="#1a1a2e" />
  <rect x="0" y="96" width="24" height="24" fill="#ffe66d" fill-opacity="0.7" stroke-opacity="0.7" />
  <circle cx="12" cy="108" r="3.6" fill="#ff6b6b" />
  <rect x="24" y="96" width="24" height="24" fill="#1a1a2e" />
  <rect x="24" y="96" width="24" height="24" fill="#ffe66d" fill-opacity="0.7" stroke-opacity="0.7" />
  <circle cx="36" cy="108" r="3.6" fill="#ff6b6b" />
  <rect x="48" y="96" width="24" height="24" fill="#1a1a2e" />
  <rect x="72" y="96" width="24" height="24" fill="#1a1a2e" />
  <rect x="96" y="96" width="24" height="24" fill="#1a1a2e" />
  <rect x="120" y="96" width="24" height="24" fill="#1a1a2e" />
  <rect x="144" y="96" width="24" height="24" fill="#1a1a2e" />
  <rect x="168" y="96" width="24" height="24" fill="#1a1a2e" />
  <rect x="192" y="96" width="24" height="24" fill="#1a1a2e" />
  <rect x="216" y="96" width="24" height="24" fill="#1a1a2e" />
  <rect x="240" y="96" width="24" height="24" fill="#1a1a2e" />
  <rect x="240" y="96" width="24" height="24" fill="#ffe66d" fill-opacity="0.7" stroke-opacity="0.7" />
  <circle cx="252" cy="108" r="3.6" fill="#ff6b6b" />
  <rect x="264" y="96" width="24" height="24" fill="#1a1a2e" />
  <rect x="264" y="96" width="24" height="24" fill="#ffe66d" fill-opacity="0.7" stroke-opacity="0.7" />
  <circle cx="276" cy="108" r="3.6" fill="#ff6b6b" />
  <rect x="0" y="120" width="24" height="24" fill="#1a1a2e" />
  <rect x="0" y="120" width="24" height="24" fill="#ffe66d" fill-opacity="0.7" stroke-opacity="0.7" />
  <circle cx="12" cy="132" r="3.6" fill="#ff6b6b" />
  <rect x="24" y="120" width="24" height="24" fill="#1a1a2e" />
  <rect x="24" y="120" width="24" height="24" fill="#ffe66d" fill-opacity="0.7" stroke-opacity="0.7" />
  <circle cx="36" cy="132" r="3.6" fill="#ff6b6b" />
  <rect x="48" y="120" width="24" height="24" fill="#1a1a2e" />
  <rect x="72" y="120" width="24" height="24" fill="#1a1a2e" />
  <rect x="96" y="120" width="24" height="24" fill="#1a1a2e" />
  <rect x="120" y="120" width="24" height="24" fill="#1a1a2e" />
  <rect x="144" y="120" width="24" height="24" fill="#1a1a2e" />
  <rect x="168" y="120" width="24" height="24" fill="#1a1a2e" />
  <rect x="192" y="120" width="24" height="24" fill="#1a1a2e" />
  <rect x="216" y="120" width="24" height="24" fill="#1a1a2e" />
  <rect x="240" y="120" width="24" height="24" fill="#1a1a2e" />
  <rect x="240" y="120" width="24" height="24" fill="#ffe66d" fill-opacity="0.7" stroke-opacity="0.7" />
  <circle cx="252" cy="132" r="3.6" fill="#ff6b6b" />
  <rect x="264" y="120" width="24" height="24" fill="#1a1a2e" />
  <rect x="264" y="120" width="24" height="24" fill="#ffe66d" fill-opacity="0.7" stroke-opacity="0.7" />
  <circle cx="276" cy="132" r="3.6" fill="#ff6b6b" />
  <rect x="0" y="144" width="24" height="24" fill="#1a1a2e" />
  <rect x="0" y="144" width="24" height="24" fill="#ffe66d" fill-opacity="0.7" stroke-opacity="0.7" />
  <circle cx="12" cy="156" r="3.6" fill="#ff6b6b" />
  <rect x="24" y="144" width="24" height="24" fill="#1a1a2e" />
  <rect x="24" y="144" width="24" height="24" fill="#ffe66d" fill-opacity="0.7" stroke-opacity="0.7" />
  <circle cx="36" cy="156" r="3.6" fill="#ff6b6b" />
  <rect x="48" y="144" width="24" height="24" fill="#1a1a2e" />
  <rect x="72" y="144" width="24" height="24" fill="#1a1a2e" />
  <rect x="96" y="144" width="24" height="24" fill="#1a1a2e" />
  <rect x="120" y="144" width="24" height="24" fill="#1a1a2e" />
  <rect x="144" y="144" width="24" height="24" fill="#1a1a2e" />
  <rect x="168" y="144" width="24" height="24" fill="#1a1a2e" />
  <rect x="192" y="144" width="24" height="24" fill="#1a1a2e" />
  <rect x="216" y="144" width="24" height="24" fill="#1a1a2e" />
  <rect x="240" y="144" width="24" height="24" fill="#1a1a2e" />
  <rect x="240" y="144" width="24" height="24" fill="#ffe66d" fill-opacity="0.7" stroke-opacity="0.7" />
  <circle cx="252" cy="156" r="3.6" fill="#ff6b6b" />
  <rect x="264" y="144" width="24" height="24" fill="#1a1a2e" />
  <rect x="264" y="144" width="24" height="24" fill="#ffe66d" fill-opacity="0.7" stroke-opacity="0.7" />
  <circle cx="276" cy="156" r="3.6" fill="#ff6b6b" />
  <rect x="0" y="168" width="24" height="24" fill="#1a1a2e" />
  <rect x="0" y="168" width="24" height="24" fill="#ffe66d" fill-opacity="0.7" stroke-opacity="0.7" />
  <circle cx="12" cy="180" r="3.6" fill="#ff6b6b" />
  <rect x="24" y="168" width="24" height="24" fill="#1a1a2e" />
  <rect x="24" y="168" width="24" height="24" fill="#ffe66d" fill-opacity="0.7" stroke-opacity="0.7" />
  <circle cx="36" cy="180" r="3.6" fill="#ff6b6b" />
  <rect x="48" y="168" width="24" height="24" fill="#1a1a2e" />
  <rect x="72" y="168" width="24" height="24" fill="#1a1a2e" />
  <rect x="96" y="168" width="24" height="24" fill="#1a1a2e" />
  <rect x="120" y="168" width="24" height="24" fill="#1a1a2e" />
  <rect x="144" y="168" width="24" height="24" fill="#1a1a2e" />
  <rect x="168" y="168" width="24" height="24" fill="#1a1a2e" />
  <rect x="192" y="168" width="24" height="24" fill="#1a1a2e" />
  <rect x="216" y="168" width="24" height="24" fill="#1a1a2e" />
  <rect x="240" y="168" width="24" height="24" fill="#1a1a2e" />
  <rect x="240" y="168" width="24" height="24" fill="#ffe66d" fill-opacity="0.7" stroke-opacity="0.7" />
  <circle cx="252" cy="180" r="3.6" fill="#ff6b6b" />
  <rect x="264" y="168" width="24" height="24" fill="#1a1a2e" />
  <rect x="264" y="168" width="24" height="24" fill="#ffe66d" fill-opacity="0.7" stroke-opacity="0.7" />
  <circle cx="276" cy="180" r="3.6" fill="#ff6b6b" />
  <rect x="0" y="192" width="24" height="24" fill="#1a1a2e" />
  <rect x="0" y="192" width="24" height="24" fill="#ffe66d" fill-opacity="0.7" stroke-opacity="0.7" />
  <circle cx="12" cy="204" r="3.6" fill="#ff6b6b" />
  <rect x="24" y="192" width="24" height="24" fill="#1a1a2e" />
  <rect x="24" y="192" width="24" height="24" fill="#ffe66d" fill-opacity="0.7" stroke-opacity="0.7" />
  <circle cx="36" cy="204" r="3.6" fill="#ff6b6b" />
  <rect x="48" y="192" width="24" height="24" fill="#1a1a2e" />
  <rect x="72" y="192" width="24" height="24" fill="#1a1a2e" />
  <rect x="96" y="192" width="24" height="24" fill="#1a1a2e" />
  <rect x="120" y="192" width="24" height="24" fill="#1a1a2e" />
  <rect x="144" y="192" width="24" height="24" fill="#1a1a2e" />
  <rect x="168" y="192" width="24" height="24" fill="#1a1a2e" />
  <rect x="192" y="192" width="24" height="24" fill="#1a1a2e" />
  <rect x="216" y="192" width="24" height="24" fill="#1a1a2e" />
  <rect x="240" y="192" width="24" height="24" fill="#1a1a2e" />
  <rect x="240" y="192" width="24" height="24" fill="#ffe66d" fill-opacity="0.7" stroke-opacity="0.7" />
  <circle cx="252" cy="204" r="3.6" fill="#ff6b6b" />
  <rect x="264" y="192" width="24" height="24" fill="#1a1a2e" />
  <rect x="264" y="192" width="24" height="24" fill="#ffe66d" fill-opacity="0.7" stroke-opacity="0.7" />
  <circle cx="276" cy="204" r="3.6" fill="#ff6b6b" />
  <rect x="0" y="216" width="24" height="24" fill="#1a1a2e" />
  <rect x="0" y="216" width="24" height="24" fill="#ffe66d" fill-opacity="0.7" stroke-opacity="0.7" />
  <circle cx="12" cy="228" r="3.6" fill="#ff6b6b" />
  <rect x="24" y="216" width="24" height="24" fill="#1a1a2e" />
  <rect x="24" y="216" width="24" height="24" fill="#ffe66d" fill-opacity="0.7" stroke-opacity="0.7" />
  <circle cx="36" cy="228" r="3.6" fill="#ff6b6b" />
  <rect x="48" y="216" width="24" height="24" fill="#1a1a2e" />
  <rect x="72" y="216" width="24" height="24" fill="#1a1a2e" />
  <rect x="96" y="216" width="24" height="24" fill="#1a1a2e" />
  <rect x="120" y="216" width="24" height="24" fill="#1a1a2e" />
  <rect x="144" y="216" width="24" height="24" fill="#1a1a2e" />
  <rect x="168" y="216" width="24" height="24" fill="#1a1a2e" />
  <rect x="192" y="216" width="24" height="24" fill="#1a1a2e" />
  <rect x="216" y="216" width="24" height="24" fill="#1a1a2e" />
  <rect x="240" y="216" width="24" height="24" fill="#1a1a2e" />
  <rect x="240" y="216" width="24" height="24" fill="#ffe66d" fill-opacity="0.7" stroke-opacity="0.7" />
  <circle cx="252" cy="228" r="3.6" fill="#ff6b6b" />
  <rect x="264" y="216" width="24" height="24" fill="#1a1a2e" />
  <rect x="264" y="216" width="24" height="24" fill="#ffe66d" fill-opacity="0.7" stroke-opacity="0.7" />
  <circle cx="276" cy="228" r="3.6" fill="#ff6b6b" />
  <rect x="0" y="240" width="24" height="24" fill="#1a1a2e" />
  <rect x="0" y="240" width="24" height="24" fill="#ffe66d" fill-opacity="0.7" stroke-opacity="0.7" />
  <circle cx="12" cy="252" r="3.6" fill="#ff6b6b" />
  <rect x="24" y="240" width="24" height="24" fill="#1a1a2e" />
  <rect x="24" y="240" width="24" height="24" fill="#ffe66d" fill-opacity="0.7" stroke-opacity="0.7" />
  <circle cx="36" cy="252" r="3.6" fill="#ff6b6b" />
  <rect x="48" y="240" width="24" height="24" fill="#1a1a2e" />
  <rect x="48" y="240" width="24" height="24" fill="#ffe66d" fill-opacity="0.7" stroke-opacity="0.7" />
  <circle cx="60" cy="252" r="3.6" fill="#ff6b6b" />
  <rect x="72" y="240" width="24" height="24" fill="#1a1a2e" />
  <rect x="72" y="240" width="24" height="24" fill="#ffe66d" fill-opacity="0.7" stroke-opacity="0.7" />
  <circle cx="84" cy="252" r="3.6" fill="#ff6b6b" />
  <rect x="96" y="240" width="24" height="24" fill="#1a1a2e" />
  <rect x="96" y="240" width="24" height="24" fill="#ffe66d" fill-opacity="0.7" stroke-opacity="0.7" />
  <circle cx="108" cy="252" r="3.6" fill="#ff6b6b" />
  <rect x="120" y="240" width="24" height="24" fill="#1a1a2e" />
  <rect x="120" y="240" width="24" height="24" fill="#ffe66d" fill-opacity="0.7" stroke-opacity="0.7" />
  <circle cx="132" cy="252" r="3.6" fill="#ff6b6b" />
  <rect x="144" y="240" width="24" height="24" fill="#1a1a2e" />
  <rect x="144" y="240" width="24" height="24" fill="#ffe66d" fill-opacity="0.7" stroke-opacity="0.7" />
  <circle cx="156" cy="252" r="3.6" fill="#ff6b6b" />
  <rect x="168" y="240" width="24" height="24" fill="#1a1a2e" />
  <rect x="168" y="240" width="24" height="24" fill="#ffe66d" fill-opacity="0.7" stroke-opacity="0.7" />
  <circle cx="180" cy="252" r="3.6" fill="#ff6b6b" />
  <rect x="192" y="240" width="24" height="24" fill="#1a1a2e" />
  <rect x="192" y="240" width="24" height="24" fill="#ffe66d" fill-opacity="0.7" stroke-opacity="0.7" />
  <circle cx="204" cy="252" r="3.6" fill="#ff6b6b" />
  <rect x="216" y="240" width="24" height="24" fill="#1a1a2e" />
  <rect x="216" y="240" width="24" height="24" fill="#ffe66d" fill-opacity="0.7" stroke-opacity="0.7" />
  <circle cx="228" cy="252" r="3.6" fill="#ff6b6b" />
  <rect x="240" y="240" width="24" height="24" fill="#1a1a2e" />
  <rect x="240" y="240" width="24" height="24" fill="#ffe66d" fill-opacity="0.7" stroke-opacity="0.7" />
  <circle cx="252" cy="252" r="3.6" fill="#ff6b6b" />
  <rect x="264" y="240" width="24" height="24" fill="#1a1a2e" />
  <rect x="264" y="240" width="24" height="24" fill="#ffe66d" fill-opacity="0.7" stroke-opacity="0.7" />
  <circle cx="276" cy="252" r="3.6" fill="#ff6b6b" />
  <rect x="0" y="264" width="24" height="24" fill="#1a1a2e" />
  <rect x="0" y="264" width="24" height="24" fill="#ffe66d" fill-opacity="0.7" stroke-opacity="0.7" />
  <circle cx="12" cy="276" r="3.6" fill="#ff6b6b" />
  <rect x="24" y="264" width="24" height="24" fill="#1a1a2e" />
  <rect x="24" y="264" width="24" height="24" fill="#ffe66d" fill-opacity="0.7" stroke-opacity="0.7" />
  <circle cx="36" cy="276" r="3.6" fill="#ff6b6b" />
  <rect x="48" y="264" width="24" height="24" fill="#1a1a2e" />
  <rect x="48" y="264" width="24" height="24" fill="#ffe66d" fill-opacity="0.7" stroke-opacity="0.7" />
  <circle cx="60" cy="276" r="3.6" fill="#ff6b6b" />
  <rect x="72" y="264" width="24" height="24" fill="#1a1a2e" />
  <rect x="72" y="264" width="24" height="24" fill="#ffe66d" fill-opacity="0.7" stroke-opacity="0.7" />
  <circle cx="84" cy="276" r="3.6" fill="#ff6b6b" />
  <rect x="96" y="264" width="24" height="24" fill="#1a1a2e" />
  <rect x="96" y="264" width="24" height="24" fill="#ffe66d" fill-opacity="0.7" stroke-opacity="0.7" />
  <circle cx="108" cy="276" r="3.6" fill="#ff6b6b" />
  <rect x="120" y="264" width="24" height="24" fill="#1a1a2e" />
  <rect x="120" y="264" width="24" height="24" fill="#ffe66d" fill-opacity="0.7" stroke-opacity="0.7" />
  <circle cx="132" cy="276" r="3.6" fill="#ff6b6b" />
  <rect x="144" y="264" width="24" height="24" fill="#1a1a2e" />
  <rect x="144" y="264" width="24" height="24" fill="#ffe66d" fill-opacity="0.7" stroke-opacity="0.7" />
  <circle cx="156" cy="276" r="3.6" fill="#ff6b6b" />
  <rect x="168" y="264" width="24" height="24" fill="#1a1a2e" />
  <rect x="168" y="264" width="24" height="24" fill="#ffe66d" fill-opacity="0.7" stroke-opacity="0.7" />
  <circle cx="180" cy="276" r="3.6" fill="#ff6b6b" />
  <rect x="192" y="264" width="24" height="24" fill="#1a1a2e" />
  <rect x="192" y="264" width="24" height="24" fill="#ffe66d" fill-opacity="0.7" stroke-opacity="0.7" />
  <circle cx="204" cy="276" r="3.6" fill="#ff6b6b" />
  <rect x="216" y="264" width="24" height="24" fill="#1a1a2e" />
  <rect x="216" y="264" width="24" height="24" fill="#ffe66d" fill-opacity="0.7" stroke-opacity="0.7" />
  <circle cx="228" cy="276" r="3.6" fill="#ff6b6b" />
  <rect x="240" y="264" width="24" height="24" fill="#1a1a2e" />
  <rect x="240" y="264" width="24" height="24" fill="#ffe66d" fill-opacity="0.7" stroke-opacity="0.7" />
  <circle cx="252" cy="276" r="3.6" fill="#ff6b6b" />
  <rect x="264" y="264" width="24" height="24" fill="#1a1a2e" />
  <rect x="264" y="264" width="24" height="24" fill="#ffe66d" fill-opacity="0.7" stroke-opacity="0.7" />
  <circle cx="276" cy="276" r="3.6" fill="#ff6b6b" />
</svg>