<?xml version="1.0" encoding="UTF-8"?>
<svg xmlns="http://www.w3.org/2000/svg" width="280" height="224" viewBox="0 0 280 224">
  <rect width="100%" height="100%" fill="#1a1a2e" />
  <rect x="0" y="0" width="28.0" height="28.0" fill="none" stroke="#3d3d5c" stroke-width="0.3" fill-opacity="0.2" stroke-opacity="0.2" />
  <circle cx="14.0" cy="14.0" r="2.0" fill="#4ecdc4" opacity="0.3" />
  <rect x="28" y="0" width="28.0" height="28.0" fill="none" stroke="#3d3d5c" stroke-width="0.3" fill-opacity="0.2" stroke-opacity="0.2" />
  <circle cx="42.0" cy="14.0" r="2.4444444444444446" fill="#4ecdc4" opacity="0.3" />
  <rect x="56" y="0" width="28.0" height="28.0" fill="none" stroke="#3d3d5c" stroke-width="0.3" fill-opacity="0.2" stroke-opacity="0.2" />
  <circle cx="70.0" cy="14.0" r="2.888888888888889" fill="#4ecdc4" opacity="0.3" />
  <rect x="84" y="0" width="28.0" height="28.0" fill="none" stroke="#3d3d5c" stroke-width="0.3" fill-opacity="0.2" stroke-opacity="0.2" />
  <circle cx="98.0" cy="14.0" r="3.333333333333333" fill="#4ecdc4" opacity="0.3" />
  <rect x="112" y="0" width="28.0" height="28.0" fill="none" stroke="#3d3d5c" stroke-width="0.3" fill-opacity="0.2" stroke-opacity="0.2" />
  <circle cx="126.0" cy="14.0" r="3.7777777777777777" fill="#4ecdc4" opacity="0.3" />
  <rect x="140" y="0" width="28.0" height="28.0" fill="none" stroke="#3d3d5c" stroke-width="0.3" fill-opacity="0.2" stroke-opacity="0.2" />
  <circle cx="154.0" cy="14.0" r="4.222222222222222" fill="#4ecdc4" opacity="0.3" />
  <rect x="168" y="0" width="28.0" height="28.0" fill="none" stroke="#3d3d5c" stroke-width="0.3" fill-opacity="0.2" stroke-opacity="0.2" />
  <circle cx="182.0" cy="14.0" r="4.666666666666666" fill="#4ecdc4" opacity="0.3" />
  <rect x="196" y="0" width="28.0" height="28.0" fill="none" stroke="#3d3d5c" stroke-width="0.3" fill-opacity="0.2" stroke-opacity="0.2" />
  <circle cx="210.0" cy="14.0" r="5.111111111111111" fill="#4ecdc4" opacity="0.3" />
  <rect x="224" y="0" width="28.0" height="28.0" fill="none" stroke="#3d3d5c" stroke-width="0.3" fill-opacity="0.2" stroke-opacity="0.2" />
  <circle cx="238.0" cy="14.0" r="5.555555555555555" fill="#4ecdc4" opacity="0.3" />
  <rect x="252" y="0" width="28.0" height="28.0" fill="none" stroke="#3d3d5c" stroke-width="0.3" fill-opacity="0.2" stroke-opacity="0.2" />
  <circle cx="266.0" cy="14.0" r="6.0" fill="#4ecdc4" opacity="0.3" />
  <rect x="0" y="28" width="28.0" height="28.0" fill="none" stroke="#3d3d5c" stroke-width="0.3" fill-opacity="0.2" stroke-opacity="0.2" />
  <circle cx="14.0" cy="42.0" r="2.0" fill="#4ecdc4" opacity="0.3" />
  <rect x="28" y="28" width="28.0" height="28.0" fill="none" stroke="#3d3d5c" stroke-width="0.3" fill-opacity="0.2" stroke-opacity="0.2" />
  <circle cx="42.0" cy="42.0" r="2.4444444444444446" fill="#4ecdc4" opacity="0.3" />
  <rect x="56" y="28" width="28.0" height="28.0" fill="none" stroke="#3d3d5c" stroke-width="0.3" fill-opacity="0.2" stroke-opacity="0.2" />
  <circle cx="70.0" cy="42.0" r="2.888888888888889" fill="#4ecdc4" opacity="0.3" />
  <rect x="84" y="28" width="28.0" height="28.0" fill="none" stroke="#3d3d5c" stroke-width="0.3" fill-opacity="0.2" stroke-opacity="0.2" />
  <circle cx="98.0" cy="42.0" r="3.333333333333333" fill="#4ecdc4" opacity="0.3" />
  <rect x="112" y="28" width="28.0" height="28.0" fill="none" stroke="#3d3d5c" stroke-width="0.3" fill-opacity="0.2" stroke-opacity="0.2" />
  <circle cx="126.0" cy="42.0" r="3.7777777777777777" fill="#4ecdc4" opacity="0.3" />
  <rect x="140" y="28" width="28.0" height="28.0" fill="none" stroke="#3d3d5c" stroke-width="0.3" fill-opacity="0.2" stroke-opacity="0.2" />
  <circle cx="154.0" cy="42.0" r="4.222222222222222" fill="#4ecdc4" opacity="0.3" />
  <rect x="168" y="28" width="28.0" height="28.0" fill="none" stroke="#3d3d5c" stroke-width="0.3" fill-opacity="0.2" stroke-opacity="0.2" />
  <circle cx="182.0" cy="42.0" r="4.666666666666666" fill="#4ecdc4" opacity="0.3" />
  <rect x="196" y="28" width="28.0" height="28.0" fill="none" stroke="#3d3d5c" stroke-width="0.3" fill-opacity="0.2" stroke-opacity="0.2" />
  <circle cx="210.0" cy="42.0" r="5.111111111111111" fill="#4ecdc4" opacity="0.3" />
  <rect x="224" y="28" width="28.0" height="28.0" fill="none" stroke="#3d3d5c" stroke-width="0.3" fill-opacity="0.2" stroke-opacity="0.2" />
  <circle cx="238.0" cy="42.0" r="5.555555555555555" fill="#4ecdc4" opacity="0.3" />
  <rect x="252" y="28" width="28.0" height="28.0" fill="none" stroke="#3d3d5c" stroke-width="0.3" fill-opacity="0.2" stroke-opacity="0.2" />
  <circle cx="266.0" cy="42.0" r="6.0" fill="#4ecdc4" opacity="0.3" />
  <rect x="0" y="56" width="28.0" height="28.0" fill="none" stroke="#3d3d5c" stroke-width="0.3" fill-opacity="0.2" stroke-opacity="0.2" />
  <circle cx="14.0" cy="70.0" r="2.0" fill="#4ecdc4" opacity="0.3" />
  <rect x="28" y="56" width="28.0" height="28.0" fill="none" stroke="#3d3d5c" stroke-width="0.3" fill-opacity="0.2" stroke-opacity="0.2" />
  <circle cx="42.0" cy="70.0" r="2.4444444444444446" fill="#4ecdc4" opacity="0.3" />
  <rect x="56" y="56" width="28.0" height="28.0" fill="none" stroke="#3d3d5c" stroke-width="0.3" fill-opacity="0.2" stroke-opacity="0.2" />
  <circle cx="70.0" cy="70.0" r="2.888888888888889" fill="#4ecdc4" opacity="0.3" />
  <rect x="84" y="56" width="28.0" height="28.0" fill="none" stroke="#3d3d5c" stroke-width="0.3" fill-opacity="0.2" stroke-opacity="0.2" />
  <circle cx="98.0" cy="70.0" r="3.333333333333333" fill="#4ecdc4" opacity="0.3" />
  <rect x="112" y="56" width="28.0" height="28.0" fill="none" stroke="#3d3d5c" stroke-width="0.3" fill-opacity="0.2" stroke-opacity="0.2" />
  <circle cx="126.0" cy="70.0" r="3.7777777777777777" fill="#4ecdc4" opacity="0.3" />
  <rect x="140" y="56" width="28.0" height="28.0" fill="none" stroke="#3d3d5c" stroke-width="0.3" fill-opacity="0.2" stroke-opacity="0.2" />
  <circle cx="154.0" cy="70.0" r="4.222222222222222" fill="#4ecdc4" opacity="0.3" />
  <rect x="168" y="56" width="28.0" height="28.0" fill="none" stroke="#3d3d5c" stroke-width="0.3" fill-opacity="0.2" stroke-opacity="0.2" />
  <circle cx="182.0" cy="70.0" r="4.666666666666666" fill="#4ecdc4" opacity="0.3" />
  <rect x="196" y="56" width="28.0" height="28.0" fill="none" stroke="#3d3d5c" stroke-width="0.3" fill-opacity="0.2" stroke-opacity="0.2" />
  <circle cx="210.0" cy="70.0" r="5.111111111111111" fill="#4ecdc4" opacity="0.3" />
  <rect x="224" y="56" width="28.0" height="28.0" fill="none" stroke="#3d3d5c" stroke-width="0.3" fill-opacity="0.2" stroke-opacity="0.2" />
  <circle cx="238.0" cy="70.0" r="5.555555555555555" fill="#4ecdc4" opacity="0.3" />
  <rect x="252" y="56" width="28.0" height="28.0" fill="none" stroke="#3d3d5c" stroke-width="0.3" fill-opacity="0.2" stroke-opacity="0.2" />
  <circle cx="266.0" cy="70.0" r="6.0" fill="#4ecdc4" opacity="0.3" />
  <rect x="0" y="84" width="28.0" height="28.0" fill="none" stroke="#3d3d5c" stroke-width="0.3" fill-opacity="0.2" stroke-opacity="0.2" />
  <circle cx="14.0" cy="98.0" r="2.0" fill="#4ecdc4" opacity="0.3" />
  <rect x="28" y="84" width="28.0" height="28.0" fill="none" stroke="#3d3d5c" stroke-width="0.3" fill-opacity="0.2" stroke-opacity="0.2" />
  <circle cx="42.0" cy="98.0" r="2.4444444444444446" fill="#4ecdc4" opacity="0.3" />
  <rect x="56" y="84" width="28.0" height="28.0" fill="none" stroke="#3d3d5c" stroke-width="0.3" fill-opacity="0.2" stroke-opacity="0.2" />
  <circle cx="70.0" cy="98.0" r="2.888888888888889" fill="#4ecdc4" opacity="0.3" />
  <rect x="84" y="84" width="28.0" height="28.0" fill="none" stroke="#3d3d5c" stroke-width="0.3" fill-opacity="0.2" stroke-opacity="0.2" />
  <circle cx="98.0" cy="98.0" r="3.333333333333333" fill="#4ecdc4" opacity="0.3" />
  <rect x="112" y="84" width="28.0" height="28.0" fill="none" stroke="#3d3d5c" stroke-width="0.3" fill-opacity="0.2" stroke-opacity="0.2" />
  <circle cx="126.0" cy="98.0" r="3.7777777777777777" fill="#4ecdc4" opacity="0.3" />
  <rect x="140" y="84" width="28.0" height="28.0" fill="none" stroke="#3d3d5c" stroke-width="0.3" fill-opacity="0.2" stroke-opacity="0.2" />
  <circle cx="154.0" cy="98.0" r="4.222222222222222" fill="#4ecdc4" opacity="0.3" />
  <rect x="168" y="84" width="28.0" height="28.0" fill="none" stroke="#3d3d5c" stroke-width="0.3" fill-opacity="0.2" stroke-opacity="0.2" />
  <circle cx="182.0" cy="98.0" r="4.666666666666666" fill="#4ecdc4" opacity="0.3" />
  <rect x="196" y="84" width="28.0" height="28.0" fill="none" stroke="#3d3d5c" stroke-width="0.3" fill-opacity="0.2" stroke-opacity="0.2" />
  <circle cx="210.0" cy="98.0" r="5.111111111111111" fill="#4ecdc4" opacity="0.3" />
  <rect x="224" y="84" width="28.0" height="28.0" fill="none" stroke="#3d3d5c" stroke-width="0.3" fill-opacity="0.2" stroke-opacity="0.2" />
  <circle cx="238.0" cy="98.0" r="5.555555555555555" fill="#4ecdc4" opacity="0.3" />
  <rect x="252" y="84" width="28.0" height="28.0" fill="none" stroke="#3d3d5c" stroke-width="0.3" fill-opacity="0.2" stroke-opacity="0.2" />
  <circle cx="266.0" cy="98.0" r="6.0" fill="#4ecdc4" opacity="0.3" />
  <rect x="0" y="112" width="28.0" height="28.0" fill="none" stroke="#3d3d5c" stroke-width="0.3" fill-opacity="0.2" stroke-opacity="0.2" />
  <circle cx="14.0" cy="126.0" r="2.0" fill="#4ecdc4" opacity="0.3" />
  <rect x="28" y="112" width="28.0" height="28.0" fill="none" stroke="#3d3d5c" stroke-width="0.3" fill-opacity="0.2" stroke-opacity="0.2" />
  <circle cx="42.0" cy="126.0" r="2.4444444444444446" fill="#4ecdc4" opacity="0.3" />
  <rect x="56" y="112" width="28.0" height="28.0" fill="none" stroke="#3d3d5c" stroke-width="0.3" fill-opacity="0.2" stroke-opacity="0.2" />
  <circle cx="70.0" cy="126.0" r="2.888888888888889" fill="#4ecdc4" opacity="0.3" />
  <rect x="84" y="112" width="28.0" height="28.0" fill="none" stroke="#3d3d5c" stroke-width="0.3" fill-opacity="0.2" stroke-opacity="0.2" />
  <circle cx="98.0" cy="126.0" r="3.333333333333333" fill="#4ecdc4" opacity="0.3" />
  <rect x="112" y="112" width="28.0" height="28.0" fill="none" stroke="#3d3d5c" stroke-width="0.3" fill-opacity="0.2" stroke-opacity="0.2" />
  <circle cx="126.0" cy="126.0" r="3.7777777777777777" fill="#4ecdc4" opacity="0.3" />
  <rect x="140" y="112" width="28.0" height="28.0" fill="none" stroke="#3d3d5c" stroke-width="0.3" fill-opacity="0.2" stroke-opacity="0.2" />
  <circle cx="154.0" cy="126.0" r="4.222222222222222" fill="#4ecdc4" opacity="0.3" />
  <rect x="168" y="112" width="28.0" height="28.0" fill="none" stroke="#3d3d5c" stroke-width="0.3" fill-opacity="0.2" stroke-opacity="0.2" />
  <circle cx="182.0" cy="126.0" r="4.666666666666666" fill="#4ecdc4" opacity="0.3" />
  <rect x="196" y="112" width="28.0" height="28.0" fill="none" stroke="#3d3d5c" stroke-width="0.3" fill-opacity="0.2" stroke-opacity="0.2" />
  <circle cx="210.0" cy="126.0" r="5.111111111111111" fill="#4ecdc4" opacity="0.3" />
  <rect x="224" y="112" width="28.0" height="28.0" fill="none" stroke="#3d3d5c" stroke-width="0.3" fill-opacity="0.2" stroke-opacity="0.2" />
  <circle cx="238.0" cy="126.0" r="5.555555555555555" fill="#4ecdc4" opacity="0.3" />
  <rect x="252" y="112" width="28.0" height="28.0" fill="none" stroke="#3d3d5c" stroke-width="0.3" fill-opacity="0.2" stroke-opacity="0.2" />
  <circle cx="266.0" cy="126.0" r="6.0" fill="#4ecdc4" opacity="0.3" />
  <rect x="0" y="140" width="28.0" height="28.0" fill="none" stroke="#3d3d5c" stroke-width="0.3" fill-opacity="0.2" stroke-opacity="0.2" />
  <circle cx="14.0" cy="154.0" r="2.0" fill="#4ecdc4" opacity="0.3" />
  <rect x="28" y="140" width="28.0" height="28.0" fill="none" stroke="#3d3d5c" stroke-width="0.3" fill-opacity="0.2" stroke-opacity="0.2" />
  <circle cx="42.0" cy="154.0" r="2.4444444444444446" fill="#4ecdc4" opacity="0.3" />
  <rect x="56" y="140" width="28.0" height="28.0" fill="none" stroke="#3d3d5c" stroke-width="0.3" fill-opacity="0.2" stroke-opacity="0.2" />
  <circle cx="70.0" cy="154.0" r="2.888888888888889" fill="#4ecdc4" opacity="0.3" />
  <rect x="84" y="140" width="28.0" height="28.0" fill="none" stroke="#3d3d5c" stroke-width="0.3" fill-opacity="0.2" stroke-opacity="0.2" />
  <circle cx="98.0" cy="154.0" r="3.333333333333333" fill="#4ecdc4" opacity="0.3" />
  <rect x="112" y="140" width="28.0" height="28.0" fill="none" stroke="#3d3d5c" stroke-width="0.3" fill-opacity="0.2" stroke-opacity="0.2" />
  <circle cx="126.0" cy="154.0" r="3.7777777777777777" fill="#4ecdc4" opacity="0.3" />
  <rect x="140" y="140" width="28.0" height="28.0" fill="none" stroke="#3d3d5c" stroke-width="0.3" fill-opacity="0.2" stroke-opacity="0.2" />
  <circle cx="154.0" cy="154.0" r="4.222222222222222" fill="#4ecdc4" opacity="0.3" />
  <rect x="168" y="140" width="28.0" height="28.0" fill="none" stroke="#3d3d5c" stroke-width="0.3" fill-opacity="0.2" stroke-opacity="0.2" />
  <circle cx="182.0" cy="154.0" r="4.666666666666666" fill="#4ecdc4" opacity="0.3" />
  <rect x="196" y="140" width="28.0" height="28.0" fill="none" stroke="#3d3d5c" stroke-width="0.3" fill-opacity="0.2" stroke-opacity="0.2" />
  <circle cx="210.0" cy="154.0" r="5.111111111111111" fill="#4ecdc4" opacity="0.3" />
  <rect x="224" y="140" width="28.0" height="28.0" fill="none" stroke="#3d3d5c" stroke-width="0.3" fill-opacity="0.2" stroke-opacity="0.2" />
  <circle cx="238.0" cy="154.0" r="5.555555555555555" fill="#4ecdc4" opacity="0.3" />
  <rect x="252" y="140" width="28.0" height="28.0" fill="none" stroke="#3d3d5c" stroke-width="0.3" fill-opacity="0.2" stroke-opacity="0.2" />
  <circle cx="266.0" cy="154.0" r="6.0" fill="#4ecdc4" opacity="0.3" />
  <rect x="0" y="168" width="28.0" height="28.0" fill="none" stroke="#3d3d5c" stroke-width="0.3" fill-opacity="0.2" stroke-opacity="0.2" />
  <circle cx="14.0" cy="182.0" r="2.0" fill="#4ecdc4" opacity="0.3" />
  <rect x="28" y="168" width="28.0" height="28.0" fill="none" stroke="#3d3d5c" stroke-width="0.3" fill-opacity="0.2" stroke-opacity="0.2" />
  <circle cx="42.0" cy="182.0" r="2.4444444444444446" fill="#4ecdc4" opacity="0.3" />
  <rect x="56" y="168" width="28.0" height="28.0" fill="none" stroke="#3d3d5c" stroke-width="0.3" fill-opacity="0.2" stroke-opacity="0.2" />
  <circle cx="70.0" cy="182.0" r="2.888888888888889" fill="#4ecdc4" opacity="0.3" />
  <rect x="84" y="168" width="28.0" height="28.0" fill="none" stroke="#3d3d5c" stroke-width="0.3" fill-opacity="0.2" stroke-opacity="0.2" />
  <circle cx="98.0" cy="182.0" r="3.333333333333333" fill="#4ecdc4" opacity="0.3" />
  <rect x="112" y="168" width="28.0" height="28.0" fill="none" stroke="#3d3d5c" stroke-width="0.3" fill-opacity="0.2" stroke-opacity="0.2" />
  <circle cx="126.0" cy="182.0" r="3.7777777777777777" fill="#4ecdc4" opacity="0.3" />
  <rect x="140" y="168" width="28.0" height="28.0" fill="none" stroke="#3d3d5c" stroke-width="0.3" fill-opacity="0.2" stroke-opacity="0.2" />
  <circle cx="154.0" cy="182.0" r="4.222222222222222" fill="#4ecdc4" opacity="0.3" />
  <rect x="168" y="168" width="28.0" height="28.0" fill="none" stroke="#3d3d5c" stroke-width="0.3" fill-opacity="0.2" stroke-opacity="0.2" />
  <circle cx="182.0" cy="182.0" r="4.666666666666666" fill="#4ecdc4" opacity="0.3" />
  <rect x="196" y="168" width="28.0" height="28.0" fill="none" stroke="#3d3d5c" stroke-width="0.3" fill-opacity="0.2" stroke-opacity="0.2" />
  <circle cx="210.0" cy="182.0" r="5.111111111111111" fill="#4ecdc4" opacity="0.3" />
  <rect x="224" y="168" width="28.0" height="28.0" fill="none" stroke="#3d3d5c" stroke-width="0.3" fill-opacity="0.2" stroke-opacity="0.2" />
  <circle cx="238.0" cy="182.0" r="5.555555555555555" fill="#4ecdc4" opacity="0.3" />
  <rect x="252" y="168" width="28.0" height="28.0" fill="none" stroke="#3d3d5c" stroke-width="0.3" fill-opacity="0.2" stroke-opacity="0.2" />
  <circle cx="266.0" cy="182.0" r="6.0" fill="#4ecdc4" opacity="0.3" />
  <rect x="0" y="196" width="28.0" height="28.0" fill="none" stroke="#3d3d5c" stroke-width="0.3" fill-opacity="0.2" stroke-opacity="0.2" />
  <circle cx="14.0" cy="210.0" r="2.0" fill="#4ecdc4" opacity="0.3" />
  <rect x="28" y="196" width="28.0" height="28.0" fill="none" stroke="#3d3d5c" stroke-width="0.3" fill-opacity="0.2" stroke-opacity="0.2" />
  <circle cx="42.0" cy="210.0" r="2.4444444444444446" fill="#4ecdc4" opacity="0.3" />
  <rect x="56" y="196" width="28.0" height="28.0" fill="none" stroke="#3d3d5c" stroke-width="0.3" fill-opacity="0.2" stroke-opacity="0.2" />
  <circle cx="70.0" cy="210.0" r="2.888888888888889" fill="#4ecdc4" opacity="0.3" />
  <rect x="84" y="196" width="28.0" height="28.0" fill="none" stroke="#3d3d5c" stroke-width="0.3" fill-opacity="0.2" stroke-opacity="0.2" />
  <circle cx="98.0" cy="210.0" r="3.333333333333333" fill="#4ecdc4" opacity="0.3" />
  <rect x="112" y="196" width="28.0" height="28.0" fill="none" stroke="#3d3d5c" stroke-width="0.3" fill-opacity="0.2" stroke-opacity="0.2" />
  <circle cx="126.0" cy="210.0" r="3.7777777777777777" fill="#4ecdc4" opacity="0.3" />
  <rect x="140" y="196" width="28.0" height="28.0" fill="none" stroke="#3d3d5c" stroke-width="0.3" fill-opacity="0.2" stroke-opacity="0.2" />
  <circle cx="154.0" cy="210.0" r="4.222222222222222" fill="#4ecdc4" opacity="0.3" />
  <rect x="168" y="196" width="28.0" height="28.0" fill="none" stroke="#3d3d5c" stroke-width="0.3" fill-opacity="0.2" stroke-opacity="0.2" />
  <circle cx="182.0" cy="210.0" r="4.666666666666666" fill="#4ecdc4" opacity="0.3" />
  <rect x="196" y="196" width="28.0" height="28.0" fill="none" stroke="#3d3d5c" stroke-width="0.3" fill-opacity="0.2" stroke-opacity="0.2" />
  <circle cx="210.0" cy="210.0" r="5.111111111111111" fill="#4ecdc4" opacity="0.3" />
  <rect x="224" y="196" width="28.0" height="28.0" fill="none" stroke="#3d3d5c" stroke-width="0.3" fill-opacity="0.2" stroke-opacity="0.2" />
  <circle cx="238.0" cy="210.0" r="5.555555555555555" fill="#4ecdc4" opacity="0.3" />
  <rect x="252" y="196" width="28.0" height="28.0" fill="none" stroke="#3d3d5c" stroke-width="0.3" fill-opacity="0.2" stroke-opacity="0.2" />
  <circle cx="266.0" cy="210.0" r="6.0" fill="#4ecdc4" opacity="0.3" />
  <rect x="0" y="0" width="280.0" height="28.0" fill="#ff6b6b" fill-opacity="0.2" stroke-opacity="0.2" />
  <text x="140.0" y="14.0" font-size="14.0" font-family="sans-serif" font-style="normal" font-weight="bold" fill="#ffe66d" text-anchor="middle" dominant-baseline="middle">TITLE BAR</text>
</svg>