<?xml version="1.0" encoding="UTF-8"?>
<svg xmlns="http://www.w3.org/2000/svg" width="280" height="224" viewBox="0 0 280 224">
  <rect width="100%" height="100%" fill="#1a1a2e" />
  <rect x="0.15" y="0.15" width="27.7" height="27.7" fill="none" stroke="#3d3d5c" stroke-width="0.3" fill-opacity="0.2" stroke-opacity="0.2" />
  <circle cx="14" cy="14" r="1.4" fill="#4ecdc4" opacity="0.3" />
  <rect x="28.15" y="0.15" width="27.7" height="27.7" fill="none" stroke="#3d3d5c" stroke-width="0.3" fill-opacity="0.2" stroke-opacity="0.2" />
  <circle cx="42" cy="14" r="1.86667" fill="#4ecdc4" opacity="0.3" />
  <rect x="56.15" y="0.15" width="27.7" height="27.7" fill="none" stroke="#3d3d5c" stroke-width="0.3" fill-opacity="0.2" stroke-opacity="0.2" />
  <circle cx="70" cy="14" r="2.33333" fill="#4ecdc4" opacity="0.3" />
  <rect x="84.15" y="0.15" width="27.7" height="27.7" fill="none" stroke="#3d3d5c" stroke-width="0.3" fill-opacity="0.2" stroke-opacity="0.2" />
  <circle cx="98" cy="14" r="2.8" fill="#4ecdc4" opacity="0.3" />
  <rect x="112.15" y="0.15" width="27.7" height="27.7" fill="none" stroke="#3d3d5c" stroke-width="0.3" fill-opacity="0.2" stroke-opacity="0.2" />
  <circle cx="126" cy="14" r="3.26667" fill="#4ecdc4" opacity="0.3" />
  <rect x="140.15" y="0.15" width="27.7" height="27.7" fill="none" stroke="#3d3d5c" stroke-width="0.3" fill-opacity="0.2" stroke-opacity="0.2" />
  <circle cx="154" cy="14" r="3.73333" fill="#4ecdc4" opacity="0.3" />
  <rect x="168.15" y="0.15" width="27.7" height="27.7" fill="none" stroke="#3d3d5c" stroke-width="0.3" fill-opacity="0.2" stroke-opacity="0.2" />
  <circle cx="182" cy="14" r="4.2" fill="#4ecdc4" opacity="0.3" />
  <rect x="196.15" y="0.15" width="27.7" height="27.7" fill="none" stroke="#3d3d5c" stroke-width="0.3" fill-opacity="0.2" stroke-opacity="0.2" />
  <circle cx="210" cy="14" r="4.66667" fill="#4ecdc4" opacity="0.3" />
  <rect x="224.15" y="0.15" width="27.7" height="27.7" fill="none" stroke="#3d3d5c" stroke-width="0.3" fill-opacity="0.2" stroke-opacity="0.2" />
  <circle cx="238" cy="14" r="5.13333" fill="#4ecdc4" opacity="0.3" />
  <rect x="252.15" y="0.15" width="27.7" height="27.7" fill="none" stroke="#3d3d5c" stroke-width="0.3" fill-opacity="0.2" stroke-opacity="0.2" />
  <circle cx="266" cy="14" r="5.6" fill="#4ecdc4" opacity="0.3" />
  <rect x="0.15" y="28.15" width="27.7" height="27.7" fill="none" stroke="#3d3d5c" stroke-width="0.3" fill-opacity="0.2" stroke-opacity="0.2" />
  <circle cx="14" cy="42" r="1.4" fill="#4ecdc4" opacity="0.3" />
  <rect x="28.15" y="28.15" width="27.7" height="27.7" fill="none" stroke="#3d3d5c" stroke-width="0.3" fill-opacity="0.2" stroke-opacity="0.2" />
  <circle cx="42" cy="42" r="1.86667" fill="#4ecdc4" opacity="0.3" />
  <rect x="56.15" y="28.15" width="27.7" height="27.7" fill="none" stroke="#3d3d5c" stroke-width="0.3" fill-opacity="0.2" stroke-opacity="0.2" />
  <circle cx="70" cy="42" r="2.33333" fill="#4ecdc4" opacity="0.3" />
  <rect x="84.15" y="28.15" width="27.7" height="27.7" fill="none" stroke="#3d3d5c" stroke-width="0.3" fill-opacity="0.2" stroke-opacity="0.2" />
  <circle cx="98" cy="42" r="2.8" fill="#4ecdc4" opacity="0.3" />
  <rect x="112.15" y="28.15" width="27.7" height="27.7" fill="none" stroke="#3d3d5c" stroke-width="0.3" fill-opacity="0.2" stroke-opacity="0.2" />
  <circle cx="126" cy="42" r="3.26667" fill="#4ecdc4" opacity="0.3" />
  <rect x="140.15" y="28.15" width="27.7" height="27.7" fill="none" stroke="#3d3d5c" stroke-width="0.3" fill-opacity="0.2" stroke-opacity="0.2" />
  <circle cx="154" cy="42" r="3.73333" fill="#4ecdc4" opacity="0.3" />
  <rect x="168.15" y="28.15" width="27.7" height="27.7" fill="none" stroke="#3d3d5c" stroke-width="0.3" fill-opacity="0.2" stroke-opacity="0.2" />
  <circle cx="182" cy="42" r="4.2" fill="#4ecdc4" opacity="0.3" />
  <rect x="196.15" y="28.15" width="27.7" height="27.7" fill="none" stroke="#3d3d5c" stroke-width="0.3" fill-opacity="0.2" stroke-opacity="0.2" />
  <circle cx="210" cy="42" r="4.66667" fill="#4ecdc4" opacity="0.3" />
  <rect x="224.15" y="28.15" width="27.7" height="27.7" fill="none" stroke="#3d3d5c" stroke-width="0.3" fill-opacity="0.2" stroke-opacity="0.2" />
  <circle cx="238" cy="42" r="5.13333" fill="#4ecdc4" opacity="0.3" />
  <rect x="252.15" y="28.15" width="27.7" height="27.7" fill="none" stroke="#3d3d5c" stroke-width="0.3" fill-opacity="0.2" stroke-opacity="0.2" />
  <circle cx="266" cy="42" r="5.6" fill="#4ecdc4" opacity="0.3" />
  <rect x="0.15" y="56.15" width="27.7" height="27.7" fill="none" stroke="#3d3d5c" stroke-width="0.3" fill-opacity="0.2" stroke-opacity="0.2" />
  <circle cx="14" cy="70" r="1.4" fill="#4ecdc4" opacity="0.3" />
  <rect x="28.15" y="56.15" width="27.7" height="27.7" fill="none" stroke="#3d3d5c" stroke-width="0.3" fill-opacity="0.2" stroke-opacity="0.2" />
  <circle cx="42" cy="70" r="1.86667" fill="#4ecdc4" opacity="0.3" />
  <rect x="56.15" y="56.15" width="27.7" height="27.7" fill="none" stroke="#3d3d5c" stroke-width="0.3" fill-opacity="0.2" stroke-opacity="0.2" />
  <circle cx="70" cy="70" r="2.33333" fill="#4ecdc4" opacity="0.3" />
  <rect x="84.15" y="56.15" width="27.7" height="27.7" fill="none" stroke="#3d3d5c" stroke-width="0.3" fill-opacity="0.2" stroke-opacity="0.2" />
  <circle cx="98" cy="70" r="2.8" fill="#4ecdc4" opacity="0.3" />
  <rect x="112.15" y="56.15" width="27.7" height="27.7" fill="none" stroke="#3d3d5c" stroke-width="0.3" fill-opacity="0.2" stroke-opacity="0.2" />
  <circle cx="126" cy="70" r="3.26667" fill="#4ecdc4" opacity="0.3" />
  <rect x="140.15" y="56.15" width="27.7" height="27.7" fill="none" stroke="#3d3d5c" stroke-width="0.3" fill-opacity="0.2" stroke-opacity="0.2" />
  <circle cx="154" cy="70" r="3.73333" fill="#4ecdc4" opacity="0.3" />
  <rect x="168.15" y="56.15" width="27.7" height="27.7" fill="none" stroke="#3d3d5c" stroke-width="0.3" fill-opacity="0.2" stroke-opacity="0.2" />
  <circle cx="182" cy="70" r="4.2" fill="#4ecdc4" opacity="0.3" />
  <rect x="196.15" y="56.15" width="27.7" height="27.7" fill="none" stroke="#3d3d5c" stroke-width="0.3" fill-opacity="0.2" stroke-opacity="0.2" />
  <circle cx="210" cy="70" r="4.66667" fill="#4ecdc4" opacity="0.3" />
  <rect x="224.15" y="56.15" width="27.7" height="27.7" fill="none" stroke="#3d3d5c" stroke-width="0.3" fill-opacity="0.2" stroke-opacity="0.2" />
  <circle cx="238" cy="70" r="5.13333" fill="#4ecdc4" opacity="0.3" />
  <rect x="252.15" y="56.15" width="27.7" height="27.7" fill="none" stroke="#3d3d5c" stroke-width="0.3" fill-opacity="0.2" stroke-opacity="0.2" />
  <circle cx="266" cy="70" r="5.6" fill="#4ecdc4" opacity="0.3" />
  <rect x="0.15" y="84.15" width="27.7" height="27.7" fill="none" stroke="#3d3d5c" stroke-width="0.3" fill-opacity="0.2" stroke-opacity="0.2" />
  <circle cx="14" cy="98" r="1.4" fill="#4ecdc4" opacity="0.3" />
  <rect x="28.15" y="84.15" width="27.7" height="27.7" fill="none" stroke="#3d3d5c" stroke-width="0.3" fill-opacity="0.2" stroke-opacity="0.2" />
  <circle cx="42" cy="98" r="1.86667" fill="#4ecdc4" opacity="0.3" />
  <rect x="56.15" y="84.15" width="27.7" height="27.7" fill="none" stroke="#3d3d5c" stroke-width="0.3" fill-opacity="0.2" stroke-opacity="0.2" />
  <circle cx="70" cy="98" r="2.33333" fill="#4ecdc4" opacity="0.3" />
  <rect x="84.15" y="84.15" width="27.7" height="27.7" fill="none" stroke="#3d3d5c" stroke-width="0.3" fill-opacity="0.2" stroke-opacity="0.2" />
  <circle cx="98" cy="98" r="2.8" fill="#4ecdc4" opacity="0.3" />
  <rect x="112.15" y="84.15" width="27.7" height="27.7" fill="none" stroke="#3d3d5c" stroke-width="0.3" fill-opacity="0.2" stroke-opacity="0.2" />
  <circle cx="126" cy="98" r="3.26667" fill="#4ecdc4" opacity="0.3" />
  <rect x="140.15" y="84.15" width="27.7" height="27.7" fill="none" stroke="#3d3d5c" stroke-width="0.3" fill-opacity="0.2" stroke-opacity="0.2" />
  <circle cx="154" cy="98" r="3.73333" fill="#4ecdc4" opacity="0.3" />
  <rect x="168.15" y="84.15" width="27.7" height="27.7" fill="none" stroke="#3d3d5c" stroke-width="0.3" fill-opacity="0.2" stroke-opacity="0.2" />
  <circle cx="182" cy="98" r="4.2" fill="#4ecdc4" opacity="0.3" />
  <rect x="196.15" y="84.15" width="27.7" height="27.7" fill="none" stroke="#3d3d5c" stroke-width="0.3" fill-opacity="0.2" stroke-opacity="0.2" />
  <circle cx="210" cy="98" r="4.66667" fill="#4ecdc4" opacity="0.3" />
  <rect x="224.15" y="84.15" width="27.7" height="27.7" fill="none" stroke="#3d3d5c" stroke-width="0.3" fill-opacity="0.2" stroke-opacity="0.2" />
  <circle cx="238" cy="98" r="5.13333" fill="#4ecdc4" opacity="0.3" />
  <rect x="252.15" y="84.15" width="27.7" height="27.7" fill="none" stroke="#3d3d5c" stroke-width="0.3" fill-opacity="0.2" stroke-opacity="0.2" />
  <circle cx="266" cy="98" r="5.6" fill="#4ecdc4" opacity="0.3" />
  <rect x="0.15" y="112.15" width="27.7" height="27.7" fill="none" stroke="#3d3d5c" stroke-width="0.3" fill-opacity="0.2" stroke-opacity="0.2" />
  <circle cx="14" cy="126" r="1.4" fill="#4ecdc4" opacity="0.3" />
  <rect x="28.15" y="112.15" width="27.7" height="27.7" fill="none" stroke="#3d3d5c" stroke-width="0.3" fill-opacity="0.2" stroke-opacity="0.2" />
  <circle cx="42" cy="126" r="1.86667" fill="#4ecdc4" opacity="0.3" />
  <rect x="56.15" y="112.15" width="27.7" height="27.7" fill="none" stroke="#3d3d5c" stroke-width="0.3" fill-opacity="0.2" stroke-opacity="0.2" />
  <circle cx="70" cy="126" r="2.33333" fill="#4ecdc4" opacity="0.3" />
  <rect x="84.15" y="112.15" width="27.7" height="27.7" fill="none" stroke="#3d3d5c" stroke-width="0.3" fill-opacity="0.2" stroke-opacity="0.2" />
  <circle cx="98" cy="126" r="2.8" fill="#4ecdc4" opacity="0.3" />
  <rect x="112.15" y="112.15" width="27.7" height="27.7" fill="none" stroke="#3d3d5c" stroke-width="0.3" fill-opacity="0.2" stroke-opacity="0.2" />
  <circle cx="126" cy="126" r="3.26667" fill="#4ecdc4" opacity="0.3" />
  <rect x="140.15" y="112.15" width="27.7" height="27.7" fill="none" stroke="#3d3d5c" stroke-width="0.3" fill-opacity="0.2" stroke-opacity="0.2" />
  <circle cx="154" cy="126" r="3.73333" fill="#4ecdc4" opacity="0.3" />
  <rect x="168.15" y="112.15" width="27.7" height="27.7" fill="none" stroke="#3d3d5c" stroke-width="0.3" fill-opacity="0.2" stroke-opacity="0.2" />
  <circle cx="182" cy="126" r="4.2" fill="#4ecdc4" opacity="0.3" />
  <rect x="196.15" y="112.15" width="27.7" height="27.7" fill="none" stroke="#3d3d5c" stroke-width="0.3" fill-opacity="0.2" stroke-opacity="0.2" />
  <circle cx="210" cy="126" r="4.66667" fill="#4ecdc4" opacity="0.3" />
  <rect x="224.15" y="112.15" width="27.7" height="27.7" fill="none" stroke="#3d3d5c" stroke-width="0.3" fill-opacity="0.2" stroke-opacity="0.2" />
  <circle cx="238" cy="126" r="5.13333" fill="#4ecdc4" opacity="0.3" />
  <rect x="252.15" y="112.15" width="27.7" height="27.7" fill="none" stroke="#3d3d5c" stroke-width="0.3" fill-opacity="0.2" stroke-opacity="0.2" />
  <circle cx="266" cy="126" r="5.6" fill="#4ecdc4" opacity="0.3" />
  <rect x="0.15" y="140.15" width="27.7" height="27.7" fill="none" stroke="#3d3d5c" stroke-width="0.3" fill-opacity="0.2" stroke-opacity="0.2" />
  <circle cx="14" cy="154" r="1.4" fill="#4ecdc4" opacity="0.3" />
  <rect x="28.15" y="140.15" width="27.7" height="27.7" fill="none" stroke="#3d3d5c" stroke-width="0.3" fill-opacity="0.2" stroke-opacity="0.2" />
  <circle cx="42" cy="154" r="1.86667" fill="#4ecdc4" opacity="0.3" />
  <rect x="56.15" y="140.15" width="27.7" height="27.7" fill="none" stroke="#3d3d5c" stroke-width="0.3" fill-opacity="0.2" stroke-opacity="0.2" />
  <circle cx="70" cy="154" r="2.33333" fill="#4ecdc4" opacity="0.3" />
  <rect x="84.15" y="140.15" width="27.7" height="27.7" fill="none" stroke="#3d3d5c" stroke-width="0.3" fill-opacity="0.2" stroke-opacity="0.2" />
  <circle cx="98" cy="154" r="2.8" fill="#4ecdc4" opacity="0.3" />
  <rect x="112.15" y="140.15" width="27.7" height="27.7" fill="none" stroke="#3d3d5c" stroke-width="0.3" fill-opacity="0.2" stroke-opacity="0.2" />
  <circle cx="126" cy="154" r="3.26667" fill="#4ecdc4" opacity="0.3" />
  <rect x="140.15" y="140.15" width="27.7" height="27.7" fill="none" stroke="#3d3d5c" stroke-width="0.3" fill-opacity="0.2" stroke-opacity="0.2" />
  <circle cx="154" cy="154" r="3.73333" fill="#4ecdc4" opacity="0.3" />
  <rect x="168.15" y="140.15" width="27.7" height="27.7" fill="none" stroke="#3d3d5c" stroke-width="0.3" fill-opacity="0.2" stroke-opacity="0.2" />
  <circle cx="182" cy="154" r="4.2" fill="#4ecdc4" opacity="0.3" />
  <rect x="196.15" y="140.15" width="27.7" height="27.7" fill="none" stroke="#3d3d5c" stroke-width="0.3" fill-opacity="0.2" stroke-opacity="0.2" />
  <circle cx="210" cy="154" r="4.66667" fill="#4ecdc4" opacity="0.3" />
  <rect x="224.15" y="140.15" width="27.7" height="27.7" fill="none" stroke="#3d3d5c" stroke-width="0.3" fill-opacity="0.2" stroke-opacity="0.2" />
  <circle cx="238" cy="154" r="5.13333" fill="#4ecdc4" opacity="0.3" />
  <rect x="252.15" y="140.15" width="27.7" height="27.7" fill="none" stroke="#3d3d5c" stroke-width="0.3" fill-opacity="0.2" stroke-opacity="0.2" />
  <circle cx="266" cy="154" r="5.6" fill="#4ecdc4" opacity="0.3" />
  <rect x="0.15" y="168.15" width="27.7" height="27.7" fill="none" stroke="#3d3d5c" stroke-width="0.3" fill-opacity="0.2" stroke-opacity="0.2" />
  <circle cx="14" cy="182" r="1.4" fill="#4ecdc4" opacity="0.3" />
  <rect x="28.15" y="168.15" width="27.7" height="27.7" fill="none" stroke="#3d3d5c" stroke-width="0.3" fill-opacity="0.2" stroke-opacity="0.2" />
  <circle cx="42" cy="182" r="1.86667" fill="#4ecdc4" opacity="0.3" />
  <rect x="56.15" y="168.15" width="27.7" height="27.7" fill="none" stroke="#3d3d5c" stroke-width="0.3" fill-opacity="0.2" stroke-opacity="0.2" />
  <circle cx="70" cy="182" r="2.33333" fill="#4ecdc4" opacity="0.3" />
  <rect x="84.15" y="168.15" width="27.7" height="27.7" fill="none" stroke="#3d3d5c" stroke-width="0.3" fill-opacity="0.2" stroke-opacity="0.2" />
  <circle cx="98" cy="182" r="2.8" fill="#4ecdc4" opacity="0.3" />
  <rect x="112.15" y="168.15" width="27.7" height="27.7" fill="none" stroke="#3d3d5c" stroke-width="0.3" fill-opacity="0.2" stroke-opacity="0.2" />
  <circle cx="126" cy="182" r="3.26667" fill="#4ecdc4" opacity="0.3" />
  <rect x="140.15" y="168.15" width="27.7" height="27.7" fill="none" stroke="#3d3d5c" stroke-width="0.3" fill-opacity="0.2" stroke-opacity="0.2" />
  <circle cx="154" cy="182" r="3.73333" fill="#4ecdc4" opacity="0.3" />
  <rect x="168.15" y="168.15" width="27.7" height="27.7" fill="none" stroke="#3d3d5c" stroke-width="0.3" fill-opacity="0.2" stroke-opacity="0.2" />
  <circle cx="182" cy="182" r="4.2" fill="#4ecdc4" opacity="0.3" />
  <rect x="196.15" y="168.15" width="27.7" height="27.7" fill="none" stroke="#3d3d5c" stroke-width="0.3" fill-opacity="0.2" stroke-opacity="0.2" />
  <circle cx="210" cy="182" r="4.66667" fill="#4ecdc4" opacity="0.3" />
  <rect x="224.15" y="168.15" width="27.7" height="27.7" fill="none" stroke="#3d3d5c" stroke-width="0.3" fill-opacity="0.2" stroke-opacity="0.2" />
  <circle cx="238" cy="182" r="5.13333" fill="#4ecdc4" opacity="0.3" />
  <rect x="252.15" y="168.15" width="27.7" height="27.7" fill="none" stroke="#3d3d5c" stroke-width="0.3" fill-opacity="0.2" stroke-opacity="0.2" />
  <circle cx="266" cy="182" r="5.6" fill="#4ecdc4" opacity="0.3" />
  <rect x="0.15" y="196.15" width="27.7" height="27.7" fill="none" stroke="#3d3d5c" stroke-width="0.3" fill-opacity="0.2" stroke-opacity="0.2" />
  <circle cx="14" cy="210" r="1.4" fill="#4ecdc4" opacity="0.3" />
  <rect x="28.15" y="196.15" width="27.7" height="27.7" fill="none" stroke="#3d3d5c" stroke-width="0.3" fill-opacity="0.2" stroke-opacity="0.2" />
  <circle cx="42" cy="210" r="1.86667" fill="#4ecdc4" opacity="0.3" />
  <rect x="56.15" y="196.15" width="27.7" height="27.7" fill="none" stroke="#3d3d5c" stroke-width="0.3" fill-opacity="0.2" stroke-opacity="0.2" />
  <circle cx="70" cy="210" r="2.33333" fill="#4ecdc4" opacity="0.3" />
  <rect x="84.15" y="196.15" width="27.7" height="27.7" fill="none" stroke="#3d3d5c" stroke-width="0.3" fill-opacity="0.2" stroke-opacity="0.2" />
  <circle cx="98" cy="210" r="2.8" fill="#4ecdc4" opacity="0.3" />
  <rect x="112.15" y="196.15" width="27.7" height="27.7" fill="none" stroke="#3d3d5c" stroke-width="0.3" fill-opacity="0.2" stroke-opacity="0.2" />
  <circle cx="126" cy="210" r="3.26667" fill="#4ecdc4" opacity="0.3" />
  <rect x="140.15" y="196.15" width="27.7" height="27.7" fill="none" stroke="#3d3d5c" stroke-width="0.3" fill-opacity="0.2" stroke-opacity="0.2" />
  <circle cx="154" cy="210" r="3.73333" fill="#4ecdc4" opacity="0.3" />
  <rect x="168.15" y="196.15" width="27.7" height="27.7" fill="none" stroke="#3d3d5c" stroke-width="0.3" fill-opacity="0.2" stroke-opacity="0.2" />
  <circle cx="182" cy="210" r="4.2" fill="#4ecdc4" opacity="0.3" />
  <rect x="196.15" y="196.15" width="27.7" height="27.7" fill="none" stroke="#3d3d5c" stroke-width="0.3" fill-opacity="0.2" stroke-opacity="0.2" />
  <circle cx="210" cy="210" r="4.66667" fill="#4ecdc4" opacity="0.3" />
  <rect x="224.15" y="196.15" width="27.7" height="27.7" fill="none" stroke="#3d3d5c" stroke-width="0.3" fill-opacity="0.2" stroke-opacity="0.2" />
  <circle cx="238" cy="210" r="5.13333" fill="#4ecdc4" opacity="0.3" />
  <rect x="252.15" y="196.15" width="27.7" height="27.7" fill="none" stroke="#3d3d5c" stroke-width="0.3" fill-opacity="0.2" stroke-opacity="0.2" />
  <circle cx="266" cy="210" r="5.6" fill="#4ecdc4" opacity="0.3" />
  <rect x="0" y="0" width="280" height="28" fill="#ff6b6b" fill-opacity="0.2" stroke-opacity="0.2" />
  <text x="140" y="14" font-size="14" font-family="sans-serif" font-style="normal" font-weight="bold" fill="#ffe66d" text-anchor="middle" dominant-baseline="middle">TITLE BAR</text>
</svg>