<?xml version="1.0" encoding="UTF-8"?>
<svg xmlns="http://www.w3.org/2000/svg" width="280" height="280" viewBox="0 0 280 280">
  <rect width="100%" height="100%" fill="#0a1628" />
  <polygon points="17.361215932167728,14.249999999999998 10.0,18.5 2.6387840678322725,14.250000000000004 2.6387840678322707,5.750000000000002 9.999999999999998,1.5000000000000002 17.361215932167728,5.750000000000003" fill="#00d9ff" stroke="#0077b6" stroke-width="0.5" fill-opacity="0.2" stroke-opacity="0.2" />
  <polygon points="37.361215932167724,14.249999999999998 30.0,18.5 22.638784067832272,14.250000000000004 22.63878406783227,5.750000000000002 30.0,1.5000000000000002 37.361215932167724,5.750000000000003" fill="#00d9ff" stroke="#0077b6" stroke-width="0.5" fill-opacity="0.2230769230769231" stroke-opacity="0.2230769230769231" />
  <polygon points="57.361215932167724,14.249999999999998 50.0,18.5 42.638784067832276,14.250000000000004 42.63878406783227,5.750000000000002 50.0,1.5000000000000002 57.361215932167724,5.750000000000003" fill="#00d9ff" stroke="#0077b6" stroke-width="0.5" fill-opacity="0.24615384615384617" stroke-opacity="0.24615384615384617" />
  <polygon points="77.36121593216772,14.249999999999998 70.0,18.5 62.638784067832276,14.250000000000004 62.63878406783227,5.750000000000002 70.0,1.5000000000000002 77.36121593216772,5.750000000000003" fill="#00d9ff" stroke="#0077b6" stroke-width="0.5" fill-opacity="0.2692307692307693" stroke-opacity="0.2692307692307693" />
  <polygon points="97.36121593216772,14.249999999999998 90.0,18.5 82.63878406783228,14.250000000000004 82.63878406783228,5.750000000000002 90.0,1.5000000000000002 97.36121593216772,5.750000000000003" fill="#00d9ff" stroke="#0077b6" stroke-width="0.5" fill-opacity="0.2923076923076923" stroke-opacity="0.2923076923076923" />
  <polygon points="117.36121593216772,14.249999999999998 110.0,18.5 102.63878406783228,14.250000000000004 102.63878406783228,5.750000000000002 110.0,1.5000000000000002 117.36121593216772,5.750000000000003" fill="#00d9ff" stroke="#0077b6" stroke-width="0.5" fill-opacity="0.3153846153846154" stroke-opacity="0.3153846153846154" />
  <polygon points="137.36121593216774,14.249999999999998 130.0,18.5 122.63878406783228,14.250000000000004 122.63878406783228,5.750000000000002 130.0,1.5000000000000002 137.36121593216774,5.750000000000003" fill="#00d9ff" stroke="#0077b6" stroke-width="0.5" fill-opacity="0.3384615384615385" stroke-opacity="0.3384615384615385" />
  <polygon points="157.36121593216774,14.249999999999998 150.0,18.5 142.63878406783226,14.250000000000004 142.63878406783226,5.750000000000002 150.0,1.5000000000000002 157.36121593216774,5.750000000000003" fill="#00d9ff" stroke="#0077b6" stroke-width="0.5" fill-opacity="0.36153846153846153" stroke-opacity="0.36153846153846153" />
  <polygon points="177.36121593216774,14.249999999999998 170.0,18.5 162.63878406783226,14.250000000000004 162.63878406783226,5.750000000000002 170.0,1.5000000000000002 177.36121593216774,5.750000000000003" fill="#00d9ff" stroke="#0077b6" stroke-width="0.5" fill-opacity="0.38461538461538464" stroke-opacity="0.38461538461538464" />
  <polygon points="197.36121593216774,14.249999999999998 190.0,18.5 182.63878406783226,14.250000000000004 182.63878406783226,5.750000000000002 190.0,1.5000000000000002 197.36121593216774,5.750000000000003" fill="#00d9ff" stroke="#0077b6" stroke-width="0.5" fill-opacity="0.4076923076923077" stroke-opacity="0.4076923076923077" />
  <polygon points="217.36121593216774,14.249999999999998 210.0,18.5 202.63878406783226,14.250000000000004 202.63878406783226,5.750000000000002 210.0,1.5000000000000002 217.36121593216774,5.750000000000003" fill="#00d9ff" stroke="#0077b6" stroke-width="0.5" fill-opacity="0.4307692307692308" stroke-opacity="0.4307692307692308" />
  <polygon points="237.36121593216774,14.249999999999998 230.0,18.5 222.63878406783226,14.250000000000004 222.63878406783226,5.750000000000002 230.0,1.5000000000000002 237.36121593216774,5.750000000000003" fill="#00d9ff" stroke="#0077b6" stroke-width="0.5" fill-opacity="0.45384615384615384" stroke-opacity="0.45384615384615384" />
  <polygon points="257.36121593216774,14.249999999999998 250.0,18.5 242.63878406783226,14.250000000000004 242.63878406783226,5.750000000000002 250.0,1.5000000000000002 257.36121593216774,5.750000000000003" fill="#00d9ff" stroke="#0077b6" stroke-width="0.5" fill-opacity="0.47692307692307695" stroke-opacity="0.47692307692307695" />
  <polygon points="277.36121593216774,14.249999999999998 270.0,18.5 262.63878406783226,14.250000000000004 262.63878406783226,5.750000000000002 270.0,1.5000000000000002 277.36121593216774,5.750000000000003" fill="#00d9ff" stroke="#0077b6" stroke-width="0.5" fill-opacity="0.5" stroke-opacity="0.5" />
  <polygon points="17.361215932167728,34.25 10.0,38.5 2.6387840678322725,34.25 2.6387840678322707,25.75 9.999999999999998,21.5 17.361215932167728,25.750000000000004" fill="#00d9ff" stroke="#0077b6" stroke-width="0.5" fill-opacity="0.2230769230769231" stroke-opacity="0.2230769230769231" />
  <polygon points="37.361215932167724,34.25 30.0,38.5 22.638784067832272,34.25 22.63878406783227,25.75 30.0,21.5 37.361215932167724,25.750000000000004" fill="#00d9ff" stroke="#0077b6" stroke-width="0.5" fill-opacity="0.24615384615384617" stroke-opacity="0.24615384615384617" />
  <polygon points="57.361215932167724,34.25 50.0,38.5 42.638784067832276,34.25 42.63878406783227,25.75 50.0,21.5 57.361215932167724,25.750000000000004" fill="#00d9ff" stroke="#0077b6" stroke-width="0.5" fill-opacity="0.2692307692307693" stroke-opacity="0.2692307692307693" />
  <polygon points="77.36121593216772,34.25 70.0,38.5 62.638784067832276,34.25 62.63878406783227,25.75 70.0,21.5 77.36121593216772,25.750000000000004" fill="#00d9ff" stroke="#0077b6" stroke-width="0.5" fill-opacity="0.2923076923076923" stroke-opacity="0.2923076923076923" />
  <polygon points="97.36121593216772,34.25 90.0,38.5 82.63878406783228,34.25 82.63878406783228,25.75 90.0,21.5 97.36121593216772,25.750000000000004" fill="#00d9ff" stroke="#0077b6" stroke-width="0.5" fill-opacity="0.3153846153846154" stroke-opacity="0.3153846153846154" />
  <polygon points="117.36121593216772,34.25 110.0,38.5 102.63878406783228,34.25 102.63878406783228,25.75 110.0,21.5 117.36121593216772,25.750000000000004" fill="#00d9ff" stroke="#0077b6" stroke-width="0.5" fill-opacity="0.3384615384615385" stroke-opacity="0.3384615384615385" />
  <polygon points="137.36121593216774,34.25 130.0,38.5 122.63878406783228,34.25 122.63878406783228,25.75 130.0,21.5 137.36121593216774,25.750000000000004" fill="#00d9ff" stroke="#0077b6" stroke-width="0.5" fill-opacity="0.3615384615384616" stroke-opacity="0.3615384615384616" />
  <polygon points="157.36121593216774,34.25 150.0,38.5 142.63878406783226,34.25 142.63878406783226,25.75 150.0,21.5 157.36121593216774,25.750000000000004" fill="#00d9ff" stroke="#0077b6" stroke-width="0.5" fill-opacity="0.38461538461538464" stroke-opacity="0.38461538461538464" />
  <polygon points="177.36121593216774,34.25 170.0,38.5 162.63878406783226,34.25 162.63878406783226,25.75 170.0,21.5 177.36121593216774,25.750000000000004" fill="#00d9ff" stroke="#0077b6" stroke-width="0.5" fill-opacity="0.4076923076923077" stroke-opacity="0.4076923076923077" />
  <polygon points="197.36121593216774,34.25 190.0,38.5 182.63878406783226,34.25 182.63878406783226,25.75 190.0,21.5 197.36121593216774,25.750000000000004" fill="#00d9ff" stroke="#0077b6" stroke-width="0.5" fill-opacity="0.43076923076923074" stroke-opacity="0.43076923076923074" />
  <polygon points="217.36121593216774,34.25 210.0,38.5 202.63878406783226,34.25 202.63878406783226,25.75 210.0,21.5 217.36121593216774,25.750000000000004" fill="#00d9ff" stroke="#0077b6" stroke-width="0.5" fill-opacity="0.4538461538461539" stroke-opacity="0.4538461538461539" />
  <polygon points="237.36121593216774,34.25 230.0,38.5 222.63878406783226,34.25 222.63878406783226,25.75 230.0,21.5 237.36121593216774,25.750000000000004" fill="#00d9ff" stroke="#0077b6" stroke-width="0.5" fill-opacity="0.47692307692307695" stroke-opacity="0.47692307692307695" />
  <polygon points="257.36121593216774,34.25 250.0,38.5 242.63878406783226,34.25 242.63878406783226,25.75 250.0,21.5 257.36121593216774,25.750000000000004" fill="#00d9ff" stroke="#0077b6" stroke-width="0.5" fill-opacity="0.5" stroke-opacity="0.5" />
  <polygon points="277.36121593216774,34.25 270.0,38.5 262.63878406783226,34.25 262.63878406783226,25.75 270.0,21.5 277.36121593216774,25.750000000000004" fill="#00d9ff" stroke="#0077b6" stroke-width="0.5" fill-opacity="0.523076923076923" stroke-opacity="0.523076923076923" />
  <polygon points="17.361215932167728,54.25 10.0,58.5 2.6387840678322725,54.25 2.6387840678322707,45.75 9.999999999999998,41.5 17.361215932167728,45.75" fill="#00d9ff" stroke="#0077b6" stroke-width="0.5" fill-opacity="0.24615384615384617" stroke-opacity="0.24615384615384617" />
  <polygon points="37.361215932167724,54.25 30.0,58.5 22.638784067832272,54.25 22.63878406783227,45.75 30.0,41.5 37.361215932167724,45.75" fill="#00d9ff" stroke="#0077b6" stroke-width="0.5" fill-opacity="0.2692307692307693" stroke-opacity="0.2692307692307693" />
  <polygon points="57.361215932167724,54.25 50.0,58.5 42.638784067832276,54.25 42.63878406783227,45.75 50.0,41.5 57.361215932167724,45.75" fill="#00d9ff" stroke="#0077b6" stroke-width="0.5" fill-opacity="0.2923076923076923" stroke-opacity="0.2923076923076923" />
  <polygon points="77.36121593216772,54.25 70.0,58.5 62.638784067832276,54.25 62.63878406783227,45.75 70.0,41.5 77.36121593216772,45.75" fill="#00d9ff" stroke="#0077b6" stroke-width="0.5" fill-opacity="0.3153846153846154" stroke-opacity="0.3153846153846154" />
  <polygon points="97.36121593216772,54.25 90.0,58.5 82.63878406783228,54.25 82.63878406783228,45.75 90.0,41.5 97.36121593216772,45.75" fill="#00d9ff" stroke="#0077b6" stroke-width="0.5" fill-opacity="0.3384615384615385" stroke-opacity="0.3384615384615385" />
  <polygon points="117.36121593216772,54.25 110.0,58.5 102.63878406783228,54.25 102.63878406783228,45.75 110.0,41.5 117.36121593216772,45.75" fill="#00d9ff" stroke="#0077b6" stroke-width="0.5" fill-opacity="0.3615384615384616" stroke-opacity="0.3615384615384616" />
  <polygon points="137.36121593216774,54.25 130.0,58.5 122.63878406783228,54.25 122.63878406783228,45.75 130.0,41.5 137.36121593216774,45.75" fill="#00d9ff" stroke="#0077b6" stroke-width="0.5" fill-opacity="0.38461538461538464" stroke-opacity="0.38461538461538464" />
  <polygon points="157.36121593216774,54.25 150.0,58.5 142.63878406783226,54.25 142.63878406783226,45.75 150.0,41.5 157.36121593216774,45.75" fill="#00d9ff" stroke="#0077b6" stroke-width="0.5" fill-opacity="0.4076923076923077" stroke-opacity="0.4076923076923077" />
  <polygon points="177.36121593216774,54.25 170.0,58.5 162.63878406783226,54.25 162.63878406783226,45.75 170.0,41.5 177.36121593216774,45.75" fill="#00d9ff" stroke="#0077b6" stroke-width="0.5" fill-opacity="0.4307692307692308" stroke-opacity="0.4307692307692308" />
  <polygon points="197.36121593216774,54.25 190.0,58.5 182.63878406783226,54.25 182.63878406783226,45.75 190.0,41.5 197.36121593216774,45.75" fill="#00d9ff" stroke="#0077b6" stroke-width="0.5" fill-opacity="0.45384615384615384" stroke-opacity="0.45384615384615384" />
  <polygon points="217.36121593216774,54.25 210.0,58.5 202.63878406783226,54.25 202.63878406783226,45.75 210.0,41.5 217.36121593216774,45.75" fill="#00d9ff" stroke="#0077b6" stroke-width="0.5" fill-opacity="0.47692307692307695" stroke-opacity="0.47692307692307695" />
  <polygon points="237.36121593216774,54.25 230.0,58.5 222.63878406783226,54.25 222.63878406783226,45.75 230.0,41.5 237.36121593216774,45.75" fill="#00d9ff" stroke="#0077b6" stroke-width="0.5" fill-opacity="0.5" stroke-opacity="0.5" />
  <polygon points="257.36121593216774,54.25 250.0,58.5 242.63878406783226,54.25 242.63878406783226,45.75 250.0,41.5 257.36121593216774,45.75" fill="#00d9ff" stroke="#0077b6" stroke-width="0.5" fill-opacity="0.5230769230769231" stroke-opacity="0.5230769230769231" />
  <polygon points="277.36121593216774,54.25 270.0,58.5 262.63878406783226,54.25 262.63878406783226,45.75 270.0,41.5 277.36121593216774,45.75" fill="#00d9ff" stroke="#0077b6" stroke-width="0.5" fill-opacity="0.5461538461538461" stroke-opacity="0.5461538461538461" />
  <polygon points="17.361215932167728,74.25 10.0,78.5 2.6387840678322725,74.25 2.6387840678322707,65.75 9.999999999999998,61.5 17.361215932167728,65.75" fill="#00d9ff" stroke="#0077b6" stroke-width="0.5" fill-opacity="0.2692307692307693" stroke-opacity="0.2692307692307693" />
  <polygon points="37.361215932167724,74.25 30.0,78.5 22.638784067832272,74.25 22.63878406783227,65.75 30.0,61.5 37.361215932167724,65.75" fill="#00d9ff" stroke="#0077b6" stroke-width="0.5" fill-opacity="0.2923076923076923" stroke-opacity="0.2923076923076923" />
  <polygon points="57.361215932167724,74.25 50.0,78.5 42.638784067832276,74.25 42.63878406783227,65.75 50.0,61.5 57.361215932167724,65.75" fill="#00d9ff" stroke="#0077b6" stroke-width="0.5" fill-opacity="0.3153846153846154" stroke-opacity="0.3153846153846154" />
  <polygon points="77.36121593216772,74.25 70.0,78.5 62.638784067832276,74.25 62.63878406783227,65.75 70.0,61.5 77.36121593216772,65.75" fill="#00d9ff" stroke="#0077b6" stroke-width="0.5" fill-opacity="0.3384615384615385" stroke-opacity="0.3384615384615385" />
  <polygon points="97.36121593216772,74.25 90.0,78.5 82.63878406783228,74.25 82.63878406783228,65.75 90.0,61.5 97.36121593216772,65.75" fill="#00d9ff" stroke="#0077b6" stroke-width="0.5" fill-opacity="0.3615384615384616" stroke-opacity="0.3615384615384616" />
  <polygon points="117.36121593216772,74.25 110.0,78.5 102.63878406783228,74.25 102.63878406783228,65.75 110.0,61.5 117.36121593216772,65.75" fill="#00d9ff" stroke="#0077b6" stroke-width="0.5" fill-opacity="0.38461538461538464" stroke-opacity="0.38461538461538464" />
  <polygon points="137.36121593216774,74.25 130.0,78.5 122.63878406783228,74.25 122.63878406783228,65.75 130.0,61.5 137.36121593216774,65.75" fill="#00d9ff" stroke="#0077b6" stroke-width="0.5" fill-opacity="0.4076923076923077" stroke-opacity="0.4076923076923077" />
  <polygon points="157.36121593216774,74.25 150.0,78.5 142.63878406783226,74.25 142.63878406783226,65.75 150.0,61.5 157.36121593216774,65.75" fill="#00d9ff" stroke="#0077b6" stroke-width="0.5" fill-opacity="0.43076923076923074" stroke-opacity="0.43076923076923074" />
  <polygon points="177.36121593216774,74.25 170.0,78.5 162.63878406783226,74.25 162.63878406783226,65.75 170.0,61.5 177.36121593216774,65.75" fill="#00d9ff" stroke="#0077b6" stroke-width="0.5" fill-opacity="0.4538461538461539" stroke-opacity="0.4538461538461539" />
  <polygon points="197.36121593216774,74.25 190.0,78.5 182.63878406783226,74.25 182.63878406783226,65.75 190.0,61.5 197.36121593216774,65.75" fill="#00d9ff" stroke="#0077b6" stroke-width="0.5" fill-opacity="0.47692307692307695" stroke-opacity="0.47692307692307695" />
  <polygon points="217.36121593216774,74.25 210.0,78.5 202.63878406783226,74.25 202.63878406783226,65.75 210.0,61.5 217.36121593216774,65.75" fill="#00d9ff" stroke="#0077b6" stroke-width="0.5" fill-opacity="0.5" stroke-opacity="0.5" />
  <polygon points="237.36121593216774,74.25 230.0,78.5 222.63878406783226,74.25 222.63878406783226,65.75 230.0,61.5 237.36121593216774,65.75" fill="#00d9ff" stroke="#0077b6" stroke-width="0.5" fill-opacity="0.523076923076923" stroke-opacity="0.523076923076923" />
  <polygon points="257.36121593216774,74.25 250.0,78.5 242.63878406783226,74.25 242.63878406783226,65.75 250.0,61.5 257.36121593216774,65.75" fill="#00d9ff" stroke="#0077b6" stroke-width="0.5" fill-opacity="0.5461538461538462" stroke-opacity="0.5461538461538462" />
  <polygon points="277.36121593216774,74.25 270.0,78.5 262.63878406783226,74.25 262.63878406783226,65.75 270.0,61.5 277.36121593216774,65.75" fill="#00d9ff" stroke="#0077b6" stroke-width="0.5" fill-opacity="0.5692307692307692" stroke-opacity="0.5692307692307692" />
  <polygon points="17.361215932167728,94.25 10.0,98.5 2.6387840678322725,94.25 2.6387840678322707,85.75 9.999999999999998,81.5 17.361215932167728,85.75" fill="#00d9ff" stroke="#0077b6" stroke-width="0.5" fill-opacity="0.2923076923076923" stroke-opacity="0.2923076923076923" />
  <polygon points="37.361215932167724,94.25 30.0,98.5 22.638784067832272,94.25 22.63878406783227,85.75 30.0,81.5 37.361215932167724,85.75" fill="#00d9ff" stroke="#0077b6" stroke-width="0.5" fill-opacity="0.3153846153846154" stroke-opacity="0.3153846153846154" />
  <polygon points="57.361215932167724,94.25 50.0,98.5 42.638784067832276,94.25 42.63878406783227,85.75 50.0,81.5 57.361215932167724,85.75" fill="#00d9ff" stroke="#0077b6" stroke-width="0.5" fill-opacity="0.3384615384615385" stroke-opacity="0.3384615384615385" />
  <polygon points="77.36121593216772,94.25 70.0,98.5 62.638784067832276,94.25 62.63878406783227,85.75 70.0,81.5 77.36121593216772,85.75" fill="#00d9ff" stroke="#0077b6" stroke-width="0.5" fill-opacity="0.3615384615384616" stroke-opacity="0.3615384615384616" />
  <polygon points="97.36121593216772,94.25 90.0,98.5 82.63878406783228,94.25 82.63878406783228,85.75 90.0,81.5 97.36121593216772,85.75" fill="#00d9ff" stroke="#0077b6" stroke-width="0.5" fill-opacity="0.38461538461538464" stroke-opacity="0.38461538461538464" />
  <polygon points="117.36121593216772,94.25 110.0,98.5 102.63878406783228,94.25 102.63878406783228,85.75 110.0,81.5 117.36121593216772,85.75" fill="#00d9ff" stroke="#0077b6" stroke-width="0.5" fill-opacity="0.4076923076923077" stroke-opacity="0.4076923076923077" />
  <polygon points="137.36121593216774,94.25 130.0,98.5 122.63878406783228,94.25 122.63878406783228,85.75 130.0,81.5 137.36121593216774,85.75" fill="#00d9ff" stroke="#0077b6" stroke-width="0.5" fill-opacity="0.4307692307692308" stroke-opacity="0.4307692307692308" />
  <polygon points="157.36121593216774,94.25 150.0,98.5 142.63878406783226,94.25 142.63878406783226,85.75 150.0,81.5 157.36121593216774,85.75" fill="#00d9ff" stroke="#0077b6" stroke-width="0.5" fill-opacity="0.45384615384615384" stroke-opacity="0.45384615384615384" />
  <polygon points="177.36121593216774,94.25 170.0,98.5 162.63878406783226,94.25 162.63878406783226,85.75 170.0,81.5 177.36121593216774,85.75" fill="#00d9ff" stroke="#0077b6" stroke-width="0.5" fill-opacity="0.47692307692307695" stroke-opacity="0.47692307692307695" />
  <polygon points="197.36121593216774,94.25 190.0,98.5 182.63878406783226,94.25 182.63878406783226,85.75 190.0,81.5 197.36121593216774,85.75" fill="#00d9ff" stroke="#0077b6" stroke-width="0.5" fill-opacity="0.5" stroke-opacity="0.5" />
  <polygon points="217.36121593216774,94.25 210.0,98.5 202.63878406783226,94.25 202.63878406783226,85.75 210.0,81.5 217.36121593216774,85.75" fill="#00d9ff" stroke="#0077b6" stroke-width="0.5" fill-opacity="0.5230769230769231" stroke-opacity="0.5230769230769231" />
  <polygon points="237.36121593216774,94.25 230.0,98.5 222.63878406783226,94.25 222.63878406783226,85.75 230.0,81.5 237.36121593216774,85.75" fill="#00d9ff" stroke="#0077b6" stroke-width="0.5" fill-opacity="0.5461538461538461" stroke-opacity="0.5461538461538461" />
  <polygon points="257.36121593216774,94.25 250.0,98.5 242.63878406783226,94.25 242.63878406783226,85.75 250.0,81.5 257.36121593216774,85.75" fill="#00d9ff" stroke="#0077b6" stroke-width="0.5" fill-opacity="0.5692307692307692" stroke-opacity="0.5692307692307692" />
  <polygon points="277.36121593216774,94.25 270.0,98.5 262.63878406783226,94.25 262.63878406783226,85.75 270.0,81.5 277.36121593216774,85.75" fill="#00d9ff" stroke="#0077b6" stroke-width="0.5" fill-opacity="0.5923076923076923" stroke-opacity="0.5923076923076923" />
  <polygon points="17.361215932167728,114.25 10.0,118.5 2.6387840678322725,114.25 2.6387840678322707,105.75 9.999999999999998,101.5 17.361215932167728,105.75" fill="#00d9ff" stroke="#0077b6" stroke-width="0.5" fill-opacity="0.3153846153846154" stroke-opacity="0.3153846153846154" />
  <polygon points="37.361215932167724,114.25 30.0,118.5 22.638784067832272,114.25 22.63878406783227,105.75 30.0,101.5 37.361215932167724,105.75" fill="#00d9ff" stroke="#0077b6" stroke-width="0.5" fill-opacity="0.3384615384615385" stroke-opacity="0.3384615384615385" />
  <polygon points="57.361215932167724,114.25 50.0,118.5 42.638784067832276,114.25 42.63878406783227,105.75 50.0,101.5 57.361215932167724,105.75" fill="#00d9ff" stroke="#0077b6" stroke-width="0.5" fill-opacity="0.3615384615384616" stroke-opacity="0.3615384615384616" />
  <polygon points="77.36121593216772,114.25 70.0,118.5 62.638784067832276,114.25 62.63878406783227,105.75 70.0,101.5 77.36121593216772,105.75" fill="#00d9ff" stroke="#0077b6" stroke-width="0.5" fill-opacity="0.38461538461538464" stroke-opacity="0.38461538461538464" />
  <polygon points="97.36121593216772,114.25 90.0,118.5 82.63878406783228,114.25 82.63878406783228,105.75 90.0,101.5 97.36121593216772,105.75" fill="#00d9ff" stroke="#0077b6" stroke-width="0.5" fill-opacity="0.4076923076923077" stroke-opacity="0.4076923076923077" />
  <polygon points="117.36121593216772,114.25 110.0,118.5 102.63878406783228,114.25 102.63878406783228,105.75 110.0,101.5 117.36121593216772,105.75" fill="#00d9ff" stroke="#0077b6" stroke-width="0.5" fill-opacity="0.4307692307692308" stroke-opacity="0.4307692307692308" />
  <polygon points="137.36121593216774,114.25 130.0,118.5 122.63878406783228,114.25 122.63878406783228,105.75 130.0,101.5 137.36121593216774,105.75" fill="#00d9ff" stroke="#0077b6" stroke-width="0.5" fill-opacity="0.4538461538461539" stroke-opacity="0.4538461538461539" />
  <polygon points="157.36121593216774,114.25 150.0,118.5 142.63878406783226,114.25 142.63878406783226,105.75 150.0,101.5 157.36121593216774,105.75" fill="#00d9ff" stroke="#0077b6" stroke-width="0.5" fill-opacity="0.47692307692307695" stroke-opacity="0.47692307692307695" />
  <polygon points="177.36121593216774,114.25 170.0,118.5 162.63878406783226,114.25 162.63878406783226,105.75 170.0,101.5 177.36121593216774,105.75" fill="#00d9ff" stroke="#0077b6" stroke-width="0.5" fill-opacity="0.5" stroke-opacity="0.5" />
  <polygon points="197.36121593216774,114.25 190.0,118.5 182.63878406783226,114.25 182.63878406783226,105.75 190.0,101.5 197.36121593216774,105.75" fill="#00d9ff" stroke="#0077b6" stroke-width="0.5" fill-opacity="0.523076923076923" stroke-opacity="0.523076923076923" />
  <polygon points="217.36121593216774,114.25 210.0,118.5 202.63878406783226,114.25 202.63878406783226,105.75 210.0,101.5 217.36121593216774,105.75" fill="#00d9ff" stroke="#0077b6" stroke-width="0.5" fill-opacity="0.5461538461538462" stroke-opacity="0.5461538461538462" />
  <polygon points="237.36121593216774,114.25 230.0,118.5 222.63878406783226,114.25 222.63878406783226,105.75 230.0,101.5 237.36121593216774,105.75" fill="#00d9ff" stroke="#0077b6" stroke-width="0.5" fill-opacity="0.5692307692307692" stroke-opacity="0.5692307692307692" />
  <polygon points="257.36121593216774,114.25 250.0,118.5 242.63878406783226,114.25 242.63878406783226,105.75 250.0,101.5 257.36121593216774,105.75" fill="#00d9ff" stroke="#0077b6" stroke-width="0.5" fill-opacity="0.5923076923076923" stroke-opacity="0.5923076923076923" />
  <polygon points="277.36121593216774,114.25 270.0,118.5 262.63878406783226,114.25 262.63878406783226,105.75 270.0,101.5 277.36121593216774,105.75" fill="#00d9ff" stroke="#0077b6" stroke-width="0.5" fill-opacity="0.6153846153846154" stroke-opacity="0.6153846153846154" />
  <polygon points="17.361215932167728,134.25 10.0,138.5 2.6387840678322725,134.25 2.6387840678322707,125.75 9.999999999999998,121.5 17.361215932167728,125.75" fill="#00d9ff" stroke="#0077b6" stroke-width="0.5" fill-opacity="0.3384615384615385" stroke-opacity="0.3384615384615385" />
  <polygon points="37.361215932167724,134.25 30.0,138.5 22.638784067832272,134.25 22.63878406783227,125.75 30.0,121.5 37.361215932167724,125.75" fill="#00d9ff" stroke="#0077b6" stroke-width="0.5" fill-opacity="0.3615384615384616" stroke-opacity="0.3615384615384616" />
  <polygon points="57.361215932167724,134.25 50.0,138.5 42.638784067832276,134.25 42.63878406783227,125.75 50.0,121.5 57.361215932167724,125.75" fill="#00d9ff" stroke="#0077b6" stroke-width="0.5" fill-opacity="0.38461538461538464" stroke-opacity="0.38461538461538464" />
  <polygon points="77.36121593216772,134.25 70.0,138.5 62.638784067832276,134.25 62.63878406783227,125.75 70.0,121.5 77.36121593216772,125.75" fill="#00d9ff" stroke="#0077b6" stroke-width="0.5" fill-opacity="0.4076923076923077" stroke-opacity="0.4076923076923077" />
  <polygon points="97.36121593216772,134.25 90.0,138.5 82.63878406783228,134.25 82.63878406783228,125.75 90.0,121.5 97.36121593216772,125.75" fill="#00d9ff" stroke="#0077b6" stroke-width="0.5" fill-opacity="0.4307692307692308" stroke-opacity="0.4307692307692308" />
  <polygon points="117.36121593216772,134.25 110.0,138.5 102.63878406783228,134.25 102.63878406783228,125.75 110.0,121.5 117.36121593216772,125.75" fill="#00d9ff" stroke="#0077b6" stroke-width="0.5" fill-opacity="0.4538461538461539" stroke-opacity="0.4538461538461539" />
  <polygon points="137.36121593216774,134.25 130.0,138.5 122.63878406783228,134.25 122.63878406783228,125.75 130.0,121.5 137.36121593216774,125.75" fill="#00d9ff" stroke="#0077b6" stroke-width="0.5" fill-opacity="0.47692307692307695" stroke-opacity="0.47692307692307695" />
  <polygon points="157.36121593216774,134.25 150.0,138.5 142.63878406783226,134.25 142.63878406783226,125.75 150.0,121.5 157.36121593216774,125.75" fill="#00d9ff" stroke="#0077b6" stroke-width="0.5" fill-opacity="0.5" stroke-opacity="0.5" />
  <polygon points="177.36121593216774,134.25 170.0,138.5 162.63878406783226,134.25 162.63878406783226,125.75 170.0,121.5 177.36121593216774,125.75" fill="#00d9ff" stroke="#0077b6" stroke-width="0.5" fill-opacity="0.5230769230769231" stroke-opacity="0.5230769230769231" />
  <polygon points="197.36121593216774,134.25 190.0,138.5 182.63878406783226,134.25 182.63878406783226,125.75 190.0,121.5 197.36121593216774,125.75" fill="#00d9ff" stroke="#0077b6" stroke-width="0.5" fill-opacity="0.5461538461538461" stroke-opacity="0.5461538461538461" />
  <polygon points="217.36121593216774,134.25 210.0,138.5 202.63878406783226,134.25 202.63878406783226,125.75 210.0,121.5 217.36121593216774,125.75" fill="#00d9ff" stroke="#0077b6" stroke-width="0.5" fill-opacity="0.5692307692307692" stroke-opacity="0.5692307692307692" />
  <polygon points="237.36121593216774,134.25 230.0,138.5 222.63878406783226,134.25 222.63878406783226,125.75 230.0,121.5 237.36121593216774,125.75" fill="#00d9ff" stroke="#0077b6" stroke-width="0.5" fill-opacity="0.5923076923076923" stroke-opacity="0.5923076923076923" />
  <polygon points="257.36121593216774,134.25 250.0,138.5 242.63878406783226,134.25 242.63878406783226,125.75 250.0,121.5 257.36121593216774,125.75" fill="#00d9ff" stroke="#0077b6" stroke-width="0.5" fill-opacity="0.6153846153846154" stroke-opacity="0.6153846153846154" />
  <polygon points="277.36121593216774,134.25 270.0,138.5 262.63878406783226,134.25 262.63878406783226,125.75 270.0,121.5 277.36121593216774,125.75" fill="#00d9ff" stroke="#0077b6" stroke-width="0.5" fill-opacity="0.6384615384615385" stroke-opacity="0.6384615384615385" />
  <polygon points="17.361215932167728,154.25 10.0,158.5 2.6387840678322725,154.25 2.6387840678322707,145.75 9.999999999999998,141.5 17.361215932167728,145.75" fill="#00d9ff" stroke="#0077b6" stroke-width="0.5" fill-opacity="0.36153846153846153" stroke-opacity="0.36153846153846153" />
  <polygon points="37.361215932167724,154.25 30.0,158.5 22.638784067832272,154.25 22.63878406783227,145.75 30.0,141.5 37.361215932167724,145.75" fill="#00d9ff" stroke="#0077b6" stroke-width="0.5" fill-opacity="0.38461538461538464" stroke-opacity="0.38461538461538464" />
  <polygon points="57.361215932167724,154.25 50.0,158.5 42.638784067832276,154.25 42.63878406783227,145.75 50.0,141.5 57.361215932167724,145.75" fill="#00d9ff" stroke="#0077b6" stroke-width="0.5" fill-opacity="0.4076923076923077" stroke-opacity="0.4076923076923077" />
  <polygon points="77.36121593216772,154.25 70.0,158.5 62.638784067832276,154.25 62.63878406783227,145.75 70.0,141.5 77.36121593216772,145.75" fill="#00d9ff" stroke="#0077b6" stroke-width="0.5" fill-opacity="0.43076923076923074" stroke-opacity="0.43076923076923074" />
  <polygon points="97.36121593216772,154.25 90.0,158.5 82.63878406783228,154.25 82.63878406783228,145.75 90.0,141.5 97.36121593216772,145.75" fill="#00d9ff" stroke="#0077b6" stroke-width="0.5" fill-opacity="0.45384615384615384" stroke-opacity="0.45384615384615384" />
  <polygon points="117.36121593216772,154.25 110.0,158.5 102.63878406783228,154.25 102.63878406783228,145.75 110.0,141.5 117.36121593216772,145.75" fill="#00d9ff" stroke="#0077b6" stroke-width="0.5" fill-opacity="0.47692307692307695" stroke-opacity="0.47692307692307695" />
  <polygon points="137.36121593216774,154.25 130.0,158.5 122.63878406783228,154.25 122.63878406783228,145.75 130.0,141.5 137.36121593216774,145.75" fill="#00d9ff" stroke="#0077b6" stroke-width="0.5" fill-opacity="0.5" stroke-opacity="0.5" />
  <polygon points="157.36121593216774,154.25 150.0,158.5 142.63878406783226,154.25 142.63878406783226,145.75 150.0,141.5 157.36121593216774,145.75" fill="#00d9ff" stroke="#0077b6" stroke-width="0.5" fill-opacity="0.523076923076923" stroke-opacity="0.523076923076923" />
  <polygon points="177.36121593216774,154.25 170.0,158.5 162.63878406783226,154.25 162.63878406783226,145.75 170.0,141.5 177.36121593216774,145.75" fill="#00d9ff" stroke="#0077b6" stroke-width="0.5" fill-opacity="0.5461538461538461" stroke-opacity="0.5461538461538461" />
  <polygon points="197.36121593216774,154.25 190.0,158.5 182.63878406783226,154.25 182.63878406783226,145.75 190.0,141.5 197.36121593216774,145.75" fill="#00d9ff" stroke="#0077b6" stroke-width="0.5" fill-opacity="0.5692307692307692" stroke-opacity="0.5692307692307692" />
  <polygon points="217.36121593216774,154.25 210.0,158.5 202.63878406783226,154.25 202.63878406783226,145.75 210.0,141.5 217.36121593216774,145.75" fill="#00d9ff" stroke="#0077b6" stroke-width="0.5" fill-opacity="0.5923076923076923" stroke-opacity="0.5923076923076923" />
  <polygon points="237.36121593216774,154.25 230.0,158.5 222.63878406783226,154.25 222.63878406783226,145.75 230.0,141.5 237.36121593216774,145.75" fill="#00d9ff" stroke="#0077b6" stroke-width="0.5" fill-opacity="0.6153846153846154" stroke-opacity="0.6153846153846154" />
  <polygon points="257.36121593216774,154.25 250.0,158.5 242.63878406783226,154.25 242.63878406783226,145.75 250.0,141.5 257.36121593216774,145.75" fill="#00d9ff" stroke="#0077b6" stroke-width="0.5" fill-opacity="0.6384615384615385" stroke-opacity="0.6384615384615385" />
  <polygon points="277.36121593216774,154.25 270.0,158.5 262.63878406783226,154.25 262.63878406783226,145.75 270.0,141.5 277.36121593216774,145.75" fill="#00d9ff" stroke="#0077b6" stroke-width="0.5" fill-opacity="0.6615384615384614" stroke-opacity="0.6615384615384614" />
  <polygon points="17.361215932167728,174.25 10.0,178.5 2.6387840678322725,174.25 2.6387840678322707,165.75 9.999999999999998,161.5 17.361215932167728,165.75" fill="#00d9ff" stroke="#0077b6" stroke-width="0.5" fill-opacity="0.38461538461538464" stroke-opacity="0.38461538461538464" />
  <polygon points="37.361215932167724,174.25 30.0,178.5 22.638784067832272,174.25 22.63878406783227,165.75 30.0,161.5 37.361215932167724,165.75" fill="#00d9ff" stroke="#0077b6" stroke-width="0.5" fill-opacity="0.4076923076923077" stroke-opacity="0.4076923076923077" />
  <polygon points="57.361215932167724,174.25 50.0,178.5 42.638784067832276,174.25 42.63878406783227,165.75 50.0,161.5 57.361215932167724,165.75" fill="#00d9ff" stroke="#0077b6" stroke-width="0.5" fill-opacity="0.4307692307692308" stroke-opacity="0.4307692307692308" />
  <polygon points="77.36121593216772,174.25 70.0,178.5 62.638784067832276,174.25 62.63878406783227,165.75 70.0,161.5 77.36121593216772,165.75" fill="#00d9ff" stroke="#0077b6" stroke-width="0.5" fill-opacity="0.4538461538461539" stroke-opacity="0.4538461538461539" />
  <polygon points="97.36121593216772,174.25 90.0,178.5 82.63878406783228,174.25 82.63878406783228,165.75 90.0,161.5 97.36121593216772,165.75" fill="#00d9ff" stroke="#0077b6" stroke-width="0.5" fill-opacity="0.47692307692307695" stroke-opacity="0.47692307692307695" />
  <polygon points="117.36121593216772,174.25 110.0,178.5 102.63878406783228,174.25 102.63878406783228,165.75 110.0,161.5 117.36121593216772,165.75" fill="#00d9ff" stroke="#0077b6" stroke-width="0.5" fill-opacity="0.5" stroke-opacity="0.5" />
  <polygon points="137.36121593216774,174.25 130.0,178.5 122.63878406783228,174.25 122.63878406783228,165.75 130.0,161.5 137.36121593216774,165.75" fill="#00d9ff" stroke="#0077b6" stroke-width="0.5" fill-opacity="0.5230769230769231" stroke-opacity="0.5230769230769231" />
  <polygon points="157.36121593216774,174.25 150.0,178.5 142.63878406783226,174.25 142.63878406783226,165.75 150.0,161.5 157.36121593216774,165.75" fill="#00d9ff" stroke="#0077b6" stroke-width="0.5" fill-opacity="0.5461538461538461" stroke-opacity="0.5461538461538461" />
  <polygon points="177.36121593216774,174.25 170.0,178.5 162.63878406783226,174.25 162.63878406783226,165.75 170.0,161.5 177.36121593216774,165.75" fill="#00d9ff" stroke="#0077b6" stroke-width="0.5" fill-opacity="0.5692307692307692" stroke-opacity="0.5692307692307692" />
  <polygon points="197.36121593216774,174.25 190.0,178.5 182.63878406783226,174.25 182.63878406783226,165.75 190.0,161.5 197.36121593216774,165.75" fill="#00d9ff" stroke="#0077b6" stroke-width="0.5" fill-opacity="0.5923076923076923" stroke-opacity="0.5923076923076923" />
  <polygon points="217.36121593216774,174.25 210.0,178.5 202.63878406783226,174.25 202.63878406783226,165.75 210.0,161.5 217.36121593216774,165.75" fill="#00d9ff" stroke="#0077b6" stroke-width="0.5" fill-opacity="0.6153846153846154" stroke-opacity="0.6153846153846154" />
  <polygon points="237.36121593216774,174.25 230.0,178.5 222.63878406783226,174.25 222.63878406783226,165.75 230.0,161.5 237.36121593216774,165.75" fill="#00d9ff" stroke="#0077b6" stroke-width="0.5" fill-opacity="0.6384615384615385" stroke-opacity="0.6384615384615385" />
  <polygon points="257.36121593216774,174.25 250.0,178.5 242.63878406783226,174.25 242.63878406783226,165.75 250.0,161.5 257.36121593216774,165.75" fill="#00d9ff" stroke="#0077b6" stroke-width="0.5" fill-opacity="0.6615384615384616" stroke-opacity="0.6615384615384616" />
  <polygon points="277.36121593216774,174.25 270.0,178.5 262.63878406783226,174.25 262.63878406783226,165.75 270.0,161.5 277.36121593216774,165.75" fill="#00d9ff" stroke="#0077b6" stroke-width="0.5" fill-opacity="0.6846153846153846" stroke-opacity="0.6846153846153846" />
  <polygon points="17.361215932167728,194.25 10.0,198.5 2.6387840678322725,194.25 2.6387840678322707,185.75 9.999999999999998,181.5 17.361215932167728,185.75" fill="#00d9ff" stroke="#0077b6" stroke-width="0.5" fill-opacity="0.4076923076923077" stroke-opacity="0.4076923076923077" />
  <polygon points="37.361215932167724,194.25 30.0,198.5 22.638784067832272,194.25 22.63878406783227,185.75 30.0,181.5 37.361215932167724,185.75" fill="#00d9ff" stroke="#0077b6" stroke-width="0.5" fill-opacity="0.43076923076923074" stroke-opacity="0.43076923076923074" />
  <polygon points="57.361215932167724,194.25 50.0,198.5 42.638784067832276,194.25 42.63878406783227,185.75 50.0,181.5 57.361215932167724,185.75" fill="#00d9ff" stroke="#0077b6" stroke-width="0.5" fill-opacity="0.45384615384615384" stroke-opacity="0.45384615384615384" />
  <polygon points="77.36121593216772,194.25 70.0,198.5 62.638784067832276,194.25 62.63878406783227,185.75 70.0,181.5 77.36121593216772,185.75" fill="#00d9ff" stroke="#0077b6" stroke-width="0.5" fill-opacity="0.47692307692307695" stroke-opacity="0.47692307692307695" />
  <polygon points="97.36121593216772,194.25 90.0,198.5 82.63878406783228,194.25 82.63878406783228,185.75 90.0,181.5 97.36121593216772,185.75" fill="#00d9ff" stroke="#0077b6" stroke-width="0.5" fill-opacity="0.5" stroke-opacity="0.5" />
  <polygon points="117.36121593216772,194.25 110.0,198.5 102.63878406783228,194.25 102.63878406783228,185.75 110.0,181.5 117.36121593216772,185.75" fill="#00d9ff" stroke="#0077b6" stroke-width="0.5" fill-opacity="0.523076923076923" stroke-opacity="0.523076923076923" />
  <polygon points="137.36121593216774,194.25 130.0,198.5 122.63878406783228,194.25 122.63878406783228,185.75 130.0,181.5 137.36121593216774,185.75" fill="#00d9ff" stroke="#0077b6" stroke-width="0.5" fill-opacity="0.5461538461538461" stroke-opacity="0.5461538461538461" />
  <polygon points="157.36121593216774,194.25 150.0,198.5 142.63878406783226,194.25 142.63878406783226,185.75 150.0,181.5 157.36121593216774,185.75" fill="#00d9ff" stroke="#0077b6" stroke-width="0.5" fill-opacity="0.5692307692307692" stroke-opacity="0.5692307692307692" />
  <polygon points="177.36121593216774,194.25 170.0,198.5 162.63878406783226,194.25 162.63878406783226,185.75 170.0,181.5 177.36121593216774,185.75" fill="#00d9ff" stroke="#0077b6" stroke-width="0.5" fill-opacity="0.5923076923076923" stroke-opacity="0.5923076923076923" />
  <polygon points="197.36121593216774,194.25 190.0,198.5 182.63878406783226,194.25 182.63878406783226,185.75 190.0,181.5 197.36121593216774,185.75" fill="#00d9ff" stroke="#0077b6" stroke-width="0.5" fill-opacity="0.6153846153846154" stroke-opacity="0.6153846153846154" />
  <polygon points="217.36121593216774,194.25 210.0,198.5 202.63878406783226,194.25 202.63878406783226,185.75 210.0,181.5 217.36121593216774,185.75" fill="#00d9ff" stroke="#0077b6" stroke-width="0.5" fill-opacity="0.6384615384615385" stroke-opacity="0.6384615384615385" />
  <polygon points="237.36121593216774,194.25 230.0,198.5 222.63878406783226,194.25 222.63878406783226,185.75 230.0,181.5 237.36121593216774,185.75" fill="#00d9ff" stroke="#0077b6" stroke-width="0.5" fill-opacity="0.6615384615384614" stroke-opacity="0.6615384615384614" />
  <polygon points="257.36121593216774,194.25 250.0,198.5 242.63878406783226,194.25 242.63878406783226,185.75 250.0,181.5 257.36121593216774,185.75" fill="#00d9ff" stroke="#0077b6" stroke-width="0.5" fill-opacity="0.6846153846153846" stroke-opacity="0.6846153846153846" />
  <polygon points="277.36121593216774,194.25 270.0,198.5 262.63878406783226,194.25 262.63878406783226,185.75 270.0,181.5 277.36121593216774,185.75" fill="#00d9ff" stroke="#0077b6" stroke-width="0.5" fill-opacity="0.7076923076923076" stroke-opacity="0.7076923076923076" />
  <polygon points="17.361215932167728,214.25 10.0,218.5 2.6387840678322725,214.25 2.6387840678322707,205.75 9.999999999999998,201.5 17.361215932167728,205.75" fill="#00d9ff" stroke="#0077b6" stroke-width="0.5" fill-opacity="0.4307692307692308" stroke-opacity="0.4307692307692308" />
  <polygon points="37.361215932167724,214.25 30.0,218.5 22.638784067832272,214.25 22.63878406783227,205.75 30.0,201.5 37.361215932167724,205.75" fill="#00d9ff" stroke="#0077b6" stroke-width="0.5" fill-opacity="0.4538461538461539" stroke-opacity="0.4538461538461539" />
  <polygon points="57.361215932167724,214.25 50.0,218.5 42.638784067832276,214.25 42.63878406783227,205.75 50.0,201.5 57.361215932167724,205.75" fill="#00d9ff" stroke="#0077b6" stroke-width="0.5" fill-opacity="0.47692307692307695" stroke-opacity="0.47692307692307695" />
  <polygon points="77.36121593216772,214.25 70.0,218.5 62.638784067832276,214.25 62.63878406783227,205.75 70.0,201.5 77.36121593216772,205.75" fill="#00d9ff" stroke="#0077b6" stroke-width="0.5" fill-opacity="0.5" stroke-opacity="0.5" />
  <polygon points="97.36121593216772,214.25 90.0,218.5 82.63878406783228,214.25 82.63878406783228,205.75 90.0,201.5 97.36121593216772,205.75" fill="#00d9ff" stroke="#0077b6" stroke-width="0.5" fill-opacity="0.5230769230769231" stroke-opacity="0.5230769230769231" />
  <polygon points="117.36121593216772,214.25 110.0,218.5 102.63878406783228,214.25 102.63878406783228,205.75 110.0,201.5 117.36121593216772,205.75" fill="#00d9ff" stroke="#0077b6" stroke-width="0.5" fill-opacity="0.5461538461538462" stroke-opacity="0.5461538461538462" />
  <polygon points="137.36121593216774,214.25 130.0,218.5 122.63878406783228,214.25 122.63878406783228,205.75 130.0,201.5 137.36121593216774,205.75" fill="#00d9ff" stroke="#0077b6" stroke-width="0.5" fill-opacity="0.5692307692307692" stroke-opacity="0.5692307692307692" />
  <polygon points="157.36121593216774,214.25 150.0,218.5 142.63878406783226,214.25 142.63878406783226,205.75 150.0,201.5 157.36121593216774,205.75" fill="#00d9ff" stroke="#0077b6" stroke-width="0.5" fill-opacity="0.5923076923076923" stroke-opacity="0.5923076923076923" />
  <polygon points="177.36121593216774,214.25 170.0,218.5 162.63878406783226,214.25 162.63878406783226,205.75 170.0,201.5 177.36121593216774,205.75" fill="#00d9ff" stroke="#0077b6" stroke-width="0.5" fill-opacity="0.6153846153846154" stroke-opacity="0.6153846153846154" />
  <polygon points="197.36121593216774,214.25 190.0,218.5 182.63878406783226,214.25 182.63878406783226,205.75 190.0,201.5 197.36121593216774,205.75" fill="#00d9ff" stroke="#0077b6" stroke-width="0.5" fill-opacity="0.6384615384615385" stroke-opacity="0.6384615384615385" />
  <polygon points="217.36121593216774,214.25 210.0,218.5 202.63878406783226,214.25 202.63878406783226,205.75 210.0,201.5 217.36121593216774,205.75" fill="#00d9ff" stroke="#0077b6" stroke-width="0.5" fill-opacity="0.6615384615384616" stroke-opacity="0.6615384615384616" />
  <polygon points="237.36121593216774,214.25 230.0,218.5 222.63878406783226,214.25 222.63878406783226,205.75 230.0,201.5 237.36121593216774,205.75" fill="#00d9ff" stroke="#0077b6" stroke-width="0.5" fill-opacity="0.6846153846153846" stroke-opacity="0.6846153846153846" />
  <polygon points="257.36121593216774,214.25 250.0,218.5 242.63878406783226,214.25 242.63878406783226,205.75 250.0,201.5 257.36121593216774,205.75" fill="#00d9ff" stroke="#0077b6" stroke-width="0.5" fill-opacity="0.7076923076923078" stroke-opacity="0.7076923076923078" />
  <polygon points="277.36121593216774,214.25 270.0,218.5 262.63878406783226,214.25 262.63878406783226,205.75 270.0,201.5 277.36121593216774,205.75" fill="#00d9ff" stroke="#0077b6" stroke-width="0.5" fill-opacity="0.7307692307692308" stroke-opacity="0.7307692307692308" />
  <polygon points="17.361215932167728,234.25 10.0,238.5 2.6387840678322725,234.25 2.6387840678322707,225.75 9.999999999999998,221.5 17.361215932167728,225.75" fill="#00d9ff" stroke="#0077b6" stroke-width="0.5" fill-opacity="0.45384615384615384" stroke-opacity="0.45384615384615384" />
  <polygon points="37.361215932167724,234.25 30.0,238.5 22.638784067832272,234.25 22.63878406783227,225.75 30.0,221.5 37.361215932167724,225.75" fill="#00d9ff" stroke="#0077b6" stroke-width="0.5" fill-opacity="0.47692307692307695" stroke-opacity="0.47692307692307695" />
  <polygon points="57.361215932167724,234.25 50.0,238.5 42.638784067832276,234.25 42.63878406783227,225.75 50.0,221.5 57.361215932167724,225.75" fill="#00d9ff" stroke="#0077b6" stroke-width="0.5" fill-opacity="0.5" stroke-opacity="0.5" />
  <polygon points="77.36121593216772,234.25 70.0,238.5 62.638784067832276,234.25 62.63878406783227,225.75 70.0,221.5 77.36121593216772,225.75" fill="#00d9ff" stroke="#0077b6" stroke-width="0.5" fill-opacity="0.523076923076923" stroke-opacity="0.523076923076923" />
  <polygon points="97.36121593216772,234.25 90.0,238.5 82.63878406783228,234.25 82.63878406783228,225.75 90.0,221.5 97.36121593216772,225.75" fill="#00d9ff" stroke="#0077b6" stroke-width="0.5" fill-opacity="0.5461538461538461" stroke-opacity="0.5461538461538461" />
  <polygon points="117.36121593216772,234.25 110.0,238.5 102.63878406783228,234.25 102.63878406783228,225.75 110.0,221.5 117.36121593216772,225.75" fill="#00d9ff" stroke="#0077b6" stroke-width="0.5" fill-opacity="0.5692307692307692" stroke-opacity="0.5692307692307692" />
  <polygon points="137.36121593216774,234.25 130.0,238.5 122.63878406783228,234.25 122.63878406783228,225.75 130.0,221.5 137.36121593216774,225.75" fill="#00d9ff" stroke="#0077b6" stroke-width="0.5" fill-opacity="0.5923076923076923" stroke-opacity="0.5923076923076923" />
  <polygon points="157.36121593216774,234.25 150.0,238.5 142.63878406783226,234.25 142.63878406783226,225.75 150.0,221.5 157.36121593216774,225.75" fill="#00d9ff" stroke="#0077b6" stroke-width="0.5" fill-opacity="0.6153846153846154" stroke-opacity="0.6153846153846154" />
  <polygon points="177.36121593216774,234.25 170.0,238.5 162.63878406783226,234.25 162.63878406783226,225.75 170.0,221.5 177.36121593216774,225.75" fill="#00d9ff" stroke="#0077b6" stroke-width="0.5" fill-opacity="0.6384615384615385" stroke-opacity="0.6384615384615385" />
  <polygon points="197.36121593216774,234.25 190.0,238.5 182.63878406783226,234.25 182.63878406783226,225.75 190.0,221.5 197.36121593216774,225.75" fill="#00d9ff" stroke="#0077b6" stroke-width="0.5" fill-opacity="0.6615384615384614" stroke-opacity="0.6615384615384614" />
  <polygon points="217.36121593216774,234.25 210.0,238.5 202.63878406783226,234.25 202.63878406783226,225.75 210.0,221.5 217.36121593216774,225.75" fill="#00d9ff" stroke="#0077b6" stroke-width="0.5" fill-opacity="0.6846153846153846" stroke-opacity="0.6846153846153846" />
  <polygon points="237.36121593216774,234.25 230.0,238.5 222.63878406783226,234.25 222.63878406783226,225.75 230.0,221.5 237.36121593216774,225.75" fill="#00d9ff" stroke="#0077b6" stroke-width="0.5" fill-opacity="0.7076923076923076" stroke-opacity="0.7076923076923076" />
  <polygon points="257.36121593216774,234.25 250.0,238.5 242.63878406783226,234.25 242.63878406783226,225.75 250.0,221.5 257.36121593216774,225.75" fill="#00d9ff" stroke="#0077b6" stroke-width="0.5" fill-opacity="0.7307692307692308" stroke-opacity="0.7307692307692308" />
  <polygon points="277.36121593216774,234.25 270.0,238.5 262.63878406783226,234.25 262.63878406783226,225.75 270.0,221.5 277.36121593216774,225.75" fill="#00d9ff" stroke="#0077b6" stroke-width="0.5" fill-opacity="0.7538461538461538" stroke-opacity="0.7538461538461538" />
  <polygon points="17.361215932167728,254.25 10.0,258.5 2.6387840678322725,254.25 2.6387840678322707,245.75 9.999999999999998,241.5 17.361215932167728,245.75" fill="#00d9ff" stroke="#0077b6" stroke-width="0.5" fill-opacity="0.47692307692307695" stroke-opacity="0.47692307692307695" />
  <polygon points="37.361215932167724,254.25 30.0,258.5 22.638784067832272,254.25 22.63878406783227,245.75 30.0,241.5 37.361215932167724,245.75" fill="#00d9ff" stroke="#0077b6" stroke-width="0.5" fill-opacity="0.5" stroke-opacity="0.5" />
  <polygon points="57.361215932167724,254.25 50.0,258.5 42.638784067832276,254.25 42.63878406783227,245.75 50.0,241.5 57.361215932167724,245.75" fill="#00d9ff" stroke="#0077b6" stroke-width="0.5" fill-opacity="0.5230769230769231" stroke-opacity="0.5230769230769231" />
  <polygon points="77.36121593216772,254.25 70.0,258.5 62.638784067832276,254.25 62.63878406783227,245.75 70.0,241.5 77.36121593216772,245.75" fill="#00d9ff" stroke="#0077b6" stroke-width="0.5" fill-opacity="0.5461538461538462" stroke-opacity="0.5461538461538462" />
  <polygon points="97.36121593216772,254.25 90.0,258.5 82.63878406783228,254.25 82.63878406783228,245.75 90.0,241.5 97.36121593216772,245.75" fill="#00d9ff" stroke="#0077b6" stroke-width="0.5" fill-opacity="0.5692307692307692" stroke-opacity="0.5692307692307692" />
  <polygon points="117.36121593216772,254.25 110.0,258.5 102.63878406783228,254.25 102.63878406783228,245.75 110.0,241.5 117.36121593216772,245.75" fill="#00d9ff" stroke="#0077b6" stroke-width="0.5" fill-opacity="0.5923076923076923" stroke-opacity="0.5923076923076923" />
  <polygon points="137.36121593216774,254.25 130.0,258.5 122.63878406783228,254.25 122.63878406783228,245.75 130.0,241.5 137.36121593216774,245.75" fill="#00d9ff" stroke="#0077b6" stroke-width="0.5" fill-opacity="0.6153846153846154" stroke-opacity="0.6153846153846154" />
  <polygon points="157.36121593216774,254.25 150.0,258.5 142.63878406783226,254.25 142.63878406783226,245.75 150.0,241.5 157.36121593216774,245.75" fill="#00d9ff" stroke="#0077b6" stroke-width="0.5" fill-opacity="0.6384615384615385" stroke-opacity="0.6384615384615385" />
  <polygon points="177.36121593216774,254.25 170.0,258.5 162.63878406783226,254.25 162.63878406783226,245.75 170.0,241.5 177.36121593216774,245.75" fill="#00d9ff" stroke="#0077b6" stroke-width="0.5" fill-opacity="0.6615384615384616" stroke-opacity="0.6615384615384616" />
  <polygon points="197.36121593216774,254.25 190.0,258.5 182.63878406783226,254.25 182.63878406783226,245.75 190.0,241.5 197.36121593216774,245.75" fill="#00d9ff" stroke="#0077b6" stroke-width="0.5" fill-opacity="0.6846153846153846" stroke-opacity="0.6846153846153846" />
  <polygon points="217.36121593216774,254.25 210.0,258.5 202.63878406783226,254.25 202.63878406783226,245.75 210.0,241.5 217.36121593216774,245.75" fill="#00d9ff" stroke="#0077b6" stroke-width="0.5" fill-opacity="0.7076923076923078" stroke-opacity="0.7076923076923078" />
  <polygon points="237.36121593216774,254.25 230.0,258.5 222.63878406783226,254.25 222.63878406783226,245.75 230.0,241.5 237.36121593216774,245.75" fill="#00d9ff" stroke="#0077b6" stroke-width="0.5" fill-opacity="0.7307692307692308" stroke-opacity="0.7307692307692308" />
  <polygon points="257.36121593216774,254.25 250.0,258.5 242.63878406783226,254.25 242.63878406783226,245.75 250.0,241.5 257.36121593216774,245.75" fill="#00d9ff" stroke="#0077b6" stroke-width="0.5" fill-opacity="0.7538461538461538" stroke-opacity="0.7538461538461538" />
  <polygon points="277.36121593216774,254.25 270.0,258.5 262.63878406783226,254.25 262.63878406783226,245.75 270.0,241.5 277.36121593216774,245.75" fill="#00d9ff" stroke="#0077b6" stroke-width="0.5" fill-opacity="0.7769230769230768" stroke-opacity="0.7769230769230768" />
  <polygon points="17.361215932167728,274.25 10.0,278.5 2.6387840678322725,274.25 2.6387840678322707,265.75 9.999999999999998,261.5 17.361215932167728,265.75" fill="#00d9ff" stroke="#0077b6" stroke-width="0.5" fill-opacity="0.5" stroke-opacity="0.5" />
  <polygon points="37.361215932167724,274.25 30.0,278.5 22.638784067832272,274.25 22.63878406783227,265.75 30.0,261.5 37.361215932167724,265.75" fill="#00d9ff" stroke="#0077b6" stroke-width="0.5" fill-opacity="0.523076923076923" stroke-opacity="0.523076923076923" />
  <polygon points="57.361215932167724,274.25 50.0,278.5 42.638784067832276,274.25 42.63878406783227,265.75 50.0,261.5 57.361215932167724,265.75" fill="#00d9ff" stroke="#0077b6" stroke-width="0.5" fill-opacity="0.5461538461538461" stroke-opacity="0.5461538461538461" />
  <polygon points="77.36121593216772,274.25 70.0,278.5 62.638784067832276,274.25 62.63878406783227,265.75 70.0,261.5 77.36121593216772,265.75" fill="#00d9ff" stroke="#0077b6" stroke-width="0.5" fill-opacity="0.5692307692307692" stroke-opacity="0.5692307692307692" />
  <polygon points="97.36121593216772,274.25 90.0,278.5 82.63878406783228,274.25 82.63878406783228,265.75 90.0,261.5 97.36121593216772,265.75" fill="#00d9ff" stroke="#0077b6" stroke-width="0.5" fill-opacity="0.5923076923076923" stroke-opacity="0.5923076923076923" />
  <polygon points="117.36121593216772,274.25 110.0,278.5 102.63878406783228,274.25 102.63878406783228,265.75 110.0,261.5 117.36121593216772,265.75" fill="#00d9ff" stroke="#0077b6" stroke-width="0.5" fill-opacity="0.6153846153846154" stroke-opacity="0.6153846153846154" />
  <polygon points="137.36121593216774,274.25 130.0,278.5 122.63878406783228,274.25 122.63878406783228,265.75 130.0,261.5 137.36121593216774,265.75" fill="#00d9ff" stroke="#0077b6" stroke-width="0.5" fill-opacity="0.6384615384615385" stroke-opacity="0.6384615384615385" />
  <polygon points="157.36121593216774,274.25 150.0,278.5 142.63878406783226,274.25 142.63878406783226,265.75 150.0,261.5 157.36121593216774,265.75" fill="#00d9ff" stroke="#0077b6" stroke-width="0.5" fill-opacity="0.6615384615384614" stroke-opacity="0.6615384615384614" />
  <polygon points="177.36121593216774,274.25 170.0,278.5 162.63878406783226,274.25 162.63878406783226,265.75 170.0,261.5 177.36121593216774,265.75" fill="#00d9ff" stroke="#0077b6" stroke-width="0.5" fill-opacity="0.6846153846153846" stroke-opacity="0.6846153846153846" />
  <polygon points="197.36121593216774,274.25 190.0,278.5 182.63878406783226,274.25 182.63878406783226,265.75 190.0,261.5 197.36121593216774,265.75" fill="#00d9ff" stroke="#0077b6" stroke-width="0.5" fill-opacity="0.7076923076923076" stroke-opacity="0.7076923076923076" />
  <polygon points="217.36121593216774,274.25 210.0,278.5 202.63878406783226,274.25 202.63878406783226,265.75 210.0,261.5 217.36121593216774,265.75" fill="#00d9ff" stroke="#0077b6" stroke-width="0.5" fill-opacity="0.7307692307692308" stroke-opacity="0.7307692307692308" />
  <polygon points="237.36121593216774,274.25 230.0,278.5 222.63878406783226,274.25 222.63878406783226,265.75 230.0,261.5 237.36121593216774,265.75" fill="#00d9ff" stroke="#0077b6" stroke-width="0.5" fill-opacity="0.7538461538461538" stroke-opacity="0.7538461538461538" />
  <polygon points="257.36121593216774,274.25 250.0,278.5 242.63878406783226,274.25 242.63878406783226,265.75 250.0,261.5 257.36121593216774,265.75" fill="#00d9ff" stroke="#0077b6" stroke-width="0.5" fill-opacity="0.7769230769230768" stroke-opacity="0.7769230769230768" />
  <polygon points="277.36121593216774,274.25 270.0,278.5 262.63878406783226,274.25 262.63878406783226,265.75 270.0,261.5 277.36121593216774,265.75" fill="#00d9ff" stroke="#0077b6" stroke-width="0.5" fill-opacity="0.8" stroke-opacity="0.8" />
</svg>