<?xml version="1.0" encoding="UTF-8"?>
<svg xmlns="http://www.w3.org/2000/svg" width="300" height="60" viewBox="0 0 300 60">
  <rect width="100%" height="100%" fill="#2d1b4e" />
  <g transform="translate(30, 30) scale(0.45)">
  <circle cx="0" cy="0" r="20" fill="#ff6b35" />
  <line x1="-15" y1="-15" x2="15" y2="15" stroke="#efa00b" stroke-width="2" stroke-linecap="round" />
  <line x1="-15" y1="15" x2="15" y2="-15" stroke="#efa00b" stroke-width="2" stroke-linecap="round" />
</g>
  <text x="30" y="60" font-size="9" font-family="sans-serif" font-style="normal" font-weight="normal" fill="#aaaacc" text-anchor="middle" dominant-baseline="auto">30%</text>
  <rect x="0.25" y="0.25" width="59.5" height="59.5" fill="none" stroke="#4a3a6e" stroke-width="0.5" fill-opacity="0.3" stroke-opacity="0.3" />
  <g transform="translate(90, 30) scale(0.75)">
  <circle cx="0" cy="0" r="20" fill="#ff6b35" />
  <line x1="-15" y1="-15" x2="15" y2="15" stroke="#efa00b" stroke-width="2" stroke-linecap="round" />
  <line x1="-15" y1="15" x2="15" y2="-15" stroke="#efa00b" stroke-width="2" stroke-linecap="round" />
</g>
  <text x="90" y="60" font-size="9" font-family="sans-serif" font-style="normal" font-weight="normal" fill="#aaaacc" text-anchor="middle" dominant-baseline="auto">50%</text>
  <rect x="60.25" y="0.25" width="59.5" height="59.5" fill="none" stroke="#4a3a6e" stroke-width="0.5" fill-opacity="0.3" stroke-opacity="0.3" />
  <g transform="translate(150, 30) scale(1.05)">
  <circle cx="0" cy="0" r="20" fill="#ff6b35" />
  <line x1="-15" y1="-15" x2="15" y2="15" stroke="#efa00b" stroke-width="2" stroke-linecap="round" />
  <line x1="-15" y1="15" x2="15" y2="-15" stroke="#efa00b" stroke-width="2" stroke-linecap="round" />
</g>
  <text x="150" y="60" font-size="9" font-family="sans-serif" font-style="normal" font-weight="normal" fill="#aaaacc" text-anchor="middle" dominant-baseline="auto">70%</text>
  <rect x="120.25" y="0.25" width="59.5" height="59.5" fill="none" stroke="#4a3a6e" stroke-width="0.5" fill-opacity="0.3" stroke-opacity="0.3" />
  <g transform="translate(210, 30) scale(1.35)">
  <circle cx="0" cy="0" r="20" fill="#ff6b35" />
  <line x1="-15" y1="-15" x2="15" y2="15" stroke="#efa00b" stroke-width="2" stroke-linecap="round" />
  <line x1="-15" y1="15" x2="15" y2="-15" stroke="#efa00b" stroke-width="2" stroke-linecap="round" />
</g>
  <text x="210" y="60" font-size="9" font-family="sans-serif" font-style="normal" font-weight="normal" fill="#aaaacc" text-anchor="middle" dominant-baseline="auto">90%</text>
  <rect x="180.25" y="0.25" width="59.5" height="59.5" fill="none" stroke="#4a3a6e" stroke-width="0.5" fill-opacity="0.3" stroke-opacity="0.3" />
  <g transform="translate(270, 30) scale(1.5)">
  <circle cx="0" cy="0" r="20" fill="#ff6b35" />
  <line x1="-15" y1="-15" x2="15" y2="15" stroke="#efa00b" stroke-width="2" stroke-linecap="round" />
  <line x1="-15" y1="15" x2="15" y2="-15" stroke="#efa00b" stroke-width="2" stroke-linecap="round" />
</g>
  <text x="270" y="60" font-size="9" font-family="sans-serif" font-style="normal" font-weight="normal" fill="#aaaacc" text-anchor="middle" dominant-baseline="auto">100%</text>
  <rect x="240.25" y="0.25" width="59.5" height="59.5" fill="none" stroke="#4a3a6e" stroke-width="0.5" fill-opacity="0.3" stroke-opacity="0.3" />
</svg>