<?xml version="1.0" encoding="UTF-8"?>
<svg xmlns="http://www.w3.org/2000/svg" width="680" height="210" viewBox="0 0 680 210">
  <rect width="100%" height="100%" fill="#1a1a2e" />
  <polygon points="40,150 120,150 150.0,50.0" fill="#ff6b6b" stroke="#ff6b6b" stroke-width="1.5" fill-opacity="0.6" stroke-opacity="0.8" />
  <polygon points="120,150 200,150 150.0,50.0" fill="#4ecdc4" stroke="#4ecdc4" stroke-width="1.5" fill-opacity="0.6" stroke-opacity="0.8" />
  <circle cx="40" cy="150" r="4.0" fill="#666688" />
  <circle cx="120" cy="150" r="4.0" fill="#666688" />
  <circle cx="200" cy="150" r="4.0" fill="#666688" />
  <circle cx="150.0" cy="50.0" r="6.0" fill="#ffe66d" />
  <text x="120.0" y="195" font-size="11.0" font-family="sans-serif" font-style="normal" font-weight="normal" fill="#aaaacc" text-anchor="middle" dominant-baseline="middle">Original</text>
  <polygon points="260,150 340,150 370,50" fill="none" stroke="#3d3d5c" stroke-width="1.0" fill-opacity="0.3" stroke-opacity="0.3" />
  <polygon points="340,150 420,150 370,50" fill="none" stroke="#3d3d5c" stroke-width="1.0" fill-opacity="0.3" stroke-opacity="0.3" />
  <polygon points="260,150 340,150 400.0,60.0" fill="#ff6b6b" stroke="#ff6b6b" stroke-width="1.5" fill-opacity="0.6" stroke-opacity="0.8" />
  <polygon points="340,150 420,150 400.0,60.0" fill="#4ecdc4" stroke="#4ecdc4" stroke-width="1.5" fill-opacity="0.6" stroke-opacity="0.8" />
  <circle cx="260" cy="150" r="4.0" fill="#666688" />
  <circle cx="340" cy="150" r="4.0" fill="#666688" />
  <circle cx="420" cy="150" r="4.0" fill="#666688" />
  <circle cx="400.0" cy="60.0" r="6.0" fill="#ffe66d" />
  <text x="340.0" y="195" font-size="11.0" font-family="sans-serif" font-style="normal" font-weight="normal" fill="#aaaacc" text-anchor="middle" dominant-baseline="middle">Moving shared</text>
  <polygon points="480,150 560,150 590,50" fill="none" stroke="#3d3d5c" stroke-width="1.0" fill-opacity="0.3" stroke-opacity="0.3" />
  <polygon points="560,150 640,150 590,50" fill="none" stroke="#3d3d5c" stroke-width="1.0" fill-opacity="0.3" stroke-opacity="0.3" />
  <polygon points="480,150 560,150 650.0,70.0" fill="#ff6b6b" stroke="#ff6b6b" stroke-width="1.5" fill-opacity="0.6" stroke-opacity="0.8" />
  <polygon points="560,150 640,150 650.0,70.0" fill="#4ecdc4" stroke="#4ecdc4" stroke-width="1.5" fill-opacity="0.6" stroke-opacity="0.8" />
  <circle cx="480" cy="150" r="4.0" fill="#666688" />
  <circle cx="560" cy="150" r="4.0" fill="#666688" />
  <circle cx="640" cy="150" r="4.0" fill="#666688" />
  <circle cx="650.0" cy="70.0" r="6.0" fill="#ffe66d" />
  <text x="560.0" y="195" font-size="11.0" font-family="sans-serif" font-style="normal" font-weight="normal" fill="#aaaacc" text-anchor="middle" dominant-baseline="middle">Final</text>
</svg>