<?xml version="1.0" encoding="UTF-8"?>
<svg xmlns="http://www.w3.org/2000/svg" width="400" height="100" viewBox="0 0 400 100">
  <rect width="100%" height="100%" fill="#1a1a2e" />
  <polygon points="25.0,7.500000000000001 40.15544456622767,33.75 9.844555433772326,33.75" fill="#ff6b6b" fill-opacity="0.8" stroke-opacity="0.8" />
  <rect x="0.15" y="0.15" width="49.7" height="49.7" fill="none" stroke="#3d3d5c" stroke-width="0.3" fill-opacity="0.3" stroke-opacity="0.3" />
  <polygon points="57.5,7.500000000000001 92.5,7.500000000000001 92.5,42.5 57.5,42.5" fill="#ff6b6b" fill-opacity="0.8" stroke-opacity="0.8" />
  <rect x="50.15" y="0.15" width="49.7" height="49.7" fill="none" stroke="#3d3d5c" stroke-width="0.3" fill-opacity="0.3" stroke-opacity="0.3" />
  <polygon points="125.0,7.500000000000001 142.5,25.0 125.0,42.5 107.5,25.0" fill="#ff6b6b" fill-opacity="0.8" stroke-opacity="0.8" />
  <rect x="100.15" y="0.15" width="49.7" height="49.7" fill="none" stroke="#3d3d5c" stroke-width="0.3" fill-opacity="0.3" stroke-opacity="0.3" />
  <polygon points="190.1554445662277,33.75 175.0,42.5 159.8445554337723,33.75 159.8445554337723,16.250000000000004 175.0,7.500000000000001 190.1554445662277,16.250000000000007" fill="#ff6b6b" fill-opacity="0.8" stroke-opacity="0.8" />
  <rect x="150.15" y="0.15" width="49.7" height="49.7" fill="none" stroke="#3d3d5c" stroke-width="0.3" fill-opacity="0.3" stroke-opacity="0.3" />
  <polygon points="225.0,7.500000000000001 229.11449676604732,19.33688103937537 241.64348903516517,19.592202598438423 231.65739561406608,27.163118960624633 235.2862419151183,39.15779740156158 225.0,32.0 214.71375808488173,39.15779740156158 218.34260438593392,27.163118960624633 208.35651096483483,19.592202598438423 220.88550323395268,19.33688103937537" fill="#ff6b6b" fill-opacity="0.8" stroke-opacity="0.8" />
  <rect x="200.15" y="0.15" width="49.7" height="49.7" fill="none" stroke="#3d3d5c" stroke-width="0.3" fill-opacity="0.3" stroke-opacity="0.3" />
  <polygon points="275.0,7.500000000000001 287.37436867076457,12.625631329235421 292.5,25.0 287.37436867076457,37.37436867076458 275.0,42.5 262.62563132923543,37.37436867076458 257.5,25.0 262.62563132923543,12.625631329235421" fill="#ff6b6b" fill-opacity="0.8" stroke-opacity="0.8" />
  <rect x="250.15" y="0.15" width="49.7" height="49.7" fill="none" stroke="#3d3d5c" stroke-width="0.3" fill-opacity="0.3" stroke-opacity="0.3" />
  <polygon points="342.5,25.0 342.33105571289553,32.729580267869615 341.82076415718325,35.82574714104337 340.95736722544336,38.043902171599306 339.71568726694,39.71568726694 338.0439021715993,40.95736722544338 335.8257471410434,41.82076415718328 332.7295802678696,42.33105571289554 325.00000013693943,42.5 317.2704197321304,42.33105571289554 314.1742528589566,41.82076415718328 311.9560978284007,40.95736722544338 310.28431273306,39.71568726694 309.04263277455664,38.043902171599306 308.17923584281675,35.82574714104337 307.66894428710447,32.729580267869615 307.5,25.00000019366158 307.66894428710447,17.27041973213039 308.17923584281675,14.174252858956631 309.04263277455664,11.956097828400694 310.28431273306,10.284312733059997 311.9560978284007,9.042632774556624 314.1742528589566,8.179235842816729 317.2704197321304,7.668944287104456 324.99999976281396,7.500000000000001 332.7295802678696,7.668944287104456 335.8257471410434,8.179235842816727 338.0439021715993,9.042632774556619 339.71568726694,10.284312733059995 340.95736722544336,11.956097828400692 341.82076415718325,14.17425285895662 342.33105571289553,17.270419732130378" fill="#ff6b6b" fill-opacity="0.8" stroke-opacity="0.8" />
  <rect x="300.15" y="0.15" width="49.7" height="49.7" fill="none" stroke="#3d3d5c" stroke-width="0.3" fill-opacity="0.3" stroke-opacity="0.3" />
  <polygon points="383.75,7.500000000000001 385.45704031764114,7.668128796471735 387.0984800331945,8.166054090526242 388.6112395389215,8.974640892352731 389.9371843353823,10.06281566461771 391.02535910764726,11.388760461078482 391.83394590947375,12.901519966805463 392.3318712035283,14.542959682358877 392.5,33.75 392.3318712035283,35.45704031764112 391.83394590947375,37.098480033194534 391.02535910764726,38.611239538921524 389.9371843353823,39.93718433538229 388.6112395389215,41.025359107647276 387.0984800331945,41.833945909473755 385.45704031764114,42.33187120352827 366.25,42.50000000000001 364.54295968235886,42.33187120352827 362.9015199668055,41.833945909473755 361.3887604610785,41.025359107647276 360.0628156646177,39.93718433538229 358.97464089235274,38.611239538921524 358.16605409052625,37.098480033194534 357.66812879647176,35.45704031764112 357.5,16.25 357.66812879647176,14.542959682358877 358.16605409052625,12.901519966805466 358.97464089235274,11.388760461078483 360.0628156646177,10.06281566461771 361.3887604610785,8.97464089235273 362.90151996680544,8.166054090526243 364.54295968235886,7.668128796471736" fill="#ff6b6b" fill-opacity="0.8" stroke-opacity="0.8" />
  <rect x="350.15" y="0.15" width="49.7" height="49.7" fill="none" stroke="#3d3d5c" stroke-width="0.3" fill-opacity="0.3" stroke-opacity="0.3" />
  <text x="25.0" y="75.0" font-size="10.0" font-family="sans-serif" font-style="normal" font-weight="normal" fill="#aaaacc" text-anchor="middle" dominant-baseline="middle">triangle</text>
  <text x="75.0" y="75.0" font-size="10.0" font-family="sans-serif" font-style="normal" font-weight="normal" fill="#aaaacc" text-anchor="middle" dominant-baseline="middle">square</text>
  <text x="125.0" y="75.0" font-size="10.0" font-family="sans-serif" font-style="normal" font-weight="normal" fill="#aaaacc" text-anchor="middle" dominant-baseline="middle">diamond</text>
  <text x="175.0" y="75.0" font-size="10.0" font-family="sans-serif" font-style="normal" font-weight="normal" fill="#aaaacc" text-anchor="middle" dominant-baseline="middle">hexagon</text>
  <text x="225.0" y="75.0" font-size="10.0" font-family="sans-serif" font-style="normal" font-weight="normal" fill="#aaaacc" text-anchor="middle" dominant-baseline="middle">star</text>
  <text x="275.0" y="75.0" font-size="10.0" font-family="sans-serif" font-style="normal" font-weight="normal" fill="#aaaacc" text-anchor="middle" dominant-baseline="middle">octagon</text>
  <text x="325.0" y="75.0" font-size="10.0" font-family="sans-serif" font-style="normal" font-weight="normal" fill="#aaaacc" text-anchor="middle" dominant-baseline="middle">squircle</text>
  <text x="375.0" y="75.0" font-size="10.0" font-family="sans-serif" font-style="normal" font-weight="normal" fill="#aaaacc" text-anchor="middle" dominant-baseline="middle">rounded</text>
</svg>