<?xml version="1.0" encoding="UTF-8"?>
<svg xmlns="http://www.w3.org/2000/svg" width="288" height="240" viewBox="0 0 288 240">
  <rect width="100%" height="100%" fill="#fef6e4" />
  <g transform="translate(24, 24) scale(0.995122)">
  <ellipse cx="12" cy="0" rx="8" ry="4" fill="#f582ae" fill-opacity="0.7" stroke-opacity="0.7" />
  <ellipse cx="6" cy="10.3923" rx="8" ry="4" fill="#f582ae" fill-opacity="0.7" stroke-opacity="0.7" transform="rotate(60 6 10.3923)" />
  <ellipse cx="-6" cy="10.3923" rx="8" ry="4" fill="#f582ae" fill-opacity="0.7" stroke-opacity="0.7" transform="rotate(120 -6 10.3923)" />
  <ellipse cx="-12" cy="0" rx="8" ry="4" fill="#f582ae" fill-opacity="0.7" stroke-opacity="0.7" transform="rotate(180 -12 0)" />
  <ellipse cx="-6" cy="-10.3923" rx="8" ry="4" fill="#f582ae" fill-opacity="0.7" stroke-opacity="0.7" transform="rotate(240 -6 -10.3923)" />
  <ellipse cx="6" cy="-10.3923" rx="8" ry="4" fill="#f582ae" fill-opacity="0.7" stroke-opacity="0.7" transform="rotate(300 6 -10.3923)" />
  <circle cx="0" cy="0" r="5" fill="#ffc6c7" />
</g>
  <g transform="translate(72, 24) scale(0.995122)">
  <ellipse cx="12" cy="0" rx="8" ry="4" fill="#f582ae" fill-opacity="0.7" stroke-opacity="0.7" />
  <ellipse cx="6" cy="10.3923" rx="8" ry="4" fill="#f582ae" fill-opacity="0.7" stroke-opacity="0.7" transform="rotate(60 6 10.3923)" />
  <ellipse cx="-6" cy="10.3923" rx="8" ry="4" fill="#f582ae" fill-opacity="0.7" stroke-opacity="0.7" transform="rotate(120 -6 10.3923)" />
  <ellipse cx="-12" cy="0" rx="8" ry="4" fill="#f582ae" fill-opacity="0.7" stroke-opacity="0.7" transform="rotate(180 -12 0)" />
  <ellipse cx="-6" cy="-10.3923" rx="8" ry="4" fill="#f582ae" fill-opacity="0.7" stroke-opacity="0.7" transform="rotate(240 -6 -10.3923)" />
  <ellipse cx="6" cy="-10.3923" rx="8" ry="4" fill="#f582ae" fill-opacity="0.7" stroke-opacity="0.7" transform="rotate(300 6 -10.3923)" />
  <circle cx="0" cy="0" r="5" fill="#ffc6c7" />
</g>
  <g transform="translate(120, 24) scale(0.995122)">
  <ellipse cx="12" cy="0" rx="8" ry="4" fill="#f582ae" fill-opacity="0.7" stroke-opacity="0.7" />
  <ellipse cx="6" cy="10.3923" rx="8" ry="4" fill="#f582ae" fill-opacity="0.7" stroke-opacity="0.7" transform="rotate(60 6 10.3923)" />
  <ellipse cx="-6" cy="10.3923" rx="8" ry="4" fill="#f582ae" fill-opacity="0.7" stroke-opacity="0.7" transform="rotate(120 -6 10.3923)" />
  <ellipse cx="-12" cy="0" rx="8" ry="4" fill="#f582ae" fill-opacity="0.7" stroke-opacity="0.7" transform="rotate(180 -12 0)" />
  <ellipse cx="-6" cy="-10.3923" rx="8" ry="4" fill="#f582ae" fill-opacity="0.7" stroke-opacity="0.7" transform="rotate(240 -6 -10.3923)" />
  <ellipse cx="6" cy="-10.3923" rx="8" ry="4" fill="#f582ae" fill-opacity="0.7" stroke-opacity="0.7" transform="rotate(300 6 -10.3923)" />
  <circle cx="0" cy="0" r="5" fill="#ffc6c7" />
</g>
  <g transform="translate(168, 24) scale(0.995122)">
  <ellipse cx="12" cy="0" rx="8" ry="4" fill="#f582ae" fill-opacity="0.7" stroke-opacity="0.7" />
  <ellipse cx="6" cy="10.3923" rx="8" ry="4" fill="#f582ae" fill-opacity="0.7" stroke-opacity="0.7" transform="rotate(60 6 10.3923)" />
  <ellipse cx="-6" cy="10.3923" rx="8" ry="4" fill="#f582ae" fill-opacity="0.7" stroke-opacity="0.7" transform="rotate(120 -6 10.3923)" />
  <ellipse cx="-12" cy="0" rx="8" ry="4" fill="#f582ae" fill-opacity="0.7" stroke-opacity="0.7" transform="rotate(180 -12 0)" />
  <ellipse cx="-6" cy="-10.3923" rx="8" ry="4" fill="#f582ae" fill-opacity="0.7" stroke-opacity="0.7" transform="rotate(240 -6 -10.3923)" />
  <ellipse cx="6" cy="-10.3923" rx="8" ry="4" fill="#f582ae" fill-opacity="0.7" stroke-opacity="0.7" transform="rotate(300 6 -10.3923)" />
  <circle cx="0" cy="0" r="5" fill="#ffc6c7" />
</g>
  <g transform="translate(216, 24) scale(0.995122)">
  <ellipse cx="12" cy="0" rx="8" ry="4" fill="#f582ae" fill-opacity="0.7" stroke-opacity="0.7" />
  <ellipse cx="6" cy="10.3923" rx="8" ry="4" fill="#f582ae" fill-opacity="0.7" stroke-opacity="0.7" transform="rotate(60 6 10.3923)" />
  <ellipse cx="-6" cy="10.3923" rx="8" ry="4" fill="#f582ae" fill-opacity="0.7" stroke-opacity="0.7" transform="rotate(120 -6 10.3923)" />
  <ellipse cx="-12" cy="0" rx="8" ry="4" fill="#f582ae" fill-opacity="0.7" stroke-opacity="0.7" transform="rotate(180 -12 0)" />
  <ellipse cx="-6" cy="-10.3923" rx="8" ry="4" fill="#f582ae" fill-opacity="0.7" stroke-opacity="0.7" transform="rotate(240 -6 -10.3923)" />
  <ellipse cx="6" cy="-10.3923" rx="8" ry="4" fill="#f582ae" fill-opacity="0.7" stroke-opacity="0.7" transform="rotate(300 6 -10.3923)" />
  <circle cx="0" cy="0" r="5" fill="#ffc6c7" />
</g>
  <g transform="translate(264, 24) scale(0.995122)">
  <ellipse cx="12" cy="0" rx="8" ry="4" fill="#f582ae" fill-opacity="0.7" stroke-opacity="0.7" />
  <ellipse cx="6" cy="10.3923" rx="8" ry="4" fill="#f582ae" fill-opacity="0.7" stroke-opacity="0.7" transform="rotate(60 6 10.3923)" />
  <ellipse cx="-6" cy="10.3923" rx="8" ry="4" fill="#f582ae" fill-opacity="0.7" stroke-opacity="0.7" transform="rotate(120 -6 10.3923)" />
  <ellipse cx="-12" cy="0" rx="8" ry="4" fill="#f582ae" fill-opacity="0.7" stroke-opacity="0.7" transform="rotate(180 -12 0)" />
  <ellipse cx="-6" cy="-10.3923" rx="8" ry="4" fill="#f582ae" fill-opacity="0.7" stroke-opacity="0.7" transform="rotate(240 -6 -10.3923)" />
  <ellipse cx="6" cy="-10.3923" rx="8" ry="4" fill="#f582ae" fill-opacity="0.7" stroke-opacity="0.7" transform="rotate(300 6 -10.3923)" />
  <circle cx="0" cy="0" r="5" fill="#ffc6c7" />
</g>
  <g transform="translate(24, 72) scale(0.995122)">
  <ellipse cx="12" cy="0" rx="8" ry="4" fill="#f582ae" fill-opacity="0.7" stroke-opacity="0.7" />
  <ellipse cx="6" cy="10.3923" rx="8" ry="4" fill="#f582ae" fill-opacity="0.7" stroke-opacity="0.7" transform="rotate(60 6 10.3923)" />
  <ellipse cx="-6" cy="10.3923" rx="8" ry="4" fill="#f582ae" fill-opacity="0.7" stroke-opacity="0.7" transform="rotate(120 -6 10.3923)" />
  <ellipse cx="-12" cy="0" rx="8" ry="4" fill="#f582ae" fill-opacity="0.7" stroke-opacity="0.7" transform="rotate(180 -12 0)" />
  <ellipse cx="-6" cy="-10.3923" rx="8" ry="4" fill="#f582ae" fill-opacity="0.7" stroke-opacity="0.7" transform="rotate(240 -6 -10.3923)" />
  <ellipse cx="6" cy="-10.3923" rx="8" ry="4" fill="#f582ae" fill-opacity="0.7" stroke-opacity="0.7" transform="rotate(300 6 -10.3923)" />
  <circle cx="0" cy="0" r="5" fill="#ffc6c7" />
</g>
  <g transform="translate(72, 72) scale(0.995122)">
  <ellipse cx="12" cy="0" rx="8" ry="4" fill="#f582ae" fill-opacity="0.7" stroke-opacity="0.7" />
  <ellipse cx="6" cy="10.3923" rx="8" ry="4" fill="#f582ae" fill-opacity="0.7" stroke-opacity="0.7" transform="rotate(60 6 10.3923)" />
  <ellipse cx="-6" cy="10.3923" rx="8" ry="4" fill="#f582ae" fill-opacity="0.7" stroke-opacity="0.7" transform="rotate(120 -6 10.3923)" />
  <ellipse cx="-12" cy="0" rx="8" ry="4" fill="#f582ae" fill-opacity="0.7" stroke-opacity="0.7" transform="rotate(180 -12 0)" />
  <ellipse cx="-6" cy="-10.3923" rx="8" ry="4" fill="#f582ae" fill-opacity="0.7" stroke-opacity="0.7" transform="rotate(240 -6 -10.3923)" />
  <ellipse cx="6" cy="-10.3923" rx="8" ry="4" fill="#f582ae" fill-opacity="0.7" stroke-opacity="0.7" transform="rotate(300 6 -10.3923)" />
  <circle cx="0" cy="0" r="5" fill="#ffc6c7" />
</g>
  <g transform="translate(120, 72) scale(0.995122)">
  <ellipse cx="12" cy="0" rx="8" ry="4" fill="#f582ae" fill-opacity="0.7" stroke-opacity="0.7" />
  <ellipse cx="6" cy="10.3923" rx="8" ry="4" fill="#f582ae" fill-opacity="0.7" stroke-opacity="0.7" transform="rotate(60 6 10.3923)" />
  <ellipse cx="-6" cy="10.3923" rx="8" ry="4" fill="#f582ae" fill-opacity="0.7" stroke-opacity="0.7" transform="rotate(120 -6 10.3923)" />
  <ellipse cx="-12" cy="0" rx="8" ry="4" fill="#f582ae" fill-opacity="0.7" stroke-opacity="0.7" transform="rotate(180 -12 0)" />
  <ellipse cx="-6" cy="-10.3923" rx="8" ry="4" fill="#f582ae" fill-opacity="0.7" stroke-opacity="0.7" transform="rotate(240 -6 -10.3923)" />
  <ellipse cx="6" cy="-10.3923" rx="8" ry="4" fill="#f582ae" fill-opacity="0.7" stroke-opacity="0.7" transform="rotate(300 6 -10.3923)" />
  <circle cx="0" cy="0" r="5" fill="#ffc6c7" />
</g>
  <g transform="translate(168, 72) scale(0.995122)">
  <ellipse cx="12" cy="0" rx="8" ry="4" fill="#f582ae" fill-opacity="0.7" stroke-opacity="0.7" />
  <ellipse cx="6" cy="10.3923" rx="8" ry="4" fill="#f582ae" fill-opacity="0.7" stroke-opacity="0.7" transform="rotate(60 6 10.3923)" />
  <ellipse cx="-6" cy="10.3923" rx="8" ry="4" fill="#f582ae" fill-opacity="0.7" stroke-opacity="0.7" transform="rotate(120 -6 10.3923)" />
  <ellipse cx="-12" cy="0" rx="8" ry="4" fill="#f582ae" fill-opacity="0.7" stroke-opacity="0.7" transform="rotate(180 -12 0)" />
  <ellipse cx="-6" cy="-10.3923" rx="8" ry="4" fill="#f582ae" fill-opacity="0.7" stroke-opacity="0.7" transform="rotate(240 -6 -10.3923)" />
  <ellipse cx="6" cy="-10.3923" rx="8" ry="4" fill="#f582ae" fill-opacity="0.7" stroke-opacity="0.7" transform="rotate(300 6 -10.3923)" />
  <circle cx="0" cy="0" r="5" fill="#ffc6c7" />
</g>
  <g transform="translate(216, 72) scale(0.995122)">
  <ellipse cx="12" cy="0" rx="8" ry="4" fill="#f582ae" fill-opacity="0.7" stroke-opacity="0.7" />
  <ellipse cx="6" cy="10.3923" rx="8" ry="4" fill="#f582ae" fill-opacity="0.7" stroke-opacity="0.7" transform="rotate(60 6 10.3923)" />
  <ellipse cx="-6" cy="10.3923" rx="8" ry="4" fill="#f582ae" fill-opacity="0.7" stroke-opacity="0.7" transform="rotate(120 -6 10.3923)" />
  <ellipse cx="-12" cy="0" rx="8" ry="4" fill="#f582ae" fill-opacity="0.7" stroke-opacity="0.7" transform="rotate(180 -12 0)" />
  <ellipse cx="-6" cy="-10.3923" rx="8" ry="4" fill="#f582ae" fill-opacity="0.7" stroke-opacity="0.7" transform="rotate(240 -6 -10.3923)" />
  <ellipse cx="6" cy="-10.3923" rx="8" ry="4" fill="#f582ae" fill-opacity="0.7" stroke-opacity="0.7" transform="rotate(300 6 -10.3923)" />
  <circle cx="0" cy="0" r="5" fill="#ffc6c7" />
</g>
  <g transform="translate(264, 72) scale(0.995122)">
  <ellipse cx="12" cy="0" rx="8" ry="4" fill="#f582ae" fill-opacity="0.7" stroke-opacity="0.7" />
  <ellipse cx="6" cy="10.3923" rx="8" ry="4" fill="#f582ae" fill-opacity="0.7" stroke-opacity="0.7" transform="rotate(60 6 10.3923)" />
  <ellipse cx="-6" cy="10.3923" rx="8" ry="4" fill="#f582ae" fill-opacity="0.7" stroke-opacity="0.7" transform="rotate(120 -6 10.3923)" />
  <ellipse cx="-12" cy="0" rx="8" ry="4" fill="#f582ae" fill-opacity="0.7" stroke-opacity="0.7" transform="rotate(180 -12 0)" />
  <ellipse cx="-6" cy="-10.3923" rx="8" ry="4" fill="#f582ae" fill-opacity="0.7" stroke-opacity="0.7" transform="rotate(240 -6 -10.3923)" />
  <ellipse cx="6" cy="-10.3923" rx="8" ry="4" fill="#f582ae" fill-opacity="0.7" stroke-opacity="0.7" transform="rotate(300 6 -10.3923)" />
  <circle cx="0" cy="0" r="5" fill="#ffc6c7" />
</g>
  <g transform="translate(24, 120) scale(0.995122)">
  <ellipse cx="12" cy="0" rx="8" ry="4" fill="#f582ae" fill-opacity="0.7" stroke-opacity="0.7" />
  <ellipse cx="6" cy="10.3923" rx="8" ry="4" fill="#f582ae" fill-opacity="0.7" stroke-opacity="0.7" transform="rotate(60 6 10.3923)" />
  <ellipse cx="-6" cy="10.3923" rx="8" ry="4" fill="#f582ae" fill-opacity="0.7" stroke-opacity="0.7" transform="rotate(120 -6 10.3923)" />
  <ellipse cx="-12" cy="0" rx="8" ry="4" fill="#f582ae" fill-opacity="0.7" stroke-opacity="0.7" transform="rotate(180 -12 0)" />
  <ellipse cx="-6" cy="-10.3923" rx="8" ry="4" fill="#f582ae" fill-opacity="0.7" stroke-opacity="0.7" transform="rotate(240 -6 -10.3923)" />
  <ellipse cx="6" cy="-10.3923" rx="8" ry="4" fill="#f582ae" fill-opacity="0.7" stroke-opacity="0.7" transform="rotate(300 6 -10.3923)" />
  <circle cx="0" cy="0" r="5" fill="#ffc6c7" />
</g>
  <g transform="translate(72, 120) scale(0.995122)">
  <ellipse cx="12" cy="0" rx="8" ry="4" fill="#f582ae" fill-opacity="0.7" stroke-opacity="0.7" />
  <ellipse cx="6" cy="10.3923" rx="8" ry="4" fill="#f582ae" fill-opacity="0.7" stroke-opacity="0.7" transform="rotate(60 6 10.3923)" />
  <ellipse cx="-6" cy="10.3923" rx="8" ry="4" fill="#f582ae" fill-opacity="0.7" stroke-opacity="0.7" transform="rotate(120 -6 10.3923)" />
  <ellipse cx="-12" cy="0" rx="8" ry="4" fill="#f582ae" fill-opacity="0.7" stroke-opacity="0.7" transform="rotate(180 -12 0)" />
  <ellipse cx="-6" cy="-10.3923" rx="8" ry="4" fill="#f582ae" fill-opacity="0.7" stroke-opacity="0.7" transform="rotate(240 -6 -10.3923)" />
  <ellipse cx="6" cy="-10.3923" rx="8" ry="4" fill="#f582ae" fill-opacity="0.7" stroke-opacity="0.7" transform="rotate(300 6 -10.3923)" />
  <circle cx="0" cy="0" r="5" fill="#ffc6c7" />
</g>
  <g transform="translate(120, 120) scale(0.995122)">
  <ellipse cx="12" cy="0" rx="8" ry="4" fill="#f582ae" fill-opacity="0.7" stroke-opacity="0.7" />
  <ellipse cx="6" cy="10.3923" rx="8" ry="4" fill="#f582ae" fill-opacity="0.7" stroke-opacity="0.7" transform="rotate(60 6 10.3923)" />
  <ellipse cx="-6" cy="10.3923" rx="8" ry="4" fill="#f582ae" fill-opacity="0.7" stroke-opacity="0.7" transform="rotate(120 -6 10.3923)" />
  <ellipse cx="-12" cy="0" rx="8" ry="4" fill="#f582ae" fill-opacity="0.7" stroke-opacity="0.7" transform="rotate(180 -12 0)" />
  <ellipse cx="-6" cy="-10.3923" rx="8" ry="4" fill="#f582ae" fill-opacity="0.7" stroke-opacity="0.7" transform="rotate(240 -6 -10.3923)" />
  <ellipse cx="6" cy="-10.3923" rx="8" ry="4" fill="#f582ae" fill-opacity="0.7" stroke-opacity="0.7" transform="rotate(300 6 -10.3923)" />
  <circle cx="0" cy="0" r="5" fill="#ffc6c7" />
</g>
  <g transform="translate(168, 120) scale(0.995122)">
  <ellipse cx="12" cy="0" rx="8" ry="4" fill="#f582ae" fill-opacity="0.7" stroke-opacity="0.7" />
  <ellipse cx="6" cy="10.3923" rx="8" ry="4" fill="#f582ae" fill-opacity="0.7" stroke-opacity="0.7" transform="rotate(60 6 10.3923)" />
  <ellipse cx="-6" cy="10.3923" rx="8" ry="4" fill="#f582ae" fill-opacity="0.7" stroke-opacity="0.7" transform="rotate(120 -6 10.3923)" />
  <ellipse cx="-12" cy="0" rx="8" ry="4" fill="#f582ae" fill-opacity="0.7" stroke-opacity="0.7" transform="rotate(180 -12 0)" />
  <ellipse cx="-6" cy="-10.3923" rx="8" ry="4" fill="#f582ae" fill-opacity="0.7" stroke-opacity="0.7" transform="rotate(240 -6 -10.3923)" />
  <ellipse cx="6" cy="-10.3923" rx="8" ry="4" fill="#f582ae" fill-opacity="0.7" stroke-opacity="0.7" transform="rotate(300 6 -10.3923)" />
  <circle cx="0" cy="0" r="5" fill="#ffc6c7" />
</g>
  <g transform="translate(216, 120) scale(0.995122)">
  <ellipse cx="12" cy="0" rx="8" ry="4" fill="#f582ae" fill-opacity="0.7" stroke-opacity="0.7" />
  <ellipse cx="6" cy="10.3923" rx="8" ry="4" fill="#f582ae" fill-opacity="0.7" stroke-opacity="0.7" transform="rotate(60 6 10.3923)" />
  <ellipse cx="-6" cy="10.3923" rx="8" ry="4" fill="#f582ae" fill-opacity="0.7" stroke-opacity="0.7" transform="rotate(120 -6 10.3923)" />
  <ellipse cx="-12" cy="0" rx="8" ry="4" fill="#f582ae" fill-opacity="0.7" stroke-opacity="0.7" transform="rotate(180 -12 0)" />
  <ellipse cx="-6" cy="-10.3923" rx="8" ry="4" fill="#f582ae" fill-opacity="0.7" stroke-opacity="0.7" transform="rotate(240 -6 -10.3923)" />
  <ellipse cx="6" cy="-10.3923" rx="8" ry="4" fill="#f582ae" fill-opacity="0.7" stroke-opacity="0.7" transform="rotate(300 6 -10.3923)" />
  <circle cx="0" cy="0" r="5" fill="#ffc6c7" />
</g>
  <g transform="translate(264, 120) scale(0.995122)">
  <ellipse cx="12" cy="0" rx="8" ry="4" fill="#f582ae" fill-opacity="0.7" stroke-opacity="0.7" />
  <ellipse cx="6" cy="10.3923" rx="8" ry="4" fill="#f582ae" fill-opacity="0.7" stroke-opacity="0.7" transform="rotate(60 6 10.3923)" />
  <ellipse cx="-6" cy="10.3923" rx="8" ry="4" fill="#f582ae" fill-opacity="0.7" stroke-opacity="0.7" transform="rotate(120 -6 10.3923)" />
  <ellipse cx="-12" cy="0" rx="8" ry="4" fill="#f582ae" fill-opacity="0.7" stroke-opacity="0.7" transform="rotate(180 -12 0)" />
  <ellipse cx="-6" cy="-10.3923" rx="8" ry="4" fill="#f582ae" fill-opacity="0.7" stroke-opacity="0.7" transform="rotate(240 -6 -10.3923)" />
  <ellipse cx="6" cy="-10.3923" rx="8" ry="4" fill="#f582ae" fill-opacity="0.7" stroke-opacity="0.7" transform="rotate(300 6 -10.3923)" />
  <circle cx="0" cy="0" r="5" fill="#ffc6c7" />
</g>
  <g transform="translate(24, 168) scale(0.995122)">
  <ellipse cx="12" cy="0" rx="8" ry="4" fill="#f582ae" fill-opacity="0.7" stroke-opacity="0.7" />
  <ellipse cx="6" cy="10.3923" rx="8" ry="4" fill="#f582ae" fill-opacity="0.7" stroke-opacity="0.7" transform="rotate(60 6 10.3923)" />
  <ellipse cx="-6" cy="10.3923" rx="8" ry="4" fill="#f582ae" fill-opacity="0.7" stroke-opacity="0.7" transform="rotate(120 -6 10.3923)" />
  <ellipse cx="-12" cy="0" rx="8" ry="4" fill="#f582ae" fill-opacity="0.7" stroke-opacity="0.7" transform="rotate(180 -12 0)" />
  <ellipse cx="-6" cy="-10.3923" rx="8" ry="4" fill="#f582ae" fill-opacity="0.7" stroke-opacity="0.7" transform="rotate(240 -6 -10.3923)" />
  <ellipse cx="6" cy="-10.3923" rx="8" ry="4" fill="#f582ae" fill-opacity="0.7" stroke-opacity="0.7" transform="rotate(300 6 -10.3923)" />
  <circle cx="0" cy="0" r="5" fill="#ffc6c7" />
</g>
  <g transform="translate(72, 168) scale(0.995122)">
  <ellipse cx="12" cy="0" rx="8" ry="4" fill="#f582ae" fill-opacity="0.7" stroke-opacity="0.7" />
  <ellipse cx="6" cy="10.3923" rx="8" ry="4" fill="#f582ae" fill-opacity="0.7" stroke-opacity="0.7" transform="rotate(60 6 10.3923)" />
  <ellipse cx="-6" cy="10.3923" rx="8" ry="4" fill="#f582ae" fill-opacity="0.7" stroke-opacity="0.7" transform="rotate(120 -6 10.3923)" />
  <ellipse cx="-12" cy="0" rx="8" ry="4" fill="#f582ae" fill-opacity="0.7" stroke-opacity="0.7" transform="rotate(180 -12 0)" />
  <ellipse cx="-6" cy="-10.3923" rx="8" ry="4" fill="#f582ae" fill-opacity="0.7" stroke-opacity="0.7" transform="rotate(240 -6 -10.3923)" />
  <ellipse cx="6" cy="-10.3923" rx="8" ry="4" fill="#f582ae" fill-opacity="0.7" stroke-opacity="0.7" transform="rotate(300 6 -10.3923)" />
  <circle cx="0" cy="0" r="5" fill="#ffc6c7" />
</g>
  <g transform="translate(120, 168) scale(0.995122)">
  <ellipse cx="12" cy="0" rx="8" ry="4" fill="#f582ae" fill-opacity="0.7" stroke-opacity="0.7" />
  <ellipse cx="6" cy="10.3923" rx="8" ry="4" fill="#f582ae" fill-opacity="0.7" stroke-opacity="0.7" transform="rotate(60 6 10.3923)" />
  <ellipse cx="-6" cy="10.3923" rx="8" ry="4" fill="#f582ae" fill-opacity="0.7" stroke-opacity="0.7" transform="rotate(120 -6 10.3923)" />
  <ellipse cx="-12" cy="0" rx="8" ry="4" fill="#f582ae" fill-opacity="0.7" stroke-opacity="0.7" transform="rotate(180 -12 0)" />
  <ellipse cx="-6" cy="-10.3923" rx="8" ry="4" fill="#f582ae" fill-opacity="0.7" stroke-opacity="0.7" transform="rotate(240 -6 -10.3923)" />
  <ellipse cx="6" cy="-10.3923" rx="8" ry="4" fill="#f582ae" fill-opacity="0.7" stroke-opacity="0.7" transform="rotate(300 6 -10.3923)" />
  <circle cx="0" cy="0" r="5" fill="#ffc6c7" />
</g>
  <g transform="translate(168, 168) scale(0.995122)">
  <ellipse cx="12" cy="0" rx="8" ry="4" fill="#f582ae" fill-opacity="0.7" stroke-opacity="0.7" />
  <ellipse cx="6" cy="10.3923" rx="8" ry="4" fill="#f582ae" fill-opacity="0.7" stroke-opacity="0.7" transform="rotate(60 6 10.3923)" />
  <ellipse cx="-6" cy="10.3923" rx="8" ry="4" fill="#f582ae" fill-opacity="0.7" stroke-opacity="0.7" transform="rotate(120 -6 10.3923)" />
  <ellipse cx="-12" cy="0" rx="8" ry="4" fill="#f582ae" fill-opacity="0.7" stroke-opacity="0.7" transform="rotate(180 -12 0)" />
  <ellipse cx="-6" cy="-10.3923" rx="8" ry="4" fill="#f582ae" fill-opacity="0.7" stroke-opacity="0.7" transform="rotate(240 -6 -10.3923)" />
  <ellipse cx="6" cy="-10.3923" rx="8" ry="4" fill="#f582ae" fill-opacity="0.7" stroke-opacity="0.7" transform="rotate(300 6 -10.3923)" />
  <circle cx="0" cy="0" r="5" fill="#ffc6c7" />
</g>
  <g transform="translate(216, 168) scale(0.995122)">
  <ellipse cx="12" cy="0" rx="8" ry="4" fill="#f582ae" fill-opacity="0.7" stroke-opacity="0.7" />
  <ellipse cx="6" cy="10.3923" rx="8" ry="4" fill="#f582ae" fill-opacity="0.7" stroke-opacity="0.7" transform="rotate(60 6 10.3923)" />
  <ellipse cx="-6" cy="10.3923" rx="8" ry="4" fill="#f582ae" fill-opacity="0.7" stroke-opacity="0.7" transform="rotate(120 -6 10.3923)" />
  <ellipse cx="-12" cy="0" rx="8" ry="4" fill="#f582ae" fill-opacity="0.7" stroke-opacity="0.7" transform="rotate(180 -12 0)" />
  <ellipse cx="-6" cy="-10.3923" rx="8" ry="4" fill="#f582ae" fill-opacity="0.7" stroke-opacity="0.7" transform="rotate(240 -6 -10.3923)" />
  <ellipse cx="6" cy="-10.3923" rx="8" ry="4" fill="#f582ae" fill-opacity="0.7" stroke-opacity="0.7" transform="rotate(300 6 -10.3923)" />
  <circle cx="0" cy="0" r="5" fill="#ffc6c7" />
</g>
  <g transform="translate(264, 168) scale(0.995122)">
  <ellipse cx="12" cy="0" rx="8" ry="4" fill="#f582ae" fill-opacity="0.7" stroke-opacity="0.7" />
  <ellipse cx="6" cy="10.3923" rx="8" ry="4" fill="#f582ae" fill-opacity="0.7" stroke-opacity="0.7" transform="rotate(60 6 10.3923)" />
  <ellipse cx="-6" cy="10.3923" rx="8" ry="4" fill="#f582ae" fill-opacity="0.7" stroke-opacity="0.7" transform="rotate(120 -6 10.3923)" />
  <ellipse cx="-12" cy="0" rx="8" ry="4" fill="#f582ae" fill-opacity="0.7" stroke-opacity="0.7" transform="rotate(180 -12 0)" />
  <ellipse cx="-6" cy="-10.3923" rx="8" ry="4" fill="#f582ae" fill-opacity="0.7" stroke-opacity="0.7" transform="rotate(240 -6 -10.3923)" />
  <ellipse cx="6" cy="-10.3923" rx="8" ry="4" fill="#f582ae" fill-opacity="0.7" stroke-opacity="0.7" transform="rotate(300 6 -10.3923)" />
  <circle cx="0" cy="0" r="5" fill="#ffc6c7" />
</g>
  <g transform="translate(24, 216) scale(0.995122)">
  <ellipse cx="12" cy="0" rx="8" ry="4" fill="#f582ae" fill-opacity="0.7" stroke-opacity="0.7" />
  <ellipse cx="6" cy="10.3923" rx="8" ry="4" fill="#f582ae" fill-opacity="0.7" stroke-opacity="0.7" transform="rotate(60 6 10.3923)" />
  <ellipse cx="-6" cy="10.3923" rx="8" ry="4" fill="#f582ae" fill-opacity="0.7" stroke-opacity="0.7" transform="rotate(120 -6 10.3923)" />
  <ellipse cx="-12" cy="0" rx="8" ry="4" fill="#f582ae" fill-opacity="0.7" stroke-opacity="0.7" transform="rotate(180 -12 0)" />
  <ellipse cx="-6" cy="-10.3923" rx="8" ry="4" fill="#f582ae" fill-opacity="0.7" stroke-opacity="0.7" transform="rotate(240 -6 -10.3923)" />
  <ellipse cx="6" cy="-10.3923" rx="8" ry="4" fill="#f582ae" fill-opacity="0.7" stroke-opacity="0.7" transform="rotate(300 6 -10.3923)" />
  <circle cx="0" cy="0" r="5" fill="#ffc6c7" />
</g>
  <g transform="translate(72, 216) scale(0.995122)">
  <ellipse cx="12" cy="0" rx="8" ry="4" fill="#f582ae" fill-opacity="0.7" stroke-opacity="0.7" />
  <ellipse cx="6" cy="10.3923" rx="8" ry="4" fill="#f582ae" fill-opacity="0.7" stroke-opacity="0.7" transform="rotate(60 6 10.3923)" />
  <ellipse cx="-6" cy="10.3923" rx="8" ry="4" fill="#f582ae" fill-opacity="0.7" stroke-opacity="0.7" transform="rotate(120 -6 10.3923)" />
  <ellipse cx="-12" cy="0" rx="8" ry="4" fill="#f582ae" fill-opacity="0.7" stroke-opacity="0.7" transform="rotate(180 -12 0)" />
  <ellipse cx="-6" cy="-10.3923" rx="8" ry="4" fill="#f582ae" fill-opacity="0.7" stroke-opacity="0.7" transform="rotate(240 -6 -10.3923)" />
  <ellipse cx="6" cy="-10.3923" rx="8" ry="4" fill="#f582ae" fill-opacity="0.7" stroke-opacity="0.7" transform="rotate(300 6 -10.3923)" />
  <circle cx="0" cy="0" r="5" fill="#ffc6c7" />
</g>
  <g transform="translate(120, 216) scale(0.995122)">
  <ellipse cx="12" cy="0" rx="8" ry="4" fill="#f582ae" fill-opacity="0.7" stroke-opacity="0.7" />
  <ellipse cx="6" cy="10.3923" rx="8" ry="4" fill="#f582ae" fill-opacity="0.7" stroke-opacity="0.7" transform="rotate(60 6 10.3923)" />
  <ellipse cx="-6" cy="10.3923" rx="8" ry="4" fill="#f582ae" fill-opacity="0.7" stroke-opacity="0.7" transform="rotate(120 -6 10.3923)" />
  <ellipse cx="-12" cy="0" rx="8" ry="4" fill="#f582ae" fill-opacity="0.7" stroke-opacity="0.7" transform="rotate(180 -12 0)" />
  <ellipse cx="-6" cy="-10.3923" rx="8" ry="4" fill="#f582ae" fill-opacity="0.7" stroke-opacity="0.7" transform="rotate(240 -6 -10.3923)" />
  <ellipse cx="6" cy="-10.3923" rx="8" ry="4" fill="#f582ae" fill-opacity="0.7" stroke-opacity="0.7" transform="rotate(300 6 -10.3923)" />
  <circle cx="0" cy="0" r="5" fill="#ffc6c7" />
</g>
  <g transform="translate(168, 216) scale(0.995122)">
  <ellipse cx="12" cy="0" rx="8" ry="4" fill="#f582ae" fill-opacity="0.7" stroke-opacity="0.7" />
  <ellipse cx="6" cy="10.3923" rx="8" ry="4" fill="#f582ae" fill-opacity="0.7" stroke-opacity="0.7" transform="rotate(60 6 10.3923)" />
  <ellipse cx="-6" cy="10.3923" rx="8" ry="4" fill="#f582ae" fill-opacity="0.7" stroke-opacity="0.7" transform="rotate(120 -6 10.3923)" />
  <ellipse cx="-12" cy="0" rx="8" ry="4" fill="#f582ae" fill-opacity="0.7" stroke-opacity="0.7" transform="rotate(180 -12 0)" />
  <ellipse cx="-6" cy="-10.3923" rx="8" ry="4" fill="#f582ae" fill-opacity="0.7" stroke-opacity="0.7" transform="rotate(240 -6 -10.3923)" />
  <ellipse cx="6" cy="-10.3923" rx="8" ry="4" fill="#f582ae" fill-opacity="0.7" stroke-opacity="0.7" transform="rotate(300 6 -10.3923)" />
  <circle cx="0" cy="0" r="5" fill="#ffc6c7" />
</g>
  <g transform="translate(216, 216) scale(0.995122)">
  <ellipse cx="12" cy="0" rx="8" ry="4" fill="#f582ae" fill-opacity="0.7" stroke-opacity="0.7" />
  <ellipse cx="6" cy="10.3923" rx="8" ry="4" fill="#f582ae" fill-opacity="0.7" stroke-opacity="0.7" transform="rotate(60 6 10.3923)" />
  <ellipse cx="-6" cy="10.3923" rx="8" ry="4" fill="#f582ae" fill-opacity="0.7" stroke-opacity="0.7" transform="rotate(120 -6 10.3923)" />
  <ellipse cx="-12" cy="0" rx="8" ry="4" fill="#f582ae" fill-opacity="0.7" stroke-opacity="0.7" transform="rotate(180 -12 0)" />
  <ellipse cx="-6" cy="-10.3923" rx="8" ry="4" fill="#f582ae" fill-opacity="0.7" stroke-opacity="0.7" transform="rotate(240 -6 -10.3923)" />
  <ellipse cx="6" cy="-10.3923" rx="8" ry="4" fill="#f582ae" fill-opacity="0.7" stroke-opacity="0.7" transform="rotate(300 6 -10.3923)" />
  <circle cx="0" cy="0" r="5" fill="#ffc6c7" />
</g>
  <g transform="translate(264, 216) scale(0.995122)">
  <ellipse cx="12" cy="0" rx="8" ry="4" fill="#f582ae" fill-opacity="0.7" stroke-opacity="0.7" />
  <ellipse cx="6" cy="10.3923" rx="8" ry="4" fill="#f582ae" fill-opacity="0.7" stroke-opacity="0.7" transform="rotate(60 6 10.3923)" />
  <ellipse cx="-6" cy="10.3923" rx="8" ry="4" fill="#f582ae" fill-opacity="0.7" stroke-opacity="0.7" transform="rotate(120 -6 10.3923)" />
  <ellipse cx="-12" cy="0" rx="8" ry="4" fill="#f582ae" fill-opacity="0.7" stroke-opacity="0.7" transform="rotate(180 -12 0)" />
  <ellipse cx="-6" cy="-10.3923" rx="8" ry="4" fill="#f582ae" fill-opacity="0.7" stroke-opacity="0.7" transform="rotate(240 -6 -10.3923)" />
  <ellipse cx="6" cy="-10.3923" rx="8" ry="4" fill="#f582ae" fill-opacity="0.7" stroke-opacity="0.7" transform="rotate(300 6 -10.3923)" />
  <circle cx="0" cy="0" r="5" fill="#ffc6c7" />
</g>
</svg>