<?xml version="1.0" encoding="UTF-8"?>
<svg xmlns="http://www.w3.org/2000/svg" width="240" height="240" viewBox="0 0 240 240">
  <rect width="100%" height="100%" fill="#1a1a2e" />
  <g transform="translate(20, 20) scale(1.25)">
  <circle cx="0" cy="0" r="12" fill="#ff6b6b" opacity="0.7" />
  <line x1="-10" y1="0" x2="10" y2="0" stroke="#ffe66d" stroke-width="2" stroke-linecap="round" />
  <line x1="0" y1="-10" x2="0" y2="10" stroke="#ffe66d" stroke-width="2" stroke-linecap="round" />
</g>
  <g transform="translate(60, 20) rotate(36) scale(1.25)">
  <circle cx="0" cy="0" r="12" fill="#ff6b6b" opacity="0.7" />
  <line x1="-10" y1="0" x2="10" y2="0" stroke="#ffe66d" stroke-width="2" stroke-linecap="round" />
  <line x1="0" y1="-10" x2="0" y2="10" stroke="#ffe66d" stroke-width="2" stroke-linecap="round" />
</g>
  <g transform="translate(100, 20) rotate(72) scale(1.25)">
  <circle cx="0" cy="0" r="12" fill="#ff6b6b" opacity="0.7" />
  <line x1="-10" y1="0" x2="10" y2="0" stroke="#ffe66d" stroke-width="2" stroke-linecap="round" />
  <line x1="0" y1="-10" x2="0" y2="10" stroke="#ffe66d" stroke-width="2" stroke-linecap="round" />
</g>
  <g transform="translate(140, 20) rotate(108) scale(1.25)">
  <circle cx="0" cy="0" r="12" fill="#ff6b6b" opacity="0.7" />
  <line x1="-10" y1="0" x2="10" y2="0" stroke="#ffe66d" stroke-width="2" stroke-linecap="round" />
  <line x1="0" y1="-10" x2="0" y2="10" stroke="#ffe66d" stroke-width="2" stroke-linecap="round" />
</g>
  <g transform="translate(180, 20) rotate(144) scale(1.25)">
  <circle cx="0" cy="0" r="12" fill="#ff6b6b" opacity="0.7" />
  <line x1="-10" y1="0" x2="10" y2="0" stroke="#ffe66d" stroke-width="2" stroke-linecap="round" />
  <line x1="0" y1="-10" x2="0" y2="10" stroke="#ffe66d" stroke-width="2" stroke-linecap="round" />
</g>
  <g transform="translate(220, 20) rotate(180) scale(1.25)">
  <circle cx="0" cy="0" r="12" fill="#ff6b6b" opacity="0.7" />
  <line x1="-10" y1="0" x2="10" y2="0" stroke="#ffe66d" stroke-width="2" stroke-linecap="round" />
  <line x1="0" y1="-10" x2="0" y2="10" stroke="#ffe66d" stroke-width="2" stroke-linecap="round" />
</g>
  <g transform="translate(20, 60) rotate(36) scale(1.25)">
  <circle cx="0" cy="0" r="12" fill="#ff6b6b" opacity="0.7" />
  <line x1="-10" y1="0" x2="10" y2="0" stroke="#ffe66d" stroke-width="2" stroke-linecap="round" />
  <line x1="0" y1="-10" x2="0" y2="10" stroke="#ffe66d" stroke-width="2" stroke-linecap="round" />
</g>
  <g transform="translate(60, 60) rotate(72) scale(1.25)">
  <circle cx="0" cy="0" r="12" fill="#ff6b6b" opacity="0.7" />
  <line x1="-10" y1="0" x2="10" y2="0" stroke="#ffe66d" stroke-width="2" stroke-linecap="round" />
  <line x1="0" y1="-10" x2="0" y2="10" stroke="#ffe66d" stroke-width="2" stroke-linecap="round" />
</g>
  <g transform="translate(100, 60) rotate(108) scale(1.25)">
  <circle cx="0" cy="0" r="12" fill="#ff6b6b" opacity="0.7" />
  <line x1="-10" y1="0" x2="10" y2="0" stroke="#ffe66d" stroke-width="2" stroke-linecap="round" />
  <line x1="0" y1="-10" x2="0" y2="10" stroke="#ffe66d" stroke-width="2" stroke-linecap="round" />
</g>
  <g transform="translate(140, 60) rotate(144) scale(1.25)">
  <circle cx="0" cy="0" r="12" fill="#ff6b6b" opacity="0.7" />
  <line x1="-10" y1="0" x2="10" y2="0" stroke="#ffe66d" stroke-width="2" stroke-linecap="round" />
  <line x1="0" y1="-10" x2="0" y2="10" stroke="#ffe66d" stroke-width="2" stroke-linecap="round" />
</g>
  <g transform="translate(180, 60) rotate(180) scale(1.25)">
  <circle cx="0" cy="0" r="12" fill="#ff6b6b" opacity="0.7" />
  <line x1="-10" y1="0" x2="10" y2="0" stroke="#ffe66d" stroke-width="2" stroke-linecap="round" />
  <line x1="0" y1="-10" x2="0" y2="10" stroke="#ffe66d" stroke-width="2" stroke-linecap="round" />
</g>
  <g transform="translate(220, 60) rotate(216) scale(1.25)">
  <circle cx="0" cy="0" r="12" fill="#ff6b6b" opacity="0.7" />
  <line x1="-10" y1="0" x2="10" y2="0" stroke="#ffe66d" stroke-width="2" stroke-linecap="round" />
  <line x1="0" y1="-10" x2="0" y2="10" stroke="#ffe66d" stroke-width="2" stroke-linecap="round" />
</g>
  <g transform="translate(20, 100) rotate(72) scale(1.25)">
  <circle cx="0" cy="0" r="12" fill="#ff6b6b" opacity="0.7" />
  <line x1="-10" y1="0" x2="10" y2="0" stroke="#ffe66d" stroke-width="2" stroke-linecap="round" />
  <line x1="0" y1="-10" x2="0" y2="10" stroke="#ffe66d" stroke-width="2" stroke-linecap="round" />
</g>
  <g transform="translate(60, 100) rotate(108) scale(1.25)">
  <circle cx="0" cy="0" r="12" fill="#ff6b6b" opacity="0.7" />
  <line x1="-10" y1="0" x2="10" y2="0" stroke="#ffe66d" stroke-width="2" stroke-linecap="round" />
  <line x1="0" y1="-10" x2="0" y2="10" stroke="#ffe66d" stroke-width="2" stroke-linecap="round" />
</g>
  <g transform="translate(100, 100) rotate(144) scale(1.25)">
  <circle cx="0" cy="0" r="12" fill="#ff6b6b" opacity="0.7" />
  <line x1="-10" y1="0" x2="10" y2="0" stroke="#ffe66d" stroke-width="2" stroke-linecap="round" />
  <line x1="0" y1="-10" x2="0" y2="10" stroke="#ffe66d" stroke-width="2" stroke-linecap="round" />
</g>
  <g transform="translate(140, 100) rotate(180) scale(1.25)">
  <circle cx="0" cy="0" r="12" fill="#ff6b6b" opacity="0.7" />
  <line x1="-10" y1="0" x2="10" y2="0" stroke="#ffe66d" stroke-width="2" stroke-linecap="round" />
  <line x1="0" y1="-10" x2="0" y2="10" stroke="#ffe66d" stroke-width="2" stroke-linecap="round" />
</g>
  <g transform="translate(180, 100) rotate(216) scale(1.25)">
  <circle cx="0" cy="0" r="12" fill="#ff6b6b" opacity="0.7" />
  <line x1="-10" y1="0" x2="10" y2="0" stroke="#ffe66d" stroke-width="2" stroke-linecap="round" />
  <line x1="0" y1="-10" x2="0" y2="10" stroke="#ffe66d" stroke-width="2" stroke-linecap="round" />
</g>
  <g transform="translate(220, 100) rotate(252) scale(1.25)">
  <circle cx="0" cy="0" r="12" fill="#ff6b6b" opacity="0.7" />
  <line x1="-10" y1="0" x2="10" y2="0" stroke="#ffe66d" stroke-width="2" stroke-linecap="round" />
  <line x1="0" y1="-10" x2="0" y2="10" stroke="#ffe66d" stroke-width="2" stroke-linecap="round" />
</g>
  <g transform="translate(20, 140) rotate(108) scale(1.25)">
  <circle cx="0" cy="0" r="12" fill="#ff6b6b" opacity="0.7" />
  <line x1="-10" y1="0" x2="10" y2="0" stroke="#ffe66d" stroke-width="2" stroke-linecap="round" />
  <line x1="0" y1="-10" x2="0" y2="10" stroke="#ffe66d" stroke-width="2" stroke-linecap="round" />
</g>
  <g transform="translate(60, 140) rotate(144) scale(1.25)">
  <circle cx="0" cy="0" r="12" fill="#ff6b6b" opacity="0.7" />
  <line x1="-10" y1="0" x2="10" y2="0" stroke="#ffe66d" stroke-width="2" stroke-linecap="round" />
  <line x1="0" y1="-10" x2="0" y2="10" stroke="#ffe66d" stroke-width="2" stroke-linecap="round" />
</g>
  <g transform="translate(100, 140) rotate(180) scale(1.25)">
  <circle cx="0" cy="0" r="12" fill="#ff6b6b" opacity="0.7" />
  <line x1="-10" y1="0" x2="10" y2="0" stroke="#ffe66d" stroke-width="2" stroke-linecap="round" />
  <line x1="0" y1="-10" x2="0" y2="10" stroke="#ffe66d" stroke-width="2" stroke-linecap="round" />
</g>
  <g transform="translate(140, 140) rotate(216) scale(1.25)">
  <circle cx="0" cy="0" r="12" fill="#ff6b6b" opacity="0.7" />
  <line x1="-10" y1="0" x2="10" y2="0" stroke="#ffe66d" stroke-width="2" stroke-linecap="round" />
  <line x1="0" y1="-10" x2="0" y2="10" stroke="#ffe66d" stroke-width="2" stroke-linecap="round" />
</g>
  <g transform="translate(180, 140) rotate(252) scale(1.25)">
  <circle cx="0" cy="0" r="12" fill="#ff6b6b" opacity="0.7" />
  <line x1="-10" y1="0" x2="10" y2="0" stroke="#ffe66d" stroke-width="2" stroke-linecap="round" />
  <line x1="0" y1="-10" x2="0" y2="10" stroke="#ffe66d" stroke-width="2" stroke-linecap="round" />
</g>
  <g transform="translate(220, 140) rotate(288) scale(1.25)">
  <circle cx="0" cy="0" r="12" fill="#ff6b6b" opacity="0.7" />
  <line x1="-10" y1="0" x2="10" y2="0" stroke="#ffe66d" stroke-width="2" stroke-linecap="round" />
  <line x1="0" y1="-10" x2="0" y2="10" stroke="#ffe66d" stroke-width="2" stroke-linecap="round" />
</g>
  <g transform="translate(20, 180) rotate(144) scale(1.25)">
  <circle cx="0" cy="0" r="12" fill="#ff6b6b" opacity="0.7" />
  <line x1="-10" y1="0" x2="10" y2="0" stroke="#ffe66d" stroke-width="2" stroke-linecap="round" />
  <line x1="0" y1="-10" x2="0" y2="10" stroke="#ffe66d" stroke-width="2" stroke-linecap="round" />
</g>
  <g transform="translate(60, 180) rotate(180) scale(1.25)">
  <circle cx="0" cy="0" r="12" fill="#ff6b6b" opacity="0.7" />
  <line x1="-10" y1="0" x2="10" y2="0" stroke="#ffe66d" stroke-width="2" stroke-linecap="round" />
  <line x1="0" y1="-10" x2="0" y2="10" stroke="#ffe66d" stroke-width="2" stroke-linecap="round" />
</g>
  <g transform="translate(100, 180) rotate(216) scale(1.25)">
  <circle cx="0" cy="0" r="12" fill="#ff6b6b" opacity="0.7" />
  <line x1="-10" y1="0" x2="10" y2="0" stroke="#ffe66d" stroke-width="2" stroke-linecap="round" />
  <line x1="0" y1="-10" x2="0" y2="10" stroke="#ffe66d" stroke-width="2" stroke-linecap="round" />
</g>
  <g transform="translate(140, 180) rotate(252) scale(1.25)">
  <circle cx="0" cy="0" r="12" fill="#ff6b6b" opacity="0.7" />
  <line x1="-10" y1="0" x2="10" y2="0" stroke="#ffe66d" stroke-width="2" stroke-linecap="round" />
  <line x1="0" y1="-10" x2="0" y2="10" stroke="#ffe66d" stroke-width="2" stroke-linecap="round" />
</g>
  <g transform="translate(180, 180) rotate(288) scale(1.25)">
  <circle cx="0" cy="0" r="12" fill="#ff6b6b" opacity="0.7" />
  <line x1="-10" y1="0" x2="10" y2="0" stroke="#ffe66d" stroke-width="2" stroke-linecap="round" />
  <line x1="0" y1="-10" x2="0" y2="10" stroke="#ffe66d" stroke-width="2" stroke-linecap="round" />
</g>
  <g transform="translate(220, 180) rotate(324) scale(1.25)">
  <circle cx="0" cy="0" r="12" fill="#ff6b6b" opacity="0.7" />
  <line x1="-10" y1="0" x2="10" y2="0" stroke="#ffe66d" stroke-width="2" stroke-linecap="round" />
  <line x1="0" y1="-10" x2="0" y2="10" stroke="#ffe66d" stroke-width="2" stroke-linecap="round" />
</g>
  <g transform="translate(20, 220) rotate(180) scale(1.25)">
  <circle cx="0" cy="0" r="12" fill="#ff6b6b" opacity="0.7" />
  <line x1="-10" y1="0" x2="10" y2="0" stroke="#ffe66d" stroke-width="2" stroke-linecap="round" />
  <line x1="0" y1="-10" x2="0" y2="10" stroke="#ffe66d" stroke-width="2" stroke-linecap="round" />
</g>
  <g transform="translate(60, 220) rotate(216) scale(1.25)">
  <circle cx="0" cy="0" r="12" fill="#ff6b6b" opacity="0.7" />
  <line x1="-10" y1="0" x2="10" y2="0" stroke="#ffe66d" stroke-width="2" stroke-linecap="round" />
  <line x1="0" y1="-10" x2="0" y2="10" stroke="#ffe66d" stroke-width="2" stroke-linecap="round" />
</g>
  <g transform="translate(100, 220) rotate(252) scale(1.25)">
  <circle cx="0" cy="0" r="12" fill="#ff6b6b" opacity="0.7" />
  <line x1="-10" y1="0" x2="10" y2="0" stroke="#ffe66d" stroke-width="2" stroke-linecap="round" />
  <line x1="0" y1="-10" x2="0" y2="10" stroke="#ffe66d" stroke-width="2" stroke-linecap="round" />
</g>
  <g transform="translate(140, 220) rotate(288) scale(1.25)">
  <circle cx="0" cy="0" r="12" fill="#ff6b6b" opacity="0.7" />
  <line x1="-10" y1="0" x2="10" y2="0" stroke="#ffe66d" stroke-width="2" stroke-linecap="round" />
  <line x1="0" y1="-10" x2="0" y2="10" stroke="#ffe66d" stroke-width="2" stroke-linecap="round" />
</g>
  <g transform="translate(180, 220) rotate(324) scale(1.25)">
  <circle cx="0" cy="0" r="12" fill="#ff6b6b" opacity="0.7" />
  <line x1="-10" y1="0" x2="10" y2="0" stroke="#ffe66d" stroke-width="2" stroke-linecap="round" />
  <line x1="0" y1="-10" x2="0" y2="10" stroke="#ffe66d" stroke-width="2" stroke-linecap="round" />
</g>
  <g transform="translate(220, 220) rotate(360) scale(1.25)">
  <circle cx="0" cy="0" r="12" fill="#ff6b6b" opacity="0.7" />
  <line x1="-10" y1="0" x2="10" y2="0" stroke="#ffe66d" stroke-width="2" stroke-linecap="round" />
  <line x1="0" y1="-10" x2="0" y2="10" stroke="#ffe66d" stroke-width="2" stroke-linecap="round" />
</g>
</svg>