<?xml version="1.0" encoding="UTF-8"?>
<svg xmlns="http://www.w3.org/2000/svg" width="400" height="100" viewBox="0 0 400 100">
  <rect width="100%" height="100%" fill="#1a1a2e" />
  <polygon points="25,7.5 40.1554,33.75 9.84456,33.75" fill="#ff6b6b" fill-opacity="0.8" stroke-opacity="0.8" />
  <rect x="0.15" y="0.15" width="49.7" height="49.7" fill="none" stroke="#3d3d5c" stroke-width="0.3" fill-opacity="0.3" stroke-opacity="0.3" />
  <polygon points="57.5,7.5 92.5,7.5 92.5,42.5 57.5,42.5" fill="#ff6b6b" fill-opacity="0.8" stroke-opacity="0.8" />
  <rect x="50.15" y="0.15" width="49.7" height="49.7" fill="none" stroke="#3d3d5c" stroke-width="0.3" fill-opacity="0.3" stroke-opacity="0.3" />
  <polygon points="125,7.5 142.5,25 125,42.5 107.5,25" fill="#ff6b6b" fill-opacity="0.8" stroke-opacity="0.8" />
  <rect x="100.15" y="0.15" width="49.7" height="49.7" fill="none" stroke="#3d3d5c" stroke-width="0.3" fill-opacity="0.3" stroke-opacity="0.3" />
  <polygon points="190.155,33.75 175,42.5 159.845,33.75 159.845,16.25 175,7.5 190.155,16.25" fill="#ff6b6b" fill-opacity="0.8" stroke-opacity="0.8" />
  <rect x="150.15" y="0.15" width="49.7" height="49.7" fill="none" stroke="#3d3d5c" stroke-width="0.3" fill-opacity="0.3" stroke-opacity="0.3" />
  <polygon points="225,7.5 229.114,19.3369 241.643,19.5922 231.657,27.1631 235.286,39.1578 225,32 214.714,39.1578 218.343,27.1631 208.357,19.5922 220.886,19.3369" fill="#ff6b6b" fill-opacity="0.8" stroke-opacity="0.8" />
  <rect x="200.15" y="0.15" width="49.7" height="49.7" fill="none" stroke="#3d3d5c" stroke-width="0.3" fill-opacity="0.3" stroke-opacity="0.3" />
  <polygon points="275,7.5 287.374,12.6256 292.5,25 287.374,37.3744 275,42.5 262.626,37.3744 257.5,25 262.626,12.6256" fill="#ff6b6b" fill-opacity="0.8" stroke-opacity="0.8" />
  <rect x="250.15" y="0.15" width="49.7" height="49.7" fill="none" stroke="#3d3d5c" stroke-width="0.3" fill-opacity="0.3" stroke-opacity="0.3" />
  <polygon points="342.5,25 342.331,32.7296 341.821,35.8257 340.957,38.0439 339.716,39.7157 338.044,40.9574 335.826,41.8208 332.73,42.3311 325,42.5 317.27,42.3311 314.174,41.8208 311.956,40.9574 310.284,39.7157 309.043,38.0439 308.179,35.8257 307.669,32.7296 307.5,25 307.669,17.2704 308.179,14.1743 309.043,11.9561 310.284,10.2843 311.956,9.04263 314.174,8.17924 317.27,7.66894 325,7.5 332.73,7.66894 335.826,8.17924 338.044,9.04263 339.716,10.2843 340.957,11.9561 341.821,14.1743 342.331,17.2704" fill="#ff6b6b" fill-opacity="0.8" stroke-opacity="0.8" />
  <rect x="300.15" y="0.15" width="49.7" height="49.7" fill="none" stroke="#3d3d5c" stroke-width="0.3" fill-opacity="0.3" stroke-opacity="0.3" />
  <polygon points="383.75,7.5 385.457,7.66813 387.098,8.16605 388.611,8.97464 389.937,10.0628 391.025,11.3888 391.834,12.9015 392.332,14.543 392.5,33.75 392.332,35.457 391.834,37.0985 391.025,38.6112 389.937,39.9372 388.611,41.0254 387.098,41.8339 385.457,42.3319 366.25,42.5 364.543,42.3319 362.902,41.8339 361.389,41.0254 360.063,39.9372 358.975,38.6112 358.166,37.0985 357.668,35.457 357.5,16.25 357.668,14.543 358.166,12.9015 358.975,11.3888 360.063,10.0628 361.389,8.97464 362.902,8.16605 364.543,7.66813" fill="#ff6b6b" fill-opacity="0.8" stroke-opacity="0.8" />
  <rect x="350.15" y="0.15" width="49.7" height="49.7" fill="none" stroke="#3d3d5c" stroke-width="0.3" fill-opacity="0.3" stroke-opacity="0.3" />
  <text x="25" y="75" font-size="10" font-family="sans-serif" font-style="normal" font-weight="normal" fill="#aaaacc" text-anchor="middle" dominant-baseline="middle">triangle</text>
  <text x="75" y="75" font-size="10" font-family="sans-serif" font-style="normal" font-weight="normal" fill="#aaaacc" text-anchor="middle" dominant-baseline="middle">square</text>
  <text x="125" y="75" font-size="10" font-family="sans-serif" font-style="normal" font-weight="normal" fill="#aaaacc" text-anchor="middle" dominant-baseline="middle">diamond</text>
  <text x="175" y="75" font-size="10" font-family="sans-serif" font-style="normal" font-weight="normal" fill="#aaaacc" text-anchor="middle" dominant-baseline="middle">hexagon</text>
  <text x="225" y="75" font-size="10" font-family="sans-serif" font-style="normal" font-weight="normal" fill="#aaaacc" text-anchor="middle" dominant-baseline="middle">star</text>
  <text x="275" y="75" font-size="10" font-family="sans-serif" font-style="normal" font-weight="normal" fill="#aaaacc" text-anchor="middle" dominant-baseline="middle">octagon</text>
  <text x="325" y="75" font-size="10" font-family="sans-serif" font-style="normal" font-weight="normal" fill="#aaaacc" text-anchor="middle" dominant-baseline="middle">squircle</text>
  <text x="375" y="75" font-size="10" font-family="sans-serif" font-style="normal" font-weight="normal" fill="#aaaacc" text-anchor="middle" dominant-baseline="middle">rounded</text>
</svg>