<?xml version="1.0" encoding="UTF-8"?>
<svg xmlns="http://www.w3.org/2000/svg" width="300" height="60" viewBox="0 0 300 60">
  <rect width="100%" height="100%" fill="#2d1b4e" />
  <g transform="translate(30.0, 30.0) scale(0.45)">
  <circle cx="0" cy="0" r="20.0" fill="#ff6b35" />
  <line x1="-15" y1="-15" x2="15" y2="15" stroke="#efa00b" stroke-width="2.0" stroke-linecap="round" />
  <line x1="-15" y1="15" x2="15" y2="-15" stroke="#efa00b" stroke-width="2.0" stroke-linecap="round" />
</g>
  <text x="30.0" y="60.0" font-size="10.0" font-family="sans-serif" font-style="normal" font-weight="normal" fill="#aaaacc" text-anchor="middle" dominant-baseline="middle">30%</text>
  <rect x="0" y="0" width="60.0" height="60.0" fill="none" stroke="#4a3a6e" stroke-width="0.5" fill-opacity="0.3" stroke-opacity="0.3" />
  <g transform="translate(90.0, 30.0) scale(0.75)">
  <circle cx="0" cy="0" r="20.0" fill="#ff6b35" />
  <line x1="-15" y1="-15" x2="15" y2="15" stroke="#efa00b" stroke-width="2.0" stroke-linecap="round" />
  <line x1="-15" y1="15" x2="15" y2="-15" stroke="#efa00b" stroke-width="2.0" stroke-linecap="round" />
</g>
  <text x="90.0" y="60.0" font-size="10.0" font-family="sans-serif" font-style="normal" font-weight="normal" fill="#aaaacc" text-anchor="middle" dominant-baseline="middle">50%</text>
  <rect x="60" y="0" width="60.0" height="60.0" fill="none" stroke="#4a3a6e" stroke-width="0.5" fill-opacity="0.3" stroke-opacity="0.3" />
  <g transform="translate(150.0, 30.0) scale(1.05)">
  <circle cx="0" cy="0" r="20.0" fill="#ff6b35" />
  <line x1="-15" y1="-15" x2="15" y2="15" stroke="#efa00b" stroke-width="2.0" stroke-linecap="round" />
  <line x1="-15" y1="15" x2="15" y2="-15" stroke="#efa00b" stroke-width="2.0" stroke-linecap="round" />
</g>
  <text x="150.0" y="60.0" font-size="10.0" font-family="sans-serif" font-style="normal" font-weight="normal" fill="#aaaacc" text-anchor="middle" dominant-baseline="middle">70%</text>
  <rect x="120" y="0" width="60.0" height="60.0" fill="none" stroke="#4a3a6e" stroke-width="0.5" fill-opacity="0.3" stroke-opacity="0.3" />
  <g transform="translate(210.0, 30.0) scale(1.35)">
  <circle cx="0" cy="0" r="20.0" fill="#ff6b35" />
  <line x1="-15" y1="-15" x2="15" y2="15" stroke="#efa00b" stroke-width="2.0" stroke-linecap="round" />
  <line x1="-15" y1="15" x2="15" y2="-15" stroke="#efa00b" stroke-width="2.0" stroke-linecap="round" />
</g>
  <text x="210.0" y="60.0" font-size="10.0" font-family="sans-serif" font-style="normal" font-weight="normal" fill="#aaaacc" text-anchor="middle" dominant-baseline="middle">90%</text>
  <rect x="180" y="0" width="60.0" height="60.0" fill="none" stroke="#4a3a6e" stroke-width="0.5" fill-opacity="0.3" stroke-opacity="0.3" />
  <g transform="translate(270.0, 30.0) scale(1.5)">
  <circle cx="0" cy="0" r="20.0" fill="#ff6b35" />
  <line x1="-15" y1="-15" x2="15" y2="15" stroke="#efa00b" stroke-width="2.0" stroke-linecap="round" />
  <line x1="-15" y1="15" x2="15" y2="-15" stroke="#efa00b" stroke-width="2.0" stroke-linecap="round" />
</g>
  <text x="270.0" y="60.0" font-size="10.0" font-family="sans-serif" font-style="normal" font-weight="normal" fill="#aaaacc" text-anchor="middle" dominant-baseline="middle">100%</text>
  <rect x="240" y="0" width="60.0" height="60.0" fill="none" stroke="#4a3a6e" stroke-width="0.5" fill-opacity="0.3" stroke-opacity="0.3" />
</svg>