<?xml version="1.0" encoding="UTF-8"?>
<svg xmlns="http://www.w3.org/2000/svg" width="240" height="240" viewBox="0 0 240 240">
  <rect width="100%" height="100%" fill="#1a1a2e" />
  <g transform="translate(20.0, 20.0) scale(1.25)">
  <circle cx="0" cy="0" r="12.0" fill="#ff6b6b" opacity="0.7" />
  <line x1="-10" y1="0" x2="10" y2="0" stroke="#ffe66d" stroke-width="2.0" stroke-linecap="round" />
  <line x1="0" y1="-10" x2="0" y2="10" stroke="#ffe66d" stroke-width="2.0" stroke-linecap="round" />
</g>
  <g transform="translate(60.0, 20.0) scale(1.25)">
  <circle cx="0" cy="0" r="12.0" fill="#ff6b6b" opacity="0.7" />
  <line x1="-10" y1="0" x2="10" y2="0" stroke="#ffe66d" stroke-width="2.0" stroke-linecap="round" />
  <line x1="0" y1="-10" x2="0" y2="10" stroke="#ffe66d" stroke-width="2.0" stroke-linecap="round" />
</g>
  <g transform="translate(100.0, 20.0) scale(1.25)">
  <circle cx="0" cy="0" r="12.0" fill="#ff6b6b" opacity="0.7" />
  <line x1="-10" y1="0" x2="10" y2="0" stroke="#ffe66d" stroke-width="2.0" stroke-linecap="round" />
  <line x1="0" y1="-10" x2="0" y2="10" stroke="#ffe66d" stroke-width="2.0" stroke-linecap="round" />
</g>
  <g transform="translate(140.0, 20.0) scale(1.25)">
  <circle cx="0" cy="0" r="12.0" fill="#ff6b6b" opacity="0.7" />
  <line x1="-10" y1="0" x2="10" y2="0" stroke="#ffe66d" stroke-width="2.0" stroke-linecap="round" />
  <line x1="0" y1="-10" x2="0" y2="10" stroke="#ffe66d" stroke-width="2.0" stroke-linecap="round" />
</g>
  <g transform="translate(180.0, 20.0) scale(1.25)">
  <circle cx="0" cy="0" r="12.0" fill="#ff6b6b" opacity="0.7" />
  <line x1="-10" y1="0" x2="10" y2="0" stroke="#ffe66d" stroke-width="2.0" stroke-linecap="round" />
  <line x1="0" y1="-10" x2="0" y2="10" stroke="#ffe66d" stroke-width="2.0" stroke-linecap="round" />
</g>
  <g transform="translate(220.0, 20.0) scale(1.25)">
  <circle cx="0" cy="0" r="12.0" fill="#ff6b6b" opacity="0.7" />
  <line x1="-10" y1="0" x2="10" y2="0" stroke="#ffe66d" stroke-width="2.0" stroke-linecap="round" />
  <line x1="0" y1="-10" x2="0" y2="10" stroke="#ffe66d" stroke-width="2.0" stroke-linecap="round" />
</g>
  <g transform="translate(20.0, 60.0) scale(1.25)">
  <circle cx="0" cy="0" r="12.0" fill="#ff6b6b" opacity="0.7" />
  <line x1="-10" y1="0" x2="10" y2="0" stroke="#ffe66d" stroke-width="2.0" stroke-linecap="round" />
  <line x1="0" y1="-10" x2="0" y2="10" stroke="#ffe66d" stroke-width="2.0" stroke-linecap="round" />
</g>
  <g transform="translate(60.0, 60.0) scale(1.25)">
  <circle cx="0" cy="0" r="12.0" fill="#ff6b6b" opacity="0.7" />
  <line x1="-10" y1="0" x2="10" y2="0" stroke="#ffe66d" stroke-width="2.0" stroke-linecap="round" />
  <line x1="0" y1="-10" x2="0" y2="10" stroke="#ffe66d" stroke-width="2.0" stroke-linecap="round" />
</g>
  <g transform="translate(100.0, 60.0) scale(1.25)">
  <circle cx="0" cy="0" r="12.0" fill="#ff6b6b" opacity="0.7" />
  <line x1="-10" y1="0" x2="10" y2="0" stroke="#ffe66d" stroke-width="2.0" stroke-linecap="round" />
  <line x1="0" y1="-10" x2="0" y2="10" stroke="#ffe66d" stroke-width="2.0" stroke-linecap="round" />
</g>
  <g transform="translate(140.0, 60.0) scale(1.25)">
  <circle cx="0" cy="0" r="12.0" fill="#ff6b6b" opacity="0.7" />
  <line x1="-10" y1="0" x2="10" y2="0" stroke="#ffe66d" stroke-width="2.0" stroke-linecap="round" />
  <line x1="0" y1="-10" x2="0" y2="10" stroke="#ffe66d" stroke-width="2.0" stroke-linecap="round" />
</g>
  <g transform="translate(180.0, 60.0) scale(1.25)">
  <circle cx="0" cy="0" r="12.0" fill="#ff6b6b" opacity="0.7" />
  <line x1="-10" y1="0" x2="10" y2="0" stroke="#ffe66d" stroke-width="2.0" stroke-linecap="round" />
  <line x1="0" y1="-10" x2="0" y2="10" stroke="#ffe66d" stroke-width="2.0" stroke-linecap="round" />
</g>
  <g transform="translate(220.0, 60.0) scale(1.25)">
  <circle cx="0" cy="0" r="12.0" fill="#ff6b6b" opacity="0.7" />
  <line x1="-10" y1="0" x2="10" y2="0" stroke="#ffe66d" stroke-width="2.0" stroke-linecap="round" />
  <line x1="0" y1="-10" x2="0" y2="10" stroke="#ffe66d" stroke-width="2.0" stroke-linecap="round" />
</g>
  <g transform="translate(20.0, 100.0) scale(1.25)">
  <circle cx="0" cy="0" r="12.0" fill="#ff6b6b" opacity="0.7" />
  <line x1="-10" y1="0" x2="10" y2="0" stroke="#ffe66d" stroke-width="2.0" stroke-linecap="round" />
  <line x1="0" y1="-10" x2="0" y2="10" stroke="#ffe66d" stroke-width="2.0" stroke-linecap="round" />
</g>
  <g transform="translate(60.0, 100.0) scale(1.25)">
  <circle cx="0" cy="0" r="12.0" fill="#ff6b6b" opacity="0.7" />
  <line x1="-10" y1="0" x2="10" y2="0" stroke="#ffe66d" stroke-width="2.0" stroke-linecap="round" />
  <line x1="0" y1="-10" x2="0" y2="10" stroke="#ffe66d" stroke-width="2.0" stroke-linecap="round" />
</g>
  <g transform="translate(100.0, 100.0) scale(1.25)">
  <circle cx="0" cy="0" r="12.0" fill="#ff6b6b" opacity="0.7" />
  <line x1="-10" y1="0" x2="10" y2="0" stroke="#ffe66d" stroke-width="2.0" stroke-linecap="round" />
  <line x1="0" y1="-10" x2="0" y2="10" stroke="#ffe66d" stroke-width="2.0" stroke-linecap="round" />
</g>
  <g transform="translate(140.0, 100.0) scale(1.25)">
  <circle cx="0" cy="0" r="12.0" fill="#ff6b6b" opacity="0.7" />
  <line x1="-10" y1="0" x2="10" y2="0" stroke="#ffe66d" stroke-width="2.0" stroke-linecap="round" />
  <line x1="0" y1="-10" x2="0" y2="10" stroke="#ffe66d" stroke-width="2.0" stroke-linecap="round" />
</g>
  <g transform="translate(180.0, 100.0) scale(1.25)">
  <circle cx="0" cy="0" r="12.0" fill="#ff6b6b" opacity="0.7" />
  <line x1="-10" y1="0" x2="10" y2="0" stroke="#ffe66d" stroke-width="2.0" stroke-linecap="round" />
  <line x1="0" y1="-10" x2="0" y2="10" stroke="#ffe66d" stroke-width="2.0" stroke-linecap="round" />
</g>
  <g transform="translate(220.0, 100.0) scale(1.25)">
  <circle cx="0" cy="0" r="12.0" fill="#ff6b6b" opacity="0.7" />
  <line x1="-10" y1="0" x2="10" y2="0" stroke="#ffe66d" stroke-width="2.0" stroke-linecap="round" />
  <line x1="0" y1="-10" x2="0" y2="10" stroke="#ffe66d" stroke-width="2.0" stroke-linecap="round" />
</g>
  <g transform="translate(20.0, 140.0) scale(1.25)">
  <circle cx="0" cy="0" r="12.0" fill="#ff6b6b" opacity="0.7" />
  <line x1="-10" y1="0" x2="10" y2="0" stroke="#ffe66d" stroke-width="2.0" stroke-linecap="round" />
  <line x1="0" y1="-10" x2="0" y2="10" stroke="#ffe66d" stroke-width="2.0" stroke-linecap="round" />
</g>
  <g transform="translate(60.0, 140.0) scale(1.25)">
  <circle cx="0" cy="0" r="12.0" fill="#ff6b6b" opacity="0.7" />
  <line x1="-10" y1="0" x2="10" y2="0" stroke="#ffe66d" stroke-width="2.0" stroke-linecap="round" />
  <line x1="0" y1="-10" x2="0" y2="10" stroke="#ffe66d" stroke-width="2.0" stroke-linecap="round" />
</g>
  <g transform="translate(100.0, 140.0) scale(1.25)">
  <circle cx="0" cy="0" r="12.0" fill="#ff6b6b" opacity="0.7" />
  <line x1="-10" y1="0" x2="10" y2="0" stroke="#ffe66d" stroke-width="2.0" stroke-linecap="round" />
  <line x1="0" y1="-10" x2="0" y2="10" stroke="#ffe66d" stroke-width="2.0" stroke-linecap="round" />
</g>
  <g transform="translate(140.0, 140.0) scale(1.25)">
  <circle cx="0" cy="0" r="12.0" fill="#ff6b6b" opacity="0.7" />
  <line x1="-10" y1="0" x2="10" y2="0" stroke="#ffe66d" stroke-width="2.0" stroke-linecap="round" />
  <line x1="0" y1="-10" x2="0" y2="10" stroke="#ffe66d" stroke-width="2.0" stroke-linecap="round" />
</g>
  <g transform="translate(180.0, 140.0) scale(1.25)">
  <circle cx="0" cy="0" r="12.0" fill="#ff6b6b" opacity="0.7" />
  <line x1="-10" y1="0" x2="10" y2="0" stroke="#ffe66d" stroke-width="2.0" stroke-linecap="round" />
  <line x1="0" y1="-10" x2="0" y2="10" stroke="#ffe66d" stroke-width="2.0" stroke-linecap="round" />
</g>
  <g transform="translate(220.0, 140.0) scale(1.25)">
  <circle cx="0" cy="0" r="12.0" fill="#ff6b6b" opacity="0.7" />
  <line x1="-10" y1="0" x2="10" y2="0" stroke="#ffe66d" stroke-width="2.0" stroke-linecap="round" />
  <line x1="0" y1="-10" x2="0" y2="10" stroke="#ffe66d" stroke-width="2.0" stroke-linecap="round" />
</g>
  <g transform="translate(20.0, 180.0) scale(1.25)">
  <circle cx="0" cy="0" r="12.0" fill="#ff6b6b" opacity="0.7" />
  <line x1="-10" y1="0" x2="10" y2="0" stroke="#ffe66d" stroke-width="2.0" stroke-linecap="round" />
  <line x1="0" y1="-10" x2="0" y2="10" stroke="#ffe66d" stroke-width="2.0" stroke-linecap="round" />
</g>
  <g transform="translate(60.0, 180.0) scale(1.25)">
  <circle cx="0" cy="0" r="12.0" fill="#ff6b6b" opacity="0.7" />
  <line x1="-10" y1="0" x2="10" y2="0" stroke="#ffe66d" stroke-width="2.0" stroke-linecap="round" />
  <line x1="0" y1="-10" x2="0" y2="10" stroke="#ffe66d" stroke-width="2.0" stroke-linecap="round" />
</g>
  <g transform="translate(100.0, 180.0) scale(1.25)">
  <circle cx="0" cy="0" r="12.0" fill="#ff6b6b" opacity="0.7" />
  <line x1="-10" y1="0" x2="10" y2="0" stroke="#ffe66d" stroke-width="2.0" stroke-linecap="round" />
  <line x1="0" y1="-10" x2="0" y2="10" stroke="#ffe66d" stroke-width="2.0" stroke-linecap="round" />
</g>
  <g transform="translate(140.0, 180.0) scale(1.25)">
  <circle cx="0" cy="0" r="12.0" fill="#ff6b6b" opacity="0.7" />
  <line x1="-10" y1="0" x2="10" y2="0" stroke="#ffe66d" stroke-width="2.0" stroke-linecap="round" />
  <line x1="0" y1="-10" x2="0" y2="10" stroke="#ffe66d" stroke-width="2.0" stroke-linecap="round" />
</g>
  <g transform="translate(180.0, 180.0) scale(1.25)">
  <circle cx="0" cy="0" r="12.0" fill="#ff6b6b" opacity="0.7" />
  <line x1="-10" y1="0" x2="10" y2="0" stroke="#ffe66d" stroke-width="2.0" stroke-linecap="round" />
  <line x1="0" y1="-10" x2="0" y2="10" stroke="#ffe66d" stroke-width="2.0" stroke-linecap="round" />
</g>
  <g transform="translate(220.0, 180.0) scale(1.25)">
  <circle cx="0" cy="0" r="12.0" fill="#ff6b6b" opacity="0.7" />
  <line x1="-10" y1="0" x2="10" y2="0" stroke="#ffe66d" stroke-width="2.0" stroke-linecap="round" />
  <line x1="0" y1="-10" x2="0" y2="10" stroke="#ffe66d" stroke-width="2.0" stroke-linecap="round" />
</g>
  <g transform="translate(20.0, 220.0) scale(1.25)">
  <circle cx="0" cy="0" r="12.0" fill="#ff6b6b" opacity="0.7" />
  <line x1="-10" y1="0" x2="10" y2="0" stroke="#ffe66d" stroke-width="2.0" stroke-linecap="round" />
  <line x1="0" y1="-10" x2="0" y2="10" stroke="#ffe66d" stroke-width="2.0" stroke-linecap="round" />
</g>
  <g transform="translate(60.0, 220.0) scale(1.25)">
  <circle cx="0" cy="0" r="12.0" fill="#ff6b6b" opacity="0.7" />
  <line x1="-10" y1="0" x2="10" y2="0" stroke="#ffe66d" stroke-width="2.0" stroke-linecap="round" />
  <line x1="0" y1="-10" x2="0" y2="10" stroke="#ffe66d" stroke-width="2.0" stroke-linecap="round" />
</g>
  <g transform="translate(100.0, 220.0) scale(1.25)">
  <circle cx="0" cy="0" r="12.0" fill="#ff6b6b" opacity="0.7" />
  <line x1="-10" y1="0" x2="10" y2="0" stroke="#ffe66d" stroke-width="2.0" stroke-linecap="round" />
  <line x1="0" y1="-10" x2="0" y2="10" stroke="#ffe66d" stroke-width="2.0" stroke-linecap="round" />
</g>
  <g transform="translate(140.0, 220.0) scale(1.25)">
  <circle cx="0" cy="0" r="12.0" fill="#ff6b6b" opacity="0.7" />
  <line x1="-10" y1="0" x2="10" y2="0" stroke="#ffe66d" stroke-width="2.0" stroke-linecap="round" />
  <line x1="0" y1="-10" x2="0" y2="10" stroke="#ffe66d" stroke-width="2.0" stroke-linecap="round" />
</g>
  <g transform="translate(180.0, 220.0) scale(1.25)">
  <circle cx="0" cy="0" r="12.0" fill="#ff6b6b" opacity="0.7" />
  <line x1="-10" y1="0" x2="10" y2="0" stroke="#ffe66d" stroke-width="2.0" stroke-linecap="round" />
  <line x1="0" y1="-10" x2="0" y2="10" stroke="#ffe66d" stroke-width="2.0" stroke-linecap="round" />
</g>
  <g transform="translate(220.0, 220.0) scale(1.25)">
  <circle cx="0" cy="0" r="12.0" fill="#ff6b6b" opacity="0.7" />
  <line x1="-10" y1="0" x2="10" y2="0" stroke="#ffe66d" stroke-width="2.0" stroke-linecap="round" />
  <line x1="0" y1="-10" x2="0" y2="10" stroke="#ffe66d" stroke-width="2.0" stroke-linecap="round" />
</g>
</svg>