<?xml version="1.0" encoding="UTF-8"?>
<svg xmlns="http://www.w3.org/2000/svg" width="280" height="280" viewBox="0 0 280 280">
  <rect width="100%" height="100%" fill="#0a1628" />
  <polygon points="17.3612,14.25 10,18.5 2.63878,14.25 2.63878,5.75 10,1.5 17.3612,5.75" fill="#00d9ff" stroke="#0077b6" stroke-width="0.5" fill-opacity="0.2" stroke-opacity="0.2" />
  <polygon points="37.3612,14.25 30,18.5 22.6388,14.25 22.6388,5.75 30,1.5 37.3612,5.75" fill="#00d9ff" stroke="#0077b6" stroke-width="0.5" fill-opacity="0.223077" stroke-opacity="0.223077" />
  <polygon points="57.3612,14.25 50,18.5 42.6388,14.25 42.6388,5.75 50,1.5 57.3612,5.75" fill="#00d9ff" stroke="#0077b6" stroke-width="0.5" fill-opacity="0.246154" stroke-opacity="0.246154" />
  <polygon points="77.3612,14.25 70,18.5 62.6388,14.25 62.6388,5.75 70,1.5 77.3612,5.75" fill="#00d9ff" stroke="#0077b6" stroke-width="0.5" fill-opacity="0.269231" stroke-opacity="0.269231" />
  <polygon points="97.3612,14.25 90,18.5 82.6388,14.25 82.6388,5.75 90,1.5 97.3612,5.75" fill="#00d9ff" stroke="#0077b6" stroke-width="0.5" fill-opacity="0.292308" stroke-opacity="0.292308" />
  <polygon points="117.361,14.25 110,18.5 102.639,14.25 102.639,5.75 110,1.5 117.361,5.75" fill="#00d9ff" stroke="#0077b6" stroke-width="0.5" fill-opacity="0.315385" stroke-opacity="0.315385" />
  <polygon points="137.361,14.25 130,18.5 122.639,14.25 122.639,5.75 130,1.5 137.361,5.75" fill="#00d9ff" stroke="#0077b6" stroke-width="0.5" fill-opacity="0.338462" stroke-opacity="0.338462" />
  <polygon points="157.361,14.25 150,18.5 142.639,14.25 142.639,5.75 150,1.5 157.361,5.75" fill="#00d9ff" stroke="#0077b6" stroke-width="0.5" fill-opacity="0.361538" stroke-opacity="0.361538" />
  <polygon points="177.361,14.25 170,18.5 162.639,14.25 162.639,5.75 170,1.5 177.361,5.75" fill="#00d9ff" stroke="#0077b6" stroke-width="0.5" fill-opacity="0.384615" stroke-opacity="0.384615" />
  <polygon points="197.361,14.25 190,18.5 182.639,14.25 182.639,5.75 190,1.5 197.361,5.75" fill="#00d9ff" stroke="#0077b6" stroke-width="0.5" fill-opacity="0.407692" stroke-opacity="0.407692" />
  <polygon points="217.361,14.25 210,18.5 202.639,14.25 202.639,5.75 210,1.5 217.361,5.75" fill="#00d9ff" stroke="#0077b6" stroke-width="0.5" fill-opacity="0.430769" stroke-opacity="0.430769" />
  <polygon points="237.361,14.25 230,18.5 222.639,14.25 222.639,5.75 230,1.5 237.361,5.75" fill="#00d9ff" stroke="#0077b6" stroke-width="0.5" fill-opacity="0.453846" stroke-opacity="0.453846" />
  <polygon points="257.361,14.25 250,18.5 242.639,14.25 242.639,5.75 250,1.5 257.361,5.75" fill="#00d9ff" stroke="#0077b6" stroke-width="0.5" fill-opacity="0.476923" stroke-opacity="0.476923" />
  <polygon points="277.361,14.25 270,18.5 262.639,14.25 262.639,5.75 270,1.5 277.361,5.75" fill="#00d9ff" stroke="#0077b6" stroke-width="0.5" fill-opacity="0.5" stroke-opacity="0.5" />
  <polygon points="17.3612,34.25 10,38.5 2.63878,34.25 2.63878,25.75 10,21.5 17.3612,25.75" fill="#00d9ff" stroke="#0077b6" stroke-width="0.5" fill-opacity="0.223077" stroke-opacity="0.223077" />
  <polygon points="37.3612,34.25 30,38.5 22.6388,34.25 22.6388,25.75 30,21.5 37.3612,25.75" fill="#00d9ff" stroke="#0077b6" stroke-width="0.5" fill-opacity="0.246154" stroke-opacity="0.246154" />
  <polygon points="57.3612,34.25 50,38.5 42.6388,34.25 42.6388,25.75 50,21.5 57.3612,25.75" fill="#00d9ff" stroke="#0077b6" stroke-width="0.5" fill-opacity="0.269231" stroke-opacity="0.269231" />
  <polygon points="77.3612,34.25 70,38.5 62.6388,34.25 62.6388,25.75 70,21.5 77.3612,25.75" fill="#00d9ff" stroke="#0077b6" stroke-width="0.5" fill-opacity="0.292308" stroke-opacity="0.292308" />
  <polygon points="97.3612,34.25 90,38.5 82.6388,34.25 82.6388,25.75 90,21.5 97.3612,25.75" fill="#00d9ff" stroke="#0077b6" stroke-width="0.5" fill-opacity="0.315385" stroke-opacity="0.315385" />
  <polygon points="117.361,34.25 110,38.5 102.639,34.25 102.639,25.75 110,21.5 117.361,25.75" fill="#00d9ff" stroke="#0077b6" stroke-width="0.5" fill-opacity="0.338462" stroke-opacity="0.338462" />
  <polygon points="137.361,34.25 130,38.5 122.639,34.25 122.639,25.75 130,21.5 137.361,25.75" fill="#00d9ff" stroke="#0077b6" stroke-width="0.5" fill-opacity="0.361538" stroke-opacity="0.361538" />
  <polygon points="157.361,34.25 150,38.5 142.639,34.25 142.639,25.75 150,21.5 157.361,25.75" fill="#00d9ff" stroke="#0077b6" stroke-width="0.5" fill-opacity="0.384615" stroke-opacity="0.384615" />
  <polygon points="177.361,34.25 170,38.5 162.639,34.25 162.639,25.75 170,21.5 177.361,25.75" fill="#00d9ff" stroke="#0077b6" stroke-width="0.5" fill-opacity="0.407692" stroke-opacity="0.407692" />
  <polygon points="197.361,34.25 190,38.5 182.639,34.25 182.639,25.75 190,21.5 197.361,25.75" fill="#00d9ff" stroke="#0077b6" stroke-width="0.5" fill-opacity="0.430769" stroke-opacity="0.430769" />
  <polygon points="217.361,34.25 210,38.5 202.639,34.25 202.639,25.75 210,21.5 217.361,25.75" fill="#00d9ff" stroke="#0077b6" stroke-width="0.5" fill-opacity="0.453846" stroke-opacity="0.453846" />
  <polygon points="237.361,34.25 230,38.5 222.639,34.25 222.639,25.75 230,21.5 237.361,25.75" fill="#00d9ff" stroke="#0077b6" stroke-width="0.5" fill-opacity="0.476923" stroke-opacity="0.476923" />
  <polygon points="257.361,34.25 250,38.5 242.639,34.25 242.639,25.75 250,21.5 257.361,25.75" fill="#00d9ff" stroke="#0077b6" stroke-width="0.5" fill-opacity="0.5" stroke-opacity="0.5" />
  <polygon points="277.361,34.25 270,38.5 262.639,34.25 262.639,25.75 270,21.5 277.361,25.75" fill="#00d9ff" stroke="#0077b6" stroke-width="0.5" fill-opacity="0.523077" stroke-opacity="0.523077" />
  <polygon points="17.3612,54.25 10,58.5 2.63878,54.25 2.63878,45.75 10,41.5 17.3612,45.75" fill="#00d9ff" stroke="#0077b6" stroke-width="0.5" fill-opacity="0.246154" stroke-opacity="0.246154" />
  <polygon points="37.3612,54.25 30,58.5 22.6388,54.25 22.6388,45.75 30,41.5 37.3612,45.75" fill="#00d9ff" stroke="#0077b6" stroke-width="0.5" fill-opacity="0.269231" stroke-opacity="0.269231" />
  <polygon points="57.3612,54.25 50,58.5 42.6388,54.25 42.6388,45.75 50,41.5 57.3612,45.75" fill="#00d9ff" stroke="#0077b6" stroke-width="0.5" fill-opacity="0.292308" stroke-opacity="0.292308" />
  <polygon points="77.3612,54.25 70,58.5 62.6388,54.25 62.6388,45.75 70,41.5 77.3612,45.75" fill="#00d9ff" stroke="#0077b6" stroke-width="0.5" fill-opacity="0.315385" stroke-opacity="0.315385" />
  <polygon points="97.3612,54.25 90,58.5 82.6388,54.25 82.6388,45.75 90,41.5 97.3612,45.75" fill="#00d9ff" stroke="#0077b6" stroke-width="0.5" fill-opacity="0.338462" stroke-opacity="0.338462" />
  <polygon points="117.361,54.25 110,58.5 102.639,54.25 102.639,45.75 110,41.5 117.361,45.75" fill="#00d9ff" stroke="#0077b6" stroke-width="0.5" fill-opacity="0.361538" stroke-opacity="0.361538" />
  <polygon points="137.361,54.25 130,58.5 122.639,54.25 122.639,45.75 130,41.5 137.361,45.75" fill="#00d9ff" stroke="#0077b6" stroke-width="0.5" fill-opacity="0.384615" stroke-opacity="0.384615" />
  <polygon points="157.361,54.25 150,58.5 142.639,54.25 142.639,45.75 150,41.5 157.361,45.75" fill="#00d9ff" stroke="#0077b6" stroke-width="0.5" fill-opacity="0.407692" stroke-opacity="0.407692" />
  <polygon points="177.361,54.25 170,58.5 162.639,54.25 162.639,45.75 170,41.5 177.361,45.75" fill="#00d9ff" stroke="#0077b6" stroke-width="0.5" fill-opacity="0.430769" stroke-opacity="0.430769" />
  <polygon points="197.361,54.25 190,58.5 182.639,54.25 182.639,45.75 190,41.5 197.361,45.75" fill="#00d9ff" stroke="#0077b6" stroke-width="0.5" fill-opacity="0.453846" stroke-opacity="0.453846" />
  <polygon points="217.361,54.25 210,58.5 202.639,54.25 202.639,45.75 210,41.5 217.361,45.75" fill="#00d9ff" stroke="#0077b6" stroke-width="0.5" fill-opacity="0.476923" stroke-opacity="0.476923" />
  <polygon points="237.361,54.25 230,58.5 222.639,54.25 222.639,45.75 230,41.5 237.361,45.75" fill="#00d9ff" stroke="#0077b6" stroke-width="0.5" fill-opacity="0.5" stroke-opacity="0.5" />
  <polygon points="257.361,54.25 250,58.5 242.639,54.25 242.639,45.75 250,41.5 257.361,45.75" fill="#00d9ff" stroke="#0077b6" stroke-width="0.5" fill-opacity="0.523077" stroke-opacity="0.523077" />
  <polygon points="277.361,54.25 270,58.5 262.639,54.25 262.639,45.75 270,41.5 277.361,45.75" fill="#00d9ff" stroke="#0077b6" stroke-width="0.5" fill-opacity="0.546154" stroke-opacity="0.546154" />
  <polygon points="17.3612,74.25 10,78.5 2.63878,74.25 2.63878,65.75 10,61.5 17.3612,65.75" fill="#00d9ff" stroke="#0077b6" stroke-width="0.5" fill-opacity="0.269231" stroke-opacity="0.269231" />
  <polygon points="37.3612,74.25 30,78.5 22.6388,74.25 22.6388,65.75 30,61.5 37.3612,65.75" fill="#00d9ff" stroke="#0077b6" stroke-width="0.5" fill-opacity="0.292308" stroke-opacity="0.292308" />
  <polygon points="57.3612,74.25 50,78.5 42.6388,74.25 42.6388,65.75 50,61.5 57.3612,65.75" fill="#00d9ff" stroke="#0077b6" stroke-width="0.5" fill-opacity="0.315385" stroke-opacity="0.315385" />
  <polygon points="77.3612,74.25 70,78.5 62.6388,74.25 62.6388,65.75 70,61.5 77.3612,65.75" fill="#00d9ff" stroke="#0077b6" stroke-width="0.5" fill-opacity="0.338462" stroke-opacity="0.338462" />
  <polygon points="97.3612,74.25 90,78.5 82.6388,74.25 82.6388,65.75 90,61.5 97.3612,65.75" fill="#00d9ff" stroke="#0077b6" stroke-width="0.5" fill-opacity="0.361538" stroke-opacity="0.361538" />
  <polygon points="117.361,74.25 110,78.5 102.639,74.25 102.639,65.75 110,61.5 117.361,65.75" fill="#00d9ff" stroke="#0077b6" stroke-width="0.5" fill-opacity="0.384615" stroke-opacity="0.384615" />
  <polygon points="137.361,74.25 130,78.5 122.639,74.25 122.639,65.75 130,61.5 137.361,65.75" fill="#00d9ff" stroke="#0077b6" stroke-width="0.5" fill-opacity="0.407692" stroke-opacity="0.407692" />
  <polygon points="157.361,74.25 150,78.5 142.639,74.25 142.639,65.75 150,61.5 157.361,65.75" fill="#00d9ff" stroke="#0077b6" stroke-width="0.5" fill-opacity="0.430769" stroke-opacity="0.430769" />
  <polygon points="177.361,74.25 170,78.5 162.639,74.25 162.639,65.75 170,61.5 177.361,65.75" fill="#00d9ff" stroke="#0077b6" stroke-width="0.5" fill-opacity="0.453846" stroke-opacity="0.453846" />
  <polygon points="197.361,74.25 190,78.5 182.639,74.25 182.639,65.75 190,61.5 197.361,65.75" fill="#00d9ff" stroke="#0077b6" stroke-width="0.5" fill-opacity="0.476923" stroke-opacity="0.476923" />
  <polygon points="217.361,74.25 210,78.5 202.639,74.25 202.639,65.75 210,61.5 217.361,65.75" fill="#00d9ff" stroke="#0077b6" stroke-width="0.5" fill-opacity="0.5" stroke-opacity="0.5" />
  <polygon points="237.361,74.25 230,78.5 222.639,74.25 222.639,65.75 230,61.5 237.361,65.75" fill="#00d9ff" stroke="#0077b6" stroke-width="0.5" fill-opacity="0.523077" stroke-opacity="0.523077" />
  <polygon points="257.361,74.25 250,78.5 242.639,74.25 242.639,65.75 250,61.5 257.361,65.75" fill="#00d9ff" stroke="#0077b6" stroke-width="0.5" fill-opacity="0.546154" stroke-opacity="0.546154" />
  <polygon points="277.361,74.25 270,78.5 262.639,74.25 262.639,65.75 270,61.5 277.361,65.75" fill="#00d9ff" stroke="#0077b6" stroke-width="0.5" fill-opacity="0.569231" stroke-opacity="0.569231" />
  <polygon points="17.3612,94.25 10,98.5 2.63878,94.25 2.63878,85.75 10,81.5 17.3612,85.75" fill="#00d9ff" stroke="#0077b6" stroke-width="0.5" fill-opacity="0.292308" stroke-opacity="0.292308" />
  <polygon points="37.3612,94.25 30,98.5 22.6388,94.25 22.6388,85.75 30,81.5 37.3612,85.75" fill="#00d9ff" stroke="#0077b6" stroke-width="0.5" fill-opacity="0.315385" stroke-opacity="0.315385" />
  <polygon points="57.3612,94.25 50,98.5 42.6388,94.25 42.6388,85.75 50,81.5 57.3612,85.75" fill="#00d9ff" stroke="#0077b6" stroke-width="0.5" fill-opacity="0.338462" stroke-opacity="0.338462" />
  <polygon points="77.3612,94.25 70,98.5 62.6388,94.25 62.6388,85.75 70,81.5 77.3612,85.75" fill="#00d9ff" stroke="#0077b6" stroke-width="0.5" fill-opacity="0.361538" stroke-opacity="0.361538" />
  <polygon points="97.3612,94.25 90,98.5 82.6388,94.25 82.6388,85.75 90,81.5 97.3612,85.75" fill="#00d9ff" stroke="#0077b6" stroke-width="0.5" fill-opacity="0.384615" stroke-opacity="0.384615" />
  <polygon points="117.361,94.25 110,98.5 102.639,94.25 102.639,85.75 110,81.5 117.361,85.75" fill="#00d9ff" stroke="#0077b6" stroke-width="0.5" fill-opacity="0.407692" stroke-opacity="0.407692" />
  <polygon points="137.361,94.25 130,98.5 122.639,94.25 122.639,85.75 130,81.5 137.361,85.75" fill="#00d9ff" stroke="#0077b6" stroke-width="0.5" fill-opacity="0.430769" stroke-opacity="0.430769" />
  <polygon points="157.361,94.25 150,98.5 142.639,94.25 142.639,85.75 150,81.5 157.361,85.75" fill="#00d9ff" stroke="#0077b6" stroke-width="0.5" fill-opacity="0.453846" stroke-opacity="0.453846" />
  <polygon points="177.361,94.25 170,98.5 162.639,94.25 162.639,85.75 170,81.5 177.361,85.75" fill="#00d9ff" stroke="#0077b6" stroke-width="0.5" fill-opacity="0.476923" stroke-opacity="0.476923" />
  <polygon points="197.361,94.25 190,98.5 182.639,94.25 182.639,85.75 190,81.5 197.361,85.75" fill="#00d9ff" stroke="#0077b6" stroke-width="0.5" fill-opacity="0.5" stroke-opacity="0.5" />
  <polygon points="217.361,94.25 210,98.5 202.639,94.25 202.639,85.75 210,81.5 217.361,85.75" fill="#00d9ff" stroke="#0077b6" stroke-width="0.5" fill-opacity="0.523077" stroke-opacity="0.523077" />
  <polygon points="237.361,94.25 230,98.5 222.639,94.25 222.639,85.75 230,81.5 237.361,85.75" fill="#00d9ff" stroke="#0077b6" stroke-width="0.5" fill-opacity="0.546154" stroke-opacity="0.546154" />
  <polygon points="257.361,94.25 250,98.5 242.639,94.25 242.639,85.75 250,81.5 257.361,85.75" fill="#00d9ff" stroke="#0077b6" stroke-width="0.5" fill-opacity="0.569231" stroke-opacity="0.569231" />
  <polygon points="277.361,94.25 270,98.5 262.639,94.25 262.639,85.75 270,81.5 277.361,85.75" fill="#00d9ff" stroke="#0077b6" stroke-width="0.5" fill-opacity="0.592308" stroke-opacity="0.592308" />
  <polygon points="17.3612,114.25 10,118.5 2.63878,114.25 2.63878,105.75 10,101.5 17.3612,105.75" fill="#00d9ff" stroke="#0077b6" stroke-width="0.5" fill-opacity="0.315385" stroke-opacity="0.315385" />
  <polygon points="37.3612,114.25 30,118.5 22.6388,114.25 22.6388,105.75 30,101.5 37.3612,105.75" fill="#00d9ff" stroke="#0077b6" stroke-width="0.5" fill-opacity="0.338462" stroke-opacity="0.338462" />
  <polygon points="57.3612,114.25 50,118.5 42.6388,114.25 42.6388,105.75 50,101.5 57.3612,105.75" fill="#00d9ff" stroke="#0077b6" stroke-width="0.5" fill-opacity="0.361538" stroke-opacity="0.361538" />
  <polygon points="77.3612,114.25 70,118.5 62.6388,114.25 62.6388,105.75 70,101.5 77.3612,105.75" fill="#00d9ff" stroke="#0077b6" stroke-width="0.5" fill-opacity="0.384615" stroke-opacity="0.384615" />
  <polygon points="97.3612,114.25 90,118.5 82.6388,114.25 82.6388,105.75 90,101.5 97.3612,105.75" fill="#00d9ff" stroke="#0077b6" stroke-width="0.5" fill-opacity="0.407692" stroke-opacity="0.407692" />
  <polygon points="117.361,114.25 110,118.5 102.639,114.25 102.639,105.75 110,101.5 117.361,105.75" fill="#00d9ff" stroke="#0077b6" stroke-width="0.5" fill-opacity="0.430769" stroke-opacity="0.430769" />
  <polygon points="137.361,114.25 130,118.5 122.639,114.25 122.639,105.75 130,101.5 137.361,105.75" fill="#00d9ff" stroke="#0077b6" stroke-width="0.5" fill-opacity="0.453846" stroke-opacity="0.453846" />
  <polygon points="157.361,114.25 150,118.5 142.639,114.25 142.639,105.75 150,101.5 157.361,105.75" fill="#00d9ff" stroke="#0077b6" stroke-width="0.5" fill-opacity="0.476923" stroke-opacity="0.476923" />
  <polygon points="177.361,114.25 170,118.5 162.639,114.25 162.639,105.75 170,101.5 177.361,105.75" fill="#00d9ff" stroke="#0077b6" stroke-width="0.5" fill-opacity="0.5" stroke-opacity="0.5" />
  <polygon points="197.361,114.25 190,118.5 182.639,114.25 182.639,105.75 190,101.5 197.361,105.75" fill="#00d9ff" stroke="#0077b6" stroke-width="0.5" fill-opacity="0.523077" stroke-opacity="0.523077" />
  <polygon points="217.361,114.25 210,118.5 202.639,114.25 202.639,105.75 210,101.5 217.361,105.75" fill="#00d9ff" stroke="#0077b6" stroke-width="0.5" fill-opacity="0.546154" stroke-opacity="0.546154" />
  <polygon points="237.361,114.25 230,118.5 222.639,114.25 222.639,105.75 230,101.5 237.361,105.75" fill="#00d9ff" stroke="#0077b6" stroke-width="0.5" fill-opacity="0.569231" stroke-opacity="0.569231" />
  <polygon points="257.361,114.25 250,118.5 242.639,114.25 242.639,105.75 250,101.5 257.361,105.75" fill="#00d9ff" stroke="#0077b6" stroke-width="0.5" fill-opacity="0.592308" stroke-opacity="0.592308" />
  <polygon points="277.361,114.25 270,118.5 262.639,114.25 262.639,105.75 270,101.5 277.361,105.75" fill="#00d9ff" stroke="#0077b6" stroke-width="0.5" fill-opacity="0.615385" stroke-opacity="0.615385" />
  <polygon points="17.3612,134.25 10,138.5 2.63878,134.25 2.63878,125.75 10,121.5 17.3612,125.75" fill="#00d9ff" stroke="#0077b6" stroke-width="0.5" fill-opacity="0.338462" stroke-opacity="0.338462" />
  <polygon points="37.3612,134.25 30,138.5 22.6388,134.25 22.6388,125.75 30,121.5 37.3612,125.75" fill="#00d9ff" stroke="#0077b6" stroke-width="0.5" fill-opacity="0.361538" stroke-opacity="0.361538" />
  <polygon points="57.3612,134.25 50,138.5 42.6388,134.25 42.6388,125.75 50,121.5 57.3612,125.75" fill="#00d9ff" stroke="#0077b6" stroke-width="0.5" fill-opacity="0.384615" stroke-opacity="0.384615" />
  <polygon points="77.3612,134.25 70,138.5 62.6388,134.25 62.6388,125.75 70,121.5 77.3612,125.75" fill="#00d9ff" stroke="#0077b6" stroke-width="0.5" fill-opacity="0.407692" stroke-opacity="0.407692" />
  <polygon points="97.3612,134.25 90,138.5 82.6388,134.25 82.6388,125.75 90,121.5 97.3612,125.75" fill="#00d9ff" stroke="#0077b6" stroke-width="0.5" fill-opacity="0.430769" stroke-opacity="0.430769" />
  <polygon points="117.361,134.25 110,138.5 102.639,134.25 102.639,125.75 110,121.5 117.361,125.75" fill="#00d9ff" stroke="#0077b6" stroke-width="0.5" fill-opacity="0.453846" stroke-opacity="0.453846" />
  <polygon points="137.361,134.25 130,138.5 122.639,134.25 122.639,125.75 130,121.5 137.361,125.75" fill="#00d9ff" stroke="#0077b6" stroke-width="0.5" fill-opacity="0.476923" stroke-opacity="0.476923" />
  <polygon points="157.361,134.25 150,138.5 142.639,134.25 142.639,125.75 150,121.5 157.361,125.75" fill="#00d9ff" stroke="#0077b6" stroke-width="0.5" fill-opacity="0.5" stroke-opacity="0.5" />
  <polygon points="177.361,134.25 170,138.5 162.639,134.25 162.639,125.75 170,121.5 177.361,125.75" fill="#00d9ff" stroke="#0077b6" stroke-width="0.5" fill-opacity="0.523077" stroke-opacity="0.523077" />
  <polygon points="197.361,134.25 190,138.5 182.639,134.25 182.639,125.75 190,121.5 197.361,125.75" fill="#00d9ff" stroke="#0077b6" stroke-width="0.5" fill-opacity="0.546154" stroke-opacity="0.546154" />
  <polygon points="217.361,134.25 210,138.5 202.639,134.25 202.639,125.75 210,121.5 217.361,125.75" fill="#00d9ff" stroke="#0077b6" stroke-width="0.5" fill-opacity="0.569231" stroke-opacity="0.569231" />
  <polygon points="237.361,134.25 230,138.5 222.639,134.25 222.639,125.75 230,121.5 237.361,125.75" fill="#00d9ff" stroke="#0077b6" stroke-width="0.5" fill-opacity="0.592308" stroke-opacity="0.592308" />
  <polygon points="257.361,134.25 250,138.5 242.639,134.25 242.639,125.75 250,121.5 257.361,125.75" fill="#00d9ff" stroke="#0077b6" stroke-width="0.5" fill-opacity="0.615385" stroke-opacity="0.615385" />
  <polygon points="277.361,134.25 270,138.5 262.639,134.25 262.639,125.75 270,121.5 277.361,125.75" fill="#00d9ff" stroke="#0077b6" stroke-width="0.5" fill-opacity="0.638462" stroke-opacity="0.638462" />
  <polygon points="17.3612,154.25 10,158.5 2.63878,154.25 2.63878,145.75 10,141.5 17.3612,145.75" fill="#00d9ff" stroke="#0077b6" stroke-width="0.5" fill-opacity="0.361538" stroke-opacity="0.361538" />
  <polygon points="37.3612,154.25 30,158.5 22.6388,154.25 22.6388,145.75 30,141.5 37.3612,145.75" fill="#00d9ff" stroke="#0077b6" stroke-width="0.5" fill-opacity="0.384615" stroke-opacity="0.384615" />
  <polygon points="57.3612,154.25 50,158.5 42.6388,154.25 42.6388,145.75 50,141.5 57.3612,145.75" fill="#00d9ff" stroke="#0077b6" stroke-width="0.5" fill-opacity="0.407692" stroke-opacity="0.407692" />
  <polygon points="77.3612,154.25 70,158.5 62.6388,154.25 62.6388,145.75 70,141.5 77.3612,145.75" fill="#00d9ff" stroke="#0077b6" stroke-width="0.5" fill-opacity="0.430769" stroke-opacity="0.430769" />
  <polygon points="97.3612,154.25 90,158.5 82.6388,154.25 82.6388,145.75 90,141.5 97.3612,145.75" fill="#00d9ff" stroke="#0077b6" stroke-width="0.5" fill-opacity="0.453846" stroke-opacity="0.453846" />
  <polygon points="117.361,154.25 110,158.5 102.639,154.25 102.639,145.75 110,141.5 117.361,145.75" fill="#00d9ff" stroke="#0077b6" stroke-width="0.5" fill-opacity="0.476923" stroke-opacity="0.476923" />
  <polygon points="137.361,154.25 130,158.5 122.639,154.25 122.639,145.75 130,141.5 137.361,145.75" fill="#00d9ff" stroke="#0077b6" stroke-width="0.5" fill-opacity="0.5" stroke-opacity="0.5" />
  <polygon points="157.361,154.25 150,158.5 142.639,154.25 142.639,145.75 150,141.5 157.361,145.75" fill="#00d9ff" stroke="#0077b6" stroke-width="0.5" fill-opacity="0.523077" stroke-opacity="0.523077" />
  <polygon points="177.361,154.25 170,158.5 162.639,154.25 162.639,145.75 170,141.5 177.361,145.75" fill="#00d9ff" stroke="#0077b6" stroke-width="0.5" fill-opacity="0.546154" stroke-opacity="0.546154" />
  <polygon points="197.361,154.25 190,158.5 182.639,154.25 182.639,145.75 190,141.5 197.361,145.75" fill="#00d9ff" stroke="#0077b6" stroke-width="0.5" fill-opacity="0.569231" stroke-opacity="0.569231" />
  <polygon points="217.361,154.25 210,158.5 202.639,154.25 202.639,145.75 210,141.5 217.361,145.75" fill="#00d9ff" stroke="#0077b6" stroke-width="0.5" fill-opacity="0.592308" stroke-opacity="0.592308" />
  <polygon points="237.361,154.25 230,158.5 222.639,154.25 222.639,145.75 230,141.5 237.361,145.75" fill="#00d9ff" stroke="#0077b6" stroke-width="0.5" fill-opacity="0.615385" stroke-opacity="0.615385" />
  <polygon points="257.361,154.25 250,158.5 242.639,154.25 242.639,145.75 250,141.5 257.361,145.75" fill="#00d9ff" stroke="#0077b6" stroke-width="0.5" fill-opacity="0.638462" stroke-opacity="0.638462" />
  <polygon points="277.361,154.25 270,158.5 262.639,154.25 262.639,145.75 270,141.5 277.361,145.75" fill="#00d9ff" stroke="#0077b6" stroke-width="0.5" fill-opacity="0.661538" stroke-opacity="0.661538" />
  <polygon points="17.3612,174.25 10,178.5 2.63878,174.25 2.63878,165.75 10,161.5 17.3612,165.75" fill="#00d9ff" stroke="#0077b6" stroke-width="0.5" fill-opacity="0.384615" stroke-opacity="0.384615" />
  <polygon points="37.3612,174.25 30,178.5 22.6388,174.25 22.6388,165.75 30,161.5 37.3612,165.75" fill="#00d9ff" stroke="#0077b6" stroke-width="0.5" fill-opacity="0.407692" stroke-opacity="0.407692" />
  <polygon points="57.3612,174.25 50,178.5 42.6388,174.25 42.6388,165.75 50,161.5 57.3612,165.75" fill="#00d9ff" stroke="#0077b6" stroke-width="0.5" fill-opacity="0.430769" stroke-opacity="0.430769" />
  <polygon points="77.3612,174.25 70,178.5 62.6388,174.25 62.6388,165.75 70,161.5 77.3612,165.75" fill="#00d9ff" stroke="#0077b6" stroke-width="0.5" fill-opacity="0.453846" stroke-opacity="0.453846" />
  <polygon points="97.3612,174.25 90,178.5 82.6388,174.25 82.6388,165.75 90,161.5 97.3612,165.75" fill="#00d9ff" stroke="#0077b6" stroke-width="0.5" fill-opacity="0.476923" stroke-opacity="0.476923" />
  <polygon points="117.361,174.25 110,178.5 102.639,174.25 102.639,165.75 110,161.5 117.361,165.75" fill="#00d9ff" stroke="#0077b6" stroke-width="0.5" fill-opacity="0.5" stroke-opacity="0.5" />
  <polygon points="137.361,174.25 130,178.5 122.639,174.25 122.639,165.75 130,161.5 137.361,165.75" fill="#00d9ff" stroke="#0077b6" stroke-width="0.5" fill-opacity="0.523077" stroke-opacity="0.523077" />
  <polygon points="157.361,174.25 150,178.5 142.639,174.25 142.639,165.75 150,161.5 157.361,165.75" fill="#00d9ff" stroke="#0077b6" stroke-width="0.5" fill-opacity="0.546154" stroke-opacity="0.546154" />
  <polygon points="177.361,174.25 170,178.5 162.639,174.25 162.639,165.75 170,161.5 177.361,165.75" fill="#00d9ff" stroke="#0077b6" stroke-width="0.5" fill-opacity="0.569231" stroke-opacity="0.569231" />
  <polygon points="197.361,174.25 190,178.5 182.639,174.25 182.639,165.75 190,161.5 197.361,165.75" fill="#00d9ff" stroke="#0077b6" stroke-width="0.5" fill-opacity="0.592308" stroke-opacity="0.592308" />
  <polygon points="217.361,174.25 210,178.5 202.639,174.25 202.639,165.75 210,161.5 217.361,165.75" fill="#00d9ff" stroke="#0077b6" stroke-width="0.5" fill-opacity="0.615385" stroke-opacity="0.615385" />
  <polygon points="237.361,174.25 230,178.5 222.639,174.25 222.639,165.75 230,161.5 237.361,165.75" fill="#00d9ff" stroke="#0077b6" stroke-width="0.5" fill-opacity="0.638462" stroke-opacity="0.638462" />
  <polygon points="257.361,174.25 250,178.5 242.639,174.25 242.639,165.75 250,161.5 257.361,165.75" fill="#00d9ff" stroke="#0077b6" stroke-width="0.5" fill-opacity="0.661538" stroke-opacity="0.661538" />
  <polygon points="277.361,174.25 270,178.5 262.639,174.25 262.639,165.75 270,161.5 277.361,165.75" fill="#00d9ff" stroke="#0077b6" stroke-width="0.5" fill-opacity="0.684615" stroke-opacity="0.684615" />
  <polygon points="17.3612,194.25 10,198.5 2.63878,194.25 2.63878,185.75 10,181.5 17.3612,185.75" fill="#00d9ff" stroke="#0077b6" stroke-width="0.5" fill-opacity="0.407692" stroke-opacity="0.407692" />
  <polygon points="37.3612,194.25 30,198.5 22.6388,194.25 22.6388,185.75 30,181.5 37.3612,185.75" fill="#00d9ff" stroke="#0077b6" stroke-width="0.5" fill-opacity="0.430769" stroke-opacity="0.430769" />
  <polygon points="57.3612,194.25 50,198.5 42.6388,194.25 42.6388,185.75 50,181.5 57.3612,185.75" fill="#00d9ff" stroke="#0077b6" stroke-width="0.5" fill-opacity="0.453846" stroke-opacity="0.453846" />
  <polygon points="77.3612,194.25 70,198.5 62.6388,194.25 62.6388,185.75 70,181.5 77.3612,185.75" fill="#00d9ff" stroke="#0077b6" stroke-width="0.5" fill-opacity="0.476923" stroke-opacity="0.476923" />
  <polygon points="97.3612,194.25 90,198.5 82.6388,194.25 82.6388,185.75 90,181.5 97.3612,185.75" fill="#00d9ff" stroke="#0077b6" stroke-width="0.5" fill-opacity="0.5" stroke-opacity="0.5" />
  <polygon points="117.361,194.25 110,198.5 102.639,194.25 102.639,185.75 110,181.5 117.361,185.75" fill="#00d9ff" stroke="#0077b6" stroke-width="0.5" fill-opacity="0.523077" stroke-opacity="0.523077" />
  <polygon points="137.361,194.25 130,198.5 122.639,194.25 122.639,185.75 130,181.5 137.361,185.75" fill="#00d9ff" stroke="#0077b6" stroke-width="0.5" fill-opacity="0.546154" stroke-opacity="0.546154" />
  <polygon points="157.361,194.25 150,198.5 142.639,194.25 142.639,185.75 150,181.5 157.361,185.75" fill="#00d9ff" stroke="#0077b6" stroke-width="0.5" fill-opacity="0.569231" stroke-opacity="0.569231" />
  <polygon points="177.361,194.25 170,198.5 162.639,194.25 162.639,185.75 170,181.5 177.361,185.75" fill="#00d9ff" stroke="#0077b6" stroke-width="0.5" fill-opacity="0.592308" stroke-opacity="0.592308" />
  <polygon points="197.361,194.25 190,198.5 182.639,194.25 182.639,185.75 190,181.5 197.361,185.75" fill="#00d9ff" stroke="#0077b6" stroke-width="0.5" fill-opacity="0.615385" stroke-opacity="0.615385" />
  <polygon points="217.361,194.25 210,198.5 202.639,194.25 202.639,185.75 210,181.5 217.361,185.75" fill="#00d9ff" stroke="#0077b6" stroke-width="0.5" fill-opacity="0.638462" stroke-opacity="0.638462" />
  <polygon points="237.361,194.25 230,198.5 222.639,194.25 222.639,185.75 230,181.5 237.361,185.75" fill="#00d9ff" stroke="#0077b6" stroke-width="0.5" fill-opacity="0.661538" stroke-opacity="0.661538" />
  <polygon points="257.361,194.25 250,198.5 242.639,194.25 242.639,185.75 250,181.5 257.361,185.75" fill="#00d9ff" stroke="#0077b6" stroke-width="0.5" fill-opacity="0.684615" stroke-opacity="0.684615" />
  <polygon points="277.361,194.25 270,198.5 262.639,194.25 262.639,185.75 270,181.5 277.361,185.75" fill="#00d9ff" stroke="#0077b6" stroke-width="0.5" fill-opacity="0.707692" stroke-opacity="0.707692" />
  <polygon points="17.3612,214.25 10,218.5 2.63878,214.25 2.63878,205.75 10,201.5 17.3612,205.75" fill="#00d9ff" stroke="#0077b6" stroke-width="0.5" fill-opacity="0.430769" stroke-opacity="0.430769" />
  <polygon points="37.3612,214.25 30,218.5 22.6388,214.25 22.6388,205.75 30,201.5 37.3612,205.75" fill="#00d9ff" stroke="#0077b6" stroke-width="0.5" fill-opacity="0.453846" stroke-opacity="0.453846" />
  <polygon points="57.3612,214.25 50,218.5 42.6388,214.25 42.6388,205.75 50,201.5 57.3612,205.75" fill="#00d9ff" stroke="#0077b6" stroke-width="0.5" fill-opacity="0.476923" stroke-opacity="0.476923" />
  <polygon points="77.3612,214.25 70,218.5 62.6388,214.25 62.6388,205.75 70,201.5 77.3612,205.75" fill="#00d9ff" stroke="#0077b6" stroke-width="0.5" fill-opacity="0.5" stroke-opacity="0.5" />
  <polygon points="97.3612,214.25 90,218.5 82.6388,214.25 82.6388,205.75 90,201.5 97.3612,205.75" fill="#00d9ff" stroke="#0077b6" stroke-width="0.5" fill-opacity="0.523077" stroke-opacity="0.523077" />
  <polygon points="117.361,214.25 110,218.5 102.639,214.25 102.639,205.75 110,201.5 117.361,205.75" fill="#00d9ff" stroke="#0077b6" stroke-width="0.5" fill-opacity="0.546154" stroke-opacity="0.546154" />
  <polygon points="137.361,214.25 130,218.5 122.639,214.25 122.639,205.75 130,201.5 137.361,205.75" fill="#00d9ff" stroke="#0077b6" stroke-width="0.5" fill-opacity="0.569231" stroke-opacity="0.569231" />
  <polygon points="157.361,214.25 150,218.5 142.639,214.25 142.639,205.75 150,201.5 157.361,205.75" fill="#00d9ff" stroke="#0077b6" stroke-width="0.5" fill-opacity="0.592308" stroke-opacity="0.592308" />
  <polygon points="177.361,214.25 170,218.5 162.639,214.25 162.639,205.75 170,201.5 177.361,205.75" fill="#00d9ff" stroke="#0077b6" stroke-width="0.5" fill-opacity="0.615385" stroke-opacity="0.615385" />
  <polygon points="197.361,214.25 190,218.5 182.639,214.25 182.639,205.75 190,201.5 197.361,205.75" fill="#00d9ff" stroke="#0077b6" stroke-width="0.5" fill-opacity="0.638462" stroke-opacity="0.638462" />
  <polygon points="217.361,214.25 210,218.5 202.639,214.25 202.639,205.75 210,201.5 217.361,205.75" fill="#00d9ff" stroke="#0077b6" stroke-width="0.5" fill-opacity="0.661538" stroke-opacity="0.661538" />
  <polygon points="237.361,214.25 230,218.5 222.639,214.25 222.639,205.75 230,201.5 237.361,205.75" fill="#00d9ff" stroke="#0077b6" stroke-width="0.5" fill-opacity="0.684615" stroke-opacity="0.684615" />
  <polygon points="257.361,214.25 250,218.5 242.639,214.25 242.639,205.75 250,201.5 257.361,205.75" fill="#00d9ff" stroke="#0077b6" stroke-width="0.5" fill-opacity="0.707692" stroke-opacity="0.707692" />
  <polygon points="277.361,214.25 270,218.5 262.639,214.25 262.639,205.75 270,201.5 277.361,205.75" fill="#00d9ff" stroke="#0077b6" stroke-width="0.5" fill-opacity="0.730769" stroke-opacity="0.730769" />
  <polygon points="17.3612,234.25 10,238.5 2.63878,234.25 2.63878,225.75 10,221.5 17.3612,225.75" fill="#00d9ff" stroke="#0077b6" stroke-width="0.5" fill-opacity="0.453846" stroke-opacity="0.453846" />
  <polygon points="37.3612,234.25 30,238.5 22.6388,234.25 22.6388,225.75 30,221.5 37.3612,225.75" fill="#00d9ff" stroke="#0077b6" stroke-width="0.5" fill-opacity="0.476923" stroke-opacity="0.476923" />
  <polygon points="57.3612,234.25 50,238.5 42.6388,234.25 42.6388,225.75 50,221.5 57.3612,225.75" fill="#00d9ff" stroke="#0077b6" stroke-width="0.5" fill-opacity="0.5" stroke-opacity="0.5" />
  <polygon points="77.3612,234.25 70,238.5 62.6388,234.25 62.6388,225.75 70,221.5 77.3612,225.75" fill="#00d9ff" stroke="#0077b6" stroke-width="0.5" fill-opacity="0.523077" stroke-opacity="0.523077" />
  <polygon points="97.3612,234.25 90,238.5 82.6388,234.25 82.6388,225.75 90,221.5 97.3612,225.75" fill="#00d9ff" stroke="#0077b6" stroke-width="0.5" fill-opacity="0.546154" stroke-opacity="0.546154" />
  <polygon points="117.361,234.25 110,238.5 102.639,234.25 102.639,225.75 110,221.5 117.361,225.75" fill="#00d9ff" stroke="#0077b6" stroke-width="0.5" fill-opacity="0.569231" stroke-opacity="0.569231" />
  <polygon points="137.361,234.25 130,238.5 122.639,234.25 122.639,225.75 130,221.5 137.361,225.75" fill="#00d9ff" stroke="#0077b6" stroke-width="0.5" fill-opacity="0.592308" stroke-opacity="0.592308" />
  <polygon points="157.361,234.25 150,238.5 142.639,234.25 142.639,225.75 150,221.5 157.361,225.75" fill="#00d9ff" stroke="#0077b6" stroke-width="0.5" fill-opacity="0.615385" stroke-opacity="0.615385" />
  <polygon points="177.361,234.25 170,238.5 162.639,234.25 162.639,225.75 170,221.5 177.361,225.75" fill="#00d9ff" stroke="#0077b6" stroke-width="0.5" fill-opacity="0.638462" stroke-opacity="0.638462" />
  <polygon points="197.361,234.25 190,238.5 182.639,234.25 182.639,225.75 190,221.5 197.361,225.75" fill="#00d9ff" stroke="#0077b6" stroke-width="0.5" fill-opacity="0.661538" stroke-opacity="0.661538" />
  <polygon points="217.361,234.25 210,238.5 202.639,234.25 202.639,225.75 210,221.5 217.361,225.75" fill="#00d9ff" stroke="#0077b6" stroke-width="0.5" fill-opacity="0.684615" stroke-opacity="0.684615" />
  <polygon points="237.361,234.25 230,238.5 222.639,234.25 222.639,225.75 230,221.5 237.361,225.75" fill="#00d9ff" stroke="#0077b6" stroke-width="0.5" fill-opacity="0.707692" stroke-opacity="0.707692" />
  <polygon points="257.361,234.25 250,238.5 242.639,234.25 242.639,225.75 250,221.5 257.361,225.75" fill="#00d9ff" stroke="#0077b6" stroke-width="0.5" fill-opacity="0.730769" stroke-opacity="0.730769" />
  <polygon points="277.361,234.25 270,238.5 262.639,234.25 262.639,225.75 270,221.5 277.361,225.75" fill="#00d9ff" stroke="#0077b6" stroke-width="0.5" fill-opacity="0.753846" stroke-opacity="0.753846" />
  <polygon points="17.3612,254.25 10,258.5 2.63878,254.25 2.63878,245.75 10,241.5 17.3612,245.75" fill="#00d9ff" stroke="#0077b6" stroke-width="0.5" fill-opacity="0.476923" stroke-opacity="0.476923" />
  <polygon points="37.3612,254.25 30,258.5 22.6388,254.25 22.6388,245.75 30,241.5 37.3612,245.75" fill="#00d9ff" stroke="#0077b6" stroke-width="0.5" fill-opacity="0.5" stroke-opacity="0.5" />
  <polygon points="57.3612,254.25 50,258.5 42.6388,254.25 42.6388,245.75 50,241.5 57.3612,245.75" fill="#00d9ff" stroke="#0077b6" stroke-width="0.5" fill-opacity="0.523077" stroke-opacity="0.523077" />
  <polygon points="77.3612,254.25 70,258.5 62.6388,254.25 62.6388,245.75 70,241.5 77.3612,245.75" fill="#00d9ff" stroke="#0077b6" stroke-width="0.5" fill-opacity="0.546154" stroke-opacity="0.546154" />
  <polygon points="97.3612,254.25 90,258.5 82.6388,254.25 82.6388,245.75 90,241.5 97.3612,245.75" fill="#00d9ff" stroke="#0077b6" stroke-width="0.5" fill-opacity="0.569231" stroke-opacity="0.569231" />
  <polygon points="117.361,254.25 110,258.5 102.639,254.25 102.639,245.75 110,241.5 117.361,245.75" fill="#00d9ff" stroke="#0077b6" stroke-width="0.5" fill-opacity="0.592308" stroke-opacity="0.592308" />
  <polygon points="137.361,254.25 130,258.5 122.639,254.25 122.639,245.75 130,241.5 137.361,245.75" fill="#00d9ff" stroke="#0077b6" stroke-width="0.5" fill-opacity="0.615385" stroke-opacity="0.615385" />
  <polygon points="157.361,254.25 150,258.5 142.639,254.25 142.639,245.75 150,241.5 157.361,245.75" fill="#00d9ff" stroke="#0077b6" stroke-width="0.5" fill-opacity="0.638462" stroke-opacity="0.638462" />
  <polygon points="177.361,254.25 170,258.5 162.639,254.25 162.639,245.75 170,241.5 177.361,245.75" fill="#00d9ff" stroke="#0077b6" stroke-width="0.5" fill-opacity="0.661538" stroke-opacity="0.661538" />
  <polygon points="197.361,254.25 190,258.5 182.639,254.25 182.639,245.75 190,241.5 197.361,245.75" fill="#00d9ff" stroke="#0077b6" stroke-width="0.5" fill-opacity="0.684615" stroke-opacity="0.684615" />
  <polygon points="217.361,254.25 210,258.5 202.639,254.25 202.639,245.75 210,241.5 217.361,245.75" fill="#00d9ff" stroke="#0077b6" stroke-width="0.5" fill-opacity="0.707692" stroke-opacity="0.707692" />
  <polygon points="237.361,254.25 230,258.5 222.639,254.25 222.639,245.75 230,241.5 237.361,245.75" fill="#00d9ff" stroke="#0077b6" stroke-width="0.5" fill-opacity="0.730769" stroke-opacity="0.730769" />
  <polygon points="257.361,254.25 250,258.5 242.639,254.25 242.639,245.75 250,241.5 257.361,245.75" fill="#00d9ff" stroke="#0077b6" stroke-width="0.5" fill-opacity="0.753846" stroke-opacity="0.753846" />
  <polygon points="277.361,254.25 270,258.5 262.639,254.25 262.639,245.75 270,241.5 277.361,245.75" fill="#00d9ff" stroke="#0077b6" stroke-width="0.5" fill-opacity="0.776923" stroke-opacity="0.776923" />
  <polygon points="17.3612,274.25 10,278.5 2.63878,274.25 2.63878,265.75 10,261.5 17.3612,265.75" fill="#00d9ff" stroke="#0077b6" stroke-width="0.5" fill-opacity="0.5" stroke-opacity="0.5" />
  <polygon points="37.3612,274.25 30,278.5 22.6388,274.25 22.6388,265.75 30,261.5 37.3612,265.75" fill="#00d9ff" stroke="#0077b6" stroke-width="0.5" fill-opacity="0.523077" stroke-opacity="0.523077" />
  <polygon points="57.3612,274.25 50,278.5 42.6388,274.25 42.6388,265.75 50,261.5 57.3612,265.75" fill="#00d9ff" stroke="#0077b6" stroke-width="0.5" fill-opacity="0.546154" stroke-opacity="0.546154" />
  <polygon points="77.3612,274.25 70,278.5 62.6388,274.25 62.6388,265.75 70,261.5 77.3612,265.75" fill="#00d9ff" stroke="#0077b6" stroke-width="0.5" fill-opacity="0.569231" stroke-opacity="0.569231" />
  <polygon points="97.3612,274.25 90,278.5 82.6388,274.25 82.6388,265.75 90,261.5 97.3612,265.75" fill="#00d9ff" stroke="#0077b6" stroke-width="0.5" fill-opacity="0.592308" stroke-opacity="0.592308" />
  <polygon points="117.361,274.25 110,278.5 102.639,274.25 102.639,265.75 110,261.5 117.361,265.75" fill="#00d9ff" stroke="#0077b6" stroke-width="0.5" fill-opacity="0.615385" stroke-opacity="0.615385" />
  <polygon points="137.361,274.25 130,278.5 122.639,274.25 122.639,265.75 130,261.5 137.361,265.75" fill="#00d9ff" stroke="#0077b6" stroke-width="0.5" fill-opacity="0.638462" stroke-opacity="0.638462" />
  <polygon points="157.361,274.25 150,278.5 142.639,274.25 142.639,265.75 150,261.5 157.361,265.75" fill="#00d9ff" stroke="#0077b6" stroke-width="0.5" fill-opacity="0.661538" stroke-opacity="0.661538" />
  <polygon points="177.361,274.25 170,278.5 162.639,274.25 162.639,265.75 170,261.5 177.361,265.75" fill="#00d9ff" stroke="#0077b6" stroke-width="0.5" fill-opacity="0.684615" stroke-opacity="0.684615" />
  <polygon points="197.361,274.25 190,278.5 182.639,274.25 182.639,265.75 190,261.5 197.361,265.75" fill="#00d9ff" stroke="#0077b6" stroke-width="0.5" fill-opacity="0.707692" stroke-opacity="0.707692" />
  <polygon points="217.361,274.25 210,278.5 202.639,274.25 202.639,265.75 210,261.5 217.361,265.75" fill="#00d9ff" stroke="#0077b6" stroke-width="0.5" fill-opacity="0.730769" stroke-opacity="0.730769" />
  <polygon points="237.361,274.25 230,278.5 222.639,274.25 222.639,265.75 230,261.5 237.361,265.75" fill="#00d9ff" stroke="#0077b6" stroke-width="0.5" fill-opacity="0.753846" stroke-opacity="0.753846" />
  <polygon points="257.361,274.25 250,278.5 242.639,274.25 242.639,265.75 250,261.5 257.361,265.75" fill="#00d9ff" stroke="#0077b6" stroke-width="0.5" fill-opacity="0.776923" stroke-opacity="0.776923" />
  <polygon points="277.361,274.25 270,278.5 262.639,274.25 262.639,265.75 270,261.5 277.361,265.75" fill="#00d9ff" stroke="#0077b6" stroke-width="0.5" fill-opacity="0.8" stroke-opacity="0.8" />
</svg>