<?xml version="1.0" encoding="UTF-8"?>
<svg xmlns="http://www.w3.org/2000/svg" width="176" height="176" viewBox="0 0 176 176">
  <rect width="100%" height="100%" fill="#0d0d0d" />
  <polygon points="16.7158,14.3 11,17.6 5.28423,14.3 5.28423,7.7 11,4.4 16.7158,7.7" fill="#ff00ff" fill-opacity="0.5" stroke-opacity="0.5" />
  <rect x="0.25" y="0.25" width="21.5" height="21.5" fill="none" stroke="#1a1a2e" stroke-width="0.5" />
  <circle cx="33" cy="11" r="2.59286" fill="#ffff00" opacity="0.442857" />
  <rect x="22.25" y="0.25" width="21.5" height="21.5" fill="none" stroke="#1a1a2e" stroke-width="0.5" />
  <polygon points="61.124,14.5357 55,18.0714 48.876,14.5357 48.876,7.46429 55,3.92857 61.124,7.46429" fill="#ff00ff" fill-opacity="0.571429" stroke-opacity="0.571429" />
  <rect x="44.25" y="0.25" width="21.5" height="21.5" fill="none" stroke="#1a1a2e" stroke-width="0.5" />
  <circle cx="77" cy="11" r="3.37857" fill="#ffff00" opacity="0.528571" />
  <rect x="66.25" y="0.25" width="21.5" height="21.5" fill="none" stroke="#1a1a2e" stroke-width="0.5" />
  <polygon points="105.532,14.7714 99,18.5429 92.4677,14.7714 92.4677,7.22857 99,3.45714 105.532,7.22857" fill="#ff00ff" fill-opacity="0.642857" stroke-opacity="0.642857" />
  <rect x="88.25" y="0.25" width="21.5" height="21.5" fill="none" stroke="#1a1a2e" stroke-width="0.5" />
  <circle cx="121" cy="11" r="4.16429" fill="#ffff00" opacity="0.614286" />
  <rect x="110.25" y="0.25" width="21.5" height="21.5" fill="none" stroke="#1a1a2e" stroke-width="0.5" />
  <polygon points="149.941,15.0071 143,19.0143 136.059,15.0071 136.059,6.99286 143,2.98571 149.941,6.99286" fill="#ff00ff" fill-opacity="0.714286" stroke-opacity="0.714286" />
  <rect x="132.25" y="0.25" width="21.5" height="21.5" fill="none" stroke="#1a1a2e" stroke-width="0.5" />
  <circle cx="165" cy="11" r="4.95" fill="#ffff00" opacity="0.7" />
  <rect x="154.25" y="0.25" width="21.5" height="21.5" fill="none" stroke="#1a1a2e" stroke-width="0.5" />
  <circle cx="11" cy="33" r="2.59286" fill="#ffff00" opacity="0.442857" />
  <rect x="0.25" y="22.25" width="21.5" height="21.5" fill="none" stroke="#1a1a2e" stroke-width="0.5" />
  <polygon points="39.124,36.5357 33,40.0714 26.876,36.5357 26.876,29.4643 33,25.9286 39.124,29.4643" fill="#ff00ff" fill-opacity="0.571429" stroke-opacity="0.571429" />
  <circle cx="55" cy="33" r="3.37857" fill="#ffff00" opacity="0.528571" />
  <polygon points="83.5323,36.7714 77,40.5429 70.4677,36.7714 70.4677,29.2286 77,25.4571 83.5323,29.2286" fill="#ff00ff" fill-opacity="0.642857" stroke-opacity="0.642857" />
  <circle cx="99" cy="33" r="4.16429" fill="#ffff00" opacity="0.614286" />
  <polygon points="127.941,37.0071 121,41.0143 114.059,37.0071 114.059,28.9929 121,24.9857 127.941,28.9929" fill="#ff00ff" fill-opacity="0.714286" stroke-opacity="0.714286" />
  <circle cx="143" cy="33" r="4.95" fill="#ffff00" opacity="0.7" />
  <polygon points="172.349,37.2429 165,41.4857 157.651,37.2429 157.651,28.7571 165,24.5143 172.349,28.7571" fill="#ff00ff" fill-opacity="0.785714" stroke-opacity="0.785714" />
  <rect x="154.25" y="22.25" width="21.5" height="21.5" fill="none" stroke="#1a1a2e" stroke-width="0.5" />
  <polygon points="17.124,58.5357 11,62.0714 4.87596,58.5357 4.87596,51.4643 11,47.9286 17.124,51.4643" fill="#ff00ff" fill-opacity="0.571429" stroke-opacity="0.571429" />
  <rect x="0.25" y="44.25" width="21.5" height="21.5" fill="none" stroke="#1a1a2e" stroke-width="0.5" />
  <circle cx="33" cy="55" r="3.37857" fill="#ffff00" opacity="0.528571" />
  <polygon points="61.5323,58.7714 55,62.5429 48.4677,58.7714 48.4677,51.2286 55,47.4571 61.5323,51.2286" fill="#ff00ff" fill-opacity="0.642857" stroke-opacity="0.642857" />
  <circle cx="77" cy="55" r="4.16429" fill="#ffff00" opacity="0.614286" />
  <polygon points="105.941,59.0071 99,63.0143 92.0594,59.0071 92.0594,50.9929 99,46.9857 105.941,50.9929" fill="#ff00ff" fill-opacity="0.714286" stroke-opacity="0.714286" />
  <circle cx="121" cy="55" r="4.95" fill="#ffff00" opacity="0.7" />
  <polygon points="150.349,59.2429 143,63.4857 135.651,59.2429 135.651,50.7571 143,46.5143 150.349,50.7571" fill="#ff00ff" fill-opacity="0.785714" stroke-opacity="0.785714" />
  <circle cx="165" cy="55" r="5.73571" fill="#ffff00" opacity="0.785714" />
  <rect x="154.25" y="44.25" width="21.5" height="21.5" fill="none" stroke="#1a1a2e" stroke-width="0.5" />
  <circle cx="11" cy="77" r="3.37857" fill="#ffff00" opacity="0.528571" />
  <rect x="0.25" y="66.25" width="21.5" height="21.5" fill="none" stroke="#1a1a2e" stroke-width="0.5" />
  <polygon points="39.5323,80.7714 33,84.5429 26.4677,80.7714 26.4677,73.2286 33,69.4571 39.5323,73.2286" fill="#ff00ff" fill-opacity="0.642857" stroke-opacity="0.642857" />
  <circle cx="55" cy="77" r="4.16429" fill="#ffff00" opacity="0.614286" />
  <polygon points="83.9406,81.0071 77,85.0143 70.0594,81.0071 70.0594,72.9929 77,68.9857 83.9406,72.9929" fill="#ff00ff" fill-opacity="0.714286" stroke-opacity="0.714286" />
  <circle cx="99" cy="77" r="4.95" fill="#ffff00" opacity="0.7" />
  <polygon points="128.349,81.2429 121,85.4857 113.651,81.2429 113.651,72.7571 121,68.5143 128.349,72.7571" fill="#ff00ff" fill-opacity="0.785714" stroke-opacity="0.785714" />
  <circle cx="143" cy="77" r="5.73571" fill="#ffff00" opacity="0.785714" />
  <polygon points="172.757,81.4786 165,85.9571 157.243,81.4786 157.243,72.5214 165,68.0429 172.757,72.5214" fill="#ff00ff" fill-opacity="0.857143" stroke-opacity="0.857143" />
  <rect x="154.25" y="66.25" width="21.5" height="21.5" fill="none" stroke="#1a1a2e" stroke-width="0.5" />
  <polygon points="17.5323,102.771 11,106.543 4.46769,102.771 4.46769,95.2286 11,91.4571 17.5323,95.2286" fill="#ff00ff" fill-opacity="0.642857" stroke-opacity="0.642857" />
  <rect x="0.25" y="88.25" width="21.5" height="21.5" fill="none" stroke="#1a1a2e" stroke-width="0.5" />
  <circle cx="33" cy="99" r="4.16429" fill="#ffff00" opacity="0.614286" />
  <polygon points="61.9406,103.007 55,107.014 48.0594,103.007 48.0594,94.9929 55,90.9857 61.9406,94.9929" fill="#ff00ff" fill-opacity="0.714286" stroke-opacity="0.714286" />
  <circle cx="77" cy="99" r="4.95" fill="#ffff00" opacity="0.7" />
  <polygon points="106.349,103.243 99,107.486 91.6512,103.243 91.6512,94.7571 99,90.5143 106.349,94.7571" fill="#ff00ff" fill-opacity="0.785714" stroke-opacity="0.785714" />
  <circle cx="121" cy="99" r="5.73571" fill="#ffff00" opacity="0.785714" />
  <polygon points="150.757,103.479 143,107.957 135.243,103.479 135.243,94.5214 143,90.0429 150.757,94.5214" fill="#ff00ff" fill-opacity="0.857143" stroke-opacity="0.857143" />
  <circle cx="165" cy="99" r="6.52143" fill="#ffff00" opacity="0.871429" />
  <rect x="154.25" y="88.25" width="21.5" height="21.5" fill="none" stroke="#1a1a2e" stroke-width="0.5" />
  <circle cx="11" cy="121" r="4.16429" fill="#ffff00" opacity="0.614286" />
  <rect x="0.25" y="110.25" width="21.5" height="21.5" fill="none" stroke="#1a1a2e" stroke-width="0.5" />
  <polygon points="39.9406,125.007 33,129.014 26.0594,125.007 26.0594,116.993 33,112.986 39.9406,116.993" fill="#ff00ff" fill-opacity="0.714286" stroke-opacity="0.714286" />
  <circle cx="55" cy="121" r="4.95" fill="#ffff00" opacity="0.7" />
  <polygon points="84.3488,125.243 77,129.486 69.6512,125.243 69.6512,116.757 77,112.514 84.3488,116.757" fill="#ff00ff" fill-opacity="0.785714" stroke-opacity="0.785714" />
  <circle cx="99" cy="121" r="5.73571" fill="#ffff00" opacity="0.785714" />
  <polygon points="128.757,125.479 121,129.957 113.243,125.479 113.243,116.521 121,112.043 128.757,116.521" fill="#ff00ff" fill-opacity="0.857143" stroke-opacity="0.857143" />
  <circle cx="143" cy="121" r="6.52143" fill="#ffff00" opacity="0.871429" />
  <polygon points="173.165,125.714 165,130.429 156.835,125.714 156.835,116.286 165,111.571 173.165,116.286" fill="#ff00ff" fill-opacity="0.928571" stroke-opacity="0.928571" />
  <rect x="154.25" y="110.25" width="21.5" height="21.5" fill="none" stroke="#1a1a2e" stroke-width="0.5" />
  <polygon points="17.9406,147.007 11,151.014 4.05942,147.007 4.05942,138.993 11,134.986 17.9406,138.993" fill="#ff00ff" fill-opacity="0.714286" stroke-opacity="0.714286" />
  <rect x="0.25" y="132.25" width="21.5" height="21.5" fill="none" stroke="#1a1a2e" stroke-width="0.5" />
  <circle cx="33" cy="143" r="4.95" fill="#ffff00" opacity="0.7" />
  <polygon points="62.3488,147.243 55,151.486 47.6512,147.243 47.6512,138.757 55,134.514 62.3488,138.757" fill="#ff00ff" fill-opacity="0.785714" stroke-opacity="0.785714" />
  <circle cx="77" cy="143" r="5.73571" fill="#ffff00" opacity="0.785714" />
  <polygon points="106.757,147.479 99,151.957 91.2429,147.479 91.2429,138.521 99,134.043 106.757,138.521" fill="#ff00ff" fill-opacity="0.857143" stroke-opacity="0.857143" />
  <circle cx="121" cy="143" r="6.52143" fill="#ffff00" opacity="0.871429" />
  <polygon points="151.165,147.714 143,152.429 134.835,147.714 134.835,138.286 143,133.571 151.165,138.286" fill="#ff00ff" fill-opacity="0.928571" stroke-opacity="0.928571" />
  <circle cx="165" cy="143" r="7.30714" fill="#ffff00" opacity="0.957143" />
  <rect x="154.25" y="132.25" width="21.5" height="21.5" fill="none" stroke="#1a1a2e" stroke-width="0.5" />
  <circle cx="11" cy="165" r="4.95" fill="#ffff00" opacity="0.7" />
  <rect x="0.25" y="154.25" width="21.5" height="21.5" fill="none" stroke="#1a1a2e" stroke-width="0.5" />
  <polygon points="40.3488,169.243 33,173.486 25.6512,169.243 25.6512,160.757 33,156.514 40.3488,160.757" fill="#ff00ff" fill-opacity="0.785714" stroke-opacity="0.785714" />
  <rect x="22.25" y="154.25" width="21.5" height="21.5" fill="none" stroke="#1a1a2e" stroke-width="0.5" />
  <circle cx="55" cy="165" r="5.73571" fill="#ffff00" opacity="0.785714" />
  <rect x="44.25" y="154.25" width="21.5" height="21.5" fill="none" stroke="#1a1a2e" stroke-width="0.5" />
  <polygon points="84.7571,169.479 77,173.957 69.2429,169.479 69.2429,160.521 77,156.043 84.7571,160.521" fill="#ff00ff" fill-opacity="0.857143" stroke-opacity="0.857143" />
  <rect x="66.25" y="154.25" width="21.5" height="21.5" fill="none" stroke="#1a1a2e" stroke-width="0.5" />
  <circle cx="99" cy="165" r="6.52143" fill="#ffff00" opacity="0.871429" />
  <rect x="88.25" y="154.25" width="21.5" height="21.5" fill="none" stroke="#1a1a2e" stroke-width="0.5" />
  <polygon points="129.165,169.714 121,174.429 112.835,169.714 112.835,160.286 121,155.571 129.165,160.286" fill="#ff00ff" fill-opacity="0.928571" stroke-opacity="0.928571" />
  <rect x="110.25" y="154.25" width="21.5" height="21.5" fill="none" stroke="#1a1a2e" stroke-width="0.5" />
  <circle cx="143" cy="165" r="7.30714" fill="#ffff00" opacity="0.957143" />
  <rect x="132.25" y="154.25" width="21.5" height="21.5" fill="none" stroke="#1a1a2e" stroke-width="0.5" />
  <polygon points="173.574,169.95 165,174.9 156.426,169.95 156.426,160.05 165,155.1 173.574,160.05" fill="#ff00ff" />
  <rect x="154.25" y="154.25" width="21.5" height="21.5" fill="none" stroke="#1a1a2e" stroke-width="0.5" />
</svg>