<?xml version="1.0" encoding="UTF-8"?>
<svg xmlns="http://www.w3.org/2000/svg" width="264" height="176" viewBox="0 0 264 176">
  <rect width="100%" height="100%" fill="#2d1b4e" />
  <circle cx="11" cy="11" r="3.3" fill="#ff6b35" opacity="0.6" />
  <line x1="0" y1="0" x2="22" y2="22" stroke="#8e7dbe" stroke-width="1" stroke-linecap="round" opacity="0.4" />
  <circle cx="33" cy="11" r="3.3" fill="#ff6b35" opacity="0.6" />
  <line x1="22" y1="0" x2="44" y2="22" stroke="#8e7dbe" stroke-width="1" stroke-linecap="round" opacity="0.4" />
  <circle cx="55" cy="11" r="3.3" fill="#ff6b35" opacity="0.6" />
  <line x1="44" y1="0" x2="66" y2="22" stroke="#8e7dbe" stroke-width="1" stroke-linecap="round" opacity="0.4" />
  <circle cx="77" cy="11" r="3.3" fill="#ff6b35" opacity="0.6" />
  <line x1="66" y1="0" x2="88" y2="22" stroke="#8e7dbe" stroke-width="1" stroke-linecap="round" opacity="0.4" />
  <circle cx="99" cy="11" r="3.3" fill="#ff6b35" opacity="0.6" />
  <line x1="88" y1="0" x2="110" y2="22" stroke="#8e7dbe" stroke-width="1" stroke-linecap="round" opacity="0.4" />
  <circle cx="121" cy="11" r="3.3" fill="#ff6b35" opacity="0.6" />
  <line x1="110" y1="0" x2="132" y2="22" stroke="#8e7dbe" stroke-width="1" stroke-linecap="round" opacity="0.4" />
  <circle cx="143" cy="11" r="3.3" fill="#ff6b35" opacity="0.6" />
  <line x1="132" y1="0" x2="154" y2="22" stroke="#8e7dbe" stroke-width="1" stroke-linecap="round" opacity="0.4" />
  <circle cx="165" cy="11" r="3.3" fill="#ff6b35" opacity="0.6" />
  <line x1="154" y1="0" x2="176" y2="22" stroke="#8e7dbe" stroke-width="1" stroke-linecap="round" opacity="0.4" />
  <polygon points="191.763,13.75 187,16.5 182.237,13.75 182.237,8.25 187,5.5 191.763,8.25" fill="#f7c59f" fill-opacity="0.5" stroke-opacity="0.5" />
  <polygon points="213.763,13.75 209,16.5 204.237,13.75 204.237,8.25 209,5.5 213.763,8.25" fill="#f7c59f" fill-opacity="0.5" stroke-opacity="0.5" />
  <polygon points="235.763,13.75 231,16.5 226.237,13.75 226.237,8.25 231,5.5 235.763,8.25" fill="#f7c59f" fill-opacity="0.5" stroke-opacity="0.5" />
  <polygon points="257.763,13.75 253,16.5 248.237,13.75 248.237,8.25 253,5.5 257.763,8.25" fill="#f7c59f" fill-opacity="0.5" stroke-opacity="0.5" />
  <circle cx="11" cy="33" r="3.3" fill="#ff6b35" opacity="0.6" />
  <line x1="0" y1="22" x2="22" y2="44" stroke="#8e7dbe" stroke-width="1" stroke-linecap="round" opacity="0.4" />
  <circle cx="33" cy="33" r="3.3" fill="#ff6b35" opacity="0.6" />
  <line x1="22" y1="22" x2="44" y2="44" stroke="#8e7dbe" stroke-width="1" stroke-linecap="round" opacity="0.4" />
  <circle cx="55" cy="33" r="3.3" fill="#ff6b35" opacity="0.6" />
  <line x1="44" y1="22" x2="66" y2="44" stroke="#8e7dbe" stroke-width="1" stroke-linecap="round" opacity="0.4" />
  <circle cx="77" cy="33" r="3.3" fill="#ff6b35" opacity="0.6" />
  <line x1="66" y1="22" x2="88" y2="44" stroke="#8e7dbe" stroke-width="1" stroke-linecap="round" opacity="0.4" />
  <circle cx="99" cy="33" r="3.3" fill="#ff6b35" opacity="0.6" />
  <line x1="88" y1="22" x2="110" y2="44" stroke="#8e7dbe" stroke-width="1" stroke-linecap="round" opacity="0.4" />
  <circle cx="121" cy="33" r="3.3" fill="#ff6b35" opacity="0.6" />
  <line x1="110" y1="22" x2="132" y2="44" stroke="#8e7dbe" stroke-width="1" stroke-linecap="round" opacity="0.4" />
  <polygon points="147.763,35.75 143,38.5 138.237,35.75 138.237,30.25 143,27.5 147.763,30.25" fill="#f7c59f" fill-opacity="0.5" stroke-opacity="0.5" />
  <polygon points="169.763,35.75 165,38.5 160.237,35.75 160.237,30.25 165,27.5 169.763,30.25" fill="#f7c59f" fill-opacity="0.5" stroke-opacity="0.5" />
  <polygon points="191.763,35.75 187,38.5 182.237,35.75 182.237,30.25 187,27.5 191.763,30.25" fill="#f7c59f" fill-opacity="0.5" stroke-opacity="0.5" />
  <polygon points="213.763,35.75 209,38.5 204.237,35.75 204.237,30.25 209,27.5 213.763,30.25" fill="#f7c59f" fill-opacity="0.5" stroke-opacity="0.5" />
  <polygon points="235.763,35.75 231,38.5 226.237,35.75 226.237,30.25 231,27.5 235.763,30.25" fill="#f7c59f" fill-opacity="0.5" stroke-opacity="0.5" />
  <polygon points="257.763,35.75 253,38.5 248.237,35.75 248.237,30.25 253,27.5 257.763,30.25" fill="#f7c59f" fill-opacity="0.5" stroke-opacity="0.5" />
  <circle cx="11" cy="55" r="3.3" fill="#ff6b35" opacity="0.6" />
  <line x1="0" y1="44" x2="22" y2="66" stroke="#8e7dbe" stroke-width="1" stroke-linecap="round" opacity="0.4" />
  <circle cx="33" cy="55" r="3.3" fill="#ff6b35" opacity="0.6" />
  <line x1="22" y1="44" x2="44" y2="66" stroke="#8e7dbe" stroke-width="1" stroke-linecap="round" opacity="0.4" />
  <circle cx="55" cy="55" r="3.3" fill="#ff6b35" opacity="0.6" />
  <line x1="44" y1="44" x2="66" y2="66" stroke="#8e7dbe" stroke-width="1" stroke-linecap="round" opacity="0.4" />
  <circle cx="77" cy="55" r="3.3" fill="#ff6b35" opacity="0.6" />
  <line x1="66" y1="44" x2="88" y2="66" stroke="#8e7dbe" stroke-width="1" stroke-linecap="round" opacity="0.4" />
  <circle cx="99" cy="55" r="3.3" fill="#ff6b35" opacity="0.6" />
  <line x1="88" y1="44" x2="110" y2="66" stroke="#8e7dbe" stroke-width="1" stroke-linecap="round" opacity="0.4" />
  <polygon points="125.763,57.75 121,60.5 116.237,57.75 116.237,52.25 121,49.5 125.763,52.25" fill="#f7c59f" fill-opacity="0.5" stroke-opacity="0.5" />
  <polygon points="147.763,57.75 143,60.5 138.237,57.75 138.237,52.25 143,49.5 147.763,52.25" fill="#f7c59f" fill-opacity="0.5" stroke-opacity="0.5" />
  <polygon points="169.763,57.75 165,60.5 160.237,57.75 160.237,52.25 165,49.5 169.763,52.25" fill="#f7c59f" fill-opacity="0.5" stroke-opacity="0.5" />
  <polygon points="191.763,57.75 187,60.5 182.237,57.75 182.237,52.25 187,49.5 191.763,52.25" fill="#f7c59f" fill-opacity="0.5" stroke-opacity="0.5" />
  <polygon points="213.763,57.75 209,60.5 204.237,57.75 204.237,52.25 209,49.5 213.763,52.25" fill="#f7c59f" fill-opacity="0.5" stroke-opacity="0.5" />
  <polygon points="235.763,57.75 231,60.5 226.237,57.75 226.237,52.25 231,49.5 235.763,52.25" fill="#f7c59f" fill-opacity="0.5" stroke-opacity="0.5" />
  <polygon points="257.763,57.75 253,60.5 248.237,57.75 248.237,52.25 253,49.5 257.763,52.25" fill="#f7c59f" fill-opacity="0.5" stroke-opacity="0.5" />
  <circle cx="11" cy="77" r="3.3" fill="#ff6b35" opacity="0.6" />
  <line x1="0" y1="66" x2="22" y2="88" stroke="#8e7dbe" stroke-width="1" stroke-linecap="round" opacity="0.4" />
  <circle cx="33" cy="77" r="3.3" fill="#ff6b35" opacity="0.6" />
  <line x1="22" y1="66" x2="44" y2="88" stroke="#8e7dbe" stroke-width="1" stroke-linecap="round" opacity="0.4" />
  <circle cx="55" cy="77" r="3.3" fill="#ff6b35" opacity="0.6" />
  <line x1="44" y1="66" x2="66" y2="88" stroke="#8e7dbe" stroke-width="1" stroke-linecap="round" opacity="0.4" />
  <polygon points="81.7631,79.75 77,82.5 72.2369,79.75 72.2369,74.25 77,71.5 81.7631,74.25" fill="#f7c59f" fill-opacity="0.5" stroke-opacity="0.5" />
  <polygon points="103.763,79.75 99,82.5 94.2369,79.75 94.2369,74.25 99,71.5 103.763,74.25" fill="#f7c59f" fill-opacity="0.5" stroke-opacity="0.5" />
  <polygon points="125.763,79.75 121,82.5 116.237,79.75 116.237,74.25 121,71.5 125.763,74.25" fill="#f7c59f" fill-opacity="0.5" stroke-opacity="0.5" />
  <polygon points="147.763,79.75 143,82.5 138.237,79.75 138.237,74.25 143,71.5 147.763,74.25" fill="#f7c59f" fill-opacity="0.5" stroke-opacity="0.5" />
  <polygon points="169.763,79.75 165,82.5 160.237,79.75 160.237,74.25 165,71.5 169.763,74.25" fill="#f7c59f" fill-opacity="0.5" stroke-opacity="0.5" />
  <polygon points="191.763,79.75 187,82.5 182.237,79.75 182.237,74.25 187,71.5 191.763,74.25" fill="#f7c59f" fill-opacity="0.5" stroke-opacity="0.5" />
  <polygon points="213.763,79.75 209,82.5 204.237,79.75 204.237,74.25 209,71.5 213.763,74.25" fill="#f7c59f" fill-opacity="0.5" stroke-opacity="0.5" />
  <circle cx="231" cy="77" r="6.6" fill="#efa00b" opacity="0.9" />
  <circle cx="253" cy="77" r="6.6" fill="#efa00b" opacity="0.9" />
  <circle cx="11" cy="99" r="3.3" fill="#ff6b35" opacity="0.6" />
  <line x1="0" y1="88" x2="22" y2="110" stroke="#8e7dbe" stroke-width="1" stroke-linecap="round" opacity="0.4" />
  <polygon points="37.7631,101.75 33,104.5 28.2369,101.75 28.2369,96.25 33,93.5 37.7631,96.25" fill="#f7c59f" fill-opacity="0.5" stroke-opacity="0.5" />
  <polygon points="59.7631,101.75 55,104.5 50.2369,101.75 50.2369,96.25 55,93.5 59.7631,96.25" fill="#f7c59f" fill-opacity="0.5" stroke-opacity="0.5" />
  <polygon points="81.7631,101.75 77,104.5 72.2369,101.75 72.2369,96.25 77,93.5 81.7631,96.25" fill="#f7c59f" fill-opacity="0.5" stroke-opacity="0.5" />
  <polygon points="103.763,101.75 99,104.5 94.2369,101.75 94.2369,96.25 99,93.5 103.763,96.25" fill="#f7c59f" fill-opacity="0.5" stroke-opacity="0.5" />
  <polygon points="125.763,101.75 121,104.5 116.237,101.75 116.237,96.25 121,93.5 125.763,96.25" fill="#f7c59f" fill-opacity="0.5" stroke-opacity="0.5" />
  <polygon points="147.763,101.75 143,104.5 138.237,101.75 138.237,96.25 143,93.5 147.763,96.25" fill="#f7c59f" fill-opacity="0.5" stroke-opacity="0.5" />
  <polygon points="169.763,101.75 165,104.5 160.237,101.75 160.237,96.25 165,93.5 169.763,96.25" fill="#f7c59f" fill-opacity="0.5" stroke-opacity="0.5" />
  <polygon points="191.763,101.75 187,104.5 182.237,101.75 182.237,96.25 187,93.5 191.763,96.25" fill="#f7c59f" fill-opacity="0.5" stroke-opacity="0.5" />
  <circle cx="209" cy="99" r="6.6" fill="#efa00b" opacity="0.9" />
  <circle cx="231" cy="99" r="6.6" fill="#efa00b" opacity="0.9" />
  <circle cx="253" cy="99" r="6.6" fill="#efa00b" opacity="0.9" />
  <polygon points="15.7631,123.75 11,126.5 6.23686,123.75 6.23686,118.25 11,115.5 15.7631,118.25" fill="#f7c59f" fill-opacity="0.5" stroke-opacity="0.5" />
  <polygon points="37.7631,123.75 33,126.5 28.2369,123.75 28.2369,118.25 33,115.5 37.7631,118.25" fill="#f7c59f" fill-opacity="0.5" stroke-opacity="0.5" />
  <polygon points="59.7631,123.75 55,126.5 50.2369,123.75 50.2369,118.25 55,115.5 59.7631,118.25" fill="#f7c59f" fill-opacity="0.5" stroke-opacity="0.5" />
  <polygon points="81.7631,123.75 77,126.5 72.2369,123.75 72.2369,118.25 77,115.5 81.7631,118.25" fill="#f7c59f" fill-opacity="0.5" stroke-opacity="0.5" />
  <polygon points="103.763,123.75 99,126.5 94.2369,123.75 94.2369,118.25 99,115.5 103.763,118.25" fill="#f7c59f" fill-opacity="0.5" stroke-opacity="0.5" />
  <polygon points="125.763,123.75 121,126.5 116.237,123.75 116.237,118.25 121,115.5 125.763,118.25" fill="#f7c59f" fill-opacity="0.5" stroke-opacity="0.5" />
  <polygon points="147.763,123.75 143,126.5 138.237,123.75 138.237,118.25 143,115.5 147.763,118.25" fill="#f7c59f" fill-opacity="0.5" stroke-opacity="0.5" />
  <circle cx="165" cy="121" r="6.6" fill="#efa00b" opacity="0.9" />
  <circle cx="187" cy="121" r="6.6" fill="#efa00b" opacity="0.9" />
  <circle cx="209" cy="121" r="6.6" fill="#efa00b" opacity="0.9" />
  <circle cx="231" cy="121" r="6.6" fill="#efa00b" opacity="0.9" />
  <circle cx="253" cy="121" r="6.6" fill="#efa00b" opacity="0.9" />
  <polygon points="15.7631,145.75 11,148.5 6.23686,145.75 6.23686,140.25 11,137.5 15.7631,140.25" fill="#f7c59f" fill-opacity="0.5" stroke-opacity="0.5" />
  <polygon points="37.7631,145.75 33,148.5 28.2369,145.75 28.2369,140.25 33,137.5 37.7631,140.25" fill="#f7c59f" fill-opacity="0.5" stroke-opacity="0.5" />
  <polygon points="59.7631,145.75 55,148.5 50.2369,145.75 50.2369,140.25 55,137.5 59.7631,140.25" fill="#f7c59f" fill-opacity="0.5" stroke-opacity="0.5" />
  <polygon points="81.7631,145.75 77,148.5 72.2369,145.75 72.2369,140.25 77,137.5 81.7631,140.25" fill="#f7c59f" fill-opacity="0.5" stroke-opacity="0.5" />
  <polygon points="103.763,145.75 99,148.5 94.2369,145.75 94.2369,140.25 99,137.5 103.763,140.25" fill="#f7c59f" fill-opacity="0.5" stroke-opacity="0.5" />
  <polygon points="125.763,145.75 121,148.5 116.237,145.75 116.237,140.25 121,137.5 125.763,140.25" fill="#f7c59f" fill-opacity="0.5" stroke-opacity="0.5" />
  <circle cx="143" cy="143" r="6.6" fill="#efa00b" opacity="0.9" />
  <circle cx="165" cy="143" r="6.6" fill="#efa00b" opacity="0.9" />
  <circle cx="187" cy="143" r="6.6" fill="#efa00b" opacity="0.9" />
  <circle cx="209" cy="143" r="6.6" fill="#efa00b" opacity="0.9" />
  <circle cx="231" cy="143" r="6.6" fill="#efa00b" opacity="0.9" />
  <circle cx="253" cy="143" r="6.6" fill="#efa00b" opacity="0.9" />
  <polygon points="15.7631,167.75 11,170.5 6.23686,167.75 6.23686,162.25 11,159.5 15.7631,162.25" fill="#f7c59f" fill-opacity="0.5" stroke-opacity="0.5" />
  <polygon points="37.7631,167.75 33,170.5 28.2369,167.75 28.2369,162.25 33,159.5 37.7631,162.25" fill="#f7c59f" fill-opacity="0.5" stroke-opacity="0.5" />
  <polygon points="59.7631,167.75 55,170.5 50.2369,167.75 50.2369,162.25 55,159.5 59.7631,162.25" fill="#f7c59f" fill-opacity="0.5" stroke-opacity="0.5" />
  <polygon points="81.7631,167.75 77,170.5 72.2369,167.75 72.2369,162.25 77,159.5 81.7631,162.25" fill="#f7c59f" fill-opacity="0.5" stroke-opacity="0.5" />
  <circle cx="99" cy="165" r="6.6" fill="#efa00b" opacity="0.9" />
  <circle cx="121" cy="165" r="6.6" fill="#efa00b" opacity="0.9" />
  <circle cx="143" cy="165" r="6.6" fill="#efa00b" opacity="0.9" />
  <circle cx="165" cy="165" r="6.6" fill="#efa00b" opacity="0.9" />
  <circle cx="187" cy="165" r="6.6" fill="#efa00b" opacity="0.9" />
  <circle cx="209" cy="165" r="6.6" fill="#efa00b" opacity="0.9" />
  <circle cx="231" cy="165" r="6.6" fill="#efa00b" opacity="0.9" />
  <circle cx="253" cy="165" r="6.6" fill="#efa00b" opacity="0.9" />
</svg>