<?xml version="1.0" encoding="UTF-8"?>
<svg xmlns="http://www.w3.org/2000/svg" width="264" height="176" viewBox="0 0 264 176">
  <rect width="100%" height="100%" fill="#2d1b4e" />
  <circle cx="11.0" cy="11.0" r="3.0" fill="#ff6b35" opacity="0.6" />
  <line x1="0.0" y1="0.0" x2="22.0" y2="22.0" stroke="#8e7dbe" stroke-width="1.0" stroke-linecap="round" opacity="0.4" />
  <circle cx="33.0" cy="11.0" r="3.0" fill="#ff6b35" opacity="0.6" />
  <line x1="22.0" y1="0.0" x2="44.0" y2="22.0" stroke="#8e7dbe" stroke-width="1.0" stroke-linecap="round" opacity="0.4" />
  <circle cx="55.0" cy="11.0" r="3.0" fill="#ff6b35" opacity="0.6" />
  <line x1="44.0" y1="0.0" x2="66.0" y2="22.0" stroke="#8e7dbe" stroke-width="1.0" stroke-linecap="round" opacity="0.4" />
  <circle cx="77.0" cy="11.0" r="3.0" fill="#ff6b35" opacity="0.6" />
  <line x1="66.0" y1="0.0" x2="88.0" y2="22.0" stroke="#8e7dbe" stroke-width="1.0" stroke-linecap="round" opacity="0.4" />
  <circle cx="99.0" cy="11.0" r="3.0" fill="#ff6b35" opacity="0.6" />
  <line x1="88.0" y1="0.0" x2="110.0" y2="22.0" stroke="#8e7dbe" stroke-width="1.0" stroke-linecap="round" opacity="0.4" />
  <circle cx="121.0" cy="11.0" r="3.0" fill="#ff6b35" opacity="0.6" />
  <line x1="110.0" y1="0.0" x2="132.0" y2="22.0" stroke="#8e7dbe" stroke-width="1.0" stroke-linecap="round" opacity="0.4" />
  <circle cx="143.0" cy="11.0" r="3.0" fill="#ff6b35" opacity="0.6" />
  <line x1="132.0" y1="0.0" x2="154.0" y2="22.0" stroke="#8e7dbe" stroke-width="1.0" stroke-linecap="round" opacity="0.4" />
  <circle cx="165.0" cy="11.0" r="3.0" fill="#ff6b35" opacity="0.6" />
  <line x1="154.0" y1="0.0" x2="176.0" y2="22.0" stroke="#8e7dbe" stroke-width="1.0" stroke-linecap="round" opacity="0.4" />
  <polygon points="191.76313972081442,13.75 187.0,16.5 182.23686027918558,13.750000000000002 182.23686027918558,8.250000000000002 187.0,5.5 191.76313972081442,8.250000000000002" fill="#f7c59f" fill-opacity="0.5" stroke-opacity="0.5" />
  <polygon points="213.76313972081442,13.75 209.0,16.5 204.23686027918558,13.750000000000002 204.23686027918558,8.250000000000002 209.0,5.5 213.76313972081442,8.250000000000002" fill="#f7c59f" fill-opacity="0.5" stroke-opacity="0.5" />
  <polygon points="235.76313972081442,13.75 231.0,16.5 226.23686027918558,13.750000000000002 226.23686027918558,8.250000000000002 231.0,5.5 235.76313972081442,8.250000000000002" fill="#f7c59f" fill-opacity="0.5" stroke-opacity="0.5" />
  <polygon points="257.7631397208144,13.75 253.0,16.5 248.23686027918558,13.750000000000002 248.23686027918558,8.250000000000002 253.0,5.5 257.7631397208144,8.250000000000002" fill="#f7c59f" fill-opacity="0.5" stroke-opacity="0.5" />
  <circle cx="11.0" cy="33.0" r="3.0" fill="#ff6b35" opacity="0.6" />
  <line x1="0.0" y1="22.0" x2="22.0" y2="44.0" stroke="#8e7dbe" stroke-width="1.0" stroke-linecap="round" opacity="0.4" />
  <circle cx="33.0" cy="33.0" r="3.0" fill="#ff6b35" opacity="0.6" />
  <line x1="22.0" y1="22.0" x2="44.0" y2="44.0" stroke="#8e7dbe" stroke-width="1.0" stroke-linecap="round" opacity="0.4" />
  <circle cx="55.0" cy="33.0" r="3.0" fill="#ff6b35" opacity="0.6" />
  <line x1="44.0" y1="22.0" x2="66.0" y2="44.0" stroke="#8e7dbe" stroke-width="1.0" stroke-linecap="round" opacity="0.4" />
  <circle cx="77.0" cy="33.0" r="3.0" fill="#ff6b35" opacity="0.6" />
  <line x1="66.0" y1="22.0" x2="88.0" y2="44.0" stroke="#8e7dbe" stroke-width="1.0" stroke-linecap="round" opacity="0.4" />
  <circle cx="99.0" cy="33.0" r="3.0" fill="#ff6b35" opacity="0.6" />
  <line x1="88.0" y1="22.0" x2="110.0" y2="44.0" stroke="#8e7dbe" stroke-width="1.0" stroke-linecap="round" opacity="0.4" />
  <circle cx="121.0" cy="33.0" r="3.0" fill="#ff6b35" opacity="0.6" />
  <line x1="110.0" y1="22.0" x2="132.0" y2="44.0" stroke="#8e7dbe" stroke-width="1.0" stroke-linecap="round" opacity="0.4" />
  <polygon points="147.76313972081442,35.75 143.0,38.5 138.23686027918558,35.75 138.23686027918558,30.25 143.0,27.5 147.76313972081442,30.25" fill="#f7c59f" fill-opacity="0.5" stroke-opacity="0.5" />
  <polygon points="169.76313972081442,35.75 165.0,38.5 160.23686027918558,35.75 160.23686027918558,30.25 165.0,27.5 169.76313972081442,30.25" fill="#f7c59f" fill-opacity="0.5" stroke-opacity="0.5" />
  <polygon points="191.76313972081442,35.75 187.0,38.5 182.23686027918558,35.75 182.23686027918558,30.25 187.0,27.5 191.76313972081442,30.25" fill="#f7c59f" fill-opacity="0.5" stroke-opacity="0.5" />
  <polygon points="213.76313972081442,35.75 209.0,38.5 204.23686027918558,35.75 204.23686027918558,30.25 209.0,27.5 213.76313972081442,30.25" fill="#f7c59f" fill-opacity="0.5" stroke-opacity="0.5" />
  <polygon points="235.76313972081442,35.75 231.0,38.5 226.23686027918558,35.75 226.23686027918558,30.25 231.0,27.5 235.76313972081442,30.25" fill="#f7c59f" fill-opacity="0.5" stroke-opacity="0.5" />
  <polygon points="257.7631397208144,35.75 253.0,38.5 248.23686027918558,35.75 248.23686027918558,30.25 253.0,27.5 257.7631397208144,30.25" fill="#f7c59f" fill-opacity="0.5" stroke-opacity="0.5" />
  <circle cx="11.0" cy="55.0" r="3.0" fill="#ff6b35" opacity="0.6" />
  <line x1="0.0" y1="44.0" x2="22.0" y2="66.0" stroke="#8e7dbe" stroke-width="1.0" stroke-linecap="round" opacity="0.4" />
  <circle cx="33.0" cy="55.0" r="3.0" fill="#ff6b35" opacity="0.6" />
  <line x1="22.0" y1="44.0" x2="44.0" y2="66.0" stroke="#8e7dbe" stroke-width="1.0" stroke-linecap="round" opacity="0.4" />
  <circle cx="55.0" cy="55.0" r="3.0" fill="#ff6b35" opacity="0.6" />
  <line x1="44.0" y1="44.0" x2="66.0" y2="66.0" stroke="#8e7dbe" stroke-width="1.0" stroke-linecap="round" opacity="0.4" />
  <circle cx="77.0" cy="55.0" r="3.0" fill="#ff6b35" opacity="0.6" />
  <line x1="66.0" y1="44.0" x2="88.0" y2="66.0" stroke="#8e7dbe" stroke-width="1.0" stroke-linecap="round" opacity="0.4" />
  <circle cx="99.0" cy="55.0" r="3.0" fill="#ff6b35" opacity="0.6" />
  <line x1="88.0" y1="44.0" x2="110.0" y2="66.0" stroke="#8e7dbe" stroke-width="1.0" stroke-linecap="round" opacity="0.4" />
  <polygon points="125.76313972081441,57.75 121.0,60.5 116.23686027918559,57.75 116.23686027918559,52.25 121.0,49.5 125.76313972081441,52.25" fill="#f7c59f" fill-opacity="0.5" stroke-opacity="0.5" />
  <polygon points="147.76313972081442,57.75 143.0,60.5 138.23686027918558,57.75 138.23686027918558,52.25 143.0,49.5 147.76313972081442,52.25" fill="#f7c59f" fill-opacity="0.5" stroke-opacity="0.5" />
  <polygon points="169.76313972081442,57.75 165.0,60.5 160.23686027918558,57.75 160.23686027918558,52.25 165.0,49.5 169.76313972081442,52.25" fill="#f7c59f" fill-opacity="0.5" stroke-opacity="0.5" />
  <polygon points="191.76313972081442,57.75 187.0,60.5 182.23686027918558,57.75 182.23686027918558,52.25 187.0,49.5 191.76313972081442,52.25" fill="#f7c59f" fill-opacity="0.5" stroke-opacity="0.5" />
  <polygon points="213.76313972081442,57.75 209.0,60.5 204.23686027918558,57.75 204.23686027918558,52.25 209.0,49.5 213.76313972081442,52.25" fill="#f7c59f" fill-opacity="0.5" stroke-opacity="0.5" />
  <polygon points="235.76313972081442,57.75 231.0,60.5 226.23686027918558,57.75 226.23686027918558,52.25 231.0,49.5 235.76313972081442,52.25" fill="#f7c59f" fill-opacity="0.5" stroke-opacity="0.5" />
  <polygon points="257.7631397208144,57.75 253.0,60.5 248.23686027918558,57.75 248.23686027918558,52.25 253.0,49.5 257.7631397208144,52.25" fill="#f7c59f" fill-opacity="0.5" stroke-opacity="0.5" />
  <circle cx="11.0" cy="77.0" r="3.0" fill="#ff6b35" opacity="0.6" />
  <line x1="0.0" y1="66.0" x2="22.0" y2="88.0" stroke="#8e7dbe" stroke-width="1.0" stroke-linecap="round" opacity="0.4" />
  <circle cx="33.0" cy="77.0" r="3.0" fill="#ff6b35" opacity="0.6" />
  <line x1="22.0" y1="66.0" x2="44.0" y2="88.0" stroke="#8e7dbe" stroke-width="1.0" stroke-linecap="round" opacity="0.4" />
  <circle cx="55.0" cy="77.0" r="3.0" fill="#ff6b35" opacity="0.6" />
  <line x1="44.0" y1="66.0" x2="66.0" y2="88.0" stroke="#8e7dbe" stroke-width="1.0" stroke-linecap="round" opacity="0.4" />
  <polygon points="81.76313972081441,79.75 77.0,82.5 72.23686027918559,79.75 72.23686027918559,74.25 77.0,71.5 81.76313972081441,74.25" fill="#f7c59f" fill-opacity="0.5" stroke-opacity="0.5" />
  <polygon points="103.76313972081441,79.75 99.0,82.5 94.23686027918559,79.75 94.23686027918559,74.25 99.0,71.5 103.76313972081441,74.25" fill="#f7c59f" fill-opacity="0.5" stroke-opacity="0.5" />
  <polygon points="125.76313972081441,79.75 121.0,82.5 116.23686027918559,79.75 116.23686027918559,74.25 121.0,71.5 125.76313972081441,74.25" fill="#f7c59f" fill-opacity="0.5" stroke-opacity="0.5" />
  <polygon points="147.76313972081442,79.75 143.0,82.5 138.23686027918558,79.75 138.23686027918558,74.25 143.0,71.5 147.76313972081442,74.25" fill="#f7c59f" fill-opacity="0.5" stroke-opacity="0.5" />
  <polygon points="169.76313972081442,79.75 165.0,82.5 160.23686027918558,79.75 160.23686027918558,74.25 165.0,71.5 169.76313972081442,74.25" fill="#f7c59f" fill-opacity="0.5" stroke-opacity="0.5" />
  <polygon points="191.76313972081442,79.75 187.0,82.5 182.23686027918558,79.75 182.23686027918558,74.25 187.0,71.5 191.76313972081442,74.25" fill="#f7c59f" fill-opacity="0.5" stroke-opacity="0.5" />
  <polygon points="213.76313972081442,79.75 209.0,82.5 204.23686027918558,79.75 204.23686027918558,74.25 209.0,71.5 213.76313972081442,74.25" fill="#f7c59f" fill-opacity="0.5" stroke-opacity="0.5" />
  <circle cx="231.0" cy="77.0" r="7.0" fill="#efa00b" opacity="0.9" />
  <circle cx="253.0" cy="77.0" r="7.0" fill="#efa00b" opacity="0.9" />
  <circle cx="11.0" cy="99.0" r="3.0" fill="#ff6b35" opacity="0.6" />
  <line x1="0.0" y1="88.0" x2="22.0" y2="110.0" stroke="#8e7dbe" stroke-width="1.0" stroke-linecap="round" opacity="0.4" />
  <polygon points="37.763139720814415,101.75 33.0,104.5 28.23686027918559,101.75 28.236860279185585,96.25 33.0,93.5 37.763139720814415,96.25" fill="#f7c59f" fill-opacity="0.5" stroke-opacity="0.5" />
  <polygon points="59.763139720814415,101.75 55.0,104.5 50.23686027918559,101.75 50.236860279185585,96.25 55.0,93.5 59.763139720814415,96.25" fill="#f7c59f" fill-opacity="0.5" stroke-opacity="0.5" />
  <polygon points="81.76313972081441,101.75 77.0,104.5 72.23686027918559,101.75 72.23686027918559,96.25 77.0,93.5 81.76313972081441,96.25" fill="#f7c59f" fill-opacity="0.5" stroke-opacity="0.5" />
  <polygon points="103.76313972081441,101.75 99.0,104.5 94.23686027918559,101.75 94.23686027918559,96.25 99.0,93.5 103.76313972081441,96.25" fill="#f7c59f" fill-opacity="0.5" stroke-opacity="0.5" />
  <polygon points="125.76313972081441,101.75 121.0,104.5 116.23686027918559,101.75 116.23686027918559,96.25 121.0,93.5 125.76313972081441,96.25" fill="#f7c59f" fill-opacity="0.5" stroke-opacity="0.5" />
  <polygon points="147.76313972081442,101.75 143.0,104.5 138.23686027918558,101.75 138.23686027918558,96.25 143.0,93.5 147.76313972081442,96.25" fill="#f7c59f" fill-opacity="0.5" stroke-opacity="0.5" />
  <polygon points="169.76313972081442,101.75 165.0,104.5 160.23686027918558,101.75 160.23686027918558,96.25 165.0,93.5 169.76313972081442,96.25" fill="#f7c59f" fill-opacity="0.5" stroke-opacity="0.5" />
  <polygon points="191.76313972081442,101.75 187.0,104.5 182.23686027918558,101.75 182.23686027918558,96.25 187.0,93.5 191.76313972081442,96.25" fill="#f7c59f" fill-opacity="0.5" stroke-opacity="0.5" />
  <circle cx="209.0" cy="99.0" r="7.0" fill="#efa00b" opacity="0.9" />
  <circle cx="231.0" cy="99.0" r="7.0" fill="#efa00b" opacity="0.9" />
  <circle cx="253.0" cy="99.0" r="7.0" fill="#efa00b" opacity="0.9" />
  <polygon points="15.763139720814413,123.75 11.0,126.5 6.2368602791855885,123.75 6.236860279185587,118.25 10.999999999999998,115.5 15.763139720814413,118.25" fill="#f7c59f" fill-opacity="0.5" stroke-opacity="0.5" />
  <polygon points="37.763139720814415,123.75 33.0,126.5 28.23686027918559,123.75 28.236860279185585,118.25 33.0,115.5 37.763139720814415,118.25" fill="#f7c59f" fill-opacity="0.5" stroke-opacity="0.5" />
  <polygon points="59.763139720814415,123.75 55.0,126.5 50.23686027918559,123.75 50.236860279185585,118.25 55.0,115.5 59.763139720814415,118.25" fill="#f7c59f" fill-opacity="0.5" stroke-opacity="0.5" />
  <polygon points="81.76313972081441,123.75 77.0,126.5 72.23686027918559,123.75 72.23686027918559,118.25 77.0,115.5 81.76313972081441,118.25" fill="#f7c59f" fill-opacity="0.5" stroke-opacity="0.5" />
  <polygon points="103.76313972081441,123.75 99.0,126.5 94.23686027918559,123.75 94.23686027918559,118.25 99.0,115.5 103.76313972081441,118.25" fill="#f7c59f" fill-opacity="0.5" stroke-opacity="0.5" />
  <polygon points="125.76313972081441,123.75 121.0,126.5 116.23686027918559,123.75 116.23686027918559,118.25 121.0,115.5 125.76313972081441,118.25" fill="#f7c59f" fill-opacity="0.5" stroke-opacity="0.5" />
  <polygon points="147.76313972081442,123.75 143.0,126.5 138.23686027918558,123.75 138.23686027918558,118.25 143.0,115.5 147.76313972081442,118.25" fill="#f7c59f" fill-opacity="0.5" stroke-opacity="0.5" />
  <circle cx="165.0" cy="121.0" r="7.0" fill="#efa00b" opacity="0.9" />
  <circle cx="187.0" cy="121.0" r="7.0" fill="#efa00b" opacity="0.9" />
  <circle cx="209.0" cy="121.0" r="7.0" fill="#efa00b" opacity="0.9" />
  <circle cx="231.0" cy="121.0" r="7.0" fill="#efa00b" opacity="0.9" />
  <circle cx="253.0" cy="121.0" r="7.0" fill="#efa00b" opacity="0.9" />
  <polygon points="15.763139720814413,145.75 11.0,148.5 6.2368602791855885,145.75 6.236860279185587,140.25 10.999999999999998,137.5 15.763139720814413,140.25" fill="#f7c59f" fill-opacity="0.5" stroke-opacity="0.5" />
  <polygon points="37.763139720814415,145.75 33.0,148.5 28.23686027918559,145.75 28.236860279185585,140.25 33.0,137.5 37.763139720814415,140.25" fill="#f7c59f" fill-opacity="0.5" stroke-opacity="0.5" />
  <polygon points="59.763139720814415,145.75 55.0,148.5 50.23686027918559,145.75 50.236860279185585,140.25 55.0,137.5 59.763139720814415,140.25" fill="#f7c59f" fill-opacity="0.5" stroke-opacity="0.5" />
  <polygon points="81.76313972081441,145.75 77.0,148.5 72.23686027918559,145.75 72.23686027918559,140.25 77.0,137.5 81.76313972081441,140.25" fill="#f7c59f" fill-opacity="0.5" stroke-opacity="0.5" />
  <polygon points="103.76313972081441,145.75 99.0,148.5 94.23686027918559,145.75 94.23686027918559,140.25 99.0,137.5 103.76313972081441,140.25" fill="#f7c59f" fill-opacity="0.5" stroke-opacity="0.5" />
  <polygon points="125.76313972081441,145.75 121.0,148.5 116.23686027918559,145.75 116.23686027918559,140.25 121.0,137.5 125.76313972081441,140.25" fill="#f7c59f" fill-opacity="0.5" stroke-opacity="0.5" />
  <circle cx="143.0" cy="143.0" r="7.0" fill="#efa00b" opacity="0.9" />
  <circle cx="165.0" cy="143.0" r="7.0" fill="#efa00b" opacity="0.9" />
  <circle cx="187.0" cy="143.0" r="7.0" fill="#efa00b" opacity="0.9" />
  <circle cx="209.0" cy="143.0" r="7.0" fill="#efa00b" opacity="0.9" />
  <circle cx="231.0" cy="143.0" r="7.0" fill="#efa00b" opacity="0.9" />
  <circle cx="253.0" cy="143.0" r="7.0" fill="#efa00b" opacity="0.9" />
  <polygon points="15.763139720814413,167.75 11.0,170.5 6.2368602791855885,167.75 6.236860279185587,162.25 10.999999999999998,159.5 15.763139720814413,162.25" fill="#f7c59f" fill-opacity="0.5" stroke-opacity="0.5" />
  <polygon points="37.763139720814415,167.75 33.0,170.5 28.23686027918559,167.75 28.236860279185585,162.25 33.0,159.5 37.763139720814415,162.25" fill="#f7c59f" fill-opacity="0.5" stroke-opacity="0.5" />
  <polygon points="59.763139720814415,167.75 55.0,170.5 50.23686027918559,167.75 50.236860279185585,162.25 55.0,159.5 59.763139720814415,162.25" fill="#f7c59f" fill-opacity="0.5" stroke-opacity="0.5" />
  <polygon points="81.76313972081441,167.75 77.0,170.5 72.23686027918559,167.75 72.23686027918559,162.25 77.0,159.5 81.76313972081441,162.25" fill="#f7c59f" fill-opacity="0.5" stroke-opacity="0.5" />
  <circle cx="99.0" cy="165.0" r="7.0" fill="#efa00b" opacity="0.9" />
  <circle cx="121.0" cy="165.0" r="7.0" fill="#efa00b" opacity="0.9" />
  <circle cx="143.0" cy="165.0" r="7.0" fill="#efa00b" opacity="0.9" />
  <circle cx="165.0" cy="165.0" r="7.0" fill="#efa00b" opacity="0.9" />
  <circle cx="187.0" cy="165.0" r="7.0" fill="#efa00b" opacity="0.9" />
  <circle cx="209.0" cy="165.0" r="7.0" fill="#efa00b" opacity="0.9" />
  <circle cx="231.0" cy="165.0" r="7.0" fill="#efa00b" opacity="0.9" />
  <circle cx="253.0" cy="165.0" r="7.0" fill="#efa00b" opacity="0.9" />
</svg>