<?xml version="1.0" encoding="UTF-8"?>
<svg xmlns="http://www.w3.org/2000/svg" width="264" height="88" viewBox="0 0 264 88">
  <rect width="100%" height="100%" fill="#0a1628" />
  <rect x="0.15" y="0.15" width="43.7" height="43.7" fill="none" stroke="#1a3a52" stroke-width="0.3" fill-opacity="0.3" stroke-opacity="0.3" />
  <circle cx="22" cy="22" r="11" fill="#00d9ff" />
  <text x="22" y="44" font-size="8.8" font-family="sans-serif" font-style="normal" font-weight="normal" fill="#aaaacc" text-anchor="middle" dominant-baseline="auto">Dot</text>
  <rect x="44.15" y="0.15" width="43.7" height="43.7" fill="none" stroke="#1a3a52" stroke-width="0.3" fill-opacity="0.3" stroke-opacity="0.3" />
  <line x1="44" y1="44" x2="88" y2="0" stroke="#00d9ff" stroke-width="3" stroke-linecap="round" transform="translate(66,22) scale(0.93617) translate(-66,-22)" />
  <text x="66" y="44" font-size="8.8" font-family="sans-serif" font-style="normal" font-weight="normal" fill="#aaaacc" text-anchor="middle" dominant-baseline="auto">Line</text>
  <rect x="88.15" y="0.15" width="43.7" height="43.7" fill="none" stroke="#1a3a52" stroke-width="0.3" fill-opacity="0.3" stroke-opacity="0.3" />
  <path d="M 88 44 Q 121 33 132 0" fill="none" stroke="#00d9ff" stroke-width="2" stroke-linecap="round" transform="translate(110,22) scale(0.956522) translate(-110,-22)" />
  <text x="110" y="44" font-size="8.8" font-family="sans-serif" font-style="normal" font-weight="normal" fill="#aaaacc" text-anchor="middle" dominant-baseline="auto">Curve</text>
  <rect x="132.15" y="0.15" width="43.7" height="43.7" fill="none" stroke="#1a3a52" stroke-width="0.3" fill-opacity="0.3" stroke-opacity="0.3" />
  <text x="154" y="22" font-size="19.8" font-family="sans-serif" font-style="normal" font-weight="bold" fill="#00d9ff" text-anchor="middle" dominant-baseline="middle">Aa</text>
  <text x="154" y="44" font-size="8.8" font-family="sans-serif" font-style="normal" font-weight="normal" fill="#aaaacc" text-anchor="middle" dominant-baseline="auto">Text</text>
  <rect x="176.15" y="0.15" width="43.7" height="43.7" fill="none" stroke="#1a3a52" stroke-width="0.3" fill-opacity="0.3" stroke-opacity="0.3" />
  <rect x="176" y="0" width="44" height="44" fill="#00d9ff" fill-opacity="0.5" stroke-opacity="0.5" />
  <text x="198" y="44" font-size="8.8" font-family="sans-serif" font-style="normal" font-weight="normal" fill="#aaaacc" text-anchor="middle" dominant-baseline="auto">Fill</text>
  <rect x="220.15" y="0.15" width="43.7" height="43.7" fill="none" stroke="#1a3a52" stroke-width="0.3" fill-opacity="0.3" stroke-opacity="0.3" />
  <rect x="221" y="1" width="42" height="42" fill="none" stroke="#00d9ff" stroke-width="2" />
  <text x="242" y="44" font-size="8.8" font-family="sans-serif" font-style="normal" font-weight="normal" fill="#aaaacc" text-anchor="middle" dominant-baseline="auto">Border</text>
  <rect x="0.15" y="44.15" width="43.7" height="43.7" fill="none" stroke="#1a3a52" stroke-width="0.3" fill-opacity="0.3" stroke-opacity="0.3" />
  <rect x="7.04" y="53.9" width="29.92" height="24.2" fill="#90e0ef" />
  <text x="22" y="88" font-size="8.8" font-family="sans-serif" font-style="normal" font-weight="normal" fill="#aaaacc" text-anchor="middle" dominant-baseline="auto">Rect</text>
  <rect x="44.15" y="44.15" width="43.7" height="43.7" fill="none" stroke="#1a3a52" stroke-width="0.3" fill-opacity="0.3" stroke-opacity="0.3" />
  <ellipse cx="66" cy="66" rx="15.84" ry="11.88" fill="#90e0ef" />
  <text x="66" y="88" font-size="8.8" font-family="sans-serif" font-style="normal" font-weight="normal" fill="#aaaacc" text-anchor="middle" dominant-baseline="auto">Ellipse</text>
  <rect x="88.15" y="44.15" width="43.7" height="43.7" fill="none" stroke="#1a3a52" stroke-width="0.3" fill-opacity="0.3" stroke-opacity="0.3" />
  <polygon points="121.432,72.6 110,79.2 98.5685,72.6 98.5685,59.4 110,52.8 121.432,59.4" fill="#90e0ef" />
  <text x="110" y="88" font-size="8.8" font-family="sans-serif" font-style="normal" font-weight="normal" fill="#aaaacc" text-anchor="middle" dominant-baseline="auto">Polygon</text>
  <rect x="132.15" y="44.15" width="43.7" height="43.7" fill="none" stroke="#1a3a52" stroke-width="0.3" fill-opacity="0.3" stroke-opacity="0.3" />
  <text x="154" y="88" font-size="8.8" font-family="sans-serif" font-style="normal" font-weight="normal" fill="#aaaacc" text-anchor="middle" dominant-baseline="auto">  </text>
  <rect x="176.15" y="44.15" width="43.7" height="43.7" fill="none" stroke="#1a3a52" stroke-width="0.3" fill-opacity="0.3" stroke-opacity="0.3" />
  <text x="198" y="88" font-size="8.8" font-family="sans-serif" font-style="normal" font-weight="normal" fill="#aaaacc" text-anchor="middle" dominant-baseline="auto">  </text>
  <rect x="220.15" y="44.15" width="43.7" height="43.7" fill="none" stroke="#1a3a52" stroke-width="0.3" fill-opacity="0.3" stroke-opacity="0.3" />
  <text x="242" y="88" font-size="8.8" font-family="sans-serif" font-style="normal" font-weight="normal" fill="#aaaacc" text-anchor="middle" dominant-baseline="auto">  </text>
</svg>