<?xml version="1.0" encoding="UTF-8"?>
<svg xmlns="http://www.w3.org/2000/svg" width="176" height="176" viewBox="0 0 176 176">
  <rect width="100%" height="100%" fill="#1a2e1a" />
  <polygon points="16.715767664977296,14.299999999999997 11.0,17.6 5.284232335022707,14.300000000000002 5.284232335022704,7.700000000000002 10.999999999999998,4.4 16.715767664977296,7.700000000000002" fill="#4ade80" fill-opacity="0.5" stroke-opacity="0.5" />
  <rect x="0" y="0" width="22.0" height="22.0" fill="none" stroke="#2d4a2d" stroke-width="0.5" />
  <circle cx="33.0" cy="11.0" r="2.357142857142857" fill="#fbbf24" opacity="0.4428571428571429" />
  <rect x="22" y="0" width="22.0" height="22.0" fill="none" stroke="#2d4a2d" stroke-width="0.5" />
  <polygon points="61.124036783904245,14.535714285714285 55.0,18.07142857142857 48.875963216095755,14.535714285714288 48.875963216095755,7.464285714285717 55.0,3.9285714285714293 61.124036783904245,7.464285714285717" fill="#4ade80" fill-opacity="0.5714285714285714" stroke-opacity="0.5714285714285714" />
  <rect x="44" y="0" width="22.0" height="22.0" fill="none" stroke="#2d4a2d" stroke-width="0.5" />
  <circle cx="77.0" cy="11.0" r="3.071428571428571" fill="#fbbf24" opacity="0.5285714285714286" />
  <rect x="66" y="0" width="22.0" height="22.0" fill="none" stroke="#2d4a2d" stroke-width="0.5" />
  <polygon points="105.5323059028312,14.77142857142857 99.0,18.542857142857144 92.4676940971688,14.771428571428572 92.4676940971688,7.2285714285714295 99.0,3.4571428571428573 105.5323059028312,7.228571428571431" fill="#4ade80" fill-opacity="0.6428571428571428" stroke-opacity="0.6428571428571428" />
  <rect x="88" y="0" width="22.0" height="22.0" fill="none" stroke="#2d4a2d" stroke-width="0.5" />
  <circle cx="121.0" cy="11.0" r="3.7857142857142856" fill="#fbbf24" opacity="0.6142857142857143" />
  <rect x="110" y="0" width="22.0" height="22.0" fill="none" stroke="#2d4a2d" stroke-width="0.5" />
  <polygon points="149.94057502175815,15.007142857142858 143.0,19.014285714285716 136.05942497824185,15.00714285714286 136.05942497824185,6.992857142857145 143.0,2.985714285714286 149.94057502175815,6.992857142857145" fill="#4ade80" fill-opacity="0.7142857142857143" stroke-opacity="0.7142857142857143" />
  <rect x="132" y="0" width="22.0" height="22.0" fill="none" stroke="#2d4a2d" stroke-width="0.5" />
  <circle cx="165.0" cy="11.0" r="4.5" fill="#fbbf24" opacity="0.7" />
  <rect x="154" y="0" width="22.0" height="22.0" fill="none" stroke="#2d4a2d" stroke-width="0.5" />
  <circle cx="11.0" cy="33.0" r="2.357142857142857" fill="#fbbf24" opacity="0.4428571428571429" />
  <rect x="0" y="22" width="22.0" height="22.0" fill="none" stroke="#2d4a2d" stroke-width="0.5" />
  <polygon points="39.124036783904245,36.535714285714285 33.0,40.07142857142857 26.87596321609576,36.53571428571429 26.875963216095755,29.464285714285715 33.0,25.92857142857143 39.124036783904245,29.464285714285715" fill="#4ade80" fill-opacity="0.5714285714285714" stroke-opacity="0.5714285714285714" />
  <circle cx="55.0" cy="33.0" r="3.071428571428571" fill="#fbbf24" opacity="0.5285714285714286" />
  <polygon points="83.5323059028312,36.77142857142857 77.0,40.542857142857144 70.4676940971688,36.77142857142857 70.4676940971688,29.228571428571428 77.0,25.457142857142856 83.5323059028312,29.22857142857143" fill="#4ade80" fill-opacity="0.6428571428571428" stroke-opacity="0.6428571428571428" />
  <circle cx="99.0" cy="33.0" r="3.7857142857142856" fill="#fbbf24" opacity="0.6142857142857143" />
  <polygon points="127.94057502175815,37.00714285714286 121.0,41.01428571428572 114.05942497824186,37.00714285714286 114.05942497824185,28.992857142857144 121.0,24.985714285714288 127.94057502175815,28.992857142857144" fill="#4ade80" fill-opacity="0.7142857142857143" stroke-opacity="0.7142857142857143" />
  <circle cx="143.0" cy="33.0" r="4.5" fill="#fbbf24" opacity="0.7" />
  <polygon points="172.3488441406851,37.24285714285714 165.0,41.48571428571428 157.6511558593149,37.24285714285715 157.6511558593149,28.75714285714286 165.0,24.514285714285716 172.3488441406851,28.75714285714286" fill="#4ade80" fill-opacity="0.7857142857142857" stroke-opacity="0.7857142857142857" />
  <rect x="154" y="22" width="22.0" height="22.0" fill="none" stroke="#2d4a2d" stroke-width="0.5" />
  <polygon points="17.124036783904245,58.535714285714285 11.0,62.07142857142857 4.875963216095758,58.53571428571429 4.875963216095755,51.464285714285715 10.999999999999998,47.92857142857143 17.124036783904245,51.464285714285715" fill="#4ade80" fill-opacity="0.5714285714285714" stroke-opacity="0.5714285714285714" />
  <rect x="0" y="44" width="22.0" height="22.0" fill="none" stroke="#2d4a2d" stroke-width="0.5" />
  <circle cx="33.0" cy="55.0" r="3.071428571428571" fill="#fbbf24" opacity="0.5285714285714286" />
  <polygon points="61.5323059028312,58.77142857142857 55.0,62.542857142857144 48.46769409716881,58.77142857142857 48.4676940971688,51.22857142857143 55.0,47.457142857142856 61.5323059028312,51.22857142857143" fill="#4ade80" fill-opacity="0.6428571428571428" stroke-opacity="0.6428571428571428" />
  <circle cx="77.0" cy="55.0" r="3.7857142857142856" fill="#fbbf24" opacity="0.6142857142857143" />
  <polygon points="105.94057502175815,59.00714285714286 99.0,63.01428571428572 92.05942497824186,59.00714285714286 92.05942497824185,50.99285714285715 99.0,46.98571428571429 105.94057502175815,50.99285714285715" fill="#4ade80" fill-opacity="0.7142857142857143" stroke-opacity="0.7142857142857143" />
  <circle cx="121.0" cy="55.0" r="4.5" fill="#fbbf24" opacity="0.7" />
  <polygon points="150.3488441406851,59.24285714285714 143.0,63.48571428571428 135.6511558593149,59.24285714285715 135.6511558593149,50.75714285714286 143.0,46.51428571428571 150.3488441406851,50.75714285714286" fill="#4ade80" fill-opacity="0.7857142857142857" stroke-opacity="0.7857142857142857" />
  <circle cx="165.0" cy="55.0" r="5.2142857142857135" fill="#fbbf24" opacity="0.7857142857142857" />
  <rect x="154" y="44" width="22.0" height="22.0" fill="none" stroke="#2d4a2d" stroke-width="0.5" />
  <circle cx="11.0" cy="77.0" r="3.071428571428571" fill="#fbbf24" opacity="0.5285714285714286" />
  <rect x="0" y="66" width="22.0" height="22.0" fill="none" stroke="#2d4a2d" stroke-width="0.5" />
  <polygon points="39.5323059028312,80.77142857142857 33.0,84.54285714285714 26.467694097168806,80.77142857142857 26.467694097168803,73.22857142857143 33.0,69.45714285714286 39.5323059028312,73.22857142857143" fill="#4ade80" fill-opacity="0.6428571428571428" stroke-opacity="0.6428571428571428" />
  <circle cx="55.0" cy="77.0" r="3.7857142857142856" fill="#fbbf24" opacity="0.6142857142857143" />
  <polygon points="83.94057502175815,81.00714285714285 77.0,85.01428571428572 70.05942497824186,81.00714285714287 70.05942497824185,72.99285714285715 77.0,68.98571428571428 83.94057502175815,72.99285714285715" fill="#4ade80" fill-opacity="0.7142857142857143" stroke-opacity="0.7142857142857143" />
  <circle cx="99.0" cy="77.0" r="4.5" fill="#fbbf24" opacity="0.7" />
  <polygon points="128.3488441406851,81.24285714285715 121.0,85.48571428571428 113.65115585931491,81.24285714285715 113.65115585931491,72.75714285714287 121.0,68.51428571428572 128.3488441406851,72.75714285714287" fill="#4ade80" fill-opacity="0.7857142857142857" stroke-opacity="0.7857142857142857" />
  <circle cx="143.0" cy="77.0" r="5.2142857142857135" fill="#fbbf24" opacity="0.7857142857142857" />
  <polygon points="172.75711325961205,81.47857142857143 165.0,85.95714285714286 157.24288674038795,81.47857142857143 157.24288674038795,72.52142857142857 165.0,68.04285714285714 172.75711325961205,72.52142857142857" fill="#4ade80" fill-opacity="0.8571428571428572" stroke-opacity="0.8571428571428572" />
  <rect x="154" y="66" width="22.0" height="22.0" fill="none" stroke="#2d4a2d" stroke-width="0.5" />
  <polygon points="17.532305902831197,102.77142857142857 11.0,106.54285714285714 4.467694097168807,102.77142857142857 4.467694097168804,95.22857142857143 10.999999999999998,91.45714285714286 17.532305902831197,95.22857142857143" fill="#4ade80" fill-opacity="0.6428571428571428" stroke-opacity="0.6428571428571428" />
  <rect x="0" y="88" width="22.0" height="22.0" fill="none" stroke="#2d4a2d" stroke-width="0.5" />
  <circle cx="33.0" cy="99.0" r="3.7857142857142856" fill="#fbbf24" opacity="0.6142857142857143" />
  <polygon points="61.94057502175814,103.00714285714285 55.0,107.01428571428572 48.05942497824186,103.00714285714287 48.05942497824186,94.99285714285715 55.0,90.98571428571428 61.94057502175814,94.99285714285715" fill="#4ade80" fill-opacity="0.7142857142857143" stroke-opacity="0.7142857142857143" />
  <circle cx="77.0" cy="99.0" r="4.5" fill="#fbbf24" opacity="0.7" />
  <polygon points="106.34884414068509,103.24285714285715 99.0,107.48571428571428 91.65115585931491,103.24285714285715 91.65115585931491,94.75714285714287 99.0,90.51428571428572 106.34884414068509,94.75714285714287" fill="#4ade80" fill-opacity="0.7857142857142857" stroke-opacity="0.7857142857142857" />
  <circle cx="121.0" cy="99.0" r="5.2142857142857135" fill="#fbbf24" opacity="0.7857142857142857" />
  <polygon points="150.75711325961205,103.47857142857143 143.0,107.95714285714286 135.24288674038795,103.47857142857143 135.24288674038795,94.52142857142857 143.0,90.04285714285714 150.75711325961205,94.52142857142857" fill="#4ade80" fill-opacity="0.8571428571428571" stroke-opacity="0.8571428571428571" />
  <circle cx="165.0" cy="99.0" r="5.928571428571429" fill="#fbbf24" opacity="0.8714285714285714" />
  <rect x="154" y="88" width="22.0" height="22.0" fill="none" stroke="#2d4a2d" stroke-width="0.5" />
  <circle cx="11.0" cy="121.0" r="3.7857142857142856" fill="#fbbf24" opacity="0.6142857142857143" />
  <rect x="0" y="110" width="22.0" height="22.0" fill="none" stroke="#2d4a2d" stroke-width="0.5" />
  <polygon points="39.94057502175814,125.00714285714285 33.0,129.0142857142857 26.059424978241857,125.00714285714287 26.059424978241857,116.99285714285715 33.0,112.98571428571428 39.94057502175814,116.99285714285715" fill="#4ade80" fill-opacity="0.7142857142857143" stroke-opacity="0.7142857142857143" />
  <circle cx="55.0" cy="121.0" r="4.5" fill="#fbbf24" opacity="0.7" />
  <polygon points="84.34884414068509,125.24285714285715 77.0,129.4857142857143 69.65115585931491,125.24285714285715 69.65115585931491,116.75714285714287 77.0,112.51428571428572 84.34884414068509,116.75714285714287" fill="#4ade80" fill-opacity="0.7857142857142857" stroke-opacity="0.7857142857142857" />
  <circle cx="99.0" cy="121.0" r="5.2142857142857135" fill="#fbbf24" opacity="0.7857142857142857" />
  <polygon points="128.75711325961205,125.47857142857143 121.0,129.95714285714286 113.24288674038796,125.47857142857143 113.24288674038796,116.52142857142857 121.0,112.04285714285714 128.75711325961205,116.52142857142857" fill="#4ade80" fill-opacity="0.8571428571428572" stroke-opacity="0.8571428571428572" />
  <circle cx="143.0" cy="121.0" r="5.928571428571429" fill="#fbbf24" opacity="0.8714285714285714" />
  <polygon points="173.165382378539,125.71428571428572 165.0,130.42857142857144 156.834617621461,125.71428571428572 156.834617621461,116.28571428571429 165.0,111.57142857142857 173.165382378539,116.28571428571429" fill="#4ade80" fill-opacity="0.9285714285714286" stroke-opacity="0.9285714285714286" />
  <rect x="154" y="110" width="22.0" height="22.0" fill="none" stroke="#2d4a2d" stroke-width="0.5" />
  <polygon points="17.940575021758143,147.00714285714287 11.0,151.0142857142857 4.059424978241858,147.00714285714287 4.059424978241855,138.99285714285713 10.999999999999998,134.9857142857143 17.940575021758143,138.99285714285713" fill="#4ade80" fill-opacity="0.7142857142857143" stroke-opacity="0.7142857142857143" />
  <rect x="0" y="132" width="22.0" height="22.0" fill="none" stroke="#2d4a2d" stroke-width="0.5" />
  <circle cx="33.0" cy="143.0" r="4.5" fill="#fbbf24" opacity="0.7" />
  <polygon points="62.348844140685095,147.24285714285713 55.0,151.4857142857143 47.65115585931491,147.24285714285713 47.651155859314905,138.75714285714287 55.0,134.5142857142857 62.348844140685095,138.75714285714287" fill="#4ade80" fill-opacity="0.7857142857142857" stroke-opacity="0.7857142857142857" />
  <circle cx="77.0" cy="143.0" r="5.2142857142857135" fill="#fbbf24" opacity="0.7857142857142857" />
  <polygon points="106.75711325961204,147.47857142857143 99.0,151.95714285714286 91.24288674038796,147.47857142857143 91.24288674038796,138.52142857142857 99.0,134.04285714285714 106.75711325961205,138.52142857142857" fill="#4ade80" fill-opacity="0.8571428571428571" stroke-opacity="0.8571428571428571" />
  <circle cx="121.0" cy="143.0" r="5.928571428571429" fill="#fbbf24" opacity="0.8714285714285714" />
  <polygon points="151.165382378539,147.71428571428572 143.0,152.42857142857144 134.834617621461,147.71428571428572 134.834617621461,138.28571428571428 143.0,133.57142857142858 151.165382378539,138.28571428571428" fill="#4ade80" fill-opacity="0.9285714285714286" stroke-opacity="0.9285714285714286" />
  <circle cx="165.0" cy="143.0" r="6.642857142857143" fill="#fbbf24" opacity="0.9571428571428572" />
  <rect x="154" y="132" width="22.0" height="22.0" fill="none" stroke="#2d4a2d" stroke-width="0.5" />
  <circle cx="11.0" cy="165.0" r="4.5" fill="#fbbf24" opacity="0.7" />
  <rect x="0" y="154" width="22.0" height="22.0" fill="none" stroke="#2d4a2d" stroke-width="0.5" />
  <polygon points="40.348844140685095,169.24285714285713 33.0,173.4857142857143 25.65115585931491,169.24285714285713 25.651155859314905,160.75714285714287 33.0,156.5142857142857 40.348844140685095,160.75714285714287" fill="#4ade80" fill-opacity="0.7857142857142857" stroke-opacity="0.7857142857142857" />
  <rect x="22" y="154" width="22.0" height="22.0" fill="none" stroke="#2d4a2d" stroke-width="0.5" />
  <circle cx="55.0" cy="165.0" r="5.2142857142857135" fill="#fbbf24" opacity="0.7857142857142857" />
  <rect x="44" y="154" width="22.0" height="22.0" fill="none" stroke="#2d4a2d" stroke-width="0.5" />
  <polygon points="84.75711325961204,169.47857142857143 77.0,173.95714285714286 69.24288674038796,169.47857142857143 69.24288674038796,160.52142857142857 77.0,156.04285714285714 84.75711325961205,160.52142857142857" fill="#4ade80" fill-opacity="0.8571428571428572" stroke-opacity="0.8571428571428572" />
  <rect x="66" y="154" width="22.0" height="22.0" fill="none" stroke="#2d4a2d" stroke-width="0.5" />
  <circle cx="99.0" cy="165.0" r="5.928571428571429" fill="#fbbf24" opacity="0.8714285714285714" />
  <rect x="88" y="154" width="22.0" height="22.0" fill="none" stroke="#2d4a2d" stroke-width="0.5" />
  <polygon points="129.165382378539,169.71428571428572 121.0,174.42857142857144 112.834617621461,169.71428571428572 112.834617621461,160.28571428571428 121.0,155.57142857142858 129.165382378539,160.28571428571428" fill="#4ade80" fill-opacity="0.9285714285714286" stroke-opacity="0.9285714285714286" />
  <rect x="110" y="154" width="22.0" height="22.0" fill="none" stroke="#2d4a2d" stroke-width="0.5" />
  <circle cx="143.0" cy="165.0" r="6.642857142857143" fill="#fbbf24" opacity="0.9571428571428572" />
  <rect x="132" y="154" width="22.0" height="22.0" fill="none" stroke="#2d4a2d" stroke-width="0.5" />
  <polygon points="173.57365149746593,169.95 165.0,174.9 156.42634850253407,169.95 156.42634850253407,160.05 165.0,155.1 173.57365149746596,160.05" fill="#4ade80" />
  <rect x="154" y="154" width="22.0" height="22.0" fill="none" stroke="#2d4a2d" stroke-width="0.5" />
</svg>