<?xml version="1.0" encoding="UTF-8"?>
<svg xmlns="http://www.w3.org/2000/svg" width="300" height="200" viewBox="0 0 300 200">
  <rect width="100%" height="100%" fill="#2d1b4e" />
  <polygon points="10.0,4.0 16.0,10.0 10.0,16.0 4.0,10.0" fill="#ff6b35" fill-opacity="0.3" stroke-opacity="0.3" />
  <polygon points="30.0,4.0 36.0,10.0 30.0,16.0 24.0,10.0" fill="#ff6b35" fill-opacity="0.325" stroke-opacity="0.325" />
  <polygon points="50.0,4.0 56.0,10.0 50.0,16.0 44.0,10.0" fill="#ff6b35" fill-opacity="0.35" stroke-opacity="0.35" />
  <polygon points="70.0,4.0 76.0,10.0 70.0,16.0 64.0,10.0" fill="#ff6b35" fill-opacity="0.375" stroke-opacity="0.375" />
  <polygon points="90.0,4.0 96.0,10.0 90.0,16.0 84.0,10.0" fill="#ff6b35" fill-opacity="0.39999999999999997" stroke-opacity="0.39999999999999997" />
  <polygon points="110.0,4.0 116.0,10.0 110.0,16.0 104.0,10.0" fill="#ff6b35" fill-opacity="0.425" stroke-opacity="0.425" />
  <polygon points="130.0,4.0 136.0,10.0 130.0,16.0 124.0,10.0" fill="#ff6b35" fill-opacity="0.44999999999999996" stroke-opacity="0.44999999999999996" />
  <polygon points="150.0,4.0 156.0,10.0 150.0,16.0 144.0,10.0" fill="#ff6b35" fill-opacity="0.475" stroke-opacity="0.475" />
  <polygon points="170.0,4.0 176.0,10.0 170.0,16.0 164.0,10.0" fill="#ff6b35" fill-opacity="0.5" stroke-opacity="0.5" />
  <polygon points="190.0,4.0 196.0,10.0 190.0,16.0 184.0,10.0" fill="#ff6b35" fill-opacity="0.525" stroke-opacity="0.525" />
  <polygon points="210.0,4.0 216.0,10.0 210.0,16.0 204.0,10.0" fill="#ff6b35" fill-opacity="0.55" stroke-opacity="0.55" />
  <polygon points="230.0,4.0 236.0,10.0 230.0,16.0 224.0,10.0" fill="#ff6b35" fill-opacity="0.575" stroke-opacity="0.575" />
  <polygon points="250.0,4.0 256.0,10.0 250.0,16.0 244.0,10.0" fill="#ff6b35" fill-opacity="0.6" stroke-opacity="0.6" />
  <polygon points="270.0,4.0 276.0,10.0 270.0,16.0 264.0,10.0" fill="#ff6b35" fill-opacity="0.625" stroke-opacity="0.625" />
  <polygon points="290.0,4.0 296.0,10.0 290.0,16.0 284.0,10.0" fill="#ff6b35" fill-opacity="0.6499999999999999" stroke-opacity="0.6499999999999999" />
  <polygon points="11.041889066001582,24.091153481926753 15.908846518073247,31.04188906600158 8.958110933998418,35.90884651807325 4.091153481926752,28.95811093399842" fill="#ff6b35" fill-opacity="0.33888888888888885" stroke-opacity="0.33888888888888885" />
  <polygon points="31.04188906600158,24.091153481926753 35.90884651807325,31.04188906600158 28.95811093399842,35.90884651807325 24.091153481926753,28.95811093399842" fill="#ff6b35" fill-opacity="0.3638888888888889" stroke-opacity="0.3638888888888889" />
  <polygon points="51.04188906600158,24.091153481926753 55.90884651807325,31.04188906600158 48.95811093399842,35.90884651807325 44.09115348192675,28.95811093399842" fill="#ff6b35" fill-opacity="0.38888888888888884" stroke-opacity="0.38888888888888884" />
  <polygon points="71.04188906600159,24.091153481926753 75.90884651807325,31.04188906600158 68.95811093399841,35.90884651807325 64.09115348192675,28.95811093399842" fill="#ff6b35" fill-opacity="0.41388888888888886" stroke-opacity="0.41388888888888886" />
  <polygon points="91.04188906600159,24.091153481926753 95.90884651807325,31.04188906600158 88.95811093399841,35.90884651807325 84.09115348192675,28.95811093399842" fill="#ff6b35" fill-opacity="0.4388888888888889" stroke-opacity="0.4388888888888889" />
  <polygon points="111.04188906600159,24.091153481926753 115.90884651807325,31.04188906600158 108.95811093399841,35.90884651807325 104.09115348192675,28.95811093399842" fill="#ff6b35" fill-opacity="0.4638888888888889" stroke-opacity="0.4638888888888889" />
  <polygon points="131.04188906600157,24.091153481926753 135.90884651807326,31.04188906600158 128.95811093399843,35.90884651807325 124.09115348192675,28.95811093399842" fill="#ff6b35" fill-opacity="0.4888888888888888" stroke-opacity="0.4888888888888888" />
  <polygon points="151.04188906600157,24.091153481926753 155.90884651807326,31.04188906600158 148.95811093399843,35.90884651807325 144.09115348192674,28.95811093399842" fill="#ff6b35" fill-opacity="0.5138888888888888" stroke-opacity="0.5138888888888888" />
  <polygon points="171.04188906600157,24.091153481926753 175.90884651807326,31.04188906600158 168.95811093399843,35.90884651807325 164.09115348192674,28.95811093399842" fill="#ff6b35" fill-opacity="0.5388888888888889" stroke-opacity="0.5388888888888889" />
  <polygon points="191.04188906600157,24.091153481926753 195.90884651807326,31.04188906600158 188.95811093399843,35.90884651807325 184.09115348192674,28.95811093399842" fill="#ff6b35" fill-opacity="0.5638888888888889" stroke-opacity="0.5638888888888889" />
  <polygon points="211.04188906600157,24.091153481926753 215.90884651807326,31.04188906600158 208.95811093399843,35.90884651807325 204.09115348192674,28.95811093399842" fill="#ff6b35" fill-opacity="0.5888888888888888" stroke-opacity="0.5888888888888888" />
  <polygon points="231.04188906600157,24.091153481926753 235.90884651807326,31.04188906600158 228.95811093399843,35.90884651807325 224.09115348192674,28.95811093399842" fill="#ff6b35" fill-opacity="0.6138888888888888" stroke-opacity="0.6138888888888888" />
  <polygon points="251.04188906600157,24.091153481926753 255.90884651807326,31.04188906600158 248.95811093399843,35.90884651807325 244.09115348192674,28.95811093399842" fill="#ff6b35" fill-opacity="0.6388888888888888" stroke-opacity="0.6388888888888888" />
  <polygon points="271.0418890660016,24.091153481926753 275.90884651807323,31.04188906600158 268.9581109339984,35.90884651807325 264.09115348192677,28.95811093399842" fill="#ff6b35" fill-opacity="0.6638888888888889" stroke-opacity="0.6638888888888889" />
  <polygon points="291.0418890660016,24.091153481926753 295.90884651807323,31.04188906600158 288.9581109339984,35.90884651807325 284.09115348192677,28.95811093399842" fill="#ff6b35" fill-opacity="0.6888888888888889" stroke-opacity="0.6888888888888889" />
  <polygon points="12.052120859954012,44.36184427528455 15.63815572471545,52.052120859954016 7.947879140045988,55.63815572471545 4.361844275284549,47.947879140045984" fill="#ff6b35" fill-opacity="0.37777777777777777" stroke-opacity="0.37777777777777777" />
  <polygon points="32.052120859954016,44.36184427528455 35.63815572471545,52.052120859954016 27.947879140045988,55.63815572471545 24.36184427528455,47.947879140045984" fill="#ff6b35" fill-opacity="0.40277777777777773" stroke-opacity="0.40277777777777773" />
  <polygon points="52.052120859954016,44.36184427528455 55.63815572471545,52.052120859954016 47.947879140045984,55.63815572471545 44.36184427528455,47.947879140045984" fill="#ff6b35" fill-opacity="0.42777777777777776" stroke-opacity="0.42777777777777776" />
  <polygon points="72.05212085995402,44.36184427528455 75.63815572471545,52.052120859954016 67.94787914004598,55.63815572471545 64.36184427528455,47.947879140045984" fill="#ff6b35" fill-opacity="0.4527777777777777" stroke-opacity="0.4527777777777777" />
  <polygon points="92.05212085995402,44.36184427528455 95.63815572471545,52.052120859954016 87.94787914004598,55.63815572471545 84.36184427528455,47.947879140045984" fill="#ff6b35" fill-opacity="0.47777777777777775" stroke-opacity="0.47777777777777775" />
  <polygon points="112.05212085995402,44.36184427528455 115.63815572471545,52.052120859954016 107.94787914004598,55.63815572471545 104.36184427528455,47.947879140045984" fill="#ff6b35" fill-opacity="0.5027777777777778" stroke-opacity="0.5027777777777778" />
  <polygon points="132.05212085995402,44.36184427528455 135.63815572471546,52.052120859954016 127.94787914004598,55.63815572471545 124.36184427528455,47.947879140045984" fill="#ff6b35" fill-opacity="0.5277777777777777" stroke-opacity="0.5277777777777777" />
  <polygon points="152.05212085995402,44.36184427528455 155.63815572471546,52.052120859954016 147.94787914004598,55.63815572471545 144.36184427528454,47.947879140045984" fill="#ff6b35" fill-opacity="0.5527777777777778" stroke-opacity="0.5527777777777778" />
  <polygon points="172.05212085995402,44.36184427528455 175.63815572471546,52.052120859954016 167.94787914004598,55.63815572471545 164.36184427528454,47.947879140045984" fill="#ff6b35" fill-opacity="0.5777777777777777" stroke-opacity="0.5777777777777777" />
  <polygon points="192.05212085995402,44.36184427528455 195.63815572471546,52.052120859954016 187.94787914004598,55.63815572471545 184.36184427528454,47.947879140045984" fill="#ff6b35" fill-opacity="0.6027777777777777" stroke-opacity="0.6027777777777777" />
  <polygon points="212.05212085995402,44.36184427528455 215.63815572471546,52.052120859954016 207.94787914004598,55.63815572471545 204.36184427528454,47.947879140045984" fill="#ff6b35" fill-opacity="0.6277777777777778" stroke-opacity="0.6277777777777778" />
  <polygon points="232.05212085995402,44.36184427528455 235.63815572471546,52.052120859954016 227.94787914004598,55.63815572471545 224.36184427528454,47.947879140045984" fill="#ff6b35" fill-opacity="0.6527777777777777" stroke-opacity="0.6527777777777777" />
  <polygon points="252.05212085995402,44.36184427528455 255.63815572471546,52.052120859954016 247.94787914004598,55.63815572471545 244.36184427528454,47.947879140045984" fill="#ff6b35" fill-opacity="0.6777777777777777" stroke-opacity="0.6777777777777777" />
  <polygon points="272.052120859954,44.36184427528455 275.63815572471543,52.052120859954016 267.947879140046,55.63815572471545 264.36184427528457,47.947879140045984" fill="#ff6b35" fill-opacity="0.7027777777777777" stroke-opacity="0.7027777777777777" />
  <polygon points="292.052120859954,44.36184427528455 295.63815572471543,52.052120859954016 287.947879140046,55.63815572471545 284.36184427528457,47.947879140045984" fill="#ff6b35" fill-opacity="0.7277777777777779" stroke-opacity="0.7277777777777779" />
  <polygon points="13.0,64.80384757729337 15.196152422706632,73.0 7.0,75.19615242270663 4.803847577293368,67.0" fill="#ff6b35" fill-opacity="0.41666666666666663" stroke-opacity="0.41666666666666663" />
  <polygon points="33.0,64.80384757729337 35.19615242270663,73.0 27.0,75.19615242270663 24.803847577293368,67.0" fill="#ff6b35" fill-opacity="0.44166666666666665" stroke-opacity="0.44166666666666665" />
  <polygon points="53.0,64.80384757729337 55.19615242270663,73.0 47.0,75.19615242270663 44.80384757729337,67.0" fill="#ff6b35" fill-opacity="0.4666666666666667" stroke-opacity="0.4666666666666667" />
  <polygon points="73.0,64.80384757729337 75.19615242270663,73.0 67.0,75.19615242270663 64.80384757729337,67.0" fill="#ff6b35" fill-opacity="0.4916666666666666" stroke-opacity="0.4916666666666666" />
  <polygon points="93.0,64.80384757729337 95.19615242270663,73.0 87.0,75.19615242270663 84.80384757729337,67.0" fill="#ff6b35" fill-opacity="0.5166666666666666" stroke-opacity="0.5166666666666666" />
  <polygon points="113.0,64.80384757729337 115.19615242270663,73.0 107.0,75.19615242270663 104.80384757729337,67.0" fill="#ff6b35" fill-opacity="0.5416666666666666" stroke-opacity="0.5416666666666666" />
  <polygon points="133.0,64.80384757729337 135.19615242270663,73.0 127.0,75.19615242270663 124.80384757729337,67.0" fill="#ff6b35" fill-opacity="0.5666666666666667" stroke-opacity="0.5666666666666667" />
  <polygon points="153.0,64.80384757729337 155.19615242270663,73.0 147.0,75.19615242270663 144.80384757729337,67.0" fill="#ff6b35" fill-opacity="0.5916666666666666" stroke-opacity="0.5916666666666666" />
  <polygon points="173.0,64.80384757729337 175.19615242270663,73.0 167.0,75.19615242270663 164.80384757729337,67.0" fill="#ff6b35" fill-opacity="0.6166666666666666" stroke-opacity="0.6166666666666666" />
  <polygon points="193.0,64.80384757729337 195.19615242270663,73.0 187.0,75.19615242270663 184.80384757729337,67.0" fill="#ff6b35" fill-opacity="0.6416666666666666" stroke-opacity="0.6416666666666666" />
  <polygon points="213.0,64.80384757729337 215.19615242270663,73.0 207.0,75.19615242270663 204.80384757729337,67.0" fill="#ff6b35" fill-opacity="0.6666666666666666" stroke-opacity="0.6666666666666666" />
  <polygon points="233.0,64.80384757729337 235.19615242270663,73.0 227.0,75.19615242270663 224.80384757729337,67.0" fill="#ff6b35" fill-opacity="0.6916666666666667" stroke-opacity="0.6916666666666667" />
  <polygon points="253.0,64.80384757729337 255.19615242270663,73.0 247.0,75.19615242270663 244.80384757729337,67.0" fill="#ff6b35" fill-opacity="0.7166666666666666" stroke-opacity="0.7166666666666666" />
  <polygon points="273.0,64.80384757729337 275.19615242270663,73.0 267.0,75.19615242270663 264.80384757729337,67.0" fill="#ff6b35" fill-opacity="0.7416666666666666" stroke-opacity="0.7416666666666666" />
  <polygon points="293.0,64.80384757729337 295.19615242270663,73.0 287.0,75.19615242270663 284.80384757729337,67.0" fill="#ff6b35" fill-opacity="0.7666666666666666" stroke-opacity="0.7666666666666666" />
  <polygon points="13.856725658119235,85.40373334128613 14.59626665871387,93.85672565811923 6.1432743418807645,94.59626665871387 5.403733341286131,86.14327434188077" fill="#ff6b35" fill-opacity="0.4555555555555555" stroke-opacity="0.4555555555555555" />
  <polygon points="33.85672565811924,85.40373334128613 34.59626665871387,93.85672565811923 26.143274341880765,94.59626665871387 25.40373334128613,86.14327434188077" fill="#ff6b35" fill-opacity="0.4805555555555555" stroke-opacity="0.4805555555555555" />
  <polygon points="53.85672565811924,85.40373334128613 54.59626665871387,93.85672565811923 46.14327434188076,94.59626665871387 45.40373334128613,86.14327434188077" fill="#ff6b35" fill-opacity="0.5055555555555555" stroke-opacity="0.5055555555555555" />
  <polygon points="73.85672565811923,85.40373334128613 74.59626665871387,93.85672565811923 66.14327434188077,94.59626665871387 65.40373334128613,86.14327434188077" fill="#ff6b35" fill-opacity="0.5305555555555556" stroke-opacity="0.5305555555555556" />
  <polygon points="93.85672565811923,85.40373334128613 94.59626665871387,93.85672565811923 86.14327434188077,94.59626665871387 85.40373334128613,86.14327434188077" fill="#ff6b35" fill-opacity="0.5555555555555556" stroke-opacity="0.5555555555555556" />
  <polygon points="113.85672565811923,85.40373334128613 114.59626665871387,93.85672565811923 106.14327434188077,94.59626665871387 105.40373334128613,86.14327434188077" fill="#ff6b35" fill-opacity="0.5805555555555555" stroke-opacity="0.5805555555555555" />
  <polygon points="133.85672565811925,85.40373334128613 134.59626665871386,93.85672565811923 126.14327434188077,94.59626665871387 125.40373334128613,86.14327434188077" fill="#ff6b35" fill-opacity="0.6055555555555555" stroke-opacity="0.6055555555555555" />
  <polygon points="153.85672565811925,85.40373334128613 154.59626665871386,93.85672565811923 146.14327434188075,94.59626665871387 145.40373334128614,86.14327434188077" fill="#ff6b35" fill-opacity="0.6305555555555555" stroke-opacity="0.6305555555555555" />
  <polygon points="173.85672565811925,85.40373334128613 174.59626665871386,93.85672565811923 166.14327434188075,94.59626665871387 165.40373334128614,86.14327434188077" fill="#ff6b35" fill-opacity="0.6555555555555554" stroke-opacity="0.6555555555555554" />
  <polygon points="193.85672565811925,85.40373334128613 194.59626665871386,93.85672565811923 186.14327434188075,94.59626665871387 185.40373334128614,86.14327434188077" fill="#ff6b35" fill-opacity="0.6805555555555556" stroke-opacity="0.6805555555555556" />
  <polygon points="213.85672565811925,85.40373334128613 214.59626665871386,93.85672565811923 206.14327434188075,94.59626665871387 205.40373334128614,86.14327434188077" fill="#ff6b35" fill-opacity="0.7055555555555555" stroke-opacity="0.7055555555555555" />
  <polygon points="233.85672565811925,85.40373334128613 234.59626665871386,93.85672565811923 226.14327434188075,94.59626665871387 225.40373334128614,86.14327434188077" fill="#ff6b35" fill-opacity="0.7305555555555556" stroke-opacity="0.7305555555555556" />
  <polygon points="253.85672565811925,85.40373334128613 254.59626665871386,93.85672565811923 246.14327434188075,94.59626665871387 245.40373334128614,86.14327434188077" fill="#ff6b35" fill-opacity="0.7555555555555554" stroke-opacity="0.7555555555555554" />
  <polygon points="273.8567256581192,85.40373334128613 274.5962666587139,93.85672565811923 266.1432743418808,94.59626665871387 265.4037333412861,86.14327434188077" fill="#ff6b35" fill-opacity="0.7805555555555554" stroke-opacity="0.7805555555555554" />
  <polygon points="293.8567256581192,85.40373334128613 294.5962666587139,93.85672565811923 286.1432743418808,94.59626665871387 285.4037333412861,86.14327434188077" fill="#ff6b35" fill-opacity="0.8055555555555556" stroke-opacity="0.8055555555555556" />
  <polygon points="14.59626665871387,106.14327434188077 13.856725658119236,114.59626665871387 5.403733341286132,113.85672565811923 6.143274341880764,105.40373334128613" fill="#ff6b35" fill-opacity="0.49444444444444446" stroke-opacity="0.49444444444444446" />
  <polygon points="34.596266658713866,106.14327434188077 33.85672565811924,114.59626665871387 25.40373334128613,113.85672565811923 26.143274341880762,105.40373334128613" fill="#ff6b35" fill-opacity="0.5194444444444444" stroke-opacity="0.5194444444444444" />
  <polygon points="54.596266658713866,106.14327434188077 53.85672565811924,114.59626665871387 45.403733341286134,113.85672565811923 46.14327434188076,105.40373334128613" fill="#ff6b35" fill-opacity="0.5444444444444444" stroke-opacity="0.5444444444444444" />
  <polygon points="74.59626665871387,106.14327434188077 73.85672565811923,114.59626665871387 65.40373334128613,113.85672565811923 66.14327434188077,105.40373334128613" fill="#ff6b35" fill-opacity="0.5694444444444444" stroke-opacity="0.5694444444444444" />
  <polygon points="94.59626665871387,106.14327434188077 93.85672565811923,114.59626665871387 85.40373334128613,113.85672565811923 86.14327434188077,105.40373334128613" fill="#ff6b35" fill-opacity="0.5944444444444444" stroke-opacity="0.5944444444444444" />
  <polygon points="114.59626665871387,106.14327434188077 113.85672565811923,114.59626665871387 105.40373334128613,113.85672565811923 106.14327434188077,105.40373334128613" fill="#ff6b35" fill-opacity="0.6194444444444445" stroke-opacity="0.6194444444444445" />
  <polygon points="134.59626665871386,106.14327434188077 133.85672565811925,114.59626665871387 125.40373334128613,113.85672565811923 126.14327434188077,105.40373334128613" fill="#ff6b35" fill-opacity="0.6444444444444444" stroke-opacity="0.6444444444444444" />
  <polygon points="154.59626665871386,106.14327434188077 153.85672565811925,114.59626665871387 145.40373334128614,113.85672565811923 146.14327434188075,105.40373334128613" fill="#ff6b35" fill-opacity="0.6694444444444444" stroke-opacity="0.6694444444444444" />
  <polygon points="174.59626665871386,106.14327434188077 173.85672565811925,114.59626665871387 165.40373334128614,113.85672565811923 166.14327434188075,105.40373334128613" fill="#ff6b35" fill-opacity="0.6944444444444444" stroke-opacity="0.6944444444444444" />
  <polygon points="194.59626665871386,106.14327434188077 193.85672565811925,114.59626665871387 185.40373334128614,113.85672565811923 186.14327434188075,105.40373334128613" fill="#ff6b35" fill-opacity="0.7194444444444446" stroke-opacity="0.7194444444444446" />
  <polygon points="214.59626665871386,106.14327434188077 213.85672565811925,114.59626665871387 205.40373334128614,113.85672565811923 206.14327434188075,105.40373334128613" fill="#ff6b35" fill-opacity="0.7444444444444444" stroke-opacity="0.7444444444444444" />
  <polygon points="234.59626665871386,106.14327434188077 233.85672565811925,114.59626665871387 225.40373334128614,113.85672565811923 226.14327434188075,105.40373334128613" fill="#ff6b35" fill-opacity="0.7694444444444444" stroke-opacity="0.7694444444444444" />
  <polygon points="254.59626665871386,106.14327434188077 253.85672565811925,114.59626665871387 245.40373334128614,113.85672565811923 246.14327434188075,105.40373334128613" fill="#ff6b35" fill-opacity="0.7944444444444443" stroke-opacity="0.7944444444444443" />
  <polygon points="274.5962666587139,106.14327434188077 273.8567256581192,114.59626665871387 265.4037333412861,113.85672565811923 266.1432743418808,105.40373334128613" fill="#ff6b35" fill-opacity="0.8194444444444444" stroke-opacity="0.8194444444444444" />
  <polygon points="294.5962666587139,106.14327434188077 293.8567256581192,114.59626665871387 285.4037333412861,113.85672565811923 286.1432743418808,105.40373334128613" fill="#ff6b35" fill-opacity="0.8444444444444443" stroke-opacity="0.8444444444444443" />
  <polygon points="15.196152422706632,127.0 13.0,135.19615242270663 4.803847577293368,133.0 6.999999999999999,124.80384757729337" fill="#ff6b35" fill-opacity="0.5333333333333333" stroke-opacity="0.5333333333333333" />
  <polygon points="35.19615242270663,127.0 33.0,135.19615242270663 24.803847577293368,133.0 27.0,124.80384757729337" fill="#ff6b35" fill-opacity="0.5583333333333333" stroke-opacity="0.5583333333333333" />
  <polygon points="55.19615242270663,127.0 53.0,135.19615242270663 44.80384757729337,133.0 47.0,124.80384757729337" fill="#ff6b35" fill-opacity="0.5833333333333333" stroke-opacity="0.5833333333333333" />
  <polygon points="75.19615242270663,127.0 73.0,135.19615242270663 64.80384757729337,133.0 67.0,124.80384757729337" fill="#ff6b35" fill-opacity="0.6083333333333333" stroke-opacity="0.6083333333333333" />
  <polygon points="95.19615242270663,127.0 93.0,135.19615242270663 84.80384757729337,133.0 87.0,124.80384757729337" fill="#ff6b35" fill-opacity="0.6333333333333333" stroke-opacity="0.6333333333333333" />
  <polygon points="115.19615242270663,127.0 113.0,135.19615242270663 104.80384757729337,133.0 107.0,124.80384757729337" fill="#ff6b35" fill-opacity="0.6583333333333332" stroke-opacity="0.6583333333333332" />
  <polygon points="135.19615242270663,127.0 133.0,135.19615242270663 124.80384757729337,133.0 127.0,124.80384757729337" fill="#ff6b35" fill-opacity="0.6833333333333332" stroke-opacity="0.6833333333333332" />
  <polygon points="155.19615242270663,127.0 153.0,135.19615242270663 144.80384757729337,133.0 147.0,124.80384757729337" fill="#ff6b35" fill-opacity="0.7083333333333333" stroke-opacity="0.7083333333333333" />
  <polygon points="175.19615242270663,127.0 173.0,135.19615242270663 164.80384757729337,133.0 167.0,124.80384757729337" fill="#ff6b35" fill-opacity="0.7333333333333334" stroke-opacity="0.7333333333333334" />
  <polygon points="195.19615242270663,127.0 193.0,135.19615242270663 184.80384757729337,133.0 187.0,124.80384757729337" fill="#ff6b35" fill-opacity="0.7583333333333333" stroke-opacity="0.7583333333333333" />
  <polygon points="215.19615242270663,127.0 213.0,135.19615242270663 204.80384757729337,133.0 207.0,124.80384757729337" fill="#ff6b35" fill-opacity="0.7833333333333332" stroke-opacity="0.7833333333333332" />
  <polygon points="235.19615242270663,127.0 233.0,135.19615242270663 224.80384757729337,133.0 227.0,124.80384757729337" fill="#ff6b35" fill-opacity="0.8083333333333333" stroke-opacity="0.8083333333333333" />
  <polygon points="255.19615242270663,127.0 253.0,135.19615242270663 244.80384757729337,133.0 247.0,124.80384757729337" fill="#ff6b35" fill-opacity="0.8333333333333333" stroke-opacity="0.8333333333333333" />
  <polygon points="275.19615242270663,127.0 273.0,135.19615242270663 264.80384757729337,133.0 267.0,124.80384757729337" fill="#ff6b35" fill-opacity="0.8583333333333334" stroke-opacity="0.8583333333333334" />
  <polygon points="295.19615242270663,127.0 293.0,135.19615242270663 284.80384757729337,133.0 287.0,124.80384757729337" fill="#ff6b35" fill-opacity="0.8833333333333333" stroke-opacity="0.8833333333333333" />
  <polygon points="15.63815572471545,147.94787914004598 12.052120859954012,155.63815572471546 4.36184427528455,152.05212085995402 7.947879140045988,144.36184427528454" fill="#ff6b35" fill-opacity="0.5722222222222222" stroke-opacity="0.5722222222222222" />
  <polygon points="35.638155724715446,147.94787914004598 32.052120859954016,155.63815572471546 24.36184427528455,152.05212085995402 27.947879140045988,144.36184427528454" fill="#ff6b35" fill-opacity="0.5972222222222222" stroke-opacity="0.5972222222222222" />
  <polygon points="55.638155724715446,147.94787914004598 52.052120859954016,155.63815572471546 44.361844275284554,152.05212085995402 47.947879140045984,144.36184427528454" fill="#ff6b35" fill-opacity="0.6222222222222222" stroke-opacity="0.6222222222222222" />
  <polygon points="75.63815572471545,147.94787914004598 72.05212085995402,155.63815572471546 64.36184427528455,152.05212085995402 67.94787914004598,144.36184427528454" fill="#ff6b35" fill-opacity="0.6472222222222221" stroke-opacity="0.6472222222222221" />
  <polygon points="95.63815572471545,147.94787914004598 92.05212085995402,155.63815572471546 84.36184427528455,152.05212085995402 87.94787914004598,144.36184427528454" fill="#ff6b35" fill-opacity="0.6722222222222222" stroke-opacity="0.6722222222222222" />
  <polygon points="115.63815572471545,147.94787914004598 112.05212085995402,155.63815572471546 104.36184427528455,152.05212085995402 107.94787914004598,144.36184427528454" fill="#ff6b35" fill-opacity="0.6972222222222222" stroke-opacity="0.6972222222222222" />
  <polygon points="135.63815572471546,147.94787914004598 132.05212085995402,155.63815572471546 124.36184427528455,152.05212085995402 127.94787914004598,144.36184427528454" fill="#ff6b35" fill-opacity="0.7222222222222221" stroke-opacity="0.7222222222222221" />
  <polygon points="155.63815572471546,147.94787914004598 152.05212085995402,155.63815572471546 144.36184427528454,152.05212085995402 147.94787914004598,144.36184427528454" fill="#ff6b35" fill-opacity="0.7472222222222221" stroke-opacity="0.7472222222222221" />
  <polygon points="175.63815572471546,147.94787914004598 172.05212085995402,155.63815572471546 164.36184427528454,152.05212085995402 167.94787914004598,144.36184427528454" fill="#ff6b35" fill-opacity="0.7722222222222221" stroke-opacity="0.7722222222222221" />
  <polygon points="195.63815572471546,147.94787914004598 192.05212085995402,155.63815572471546 184.36184427528454,152.05212085995402 187.94787914004598,144.36184427528454" fill="#ff6b35" fill-opacity="0.7972222222222223" stroke-opacity="0.7972222222222223" />
  <polygon points="215.63815572471546,147.94787914004598 212.05212085995402,155.63815572471546 204.36184427528454,152.05212085995402 207.94787914004598,144.36184427528454" fill="#ff6b35" fill-opacity="0.8222222222222222" stroke-opacity="0.8222222222222222" />
  <polygon points="235.63815572471546,147.94787914004598 232.05212085995402,155.63815572471546 224.36184427528454,152.05212085995402 227.94787914004598,144.36184427528454" fill="#ff6b35" fill-opacity="0.8472222222222221" stroke-opacity="0.8472222222222221" />
  <polygon points="255.63815572471546,147.94787914004598 252.05212085995402,155.63815572471546 244.36184427528454,152.05212085995402 247.94787914004598,144.36184427528454" fill="#ff6b35" fill-opacity="0.8722222222222222" stroke-opacity="0.8722222222222222" />
  <polygon points="275.63815572471543,147.94787914004598 272.052120859954,155.63815572471546 264.36184427528457,152.05212085995402 267.947879140046,144.36184427528454" fill="#ff6b35" fill-opacity="0.8972222222222221" stroke-opacity="0.8972222222222221" />
  <polygon points="295.63815572471543,147.94787914004598 292.052120859954,155.63815572471546 284.36184427528457,152.05212085995402 287.947879140046,144.36184427528454" fill="#ff6b35" fill-opacity="0.922222222222222" stroke-opacity="0.922222222222222" />
  <polygon points="15.908846518073247,168.95811093399843 11.041889066001582,175.90884651807326 4.091153481926752,171.04188906600157 8.958110933998418,164.09115348192674" fill="#ff6b35" fill-opacity="0.611111111111111" stroke-opacity="0.611111111111111" />
  <polygon points="35.90884651807325,168.95811093399843 31.041889066001584,175.90884651807326 24.091153481926753,171.04188906600157 28.958110933998416,164.09115348192674" fill="#ff6b35" fill-opacity="0.6361111111111111" stroke-opacity="0.6361111111111111" />
  <polygon points="55.90884651807325,168.95811093399843 51.04188906600158,175.90884651807326 44.09115348192675,171.04188906600157 48.95811093399842,164.09115348192674" fill="#ff6b35" fill-opacity="0.661111111111111" stroke-opacity="0.661111111111111" />
  <polygon points="75.90884651807325,168.95811093399843 71.04188906600159,175.90884651807326 64.09115348192675,171.04188906600157 68.95811093399841,164.09115348192674" fill="#ff6b35" fill-opacity="0.686111111111111" stroke-opacity="0.686111111111111" />
  <polygon points="95.90884651807325,168.95811093399843 91.04188906600159,175.90884651807326 84.09115348192675,171.04188906600157 88.95811093399841,164.09115348192674" fill="#ff6b35" fill-opacity="0.711111111111111" stroke-opacity="0.711111111111111" />
  <polygon points="115.90884651807325,168.95811093399843 111.04188906600159,175.90884651807326 104.09115348192675,171.04188906600157 108.95811093399841,164.09115348192674" fill="#ff6b35" fill-opacity="0.7361111111111112" stroke-opacity="0.7361111111111112" />
  <polygon points="135.90884651807326,168.95811093399843 131.04188906600157,175.90884651807326 124.09115348192675,171.04188906600157 128.95811093399843,164.09115348192674" fill="#ff6b35" fill-opacity="0.7611111111111111" stroke-opacity="0.7611111111111111" />
  <polygon points="155.90884651807326,168.95811093399843 151.04188906600157,175.90884651807326 144.09115348192674,171.04188906600157 148.95811093399843,164.09115348192674" fill="#ff6b35" fill-opacity="0.786111111111111" stroke-opacity="0.786111111111111" />
  <polygon points="175.90884651807326,168.95811093399843 171.04188906600157,175.90884651807326 164.09115348192674,171.04188906600157 168.95811093399843,164.09115348192674" fill="#ff6b35" fill-opacity="0.8111111111111111" stroke-opacity="0.8111111111111111" />
  <polygon points="195.90884651807326,168.95811093399843 191.04188906600157,175.90884651807326 184.09115348192674,171.04188906600157 188.95811093399843,164.09115348192674" fill="#ff6b35" fill-opacity="0.836111111111111" stroke-opacity="0.836111111111111" />
  <polygon points="215.90884651807326,168.95811093399843 211.04188906600157,175.90884651807326 204.09115348192674,171.04188906600157 208.95811093399843,164.09115348192674" fill="#ff6b35" fill-opacity="0.8611111111111112" stroke-opacity="0.8611111111111112" />
  <polygon points="235.90884651807326,168.95811093399843 231.04188906600157,175.90884651807326 224.09115348192674,171.04188906600157 228.95811093399843,164.09115348192674" fill="#ff6b35" fill-opacity="0.8861111111111111" stroke-opacity="0.8861111111111111" />
  <polygon points="255.90884651807326,168.95811093399843 251.04188906600157,175.90884651807326 244.09115348192674,171.04188906600157 248.95811093399843,164.09115348192674" fill="#ff6b35" fill-opacity="0.911111111111111" stroke-opacity="0.911111111111111" />
  <polygon points="275.90884651807323,168.95811093399843 271.0418890660016,175.90884651807326 264.09115348192677,171.04188906600157 268.9581109339984,164.09115348192674" fill="#ff6b35" fill-opacity="0.9361111111111111" stroke-opacity="0.9361111111111111" />
  <polygon points="295.90884651807323,168.95811093399843 291.0418890660016,175.90884651807326 284.09115348192677,171.04188906600157 288.9581109339984,164.09115348192674" fill="#ff6b35" fill-opacity="0.961111111111111" stroke-opacity="0.961111111111111" />
  <polygon points="16.0,190.0 10.0,196.0 4.0,190.0 10.0,184.0" fill="#ff6b35" fill-opacity="0.6499999999999999" stroke-opacity="0.6499999999999999" />
  <polygon points="36.0,190.0 30.0,196.0 24.0,190.0 30.0,184.0" fill="#ff6b35" fill-opacity="0.6749999999999999" stroke-opacity="0.6749999999999999" />
  <polygon points="56.0,190.0 50.0,196.0 44.0,190.0 50.0,184.0" fill="#ff6b35" fill-opacity="0.7" stroke-opacity="0.7" />
  <polygon points="76.0,190.0 70.0,196.0 64.0,190.0 70.0,184.0" fill="#ff6b35" fill-opacity="0.7249999999999999" stroke-opacity="0.7249999999999999" />
  <polygon points="96.0,190.0 90.0,196.0 84.0,190.0 90.0,184.0" fill="#ff6b35" fill-opacity="0.7499999999999999" stroke-opacity="0.7499999999999999" />
  <polygon points="116.0,190.0 110.0,196.0 104.0,190.0 110.0,184.0" fill="#ff6b35" fill-opacity="0.7749999999999999" stroke-opacity="0.7749999999999999" />
  <polygon points="136.0,190.0 130.0,196.0 124.0,190.0 130.0,184.0" fill="#ff6b35" fill-opacity="0.8" stroke-opacity="0.8" />
  <polygon points="156.0,190.0 150.0,196.0 144.0,190.0 150.0,184.0" fill="#ff6b35" fill-opacity="0.825" stroke-opacity="0.825" />
  <polygon points="176.0,190.0 170.0,196.0 164.0,190.0 170.0,184.0" fill="#ff6b35" fill-opacity="0.8499999999999999" stroke-opacity="0.8499999999999999" />
  <polygon points="196.0,190.0 190.0,196.0 184.0,190.0 190.0,184.0" fill="#ff6b35" fill-opacity="0.875" stroke-opacity="0.875" />
  <polygon points="216.0,190.0 210.0,196.0 204.0,190.0 210.0,184.0" fill="#ff6b35" fill-opacity="0.8999999999999999" stroke-opacity="0.8999999999999999" />
  <polygon points="236.0,190.0 230.0,196.0 224.0,190.0 230.0,184.0" fill="#ff6b35" fill-opacity="0.9249999999999998" stroke-opacity="0.9249999999999998" />
  <polygon points="256.0,190.0 250.0,196.0 244.0,190.0 250.0,184.0" fill="#ff6b35" fill-opacity="0.95" stroke-opacity="0.95" />
  <polygon points="276.0,190.0 270.0,196.0 264.0,190.0 270.0,184.0" fill="#ff6b35" fill-opacity="0.9749999999999999" stroke-opacity="0.9749999999999999" />
  <polygon points="296.0,190.0 290.0,196.0 284.0,190.0 290.0,184.0" fill="#ff6b35" />
</svg>