<?xml version="1.0" encoding="UTF-8"?>
<svg xmlns="http://www.w3.org/2000/svg" width="300" height="200" viewBox="0 0 300 200">
  <rect width="100%" height="100%" fill="#2d1b4e" />
  <polygon points="10.0,4.0 16.0,10.0 10.0,16.0 4.0,10.0" fill="#ff6b35" fill-opacity="0.3" stroke-opacity="0.3" />
  <polygon points="30.0,4.0 36.0,10.0 30.0,16.0 24.0,10.0" fill="#ff6b35" fill-opacity="0.325" stroke-opacity="0.325" />
  <polygon points="50.0,4.0 56.0,10.0 50.0,16.0 44.0,10.0" fill="#ff6b35" fill-opacity="0.35" stroke-opacity="0.35" />
  <polygon points="70.0,4.0 76.0,10.0 70.0,16.0 64.0,10.0" fill="#ff6b35" fill-opacity="0.375" stroke-opacity="0.375" />
  <polygon points="90.0,4.0 96.0,10.0 90.0,16.0 84.0,10.0" fill="#ff6b35" fill-opacity="0.39999999999999997" stroke-opacity="0.39999999999999997" />
  <polygon points="110.0,4.0 116.0,10.0 110.0,16.0 104.0,10.0" fill="#ff6b35" fill-opacity="0.425" stroke-opacity="0.425" />
  <polygon points="130.0,4.0 136.0,10.0 130.0,16.0 124.0,10.0" fill="#ff6b35" fill-opacity="0.44999999999999996" stroke-opacity="0.44999999999999996" />
  <polygon points="150.0,4.0 156.0,10.0 150.0,16.0 144.0,10.0" fill="#ff6b35" fill-opacity="0.475" stroke-opacity="0.475" />
  <polygon points="170.0,4.0 176.0,10.0 170.0,16.0 164.0,10.0" fill="#ff6b35" fill-opacity="0.5" stroke-opacity="0.5" />
  <polygon points="190.0,4.0 196.0,10.0 190.0,16.0 184.0,10.0" fill="#ff6b35" fill-opacity="0.525" stroke-opacity="0.525" />
  <polygon points="210.0,4.0 216.0,10.0 210.0,16.0 204.0,10.0" fill="#ff6b35" fill-opacity="0.55" stroke-opacity="0.55" />
  <polygon points="230.0,4.0 236.0,10.0 230.0,16.0 224.0,10.0" fill="#ff6b35" fill-opacity="0.575" stroke-opacity="0.575" />
  <polygon points="250.0,4.0 256.0,10.0 250.0,16.0 244.0,10.0" fill="#ff6b35" fill-opacity="0.6" stroke-opacity="0.6" />
  <polygon points="270.0,4.0 276.0,10.0 270.0,16.0 264.0,10.0" fill="#ff6b35" fill-opacity="0.625" stroke-opacity="0.625" />
  <polygon points="290.0,4.0 296.0,10.0 290.0,16.0 284.0,10.0" fill="#ff6b35" fill-opacity="0.6499999999999999" stroke-opacity="0.6499999999999999" />
  <polygon points="10.0,24.0 16.0,30.0 10.0,36.0 4.0,30.0" fill="#ff6b35" fill-opacity="0.33888888888888885" stroke-opacity="0.33888888888888885" transform="rotate(10.0 10 30)" />
  <polygon points="30.0,24.0 36.0,30.0 30.0,36.0 24.0,30.0" fill="#ff6b35" fill-opacity="0.3638888888888889" stroke-opacity="0.3638888888888889" transform="rotate(10.0 30 30)" />
  <polygon points="50.0,24.0 56.0,30.0 50.0,36.0 44.0,30.0" fill="#ff6b35" fill-opacity="0.38888888888888884" stroke-opacity="0.38888888888888884" transform="rotate(10.0 50 30)" />
  <polygon points="70.0,24.0 76.0,30.0 70.0,36.0 64.0,30.0" fill="#ff6b35" fill-opacity="0.41388888888888886" stroke-opacity="0.41388888888888886" transform="rotate(10.0 70 30)" />
  <polygon points="90.0,24.0 96.0,30.0 90.0,36.0 84.0,30.0" fill="#ff6b35" fill-opacity="0.4388888888888889" stroke-opacity="0.4388888888888889" transform="rotate(10.0 90 30)" />
  <polygon points="110.0,24.0 116.0,30.0 110.0,36.0 104.0,30.0" fill="#ff6b35" fill-opacity="0.4638888888888889" stroke-opacity="0.4638888888888889" transform="rotate(10.0 110 30)" />
  <polygon points="130.0,24.0 136.0,30.0 130.0,36.0 124.0,30.0" fill="#ff6b35" fill-opacity="0.4888888888888888" stroke-opacity="0.4888888888888888" transform="rotate(10.0 130 30)" />
  <polygon points="150.0,24.0 156.0,30.0 150.0,36.0 144.0,30.0" fill="#ff6b35" fill-opacity="0.5138888888888888" stroke-opacity="0.5138888888888888" transform="rotate(10.0 150 30)" />
  <polygon points="170.0,24.0 176.0,30.0 170.0,36.0 164.0,30.0" fill="#ff6b35" fill-opacity="0.5388888888888889" stroke-opacity="0.5388888888888889" transform="rotate(10.0 170 30)" />
  <polygon points="190.0,24.0 196.0,30.0 190.0,36.0 184.0,30.0" fill="#ff6b35" fill-opacity="0.5638888888888889" stroke-opacity="0.5638888888888889" transform="rotate(10.0 190 30)" />
  <polygon points="210.0,24.0 216.0,30.0 210.0,36.0 204.0,30.0" fill="#ff6b35" fill-opacity="0.5888888888888888" stroke-opacity="0.5888888888888888" transform="rotate(10.0 210 30)" />
  <polygon points="230.0,24.0 236.0,30.0 230.0,36.0 224.0,30.0" fill="#ff6b35" fill-opacity="0.6138888888888888" stroke-opacity="0.6138888888888888" transform="rotate(10.0 230 30)" />
  <polygon points="250.0,24.0 256.0,30.0 250.0,36.0 244.0,30.0" fill="#ff6b35" fill-opacity="0.6388888888888888" stroke-opacity="0.6388888888888888" transform="rotate(10.0 250 30)" />
  <polygon points="270.0,24.0 276.0,30.0 270.0,36.0 264.0,30.0" fill="#ff6b35" fill-opacity="0.6638888888888889" stroke-opacity="0.6638888888888889" transform="rotate(10.0 270 30)" />
  <polygon points="290.0,24.0 296.0,30.0 290.0,36.0 284.0,30.0" fill="#ff6b35" fill-opacity="0.6888888888888889" stroke-opacity="0.6888888888888889" transform="rotate(10.0 290 30)" />
  <polygon points="10.0,44.0 16.0,50.0 10.0,56.0 4.0,50.0" fill="#ff6b35" fill-opacity="0.37777777777777777" stroke-opacity="0.37777777777777777" transform="rotate(20.0 10 50)" />
  <polygon points="30.0,44.0 36.0,50.0 30.0,56.0 24.0,50.0" fill="#ff6b35" fill-opacity="0.40277777777777773" stroke-opacity="0.40277777777777773" transform="rotate(20.0 30 50)" />
  <polygon points="50.0,44.0 56.0,50.0 50.0,56.0 44.0,50.0" fill="#ff6b35" fill-opacity="0.42777777777777776" stroke-opacity="0.42777777777777776" transform="rotate(20.0 50 50)" />
  <polygon points="70.0,44.0 76.0,50.0 70.0,56.0 64.0,50.0" fill="#ff6b35" fill-opacity="0.4527777777777777" stroke-opacity="0.4527777777777777" transform="rotate(20.0 70 50)" />
  <polygon points="90.0,44.0 96.0,50.0 90.0,56.0 84.0,50.0" fill="#ff6b35" fill-opacity="0.47777777777777775" stroke-opacity="0.47777777777777775" transform="rotate(20.0 90 50)" />
  <polygon points="110.0,44.0 116.0,50.0 110.0,56.0 104.0,50.0" fill="#ff6b35" fill-opacity="0.5027777777777778" stroke-opacity="0.5027777777777778" transform="rotate(20.0 110 50)" />
  <polygon points="130.0,44.0 136.0,50.0 130.0,56.0 124.0,50.0" fill="#ff6b35" fill-opacity="0.5277777777777777" stroke-opacity="0.5277777777777777" transform="rotate(20.0 130 50)" />
  <polygon points="150.0,44.0 156.0,50.0 150.0,56.0 144.0,50.0" fill="#ff6b35" fill-opacity="0.5527777777777778" stroke-opacity="0.5527777777777778" transform="rotate(20.0 150 50)" />
  <polygon points="170.0,44.0 176.0,50.0 170.0,56.0 164.0,50.0" fill="#ff6b35" fill-opacity="0.5777777777777777" stroke-opacity="0.5777777777777777" transform="rotate(20.0 170 50)" />
  <polygon points="190.0,44.0 196.0,50.0 190.0,56.0 184.0,50.0" fill="#ff6b35" fill-opacity="0.6027777777777777" stroke-opacity="0.6027777777777777" transform="rotate(20.0 190 50)" />
  <polygon points="210.0,44.0 216.0,50.0 210.0,56.0 204.0,50.0" fill="#ff6b35" fill-opacity="0.6277777777777778" stroke-opacity="0.6277777777777778" transform="rotate(20.0 210 50)" />
  <polygon points="230.0,44.0 236.0,50.0 230.0,56.0 224.0,50.0" fill="#ff6b35" fill-opacity="0.6527777777777777" stroke-opacity="0.6527777777777777" transform="rotate(20.0 230 50)" />
  <polygon points="250.0,44.0 256.0,50.0 250.0,56.0 244.0,50.0" fill="#ff6b35" fill-opacity="0.6777777777777777" stroke-opacity="0.6777777777777777" transform="rotate(20.0 250 50)" />
  <polygon points="270.0,44.0 276.0,50.0 270.0,56.0 264.0,50.0" fill="#ff6b35" fill-opacity="0.7027777777777777" stroke-opacity="0.7027777777777777" transform="rotate(20.0 270 50)" />
  <polygon points="290.0,44.0 296.0,50.0 290.0,56.0 284.0,50.0" fill="#ff6b35" fill-opacity="0.7277777777777779" stroke-opacity="0.7277777777777779" transform="rotate(20.0 290 50)" />
  <polygon points="10.0,64.0 16.0,70.0 10.0,76.0 4.0,70.0" fill="#ff6b35" fill-opacity="0.41666666666666663" stroke-opacity="0.41666666666666663" transform="rotate(30.0 10 70)" />
  <polygon points="30.0,64.0 36.0,70.0 30.0,76.0 24.0,70.0" fill="#ff6b35" fill-opacity="0.44166666666666665" stroke-opacity="0.44166666666666665" transform="rotate(30.0 30 70)" />
  <polygon points="50.0,64.0 56.0,70.0 50.0,76.0 44.0,70.0" fill="#ff6b35" fill-opacity="0.4666666666666667" stroke-opacity="0.4666666666666667" transform="rotate(30.0 50 70)" />
  <polygon points="70.0,64.0 76.0,70.0 70.0,76.0 64.0,70.0" fill="#ff6b35" fill-opacity="0.4916666666666666" stroke-opacity="0.4916666666666666" transform="rotate(30.0 70 70)" />
  <polygon points="90.0,64.0 96.0,70.0 90.0,76.0 84.0,70.0" fill="#ff6b35" fill-opacity="0.5166666666666666" stroke-opacity="0.5166666666666666" transform="rotate(30.0 90 70)" />
  <polygon points="110.0,64.0 116.0,70.0 110.0,76.0 104.0,70.0" fill="#ff6b35" fill-opacity="0.5416666666666666" stroke-opacity="0.5416666666666666" transform="rotate(30.0 110 70)" />
  <polygon points="130.0,64.0 136.0,70.0 130.0,76.0 124.0,70.0" fill="#ff6b35" fill-opacity="0.5666666666666667" stroke-opacity="0.5666666666666667" transform="rotate(30.0 130 70)" />
  <polygon points="150.0,64.0 156.0,70.0 150.0,76.0 144.0,70.0" fill="#ff6b35" fill-opacity="0.5916666666666666" stroke-opacity="0.5916666666666666" transform="rotate(30.0 150 70)" />
  <polygon points="170.0,64.0 176.0,70.0 170.0,76.0 164.0,70.0" fill="#ff6b35" fill-opacity="0.6166666666666666" stroke-opacity="0.6166666666666666" transform="rotate(30.0 170 70)" />
  <polygon points="190.0,64.0 196.0,70.0 190.0,76.0 184.0,70.0" fill="#ff6b35" fill-opacity="0.6416666666666666" stroke-opacity="0.6416666666666666" transform="rotate(30.0 190 70)" />
  <polygon points="210.0,64.0 216.0,70.0 210.0,76.0 204.0,70.0" fill="#ff6b35" fill-opacity="0.6666666666666666" stroke-opacity="0.6666666666666666" transform="rotate(30.0 210 70)" />
  <polygon points="230.0,64.0 236.0,70.0 230.0,76.0 224.0,70.0" fill="#ff6b35" fill-opacity="0.6916666666666667" stroke-opacity="0.6916666666666667" transform="rotate(30.0 230 70)" />
  <polygon points="250.0,64.0 256.0,70.0 250.0,76.0 244.0,70.0" fill="#ff6b35" fill-opacity="0.7166666666666666" stroke-opacity="0.7166666666666666" transform="rotate(30.0 250 70)" />
  <polygon points="270.0,64.0 276.0,70.0 270.0,76.0 264.0,70.0" fill="#ff6b35" fill-opacity="0.7416666666666666" stroke-opacity="0.7416666666666666" transform="rotate(30.0 270 70)" />
  <polygon points="290.0,64.0 296.0,70.0 290.0,76.0 284.0,70.0" fill="#ff6b35" fill-opacity="0.7666666666666666" stroke-opacity="0.7666666666666666" transform="rotate(30.0 290 70)" />
  <polygon points="10.0,84.0 16.0,90.0 10.0,96.0 4.0,90.0" fill="#ff6b35" fill-opacity="0.4555555555555555" stroke-opacity="0.4555555555555555" transform="rotate(40.0 10 90)" />
  <polygon points="30.0,84.0 36.0,90.0 30.0,96.0 24.0,90.0" fill="#ff6b35" fill-opacity="0.4805555555555555" stroke-opacity="0.4805555555555555" transform="rotate(40.0 30 90)" />
  <polygon points="50.0,84.0 56.0,90.0 50.0,96.0 44.0,90.0" fill="#ff6b35" fill-opacity="0.5055555555555555" stroke-opacity="0.5055555555555555" transform="rotate(40.0 50 90)" />
  <polygon points="70.0,84.0 76.0,90.0 70.0,96.0 64.0,90.0" fill="#ff6b35" fill-opacity="0.5305555555555556" stroke-opacity="0.5305555555555556" transform="rotate(40.0 70 90)" />
  <polygon points="90.0,84.0 96.0,90.0 90.0,96.0 84.0,90.0" fill="#ff6b35" fill-opacity="0.5555555555555556" stroke-opacity="0.5555555555555556" transform="rotate(40.0 90 90)" />
  <polygon points="110.0,84.0 116.0,90.0 110.0,96.0 104.0,90.0" fill="#ff6b35" fill-opacity="0.5805555555555555" stroke-opacity="0.5805555555555555" transform="rotate(40.0 110 90)" />
  <polygon points="130.0,84.0 136.0,90.0 130.0,96.0 124.0,90.0" fill="#ff6b35" fill-opacity="0.6055555555555555" stroke-opacity="0.6055555555555555" transform="rotate(40.0 130 90)" />
  <polygon points="150.0,84.0 156.0,90.0 150.0,96.0 144.0,90.0" fill="#ff6b35" fill-opacity="0.6305555555555555" stroke-opacity="0.6305555555555555" transform="rotate(40.0 150 90)" />
  <polygon points="170.0,84.0 176.0,90.0 170.0,96.0 164.0,90.0" fill="#ff6b35" fill-opacity="0.6555555555555554" stroke-opacity="0.6555555555555554" transform="rotate(40.0 170 90)" />
  <polygon points="190.0,84.0 196.0,90.0 190.0,96.0 184.0,90.0" fill="#ff6b35" fill-opacity="0.6805555555555556" stroke-opacity="0.6805555555555556" transform="rotate(40.0 190 90)" />
  <polygon points="210.0,84.0 216.0,90.0 210.0,96.0 204.0,90.0" fill="#ff6b35" fill-opacity="0.7055555555555555" stroke-opacity="0.7055555555555555" transform="rotate(40.0 210 90)" />
  <polygon points="230.0,84.0 236.0,90.0 230.0,96.0 224.0,90.0" fill="#ff6b35" fill-opacity="0.7305555555555556" stroke-opacity="0.7305555555555556" transform="rotate(40.0 230 90)" />
  <polygon points="250.0,84.0 256.0,90.0 250.0,96.0 244.0,90.0" fill="#ff6b35" fill-opacity="0.7555555555555554" stroke-opacity="0.7555555555555554" transform="rotate(40.0 250 90)" />
  <polygon points="270.0,84.0 276.0,90.0 270.0,96.0 264.0,90.0" fill="#ff6b35" fill-opacity="0.7805555555555554" stroke-opacity="0.7805555555555554" transform="rotate(40.0 270 90)" />
  <polygon points="290.0,84.0 296.0,90.0 290.0,96.0 284.0,90.0" fill="#ff6b35" fill-opacity="0.8055555555555556" stroke-opacity="0.8055555555555556" transform="rotate(40.0 290 90)" />
  <polygon points="10.0,104.0 16.0,110.0 10.0,116.0 4.0,110.0" fill="#ff6b35" fill-opacity="0.49444444444444446" stroke-opacity="0.49444444444444446" transform="rotate(50.0 10 110)" />
  <polygon points="30.0,104.0 36.0,110.0 30.0,116.0 24.0,110.0" fill="#ff6b35" fill-opacity="0.5194444444444444" stroke-opacity="0.5194444444444444" transform="rotate(50.0 30 110)" />
  <polygon points="50.0,104.0 56.0,110.0 50.0,116.0 44.0,110.0" fill="#ff6b35" fill-opacity="0.5444444444444444" stroke-opacity="0.5444444444444444" transform="rotate(50.0 50 110)" />
  <polygon points="70.0,104.0 76.0,110.0 70.0,116.0 64.0,110.0" fill="#ff6b35" fill-opacity="0.5694444444444444" stroke-opacity="0.5694444444444444" transform="rotate(50.0 70 110)" />
  <polygon points="90.0,104.0 96.0,110.0 90.0,116.0 84.0,110.0" fill="#ff6b35" fill-opacity="0.5944444444444444" stroke-opacity="0.5944444444444444" transform="rotate(50.0 90 110)" />
  <polygon points="110.0,104.0 116.0,110.0 110.0,116.0 104.0,110.0" fill="#ff6b35" fill-opacity="0.6194444444444445" stroke-opacity="0.6194444444444445" transform="rotate(50.0 110 110)" />
  <polygon points="130.0,104.0 136.0,110.0 130.0,116.0 124.0,110.0" fill="#ff6b35" fill-opacity="0.6444444444444444" stroke-opacity="0.6444444444444444" transform="rotate(50.0 130 110)" />
  <polygon points="150.0,104.0 156.0,110.0 150.0,116.0 144.0,110.0" fill="#ff6b35" fill-opacity="0.6694444444444444" stroke-opacity="0.6694444444444444" transform="rotate(50.0 150 110)" />
  <polygon points="170.0,104.0 176.0,110.0 170.0,116.0 164.0,110.0" fill="#ff6b35" fill-opacity="0.6944444444444444" stroke-opacity="0.6944444444444444" transform="rotate(50.0 170 110)" />
  <polygon points="190.0,104.0 196.0,110.0 190.0,116.0 184.0,110.0" fill="#ff6b35" fill-opacity="0.7194444444444446" stroke-opacity="0.7194444444444446" transform="rotate(50.0 190 110)" />
  <polygon points="210.0,104.0 216.0,110.0 210.0,116.0 204.0,110.0" fill="#ff6b35" fill-opacity="0.7444444444444444" stroke-opacity="0.7444444444444444" transform="rotate(50.0 210 110)" />
  <polygon points="230.0,104.0 236.0,110.0 230.0,116.0 224.0,110.0" fill="#ff6b35" fill-opacity="0.7694444444444444" stroke-opacity="0.7694444444444444" transform="rotate(50.0 230 110)" />
  <polygon points="250.0,104.0 256.0,110.0 250.0,116.0 244.0,110.0" fill="#ff6b35" fill-opacity="0.7944444444444443" stroke-opacity="0.7944444444444443" transform="rotate(50.0 250 110)" />
  <polygon points="270.0,104.0 276.0,110.0 270.0,116.0 264.0,110.0" fill="#ff6b35" fill-opacity="0.8194444444444444" stroke-opacity="0.8194444444444444" transform="rotate(50.0 270 110)" />
  <polygon points="290.0,104.0 296.0,110.0 290.0,116.0 284.0,110.0" fill="#ff6b35" fill-opacity="0.8444444444444443" stroke-opacity="0.8444444444444443" transform="rotate(50.0 290 110)" />
  <polygon points="10.0,124.0 16.0,130.0 10.0,136.0 4.0,130.0" fill="#ff6b35" fill-opacity="0.5333333333333333" stroke-opacity="0.5333333333333333" transform="rotate(60.0 10 130)" />
  <polygon points="30.0,124.0 36.0,130.0 30.0,136.0 24.0,130.0" fill="#ff6b35" fill-opacity="0.5583333333333333" stroke-opacity="0.5583333333333333" transform="rotate(60.0 30 130)" />
  <polygon points="50.0,124.0 56.0,130.0 50.0,136.0 44.0,130.0" fill="#ff6b35" fill-opacity="0.5833333333333333" stroke-opacity="0.5833333333333333" transform="rotate(60.0 50 130)" />
  <polygon points="70.0,124.0 76.0,130.0 70.0,136.0 64.0,130.0" fill="#ff6b35" fill-opacity="0.6083333333333333" stroke-opacity="0.6083333333333333" transform="rotate(60.0 70 130)" />
  <polygon points="90.0,124.0 96.0,130.0 90.0,136.0 84.0,130.0" fill="#ff6b35" fill-opacity="0.6333333333333333" stroke-opacity="0.6333333333333333" transform="rotate(60.0 90 130)" />
  <polygon points="110.0,124.0 116.0,130.0 110.0,136.0 104.0,130.0" fill="#ff6b35" fill-opacity="0.6583333333333332" stroke-opacity="0.6583333333333332" transform="rotate(60.0 110 130)" />
  <polygon points="130.0,124.0 136.0,130.0 130.0,136.0 124.0,130.0" fill="#ff6b35" fill-opacity="0.6833333333333332" stroke-opacity="0.6833333333333332" transform="rotate(60.0 130 130)" />
  <polygon points="150.0,124.0 156.0,130.0 150.0,136.0 144.0,130.0" fill="#ff6b35" fill-opacity="0.7083333333333333" stroke-opacity="0.7083333333333333" transform="rotate(60.0 150 130)" />
  <polygon points="170.0,124.0 176.0,130.0 170.0,136.0 164.0,130.0" fill="#ff6b35" fill-opacity="0.7333333333333334" stroke-opacity="0.7333333333333334" transform="rotate(60.0 170 130)" />
  <polygon points="190.0,124.0 196.0,130.0 190.0,136.0 184.0,130.0" fill="#ff6b35" fill-opacity="0.7583333333333333" stroke-opacity="0.7583333333333333" transform="rotate(60.0 190 130)" />
  <polygon points="210.0,124.0 216.0,130.0 210.0,136.0 204.0,130.0" fill="#ff6b35" fill-opacity="0.7833333333333332" stroke-opacity="0.7833333333333332" transform="rotate(60.0 210 130)" />
  <polygon points="230.0,124.0 236.0,130.0 230.0,136.0 224.0,130.0" fill="#ff6b35" fill-opacity="0.8083333333333333" stroke-opacity="0.8083333333333333" transform="rotate(60.0 230 130)" />
  <polygon points="250.0,124.0 256.0,130.0 250.0,136.0 244.0,130.0" fill="#ff6b35" fill-opacity="0.8333333333333333" stroke-opacity="0.8333333333333333" transform="rotate(60.0 250 130)" />
  <polygon points="270.0,124.0 276.0,130.0 270.0,136.0 264.0,130.0" fill="#ff6b35" fill-opacity="0.8583333333333334" stroke-opacity="0.8583333333333334" transform="rotate(60.0 270 130)" />
  <polygon points="290.0,124.0 296.0,130.0 290.0,136.0 284.0,130.0" fill="#ff6b35" fill-opacity="0.8833333333333333" stroke-opacity="0.8833333333333333" transform="rotate(60.0 290 130)" />
  <polygon points="10.0,144.0 16.0,150.0 10.0,156.0 4.0,150.0" fill="#ff6b35" fill-opacity="0.5722222222222222" stroke-opacity="0.5722222222222222" transform="rotate(70.0 10 150)" />
  <polygon points="30.0,144.0 36.0,150.0 30.0,156.0 24.0,150.0" fill="#ff6b35" fill-opacity="0.5972222222222222" stroke-opacity="0.5972222222222222" transform="rotate(70.0 30 150)" />
  <polygon points="50.0,144.0 56.0,150.0 50.0,156.0 44.0,150.0" fill="#ff6b35" fill-opacity="0.6222222222222222" stroke-opacity="0.6222222222222222" transform="rotate(70.0 50 150)" />
  <polygon points="70.0,144.0 76.0,150.0 70.0,156.0 64.0,150.0" fill="#ff6b35" fill-opacity="0.6472222222222221" stroke-opacity="0.6472222222222221" transform="rotate(70.0 70 150)" />
  <polygon points="90.0,144.0 96.0,150.0 90.0,156.0 84.0,150.0" fill="#ff6b35" fill-opacity="0.6722222222222222" stroke-opacity="0.6722222222222222" transform="rotate(70.0 90 150)" />
  <polygon points="110.0,144.0 116.0,150.0 110.0,156.0 104.0,150.0" fill="#ff6b35" fill-opacity="0.6972222222222222" stroke-opacity="0.6972222222222222" transform="rotate(70.0 110 150)" />
  <polygon points="130.0,144.0 136.0,150.0 130.0,156.0 124.0,150.0" fill="#ff6b35" fill-opacity="0.7222222222222221" stroke-opacity="0.7222222222222221" transform="rotate(70.0 130 150)" />
  <polygon points="150.0,144.0 156.0,150.0 150.0,156.0 144.0,150.0" fill="#ff6b35" fill-opacity="0.7472222222222221" stroke-opacity="0.7472222222222221" transform="rotate(70.0 150 150)" />
  <polygon points="170.0,144.0 176.0,150.0 170.0,156.0 164.0,150.0" fill="#ff6b35" fill-opacity="0.7722222222222221" stroke-opacity="0.7722222222222221" transform="rotate(70.0 170 150)" />
  <polygon points="190.0,144.0 196.0,150.0 190.0,156.0 184.0,150.0" fill="#ff6b35" fill-opacity="0.7972222222222223" stroke-opacity="0.7972222222222223" transform="rotate(70.0 190 150)" />
  <polygon points="210.0,144.0 216.0,150.0 210.0,156.0 204.0,150.0" fill="#ff6b35" fill-opacity="0.8222222222222222" stroke-opacity="0.8222222222222222" transform="rotate(70.0 210 150)" />
  <polygon points="230.0,144.0 236.0,150.0 230.0,156.0 224.0,150.0" fill="#ff6b35" fill-opacity="0.8472222222222221" stroke-opacity="0.8472222222222221" transform="rotate(70.0 230 150)" />
  <polygon points="250.0,144.0 256.0,150.0 250.0,156.0 244.0,150.0" fill="#ff6b35" fill-opacity="0.8722222222222222" stroke-opacity="0.8722222222222222" transform="rotate(70.0 250 150)" />
  <polygon points="270.0,144.0 276.0,150.0 270.0,156.0 264.0,150.0" fill="#ff6b35" fill-opacity="0.8972222222222221" stroke-opacity="0.8972222222222221" transform="rotate(70.0 270 150)" />
  <polygon points="290.0,144.0 296.0,150.0 290.0,156.0 284.0,150.0" fill="#ff6b35" fill-opacity="0.922222222222222" stroke-opacity="0.922222222222222" transform="rotate(70.0 290 150)" />
  <polygon points="10.0,164.0 16.0,170.0 10.0,176.0 4.0,170.0" fill="#ff6b35" fill-opacity="0.611111111111111" stroke-opacity="0.611111111111111" transform="rotate(80.0 10 170)" />
  <polygon points="30.0,164.0 36.0,170.0 30.0,176.0 24.0,170.0" fill="#ff6b35" fill-opacity="0.6361111111111111" stroke-opacity="0.6361111111111111" transform="rotate(80.0 30 170)" />
  <polygon points="50.0,164.0 56.0,170.0 50.0,176.0 44.0,170.0" fill="#ff6b35" fill-opacity="0.661111111111111" stroke-opacity="0.661111111111111" transform="rotate(80.0 50 170)" />
  <polygon points="70.0,164.0 76.0,170.0 70.0,176.0 64.0,170.0" fill="#ff6b35" fill-opacity="0.686111111111111" stroke-opacity="0.686111111111111" transform="rotate(80.0 70 170)" />
  <polygon points="90.0,164.0 96.0,170.0 90.0,176.0 84.0,170.0" fill="#ff6b35" fill-opacity="0.711111111111111" stroke-opacity="0.711111111111111" transform="rotate(80.0 90 170)" />
  <polygon points="110.0,164.0 116.0,170.0 110.0,176.0 104.0,170.0" fill="#ff6b35" fill-opacity="0.7361111111111112" stroke-opacity="0.7361111111111112" transform="rotate(80.0 110 170)" />
  <polygon points="130.0,164.0 136.0,170.0 130.0,176.0 124.0,170.0" fill="#ff6b35" fill-opacity="0.7611111111111111" stroke-opacity="0.7611111111111111" transform="rotate(80.0 130 170)" />
  <polygon points="150.0,164.0 156.0,170.0 150.0,176.0 144.0,170.0" fill="#ff6b35" fill-opacity="0.786111111111111" stroke-opacity="0.786111111111111" transform="rotate(80.0 150 170)" />
  <polygon points="170.0,164.0 176.0,170.0 170.0,176.0 164.0,170.0" fill="#ff6b35" fill-opacity="0.8111111111111111" stroke-opacity="0.8111111111111111" transform="rotate(80.0 170 170)" />
  <polygon points="190.0,164.0 196.0,170.0 190.0,176.0 184.0,170.0" fill="#ff6b35" fill-opacity="0.836111111111111" stroke-opacity="0.836111111111111" transform="rotate(80.0 190 170)" />
  <polygon points="210.0,164.0 216.0,170.0 210.0,176.0 204.0,170.0" fill="#ff6b35" fill-opacity="0.8611111111111112" stroke-opacity="0.8611111111111112" transform="rotate(80.0 210 170)" />
  <polygon points="230.0,164.0 236.0,170.0 230.0,176.0 224.0,170.0" fill="#ff6b35" fill-opacity="0.8861111111111111" stroke-opacity="0.8861111111111111" transform="rotate(80.0 230 170)" />
  <polygon points="250.0,164.0 256.0,170.0 250.0,176.0 244.0,170.0" fill="#ff6b35" fill-opacity="0.911111111111111" stroke-opacity="0.911111111111111" transform="rotate(80.0 250 170)" />
  <polygon points="270.0,164.0 276.0,170.0 270.0,176.0 264.0,170.0" fill="#ff6b35" fill-opacity="0.9361111111111111" stroke-opacity="0.9361111111111111" transform="rotate(80.0 270 170)" />
  <polygon points="290.0,164.0 296.0,170.0 290.0,176.0 284.0,170.0" fill="#ff6b35" fill-opacity="0.961111111111111" stroke-opacity="0.961111111111111" transform="rotate(80.0 290 170)" />
  <polygon points="10.0,184.0 16.0,190.0 10.0,196.0 4.0,190.0" fill="#ff6b35" fill-opacity="0.6499999999999999" stroke-opacity="0.6499999999999999" transform="rotate(90.0 10 190)" />
  <polygon points="30.0,184.0 36.0,190.0 30.0,196.0 24.0,190.0" fill="#ff6b35" fill-opacity="0.6749999999999999" stroke-opacity="0.6749999999999999" transform="rotate(90.0 30 190)" />
  <polygon points="50.0,184.0 56.0,190.0 50.0,196.0 44.0,190.0" fill="#ff6b35" fill-opacity="0.7" stroke-opacity="0.7" transform="rotate(90.0 50 190)" />
  <polygon points="70.0,184.0 76.0,190.0 70.0,196.0 64.0,190.0" fill="#ff6b35" fill-opacity="0.7249999999999999" stroke-opacity="0.7249999999999999" transform="rotate(90.0 70 190)" />
  <polygon points="90.0,184.0 96.0,190.0 90.0,196.0 84.0,190.0" fill="#ff6b35" fill-opacity="0.7499999999999999" stroke-opacity="0.7499999999999999" transform="rotate(90.0 90 190)" />
  <polygon points="110.0,184.0 116.0,190.0 110.0,196.0 104.0,190.0" fill="#ff6b35" fill-opacity="0.7749999999999999" stroke-opacity="0.7749999999999999" transform="rotate(90.0 110 190)" />
  <polygon points="130.0,184.0 136.0,190.0 130.0,196.0 124.0,190.0" fill="#ff6b35" fill-opacity="0.8" stroke-opacity="0.8" transform="rotate(90.0 130 190)" />
  <polygon points="150.0,184.0 156.0,190.0 150.0,196.0 144.0,190.0" fill="#ff6b35" fill-opacity="0.825" stroke-opacity="0.825" transform="rotate(90.0 150 190)" />
  <polygon points="170.0,184.0 176.0,190.0 170.0,196.0 164.0,190.0" fill="#ff6b35" fill-opacity="0.8499999999999999" stroke-opacity="0.8499999999999999" transform="rotate(90.0 170 190)" />
  <polygon points="190.0,184.0 196.0,190.0 190.0,196.0 184.0,190.0" fill="#ff6b35" fill-opacity="0.875" stroke-opacity="0.875" transform="rotate(90.0 190 190)" />
  <polygon points="210.0,184.0 216.0,190.0 210.0,196.0 204.0,190.0" fill="#ff6b35" fill-opacity="0.8999999999999999" stroke-opacity="0.8999999999999999" transform="rotate(90.0 210 190)" />
  <polygon points="230.0,184.0 236.0,190.0 230.0,196.0 224.0,190.0" fill="#ff6b35" fill-opacity="0.9249999999999998" stroke-opacity="0.9249999999999998" transform="rotate(90.0 230 190)" />
  <polygon points="250.0,184.0 256.0,190.0 250.0,196.0 244.0,190.0" fill="#ff6b35" fill-opacity="0.95" stroke-opacity="0.95" transform="rotate(90.0 250 190)" />
  <polygon points="270.0,184.0 276.0,190.0 270.0,196.0 264.0,190.0" fill="#ff6b35" fill-opacity="0.9749999999999999" stroke-opacity="0.9749999999999999" transform="rotate(90.0 270 190)" />
  <polygon points="290.0,184.0 296.0,190.0 290.0,196.0 284.0,190.0" fill="#ff6b35" transform="rotate(90.0 290 190)" />
</svg>