<?xml version="1.0" encoding="UTF-8"?>
<svg xmlns="http://www.w3.org/2000/svg" width="200" height="200" viewBox="0 0 200 200">
  <rect width="100%" height="100%" fill="#1a1a2e" />
  <g transform="translate(50.0, 87.71868121394658) scale(0.9825055028842739)">
  <path d="M -43.30127018922194 -24.999999999999996 Q 0.0 -1.1843013959279283 43.30127018922194 -24.999999999999996" fill="none" stroke="#7aafff" stroke-width="5.0" stroke-linecap="round" />
  <path d="M 43.30127018922194 -24.999999999999996 Q 1.0256350946109656 0.5921506979639695 3.061616997868383e-15 50.0" fill="none" stroke="#ff8a80" stroke-width="5.0" stroke-linecap="round" />
  <path d="M 3.061616997868383e-15 50.0 Q -1.0256350946109585 0.5921506979639677 -43.30127018922193 -25.000000000000007" fill="none" stroke="#81c995" stroke-width="5.0" stroke-linecap="round" />
</g>
  <text x="50.0" y="200.0" font-size="18.0" font-family="sans-serif" font-style="normal" font-weight="normal" fill="#aaaacc" text-anchor="middle" dominant-baseline="auto">default</text>
  <rect x="0.25" y="0.25" width="99.5" height="199.5" fill="none" stroke="#3d3d5c" stroke-width="0.5" fill-opacity="0.3" stroke-opacity="0.3" />
  <g transform="translate(164.0625, 100.0) rotate(90.0) scale(1.125)">
  <path d="M -43.30127018922194 -24.999999999999996 Q 0.0 -1.1843013959279283 43.30127018922194 -24.999999999999996" fill="none" stroke="#7aafff" stroke-width="5.0" stroke-linecap="round" />
  <path d="M 43.30127018922194 -24.999999999999996 Q 1.0256350946109656 0.5921506979639695 3.061616997868383e-15 50.0" fill="none" stroke="#ff8a80" stroke-width="5.0" stroke-linecap="round" />
  <path d="M 3.061616997868383e-15 50.0 Q -1.0256350946109585 0.5921506979639677 -43.30127018922193 -25.000000000000007" fill="none" stroke="#81c995" stroke-width="5.0" stroke-linecap="round" />
</g>
  <text x="150.0" y="200.0" font-size="18.0" font-family="sans-serif" font-style="normal" font-weight="normal" fill="#aaaacc" text-anchor="middle" dominant-baseline="auto">match_aspect</text>
  <rect x="100.25" y="0.25" width="99.5" height="199.5" fill="none" stroke="#3d3d5c" stroke-width="0.5" fill-opacity="0.3" stroke-opacity="0.3" />
</svg>