<?xml version="1.0" encoding="UTF-8"?>
<svg xmlns="http://www.w3.org/2000/svg" width="240" height="200" viewBox="0 0 240 200">
  <rect width="100%" height="100%" fill="#0a1628" />
  <line x1="20" y1="20" x2="20" y2="100" stroke="#48cae4" stroke-width="1" stroke-linecap="round" opacity="0.4" />
  <line x1="20" y1="20" x2="100" y2="20" stroke="#48cae4" stroke-width="1" stroke-linecap="round" opacity="0.4" />
  <line x1="100" y1="20" x2="180" y2="20" stroke="#48cae4" stroke-width="1" stroke-linecap="round" opacity="0.4" />
  <line x1="100" y1="20" x2="100" y2="100" stroke="#48cae4" stroke-width="1" stroke-linecap="round" opacity="0.4" />
  <line x1="180" y1="20" x2="180" y2="100" stroke="#48cae4" stroke-width="1" stroke-linecap="round" opacity="0.4" />
  <line x1="60" y1="60" x2="60" y2="140" stroke="#48cae4" stroke-width="1" stroke-linecap="round" opacity="0.4" />
  <line x1="60" y1="60" x2="140" y2="60" stroke="#48cae4" stroke-width="1" stroke-linecap="round" opacity="0.4" />
  <line x1="140" y1="60" x2="220" y2="60" stroke="#48cae4" stroke-width="1" stroke-linecap="round" opacity="0.4" />
  <line x1="140" y1="60" x2="140" y2="140" stroke="#48cae4" stroke-width="1" stroke-linecap="round" opacity="0.4" />
  <line x1="220" y1="60" x2="220" y2="140" stroke="#48cae4" stroke-width="1" stroke-linecap="round" opacity="0.4" />
  <line x1="20" y1="100" x2="20" y2="180" stroke="#48cae4" stroke-width="1" stroke-linecap="round" opacity="0.4" />
  <line x1="20" y1="100" x2="100" y2="100" stroke="#48cae4" stroke-width="1" stroke-linecap="round" opacity="0.4" />
  <line x1="100" y1="100" x2="180" y2="100" stroke="#48cae4" stroke-width="1" stroke-linecap="round" opacity="0.4" />
  <line x1="100" y1="100" x2="100" y2="180" stroke="#48cae4" stroke-width="1" stroke-linecap="round" opacity="0.4" />
  <line x1="180" y1="100" x2="180" y2="180" stroke="#48cae4" stroke-width="1" stroke-linecap="round" opacity="0.4" />
  <line x1="60" y1="140" x2="140" y2="140" stroke="#48cae4" stroke-width="1" stroke-linecap="round" opacity="0.4" />
  <line x1="140" y1="140" x2="220" y2="140" stroke="#48cae4" stroke-width="1" stroke-linecap="round" opacity="0.4" />
  <line x1="20" y1="180" x2="100" y2="180" stroke="#48cae4" stroke-width="1" stroke-linecap="round" opacity="0.4" />
  <line x1="100" y1="180" x2="180" y2="180" stroke="#48cae4" stroke-width="1" stroke-linecap="round" opacity="0.4" />
  <circle cx="20" cy="20" r="6" fill="#00d9ff" opacity="0.8" />
  <circle cx="100" cy="20" r="6" fill="#00d9ff" opacity="0.8" />
  <circle cx="180" cy="20" r="6" fill="#00d9ff" opacity="0.8" />
  <circle cx="60" cy="60" r="6" fill="#00d9ff" opacity="0.8" />
  <circle cx="140" cy="60" r="6" fill="#00d9ff" opacity="0.8" />
  <circle cx="220" cy="60" r="6" fill="#00d9ff" opacity="0.8" />
  <circle cx="20" cy="100" r="6" fill="#00d9ff" opacity="0.8" />
  <circle cx="100" cy="100" r="6" fill="#00d9ff" opacity="0.8" />
  <circle cx="180" cy="100" r="6" fill="#00d9ff" opacity="0.8" />
  <circle cx="60" cy="140" r="6" fill="#00d9ff" opacity="0.8" />
  <circle cx="140" cy="140" r="6" fill="#00d9ff" opacity="0.8" />
  <circle cx="220" cy="140" r="6" fill="#00d9ff" opacity="0.8" />
  <circle cx="20" cy="180" r="6" fill="#00d9ff" opacity="0.8" />
  <circle cx="100" cy="180" r="6" fill="#00d9ff" opacity="0.8" />
  <circle cx="180" cy="180" r="6" fill="#00d9ff" opacity="0.8" />
</svg>