<?xml version="1.0" encoding="UTF-8"?>
<svg xmlns="http://www.w3.org/2000/svg" width="260" height="260" viewBox="0 0 260 260">
  <rect width="100%" height="100%" fill="#1a1a2e" />
  <polygon points="5.2,5.2 20.8,5.2 20.8,20.8 5.2,20.8" fill="#ff6b6b" fill-opacity="0.5" stroke-opacity="0.5" />
  <polygon points="34.33815467581013,3.0026404399296975 48.9973595600703,8.338154675810129 43.66184532418987,22.9973595600703 29.0026404399297,17.66184532418987" fill="#ff6b6b" fill-opacity="0.5555555555555556" stroke-opacity="0.5555555555555556" />
  <polygon points="64.03859669922699,2.011109988116967 75.98889001188303,12.038596699226975 65.96140330077301,23.988890011883033 54.01110998811697,13.961403300773025" fill="#ff6b6b" fill-opacity="0.6111111111111112" stroke-opacity="0.6111111111111112" />
  <polygon points="93.85499814951862,2.345001850481381 101.65499814951862,15.854998149518618 88.14500185048138,23.65499814951862 80.34500185048138,10.145001850481382" fill="#ff6b6b" fill-opacity="0.6666666666666666" stroke-opacity="0.6666666666666666" />
  <polygon points="123.32704468769316,3.9640437407027225 126.03595625929728,19.327044687693164 110.67295531230684,22.03595625929728 107.96404374070272,6.672955312306838" fill="#ff6b6b" fill-opacity="0.7222222222222222" stroke-opacity="0.7222222222222222" />
  <polygon points="152.03595625929728,6.672955312306822 149.32704468769316,22.03595625929729 133.96404374070272,19.327044687693178 136.67295531230684,3.96404374070271" fill="#ff6b6b" fill-opacity="0.7777777777777778" stroke-opacity="0.7777777777777778" />
  <polygon points="179.65499814951863,10.145001850481366 171.85499814951862,23.654998149518633 158.34500185048137,15.854998149518634 166.14500185048138,2.3450018504813688" fill="#ff6b6b" fill-opacity="0.8333333333333333" stroke-opacity="0.8333333333333333" />
  <polygon points="205.98889001188303,13.96140330077301 194.03859669922696,23.988890011883043 184.01110998811697,12.038596699226987 195.96140330077301,2.0111099881169565" fill="#ff6b6b" fill-opacity="0.8888888888888888" stroke-opacity="0.8888888888888888" />
  <polygon points="230.99735956007032,17.661845324189862 216.33815467581013,22.997359560070308 211.00264043992968,8.338154675810134 225.66184532418987,3.002640439929692" fill="#ff6b6b" fill-opacity="0.9444444444444444" stroke-opacity="0.9444444444444444" />
  <polygon points="254.8,20.799999999999997 239.2,20.8 239.2,5.2 254.8,5.199999999999998" fill="#ff6b6b" />
  <polygon points="8.33815467581013,29.0026404399297 22.9973595600703,34.33815467581013 17.661845324189873,48.9973595600703 3.0026404399296993,43.66184532418987" fill="#ff6b6b" fill-opacity="0.5" stroke-opacity="0.5" />
  <polygon points="38.03859669922698,28.011109988116964 49.98889001188303,38.03859669922697 39.96140330077302,49.98889001188303 28.011109988116967,39.96140330077302" fill="#ff6b6b" fill-opacity="0.5555555555555556" stroke-opacity="0.5555555555555556" />
  <polygon points="67.85499814951862,28.34500185048138 75.65499814951862,41.854998149518615 62.14500185048138,49.65499814951862 54.34500185048138,36.14500185048138" fill="#ff6b6b" fill-opacity="0.6111111111111112" stroke-opacity="0.6111111111111112" />
  <polygon points="97.32704468769316,29.96404374070272 100.03595625929728,45.32704468769316 84.67295531230684,48.03595625929728 81.96404374070272,32.67295531230684" fill="#ff6b6b" fill-opacity="0.6666666666666666" stroke-opacity="0.6666666666666666" />
  <polygon points="126.03595625929728,32.67295531230684 123.32704468769316,48.03595625929728 107.96404374070272,45.32704468769316 110.67295531230684,29.964043740702724" fill="#ff6b6b" fill-opacity="0.7222222222222222" stroke-opacity="0.7222222222222222" />
  <polygon points="153.65499814951863,36.14500185048137 145.85499814951862,49.65499814951863 132.34500185048137,41.85499814951863 140.14500185048138,28.34500185048137" fill="#ff6b6b" fill-opacity="0.7777777777777778" stroke-opacity="0.7777777777777778" />
  <polygon points="179.98889001188306,39.96140330077301 168.03859669922699,49.98889001188304 158.01110998811697,38.03859669922699 169.96140330077301,28.011109988116957" fill="#ff6b6b" fill-opacity="0.8333333333333333" stroke-opacity="0.8333333333333333" />
  <polygon points="204.99735956007032,43.66184532418986 190.33815467581013,48.99735956007031 185.00264043992968,34.33815467581014 199.66184532418987,29.002640439929696" fill="#ff6b6b" fill-opacity="0.8888888888888888" stroke-opacity="0.8888888888888888" />
  <polygon points="228.8,46.8 213.2,46.800000000000004 213.2,31.200000000000003 228.8,31.200000000000003" fill="#ff6b6b" fill-opacity="0.9444444444444444" stroke-opacity="0.9444444444444444" />
  <polygon points="251.66184532418987,48.99735956007031 237.00264043992968,43.66184532418987 242.33815467581013,29.0026404399297 256.9973595600703,34.33815467581014" fill="#ff6b6b" />
  <polygon points="12.038596699226975,54.01110998811697 23.988890011883033,64.03859669922699 13.961403300773025,75.98889001188303 2.011109988116967,65.96140330077301" fill="#ff6b6b" fill-opacity="0.5" stroke-opacity="0.5" />
  <polygon points="41.854998149518615,54.34500185048138 49.65499814951862,67.85499814951862 36.14500185048138,75.65499814951862 28.34500185048138,62.14500185048138" fill="#ff6b6b" fill-opacity="0.5555555555555556" stroke-opacity="0.5555555555555556" />
  <polygon points="71.32704468769316,55.96404374070272 74.03595625929728,71.32704468769316 58.67295531230684,74.03595625929728 55.96404374070272,58.67295531230684" fill="#ff6b6b" fill-opacity="0.6111111111111112" stroke-opacity="0.6111111111111112" />
  <polygon points="100.03595625929728,58.67295531230684 97.32704468769316,74.03595625929728 81.96404374070272,71.32704468769316 84.67295531230684,55.96404374070272" fill="#ff6b6b" fill-opacity="0.6666666666666666" stroke-opacity="0.6666666666666666" />
  <polygon points="127.65499814951862,62.14500185048138 119.85499814951862,75.65499814951862 106.34500185048138,67.85499814951862 114.14500185048138,54.34500185048138" fill="#ff6b6b" fill-opacity="0.7222222222222222" stroke-opacity="0.7222222222222222" />
  <polygon points="153.98889001188303,65.96140330077301 142.03859669922696,75.98889001188304 132.01110998811697,64.03859669922699 143.96140330077304,54.01110998811696" fill="#ff6b6b" fill-opacity="0.7777777777777778" stroke-opacity="0.7777777777777778" />
  <polygon points="178.99735956007032,69.66184532418985 164.33815467581013,74.99735956007031 159.00264043992968,60.33815467581014 173.66184532418987,55.00264043992969" fill="#ff6b6b" fill-opacity="0.8333333333333333" stroke-opacity="0.8333333333333333" />
  <polygon points="202.8,72.8 187.2,72.8 187.2,57.2 202.8,57.2" fill="#ff6b6b" fill-opacity="0.8888888888888888" stroke-opacity="0.8888888888888888" />
  <polygon points="225.66184532418987,74.99735956007031 211.00264043992968,69.66184532418987 216.33815467581013,55.0026404399297 230.99735956007032,60.33815467581014" fill="#ff6b6b" fill-opacity="0.9444444444444444" stroke-opacity="0.9444444444444444" />
  <polygon points="247.96140330077301,75.98889001188304 236.01110998811697,65.96140330077301 246.03859669922699,54.01110998811696 257.98889001188303,64.03859669922699" fill="#ff6b6b" />
  <polygon points="15.854998149518618,80.34500185048138 23.65499814951862,93.85499814951862 10.145001850481382,101.65499814951862 2.345001850481381,88.14500185048138" fill="#ff6b6b" fill-opacity="0.5" stroke-opacity="0.5" />
  <polygon points="45.32704468769316,81.96404374070272 48.03595625929728,97.32704468769316 32.67295531230684,100.03595625929728 29.96404374070272,84.67295531230684" fill="#ff6b6b" fill-opacity="0.5555555555555556" stroke-opacity="0.5555555555555556" />
  <polygon points="74.03595625929728,84.67295531230684 71.32704468769316,100.03595625929728 55.96404374070272,97.32704468769316 58.67295531230684,81.96404374070272" fill="#ff6b6b" fill-opacity="0.6111111111111112" stroke-opacity="0.6111111111111112" />
  <polygon points="101.65499814951862,88.14500185048138 93.85499814951862,101.65499814951862 80.34500185048138,93.85499814951862 88.14500185048138,80.34500185048138" fill="#ff6b6b" fill-opacity="0.6666666666666666" stroke-opacity="0.6666666666666666" />
  <polygon points="127.98889001188303,91.96140330077301 116.03859669922699,101.98889001188303 106.01110998811697,90.03859669922699 117.96140330077301,80.01110998811697" fill="#ff6b6b" fill-opacity="0.7222222222222222" stroke-opacity="0.7222222222222222" />
  <polygon points="152.99735956007032,95.66184532418985 138.33815467581013,100.99735956007031 133.00264043992968,86.33815467581015 147.66184532418987,81.00264043992969" fill="#ff6b6b" fill-opacity="0.7777777777777778" stroke-opacity="0.7777777777777778" />
  <polygon points="176.8,98.8 161.2,98.8 161.2,83.2 176.8,83.2" fill="#ff6b6b" fill-opacity="0.8333333333333333" stroke-opacity="0.8333333333333333" />
  <polygon points="199.66184532418987,100.99735956007031 185.00264043992968,95.66184532418987 190.33815467581013,81.00264043992969 204.99735956007032,86.33815467581013" fill="#ff6b6b" fill-opacity="0.8888888888888888" stroke-opacity="0.8888888888888888" />
  <polygon points="221.96140330077304,101.98889001188304 210.01110998811697,91.96140330077301 220.03859669922696,80.01110998811696 231.98889001188303,90.03859669922699" fill="#ff6b6b" fill-opacity="0.9444444444444444" stroke-opacity="0.9444444444444444" />
  <polygon points="244.14500185048138,101.65499814951863 236.34500185048137,88.14500185048138 249.85499814951862,80.34500185048137 257.65499814951863,93.85499814951862" fill="#ff6b6b" />
  <polygon points="19.327044687693164,107.96404374070272 22.03595625929728,123.32704468769316 6.672955312306838,126.03595625929728 3.9640437407027225,110.67295531230684" fill="#ff6b6b" fill-opacity="0.5" stroke-opacity="0.5" />
  <polygon points="48.03595625929728,110.67295531230684 45.32704468769316,126.03595625929728 29.964043740702724,123.32704468769316 32.67295531230684,107.96404374070272" fill="#ff6b6b" fill-opacity="0.5555555555555556" stroke-opacity="0.5555555555555556" />
  <polygon points="75.65499814951862,114.14500185048138 67.85499814951862,127.65499814951862 54.34500185048138,119.85499814951862 62.14500185048138,106.34500185048138" fill="#ff6b6b" fill-opacity="0.6111111111111112" stroke-opacity="0.6111111111111112" />
  <polygon points="101.98889001188303,117.96140330077301 90.03859669922699,127.98889001188303 80.01110998811697,116.03859669922699 91.96140330077301,106.01110998811697" fill="#ff6b6b" fill-opacity="0.6666666666666666" stroke-opacity="0.6666666666666666" />
  <polygon points="126.9973595600703,121.66184532418987 112.33815467581013,126.9973595600703 107.0026404399297,112.33815467581013 121.66184532418987,107.0026404399297" fill="#ff6b6b" fill-opacity="0.7222222222222222" stroke-opacity="0.7222222222222222" />
  <polygon points="150.8,124.8 135.2,124.8 135.2,109.2 150.8,109.2" fill="#ff6b6b" fill-opacity="0.7777777777777778" stroke-opacity="0.7777777777777778" />
  <polygon points="173.66184532418987,126.99735956007031 159.00264043992968,121.66184532418987 164.33815467581013,107.00264043992969 178.99735956007032,112.33815467581013" fill="#ff6b6b" fill-opacity="0.8333333333333333" stroke-opacity="0.8333333333333333" />
  <polygon points="195.96140330077301,127.98889001188304 184.01110998811697,117.96140330077301 194.03859669922699,106.01110998811696 205.98889001188303,116.03859669922699" fill="#ff6b6b" fill-opacity="0.8888888888888888" stroke-opacity="0.8888888888888888" />
  <polygon points="218.14500185048138,127.65499814951863 210.34500185048137,114.14500185048138 223.85499814951862,106.34500185048137 231.65499814951863,119.85499814951862" fill="#ff6b6b" fill-opacity="0.9444444444444444" stroke-opacity="0.9444444444444444" />
  <polygon points="240.67295531230684,126.0359562592973 237.96404374070272,110.67295531230683 253.32704468769316,107.9640437407027 256.0359562592973,123.32704468769317" fill="#ff6b6b" />
  <polygon points="22.03595625929729,136.67295531230684 19.327044687693178,152.03595625929728 3.96404374070271,149.32704468769316 6.672955312306822,133.96404374070272" fill="#ff6b6b" fill-opacity="0.5" stroke-opacity="0.5" />
  <polygon points="49.65499814951863,140.14500185048138 41.85499814951863,153.65499814951863 28.34500185048137,145.85499814951862 36.14500185048137,132.34500185048137" fill="#ff6b6b" fill-opacity="0.5555555555555556" stroke-opacity="0.5555555555555556" />
  <polygon points="75.98889001188304,143.96140330077304 64.03859669922699,153.98889001188303 54.01110998811696,142.03859669922696 65.96140330077301,132.01110998811697" fill="#ff6b6b" fill-opacity="0.6111111111111112" stroke-opacity="0.6111111111111112" />
  <polygon points="100.99735956007031,147.66184532418987 86.33815467581015,152.99735956007032 81.00264043992969,138.33815467581013 95.66184532418985,133.00264043992968" fill="#ff6b6b" fill-opacity="0.6666666666666666" stroke-opacity="0.6666666666666666" />
  <polygon points="124.8,150.8 109.2,150.8 109.2,135.2 124.8,135.2" fill="#ff6b6b" fill-opacity="0.7222222222222222" stroke-opacity="0.7222222222222222" />
  <polygon points="147.66184532418987,152.99735956007032 133.00264043992968,147.66184532418987 138.33815467581013,133.00264043992968 152.99735956007032,138.33815467581013" fill="#ff6b6b" fill-opacity="0.7777777777777778" stroke-opacity="0.7777777777777778" />
  <polygon points="169.96140330077301,153.98889001188306 158.01110998811694,143.96140330077301 168.03859669922699,132.01110998811694 179.98889001188306,142.03859669922699" fill="#ff6b6b" fill-opacity="0.8333333333333333" stroke-opacity="0.8333333333333333" />
  <polygon points="192.14500185048138,153.65499814951863 184.34500185048137,140.14500185048138 197.85499814951862,132.34500185048137 205.65499814951863,145.85499814951862" fill="#ff6b6b" fill-opacity="0.8888888888888888" stroke-opacity="0.8888888888888888" />
  <polygon points="214.6729553123068,152.03595625929728 211.96404374070272,136.6729553123068 227.3270446876932,133.96404374070272 230.03595625929728,149.3270446876932" fill="#ff6b6b" fill-opacity="0.9444444444444444" stroke-opacity="0.9444444444444444" />
  <polygon points="237.96404374070272,149.3270446876932 240.6729553123068,133.96404374070272 256.0359562592973,136.6729553123068 253.3270446876932,152.03595625929728" fill="#ff6b6b" />
  <polygon points="23.654998149518633,166.14500185048138 15.854998149518634,179.65499814951863 2.3450018504813688,171.85499814951862 10.145001850481366,158.34500185048137" fill="#ff6b6b" fill-opacity="0.5" stroke-opacity="0.5" />
  <polygon points="49.98889001188304,169.96140330077301 38.03859669922699,179.98889001188303 28.011109988116957,168.03859669922699 39.96140330077301,158.01110998811694" fill="#ff6b6b" fill-opacity="0.5555555555555556" stroke-opacity="0.5555555555555556" />
  <polygon points="74.99735956007031,173.66184532418987 60.33815467581014,178.99735956007032 55.00264043992969,164.33815467581013 69.66184532418985,159.00264043992968" fill="#ff6b6b" fill-opacity="0.6111111111111112" stroke-opacity="0.6111111111111112" />
  <polygon points="98.8,176.8 83.2,176.8 83.2,161.2 98.8,161.2" fill="#ff6b6b" fill-opacity="0.6666666666666666" stroke-opacity="0.6666666666666666" />
  <polygon points="121.66184532418987,178.99735956007032 107.00264043992969,173.66184532418987 112.33815467581013,159.00264043992968 126.99735956007031,164.33815467581013" fill="#ff6b6b" fill-opacity="0.7222222222222222" stroke-opacity="0.7222222222222222" />
  <polygon points="143.96140330077301,179.98889001188306 132.01110998811694,169.96140330077301 142.03859669922699,158.01110998811694 153.98889001188306,168.03859669922699" fill="#ff6b6b" fill-opacity="0.7777777777777778" stroke-opacity="0.7777777777777778" />
  <polygon points="166.14500185048138,179.65499814951863 158.34500185048137,166.14500185048138 171.85499814951862,158.34500185048137 179.65499814951863,171.85499814951862" fill="#ff6b6b" fill-opacity="0.8333333333333333" stroke-opacity="0.8333333333333333" />
  <polygon points="188.6729553123068,178.03595625929728 185.96404374070272,162.6729553123068 201.3270446876932,159.96404374070272 204.03595625929728,175.3270446876932" fill="#ff6b6b" fill-opacity="0.8888888888888888" stroke-opacity="0.8888888888888888" />
  <polygon points="211.96404374070272,175.3270446876932 214.6729553123068,159.96404374070272 230.03595625929728,162.6729553123068 227.3270446876932,178.03595625929728" fill="#ff6b6b" fill-opacity="0.9444444444444444" stroke-opacity="0.9444444444444444" />
  <polygon points="236.34500185048137,171.85499814951862 244.14500185048138,158.34500185048137 257.65499814951863,166.14500185048138 249.85499814951862,179.65499814951863" fill="#ff6b6b" />
  <polygon points="23.988890011883043,195.96140330077304 12.038596699226987,205.98889001188303 2.0111099881169565,194.03859669922699 13.96140330077301,184.01110998811697" fill="#ff6b6b" fill-opacity="0.5" stroke-opacity="0.5" />
  <polygon points="48.99735956007031,199.66184532418987 34.33815467581014,204.99735956007032 29.002640439929696,190.33815467581013 43.66184532418986,185.00264043992968" fill="#ff6b6b" fill-opacity="0.5555555555555556" stroke-opacity="0.5555555555555556" />
  <polygon points="72.8,202.8 57.2,202.8 57.2,187.2 72.8,187.2" fill="#ff6b6b" fill-opacity="0.6111111111111112" stroke-opacity="0.6111111111111112" />
  <polygon points="95.66184532418987,204.99735956007032 81.00264043992969,199.66184532418987 86.33815467581013,185.00264043992968 100.99735956007031,190.33815467581013" fill="#ff6b6b" fill-opacity="0.6666666666666666" stroke-opacity="0.6666666666666666" />
  <polygon points="117.96140330077301,205.98889001188303 106.01110998811696,195.96140330077301 116.03859669922699,184.01110998811697 127.98889001188304,194.03859669922699" fill="#ff6b6b" fill-opacity="0.7222222222222222" stroke-opacity="0.7222222222222222" />
  <polygon points="140.14500185048138,205.65499814951863 132.34500185048137,192.14500185048138 145.85499814951862,184.34500185048137 153.65499814951863,197.85499814951862" fill="#ff6b6b" fill-opacity="0.7777777777777778" stroke-opacity="0.7777777777777778" />
  <polygon points="162.6729553123068,204.03595625929728 159.96404374070272,188.6729553123068 175.3270446876932,185.96404374070272 178.03595625929728,201.3270446876932" fill="#ff6b6b" fill-opacity="0.8333333333333333" stroke-opacity="0.8333333333333333" />
  <polygon points="185.96404374070272,201.3270446876932 188.6729553123068,185.96404374070272 204.03595625929728,188.6729553123068 201.3270446876932,204.03595625929728" fill="#ff6b6b" fill-opacity="0.8888888888888888" stroke-opacity="0.8888888888888888" />
  <polygon points="210.34500185048137,197.85499814951862 218.14500185048138,184.34500185048137 231.65499814951863,192.14500185048138 223.85499814951862,205.65499814951863" fill="#ff6b6b" fill-opacity="0.9444444444444444" stroke-opacity="0.9444444444444444" />
  <polygon points="236.01110998811694,194.03859669922699 247.96140330077301,184.01110998811694 257.98889001188303,195.96140330077301 246.03859669922699,205.98889001188306" fill="#ff6b6b" />
  <polygon points="22.997359560070308,225.66184532418987 8.338154675810134,230.99735956007032 3.002640439929692,216.33815467581013 17.661845324189862,211.00264043992968" fill="#ff6b6b" fill-opacity="0.5" stroke-opacity="0.5" />
  <polygon points="46.800000000000004,228.8 31.200000000000003,228.8 31.200000000000003,213.2 46.8,213.2" fill="#ff6b6b" fill-opacity="0.5555555555555556" stroke-opacity="0.5555555555555556" />
  <polygon points="69.66184532418987,230.99735956007032 55.0026404399297,225.66184532418987 60.33815467581014,211.00264043992968 74.99735956007031,216.33815467581013" fill="#ff6b6b" fill-opacity="0.6111111111111112" stroke-opacity="0.6111111111111112" />
  <polygon points="91.96140330077301,231.98889001188303 80.01110998811696,221.96140330077304 90.03859669922699,210.01110998811697 101.98889001188304,220.03859669922696" fill="#ff6b6b" fill-opacity="0.6666666666666666" stroke-opacity="0.6666666666666666" />
  <polygon points="114.14500185048138,231.65499814951863 106.34500185048137,218.14500185048138 119.85499814951862,210.34500185048137 127.65499814951863,223.85499814951862" fill="#ff6b6b" fill-opacity="0.7222222222222222" stroke-opacity="0.7222222222222222" />
  <polygon points="136.6729553123068,230.03595625929728 133.96404374070272,214.6729553123068 149.3270446876932,211.96404374070272 152.03595625929728,227.3270446876932" fill="#ff6b6b" fill-opacity="0.7777777777777778" stroke-opacity="0.7777777777777778" />
  <polygon points="159.96404374070272,227.3270446876932 162.6729553123068,211.96404374070272 178.03595625929728,214.6729553123068 175.3270446876932,230.03595625929728" fill="#ff6b6b" fill-opacity="0.8333333333333333" stroke-opacity="0.8333333333333333" />
  <polygon points="184.34500185048137,223.85499814951862 192.14500185048138,210.34500185048137 205.65499814951863,218.14500185048138 197.85499814951862,231.65499814951863" fill="#ff6b6b" fill-opacity="0.8888888888888888" stroke-opacity="0.8888888888888888" />
  <polygon points="210.01110998811694,220.03859669922699 221.96140330077301,210.01110998811694 231.98889001188306,221.96140330077301 220.03859669922699,231.98889001188306" fill="#ff6b6b" fill-opacity="0.9444444444444444" stroke-opacity="0.9444444444444444" />
  <polygon points="237.00264043992968,216.33815467581013 251.66184532418987,211.00264043992968 256.9973595600703,225.66184532418987 242.33815467581013,230.99735956007032" fill="#ff6b6b" />
  <polygon points="20.8,254.8 5.2,254.8 5.199999999999998,239.2 20.799999999999997,239.2" fill="#ff6b6b" fill-opacity="0.5" stroke-opacity="0.5" />
  <polygon points="43.66184532418987,256.9973595600703 29.0026404399297,251.66184532418987 34.33815467581014,237.00264043992968 48.99735956007031,242.33815467581013" fill="#ff6b6b" fill-opacity="0.5555555555555556" stroke-opacity="0.5555555555555556" />
  <polygon points="65.96140330077301,257.98889001188303 54.01110998811696,247.96140330077301 64.03859669922699,236.01110998811697 75.98889001188304,246.03859669922699" fill="#ff6b6b" fill-opacity="0.6111111111111112" stroke-opacity="0.6111111111111112" />
  <polygon points="88.14500185048138,257.65499814951863 80.34500185048137,244.14500185048138 93.85499814951862,236.34500185048137 101.65499814951863,249.85499814951862" fill="#ff6b6b" fill-opacity="0.6666666666666666" stroke-opacity="0.6666666666666666" />
  <polygon points="110.67295531230683,256.0359562592973 107.9640437407027,240.67295531230684 123.32704468769317,237.96404374070272 126.0359562592973,253.32704468769316" fill="#ff6b6b" fill-opacity="0.7222222222222222" stroke-opacity="0.7222222222222222" />
  <polygon points="133.96404374070272,253.3270446876932 136.6729553123068,237.96404374070272 152.03595625929728,240.6729553123068 149.3270446876932,256.0359562592973" fill="#ff6b6b" fill-opacity="0.7777777777777778" stroke-opacity="0.7777777777777778" />
  <polygon points="158.34500185048137,249.85499814951862 166.14500185048138,236.34500185048137 179.65499814951863,244.14500185048138 171.85499814951862,257.65499814951863" fill="#ff6b6b" fill-opacity="0.8333333333333333" stroke-opacity="0.8333333333333333" />
  <polygon points="184.01110998811694,246.03859669922699 195.96140330077301,236.01110998811694 205.98889001188306,247.96140330077301 194.03859669922699,257.98889001188303" fill="#ff6b6b" fill-opacity="0.8888888888888888" stroke-opacity="0.8888888888888888" />
  <polygon points="211.00264043992968,242.33815467581013 225.66184532418987,237.00264043992968 230.99735956007032,251.66184532418987 216.33815467581013,256.9973595600703" fill="#ff6b6b" fill-opacity="0.9444444444444444" stroke-opacity="0.9444444444444444" />
  <polygon points="239.2,239.2 254.8,239.2 254.8,254.8 239.2,254.8" fill="#ff6b6b" />
</svg>