<?xml version="1.0" encoding="UTF-8"?>
<svg xmlns="http://www.w3.org/2000/svg" width="260" height="260" viewBox="0 0 260 260">
  <rect width="100%" height="100%" fill="#1a1a2e" />
  <polygon points="5.2,5.2 20.8,5.2 20.8,20.8 5.2,20.8" fill="#ff6b6b" fill-opacity="0.5" stroke-opacity="0.5" />
  <polygon points="31.2,5.2 46.8,5.2 46.8,20.8 31.2,20.8" fill="#ff6b6b" fill-opacity="0.555556" stroke-opacity="0.555556" transform="rotate(20 39 13)" />
  <polygon points="57.2,5.2 72.8,5.2 72.8,20.8 57.2,20.8" fill="#ff6b6b" fill-opacity="0.611111" stroke-opacity="0.611111" transform="rotate(40 65 13)" />
  <polygon points="83.2,5.2 98.8,5.2 98.8,20.8 83.2,20.8" fill="#ff6b6b" fill-opacity="0.666667" stroke-opacity="0.666667" transform="rotate(60 91 13)" />
  <polygon points="109.2,5.2 124.8,5.2 124.8,20.8 109.2,20.8" fill="#ff6b6b" fill-opacity="0.722222" stroke-opacity="0.722222" transform="rotate(80 117 13)" />
  <polygon points="135.2,5.2 150.8,5.2 150.8,20.8 135.2,20.8" fill="#ff6b6b" fill-opacity="0.777778" stroke-opacity="0.777778" transform="rotate(100 143 13)" />
  <polygon points="161.2,5.2 176.8,5.2 176.8,20.8 161.2,20.8" fill="#ff6b6b" fill-opacity="0.833333" stroke-opacity="0.833333" transform="rotate(120 169 13)" />
  <polygon points="187.2,5.2 202.8,5.2 202.8,20.8 187.2,20.8" fill="#ff6b6b" fill-opacity="0.888889" stroke-opacity="0.888889" transform="rotate(140 195 13)" />
  <polygon points="213.2,5.2 228.8,5.2 228.8,20.8 213.2,20.8" fill="#ff6b6b" fill-opacity="0.944444" stroke-opacity="0.944444" transform="rotate(160 221 13)" />
  <polygon points="239.2,5.2 254.8,5.2 254.8,20.8 239.2,20.8" fill="#ff6b6b" transform="rotate(180 247 13)" />
  <polygon points="5.2,31.2 20.8,31.2 20.8,46.8 5.2,46.8" fill="#ff6b6b" fill-opacity="0.5" stroke-opacity="0.5" transform="rotate(20 13 39)" />
  <polygon points="31.2,31.2 46.8,31.2 46.8,46.8 31.2,46.8" fill="#ff6b6b" fill-opacity="0.555556" stroke-opacity="0.555556" transform="rotate(40 39 39)" />
  <polygon points="57.2,31.2 72.8,31.2 72.8,46.8 57.2,46.8" fill="#ff6b6b" fill-opacity="0.611111" stroke-opacity="0.611111" transform="rotate(60 65 39)" />
  <polygon points="83.2,31.2 98.8,31.2 98.8,46.8 83.2,46.8" fill="#ff6b6b" fill-opacity="0.666667" stroke-opacity="0.666667" transform="rotate(80 91 39)" />
  <polygon points="109.2,31.2 124.8,31.2 124.8,46.8 109.2,46.8" fill="#ff6b6b" fill-opacity="0.722222" stroke-opacity="0.722222" transform="rotate(100 117 39)" />
  <polygon points="135.2,31.2 150.8,31.2 150.8,46.8 135.2,46.8" fill="#ff6b6b" fill-opacity="0.777778" stroke-opacity="0.777778" transform="rotate(120 143 39)" />
  <polygon points="161.2,31.2 176.8,31.2 176.8,46.8 161.2,46.8" fill="#ff6b6b" fill-opacity="0.833333" stroke-opacity="0.833333" transform="rotate(140 169 39)" />
  <polygon points="187.2,31.2 202.8,31.2 202.8,46.8 187.2,46.8" fill="#ff6b6b" fill-opacity="0.888889" stroke-opacity="0.888889" transform="rotate(160 195 39)" />
  <polygon points="213.2,31.2 228.8,31.2 228.8,46.8 213.2,46.8" fill="#ff6b6b" fill-opacity="0.944444" stroke-opacity="0.944444" transform="rotate(180 221 39)" />
  <polygon points="239.2,31.2 254.8,31.2 254.8,46.8 239.2,46.8" fill="#ff6b6b" transform="rotate(200 247 39)" />
  <polygon points="5.2,57.2 20.8,57.2 20.8,72.8 5.2,72.8" fill="#ff6b6b" fill-opacity="0.5" stroke-opacity="0.5" transform="rotate(40 13 65)" />
  <polygon points="31.2,57.2 46.8,57.2 46.8,72.8 31.2,72.8" fill="#ff6b6b" fill-opacity="0.555556" stroke-opacity="0.555556" transform="rotate(60 39 65)" />
  <polygon points="57.2,57.2 72.8,57.2 72.8,72.8 57.2,72.8" fill="#ff6b6b" fill-opacity="0.611111" stroke-opacity="0.611111" transform="rotate(80 65 65)" />
  <polygon points="83.2,57.2 98.8,57.2 98.8,72.8 83.2,72.8" fill="#ff6b6b" fill-opacity="0.666667" stroke-opacity="0.666667" transform="rotate(100 91 65)" />
  <polygon points="109.2,57.2 124.8,57.2 124.8,72.8 109.2,72.8" fill="#ff6b6b" fill-opacity="0.722222" stroke-opacity="0.722222" transform="rotate(120 117 65)" />
  <polygon points="135.2,57.2 150.8,57.2 150.8,72.8 135.2,72.8" fill="#ff6b6b" fill-opacity="0.777778" stroke-opacity="0.777778" transform="rotate(140 143 65)" />
  <polygon points="161.2,57.2 176.8,57.2 176.8,72.8 161.2,72.8" fill="#ff6b6b" fill-opacity="0.833333" stroke-opacity="0.833333" transform="rotate(160 169 65)" />
  <polygon points="187.2,57.2 202.8,57.2 202.8,72.8 187.2,72.8" fill="#ff6b6b" fill-opacity="0.888889" stroke-opacity="0.888889" transform="rotate(180 195 65)" />
  <polygon points="213.2,57.2 228.8,57.2 228.8,72.8 213.2,72.8" fill="#ff6b6b" fill-opacity="0.944444" stroke-opacity="0.944444" transform="rotate(200 221 65)" />
  <polygon points="239.2,57.2 254.8,57.2 254.8,72.8 239.2,72.8" fill="#ff6b6b" transform="rotate(220 247 65)" />
  <polygon points="5.2,83.2 20.8,83.2 20.8,98.8 5.2,98.8" fill="#ff6b6b" fill-opacity="0.5" stroke-opacity="0.5" transform="rotate(60 13 91)" />
  <polygon points="31.2,83.2 46.8,83.2 46.8,98.8 31.2,98.8" fill="#ff6b6b" fill-opacity="0.555556" stroke-opacity="0.555556" transform="rotate(80 39 91)" />
  <polygon points="57.2,83.2 72.8,83.2 72.8,98.8 57.2,98.8" fill="#ff6b6b" fill-opacity="0.611111" stroke-opacity="0.611111" transform="rotate(100 65 91)" />
  <polygon points="83.2,83.2 98.8,83.2 98.8,98.8 83.2,98.8" fill="#ff6b6b" fill-opacity="0.666667" stroke-opacity="0.666667" transform="rotate(120 91 91)" />
  <polygon points="109.2,83.2 124.8,83.2 124.8,98.8 109.2,98.8" fill="#ff6b6b" fill-opacity="0.722222" stroke-opacity="0.722222" transform="rotate(140 117 91)" />
  <polygon points="135.2,83.2 150.8,83.2 150.8,98.8 135.2,98.8" fill="#ff6b6b" fill-opacity="0.777778" stroke-opacity="0.777778" transform="rotate(160 143 91)" />
  <polygon points="161.2,83.2 176.8,83.2 176.8,98.8 161.2,98.8" fill="#ff6b6b" fill-opacity="0.833333" stroke-opacity="0.833333" transform="rotate(180 169 91)" />
  <polygon points="187.2,83.2 202.8,83.2 202.8,98.8 187.2,98.8" fill="#ff6b6b" fill-opacity="0.888889" stroke-opacity="0.888889" transform="rotate(200 195 91)" />
  <polygon points="213.2,83.2 228.8,83.2 228.8,98.8 213.2,98.8" fill="#ff6b6b" fill-opacity="0.944444" stroke-opacity="0.944444" transform="rotate(220 221 91)" />
  <polygon points="239.2,83.2 254.8,83.2 254.8,98.8 239.2,98.8" fill="#ff6b6b" transform="rotate(240 247 91)" />
  <polygon points="5.2,109.2 20.8,109.2 20.8,124.8 5.2,124.8" fill="#ff6b6b" fill-opacity="0.5" stroke-opacity="0.5" transform="rotate(80 13 117)" />
  <polygon points="31.2,109.2 46.8,109.2 46.8,124.8 31.2,124.8" fill="#ff6b6b" fill-opacity="0.555556" stroke-opacity="0.555556" transform="rotate(100 39 117)" />
  <polygon points="57.2,109.2 72.8,109.2 72.8,124.8 57.2,124.8" fill="#ff6b6b" fill-opacity="0.611111" stroke-opacity="0.611111" transform="rotate(120 65 117)" />
  <polygon points="83.2,109.2 98.8,109.2 98.8,124.8 83.2,124.8" fill="#ff6b6b" fill-opacity="0.666667" stroke-opacity="0.666667" transform="rotate(140 91 117)" />
  <polygon points="109.2,109.2 124.8,109.2 124.8,124.8 109.2,124.8" fill="#ff6b6b" fill-opacity="0.722222" stroke-opacity="0.722222" transform="rotate(160 117 117)" />
  <polygon points="135.2,109.2 150.8,109.2 150.8,124.8 135.2,124.8" fill="#ff6b6b" fill-opacity="0.777778" stroke-opacity="0.777778" transform="rotate(180 143 117)" />
  <polygon points="161.2,109.2 176.8,109.2 176.8,124.8 161.2,124.8" fill="#ff6b6b" fill-opacity="0.833333" stroke-opacity="0.833333" transform="rotate(200 169 117)" />
  <polygon points="187.2,109.2 202.8,109.2 202.8,124.8 187.2,124.8" fill="#ff6b6b" fill-opacity="0.888889" stroke-opacity="0.888889" transform="rotate(220 195 117)" />
  <polygon points="213.2,109.2 228.8,109.2 228.8,124.8 213.2,124.8" fill="#ff6b6b" fill-opacity="0.944444" stroke-opacity="0.944444" transform="rotate(240 221 117)" />
  <polygon points="239.2,109.2 254.8,109.2 254.8,124.8 239.2,124.8" fill="#ff6b6b" transform="rotate(260 247 117)" />
  <polygon points="5.2,135.2 20.8,135.2 20.8,150.8 5.2,150.8" fill="#ff6b6b" fill-opacity="0.5" stroke-opacity="0.5" transform="rotate(100 13 143)" />
  <polygon points="31.2,135.2 46.8,135.2 46.8,150.8 31.2,150.8" fill="#ff6b6b" fill-opacity="0.555556" stroke-opacity="0.555556" transform="rotate(120 39 143)" />
  <polygon points="57.2,135.2 72.8,135.2 72.8,150.8 57.2,150.8" fill="#ff6b6b" fill-opacity="0.611111" stroke-opacity="0.611111" transform="rotate(140 65 143)" />
  <polygon points="83.2,135.2 98.8,135.2 98.8,150.8 83.2,150.8" fill="#ff6b6b" fill-opacity="0.666667" stroke-opacity="0.666667" transform="rotate(160 91 143)" />
  <polygon points="109.2,135.2 124.8,135.2 124.8,150.8 109.2,150.8" fill="#ff6b6b" fill-opacity="0.722222" stroke-opacity="0.722222" transform="rotate(180 117 143)" />
  <polygon points="135.2,135.2 150.8,135.2 150.8,150.8 135.2,150.8" fill="#ff6b6b" fill-opacity="0.777778" stroke-opacity="0.777778" transform="rotate(200 143 143)" />
  <polygon points="161.2,135.2 176.8,135.2 176.8,150.8 161.2,150.8" fill="#ff6b6b" fill-opacity="0.833333" stroke-opacity="0.833333" transform="rotate(220 169 143)" />
  <polygon points="187.2,135.2 202.8,135.2 202.8,150.8 187.2,150.8" fill="#ff6b6b" fill-opacity="0.888889" stroke-opacity="0.888889" transform="rotate(240 195 143)" />
  <polygon points="213.2,135.2 228.8,135.2 228.8,150.8 213.2,150.8" fill="#ff6b6b" fill-opacity="0.944444" stroke-opacity="0.944444" transform="rotate(260 221 143)" />
  <polygon points="239.2,135.2 254.8,135.2 254.8,150.8 239.2,150.8" fill="#ff6b6b" transform="rotate(280 247 143)" />
  <polygon points="5.2,161.2 20.8,161.2 20.8,176.8 5.2,176.8" fill="#ff6b6b" fill-opacity="0.5" stroke-opacity="0.5" transform="rotate(120 13 169)" />
  <polygon points="31.2,161.2 46.8,161.2 46.8,176.8 31.2,176.8" fill="#ff6b6b" fill-opacity="0.555556" stroke-opacity="0.555556" transform="rotate(140 39 169)" />
  <polygon points="57.2,161.2 72.8,161.2 72.8,176.8 57.2,176.8" fill="#ff6b6b" fill-opacity="0.611111" stroke-opacity="0.611111" transform="rotate(160 65 169)" />
  <polygon points="83.2,161.2 98.8,161.2 98.8,176.8 83.2,176.8" fill="#ff6b6b" fill-opacity="0.666667" stroke-opacity="0.666667" transform="rotate(180 91 169)" />
  <polygon points="109.2,161.2 124.8,161.2 124.8,176.8 109.2,176.8" fill="#ff6b6b" fill-opacity="0.722222" stroke-opacity="0.722222" transform="rotate(200 117 169)" />
  <polygon points="135.2,161.2 150.8,161.2 150.8,176.8 135.2,176.8" fill="#ff6b6b" fill-opacity="0.777778" stroke-opacity="0.777778" transform="rotate(220 143 169)" />
  <polygon points="161.2,161.2 176.8,161.2 176.8,176.8 161.2,176.8" fill="#ff6b6b" fill-opacity="0.833333" stroke-opacity="0.833333" transform="rotate(240 169 169)" />
  <polygon points="187.2,161.2 202.8,161.2 202.8,176.8 187.2,176.8" fill="#ff6b6b" fill-opacity="0.888889" stroke-opacity="0.888889" transform="rotate(260 195 169)" />
  <polygon points="213.2,161.2 228.8,161.2 228.8,176.8 213.2,176.8" fill="#ff6b6b" fill-opacity="0.944444" stroke-opacity="0.944444" transform="rotate(280 221 169)" />
  <polygon points="239.2,161.2 254.8,161.2 254.8,176.8 239.2,176.8" fill="#ff6b6b" transform="rotate(300 247 169)" />
  <polygon points="5.2,187.2 20.8,187.2 20.8,202.8 5.2,202.8" fill="#ff6b6b" fill-opacity="0.5" stroke-opacity="0.5" transform="rotate(140 13 195)" />
  <polygon points="31.2,187.2 46.8,187.2 46.8,202.8 31.2,202.8" fill="#ff6b6b" fill-opacity="0.555556" stroke-opacity="0.555556" transform="rotate(160 39 195)" />
  <polygon points="57.2,187.2 72.8,187.2 72.8,202.8 57.2,202.8" fill="#ff6b6b" fill-opacity="0.611111" stroke-opacity="0.611111" transform="rotate(180 65 195)" />
  <polygon points="83.2,187.2 98.8,187.2 98.8,202.8 83.2,202.8" fill="#ff6b6b" fill-opacity="0.666667" stroke-opacity="0.666667" transform="rotate(200 91 195)" />
  <polygon points="109.2,187.2 124.8,187.2 124.8,202.8 109.2,202.8" fill="#ff6b6b" fill-opacity="0.722222" stroke-opacity="0.722222" transform="rotate(220 117 195)" />
  <polygon points="135.2,187.2 150.8,187.2 150.8,202.8 135.2,202.8" fill="#ff6b6b" fill-opacity="0.777778" stroke-opacity="0.777778" transform="rotate(240 143 195)" />
  <polygon points="161.2,187.2 176.8,187.2 176.8,202.8 161.2,202.8" fill="#ff6b6b" fill-opacity="0.833333" stroke-opacity="0.833333" transform="rotate(260 169 195)" />
  <polygon points="187.2,187.2 202.8,187.2 202.8,202.8 187.2,202.8" fill="#ff6b6b" fill-opacity="0.888889" stroke-opacity="0.888889" transform="rotate(280 195 195)" />
  <polygon points="213.2,187.2 228.8,187.2 228.8,202.8 213.2,202.8" fill="#ff6b6b" fill-opacity="0.944444" stroke-opacity="0.944444" transform="rotate(300 221 195)" />
  <polygon points="239.2,187.2 254.8,187.2 254.8,202.8 239.2,202.8" fill="#ff6b6b" transform="rotate(320 247 195)" />
  <polygon points="5.2,213.2 20.8,213.2 20.8,228.8 5.2,228.8" fill="#ff6b6b" fill-opacity="0.5" stroke-opacity="0.5" transform="rotate(160 13 221)" />
  <polygon points="31.2,213.2 46.8,213.2 46.8,228.8 31.2,228.8" fill="#ff6b6b" fill-opacity="0.555556" stroke-opacity="0.555556" transform="rotate(180 39 221)" />
  <polygon points="57.2,213.2 72.8,213.2 72.8,228.8 57.2,228.8" fill="#ff6b6b" fill-opacity="0.611111" stroke-opacity="0.611111" transform="rotate(200 65 221)" />
  <polygon points="83.2,213.2 98.8,213.2 98.8,228.8 83.2,228.8" fill="#ff6b6b" fill-opacity="0.666667" stroke-opacity="0.666667" transform="rotate(220 91 221)" />
  <polygon points="109.2,213.2 124.8,213.2 124.8,228.8 109.2,228.8" fill="#ff6b6b" fill-opacity="0.722222" stroke-opacity="0.722222" transform="rotate(240 117 221)" />
  <polygon points="135.2,213.2 150.8,213.2 150.8,228.8 135.2,228.8" fill="#ff6b6b" fill-opacity="0.777778" stroke-opacity="0.777778" transform="rotate(260 143 221)" />
  <polygon points="161.2,213.2 176.8,213.2 176.8,228.8 161.2,228.8" fill="#ff6b6b" fill-opacity="0.833333" stroke-opacity="0.833333" transform="rotate(280 169 221)" />
  <polygon points="187.2,213.2 202.8,213.2 202.8,228.8 187.2,228.8" fill="#ff6b6b" fill-opacity="0.888889" stroke-opacity="0.888889" transform="rotate(300 195 221)" />
  <polygon points="213.2,213.2 228.8,213.2 228.8,228.8 213.2,228.8" fill="#ff6b6b" fill-opacity="0.944444" stroke-opacity="0.944444" transform="rotate(320 221 221)" />
  <polygon points="239.2,213.2 254.8,213.2 254.8,228.8 239.2,228.8" fill="#ff6b6b" transform="rotate(340 247 221)" />
  <polygon points="5.2,239.2 20.8,239.2 20.8,254.8 5.2,254.8" fill="#ff6b6b" fill-opacity="0.5" stroke-opacity="0.5" transform="rotate(180 13 247)" />
  <polygon points="31.2,239.2 46.8,239.2 46.8,254.8 31.2,254.8" fill="#ff6b6b" fill-opacity="0.555556" stroke-opacity="0.555556" transform="rotate(200 39 247)" />
  <polygon points="57.2,239.2 72.8,239.2 72.8,254.8 57.2,254.8" fill="#ff6b6b" fill-opacity="0.611111" stroke-opacity="0.611111" transform="rotate(220 65 247)" />
  <polygon points="83.2,239.2 98.8,239.2 98.8,254.8 83.2,254.8" fill="#ff6b6b" fill-opacity="0.666667" stroke-opacity="0.666667" transform="rotate(240 91 247)" />
  <polygon points="109.2,239.2 124.8,239.2 124.8,254.8 109.2,254.8" fill="#ff6b6b" fill-opacity="0.722222" stroke-opacity="0.722222" transform="rotate(260 117 247)" />
  <polygon points="135.2,239.2 150.8,239.2 150.8,254.8 135.2,254.8" fill="#ff6b6b" fill-opacity="0.777778" stroke-opacity="0.777778" transform="rotate(280 143 247)" />
  <polygon points="161.2,239.2 176.8,239.2 176.8,254.8 161.2,254.8" fill="#ff6b6b" fill-opacity="0.833333" stroke-opacity="0.833333" transform="rotate(300 169 247)" />
  <polygon points="187.2,239.2 202.8,239.2 202.8,254.8 187.2,254.8" fill="#ff6b6b" fill-opacity="0.888889" stroke-opacity="0.888889" transform="rotate(320 195 247)" />
  <polygon points="213.2,239.2 228.8,239.2 228.8,254.8 213.2,254.8" fill="#ff6b6b" fill-opacity="0.944444" stroke-opacity="0.944444" transform="rotate(340 221 247)" />
  <polygon points="239.2,239.2 254.8,239.2 254.8,254.8 239.2,254.8" fill="#ff6b6b" />
</svg>