<?xml version="1.0" encoding="UTF-8"?>
<svg xmlns="http://www.w3.org/2000/svg" width="200" height="200" viewBox="0 0 200 200">
  <rect width="100%" height="100%" fill="#1a1a2e" />
  <line x1="20" y1="0" x2="20" y2="200" stroke="#3d3d5c" stroke-width="0.5" stroke-linecap="round" opacity="0.3" />
  <line x1="0" y1="20" x2="200" y2="20" stroke="#3d3d5c" stroke-width="0.5" stroke-linecap="round" opacity="0.3" />
  <line x1="40" y1="0" x2="40" y2="200" stroke="#3d3d5c" stroke-width="0.5" stroke-linecap="round" opacity="0.3" />
  <line x1="0" y1="40" x2="200" y2="40" stroke="#3d3d5c" stroke-width="0.5" stroke-linecap="round" opacity="0.3" />
  <line x1="60" y1="0" x2="60" y2="200" stroke="#3d3d5c" stroke-width="0.5" stroke-linecap="round" opacity="0.3" />
  <line x1="0" y1="60" x2="200" y2="60" stroke="#3d3d5c" stroke-width="0.5" stroke-linecap="round" opacity="0.3" />
  <line x1="80" y1="0" x2="80" y2="200" stroke="#3d3d5c" stroke-width="0.5" stroke-linecap="round" opacity="0.3" />
  <line x1="0" y1="80" x2="200" y2="80" stroke="#3d3d5c" stroke-width="0.5" stroke-linecap="round" opacity="0.3" />
  <line x1="100" y1="0" x2="100" y2="200" stroke="#3d3d5c" stroke-width="0.5" stroke-linecap="round" opacity="0.3" />
  <line x1="0" y1="100" x2="200" y2="100" stroke="#3d3d5c" stroke-width="0.5" stroke-linecap="round" opacity="0.3" />
  <line x1="120" y1="0" x2="120" y2="200" stroke="#3d3d5c" stroke-width="0.5" stroke-linecap="round" opacity="0.3" />
  <line x1="0" y1="120" x2="200" y2="120" stroke="#3d3d5c" stroke-width="0.5" stroke-linecap="round" opacity="0.3" />
  <line x1="140" y1="0" x2="140" y2="200" stroke="#3d3d5c" stroke-width="0.5" stroke-linecap="round" opacity="0.3" />
  <line x1="0" y1="140" x2="200" y2="140" stroke="#3d3d5c" stroke-width="0.5" stroke-linecap="round" opacity="0.3" />
  <line x1="160" y1="0" x2="160" y2="200" stroke="#3d3d5c" stroke-width="0.5" stroke-linecap="round" opacity="0.3" />
  <line x1="0" y1="160" x2="200" y2="160" stroke="#3d3d5c" stroke-width="0.5" stroke-linecap="round" opacity="0.3" />
  <line x1="180" y1="0" x2="180" y2="200" stroke="#3d3d5c" stroke-width="0.5" stroke-linecap="round" opacity="0.3" />
  <line x1="0" y1="180" x2="200" y2="180" stroke="#3d3d5c" stroke-width="0.5" stroke-linecap="round" opacity="0.3" />
  <ellipse cx="100" cy="100" rx="70" ry="70" fill="#ff6b6b" fill-opacity="0.2" stroke-opacity="0.2" />
  <polygon points="134.641,120 100,140 65.359,120 65.359,80 100,60 134.641,80" fill="#ffe66d" fill-opacity="0.6" stroke-opacity="0.6" />
  <circle cx="100" cy="100" r="12" fill="#ffffff" opacity="0.9" />
</svg>