<?xml version="1.0" encoding="UTF-8"?>
<svg xmlns="http://www.w3.org/2000/svg" width="300" height="200" viewBox="0 0 300 200">
  <rect width="100%" height="100%" fill="#2d1b4e" />
  <polygon points="10,4 16,10 10,16 4,10" fill="#ff6b35" fill-opacity="0.3" stroke-opacity="0.3" />
  <polygon points="30,4 36,10 30,16 24,10" fill="#ff6b35" fill-opacity="0.325" stroke-opacity="0.325" />
  <polygon points="50,4 56,10 50,16 44,10" fill="#ff6b35" fill-opacity="0.35" stroke-opacity="0.35" />
  <polygon points="70,4 76,10 70,16 64,10" fill="#ff6b35" fill-opacity="0.375" stroke-opacity="0.375" />
  <polygon points="90,4 96,10 90,16 84,10" fill="#ff6b35" fill-opacity="0.4" stroke-opacity="0.4" />
  <polygon points="110,4 116,10 110,16 104,10" fill="#ff6b35" fill-opacity="0.425" stroke-opacity="0.425" />
  <polygon points="130,4 136,10 130,16 124,10" fill="#ff6b35" fill-opacity="0.45" stroke-opacity="0.45" />
  <polygon points="150,4 156,10 150,16 144,10" fill="#ff6b35" fill-opacity="0.475" stroke-opacity="0.475" />
  <polygon points="170,4 176,10 170,16 164,10" fill="#ff6b35" fill-opacity="0.5" stroke-opacity="0.5" />
  <polygon points="190,4 196,10 190,16 184,10" fill="#ff6b35" fill-opacity="0.525" stroke-opacity="0.525" />
  <polygon points="210,4 216,10 210,16 204,10" fill="#ff6b35" fill-opacity="0.55" stroke-opacity="0.55" />
  <polygon points="230,4 236,10 230,16 224,10" fill="#ff6b35" fill-opacity="0.575" stroke-opacity="0.575" />
  <polygon points="250,4 256,10 250,16 244,10" fill="#ff6b35" fill-opacity="0.6" stroke-opacity="0.6" />
  <polygon points="270,4 276,10 270,16 264,10" fill="#ff6b35" fill-opacity="0.625" stroke-opacity="0.625" />
  <polygon points="290,4 296,10 290,16 284,10" fill="#ff6b35" fill-opacity="0.65" stroke-opacity="0.65" />
  <polygon points="10,24 16,30 10,36 4,30" fill="#ff6b35" fill-opacity="0.338889" stroke-opacity="0.338889" transform="rotate(10 10 30)" />
  <polygon points="30,24 36,30 30,36 24,30" fill="#ff6b35" fill-opacity="0.363889" stroke-opacity="0.363889" transform="rotate(10 30 30)" />
  <polygon points="50,24 56,30 50,36 44,30" fill="#ff6b35" fill-opacity="0.388889" stroke-opacity="0.388889" transform="rotate(10 50 30)" />
  <polygon points="70,24 76,30 70,36 64,30" fill="#ff6b35" fill-opacity="0.413889" stroke-opacity="0.413889" transform="rotate(10 70 30)" />
  <polygon points="90,24 96,30 90,36 84,30" fill="#ff6b35" fill-opacity="0.438889" stroke-opacity="0.438889" transform="rotate(10 90 30)" />
  <polygon points="110,24 116,30 110,36 104,30" fill="#ff6b35" fill-opacity="0.463889" stroke-opacity="0.463889" transform="rotate(10 110 30)" />
  <polygon points="130,24 136,30 130,36 124,30" fill="#ff6b35" fill-opacity="0.488889" stroke-opacity="0.488889" transform="rotate(10 130 30)" />
  <polygon points="150,24 156,30 150,36 144,30" fill="#ff6b35" fill-opacity="0.513889" stroke-opacity="0.513889" transform="rotate(10 150 30)" />
  <polygon points="170,24 176,30 170,36 164,30" fill="#ff6b35" fill-opacity="0.538889" stroke-opacity="0.538889" transform="rotate(10 170 30)" />
  <polygon points="190,24 196,30 190,36 184,30" fill="#ff6b35" fill-opacity="0.563889" stroke-opacity="0.563889" transform="rotate(10 190 30)" />
  <polygon points="210,24 216,30 210,36 204,30" fill="#ff6b35" fill-opacity="0.588889" stroke-opacity="0.588889" transform="rotate(10 210 30)" />
  <polygon points="230,24 236,30 230,36 224,30" fill="#ff6b35" fill-opacity="0.613889" stroke-opacity="0.613889" transform="rotate(10 230 30)" />
  <polygon points="250,24 256,30 250,36 244,30" fill="#ff6b35" fill-opacity="0.638889" stroke-opacity="0.638889" transform="rotate(10 250 30)" />
  <polygon points="270,24 276,30 270,36 264,30" fill="#ff6b35" fill-opacity="0.663889" stroke-opacity="0.663889" transform="rotate(10 270 30)" />
  <polygon points="290,24 296,30 290,36 284,30" fill="#ff6b35" fill-opacity="0.688889" stroke-opacity="0.688889" transform="rotate(10 290 30)" />
  <polygon points="10,44 16,50 10,56 4,50" fill="#ff6b35" fill-opacity="0.377778" stroke-opacity="0.377778" transform="rotate(20 10 50)" />
  <polygon points="30,44 36,50 30,56 24,50" fill="#ff6b35" fill-opacity="0.402778" stroke-opacity="0.402778" transform="rotate(20 30 50)" />
  <polygon points="50,44 56,50 50,56 44,50" fill="#ff6b35" fill-opacity="0.427778" stroke-opacity="0.427778" transform="rotate(20 50 50)" />
  <polygon points="70,44 76,50 70,56 64,50" fill="#ff6b35" fill-opacity="0.452778" stroke-opacity="0.452778" transform="rotate(20 70 50)" />
  <polygon points="90,44 96,50 90,56 84,50" fill="#ff6b35" fill-opacity="0.477778" stroke-opacity="0.477778" transform="rotate(20 90 50)" />
  <polygon points="110,44 116,50 110,56 104,50" fill="#ff6b35" fill-opacity="0.502778" stroke-opacity="0.502778" transform="rotate(20 110 50)" />
  <polygon points="130,44 136,50 130,56 124,50" fill="#ff6b35" fill-opacity="0.527778" stroke-opacity="0.527778" transform="rotate(20 130 50)" />
  <polygon points="150,44 156,50 150,56 144,50" fill="#ff6b35" fill-opacity="0.552778" stroke-opacity="0.552778" transform="rotate(20 150 50)" />
  <polygon points="170,44 176,50 170,56 164,50" fill="#ff6b35" fill-opacity="0.577778" stroke-opacity="0.577778" transform="rotate(20 170 50)" />
  <polygon points="190,44 196,50 190,56 184,50" fill="#ff6b35" fill-opacity="0.602778" stroke-opacity="0.602778" transform="rotate(20 190 50)" />
  <polygon points="210,44 216,50 210,56 204,50" fill="#ff6b35" fill-opacity="0.627778" stroke-opacity="0.627778" transform="rotate(20 210 50)" />
  <polygon points="230,44 236,50 230,56 224,50" fill="#ff6b35" fill-opacity="0.652778" stroke-opacity="0.652778" transform="rotate(20 230 50)" />
  <polygon points="250,44 256,50 250,56 244,50" fill="#ff6b35" fill-opacity="0.677778" stroke-opacity="0.677778" transform="rotate(20 250 50)" />
  <polygon points="270,44 276,50 270,56 264,50" fill="#ff6b35" fill-opacity="0.702778" stroke-opacity="0.702778" transform="rotate(20 270 50)" />
  <polygon points="290,44 296,50 290,56 284,50" fill="#ff6b35" fill-opacity="0.727778" stroke-opacity="0.727778" transform="rotate(20 290 50)" />
  <polygon points="10,64 16,70 10,76 4,70" fill="#ff6b35" fill-opacity="0.416667" stroke-opacity="0.416667" transform="rotate(30 10 70)" />
  <polygon points="30,64 36,70 30,76 24,70" fill="#ff6b35" fill-opacity="0.441667" stroke-opacity="0.441667" transform="rotate(30 30 70)" />
  <polygon points="50,64 56,70 50,76 44,70" fill="#ff6b35" fill-opacity="0.466667" stroke-opacity="0.466667" transform="rotate(30 50 70)" />
  <polygon points="70,64 76,70 70,76 64,70" fill="#ff6b35" fill-opacity="0.491667" stroke-opacity="0.491667" transform="rotate(30 70 70)" />
  <polygon points="90,64 96,70 90,76 84,70" fill="#ff6b35" fill-opacity="0.516667" stroke-opacity="0.516667" transform="rotate(30 90 70)" />
  <polygon points="110,64 116,70 110,76 104,70" fill="#ff6b35" fill-opacity="0.541667" stroke-opacity="0.541667" transform="rotate(30 110 70)" />
  <polygon points="130,64 136,70 130,76 124,70" fill="#ff6b35" fill-opacity="0.566667" stroke-opacity="0.566667" transform="rotate(30 130 70)" />
  <polygon points="150,64 156,70 150,76 144,70" fill="#ff6b35" fill-opacity="0.591667" stroke-opacity="0.591667" transform="rotate(30 150 70)" />
  <polygon points="170,64 176,70 170,76 164,70" fill="#ff6b35" fill-opacity="0.616667" stroke-opacity="0.616667" transform="rotate(30 170 70)" />
  <polygon points="190,64 196,70 190,76 184,70" fill="#ff6b35" fill-opacity="0.641667" stroke-opacity="0.641667" transform="rotate(30 190 70)" />
  <polygon points="210,64 216,70 210,76 204,70" fill="#ff6b35" fill-opacity="0.666667" stroke-opacity="0.666667" transform="rotate(30 210 70)" />
  <polygon points="230,64 236,70 230,76 224,70" fill="#ff6b35" fill-opacity="0.691667" stroke-opacity="0.691667" transform="rotate(30 230 70)" />
  <polygon points="250,64 256,70 250,76 244,70" fill="#ff6b35" fill-opacity="0.716667" stroke-opacity="0.716667" transform="rotate(30 250 70)" />
  <polygon points="270,64 276,70 270,76 264,70" fill="#ff6b35" fill-opacity="0.741667" stroke-opacity="0.741667" transform="rotate(30 270 70)" />
  <polygon points="290,64 296,70 290,76 284,70" fill="#ff6b35" fill-opacity="0.766667" stroke-opacity="0.766667" transform="rotate(30 290 70)" />
  <polygon points="10,84 16,90 10,96 4,90" fill="#ff6b35" fill-opacity="0.455556" stroke-opacity="0.455556" transform="rotate(40 10 90)" />
  <polygon points="30,84 36,90 30,96 24,90" fill="#ff6b35" fill-opacity="0.480556" stroke-opacity="0.480556" transform="rotate(40 30 90)" />
  <polygon points="50,84 56,90 50,96 44,90" fill="#ff6b35" fill-opacity="0.505556" stroke-opacity="0.505556" transform="rotate(40 50 90)" />
  <polygon points="70,84 76,90 70,96 64,90" fill="#ff6b35" fill-opacity="0.530556" stroke-opacity="0.530556" transform="rotate(40 70 90)" />
  <polygon points="90,84 96,90 90,96 84,90" fill="#ff6b35" fill-opacity="0.555556" stroke-opacity="0.555556" transform="rotate(40 90 90)" />
  <polygon points="110,84 116,90 110,96 104,90" fill="#ff6b35" fill-opacity="0.580556" stroke-opacity="0.580556" transform="rotate(40 110 90)" />
  <polygon points="130,84 136,90 130,96 124,90" fill="#ff6b35" fill-opacity="0.605556" stroke-opacity="0.605556" transform="rotate(40 130 90)" />
  <polygon points="150,84 156,90 150,96 144,90" fill="#ff6b35" fill-opacity="0.630556" stroke-opacity="0.630556" transform="rotate(40 150 90)" />
  <polygon points="170,84 176,90 170,96 164,90" fill="#ff6b35" fill-opacity="0.655556" stroke-opacity="0.655556" transform="rotate(40 170 90)" />
  <polygon points="190,84 196,90 190,96 184,90" fill="#ff6b35" fill-opacity="0.680556" stroke-opacity="0.680556" transform="rotate(40 190 90)" />
  <polygon points="210,84 216,90 210,96 204,90" fill="#ff6b35" fill-opacity="0.705556" stroke-opacity="0.705556" transform="rotate(40 210 90)" />
  <polygon points="230,84 236,90 230,96 224,90" fill="#ff6b35" fill-opacity="0.730556" stroke-opacity="0.730556" transform="rotate(40 230 90)" />
  <polygon points="250,84 256,90 250,96 244,90" fill="#ff6b35" fill-opacity="0.755556" stroke-opacity="0.755556" transform="rotate(40 250 90)" />
  <polygon points="270,84 276,90 270,96 264,90" fill="#ff6b35" fill-opacity="0.780556" stroke-opacity="0.780556" transform="rotate(40 270 90)" />
  <polygon points="290,84 296,90 290,96 284,90" fill="#ff6b35" fill-opacity="0.805556" stroke-opacity="0.805556" transform="rotate(40 290 90)" />
  <polygon points="10,104 16,110 10,116 4,110" fill="#ff6b35" fill-opacity="0.494444" stroke-opacity="0.494444" transform="rotate(50 10 110)" />
  <polygon points="30,104 36,110 30,116 24,110" fill="#ff6b35" fill-opacity="0.519444" stroke-opacity="0.519444" transform="rotate(50 30 110)" />
  <polygon points="50,104 56,110 50,116 44,110" fill="#ff6b35" fill-opacity="0.544444" stroke-opacity="0.544444" transform="rotate(50 50 110)" />
  <polygon points="70,104 76,110 70,116 64,110" fill="#ff6b35" fill-opacity="0.569444" stroke-opacity="0.569444" transform="rotate(50 70 110)" />
  <polygon points="90,104 96,110 90,116 84,110" fill="#ff6b35" fill-opacity="0.594444" stroke-opacity="0.594444" transform="rotate(50 90 110)" />
  <polygon points="110,104 116,110 110,116 104,110" fill="#ff6b35" fill-opacity="0.619444" stroke-opacity="0.619444" transform="rotate(50 110 110)" />
  <polygon points="130,104 136,110 130,116 124,110" fill="#ff6b35" fill-opacity="0.644444" stroke-opacity="0.644444" transform="rotate(50 130 110)" />
  <polygon points="150,104 156,110 150,116 144,110" fill="#ff6b35" fill-opacity="0.669444" stroke-opacity="0.669444" transform="rotate(50 150 110)" />
  <polygon points="170,104 176,110 170,116 164,110" fill="#ff6b35" fill-opacity="0.694444" stroke-opacity="0.694444" transform="rotate(50 170 110)" />
  <polygon points="190,104 196,110 190,116 184,110" fill="#ff6b35" fill-opacity="0.719444" stroke-opacity="0.719444" transform="rotate(50 190 110)" />
  <polygon points="210,104 216,110 210,116 204,110" fill="#ff6b35" fill-opacity="0.744444" stroke-opacity="0.744444" transform="rotate(50 210 110)" />
  <polygon points="230,104 236,110 230,116 224,110" fill="#ff6b35" fill-opacity="0.769444" stroke-opacity="0.769444" transform="rotate(50 230 110)" />
  <polygon points="250,104 256,110 250,116 244,110" fill="#ff6b35" fill-opacity="0.794444" stroke-opacity="0.794444" transform="rotate(50 250 110)" />
  <polygon points="270,104 276,110 270,116 264,110" fill="#ff6b35" fill-opacity="0.819444" stroke-opacity="0.819444" transform="rotate(50 270 110)" />
  <polygon points="290,104 296,110 290,116 284,110" fill="#ff6b35" fill-opacity="0.844444" stroke-opacity="0.844444" transform="rotate(50 290 110)" />
  <polygon points="10,124 16,130 10,136 4,130" fill="#ff6b35" fill-opacity="0.533333" stroke-opacity="0.533333" transform="rotate(60 10 130)" />
  <polygon points="30,124 36,130 30,136 24,130" fill="#ff6b35" fill-opacity="0.558333" stroke-opacity="0.558333" transform="rotate(60 30 130)" />
  <polygon points="50,124 56,130 50,136 44,130" fill="#ff6b35" fill-opacity="0.583333" stroke-opacity="0.583333" transform="rotate(60 50 130)" />
  <polygon points="70,124 76,130 70,136 64,130" fill="#ff6b35" fill-opacity="0.608333" stroke-opacity="0.608333" transform="rotate(60 70 130)" />
  <polygon points="90,124 96,130 90,136 84,130" fill="#ff6b35" fill-opacity="0.633333" stroke-opacity="0.633333" transform="rotate(60 90 130)" />
  <polygon points="110,124 116,130 110,136 104,130" fill="#ff6b35" fill-opacity="0.658333" stroke-opacity="0.658333" transform="rotate(60 110 130)" />
  <polygon points="130,124 136,130 130,136 124,130" fill="#ff6b35" fill-opacity="0.683333" stroke-opacity="0.683333" transform="rotate(60 130 130)" />
  <polygon points="150,124 156,130 150,136 144,130" fill="#ff6b35" fill-opacity="0.708333" stroke-opacity="0.708333" transform="rotate(60 150 130)" />
  <polygon points="170,124 176,130 170,136 164,130" fill="#ff6b35" fill-opacity="0.733333" stroke-opacity="0.733333" transform="rotate(60 170 130)" />
  <polygon points="190,124 196,130 190,136 184,130" fill="#ff6b35" fill-opacity="0.758333" stroke-opacity="0.758333" transform="rotate(60 190 130)" />
  <polygon points="210,124 216,130 210,136 204,130" fill="#ff6b35" fill-opacity="0.783333" stroke-opacity="0.783333" transform="rotate(60 210 130)" />
  <polygon points="230,124 236,130 230,136 224,130" fill="#ff6b35" fill-opacity="0.808333" stroke-opacity="0.808333" transform="rotate(60 230 130)" />
  <polygon points="250,124 256,130 250,136 244,130" fill="#ff6b35" fill-opacity="0.833333" stroke-opacity="0.833333" transform="rotate(60 250 130)" />
  <polygon points="270,124 276,130 270,136 264,130" fill="#ff6b35" fill-opacity="0.858333" stroke-opacity="0.858333" transform="rotate(60 270 130)" />
  <polygon points="290,124 296,130 290,136 284,130" fill="#ff6b35" fill-opacity="0.883333" stroke-opacity="0.883333" transform="rotate(60 290 130)" />
  <polygon points="10,144 16,150 10,156 4,150" fill="#ff6b35" fill-opacity="0.572222" stroke-opacity="0.572222" transform="rotate(70 10 150)" />
  <polygon points="30,144 36,150 30,156 24,150" fill="#ff6b35" fill-opacity="0.597222" stroke-opacity="0.597222" transform="rotate(70 30 150)" />
  <polygon points="50,144 56,150 50,156 44,150" fill="#ff6b35" fill-opacity="0.622222" stroke-opacity="0.622222" transform="rotate(70 50 150)" />
  <polygon points="70,144 76,150 70,156 64,150" fill="#ff6b35" fill-opacity="0.647222" stroke-opacity="0.647222" transform="rotate(70 70 150)" />
  <polygon points="90,144 96,150 90,156 84,150" fill="#ff6b35" fill-opacity="0.672222" stroke-opacity="0.672222" transform="rotate(70 90 150)" />
  <polygon points="110,144 116,150 110,156 104,150" fill="#ff6b35" fill-opacity="0.697222" stroke-opacity="0.697222" transform="rotate(70 110 150)" />
  <polygon points="130,144 136,150 130,156 124,150" fill="#ff6b35" fill-opacity="0.722222" stroke-opacity="0.722222" transform="rotate(70 130 150)" />
  <polygon points="150,144 156,150 150,156 144,150" fill="#ff6b35" fill-opacity="0.747222" stroke-opacity="0.747222" transform="rotate(70 150 150)" />
  <polygon points="170,144 176,150 170,156 164,150" fill="#ff6b35" fill-opacity="0.772222" stroke-opacity="0.772222" transform="rotate(70 170 150)" />
  <polygon points="190,144 196,150 190,156 184,150" fill="#ff6b35" fill-opacity="0.797222" stroke-opacity="0.797222" transform="rotate(70 190 150)" />
  <polygon points="210,144 216,150 210,156 204,150" fill="#ff6b35" fill-opacity="0.822222" stroke-opacity="0.822222" transform="rotate(70 210 150)" />
  <polygon points="230,144 236,150 230,156 224,150" fill="#ff6b35" fill-opacity="0.847222" stroke-opacity="0.847222" transform="rotate(70 230 150)" />
  <polygon points="250,144 256,150 250,156 244,150" fill="#ff6b35" fill-opacity="0.872222" stroke-opacity="0.872222" transform="rotate(70 250 150)" />
  <polygon points="270,144 276,150 270,156 264,150" fill="#ff6b35" fill-opacity="0.897222" stroke-opacity="0.897222" transform="rotate(70 270 150)" />
  <polygon points="290,144 296,150 290,156 284,150" fill="#ff6b35" fill-opacity="0.922222" stroke-opacity="0.922222" transform="rotate(70 290 150)" />
  <polygon points="10,164 16,170 10,176 4,170" fill="#ff6b35" fill-opacity="0.611111" stroke-opacity="0.611111" transform="rotate(80 10 170)" />
  <polygon points="30,164 36,170 30,176 24,170" fill="#ff6b35" fill-opacity="0.636111" stroke-opacity="0.636111" transform="rotate(80 30 170)" />
  <polygon points="50,164 56,170 50,176 44,170" fill="#ff6b35" fill-opacity="0.661111" stroke-opacity="0.661111" transform="rotate(80 50 170)" />
  <polygon points="70,164 76,170 70,176 64,170" fill="#ff6b35" fill-opacity="0.686111" stroke-opacity="0.686111" transform="rotate(80 70 170)" />
  <polygon points="90,164 96,170 90,176 84,170" fill="#ff6b35" fill-opacity="0.711111" stroke-opacity="0.711111" transform="rotate(80 90 170)" />
  <polygon points="110,164 116,170 110,176 104,170" fill="#ff6b35" fill-opacity="0.736111" stroke-opacity="0.736111" transform="rotate(80 110 170)" />
  <polygon points="130,164 136,170 130,176 124,170" fill="#ff6b35" fill-opacity="0.761111" stroke-opacity="0.761111" transform="rotate(80 130 170)" />
  <polygon points="150,164 156,170 150,176 144,170" fill="#ff6b35" fill-opacity="0.786111" stroke-opacity="0.786111" transform="rotate(80 150 170)" />
  <polygon points="170,164 176,170 170,176 164,170" fill="#ff6b35" fill-opacity="0.811111" stroke-opacity="0.811111" transform="rotate(80 170 170)" />
  <polygon points="190,164 196,170 190,176 184,170" fill="#ff6b35" fill-opacity="0.836111" stroke-opacity="0.836111" transform="rotate(80 190 170)" />
  <polygon points="210,164 216,170 210,176 204,170" fill="#ff6b35" fill-opacity="0.861111" stroke-opacity="0.861111" transform="rotate(80 210 170)" />
  <polygon points="230,164 236,170 230,176 224,170" fill="#ff6b35" fill-opacity="0.886111" stroke-opacity="0.886111" transform="rotate(80 230 170)" />
  <polygon points="250,164 256,170 250,176 244,170" fill="#ff6b35" fill-opacity="0.911111" stroke-opacity="0.911111" transform="rotate(80 250 170)" />
  <polygon points="270,164 276,170 270,176 264,170" fill="#ff6b35" fill-opacity="0.936111" stroke-opacity="0.936111" transform="rotate(80 270 170)" />
  <polygon points="290,164 296,170 290,176 284,170" fill="#ff6b35" fill-opacity="0.961111" stroke-opacity="0.961111" transform="rotate(80 290 170)" />
  <polygon points="10,184 16,190 10,196 4,190" fill="#ff6b35" fill-opacity="0.65" stroke-opacity="0.65" transform="rotate(90 10 190)" />
  <polygon points="30,184 36,190 30,196 24,190" fill="#ff6b35" fill-opacity="0.675" stroke-opacity="0.675" transform="rotate(90 30 190)" />
  <polygon points="50,184 56,190 50,196 44,190" fill="#ff6b35" fill-opacity="0.7" stroke-opacity="0.7" transform="rotate(90 50 190)" />
  <polygon points="70,184 76,190 70,196 64,190" fill="#ff6b35" fill-opacity="0.725" stroke-opacity="0.725" transform="rotate(90 70 190)" />
  <polygon points="90,184 96,190 90,196 84,190" fill="#ff6b35" fill-opacity="0.75" stroke-opacity="0.75" transform="rotate(90 90 190)" />
  <polygon points="110,184 116,190 110,196 104,190" fill="#ff6b35" fill-opacity="0.775" stroke-opacity="0.775" transform="rotate(90 110 190)" />
  <polygon points="130,184 136,190 130,196 124,190" fill="#ff6b35" fill-opacity="0.8" stroke-opacity="0.8" transform="rotate(90 130 190)" />
  <polygon points="150,184 156,190 150,196 144,190" fill="#ff6b35" fill-opacity="0.825" stroke-opacity="0.825" transform="rotate(90 150 190)" />
  <polygon points="170,184 176,190 170,196 164,190" fill="#ff6b35" fill-opacity="0.85" stroke-opacity="0.85" transform="rotate(90 170 190)" />
  <polygon points="190,184 196,190 190,196 184,190" fill="#ff6b35" fill-opacity="0.875" stroke-opacity="0.875" transform="rotate(90 190 190)" />
  <polygon points="210,184 216,190 210,196 204,190" fill="#ff6b35" fill-opacity="0.9" stroke-opacity="0.9" transform="rotate(90 210 190)" />
  <polygon points="230,184 236,190 230,196 224,190" fill="#ff6b35" fill-opacity="0.925" stroke-opacity="0.925" transform="rotate(90 230 190)" />
  <polygon points="250,184 256,190 250,196 244,190" fill="#ff6b35" fill-opacity="0.95" stroke-opacity="0.95" transform="rotate(90 250 190)" />
  <polygon points="270,184 276,190 270,196 264,190" fill="#ff6b35" fill-opacity="0.975" stroke-opacity="0.975" transform="rotate(90 270 190)" />
  <polygon points="290,184 296,190 290,196 284,190" fill="#ff6b35" transform="rotate(90 290 190)" />
</svg>