<?xml version="1.0" encoding="UTF-8"?>
<svg xmlns="http://www.w3.org/2000/svg" width="300" height="315.0" viewBox="0.0 105.0 300.0 315.0">
  <rect x="0.0" y="105.0" width="300.0" height="315.0" fill="#1a1a2e" />
  <text x="50" y="126" font-size="16.8" font-family="sans-serif" font-style="normal" font-weight="normal" fill="#aaaacc" text-anchor="middle" dominant-baseline="auto">default</text>
  <rect x="0.25" y="0.25" width="99.5" height="139.5" fill="none" stroke="#3d3d5c" stroke-width="0.5" fill-opacity="0.3" stroke-opacity="0.3" />
  <text x="150" y="126" font-size="16.8" font-family="sans-serif" font-style="normal" font-weight="normal" fill="#aaaacc" text-anchor="middle" dominant-baseline="auto">rotate</text>
  <rect x="100.25" y="0.25" width="99.5" height="139.5" fill="none" stroke="#3d3d5c" stroke-width="0.5" fill-opacity="0.3" stroke-opacity="0.3" />
  <text x="250" y="126" font-size="16" font-family="sans-serif" font-style="normal" font-weight="normal" fill="#aaaacc" text-anchor="middle" dominant-baseline="auto">match_aspect</text>
  <rect x="200.25" y="0.25" width="99.5" height="139.5" fill="none" stroke="#3d3d5c" stroke-width="0.5" fill-opacity="0.3" stroke-opacity="0.3" />
  <g transform="translate(50, 210) scale(1.63934)">
  <rect x="-30" y="-10" width="60" height="20" fill="#ff6b6b" stroke="#ffe66d" stroke-width="1" />
</g>
  <rect x="0.25" y="140.25" width="99.5" height="139.5" fill="none" stroke="#3d3d5c" stroke-width="0.5" fill-opacity="0.3" stroke-opacity="0.3" />
  <g transform="translate(150, 210) rotate(90) scale(2.29508)">
  <rect x="-30" y="-10" width="60" height="20" fill="#ff6b6b" stroke="#ffe66d" stroke-width="1" />
</g>
  <rect x="100.25" y="140.25" width="99.5" height="139.5" fill="none" stroke="#3d3d5c" stroke-width="0.5" fill-opacity="0.3" stroke-opacity="0.3" />
  <g transform="translate(250, 210) rotate(63.8636) scale(2.19866)">
  <rect x="-30" y="-10" width="60" height="20" fill="#ff6b6b" stroke="#ffe66d" stroke-width="1" />
</g>
  <rect x="200.25" y="140.25" width="99.5" height="139.5" fill="none" stroke="#3d3d5c" stroke-width="0.5" fill-opacity="0.3" stroke-opacity="0.3" />
  <g transform="translate(50, 336.354) scale(1.09167)">
  <path d="M -43.3013 -25 Q 0 -1.1843 43.3013 -25" fill="none" stroke="#ffa726" stroke-width="5" stroke-linecap="round" />
  <path d="M 43.3013 -25 Q 1.02564 0.592151 0 50" fill="none" stroke="#81c995" stroke-width="5" stroke-linecap="round" />
  <path d="M 0 50 Q -1.02564 0.592151 -43.3013 -25" fill="none" stroke="#7aafff" stroke-width="5" stroke-linecap="round" />
</g>
  <rect x="0.25" y="280.25" width="99.5" height="139.5" fill="none" stroke="#3d3d5c" stroke-width="0.5" fill-opacity="0.3" stroke-opacity="0.3" />
  <g transform="translate(165.625, 350) rotate(90) scale(1.25)">
  <path d="M -43.3013 -25 Q 0 -1.1843 43.3013 -25" fill="none" stroke="#ffa726" stroke-width="5" stroke-linecap="round" />
  <path d="M 43.3013 -25 Q 1.02564 0.592151 0 50" fill="none" stroke="#81c995" stroke-width="5" stroke-linecap="round" />
  <path d="M 0 50 Q -1.02564 0.592151 -43.3013 -25" fill="none" stroke="#7aafff" stroke-width="5" stroke-linecap="round" />
</g>
  <rect x="100.25" y="280.25" width="99.5" height="139.5" fill="none" stroke="#3d3d5c" stroke-width="0.5" fill-opacity="0.3" stroke-opacity="0.3" />
  <g transform="translate(265.625, 350) rotate(90) scale(1.25)">
  <path d="M -43.3013 -25 Q 0 -1.1843 43.3013 -25" fill="none" stroke="#ffa726" stroke-width="5" stroke-linecap="round" />
  <path d="M 43.3013 -25 Q 1.02564 0.592151 0 50" fill="none" stroke="#81c995" stroke-width="5" stroke-linecap="round" />
  <path d="M 0 50 Q -1.02564 0.592151 -43.3013 -25" fill="none" stroke="#7aafff" stroke-width="5" stroke-linecap="round" />
</g>
  <rect x="200.25" y="280.25" width="99.5" height="139.5" fill="none" stroke="#3d3d5c" stroke-width="0.5" fill-opacity="0.3" stroke-opacity="0.3" />
</svg>