<?xml version="1.0" encoding="UTF-8"?>
<svg xmlns="http://www.w3.org/2000/svg" width="240" height="200" viewBox="0 0 240 200">
  <rect width="100%" height="100%" fill="#0a1628" />
  <line x1="20.0" y1="20.0" x2="20.0" y2="100.0" stroke="#48cae4" stroke-width="1.0" stroke-linecap="round" opacity="0.4" />
  <line x1="20.0" y1="20.0" x2="100.0" y2="20.0" stroke="#48cae4" stroke-width="1.0" stroke-linecap="round" opacity="0.4" />
  <line x1="100.0" y1="20.0" x2="180.0" y2="20.0" stroke="#48cae4" stroke-width="1.0" stroke-linecap="round" opacity="0.4" />
  <line x1="100.0" y1="20.0" x2="100.0" y2="100.0" stroke="#48cae4" stroke-width="1.0" stroke-linecap="round" opacity="0.4" />
  <line x1="180.0" y1="20.0" x2="180.0" y2="100.0" stroke="#48cae4" stroke-width="1.0" stroke-linecap="round" opacity="0.4" />
  <line x1="60.0" y1="60.0" x2="60.0" y2="140.0" stroke="#48cae4" stroke-width="1.0" stroke-linecap="round" opacity="0.4" />
  <line x1="60.0" y1="60.0" x2="140.0" y2="60.0" stroke="#48cae4" stroke-width="1.0" stroke-linecap="round" opacity="0.4" />
  <line x1="140.0" y1="60.0" x2="140.0" y2="140.0" stroke="#48cae4" stroke-width="1.0" stroke-linecap="round" opacity="0.4" />
  <line x1="140.0" y1="60.0" x2="220.0" y2="60.0" stroke="#48cae4" stroke-width="1.0" stroke-linecap="round" opacity="0.4" />
  <line x1="220.0" y1="60.0" x2="220.0" y2="140.0" stroke="#48cae4" stroke-width="1.0" stroke-linecap="round" opacity="0.4" />
  <line x1="20.0" y1="100.0" x2="20.0" y2="180.0" stroke="#48cae4" stroke-width="1.0" stroke-linecap="round" opacity="0.4" />
  <line x1="20.0" y1="100.0" x2="100.0" y2="100.0" stroke="#48cae4" stroke-width="1.0" stroke-linecap="round" opacity="0.4" />
  <line x1="100.0" y1="100.0" x2="100.0" y2="180.0" stroke="#48cae4" stroke-width="1.0" stroke-linecap="round" opacity="0.4" />
  <line x1="100.0" y1="100.0" x2="180.0" y2="100.0" stroke="#48cae4" stroke-width="1.0" stroke-linecap="round" opacity="0.4" />
  <line x1="180.0" y1="100.0" x2="180.0" y2="180.0" stroke="#48cae4" stroke-width="1.0" stroke-linecap="round" opacity="0.4" />
  <line x1="60.0" y1="140.0" x2="140.0" y2="140.0" stroke="#48cae4" stroke-width="1.0" stroke-linecap="round" opacity="0.4" />
  <line x1="140.0" y1="140.0" x2="220.0" y2="140.0" stroke="#48cae4" stroke-width="1.0" stroke-linecap="round" opacity="0.4" />
  <line x1="20.0" y1="180.0" x2="100.0" y2="180.0" stroke="#48cae4" stroke-width="1.0" stroke-linecap="round" opacity="0.4" />
  <line x1="100.0" y1="180.0" x2="180.0" y2="180.0" stroke="#48cae4" stroke-width="1.0" stroke-linecap="round" opacity="0.4" />
  <circle cx="20.0" cy="20.0" r="6.0" fill="#00d9ff" opacity="0.8" />
  <circle cx="100.0" cy="20.0" r="6.0" fill="#00d9ff" opacity="0.8" />
  <circle cx="180.0" cy="20.0" r="6.0" fill="#00d9ff" opacity="0.8" />
  <circle cx="60.0" cy="60.0" r="6.0" fill="#00d9ff" opacity="0.8" />
  <circle cx="140.0" cy="60.0" r="6.0" fill="#00d9ff" opacity="0.8" />
  <circle cx="220.0" cy="60.0" r="6.0" fill="#00d9ff" opacity="0.8" />
  <circle cx="20.0" cy="100.0" r="6.0" fill="#00d9ff" opacity="0.8" />
  <circle cx="100.0" cy="100.0" r="6.0" fill="#00d9ff" opacity="0.8" />
  <circle cx="180.0" cy="100.0" r="6.0" fill="#00d9ff" opacity="0.8" />
  <circle cx="60.0" cy="140.0" r="6.0" fill="#00d9ff" opacity="0.8" />
  <circle cx="140.0" cy="140.0" r="6.0" fill="#00d9ff" opacity="0.8" />
  <circle cx="220.0" cy="140.0" r="6.0" fill="#00d9ff" opacity="0.8" />
  <circle cx="20.0" cy="180.0" r="6.0" fill="#00d9ff" opacity="0.8" />
  <circle cx="100.0" cy="180.0" r="6.0" fill="#00d9ff" opacity="0.8" />
  <circle cx="180.0" cy="180.0" r="6.0" fill="#00d9ff" opacity="0.8" />
</svg>