<?xml version="1.0" encoding="UTF-8"?>
<svg xmlns="http://www.w3.org/2000/svg" width="336" height="336" viewBox="0 0 336 336">
  <rect width="100%" height="100%" fill="#0f172a" />
  <circle cx="10.226735936132037" cy="10.658731033825228" r="5.113367968066019" fill="#a78bfa" />
  <circle cx="37.16607720950258" cy="12.573539185427926" r="4.583038604751291" fill="#a78bfa" />
  <circle cx="64.97023998397151" cy="14.321113969115538" r="4.485119991985755" fill="#f472b6" />
  <circle cx="93.19382077230601" cy="15.51731382096217" r="4.596910386153006" fill="#f472b6" />
  <circle cx="121.39380660381408" cy="16.045625184859954" r="4.885753623003478" fill="#fb923c" />
  <circle cx="149.3287550821541" cy="15.892371770424251" r="4.991855894237032" fill="#fb923c" />
  <circle cx="177.06408549925538" cy="15.01899364146147" r="4.850230092532194" fill="#fb923c" />
  <circle cx="204.9930390571263" cy="13.423855819661883" r="4.677312936943687" fill="#fb923c" />
  <circle cx="233.69659091668177" cy="11.376591861411162" r="4.8482954583408855" fill="#f472b6" />
  <circle cx="263.57885722118914" cy="9.5796303723996" r="4.7898151861998" fill="#f472b6" />
  <circle cx="294.4410016320068" cy="8.979330964844692" r="4.489665482422346" fill="#a78bfa" />
  <circle cx="325.34126896617477" cy="10.226735936132037" r="5.113367968066019" fill="#a78bfa" />
  <circle cx="8.979330964844692" cy="41.5589983679932" r="4.489665482422346" fill="#a78bfa" />
  <circle cx="37.37094372937448" cy="43.99334845006651" r="4.685471864687241" fill="#f472b6" />
  <circle cx="66.5349080900053" cy="45.659882246096075" r="5.377933558681823" fill="#fb923c" />
  <circle cx="95.71942644649008" cy="46.49450600923295" r="5.386384419059922" fill="#fb923c" />
  <circle cx="124.36019719773735" cy="46.765778715980375" r="5.547016550029754" fill="#fbbf24" />
  <circle cx="152.17790848040968" cy="46.69910443534053" r="5.755967599189068" fill="#fbbf24" />
  <circle cx="179.19083900727614" cy="46.184520822861174" r="6.074423663974834" fill="#fbbf24" />
  <circle cx="205.82869052860167" cy="44.82874129142671" r="5.90411550150137" fill="#fbbf24" />
  <circle cx="232.97907868087245" cy="42.43811996887879" r="5.088085853417247" fill="#fb923c" />
  <circle cx="261.5997838144005" cy="39.54242039396725" r="4.99288313346946" fill="#fb923c" />
  <circle cx="292.0066515499335" cy="37.37094372937448" r="4.685471864687241" fill="#f472b6" />
  <circle cx="323.42646081457207" cy="37.16607720950258" r="4.583038604751291" fill="#a78bfa" />
  <circle cx="9.5796303723996" cy="72.42114277881085" r="4.7898151861998" fill="#f472b6" />
  <circle cx="39.54242039396725" cy="74.4002161855995" r="4.99288313346946" fill="#fb923c" />
  <circle cx="69.83468158476356" cy="75.03728794308839" r="5.228248699865107" fill="#fbbf24" />
  <circle cx="99.58977810384503" cy="74.78269856676488" r="5.880000493440676" fill="#fbbf24" />
  <circle cx="128.4170795789729" cy="74.42259271343318" r="6.507412247089844" fill="#34d399" />
  <circle cx="156.2151733872554" cy="74.52709695769767" r="6.653586660664734" fill="#34d399" />
  <circle cx="182.8589793036098" cy="74.96626162782127" r="6.345125761411252" fill="#34d399" />
  <circle cx="208.46438429646074" cy="74.80036294576188" r="6.250734571923024" fill="#34d399" />
  <circle cx="233.99142938944243" cy="73.05498963339878" r="6.373840561214998" fill="#fbbf24" />
  <circle cx="260.9627120569116" cy="69.83468158476356" r="5.22824869986509" fill="#fbbf24" />
  <circle cx="290.34011775390394" cy="66.5349080900053" r="5.37793355868183" fill="#fb923c" />
  <circle cx="321.6788860308845" cy="64.97023998397151" r="4.485119991985755" fill="#f472b6" />
  <circle cx="11.376591861411162" cy="102.30340908331823" r="4.8482954583408855" fill="#f472b6" />
  <circle cx="42.43811996887879" cy="103.02092131912755" r="5.088085853417247" fill="#fb923c" />
  <circle cx="73.05498963339878" cy="102.00857061055758" r="6.3738405612149895" fill="#fbbf24" />
  <circle cx="102.48839688442291" cy="100.29257353380491" r="6.680768854988668" fill="#34d399" />
  <circle cx="130.91723852651796" cy="99.10560629218878" r="6.85364332303816" fill="#60a5fa" />
  <circle cx="158.8554969921239" cy="99.35120278251483" r="7.181945002903957" fill="#60a5fa" />
  <circle cx="185.96230384560866" cy="101.11476295006133" r="7.883444477475527" fill="#60a5fa" />
  <circle cx="211.33845963701836" cy="102.85902519031058" r="6.897569770316818" fill="#60a5fa" />
  <circle cx="235.70742646619507" cy="102.48839688442291" r="6.680768854988668" fill="#34d399" />
  <circle cx="261.2173014332351" cy="99.58977810384503" r="5.880000493440658" fill="#fbbf24" />
  <circle cx="289.50549399076704" cy="95.71942644649008" r="5.386384419059914" fill="#fb923c" />
  <circle cx="320.48268617903784" cy="93.19382077230601" r="4.596910386153006" fill="#f472b6" />
  <circle cx="13.423855819661883" cy="131.0069609428737" r="4.677312936943687" fill="#fb923c" />
  <circle cx="44.82874129142671" cy="130.17130947139833" r="5.90411550150137" fill="#fbbf24" />
  <circle cx="74.80036294576188" cy="127.53561570353926" r="6.250734571923024" fill="#34d399" />
  <circle cx="102.85902519031058" cy="124.66154036298165" r="6.897569770316818" fill="#60a5fa" />
  <circle cx="129.9842223763814" cy="122.91332346114118" r="8.22724590511527" fill="#60a5fa" />
  <circle cx="158.0794671977174" cy="123.04034674619683" r="8.600116985680192" fill="#a78bfa" />
  <circle cx="187.03936571045583" cy="126.07995771558791" r="7.76798027805987" fill="#a78bfa" />
  <circle cx="213.08667653885882" cy="129.9842223763814" r="8.22724590511527" fill="#60a5fa" />
  <circle cx="236.89439370781122" cy="130.91723852651796" r="6.85364332303816" fill="#60a5fa" />
  <circle cx="261.5774072865668" cy="128.4170795789729" r="6.507412247089844" fill="#34d399" />
  <circle cx="289.2342212840196" cy="124.36019719773735" r="5.547016550029746" fill="#fbbf24" />
  <circle cx="319.95437481514006" cy="121.39380660381408" r="4.885753623003478" fill="#fb923c" />
  <circle cx="15.018993641461474" cy="158.93591450074462" r="4.850230092532194" fill="#fb923c" />
  <circle cx="46.184520822861174" cy="156.80916099272383" r="6.074423663974834" fill="#fbbf24" />
  <circle cx="74.96626162782127" cy="153.1410206963902" r="6.345125761411252" fill="#34d399" />
  <circle cx="101.11476295006133" cy="150.03769615439134" r="7.883444477475527" fill="#60a5fa" />
  <circle cx="126.07995771558791" cy="148.96063428954417" r="7.76798027805987" fill="#a78bfa" />
  <circle cx="152.9015356476245" cy="149.0811611058543" r="8.540615801934408" fill="#f472b6" />
  <circle cx="186.9188388941457" cy="152.9015356476245" r="8.540615801934408" fill="#f472b6" />
  <circle cx="212.95965325380317" cy="158.0794671977174" r="8.600116985680192" fill="#a78bfa" />
  <circle cx="236.64879721748517" cy="158.8554969921239" r="7.181945002903957" fill="#60a5fa" />
  <circle cx="261.47290304230233" cy="156.2151733872554" r="6.653586660664734" fill="#34d399" />
  <circle cx="289.30089556465947" cy="152.17790848040968" r="5.755967599189068" fill="#fbbf24" />
  <circle cx="320.10762822957577" cy="149.3287550821541" r="4.991855894237032" fill="#fb923c" />
  <circle cx="15.892371770424248" cy="186.6712449178459" r="4.991855894237032" fill="#fb923c" />
  <circle cx="46.69910443534053" cy="183.82209151959032" r="5.755967599189068" fill="#fbbf24" />
  <circle cx="74.52709695769767" cy="179.78482661274464" r="6.653586660664734" fill="#34d399" />
  <circle cx="99.35120278251483" cy="177.1445030078761" r="7.181945002903957" fill="#60a5fa" />
  <circle cx="123.04034674619683" cy="177.9205328022826" r="8.600116985680192" fill="#a78bfa" />
  <circle cx="149.0811611058543" cy="183.0984643523755" r="8.540615801934408" fill="#f472b6" />
  <circle cx="183.0984643523755" cy="186.9188388941457" r="8.540615801934408" fill="#f472b6" />
  <circle cx="209.9200422844121" cy="187.03936571045583" r="7.76798027805987" fill="#a78bfa" />
  <circle cx="234.88523704993867" cy="185.96230384560866" r="7.883444477475527" fill="#60a5fa" />
  <circle cx="261.03373837217873" cy="182.8589793036098" r="6.345125761411252" fill="#34d399" />
  <circle cx="289.81547917713885" cy="179.19083900727614" r="6.0744236639748515" fill="#fbbf24" />
  <circle cx="320.98100635853854" cy="177.06408549925538" r="4.850230092532194" fill="#fb923c" />
  <circle cx="16.045625184859954" cy="214.60619339618592" r="4.885753623003478" fill="#fb923c" />
  <circle cx="46.765778715980375" cy="211.63980280226264" r="5.547016550029754" fill="#fbbf24" />
  <circle cx="74.42259271343318" cy="207.5829204210271" r="6.507412247089844" fill="#34d399" />
  <circle cx="99.10560629218878" cy="205.08276147348204" r="6.85364332303816" fill="#60a5fa" />
  <circle cx="122.91332346114118" cy="206.01577762361856" r="8.227245905115247" fill="#60a5fa" />
  <circle cx="148.96063428954417" cy="209.9200422844121" r="7.76798027805987" fill="#a78bfa" />
  <circle cx="177.9205328022826" cy="212.95965325380317" r="8.600116985680192" fill="#a78bfa" />
  <circle cx="206.01577762361856" cy="213.08667653885882" r="8.227245905115247" fill="#60a5fa" />
  <circle cx="233.14097480968942" cy="211.33845963701836" r="6.897569770316818" fill="#60a5fa" />
  <circle cx="261.1996370542381" cy="208.46438429646074" r="6.250734571923014" fill="#34d399" />
  <circle cx="291.1712587085733" cy="205.82869052860167" r="5.90411550150137" fill="#fbbf24" />
  <circle cx="322.57614418033813" cy="204.9930390571263" r="4.677312936943687" fill="#fb923c" />
  <circle cx="15.51731382096217" cy="242.80617922769397" r="4.596910386153013" fill="#f472b6" />
  <circle cx="46.49450600923295" cy="240.28057355350992" r="5.386384419059922" fill="#fb923c" />
  <circle cx="74.78269856676488" cy="236.41022189615495" r="5.880000493440676" fill="#fbbf24" />
  <circle cx="100.29257353380491" cy="233.5116031155771" r="6.680768854988668" fill="#34d399" />
  <circle cx="124.66154036298165" cy="233.14097480968942" r="6.897569770316818" fill="#60a5fa" />
  <circle cx="150.03769615439134" cy="234.88523704993867" r="7.883444477475527" fill="#60a5fa" />
  <circle cx="177.1445030078761" cy="236.64879721748517" r="7.181945002903957" fill="#60a5fa" />
  <circle cx="205.08276147348204" cy="236.89439370781122" r="6.85364332303816" fill="#60a5fa" />
  <circle cx="233.5116031155771" cy="235.70742646619507" r="6.680768854988668" fill="#34d399" />
  <circle cx="262.9450103666012" cy="233.99142938944243" r="6.373840561214998" fill="#fbbf24" />
  <circle cx="293.56188003112123" cy="232.97907868087245" r="5.088085853417247" fill="#fb923c" />
  <circle cx="324.62340813858884" cy="233.69659091668177" r="4.8482954583408855" fill="#f472b6" />
  <circle cx="14.321113969115538" cy="271.0297600160285" r="4.485119991985755" fill="#f472b6" />
  <circle cx="45.659882246096075" cy="269.4650919099947" r="5.377933558681823" fill="#fb923c" />
  <circle cx="75.03728794308839" cy="266.1653184152364" r="5.228248699865107" fill="#fbbf24" />
  <circle cx="102.00857061055758" cy="262.9450103666012" r="6.3738405612149895" fill="#fbbf24" />
  <circle cx="127.53561570353926" cy="261.1996370542381" r="6.250734571923014" fill="#34d399" />
  <circle cx="153.1410206963902" cy="261.03373837217873" r="6.345125761411252" fill="#34d399" />
  <circle cx="179.78482661274464" cy="261.47290304230233" r="6.653586660664734" fill="#34d399" />
  <circle cx="207.5829204210271" cy="261.5774072865668" r="6.507412247089844" fill="#34d399" />
  <circle cx="236.41022189615495" cy="261.2173014332351" r="5.880000493440658" fill="#fbbf24" />
  <circle cx="266.1653184152364" cy="260.9627120569116" r="5.22824869986509" fill="#fbbf24" />
  <circle cx="296.45757960603277" cy="261.5997838144005" r="4.99288313346946" fill="#fb923c" />
  <circle cx="326.4203696276004" cy="263.57885722118914" r="4.789815186199803" fill="#f472b6" />
  <circle cx="12.573539185427926" cy="298.8339227904974" r="4.5830386047512945" fill="#a78bfa" />
  <circle cx="43.99334845006651" cy="298.62905627062554" r="4.68547186468723" fill="#f472b6" />
  <circle cx="74.4002161855995" cy="296.45757960603277" r="4.99288313346946" fill="#fb923c" />
  <circle cx="103.02092131912755" cy="293.56188003112123" r="5.088085853417247" fill="#fb923c" />
  <circle cx="130.17130947139833" cy="291.1712587085733" r="5.90411550150137" fill="#fbbf24" />
  <circle cx="156.80916099272383" cy="289.81547917713885" r="6.0744236639748515" fill="#fbbf24" />
  <circle cx="183.82209151959032" cy="289.30089556465947" r="5.755967599189068" fill="#fbbf24" />
  <circle cx="211.63980280226264" cy="289.2342212840196" r="5.547016550029746" fill="#fbbf24" />
  <circle cx="240.28057355350992" cy="289.50549399076704" r="5.386384419059914" fill="#fb923c" />
  <circle cx="269.4650919099947" cy="290.34011775390394" r="5.37793355868183" fill="#fb923c" />
  <circle cx="298.62905627062554" cy="292.0066515499335" r="4.68547186468723" fill="#f472b6" />
  <circle cx="327.0206690351553" cy="294.4410016320068" r="4.489665482422339" fill="#a78bfa" />
  <circle cx="10.658731033825227" cy="325.77326406386794" r="5.113367968066029" fill="#a78bfa" />
  <circle cx="41.5589983679932" cy="327.0206690351553" r="4.489665482422339" fill="#a78bfa" />
  <circle cx="72.42114277881085" cy="326.4203696276004" r="4.789815186199803" fill="#f472b6" />
  <circle cx="102.30340908331823" cy="324.62340813858884" r="4.8482954583408855" fill="#f472b6" />
  <circle cx="131.0069609428737" cy="322.57614418033813" r="4.677312936943687" fill="#fb923c" />
  <circle cx="158.93591450074462" cy="320.98100635853854" r="4.850230092532194" fill="#fb923c" />
  <circle cx="186.6712449178459" cy="320.10762822957577" r="4.991855894237032" fill="#fb923c" />
  <circle cx="214.60619339618592" cy="319.95437481514006" r="4.885753623003478" fill="#fb923c" />
  <circle cx="242.80617922769397" cy="320.48268617903784" r="4.596910386153013" fill="#f472b6" />
  <circle cx="271.0297600160285" cy="321.6788860308845" r="4.485119991985755" fill="#f472b6" />
  <circle cx="298.8339227904974" cy="323.42646081457207" r="4.5830386047512945" fill="#a78bfa" />
  <circle cx="325.77326406386794" cy="325.34126896617477" r="5.113367968066029" fill="#a78bfa" />
</svg>